G04 start of page 4 for group 2 idx 2 *
G04 Title: (unknown), outline *
G04 Creator: pcb 20140316 *
G04 CreationDate: Sat 10 Dec 2016 02:34:45 AM GMT UTC *
G04 For: railfan *
G04 Format: Gerber/RS-274X *
G04 PCB-Dimensions (mil): 4100.00 250.00 *
G04 PCB-Coordinate-Origin: lower left *
%MOIN*%
%FSLAX25Y25*%
%LNOUTLINE*%
%ADD19C,0.0100*%
G54D19*X130000Y18000D02*X140000D01*
X147000Y25000D01*
X158000D01*
X165000Y18000D01*
X175000D01*
X182000Y25000D01*
X193000D01*
X200000Y18000D01*
X210000D01*
X217000Y25000D01*
X228000D01*
X235000Y18000D01*
X245000D01*
X252000Y25000D01*
X263000D01*
X270000Y18000D01*
X280000D01*
X287000Y25000D01*
X280000Y7000D02*X270000D01*
X263000Y0D01*
X252000D01*
X245000Y7000D01*
X235000D01*
X287000Y25000D02*X298000D01*
X305000Y18000D01*
X315000D01*
X322000Y25000D01*
X333000D01*
X340000Y18000D01*
Y7000D02*X333000Y0D01*
X322000D01*
X315000Y7000D01*
X305000D01*
X298000Y0D01*
X287000D01*
X280000Y7000D01*
X235000D02*X228000Y0D01*
X217000D01*
X210000Y7000D01*
X200000D01*
X193000Y0D01*
X182000D01*
X175000Y7000D01*
X165000D01*
X158000Y0D01*
X147000D01*
X140000Y7000D01*
X130000D01*
X340000Y18000D02*X350000D01*
X375000D02*X385000D01*
X350000D02*X357000Y25000D01*
X375000Y18000D02*X368000Y25000D01*
X357000D01*
X350000Y7000D02*X340000D01*
X350000D02*X357000Y0D01*
X368000D02*X357000D01*
X385000Y7000D02*X375000D01*
X368000Y0D01*
X410000Y7000D02*X403000Y0D01*
X385000Y7000D02*X392000Y0D01*
X403000D01*
X410000Y18000D02*X403000Y25000D01*
X410000Y18000D02*Y7000D01*
X385000Y18000D02*X392000Y25000D01*
X403000D01*
X42000D02*X53000D01*
X77000D02*X88000D01*
X112000D02*X123000D01*
X53000D02*X60000Y18000D01*
X70000D01*
X77000Y25000D01*
X88000D02*X95000Y18000D01*
X105000D01*
X112000Y25000D01*
X123000D02*X130000Y18000D01*
Y7000D02*X123000Y0D01*
X112000D01*
X88000D02*X77000D01*
X53000D02*X42000D01*
X112000D02*X105000Y7000D01*
X95000D01*
X88000Y0D01*
X77000D02*X70000Y7000D01*
X60000D01*
X53000Y0D01*
X25000Y7000D02*X18000Y0D01*
X7000D01*
X0Y7000D02*Y18000D01*
X7000Y0D02*X0Y7000D01*
Y18000D02*X7000Y25000D01*
X18000D01*
X25000Y18000D01*
X35000D01*
X42000Y25000D01*
Y0D02*X35000Y7000D01*
X25000D01*
M02*
