G04 start of page 9 for group -4079 idx -4079 *
G04 Title: (unknown), topsilk *
G04 Creator: pcb 20140316 *
G04 CreationDate: Wed 03 Jan 2018 02:51:44 AM GMT UTC *
G04 For: railfan *
G04 Format: Gerber/RS-274X *
G04 PCB-Dimensions (mil): 1000.00 4200.00 *
G04 PCB-Coordinate-Origin: lower left *
%MOIN*%
%FSLAX25Y25*%
%LNTOPSILK*%
%ADD40C,0.0100*%
%ADD39C,0.0080*%
G54D39*X11000Y274500D02*X81500D01*
Y250500D02*X11000D01*
Y239500D02*X81500D01*
Y215500D02*X11000D01*
Y204500D02*X81500D01*
Y180500D02*X11000D01*
Y169500D02*X81500D01*
Y145500D02*X11000D01*
Y134500D02*X81500D01*
Y110500D02*X11000D01*
Y99500D02*X81500D01*
Y75500D02*X11000D01*
Y64500D02*X81500D01*
Y40500D02*X11000D01*
Y29500D02*X81500D01*
Y5500D02*X11000D01*
X81500Y355500D02*X11000D01*
Y344500D02*X81500D01*
Y320500D02*X11000D01*
Y309500D02*X81500D01*
X11000Y414500D02*X81500D01*
Y390500D02*X11000D01*
Y379500D02*X81500D01*
Y285500D02*X11000D01*
X65020Y331240D02*X65400Y330860D01*
X63880Y331240D02*X65020D01*
X63500Y330860D02*X63880Y331240D01*
X63500Y330860D02*Y328580D01*
X63880Y328200D01*
X65020D01*
X65400Y328580D01*
Y329340D02*Y328580D01*
X65020Y329720D02*X65400Y329340D01*
X64260Y329720D02*X65020D01*
X63885Y326230D02*Y323150D01*
X64886Y326230D02*X65425Y325691D01*
Y323689D01*
X64886Y323150D02*X65425Y323689D01*
X63500Y323150D02*X64886D01*
X63500Y326230D02*X64886D01*
X63500Y301730D02*X64270Y298650D01*
X65040Y301730D01*
X64039Y303650D02*X65040D01*
X63500Y304189D02*X64039Y303650D01*
X63500Y306191D02*Y304189D01*
Y306191D02*X64039Y306730D01*
X65040D01*
X63500Y336730D02*X64270Y333650D01*
X65040Y336730D01*
X64039Y338650D02*X65040D01*
X63500Y339189D02*X64039Y338650D01*
X63500Y341191D02*Y339189D01*
Y341191D02*X64039Y341730D01*
X65040D01*
X65020Y296240D02*X65400Y295860D01*
X63880Y296240D02*X65020D01*
X63500Y295860D02*X63880Y296240D01*
X63500Y295860D02*Y293580D01*
X63880Y293200D01*
X65020D01*
X65400Y293580D01*
Y294340D02*Y293580D01*
X65020Y294720D02*X65400Y294340D01*
X64260Y294720D02*X65020D01*
X63885Y291230D02*Y288150D01*
X64886Y291230D02*X65425Y290691D01*
Y288689D01*
X64886Y288150D02*X65425Y288689D01*
X63500Y288150D02*X64886D01*
X63500Y291230D02*X64886D01*
X65020Y261240D02*X65400Y260860D01*
X63880Y261240D02*X65020D01*
X63500Y260860D02*X63880Y261240D01*
X63500Y260860D02*Y258580D01*
X63880Y258200D01*
X65020D01*
X65400Y258580D01*
Y259340D02*Y258580D01*
X65020Y259720D02*X65400Y259340D01*
X64260Y259720D02*X65020D01*
X63500Y266730D02*X64270Y263650D01*
X65040Y266730D01*
X64039Y268650D02*X65040D01*
X63500Y269189D02*X64039Y268650D01*
X63500Y271191D02*Y269189D01*
Y271191D02*X64039Y271730D01*
X65040D01*
X65020Y366240D02*X65400Y365860D01*
X63880Y366240D02*X65020D01*
X63500Y365860D02*X63880Y366240D01*
X63500Y365860D02*Y363580D01*
X63880Y363200D01*
X65020D01*
X65400Y363580D01*
Y364340D02*Y363580D01*
X65020Y364720D02*X65400Y364340D01*
X64260Y364720D02*X65020D01*
X63500Y371730D02*X64270Y368650D01*
X65040Y371730D01*
X64039Y373650D02*X65040D01*
X63500Y374189D02*X64039Y373650D01*
X63500Y376191D02*Y374189D01*
Y376191D02*X64039Y376730D01*
X65040D01*
X65020Y401240D02*X65400Y400860D01*
X63880Y401240D02*X65020D01*
X63500Y400860D02*X63880Y401240D01*
X63500Y400860D02*Y398580D01*
X63880Y398200D01*
X65020D01*
X65400Y398580D01*
Y399340D02*Y398580D01*
X65020Y399720D02*X65400Y399340D01*
X64260Y399720D02*X65020D01*
X63500Y406730D02*X64270Y403650D01*
X65040Y406730D01*
X64039Y408650D02*X65040D01*
X63500Y409189D02*X64039Y408650D01*
X63500Y411191D02*Y409189D01*
Y411191D02*X64039Y411730D01*
X65040D01*
X63885Y396230D02*Y393150D01*
X64886Y396230D02*X65425Y395691D01*
Y393689D01*
X64886Y393150D02*X65425Y393689D01*
X63500Y393150D02*X64886D01*
X63500Y396230D02*X64886D01*
X63885Y361230D02*Y358150D01*
X64886Y361230D02*X65425Y360691D01*
Y358689D01*
X64886Y358150D02*X65425Y358689D01*
X63500Y358150D02*X64886D01*
X63500Y361230D02*X64886D01*
X63885Y256230D02*Y253150D01*
X64886Y256230D02*X65425Y255691D01*
Y253689D01*
X64886Y253150D02*X65425Y253689D01*
X63500Y253150D02*X64886D01*
X63500Y256230D02*X64886D01*
X65020Y226240D02*X65400Y225860D01*
X63880Y226240D02*X65020D01*
X63500Y225860D02*X63880Y226240D01*
X63500Y225860D02*Y223580D01*
X63880Y223200D01*
X65020D01*
X65400Y223580D01*
Y224340D02*Y223580D01*
X65020Y224720D02*X65400Y224340D01*
X64260Y224720D02*X65020D01*
X63500Y231730D02*X64270Y228650D01*
X65040Y231730D01*
X64039Y233650D02*X65040D01*
X63500Y234189D02*X64039Y233650D01*
X63500Y236191D02*Y234189D01*
Y236191D02*X64039Y236730D01*
X65040D01*
X63885Y221230D02*Y218150D01*
X64886Y221230D02*X65425Y220691D01*
Y218689D01*
X64886Y218150D02*X65425Y218689D01*
X63500Y218150D02*X64886D01*
X63500Y221230D02*X64886D01*
X65020Y191240D02*X65400Y190860D01*
X63880Y191240D02*X65020D01*
X63500Y190860D02*X63880Y191240D01*
X63500Y190860D02*Y188580D01*
X63880Y188200D01*
X65020D01*
X65400Y188580D01*
Y189340D02*Y188580D01*
X65020Y189720D02*X65400Y189340D01*
X64260Y189720D02*X65020D01*
X63500Y196730D02*X64270Y193650D01*
X65040Y196730D01*
X64039Y198650D02*X65040D01*
X63500Y199189D02*X64039Y198650D01*
X63500Y201191D02*Y199189D01*
Y201191D02*X64039Y201730D01*
X65040D01*
X63885Y186230D02*Y183150D01*
X64886Y186230D02*X65425Y185691D01*
Y183689D01*
X64886Y183150D02*X65425Y183689D01*
X63500Y183150D02*X64886D01*
X63500Y186230D02*X64886D01*
X65020Y156240D02*X65400Y155860D01*
X63880Y156240D02*X65020D01*
X63500Y155860D02*X63880Y156240D01*
X63500Y155860D02*Y153580D01*
X63880Y153200D01*
X65020D01*
X65400Y153580D01*
Y154340D02*Y153580D01*
X65020Y154720D02*X65400Y154340D01*
X64260Y154720D02*X65020D01*
X63885Y151230D02*Y148150D01*
X64886Y151230D02*X65425Y150691D01*
Y148689D01*
X64886Y148150D02*X65425Y148689D01*
X63500Y148150D02*X64886D01*
X63500Y151230D02*X64886D01*
X63500Y126730D02*X64270Y123650D01*
X65040Y126730D01*
X64039Y128650D02*X65040D01*
X63500Y129189D02*X64039Y128650D01*
X63500Y131191D02*Y129189D01*
Y131191D02*X64039Y131730D01*
X65040D01*
X63500Y161730D02*X64270Y158650D01*
X65040Y161730D01*
X64039Y163650D02*X65040D01*
X63500Y164189D02*X64039Y163650D01*
X63500Y166191D02*Y164189D01*
Y166191D02*X64039Y166730D01*
X65040D01*
X65020Y121240D02*X65400Y120860D01*
X63880Y121240D02*X65020D01*
X63500Y120860D02*X63880Y121240D01*
X63500Y120860D02*Y118580D01*
X63880Y118200D01*
X65020D01*
X65400Y118580D01*
Y119340D02*Y118580D01*
X65020Y119720D02*X65400Y119340D01*
X64260Y119720D02*X65020D01*
X63885Y116230D02*Y113150D01*
X64886Y116230D02*X65425Y115691D01*
Y113689D01*
X64886Y113150D02*X65425Y113689D01*
X63500Y113150D02*X64886D01*
X63500Y116230D02*X64886D01*
X65020Y86240D02*X65400Y85860D01*
X63880Y86240D02*X65020D01*
X63500Y85860D02*X63880Y86240D01*
X63500Y85860D02*Y83580D01*
X63880Y83200D01*
X65020D01*
X65400Y83580D01*
Y84340D02*Y83580D01*
X65020Y84720D02*X65400Y84340D01*
X64260Y84720D02*X65020D01*
X63500Y91730D02*X64270Y88650D01*
X65040Y91730D01*
X64039Y93650D02*X65040D01*
X63500Y94189D02*X64039Y93650D01*
X63500Y96191D02*Y94189D01*
Y96191D02*X64039Y96730D01*
X65040D01*
X63885Y81230D02*Y78150D01*
X64886Y81230D02*X65425Y80691D01*
Y78689D01*
X64886Y78150D02*X65425Y78689D01*
X63500Y78150D02*X64886D01*
X63500Y81230D02*X64886D01*
X65020Y51240D02*X65400Y50860D01*
X63880Y51240D02*X65020D01*
X63500Y50860D02*X63880Y51240D01*
X63500Y50860D02*Y48580D01*
X63880Y48200D01*
X65020D01*
X65400Y48580D01*
Y49340D02*Y48580D01*
X65020Y49720D02*X65400Y49340D01*
X64260Y49720D02*X65020D01*
X63885Y46230D02*Y43150D01*
X64886Y46230D02*X65425Y45691D01*
Y43689D01*
X64886Y43150D02*X65425Y43689D01*
X63500Y43150D02*X64886D01*
X63500Y46230D02*X64886D01*
X65020Y16240D02*X65400Y15860D01*
X63880Y16240D02*X65020D01*
X63500Y15860D02*X63880Y16240D01*
X63500Y15860D02*Y13580D01*
X63880Y13200D01*
X65020D01*
X65400Y13580D01*
Y14340D02*Y13580D01*
X65020Y14720D02*X65400Y14340D01*
X64260Y14720D02*X65020D01*
X63500Y21730D02*X64270Y18650D01*
X65040Y21730D01*
X64039Y23650D02*X65040D01*
X63500Y24189D02*X64039Y23650D01*
X63500Y26191D02*Y24189D01*
Y26191D02*X64039Y26730D01*
X65040D01*
X63885Y11230D02*Y8150D01*
X64886Y11230D02*X65425Y10691D01*
Y8689D01*
X64886Y8150D02*X65425Y8689D01*
X63500Y8150D02*X64886D01*
X63500Y11230D02*X64886D01*
X63500Y56730D02*X64270Y53650D01*
X65040Y56730D01*
X64039Y58650D02*X65040D01*
X63500Y59189D02*X64039Y58650D01*
X63500Y61191D02*Y59189D01*
Y61191D02*X64039Y61730D01*
X65040D01*
G54D40*X59755Y231893D02*Y231107D01*
X54245Y231893D02*Y231107D01*
X17837Y217732D02*G75*G03X17837Y217732I-500J0D01*G01*
X32745Y224393D02*Y223607D01*
X38255Y224393D02*Y223607D01*
X42245Y224393D02*Y223607D01*
X47755Y224393D02*Y223607D01*
X59755Y196893D02*Y196107D01*
X54245Y196893D02*Y196107D01*
X17837Y182732D02*G75*G03X17837Y182732I-500J0D01*G01*
X32745Y189393D02*Y188607D01*
X38255Y189393D02*Y188607D01*
X42245Y189393D02*Y188607D01*
X47755Y189393D02*Y188607D01*
X59755Y161893D02*Y161107D01*
X54245Y161893D02*Y161107D01*
X17837Y147732D02*G75*G03X17837Y147732I-500J0D01*G01*
X32745Y154393D02*Y153607D01*
X38255Y154393D02*Y153607D01*
X42245Y154393D02*Y153607D01*
X47755Y154393D02*Y153607D01*
X59755Y126893D02*Y126107D01*
X54245Y126893D02*Y126107D01*
X17837Y112732D02*G75*G03X17837Y112732I-500J0D01*G01*
X32745Y119393D02*Y118607D01*
X38255Y119393D02*Y118607D01*
X42245Y119393D02*Y118607D01*
X47755Y119393D02*Y118607D01*
X59755Y91893D02*Y91107D01*
X54245Y91893D02*Y91107D01*
X17837Y77732D02*G75*G03X17837Y77732I-500J0D01*G01*
X32745Y84393D02*Y83607D01*
X38255Y84393D02*Y83607D01*
X42245Y84393D02*Y83607D01*
X47755Y84393D02*Y83607D01*
X59755Y56893D02*Y56107D01*
X54245Y56893D02*Y56107D01*
X17837Y42732D02*G75*G03X17837Y42732I-500J0D01*G01*
X32745Y49393D02*Y48607D01*
X38255Y49393D02*Y48607D01*
X42245Y49393D02*Y48607D01*
X47755Y49393D02*Y48607D01*
X17837Y7732D02*G75*G03X17837Y7732I-500J0D01*G01*
X32745Y14393D02*Y13607D01*
X38255Y14393D02*Y13607D01*
X42245Y14393D02*Y13607D01*
X47755Y14393D02*Y13607D01*
X59755Y21893D02*Y21107D01*
X54245Y21893D02*Y21107D01*
X59755Y371893D02*Y371107D01*
X54245Y371893D02*Y371107D01*
X59755Y336893D02*Y336107D01*
X54245Y336893D02*Y336107D01*
X59755Y301893D02*Y301107D01*
X54245Y301893D02*Y301107D01*
X17837Y322732D02*G75*G03X17837Y322732I-500J0D01*G01*
X32745Y329393D02*Y328607D01*
X38255Y329393D02*Y328607D01*
X42245Y329393D02*Y328607D01*
X47755Y329393D02*Y328607D01*
X42245Y399393D02*Y398607D01*
X47755Y399393D02*Y398607D01*
X59755Y406893D02*Y406107D01*
X54245Y406893D02*Y406107D01*
X17837Y392732D02*G75*G03X17837Y392732I-500J0D01*G01*
X32745Y399393D02*Y398607D01*
X38255Y399393D02*Y398607D01*
X17837Y357732D02*G75*G03X17837Y357732I-500J0D01*G01*
X32745Y364393D02*Y363607D01*
X38255Y364393D02*Y363607D01*
X42245Y364393D02*Y363607D01*
X47755Y364393D02*Y363607D01*
X17837Y287732D02*G75*G03X17837Y287732I-500J0D01*G01*
X32745Y294393D02*Y293607D01*
X38255Y294393D02*Y293607D01*
X42245Y294393D02*Y293607D01*
X47755Y294393D02*Y293607D01*
X59755Y266893D02*Y266107D01*
X54245Y266893D02*Y266107D01*
X17837Y252732D02*G75*G03X17837Y252732I-500J0D01*G01*
X32745Y259393D02*Y258607D01*
X38255Y259393D02*Y258607D01*
X42245Y259393D02*Y258607D01*
X47755Y259393D02*Y258607D01*
G54D39*X57250Y359960D02*Y358621D01*
X56529Y357900D02*X57250Y358621D01*
X53851Y357900D02*X56529D01*
X53851D02*X53130Y358621D01*
Y359960D02*Y358621D01*
X53954Y361196D02*X53130Y362020D01*
X57250D01*
Y362741D02*Y361196D01*
Y324960D02*Y323621D01*
X56529Y322900D02*X57250Y323621D01*
X53851Y322900D02*X56529D01*
X53851D02*X53130Y323621D01*
Y324960D02*Y323621D01*
X53954Y326196D02*X53130Y327020D01*
X57250D01*
Y327741D02*Y326196D01*
Y289960D02*Y288621D01*
X56529Y287900D02*X57250Y288621D01*
X53851Y287900D02*X56529D01*
X53851D02*X53130Y288621D01*
Y289960D02*Y288621D01*
X53954Y291196D02*X53130Y292020D01*
X57250D01*
Y292741D02*Y291196D01*
Y254960D02*Y253621D01*
X56529Y252900D02*X57250Y253621D01*
X53851Y252900D02*X56529D01*
X53851D02*X53130Y253621D01*
Y254960D02*Y253621D01*
X53954Y256196D02*X53130Y257020D01*
X57250D01*
Y257741D02*Y256196D01*
X82000Y367000D02*Y366200D01*
Y367000D02*X85500D01*
X86000Y366500D02*X85500Y367000D01*
X86000Y366500D02*Y366000D01*
X85500Y365500D02*X86000Y366000D01*
X85000Y365500D02*X85500D01*
X82800Y368200D02*X82000Y369000D01*
X86000D01*
Y369700D02*Y368200D01*
X82000Y332000D02*Y331200D01*
Y332000D02*X85500D01*
X86000Y331500D02*X85500Y332000D01*
X86000Y331500D02*Y331000D01*
X85500Y330500D02*X86000Y331000D01*
X85000Y330500D02*X85500D01*
X82800Y333200D02*X82000Y334000D01*
X86000D01*
Y334700D02*Y333200D01*
X82000Y297000D02*Y296200D01*
Y297000D02*X85500D01*
X86000Y296500D02*X85500Y297000D01*
X86000Y296500D02*Y296000D01*
X85500Y295500D02*X86000Y296000D01*
X85000Y295500D02*X85500D01*
X82800Y298200D02*X82000Y299000D01*
X86000D01*
Y299700D02*Y298200D01*
X82000Y262000D02*Y261200D01*
Y262000D02*X85500D01*
X86000Y261500D02*X85500Y262000D01*
X86000Y261500D02*Y261000D01*
X85500Y260500D02*X86000Y261000D01*
X85000Y260500D02*X85500D01*
X82800Y263200D02*X82000Y264000D01*
X86000D01*
Y264700D02*Y263200D01*
X82000Y227000D02*Y226200D01*
Y227000D02*X85500D01*
X86000Y226500D02*X85500Y227000D01*
X86000Y226500D02*Y226000D01*
X85500Y225500D02*X86000Y226000D01*
X85000Y225500D02*X85500D01*
X82800Y228200D02*X82000Y229000D01*
X86000D01*
Y229700D02*Y228200D01*
X82000Y192000D02*Y191200D01*
Y192000D02*X85500D01*
X86000Y191500D02*X85500Y192000D01*
X86000Y191500D02*Y191000D01*
X85500Y190500D02*X86000Y191000D01*
X85000Y190500D02*X85500D01*
X82800Y193200D02*X82000Y194000D01*
X86000D01*
Y194700D02*Y193200D01*
X37357Y339343D02*Y338043D01*
X36657Y337343D02*X37357Y338043D01*
X34057Y337343D02*X36657D01*
X34057D02*X33357Y338043D01*
Y339343D02*Y338043D01*
X33857Y340543D02*X33357Y341043D01*
Y342543D02*Y341043D01*
Y342543D02*X33857Y343043D01*
X34857D01*
X37357Y340543D02*X34857Y343043D01*
X37357D02*Y340543D01*
X43000Y339500D02*Y337500D01*
Y339500D02*X43500Y340000D01*
X44500D01*
X45000Y339500D02*X44500Y340000D01*
X45000Y339500D02*Y338000D01*
X43000D02*X47000D01*
X45000Y338800D02*X47000Y340000D01*
X43800Y341200D02*X43000Y342000D01*
X47000D01*
Y342700D02*Y341200D01*
X37357Y304343D02*Y303043D01*
X36657Y302343D02*X37357Y303043D01*
X34057Y302343D02*X36657D01*
X34057D02*X33357Y303043D01*
Y304343D02*Y303043D01*
X33857Y305543D02*X33357Y306043D01*
Y307543D02*Y306043D01*
Y307543D02*X33857Y308043D01*
X34857D01*
X37357Y305543D02*X34857Y308043D01*
X37357D02*Y305543D01*
X43000Y304500D02*Y302500D01*
Y304500D02*X43500Y305000D01*
X44500D01*
X45000Y304500D02*X44500Y305000D01*
X45000Y304500D02*Y303000D01*
X43000D02*X47000D01*
X45000Y303800D02*X47000Y305000D01*
X43800Y306200D02*X43000Y307000D01*
X47000D01*
Y307700D02*Y306200D01*
X82000Y157000D02*Y156200D01*
Y157000D02*X85500D01*
X86000Y156500D02*X85500Y157000D01*
X86000Y156500D02*Y156000D01*
X85500Y155500D02*X86000Y156000D01*
X85000Y155500D02*X85500D01*
X82800Y158200D02*X82000Y159000D01*
X86000D01*
Y159700D02*Y158200D01*
X82000Y122000D02*Y121200D01*
Y122000D02*X85500D01*
X86000Y121500D02*X85500Y122000D01*
X86000Y121500D02*Y121000D01*
X85500Y120500D02*X86000Y121000D01*
X85000Y120500D02*X85500D01*
X82800Y123200D02*X82000Y124000D01*
X86000D01*
Y124700D02*Y123200D01*
X82000Y87000D02*Y86200D01*
Y87000D02*X85500D01*
X86000Y86500D02*X85500Y87000D01*
X86000Y86500D02*Y86000D01*
X85500Y85500D02*X86000Y86000D01*
X85000Y85500D02*X85500D01*
X82800Y88200D02*X82000Y89000D01*
X86000D01*
Y89700D02*Y88200D01*
X82000Y52000D02*Y51200D01*
Y52000D02*X85500D01*
X86000Y51500D02*X85500Y52000D01*
X86000Y51500D02*Y51000D01*
X85500Y50500D02*X86000Y51000D01*
X85000Y50500D02*X85500D01*
X82800Y53200D02*X82000Y54000D01*
X86000D01*
Y54700D02*Y53200D01*
X82000Y17000D02*Y16200D01*
Y17000D02*X85500D01*
X86000Y16500D02*X85500Y17000D01*
X86000Y16500D02*Y16000D01*
X85500Y15500D02*X86000Y16000D01*
X85000Y15500D02*X85500D01*
X82800Y18200D02*X82000Y19000D01*
X86000D01*
Y19700D02*Y18200D01*
X57250Y394960D02*Y393621D01*
X56529Y392900D02*X57250Y393621D01*
X53851Y392900D02*X56529D01*
X53851D02*X53130Y393621D01*
Y394960D02*Y393621D01*
X53954Y396196D02*X53130Y397020D01*
X57250D01*
Y397741D02*Y396196D01*
X82000Y402000D02*Y401200D01*
Y402000D02*X85500D01*
X86000Y401500D02*X85500Y402000D01*
X86000Y401500D02*Y401000D01*
X85500Y400500D02*X86000Y401000D01*
X85000Y400500D02*X85500D01*
X82800Y403200D02*X82000Y404000D01*
X86000D01*
Y404700D02*Y403200D01*
X37357Y374343D02*Y373043D01*
X36657Y372343D02*X37357Y373043D01*
X34057Y372343D02*X36657D01*
X34057D02*X33357Y373043D01*
Y374343D02*Y373043D01*
X33857Y375543D02*X33357Y376043D01*
Y377543D02*Y376043D01*
Y377543D02*X33857Y378043D01*
X34857D01*
X37357Y375543D02*X34857Y378043D01*
X37357D02*Y375543D01*
X43000Y374500D02*Y372500D01*
Y374500D02*X43500Y375000D01*
X44500D01*
X45000Y374500D02*X44500Y375000D01*
X45000Y374500D02*Y373000D01*
X43000D02*X47000D01*
X45000Y373800D02*X47000Y375000D01*
X43800Y376200D02*X43000Y377000D01*
X47000D01*
Y377700D02*Y376200D01*
X37357Y409343D02*Y408043D01*
X36657Y407343D02*X37357Y408043D01*
X34057Y407343D02*X36657D01*
X34057D02*X33357Y408043D01*
Y409343D02*Y408043D01*
X33857Y410543D02*X33357Y411043D01*
Y412543D02*Y411043D01*
Y412543D02*X33857Y413043D01*
X34857D01*
X37357Y410543D02*X34857Y413043D01*
X37357D02*Y410543D01*
X43000Y409500D02*Y407500D01*
Y409500D02*X43500Y410000D01*
X44500D01*
X45000Y409500D02*X44500Y410000D01*
X45000Y409500D02*Y408000D01*
X43000D02*X47000D01*
X45000Y408800D02*X47000Y410000D01*
X43800Y411200D02*X43000Y412000D01*
X47000D01*
Y412700D02*Y411200D01*
X37357Y269343D02*Y268043D01*
X36657Y267343D02*X37357Y268043D01*
X34057Y267343D02*X36657D01*
X34057D02*X33357Y268043D01*
Y269343D02*Y268043D01*
X33857Y270543D02*X33357Y271043D01*
Y272543D02*Y271043D01*
Y272543D02*X33857Y273043D01*
X34857D01*
X37357Y270543D02*X34857Y273043D01*
X37357D02*Y270543D01*
X43000Y269500D02*Y267500D01*
Y269500D02*X43500Y270000D01*
X44500D01*
X45000Y269500D02*X44500Y270000D01*
X45000Y269500D02*Y268000D01*
X43000D02*X47000D01*
X45000Y268800D02*X47000Y270000D01*
X43800Y271200D02*X43000Y272000D01*
X47000D01*
Y272700D02*Y271200D01*
X37357Y234343D02*Y233043D01*
X36657Y232343D02*X37357Y233043D01*
X34057Y232343D02*X36657D01*
X34057D02*X33357Y233043D01*
Y234343D02*Y233043D01*
X33857Y235543D02*X33357Y236043D01*
Y237543D02*Y236043D01*
Y237543D02*X33857Y238043D01*
X34857D01*
X37357Y235543D02*X34857Y238043D01*
X37357D02*Y235543D01*
X43000Y234500D02*Y232500D01*
Y234500D02*X43500Y235000D01*
X44500D01*
X45000Y234500D02*X44500Y235000D01*
X45000Y234500D02*Y233000D01*
X43000D02*X47000D01*
X45000Y233800D02*X47000Y235000D01*
X43800Y236200D02*X43000Y237000D01*
X47000D01*
Y237700D02*Y236200D01*
X57250Y219960D02*Y218621D01*
X56529Y217900D02*X57250Y218621D01*
X53851Y217900D02*X56529D01*
X53851D02*X53130Y218621D01*
Y219960D02*Y218621D01*
X53954Y221196D02*X53130Y222020D01*
X57250D01*
Y222741D02*Y221196D01*
Y184960D02*Y183621D01*
X56529Y182900D02*X57250Y183621D01*
X53851Y182900D02*X56529D01*
X53851D02*X53130Y183621D01*
Y184960D02*Y183621D01*
X53954Y186196D02*X53130Y187020D01*
X57250D01*
Y187741D02*Y186196D01*
X37357Y199343D02*Y198043D01*
X36657Y197343D02*X37357Y198043D01*
X34057Y197343D02*X36657D01*
X34057D02*X33357Y198043D01*
Y199343D02*Y198043D01*
X33857Y200543D02*X33357Y201043D01*
Y202543D02*Y201043D01*
Y202543D02*X33857Y203043D01*
X34857D01*
X37357Y200543D02*X34857Y203043D01*
X37357D02*Y200543D01*
X43000Y199500D02*Y197500D01*
Y199500D02*X43500Y200000D01*
X44500D01*
X45000Y199500D02*X44500Y200000D01*
X45000Y199500D02*Y198000D01*
X43000D02*X47000D01*
X45000Y198800D02*X47000Y200000D01*
X43800Y201200D02*X43000Y202000D01*
X47000D01*
Y202700D02*Y201200D01*
X37357Y164343D02*Y163043D01*
X36657Y162343D02*X37357Y163043D01*
X34057Y162343D02*X36657D01*
X34057D02*X33357Y163043D01*
Y164343D02*Y163043D01*
X33857Y165543D02*X33357Y166043D01*
Y167543D02*Y166043D01*
Y167543D02*X33857Y168043D01*
X34857D01*
X37357Y165543D02*X34857Y168043D01*
X37357D02*Y165543D01*
X43000Y164500D02*Y162500D01*
Y164500D02*X43500Y165000D01*
X44500D01*
X45000Y164500D02*X44500Y165000D01*
X45000Y164500D02*Y163000D01*
X43000D02*X47000D01*
X45000Y163800D02*X47000Y165000D01*
X43800Y166200D02*X43000Y167000D01*
X47000D01*
Y167700D02*Y166200D01*
X57250Y149960D02*Y148621D01*
X56529Y147900D02*X57250Y148621D01*
X53851Y147900D02*X56529D01*
X53851D02*X53130Y148621D01*
Y149960D02*Y148621D01*
X53954Y151196D02*X53130Y152020D01*
X57250D01*
Y152741D02*Y151196D01*
Y114960D02*Y113621D01*
X56529Y112900D02*X57250Y113621D01*
X53851Y112900D02*X56529D01*
X53851D02*X53130Y113621D01*
Y114960D02*Y113621D01*
X53954Y116196D02*X53130Y117020D01*
X57250D01*
Y117741D02*Y116196D01*
Y79960D02*Y78621D01*
X56529Y77900D02*X57250Y78621D01*
X53851Y77900D02*X56529D01*
X53851D02*X53130Y78621D01*
Y79960D02*Y78621D01*
X53954Y81196D02*X53130Y82020D01*
X57250D01*
Y82741D02*Y81196D01*
Y44960D02*Y43621D01*
X56529Y42900D02*X57250Y43621D01*
X53851Y42900D02*X56529D01*
X53851D02*X53130Y43621D01*
Y44960D02*Y43621D01*
X53954Y46196D02*X53130Y47020D01*
X57250D01*
Y47741D02*Y46196D01*
Y9960D02*Y8621D01*
X56529Y7900D02*X57250Y8621D01*
X53851Y7900D02*X56529D01*
X53851D02*X53130Y8621D01*
Y9960D02*Y8621D01*
X53954Y11196D02*X53130Y12020D01*
X57250D01*
Y12741D02*Y11196D01*
X37357Y129343D02*Y128043D01*
X36657Y127343D02*X37357Y128043D01*
X34057Y127343D02*X36657D01*
X34057D02*X33357Y128043D01*
Y129343D02*Y128043D01*
X33857Y130543D02*X33357Y131043D01*
Y132543D02*Y131043D01*
Y132543D02*X33857Y133043D01*
X34857D01*
X37357Y130543D02*X34857Y133043D01*
X37357D02*Y130543D01*
X43000Y129500D02*Y127500D01*
Y129500D02*X43500Y130000D01*
X44500D01*
X45000Y129500D02*X44500Y130000D01*
X45000Y129500D02*Y128000D01*
X43000D02*X47000D01*
X45000Y128800D02*X47000Y130000D01*
X43800Y131200D02*X43000Y132000D01*
X47000D01*
Y132700D02*Y131200D01*
X37357Y94343D02*Y93043D01*
X36657Y92343D02*X37357Y93043D01*
X34057Y92343D02*X36657D01*
X34057D02*X33357Y93043D01*
Y94343D02*Y93043D01*
X33857Y95543D02*X33357Y96043D01*
Y97543D02*Y96043D01*
Y97543D02*X33857Y98043D01*
X34857D01*
X37357Y95543D02*X34857Y98043D01*
X37357D02*Y95543D01*
X43000Y94500D02*Y92500D01*
Y94500D02*X43500Y95000D01*
X44500D01*
X45000Y94500D02*X44500Y95000D01*
X45000Y94500D02*Y93000D01*
X43000D02*X47000D01*
X45000Y93800D02*X47000Y95000D01*
X43800Y96200D02*X43000Y97000D01*
X47000D01*
Y97700D02*Y96200D01*
X37357Y59343D02*Y58043D01*
X36657Y57343D02*X37357Y58043D01*
X34057Y57343D02*X36657D01*
X34057D02*X33357Y58043D01*
Y59343D02*Y58043D01*
X33857Y60543D02*X33357Y61043D01*
Y62543D02*Y61043D01*
Y62543D02*X33857Y63043D01*
X34857D01*
X37357Y60543D02*X34857Y63043D01*
X37357D02*Y60543D01*
X43000Y59500D02*Y57500D01*
Y59500D02*X43500Y60000D01*
X44500D01*
X45000Y59500D02*X44500Y60000D01*
X45000Y59500D02*Y58000D01*
X43000D02*X47000D01*
X45000Y58800D02*X47000Y60000D01*
X43800Y61200D02*X43000Y62000D01*
X47000D01*
Y62700D02*Y61200D01*
X37357Y24343D02*Y23043D01*
X36657Y22343D02*X37357Y23043D01*
X34057Y22343D02*X36657D01*
X34057D02*X33357Y23043D01*
Y24343D02*Y23043D01*
X33857Y25543D02*X33357Y26043D01*
Y27543D02*Y26043D01*
Y27543D02*X33857Y28043D01*
X34857D01*
X37357Y25543D02*X34857Y28043D01*
X37357D02*Y25543D01*
X43000Y24500D02*Y22500D01*
Y24500D02*X43500Y25000D01*
X44500D01*
X45000Y24500D02*X44500Y25000D01*
X45000Y24500D02*Y23000D01*
X43000D02*X47000D01*
X45000Y23800D02*X47000Y25000D01*
X43800Y26200D02*X43000Y27000D01*
X47000D01*
Y27700D02*Y26200D01*
M02*
