G04 start of page 13 for group -3984 idx -3984 *
G04 Title: (unknown), fab *
G04 Creator: pcb 4.0.2 *
G04 CreationDate: Sun May 15 03:05:21 2022 UTC *
G04 For: railfan *
G04 Format: Gerber/RS-274X *
G04 PCB-Dimensions (mil): 3000.00 5500.00 *
G04 PCB-Coordinate-Origin: lower left *
%MOIN*%
%FSLAX25Y25*%
%LNFAB*%
%ADD58C,0.0100*%
%ADD57C,0.0075*%
%ADD56C,0.0060*%
%ADD55R,0.0080X0.0080*%
G54D55*X151700Y467500D02*G75*G03X153300Y467500I800J0D01*G01*
G75*G03X151700Y467500I-800J0D01*G01*
X131700Y471500D02*G75*G03X133300Y471500I800J0D01*G01*
G75*G03X131700Y471500I-800J0D01*G01*
Y463500D02*G75*G03X133300Y463500I800J0D01*G01*
G75*G03X131700Y463500I-800J0D01*G01*
X151700Y432500D02*G75*G03X153300Y432500I800J0D01*G01*
G75*G03X151700Y432500I-800J0D01*G01*
X131700Y436500D02*G75*G03X133300Y436500I800J0D01*G01*
G75*G03X131700Y436500I-800J0D01*G01*
Y428500D02*G75*G03X133300Y428500I800J0D01*G01*
G75*G03X131700Y428500I-800J0D01*G01*
X151700Y397500D02*G75*G03X153300Y397500I800J0D01*G01*
G75*G03X151700Y397500I-800J0D01*G01*
X131700Y401500D02*G75*G03X133300Y401500I800J0D01*G01*
G75*G03X131700Y401500I-800J0D01*G01*
Y393500D02*G75*G03X133300Y393500I800J0D01*G01*
G75*G03X131700Y393500I-800J0D01*G01*
X151700Y362500D02*G75*G03X153300Y362500I800J0D01*G01*
G75*G03X151700Y362500I-800J0D01*G01*
X131700Y366500D02*G75*G03X133300Y366500I800J0D01*G01*
G75*G03X131700Y366500I-800J0D01*G01*
Y358500D02*G75*G03X133300Y358500I800J0D01*G01*
G75*G03X131700Y358500I-800J0D01*G01*
X151700Y327500D02*G75*G03X153300Y327500I800J0D01*G01*
G75*G03X151700Y327500I-800J0D01*G01*
X131700Y331500D02*G75*G03X133300Y331500I800J0D01*G01*
G75*G03X131700Y331500I-800J0D01*G01*
Y323500D02*G75*G03X133300Y323500I800J0D01*G01*
G75*G03X131700Y323500I-800J0D01*G01*
X151700Y292500D02*G75*G03X153300Y292500I800J0D01*G01*
G75*G03X151700Y292500I-800J0D01*G01*
X131700Y296500D02*G75*G03X133300Y296500I800J0D01*G01*
G75*G03X131700Y296500I-800J0D01*G01*
Y288500D02*G75*G03X133300Y288500I800J0D01*G01*
G75*G03X131700Y288500I-800J0D01*G01*
X151700Y257500D02*G75*G03X153300Y257500I800J0D01*G01*
G75*G03X151700Y257500I-800J0D01*G01*
X131700Y261500D02*G75*G03X133300Y261500I800J0D01*G01*
G75*G03X131700Y261500I-800J0D01*G01*
Y253500D02*G75*G03X133300Y253500I800J0D01*G01*
G75*G03X131700Y253500I-800J0D01*G01*
X151700Y222500D02*G75*G03X153300Y222500I800J0D01*G01*
G75*G03X151700Y222500I-800J0D01*G01*
X131700Y226500D02*G75*G03X133300Y226500I800J0D01*G01*
G75*G03X131700Y226500I-800J0D01*G01*
Y218500D02*G75*G03X133300Y218500I800J0D01*G01*
G75*G03X131700Y218500I-800J0D01*G01*
X151700Y187500D02*G75*G03X153300Y187500I800J0D01*G01*
G75*G03X151700Y187500I-800J0D01*G01*
X131700Y191500D02*G75*G03X133300Y191500I800J0D01*G01*
G75*G03X131700Y191500I-800J0D01*G01*
Y183500D02*G75*G03X133300Y183500I800J0D01*G01*
G75*G03X131700Y183500I-800J0D01*G01*
X151700Y152500D02*G75*G03X153300Y152500I800J0D01*G01*
G75*G03X151700Y152500I-800J0D01*G01*
X131700Y156500D02*G75*G03X133300Y156500I800J0D01*G01*
G75*G03X131700Y156500I-800J0D01*G01*
Y148500D02*G75*G03X133300Y148500I800J0D01*G01*
G75*G03X131700Y148500I-800J0D01*G01*
X151700Y117500D02*G75*G03X153300Y117500I800J0D01*G01*
G75*G03X151700Y117500I-800J0D01*G01*
X131700Y121500D02*G75*G03X133300Y121500I800J0D01*G01*
G75*G03X131700Y121500I-800J0D01*G01*
Y113500D02*G75*G03X133300Y113500I800J0D01*G01*
G75*G03X131700Y113500I-800J0D01*G01*
X151700Y82500D02*G75*G03X153300Y82500I800J0D01*G01*
G75*G03X151700Y82500I-800J0D01*G01*
X131700Y86500D02*G75*G03X133300Y86500I800J0D01*G01*
G75*G03X131700Y86500I-800J0D01*G01*
Y78500D02*G75*G03X133300Y78500I800J0D01*G01*
G75*G03X131700Y78500I-800J0D01*G01*
X14200Y561250D02*G75*G03X15800Y561250I800J0D01*G01*
G75*G03X14200Y561250I-800J0D01*G01*
G54D56*X140000Y563500D02*Y557500D01*
Y563500D02*X143750Y557500D01*
Y563500D02*Y557500D01*
X145550Y562750D02*Y558250D01*
Y562750D02*X146300Y563500D01*
X147800D01*
X148550Y562750D01*
Y558250D01*
X147800Y557500D02*X148550Y558250D01*
X146300Y557500D02*X147800D01*
X145550Y558250D02*X146300Y557500D01*
X98000Y562750D02*X98750Y563500D01*
X100250D01*
X101000Y562750D01*
X100250Y557500D02*X101000Y558250D01*
X98750Y557500D02*X100250D01*
X98000Y558250D02*X98750Y557500D01*
Y560800D02*X100250D01*
X101000Y562750D02*Y561550D01*
Y560050D02*Y558250D01*
Y560050D02*X100250Y560800D01*
X101000Y561550D02*X100250Y560800D01*
X105050Y563500D02*X105800Y562750D01*
X103550Y563500D02*X105050D01*
X102800Y562750D02*X103550Y563500D01*
X102800Y562750D02*Y558250D01*
X103550Y557500D01*
X105050Y560800D02*X105800Y560050D01*
X102800Y560800D02*X105050D01*
X103550Y557500D02*X105050D01*
X105800Y558250D01*
Y560050D02*Y558250D01*
X45000D02*X45750Y557500D01*
X45000Y562750D02*Y558250D01*
Y562750D02*X45750Y563500D01*
X47250D01*
X48000Y562750D01*
Y558250D01*
X47250Y557500D02*X48000Y558250D01*
X45750Y557500D02*X47250D01*
X45000Y559000D02*X48000Y562000D01*
X49800Y557500D02*X50550D01*
X52350Y558250D02*X53100Y557500D01*
X52350Y562750D02*Y558250D01*
Y562750D02*X53100Y563500D01*
X54600D01*
X55350Y562750D01*
Y558250D01*
X54600Y557500D02*X55350Y558250D01*
X53100Y557500D02*X54600D01*
X52350Y559000D02*X55350Y562000D01*
X57150Y562750D02*X57900Y563500D01*
X59400D01*
X60150Y562750D01*
X59400Y557500D02*X60150Y558250D01*
X57900Y557500D02*X59400D01*
X57150Y558250D02*X57900Y557500D01*
Y560800D02*X59400D01*
X60150Y562750D02*Y561550D01*
Y560050D02*Y558250D01*
Y560050D02*X59400Y560800D01*
X60150Y561550D02*X59400Y560800D01*
X62700Y557500D02*X64950Y560500D01*
Y562750D02*Y560500D01*
X64200Y563500D02*X64950Y562750D01*
X62700Y563500D02*X64200D01*
X61950Y562750D02*X62700Y563500D01*
X61950Y562750D02*Y561250D01*
X62700Y560500D01*
X64950D01*
X213800Y420200D02*X216200Y417800D01*
X213800D02*X216200Y420200D01*
X218800D02*X221200Y417800D01*
X218800D02*X221200Y420200D01*
X223800D02*X226200Y417800D01*
X223800D02*X226200Y420200D01*
X103800D02*X106200Y417800D01*
X103800D02*X106200Y420200D01*
X108800D02*X111200Y417800D01*
X108800D02*X111200Y420200D01*
X113800D02*X116200Y417800D01*
X113800D02*X116200Y420200D01*
X113800Y447200D02*X116200Y444800D01*
X113800D02*X116200Y447200D01*
X103800D02*X106200Y444800D01*
X103800D02*X106200Y447200D01*
X108800D02*X111200Y444800D01*
X108800D02*X111200Y447200D01*
X113800Y455200D02*X116200Y452800D01*
X113800D02*X116200Y455200D01*
X108800D02*X111200Y452800D01*
X108800D02*X111200Y455200D01*
X103800D02*X106200Y452800D01*
X103800D02*X106200Y455200D01*
X223800Y447200D02*X226200Y444800D01*
X223800D02*X226200Y447200D01*
X213800D02*X216200Y444800D01*
X213800D02*X216200Y447200D01*
X218800D02*X221200Y444800D01*
X218800D02*X221200Y447200D01*
X223800Y455200D02*X226200Y452800D01*
X223800D02*X226200Y455200D01*
X218800D02*X221200Y452800D01*
X218800D02*X221200Y455200D01*
X213800D02*X216200Y452800D01*
X213800D02*X216200Y455200D01*
X113800Y412200D02*X116200Y409800D01*
X113800D02*X116200Y412200D01*
X103800D02*X106200Y409800D01*
X103800D02*X106200Y412200D01*
X108800D02*X111200Y409800D01*
X108800D02*X111200Y412200D01*
X223800D02*X226200Y409800D01*
X223800D02*X226200Y412200D01*
X213800D02*X216200Y409800D01*
X213800D02*X216200Y412200D01*
X218800D02*X221200Y409800D01*
X218800D02*X221200Y412200D01*
X113800Y377200D02*X116200Y374800D01*
X113800D02*X116200Y377200D01*
X103800D02*X106200Y374800D01*
X103800D02*X106200Y377200D01*
X108800D02*X111200Y374800D01*
X108800D02*X111200Y377200D01*
X113800Y385200D02*X116200Y382800D01*
X113800D02*X116200Y385200D01*
X108800D02*X111200Y382800D01*
X108800D02*X111200Y385200D01*
X103800D02*X106200Y382800D01*
X103800D02*X106200Y385200D01*
X223800Y377200D02*X226200Y374800D01*
X223800D02*X226200Y377200D01*
X213800D02*X216200Y374800D01*
X213800D02*X216200Y377200D01*
X218800D02*X221200Y374800D01*
X218800D02*X221200Y377200D01*
X223800Y385200D02*X226200Y382800D01*
X223800D02*X226200Y385200D01*
X218800D02*X221200Y382800D01*
X218800D02*X221200Y385200D01*
X213800D02*X216200Y382800D01*
X213800D02*X216200Y385200D01*
X113800Y342200D02*X116200Y339800D01*
X113800D02*X116200Y342200D01*
X103800D02*X106200Y339800D01*
X103800D02*X106200Y342200D01*
X108800D02*X111200Y339800D01*
X108800D02*X111200Y342200D01*
X113800Y350200D02*X116200Y347800D01*
X113800D02*X116200Y350200D01*
X108800D02*X111200Y347800D01*
X108800D02*X111200Y350200D01*
X103800D02*X106200Y347800D01*
X103800D02*X106200Y350200D01*
X223800Y342200D02*X226200Y339800D01*
X223800D02*X226200Y342200D01*
X213800D02*X216200Y339800D01*
X213800D02*X216200Y342200D01*
X218800D02*X221200Y339800D01*
X218800D02*X221200Y342200D01*
X223800Y350200D02*X226200Y347800D01*
X223800D02*X226200Y350200D01*
X218800D02*X221200Y347800D01*
X218800D02*X221200Y350200D01*
X213800D02*X216200Y347800D01*
X213800D02*X216200Y350200D01*
X113800Y307200D02*X116200Y304800D01*
X113800D02*X116200Y307200D01*
X103800D02*X106200Y304800D01*
X103800D02*X106200Y307200D01*
X108800D02*X111200Y304800D01*
X108800D02*X111200Y307200D01*
X113800Y315200D02*X116200Y312800D01*
X113800D02*X116200Y315200D01*
X108800D02*X111200Y312800D01*
X108800D02*X111200Y315200D01*
X103800D02*X106200Y312800D01*
X103800D02*X106200Y315200D01*
X223800Y307200D02*X226200Y304800D01*
X223800D02*X226200Y307200D01*
X213800D02*X216200Y304800D01*
X213800D02*X216200Y307200D01*
X218800D02*X221200Y304800D01*
X218800D02*X221200Y307200D01*
X223800Y315200D02*X226200Y312800D01*
X223800D02*X226200Y315200D01*
X218800D02*X221200Y312800D01*
X218800D02*X221200Y315200D01*
X213800D02*X216200Y312800D01*
X213800D02*X216200Y315200D01*
X113800Y272200D02*X116200Y269800D01*
X113800D02*X116200Y272200D01*
X103800D02*X106200Y269800D01*
X103800D02*X106200Y272200D01*
X108800D02*X111200Y269800D01*
X108800D02*X111200Y272200D01*
X113800Y280200D02*X116200Y277800D01*
X113800D02*X116200Y280200D01*
X108800D02*X111200Y277800D01*
X108800D02*X111200Y280200D01*
X103800D02*X106200Y277800D01*
X103800D02*X106200Y280200D01*
X223800Y272200D02*X226200Y269800D01*
X223800D02*X226200Y272200D01*
X213800D02*X216200Y269800D01*
X213800D02*X216200Y272200D01*
X218800D02*X221200Y269800D01*
X218800D02*X221200Y272200D01*
X223800Y280200D02*X226200Y277800D01*
X223800D02*X226200Y280200D01*
X218800D02*X221200Y277800D01*
X218800D02*X221200Y280200D01*
X213800D02*X216200Y277800D01*
X213800D02*X216200Y280200D01*
X113800Y237200D02*X116200Y234800D01*
X113800D02*X116200Y237200D01*
X103800D02*X106200Y234800D01*
X103800D02*X106200Y237200D01*
X108800D02*X111200Y234800D01*
X108800D02*X111200Y237200D01*
X113800Y245200D02*X116200Y242800D01*
X113800D02*X116200Y245200D01*
X108800D02*X111200Y242800D01*
X108800D02*X111200Y245200D01*
X103800D02*X106200Y242800D01*
X103800D02*X106200Y245200D01*
X223800Y237200D02*X226200Y234800D01*
X223800D02*X226200Y237200D01*
X213800D02*X216200Y234800D01*
X213800D02*X216200Y237200D01*
X218800D02*X221200Y234800D01*
X218800D02*X221200Y237200D01*
X223800Y245200D02*X226200Y242800D01*
X223800D02*X226200Y245200D01*
X218800D02*X221200Y242800D01*
X218800D02*X221200Y245200D01*
X213800D02*X216200Y242800D01*
X213800D02*X216200Y245200D01*
X113800Y202200D02*X116200Y199800D01*
X113800D02*X116200Y202200D01*
X103800D02*X106200Y199800D01*
X103800D02*X106200Y202200D01*
X108800D02*X111200Y199800D01*
X108800D02*X111200Y202200D01*
X113800Y210200D02*X116200Y207800D01*
X113800D02*X116200Y210200D01*
X108800D02*X111200Y207800D01*
X108800D02*X111200Y210200D01*
X103800D02*X106200Y207800D01*
X103800D02*X106200Y210200D01*
X223800Y202200D02*X226200Y199800D01*
X223800D02*X226200Y202200D01*
X213800D02*X216200Y199800D01*
X213800D02*X216200Y202200D01*
X218800D02*X221200Y199800D01*
X218800D02*X221200Y202200D01*
X223800Y210200D02*X226200Y207800D01*
X223800D02*X226200Y210200D01*
X218800D02*X221200Y207800D01*
X218800D02*X221200Y210200D01*
X213800D02*X216200Y207800D01*
X213800D02*X216200Y210200D01*
X113800Y167200D02*X116200Y164800D01*
X113800D02*X116200Y167200D01*
X103800D02*X106200Y164800D01*
X103800D02*X106200Y167200D01*
X108800D02*X111200Y164800D01*
X108800D02*X111200Y167200D01*
X113800Y175200D02*X116200Y172800D01*
X113800D02*X116200Y175200D01*
X108800D02*X111200Y172800D01*
X108800D02*X111200Y175200D01*
X103800D02*X106200Y172800D01*
X103800D02*X106200Y175200D01*
X223800Y167200D02*X226200Y164800D01*
X223800D02*X226200Y167200D01*
X213800D02*X216200Y164800D01*
X213800D02*X216200Y167200D01*
X218800D02*X221200Y164800D01*
X218800D02*X221200Y167200D01*
X223800Y175200D02*X226200Y172800D01*
X223800D02*X226200Y175200D01*
X218800D02*X221200Y172800D01*
X218800D02*X221200Y175200D01*
X213800D02*X216200Y172800D01*
X213800D02*X216200Y175200D01*
X113800Y132200D02*X116200Y129800D01*
X113800D02*X116200Y132200D01*
X103800D02*X106200Y129800D01*
X103800D02*X106200Y132200D01*
X108800D02*X111200Y129800D01*
X108800D02*X111200Y132200D01*
X113800Y140200D02*X116200Y137800D01*
X113800D02*X116200Y140200D01*
X108800D02*X111200Y137800D01*
X108800D02*X111200Y140200D01*
X103800D02*X106200Y137800D01*
X103800D02*X106200Y140200D01*
X223800Y132200D02*X226200Y129800D01*
X223800D02*X226200Y132200D01*
X213800D02*X216200Y129800D01*
X213800D02*X216200Y132200D01*
X218800D02*X221200Y129800D01*
X218800D02*X221200Y132200D01*
X223800Y140200D02*X226200Y137800D01*
X223800D02*X226200Y140200D01*
X218800D02*X221200Y137800D01*
X218800D02*X221200Y140200D01*
X213800D02*X216200Y137800D01*
X213800D02*X216200Y140200D01*
X113800Y97200D02*X116200Y94800D01*
X113800D02*X116200Y97200D01*
X103800D02*X106200Y94800D01*
X103800D02*X106200Y97200D01*
X108800D02*X111200Y94800D01*
X108800D02*X111200Y97200D01*
X113800Y105200D02*X116200Y102800D01*
X113800D02*X116200Y105200D01*
X108800D02*X111200Y102800D01*
X108800D02*X111200Y105200D01*
X103800D02*X106200Y102800D01*
X103800D02*X106200Y105200D01*
X223800Y97200D02*X226200Y94800D01*
X223800D02*X226200Y97200D01*
X213800D02*X216200Y94800D01*
X213800D02*X216200Y97200D01*
X218800D02*X221200Y94800D01*
X218800D02*X221200Y97200D01*
X223800Y105200D02*X226200Y102800D01*
X223800D02*X226200Y105200D01*
X218800D02*X221200Y102800D01*
X218800D02*X221200Y105200D01*
X213800D02*X216200Y102800D01*
X213800D02*X216200Y105200D01*
X113800Y482200D02*X116200Y479800D01*
X113800D02*X116200Y482200D01*
X103800D02*X106200Y479800D01*
X103800D02*X106200Y482200D01*
X108800D02*X111200Y479800D01*
X108800D02*X111200Y482200D01*
X113800Y490200D02*X116200Y487800D01*
X113800D02*X116200Y490200D01*
X108800D02*X111200Y487800D01*
X108800D02*X111200Y490200D01*
X103800D02*X106200Y487800D01*
X103800D02*X106200Y490200D01*
X223800Y482200D02*X226200Y479800D01*
X223800D02*X226200Y482200D01*
X213800D02*X216200Y479800D01*
X213800D02*X216200Y482200D01*
X218800D02*X221200Y479800D01*
X218800D02*X221200Y482200D01*
X223800Y490200D02*X226200Y487800D01*
X223800D02*X226200Y490200D01*
X218800D02*X221200Y487800D01*
X218800D02*X221200Y490200D01*
X213800D02*X216200Y487800D01*
X213800D02*X216200Y490200D01*
X113800Y70200D02*X116200Y67800D01*
X113800D02*X116200Y70200D01*
X103800D02*X106200Y67800D01*
X103800D02*X106200Y70200D01*
X108800D02*X111200Y67800D01*
X108800D02*X111200Y70200D01*
X113800Y62200D02*X116200Y59800D01*
X113800D02*X116200Y62200D01*
X108800D02*X111200Y59800D01*
X108800D02*X111200Y62200D01*
X103800D02*X106200Y59800D01*
X103800D02*X106200Y62200D01*
X223800Y70200D02*X226200Y67800D01*
X223800D02*X226200Y70200D01*
X213800D02*X216200Y67800D01*
X213800D02*X216200Y70200D01*
X218800D02*X221200Y67800D01*
X218800D02*X221200Y70200D01*
X223800Y62200D02*X226200Y59800D01*
X223800D02*X226200Y62200D01*
X218800D02*X221200Y59800D01*
X218800D02*X221200Y62200D01*
X213800D02*X216200Y59800D01*
X213800D02*X216200Y62200D01*
X13800Y577450D02*X16200Y575050D01*
X13800D02*X16200Y577450D01*
X140000Y578500D02*Y572500D01*
Y578500D02*X143750Y572500D01*
Y578500D02*Y572500D01*
X145550Y577750D02*Y573250D01*
Y577750D02*X146300Y578500D01*
X147800D01*
X148550Y577750D01*
Y573250D01*
X147800Y572500D02*X148550Y573250D01*
X146300Y572500D02*X147800D01*
X145550Y573250D02*X146300Y572500D01*
X98000Y577300D02*X99200Y578500D01*
Y572500D01*
X98000D02*X100250D01*
X102050Y578500D02*X105050D01*
X102050D02*Y575500D01*
X102800Y576250D01*
X104300D01*
X105050Y575500D01*
Y573250D01*
X104300Y572500D02*X105050Y573250D01*
X102800Y572500D02*X104300D01*
X102050Y573250D02*X102800Y572500D01*
X109100Y578500D02*X109850Y577750D01*
X107600Y578500D02*X109100D01*
X106850Y577750D02*X107600Y578500D01*
X106850Y577750D02*Y573250D01*
X107600Y572500D01*
X109100Y575800D02*X109850Y575050D01*
X106850Y575800D02*X109100D01*
X107600Y572500D02*X109100D01*
X109850Y573250D01*
Y575050D02*Y573250D01*
X45000D02*X45750Y572500D01*
X45000Y577750D02*Y573250D01*
Y577750D02*X45750Y578500D01*
X47250D01*
X48000Y577750D01*
Y573250D01*
X47250Y572500D02*X48000Y573250D01*
X45750Y572500D02*X47250D01*
X45000Y574000D02*X48000Y577000D01*
X49800Y572500D02*X50550D01*
X52350Y573250D02*X53100Y572500D01*
X52350Y577750D02*Y573250D01*
Y577750D02*X53100Y578500D01*
X54600D01*
X55350Y577750D01*
Y573250D01*
X54600Y572500D02*X55350Y573250D01*
X53100Y572500D02*X54600D01*
X52350Y574000D02*X55350Y577000D01*
X57150Y577750D02*X57900Y578500D01*
X59400D01*
X60150Y577750D01*
X59400Y572500D02*X60150Y573250D01*
X57900Y572500D02*X59400D01*
X57150Y573250D02*X57900Y572500D01*
Y575800D02*X59400D01*
X60150Y577750D02*Y576550D01*
Y575050D02*Y573250D01*
Y575050D02*X59400Y575800D01*
X60150Y576550D02*X59400Y575800D01*
X61950Y577300D02*X63150Y578500D01*
Y572500D01*
X61950D02*X64200D01*
X67500Y476100D02*Y472900D01*
X65900Y474500D02*X69100D01*
X145000Y463600D02*Y460400D01*
X143400Y462000D02*X146600D01*
X148500Y462600D02*Y459400D01*
X146900Y461000D02*X150100D01*
X161000Y460100D02*Y456900D01*
X159400Y458500D02*X162600D01*
X161000Y468600D02*Y465400D01*
X159400Y467000D02*X162600D01*
X157000Y468100D02*Y464900D01*
X155400Y466500D02*X158600D01*
X152500Y474100D02*Y470900D01*
X150900Y472500D02*X154100D01*
X175500Y469600D02*Y466400D01*
X173900Y468000D02*X177100D01*
X179500Y469600D02*Y466400D01*
X177900Y468000D02*X181100D01*
X171500Y469600D02*Y466400D01*
X169900Y468000D02*X173100D01*
X140000Y463600D02*Y460400D01*
X138400Y462000D02*X141600D01*
X67500Y471100D02*Y467900D01*
X65900Y469500D02*X69100D01*
X67500Y441100D02*Y437900D01*
X65900Y439500D02*X69100D01*
X145000Y428600D02*Y425400D01*
X143400Y427000D02*X146600D01*
X148500Y427600D02*Y424400D01*
X146900Y426000D02*X150100D01*
X161000Y425100D02*Y421900D01*
X159400Y423500D02*X162600D01*
X161000Y433600D02*Y430400D01*
X159400Y432000D02*X162600D01*
X157000Y433100D02*Y429900D01*
X155400Y431500D02*X158600D01*
X152500Y439100D02*Y435900D01*
X150900Y437500D02*X154100D01*
X175500Y434600D02*Y431400D01*
X173900Y433000D02*X177100D01*
X179500Y434600D02*Y431400D01*
X177900Y433000D02*X181100D01*
X171500Y434600D02*Y431400D01*
X169900Y433000D02*X173100D01*
X140000Y428600D02*Y425400D01*
X138400Y427000D02*X141600D01*
X67500Y436100D02*Y432900D01*
X65900Y434500D02*X69100D01*
X67500Y406100D02*Y402900D01*
X65900Y404500D02*X69100D01*
X145000Y393600D02*Y390400D01*
X143400Y392000D02*X146600D01*
X148500Y392600D02*Y389400D01*
X146900Y391000D02*X150100D01*
X161000Y390100D02*Y386900D01*
X159400Y388500D02*X162600D01*
X161000Y398600D02*Y395400D01*
X159400Y397000D02*X162600D01*
X157000Y398100D02*Y394900D01*
X155400Y396500D02*X158600D01*
X152500Y404100D02*Y400900D01*
X150900Y402500D02*X154100D01*
X175500Y399600D02*Y396400D01*
X173900Y398000D02*X177100D01*
X179500Y399600D02*Y396400D01*
X177900Y398000D02*X181100D01*
X171500Y399600D02*Y396400D01*
X169900Y398000D02*X173100D01*
X140000Y393600D02*Y390400D01*
X138400Y392000D02*X141600D01*
X67500Y401100D02*Y397900D01*
X65900Y399500D02*X69100D01*
X67500Y371100D02*Y367900D01*
X65900Y369500D02*X69100D01*
X145000Y358600D02*Y355400D01*
X143400Y357000D02*X146600D01*
X148500Y357600D02*Y354400D01*
X146900Y356000D02*X150100D01*
X161000Y355100D02*Y351900D01*
X159400Y353500D02*X162600D01*
X161000Y363600D02*Y360400D01*
X159400Y362000D02*X162600D01*
X157000Y363100D02*Y359900D01*
X155400Y361500D02*X158600D01*
X152500Y369100D02*Y365900D01*
X150900Y367500D02*X154100D01*
X175500Y364600D02*Y361400D01*
X173900Y363000D02*X177100D01*
X179500Y364600D02*Y361400D01*
X177900Y363000D02*X181100D01*
X171500Y364600D02*Y361400D01*
X169900Y363000D02*X173100D01*
X140000Y358600D02*Y355400D01*
X138400Y357000D02*X141600D01*
X67500Y366100D02*Y362900D01*
X65900Y364500D02*X69100D01*
X67500Y336100D02*Y332900D01*
X65900Y334500D02*X69100D01*
X145000Y323600D02*Y320400D01*
X143400Y322000D02*X146600D01*
X148500Y322600D02*Y319400D01*
X146900Y321000D02*X150100D01*
X161000Y320100D02*Y316900D01*
X159400Y318500D02*X162600D01*
X161000Y328600D02*Y325400D01*
X159400Y327000D02*X162600D01*
X157000Y328100D02*Y324900D01*
X155400Y326500D02*X158600D01*
X152500Y334100D02*Y330900D01*
X150900Y332500D02*X154100D01*
X175500Y329600D02*Y326400D01*
X173900Y328000D02*X177100D01*
X179500Y329600D02*Y326400D01*
X177900Y328000D02*X181100D01*
X171500Y329600D02*Y326400D01*
X169900Y328000D02*X173100D01*
X140000Y323600D02*Y320400D01*
X138400Y322000D02*X141600D01*
X67500Y331100D02*Y327900D01*
X65900Y329500D02*X69100D01*
X67500Y301100D02*Y297900D01*
X65900Y299500D02*X69100D01*
X145000Y288600D02*Y285400D01*
X143400Y287000D02*X146600D01*
X148500Y287600D02*Y284400D01*
X146900Y286000D02*X150100D01*
X161000Y285100D02*Y281900D01*
X159400Y283500D02*X162600D01*
X161000Y293600D02*Y290400D01*
X159400Y292000D02*X162600D01*
X157000Y293100D02*Y289900D01*
X155400Y291500D02*X158600D01*
X152500Y299100D02*Y295900D01*
X150900Y297500D02*X154100D01*
X175500Y294600D02*Y291400D01*
X173900Y293000D02*X177100D01*
X179500Y294600D02*Y291400D01*
X177900Y293000D02*X181100D01*
X171500Y294600D02*Y291400D01*
X169900Y293000D02*X173100D01*
X140000Y288600D02*Y285400D01*
X138400Y287000D02*X141600D01*
X67500Y296100D02*Y292900D01*
X65900Y294500D02*X69100D01*
X67500Y266100D02*Y262900D01*
X65900Y264500D02*X69100D01*
X145000Y253600D02*Y250400D01*
X143400Y252000D02*X146600D01*
X148500Y252600D02*Y249400D01*
X146900Y251000D02*X150100D01*
X161000Y250100D02*Y246900D01*
X159400Y248500D02*X162600D01*
X161000Y258600D02*Y255400D01*
X159400Y257000D02*X162600D01*
X157000Y258100D02*Y254900D01*
X155400Y256500D02*X158600D01*
X152500Y264100D02*Y260900D01*
X150900Y262500D02*X154100D01*
X175500Y259600D02*Y256400D01*
X173900Y258000D02*X177100D01*
X179500Y259600D02*Y256400D01*
X177900Y258000D02*X181100D01*
X171500Y259600D02*Y256400D01*
X169900Y258000D02*X173100D01*
X140000Y253600D02*Y250400D01*
X138400Y252000D02*X141600D01*
X67500Y261100D02*Y257900D01*
X65900Y259500D02*X69100D01*
X67500Y231100D02*Y227900D01*
X65900Y229500D02*X69100D01*
X145000Y218600D02*Y215400D01*
X143400Y217000D02*X146600D01*
X148500Y217600D02*Y214400D01*
X146900Y216000D02*X150100D01*
X161000Y215100D02*Y211900D01*
X159400Y213500D02*X162600D01*
X161000Y223600D02*Y220400D01*
X159400Y222000D02*X162600D01*
X157000Y223100D02*Y219900D01*
X155400Y221500D02*X158600D01*
X152500Y229100D02*Y225900D01*
X150900Y227500D02*X154100D01*
X175500Y224600D02*Y221400D01*
X173900Y223000D02*X177100D01*
X179500Y224600D02*Y221400D01*
X177900Y223000D02*X181100D01*
X171500Y224600D02*Y221400D01*
X169900Y223000D02*X173100D01*
X140000Y218600D02*Y215400D01*
X138400Y217000D02*X141600D01*
X67500Y226100D02*Y222900D01*
X65900Y224500D02*X69100D01*
X67500Y196100D02*Y192900D01*
X65900Y194500D02*X69100D01*
X145000Y183600D02*Y180400D01*
X143400Y182000D02*X146600D01*
X148500Y182600D02*Y179400D01*
X146900Y181000D02*X150100D01*
X161000Y180100D02*Y176900D01*
X159400Y178500D02*X162600D01*
X161000Y188600D02*Y185400D01*
X159400Y187000D02*X162600D01*
X157000Y188100D02*Y184900D01*
X155400Y186500D02*X158600D01*
X152500Y194100D02*Y190900D01*
X150900Y192500D02*X154100D01*
X175500Y189600D02*Y186400D01*
X173900Y188000D02*X177100D01*
X179500Y189600D02*Y186400D01*
X177900Y188000D02*X181100D01*
X171500Y189600D02*Y186400D01*
X169900Y188000D02*X173100D01*
X140000Y183600D02*Y180400D01*
X138400Y182000D02*X141600D01*
X67500Y191100D02*Y187900D01*
X65900Y189500D02*X69100D01*
X67500Y161100D02*Y157900D01*
X65900Y159500D02*X69100D01*
X145000Y148600D02*Y145400D01*
X143400Y147000D02*X146600D01*
X148500Y147600D02*Y144400D01*
X146900Y146000D02*X150100D01*
X161000Y145100D02*Y141900D01*
X159400Y143500D02*X162600D01*
X161000Y153600D02*Y150400D01*
X159400Y152000D02*X162600D01*
X157000Y153100D02*Y149900D01*
X155400Y151500D02*X158600D01*
X152500Y159100D02*Y155900D01*
X150900Y157500D02*X154100D01*
X175500Y154600D02*Y151400D01*
X173900Y153000D02*X177100D01*
X179500Y154600D02*Y151400D01*
X177900Y153000D02*X181100D01*
X171500Y154600D02*Y151400D01*
X169900Y153000D02*X173100D01*
X140000Y148600D02*Y145400D01*
X138400Y147000D02*X141600D01*
X67500Y156100D02*Y152900D01*
X65900Y154500D02*X69100D01*
X67500Y126100D02*Y122900D01*
X65900Y124500D02*X69100D01*
X145000Y113600D02*Y110400D01*
X143400Y112000D02*X146600D01*
X148500Y112600D02*Y109400D01*
X146900Y111000D02*X150100D01*
X161000Y110100D02*Y106900D01*
X159400Y108500D02*X162600D01*
X161000Y118600D02*Y115400D01*
X159400Y117000D02*X162600D01*
X157000Y118100D02*Y114900D01*
X155400Y116500D02*X158600D01*
X152500Y124100D02*Y120900D01*
X150900Y122500D02*X154100D01*
X175500Y119600D02*Y116400D01*
X173900Y118000D02*X177100D01*
X179500Y119600D02*Y116400D01*
X177900Y118000D02*X181100D01*
X171500Y119600D02*Y116400D01*
X169900Y118000D02*X173100D01*
X140000Y113600D02*Y110400D01*
X138400Y112000D02*X141600D01*
X67500Y121100D02*Y117900D01*
X65900Y119500D02*X69100D01*
X67500Y91100D02*Y87900D01*
X65900Y89500D02*X69100D01*
X145000Y78600D02*Y75400D01*
X143400Y77000D02*X146600D01*
X148500Y77600D02*Y74400D01*
X146900Y76000D02*X150100D01*
X161000Y75100D02*Y71900D01*
X159400Y73500D02*X162600D01*
X161000Y83600D02*Y80400D01*
X159400Y82000D02*X162600D01*
X157000Y83100D02*Y79900D01*
X155400Y81500D02*X158600D01*
X152500Y89100D02*Y85900D01*
X150900Y87500D02*X154100D01*
X175500Y84600D02*Y81400D01*
X173900Y83000D02*X177100D01*
X179500Y84600D02*Y81400D01*
X177900Y83000D02*X181100D01*
X171500Y84600D02*Y81400D01*
X169900Y83000D02*X173100D01*
X140000Y78600D02*Y75400D01*
X138400Y77000D02*X141600D01*
X67500Y86100D02*Y82900D01*
X65900Y84500D02*X69100D01*
X15000Y592850D02*Y589650D01*
X13400Y591250D02*X16600D01*
X135000Y593500D02*X136500Y590500D01*
X138000Y593500D01*
X136500Y590500D02*Y587500D01*
X139800Y590800D02*X142050D01*
X139800Y587500D02*X142800D01*
X139800Y593500D02*Y587500D01*
Y593500D02*X142800D01*
X147600D02*X148350Y592750D01*
X145350Y593500D02*X147600D01*
X144600Y592750D02*X145350Y593500D01*
X144600Y592750D02*Y591250D01*
X145350Y590500D01*
X147600D01*
X148350Y589750D01*
Y588250D01*
X147600Y587500D02*X148350Y588250D01*
X145350Y587500D02*X147600D01*
X144600Y588250D02*X145350Y587500D01*
X98000Y592300D02*X99200Y593500D01*
Y587500D01*
X98000D02*X100250D01*
X102050Y589750D02*X105050Y593500D01*
X102050Y589750D02*X105800D01*
X105050Y593500D02*Y587500D01*
X107600Y589750D02*X110600Y593500D01*
X107600Y589750D02*X111350D01*
X110600Y593500D02*Y587500D01*
X45000Y588250D02*X45750Y587500D01*
X45000Y592750D02*Y588250D01*
Y592750D02*X45750Y593500D01*
X47250D01*
X48000Y592750D01*
Y588250D01*
X47250Y587500D02*X48000Y588250D01*
X45750Y587500D02*X47250D01*
X45000Y589000D02*X48000Y592000D01*
X49800Y587500D02*X50550D01*
X52350Y588250D02*X53100Y587500D01*
X52350Y592750D02*Y588250D01*
Y592750D02*X53100Y593500D01*
X54600D01*
X55350Y592750D01*
Y588250D01*
X54600Y587500D02*X55350Y588250D01*
X53100Y587500D02*X54600D01*
X52350Y589000D02*X55350Y592000D01*
X57150Y592300D02*X58350Y593500D01*
Y587500D01*
X57150D02*X59400D01*
X61200Y589750D02*X64200Y593500D01*
X61200Y589750D02*X64950D01*
X64200Y593500D02*Y587500D01*
X77500Y467500D02*Y465900D01*
Y467500D02*X78887Y468300D01*
X77500Y467500D02*X76113Y468300D01*
X89000Y476000D02*Y474400D01*
Y476000D02*X90387Y476800D01*
X89000Y476000D02*X87613Y476800D01*
X168500Y471500D02*Y469900D01*
Y471500D02*X169887Y472300D01*
X168500Y471500D02*X167113Y472300D01*
X255500Y461594D02*Y459994D01*
Y461594D02*X256887Y462394D01*
X255500Y461594D02*X254113Y462394D01*
X258500Y461594D02*Y459994D01*
Y461594D02*X259887Y462394D01*
X258500Y461594D02*X257113Y462394D01*
X243000Y466500D02*Y464900D01*
Y466500D02*X244387Y467300D01*
X243000Y466500D02*X241613Y467300D01*
X239500Y466500D02*Y464900D01*
Y466500D02*X240887Y467300D01*
X239500Y466500D02*X238113Y467300D01*
X145000Y472500D02*Y470900D01*
Y472500D02*X146387Y473300D01*
X145000Y472500D02*X143613Y473300D01*
X115500Y457500D02*Y455900D01*
Y457500D02*X116887Y458300D01*
X115500Y457500D02*X114113Y458300D01*
X114000Y461500D02*Y459900D01*
Y461500D02*X115387Y462300D01*
X114000Y461500D02*X112613Y462300D01*
X106500Y462500D02*Y460900D01*
Y462500D02*X107887Y463300D01*
X106500Y462500D02*X105113Y463300D01*
X107000Y465500D02*Y463900D01*
Y465500D02*X108387Y466300D01*
X107000Y465500D02*X105613Y466300D01*
X110500Y465500D02*Y463900D01*
Y465500D02*X111887Y466300D01*
X110500Y465500D02*X109113Y466300D01*
X94000Y462000D02*Y460400D01*
Y462000D02*X95387Y462800D01*
X94000Y462000D02*X92613Y462800D01*
X91500Y476000D02*Y474400D01*
Y476000D02*X92887Y476800D01*
X91500Y476000D02*X90113Y476800D01*
X60000Y458500D02*Y456900D01*
Y458500D02*X61387Y459300D01*
X60000Y458500D02*X58613Y459300D01*
X67500Y465500D02*Y463900D01*
Y465500D02*X68887Y466300D01*
X67500Y465500D02*X66113Y466300D01*
X77500Y432500D02*Y430900D01*
Y432500D02*X78887Y433300D01*
X77500Y432500D02*X76113Y433300D01*
X89000Y441000D02*Y439400D01*
Y441000D02*X90387Y441800D01*
X89000Y441000D02*X87613Y441800D01*
X168500Y436500D02*Y434900D01*
Y436500D02*X169887Y437300D01*
X168500Y436500D02*X167113Y437300D01*
X255500Y426594D02*Y424994D01*
Y426594D02*X256887Y427394D01*
X255500Y426594D02*X254113Y427394D01*
X258500Y426594D02*Y424994D01*
Y426594D02*X259887Y427394D01*
X258500Y426594D02*X257113Y427394D01*
X243000Y431500D02*Y429900D01*
Y431500D02*X244387Y432300D01*
X243000Y431500D02*X241613Y432300D01*
X239500Y431500D02*Y429900D01*
Y431500D02*X240887Y432300D01*
X239500Y431500D02*X238113Y432300D01*
X145000Y437500D02*Y435900D01*
Y437500D02*X146387Y438300D01*
X145000Y437500D02*X143613Y438300D01*
X115500Y422500D02*Y420900D01*
Y422500D02*X116887Y423300D01*
X115500Y422500D02*X114113Y423300D01*
X114000Y426500D02*Y424900D01*
Y426500D02*X115387Y427300D01*
X114000Y426500D02*X112613Y427300D01*
X106500Y427500D02*Y425900D01*
Y427500D02*X107887Y428300D01*
X106500Y427500D02*X105113Y428300D01*
X107000Y430500D02*Y428900D01*
Y430500D02*X108387Y431300D01*
X107000Y430500D02*X105613Y431300D01*
X110500Y430500D02*Y428900D01*
Y430500D02*X111887Y431300D01*
X110500Y430500D02*X109113Y431300D01*
X94000Y427000D02*Y425400D01*
Y427000D02*X95387Y427800D01*
X94000Y427000D02*X92613Y427800D01*
X91500Y441000D02*Y439400D01*
Y441000D02*X92887Y441800D01*
X91500Y441000D02*X90113Y441800D01*
X60000Y423500D02*Y421900D01*
Y423500D02*X61387Y424300D01*
X60000Y423500D02*X58613Y424300D01*
X67500Y430500D02*Y428900D01*
Y430500D02*X68887Y431300D01*
X67500Y430500D02*X66113Y431300D01*
X77500Y397500D02*Y395900D01*
Y397500D02*X78887Y398300D01*
X77500Y397500D02*X76113Y398300D01*
X89000Y406000D02*Y404400D01*
Y406000D02*X90387Y406800D01*
X89000Y406000D02*X87613Y406800D01*
X168500Y401500D02*Y399900D01*
Y401500D02*X169887Y402300D01*
X168500Y401500D02*X167113Y402300D01*
X255500Y391594D02*Y389994D01*
Y391594D02*X256887Y392394D01*
X255500Y391594D02*X254113Y392394D01*
X258500Y391594D02*Y389994D01*
Y391594D02*X259887Y392394D01*
X258500Y391594D02*X257113Y392394D01*
X243000Y396500D02*Y394900D01*
Y396500D02*X244387Y397300D01*
X243000Y396500D02*X241613Y397300D01*
X239500Y396500D02*Y394900D01*
Y396500D02*X240887Y397300D01*
X239500Y396500D02*X238113Y397300D01*
X145000Y402500D02*Y400900D01*
Y402500D02*X146387Y403300D01*
X145000Y402500D02*X143613Y403300D01*
X115500Y387500D02*Y385900D01*
Y387500D02*X116887Y388300D01*
X115500Y387500D02*X114113Y388300D01*
X114000Y391500D02*Y389900D01*
Y391500D02*X115387Y392300D01*
X114000Y391500D02*X112613Y392300D01*
X106500Y392500D02*Y390900D01*
Y392500D02*X107887Y393300D01*
X106500Y392500D02*X105113Y393300D01*
X107000Y395500D02*Y393900D01*
Y395500D02*X108387Y396300D01*
X107000Y395500D02*X105613Y396300D01*
X110500Y395500D02*Y393900D01*
Y395500D02*X111887Y396300D01*
X110500Y395500D02*X109113Y396300D01*
X94000Y392000D02*Y390400D01*
Y392000D02*X95387Y392800D01*
X94000Y392000D02*X92613Y392800D01*
X91500Y406000D02*Y404400D01*
Y406000D02*X92887Y406800D01*
X91500Y406000D02*X90113Y406800D01*
X60000Y388500D02*Y386900D01*
Y388500D02*X61387Y389300D01*
X60000Y388500D02*X58613Y389300D01*
X67500Y395500D02*Y393900D01*
Y395500D02*X68887Y396300D01*
X67500Y395500D02*X66113Y396300D01*
X77500Y362500D02*Y360900D01*
Y362500D02*X78887Y363300D01*
X77500Y362500D02*X76113Y363300D01*
X89000Y371000D02*Y369400D01*
Y371000D02*X90387Y371800D01*
X89000Y371000D02*X87613Y371800D01*
X168500Y366500D02*Y364900D01*
Y366500D02*X169887Y367300D01*
X168500Y366500D02*X167113Y367300D01*
X255500Y356594D02*Y354994D01*
Y356594D02*X256887Y357394D01*
X255500Y356594D02*X254113Y357394D01*
X258500Y356594D02*Y354994D01*
Y356594D02*X259887Y357394D01*
X258500Y356594D02*X257113Y357394D01*
X243000Y361500D02*Y359900D01*
Y361500D02*X244387Y362300D01*
X243000Y361500D02*X241613Y362300D01*
X239500Y361500D02*Y359900D01*
Y361500D02*X240887Y362300D01*
X239500Y361500D02*X238113Y362300D01*
X145000Y367500D02*Y365900D01*
Y367500D02*X146387Y368300D01*
X145000Y367500D02*X143613Y368300D01*
X115500Y352500D02*Y350900D01*
Y352500D02*X116887Y353300D01*
X115500Y352500D02*X114113Y353300D01*
X114000Y356500D02*Y354900D01*
Y356500D02*X115387Y357300D01*
X114000Y356500D02*X112613Y357300D01*
X106500Y357500D02*Y355900D01*
Y357500D02*X107887Y358300D01*
X106500Y357500D02*X105113Y358300D01*
X107000Y360500D02*Y358900D01*
Y360500D02*X108387Y361300D01*
X107000Y360500D02*X105613Y361300D01*
X110500Y360500D02*Y358900D01*
Y360500D02*X111887Y361300D01*
X110500Y360500D02*X109113Y361300D01*
X94000Y357000D02*Y355400D01*
Y357000D02*X95387Y357800D01*
X94000Y357000D02*X92613Y357800D01*
X91500Y371000D02*Y369400D01*
Y371000D02*X92887Y371800D01*
X91500Y371000D02*X90113Y371800D01*
X60000Y353500D02*Y351900D01*
Y353500D02*X61387Y354300D01*
X60000Y353500D02*X58613Y354300D01*
X67500Y360500D02*Y358900D01*
Y360500D02*X68887Y361300D01*
X67500Y360500D02*X66113Y361300D01*
X77500Y327500D02*Y325900D01*
Y327500D02*X78887Y328300D01*
X77500Y327500D02*X76113Y328300D01*
X89000Y336000D02*Y334400D01*
Y336000D02*X90387Y336800D01*
X89000Y336000D02*X87613Y336800D01*
X168500Y331500D02*Y329900D01*
Y331500D02*X169887Y332300D01*
X168500Y331500D02*X167113Y332300D01*
X255500Y321594D02*Y319994D01*
Y321594D02*X256887Y322394D01*
X255500Y321594D02*X254113Y322394D01*
X258500Y321594D02*Y319994D01*
Y321594D02*X259887Y322394D01*
X258500Y321594D02*X257113Y322394D01*
X243000Y326500D02*Y324900D01*
Y326500D02*X244387Y327300D01*
X243000Y326500D02*X241613Y327300D01*
X239500Y326500D02*Y324900D01*
Y326500D02*X240887Y327300D01*
X239500Y326500D02*X238113Y327300D01*
X145000Y332500D02*Y330900D01*
Y332500D02*X146387Y333300D01*
X145000Y332500D02*X143613Y333300D01*
X115500Y317500D02*Y315900D01*
Y317500D02*X116887Y318300D01*
X115500Y317500D02*X114113Y318300D01*
X114000Y321500D02*Y319900D01*
Y321500D02*X115387Y322300D01*
X114000Y321500D02*X112613Y322300D01*
X106500Y322500D02*Y320900D01*
Y322500D02*X107887Y323300D01*
X106500Y322500D02*X105113Y323300D01*
X107000Y325500D02*Y323900D01*
Y325500D02*X108387Y326300D01*
X107000Y325500D02*X105613Y326300D01*
X110500Y325500D02*Y323900D01*
Y325500D02*X111887Y326300D01*
X110500Y325500D02*X109113Y326300D01*
X94000Y322000D02*Y320400D01*
Y322000D02*X95387Y322800D01*
X94000Y322000D02*X92613Y322800D01*
X91500Y336000D02*Y334400D01*
Y336000D02*X92887Y336800D01*
X91500Y336000D02*X90113Y336800D01*
X60000Y318500D02*Y316900D01*
Y318500D02*X61387Y319300D01*
X60000Y318500D02*X58613Y319300D01*
X67500Y325500D02*Y323900D01*
Y325500D02*X68887Y326300D01*
X67500Y325500D02*X66113Y326300D01*
X77500Y292500D02*Y290900D01*
Y292500D02*X78887Y293300D01*
X77500Y292500D02*X76113Y293300D01*
X89000Y301000D02*Y299400D01*
Y301000D02*X90387Y301800D01*
X89000Y301000D02*X87613Y301800D01*
X168500Y296500D02*Y294900D01*
Y296500D02*X169887Y297300D01*
X168500Y296500D02*X167113Y297300D01*
X255500Y286594D02*Y284994D01*
Y286594D02*X256887Y287394D01*
X255500Y286594D02*X254113Y287394D01*
X258500Y286594D02*Y284994D01*
Y286594D02*X259887Y287394D01*
X258500Y286594D02*X257113Y287394D01*
X243000Y291500D02*Y289900D01*
Y291500D02*X244387Y292300D01*
X243000Y291500D02*X241613Y292300D01*
X239500Y291500D02*Y289900D01*
Y291500D02*X240887Y292300D01*
X239500Y291500D02*X238113Y292300D01*
X145000Y297500D02*Y295900D01*
Y297500D02*X146387Y298300D01*
X145000Y297500D02*X143613Y298300D01*
X115500Y282500D02*Y280900D01*
Y282500D02*X116887Y283300D01*
X115500Y282500D02*X114113Y283300D01*
X114000Y286500D02*Y284900D01*
Y286500D02*X115387Y287300D01*
X114000Y286500D02*X112613Y287300D01*
X106500Y287500D02*Y285900D01*
Y287500D02*X107887Y288300D01*
X106500Y287500D02*X105113Y288300D01*
X107000Y290500D02*Y288900D01*
Y290500D02*X108387Y291300D01*
X107000Y290500D02*X105613Y291300D01*
X110500Y290500D02*Y288900D01*
Y290500D02*X111887Y291300D01*
X110500Y290500D02*X109113Y291300D01*
X94000Y287000D02*Y285400D01*
Y287000D02*X95387Y287800D01*
X94000Y287000D02*X92613Y287800D01*
X91500Y301000D02*Y299400D01*
Y301000D02*X92887Y301800D01*
X91500Y301000D02*X90113Y301800D01*
X60000Y283500D02*Y281900D01*
Y283500D02*X61387Y284300D01*
X60000Y283500D02*X58613Y284300D01*
X67500Y290500D02*Y288900D01*
Y290500D02*X68887Y291300D01*
X67500Y290500D02*X66113Y291300D01*
X77500Y257500D02*Y255900D01*
Y257500D02*X78887Y258300D01*
X77500Y257500D02*X76113Y258300D01*
X89000Y266000D02*Y264400D01*
Y266000D02*X90387Y266800D01*
X89000Y266000D02*X87613Y266800D01*
X168500Y261500D02*Y259900D01*
Y261500D02*X169887Y262300D01*
X168500Y261500D02*X167113Y262300D01*
X255500Y251594D02*Y249994D01*
Y251594D02*X256887Y252394D01*
X255500Y251594D02*X254113Y252394D01*
X258500Y251594D02*Y249994D01*
Y251594D02*X259887Y252394D01*
X258500Y251594D02*X257113Y252394D01*
X243000Y256500D02*Y254900D01*
Y256500D02*X244387Y257300D01*
X243000Y256500D02*X241613Y257300D01*
X239500Y256500D02*Y254900D01*
Y256500D02*X240887Y257300D01*
X239500Y256500D02*X238113Y257300D01*
X145000Y262500D02*Y260900D01*
Y262500D02*X146387Y263300D01*
X145000Y262500D02*X143613Y263300D01*
X115500Y247500D02*Y245900D01*
Y247500D02*X116887Y248300D01*
X115500Y247500D02*X114113Y248300D01*
X114000Y251500D02*Y249900D01*
Y251500D02*X115387Y252300D01*
X114000Y251500D02*X112613Y252300D01*
X106500Y252500D02*Y250900D01*
Y252500D02*X107887Y253300D01*
X106500Y252500D02*X105113Y253300D01*
X107000Y255500D02*Y253900D01*
Y255500D02*X108387Y256300D01*
X107000Y255500D02*X105613Y256300D01*
X110500Y255500D02*Y253900D01*
Y255500D02*X111887Y256300D01*
X110500Y255500D02*X109113Y256300D01*
X94000Y252000D02*Y250400D01*
Y252000D02*X95387Y252800D01*
X94000Y252000D02*X92613Y252800D01*
X91500Y266000D02*Y264400D01*
Y266000D02*X92887Y266800D01*
X91500Y266000D02*X90113Y266800D01*
X60000Y248500D02*Y246900D01*
Y248500D02*X61387Y249300D01*
X60000Y248500D02*X58613Y249300D01*
X67500Y255500D02*Y253900D01*
Y255500D02*X68887Y256300D01*
X67500Y255500D02*X66113Y256300D01*
X77500Y222500D02*Y220900D01*
Y222500D02*X78887Y223300D01*
X77500Y222500D02*X76113Y223300D01*
X89000Y231000D02*Y229400D01*
Y231000D02*X90387Y231800D01*
X89000Y231000D02*X87613Y231800D01*
X168500Y226500D02*Y224900D01*
Y226500D02*X169887Y227300D01*
X168500Y226500D02*X167113Y227300D01*
X255500Y216594D02*Y214994D01*
Y216594D02*X256887Y217394D01*
X255500Y216594D02*X254113Y217394D01*
X258500Y216594D02*Y214994D01*
Y216594D02*X259887Y217394D01*
X258500Y216594D02*X257113Y217394D01*
X243000Y221500D02*Y219900D01*
Y221500D02*X244387Y222300D01*
X243000Y221500D02*X241613Y222300D01*
X239500Y221500D02*Y219900D01*
Y221500D02*X240887Y222300D01*
X239500Y221500D02*X238113Y222300D01*
X145000Y227500D02*Y225900D01*
Y227500D02*X146387Y228300D01*
X145000Y227500D02*X143613Y228300D01*
X115500Y212500D02*Y210900D01*
Y212500D02*X116887Y213300D01*
X115500Y212500D02*X114113Y213300D01*
X114000Y216500D02*Y214900D01*
Y216500D02*X115387Y217300D01*
X114000Y216500D02*X112613Y217300D01*
X106500Y217500D02*Y215900D01*
Y217500D02*X107887Y218300D01*
X106500Y217500D02*X105113Y218300D01*
X107000Y220500D02*Y218900D01*
Y220500D02*X108387Y221300D01*
X107000Y220500D02*X105613Y221300D01*
X110500Y220500D02*Y218900D01*
Y220500D02*X111887Y221300D01*
X110500Y220500D02*X109113Y221300D01*
X94000Y217000D02*Y215400D01*
Y217000D02*X95387Y217800D01*
X94000Y217000D02*X92613Y217800D01*
X91500Y231000D02*Y229400D01*
Y231000D02*X92887Y231800D01*
X91500Y231000D02*X90113Y231800D01*
X60000Y213500D02*Y211900D01*
Y213500D02*X61387Y214300D01*
X60000Y213500D02*X58613Y214300D01*
X67500Y220500D02*Y218900D01*
Y220500D02*X68887Y221300D01*
X67500Y220500D02*X66113Y221300D01*
X77500Y187500D02*Y185900D01*
Y187500D02*X78887Y188300D01*
X77500Y187500D02*X76113Y188300D01*
X89000Y196000D02*Y194400D01*
Y196000D02*X90387Y196800D01*
X89000Y196000D02*X87613Y196800D01*
X168500Y191500D02*Y189900D01*
Y191500D02*X169887Y192300D01*
X168500Y191500D02*X167113Y192300D01*
X255500Y181594D02*Y179994D01*
Y181594D02*X256887Y182394D01*
X255500Y181594D02*X254113Y182394D01*
X258500Y181594D02*Y179994D01*
Y181594D02*X259887Y182394D01*
X258500Y181594D02*X257113Y182394D01*
X243000Y186500D02*Y184900D01*
Y186500D02*X244387Y187300D01*
X243000Y186500D02*X241613Y187300D01*
X239500Y186500D02*Y184900D01*
Y186500D02*X240887Y187300D01*
X239500Y186500D02*X238113Y187300D01*
X145000Y192500D02*Y190900D01*
Y192500D02*X146387Y193300D01*
X145000Y192500D02*X143613Y193300D01*
X115500Y177500D02*Y175900D01*
Y177500D02*X116887Y178300D01*
X115500Y177500D02*X114113Y178300D01*
X114000Y181500D02*Y179900D01*
Y181500D02*X115387Y182300D01*
X114000Y181500D02*X112613Y182300D01*
X106500Y182500D02*Y180900D01*
Y182500D02*X107887Y183300D01*
X106500Y182500D02*X105113Y183300D01*
X107000Y185500D02*Y183900D01*
Y185500D02*X108387Y186300D01*
X107000Y185500D02*X105613Y186300D01*
X110500Y185500D02*Y183900D01*
Y185500D02*X111887Y186300D01*
X110500Y185500D02*X109113Y186300D01*
X94000Y182000D02*Y180400D01*
Y182000D02*X95387Y182800D01*
X94000Y182000D02*X92613Y182800D01*
X91500Y196000D02*Y194400D01*
Y196000D02*X92887Y196800D01*
X91500Y196000D02*X90113Y196800D01*
X60000Y178500D02*Y176900D01*
Y178500D02*X61387Y179300D01*
X60000Y178500D02*X58613Y179300D01*
X67500Y185500D02*Y183900D01*
Y185500D02*X68887Y186300D01*
X67500Y185500D02*X66113Y186300D01*
X77500Y152500D02*Y150900D01*
Y152500D02*X78887Y153300D01*
X77500Y152500D02*X76113Y153300D01*
X89000Y161000D02*Y159400D01*
Y161000D02*X90387Y161800D01*
X89000Y161000D02*X87613Y161800D01*
X168500Y156500D02*Y154900D01*
Y156500D02*X169887Y157300D01*
X168500Y156500D02*X167113Y157300D01*
X255500Y146594D02*Y144994D01*
Y146594D02*X256887Y147394D01*
X255500Y146594D02*X254113Y147394D01*
X258500Y146594D02*Y144994D01*
Y146594D02*X259887Y147394D01*
X258500Y146594D02*X257113Y147394D01*
X243000Y151500D02*Y149900D01*
Y151500D02*X244387Y152300D01*
X243000Y151500D02*X241613Y152300D01*
X239500Y151500D02*Y149900D01*
Y151500D02*X240887Y152300D01*
X239500Y151500D02*X238113Y152300D01*
X145000Y157500D02*Y155900D01*
Y157500D02*X146387Y158300D01*
X145000Y157500D02*X143613Y158300D01*
X115500Y142500D02*Y140900D01*
Y142500D02*X116887Y143300D01*
X115500Y142500D02*X114113Y143300D01*
X114000Y146500D02*Y144900D01*
Y146500D02*X115387Y147300D01*
X114000Y146500D02*X112613Y147300D01*
X106500Y147500D02*Y145900D01*
Y147500D02*X107887Y148300D01*
X106500Y147500D02*X105113Y148300D01*
X107000Y150500D02*Y148900D01*
Y150500D02*X108387Y151300D01*
X107000Y150500D02*X105613Y151300D01*
X110500Y150500D02*Y148900D01*
Y150500D02*X111887Y151300D01*
X110500Y150500D02*X109113Y151300D01*
X94000Y147000D02*Y145400D01*
Y147000D02*X95387Y147800D01*
X94000Y147000D02*X92613Y147800D01*
X91500Y161000D02*Y159400D01*
Y161000D02*X92887Y161800D01*
X91500Y161000D02*X90113Y161800D01*
X60000Y143500D02*Y141900D01*
Y143500D02*X61387Y144300D01*
X60000Y143500D02*X58613Y144300D01*
X67500Y150500D02*Y148900D01*
Y150500D02*X68887Y151300D01*
X67500Y150500D02*X66113Y151300D01*
X77500Y117500D02*Y115900D01*
Y117500D02*X78887Y118300D01*
X77500Y117500D02*X76113Y118300D01*
X89000Y126000D02*Y124400D01*
Y126000D02*X90387Y126800D01*
X89000Y126000D02*X87613Y126800D01*
X168500Y121500D02*Y119900D01*
Y121500D02*X169887Y122300D01*
X168500Y121500D02*X167113Y122300D01*
X255500Y111594D02*Y109994D01*
Y111594D02*X256887Y112394D01*
X255500Y111594D02*X254113Y112394D01*
X258500Y111594D02*Y109994D01*
Y111594D02*X259887Y112394D01*
X258500Y111594D02*X257113Y112394D01*
X243000Y116500D02*Y114900D01*
Y116500D02*X244387Y117300D01*
X243000Y116500D02*X241613Y117300D01*
X239500Y116500D02*Y114900D01*
Y116500D02*X240887Y117300D01*
X239500Y116500D02*X238113Y117300D01*
X145000Y122500D02*Y120900D01*
Y122500D02*X146387Y123300D01*
X145000Y122500D02*X143613Y123300D01*
X115500Y107500D02*Y105900D01*
Y107500D02*X116887Y108300D01*
X115500Y107500D02*X114113Y108300D01*
X114000Y111500D02*Y109900D01*
Y111500D02*X115387Y112300D01*
X114000Y111500D02*X112613Y112300D01*
X106500Y112500D02*Y110900D01*
Y112500D02*X107887Y113300D01*
X106500Y112500D02*X105113Y113300D01*
X107000Y115500D02*Y113900D01*
Y115500D02*X108387Y116300D01*
X107000Y115500D02*X105613Y116300D01*
X110500Y115500D02*Y113900D01*
Y115500D02*X111887Y116300D01*
X110500Y115500D02*X109113Y116300D01*
X94000Y112000D02*Y110400D01*
Y112000D02*X95387Y112800D01*
X94000Y112000D02*X92613Y112800D01*
X91500Y126000D02*Y124400D01*
Y126000D02*X92887Y126800D01*
X91500Y126000D02*X90113Y126800D01*
X60000Y108500D02*Y106900D01*
Y108500D02*X61387Y109300D01*
X60000Y108500D02*X58613Y109300D01*
X67500Y115500D02*Y113900D01*
Y115500D02*X68887Y116300D01*
X67500Y115500D02*X66113Y116300D01*
X77500Y82500D02*Y80900D01*
Y82500D02*X78887Y83300D01*
X77500Y82500D02*X76113Y83300D01*
X89000Y91000D02*Y89400D01*
Y91000D02*X90387Y91800D01*
X89000Y91000D02*X87613Y91800D01*
X168500Y86500D02*Y84900D01*
Y86500D02*X169887Y87300D01*
X168500Y86500D02*X167113Y87300D01*
X255500Y76594D02*Y74994D01*
Y76594D02*X256887Y77394D01*
X255500Y76594D02*X254113Y77394D01*
X258500Y76594D02*Y74994D01*
Y76594D02*X259887Y77394D01*
X258500Y76594D02*X257113Y77394D01*
X243000Y81500D02*Y79900D01*
Y81500D02*X244387Y82300D01*
X243000Y81500D02*X241613Y82300D01*
X239500Y81500D02*Y79900D01*
Y81500D02*X240887Y82300D01*
X239500Y81500D02*X238113Y82300D01*
X145000Y87500D02*Y85900D01*
Y87500D02*X146387Y88300D01*
X145000Y87500D02*X143613Y88300D01*
X115500Y72500D02*Y70900D01*
Y72500D02*X116887Y73300D01*
X115500Y72500D02*X114113Y73300D01*
X114000Y76500D02*Y74900D01*
Y76500D02*X115387Y77300D01*
X114000Y76500D02*X112613Y77300D01*
X106500Y77500D02*Y75900D01*
Y77500D02*X107887Y78300D01*
X106500Y77500D02*X105113Y78300D01*
X107000Y80500D02*Y78900D01*
Y80500D02*X108387Y81300D01*
X107000Y80500D02*X105613Y81300D01*
X110500Y80500D02*Y78900D01*
Y80500D02*X111887Y81300D01*
X110500Y80500D02*X109113Y81300D01*
X94000Y77000D02*Y75400D01*
Y77000D02*X95387Y77800D01*
X94000Y77000D02*X92613Y77800D01*
X91500Y91000D02*Y89400D01*
Y91000D02*X92887Y91800D01*
X91500Y91000D02*X90113Y91800D01*
X60000Y73500D02*Y71900D01*
Y73500D02*X61387Y74300D01*
X60000Y73500D02*X58613Y74300D01*
X67500Y80500D02*Y78900D01*
Y80500D02*X68887Y81300D01*
X67500Y80500D02*X66113Y81300D01*
X15000Y606250D02*Y604650D01*
Y606250D02*X16387Y607050D01*
X15000Y606250D02*X13613Y607050D01*
X135000Y608500D02*X136500Y605500D01*
X138000Y608500D01*
X136500Y605500D02*Y602500D01*
X139800Y605800D02*X142050D01*
X139800Y602500D02*X142800D01*
X139800Y608500D02*Y602500D01*
Y608500D02*X142800D01*
X147600D02*X148350Y607750D01*
X145350Y608500D02*X147600D01*
X144600Y607750D02*X145350Y608500D01*
X144600Y607750D02*Y606250D01*
X145350Y605500D01*
X147600D01*
X148350Y604750D01*
Y603250D01*
X147600Y602500D02*X148350Y603250D01*
X145350Y602500D02*X147600D01*
X144600Y603250D02*X145350Y602500D01*
X98000Y607750D02*X98750Y608500D01*
X101000D01*
X101750Y607750D01*
Y606250D01*
X98000Y602500D02*X101750Y606250D01*
X98000Y602500D02*X101750D01*
X103550Y603250D02*X104300Y602500D01*
X103550Y607750D02*Y603250D01*
Y607750D02*X104300Y608500D01*
X105800D01*
X106550Y607750D01*
Y603250D01*
X105800Y602500D02*X106550Y603250D01*
X104300Y602500D02*X105800D01*
X103550Y604000D02*X106550Y607000D01*
X108350Y604750D02*X111350Y608500D01*
X108350Y604750D02*X112100D01*
X111350Y608500D02*Y602500D01*
X45000Y603250D02*X45750Y602500D01*
X45000Y607750D02*Y603250D01*
Y607750D02*X45750Y608500D01*
X47250D01*
X48000Y607750D01*
Y603250D01*
X47250Y602500D02*X48000Y603250D01*
X45750Y602500D02*X47250D01*
X45000Y604000D02*X48000Y607000D01*
X49800Y602500D02*X50550D01*
X52350Y603250D02*X53100Y602500D01*
X52350Y607750D02*Y603250D01*
Y607750D02*X53100Y608500D01*
X54600D01*
X55350Y607750D01*
Y603250D01*
X54600Y602500D02*X55350Y603250D01*
X53100Y602500D02*X54600D01*
X52350Y604000D02*X55350Y607000D01*
X57150Y607300D02*X58350Y608500D01*
Y602500D01*
X57150D02*X59400D01*
X61200Y607750D02*X61950Y608500D01*
X64200D01*
X64950Y607750D01*
Y606250D01*
X61200Y602500D02*X64950Y606250D01*
X61200Y602500D02*X64950D01*
X3000Y623500D02*X3750Y622750D01*
X750Y623500D02*X3000D01*
X0Y622750D02*X750Y623500D01*
X0Y622750D02*Y621250D01*
X750Y620500D01*
X3000D01*
X3750Y619750D01*
Y618250D01*
X3000Y617500D02*X3750Y618250D01*
X750Y617500D02*X3000D01*
X0Y618250D02*X750Y617500D01*
X5550Y620500D02*Y618250D01*
X6300Y617500D01*
X8550Y620500D02*Y616000D01*
X7800Y615250D02*X8550Y616000D01*
X6300Y615250D02*X7800D01*
X5550Y616000D02*X6300Y615250D01*
Y617500D02*X7800D01*
X8550Y618250D01*
X11100Y619750D02*Y617500D01*
Y619750D02*X11850Y620500D01*
X12600D01*
X13350Y619750D01*
Y617500D01*
Y619750D02*X14100Y620500D01*
X14850D01*
X15600Y619750D01*
Y617500D01*
X10350Y620500D02*X11100Y619750D01*
X17400Y623500D02*Y617500D01*
Y618250D02*X18150Y617500D01*
X19650D01*
X20400Y618250D01*
Y619750D02*Y618250D01*
X19650Y620500D02*X20400Y619750D01*
X18150Y620500D02*X19650D01*
X17400Y619750D02*X18150Y620500D01*
X22200Y619750D02*Y618250D01*
Y619750D02*X22950Y620500D01*
X24450D01*
X25200Y619750D01*
Y618250D01*
X24450Y617500D02*X25200Y618250D01*
X22950Y617500D02*X24450D01*
X22200Y618250D02*X22950Y617500D01*
X27000Y623500D02*Y618250D01*
X27750Y617500D01*
X0Y614250D02*X29250D01*
X41750Y623500D02*Y617500D01*
X43700Y623500D02*X44750Y622450D01*
Y618550D01*
X43700Y617500D02*X44750Y618550D01*
X41000Y617500D02*X43700D01*
X41000Y623500D02*X43700D01*
G54D57*X46550Y622000D02*Y621850D01*
G54D56*Y619750D02*Y617500D01*
X50300Y620500D02*X51050Y619750D01*
X48800Y620500D02*X50300D01*
X48050Y619750D02*X48800Y620500D01*
X48050Y619750D02*Y618250D01*
X48800Y617500D01*
X51050Y620500D02*Y618250D01*
X51800Y617500D01*
X48800D02*X50300D01*
X51050Y618250D01*
X54350Y619750D02*Y617500D01*
Y619750D02*X55100Y620500D01*
X55850D01*
X56600Y619750D01*
Y617500D01*
Y619750D02*X57350Y620500D01*
X58100D01*
X58850Y619750D01*
Y617500D01*
X53600Y620500D02*X54350Y619750D01*
X60650Y617500D02*X61400D01*
X65900Y618250D02*X66650Y617500D01*
X65900Y622750D02*X66650Y623500D01*
X65900Y622750D02*Y618250D01*
X68450Y623500D02*X69950D01*
X69200D02*Y617500D01*
X68450D02*X69950D01*
X72500Y619750D02*Y617500D01*
Y619750D02*X73250Y620500D01*
X74000D01*
X74750Y619750D01*
Y617500D01*
X71750Y620500D02*X72500Y619750D01*
X77300Y620500D02*X79550D01*
X76550Y619750D02*X77300Y620500D01*
X76550Y619750D02*Y618250D01*
X77300Y617500D01*
X79550D01*
X81350Y623500D02*Y617500D01*
Y619750D02*X82100Y620500D01*
X83600D01*
X84350Y619750D01*
Y617500D01*
X86150Y623500D02*X86900Y622750D01*
Y618250D01*
X86150Y617500D02*X86900Y618250D01*
X41000Y614250D02*X88700D01*
X96050Y617500D02*X98000D01*
X95000Y618550D02*X96050Y617500D01*
X95000Y622450D02*Y618550D01*
Y622450D02*X96050Y623500D01*
X98000D01*
X99800Y619750D02*Y618250D01*
Y619750D02*X100550Y620500D01*
X102050D01*
X102800Y619750D01*
Y618250D01*
X102050Y617500D02*X102800Y618250D01*
X100550Y617500D02*X102050D01*
X99800Y618250D02*X100550Y617500D01*
X104600Y620500D02*Y618250D01*
X105350Y617500D01*
X106850D01*
X107600Y618250D01*
Y620500D02*Y618250D01*
X110150Y619750D02*Y617500D01*
Y619750D02*X110900Y620500D01*
X111650D01*
X112400Y619750D01*
Y617500D01*
X109400Y620500D02*X110150Y619750D01*
X114950Y623500D02*Y618250D01*
X115700Y617500D01*
X114200Y621250D02*X115700D01*
X95000Y614250D02*X117200D01*
X130750Y623500D02*Y617500D01*
X130000Y623500D02*X133000D01*
X133750Y622750D01*
Y621250D01*
X133000Y620500D02*X133750Y621250D01*
X130750Y620500D02*X133000D01*
X135550Y623500D02*Y618250D01*
X136300Y617500D01*
X140050Y620500D02*X140800Y619750D01*
X138550Y620500D02*X140050D01*
X137800Y619750D02*X138550Y620500D01*
X137800Y619750D02*Y618250D01*
X138550Y617500D01*
X140800Y620500D02*Y618250D01*
X141550Y617500D01*
X138550D02*X140050D01*
X140800Y618250D01*
X144100Y623500D02*Y618250D01*
X144850Y617500D01*
X143350Y621250D02*X144850D01*
X147100Y617500D02*X149350D01*
X146350Y618250D02*X147100Y617500D01*
X146350Y619750D02*Y618250D01*
Y619750D02*X147100Y620500D01*
X148600D01*
X149350Y619750D01*
X146350Y619000D02*X149350D01*
Y619750D02*Y619000D01*
X154150Y623500D02*Y617500D01*
X153400D02*X154150Y618250D01*
X151900Y617500D02*X153400D01*
X151150Y618250D02*X151900Y617500D01*
X151150Y619750D02*Y618250D01*
Y619750D02*X151900Y620500D01*
X153400D01*
X154150Y619750D01*
X157450Y620500D02*Y619750D01*
Y618250D02*Y617500D01*
X155950Y622750D02*Y622000D01*
Y622750D02*X156700Y623500D01*
X158200D01*
X158950Y622750D01*
Y622000D01*
X157450Y620500D02*X158950Y622000D01*
X130000Y614250D02*X160750D01*
X0Y638500D02*X3000D01*
X1500D02*Y632500D01*
X4800Y638500D02*Y632500D01*
Y634750D02*X5550Y635500D01*
X7050D01*
X7800Y634750D01*
Y632500D01*
X10350D02*X12600D01*
X9600Y633250D02*X10350Y632500D01*
X9600Y634750D02*Y633250D01*
Y634750D02*X10350Y635500D01*
X11850D01*
X12600Y634750D01*
X9600Y634000D02*X12600D01*
Y634750D02*Y634000D01*
X15150Y634750D02*Y632500D01*
Y634750D02*X15900Y635500D01*
X17400D01*
X14400D02*X15150Y634750D01*
X19950Y632500D02*X22200D01*
X19200Y633250D02*X19950Y632500D01*
X19200Y634750D02*Y633250D01*
Y634750D02*X19950Y635500D01*
X21450D01*
X22200Y634750D01*
X19200Y634000D02*X22200D01*
Y634750D02*Y634000D01*
X28950Y635500D02*X29700Y634750D01*
X27450Y635500D02*X28950D01*
X26700Y634750D02*X27450Y635500D01*
X26700Y634750D02*Y633250D01*
X27450Y632500D01*
X29700Y635500D02*Y633250D01*
X30450Y632500D01*
X27450D02*X28950D01*
X29700Y633250D01*
X33000Y634750D02*Y632500D01*
Y634750D02*X33750Y635500D01*
X35250D01*
X32250D02*X33000Y634750D01*
X37800Y632500D02*X40050D01*
X37050Y633250D02*X37800Y632500D01*
X37050Y634750D02*Y633250D01*
Y634750D02*X37800Y635500D01*
X39300D01*
X40050Y634750D01*
X37050Y634000D02*X40050D01*
Y634750D02*Y634000D01*
X44550Y634750D02*X47550Y638500D01*
X44550Y634750D02*X48300D01*
X47550Y638500D02*Y632500D01*
X55800Y638500D02*Y632500D01*
X55050D02*X55800Y633250D01*
X53550Y632500D02*X55050D01*
X52800Y633250D02*X53550Y632500D01*
X52800Y634750D02*Y633250D01*
Y634750D02*X53550Y635500D01*
X55050D01*
X55800Y634750D01*
G54D57*X57600Y637000D02*Y636850D01*
G54D56*Y634750D02*Y632500D01*
X59850Y637750D02*Y632500D01*
Y637750D02*X60600Y638500D01*
X61350D01*
X59100Y635500D02*X60600D01*
X63600Y637750D02*Y632500D01*
Y637750D02*X64350Y638500D01*
X65100D01*
X62850Y635500D02*X64350D01*
X67350Y632500D02*X69600D01*
X66600Y633250D02*X67350Y632500D01*
X66600Y634750D02*Y633250D01*
Y634750D02*X67350Y635500D01*
X68850D01*
X69600Y634750D01*
X66600Y634000D02*X69600D01*
Y634750D02*Y634000D01*
X72150Y634750D02*Y632500D01*
Y634750D02*X72900Y635500D01*
X74400D01*
X71400D02*X72150Y634750D01*
X76950Y632500D02*X79200D01*
X76200Y633250D02*X76950Y632500D01*
X76200Y634750D02*Y633250D01*
Y634750D02*X76950Y635500D01*
X78450D01*
X79200Y634750D01*
X76200Y634000D02*X79200D01*
Y634750D02*Y634000D01*
X81750Y634750D02*Y632500D01*
Y634750D02*X82500Y635500D01*
X83250D01*
X84000Y634750D01*
Y632500D01*
X81000Y635500D02*X81750Y634750D01*
X86550Y638500D02*Y633250D01*
X87300Y632500D01*
X85800Y636250D02*X87300D01*
X94500Y638500D02*Y632500D01*
X93750D02*X94500Y633250D01*
X92250Y632500D02*X93750D01*
X91500Y633250D02*X92250Y632500D01*
X91500Y634750D02*Y633250D01*
Y634750D02*X92250Y635500D01*
X93750D01*
X94500Y634750D01*
X97050D02*Y632500D01*
Y634750D02*X97800Y635500D01*
X99300D01*
X96300D02*X97050Y634750D01*
G54D57*X101100Y637000D02*Y636850D01*
G54D56*Y634750D02*Y632500D01*
X102600Y638500D02*Y633250D01*
X103350Y632500D01*
X104850Y638500D02*Y633250D01*
X105600Y632500D01*
X110550D02*X112800D01*
X113550Y633250D01*
X112800Y634000D02*X113550Y633250D01*
X110550Y634000D02*X112800D01*
X109800Y634750D02*X110550Y634000D01*
X109800Y634750D02*X110550Y635500D01*
X112800D01*
X113550Y634750D01*
X109800Y633250D02*X110550Y632500D01*
G54D57*X115350Y637000D02*Y636850D01*
G54D56*Y634750D02*Y632500D01*
X116850Y635500D02*X119850D01*
X116850Y632500D02*X119850Y635500D01*
X116850Y632500D02*X119850D01*
X122400D02*X124650D01*
X121650Y633250D02*X122400Y632500D01*
X121650Y634750D02*Y633250D01*
Y634750D02*X122400Y635500D01*
X123900D01*
X124650Y634750D01*
X121650Y634000D02*X124650D01*
Y634750D02*Y634000D01*
X127200Y632500D02*X129450D01*
X130200Y633250D01*
X129450Y634000D02*X130200Y633250D01*
X127200Y634000D02*X129450D01*
X126450Y634750D02*X127200Y634000D01*
X126450Y634750D02*X127200Y635500D01*
X129450D01*
X130200Y634750D01*
X126450Y633250D02*X127200Y632500D01*
X134700Y635500D02*Y633250D01*
X135450Y632500D01*
X136950D01*
X137700Y633250D01*
Y635500D02*Y633250D01*
X140250Y632500D02*X142500D01*
X143250Y633250D01*
X142500Y634000D02*X143250Y633250D01*
X140250Y634000D02*X142500D01*
X139500Y634750D02*X140250Y634000D01*
X139500Y634750D02*X140250Y635500D01*
X142500D01*
X143250Y634750D01*
X139500Y633250D02*X140250Y632500D01*
X145800D02*X148050D01*
X145050Y633250D02*X145800Y632500D01*
X145050Y634750D02*Y633250D01*
Y634750D02*X145800Y635500D01*
X147300D01*
X148050Y634750D01*
X145050Y634000D02*X148050D01*
Y634750D02*Y634000D01*
X152850Y638500D02*Y632500D01*
X152100D02*X152850Y633250D01*
X150600Y632500D02*X152100D01*
X149850Y633250D02*X150600Y632500D01*
X149850Y634750D02*Y633250D01*
Y634750D02*X150600Y635500D01*
X152100D01*
X152850Y634750D01*
G54D57*X157350Y637000D02*Y636850D01*
G54D56*Y634750D02*Y632500D01*
X159600Y634750D02*Y632500D01*
Y634750D02*X160350Y635500D01*
X161100D01*
X161850Y634750D01*
Y632500D01*
X158850Y635500D02*X159600Y634750D01*
X167100Y638500D02*Y633250D01*
X167850Y632500D01*
X166350Y636250D02*X167850D01*
X169350Y638500D02*Y632500D01*
Y634750D02*X170100Y635500D01*
X171600D01*
X172350Y634750D01*
Y632500D01*
G54D57*X174150Y637000D02*Y636850D01*
G54D56*Y634750D02*Y632500D01*
X176400D02*X178650D01*
X179400Y633250D01*
X178650Y634000D02*X179400Y633250D01*
X176400Y634000D02*X178650D01*
X175650Y634750D02*X176400Y634000D01*
X175650Y634750D02*X176400Y635500D01*
X178650D01*
X179400Y634750D01*
X175650Y633250D02*X176400Y632500D01*
X183900Y638500D02*Y633250D01*
X184650Y632500D01*
X188400Y635500D02*X189150Y634750D01*
X186900Y635500D02*X188400D01*
X186150Y634750D02*X186900Y635500D01*
X186150Y634750D02*Y633250D01*
X186900Y632500D01*
X189150Y635500D02*Y633250D01*
X189900Y632500D01*
X186900D02*X188400D01*
X189150Y633250D01*
X191700Y635500D02*Y633250D01*
X192450Y632500D01*
X194700Y635500D02*Y631000D01*
X193950Y630250D02*X194700Y631000D01*
X192450Y630250D02*X193950D01*
X191700Y631000D02*X192450Y630250D01*
Y632500D02*X193950D01*
X194700Y633250D01*
X196500Y634750D02*Y633250D01*
Y634750D02*X197250Y635500D01*
X198750D01*
X199500Y634750D01*
Y633250D01*
X198750Y632500D02*X199500Y633250D01*
X197250Y632500D02*X198750D01*
X196500Y633250D02*X197250Y632500D01*
X201300Y635500D02*Y633250D01*
X202050Y632500D01*
X203550D01*
X204300Y633250D01*
Y635500D02*Y633250D01*
X206850Y638500D02*Y633250D01*
X207600Y632500D01*
X206100Y636250D02*X207600D01*
X209100Y631000D02*X210600Y632500D01*
X215100Y638500D02*X218100D01*
X215100D02*Y635500D01*
X215850Y636250D01*
X217350D01*
X218100Y635500D01*
Y633250D01*
X217350Y632500D02*X218100Y633250D01*
X215850Y632500D02*X217350D01*
X215100Y633250D02*X215850Y632500D01*
X219900Y634750D02*X222900Y638500D01*
X219900Y634750D02*X223650D01*
X222900Y638500D02*Y632500D01*
X225450Y633250D02*X226200Y632500D01*
X225450Y637750D02*Y633250D01*
Y637750D02*X226200Y638500D01*
X227700D01*
X228450Y637750D01*
Y633250D01*
X227700Y632500D02*X228450Y633250D01*
X226200Y632500D02*X227700D01*
X225450Y634000D02*X228450Y637000D01*
X232950Y638500D02*Y632500D01*
Y634750D02*X233700Y635500D01*
X235200D01*
X235950Y634750D01*
Y632500D01*
X237750Y634750D02*Y633250D01*
Y634750D02*X238500Y635500D01*
X240000D01*
X240750Y634750D01*
Y633250D01*
X240000Y632500D02*X240750Y633250D01*
X238500Y632500D02*X240000D01*
X237750Y633250D02*X238500Y632500D01*
X242550Y638500D02*Y633250D01*
X243300Y632500D01*
X245550D02*X247800D01*
X244800Y633250D02*X245550Y632500D01*
X244800Y634750D02*Y633250D01*
Y634750D02*X245550Y635500D01*
X247050D01*
X247800Y634750D01*
X244800Y634000D02*X247800D01*
Y634750D02*Y634000D01*
X250350Y632500D02*X252600D01*
X253350Y633250D01*
X252600Y634000D02*X253350Y633250D01*
X250350Y634000D02*X252600D01*
X249600Y634750D02*X250350Y634000D01*
X249600Y634750D02*X250350Y635500D01*
X252600D01*
X253350Y634750D01*
X249600Y633250D02*X250350Y632500D01*
X258600Y638500D02*Y633250D01*
X259350Y632500D01*
X257850Y636250D02*X259350D01*
X260850Y634750D02*Y633250D01*
Y634750D02*X261600Y635500D01*
X263100D01*
X263850Y634750D01*
Y633250D01*
X263100Y632500D02*X263850Y633250D01*
X261600Y632500D02*X263100D01*
X260850Y633250D02*X261600Y632500D01*
X266400Y638500D02*Y633250D01*
X267150Y632500D01*
X265650Y636250D02*X267150D01*
X270900Y635500D02*X271650Y634750D01*
X269400Y635500D02*X270900D01*
X268650Y634750D02*X269400Y635500D01*
X268650Y634750D02*Y633250D01*
X269400Y632500D01*
X271650Y635500D02*Y633250D01*
X272400Y632500D01*
X269400D02*X270900D01*
X271650Y633250D01*
X274200Y638500D02*Y633250D01*
X274950Y632500D01*
G54D58*X230000Y95000D02*X270000D01*
Y105000D02*X230000D01*
X210000Y95000D02*X120000D01*
Y105000D02*X210000D01*
X100000Y95000D02*X52500D01*
Y105000D02*X100000D01*
X270000Y95000D02*Y70000D01*
X230000Y130000D02*X270000D01*
Y140000D02*X230000D01*
X210000Y130000D02*X120000D01*
Y140000D02*X210000D01*
X100000Y130000D02*X52500D01*
Y140000D02*X100000D01*
X270000Y130000D02*Y105000D01*
X230000Y165000D02*X270000D01*
Y175000D02*X230000D01*
X210000Y165000D02*X120000D01*
Y175000D02*X210000D01*
X100000Y165000D02*X52500D01*
Y175000D02*X100000D01*
X270000Y165000D02*Y140000D01*
X230000Y200000D02*X270000D01*
Y210000D02*X230000D01*
X210000Y200000D02*X120000D01*
Y210000D02*X210000D01*
X100000Y200000D02*X52500D01*
Y210000D02*X100000D01*
X270000Y200000D02*Y175000D01*
X230000Y235000D02*X270000D01*
Y245000D02*X230000D01*
X210000Y235000D02*X120000D01*
Y245000D02*X210000D01*
X100000Y235000D02*X52500D01*
Y245000D02*X100000D01*
X270000Y235000D02*Y210000D01*
X230000Y270000D02*X270000D01*
Y280000D02*X230000D01*
X210000Y270000D02*X120000D01*
Y280000D02*X210000D01*
X100000Y270000D02*X52500D01*
Y280000D02*X100000D01*
X270000Y270000D02*Y245000D01*
X230000Y305000D02*X270000D01*
Y315000D02*X230000D01*
X210000Y305000D02*X120000D01*
Y315000D02*X210000D01*
X100000Y305000D02*X52500D01*
Y315000D02*X100000D01*
X270000Y305000D02*Y280000D01*
X230000Y340000D02*X270000D01*
Y350000D02*X230000D01*
X210000Y340000D02*X120000D01*
Y350000D02*X210000D01*
X100000Y340000D02*X52500D01*
Y350000D02*X100000D01*
X270000Y340000D02*Y315000D01*
X230000Y375000D02*X270000D01*
Y385000D02*X230000D01*
X210000Y375000D02*X120000D01*
Y385000D02*X210000D01*
X100000Y375000D02*X52500D01*
Y385000D02*X100000D01*
X270000Y375000D02*Y350000D01*
X230000Y410000D02*X270000D01*
Y420000D02*X230000D01*
X210000Y410000D02*X120000D01*
Y420000D02*X210000D01*
X100000Y410000D02*X52500D01*
Y420000D02*X100000D01*
X270000Y410000D02*Y385000D01*
X230000Y445000D02*X270000D01*
Y455000D02*X230000D01*
X210000Y445000D02*X120000D01*
Y455000D02*X210000D01*
X100000Y445000D02*X52500D01*
Y455000D02*X100000D01*
X270000Y445000D02*Y420000D01*
Y480000D02*Y455000D01*
X210000Y480000D02*X120000D01*
Y490000D02*X210000D01*
X230000Y480000D02*X270000D01*
X100000D02*X52500D01*
X100000Y490000D02*X52500D01*
X270000Y520000D02*Y490000D01*
X230000D01*
X210000Y70000D02*X120000D01*
Y60000D02*X210000D01*
X230000Y70000D02*X270000D01*
X100000D02*X52500D01*
X100000Y60000D02*X52500D01*
X270000Y30000D02*Y60000D01*
X230000D01*
X52500Y520000D02*X270000D01*
X52500Y30000D02*X270000D01*
X52500Y70000D02*Y95000D01*
Y105000D02*Y130000D01*
Y140000D02*Y165000D01*
Y175000D02*Y200000D01*
Y210000D02*Y235000D01*
Y245000D02*Y270000D01*
Y280000D02*Y305000D01*
Y315000D02*Y340000D01*
Y350000D02*Y375000D01*
Y385000D02*Y410000D01*
Y420000D02*Y445000D01*
Y455000D02*Y480000D01*
Y490000D02*Y520000D01*
Y60000D02*Y30000D01*
X225000Y100000D02*G75*G03X230000Y95000I5000J0D01*G01*
X225000Y100000D02*G75*G02X230000Y105000I5000J0D01*G01*
X215000Y100000D02*G75*G02X210000Y95000I-5000J0D01*G01*
X215000Y100000D02*G75*G03X210000Y105000I-5000J0D01*G01*
X115000Y100000D02*G75*G03X120000Y95000I5000J0D01*G01*
X115000Y100000D02*G75*G02X120000Y105000I5000J0D01*G01*
X105000Y100000D02*G75*G02X100000Y95000I-5000J0D01*G01*
X105000Y100000D02*G75*G03X100000Y105000I-5000J0D01*G01*
X225000Y135000D02*G75*G03X230000Y130000I5000J0D01*G01*
X225000Y135000D02*G75*G02X230000Y140000I5000J0D01*G01*
X215000Y135000D02*G75*G02X210000Y130000I-5000J0D01*G01*
X215000Y135000D02*G75*G03X210000Y140000I-5000J0D01*G01*
X115000Y135000D02*G75*G03X120000Y130000I5000J0D01*G01*
X115000Y135000D02*G75*G02X120000Y140000I5000J0D01*G01*
X105000Y135000D02*G75*G02X100000Y130000I-5000J0D01*G01*
X105000Y135000D02*G75*G03X100000Y140000I-5000J0D01*G01*
X225000Y170000D02*G75*G03X230000Y165000I5000J0D01*G01*
X225000Y170000D02*G75*G02X230000Y175000I5000J0D01*G01*
X215000Y170000D02*G75*G02X210000Y165000I-5000J0D01*G01*
X215000Y170000D02*G75*G03X210000Y175000I-5000J0D01*G01*
X115000Y170000D02*G75*G03X120000Y165000I5000J0D01*G01*
X115000Y170000D02*G75*G02X120000Y175000I5000J0D01*G01*
X105000Y170000D02*G75*G02X100000Y165000I-5000J0D01*G01*
X105000Y170000D02*G75*G03X100000Y175000I-5000J0D01*G01*
X225000Y205000D02*G75*G03X230000Y200000I5000J0D01*G01*
X225000Y205000D02*G75*G02X230000Y210000I5000J0D01*G01*
X215000Y205000D02*G75*G02X210000Y200000I-5000J0D01*G01*
X215000Y205000D02*G75*G03X210000Y210000I-5000J0D01*G01*
X115000Y205000D02*G75*G03X120000Y200000I5000J0D01*G01*
X115000Y205000D02*G75*G02X120000Y210000I5000J0D01*G01*
X105000Y205000D02*G75*G02X100000Y200000I-5000J0D01*G01*
X105000Y205000D02*G75*G03X100000Y210000I-5000J0D01*G01*
X225000Y240000D02*G75*G03X230000Y235000I5000J0D01*G01*
X225000Y240000D02*G75*G02X230000Y245000I5000J0D01*G01*
X215000Y240000D02*G75*G02X210000Y235000I-5000J0D01*G01*
X215000Y240000D02*G75*G03X210000Y245000I-5000J0D01*G01*
X115000Y240000D02*G75*G03X120000Y235000I5000J0D01*G01*
X115000Y240000D02*G75*G02X120000Y245000I5000J0D01*G01*
X105000Y240000D02*G75*G02X100000Y235000I-5000J0D01*G01*
X105000Y240000D02*G75*G03X100000Y245000I-5000J0D01*G01*
X225000Y275000D02*G75*G03X230000Y270000I5000J0D01*G01*
X225000Y275000D02*G75*G02X230000Y280000I5000J0D01*G01*
X215000Y275000D02*G75*G02X210000Y270000I-5000J0D01*G01*
X215000Y275000D02*G75*G03X210000Y280000I-5000J0D01*G01*
X115000Y275000D02*G75*G03X120000Y270000I5000J0D01*G01*
X115000Y275000D02*G75*G02X120000Y280000I5000J0D01*G01*
X105000Y275000D02*G75*G02X100000Y270000I-5000J0D01*G01*
X105000Y275000D02*G75*G03X100000Y280000I-5000J0D01*G01*
X225000Y310000D02*G75*G03X230000Y305000I5000J0D01*G01*
X225000Y310000D02*G75*G02X230000Y315000I5000J0D01*G01*
X215000Y310000D02*G75*G02X210000Y305000I-5000J0D01*G01*
X215000Y310000D02*G75*G03X210000Y315000I-5000J0D01*G01*
X115000Y310000D02*G75*G03X120000Y305000I5000J0D01*G01*
X115000Y310000D02*G75*G02X120000Y315000I5000J0D01*G01*
X105000Y310000D02*G75*G02X100000Y305000I-5000J0D01*G01*
X105000Y310000D02*G75*G03X100000Y315000I-5000J0D01*G01*
X225000Y345000D02*G75*G03X230000Y340000I5000J0D01*G01*
X225000Y345000D02*G75*G02X230000Y350000I5000J0D01*G01*
X215000Y345000D02*G75*G02X210000Y340000I-5000J0D01*G01*
X215000Y345000D02*G75*G03X210000Y350000I-5000J0D01*G01*
X115000Y345000D02*G75*G03X120000Y340000I5000J0D01*G01*
X115000Y345000D02*G75*G02X120000Y350000I5000J0D01*G01*
X105000Y345000D02*G75*G02X100000Y340000I-5000J0D01*G01*
X105000Y345000D02*G75*G03X100000Y350000I-5000J0D01*G01*
X225000Y380000D02*G75*G03X230000Y375000I5000J0D01*G01*
X225000Y380000D02*G75*G02X230000Y385000I5000J0D01*G01*
X215000Y380000D02*G75*G02X210000Y375000I-5000J0D01*G01*
X215000Y380000D02*G75*G03X210000Y385000I-5000J0D01*G01*
X115000Y380000D02*G75*G03X120000Y375000I5000J0D01*G01*
X115000Y380000D02*G75*G02X120000Y385000I5000J0D01*G01*
X105000Y380000D02*G75*G02X100000Y375000I-5000J0D01*G01*
X105000Y380000D02*G75*G03X100000Y385000I-5000J0D01*G01*
X225000Y415000D02*G75*G03X230000Y410000I5000J0D01*G01*
X225000Y415000D02*G75*G02X230000Y420000I5000J0D01*G01*
X215000Y415000D02*G75*G02X210000Y410000I-5000J0D01*G01*
X215000Y415000D02*G75*G03X210000Y420000I-5000J0D01*G01*
X115000Y415000D02*G75*G03X120000Y410000I5000J0D01*G01*
X115000Y415000D02*G75*G02X120000Y420000I5000J0D01*G01*
X105000Y415000D02*G75*G02X100000Y410000I-5000J0D01*G01*
X105000Y415000D02*G75*G03X100000Y420000I-5000J0D01*G01*
X225000Y450000D02*G75*G03X230000Y445000I5000J0D01*G01*
X225000Y450000D02*G75*G02X230000Y455000I5000J0D01*G01*
X215000Y450000D02*G75*G02X210000Y445000I-5000J0D01*G01*
X215000Y450000D02*G75*G03X210000Y455000I-5000J0D01*G01*
X115000Y450000D02*G75*G03X120000Y445000I5000J0D01*G01*
X115000Y450000D02*G75*G02X120000Y455000I5000J0D01*G01*
X105000Y450000D02*G75*G02X100000Y445000I-5000J0D01*G01*
X105000Y450000D02*G75*G03X100000Y455000I-5000J0D01*G01*
X225000Y485000D02*G75*G03X230000Y480000I5000J0D01*G01*
X225000Y485000D02*G75*G02X230000Y490000I5000J0D01*G01*
X215000Y485000D02*G75*G02X210000Y480000I-5000J0D01*G01*
X215000Y485000D02*G75*G03X210000Y490000I-5000J0D01*G01*
X115000Y485000D02*G75*G03X120000Y480000I5000J0D01*G01*
X115000Y485000D02*G75*G02X120000Y490000I5000J0D01*G01*
X105000Y485000D02*G75*G02X100000Y480000I-5000J0D01*G01*
X105000Y485000D02*G75*G03X100000Y490000I-5000J0D01*G01*
X225000Y65000D02*G75*G02X230000Y70000I5000J0D01*G01*
X225000Y65000D02*G75*G03X230000Y60000I5000J0D01*G01*
X215000Y65000D02*G75*G03X210000Y70000I-5000J0D01*G01*
X215000Y65000D02*G75*G02X210000Y60000I-5000J0D01*G01*
X115000Y65000D02*G75*G02X120000Y70000I5000J0D01*G01*
X115000Y65000D02*G75*G03X120000Y60000I5000J0D01*G01*
X105000Y65000D02*G75*G03X100000Y70000I-5000J0D01*G01*
X105000Y65000D02*G75*G02X100000Y60000I-5000J0D01*G01*
G54D56*X63675Y-9500D02*X66675D01*
X67425Y-8750D01*
Y-6950D02*Y-8750D01*
X66675Y-6200D02*X67425Y-6950D01*
X64425Y-6200D02*X66675D01*
X64425Y-3500D02*Y-9500D01*
X63675Y-3500D02*X66675D01*
X67425Y-4250D01*
Y-5450D01*
X66675Y-6200D02*X67425Y-5450D01*
X69225Y-7250D02*Y-8750D01*
Y-7250D02*X69975Y-6500D01*
X71475D01*
X72225Y-7250D01*
Y-8750D01*
X71475Y-9500D02*X72225Y-8750D01*
X69975Y-9500D02*X71475D01*
X69225Y-8750D02*X69975Y-9500D01*
X76275Y-6500D02*X77025Y-7250D01*
X74775Y-6500D02*X76275D01*
X74025Y-7250D02*X74775Y-6500D01*
X74025Y-7250D02*Y-8750D01*
X74775Y-9500D01*
X77025Y-6500D02*Y-8750D01*
X77775Y-9500D01*
X74775D02*X76275D01*
X77025Y-8750D01*
X80325Y-7250D02*Y-9500D01*
Y-7250D02*X81075Y-6500D01*
X82575D01*
X79575D02*X80325Y-7250D01*
X87375Y-3500D02*Y-9500D01*
X86625D02*X87375Y-8750D01*
X85125Y-9500D02*X86625D01*
X84375Y-8750D02*X85125Y-9500D01*
X84375Y-7250D02*Y-8750D01*
Y-7250D02*X85125Y-6500D01*
X86625D01*
X87375Y-7250D01*
X91875D02*Y-8750D01*
Y-7250D02*X92625Y-6500D01*
X94125D01*
X94875Y-7250D01*
Y-8750D01*
X94125Y-9500D02*X94875Y-8750D01*
X92625Y-9500D02*X94125D01*
X91875Y-8750D02*X92625Y-9500D01*
X96675Y-6500D02*Y-8750D01*
X97425Y-9500D01*
X98925D01*
X99675Y-8750D01*
Y-6500D02*Y-8750D01*
X102225Y-3500D02*Y-8750D01*
X102975Y-9500D01*
X101475Y-5750D02*X102975D01*
X104475Y-3500D02*Y-8750D01*
X105225Y-9500D01*
G54D57*X106725Y-5000D02*Y-5150D01*
G54D56*Y-7250D02*Y-9500D01*
X108975Y-7250D02*Y-9500D01*
Y-7250D02*X109725Y-6500D01*
X110475D01*
X111225Y-7250D01*
Y-9500D01*
X108225Y-6500D02*X108975Y-7250D01*
X113775Y-9500D02*X116025D01*
X113025Y-8750D02*X113775Y-9500D01*
X113025Y-7250D02*Y-8750D01*
Y-7250D02*X113775Y-6500D01*
X115275D01*
X116025Y-7250D01*
X113025Y-8000D02*X116025D01*
Y-7250D02*Y-8000D01*
G54D57*X120525Y-5000D02*Y-5150D01*
G54D56*Y-7250D02*Y-9500D01*
X122775D02*X125025D01*
X125775Y-8750D01*
X125025Y-8000D02*X125775Y-8750D01*
X122775Y-8000D02*X125025D01*
X122025Y-7250D02*X122775Y-8000D01*
X122025Y-7250D02*X122775Y-6500D01*
X125025D01*
X125775Y-7250D01*
X122025Y-8750D02*X122775Y-9500D01*
X131025Y-3500D02*Y-8750D01*
X131775Y-9500D01*
X130275Y-5750D02*X131775D01*
X133275Y-3500D02*Y-9500D01*
Y-7250D02*X134025Y-6500D01*
X135525D01*
X136275Y-7250D01*
Y-9500D01*
X138825D02*X141075D01*
X138075Y-8750D02*X138825Y-9500D01*
X138075Y-7250D02*Y-8750D01*
Y-7250D02*X138825Y-6500D01*
X140325D01*
X141075Y-7250D01*
X138075Y-8000D02*X141075D01*
Y-7250D02*Y-8000D01*
X146325Y-6500D02*X148575D01*
X145575Y-7250D02*X146325Y-6500D01*
X145575Y-7250D02*Y-8750D01*
X146325Y-9500D01*
X148575D01*
X151125D02*X153375D01*
X150375Y-8750D02*X151125Y-9500D01*
X150375Y-7250D02*Y-8750D01*
Y-7250D02*X151125Y-6500D01*
X152625D01*
X153375Y-7250D01*
X150375Y-8000D02*X153375D01*
Y-7250D02*Y-8000D01*
X155925Y-7250D02*Y-9500D01*
Y-7250D02*X156675Y-6500D01*
X157425D01*
X158175Y-7250D01*
Y-9500D01*
X155175Y-6500D02*X155925Y-7250D01*
X160725Y-3500D02*Y-8750D01*
X161475Y-9500D01*
X159975Y-5750D02*X161475D01*
X163725Y-9500D02*X165975D01*
X162975Y-8750D02*X163725Y-9500D01*
X162975Y-7250D02*Y-8750D01*
Y-7250D02*X163725Y-6500D01*
X165225D01*
X165975Y-7250D01*
X162975Y-8000D02*X165975D01*
Y-7250D02*Y-8000D01*
X168525Y-7250D02*Y-9500D01*
Y-7250D02*X169275Y-6500D01*
X170775D01*
X167775D02*X168525Y-7250D01*
X172575Y-3500D02*Y-8750D01*
X173325Y-9500D01*
G54D57*X174825Y-5000D02*Y-5150D01*
G54D56*Y-7250D02*Y-9500D01*
X177075Y-7250D02*Y-9500D01*
Y-7250D02*X177825Y-6500D01*
X178575D01*
X179325Y-7250D01*
Y-9500D01*
X176325Y-6500D02*X177075Y-7250D01*
X181875Y-9500D02*X184125D01*
X181125Y-8750D02*X181875Y-9500D01*
X181125Y-7250D02*Y-8750D01*
Y-7250D02*X181875Y-6500D01*
X183375D01*
X184125Y-7250D01*
X181125Y-8000D02*X184125D01*
Y-7250D02*Y-8000D01*
X188625Y-7250D02*Y-8750D01*
Y-7250D02*X189375Y-6500D01*
X190875D01*
X191625Y-7250D01*
Y-8750D01*
X190875Y-9500D02*X191625Y-8750D01*
X189375Y-9500D02*X190875D01*
X188625Y-8750D02*X189375Y-9500D01*
X194175Y-4250D02*Y-9500D01*
Y-4250D02*X194925Y-3500D01*
X195675D01*
X193425Y-6500D02*X194925D01*
X200625Y-3500D02*Y-8750D01*
X201375Y-9500D01*
X199875Y-5750D02*X201375D01*
X202875Y-3500D02*Y-9500D01*
Y-7250D02*X203625Y-6500D01*
X205125D01*
X205875Y-7250D01*
Y-9500D01*
G54D57*X207675Y-5000D02*Y-5150D01*
G54D56*Y-7250D02*Y-9500D01*
X209925D02*X212175D01*
X212925Y-8750D01*
X212175Y-8000D02*X212925Y-8750D01*
X209925Y-8000D02*X212175D01*
X209175Y-7250D02*X209925Y-8000D01*
X209175Y-7250D02*X209925Y-6500D01*
X212175D01*
X212925Y-7250D01*
X209175Y-8750D02*X209925Y-9500D01*
X218175Y-7250D02*Y-11750D01*
X217425Y-6500D02*X218175Y-7250D01*
X218925Y-6500D01*
X220425D01*
X221175Y-7250D01*
Y-8750D01*
X220425Y-9500D02*X221175Y-8750D01*
X218925Y-9500D02*X220425D01*
X218175Y-8750D02*X218925Y-9500D01*
X225225Y-6500D02*X225975Y-7250D01*
X223725Y-6500D02*X225225D01*
X222975Y-7250D02*X223725Y-6500D01*
X222975Y-7250D02*Y-8750D01*
X223725Y-9500D01*
X225975Y-6500D02*Y-8750D01*
X226725Y-9500D01*
X223725D02*X225225D01*
X225975Y-8750D01*
X229275Y-3500D02*Y-8750D01*
X230025Y-9500D01*
X228525Y-5750D02*X230025D01*
X231525Y-3500D02*Y-9500D01*
Y-7250D02*X232275Y-6500D01*
X233775D01*
X234525Y-7250D01*
Y-9500D01*
X200750Y578500D02*Y572500D01*
X202700Y578500D02*X203750Y577450D01*
Y573550D01*
X202700Y572500D02*X203750Y573550D01*
X200000Y572500D02*X202700D01*
X200000Y578500D02*X202700D01*
X207800Y575500D02*X208550Y574750D01*
X206300Y575500D02*X207800D01*
X205550Y574750D02*X206300Y575500D01*
X205550Y574750D02*Y573250D01*
X206300Y572500D01*
X208550Y575500D02*Y573250D01*
X209300Y572500D01*
X206300D02*X207800D01*
X208550Y573250D01*
X211850Y578500D02*Y573250D01*
X212600Y572500D01*
X211100Y576250D02*X212600D01*
X214850Y572500D02*X217100D01*
X214100Y573250D02*X214850Y572500D01*
X214100Y574750D02*Y573250D01*
Y574750D02*X214850Y575500D01*
X216350D01*
X217100Y574750D01*
X214100Y574000D02*X217100D01*
Y574750D02*Y574000D01*
X218900Y576250D02*X219650D01*
X218900Y574750D02*X219650D01*
X227150Y578500D02*X227900Y577750D01*
X224900Y578500D02*X227150D01*
X224150Y577750D02*X224900Y578500D01*
X224150Y577750D02*Y576250D01*
X224900Y575500D01*
X227150D01*
X227900Y574750D01*
Y573250D01*
X227150Y572500D02*X227900Y573250D01*
X224900Y572500D02*X227150D01*
X224150Y573250D02*X224900Y572500D01*
X229700Y575500D02*Y573250D01*
X230450Y572500D01*
X231950D01*
X232700Y573250D01*
Y575500D02*Y573250D01*
X235250Y574750D02*Y572500D01*
Y574750D02*X236000Y575500D01*
X236750D01*
X237500Y574750D01*
Y572500D01*
X234500Y575500D02*X235250Y574750D01*
X242000Y578500D02*Y572500D01*
Y578500D02*X244250Y575500D01*
X246500Y578500D01*
Y572500D01*
X250550Y575500D02*X251300Y574750D01*
X249050Y575500D02*X250550D01*
X248300Y574750D02*X249050Y575500D01*
X248300Y574750D02*Y573250D01*
X249050Y572500D01*
X251300Y575500D02*Y573250D01*
X252050Y572500D01*
X249050D02*X250550D01*
X251300Y573250D01*
X253850Y575500D02*Y573250D01*
X254600Y572500D01*
X256850Y575500D02*Y571000D01*
X256100Y570250D02*X256850Y571000D01*
X254600Y570250D02*X256100D01*
X253850Y571000D02*X254600Y570250D01*
Y572500D02*X256100D01*
X256850Y573250D01*
X261350Y577300D02*X262550Y578500D01*
Y572500D01*
X261350D02*X263600D01*
X265400Y578500D02*X268400D01*
X265400D02*Y575500D01*
X266150Y576250D01*
X267650D01*
X268400Y575500D01*
Y573250D01*
X267650Y572500D02*X268400Y573250D01*
X266150Y572500D02*X267650D01*
X265400Y573250D02*X266150Y572500D01*
X272900Y573250D02*X273650Y572500D01*
X272900Y577750D02*Y573250D01*
Y577750D02*X273650Y578500D01*
X275150D01*
X275900Y577750D01*
Y573250D01*
X275150Y572500D02*X275900Y573250D01*
X273650Y572500D02*X275150D01*
X272900Y574000D02*X275900Y577000D01*
X277700Y577750D02*X278450Y578500D01*
X279950D01*
X280700Y577750D01*
X279950Y572500D02*X280700Y573250D01*
X278450Y572500D02*X279950D01*
X277700Y573250D02*X278450Y572500D01*
Y575800D02*X279950D01*
X280700Y577750D02*Y576550D01*
Y575050D02*Y573250D01*
Y575050D02*X279950Y575800D01*
X280700Y576550D02*X279950Y575800D01*
X282500Y576250D02*X283250D01*
X282500Y574750D02*X283250D01*
X285050Y573250D02*X285800Y572500D01*
X285050Y577750D02*Y573250D01*
Y577750D02*X285800Y578500D01*
X287300D01*
X288050Y577750D01*
Y573250D01*
X287300Y572500D02*X288050Y573250D01*
X285800Y572500D02*X287300D01*
X285050Y574000D02*X288050Y577000D01*
X289850Y578500D02*X292850D01*
X289850D02*Y575500D01*
X290600Y576250D01*
X292100D01*
X292850Y575500D01*
Y573250D01*
X292100Y572500D02*X292850Y573250D01*
X290600Y572500D02*X292100D01*
X289850Y573250D02*X290600Y572500D01*
X294650Y576250D02*X295400D01*
X294650Y574750D02*X295400D01*
X297200Y577750D02*X297950Y578500D01*
X300200D01*
X300950Y577750D01*
Y576250D01*
X297200Y572500D02*X300950Y576250D01*
X297200Y572500D02*X300950D01*
X302750Y577300D02*X303950Y578500D01*
Y572500D01*
X302750D02*X305000D01*
X309500Y577750D02*X310250Y578500D01*
X312500D01*
X313250Y577750D01*
Y576250D01*
X309500Y572500D02*X313250Y576250D01*
X309500Y572500D02*X313250D01*
X315050Y573250D02*X315800Y572500D01*
X315050Y577750D02*Y573250D01*
Y577750D02*X315800Y578500D01*
X317300D01*
X318050Y577750D01*
Y573250D01*
X317300Y572500D02*X318050Y573250D01*
X315800Y572500D02*X317300D01*
X315050Y574000D02*X318050Y577000D01*
X319850Y577750D02*X320600Y578500D01*
X322850D01*
X323600Y577750D01*
Y576250D01*
X319850Y572500D02*X323600Y576250D01*
X319850Y572500D02*X323600D01*
X325400Y577750D02*X326150Y578500D01*
X328400D01*
X329150Y577750D01*
Y576250D01*
X325400Y572500D02*X329150Y576250D01*
X325400Y572500D02*X329150D01*
X333650Y578500D02*Y573250D01*
X334400Y572500D01*
X335900D01*
X336650Y573250D01*
Y578500D02*Y573250D01*
X338450Y578500D02*X341450D01*
X339950D02*Y572500D01*
X344300D02*X346250D01*
X343250Y573550D02*X344300Y572500D01*
X343250Y577450D02*Y573550D01*
Y577450D02*X344300Y578500D01*
X346250D01*
X200000Y592000D02*Y587500D01*
Y592000D02*X201050Y593500D01*
X202700D01*
X203750Y592000D01*
Y587500D01*
X200000Y590500D02*X203750D01*
X205550D02*Y588250D01*
X206300Y587500D01*
X207800D01*
X208550Y588250D01*
Y590500D02*Y588250D01*
X211100Y593500D02*Y588250D01*
X211850Y587500D01*
X210350Y591250D02*X211850D01*
X213350Y593500D02*Y587500D01*
Y589750D02*X214100Y590500D01*
X215600D01*
X216350Y589750D01*
Y587500D01*
X218150Y589750D02*Y588250D01*
Y589750D02*X218900Y590500D01*
X220400D01*
X221150Y589750D01*
Y588250D01*
X220400Y587500D02*X221150Y588250D01*
X218900Y587500D02*X220400D01*
X218150Y588250D02*X218900Y587500D01*
X223700Y589750D02*Y587500D01*
Y589750D02*X224450Y590500D01*
X225950D01*
X222950D02*X223700Y589750D01*
X227750Y591250D02*X228500D01*
X227750Y589750D02*X228500D01*
X233000Y593500D02*Y587500D01*
Y593500D02*X235250Y590500D01*
X237500Y593500D01*
Y587500D01*
G54D57*X239300Y592000D02*Y591850D01*
G54D56*Y589750D02*Y587500D01*
X241550Y590500D02*X243800D01*
X240800Y589750D02*X241550Y590500D01*
X240800Y589750D02*Y588250D01*
X241550Y587500D01*
X243800D01*
X245600Y593500D02*Y587500D01*
Y589750D02*X246350Y590500D01*
X247850D01*
X248600Y589750D01*
Y587500D01*
X252650Y590500D02*X253400Y589750D01*
X251150Y590500D02*X252650D01*
X250400Y589750D02*X251150Y590500D01*
X250400Y589750D02*Y588250D01*
X251150Y587500D01*
X253400Y590500D02*Y588250D01*
X254150Y587500D01*
X251150D02*X252650D01*
X253400Y588250D01*
X256700Y587500D02*X258950D01*
X255950Y588250D02*X256700Y587500D01*
X255950Y589750D02*Y588250D01*
Y589750D02*X256700Y590500D01*
X258200D01*
X258950Y589750D01*
X255950Y589000D02*X258950D01*
Y589750D02*Y589000D01*
X260750Y593500D02*Y588250D01*
X261500Y587500D01*
X266450Y593500D02*Y587500D01*
X265700Y593500D02*X268700D01*
X269450Y592750D01*
Y591250D01*
X268700Y590500D02*X269450Y591250D01*
X266450Y590500D02*X268700D01*
X272000Y587500D02*X274250D01*
X271250Y588250D02*X272000Y587500D01*
X271250Y589750D02*Y588250D01*
Y589750D02*X272000Y590500D01*
X273500D01*
X274250Y589750D01*
X271250Y589000D02*X274250D01*
Y589750D02*Y589000D01*
X276800Y593500D02*Y588250D01*
X277550Y587500D01*
X276050Y591250D02*X277550D01*
X279800Y587500D02*X282050D01*
X279050Y588250D02*X279800Y587500D01*
X279050Y589750D02*Y588250D01*
Y589750D02*X279800Y590500D01*
X281300D01*
X282050Y589750D01*
X279050Y589000D02*X282050D01*
Y589750D02*Y589000D01*
X284600Y589750D02*Y587500D01*
Y589750D02*X285350Y590500D01*
X286850D01*
X283850D02*X284600Y589750D01*
X289400Y587500D02*X291650D01*
X292400Y588250D01*
X291650Y589000D02*X292400Y588250D01*
X289400Y589000D02*X291650D01*
X288650Y589750D02*X289400Y589000D01*
X288650Y589750D02*X289400Y590500D01*
X291650D01*
X292400Y589750D01*
X288650Y588250D02*X289400Y587500D01*
X294950D02*X297200D01*
X294200Y588250D02*X294950Y587500D01*
X294200Y589750D02*Y588250D01*
Y589750D02*X294950Y590500D01*
X296450D01*
X297200Y589750D01*
X294200Y589000D02*X297200D01*
Y589750D02*Y589000D01*
X299750Y589750D02*Y587500D01*
Y589750D02*X300500Y590500D01*
X301250D01*
X302000Y589750D01*
Y587500D01*
X299000Y590500D02*X299750Y589750D01*
X200000Y608500D02*X203000D01*
X201500D02*Y602500D01*
G54D57*X204800Y607000D02*Y606850D01*
G54D56*Y604750D02*Y602500D01*
X207050Y608500D02*Y603250D01*
X207800Y602500D01*
X206300Y606250D02*X207800D01*
X209300Y608500D02*Y603250D01*
X210050Y602500D01*
X212300D02*X214550D01*
X211550Y603250D02*X212300Y602500D01*
X211550Y604750D02*Y603250D01*
Y604750D02*X212300Y605500D01*
X213800D01*
X214550Y604750D01*
X211550Y604000D02*X214550D01*
Y604750D02*Y604000D01*
X216350Y606250D02*X217100D01*
X216350Y604750D02*X217100D01*
X221600Y603250D02*X222350Y602500D01*
X221600Y607750D02*X222350Y608500D01*
X221600Y607750D02*Y603250D01*
X224150Y605500D02*Y603250D01*
X224900Y602500D01*
X226400D01*
X227150Y603250D01*
Y605500D02*Y603250D01*
X229700Y604750D02*Y602500D01*
Y604750D02*X230450Y605500D01*
X231200D01*
X231950Y604750D01*
Y602500D01*
X228950Y605500D02*X229700Y604750D01*
X233750Y608500D02*Y602500D01*
Y604750D02*X236000Y602500D01*
X233750Y604750D02*X235250Y606250D01*
X238550Y604750D02*Y602500D01*
Y604750D02*X239300Y605500D01*
X240050D01*
X240800Y604750D01*
Y602500D01*
X237800Y605500D02*X238550Y604750D01*
X242600D02*Y603250D01*
Y604750D02*X243350Y605500D01*
X244850D01*
X245600Y604750D01*
Y603250D01*
X244850Y602500D02*X245600Y603250D01*
X243350Y602500D02*X244850D01*
X242600Y603250D02*X243350Y602500D01*
X247400Y605500D02*Y603250D01*
X248150Y602500D01*
X248900D01*
X249650Y603250D01*
Y605500D02*Y603250D01*
X250400Y602500D01*
X251150D01*
X251900Y603250D01*
Y605500D02*Y603250D01*
X254450Y604750D02*Y602500D01*
Y604750D02*X255200Y605500D01*
X255950D01*
X256700Y604750D01*
Y602500D01*
X253700Y605500D02*X254450Y604750D01*
X258500Y608500D02*X259250Y607750D01*
Y603250D01*
X258500Y602500D02*X259250Y603250D01*
X263750Y605500D02*X266750D01*
X271250Y608500D02*Y602500D01*
Y608500D02*X274250D01*
X271250Y605800D02*X273500D01*
X278300Y605500D02*X279050Y604750D01*
X276800Y605500D02*X278300D01*
X276050Y604750D02*X276800Y605500D01*
X276050Y604750D02*Y603250D01*
X276800Y602500D01*
X279050Y605500D02*Y603250D01*
X279800Y602500D01*
X276800D02*X278300D01*
X279050Y603250D01*
X281600Y608500D02*Y602500D01*
Y603250D02*X282350Y602500D01*
X283850D01*
X284600Y603250D01*
Y604750D02*Y603250D01*
X283850Y605500D02*X284600Y604750D01*
X282350Y605500D02*X283850D01*
X281600Y604750D02*X282350Y605500D01*
X287150Y604750D02*Y602500D01*
Y604750D02*X287900Y605500D01*
X289400D01*
X286400D02*X287150Y604750D01*
G54D57*X291200Y607000D02*Y606850D01*
G54D56*Y604750D02*Y602500D01*
X293450Y605500D02*X295700D01*
X292700Y604750D02*X293450Y605500D01*
X292700Y604750D02*Y603250D01*
X293450Y602500D01*
X295700D01*
X299750Y605500D02*X300500Y604750D01*
X298250Y605500D02*X299750D01*
X297500Y604750D02*X298250Y605500D01*
X297500Y604750D02*Y603250D01*
X298250Y602500D01*
X300500Y605500D02*Y603250D01*
X301250Y602500D01*
X298250D02*X299750D01*
X300500Y603250D01*
X303800Y608500D02*Y603250D01*
X304550Y602500D01*
X303050Y606250D02*X304550D01*
G54D57*X306050Y607000D02*Y606850D01*
G54D56*Y604750D02*Y602500D01*
X307550Y604750D02*Y603250D01*
Y604750D02*X308300Y605500D01*
X309800D01*
X310550Y604750D01*
Y603250D01*
X309800Y602500D02*X310550Y603250D01*
X308300Y602500D02*X309800D01*
X307550Y603250D02*X308300Y602500D01*
X313100Y604750D02*Y602500D01*
Y604750D02*X313850Y605500D01*
X314600D01*
X315350Y604750D01*
Y602500D01*
X312350Y605500D02*X313100Y604750D01*
X320600Y608500D02*Y602500D01*
X322550Y608500D02*X323600Y607450D01*
Y603550D01*
X322550Y602500D02*X323600Y603550D01*
X319850Y602500D02*X322550D01*
X319850Y608500D02*X322550D01*
X326150Y604750D02*Y602500D01*
Y604750D02*X326900Y605500D01*
X328400D01*
X325400D02*X326150Y604750D01*
X332450Y605500D02*X333200Y604750D01*
X330950Y605500D02*X332450D01*
X330200Y604750D02*X330950Y605500D01*
X330200Y604750D02*Y603250D01*
X330950Y602500D01*
X333200Y605500D02*Y603250D01*
X333950Y602500D01*
X330950D02*X332450D01*
X333200Y603250D01*
X335750Y605500D02*Y603250D01*
X336500Y602500D01*
X337250D01*
X338000Y603250D01*
Y605500D02*Y603250D01*
X338750Y602500D01*
X339500D01*
X340250Y603250D01*
Y605500D02*Y603250D01*
G54D57*X342050Y607000D02*Y606850D01*
G54D56*Y604750D02*Y602500D01*
X344300Y604750D02*Y602500D01*
Y604750D02*X345050Y605500D01*
X345800D01*
X346550Y604750D01*
Y602500D01*
X343550Y605500D02*X344300Y604750D01*
X350600Y605500D02*X351350Y604750D01*
X349100Y605500D02*X350600D01*
X348350Y604750D02*X349100Y605500D01*
X348350Y604750D02*Y603250D01*
X349100Y602500D01*
X350600D01*
X351350Y603250D01*
X348350Y601000D02*X349100Y600250D01*
X350600D01*
X351350Y601000D01*
Y605500D02*Y601000D01*
M02*
