G04 start of page 4 for group 2 idx 2 *
G04 Title: (unknown), outline *
G04 Creator: pcb 4.0.2 *
G04 CreationDate: Sun May 15 03:05:21 2022 UTC *
G04 For: railfan *
G04 Format: Gerber/RS-274X *
G04 PCB-Dimensions (mil): 3000.00 5500.00 *
G04 PCB-Coordinate-Origin: lower left *
%MOIN*%
%FSLAX25Y25*%
%LNOUTLINE*%
%ADD36C,0.0100*%
G54D36*X270000Y175000D02*X230000D01*
Y200000D02*X270000D01*
Y210000D02*X230000D01*
X270000Y200000D02*Y175000D01*
X230000Y235000D02*X270000D01*
Y210000D01*
Y270000D02*Y245000D01*
X230000D01*
X120000D02*X210000D01*
Y270000D02*X120000D01*
Y280000D02*X210000D01*
Y305000D02*X120000D01*
Y315000D02*X210000D01*
X230000Y270000D02*X270000D01*
Y280000D02*X230000D01*
Y305000D02*X270000D01*
Y315000D02*X230000D01*
X270000Y305000D02*Y280000D01*
X100000Y235000D02*X52500D01*
Y175000D02*Y200000D01*
Y210000D02*Y235000D01*
Y245000D02*X100000D01*
Y270000D02*X52500D01*
Y280000D02*X100000D01*
X52500Y245000D02*Y270000D01*
Y280000D02*Y305000D01*
X230000Y340000D02*X270000D01*
Y350000D02*X230000D01*
Y375000D02*X270000D01*
Y350000D01*
Y340000D02*Y315000D01*
Y445000D02*Y420000D01*
Y480000D02*Y455000D01*
Y520000D02*Y490000D01*
Y385000D02*X230000D01*
Y410000D02*X270000D01*
Y420000D02*X230000D01*
X270000Y410000D02*Y385000D01*
X230000Y445000D02*X270000D01*
Y455000D02*X230000D01*
Y480000D02*X270000D01*
Y490000D02*X230000D01*
X210000Y340000D02*X120000D01*
Y350000D02*X210000D01*
Y375000D02*X120000D01*
Y385000D02*X210000D01*
Y410000D02*X120000D01*
Y420000D02*X210000D01*
Y445000D02*X120000D01*
Y455000D02*X210000D01*
Y480000D02*X120000D01*
X52500Y455000D02*Y480000D01*
X120000Y490000D02*X210000D01*
X52500D02*Y520000D01*
X270000D01*
X100000Y305000D02*X52500D01*
Y315000D02*X100000D01*
Y340000D02*X52500D01*
Y350000D02*X100000D01*
X52500Y315000D02*Y340000D01*
Y350000D02*Y375000D01*
X100000D02*X52500D01*
Y385000D02*X100000D01*
X52500D02*Y410000D01*
X100000D02*X52500D01*
Y420000D02*X100000D01*
X52500D02*Y445000D01*
X100000D02*X52500D01*
Y455000D02*X100000D01*
Y480000D02*X52500D01*
X100000Y490000D02*X52500D01*
X270000Y140000D02*X230000D01*
Y165000D02*X270000D01*
Y140000D01*
X120000D02*X210000D01*
Y165000D02*X120000D01*
Y175000D02*X210000D01*
Y200000D02*X120000D01*
X210000Y235000D02*X120000D01*
X210000Y95000D02*X120000D01*
Y105000D02*X210000D01*
X100000Y95000D02*X52500D01*
Y105000D02*X100000D01*
X210000Y70000D02*X120000D01*
Y60000D02*X210000D01*
X100000D02*X52500D01*
X100000Y70000D02*X52500D01*
Y30000D02*X270000D01*
X52500Y70000D02*Y95000D01*
Y60000D02*Y30000D01*
X210000Y130000D02*X120000D01*
X100000D02*X52500D01*
Y140000D02*X100000D01*
Y165000D02*X52500D01*
Y175000D02*X100000D01*
X52500Y140000D02*Y165000D01*
X120000Y210000D02*X210000D01*
X52500D02*X100000D01*
Y200000D02*X52500D01*
Y105000D02*Y130000D01*
X230000Y95000D02*X270000D01*
Y105000D02*X230000D01*
X270000Y130000D02*Y105000D01*
X230000Y130000D02*X270000D01*
Y95000D02*Y70000D01*
X230000D02*X270000D01*
Y30000D02*Y60000D01*
X230000D01*
X215000Y275000D02*G75*G02X210000Y270000I-5000J0D01*G01*
X215000Y275000D02*G75*G03X210000Y280000I-5000J0D01*G01*
X225000Y310000D02*G75*G03X230000Y305000I5000J0D01*G01*
X225000Y310000D02*G75*G02X230000Y315000I5000J0D01*G01*
X215000Y310000D02*G75*G02X210000Y305000I-5000J0D01*G01*
X215000Y310000D02*G75*G03X210000Y315000I-5000J0D01*G01*
X225000Y275000D02*G75*G03X230000Y270000I5000J0D01*G01*
X225000Y275000D02*G75*G02X230000Y280000I5000J0D01*G01*
X225000Y345000D02*G75*G03X230000Y340000I5000J0D01*G01*
X115000Y240000D02*G75*G03X120000Y235000I5000J0D01*G01*
X115000Y240000D02*G75*G02X120000Y245000I5000J0D01*G01*
X115000Y275000D02*G75*G03X120000Y270000I5000J0D01*G01*
X115000Y275000D02*G75*G02X120000Y280000I5000J0D01*G01*
X105000Y275000D02*G75*G02X100000Y270000I-5000J0D01*G01*
X105000Y275000D02*G75*G03X100000Y280000I-5000J0D01*G01*
X105000Y310000D02*G75*G02X100000Y305000I-5000J0D01*G01*
X105000Y310000D02*G75*G03X100000Y315000I-5000J0D01*G01*
X115000Y310000D02*G75*G03X120000Y305000I5000J0D01*G01*
X115000Y310000D02*G75*G02X120000Y315000I5000J0D01*G01*
X115000Y345000D02*G75*G03X120000Y340000I5000J0D01*G01*
X225000Y345000D02*G75*G02X230000Y350000I5000J0D01*G01*
X225000Y380000D02*G75*G03X230000Y375000I5000J0D01*G01*
X225000Y380000D02*G75*G02X230000Y385000I5000J0D01*G01*
X215000Y345000D02*G75*G02X210000Y340000I-5000J0D01*G01*
X215000Y345000D02*G75*G03X210000Y350000I-5000J0D01*G01*
X215000Y380000D02*G75*G02X210000Y375000I-5000J0D01*G01*
X215000Y380000D02*G75*G03X210000Y385000I-5000J0D01*G01*
X215000Y415000D02*G75*G02X210000Y410000I-5000J0D01*G01*
X215000Y415000D02*G75*G03X210000Y420000I-5000J0D01*G01*
X225000Y415000D02*G75*G03X230000Y410000I5000J0D01*G01*
X225000Y415000D02*G75*G02X230000Y420000I5000J0D01*G01*
X225000Y450000D02*G75*G03X230000Y445000I5000J0D01*G01*
X225000Y450000D02*G75*G02X230000Y455000I5000J0D01*G01*
X215000Y450000D02*G75*G02X210000Y445000I-5000J0D01*G01*
X215000Y450000D02*G75*G03X210000Y455000I-5000J0D01*G01*
X225000Y485000D02*G75*G03X230000Y480000I5000J0D01*G01*
X225000Y485000D02*G75*G02X230000Y490000I5000J0D01*G01*
X215000Y485000D02*G75*G02X210000Y480000I-5000J0D01*G01*
X215000Y485000D02*G75*G03X210000Y490000I-5000J0D01*G01*
X115000Y345000D02*G75*G02X120000Y350000I5000J0D01*G01*
X115000Y380000D02*G75*G03X120000Y375000I5000J0D01*G01*
X115000Y380000D02*G75*G02X120000Y385000I5000J0D01*G01*
X105000Y345000D02*G75*G02X100000Y340000I-5000J0D01*G01*
X105000Y345000D02*G75*G03X100000Y350000I-5000J0D01*G01*
X105000Y380000D02*G75*G02X100000Y375000I-5000J0D01*G01*
X105000Y380000D02*G75*G03X100000Y385000I-5000J0D01*G01*
X105000Y415000D02*G75*G02X100000Y410000I-5000J0D01*G01*
X105000Y415000D02*G75*G03X100000Y420000I-5000J0D01*G01*
X115000Y415000D02*G75*G03X120000Y410000I5000J0D01*G01*
X115000Y415000D02*G75*G02X120000Y420000I5000J0D01*G01*
X115000Y450000D02*G75*G03X120000Y445000I5000J0D01*G01*
X115000Y450000D02*G75*G02X120000Y455000I5000J0D01*G01*
X105000Y450000D02*G75*G02X100000Y445000I-5000J0D01*G01*
X105000Y450000D02*G75*G03X100000Y455000I-5000J0D01*G01*
X115000Y485000D02*G75*G03X120000Y480000I5000J0D01*G01*
X115000Y485000D02*G75*G02X120000Y490000I5000J0D01*G01*
X105000Y485000D02*G75*G02X100000Y480000I-5000J0D01*G01*
X105000Y485000D02*G75*G03X100000Y490000I-5000J0D01*G01*
X225000Y100000D02*G75*G03X230000Y95000I5000J0D01*G01*
X225000Y100000D02*G75*G02X230000Y105000I5000J0D01*G01*
X215000Y100000D02*G75*G02X210000Y95000I-5000J0D01*G01*
X215000Y100000D02*G75*G03X210000Y105000I-5000J0D01*G01*
X225000Y135000D02*G75*G03X230000Y130000I5000J0D01*G01*
X225000Y135000D02*G75*G02X230000Y140000I5000J0D01*G01*
X215000Y135000D02*G75*G02X210000Y130000I-5000J0D01*G01*
X225000Y65000D02*G75*G02X230000Y70000I5000J0D01*G01*
X215000Y65000D02*G75*G03X210000Y70000I-5000J0D01*G01*
X215000Y65000D02*G75*G02X210000Y60000I-5000J0D01*G01*
X225000Y65000D02*G75*G03X230000Y60000I5000J0D01*G01*
X115000Y100000D02*G75*G03X120000Y95000I5000J0D01*G01*
X115000Y100000D02*G75*G02X120000Y105000I5000J0D01*G01*
X105000Y100000D02*G75*G02X100000Y95000I-5000J0D01*G01*
X105000Y100000D02*G75*G03X100000Y105000I-5000J0D01*G01*
X115000Y135000D02*G75*G03X120000Y130000I5000J0D01*G01*
X115000Y135000D02*G75*G02X120000Y140000I5000J0D01*G01*
X105000Y135000D02*G75*G02X100000Y130000I-5000J0D01*G01*
X105000Y135000D02*G75*G03X100000Y140000I-5000J0D01*G01*
X105000Y170000D02*G75*G02X100000Y165000I-5000J0D01*G01*
X115000Y65000D02*G75*G02X120000Y70000I5000J0D01*G01*
X115000Y65000D02*G75*G03X120000Y60000I5000J0D01*G01*
X105000Y65000D02*G75*G03X100000Y70000I-5000J0D01*G01*
X105000Y65000D02*G75*G02X100000Y60000I-5000J0D01*G01*
X215000Y135000D02*G75*G03X210000Y140000I-5000J0D01*G01*
X215000Y205000D02*G75*G02X210000Y200000I-5000J0D01*G01*
X215000Y205000D02*G75*G03X210000Y210000I-5000J0D01*G01*
X215000Y240000D02*G75*G02X210000Y235000I-5000J0D01*G01*
X215000Y240000D02*G75*G03X210000Y245000I-5000J0D01*G01*
X225000Y170000D02*G75*G03X230000Y165000I5000J0D01*G01*
X225000Y170000D02*G75*G02X230000Y175000I5000J0D01*G01*
X215000Y170000D02*G75*G02X210000Y165000I-5000J0D01*G01*
X215000Y170000D02*G75*G03X210000Y175000I-5000J0D01*G01*
X225000Y205000D02*G75*G03X230000Y200000I5000J0D01*G01*
X225000Y205000D02*G75*G02X230000Y210000I5000J0D01*G01*
X225000Y240000D02*G75*G03X230000Y235000I5000J0D01*G01*
X225000Y240000D02*G75*G02X230000Y245000I5000J0D01*G01*
X115000Y170000D02*G75*G03X120000Y165000I5000J0D01*G01*
X115000Y170000D02*G75*G02X120000Y175000I5000J0D01*G01*
X115000Y205000D02*G75*G03X120000Y200000I5000J0D01*G01*
X115000Y205000D02*G75*G02X120000Y210000I5000J0D01*G01*
X105000Y170000D02*G75*G03X100000Y175000I-5000J0D01*G01*
X105000Y205000D02*G75*G02X100000Y200000I-5000J0D01*G01*
X105000Y205000D02*G75*G03X100000Y210000I-5000J0D01*G01*
X105000Y240000D02*G75*G02X100000Y235000I-5000J0D01*G01*
X105000Y240000D02*G75*G03X100000Y245000I-5000J0D01*G01*
M02*
