G04 start of page 9 for group -4079 idx -4079 *
G04 Title: (unknown), topsilk *
G04 Creator: pcb 4.0.2 *
G04 CreationDate: Sun May 15 03:05:21 2022 UTC *
G04 For: railfan *
G04 Format: Gerber/RS-274X *
G04 PCB-Dimensions (mil): 3000.00 5500.00 *
G04 PCB-Coordinate-Origin: lower left *
%MOIN*%
%FSLAX25Y25*%
%LNTOPSILK*%
%ADD49C,0.0100*%
%ADD48C,0.0080*%
G54D48*X62500Y500000D02*X267500D01*
X243000Y473500D02*X246000D01*
X244500Y475000D02*Y472000D01*
X243000Y438500D02*X246000D01*
X244500Y440000D02*Y437000D01*
X243000Y403500D02*X246000D01*
X244500Y405000D02*Y402000D01*
X243000Y368500D02*X246000D01*
X244500Y370000D02*Y367000D01*
X243000Y333500D02*X246000D01*
X244500Y335000D02*Y332000D01*
X243000Y298500D02*X246000D01*
X244500Y300000D02*Y297000D01*
X55000Y50000D02*X267500D01*
X243000Y263500D02*X246000D01*
X244500Y265000D02*Y262000D01*
X243000Y228500D02*X246000D01*
X244500Y230000D02*Y227000D01*
X243000Y193500D02*X246000D01*
X244500Y195000D02*Y192000D01*
X243000Y158500D02*X246000D01*
X244500Y160000D02*Y157000D01*
X243000Y123500D02*X246000D01*
X244500Y125000D02*Y122000D01*
X243000Y88500D02*X246000D01*
X244500Y90000D02*Y87000D01*
G54D49*X85245Y467893D02*Y467107D01*
X90755Y467893D02*Y467107D01*
X75607Y464755D02*X76393D01*
X75607Y459245D02*X76393D01*
X75607Y475755D02*X76393D01*
X75607Y470245D02*X76393D01*
X54488Y459232D02*X65512D01*
X54488Y475768D02*Y459232D01*
Y475768D02*X65512D01*
Y459232D01*
X67512Y457732D02*G75*G03X67512Y457732I-500J0D01*G01*
X92500Y477000D02*Y458000D01*
X129500D01*
Y477000D01*
X92500D02*X108500D01*
X129500D02*X113500D01*
X108500D02*G75*G03X113500Y477000I2500J0D01*G01*
X166900Y473900D02*Y460000D01*
X155100Y473900D02*X166900D01*
X155100D02*Y460000D01*
X166900D01*
X189520Y476750D02*X200150D01*
X189520Y458250D02*X200150D01*
Y476750D02*Y473500D01*
Y461500D02*Y458250D01*
X189520Y476750D02*Y476571D01*
Y458429D02*Y458250D01*
X175107Y459245D02*X175893D01*
X175107Y464755D02*X175893D01*
X166900Y438900D02*Y425000D01*
X155100Y438900D02*X166900D01*
X155100D02*Y425000D01*
X166900D01*
X189520Y441750D02*X200150D01*
X189520Y423250D02*X200150D01*
Y441750D02*Y438500D01*
Y426500D02*Y423250D01*
X189520Y441750D02*Y441571D01*
Y423429D02*Y423250D01*
X175107Y424245D02*X175893D01*
X175107Y429755D02*X175893D01*
X166900Y403900D02*Y390000D01*
X155100Y403900D02*X166900D01*
X155100D02*Y390000D01*
X166900D01*
X189520Y406750D02*X200150D01*
X189520Y388250D02*X200150D01*
Y406750D02*Y403500D01*
Y391500D02*Y388250D01*
X189520Y406750D02*Y406571D01*
Y388429D02*Y388250D01*
X175107Y389245D02*X175893D01*
X175107Y394755D02*X175893D01*
X85245Y432893D02*Y432107D01*
X90755Y432893D02*Y432107D01*
X75607Y429755D02*X76393D01*
X75607Y424245D02*X76393D01*
X75607Y440755D02*X76393D01*
X75607Y435245D02*X76393D01*
X54488Y424232D02*X65512D01*
X54488Y440768D02*Y424232D01*
Y440768D02*X65512D01*
Y424232D01*
X67512Y422732D02*G75*G03X67512Y422732I-500J0D01*G01*
X85245Y397893D02*Y397107D01*
X90755Y397893D02*Y397107D01*
X92500Y407000D02*Y388000D01*
X129500D01*
Y407000D01*
X92500D02*X108500D01*
X129500D02*X113500D01*
X108500D02*G75*G03X113500Y407000I2500J0D01*G01*
X92500Y442000D02*Y423000D01*
X129500D01*
Y442000D01*
X92500D02*X108500D01*
X129500D02*X113500D01*
X108500D02*G75*G03X113500Y442000I2500J0D01*G01*
X209000Y73200D02*X230000D01*
X209000Y82800D02*X230000D01*
X209000Y73200D02*Y82800D01*
X230000Y73200D02*Y82800D01*
X217000Y73200D02*Y82800D01*
X189520Y91750D02*X200150D01*
X189520Y73250D02*X200150D01*
Y91750D02*Y88500D01*
Y76500D02*Y73250D01*
X189520Y91750D02*Y91571D01*
Y73429D02*Y73250D01*
X215607Y91255D02*X216393D01*
X215607Y85745D02*X216393D01*
X235607Y91255D02*X236393D01*
X235607Y85745D02*X236393D01*
X85245Y82893D02*Y82107D01*
X90755Y82893D02*Y82107D01*
X75607Y79755D02*X76393D01*
X75607Y74245D02*X76393D01*
X75607Y90755D02*X76393D01*
X75607Y85245D02*X76393D01*
X166900Y88900D02*Y75000D01*
X155100Y88900D02*X166900D01*
X155100D02*Y75000D01*
X166900D01*
X175107Y74245D02*X175893D01*
X175107Y79755D02*X175893D01*
X92500Y92000D02*Y73000D01*
X129500D01*
Y92000D01*
X92500D02*X108500D01*
X129500D02*X113500D01*
X108500D02*G75*G03X113500Y92000I2500J0D01*G01*
X54488Y74232D02*X65512D01*
X54488Y90768D02*Y74232D01*
Y90768D02*X65512D01*
Y74232D01*
X67512Y72732D02*G75*G03X67512Y72732I-500J0D01*G01*
X209000Y458200D02*X230000D01*
X209000Y467800D02*X230000D01*
X209000Y458200D02*Y467800D01*
X230000Y458200D02*Y467800D01*
X217000Y458200D02*Y467800D01*
X215607Y476255D02*X216393D01*
X215607Y470745D02*X216393D01*
X235607Y476255D02*X236393D01*
X235607Y470745D02*X236393D01*
X209000Y423200D02*X230000D01*
X209000Y432800D02*X230000D01*
X209000Y423200D02*Y432800D01*
X230000Y423200D02*Y432800D01*
X217000Y423200D02*Y432800D01*
X215607Y441255D02*X216393D01*
X215607Y435745D02*X216393D01*
X235607Y441255D02*X236393D01*
X235607Y435745D02*X236393D01*
X209000Y388200D02*X230000D01*
X209000Y397800D02*X230000D01*
X209000Y388200D02*Y397800D01*
X230000Y388200D02*Y397800D01*
X217000Y388200D02*Y397800D01*
X215607Y406255D02*X216393D01*
X215607Y400745D02*X216393D01*
X235607Y406255D02*X236393D01*
X235607Y400745D02*X236393D01*
X75607Y394755D02*X76393D01*
X75607Y389245D02*X76393D01*
X75607Y405755D02*X76393D01*
X75607Y400245D02*X76393D01*
X54488Y389232D02*X65512D01*
X54488Y405768D02*Y389232D01*
Y405768D02*X65512D01*
Y389232D01*
X67512Y387732D02*G75*G03X67512Y387732I-500J0D01*G01*
X75607Y359755D02*X76393D01*
X75607Y354245D02*X76393D01*
X92500Y372000D02*Y353000D01*
X129500D01*
Y372000D01*
X92500D02*X108500D01*
X129500D02*X113500D01*
X108500D02*G75*G03X113500Y372000I2500J0D01*G01*
X85245Y362893D02*Y362107D01*
X90755Y362893D02*Y362107D01*
X75607Y370755D02*X76393D01*
X75607Y365245D02*X76393D01*
X54488Y354232D02*X65512D01*
X54488Y370768D02*Y354232D01*
Y370768D02*X65512D01*
Y354232D01*
X67512Y352732D02*G75*G03X67512Y352732I-500J0D01*G01*
X85245Y327893D02*Y327107D01*
X90755Y327893D02*Y327107D01*
X75607Y335755D02*X76393D01*
X75607Y330245D02*X76393D01*
X54488Y319232D02*X65512D01*
X54488Y335768D02*Y319232D01*
Y335768D02*X65512D01*
Y319232D01*
X67512Y317732D02*G75*G03X67512Y317732I-500J0D01*G01*
X75607Y324755D02*X76393D01*
X75607Y319245D02*X76393D01*
X75607Y300755D02*X76393D01*
X75607Y295245D02*X76393D01*
X85245Y292893D02*Y292107D01*
X90755Y292893D02*Y292107D01*
X92500Y302000D02*Y283000D01*
X129500D01*
Y302000D01*
X92500D02*X108500D01*
X129500D02*X113500D01*
X108500D02*G75*G03X113500Y302000I2500J0D01*G01*
X92500Y337000D02*Y318000D01*
X129500D01*
Y337000D01*
X92500D02*X108500D01*
X129500D02*X113500D01*
X108500D02*G75*G03X113500Y337000I2500J0D01*G01*
X85245Y257893D02*Y257107D01*
X90755Y257893D02*Y257107D01*
X92500Y267000D02*Y248000D01*
X129500D01*
Y267000D01*
X92500D02*X108500D01*
X129500D02*X113500D01*
X108500D02*G75*G03X113500Y267000I2500J0D01*G01*
X75607Y289755D02*X76393D01*
X75607Y284245D02*X76393D01*
X54488Y284232D02*X65512D01*
X54488Y300768D02*Y284232D01*
Y300768D02*X65512D01*
Y284232D01*
X67512Y282732D02*G75*G03X67512Y282732I-500J0D01*G01*
X75607Y254755D02*X76393D01*
X75607Y249245D02*X76393D01*
X75607Y265755D02*X76393D01*
X75607Y260245D02*X76393D01*
X54488Y249232D02*X65512D01*
X54488Y265768D02*Y249232D01*
Y265768D02*X65512D01*
Y249232D01*
X67512Y247732D02*G75*G03X67512Y247732I-500J0D01*G01*
X166900Y368900D02*Y355000D01*
X155100Y368900D02*X166900D01*
X155100D02*Y355000D01*
X166900D01*
X189520Y371750D02*X200150D01*
X189520Y353250D02*X200150D01*
Y371750D02*Y368500D01*
Y356500D02*Y353250D01*
X189520Y371750D02*Y371571D01*
Y353429D02*Y353250D01*
X175107Y354245D02*X175893D01*
X175107Y359755D02*X175893D01*
X166900Y333900D02*Y320000D01*
X155100Y333900D02*X166900D01*
X155100D02*Y320000D01*
X166900D01*
X175107Y319245D02*X175893D01*
X175107Y324755D02*X175893D01*
X166900Y298900D02*Y285000D01*
X155100Y298900D02*X166900D01*
X155100D02*Y285000D01*
X166900D01*
X175107Y284245D02*X175893D01*
X175107Y289755D02*X175893D01*
X166900Y263900D02*Y250000D01*
X155100Y263900D02*X166900D01*
X155100D02*Y250000D01*
X166900D01*
X175107Y249245D02*X175893D01*
X175107Y254755D02*X175893D01*
X209000Y353200D02*X230000D01*
X209000Y362800D02*X230000D01*
X209000Y353200D02*Y362800D01*
X230000Y353200D02*Y362800D01*
X217000Y353200D02*Y362800D01*
X215607Y371255D02*X216393D01*
X215607Y365745D02*X216393D01*
X235607Y371255D02*X236393D01*
X235607Y365745D02*X236393D01*
X209000Y318200D02*X230000D01*
X209000Y327800D02*X230000D01*
X209000Y318200D02*Y327800D01*
X230000Y318200D02*Y327800D01*
X217000Y318200D02*Y327800D01*
X189520Y336750D02*X200150D01*
X189520Y318250D02*X200150D01*
Y336750D02*Y333500D01*
Y321500D02*Y318250D01*
X189520Y336750D02*Y336571D01*
Y318429D02*Y318250D01*
X215607Y336255D02*X216393D01*
X215607Y330745D02*X216393D01*
X235607Y336255D02*X236393D01*
X235607Y330745D02*X236393D01*
X209000Y283200D02*X230000D01*
X209000Y292800D02*X230000D01*
X209000Y283200D02*Y292800D01*
X230000Y283200D02*Y292800D01*
X217000Y283200D02*Y292800D01*
X189520Y301750D02*X200150D01*
X189520Y283250D02*X200150D01*
Y301750D02*Y298500D01*
Y286500D02*Y283250D01*
X189520Y301750D02*Y301571D01*
Y283429D02*Y283250D01*
X215607Y301255D02*X216393D01*
X215607Y295745D02*X216393D01*
X235607Y301255D02*X236393D01*
X235607Y295745D02*X236393D01*
X209000Y248200D02*X230000D01*
X209000Y257800D02*X230000D01*
X209000Y248200D02*Y257800D01*
X230000Y248200D02*Y257800D01*
X217000Y248200D02*Y257800D01*
X189520Y266750D02*X200150D01*
X189520Y248250D02*X200150D01*
Y266750D02*Y263500D01*
Y251500D02*Y248250D01*
X189520Y266750D02*Y266571D01*
Y248429D02*Y248250D01*
X215607Y266255D02*X216393D01*
X215607Y260745D02*X216393D01*
X235607Y266255D02*X236393D01*
X235607Y260745D02*X236393D01*
X209000Y213200D02*X230000D01*
X209000Y222800D02*X230000D01*
X209000Y213200D02*Y222800D01*
X230000Y213200D02*Y222800D01*
X217000Y213200D02*Y222800D01*
X189520Y231750D02*X200150D01*
X189520Y213250D02*X200150D01*
Y231750D02*Y228500D01*
Y216500D02*Y213250D01*
X189520Y231750D02*Y231571D01*
Y213429D02*Y213250D01*
X215607Y231255D02*X216393D01*
X215607Y225745D02*X216393D01*
X235607Y231255D02*X236393D01*
X235607Y225745D02*X236393D01*
X209000Y178200D02*X230000D01*
X209000Y187800D02*X230000D01*
X209000Y178200D02*Y187800D01*
X230000Y178200D02*Y187800D01*
X217000Y178200D02*Y187800D01*
X189520Y196750D02*X200150D01*
X189520Y178250D02*X200150D01*
Y196750D02*Y193500D01*
Y181500D02*Y178250D01*
X189520Y196750D02*Y196571D01*
Y178429D02*Y178250D01*
X215607Y196255D02*X216393D01*
X215607Y190745D02*X216393D01*
X235607Y196255D02*X236393D01*
X235607Y190745D02*X236393D01*
X209000Y143200D02*X230000D01*
X209000Y152800D02*X230000D01*
X209000Y143200D02*Y152800D01*
X230000Y143200D02*Y152800D01*
X217000Y143200D02*Y152800D01*
X189520Y161750D02*X200150D01*
X189520Y143250D02*X200150D01*
Y161750D02*Y158500D01*
Y146500D02*Y143250D01*
X189520Y161750D02*Y161571D01*
Y143429D02*Y143250D01*
X215607Y161255D02*X216393D01*
X215607Y155745D02*X216393D01*
X209000Y108200D02*X230000D01*
X209000Y117800D02*X230000D01*
X209000Y108200D02*Y117800D01*
X230000Y108200D02*Y117800D01*
X217000Y108200D02*Y117800D01*
X189520Y126750D02*X200150D01*
X189520Y108250D02*X200150D01*
Y126750D02*Y123500D01*
Y111500D02*Y108250D01*
X189520Y126750D02*Y126571D01*
Y108429D02*Y108250D01*
X215607Y126255D02*X216393D01*
X215607Y120745D02*X216393D01*
X235607Y161255D02*X236393D01*
X235607Y155745D02*X236393D01*
X235607Y126255D02*X236393D01*
X235607Y120745D02*X236393D01*
X85245Y222893D02*Y222107D01*
X90755Y222893D02*Y222107D01*
X166900Y228900D02*Y215000D01*
X155100Y228900D02*X166900D01*
X155100D02*Y215000D01*
X166900D01*
X175107Y214245D02*X175893D01*
X175107Y219755D02*X175893D01*
X92500Y232000D02*Y213000D01*
X129500D01*
Y232000D01*
X92500D02*X108500D01*
X129500D02*X113500D01*
X108500D02*G75*G03X113500Y232000I2500J0D01*G01*
X166900Y193900D02*Y180000D01*
X155100Y193900D02*X166900D01*
X155100D02*Y180000D01*
X166900D01*
X175107Y179245D02*X175893D01*
X175107Y184755D02*X175893D01*
X92500Y197000D02*Y178000D01*
X129500D01*
Y197000D01*
X92500D02*X108500D01*
X129500D02*X113500D01*
X108500D02*G75*G03X113500Y197000I2500J0D01*G01*
X75607Y219755D02*X76393D01*
X75607Y214245D02*X76393D01*
X75607Y230755D02*X76393D01*
X75607Y225245D02*X76393D01*
X75607Y195755D02*X76393D01*
X75607Y190245D02*X76393D01*
X54488Y214232D02*X65512D01*
X54488Y230768D02*Y214232D01*
Y230768D02*X65512D01*
Y214232D01*
X67512Y212732D02*G75*G03X67512Y212732I-500J0D01*G01*
X85245Y187893D02*Y187107D01*
X90755Y187893D02*Y187107D01*
X75607Y184755D02*X76393D01*
X75607Y179245D02*X76393D01*
X54488Y179232D02*X65512D01*
X54488Y195768D02*Y179232D01*
Y195768D02*X65512D01*
Y179232D01*
X67512Y177732D02*G75*G03X67512Y177732I-500J0D01*G01*
X85245Y152893D02*Y152107D01*
X90755Y152893D02*Y152107D01*
X75607Y149755D02*X76393D01*
X75607Y144245D02*X76393D01*
X75607Y160755D02*X76393D01*
X75607Y155245D02*X76393D01*
X54488Y144232D02*X65512D01*
X54488Y160768D02*Y144232D01*
Y160768D02*X65512D01*
Y144232D01*
X67512Y142732D02*G75*G03X67512Y142732I-500J0D01*G01*
X85245Y117893D02*Y117107D01*
X90755Y117893D02*Y117107D01*
X75607Y114755D02*X76393D01*
X75607Y109245D02*X76393D01*
X75607Y125755D02*X76393D01*
X75607Y120245D02*X76393D01*
X54488Y109232D02*X65512D01*
X54488Y125768D02*Y109232D01*
Y125768D02*X65512D01*
Y109232D01*
X67512Y107732D02*G75*G03X67512Y107732I-500J0D01*G01*
X166900Y158900D02*Y145000D01*
X155100Y158900D02*X166900D01*
X155100D02*Y145000D01*
X166900D01*
X175107Y144245D02*X175893D01*
X175107Y149755D02*X175893D01*
X92500Y162000D02*Y143000D01*
X129500D01*
Y162000D01*
X92500D02*X108500D01*
X129500D02*X113500D01*
X108500D02*G75*G03X113500Y162000I2500J0D01*G01*
X166900Y123900D02*Y110000D01*
X155100Y123900D02*X166900D01*
X155100D02*Y110000D01*
X166900D01*
X175107Y109245D02*X175893D01*
X175107Y114755D02*X175893D01*
X92500Y127000D02*Y108000D01*
X129500D01*
Y127000D01*
X92500D02*X108500D01*
X129500D02*X113500D01*
X108500D02*G75*G03X113500Y127000I2500J0D01*G01*
G54D48*X78900Y469100D02*X80500D01*
X80900Y468700D01*
Y467900D01*
X80500Y467500D02*X80900Y467900D01*
X79300Y467500D02*X80500D01*
X79300Y469100D02*Y465900D01*
X79940Y467500D02*X80900Y465900D01*
X81860Y468700D02*X82260Y469100D01*
X83460D01*
X83860Y468700D01*
Y467900D01*
X81860Y465900D02*X83860Y467900D01*
X81860Y465900D02*X83860D01*
X84060Y457000D02*X85100D01*
X83500Y457560D02*X84060Y457000D01*
X83500Y459640D02*Y457560D01*
Y459640D02*X84060Y460200D01*
X85100D01*
X86060Y459800D02*X86460Y460200D01*
X87260D01*
X87660Y459800D01*
X87260Y457000D02*X87660Y457400D01*
X86460Y457000D02*X87260D01*
X86060Y457400D02*X86460Y457000D01*
Y458760D02*X87260D01*
X87660Y459800D02*Y459160D01*
Y458360D02*Y457400D01*
Y458360D02*X87260Y458760D01*
X87660Y459160D02*X87260Y458760D01*
X84060Y474500D02*X85100D01*
X83500Y475060D02*X84060Y474500D01*
X83500Y477140D02*Y475060D01*
Y477140D02*X84060Y477700D01*
X85100D01*
X86060Y477300D02*X86460Y477700D01*
X87660D01*
X88060Y477300D01*
Y476500D01*
X86060Y474500D02*X88060Y476500D01*
X86060Y474500D02*X88060D01*
X149500Y460300D02*Y457500D01*
X149900Y457100D01*
X150700D01*
X151100Y457500D01*
Y460300D02*Y457500D01*
X152060Y458300D02*X153660Y460300D01*
X152060Y458300D02*X154060D01*
X153660Y460300D02*Y457100D01*
X131500Y460230D02*Y457535D01*
X131885Y457150D01*
X132655D01*
X133040Y457535D01*
Y460230D02*Y457535D01*
X133964Y459845D02*X134349Y460230D01*
X135504D01*
X135889Y459845D01*
Y459075D01*
X133964Y457150D02*X135889Y459075D01*
X133964Y457150D02*X135889D01*
X258500Y466500D02*Y465700D01*
Y466500D02*X262000D01*
X262500Y466000D02*X262000Y466500D01*
X262500Y466000D02*Y465500D01*
X262000Y465000D02*X262500Y465500D01*
X261500Y465000D02*X262000D01*
X259000Y467700D02*X258500Y468200D01*
Y469700D02*Y468200D01*
Y469700D02*X259000Y470200D01*
X260000D01*
X262500Y467700D02*X260000Y470200D01*
X262500D02*Y467700D01*
X258500Y396500D02*Y395700D01*
Y396500D02*X262000D01*
X262500Y396000D02*X262000Y396500D01*
X262500Y396000D02*Y395500D01*
X262000Y395000D02*X262500Y395500D01*
X261500Y395000D02*X262000D01*
X259000Y397700D02*X258500Y398200D01*
Y399700D02*Y398200D01*
Y399700D02*X259000Y400200D01*
X260000D01*
X262500Y397700D02*X260000Y400200D01*
X262500D02*Y397700D01*
X231900Y462200D02*Y459000D01*
X232940Y462200D02*X233500Y461640D01*
Y459560D01*
X232940Y459000D02*X233500Y459560D01*
X231500Y459000D02*X232940D01*
X231500Y462200D02*X232940D01*
X234460Y461560D02*X235100Y462200D01*
Y459000D01*
X234460D02*X235660D01*
X223436Y474850D02*X225036D01*
X225436Y474450D01*
Y473650D01*
X225036Y473250D02*X225436Y473650D01*
X223836Y473250D02*X225036D01*
X223836Y474850D02*Y471650D01*
X224476Y473250D02*X225436Y471650D01*
X226396Y474210D02*X227036Y474850D01*
Y471650D01*
X226396D02*X227596D01*
X232750Y469350D02*Y466150D01*
X233790Y469350D02*X234350Y468790D01*
Y466710D01*
X233790Y466150D02*X234350Y466710D01*
X232350Y466150D02*X233790D01*
X232350Y469350D02*X233790D01*
X235310Y468950D02*X235710Y469350D01*
X236910D01*
X237310Y468950D01*
Y468150D01*
X235310Y466150D02*X237310Y468150D01*
X235310Y466150D02*X237310D01*
X231900Y427200D02*Y424000D01*
X232940Y427200D02*X233500Y426640D01*
Y424560D01*
X232940Y424000D02*X233500Y424560D01*
X231500Y424000D02*X232940D01*
X231500Y427200D02*X232940D01*
X234460Y426560D02*X235100Y427200D01*
Y424000D01*
X234460D02*X235660D01*
X223436Y439850D02*X225036D01*
X225436Y439450D01*
Y438650D01*
X225036Y438250D02*X225436Y438650D01*
X223836Y438250D02*X225036D01*
X223836Y439850D02*Y436650D01*
X224476Y438250D02*X225436Y436650D01*
X226396Y439210D02*X227036Y439850D01*
Y436650D01*
X226396D02*X227596D01*
X232750Y434350D02*Y431150D01*
X233790Y434350D02*X234350Y433790D01*
Y431710D01*
X233790Y431150D02*X234350Y431710D01*
X232350Y431150D02*X233790D01*
X232350Y434350D02*X233790D01*
X235310Y433950D02*X235710Y434350D01*
X236910D01*
X237310Y433950D01*
Y433150D01*
X235310Y431150D02*X237310Y433150D01*
X235310Y431150D02*X237310D01*
X202000Y477200D02*Y474400D01*
X202400Y474000D01*
X203200D01*
X203600Y474400D01*
Y477200D02*Y474400D01*
X204560Y476560D02*X205200Y477200D01*
Y474000D01*
X204560D02*X205760D01*
X174497Y470906D02*X175537D01*
X173937Y471466D02*X174497Y470906D01*
X173937Y473546D02*Y471466D01*
Y473546D02*X174497Y474106D01*
X175537D01*
X176497Y473466D02*X177137Y474106D01*
Y470906D01*
X176497D02*X177697D01*
X258500Y431500D02*Y430700D01*
Y431500D02*X262000D01*
X262500Y431000D02*X262000Y431500D01*
X262500Y431000D02*Y430500D01*
X262000Y430000D02*X262500Y430500D01*
X261500Y430000D02*X262000D01*
X259000Y432700D02*X258500Y433200D01*
Y434700D02*Y433200D01*
Y434700D02*X259000Y435200D01*
X260000D01*
X262500Y432700D02*X260000Y435200D01*
X262500D02*Y432700D01*
X202000Y442200D02*Y439400D01*
X202400Y439000D01*
X203200D01*
X203600Y439400D01*
Y442200D02*Y439400D01*
X204560Y441560D02*X205200Y442200D01*
Y439000D01*
X204560D02*X205760D01*
X174497Y435906D02*X175537D01*
X173937Y436466D02*X174497Y435906D01*
X173937Y438546D02*Y436466D01*
Y438546D02*X174497Y439106D01*
X175537D01*
X176497Y438466D02*X177137Y439106D01*
Y435906D01*
X176497D02*X177697D01*
X149500Y425300D02*Y422500D01*
X149900Y422100D01*
X150700D01*
X151100Y422500D01*
Y425300D02*Y422500D01*
X152060Y423300D02*X153660Y425300D01*
X152060Y423300D02*X154060D01*
X153660Y425300D02*Y422100D01*
X174497Y400906D02*X175537D01*
X173937Y401466D02*X174497Y400906D01*
X173937Y403546D02*Y401466D01*
Y403546D02*X174497Y404106D01*
X175537D01*
X176497Y403466D02*X177137Y404106D01*
Y400906D01*
X176497D02*X177697D01*
X231900Y392200D02*Y389000D01*
X232940Y392200D02*X233500Y391640D01*
Y389560D01*
X232940Y389000D02*X233500Y389560D01*
X231500Y389000D02*X232940D01*
X231500Y392200D02*X232940D01*
X234460Y391560D02*X235100Y392200D01*
Y389000D01*
X234460D02*X235660D01*
X202000Y407200D02*Y404400D01*
X202400Y404000D01*
X203200D01*
X203600Y404400D01*
Y407200D02*Y404400D01*
X204560Y406560D02*X205200Y407200D01*
Y404000D01*
X204560D02*X205760D01*
X223436Y404850D02*X225036D01*
X225436Y404450D01*
Y403650D01*
X225036Y403250D02*X225436Y403650D01*
X223836Y403250D02*X225036D01*
X223836Y404850D02*Y401650D01*
X224476Y403250D02*X225436Y401650D01*
X226396Y404210D02*X227036Y404850D01*
Y401650D01*
X226396D02*X227596D01*
X232750Y399350D02*Y396150D01*
X233790Y399350D02*X234350Y398790D01*
Y396710D01*
X233790Y396150D02*X234350Y396710D01*
X232350Y396150D02*X233790D01*
X232350Y399350D02*X233790D01*
X235310Y398950D02*X235710Y399350D01*
X236910D01*
X237310Y398950D01*
Y398150D01*
X235310Y396150D02*X237310Y398150D01*
X235310Y396150D02*X237310D01*
X202000Y372200D02*Y369400D01*
X202400Y369000D01*
X203200D01*
X203600Y369400D01*
Y372200D02*Y369400D01*
X204560Y371560D02*X205200Y372200D01*
Y369000D01*
X204560D02*X205760D01*
X174497Y365906D02*X175537D01*
X173937Y366466D02*X174497Y365906D01*
X173937Y368546D02*Y366466D01*
Y368546D02*X174497Y369106D01*
X175537D01*
X176497Y368466D02*X177137Y369106D01*
Y365906D01*
X176497D02*X177697D01*
X78900Y434100D02*X80500D01*
X80900Y433700D01*
Y432900D01*
X80500Y432500D02*X80900Y432900D01*
X79300Y432500D02*X80500D01*
X79300Y434100D02*Y430900D01*
X79940Y432500D02*X80900Y430900D01*
X81860Y433700D02*X82260Y434100D01*
X83460D01*
X83860Y433700D01*
Y432900D01*
X81860Y430900D02*X83860Y432900D01*
X81860Y430900D02*X83860D01*
X84060Y422000D02*X85100D01*
X83500Y422560D02*X84060Y422000D01*
X83500Y424640D02*Y422560D01*
Y424640D02*X84060Y425200D01*
X85100D01*
X86060Y424800D02*X86460Y425200D01*
X87260D01*
X87660Y424800D01*
X87260Y422000D02*X87660Y422400D01*
X86460Y422000D02*X87260D01*
X86060Y422400D02*X86460Y422000D01*
Y423760D02*X87260D01*
X87660Y424800D02*Y424160D01*
Y423360D02*Y422400D01*
Y423360D02*X87260Y423760D01*
X87660Y424160D02*X87260Y423760D01*
X131500Y425230D02*Y422535D01*
X131885Y422150D01*
X132655D01*
X133040Y422535D01*
Y425230D02*Y422535D01*
X133964Y424845D02*X134349Y425230D01*
X135504D01*
X135889Y424845D01*
Y424075D01*
X133964Y422150D02*X135889Y424075D01*
X133964Y422150D02*X135889D01*
X149500Y390300D02*Y387500D01*
X149900Y387100D01*
X150700D01*
X151100Y387500D01*
Y390300D02*Y387500D01*
X152060Y388300D02*X153660Y390300D01*
X152060Y388300D02*X154060D01*
X153660Y390300D02*Y387100D01*
X131500Y390230D02*Y387535D01*
X131885Y387150D01*
X132655D01*
X133040Y387535D01*
Y390230D02*Y387535D01*
X133964Y389845D02*X134349Y390230D01*
X135504D01*
X135889Y389845D01*
Y389075D01*
X133964Y387150D02*X135889Y389075D01*
X133964Y387150D02*X135889D01*
X84060Y439500D02*X85100D01*
X83500Y440060D02*X84060Y439500D01*
X83500Y442140D02*Y440060D01*
Y442140D02*X84060Y442700D01*
X85100D01*
X86060Y442300D02*X86460Y442700D01*
X87660D01*
X88060Y442300D01*
Y441500D01*
X86060Y439500D02*X88060Y441500D01*
X86060Y439500D02*X88060D01*
X84060Y404500D02*X85100D01*
X83500Y405060D02*X84060Y404500D01*
X83500Y407140D02*Y405060D01*
Y407140D02*X84060Y407700D01*
X85100D01*
X86060Y407300D02*X86460Y407700D01*
X87660D01*
X88060Y407300D01*
Y406500D01*
X86060Y404500D02*X88060Y406500D01*
X86060Y404500D02*X88060D01*
X78900Y399100D02*X80500D01*
X80900Y398700D01*
Y397900D01*
X80500Y397500D02*X80900Y397900D01*
X79300Y397500D02*X80500D01*
X79300Y399100D02*Y395900D01*
X79940Y397500D02*X80900Y395900D01*
X81860Y398700D02*X82260Y399100D01*
X83460D01*
X83860Y398700D01*
Y397900D01*
X81860Y395900D02*X83860Y397900D01*
X81860Y395900D02*X83860D01*
X84060Y387000D02*X85100D01*
X83500Y387560D02*X84060Y387000D01*
X83500Y389640D02*Y387560D01*
Y389640D02*X84060Y390200D01*
X85100D01*
X86060Y389800D02*X86460Y390200D01*
X87260D01*
X87660Y389800D01*
X87260Y387000D02*X87660Y387400D01*
X86460Y387000D02*X87260D01*
X86060Y387400D02*X86460Y387000D01*
Y388760D02*X87260D01*
X87660Y389800D02*Y389160D01*
Y388360D02*Y387400D01*
Y388360D02*X87260Y388760D01*
X87660Y389160D02*X87260Y388760D01*
X84060Y369500D02*X85100D01*
X83500Y370060D02*X84060Y369500D01*
X83500Y372140D02*Y370060D01*
Y372140D02*X84060Y372700D01*
X85100D01*
X86060Y372300D02*X86460Y372700D01*
X87660D01*
X88060Y372300D01*
Y371500D01*
X86060Y369500D02*X88060Y371500D01*
X86060Y369500D02*X88060D01*
X231900Y77200D02*Y74000D01*
X232940Y77200D02*X233500Y76640D01*
Y74560D01*
X232940Y74000D02*X233500Y74560D01*
X231500Y74000D02*X232940D01*
X231500Y77200D02*X232940D01*
X234460Y76560D02*X235100Y77200D01*
Y74000D01*
X234460D02*X235660D01*
X232750Y84350D02*Y81150D01*
X233790Y84350D02*X234350Y83790D01*
Y81710D01*
X233790Y81150D02*X234350Y81710D01*
X232350Y81150D02*X233790D01*
X232350Y84350D02*X233790D01*
X235310Y83950D02*X235710Y84350D01*
X236910D01*
X237310Y83950D01*
Y83150D01*
X235310Y81150D02*X237310Y83150D01*
X235310Y81150D02*X237310D01*
X258500Y81500D02*Y80700D01*
Y81500D02*X262000D01*
X262500Y81000D02*X262000Y81500D01*
X262500Y81000D02*Y80500D01*
X262000Y80000D02*X262500Y80500D01*
X261500Y80000D02*X262000D01*
X259000Y82700D02*X258500Y83200D01*
Y84700D02*Y83200D01*
Y84700D02*X259000Y85200D01*
X260000D01*
X262500Y82700D02*X260000Y85200D01*
X262500D02*Y82700D01*
X149500Y75300D02*Y72500D01*
X149900Y72100D01*
X150700D01*
X151100Y72500D01*
Y75300D02*Y72500D01*
X152060Y73300D02*X153660Y75300D01*
X152060Y73300D02*X154060D01*
X153660Y75300D02*Y72100D01*
X131500Y75230D02*Y72535D01*
X131885Y72150D01*
X132655D01*
X133040Y72535D01*
Y75230D02*Y72535D01*
X133964Y74845D02*X134349Y75230D01*
X135504D01*
X135889Y74845D01*
Y74075D01*
X133964Y72150D02*X135889Y74075D01*
X133964Y72150D02*X135889D01*
X202000Y92200D02*Y89400D01*
X202400Y89000D01*
X203200D01*
X203600Y89400D01*
Y92200D02*Y89400D01*
X204560Y91560D02*X205200Y92200D01*
Y89000D01*
X204560D02*X205760D01*
X174497Y85906D02*X175537D01*
X173937Y86466D02*X174497Y85906D01*
X173937Y88546D02*Y86466D01*
Y88546D02*X174497Y89106D01*
X175537D01*
X176497Y88466D02*X177137Y89106D01*
Y85906D01*
X176497D02*X177697D01*
X223436Y89850D02*X225036D01*
X225436Y89450D01*
Y88650D01*
X225036Y88250D02*X225436Y88650D01*
X223836Y88250D02*X225036D01*
X223836Y89850D02*Y86650D01*
X224476Y88250D02*X225436Y86650D01*
X226396Y89210D02*X227036Y89850D01*
Y86650D01*
X226396D02*X227596D01*
X149500Y355300D02*Y352500D01*
X149900Y352100D01*
X150700D01*
X151100Y352500D01*
Y355300D02*Y352500D01*
X152060Y353300D02*X153660Y355300D01*
X152060Y353300D02*X154060D01*
X153660Y355300D02*Y352100D01*
X131500Y355230D02*Y352535D01*
X131885Y352150D01*
X132655D01*
X133040Y352535D01*
Y355230D02*Y352535D01*
X133964Y354845D02*X134349Y355230D01*
X135504D01*
X135889Y354845D01*
Y354075D01*
X133964Y352150D02*X135889Y354075D01*
X133964Y352150D02*X135889D01*
X149500Y320300D02*Y317500D01*
X149900Y317100D01*
X150700D01*
X151100Y317500D01*
Y320300D02*Y317500D01*
X152060Y318300D02*X153660Y320300D01*
X152060Y318300D02*X154060D01*
X153660Y320300D02*Y317100D01*
X131500Y320230D02*Y317535D01*
X131885Y317150D01*
X132655D01*
X133040Y317535D01*
Y320230D02*Y317535D01*
X133964Y319845D02*X134349Y320230D01*
X135504D01*
X135889Y319845D01*
Y319075D01*
X133964Y317150D02*X135889Y319075D01*
X133964Y317150D02*X135889D01*
X202000Y337200D02*Y334400D01*
X202400Y334000D01*
X203200D01*
X203600Y334400D01*
Y337200D02*Y334400D01*
X204560Y336560D02*X205200Y337200D01*
Y334000D01*
X204560D02*X205760D01*
X174497Y330906D02*X175537D01*
X173937Y331466D02*X174497Y330906D01*
X173937Y333546D02*Y331466D01*
Y333546D02*X174497Y334106D01*
X175537D01*
X176497Y333466D02*X177137Y334106D01*
Y330906D01*
X176497D02*X177697D01*
X78900Y364100D02*X80500D01*
X80900Y363700D01*
Y362900D01*
X80500Y362500D02*X80900Y362900D01*
X79300Y362500D02*X80500D01*
X79300Y364100D02*Y360900D01*
X79940Y362500D02*X80900Y360900D01*
X81860Y363700D02*X82260Y364100D01*
X83460D01*
X83860Y363700D01*
Y362900D01*
X81860Y360900D02*X83860Y362900D01*
X81860Y360900D02*X83860D01*
X84060Y352000D02*X85100D01*
X83500Y352560D02*X84060Y352000D01*
X83500Y354640D02*Y352560D01*
Y354640D02*X84060Y355200D01*
X85100D01*
X86060Y354800D02*X86460Y355200D01*
X87260D01*
X87660Y354800D01*
X87260Y352000D02*X87660Y352400D01*
X86460Y352000D02*X87260D01*
X86060Y352400D02*X86460Y352000D01*
Y353760D02*X87260D01*
X87660Y354800D02*Y354160D01*
Y353360D02*Y352400D01*
Y353360D02*X87260Y353760D01*
X87660Y354160D02*X87260Y353760D01*
X84060Y317000D02*X85100D01*
X83500Y317560D02*X84060Y317000D01*
X83500Y319640D02*Y317560D01*
Y319640D02*X84060Y320200D01*
X85100D01*
X86060Y319800D02*X86460Y320200D01*
X87260D01*
X87660Y319800D01*
X87260Y317000D02*X87660Y317400D01*
X86460Y317000D02*X87260D01*
X86060Y317400D02*X86460Y317000D01*
Y318760D02*X87260D01*
X87660Y319800D02*Y319160D01*
Y318360D02*Y317400D01*
Y318360D02*X87260Y318760D01*
X87660Y319160D02*X87260Y318760D01*
X78900Y329100D02*X80500D01*
X80900Y328700D01*
Y327900D01*
X80500Y327500D02*X80900Y327900D01*
X79300Y327500D02*X80500D01*
X79300Y329100D02*Y325900D01*
X79940Y327500D02*X80900Y325900D01*
X81860Y328700D02*X82260Y329100D01*
X83460D01*
X83860Y328700D01*
Y327900D01*
X81860Y325900D02*X83860Y327900D01*
X81860Y325900D02*X83860D01*
X84060Y334500D02*X85100D01*
X83500Y335060D02*X84060Y334500D01*
X83500Y337140D02*Y335060D01*
Y337140D02*X84060Y337700D01*
X85100D01*
X86060Y337300D02*X86460Y337700D01*
X87660D01*
X88060Y337300D01*
Y336500D01*
X86060Y334500D02*X88060Y336500D01*
X86060Y334500D02*X88060D01*
X78900Y294100D02*X80500D01*
X80900Y293700D01*
Y292900D01*
X80500Y292500D02*X80900Y292900D01*
X79300Y292500D02*X80500D01*
X79300Y294100D02*Y290900D01*
X79940Y292500D02*X80900Y290900D01*
X81860Y293700D02*X82260Y294100D01*
X83460D01*
X83860Y293700D01*
Y292900D01*
X81860Y290900D02*X83860Y292900D01*
X81860Y290900D02*X83860D01*
X84060Y299500D02*X85100D01*
X83500Y300060D02*X84060Y299500D01*
X83500Y302140D02*Y300060D01*
Y302140D02*X84060Y302700D01*
X85100D01*
X86060Y302300D02*X86460Y302700D01*
X87660D01*
X88060Y302300D01*
Y301500D01*
X86060Y299500D02*X88060Y301500D01*
X86060Y299500D02*X88060D01*
X231900Y357200D02*Y354000D01*
X232940Y357200D02*X233500Y356640D01*
Y354560D01*
X232940Y354000D02*X233500Y354560D01*
X231500Y354000D02*X232940D01*
X231500Y357200D02*X232940D01*
X234460Y356560D02*X235100Y357200D01*
Y354000D01*
X234460D02*X235660D01*
X232750Y364350D02*Y361150D01*
X233790Y364350D02*X234350Y363790D01*
Y361710D01*
X233790Y361150D02*X234350Y361710D01*
X232350Y361150D02*X233790D01*
X232350Y364350D02*X233790D01*
X235310Y363950D02*X235710Y364350D01*
X236910D01*
X237310Y363950D01*
Y363150D01*
X235310Y361150D02*X237310Y363150D01*
X235310Y361150D02*X237310D01*
X231900Y322200D02*Y319000D01*
X232940Y322200D02*X233500Y321640D01*
Y319560D01*
X232940Y319000D02*X233500Y319560D01*
X231500Y319000D02*X232940D01*
X231500Y322200D02*X232940D01*
X234460Y321560D02*X235100Y322200D01*
Y319000D01*
X234460D02*X235660D01*
X232750Y329350D02*Y326150D01*
X233790Y329350D02*X234350Y328790D01*
Y326710D01*
X233790Y326150D02*X234350Y326710D01*
X232350Y326150D02*X233790D01*
X232350Y329350D02*X233790D01*
X235310Y328950D02*X235710Y329350D01*
X236910D01*
X237310Y328950D01*
Y328150D01*
X235310Y326150D02*X237310Y328150D01*
X235310Y326150D02*X237310D01*
X258500Y361500D02*Y360700D01*
Y361500D02*X262000D01*
X262500Y361000D02*X262000Y361500D01*
X262500Y361000D02*Y360500D01*
X262000Y360000D02*X262500Y360500D01*
X261500Y360000D02*X262000D01*
X259000Y362700D02*X258500Y363200D01*
Y364700D02*Y363200D01*
Y364700D02*X259000Y365200D01*
X260000D01*
X262500Y362700D02*X260000Y365200D01*
X262500D02*Y362700D01*
X258500Y326500D02*Y325700D01*
Y326500D02*X262000D01*
X262500Y326000D02*X262000Y326500D01*
X262500Y326000D02*Y325500D01*
X262000Y325000D02*X262500Y325500D01*
X261500Y325000D02*X262000D01*
X259000Y327700D02*X258500Y328200D01*
Y329700D02*Y328200D01*
Y329700D02*X259000Y330200D01*
X260000D01*
X262500Y327700D02*X260000Y330200D01*
X262500D02*Y327700D01*
X258500Y291500D02*Y290700D01*
Y291500D02*X262000D01*
X262500Y291000D02*X262000Y291500D01*
X262500Y291000D02*Y290500D01*
X262000Y290000D02*X262500Y290500D01*
X261500Y290000D02*X262000D01*
X259000Y292700D02*X258500Y293200D01*
Y294700D02*Y293200D01*
Y294700D02*X259000Y295200D01*
X260000D01*
X262500Y292700D02*X260000Y295200D01*
X262500D02*Y292700D01*
X223436Y369850D02*X225036D01*
X225436Y369450D01*
Y368650D01*
X225036Y368250D02*X225436Y368650D01*
X223836Y368250D02*X225036D01*
X223836Y369850D02*Y366650D01*
X224476Y368250D02*X225436Y366650D01*
X226396Y369210D02*X227036Y369850D01*
Y366650D01*
X226396D02*X227596D01*
X223436Y334850D02*X225036D01*
X225436Y334450D01*
Y333650D01*
X225036Y333250D02*X225436Y333650D01*
X223836Y333250D02*X225036D01*
X223836Y334850D02*Y331650D01*
X224476Y333250D02*X225436Y331650D01*
X226396Y334210D02*X227036Y334850D01*
Y331650D01*
X226396D02*X227596D01*
X223436Y299850D02*X225036D01*
X225436Y299450D01*
Y298650D01*
X225036Y298250D02*X225436Y298650D01*
X223836Y298250D02*X225036D01*
X223836Y299850D02*Y296650D01*
X224476Y298250D02*X225436Y296650D01*
X226396Y299210D02*X227036Y299850D01*
Y296650D01*
X226396D02*X227596D01*
X84060Y282000D02*X85100D01*
X83500Y282560D02*X84060Y282000D01*
X83500Y284640D02*Y282560D01*
Y284640D02*X84060Y285200D01*
X85100D01*
X86060Y284800D02*X86460Y285200D01*
X87260D01*
X87660Y284800D01*
X87260Y282000D02*X87660Y282400D01*
X86460Y282000D02*X87260D01*
X86060Y282400D02*X86460Y282000D01*
Y283760D02*X87260D01*
X87660Y284800D02*Y284160D01*
Y283360D02*Y282400D01*
Y283360D02*X87260Y283760D01*
X87660Y284160D02*X87260Y283760D01*
X78900Y259100D02*X80500D01*
X80900Y258700D01*
Y257900D01*
X80500Y257500D02*X80900Y257900D01*
X79300Y257500D02*X80500D01*
X79300Y259100D02*Y255900D01*
X79940Y257500D02*X80900Y255900D01*
X81860Y258700D02*X82260Y259100D01*
X83460D01*
X83860Y258700D01*
Y257900D01*
X81860Y255900D02*X83860Y257900D01*
X81860Y255900D02*X83860D01*
X84060Y247000D02*X85100D01*
X83500Y247560D02*X84060Y247000D01*
X83500Y249640D02*Y247560D01*
Y249640D02*X84060Y250200D01*
X85100D01*
X86060Y249800D02*X86460Y250200D01*
X87260D01*
X87660Y249800D01*
X87260Y247000D02*X87660Y247400D01*
X86460Y247000D02*X87260D01*
X86060Y247400D02*X86460Y247000D01*
Y248760D02*X87260D01*
X87660Y249800D02*Y249160D01*
Y248360D02*Y247400D01*
Y248360D02*X87260Y248760D01*
X87660Y249160D02*X87260Y248760D01*
X84060Y264500D02*X85100D01*
X83500Y265060D02*X84060Y264500D01*
X83500Y267140D02*Y265060D01*
Y267140D02*X84060Y267700D01*
X85100D01*
X86060Y267300D02*X86460Y267700D01*
X87660D01*
X88060Y267300D01*
Y266500D01*
X86060Y264500D02*X88060Y266500D01*
X86060Y264500D02*X88060D01*
X84060Y229500D02*X85100D01*
X83500Y230060D02*X84060Y229500D01*
X83500Y232140D02*Y230060D01*
Y232140D02*X84060Y232700D01*
X85100D01*
X86060Y232300D02*X86460Y232700D01*
X87660D01*
X88060Y232300D01*
Y231500D01*
X86060Y229500D02*X88060Y231500D01*
X86060Y229500D02*X88060D01*
X78900Y224100D02*X80500D01*
X80900Y223700D01*
Y222900D01*
X80500Y222500D02*X80900Y222900D01*
X79300Y222500D02*X80500D01*
X79300Y224100D02*Y220900D01*
X79940Y222500D02*X80900Y220900D01*
X81860Y223700D02*X82260Y224100D01*
X83460D01*
X83860Y223700D01*
Y222900D01*
X81860Y220900D02*X83860Y222900D01*
X81860Y220900D02*X83860D01*
X84060Y212000D02*X85100D01*
X83500Y212560D02*X84060Y212000D01*
X83500Y214640D02*Y212560D01*
Y214640D02*X84060Y215200D01*
X85100D01*
X86060Y214800D02*X86460Y215200D01*
X87260D01*
X87660Y214800D01*
X87260Y212000D02*X87660Y212400D01*
X86460Y212000D02*X87260D01*
X86060Y212400D02*X86460Y212000D01*
Y213760D02*X87260D01*
X87660Y214800D02*Y214160D01*
Y213360D02*Y212400D01*
Y213360D02*X87260Y213760D01*
X87660Y214160D02*X87260Y213760D01*
X84060Y194500D02*X85100D01*
X83500Y195060D02*X84060Y194500D01*
X83500Y197140D02*Y195060D01*
Y197140D02*X84060Y197700D01*
X85100D01*
X86060Y197300D02*X86460Y197700D01*
X87660D01*
X88060Y197300D01*
Y196500D01*
X86060Y194500D02*X88060Y196500D01*
X86060Y194500D02*X88060D01*
X78900Y189100D02*X80500D01*
X80900Y188700D01*
Y187900D01*
X80500Y187500D02*X80900Y187900D01*
X79300Y187500D02*X80500D01*
X79300Y189100D02*Y185900D01*
X79940Y187500D02*X80900Y185900D01*
X81860Y188700D02*X82260Y189100D01*
X83460D01*
X83860Y188700D01*
Y187900D01*
X81860Y185900D02*X83860Y187900D01*
X81860Y185900D02*X83860D01*
X84060Y177000D02*X85100D01*
X83500Y177560D02*X84060Y177000D01*
X83500Y179640D02*Y177560D01*
Y179640D02*X84060Y180200D01*
X85100D01*
X86060Y179800D02*X86460Y180200D01*
X87260D01*
X87660Y179800D01*
X87260Y177000D02*X87660Y177400D01*
X86460Y177000D02*X87260D01*
X86060Y177400D02*X86460Y177000D01*
Y178760D02*X87260D01*
X87660Y179800D02*Y179160D01*
Y178360D02*Y177400D01*
Y178360D02*X87260Y178760D01*
X87660Y179160D02*X87260Y178760D01*
X78900Y154100D02*X80500D01*
X80900Y153700D01*
Y152900D01*
X80500Y152500D02*X80900Y152900D01*
X79300Y152500D02*X80500D01*
X79300Y154100D02*Y150900D01*
X79940Y152500D02*X80900Y150900D01*
X81860Y153700D02*X82260Y154100D01*
X83460D01*
X83860Y153700D01*
Y152900D01*
X81860Y150900D02*X83860Y152900D01*
X81860Y150900D02*X83860D01*
X84060Y159500D02*X85100D01*
X83500Y160060D02*X84060Y159500D01*
X83500Y162140D02*Y160060D01*
Y162140D02*X84060Y162700D01*
X85100D01*
X86060Y162300D02*X86460Y162700D01*
X87660D01*
X88060Y162300D01*
Y161500D01*
X86060Y159500D02*X88060Y161500D01*
X86060Y159500D02*X88060D01*
X84060Y142000D02*X85100D01*
X83500Y142560D02*X84060Y142000D01*
X83500Y144640D02*Y142560D01*
Y144640D02*X84060Y145200D01*
X85100D01*
X86060Y144800D02*X86460Y145200D01*
X87260D01*
X87660Y144800D01*
X87260Y142000D02*X87660Y142400D01*
X86460Y142000D02*X87260D01*
X86060Y142400D02*X86460Y142000D01*
Y143760D02*X87260D01*
X87660Y144800D02*Y144160D01*
Y143360D02*Y142400D01*
Y143360D02*X87260Y143760D01*
X87660Y144160D02*X87260Y143760D01*
X78900Y119100D02*X80500D01*
X80900Y118700D01*
Y117900D01*
X80500Y117500D02*X80900Y117900D01*
X79300Y117500D02*X80500D01*
X79300Y119100D02*Y115900D01*
X79940Y117500D02*X80900Y115900D01*
X81860Y118700D02*X82260Y119100D01*
X83460D01*
X83860Y118700D01*
Y117900D01*
X81860Y115900D02*X83860Y117900D01*
X81860Y115900D02*X83860D01*
X84060Y107000D02*X85100D01*
X83500Y107560D02*X84060Y107000D01*
X83500Y109640D02*Y107560D01*
Y109640D02*X84060Y110200D01*
X85100D01*
X86060Y109800D02*X86460Y110200D01*
X87260D01*
X87660Y109800D01*
X87260Y107000D02*X87660Y107400D01*
X86460Y107000D02*X87260D01*
X86060Y107400D02*X86460Y107000D01*
Y108760D02*X87260D01*
X87660Y109800D02*Y109160D01*
Y108360D02*Y107400D01*
Y108360D02*X87260Y108760D01*
X87660Y109160D02*X87260Y108760D01*
X84060Y124500D02*X85100D01*
X83500Y125060D02*X84060Y124500D01*
X83500Y127140D02*Y125060D01*
Y127140D02*X84060Y127700D01*
X85100D01*
X86060Y127300D02*X86460Y127700D01*
X87660D01*
X88060Y127300D01*
Y126500D01*
X86060Y124500D02*X88060Y126500D01*
X86060Y124500D02*X88060D01*
X78900Y84100D02*X80500D01*
X80900Y83700D01*
Y82900D01*
X80500Y82500D02*X80900Y82900D01*
X79300Y82500D02*X80500D01*
X79300Y84100D02*Y80900D01*
X79940Y82500D02*X80900Y80900D01*
X81860Y83700D02*X82260Y84100D01*
X83460D01*
X83860Y83700D01*
Y82900D01*
X81860Y80900D02*X83860Y82900D01*
X81860Y80900D02*X83860D01*
X84060Y72000D02*X85100D01*
X83500Y72560D02*X84060Y72000D01*
X83500Y74640D02*Y72560D01*
Y74640D02*X84060Y75200D01*
X85100D01*
X86060Y74800D02*X86460Y75200D01*
X87260D01*
X87660Y74800D01*
X87260Y72000D02*X87660Y72400D01*
X86460Y72000D02*X87260D01*
X86060Y72400D02*X86460Y72000D01*
Y73760D02*X87260D01*
X87660Y74800D02*Y74160D01*
Y73360D02*Y72400D01*
Y73360D02*X87260Y73760D01*
X87660Y74160D02*X87260Y73760D01*
X84060Y89500D02*X85100D01*
X83500Y90060D02*X84060Y89500D01*
X83500Y92140D02*Y90060D01*
Y92140D02*X84060Y92700D01*
X85100D01*
X86060Y92300D02*X86460Y92700D01*
X87660D01*
X88060Y92300D01*
Y91500D01*
X86060Y89500D02*X88060Y91500D01*
X86060Y89500D02*X88060D01*
X149500Y180300D02*Y177500D01*
X149900Y177100D01*
X150700D01*
X151100Y177500D01*
Y180300D02*Y177500D01*
X152060Y178300D02*X153660Y180300D01*
X152060Y178300D02*X154060D01*
X153660Y180300D02*Y177100D01*
X149500Y110300D02*Y107500D01*
X149900Y107100D01*
X150700D01*
X151100Y107500D01*
Y110300D02*Y107500D01*
X152060Y108300D02*X153660Y110300D01*
X152060Y108300D02*X154060D01*
X153660Y110300D02*Y107100D01*
X202000Y302200D02*Y299400D01*
X202400Y299000D01*
X203200D01*
X203600Y299400D01*
Y302200D02*Y299400D01*
X204560Y301560D02*X205200Y302200D01*
Y299000D01*
X204560D02*X205760D01*
X174497Y295906D02*X175537D01*
X173937Y296466D02*X174497Y295906D01*
X173937Y298546D02*Y296466D01*
Y298546D02*X174497Y299106D01*
X175537D01*
X176497Y298466D02*X177137Y299106D01*
Y295906D01*
X176497D02*X177697D01*
X149500Y285300D02*Y282500D01*
X149900Y282100D01*
X150700D01*
X151100Y282500D01*
Y285300D02*Y282500D01*
X152060Y283300D02*X153660Y285300D01*
X152060Y283300D02*X154060D01*
X153660Y285300D02*Y282100D01*
X131500Y285230D02*Y282535D01*
X131885Y282150D01*
X132655D01*
X133040Y282535D01*
Y285230D02*Y282535D01*
X133964Y284845D02*X134349Y285230D01*
X135504D01*
X135889Y284845D01*
Y284075D01*
X133964Y282150D02*X135889Y284075D01*
X133964Y282150D02*X135889D01*
X149500Y250300D02*Y247500D01*
X149900Y247100D01*
X150700D01*
X151100Y247500D01*
Y250300D02*Y247500D01*
X152060Y248300D02*X153660Y250300D01*
X152060Y248300D02*X154060D01*
X153660Y250300D02*Y247100D01*
X131500Y250230D02*Y247535D01*
X131885Y247150D01*
X132655D01*
X133040Y247535D01*
Y250230D02*Y247535D01*
X133964Y249845D02*X134349Y250230D01*
X135504D01*
X135889Y249845D01*
Y249075D01*
X133964Y247150D02*X135889Y249075D01*
X133964Y247150D02*X135889D01*
X131500Y110230D02*Y107535D01*
X131885Y107150D01*
X132655D01*
X133040Y107535D01*
Y110230D02*Y107535D01*
X133964Y109845D02*X134349Y110230D01*
X135504D01*
X135889Y109845D01*
Y109075D01*
X133964Y107150D02*X135889Y109075D01*
X133964Y107150D02*X135889D01*
X231900Y287200D02*Y284000D01*
X232940Y287200D02*X233500Y286640D01*
Y284560D01*
X232940Y284000D02*X233500Y284560D01*
X231500Y284000D02*X232940D01*
X231500Y287200D02*X232940D01*
X234460Y286560D02*X235100Y287200D01*
Y284000D01*
X234460D02*X235660D01*
X232750Y294350D02*Y291150D01*
X233790Y294350D02*X234350Y293790D01*
Y291710D01*
X233790Y291150D02*X234350Y291710D01*
X232350Y291150D02*X233790D01*
X232350Y294350D02*X233790D01*
X235310Y293950D02*X235710Y294350D01*
X236910D01*
X237310Y293950D01*
Y293150D01*
X235310Y291150D02*X237310Y293150D01*
X235310Y291150D02*X237310D01*
X231900Y252200D02*Y249000D01*
X232940Y252200D02*X233500Y251640D01*
Y249560D01*
X232940Y249000D02*X233500Y249560D01*
X231500Y249000D02*X232940D01*
X231500Y252200D02*X232940D01*
X234460Y251560D02*X235100Y252200D01*
Y249000D01*
X234460D02*X235660D01*
X232750Y259350D02*Y256150D01*
X233790Y259350D02*X234350Y258790D01*
Y256710D01*
X233790Y256150D02*X234350Y256710D01*
X232350Y256150D02*X233790D01*
X232350Y259350D02*X233790D01*
X235310Y258950D02*X235710Y259350D01*
X236910D01*
X237310Y258950D01*
Y258150D01*
X235310Y256150D02*X237310Y258150D01*
X235310Y256150D02*X237310D01*
X258500Y256500D02*Y255700D01*
Y256500D02*X262000D01*
X262500Y256000D02*X262000Y256500D01*
X262500Y256000D02*Y255500D01*
X262000Y255000D02*X262500Y255500D01*
X261500Y255000D02*X262000D01*
X259000Y257700D02*X258500Y258200D01*
Y259700D02*Y258200D01*
Y259700D02*X259000Y260200D01*
X260000D01*
X262500Y257700D02*X260000Y260200D01*
X262500D02*Y257700D01*
X258500Y221500D02*Y220700D01*
Y221500D02*X262000D01*
X262500Y221000D02*X262000Y221500D01*
X262500Y221000D02*Y220500D01*
X262000Y220000D02*X262500Y220500D01*
X261500Y220000D02*X262000D01*
X259000Y222700D02*X258500Y223200D01*
Y224700D02*Y223200D01*
Y224700D02*X259000Y225200D01*
X260000D01*
X262500Y222700D02*X260000Y225200D01*
X262500D02*Y222700D01*
X223436Y264850D02*X225036D01*
X225436Y264450D01*
Y263650D01*
X225036Y263250D02*X225436Y263650D01*
X223836Y263250D02*X225036D01*
X223836Y264850D02*Y261650D01*
X224476Y263250D02*X225436Y261650D01*
X226396Y264210D02*X227036Y264850D01*
Y261650D01*
X226396D02*X227596D01*
X223436Y229850D02*X225036D01*
X225436Y229450D01*
Y228650D01*
X225036Y228250D02*X225436Y228650D01*
X223836Y228250D02*X225036D01*
X223836Y229850D02*Y226650D01*
X224476Y228250D02*X225436Y226650D01*
X226396Y229210D02*X227036Y229850D01*
Y226650D01*
X226396D02*X227596D01*
X202000Y267200D02*Y264400D01*
X202400Y264000D01*
X203200D01*
X203600Y264400D01*
Y267200D02*Y264400D01*
X204560Y266560D02*X205200Y267200D01*
Y264000D01*
X204560D02*X205760D01*
X174497Y260906D02*X175537D01*
X173937Y261466D02*X174497Y260906D01*
X173937Y263546D02*Y261466D01*
Y263546D02*X174497Y264106D01*
X175537D01*
X176497Y263466D02*X177137Y264106D01*
Y260906D01*
X176497D02*X177697D01*
X202000Y232200D02*Y229400D01*
X202400Y229000D01*
X203200D01*
X203600Y229400D01*
Y232200D02*Y229400D01*
X204560Y231560D02*X205200Y232200D01*
Y229000D01*
X204560D02*X205760D01*
X174497Y225906D02*X175537D01*
X173937Y226466D02*X174497Y225906D01*
X173937Y228546D02*Y226466D01*
Y228546D02*X174497Y229106D01*
X175537D01*
X176497Y228466D02*X177137Y229106D01*
Y225906D01*
X176497D02*X177697D01*
X202000Y197200D02*Y194400D01*
X202400Y194000D01*
X203200D01*
X203600Y194400D01*
Y197200D02*Y194400D01*
X204560Y196560D02*X205200Y197200D01*
Y194000D01*
X204560D02*X205760D01*
X174497Y190906D02*X175537D01*
X173937Y191466D02*X174497Y190906D01*
X173937Y193546D02*Y191466D01*
Y193546D02*X174497Y194106D01*
X175537D01*
X176497Y193466D02*X177137Y194106D01*
Y190906D01*
X176497D02*X177697D01*
X149500Y215300D02*Y212500D01*
X149900Y212100D01*
X150700D01*
X151100Y212500D01*
Y215300D02*Y212500D01*
X152060Y213300D02*X153660Y215300D01*
X152060Y213300D02*X154060D01*
X153660Y215300D02*Y212100D01*
X131500Y215230D02*Y212535D01*
X131885Y212150D01*
X132655D01*
X133040Y212535D01*
Y215230D02*Y212535D01*
X133964Y214845D02*X134349Y215230D01*
X135504D01*
X135889Y214845D01*
Y214075D01*
X133964Y212150D02*X135889Y214075D01*
X133964Y212150D02*X135889D01*
X131500Y180230D02*Y177535D01*
X131885Y177150D01*
X132655D01*
X133040Y177535D01*
Y180230D02*Y177535D01*
X133964Y179845D02*X134349Y180230D01*
X135504D01*
X135889Y179845D01*
Y179075D01*
X133964Y177150D02*X135889Y179075D01*
X133964Y177150D02*X135889D01*
X231900Y217200D02*Y214000D01*
X232940Y217200D02*X233500Y216640D01*
Y214560D01*
X232940Y214000D02*X233500Y214560D01*
X231500Y214000D02*X232940D01*
X231500Y217200D02*X232940D01*
X234460Y216560D02*X235100Y217200D01*
Y214000D01*
X234460D02*X235660D01*
X232750Y224350D02*Y221150D01*
X233790Y224350D02*X234350Y223790D01*
Y221710D01*
X233790Y221150D02*X234350Y221710D01*
X232350Y221150D02*X233790D01*
X232350Y224350D02*X233790D01*
X235310Y223950D02*X235710Y224350D01*
X236910D01*
X237310Y223950D01*
Y223150D01*
X235310Y221150D02*X237310Y223150D01*
X235310Y221150D02*X237310D01*
X231900Y182200D02*Y179000D01*
X232940Y182200D02*X233500Y181640D01*
Y179560D01*
X232940Y179000D02*X233500Y179560D01*
X231500Y179000D02*X232940D01*
X231500Y182200D02*X232940D01*
X234460Y181560D02*X235100Y182200D01*
Y179000D01*
X234460D02*X235660D01*
X232750Y189350D02*Y186150D01*
X233790Y189350D02*X234350Y188790D01*
Y186710D01*
X233790Y186150D02*X234350Y186710D01*
X232350Y186150D02*X233790D01*
X232350Y189350D02*X233790D01*
X235310Y188950D02*X235710Y189350D01*
X236910D01*
X237310Y188950D01*
Y188150D01*
X235310Y186150D02*X237310Y188150D01*
X235310Y186150D02*X237310D01*
X258500Y186500D02*Y185700D01*
Y186500D02*X262000D01*
X262500Y186000D02*X262000Y186500D01*
X262500Y186000D02*Y185500D01*
X262000Y185000D02*X262500Y185500D01*
X261500Y185000D02*X262000D01*
X259000Y187700D02*X258500Y188200D01*
Y189700D02*Y188200D01*
Y189700D02*X259000Y190200D01*
X260000D01*
X262500Y187700D02*X260000Y190200D01*
X262500D02*Y187700D01*
X258500Y151500D02*Y150700D01*
Y151500D02*X262000D01*
X262500Y151000D02*X262000Y151500D01*
X262500Y151000D02*Y150500D01*
X262000Y150000D02*X262500Y150500D01*
X261500Y150000D02*X262000D01*
X259000Y152700D02*X258500Y153200D01*
Y154700D02*Y153200D01*
Y154700D02*X259000Y155200D01*
X260000D01*
X262500Y152700D02*X260000Y155200D01*
X262500D02*Y152700D01*
X223436Y194850D02*X225036D01*
X225436Y194450D01*
Y193650D01*
X225036Y193250D02*X225436Y193650D01*
X223836Y193250D02*X225036D01*
X223836Y194850D02*Y191650D01*
X224476Y193250D02*X225436Y191650D01*
X226396Y194210D02*X227036Y194850D01*
Y191650D01*
X226396D02*X227596D01*
X223436Y159850D02*X225036D01*
X225436Y159450D01*
Y158650D01*
X225036Y158250D02*X225436Y158650D01*
X223836Y158250D02*X225036D01*
X223836Y159850D02*Y156650D01*
X224476Y158250D02*X225436Y156650D01*
X226396Y159210D02*X227036Y159850D01*
Y156650D01*
X226396D02*X227596D01*
X231900Y147200D02*Y144000D01*
X232940Y147200D02*X233500Y146640D01*
Y144560D01*
X232940Y144000D02*X233500Y144560D01*
X231500Y144000D02*X232940D01*
X231500Y147200D02*X232940D01*
X234460Y146560D02*X235100Y147200D01*
Y144000D01*
X234460D02*X235660D01*
X232750Y154350D02*Y151150D01*
X233790Y154350D02*X234350Y153790D01*
Y151710D01*
X233790Y151150D02*X234350Y151710D01*
X232350Y151150D02*X233790D01*
X232350Y154350D02*X233790D01*
X235310Y153950D02*X235710Y154350D01*
X236910D01*
X237310Y153950D01*
Y153150D01*
X235310Y151150D02*X237310Y153150D01*
X235310Y151150D02*X237310D01*
X231900Y112200D02*Y109000D01*
X232940Y112200D02*X233500Y111640D01*
Y109560D01*
X232940Y109000D02*X233500Y109560D01*
X231500Y109000D02*X232940D01*
X231500Y112200D02*X232940D01*
X234460Y111560D02*X235100Y112200D01*
Y109000D01*
X234460D02*X235660D01*
X232750Y119350D02*Y116150D01*
X233790Y119350D02*X234350Y118790D01*
Y116710D01*
X233790Y116150D02*X234350Y116710D01*
X232350Y116150D02*X233790D01*
X232350Y119350D02*X233790D01*
X235310Y118950D02*X235710Y119350D01*
X236910D01*
X237310Y118950D01*
Y118150D01*
X235310Y116150D02*X237310Y118150D01*
X235310Y116150D02*X237310D01*
X258500Y116500D02*Y115700D01*
Y116500D02*X262000D01*
X262500Y116000D02*X262000Y116500D01*
X262500Y116000D02*Y115500D01*
X262000Y115000D02*X262500Y115500D01*
X261500Y115000D02*X262000D01*
X259000Y117700D02*X258500Y118200D01*
Y119700D02*Y118200D01*
Y119700D02*X259000Y120200D01*
X260000D01*
X262500Y117700D02*X260000Y120200D01*
X262500D02*Y117700D01*
X223436Y124850D02*X225036D01*
X225436Y124450D01*
Y123650D01*
X225036Y123250D02*X225436Y123650D01*
X223836Y123250D02*X225036D01*
X223836Y124850D02*Y121650D01*
X224476Y123250D02*X225436Y121650D01*
X226396Y124210D02*X227036Y124850D01*
Y121650D01*
X226396D02*X227596D01*
X149500Y145300D02*Y142500D01*
X149900Y142100D01*
X150700D01*
X151100Y142500D01*
Y145300D02*Y142500D01*
X152060Y143300D02*X153660Y145300D01*
X152060Y143300D02*X154060D01*
X153660Y145300D02*Y142100D01*
X174497Y155906D02*X175537D01*
X173937Y156466D02*X174497Y155906D01*
X173937Y158546D02*Y156466D01*
Y158546D02*X174497Y159106D01*
X175537D01*
X176497Y158466D02*X177137Y159106D01*
Y155906D01*
X176497D02*X177697D01*
X131500Y145230D02*Y142535D01*
X131885Y142150D01*
X132655D01*
X133040Y142535D01*
Y145230D02*Y142535D01*
X133964Y144845D02*X134349Y145230D01*
X135504D01*
X135889Y144845D01*
Y144075D01*
X133964Y142150D02*X135889Y144075D01*
X133964Y142150D02*X135889D01*
X202000Y162200D02*Y159400D01*
X202400Y159000D01*
X203200D01*
X203600Y159400D01*
Y162200D02*Y159400D01*
X204560Y161560D02*X205200Y162200D01*
Y159000D01*
X204560D02*X205760D01*
X202000Y127200D02*Y124400D01*
X202400Y124000D01*
X203200D01*
X203600Y124400D01*
Y127200D02*Y124400D01*
X204560Y126560D02*X205200Y127200D01*
Y124000D01*
X204560D02*X205760D01*
X174497Y120906D02*X175537D01*
X173937Y121466D02*X174497Y120906D01*
X173937Y123546D02*Y121466D01*
Y123546D02*X174497Y124106D01*
X175537D01*
X176497Y123466D02*X177137Y124106D01*
Y120906D01*
X176497D02*X177697D01*
M02*
