G04 start of page 11 for group -4015 idx -4015 *
G04 Title: (unknown), toppaste *
G04 Creator: pcb 4.0.2 *
G04 CreationDate: Wed Oct 14 23:18:56 2020 UTC *
G04 For: ndholmes *
G04 Format: Gerber/RS-274X *
G04 PCB-Dimensions (mil): 1500.00 1250.00 *
G04 PCB-Coordinate-Origin: lower left *
%MOIN*%
%FSLAX25Y25*%
%LNTOPPASTE*%
%ADD69C,0.0001*%
G54D69*G36*
X54560Y53620D02*X52888D01*
Y50076D01*
X54560D01*
Y53620D01*
G37*
G36*
X51412D02*X49738D01*
Y50076D01*
X51412D01*
Y53620D01*
G37*
G36*
X48262D02*X46588D01*
Y50076D01*
X48262D01*
Y53620D01*
G37*
G36*
X45112D02*X43440D01*
Y50076D01*
X45112D01*
Y53620D01*
G37*
G36*
Y46924D02*X43440D01*
Y43380D01*
X45112D01*
Y46924D01*
G37*
G36*
X48262D02*X46588D01*
Y43380D01*
X48262D01*
Y46924D01*
G37*
G36*
X51412D02*X49738D01*
Y43380D01*
X51412D01*
Y46924D01*
G37*
G36*
X54560D02*X52888D01*
Y43380D01*
X54560D01*
Y46924D01*
G37*
G36*
X43516Y99952D02*X38398D01*
Y94048D01*
X43516D01*
Y99952D01*
G37*
G36*
X50602D02*X45484D01*
Y94048D01*
X50602D01*
Y99952D01*
G37*
G36*
X67796Y119874D02*X64016D01*
Y112000D01*
X67796D01*
Y119874D01*
G37*
G36*
X61890D02*X58110D01*
Y104284D01*
X61890D01*
Y119874D01*
G37*
G36*
X64725Y109165D02*X55275D01*
Y97825D01*
X64725D01*
Y109165D01*
G37*
G36*
X61885Y112005D02*X60465Y110585D01*
X63305Y107745D01*
X64725Y109165D01*
X61885Y112005D01*
G37*
G36*
X59535Y110585D02*X58115Y112005D01*
X55275Y109165D01*
X56695Y107745D01*
X59535Y110585D01*
G37*
G36*
X55984Y119874D02*X52204D01*
Y112000D01*
X55984D01*
Y119874D01*
G37*
G36*
X60048Y48016D02*Y42898D01*
X65952D01*
Y48016D01*
X60048D01*
G37*
G36*
Y55102D02*Y49984D01*
X65952D01*
Y55102D01*
X60048D01*
G37*
G36*
X45000Y19700D02*Y17300D01*
X49000D01*
Y19700D01*
X45000D01*
G37*
G36*
Y23600D02*Y21200D01*
X49000D01*
Y23600D01*
X45000D01*
G37*
G36*
Y27500D02*Y25100D01*
X49000D01*
Y27500D01*
X45000D01*
G37*
G36*
X36800D02*Y25100D01*
X40800D01*
Y27500D01*
X36800D01*
G37*
G36*
Y23600D02*Y21200D01*
X40800D01*
Y23600D01*
X36800D01*
G37*
G36*
Y19700D02*Y17300D01*
X40800D01*
Y19700D01*
X36800D01*
G37*
G36*
X69048Y55102D02*Y49984D01*
X74952D01*
Y55102D01*
X69048D01*
G37*
G36*
Y48016D02*Y42898D01*
X74952D01*
Y48016D01*
X69048D01*
G37*
G36*
X103249Y16800D02*Y12100D01*
X107950D01*
Y16800D01*
X103249D01*
G37*
G36*
X111050D02*Y12100D01*
X115751D01*
Y16800D01*
X111050D01*
G37*
G36*
X106350Y30400D02*Y24100D01*
X112651D01*
Y30400D01*
X106350D01*
G37*
G36*
X126949Y61275D02*Y58913D01*
X133051D01*
Y61275D01*
X126949D01*
G37*
G36*
Y65212D02*Y62850D01*
X133051D01*
Y65212D01*
X126949D01*
G37*
G36*
Y69150D02*Y66788D01*
X133051D01*
Y69150D01*
X126949D01*
G37*
G36*
Y73087D02*Y70725D01*
X133051D01*
Y73087D01*
X126949D01*
G37*
G36*
X141713Y57338D02*Y52614D01*
X148799D01*
Y57338D01*
X141713D01*
G37*
G36*
Y79386D02*Y74662D01*
X148799D01*
Y79386D01*
X141713D01*
G37*
G36*
X83102Y102952D02*X77984D01*
Y97048D01*
X83102D01*
Y102952D01*
G37*
G36*
X76016D02*X70898D01*
Y97048D01*
X76016D01*
Y102952D01*
G37*
G36*
X43500Y79000D02*Y77000D01*
X52000D01*
Y79000D01*
X43500D01*
G37*
G36*
Y74000D02*Y72000D01*
X52000D01*
Y74000D01*
X43500D01*
G37*
G36*
Y69000D02*Y67000D01*
X52000D01*
Y69000D01*
X43500D01*
G37*
G36*
Y64000D02*Y62000D01*
X52000D01*
Y64000D01*
X43500D01*
G37*
G36*
X64000D02*Y62000D01*
X72500D01*
Y64000D01*
X64000D01*
G37*
G36*
Y69000D02*Y67000D01*
X72500D01*
Y69000D01*
X64000D01*
G37*
G36*
Y74000D02*Y72000D01*
X72500D01*
Y74000D01*
X64000D01*
G37*
G36*
Y79000D02*Y77000D01*
X72500D01*
Y79000D01*
X64000D01*
G37*
G36*
X23250Y90250D02*X17750D01*
Y82750D01*
X23250D01*
Y90250D01*
G37*
G36*
X36250D02*X30750D01*
Y82750D01*
X36250D01*
Y90250D01*
G37*
M02*
