G04 start of page 9 for group -4079 idx -4079 *
G04 Title: (unknown), topsilk *
G04 Creator: pcb 4.0.2 *
G04 CreationDate: Wed Oct 14 23:18:56 2020 UTC *
G04 For: ndholmes *
G04 Format: Gerber/RS-274X *
G04 PCB-Dimensions (mil): 1500.00 1250.00 *
G04 PCB-Coordinate-Origin: lower left *
%MOIN*%
%FSLAX25Y25*%
%LNTOPSILK*%
%ADD66C,0.0200*%
%ADD65C,0.0100*%
%ADD64C,0.0060*%
%ADD63C,0.0080*%
G54D63*X500Y500D02*X149500D01*
Y124500D01*
X500D01*
Y500D01*
G54D64*X58500Y6000D02*X59000Y5500D01*
X57000Y6000D02*X58500D01*
X56500Y5500D02*X57000Y6000D01*
X56500Y5500D02*Y2500D01*
X57000Y2000D01*
X58500D01*
X59000Y2500D01*
Y3500D02*Y2500D01*
X58500Y4000D02*X59000Y3500D01*
X57500Y4000D02*X58500D01*
X60200Y6000D02*Y2000D01*
Y6000D02*X62700Y2000D01*
Y6000D02*Y2000D01*
X64400Y6000D02*Y2000D01*
X65700Y6000D02*X66400Y5300D01*
Y2700D01*
X65700Y2000D02*X66400Y2700D01*
X63900Y2000D02*X65700D01*
X63900Y6000D02*X65700D01*
X85000Y2500D02*X88000Y5500D01*
X89700Y6000D02*Y2000D01*
X91000Y6000D02*X91700Y5300D01*
Y2700D01*
X91000Y2000D02*X91700Y2700D01*
X89200Y2000D02*X91000D01*
X89200Y6000D02*X91000D01*
X102500D02*Y2000D01*
X103800Y6000D02*X104500Y5300D01*
Y2700D01*
X103800Y2000D02*X104500Y2700D01*
X102000Y2000D02*X103800D01*
X102000Y6000D02*X103800D01*
X105700Y4200D02*X107200D01*
X105700Y2000D02*X107700D01*
X105700Y6000D02*Y2000D01*
Y6000D02*X107700D01*
X108900D02*Y2000D01*
X110900D01*
X112100Y5000D02*Y2000D01*
Y5000D02*X112800Y6000D01*
X113900D01*
X114600Y5000D01*
Y2000D01*
X112100Y4000D02*X114600D01*
X115800Y6000D02*X116800Y4000D01*
X117800Y6000D01*
X116800Y4000D02*Y2000D01*
X74500Y6000D02*Y2000D01*
X75800Y6000D02*X76500Y5300D01*
Y2700D01*
X75800Y2000D02*X76500Y2700D01*
X74000Y2000D02*X75800D01*
X74000Y6000D02*X75800D01*
X6500Y73000D02*X2500Y72000D01*
X6500Y71000D01*
Y69800D02*Y68800D01*
X2500Y69300D02*X6500D01*
X2500Y69800D02*Y68800D01*
Y67600D02*X6500D01*
X2500Y65100D01*
X6500D01*
Y58500D02*X6000Y58000D01*
X6500Y60000D02*Y58500D01*
X6000Y60500D02*X6500Y60000D01*
X3000Y60500D02*X6000D01*
X3000D02*X2500Y60000D01*
Y58500D01*
X3000Y58000D01*
X4000D01*
X4500Y58500D02*X4000Y58000D01*
X4500Y59500D02*Y58500D01*
X2500Y56800D02*X6500D01*
X2500Y54300D01*
X6500D01*
X2500Y52600D02*X6500D01*
Y51300D02*X5800Y50600D01*
X3200D02*X5800D01*
X2500Y51300D02*X3200Y50600D01*
X2500Y53100D02*Y51300D01*
X6500Y53100D02*Y51300D01*
X2500Y47000D02*X5500D01*
X6500Y46300D01*
Y45200D01*
X5500Y44500D01*
X2500D02*X5500D01*
X4500Y47000D02*Y44500D01*
X2500Y42800D02*X6500D01*
Y41500D02*X5800Y40800D01*
X3200D02*X5800D01*
X2500Y41500D02*X3200Y40800D01*
X2500Y43300D02*Y41500D01*
X6500Y43300D02*Y41500D01*
Y38900D02*Y38100D01*
X3000D02*X6500D01*
X2500Y38600D02*X3000Y38100D01*
X2500Y39100D02*Y38600D01*
X3000Y39600D02*X2500Y39100D01*
X3000Y39600D02*X3500D01*
X62000Y57500D02*X64000D01*
X63000Y58500D02*Y56500D01*
G54D65*X117600Y10500D02*X101400D01*
X117600Y32500D02*X101400D01*
X117600Y10500D02*Y32500D01*
X101400Y10500D02*Y32500D01*
G54D66*X77700Y92000D02*X149000D01*
X77700Y40000D02*X149000D01*
X77700Y92000D02*Y40000D01*
G54D65*X36000Y16500D02*X49900D01*
Y28300D02*Y16500D01*
X36000Y28300D02*X49900D01*
X36000D02*Y16500D01*
X44107Y99755D02*X44893D01*
X44107Y94245D02*X44893D01*
X69250Y114480D02*Y103850D01*
X50750Y114480D02*Y103850D01*
X66000D02*X69250D01*
X50750D02*X54000D01*
X69071Y114480D02*X69250D01*
X50750D02*X50929D01*
X76607Y97245D02*X77393D01*
X76607Y102755D02*X77393D01*
X74755Y49393D02*Y48607D01*
X69245Y49393D02*Y48607D01*
X52500Y8000D02*X98169D01*
Y35559D02*Y8000D01*
X52500Y35559D02*X98169D01*
X52500D02*Y8000D01*
X55890Y54799D02*Y42201D01*
X42110D02*X55890D01*
X42110Y54799D02*Y42201D01*
Y54799D02*X55890D01*
X9500Y78500D02*Y32831D01*
X37059D01*
Y78500D02*Y32831D01*
X9500Y78500D02*X37059D01*
X60245Y49393D02*Y48607D01*
X65755Y49393D02*Y48607D01*
X42500Y80000D02*Y61000D01*
X73500D01*
Y80000D01*
X42500D02*X55500D01*
X73500D02*X60500D01*
X55500D02*G75*G03X60500Y80000I2500J0D01*G01*
X16500Y91300D02*X37500D01*
X16500Y81700D02*X37500D01*
Y91300D02*Y81700D01*
X16500Y91300D02*Y81700D01*
X29500Y91300D02*Y81700D01*
G54D64*X42000Y40000D02*X44000D01*
X44500Y39500D01*
Y38500D01*
X44000Y38000D02*X44500Y38500D01*
X42500Y38000D02*X44000D01*
X42500Y40000D02*Y36000D01*
X43300Y38000D02*X44500Y36000D01*
X45700Y39200D02*X46500Y40000D01*
Y36000D01*
X45700D02*X47200D01*
X30200Y31500D02*X31000D01*
Y28000D01*
X30500Y27500D02*X31000Y28000D01*
X30000Y27500D02*X30500D01*
X29500Y28000D02*X30000Y27500D01*
X29500Y28500D02*Y28000D01*
X32200Y30700D02*X33000Y31500D01*
Y27500D01*
X32200D02*X33700D01*
X36000Y15500D02*Y12000D01*
X36500Y11500D01*
X37500D01*
X38000Y12000D01*
Y15500D02*Y12000D01*
X39200Y13000D02*X41200Y15500D01*
X39200Y13000D02*X41700D01*
X41200Y15500D02*Y11500D01*
X46200Y13500D02*X47000D01*
Y10000D01*
X46500Y9500D02*X47000Y10000D01*
X46000Y9500D02*X46500D01*
X45500Y10000D02*X46000Y9500D01*
X45500Y10500D02*Y10000D01*
X48200Y13000D02*X48700Y13500D01*
X50200D01*
X50700Y13000D01*
Y12000D01*
X48200Y9500D02*X50700Y12000D01*
X48200Y9500D02*X50700D01*
X110200Y101500D02*X111000D01*
Y98000D01*
X110500Y97500D02*X111000Y98000D01*
X110000Y97500D02*X110500D01*
X109500Y98000D02*X110000Y97500D01*
X109500Y98500D02*Y98000D01*
X112200Y99000D02*X114200Y101500D01*
X112200Y99000D02*X114700D01*
X114200Y101500D02*Y97500D01*
X120700Y68000D02*X121500D01*
Y64500D01*
X121000Y64000D02*X121500Y64500D01*
X120500Y64000D02*X121000D01*
X120000Y64500D02*X120500Y64000D01*
X120000Y65000D02*Y64500D01*
X122700Y68000D02*X124700D01*
X122700D02*Y66000D01*
X123200Y66500D01*
X124200D01*
X124700Y66000D01*
Y64500D01*
X124200Y64000D02*X124700Y64500D01*
X123200Y64000D02*X124200D01*
X122700Y64500D02*X123200Y64000D01*
X143357Y37000D02*X144157D01*
Y33500D01*
X143657Y33000D02*X144157Y33500D01*
X143157Y33000D02*X143657D01*
X142657Y33500D02*X143157Y33000D01*
X142657Y34000D02*Y33500D01*
X145357Y36500D02*X145857Y37000D01*
X146857D01*
X147357Y36500D01*
X146857Y33000D02*X147357Y33500D01*
X145857Y33000D02*X146857D01*
X145357Y33500D02*X145857Y33000D01*
Y35200D02*X146857D01*
X147357Y36500D02*Y35700D01*
Y34700D02*Y33500D01*
Y34700D02*X146857Y35200D01*
X147357Y35700D02*X146857Y35200D01*
X100500Y38000D02*X102500D01*
X103000Y37500D01*
Y36500D01*
X102500Y36000D02*X103000Y36500D01*
X101000Y36000D02*X102500D01*
X101000Y38000D02*Y34000D01*
X101800Y36000D02*X103000Y34000D01*
X104200Y37500D02*X104700Y38000D01*
X106200D01*
X106700Y37500D01*
Y36500D01*
X104200Y34000D02*X106700Y36500D01*
X104200Y34000D02*X106700D01*
X60500Y41500D02*Y37500D01*
X61800Y41500D02*X62500Y40800D01*
Y38200D01*
X61800Y37500D02*X62500Y38200D01*
X60000Y37500D02*X61800D01*
X60000Y41500D02*X61800D01*
X63700Y41000D02*X64200Y41500D01*
X65700D01*
X66200Y41000D01*
Y40000D01*
X63700Y37500D02*X66200Y40000D01*
X63700Y37500D02*X66200D01*
X69000Y41500D02*X71000D01*
X71500Y41000D01*
Y40000D01*
X71000Y39500D02*X71500Y40000D01*
X69500Y39500D02*X71000D01*
X69500Y41500D02*Y37500D01*
X70300Y39500D02*X71500Y37500D01*
X72700Y41000D02*X73200Y41500D01*
X74200D01*
X74700Y41000D01*
X74200Y37500D02*X74700Y38000D01*
X73200Y37500D02*X74200D01*
X72700Y38000D02*X73200Y37500D01*
Y39700D02*X74200D01*
X74700Y41000D02*Y40200D01*
Y39200D02*Y38000D01*
Y39200D02*X74200Y39700D01*
X74700Y40200D02*X74200Y39700D01*
X33200Y95000D02*X34500D01*
X32500Y95700D02*X33200Y95000D01*
X32500Y98300D02*Y95700D01*
Y98300D02*X33200Y99000D01*
X34500D01*
X35700Y98200D02*X36500Y99000D01*
Y95000D01*
X35700D02*X37200D01*
X43500Y107500D02*Y104000D01*
X44000Y103500D01*
X45000D01*
X45500Y104000D01*
Y107500D02*Y104000D01*
X46700Y106700D02*X47500Y107500D01*
Y103500D01*
X46700D02*X48200D01*
X77700Y105000D02*X79000D01*
X77000Y105700D02*X77700Y105000D01*
X77000Y108300D02*Y105700D01*
Y108300D02*X77700Y109000D01*
X79000D01*
X80200Y108500D02*X80700Y109000D01*
X82200D01*
X82700Y108500D01*
Y107500D01*
X80200Y105000D02*X82700Y107500D01*
X80200Y105000D02*X82700D01*
X42500Y86000D02*Y82500D01*
X43000Y82000D01*
X44000D01*
X44500Y82500D01*
Y86000D02*Y82500D01*
X45700Y85500D02*X46200Y86000D01*
X47700D01*
X48200Y85500D01*
Y84500D01*
X45700Y82000D02*X48200Y84500D01*
X45700Y82000D02*X48200D01*
X9000Y88500D02*Y84500D01*
X10300Y88500D02*X11000Y87800D01*
Y85200D01*
X10300Y84500D02*X11000Y85200D01*
X8500Y84500D02*X10300D01*
X8500Y88500D02*X10300D01*
X12200Y87700D02*X13000Y88500D01*
Y84500D01*
X12200D02*X13700D01*
M02*
