M48
INCH
T48C0.015
T47C0.014
T46C0.047
T45C0.128
T44C0.030
T43C0.129
%
T47
X003900Y003450
X003900Y003050
X004450Y003350
X005250Y010600
X005250Y010200
X005400Y009550
X005400Y002650
X005400Y002250
X005400Y001850
X005800Y009550
X005900Y006800
X006200Y009550
X006600Y009550
X006750Y010600
X006750Y010200
X008800Y008500
X009400Y010300
X009900Y011850
X009900Y010300
X010400Y011850
T48
X003700Y004850
X004000Y005500
X004300Y005950
X004700Y005950
X005750Y005250
X010150Y006000
X010550Y002050
X010800Y006500
X010950Y006150
X011100Y006800
X012000Y006009
X012350Y006009
T44
X008300Y007350
X008300Y006350
X008300Y005350
X009300Y007850
X009300Y006850
X009300Y005850
T46
X002367Y006944
X002367Y005566
X002367Y004189
X006156Y002217
X007534Y002217
X008911Y002217
T45
X011800Y008600
X011800Y004600
T43
X001700Y010800
X001700Y001700
X013300Y010800
X013350Y001700
M30
