M48
INCH
T43C0.014
T42C0.038
%
T43
X013600Y032800
X013600Y029300
X013200Y029300
X019800Y028500
X019800Y025000
X019800Y021500
X013600Y025800
X013200Y025800
X013600Y022300
X013200Y022300
X010250Y022950
X011450Y022250
X010650Y022200
X011050Y022250
X009350Y021750
X009100Y022950
X008850Y021750
X011050Y021400
X009700Y021650
X009600Y022950
X002500Y025200
X002850Y022250
X002500Y022650
X000800Y026500
X000800Y025600
X000800Y026000
X003400Y021400
X003050Y021500
X002500Y021700
X002850Y018750
X002500Y019150
X003400Y017900
X003050Y018000
X002500Y018200
X000800Y023000
X000800Y022100
X000800Y022500
X000800Y019500
X000800Y018600
X000800Y019000
X006300Y021700
X004350Y021750
X004350Y022150
X005400Y021900
X005450Y022450
X005400Y018400
X005450Y018950
X004350Y018250
X004350Y018650
X006550Y021416
X006250Y019650
X005900Y019650
X006250Y023150
X005900Y023150
X010250Y019450
X011450Y018750
X010650Y018700
X011050Y018750
X011050Y017900
X009700Y018150
X009350Y018250
X008850Y018250
X009100Y019450
X009600Y019450
X010250Y015900
X011450Y015200
X010650Y015150
X011050Y015200
X011050Y014350
X009700Y014600
X009350Y014700
X008850Y014700
X009100Y015900
X009600Y015900
X010250Y012450
X011450Y011750
X010650Y011700
X011050Y011750
X011050Y010900
X009700Y011150
X009350Y011250
X008850Y011250
X009100Y012450
X009600Y012450
X006300Y018200
X006550Y017916
X006550Y014366
X006300Y014650
X005400Y014850
X006250Y016100
X005900Y016100
X005450Y015400
X004350Y015100
X004350Y014700
X003400Y014350
X003050Y014450
X002500Y014650
X002850Y015200
X002500Y015600
X004350Y011250
X003400Y010900
X003050Y011000
X002500Y011200
X002850Y011750
X002500Y012150
X000800Y015950
X000800Y015050
X000800Y015450
X000800Y012500
X000800Y011600
X000800Y012000
X000800Y009000
X000800Y008100
X000800Y008500
X000800Y005500
X000800Y004600
X000800Y005000
X000800Y002000
X000800Y001100
X000800Y001500
X006300Y011200
X005400Y011400
X006550Y010916
X006250Y012650
X005900Y012650
X005450Y011950
X004350Y011650
X004350Y004250
X004350Y004650
X006300Y007700
X004350Y007750
X004350Y008150
X006250Y009150
X005900Y009150
X002850Y008250
X002500Y008650
X003400Y007400
X003050Y007500
X002500Y007700
X002850Y004750
X003400Y003900
X003050Y004000
X002500Y004200
X002500Y005150
X002850Y001250
X002500Y001650
X003400Y000400
X003050Y000500
X002500Y000700
X005400Y007900
X005450Y008450
X005400Y004400
X005450Y004950
X005400Y000900
X005450Y001450
X006550Y007416
X006300Y004200
X006250Y005650
X005900Y005650
X006550Y003916
X006300Y000700
X006550Y000416
X006250Y002150
X005900Y002150
X004350Y000750
X004350Y001150
X019800Y018000
X019800Y014450
X019800Y011000
X019800Y007500
X013600Y018800
X013600Y015250
X013200Y015250
X013200Y018800
X013600Y011800
X013200Y011800
X013600Y008300
X013200Y008300
X019800Y004000
X019800Y000500
X013600Y004800
X013200Y004800
X013600Y001300
X013200Y001300
X010250Y008950
X011450Y008250
X010650Y008200
X011050Y008250
X011050Y007400
X009700Y007650
X009350Y007750
X008850Y007750
X009100Y008950
X009600Y008950
X010250Y005450
X011450Y004750
X010650Y004700
X011050Y004750
X011050Y003900
X009700Y004150
X009350Y004250
X008850Y004250
X009100Y005450
X009600Y005450
X010250Y001950
X011450Y001250
X010650Y001200
X011050Y001250
X011050Y000400
X009700Y000650
X009350Y000750
X008850Y000750
X009100Y001950
X009600Y001950
X013600Y039800
X013200Y039800
X010250Y040450
X011450Y039750
X010650Y039700
X011050Y039750
X019800Y039000
X011050Y038900
X019800Y035500
X013600Y036300
X019800Y032000
X013200Y032800
X013200Y036300
X011450Y036250
X010650Y036200
X011050Y036250
X010250Y036950
X011050Y035400
X009700Y035650
X009350Y035750
X008850Y035750
X009100Y036950
X009600Y036950
X009700Y039150
X009350Y039250
X009100Y040450
X009600Y040450
X008850Y039250
X006300Y039200
X005400Y039400
X006550Y038916
X006250Y040650
X005900Y040650
X005450Y039950
X004350Y039250
X003400Y038900
X003050Y039000
X002500Y039200
X004350Y039650
X002850Y039750
X002500Y040150
X000800Y040500
X000800Y039600
X000800Y040000
X006300Y035700
X006550Y035416
X006250Y037150
X005900Y037150
X005400Y035900
X005450Y036450
X004350Y035750
X004350Y036150
X002850Y036250
X003400Y035400
X003050Y035500
X002500Y035700
X002500Y036650
X000800Y037000
X000800Y036100
X000800Y036500
X005900Y033650
X005450Y032950
X004350Y032250
X004350Y032650
X002850Y032750
X003400Y031900
X003050Y032000
X002500Y032200
X002500Y033150
X000800Y033500
X000800Y032600
X000800Y033000
X010250Y033450
X009100Y033450
X009600Y033450
X011450Y032750
X011050Y032750
X011050Y031900
X010650Y032700
X009700Y032150
X009350Y032250
X008850Y032250
X010250Y029950
X009100Y029950
X009600Y029950
X011450Y029250
X011050Y029250
X011050Y028400
X010650Y029200
X009700Y028650
X009350Y028750
X008850Y028750
X010250Y026450
X011450Y025750
X010650Y025700
X011050Y025750
X009100Y026450
X009600Y026450
X011050Y024900
X009700Y025150
X009350Y025250
X008850Y025250
X006300Y032200
X005400Y032400
X006550Y031916
X006250Y033650
X006250Y030150
X005400Y028900
X005900Y030150
X005450Y029450
X004350Y028750
X004350Y029150
X002850Y029250
X002500Y029650
X000800Y030000
X000800Y029100
X000800Y029500
X003400Y028400
X003050Y028500
X002500Y028700
X006300Y028700
X006550Y028416
X006300Y025200
X006550Y024916
X006250Y026650
X005400Y025400
X005900Y026650
X005450Y025950
X004350Y025250
X004350Y025650
X002850Y025750
X003400Y024900
X003050Y025000
X002500Y026150
T42
X012150Y025300
X012150Y026300
X007100Y026500
X012150Y021800
X012150Y022800
X007100Y023000
X007100Y019500
X007100Y015950
X012150Y018300
X012150Y019300
X017050Y033500
X017050Y030000
X017050Y026500
X019150Y028800
X019150Y025300
X019150Y021800
X019150Y018300
X019150Y014750
X019150Y011300
X017050Y023000
X017050Y019500
X017050Y015950
X017050Y012500
X019150Y007800
X017050Y009000
X017050Y005500
X017050Y002000
X019150Y004300
X019150Y000800
X012150Y014750
X012150Y015750
X007100Y012500
X012150Y011300
X012150Y012300
X007100Y009000
X012150Y007800
X012150Y008800
X007100Y005500
X012150Y004300
X012150Y005300
X012150Y000800
X012150Y001800
X007100Y002000
X012150Y039300
X012150Y040300
X007100Y040500
X007100Y037000
X019150Y039300
X017050Y040500
X012150Y035800
X019150Y035800
X012150Y036800
X017050Y037000
X019150Y032300
X012150Y032300
X012150Y033300
X007100Y033500
X007100Y030000
X012150Y028800
X012150Y029800
M30
