G04 start of page 9 for group -4079 idx -4079 *
G04 Title: (unknown), topsilk *
G04 Creator: pcb 20110918 *
G04 CreationDate: Mon 02 Feb 2015 04:29:52 AM GMT UTC *
G04 For: railfan *
G04 Format: Gerber/RS-274X *
G04 PCB-Dimensions: 211000 411000 *
G04 PCB-Coordinate-Origin: lower left *
%MOIN*%
%FSLAX25Y25*%
%LNTOPSILK*%
%ADD62C,0.0200*%
%ADD61C,0.0080*%
%ADD60C,0.0100*%
G54D60*X210000Y281000D02*X1000D01*
Y270000D02*X210000D01*
Y305000D02*Y281000D01*
Y270000D02*Y246000D01*
X1000D01*
Y235000D02*X210000D01*
Y211000D02*X1000D01*
X210000Y235000D02*Y211000D01*
Y176000D02*X1000D01*
X210000Y200000D02*Y176000D01*
X1000Y200000D02*X210000D01*
X1000Y164500D02*X210000D01*
Y351000D02*X1000D01*
X210000Y375000D02*Y351000D01*
Y316000D02*X1000D01*
X210000Y340000D02*Y316000D01*
X1000Y340000D02*X210000D01*
Y386000D02*X1000D01*
X210000Y410000D02*Y386000D01*
X1000Y410000D02*X210000D01*
X1000Y375000D02*X210000D01*
X1000Y305000D02*X210000D01*
Y140500D02*X1000D01*
X210000Y130000D02*Y106000D01*
X1000Y130000D02*X210000D01*
Y164500D02*Y140500D01*
Y106000D02*X1000D01*
X210000Y71000D02*X1000D01*
X210000Y95000D02*Y71000D01*
X1000Y95000D02*X210000D01*
Y36000D02*X1000D01*
X210000Y1000D02*X1000D01*
X210000Y25000D02*Y1000D01*
X1000Y25000D02*X210000D01*
Y60000D02*Y36000D01*
X1000Y60000D02*X210000D01*
G54D61*X197500Y288500D02*X199500D01*
X198500Y289500D02*Y287500D01*
X197500Y253500D02*X199500D01*
X198500Y254500D02*Y252500D01*
X197500Y218500D02*X199500D01*
X198500Y219500D02*Y217500D01*
X197500Y183500D02*X199500D01*
X198500Y184500D02*Y182500D01*
X197500Y393500D02*X199500D01*
X198500Y394500D02*Y392500D01*
X197500Y358500D02*X199500D01*
X198500Y359500D02*Y357500D01*
X197500Y323500D02*X199500D01*
X198500Y324500D02*Y322500D01*
X197500Y148000D02*X199500D01*
X198500Y149000D02*Y147000D01*
X197500Y113500D02*X199500D01*
X198500Y114500D02*Y112500D01*
X197500Y78500D02*X199500D01*
X198500Y79500D02*Y77500D01*
X197500Y43500D02*X199500D01*
X198500Y44500D02*Y42500D01*
X197500Y8500D02*X199500D01*
X198500Y9500D02*Y7500D01*
G54D60*X116500Y398000D02*Y388000D01*
X126500D01*
Y398000D01*
X116500D01*
Y408000D02*Y398000D01*
X126500D01*
Y408000D01*
X116500D01*
G54D62*X129700Y407600D02*X138300D01*
G54D60*X129700D02*X128500Y405200D01*
Y389400D01*
X139500D01*
Y405200D02*Y389400D01*
Y405200D02*X138300Y407600D01*
X177745Y402393D02*Y401607D01*
X183255Y402393D02*Y401607D01*
X147020Y406750D02*X157650D01*
X147020Y388250D02*X157650D01*
Y406750D02*Y403500D01*
Y391500D02*Y388250D01*
X147020Y406750D02*Y406571D01*
Y388429D02*Y388250D01*
X186500Y398000D02*Y388000D01*
X196500D01*
Y398000D01*
X186500D01*
X165500Y410000D02*Y400000D01*
X175500D01*
Y410000D01*
X165500D01*
X165200Y387000D02*X184900D01*
X165200Y395000D02*X184900D01*
X165200Y387000D02*Y395000D01*
X184900Y387000D02*Y395000D01*
X172000Y387000D02*Y395000D01*
X207740Y400362D02*Y395638D01*
X200260Y400362D02*Y395638D01*
X191607Y408255D02*X192393D01*
X191607Y402745D02*X192393D01*
X116500Y363000D02*Y353000D01*
X126500D01*
Y363000D01*
X116500D01*
Y373000D02*Y363000D01*
X126500D01*
Y373000D01*
X116500D01*
X116400Y369400D02*Y355500D01*
X104600Y369400D02*X116400D01*
X104600D02*Y355500D01*
X116400D01*
G54D62*X129700Y372600D02*X138300D01*
G54D60*X129700D02*X128500Y370200D01*
Y354400D01*
X139500D01*
Y370200D02*Y354400D01*
Y370200D02*X138300Y372600D01*
X147020Y371750D02*X157650D01*
X147020Y353250D02*X157650D01*
Y371750D02*Y368500D01*
Y356500D02*Y353250D01*
X147020Y371750D02*Y371571D01*
Y353429D02*Y353250D01*
X177745Y367393D02*Y366607D01*
X183255Y367393D02*Y366607D01*
X177745Y332393D02*Y331607D01*
X183255Y332393D02*Y331607D01*
X186500Y363000D02*Y353000D01*
X196500D01*
Y363000D01*
X186500D01*
X191607Y373255D02*X192393D01*
X191607Y367745D02*X192393D01*
X186500Y328000D02*Y318000D01*
X196500D01*
Y328000D01*
X186500D01*
X191607Y338255D02*X192393D01*
X191607Y332745D02*X192393D01*
X165500Y375000D02*Y365000D01*
X175500D01*
Y375000D01*
X165500D01*
Y340000D02*Y330000D01*
X175500D01*
Y340000D01*
X165500D01*
X165200Y317000D02*X184900D01*
X165200Y325000D02*X184900D01*
X165200Y317000D02*Y325000D01*
X184900Y317000D02*Y325000D01*
X172000Y317000D02*Y325000D01*
X147020Y336750D02*X157650D01*
X147020Y318250D02*X157650D01*
Y336750D02*Y333500D01*
Y321500D02*Y318250D01*
X147020Y336750D02*Y336571D01*
Y318429D02*Y318250D01*
X165200Y352000D02*X184900D01*
X165200Y360000D02*X184900D01*
X165200Y352000D02*Y360000D01*
X184900Y352000D02*Y360000D01*
X172000Y352000D02*Y360000D01*
X207740Y365362D02*Y360638D01*
X200260Y365362D02*Y360638D01*
X207740Y330362D02*Y325638D01*
X200260Y330362D02*Y325638D01*
X177745Y297393D02*Y296607D01*
X183255Y297393D02*Y296607D01*
X186500Y293000D02*Y283000D01*
X196500D01*
Y293000D01*
X186500D01*
X165200Y282000D02*X184900D01*
X165200Y290000D02*X184900D01*
X165200Y282000D02*Y290000D01*
X184900Y282000D02*Y290000D01*
X172000Y282000D02*Y290000D01*
X207740Y295362D02*Y290638D01*
X200260Y295362D02*Y290638D01*
X191607Y303255D02*X192393D01*
X191607Y297745D02*X192393D01*
X165500Y305000D02*Y295000D01*
X175500D01*
Y305000D01*
X165500D01*
X147020Y301750D02*X157650D01*
X147020Y283250D02*X157650D01*
Y301750D02*Y298500D01*
Y286500D02*Y283250D01*
X147020Y301750D02*Y301571D01*
Y283429D02*Y283250D01*
X186500Y258000D02*Y248000D01*
X196500D01*
Y258000D01*
X186500D01*
X207740Y260362D02*Y255638D01*
X200260Y260362D02*Y255638D01*
X191607Y268255D02*X192393D01*
X191607Y262745D02*X192393D01*
X165500Y270000D02*Y260000D01*
X175500D01*
Y270000D01*
X165500D01*
X147020Y266750D02*X157650D01*
X147020Y248250D02*X157650D01*
Y266750D02*Y263500D01*
Y251500D02*Y248250D01*
X147020Y266750D02*Y266571D01*
Y248429D02*Y248250D01*
X116400Y404400D02*Y390500D01*
X104600Y404400D02*X116400D01*
X104600D02*Y390500D01*
X116400D01*
X50107Y402745D02*X50893D01*
X50107Y408255D02*X50893D01*
X66000Y400000D02*X76000D01*
Y410000D02*Y400000D01*
X66000Y410000D02*X76000D01*
X66000D02*Y400000D01*
X44934Y398488D02*Y387512D01*
X76066D01*
Y398488D02*Y387512D01*
X44934Y398488D02*X58000D01*
X63000D02*X76066D01*
X58000D02*G75*G03X63000Y398488I2500J0D01*G01*
X44934Y363488D02*Y352512D01*
X76066D01*
Y363488D02*Y352512D01*
X44934Y363488D02*X58000D01*
X63000D02*X76066D01*
X58000D02*G75*G03X63000Y363488I2500J0D01*G01*
X50107Y367745D02*X50893D01*
X50107Y373255D02*X50893D01*
X66000Y365000D02*X76000D01*
Y375000D02*Y365000D01*
X66000Y375000D02*X76000D01*
X66000D02*Y365000D01*
X8337Y318232D02*G75*G03X8337Y318232I-500J0D01*G01*
X16107Y323255D02*X16893D01*
X16107Y317745D02*X16893D01*
X16107Y330755D02*X16893D01*
X16107Y325245D02*X16893D01*
X16107Y338255D02*X16893D01*
X16107Y332745D02*X16893D01*
X28610Y333799D02*Y321201D01*
Y333799D02*X42390D01*
Y321201D01*
X28610D02*X42390D01*
X28610Y298799D02*Y286201D01*
Y298799D02*X42390D01*
Y286201D01*
X28610D02*X42390D01*
X16107Y288255D02*X16893D01*
X16107Y282745D02*X16893D01*
X16107Y295755D02*X16893D01*
X16107Y290245D02*X16893D01*
X16107Y303255D02*X16893D01*
X16107Y297745D02*X16893D01*
X8337Y388232D02*G75*G03X8337Y388232I-500J0D01*G01*
Y353232D02*G75*G03X8337Y353232I-500J0D01*G01*
Y283232D02*G75*G03X8337Y283232I-500J0D01*G01*
X28610Y403799D02*Y391201D01*
Y403799D02*X42390D01*
Y391201D01*
X28610D02*X42390D01*
X28610Y368799D02*Y356201D01*
Y368799D02*X42390D01*
Y356201D01*
X28610D02*X42390D01*
X16107Y393255D02*X16893D01*
X16107Y387745D02*X16893D01*
X16107Y358255D02*X16893D01*
X16107Y352745D02*X16893D01*
X16107Y365755D02*X16893D01*
X16107Y360245D02*X16893D01*
X16107Y373255D02*X16893D01*
X16107Y367745D02*X16893D01*
X16107Y400755D02*X16893D01*
X16107Y395245D02*X16893D01*
X16107Y408255D02*X16893D01*
X16107Y402745D02*X16893D01*
X116500Y258000D02*Y248000D01*
X126500D01*
Y258000D01*
X116500D01*
Y223000D02*Y213000D01*
X126500D01*
Y223000D01*
X116500D01*
Y233000D02*Y223000D01*
X126500D01*
Y233000D01*
X116500D01*
X116400Y229400D02*Y215500D01*
X104600Y229400D02*X116400D01*
X104600D02*Y215500D01*
X116400D01*
G54D62*X129700Y232600D02*X138300D01*
G54D60*X129700D02*X128500Y230200D01*
Y214400D01*
X139500D01*
Y230200D02*Y214400D01*
Y230200D02*X138300Y232600D01*
X116500Y268000D02*Y258000D01*
X126500D01*
Y268000D01*
X116500D01*
G54D62*X129700Y267600D02*X138300D01*
G54D60*X129700D02*X128500Y265200D01*
Y249400D01*
X139500D01*
Y265200D02*Y249400D01*
Y265200D02*X138300Y267600D01*
X116400Y264400D02*Y250500D01*
X104600Y264400D02*X116400D01*
X104600D02*Y250500D01*
X116400D01*
X44934Y258488D02*Y247512D01*
X76066D01*
Y258488D02*Y247512D01*
X44934Y258488D02*X58000D01*
X63000D02*X76066D01*
X58000D02*G75*G03X63000Y258488I2500J0D01*G01*
X50107Y262745D02*X50893D01*
X50107Y268255D02*X50893D01*
X8337Y248232D02*G75*G03X8337Y248232I-500J0D01*G01*
X16107Y253255D02*X16893D01*
X16107Y247745D02*X16893D01*
X16107Y260755D02*X16893D01*
X16107Y255245D02*X16893D01*
X16107Y268255D02*X16893D01*
X16107Y262745D02*X16893D01*
X28610Y263799D02*Y251201D01*
Y263799D02*X42390D01*
Y251201D01*
X28610D02*X42390D01*
X28610Y228799D02*Y216201D01*
Y228799D02*X42390D01*
Y216201D01*
X28610D02*X42390D01*
X16107Y218255D02*X16893D01*
X16107Y212745D02*X16893D01*
X16107Y225755D02*X16893D01*
X16107Y220245D02*X16893D01*
X16107Y233255D02*X16893D01*
X16107Y227745D02*X16893D01*
X116500Y328000D02*Y318000D01*
X126500D01*
Y328000D01*
X116500D01*
Y293000D02*Y283000D01*
X126500D01*
Y293000D01*
X116500D01*
Y303000D02*Y293000D01*
X126500D01*
Y303000D01*
X116500D01*
X116400Y299400D02*Y285500D01*
X104600Y299400D02*X116400D01*
X104600D02*Y285500D01*
X116400D01*
G54D62*X129700Y302600D02*X138300D01*
G54D60*X129700D02*X128500Y300200D01*
Y284400D01*
X139500D01*
Y300200D02*Y284400D01*
Y300200D02*X138300Y302600D01*
X116500Y338000D02*Y328000D01*
X126500D01*
Y338000D01*
X116500D01*
G54D62*X129700Y337600D02*X138300D01*
G54D60*X129700D02*X128500Y335200D01*
Y319400D01*
X139500D01*
Y335200D02*Y319400D01*
Y335200D02*X138300Y337600D01*
X116400Y334400D02*Y320500D01*
X104600Y334400D02*X116400D01*
X104600D02*Y320500D01*
X116400D01*
X44934Y328488D02*Y317512D01*
X76066D01*
Y328488D02*Y317512D01*
X44934Y328488D02*X58000D01*
X63000D02*X76066D01*
X58000D02*G75*G03X63000Y328488I2500J0D01*G01*
X50107Y332745D02*X50893D01*
X50107Y338255D02*X50893D01*
X66000Y330000D02*X76000D01*
Y340000D02*Y330000D01*
X66000Y340000D02*X76000D01*
X66000D02*Y330000D01*
X44934Y293488D02*Y282512D01*
X76066D01*
Y293488D02*Y282512D01*
X44934Y293488D02*X58000D01*
X63000D02*X76066D01*
X58000D02*G75*G03X63000Y293488I2500J0D01*G01*
X50107Y297745D02*X50893D01*
X50107Y303255D02*X50893D01*
X66000Y295000D02*X76000D01*
Y305000D02*Y295000D01*
X66000Y305000D02*X76000D01*
X66000D02*Y295000D01*
Y260000D02*X76000D01*
Y270000D02*Y260000D01*
X66000Y270000D02*X76000D01*
X66000D02*Y260000D01*
Y225000D02*X76000D01*
Y235000D02*Y225000D01*
X66000Y235000D02*X76000D01*
X66000D02*Y225000D01*
Y190000D02*X76000D01*
Y200000D02*Y190000D01*
X66000Y200000D02*X76000D01*
X66000D02*Y190000D01*
Y154500D02*X76000D01*
Y164500D02*Y154500D01*
X66000Y164500D02*X76000D01*
X66000D02*Y154500D01*
X177745Y262393D02*Y261607D01*
X183255Y262393D02*Y261607D01*
X177745Y227393D02*Y226607D01*
X183255Y227393D02*Y226607D01*
X191607Y233255D02*X192393D01*
X191607Y227745D02*X192393D01*
X165200Y247000D02*X184900D01*
X165200Y255000D02*X184900D01*
X165200Y247000D02*Y255000D01*
X184900Y247000D02*Y255000D01*
X172000Y247000D02*Y255000D01*
X165500Y235000D02*Y225000D01*
X175500D01*
Y235000D01*
X165500D01*
X165200Y212000D02*X184900D01*
X165200Y220000D02*X184900D01*
X165200Y212000D02*Y220000D01*
X184900Y212000D02*Y220000D01*
X172000Y212000D02*Y220000D01*
X147020Y231750D02*X157650D01*
X147020Y213250D02*X157650D01*
Y231750D02*Y228500D01*
Y216500D02*Y213250D01*
X147020Y231750D02*Y231571D01*
Y213429D02*Y213250D01*
X186500Y223000D02*Y213000D01*
X196500D01*
Y223000D01*
X186500D01*
X207740Y225362D02*Y220638D01*
X200260Y225362D02*Y220638D01*
X177745Y192393D02*Y191607D01*
X183255Y192393D02*Y191607D01*
X186500Y188000D02*Y178000D01*
X196500D01*
Y188000D01*
X186500D01*
X207740Y190362D02*Y185638D01*
X200260Y190362D02*Y185638D01*
X191607Y198255D02*X192393D01*
X191607Y192745D02*X192393D01*
X165500Y200000D02*Y190000D01*
X175500D01*
Y200000D01*
X165500D01*
X165200Y177000D02*X184900D01*
X165200Y185000D02*X184900D01*
X165200Y177000D02*Y185000D01*
X184900Y177000D02*Y185000D01*
X172000Y177000D02*Y185000D01*
X165500Y164500D02*Y154500D01*
X175500D01*
Y164500D01*
X165500D01*
X147020Y196750D02*X157650D01*
X147020Y178250D02*X157650D01*
Y196750D02*Y193500D01*
Y181500D02*Y178250D01*
X147020Y196750D02*Y196571D01*
Y178429D02*Y178250D01*
X177745Y156893D02*Y156107D01*
X183255Y156893D02*Y156107D01*
X186500Y152500D02*Y142500D01*
X196500D01*
Y152500D01*
X186500D01*
X165200Y141500D02*X184900D01*
X165200Y149500D02*X184900D01*
X165200Y141500D02*Y149500D01*
X184900Y141500D02*Y149500D01*
X172000Y141500D02*Y149500D01*
X207740Y154862D02*Y150138D01*
X200260Y154862D02*Y150138D01*
X191607Y162755D02*X192393D01*
X191607Y157245D02*X192393D01*
X147020Y161250D02*X157650D01*
X147020Y142750D02*X157650D01*
Y161250D02*Y158000D01*
Y146000D02*Y142750D01*
X147020Y161250D02*Y161071D01*
Y142929D02*Y142750D01*
X177745Y122393D02*Y121607D01*
X183255Y122393D02*Y121607D01*
X186500Y118000D02*Y108000D01*
X196500D01*
Y118000D01*
X186500D01*
X165200Y107000D02*X184900D01*
X165200Y115000D02*X184900D01*
X165200Y107000D02*Y115000D01*
X184900Y107000D02*Y115000D01*
X172000Y107000D02*Y115000D01*
X207740Y120362D02*Y115638D01*
X200260Y120362D02*Y115638D01*
X191607Y128255D02*X192393D01*
X191607Y122745D02*X192393D01*
X165500Y130000D02*Y120000D01*
X175500D01*
Y130000D01*
X165500D01*
X147020Y126750D02*X157650D01*
X147020Y108250D02*X157650D01*
Y126750D02*Y123500D01*
Y111500D02*Y108250D01*
X147020Y126750D02*Y126571D01*
Y108429D02*Y108250D01*
X177745Y87393D02*Y86607D01*
X183255Y87393D02*Y86607D01*
X165500Y95000D02*Y85000D01*
X175500D01*
Y95000D01*
X165500D01*
X165200Y72000D02*X184900D01*
X165200Y80000D02*X184900D01*
X165200Y72000D02*Y80000D01*
X184900Y72000D02*Y80000D01*
X172000Y72000D02*Y80000D01*
X147020Y91750D02*X157650D01*
X147020Y73250D02*X157650D01*
Y91750D02*Y88500D01*
Y76500D02*Y73250D01*
X147020Y91750D02*Y91571D01*
Y73429D02*Y73250D01*
X186500Y83000D02*Y73000D01*
X196500D01*
Y83000D01*
X186500D01*
X207740Y85362D02*Y80638D01*
X200260Y85362D02*Y80638D01*
X191607Y93255D02*X192393D01*
X191607Y87745D02*X192393D01*
X147020Y56750D02*X157650D01*
X147020Y38250D02*X157650D01*
Y56750D02*Y53500D01*
Y41500D02*Y38250D01*
X147020Y56750D02*Y56571D01*
Y38429D02*Y38250D01*
X177745Y52393D02*Y51607D01*
X183255Y52393D02*Y51607D01*
X186500Y48000D02*Y38000D01*
X196500D01*
Y48000D01*
X186500D01*
X165500Y60000D02*Y50000D01*
X175500D01*
Y60000D01*
X165500D01*
X165200Y37000D02*X184900D01*
X165200Y45000D02*X184900D01*
X165200Y37000D02*Y45000D01*
X184900Y37000D02*Y45000D01*
X172000Y37000D02*Y45000D01*
X207740Y50362D02*Y45638D01*
X200260Y50362D02*Y45638D01*
X191607Y58255D02*X192393D01*
X191607Y52745D02*X192393D01*
X177745Y17393D02*Y16607D01*
X183255Y17393D02*Y16607D01*
X186500Y13000D02*Y3000D01*
X196500D01*
Y13000D01*
X186500D01*
X165500Y25000D02*Y15000D01*
X175500D01*
Y25000D01*
X165500D01*
X191607Y23255D02*X192393D01*
X191607Y17745D02*X192393D01*
X147020Y21750D02*X157650D01*
X147020Y3250D02*X157650D01*
Y21750D02*Y18500D01*
Y6500D02*Y3250D01*
X147020Y21750D02*Y21571D01*
Y3429D02*Y3250D01*
X66000Y15000D02*X76000D01*
Y25000D02*Y15000D01*
X66000Y25000D02*X76000D01*
X66000D02*Y15000D01*
X165200Y2000D02*X184900D01*
X165200Y10000D02*X184900D01*
X165200Y2000D02*Y10000D01*
X184900Y2000D02*Y10000D01*
X172000Y2000D02*Y10000D01*
X207740Y15362D02*Y10638D01*
X200260Y15362D02*Y10638D01*
X8337Y178232D02*G75*G03X8337Y178232I-500J0D01*G01*
X16107Y183255D02*X16893D01*
X16107Y177745D02*X16893D01*
X16107Y190755D02*X16893D01*
X16107Y185245D02*X16893D01*
X16107Y198255D02*X16893D01*
X16107Y192745D02*X16893D01*
X28610Y193799D02*Y181201D01*
Y193799D02*X42390D01*
Y181201D01*
X28610D02*X42390D01*
X28610Y158299D02*Y145701D01*
Y158299D02*X42390D01*
Y145701D01*
X28610D02*X42390D01*
X16107Y147755D02*X16893D01*
X16107Y142245D02*X16893D01*
X16107Y155255D02*X16893D01*
X16107Y149745D02*X16893D01*
X16107Y162755D02*X16893D01*
X16107Y157245D02*X16893D01*
X116500Y188000D02*Y178000D01*
X126500D01*
Y188000D01*
X116500D01*
Y198000D02*Y188000D01*
X126500D01*
Y198000D01*
X116500D01*
X116400Y194400D02*Y180500D01*
X104600Y194400D02*X116400D01*
X104600D02*Y180500D01*
X116400D01*
G54D62*X129700Y197600D02*X138300D01*
G54D60*X129700D02*X128500Y195200D01*
Y179400D01*
X139500D01*
Y195200D02*Y179400D01*
Y195200D02*X138300Y197600D01*
X116500Y152500D02*Y142500D01*
X126500D01*
Y152500D01*
X116500D01*
X116400Y158900D02*Y145000D01*
X104600Y158900D02*X116400D01*
X104600D02*Y145000D01*
X116400D01*
X44934Y152988D02*Y142012D01*
X76066D01*
Y152988D02*Y142012D01*
X44934Y152988D02*X58000D01*
X63000D02*X76066D01*
X58000D02*G75*G03X63000Y152988I2500J0D01*G01*
X50107Y157245D02*X50893D01*
X50107Y162755D02*X50893D01*
X116500Y162500D02*Y152500D01*
X126500D01*
Y162500D01*
X116500D01*
G54D62*X129700Y162100D02*X138300D01*
G54D60*X129700D02*X128500Y159700D01*
Y143900D01*
X139500D01*
Y159700D02*Y143900D01*
Y159700D02*X138300Y162100D01*
X116500Y118000D02*Y108000D01*
X126500D01*
Y118000D01*
X116500D01*
Y128000D02*Y118000D01*
X126500D01*
Y128000D01*
X116500D01*
X116400Y124400D02*Y110500D01*
X104600Y124400D02*X116400D01*
X104600D02*Y110500D01*
X116400D01*
X44934Y118488D02*Y107512D01*
X76066D01*
Y118488D02*Y107512D01*
X44934Y118488D02*X58000D01*
X63000D02*X76066D01*
X58000D02*G75*G03X63000Y118488I2500J0D01*G01*
X50107Y122745D02*X50893D01*
X50107Y128255D02*X50893D01*
X66000Y120000D02*X76000D01*
Y130000D02*Y120000D01*
X66000Y130000D02*X76000D01*
X66000D02*Y120000D01*
G54D62*X129700Y127600D02*X138300D01*
G54D60*X129700D02*X128500Y125200D01*
Y109400D01*
X139500D01*
Y125200D02*Y109400D01*
Y125200D02*X138300Y127600D01*
X116500Y83000D02*Y73000D01*
X126500D01*
Y83000D01*
X116500D01*
Y93000D02*Y83000D01*
X126500D01*
Y93000D01*
X116500D01*
X116400Y89400D02*Y75500D01*
X104600Y89400D02*X116400D01*
X104600D02*Y75500D01*
X116400D01*
G54D62*X129700Y92600D02*X138300D01*
G54D60*X129700D02*X128500Y90200D01*
Y74400D01*
X139500D01*
Y90200D02*Y74400D01*
Y90200D02*X138300Y92600D01*
X44934Y223488D02*Y212512D01*
X76066D01*
Y223488D02*Y212512D01*
X44934Y223488D02*X58000D01*
X63000D02*X76066D01*
X58000D02*G75*G03X63000Y223488I2500J0D01*G01*
X50107Y227745D02*X50893D01*
X50107Y233255D02*X50893D01*
X44934Y188488D02*Y177512D01*
X76066D01*
Y188488D02*Y177512D01*
X44934Y188488D02*X58000D01*
X63000D02*X76066D01*
X58000D02*G75*G03X63000Y188488I2500J0D01*G01*
X50107Y192745D02*X50893D01*
X50107Y198255D02*X50893D01*
X8337Y108232D02*G75*G03X8337Y108232I-500J0D01*G01*
X16107Y113255D02*X16893D01*
X16107Y107745D02*X16893D01*
X16107Y120755D02*X16893D01*
X16107Y115245D02*X16893D01*
X16107Y128255D02*X16893D01*
X16107Y122745D02*X16893D01*
X28610Y123799D02*Y111201D01*
Y123799D02*X42390D01*
Y111201D01*
X28610D02*X42390D01*
X28610Y88799D02*Y76201D01*
Y88799D02*X42390D01*
Y76201D01*
X28610D02*X42390D01*
X16107Y78255D02*X16893D01*
X16107Y72745D02*X16893D01*
X16107Y85755D02*X16893D01*
X16107Y80245D02*X16893D01*
X16107Y93255D02*X16893D01*
X16107Y87745D02*X16893D01*
X8337Y38232D02*G75*G03X8337Y38232I-500J0D01*G01*
X16107Y43255D02*X16893D01*
X16107Y37745D02*X16893D01*
X16107Y50755D02*X16893D01*
X16107Y45245D02*X16893D01*
X16107Y58255D02*X16893D01*
X16107Y52745D02*X16893D01*
X28610Y53799D02*Y41201D01*
Y53799D02*X42390D01*
Y41201D01*
X28610D02*X42390D01*
X8337Y213232D02*G75*G03X8337Y213232I-500J0D01*G01*
Y142732D02*G75*G03X8337Y142732I-500J0D01*G01*
Y73232D02*G75*G03X8337Y73232I-500J0D01*G01*
Y3232D02*G75*G03X8337Y3232I-500J0D01*G01*
X28610Y18799D02*Y6201D01*
Y18799D02*X42390D01*
Y6201D01*
X28610D02*X42390D01*
X16107Y8255D02*X16893D01*
X16107Y2745D02*X16893D01*
X16107Y15755D02*X16893D01*
X16107Y10245D02*X16893D01*
X16107Y23255D02*X16893D01*
X16107Y17745D02*X16893D01*
X44934Y83488D02*Y72512D01*
X76066D01*
Y83488D02*Y72512D01*
X44934Y83488D02*X58000D01*
X63000D02*X76066D01*
X58000D02*G75*G03X63000Y83488I2500J0D01*G01*
X44934Y48488D02*Y37512D01*
X76066D01*
Y48488D02*Y37512D01*
X44934Y48488D02*X58000D01*
X63000D02*X76066D01*
X58000D02*G75*G03X63000Y48488I2500J0D01*G01*
X50107Y52745D02*X50893D01*
X50107Y58255D02*X50893D01*
X66000Y50000D02*X76000D01*
Y60000D02*Y50000D01*
X66000Y60000D02*X76000D01*
X66000D02*Y50000D01*
X50107Y87745D02*X50893D01*
X50107Y93255D02*X50893D01*
X66000Y85000D02*X76000D01*
Y95000D02*Y85000D01*
X66000Y95000D02*X76000D01*
X66000D02*Y85000D01*
X116500Y48000D02*Y38000D01*
X126500D01*
Y48000D01*
X116500D01*
Y58000D02*Y48000D01*
X126500D01*
Y58000D01*
X116500D01*
X116400Y54400D02*Y40500D01*
X104600Y54400D02*X116400D01*
X104600D02*Y40500D01*
X116400D01*
G54D62*X129700Y57600D02*X138300D01*
G54D60*X129700D02*X128500Y55200D01*
Y39400D01*
X139500D01*
Y55200D02*Y39400D01*
Y55200D02*X138300Y57600D01*
X116500Y13000D02*Y3000D01*
X126500D01*
Y13000D01*
X116500D01*
Y23000D02*Y13000D01*
X126500D01*
Y23000D01*
X116500D01*
X116400Y19400D02*Y5500D01*
X104600Y19400D02*X116400D01*
X104600D02*Y5500D01*
X116400D01*
X44934Y13488D02*Y2512D01*
X76066D01*
Y13488D02*Y2512D01*
X44934Y13488D02*X58000D01*
X63000D02*X76066D01*
X58000D02*G75*G03X63000Y13488I2500J0D01*G01*
X50107Y17745D02*X50893D01*
X50107Y23255D02*X50893D01*
G54D62*X129700Y22600D02*X138300D01*
G54D60*X129700D02*X128500Y20200D01*
Y4400D01*
X139500D01*
Y20200D02*Y4400D01*
Y20200D02*X138300Y22600D01*
G54D61*X39560Y405500D02*X40600D01*
X39000Y406060D02*X39560Y405500D01*
X39000Y408140D02*Y406060D01*
Y408140D02*X39560Y408700D01*
X40600D01*
X41560Y408300D02*X41960Y408700D01*
X42760D01*
X43160Y408300D01*
X42760Y405500D02*X43160Y405900D01*
X41960Y405500D02*X42760D01*
X41560Y405900D02*X41960Y405500D01*
Y407260D02*X42760D01*
X43160Y408300D02*Y407660D01*
Y406860D02*Y405900D01*
Y406860D02*X42760Y407260D01*
X43160Y407660D02*X42760Y407260D01*
X30500Y408200D02*X32100D01*
X32500Y407800D01*
Y407000D01*
X32100Y406600D02*X32500Y407000D01*
X30900Y406600D02*X32100D01*
X30900Y408200D02*Y405000D01*
X31540Y406600D02*X32500Y405000D01*
X33460Y407560D02*X34100Y408200D01*
Y405000D01*
X33460D02*X34660D01*
X24490D02*X25400D01*
X24000Y405490D02*X24490Y405000D01*
X24000Y407310D02*Y405490D01*
Y407310D02*X24490Y407800D01*
X25400D01*
X26240D02*X27640D01*
X26240D02*Y406400D01*
X26590Y406750D01*
X27290D01*
X27640Y406400D01*
Y405350D01*
X27290Y405000D02*X27640Y405350D01*
X26590Y405000D02*X27290D01*
X26240Y405350D02*X26590Y405000D01*
X24000Y390300D02*X25400D01*
X25750Y389950D01*
Y389250D01*
X25400Y388900D02*X25750Y389250D01*
X24350Y388900D02*X25400D01*
X24350Y390300D02*Y387500D01*
X24910Y388900D02*X25750Y387500D01*
X26590Y389950D02*X26940Y390300D01*
X27990D01*
X28340Y389950D01*
Y389250D01*
X26590Y387500D02*X28340Y389250D01*
X26590Y387500D02*X28340D01*
X23990Y396000D02*X24900D01*
X23500Y396490D02*X23990Y396000D01*
X23500Y398310D02*Y396490D01*
Y398310D02*X23990Y398800D01*
X24900D01*
X25740Y397050D02*X27140Y398800D01*
X25740Y397050D02*X27490D01*
X27140Y398800D02*Y396000D01*
X58500Y368200D02*Y365400D01*
X58900Y365000D01*
X59700D01*
X60100Y365400D01*
Y368200D02*Y365400D01*
X61060Y367800D02*X61460Y368200D01*
X62660D01*
X63060Y367800D01*
Y367000D01*
X61060Y365000D02*X63060Y367000D01*
X61060Y365000D02*X63060D01*
X39560Y370500D02*X40600D01*
X39000Y371060D02*X39560Y370500D01*
X39000Y373140D02*Y371060D01*
Y373140D02*X39560Y373700D01*
X40600D01*
X41560Y373300D02*X41960Y373700D01*
X42760D01*
X43160Y373300D01*
X42760Y370500D02*X43160Y370900D01*
X41960Y370500D02*X42760D01*
X41560Y370900D02*X41960Y370500D01*
Y372260D02*X42760D01*
X43160Y373300D02*Y372660D01*
Y371860D02*Y370900D01*
Y371860D02*X42760Y372260D01*
X43160Y372660D02*X42760Y372260D01*
X30500Y373200D02*X32100D01*
X32500Y372800D01*
Y372000D01*
X32100Y371600D02*X32500Y372000D01*
X30900Y371600D02*X32100D01*
X30900Y373200D02*Y370000D01*
X31540Y371600D02*X32500Y370000D01*
X33460Y372560D02*X34100Y373200D01*
Y370000D01*
X33460D02*X34660D01*
X24000Y355300D02*X25400D01*
X25750Y354950D01*
Y354250D01*
X25400Y353900D02*X25750Y354250D01*
X24350Y353900D02*X25400D01*
X24350Y355300D02*Y352500D01*
X24910Y353900D02*X25750Y352500D01*
X26590Y354950D02*X26940Y355300D01*
X27990D01*
X28340Y354950D01*
Y354250D01*
X26590Y352500D02*X28340Y354250D01*
X26590Y352500D02*X28340D01*
X23990Y361000D02*X24900D01*
X23500Y361490D02*X23990Y361000D01*
X23500Y363310D02*Y361490D01*
Y363310D02*X23990Y363800D01*
X24900D01*
X25740Y362050D02*X27140Y363800D01*
X25740Y362050D02*X27490D01*
X27140Y363800D02*Y361000D01*
X24490Y370000D02*X25400D01*
X24000Y370490D02*X24490Y370000D01*
X24000Y372310D02*Y370490D01*
Y372310D02*X24490Y372800D01*
X25400D01*
X26240D02*X27640D01*
X26240D02*Y371400D01*
X26590Y371750D01*
X27290D01*
X27640Y371400D01*
Y370350D01*
X27290Y370000D02*X27640Y370350D01*
X26590Y370000D02*X27290D01*
X26240Y370350D02*X26590Y370000D01*
X30500Y338200D02*X32100D01*
X32500Y337800D01*
Y337000D01*
X32100Y336600D02*X32500Y337000D01*
X30900Y336600D02*X32100D01*
X30900Y338200D02*Y335000D01*
X31540Y336600D02*X32500Y335000D01*
X33460Y337560D02*X34100Y338200D01*
Y335000D01*
X33460D02*X34660D01*
X24490D02*X25400D01*
X24000Y335490D02*X24490Y335000D01*
X24000Y337310D02*Y335490D01*
Y337310D02*X24490Y337800D01*
X25400D01*
X26240D02*X27640D01*
X26240D02*Y336400D01*
X26590Y336750D01*
X27290D01*
X27640Y336400D01*
Y335350D01*
X27290Y335000D02*X27640Y335350D01*
X26590Y335000D02*X27290D01*
X26240Y335350D02*X26590Y335000D01*
X58500Y403200D02*Y400400D01*
X58900Y400000D01*
X59700D01*
X60100Y400400D01*
Y403200D02*Y400400D01*
X61060Y402800D02*X61460Y403200D01*
X62660D01*
X63060Y402800D01*
Y402000D01*
X61060Y400000D02*X63060Y402000D01*
X61060Y400000D02*X63060D01*
X184920Y399000D02*X185700D01*
X184500Y399420D02*X184920Y399000D01*
X184500Y400980D02*Y399420D01*
Y400980D02*X184920Y401400D01*
X185700D01*
X186420Y400920D02*X186900Y401400D01*
Y399000D01*
X186420D02*X187320D01*
X189850Y401550D02*X191050D01*
X191350Y401250D01*
Y400650D01*
X191050Y400350D02*X191350Y400650D01*
X190150Y400350D02*X191050D01*
X190150Y401550D02*Y399150D01*
X190630Y400350D02*X191350Y399150D01*
X192070Y401250D02*X192370Y401550D01*
X192970D01*
X193270Y401250D01*
X192970Y399150D02*X193270Y399450D01*
X192370Y399150D02*X192970D01*
X192070Y399450D02*X192370Y399150D01*
Y400470D02*X192970D01*
X193270Y401250D02*Y400770D01*
Y400170D02*Y399450D01*
Y400170D02*X192970Y400470D01*
X193270Y400770D02*X192970Y400470D01*
X184920Y364000D02*X185700D01*
X184500Y364420D02*X184920Y364000D01*
X184500Y365980D02*Y364420D01*
Y365980D02*X184920Y366400D01*
X185700D01*
X186420Y365920D02*X186900Y366400D01*
Y364000D01*
X186420D02*X187320D01*
X173900Y357700D02*Y354500D01*
X174940Y357700D02*X175500Y357140D01*
Y355060D01*
X174940Y354500D02*X175500Y355060D01*
X173500Y354500D02*X174940D01*
X173500Y357700D02*X174940D01*
X176460Y357060D02*X177100Y357700D01*
Y354500D01*
X176460D02*X177660D01*
X189850Y366550D02*X191050D01*
X191350Y366250D01*
Y365650D01*
X191050Y365350D02*X191350Y365650D01*
X190150Y365350D02*X191050D01*
X190150Y366550D02*Y364150D01*
X190630Y365350D02*X191350Y364150D01*
X192070Y366250D02*X192370Y366550D01*
X192970D01*
X193270Y366250D01*
X192970Y364150D02*X193270Y364450D01*
X192370Y364150D02*X192970D01*
X192070Y364450D02*X192370Y364150D01*
Y365470D02*X192970D01*
X193270Y366250D02*Y365770D01*
Y365170D02*Y364450D01*
Y365170D02*X192970Y365470D01*
X193270Y365770D02*X192970Y365470D01*
X159500Y372200D02*Y369400D01*
X159900Y369000D01*
X160700D01*
X161100Y369400D01*
Y372200D02*Y369400D01*
X162060Y371560D02*X162700Y372200D01*
Y369000D01*
X162060D02*X163260D01*
X173900Y392700D02*Y389500D01*
X174940Y392700D02*X175500Y392140D01*
Y390060D01*
X174940Y389500D02*X175500Y390060D01*
X173500Y389500D02*X174940D01*
X173500Y392700D02*X174940D01*
X176460Y392060D02*X177100Y392700D01*
Y389500D01*
X176460D02*X177660D01*
X159500Y407200D02*Y404400D01*
X159900Y404000D01*
X160700D01*
X161100Y404400D01*
Y407200D02*Y404400D01*
X162060Y406560D02*X162700Y407200D01*
Y404000D01*
X162060D02*X163260D01*
X184920Y329000D02*X185700D01*
X184500Y329420D02*X184920Y329000D01*
X184500Y330980D02*Y329420D01*
Y330980D02*X184920Y331400D01*
X185700D01*
X186420Y330920D02*X186900Y331400D01*
Y329000D01*
X186420D02*X187320D01*
X189850Y331550D02*X191050D01*
X191350Y331250D01*
Y330650D01*
X191050Y330350D02*X191350Y330650D01*
X190150Y330350D02*X191050D01*
X190150Y331550D02*Y329150D01*
X190630Y330350D02*X191350Y329150D01*
X192070Y331250D02*X192370Y331550D01*
X192970D01*
X193270Y331250D01*
X192970Y329150D02*X193270Y329450D01*
X192370Y329150D02*X192970D01*
X192070Y329450D02*X192370Y329150D01*
Y330470D02*X192970D01*
X193270Y331250D02*Y330770D01*
Y330170D02*Y329450D01*
Y330170D02*X192970Y330470D01*
X193270Y330770D02*X192970Y330470D01*
X159500Y337200D02*Y334400D01*
X159900Y334000D01*
X160700D01*
X161100Y334400D01*
Y337200D02*Y334400D01*
X162060Y336560D02*X162700Y337200D01*
Y334000D01*
X162060D02*X163260D01*
X173900Y322700D02*Y319500D01*
X174940Y322700D02*X175500Y322140D01*
Y320060D01*
X174940Y319500D02*X175500Y320060D01*
X173500Y319500D02*X174940D01*
X173500Y322700D02*X174940D01*
X176460Y322060D02*X177100Y322700D01*
Y319500D01*
X176460D02*X177660D01*
X189850Y296550D02*X191050D01*
X191350Y296250D01*
Y295650D01*
X191050Y295350D02*X191350Y295650D01*
X190150Y295350D02*X191050D01*
X190150Y296550D02*Y294150D01*
X190630Y295350D02*X191350Y294150D01*
X192070Y296250D02*X192370Y296550D01*
X192970D01*
X193270Y296250D01*
X192970Y294150D02*X193270Y294450D01*
X192370Y294150D02*X192970D01*
X192070Y294450D02*X192370Y294150D01*
Y295470D02*X192970D01*
X193270Y296250D02*Y295770D01*
Y295170D02*Y294450D01*
Y295170D02*X192970Y295470D01*
X193270Y295770D02*X192970Y295470D01*
X184920Y294000D02*X185700D01*
X184500Y294420D02*X184920Y294000D01*
X184500Y295980D02*Y294420D01*
Y295980D02*X184920Y296400D01*
X185700D01*
X186420Y295920D02*X186900Y296400D01*
Y294000D01*
X186420D02*X187320D01*
X173900Y287700D02*Y284500D01*
X174940Y287700D02*X175500Y287140D01*
Y285060D01*
X174940Y284500D02*X175500Y285060D01*
X173500Y284500D02*X174940D01*
X173500Y287700D02*X174940D01*
X176460Y287060D02*X177100Y287700D01*
Y284500D01*
X176460D02*X177660D01*
X159500Y302200D02*Y299400D01*
X159900Y299000D01*
X160700D01*
X161100Y299400D01*
Y302200D02*Y299400D01*
X162060Y301560D02*X162700Y302200D01*
Y299000D01*
X162060D02*X163260D01*
X184920Y259000D02*X185700D01*
X184500Y259420D02*X184920Y259000D01*
X184500Y260980D02*Y259420D01*
Y260980D02*X184920Y261400D01*
X185700D01*
X186420Y260920D02*X186900Y261400D01*
Y259000D01*
X186420D02*X187320D01*
X189850Y261550D02*X191050D01*
X191350Y261250D01*
Y260650D01*
X191050Y260350D02*X191350Y260650D01*
X190150Y260350D02*X191050D01*
X190150Y261550D02*Y259150D01*
X190630Y260350D02*X191350Y259150D01*
X192070Y261250D02*X192370Y261550D01*
X192970D01*
X193270Y261250D01*
X192970Y259150D02*X193270Y259450D01*
X192370Y259150D02*X192970D01*
X192070Y259450D02*X192370Y259150D01*
Y260470D02*X192970D01*
X193270Y261250D02*Y260770D01*
Y260170D02*Y259450D01*
Y260170D02*X192970Y260470D01*
X193270Y260770D02*X192970Y260470D01*
X159500Y267200D02*Y264400D01*
X159900Y264000D01*
X160700D01*
X161100Y264400D01*
Y267200D02*Y264400D01*
X162060Y266560D02*X162700Y267200D01*
Y264000D01*
X162060D02*X163260D01*
X173900Y252700D02*Y249500D01*
X174940Y252700D02*X175500Y252140D01*
Y250060D01*
X174940Y249500D02*X175500Y250060D01*
X173500Y249500D02*X174940D01*
X173500Y252700D02*X174940D01*
X176460Y252060D02*X177100Y252700D01*
Y249500D01*
X176460D02*X177660D01*
X159500Y92200D02*Y89400D01*
X159900Y89000D01*
X160700D01*
X161100Y89400D01*
Y92200D02*Y89400D01*
X162060Y91560D02*X162700Y92200D01*
Y89000D01*
X162060D02*X163260D01*
X39560Y335500D02*X40600D01*
X39000Y336060D02*X39560Y335500D01*
X39000Y338140D02*Y336060D01*
Y338140D02*X39560Y338700D01*
X40600D01*
X41560Y338300D02*X41960Y338700D01*
X42760D01*
X43160Y338300D01*
X42760Y335500D02*X43160Y335900D01*
X41960Y335500D02*X42760D01*
X41560Y335900D02*X41960Y335500D01*
Y337260D02*X42760D01*
X43160Y338300D02*Y337660D01*
Y336860D02*Y335900D01*
Y336860D02*X42760Y337260D01*
X43160Y337660D02*X42760Y337260D01*
X39560Y300500D02*X40600D01*
X39000Y301060D02*X39560Y300500D01*
X39000Y303140D02*Y301060D01*
Y303140D02*X39560Y303700D01*
X40600D01*
X41560Y303300D02*X41960Y303700D01*
X42760D01*
X43160Y303300D01*
X42760Y300500D02*X43160Y300900D01*
X41960Y300500D02*X42760D01*
X41560Y300900D02*X41960Y300500D01*
Y302260D02*X42760D01*
X43160Y303300D02*Y302660D01*
Y301860D02*Y300900D01*
Y301860D02*X42760Y302260D01*
X43160Y302660D02*X42760Y302260D01*
X39560Y265500D02*X40600D01*
X39000Y266060D02*X39560Y265500D01*
X39000Y268140D02*Y266060D01*
Y268140D02*X39560Y268700D01*
X40600D01*
X41560Y268300D02*X41960Y268700D01*
X42760D01*
X43160Y268300D01*
X42760Y265500D02*X43160Y265900D01*
X41960Y265500D02*X42760D01*
X41560Y265900D02*X41960Y265500D01*
Y267260D02*X42760D01*
X43160Y268300D02*Y267660D01*
Y266860D02*Y265900D01*
Y266860D02*X42760Y267260D01*
X43160Y267660D02*X42760Y267260D01*
X39560Y195500D02*X40600D01*
X39000Y196060D02*X39560Y195500D01*
X39000Y198140D02*Y196060D01*
Y198140D02*X39560Y198700D01*
X40600D01*
X41560Y198300D02*X41960Y198700D01*
X42760D01*
X43160Y198300D01*
X42760Y195500D02*X43160Y195900D01*
X41960Y195500D02*X42760D01*
X41560Y195900D02*X41960Y195500D01*
Y197260D02*X42760D01*
X43160Y198300D02*Y197660D01*
Y196860D02*Y195900D01*
Y196860D02*X42760Y197260D01*
X43160Y197660D02*X42760Y197260D01*
X39560Y160000D02*X40600D01*
X39000Y160560D02*X39560Y160000D01*
X39000Y162640D02*Y160560D01*
Y162640D02*X39560Y163200D01*
X40600D01*
X41560Y162800D02*X41960Y163200D01*
X42760D01*
X43160Y162800D01*
X42760Y160000D02*X43160Y160400D01*
X41960Y160000D02*X42760D01*
X41560Y160400D02*X41960Y160000D01*
Y161760D02*X42760D01*
X43160Y162800D02*Y162160D01*
Y161360D02*Y160400D01*
Y161360D02*X42760Y161760D01*
X43160Y162160D02*X42760Y161760D01*
X39560Y125500D02*X40600D01*
X39000Y126060D02*X39560Y125500D01*
X39000Y128140D02*Y126060D01*
Y128140D02*X39560Y128700D01*
X40600D01*
X41560Y128300D02*X41960Y128700D01*
X42760D01*
X43160Y128300D01*
X42760Y125500D02*X43160Y125900D01*
X41960Y125500D02*X42760D01*
X41560Y125900D02*X41960Y125500D01*
Y127260D02*X42760D01*
X43160Y128300D02*Y127660D01*
Y126860D02*Y125900D01*
Y126860D02*X42760Y127260D01*
X43160Y127660D02*X42760Y127260D01*
X24000Y320300D02*X25400D01*
X25750Y319950D01*
Y319250D01*
X25400Y318900D02*X25750Y319250D01*
X24350Y318900D02*X25400D01*
X24350Y320300D02*Y317500D01*
X24910Y318900D02*X25750Y317500D01*
X26590Y319950D02*X26940Y320300D01*
X27990D01*
X28340Y319950D01*
Y319250D01*
X26590Y317500D02*X28340Y319250D01*
X26590Y317500D02*X28340D01*
X23990Y326000D02*X24900D01*
X23500Y326490D02*X23990Y326000D01*
X23500Y328310D02*Y326490D01*
Y328310D02*X23990Y328800D01*
X24900D01*
X25740Y327050D02*X27140Y328800D01*
X25740Y327050D02*X27490D01*
X27140Y328800D02*Y326000D01*
X30500Y303200D02*X32100D01*
X32500Y302800D01*
Y302000D01*
X32100Y301600D02*X32500Y302000D01*
X30900Y301600D02*X32100D01*
X30900Y303200D02*Y300000D01*
X31540Y301600D02*X32500Y300000D01*
X33460Y302560D02*X34100Y303200D01*
Y300000D01*
X33460D02*X34660D01*
X24490D02*X25400D01*
X24000Y300490D02*X24490Y300000D01*
X24000Y302310D02*Y300490D01*
Y302310D02*X24490Y302800D01*
X25400D01*
X26240D02*X27640D01*
X26240D02*Y301400D01*
X26590Y301750D01*
X27290D01*
X27640Y301400D01*
Y300350D01*
X27290Y300000D02*X27640Y300350D01*
X26590Y300000D02*X27290D01*
X26240Y300350D02*X26590Y300000D01*
X24000Y285300D02*X25400D01*
X25750Y284950D01*
Y284250D01*
X25400Y283900D02*X25750Y284250D01*
X24350Y283900D02*X25400D01*
X24350Y285300D02*Y282500D01*
X24910Y283900D02*X25750Y282500D01*
X26590Y284950D02*X26940Y285300D01*
X27990D01*
X28340Y284950D01*
Y284250D01*
X26590Y282500D02*X28340Y284250D01*
X26590Y282500D02*X28340D01*
X23990Y291000D02*X24900D01*
X23500Y291490D02*X23990Y291000D01*
X23500Y293310D02*Y291490D01*
Y293310D02*X23990Y293800D01*
X24900D01*
X25740Y292050D02*X27140Y293800D01*
X25740Y292050D02*X27490D01*
X27140Y293800D02*Y291000D01*
X30500Y268200D02*X32100D01*
X32500Y267800D01*
Y267000D01*
X32100Y266600D02*X32500Y267000D01*
X30900Y266600D02*X32100D01*
X30900Y268200D02*Y265000D01*
X31540Y266600D02*X32500Y265000D01*
X33460Y267560D02*X34100Y268200D01*
Y265000D01*
X33460D02*X34660D01*
X24490D02*X25400D01*
X24000Y265490D02*X24490Y265000D01*
X24000Y267310D02*Y265490D01*
Y267310D02*X24490Y267800D01*
X25400D01*
X26240D02*X27640D01*
X26240D02*Y266400D01*
X26590Y266750D01*
X27290D01*
X27640Y266400D01*
Y265350D01*
X27290Y265000D02*X27640Y265350D01*
X26590Y265000D02*X27290D01*
X26240Y265350D02*X26590Y265000D01*
X24490Y125000D02*X25400D01*
X24000Y125490D02*X24490Y125000D01*
X24000Y127310D02*Y125490D01*
Y127310D02*X24490Y127800D01*
X25400D01*
X26240D02*X27640D01*
X26240D02*Y126400D01*
X26590Y126750D01*
X27290D01*
X27640Y126400D01*
Y125350D01*
X27290Y125000D02*X27640Y125350D01*
X26590Y125000D02*X27290D01*
X26240Y125350D02*X26590Y125000D01*
X58500Y333200D02*Y330400D01*
X58900Y330000D01*
X59700D01*
X60100Y330400D01*
Y333200D02*Y330400D01*
X61060Y332800D02*X61460Y333200D01*
X62660D01*
X63060Y332800D01*
Y332000D01*
X61060Y330000D02*X63060Y332000D01*
X61060Y330000D02*X63060D01*
X58500Y298200D02*Y295400D01*
X58900Y295000D01*
X59700D01*
X60100Y295400D01*
Y298200D02*Y295400D01*
X61060Y297800D02*X61460Y298200D01*
X62660D01*
X63060Y297800D01*
Y297000D01*
X61060Y295000D02*X63060Y297000D01*
X61060Y295000D02*X63060D01*
X58500Y263200D02*Y260400D01*
X58900Y260000D01*
X59700D01*
X60100Y260400D01*
Y263200D02*Y260400D01*
X61060Y262800D02*X61460Y263200D01*
X62660D01*
X63060Y262800D01*
Y262000D01*
X61060Y260000D02*X63060Y262000D01*
X61060Y260000D02*X63060D01*
X58500Y228200D02*Y225400D01*
X58900Y225000D01*
X59700D01*
X60100Y225400D01*
Y228200D02*Y225400D01*
X61060Y227800D02*X61460Y228200D01*
X62660D01*
X63060Y227800D01*
Y227000D01*
X61060Y225000D02*X63060Y227000D01*
X61060Y225000D02*X63060D01*
X58500Y193200D02*Y190400D01*
X58900Y190000D01*
X59700D01*
X60100Y190400D01*
Y193200D02*Y190400D01*
X61060Y192800D02*X61460Y193200D01*
X62660D01*
X63060Y192800D01*
Y192000D01*
X61060Y190000D02*X63060Y192000D01*
X61060Y190000D02*X63060D01*
X58500Y157700D02*Y154900D01*
X58900Y154500D01*
X59700D01*
X60100Y154900D01*
Y157700D02*Y154900D01*
X61060Y157300D02*X61460Y157700D01*
X62660D01*
X63060Y157300D01*
Y156500D01*
X61060Y154500D02*X63060Y156500D01*
X61060Y154500D02*X63060D01*
X58500Y123200D02*Y120400D01*
X58900Y120000D01*
X59700D01*
X60100Y120400D01*
Y123200D02*Y120400D01*
X61060Y122800D02*X61460Y123200D01*
X62660D01*
X63060Y122800D01*
Y122000D01*
X61060Y120000D02*X63060Y122000D01*
X61060Y120000D02*X63060D01*
X58500Y88200D02*Y85400D01*
X58900Y85000D01*
X59700D01*
X60100Y85400D01*
Y88200D02*Y85400D01*
X61060Y87800D02*X61460Y88200D01*
X62660D01*
X63060Y87800D01*
Y87000D01*
X61060Y85000D02*X63060Y87000D01*
X61060Y85000D02*X63060D01*
X24000Y250300D02*X25400D01*
X25750Y249950D01*
Y249250D01*
X25400Y248900D02*X25750Y249250D01*
X24350Y248900D02*X25400D01*
X24350Y250300D02*Y247500D01*
X24910Y248900D02*X25750Y247500D01*
X26590Y249950D02*X26940Y250300D01*
X27990D01*
X28340Y249950D01*
Y249250D01*
X26590Y247500D02*X28340Y249250D01*
X26590Y247500D02*X28340D01*
X23990Y256000D02*X24900D01*
X23500Y256490D02*X23990Y256000D01*
X23500Y258310D02*Y256490D01*
Y258310D02*X23990Y258800D01*
X24900D01*
X25740Y257050D02*X27140Y258800D01*
X25740Y257050D02*X27490D01*
X27140Y258800D02*Y256000D01*
X23990Y221000D02*X24900D01*
X23500Y221490D02*X23990Y221000D01*
X23500Y223310D02*Y221490D01*
Y223310D02*X23990Y223800D01*
X24900D01*
X25740Y222050D02*X27140Y223800D01*
X25740Y222050D02*X27490D01*
X27140Y223800D02*Y221000D01*
X24490Y230000D02*X25400D01*
X24000Y230490D02*X24490Y230000D01*
X24000Y232310D02*Y230490D01*
Y232310D02*X24490Y232800D01*
X25400D01*
X26240D02*X27640D01*
X26240D02*Y231400D01*
X26590Y231750D01*
X27290D01*
X27640Y231400D01*
Y230350D01*
X27290Y230000D02*X27640Y230350D01*
X26590Y230000D02*X27290D01*
X26240Y230350D02*X26590Y230000D01*
X39560Y230500D02*X40600D01*
X39000Y231060D02*X39560Y230500D01*
X39000Y233140D02*Y231060D01*
Y233140D02*X39560Y233700D01*
X40600D01*
X41560Y233300D02*X41960Y233700D01*
X42760D01*
X43160Y233300D01*
X42760Y230500D02*X43160Y230900D01*
X41960Y230500D02*X42760D01*
X41560Y230900D02*X41960Y230500D01*
Y232260D02*X42760D01*
X43160Y233300D02*Y232660D01*
Y231860D02*Y230900D01*
Y231860D02*X42760Y232260D01*
X43160Y232660D02*X42760Y232260D01*
X30500Y233200D02*X32100D01*
X32500Y232800D01*
Y232000D01*
X32100Y231600D02*X32500Y232000D01*
X30900Y231600D02*X32100D01*
X30900Y233200D02*Y230000D01*
X31540Y231600D02*X32500Y230000D01*
X33460Y232560D02*X34100Y233200D01*
Y230000D01*
X33460D02*X34660D01*
X30500Y198200D02*X32100D01*
X32500Y197800D01*
Y197000D01*
X32100Y196600D02*X32500Y197000D01*
X30900Y196600D02*X32100D01*
X30900Y198200D02*Y195000D01*
X31540Y196600D02*X32500Y195000D01*
X33460Y197560D02*X34100Y198200D01*
Y195000D01*
X33460D02*X34660D01*
X24000Y215300D02*X25400D01*
X25750Y214950D01*
Y214250D01*
X25400Y213900D02*X25750Y214250D01*
X24350Y213900D02*X25400D01*
X24350Y215300D02*Y212500D01*
X24910Y213900D02*X25750Y212500D01*
X26590Y214950D02*X26940Y215300D01*
X27990D01*
X28340Y214950D01*
Y214250D01*
X26590Y212500D02*X28340Y214250D01*
X26590Y212500D02*X28340D01*
X24000Y180300D02*X25400D01*
X25750Y179950D01*
Y179250D01*
X25400Y178900D02*X25750Y179250D01*
X24350Y178900D02*X25400D01*
X24350Y180300D02*Y177500D01*
X24910Y178900D02*X25750Y177500D01*
X26590Y179950D02*X26940Y180300D01*
X27990D01*
X28340Y179950D01*
Y179250D01*
X26590Y177500D02*X28340Y179250D01*
X26590Y177500D02*X28340D01*
X23990Y186000D02*X24900D01*
X23500Y186490D02*X23990Y186000D01*
X23500Y188310D02*Y186490D01*
Y188310D02*X23990Y188800D01*
X24900D01*
X25740Y187050D02*X27140Y188800D01*
X25740Y187050D02*X27490D01*
X27140Y188800D02*Y186000D01*
X184920Y224000D02*X185700D01*
X184500Y224420D02*X184920Y224000D01*
X184500Y225980D02*Y224420D01*
Y225980D02*X184920Y226400D01*
X185700D01*
X186420Y225920D02*X186900Y226400D01*
Y224000D01*
X186420D02*X187320D01*
X173900Y217700D02*Y214500D01*
X174940Y217700D02*X175500Y217140D01*
Y215060D01*
X174940Y214500D02*X175500Y215060D01*
X173500Y214500D02*X174940D01*
X173500Y217700D02*X174940D01*
X176460Y217060D02*X177100Y217700D01*
Y214500D01*
X176460D02*X177660D01*
X189850Y226550D02*X191050D01*
X191350Y226250D01*
Y225650D01*
X191050Y225350D02*X191350Y225650D01*
X190150Y225350D02*X191050D01*
X190150Y226550D02*Y224150D01*
X190630Y225350D02*X191350Y224150D01*
X192070Y226250D02*X192370Y226550D01*
X192970D01*
X193270Y226250D01*
X192970Y224150D02*X193270Y224450D01*
X192370Y224150D02*X192970D01*
X192070Y224450D02*X192370Y224150D01*
Y225470D02*X192970D01*
X193270Y226250D02*Y225770D01*
Y225170D02*Y224450D01*
Y225170D02*X192970Y225470D01*
X193270Y225770D02*X192970Y225470D01*
X159500Y232200D02*Y229400D01*
X159900Y229000D01*
X160700D01*
X161100Y229400D01*
Y232200D02*Y229400D01*
X162060Y231560D02*X162700Y232200D01*
Y229000D01*
X162060D02*X163260D01*
X184920Y189000D02*X185700D01*
X184500Y189420D02*X184920Y189000D01*
X184500Y190980D02*Y189420D01*
Y190980D02*X184920Y191400D01*
X185700D01*
X186420Y190920D02*X186900Y191400D01*
Y189000D01*
X186420D02*X187320D01*
X189850Y191550D02*X191050D01*
X191350Y191250D01*
Y190650D01*
X191050Y190350D02*X191350Y190650D01*
X190150Y190350D02*X191050D01*
X190150Y191550D02*Y189150D01*
X190630Y190350D02*X191350Y189150D01*
X192070Y191250D02*X192370Y191550D01*
X192970D01*
X193270Y191250D01*
X192970Y189150D02*X193270Y189450D01*
X192370Y189150D02*X192970D01*
X192070Y189450D02*X192370Y189150D01*
Y190470D02*X192970D01*
X193270Y191250D02*Y190770D01*
Y190170D02*Y189450D01*
Y190170D02*X192970Y190470D01*
X193270Y190770D02*X192970Y190470D01*
X173900Y182700D02*Y179500D01*
X174940Y182700D02*X175500Y182140D01*
Y180060D01*
X174940Y179500D02*X175500Y180060D01*
X173500Y179500D02*X174940D01*
X173500Y182700D02*X174940D01*
X176460Y182060D02*X177100Y182700D01*
Y179500D01*
X176460D02*X177660D01*
X159500Y197200D02*Y194400D01*
X159900Y194000D01*
X160700D01*
X161100Y194400D01*
Y197200D02*Y194400D01*
X162060Y196560D02*X162700Y197200D01*
Y194000D01*
X162060D02*X163260D01*
X184920Y153500D02*X185700D01*
X184500Y153920D02*X184920Y153500D01*
X184500Y155480D02*Y153920D01*
Y155480D02*X184920Y155900D01*
X185700D01*
X186420Y155420D02*X186900Y155900D01*
Y153500D01*
X186420D02*X187320D01*
X173900Y147200D02*Y144000D01*
X174940Y147200D02*X175500Y146640D01*
Y144560D01*
X174940Y144000D02*X175500Y144560D01*
X173500Y144000D02*X174940D01*
X173500Y147200D02*X174940D01*
X176460Y146560D02*X177100Y147200D01*
Y144000D01*
X176460D02*X177660D01*
X189850Y156050D02*X191050D01*
X191350Y155750D01*
Y155150D01*
X191050Y154850D02*X191350Y155150D01*
X190150Y154850D02*X191050D01*
X190150Y156050D02*Y153650D01*
X190630Y154850D02*X191350Y153650D01*
X192070Y155750D02*X192370Y156050D01*
X192970D01*
X193270Y155750D01*
X192970Y153650D02*X193270Y153950D01*
X192370Y153650D02*X192970D01*
X192070Y153950D02*X192370Y153650D01*
Y154970D02*X192970D01*
X193270Y155750D02*Y155270D01*
Y154670D02*Y153950D01*
Y154670D02*X192970Y154970D01*
X193270Y155270D02*X192970Y154970D01*
X24490Y195000D02*X25400D01*
X24000Y195490D02*X24490Y195000D01*
X24000Y197310D02*Y195490D01*
Y197310D02*X24490Y197800D01*
X25400D01*
X26240D02*X27640D01*
X26240D02*Y196400D01*
X26590Y196750D01*
X27290D01*
X27640Y196400D01*
Y195350D01*
X27290Y195000D02*X27640Y195350D01*
X26590Y195000D02*X27290D01*
X26240Y195350D02*X26590Y195000D01*
X24490Y159500D02*X25400D01*
X24000Y159990D02*X24490Y159500D01*
X24000Y161810D02*Y159990D01*
Y161810D02*X24490Y162300D01*
X25400D01*
X26240D02*X27640D01*
X26240D02*Y160900D01*
X26590Y161250D01*
X27290D01*
X27640Y160900D01*
Y159850D01*
X27290Y159500D02*X27640Y159850D01*
X26590Y159500D02*X27290D01*
X26240Y159850D02*X26590Y159500D01*
X30500Y162700D02*X32100D01*
X32500Y162300D01*
Y161500D01*
X32100Y161100D02*X32500Y161500D01*
X30900Y161100D02*X32100D01*
X30900Y162700D02*Y159500D01*
X31540Y161100D02*X32500Y159500D01*
X33460Y162060D02*X34100Y162700D01*
Y159500D01*
X33460D02*X34660D01*
X24000Y144800D02*X25400D01*
X25750Y144450D01*
Y143750D01*
X25400Y143400D02*X25750Y143750D01*
X24350Y143400D02*X25400D01*
X24350Y144800D02*Y142000D01*
X24910Y143400D02*X25750Y142000D01*
X26590Y144450D02*X26940Y144800D01*
X27990D01*
X28340Y144450D01*
Y143750D01*
X26590Y142000D02*X28340Y143750D01*
X26590Y142000D02*X28340D01*
X23990Y150500D02*X24900D01*
X23500Y150990D02*X23990Y150500D01*
X23500Y152810D02*Y150990D01*
Y152810D02*X23990Y153300D01*
X24900D01*
X25740Y151550D02*X27140Y153300D01*
X25740Y151550D02*X27490D01*
X27140Y153300D02*Y150500D01*
X30500Y128200D02*X32100D01*
X32500Y127800D01*
Y127000D01*
X32100Y126600D02*X32500Y127000D01*
X30900Y126600D02*X32100D01*
X30900Y128200D02*Y125000D01*
X31540Y126600D02*X32500Y125000D01*
X33460Y127560D02*X34100Y128200D01*
Y125000D01*
X33460D02*X34660D01*
X24000Y110300D02*X25400D01*
X25750Y109950D01*
Y109250D01*
X25400Y108900D02*X25750Y109250D01*
X24350Y108900D02*X25400D01*
X24350Y110300D02*Y107500D01*
X24910Y108900D02*X25750Y107500D01*
X26590Y109950D02*X26940Y110300D01*
X27990D01*
X28340Y109950D01*
Y109250D01*
X26590Y107500D02*X28340Y109250D01*
X26590Y107500D02*X28340D01*
X23990Y116000D02*X24900D01*
X23500Y116490D02*X23990Y116000D01*
X23500Y118310D02*Y116490D01*
Y118310D02*X23990Y118800D01*
X24900D01*
X25740Y117050D02*X27140Y118800D01*
X25740Y117050D02*X27490D01*
X27140Y118800D02*Y116000D01*
X39560Y90500D02*X40600D01*
X39000Y91060D02*X39560Y90500D01*
X39000Y93140D02*Y91060D01*
Y93140D02*X39560Y93700D01*
X40600D01*
X41560Y93300D02*X41960Y93700D01*
X42760D01*
X43160Y93300D01*
X42760Y90500D02*X43160Y90900D01*
X41960Y90500D02*X42760D01*
X41560Y90900D02*X41960Y90500D01*
Y92260D02*X42760D01*
X43160Y93300D02*Y92660D01*
Y91860D02*Y90900D01*
Y91860D02*X42760Y92260D01*
X43160Y92660D02*X42760Y92260D01*
X58500Y53200D02*Y50400D01*
X58900Y50000D01*
X59700D01*
X60100Y50400D01*
Y53200D02*Y50400D01*
X61060Y52800D02*X61460Y53200D01*
X62660D01*
X63060Y52800D01*
Y52000D01*
X61060Y50000D02*X63060Y52000D01*
X61060Y50000D02*X63060D01*
X39560Y55500D02*X40600D01*
X39000Y56060D02*X39560Y55500D01*
X39000Y58140D02*Y56060D01*
Y58140D02*X39560Y58700D01*
X40600D01*
X41560Y58300D02*X41960Y58700D01*
X42760D01*
X43160Y58300D01*
X42760Y55500D02*X43160Y55900D01*
X41960Y55500D02*X42760D01*
X41560Y55900D02*X41960Y55500D01*
Y57260D02*X42760D01*
X43160Y58300D02*Y57660D01*
Y56860D02*Y55900D01*
Y56860D02*X42760Y57260D01*
X43160Y57660D02*X42760Y57260D01*
X30500Y93200D02*X32100D01*
X32500Y92800D01*
Y92000D01*
X32100Y91600D02*X32500Y92000D01*
X30900Y91600D02*X32100D01*
X30900Y93200D02*Y90000D01*
X31540Y91600D02*X32500Y90000D01*
X33460Y92560D02*X34100Y93200D01*
Y90000D01*
X33460D02*X34660D01*
X24000Y75300D02*X25400D01*
X25750Y74950D01*
Y74250D01*
X25400Y73900D02*X25750Y74250D01*
X24350Y73900D02*X25400D01*
X24350Y75300D02*Y72500D01*
X24910Y73900D02*X25750Y72500D01*
X26590Y74950D02*X26940Y75300D01*
X27990D01*
X28340Y74950D01*
Y74250D01*
X26590Y72500D02*X28340Y74250D01*
X26590Y72500D02*X28340D01*
X23990Y81000D02*X24900D01*
X23500Y81490D02*X23990Y81000D01*
X23500Y83310D02*Y81490D01*
Y83310D02*X23990Y83800D01*
X24900D01*
X25740Y82050D02*X27140Y83800D01*
X25740Y82050D02*X27490D01*
X27140Y83800D02*Y81000D01*
X24490Y90000D02*X25400D01*
X24000Y90490D02*X24490Y90000D01*
X24000Y92310D02*Y90490D01*
Y92310D02*X24490Y92800D01*
X25400D01*
X26240D02*X27640D01*
X26240D02*Y91400D01*
X26590Y91750D01*
X27290D01*
X27640Y91400D01*
Y90350D01*
X27290Y90000D02*X27640Y90350D01*
X26590Y90000D02*X27290D01*
X26240Y90350D02*X26590Y90000D01*
X30500Y58200D02*X32100D01*
X32500Y57800D01*
Y57000D01*
X32100Y56600D02*X32500Y57000D01*
X30900Y56600D02*X32100D01*
X30900Y58200D02*Y55000D01*
X31540Y56600D02*X32500Y55000D01*
X33460Y57560D02*X34100Y58200D01*
Y55000D01*
X33460D02*X34660D01*
X24000Y40300D02*X25400D01*
X25750Y39950D01*
Y39250D01*
X25400Y38900D02*X25750Y39250D01*
X24350Y38900D02*X25400D01*
X24350Y40300D02*Y37500D01*
X24910Y38900D02*X25750Y37500D01*
X26590Y39950D02*X26940Y40300D01*
X27990D01*
X28340Y39950D01*
Y39250D01*
X26590Y37500D02*X28340Y39250D01*
X26590Y37500D02*X28340D01*
X23990Y46000D02*X24900D01*
X23500Y46490D02*X23990Y46000D01*
X23500Y48310D02*Y46490D01*
Y48310D02*X23990Y48800D01*
X24900D01*
X25740Y47050D02*X27140Y48800D01*
X25740Y47050D02*X27490D01*
X27140Y48800D02*Y46000D01*
X24490Y55000D02*X25400D01*
X24000Y55490D02*X24490Y55000D01*
X24000Y57310D02*Y55490D01*
Y57310D02*X24490Y57800D01*
X25400D01*
X26240D02*X27640D01*
X26240D02*Y56400D01*
X26590Y56750D01*
X27290D01*
X27640Y56400D01*
Y55350D01*
X27290Y55000D02*X27640Y55350D01*
X26590Y55000D02*X27290D01*
X26240Y55350D02*X26590Y55000D01*
X58500Y18200D02*Y15400D01*
X58900Y15000D01*
X59700D01*
X60100Y15400D01*
Y18200D02*Y15400D01*
X61060Y17800D02*X61460Y18200D01*
X62660D01*
X63060Y17800D01*
Y17000D01*
X61060Y15000D02*X63060Y17000D01*
X61060Y15000D02*X63060D01*
X39560Y20500D02*X40600D01*
X39000Y21060D02*X39560Y20500D01*
X39000Y23140D02*Y21060D01*
Y23140D02*X39560Y23700D01*
X40600D01*
X41560Y23300D02*X41960Y23700D01*
X42760D01*
X43160Y23300D01*
X42760Y20500D02*X43160Y20900D01*
X41960Y20500D02*X42760D01*
X41560Y20900D02*X41960Y20500D01*
Y22260D02*X42760D01*
X43160Y23300D02*Y22660D01*
Y21860D02*Y20900D01*
Y21860D02*X42760Y22260D01*
X43160Y22660D02*X42760Y22260D01*
X30500Y23200D02*X32100D01*
X32500Y22800D01*
Y22000D01*
X32100Y21600D02*X32500Y22000D01*
X30900Y21600D02*X32100D01*
X30900Y23200D02*Y20000D01*
X31540Y21600D02*X32500Y20000D01*
X33460Y22560D02*X34100Y23200D01*
Y20000D01*
X33460D02*X34660D01*
X24000Y5300D02*X25400D01*
X25750Y4950D01*
Y4250D01*
X25400Y3900D02*X25750Y4250D01*
X24350Y3900D02*X25400D01*
X24350Y5300D02*Y2500D01*
X24910Y3900D02*X25750Y2500D01*
X26590Y4950D02*X26940Y5300D01*
X27990D01*
X28340Y4950D01*
Y4250D01*
X26590Y2500D02*X28340Y4250D01*
X26590Y2500D02*X28340D01*
X23990Y11000D02*X24900D01*
X23500Y11490D02*X23990Y11000D01*
X23500Y13310D02*Y11490D01*
Y13310D02*X23990Y13800D01*
X24900D01*
X25740Y12050D02*X27140Y13800D01*
X25740Y12050D02*X27490D01*
X27140Y13800D02*Y11000D01*
X24490Y20000D02*X25400D01*
X24000Y20490D02*X24490Y20000D01*
X24000Y22310D02*Y20490D01*
Y22310D02*X24490Y22800D01*
X25400D01*
X26240D02*X27640D01*
X26240D02*Y21400D01*
X26590Y21750D01*
X27290D01*
X27640Y21400D01*
Y20350D01*
X27290Y20000D02*X27640Y20350D01*
X26590Y20000D02*X27290D01*
X26240Y20350D02*X26590Y20000D01*
X159500Y161700D02*Y158900D01*
X159900Y158500D01*
X160700D01*
X161100Y158900D01*
Y161700D02*Y158900D01*
X162060Y161060D02*X162700Y161700D01*
Y158500D01*
X162060D02*X163260D01*
X184920Y119000D02*X185700D01*
X184500Y119420D02*X184920Y119000D01*
X184500Y120980D02*Y119420D01*
Y120980D02*X184920Y121400D01*
X185700D01*
X186420Y120920D02*X186900Y121400D01*
Y119000D01*
X186420D02*X187320D01*
X159500Y127200D02*Y124400D01*
X159900Y124000D01*
X160700D01*
X161100Y124400D01*
Y127200D02*Y124400D01*
X162060Y126560D02*X162700Y127200D01*
Y124000D01*
X162060D02*X163260D01*
X189850Y121550D02*X191050D01*
X191350Y121250D01*
Y120650D01*
X191050Y120350D02*X191350Y120650D01*
X190150Y120350D02*X191050D01*
X190150Y121550D02*Y119150D01*
X190630Y120350D02*X191350Y119150D01*
X192070Y121250D02*X192370Y121550D01*
X192970D01*
X193270Y121250D01*
X192970Y119150D02*X193270Y119450D01*
X192370Y119150D02*X192970D01*
X192070Y119450D02*X192370Y119150D01*
Y120470D02*X192970D01*
X193270Y121250D02*Y120770D01*
Y120170D02*Y119450D01*
Y120170D02*X192970Y120470D01*
X193270Y120770D02*X192970Y120470D01*
X173900Y112700D02*Y109500D01*
X174940Y112700D02*X175500Y112140D01*
Y110060D01*
X174940Y109500D02*X175500Y110060D01*
X173500Y109500D02*X174940D01*
X173500Y112700D02*X174940D01*
X176460Y112060D02*X177100Y112700D01*
Y109500D01*
X176460D02*X177660D01*
X184920Y84000D02*X185700D01*
X184500Y84420D02*X184920Y84000D01*
X184500Y85980D02*Y84420D01*
Y85980D02*X184920Y86400D01*
X185700D01*
X186420Y85920D02*X186900Y86400D01*
Y84000D01*
X186420D02*X187320D01*
X173900Y77700D02*Y74500D01*
X174940Y77700D02*X175500Y77140D01*
Y75060D01*
X174940Y74500D02*X175500Y75060D01*
X173500Y74500D02*X174940D01*
X173500Y77700D02*X174940D01*
X176460Y77060D02*X177100Y77700D01*
Y74500D01*
X176460D02*X177660D01*
X189850Y86550D02*X191050D01*
X191350Y86250D01*
Y85650D01*
X191050Y85350D02*X191350Y85650D01*
X190150Y85350D02*X191050D01*
X190150Y86550D02*Y84150D01*
X190630Y85350D02*X191350Y84150D01*
X192070Y86250D02*X192370Y86550D01*
X192970D01*
X193270Y86250D01*
X192970Y84150D02*X193270Y84450D01*
X192370Y84150D02*X192970D01*
X192070Y84450D02*X192370Y84150D01*
Y85470D02*X192970D01*
X193270Y86250D02*Y85770D01*
Y85170D02*Y84450D01*
Y85170D02*X192970Y85470D01*
X193270Y85770D02*X192970Y85470D01*
X184920Y49000D02*X185700D01*
X184500Y49420D02*X184920Y49000D01*
X184500Y50980D02*Y49420D01*
Y50980D02*X184920Y51400D01*
X185700D01*
X186420Y50920D02*X186900Y51400D01*
Y49000D01*
X186420D02*X187320D01*
X159500Y57200D02*Y54400D01*
X159900Y54000D01*
X160700D01*
X161100Y54400D01*
Y57200D02*Y54400D01*
X162060Y56560D02*X162700Y57200D01*
Y54000D01*
X162060D02*X163260D01*
X173900Y42700D02*Y39500D01*
X174940Y42700D02*X175500Y42140D01*
Y40060D01*
X174940Y39500D02*X175500Y40060D01*
X173500Y39500D02*X174940D01*
X173500Y42700D02*X174940D01*
X176460Y42060D02*X177100Y42700D01*
Y39500D01*
X176460D02*X177660D01*
X189850Y51550D02*X191050D01*
X191350Y51250D01*
Y50650D01*
X191050Y50350D02*X191350Y50650D01*
X190150Y50350D02*X191050D01*
X190150Y51550D02*Y49150D01*
X190630Y50350D02*X191350Y49150D01*
X192070Y51250D02*X192370Y51550D01*
X192970D01*
X193270Y51250D01*
X192970Y49150D02*X193270Y49450D01*
X192370Y49150D02*X192970D01*
X192070Y49450D02*X192370Y49150D01*
Y50470D02*X192970D01*
X193270Y51250D02*Y50770D01*
Y50170D02*Y49450D01*
Y50170D02*X192970Y50470D01*
X193270Y50770D02*X192970Y50470D01*
X189850Y16550D02*X191050D01*
X191350Y16250D01*
Y15650D01*
X191050Y15350D02*X191350Y15650D01*
X190150Y15350D02*X191050D01*
X190150Y16550D02*Y14150D01*
X190630Y15350D02*X191350Y14150D01*
X192070Y16250D02*X192370Y16550D01*
X192970D01*
X193270Y16250D01*
X192970Y14150D02*X193270Y14450D01*
X192370Y14150D02*X192970D01*
X192070Y14450D02*X192370Y14150D01*
Y15470D02*X192970D01*
X193270Y16250D02*Y15770D01*
Y15170D02*Y14450D01*
Y15170D02*X192970Y15470D01*
X193270Y15770D02*X192970Y15470D01*
X184920Y14000D02*X185700D01*
X184500Y14420D02*X184920Y14000D01*
X184500Y15980D02*Y14420D01*
Y15980D02*X184920Y16400D01*
X185700D01*
X186420Y15920D02*X186900Y16400D01*
Y14000D01*
X186420D02*X187320D01*
X173900Y7700D02*Y4500D01*
X174940Y7700D02*X175500Y7140D01*
Y5060D01*
X174940Y4500D02*X175500Y5060D01*
X173500Y4500D02*X174940D01*
X173500Y7700D02*X174940D01*
X176460Y7060D02*X177100Y7700D01*
Y4500D01*
X176460D02*X177660D01*
X159500Y22200D02*Y19400D01*
X159900Y19000D01*
X160700D01*
X161100Y19400D01*
Y22200D02*Y19400D01*
X162060Y21560D02*X162700Y22200D01*
Y19000D01*
X162060D02*X163260D01*
M02*
