M48
INCH
T44C0.039
%
T44
X010100Y025800
X010100Y022300
X008100Y022700
X008100Y021900
X008100Y026200
X008100Y025400
X008100Y019200
X008100Y018400
X008100Y015650
X008100Y014850
X010100Y018800
X010100Y015250
X008100Y012200
X008100Y011400
X010100Y011800
X008100Y008700
X008100Y007900
X010100Y008300
X008100Y005200
X008100Y004400
X010100Y004800
X010100Y001300
X008100Y001700
X008100Y000900
X010100Y039800
X008100Y040200
X008100Y039400
X010100Y036300
X008100Y036700
X008100Y035900
X010100Y032800
X008100Y033200
X008100Y032400
X010100Y029300
X008100Y029700
X008100Y028900
M30
