G04 start of page 10 for group -4078 idx -4078 *
G04 Title: (unknown), bottomsilk *
G04 Creator: pcb 20110918 *
G04 CreationDate: Mon 02 Feb 2015 04:29:52 AM GMT UTC *
G04 For: railfan *
G04 Format: Gerber/RS-274X *
G04 PCB-Dimensions: 211000 411000 *
G04 PCB-Coordinate-Origin: lower left *
%MOIN*%
%FSLAX25Y25*%
%LNBOTTOMSILK*%
%ADD64C,0.0080*%
%ADD63C,0.0100*%
G54D63*X1000Y410000D02*X210000D01*
Y386000D02*X1000D01*
G54D64*X126000Y401500D02*Y405000D01*
G54D63*X1000Y375000D02*X210000D01*
Y351000D02*X1000D01*
G54D64*X126000Y366500D02*Y370000D01*
G54D63*X1000Y340000D02*X210000D01*
G54D64*X126000Y331500D02*Y335000D01*
G54D63*X210000Y410000D02*Y386000D01*
Y375000D02*Y351000D01*
Y340000D02*Y316000D01*
X1000D01*
Y305000D02*X210000D01*
G54D64*X126000Y296500D02*Y300000D01*
G54D63*X210000Y281000D02*X1000D01*
X210000Y305000D02*Y281000D01*
X1000Y270000D02*X210000D01*
Y246000D02*X1000D01*
X210000Y270000D02*Y246000D01*
G54D64*X126000Y261500D02*Y265000D01*
G54D63*X1000Y235000D02*X210000D01*
Y211000D02*X1000D01*
G54D64*X126000Y226500D02*Y230000D01*
G54D63*X1000Y200000D02*X210000D01*
Y176000D02*X1000D01*
G54D64*X126000Y191500D02*Y195000D01*
G54D63*X210000Y235000D02*Y211000D01*
Y200000D02*Y176000D01*
Y164500D02*Y140500D01*
X1000Y164500D02*X210000D01*
G54D64*X126000Y156000D02*Y159500D01*
G54D63*X210000Y140500D02*X1000D01*
Y130000D02*X210000D01*
G54D64*X126000Y121500D02*Y125000D01*
G54D63*X210000Y106000D02*X1000D01*
X210000Y130000D02*Y106000D01*
X1000Y95000D02*X210000D01*
Y71000D02*X1000D01*
X210000Y95000D02*Y71000D01*
G54D64*X126000Y86500D02*Y90000D01*
G54D63*X1000Y60000D02*X210000D01*
Y36000D02*X1000D01*
G54D64*X126000Y51500D02*Y55000D01*
G54D63*X1000Y25000D02*X210000D01*
Y1000D02*X1000D01*
G54D64*X126000Y16500D02*Y20000D01*
G54D63*X210000Y60000D02*Y36000D01*
Y25000D02*Y1000D01*
G54D64*X152800Y296500D02*Y298000D01*
X155000Y296000D02*Y298000D01*
X151000D02*X155000D01*
X151000Y296000D02*Y298000D01*
X153500Y294300D02*X155000D01*
X153500D02*X153000Y293800D01*
Y293300D02*Y293800D01*
Y293300D02*X153500Y292800D01*
X155000D01*
X153000Y294800D02*X153500Y294300D01*
X153000Y290100D02*X153500Y289600D01*
X153000Y290100D02*Y291100D01*
X153500Y291600D02*X153000Y291100D01*
X153500Y291600D02*X154500D01*
X155000Y291100D01*
Y290100D02*Y291100D01*
Y290100D02*X154500Y289600D01*
X156000Y291600D02*X156500Y291100D01*
Y290100D02*Y291100D01*
Y290100D02*X156000Y289600D01*
X153000D02*X156000D01*
X155000Y287900D02*Y288400D01*
X144500Y299500D02*X145000Y299000D01*
X144500Y299500D02*Y301000D01*
X145000Y301500D02*X144500Y301000D01*
X145000Y301500D02*X146000D01*
X146500Y301000D01*
Y299500D02*Y301000D01*
Y299500D02*X147000Y299000D01*
X148000D01*
X148500Y299500D02*X148000Y299000D01*
X148500Y299500D02*Y301000D01*
X148000Y301500D02*X148500Y301000D01*
X146500Y295800D02*Y297300D01*
X147000Y297800D02*X146500Y297300D01*
X147000Y297800D02*X148000D01*
X148500Y297300D01*
Y295800D02*Y297300D01*
X146500Y293100D02*X147000Y292600D01*
X146500Y293100D02*Y294100D01*
X147000Y294600D02*X146500Y294100D01*
X147000Y294600D02*X148000D01*
X148500Y294100D01*
X146500Y292600D02*X148000D01*
X148500Y292100D01*
Y293100D02*Y294100D01*
Y293100D02*X148000Y292600D01*
X144500Y290900D02*X148000D01*
X148500Y290400D01*
Y287400D02*Y288900D01*
X148000Y289400D02*X148500Y288900D01*
X147000Y289400D02*X148000D01*
X147000D02*X146500Y288900D01*
Y287900D02*Y288900D01*
Y287900D02*X147000Y287400D01*
X147500D02*Y289400D01*
X147000Y287400D02*X147500D01*
X144500Y284200D02*X148500D01*
Y284700D02*X148000Y284200D01*
X148500Y284700D02*Y285700D01*
X148000Y286200D02*X148500Y285700D01*
X147000Y286200D02*X148000D01*
X147000D02*X146500Y285700D01*
Y284700D02*Y285700D01*
Y284700D02*X147000Y284200D01*
X138000Y298000D02*Y299000D01*
Y298500D02*X142000D01*
Y298000D02*Y299000D01*
X140500Y296800D02*X141500D01*
X140500D02*X140000Y296300D01*
Y295300D02*Y296300D01*
Y295300D02*X140500Y294800D01*
X141500D01*
X142000Y295300D02*X141500Y294800D01*
X142000Y295300D02*Y296300D01*
X141500Y296800D02*X142000Y296300D01*
X140000Y293600D02*X141500D01*
X142000Y293100D01*
Y292600D02*Y293100D01*
Y292600D02*X141500Y292100D01*
X140000D02*X141500D01*
X142000Y291600D01*
Y291100D02*Y291600D01*
Y291100D02*X141500Y290600D01*
X140000D02*X141500D01*
X140000Y287900D02*X140500Y287400D01*
X140000Y287900D02*Y288900D01*
X140500Y289400D02*X140000Y288900D01*
X140500Y289400D02*X141500D01*
X142000Y288900D01*
X140000Y287400D02*X141500D01*
X142000Y286900D01*
Y287900D02*Y288900D01*
Y287900D02*X141500Y287400D01*
X161000Y301000D02*X161500Y300500D01*
X161000Y301000D02*Y302500D01*
X161500Y303000D02*X161000Y302500D01*
X161500Y303000D02*X164500D01*
X165000Y302500D01*
Y301000D02*Y302500D01*
Y301000D02*X164500Y300500D01*
X163500D02*X164500D01*
X163000Y301000D02*X163500Y300500D01*
X163000Y301000D02*Y302000D01*
X161000Y299300D02*X165000D01*
X161000D02*X165000Y296800D01*
X161000D02*X165000D01*
X161000Y295100D02*X165000D01*
X161000Y293800D02*X161700Y293100D01*
X164300D01*
X165000Y293800D02*X164300Y293100D01*
X165000Y293800D02*Y295600D01*
X161000Y293800D02*Y295600D01*
X182000Y292500D02*X186000Y291500D01*
X182000Y290500D01*
Y288300D02*Y289300D01*
Y288800D02*X186000D01*
Y288300D02*Y289300D01*
X182000Y287100D02*X186000D01*
X182000D02*X186000Y284600D01*
X182000D02*X186000D01*
X182000Y257500D02*X186000Y256500D01*
X182000Y255500D01*
Y253300D02*Y254300D01*
Y253800D02*X186000D01*
Y253300D02*Y254300D01*
X182000Y252100D02*X186000D01*
X182000D02*X186000Y249600D01*
X182000D02*X186000D01*
X182000Y222500D02*X186000Y221500D01*
X182000Y220500D01*
Y218300D02*Y219300D01*
Y218800D02*X186000D01*
Y218300D02*Y219300D01*
X182000Y217100D02*X186000D01*
X182000D02*X186000Y214600D01*
X182000D02*X186000D01*
X182000Y187500D02*X186000Y186500D01*
X182000Y185500D01*
Y183300D02*Y184300D01*
Y183800D02*X186000D01*
Y183300D02*Y184300D01*
X182000Y182100D02*X186000D01*
X182000D02*X186000Y179600D01*
X182000D02*X186000D01*
X152800Y261500D02*Y263000D01*
X155000Y261000D02*Y263000D01*
X151000D02*X155000D01*
X151000Y261000D02*Y263000D01*
X153500Y259300D02*X155000D01*
X153500D02*X153000Y258800D01*
Y258300D02*Y258800D01*
Y258300D02*X153500Y257800D01*
X155000D01*
X153000Y259800D02*X153500Y259300D01*
X153000Y255100D02*X153500Y254600D01*
X153000Y255100D02*Y256100D01*
X153500Y256600D02*X153000Y256100D01*
X153500Y256600D02*X154500D01*
X155000Y256100D01*
Y255100D02*Y256100D01*
Y255100D02*X154500Y254600D01*
X156000Y256600D02*X156500Y256100D01*
Y255100D02*Y256100D01*
Y255100D02*X156000Y254600D01*
X153000D02*X156000D01*
X155000Y252900D02*Y253400D01*
X144500Y264500D02*X145000Y264000D01*
X144500Y264500D02*Y266000D01*
X145000Y266500D02*X144500Y266000D01*
X145000Y266500D02*X146000D01*
X146500Y266000D01*
Y264500D02*Y266000D01*
Y264500D02*X147000Y264000D01*
X148000D01*
X148500Y264500D02*X148000Y264000D01*
X148500Y264500D02*Y266000D01*
X148000Y266500D02*X148500Y266000D01*
X146500Y260800D02*Y262300D01*
X147000Y262800D02*X146500Y262300D01*
X147000Y262800D02*X148000D01*
X148500Y262300D01*
Y260800D02*Y262300D01*
X146500Y258100D02*X147000Y257600D01*
X146500Y258100D02*Y259100D01*
X147000Y259600D02*X146500Y259100D01*
X147000Y259600D02*X148000D01*
X148500Y259100D01*
X146500Y257600D02*X148000D01*
X148500Y257100D01*
Y258100D02*Y259100D01*
Y258100D02*X148000Y257600D01*
X144500Y255900D02*X148000D01*
X148500Y255400D01*
Y252400D02*Y253900D01*
X148000Y254400D02*X148500Y253900D01*
X147000Y254400D02*X148000D01*
X147000D02*X146500Y253900D01*
Y252900D02*Y253900D01*
Y252900D02*X147000Y252400D01*
X147500D02*Y254400D01*
X147000Y252400D02*X147500D01*
X144500Y249200D02*X148500D01*
Y249700D02*X148000Y249200D01*
X148500Y249700D02*Y250700D01*
X148000Y251200D02*X148500Y250700D01*
X147000Y251200D02*X148000D01*
X147000D02*X146500Y250700D01*
Y249700D02*Y250700D01*
Y249700D02*X147000Y249200D01*
X138000Y263000D02*Y264000D01*
Y263500D02*X142000D01*
Y263000D02*Y264000D01*
X140500Y261800D02*X141500D01*
X140500D02*X140000Y261300D01*
Y260300D02*Y261300D01*
Y260300D02*X140500Y259800D01*
X141500D01*
X142000Y260300D02*X141500Y259800D01*
X142000Y260300D02*Y261300D01*
X141500Y261800D02*X142000Y261300D01*
X140000Y258600D02*X141500D01*
X142000Y258100D01*
Y257600D02*Y258100D01*
Y257600D02*X141500Y257100D01*
X140000D02*X141500D01*
X142000Y256600D01*
Y256100D02*Y256600D01*
Y256100D02*X141500Y255600D01*
X140000D02*X141500D01*
X140000Y252900D02*X140500Y252400D01*
X140000Y252900D02*Y253900D01*
X140500Y254400D02*X140000Y253900D01*
X140500Y254400D02*X141500D01*
X142000Y253900D01*
X140000Y252400D02*X141500D01*
X142000Y251900D01*
Y252900D02*Y253900D01*
Y252900D02*X141500Y252400D01*
X127500Y264000D02*X131500D01*
X127500Y262700D02*X128200Y262000D01*
X130800D01*
X131500Y262700D02*X130800Y262000D01*
X131500Y262700D02*Y264500D01*
X127500Y262700D02*Y264500D01*
Y254000D02*X131500D01*
X127500Y252700D02*X128200Y252000D01*
X130800D01*
X131500Y252700D02*X130800Y252000D01*
X131500Y252700D02*Y254500D01*
X127500Y252700D02*Y254500D01*
X161000Y266000D02*X161500Y265500D01*
X161000Y266000D02*Y267500D01*
X161500Y268000D02*X161000Y267500D01*
X161500Y268000D02*X164500D01*
X165000Y267500D01*
Y266000D02*Y267500D01*
Y266000D02*X164500Y265500D01*
X163500D02*X164500D01*
X163000Y266000D02*X163500Y265500D01*
X163000Y266000D02*Y267000D01*
X161000Y264300D02*X165000D01*
X161000D02*X165000Y261800D01*
X161000D02*X165000D01*
X161000Y260100D02*X165000D01*
X161000Y258800D02*X161700Y258100D01*
X164300D01*
X165000Y258800D02*X164300Y258100D01*
X165000Y258800D02*Y260600D01*
X161000Y258800D02*Y260600D01*
X31560Y332000D02*X32600D01*
X31000Y331440D02*X31560Y332000D01*
X31000Y329360D02*Y331440D01*
Y329360D02*X31560Y328800D01*
X32600D01*
X34120Y332000D02*X35160D01*
X33560Y331440D02*X34120Y332000D01*
X33560Y329360D02*Y331440D01*
Y329360D02*X34120Y328800D01*
X35160D01*
X36120Y330400D02*X37720D01*
X38680Y332000D02*X40280D01*
X40680Y331600D01*
Y330640D02*Y331600D01*
X40280Y330240D02*X40680Y330640D01*
X39080Y330240D02*X40280D01*
X39080Y328800D02*Y332000D01*
X38680Y328800D02*X40280D01*
X40680Y329200D01*
Y329840D01*
X40280Y330240D02*X40680Y329840D01*
X41640Y328800D02*X42440Y330400D01*
X43240Y328800D01*
X42440Y330400D02*Y332000D01*
X44200Y330400D02*X45800D01*
X48360Y328800D02*X48760Y329200D01*
X47160Y328800D02*X48360D01*
X46760Y329200D02*X47160Y328800D01*
X46760Y329200D02*Y330000D01*
X47160Y330400D01*
X48360D01*
X48760Y330800D01*
Y331600D01*
X48360Y332000D02*X48760Y331600D01*
X47160Y332000D02*X48360D01*
X46760Y331600D02*X47160Y332000D01*
X49720Y329600D02*Y332000D01*
Y329600D02*X50280Y328800D01*
X51160D01*
X51720Y329600D01*
Y332000D01*
X49720Y330400D02*X51720D01*
X31560Y297000D02*X32600D01*
X31000Y296440D02*X31560Y297000D01*
X31000Y294360D02*Y296440D01*
Y294360D02*X31560Y293800D01*
X32600D01*
X34120Y297000D02*X35160D01*
X33560Y296440D02*X34120Y297000D01*
X33560Y294360D02*Y296440D01*
Y294360D02*X34120Y293800D01*
X35160D01*
X36120Y295400D02*X37720D01*
X38680Y297000D02*X40280D01*
X40680Y296600D01*
Y295640D02*Y296600D01*
X40280Y295240D02*X40680Y295640D01*
X39080Y295240D02*X40280D01*
X39080Y293800D02*Y297000D01*
X38680Y293800D02*X40280D01*
X40680Y294200D01*
Y294840D01*
X40280Y295240D02*X40680Y294840D01*
X41640Y293800D02*X42440Y295400D01*
X43240Y293800D01*
X42440Y295400D02*Y297000D01*
X44200Y295400D02*X45800D01*
X48360Y293800D02*X48760Y294200D01*
X47160Y293800D02*X48360D01*
X46760Y294200D02*X47160Y293800D01*
X46760Y294200D02*Y295000D01*
X47160Y295400D01*
X48360D01*
X48760Y295800D01*
Y296600D01*
X48360Y297000D02*X48760Y296600D01*
X47160Y297000D02*X48360D01*
X46760Y296600D02*X47160Y297000D01*
X49720Y294600D02*Y297000D01*
Y294600D02*X50280Y293800D01*
X51160D01*
X51720Y294600D01*
Y297000D01*
X49720Y295400D02*X51720D01*
X12130Y303000D02*X13300D01*
X11500Y302370D02*X12130Y303000D01*
X11500Y300030D02*Y302370D01*
Y300030D02*X12130Y299400D01*
X13300D01*
X14380D02*Y303000D01*
Y301200D02*X16180Y299400D01*
X14380Y301200D02*X16180Y303000D01*
X17260Y299400D02*X19060D01*
X18160D02*Y303000D01*
X20140Y301200D02*X21940D01*
X23020Y299400D02*X23920D01*
X23470D02*Y303000D01*
X23020D02*X23920D01*
X25000Y299400D02*X26800D01*
X27250Y299850D01*
Y300750D01*
X26800Y301200D02*X27250Y300750D01*
X25450Y301200D02*X26800D01*
X25450Y299400D02*Y303000D01*
X26170Y301200D02*X27250Y303000D01*
X30130Y299400D02*X30580Y299850D01*
X28780Y299400D02*X30130D01*
X28330Y299850D02*X28780Y299400D01*
X28330Y299850D02*Y300750D01*
X28780Y301200D01*
X30130D01*
X30580Y301650D01*
Y302550D01*
X30130Y303000D02*X30580Y302550D01*
X28780Y303000D02*X30130D01*
X28330Y302550D02*X28780Y303000D01*
X31660Y301020D02*X33010D01*
X31660Y303000D02*X33460D01*
X31660Y299400D02*Y303000D01*
Y299400D02*X33460D01*
X34540D02*Y303000D01*
Y299400D02*X36790Y303000D01*
Y299400D02*Y303000D01*
X39670Y299400D02*X40120Y299850D01*
X38320Y299400D02*X39670D01*
X37870Y299850D02*X38320Y299400D01*
X37870Y299850D02*Y300750D01*
X38320Y301200D01*
X39670D01*
X40120Y301650D01*
Y302550D01*
X39670Y303000D02*X40120Y302550D01*
X38320Y303000D02*X39670D01*
X37870Y302550D02*X38320Y303000D01*
X41200Y301020D02*X42550D01*
X41200Y303000D02*X43000D01*
X41200Y299400D02*Y303000D01*
Y299400D02*X43000D01*
X45700Y301200D02*X46600Y303000D01*
X47500Y301200D02*X46600Y303000D01*
X48580Y299850D02*X49030Y299400D01*
X49930D01*
X50380Y299850D01*
X49930Y303000D02*X50380Y302550D01*
X49030Y303000D02*X49930D01*
X48580Y302550D02*X49030Y303000D01*
Y301020D02*X49930D01*
X50380Y299850D02*Y300570D01*
Y301470D02*Y302550D01*
Y301470D02*X49930Y301020D01*
X50380Y300570D02*X49930Y301020D01*
X51460Y303000D02*X51910D01*
X52990Y299850D02*X53440Y299400D01*
X54790D01*
X55240Y299850D01*
Y300750D01*
X52990Y303000D02*X55240Y300750D01*
X52990Y303000D02*X55240D01*
X12130Y268000D02*X13300D01*
X11500Y267370D02*X12130Y268000D01*
X11500Y265030D02*Y267370D01*
Y265030D02*X12130Y264400D01*
X13300D01*
X14380D02*Y268000D01*
Y266200D02*X16180Y264400D01*
X14380Y266200D02*X16180Y268000D01*
X17260Y264400D02*X19060D01*
X18160D02*Y268000D01*
X20140Y266200D02*X21940D01*
X23020Y264400D02*X23920D01*
X23470D02*Y268000D01*
X23020D02*X23920D01*
X25000Y264400D02*X26800D01*
X27250Y264850D01*
Y265750D01*
X26800Y266200D02*X27250Y265750D01*
X25450Y266200D02*X26800D01*
X25450Y264400D02*Y268000D01*
X26170Y266200D02*X27250Y268000D01*
X30130Y264400D02*X30580Y264850D01*
X28780Y264400D02*X30130D01*
X28330Y264850D02*X28780Y264400D01*
X28330Y264850D02*Y265750D01*
X28780Y266200D01*
X30130D01*
X30580Y266650D01*
Y267550D01*
X30130Y268000D02*X30580Y267550D01*
X28780Y268000D02*X30130D01*
X28330Y267550D02*X28780Y268000D01*
X31660Y266020D02*X33010D01*
X31660Y268000D02*X33460D01*
X31660Y264400D02*Y268000D01*
Y264400D02*X33460D01*
X34540D02*Y268000D01*
Y264400D02*X36790Y268000D01*
Y264400D02*Y268000D01*
X39670Y264400D02*X40120Y264850D01*
X38320Y264400D02*X39670D01*
X37870Y264850D02*X38320Y264400D01*
X37870Y264850D02*Y265750D01*
X38320Y266200D01*
X39670D01*
X40120Y266650D01*
Y267550D01*
X39670Y268000D02*X40120Y267550D01*
X38320Y268000D02*X39670D01*
X37870Y267550D02*X38320Y268000D01*
X41200Y266020D02*X42550D01*
X41200Y268000D02*X43000D01*
X41200Y264400D02*Y268000D01*
Y264400D02*X43000D01*
X45700Y266200D02*X46600Y268000D01*
X47500Y266200D02*X46600Y268000D01*
X48580Y264850D02*X49030Y264400D01*
X49930D01*
X50380Y264850D01*
X49930Y268000D02*X50380Y267550D01*
X49030Y268000D02*X49930D01*
X48580Y267550D02*X49030Y268000D01*
Y266020D02*X49930D01*
X50380Y264850D02*Y265570D01*
Y266470D02*Y267550D01*
Y266470D02*X49930Y266020D01*
X50380Y265570D02*X49930Y266020D01*
X51460Y268000D02*X51910D01*
X52990Y264850D02*X53440Y264400D01*
X54790D01*
X55240Y264850D01*
Y265750D01*
X52990Y268000D02*X55240Y265750D01*
X52990Y268000D02*X55240D01*
X12130Y233000D02*X13300D01*
X11500Y232370D02*X12130Y233000D01*
X11500Y230030D02*Y232370D01*
Y230030D02*X12130Y229400D01*
X13300D01*
X14380D02*Y233000D01*
Y231200D02*X16180Y229400D01*
X14380Y231200D02*X16180Y233000D01*
X17260Y229400D02*X19060D01*
X18160D02*Y233000D01*
X20140Y231200D02*X21940D01*
X23020Y229400D02*X23920D01*
X23470D02*Y233000D01*
X23020D02*X23920D01*
X25000Y229400D02*X26800D01*
X27250Y229850D01*
Y230750D01*
X26800Y231200D02*X27250Y230750D01*
X25450Y231200D02*X26800D01*
X25450Y229400D02*Y233000D01*
X26170Y231200D02*X27250Y233000D01*
X30130Y229400D02*X30580Y229850D01*
X28780Y229400D02*X30130D01*
X28330Y229850D02*X28780Y229400D01*
X28330Y229850D02*Y230750D01*
X28780Y231200D01*
X30130D01*
X30580Y231650D01*
Y232550D01*
X30130Y233000D02*X30580Y232550D01*
X28780Y233000D02*X30130D01*
X28330Y232550D02*X28780Y233000D01*
X31660Y231020D02*X33010D01*
X31660Y233000D02*X33460D01*
X31660Y229400D02*Y233000D01*
Y229400D02*X33460D01*
X34540D02*Y233000D01*
Y229400D02*X36790Y233000D01*
Y229400D02*Y233000D01*
X39670Y229400D02*X40120Y229850D01*
X38320Y229400D02*X39670D01*
X37870Y229850D02*X38320Y229400D01*
X37870Y229850D02*Y230750D01*
X38320Y231200D01*
X39670D01*
X40120Y231650D01*
Y232550D01*
X39670Y233000D02*X40120Y232550D01*
X38320Y233000D02*X39670D01*
X37870Y232550D02*X38320Y233000D01*
X41200Y231020D02*X42550D01*
X41200Y233000D02*X43000D01*
X41200Y229400D02*Y233000D01*
Y229400D02*X43000D01*
X45700Y231200D02*X46600Y233000D01*
X47500Y231200D02*X46600Y233000D01*
X48580Y229850D02*X49030Y229400D01*
X49930D01*
X50380Y229850D01*
X49930Y233000D02*X50380Y232550D01*
X49030Y233000D02*X49930D01*
X48580Y232550D02*X49030Y233000D01*
Y231020D02*X49930D01*
X50380Y229850D02*Y230570D01*
Y231470D02*Y232550D01*
Y231470D02*X49930Y231020D01*
X50380Y230570D02*X49930Y231020D01*
X51460Y233000D02*X51910D01*
X52990Y229850D02*X53440Y229400D01*
X54790D01*
X55240Y229850D01*
Y230750D01*
X52990Y233000D02*X55240Y230750D01*
X52990Y233000D02*X55240D01*
X46000Y321100D02*X46400Y321500D01*
X46000Y318700D02*X46400Y318300D01*
X46000Y318700D02*Y321100D01*
X47920Y321500D02*X48960D01*
X47360Y320940D02*X47920Y321500D01*
X47360Y318860D02*Y320940D01*
Y318860D02*X47920Y318300D01*
X48960D01*
X49920D02*X50320Y318700D01*
Y321100D01*
X49920Y321500D02*X50320Y321100D01*
X51280Y318700D02*X51680Y318300D01*
X52880D01*
X53280Y318700D01*
Y319500D01*
X51280Y321500D02*X53280Y319500D01*
X51280Y321500D02*X53280D01*
X54240Y321100D02*X54640Y321500D01*
X54240Y318700D02*Y321100D01*
Y318700D02*X54640Y318300D01*
X55440D01*
X55840Y318700D01*
Y321100D01*
X55440Y321500D02*X55840Y321100D01*
X54640Y321500D02*X55440D01*
X54240Y320700D02*X55840Y319100D01*
X56800Y318940D02*X57440Y318300D01*
Y321500D01*
X56800D02*X58000D01*
X58960Y320300D02*X60560Y318300D01*
X58960Y320300D02*X60960D01*
X60560Y318300D02*Y321500D01*
X46000Y286100D02*X46400Y286500D01*
X46000Y283700D02*X46400Y283300D01*
X46000Y283700D02*Y286100D01*
X47920Y286500D02*X48960D01*
X47360Y285940D02*X47920Y286500D01*
X47360Y283860D02*Y285940D01*
Y283860D02*X47920Y283300D01*
X48960D01*
X49920D02*X50320Y283700D01*
Y286100D01*
X49920Y286500D02*X50320Y286100D01*
X51280Y283700D02*X51680Y283300D01*
X52880D01*
X53280Y283700D01*
Y284500D01*
X51280Y286500D02*X53280Y284500D01*
X51280Y286500D02*X53280D01*
X54240Y286100D02*X54640Y286500D01*
X54240Y283700D02*Y286100D01*
Y283700D02*X54640Y283300D01*
X55440D01*
X55840Y283700D01*
Y286100D01*
X55440Y286500D02*X55840Y286100D01*
X54640Y286500D02*X55440D01*
X54240Y285700D02*X55840Y284100D01*
X56800Y283940D02*X57440Y283300D01*
Y286500D01*
X56800D02*X58000D01*
X58960Y285300D02*X60560Y283300D01*
X58960Y285300D02*X60960D01*
X60560Y283300D02*Y286500D01*
X70000Y330000D02*X73000D01*
X70000D02*X69000Y329300D01*
Y328200D02*Y329300D01*
Y328200D02*X70000Y327500D01*
X73000D01*
X71000D02*Y330000D01*
X69000Y325800D02*X73000D01*
X69000Y324500D02*X69700Y323800D01*
X72300D01*
X73000Y324500D02*X72300Y323800D01*
X73000Y324500D02*Y326300D01*
X69000Y324500D02*Y326300D01*
Y321100D02*Y321900D01*
Y321100D02*X72500D01*
X73000Y321600D02*X72500Y321100D01*
X73000Y321600D02*Y322100D01*
X72500Y322600D02*X73000Y322100D01*
X72000Y322600D02*X72500D01*
X70000Y295000D02*X73000D01*
X70000D02*X69000Y294300D01*
Y293200D02*Y294300D01*
Y293200D02*X70000Y292500D01*
X73000D01*
X71000D02*Y295000D01*
X69000Y290800D02*X73000D01*
X69000Y289500D02*X69700Y288800D01*
X72300D01*
X73000Y289500D02*X72300Y288800D01*
X73000Y289500D02*Y291300D01*
X69000Y289500D02*Y291300D01*
Y286100D02*Y286900D01*
Y286100D02*X72500D01*
X73000Y286600D02*X72500Y286100D01*
X73000Y286600D02*Y287100D01*
X72500Y287600D02*X73000Y287100D01*
X72000Y287600D02*X72500D01*
X70000Y260000D02*X73000D01*
X70000D02*X69000Y259300D01*
Y258200D02*Y259300D01*
Y258200D02*X70000Y257500D01*
X73000D01*
X71000D02*Y260000D01*
X69000Y255800D02*X73000D01*
X69000Y254500D02*X69700Y253800D01*
X72300D01*
X73000Y254500D02*X72300Y253800D01*
X73000Y254500D02*Y256300D01*
X69000Y254500D02*Y256300D01*
Y251100D02*Y251900D01*
Y251100D02*X72500D01*
X73000Y251600D02*X72500Y251100D01*
X73000Y251600D02*Y252100D01*
X72500Y252600D02*X73000Y252100D01*
X72000Y252600D02*X72500D01*
X70000Y225000D02*X73000D01*
X70000D02*X69000Y224300D01*
Y223200D02*Y224300D01*
Y223200D02*X70000Y222500D01*
X73000D01*
X71000D02*Y225000D01*
X69000Y220800D02*X73000D01*
X69000Y219500D02*X69700Y218800D01*
X72300D01*
X73000Y219500D02*X72300Y218800D01*
X73000Y219500D02*Y221300D01*
X69000Y219500D02*Y221300D01*
Y216100D02*Y216900D01*
Y216100D02*X72500D01*
X73000Y216600D02*X72500Y216100D01*
X73000Y216600D02*Y217100D01*
X72500Y217600D02*X73000Y217100D01*
X72000Y217600D02*X72500D01*
X70000Y190000D02*X73000D01*
X70000D02*X69000Y189300D01*
Y188200D02*Y189300D01*
Y188200D02*X70000Y187500D01*
X73000D01*
X71000D02*Y190000D01*
X69000Y185800D02*X73000D01*
X69000Y184500D02*X69700Y183800D01*
X72300D01*
X73000Y184500D02*X72300Y183800D01*
X73000Y184500D02*Y186300D01*
X69000Y184500D02*Y186300D01*
Y181100D02*Y181900D01*
Y181100D02*X72500D01*
X73000Y181600D02*X72500Y181100D01*
X73000Y181600D02*Y182100D01*
X72500Y182600D02*X73000Y182100D01*
X72000Y182600D02*X72500D01*
X70000Y154500D02*X73000D01*
X70000D02*X69000Y153800D01*
Y152700D02*Y153800D01*
Y152700D02*X70000Y152000D01*
X73000D01*
X71000D02*Y154500D01*
X69000Y150300D02*X73000D01*
X69000Y149000D02*X69700Y148300D01*
X72300D01*
X73000Y149000D02*X72300Y148300D01*
X73000Y149000D02*Y150800D01*
X69000Y149000D02*Y150800D01*
Y145600D02*Y146400D01*
Y145600D02*X72500D01*
X73000Y146100D02*X72500Y145600D01*
X73000Y146100D02*Y146600D01*
X72500Y147100D02*X73000Y146600D01*
X72000Y147100D02*X72500D01*
X31560Y262000D02*X32600D01*
X31000Y261440D02*X31560Y262000D01*
X31000Y259360D02*Y261440D01*
Y259360D02*X31560Y258800D01*
X32600D01*
X34120Y262000D02*X35160D01*
X33560Y261440D02*X34120Y262000D01*
X33560Y259360D02*Y261440D01*
Y259360D02*X34120Y258800D01*
X35160D01*
X36120Y260400D02*X37720D01*
X38680Y262000D02*X40280D01*
X40680Y261600D01*
Y260640D02*Y261600D01*
X40280Y260240D02*X40680Y260640D01*
X39080Y260240D02*X40280D01*
X39080Y258800D02*Y262000D01*
X38680Y258800D02*X40280D01*
X40680Y259200D01*
Y259840D01*
X40280Y260240D02*X40680Y259840D01*
X41640Y258800D02*X42440Y260400D01*
X43240Y258800D01*
X42440Y260400D02*Y262000D01*
X44200Y260400D02*X45800D01*
X48360Y258800D02*X48760Y259200D01*
X47160Y258800D02*X48360D01*
X46760Y259200D02*X47160Y258800D01*
X46760Y259200D02*Y260000D01*
X47160Y260400D01*
X48360D01*
X48760Y260800D01*
Y261600D01*
X48360Y262000D02*X48760Y261600D01*
X47160Y262000D02*X48360D01*
X46760Y261600D02*X47160Y262000D01*
X49720Y259600D02*Y262000D01*
Y259600D02*X50280Y258800D01*
X51160D01*
X51720Y259600D01*
Y262000D01*
X49720Y260400D02*X51720D01*
X46000Y251100D02*X46400Y251500D01*
X46000Y248700D02*X46400Y248300D01*
X46000Y248700D02*Y251100D01*
X47920Y251500D02*X48960D01*
X47360Y250940D02*X47920Y251500D01*
X47360Y248860D02*Y250940D01*
Y248860D02*X47920Y248300D01*
X48960D01*
X49920D02*X50320Y248700D01*
Y251100D01*
X49920Y251500D02*X50320Y251100D01*
X51280Y248700D02*X51680Y248300D01*
X52880D01*
X53280Y248700D01*
Y249500D01*
X51280Y251500D02*X53280Y249500D01*
X51280Y251500D02*X53280D01*
X54240Y251100D02*X54640Y251500D01*
X54240Y248700D02*Y251100D01*
Y248700D02*X54640Y248300D01*
X55440D01*
X55840Y248700D01*
Y251100D01*
X55440Y251500D02*X55840Y251100D01*
X54640Y251500D02*X55440D01*
X54240Y250700D02*X55840Y249100D01*
X56800Y248940D02*X57440Y248300D01*
Y251500D01*
X56800D02*X58000D01*
X58960Y250300D02*X60560Y248300D01*
X58960Y250300D02*X60960D01*
X60560Y248300D02*Y251500D01*
X31560Y227000D02*X32600D01*
X31000Y226440D02*X31560Y227000D01*
X31000Y224360D02*Y226440D01*
Y224360D02*X31560Y223800D01*
X32600D01*
X34120Y227000D02*X35160D01*
X33560Y226440D02*X34120Y227000D01*
X33560Y224360D02*Y226440D01*
Y224360D02*X34120Y223800D01*
X35160D01*
X36120Y225400D02*X37720D01*
X38680Y227000D02*X40280D01*
X40680Y226600D01*
Y225640D02*Y226600D01*
X40280Y225240D02*X40680Y225640D01*
X39080Y225240D02*X40280D01*
X39080Y223800D02*Y227000D01*
X38680Y223800D02*X40280D01*
X40680Y224200D01*
Y224840D01*
X40280Y225240D02*X40680Y224840D01*
X41640Y223800D02*X42440Y225400D01*
X43240Y223800D01*
X42440Y225400D02*Y227000D01*
X44200Y225400D02*X45800D01*
X48360Y223800D02*X48760Y224200D01*
X47160Y223800D02*X48360D01*
X46760Y224200D02*X47160Y223800D01*
X46760Y224200D02*Y225000D01*
X47160Y225400D01*
X48360D01*
X48760Y225800D01*
Y226600D01*
X48360Y227000D02*X48760Y226600D01*
X47160Y227000D02*X48360D01*
X46760Y226600D02*X47160Y227000D01*
X49720Y224600D02*Y227000D01*
Y224600D02*X50280Y223800D01*
X51160D01*
X51720Y224600D01*
Y227000D01*
X49720Y225400D02*X51720D01*
X46000Y216100D02*X46400Y216500D01*
X46000Y213700D02*X46400Y213300D01*
X46000Y213700D02*Y216100D01*
X47920Y216500D02*X48960D01*
X47360Y215940D02*X47920Y216500D01*
X47360Y213860D02*Y215940D01*
Y213860D02*X47920Y213300D01*
X48960D01*
X49920D02*X50320Y213700D01*
Y216100D01*
X49920Y216500D02*X50320Y216100D01*
X51280Y213700D02*X51680Y213300D01*
X52880D01*
X53280Y213700D01*
Y214500D01*
X51280Y216500D02*X53280Y214500D01*
X51280Y216500D02*X53280D01*
X54240Y216100D02*X54640Y216500D01*
X54240Y213700D02*Y216100D01*
Y213700D02*X54640Y213300D01*
X55440D01*
X55840Y213700D01*
Y216100D01*
X55440Y216500D02*X55840Y216100D01*
X54640Y216500D02*X55440D01*
X54240Y215700D02*X55840Y214100D01*
X56800Y213940D02*X57440Y213300D01*
Y216500D01*
X56800D02*X58000D01*
X58960Y215300D02*X60560Y213300D01*
X58960Y215300D02*X60960D01*
X60560Y213300D02*Y216500D01*
X31560Y192000D02*X32600D01*
X31000Y191440D02*X31560Y192000D01*
X31000Y189360D02*Y191440D01*
Y189360D02*X31560Y188800D01*
X32600D01*
X34120Y192000D02*X35160D01*
X33560Y191440D02*X34120Y192000D01*
X33560Y189360D02*Y191440D01*
Y189360D02*X34120Y188800D01*
X35160D01*
X36120Y190400D02*X37720D01*
X38680Y192000D02*X40280D01*
X40680Y191600D01*
Y190640D02*Y191600D01*
X40280Y190240D02*X40680Y190640D01*
X39080Y190240D02*X40280D01*
X39080Y188800D02*Y192000D01*
X38680Y188800D02*X40280D01*
X40680Y189200D01*
Y189840D01*
X40280Y190240D02*X40680Y189840D01*
X41640Y188800D02*X42440Y190400D01*
X43240Y188800D01*
X42440Y190400D02*Y192000D01*
X44200Y190400D02*X45800D01*
X48360Y188800D02*X48760Y189200D01*
X47160Y188800D02*X48360D01*
X46760Y189200D02*X47160Y188800D01*
X46760Y189200D02*Y190000D01*
X47160Y190400D01*
X48360D01*
X48760Y190800D01*
Y191600D01*
X48360Y192000D02*X48760Y191600D01*
X47160Y192000D02*X48360D01*
X46760Y191600D02*X47160Y192000D01*
X49720Y189600D02*Y192000D01*
Y189600D02*X50280Y188800D01*
X51160D01*
X51720Y189600D01*
Y192000D01*
X49720Y190400D02*X51720D01*
X152800Y226500D02*Y228000D01*
X155000Y226000D02*Y228000D01*
X151000D02*X155000D01*
X151000Y226000D02*Y228000D01*
X153500Y224300D02*X155000D01*
X153500D02*X153000Y223800D01*
Y223300D02*Y223800D01*
Y223300D02*X153500Y222800D01*
X155000D01*
X153000Y224800D02*X153500Y224300D01*
X153000Y220100D02*X153500Y219600D01*
X153000Y220100D02*Y221100D01*
X153500Y221600D02*X153000Y221100D01*
X153500Y221600D02*X154500D01*
X155000Y221100D01*
Y220100D02*Y221100D01*
Y220100D02*X154500Y219600D01*
X156000Y221600D02*X156500Y221100D01*
Y220100D02*Y221100D01*
Y220100D02*X156000Y219600D01*
X153000D02*X156000D01*
X155000Y217900D02*Y218400D01*
X161000Y231000D02*X161500Y230500D01*
X161000Y231000D02*Y232500D01*
X161500Y233000D02*X161000Y232500D01*
X161500Y233000D02*X164500D01*
X165000Y232500D01*
Y231000D02*Y232500D01*
Y231000D02*X164500Y230500D01*
X163500D02*X164500D01*
X163000Y231000D02*X163500Y230500D01*
X163000Y231000D02*Y232000D01*
X161000Y229300D02*X165000D01*
X161000D02*X165000Y226800D01*
X161000D02*X165000D01*
X161000Y225100D02*X165000D01*
X161000Y223800D02*X161700Y223100D01*
X164300D01*
X165000Y223800D02*X164300Y223100D01*
X165000Y223800D02*Y225600D01*
X161000Y223800D02*Y225600D01*
X152800Y191500D02*Y193000D01*
X155000Y191000D02*Y193000D01*
X151000D02*X155000D01*
X151000Y191000D02*Y193000D01*
X153500Y189300D02*X155000D01*
X153500D02*X153000Y188800D01*
Y188300D02*Y188800D01*
Y188300D02*X153500Y187800D01*
X155000D01*
X153000Y189800D02*X153500Y189300D01*
X153000Y185100D02*X153500Y184600D01*
X153000Y185100D02*Y186100D01*
X153500Y186600D02*X153000Y186100D01*
X153500Y186600D02*X154500D01*
X155000Y186100D01*
Y185100D02*Y186100D01*
Y185100D02*X154500Y184600D01*
X156000Y186600D02*X156500Y186100D01*
Y185100D02*Y186100D01*
Y185100D02*X156000Y184600D01*
X153000D02*X156000D01*
X155000Y182900D02*Y183400D01*
X161000Y196000D02*X161500Y195500D01*
X161000Y196000D02*Y197500D01*
X161500Y198000D02*X161000Y197500D01*
X161500Y198000D02*X164500D01*
X165000Y197500D01*
Y196000D02*Y197500D01*
Y196000D02*X164500Y195500D01*
X163500D02*X164500D01*
X163000Y196000D02*X163500Y195500D01*
X163000Y196000D02*Y197000D01*
X161000Y194300D02*X165000D01*
X161000D02*X165000Y191800D01*
X161000D02*X165000D01*
X161000Y190100D02*X165000D01*
X161000Y188800D02*X161700Y188100D01*
X164300D01*
X165000Y188800D02*X164300Y188100D01*
X165000Y188800D02*Y190600D01*
X161000Y188800D02*Y190600D01*
X152800Y156000D02*Y157500D01*
X155000Y155500D02*Y157500D01*
X151000D02*X155000D01*
X151000Y155500D02*Y157500D01*
X153500Y153800D02*X155000D01*
X153500D02*X153000Y153300D01*
Y152800D02*Y153300D01*
Y152800D02*X153500Y152300D01*
X155000D01*
X153000Y154300D02*X153500Y153800D01*
X153000Y149600D02*X153500Y149100D01*
X153000Y149600D02*Y150600D01*
X153500Y151100D02*X153000Y150600D01*
X153500Y151100D02*X154500D01*
X155000Y150600D01*
Y149600D02*Y150600D01*
Y149600D02*X154500Y149100D01*
X156000Y151100D02*X156500Y150600D01*
Y149600D02*Y150600D01*
Y149600D02*X156000Y149100D01*
X153000D02*X156000D01*
X155000Y147400D02*Y147900D01*
X161000Y160500D02*X161500Y160000D01*
X161000Y160500D02*Y162000D01*
X161500Y162500D02*X161000Y162000D01*
X161500Y162500D02*X164500D01*
X165000Y162000D01*
Y160500D02*Y162000D01*
Y160500D02*X164500Y160000D01*
X163500D02*X164500D01*
X163000Y160500D02*X163500Y160000D01*
X163000Y160500D02*Y161500D01*
X161000Y158800D02*X165000D01*
X161000D02*X165000Y156300D01*
X161000D02*X165000D01*
X161000Y154600D02*X165000D01*
X161000Y153300D02*X161700Y152600D01*
X164300D01*
X165000Y153300D02*X164300Y152600D01*
X165000Y153300D02*Y155100D01*
X161000Y153300D02*Y155100D01*
X144500Y229500D02*X145000Y229000D01*
X144500Y229500D02*Y231000D01*
X145000Y231500D02*X144500Y231000D01*
X145000Y231500D02*X146000D01*
X146500Y231000D01*
Y229500D02*Y231000D01*
Y229500D02*X147000Y229000D01*
X148000D01*
X148500Y229500D02*X148000Y229000D01*
X148500Y229500D02*Y231000D01*
X148000Y231500D02*X148500Y231000D01*
X146500Y225800D02*Y227300D01*
X147000Y227800D02*X146500Y227300D01*
X147000Y227800D02*X148000D01*
X148500Y227300D01*
Y225800D02*Y227300D01*
X146500Y223100D02*X147000Y222600D01*
X146500Y223100D02*Y224100D01*
X147000Y224600D02*X146500Y224100D01*
X147000Y224600D02*X148000D01*
X148500Y224100D01*
X146500Y222600D02*X148000D01*
X148500Y222100D01*
Y223100D02*Y224100D01*
Y223100D02*X148000Y222600D01*
X144500Y220900D02*X148000D01*
X148500Y220400D01*
Y217400D02*Y218900D01*
X148000Y219400D02*X148500Y218900D01*
X147000Y219400D02*X148000D01*
X147000D02*X146500Y218900D01*
Y217900D02*Y218900D01*
Y217900D02*X147000Y217400D01*
X147500D02*Y219400D01*
X147000Y217400D02*X147500D01*
X144500Y214200D02*X148500D01*
Y214700D02*X148000Y214200D01*
X148500Y214700D02*Y215700D01*
X148000Y216200D02*X148500Y215700D01*
X147000Y216200D02*X148000D01*
X147000D02*X146500Y215700D01*
Y214700D02*Y215700D01*
Y214700D02*X147000Y214200D01*
X144500Y194500D02*X145000Y194000D01*
X144500Y194500D02*Y196000D01*
X145000Y196500D02*X144500Y196000D01*
X145000Y196500D02*X146000D01*
X146500Y196000D01*
Y194500D02*Y196000D01*
Y194500D02*X147000Y194000D01*
X148000D01*
X148500Y194500D02*X148000Y194000D01*
X148500Y194500D02*Y196000D01*
X148000Y196500D02*X148500Y196000D01*
X146500Y190800D02*Y192300D01*
X147000Y192800D02*X146500Y192300D01*
X147000Y192800D02*X148000D01*
X148500Y192300D01*
Y190800D02*Y192300D01*
X146500Y188100D02*X147000Y187600D01*
X146500Y188100D02*Y189100D01*
X147000Y189600D02*X146500Y189100D01*
X147000Y189600D02*X148000D01*
X148500Y189100D01*
X146500Y187600D02*X148000D01*
X148500Y187100D01*
Y188100D02*Y189100D01*
Y188100D02*X148000Y187600D01*
X144500Y185900D02*X148000D01*
X148500Y185400D01*
Y182400D02*Y183900D01*
X148000Y184400D02*X148500Y183900D01*
X147000Y184400D02*X148000D01*
X147000D02*X146500Y183900D01*
Y182900D02*Y183900D01*
Y182900D02*X147000Y182400D01*
X147500D02*Y184400D01*
X147000Y182400D02*X147500D01*
X144500Y179200D02*X148500D01*
Y179700D02*X148000Y179200D01*
X148500Y179700D02*Y180700D01*
X148000Y181200D02*X148500Y180700D01*
X147000Y181200D02*X148000D01*
X147000D02*X146500Y180700D01*
Y179700D02*Y180700D01*
Y179700D02*X147000Y179200D01*
X138000Y193000D02*Y194000D01*
Y193500D02*X142000D01*
Y193000D02*Y194000D01*
X140500Y191800D02*X141500D01*
X140500D02*X140000Y191300D01*
Y190300D02*Y191300D01*
Y190300D02*X140500Y189800D01*
X141500D01*
X142000Y190300D02*X141500Y189800D01*
X142000Y190300D02*Y191300D01*
X141500Y191800D02*X142000Y191300D01*
X140000Y188600D02*X141500D01*
X142000Y188100D01*
Y187600D02*Y188100D01*
Y187600D02*X141500Y187100D01*
X140000D02*X141500D01*
X142000Y186600D01*
Y186100D02*Y186600D01*
Y186100D02*X141500Y185600D01*
X140000D02*X141500D01*
X140000Y182900D02*X140500Y182400D01*
X140000Y182900D02*Y183900D01*
X140500Y184400D02*X140000Y183900D01*
X140500Y184400D02*X141500D01*
X142000Y183900D01*
X140000Y182400D02*X141500D01*
X142000Y181900D01*
Y182900D02*Y183900D01*
Y182900D02*X141500Y182400D01*
X144500Y159000D02*X145000Y158500D01*
X144500Y159000D02*Y160500D01*
X145000Y161000D02*X144500Y160500D01*
X145000Y161000D02*X146000D01*
X146500Y160500D01*
Y159000D02*Y160500D01*
Y159000D02*X147000Y158500D01*
X148000D01*
X148500Y159000D02*X148000Y158500D01*
X148500Y159000D02*Y160500D01*
X148000Y161000D02*X148500Y160500D01*
X146500Y155300D02*Y156800D01*
X147000Y157300D02*X146500Y156800D01*
X147000Y157300D02*X148000D01*
X148500Y156800D01*
Y155300D02*Y156800D01*
X146500Y152600D02*X147000Y152100D01*
X146500Y152600D02*Y153600D01*
X147000Y154100D02*X146500Y153600D01*
X147000Y154100D02*X148000D01*
X148500Y153600D01*
X146500Y152100D02*X148000D01*
X148500Y151600D01*
Y152600D02*Y153600D01*
Y152600D02*X148000Y152100D01*
X144500Y150400D02*X148000D01*
X148500Y149900D01*
Y146900D02*Y148400D01*
X148000Y148900D02*X148500Y148400D01*
X147000Y148900D02*X148000D01*
X147000D02*X146500Y148400D01*
Y147400D02*Y148400D01*
Y147400D02*X147000Y146900D01*
X147500D02*Y148900D01*
X147000Y146900D02*X147500D01*
X144500Y143700D02*X148500D01*
Y144200D02*X148000Y143700D01*
X148500Y144200D02*Y145200D01*
X148000Y145700D02*X148500Y145200D01*
X147000Y145700D02*X148000D01*
X147000D02*X146500Y145200D01*
Y144200D02*Y145200D01*
Y144200D02*X147000Y143700D01*
X138000Y157500D02*Y158500D01*
Y158000D02*X142000D01*
Y157500D02*Y158500D01*
X140500Y156300D02*X141500D01*
X140500D02*X140000Y155800D01*
Y154800D02*Y155800D01*
Y154800D02*X140500Y154300D01*
X141500D01*
X142000Y154800D02*X141500Y154300D01*
X142000Y154800D02*Y155800D01*
X141500Y156300D02*X142000Y155800D01*
X140000Y153100D02*X141500D01*
X142000Y152600D01*
Y152100D02*Y152600D01*
Y152100D02*X141500Y151600D01*
X140000D02*X141500D01*
X142000Y151100D01*
Y150600D02*Y151100D01*
Y150600D02*X141500Y150100D01*
X140000D02*X141500D01*
X140000Y147400D02*X140500Y146900D01*
X140000Y147400D02*Y148400D01*
X140500Y148900D02*X140000Y148400D01*
X140500Y148900D02*X141500D01*
X142000Y148400D01*
X140000Y146900D02*X141500D01*
X142000Y146400D01*
Y147400D02*Y148400D01*
Y147400D02*X141500Y146900D01*
X138000Y228000D02*Y229000D01*
Y228500D02*X142000D01*
Y228000D02*Y229000D01*
X140500Y226800D02*X141500D01*
X140500D02*X140000Y226300D01*
Y225300D02*Y226300D01*
Y225300D02*X140500Y224800D01*
X141500D01*
X142000Y225300D02*X141500Y224800D01*
X142000Y225300D02*Y226300D01*
X141500Y226800D02*X142000Y226300D01*
X140000Y223600D02*X141500D01*
X142000Y223100D01*
Y222600D02*Y223100D01*
Y222600D02*X141500Y222100D01*
X140000D02*X141500D01*
X142000Y221600D01*
Y221100D02*Y221600D01*
Y221100D02*X141500Y220600D01*
X140000D02*X141500D01*
X140000Y217900D02*X140500Y217400D01*
X140000Y217900D02*Y218900D01*
X140500Y219400D02*X140000Y218900D01*
X140500Y219400D02*X141500D01*
X142000Y218900D01*
X140000Y217400D02*X141500D01*
X142000Y216900D01*
Y217900D02*Y218900D01*
Y217900D02*X141500Y217400D01*
X127500Y229000D02*X131500D01*
X127500Y227700D02*X128200Y227000D01*
X130800D01*
X131500Y227700D02*X130800Y227000D01*
X131500Y227700D02*Y229500D01*
X127500Y227700D02*Y229500D01*
Y219000D02*X131500D01*
X127500Y217700D02*X128200Y217000D01*
X130800D01*
X131500Y217700D02*X130800Y217000D01*
X131500Y217700D02*Y219500D01*
X127500Y217700D02*Y219500D01*
X152800Y401500D02*Y403000D01*
X155000Y401000D02*Y403000D01*
X151000D02*X155000D01*
X151000Y401000D02*Y403000D01*
X153500Y399300D02*X155000D01*
X153500D02*X153000Y398800D01*
Y398300D02*Y398800D01*
Y398300D02*X153500Y397800D01*
X155000D01*
X153000Y399800D02*X153500Y399300D01*
X153000Y395100D02*X153500Y394600D01*
X153000Y395100D02*Y396100D01*
X153500Y396600D02*X153000Y396100D01*
X153500Y396600D02*X154500D01*
X155000Y396100D01*
Y395100D02*Y396100D01*
Y395100D02*X154500Y394600D01*
X156000Y396600D02*X156500Y396100D01*
Y395100D02*Y396100D01*
Y395100D02*X156000Y394600D01*
X153000D02*X156000D01*
X155000Y392900D02*Y393400D01*
X144500Y404500D02*X145000Y404000D01*
X144500Y404500D02*Y406000D01*
X145000Y406500D02*X144500Y406000D01*
X145000Y406500D02*X146000D01*
X146500Y406000D01*
Y404500D02*Y406000D01*
Y404500D02*X147000Y404000D01*
X148000D01*
X148500Y404500D02*X148000Y404000D01*
X148500Y404500D02*Y406000D01*
X148000Y406500D02*X148500Y406000D01*
X146500Y400800D02*Y402300D01*
X147000Y402800D02*X146500Y402300D01*
X147000Y402800D02*X148000D01*
X148500Y402300D01*
Y400800D02*Y402300D01*
X146500Y398100D02*X147000Y397600D01*
X146500Y398100D02*Y399100D01*
X147000Y399600D02*X146500Y399100D01*
X147000Y399600D02*X148000D01*
X148500Y399100D01*
X146500Y397600D02*X148000D01*
X148500Y397100D01*
Y398100D02*Y399100D01*
Y398100D02*X148000Y397600D01*
X144500Y395900D02*X148000D01*
X148500Y395400D01*
Y392400D02*Y393900D01*
X148000Y394400D02*X148500Y393900D01*
X147000Y394400D02*X148000D01*
X147000D02*X146500Y393900D01*
Y392900D02*Y393900D01*
Y392900D02*X147000Y392400D01*
X147500D02*Y394400D01*
X147000Y392400D02*X147500D01*
X144500Y389200D02*X148500D01*
Y389700D02*X148000Y389200D01*
X148500Y389700D02*Y390700D01*
X148000Y391200D02*X148500Y390700D01*
X147000Y391200D02*X148000D01*
X147000D02*X146500Y390700D01*
Y389700D02*Y390700D01*
Y389700D02*X147000Y389200D01*
X138000Y403000D02*Y404000D01*
Y403500D02*X142000D01*
Y403000D02*Y404000D01*
X140500Y401800D02*X141500D01*
X140500D02*X140000Y401300D01*
Y400300D02*Y401300D01*
Y400300D02*X140500Y399800D01*
X141500D01*
X142000Y400300D02*X141500Y399800D01*
X142000Y400300D02*Y401300D01*
X141500Y401800D02*X142000Y401300D01*
X140000Y398600D02*X141500D01*
X142000Y398100D01*
Y397600D02*Y398100D01*
Y397600D02*X141500Y397100D01*
X140000D02*X141500D01*
X142000Y396600D01*
Y396100D02*Y396600D01*
Y396100D02*X141500Y395600D01*
X140000D02*X141500D01*
X140000Y392900D02*X140500Y392400D01*
X140000Y392900D02*Y393900D01*
X140500Y394400D02*X140000Y393900D01*
X140500Y394400D02*X141500D01*
X142000Y393900D01*
X140000Y392400D02*X141500D01*
X142000Y391900D01*
Y392900D02*Y393900D01*
Y392900D02*X141500Y392400D01*
X127500Y404000D02*X131500D01*
X127500Y402700D02*X128200Y402000D01*
X130800D01*
X131500Y402700D02*X130800Y402000D01*
X131500Y402700D02*Y404500D01*
X127500Y402700D02*Y404500D01*
Y394000D02*X131500D01*
X127500Y392700D02*X128200Y392000D01*
X130800D01*
X131500Y392700D02*X130800Y392000D01*
X131500Y392700D02*Y394500D01*
X127500Y392700D02*Y394500D01*
X161000Y406000D02*X161500Y405500D01*
X161000Y406000D02*Y407500D01*
X161500Y408000D02*X161000Y407500D01*
X161500Y408000D02*X164500D01*
X165000Y407500D01*
Y406000D02*Y407500D01*
Y406000D02*X164500Y405500D01*
X163500D02*X164500D01*
X163000Y406000D02*X163500Y405500D01*
X163000Y406000D02*Y407000D01*
X161000Y404300D02*X165000D01*
X161000D02*X165000Y401800D01*
X161000D02*X165000D01*
X161000Y400100D02*X165000D01*
X161000Y398800D02*X161700Y398100D01*
X164300D01*
X165000Y398800D02*X164300Y398100D01*
X165000Y398800D02*Y400600D01*
X161000Y398800D02*Y400600D01*
Y371000D02*X161500Y370500D01*
X161000Y371000D02*Y372500D01*
X161500Y373000D02*X161000Y372500D01*
X161500Y373000D02*X164500D01*
X165000Y372500D01*
Y371000D02*Y372500D01*
Y371000D02*X164500Y370500D01*
X163500D02*X164500D01*
X163000Y371000D02*X163500Y370500D01*
X163000Y371000D02*Y372000D01*
X161000Y369300D02*X165000D01*
X161000D02*X165000Y366800D01*
X161000D02*X165000D01*
X161000Y365100D02*X165000D01*
X161000Y363800D02*X161700Y363100D01*
X164300D01*
X165000Y363800D02*X164300Y363100D01*
X165000Y363800D02*Y365600D01*
X161000Y363800D02*Y365600D01*
X152800Y366500D02*Y368000D01*
X155000Y366000D02*Y368000D01*
X151000D02*X155000D01*
X151000Y366000D02*Y368000D01*
X153500Y364300D02*X155000D01*
X153500D02*X153000Y363800D01*
Y363300D02*Y363800D01*
Y363300D02*X153500Y362800D01*
X155000D01*
X153000Y364800D02*X153500Y364300D01*
X153000Y360100D02*X153500Y359600D01*
X153000Y360100D02*Y361100D01*
X153500Y361600D02*X153000Y361100D01*
X153500Y361600D02*X154500D01*
X155000Y361100D01*
Y360100D02*Y361100D01*
Y360100D02*X154500Y359600D01*
X156000Y361600D02*X156500Y361100D01*
Y360100D02*Y361100D01*
Y360100D02*X156000Y359600D01*
X153000D02*X156000D01*
X155000Y357900D02*Y358400D01*
X144500Y369500D02*X145000Y369000D01*
X144500Y369500D02*Y371000D01*
X145000Y371500D02*X144500Y371000D01*
X145000Y371500D02*X146000D01*
X146500Y371000D01*
Y369500D02*Y371000D01*
Y369500D02*X147000Y369000D01*
X148000D01*
X148500Y369500D02*X148000Y369000D01*
X148500Y369500D02*Y371000D01*
X148000Y371500D02*X148500Y371000D01*
X146500Y365800D02*Y367300D01*
X147000Y367800D02*X146500Y367300D01*
X147000Y367800D02*X148000D01*
X148500Y367300D01*
Y365800D02*Y367300D01*
X146500Y363100D02*X147000Y362600D01*
X146500Y363100D02*Y364100D01*
X147000Y364600D02*X146500Y364100D01*
X147000Y364600D02*X148000D01*
X148500Y364100D01*
X146500Y362600D02*X148000D01*
X148500Y362100D01*
Y363100D02*Y364100D01*
Y363100D02*X148000Y362600D01*
X144500Y360900D02*X148000D01*
X148500Y360400D01*
Y357400D02*Y358900D01*
X148000Y359400D02*X148500Y358900D01*
X147000Y359400D02*X148000D01*
X147000D02*X146500Y358900D01*
Y357900D02*Y358900D01*
Y357900D02*X147000Y357400D01*
X147500D02*Y359400D01*
X147000Y357400D02*X147500D01*
X144500Y354200D02*X148500D01*
Y354700D02*X148000Y354200D01*
X148500Y354700D02*Y355700D01*
X148000Y356200D02*X148500Y355700D01*
X147000Y356200D02*X148000D01*
X147000D02*X146500Y355700D01*
Y354700D02*Y355700D01*
Y354700D02*X147000Y354200D01*
X138000Y368000D02*Y369000D01*
Y368500D02*X142000D01*
Y368000D02*Y369000D01*
X140500Y366800D02*X141500D01*
X140500D02*X140000Y366300D01*
Y365300D02*Y366300D01*
Y365300D02*X140500Y364800D01*
X141500D01*
X142000Y365300D02*X141500Y364800D01*
X142000Y365300D02*Y366300D01*
X141500Y366800D02*X142000Y366300D01*
X140000Y363600D02*X141500D01*
X142000Y363100D01*
Y362600D02*Y363100D01*
Y362600D02*X141500Y362100D01*
X140000D02*X141500D01*
X142000Y361600D01*
Y361100D02*Y361600D01*
Y361100D02*X141500Y360600D01*
X140000D02*X141500D01*
X140000Y357900D02*X140500Y357400D01*
X140000Y357900D02*Y358900D01*
X140500Y359400D02*X140000Y358900D01*
X140500Y359400D02*X141500D01*
X142000Y358900D01*
X140000Y357400D02*X141500D01*
X142000Y356900D01*
Y357900D02*Y358900D01*
Y357900D02*X141500Y357400D01*
X127500Y369000D02*X131500D01*
X127500Y367700D02*X128200Y367000D01*
X130800D01*
X131500Y367700D02*X130800Y367000D01*
X131500Y367700D02*Y369500D01*
X127500Y367700D02*Y369500D01*
Y359000D02*X131500D01*
X127500Y357700D02*X128200Y357000D01*
X130800D01*
X131500Y357700D02*X130800Y357000D01*
X131500Y357700D02*Y359500D01*
X127500Y357700D02*Y359500D01*
X31560Y402000D02*X32600D01*
X31000Y401440D02*X31560Y402000D01*
X31000Y399360D02*Y401440D01*
Y399360D02*X31560Y398800D01*
X32600D01*
X34120Y402000D02*X35160D01*
X33560Y401440D02*X34120Y402000D01*
X33560Y399360D02*Y401440D01*
Y399360D02*X34120Y398800D01*
X35160D01*
X36120Y400400D02*X37720D01*
X38680Y402000D02*X40280D01*
X40680Y401600D01*
Y400640D02*Y401600D01*
X40280Y400240D02*X40680Y400640D01*
X39080Y400240D02*X40280D01*
X39080Y398800D02*Y402000D01*
X38680Y398800D02*X40280D01*
X40680Y399200D01*
Y399840D01*
X40280Y400240D02*X40680Y399840D01*
X41640Y398800D02*X42440Y400400D01*
X43240Y398800D01*
X42440Y400400D02*Y402000D01*
X44200Y400400D02*X45800D01*
X48360Y398800D02*X48760Y399200D01*
X47160Y398800D02*X48360D01*
X46760Y399200D02*X47160Y398800D01*
X46760Y399200D02*Y400000D01*
X47160Y400400D01*
X48360D01*
X48760Y400800D01*
Y401600D01*
X48360Y402000D02*X48760Y401600D01*
X47160Y402000D02*X48360D01*
X46760Y401600D02*X47160Y402000D01*
X49720Y399600D02*Y402000D01*
Y399600D02*X50280Y398800D01*
X51160D01*
X51720Y399600D01*
Y402000D01*
X49720Y400400D02*X51720D01*
X46000Y391100D02*X46400Y391500D01*
X46000Y388700D02*X46400Y388300D01*
X46000Y388700D02*Y391100D01*
X47920Y391500D02*X48960D01*
X47360Y390940D02*X47920Y391500D01*
X47360Y388860D02*Y390940D01*
Y388860D02*X47920Y388300D01*
X48960D01*
X49920D02*X50320Y388700D01*
Y391100D01*
X49920Y391500D02*X50320Y391100D01*
X51280Y388700D02*X51680Y388300D01*
X52880D01*
X53280Y388700D01*
Y389500D01*
X51280Y391500D02*X53280Y389500D01*
X51280Y391500D02*X53280D01*
X54240Y391100D02*X54640Y391500D01*
X54240Y388700D02*Y391100D01*
Y388700D02*X54640Y388300D01*
X55440D01*
X55840Y388700D01*
Y391100D01*
X55440Y391500D02*X55840Y391100D01*
X54640Y391500D02*X55440D01*
X54240Y390700D02*X55840Y389100D01*
X56800Y388940D02*X57440Y388300D01*
Y391500D01*
X56800D02*X58000D01*
X58960Y390300D02*X60560Y388300D01*
X58960Y390300D02*X60960D01*
X60560Y388300D02*Y391500D01*
X12130Y408000D02*X13300D01*
X11500Y407370D02*X12130Y408000D01*
X11500Y405030D02*Y407370D01*
Y405030D02*X12130Y404400D01*
X13300D01*
X14380D02*Y408000D01*
Y406200D02*X16180Y404400D01*
X14380Y406200D02*X16180Y408000D01*
X17260Y404400D02*X19060D01*
X18160D02*Y408000D01*
X20140Y406200D02*X21940D01*
X23020Y404400D02*X23920D01*
X23470D02*Y408000D01*
X23020D02*X23920D01*
X25000Y404400D02*X26800D01*
X27250Y404850D01*
Y405750D01*
X26800Y406200D02*X27250Y405750D01*
X25450Y406200D02*X26800D01*
X25450Y404400D02*Y408000D01*
X26170Y406200D02*X27250Y408000D01*
X30130Y404400D02*X30580Y404850D01*
X28780Y404400D02*X30130D01*
X28330Y404850D02*X28780Y404400D01*
X28330Y404850D02*Y405750D01*
X28780Y406200D01*
X30130D01*
X30580Y406650D01*
Y407550D01*
X30130Y408000D02*X30580Y407550D01*
X28780Y408000D02*X30130D01*
X28330Y407550D02*X28780Y408000D01*
X31660Y406020D02*X33010D01*
X31660Y408000D02*X33460D01*
X31660Y404400D02*Y408000D01*
Y404400D02*X33460D01*
X34540D02*Y408000D01*
Y404400D02*X36790Y408000D01*
Y404400D02*Y408000D01*
X39670Y404400D02*X40120Y404850D01*
X38320Y404400D02*X39670D01*
X37870Y404850D02*X38320Y404400D01*
X37870Y404850D02*Y405750D01*
X38320Y406200D01*
X39670D01*
X40120Y406650D01*
Y407550D01*
X39670Y408000D02*X40120Y407550D01*
X38320Y408000D02*X39670D01*
X37870Y407550D02*X38320Y408000D01*
X41200Y406020D02*X42550D01*
X41200Y408000D02*X43000D01*
X41200Y404400D02*Y408000D01*
Y404400D02*X43000D01*
X45700Y406200D02*X46600Y408000D01*
X47500Y406200D02*X46600Y408000D01*
X48580Y404850D02*X49030Y404400D01*
X49930D01*
X50380Y404850D01*
X49930Y408000D02*X50380Y407550D01*
X49030Y408000D02*X49930D01*
X48580Y407550D02*X49030Y408000D01*
Y406020D02*X49930D01*
X50380Y404850D02*Y405570D01*
Y406470D02*Y407550D01*
Y406470D02*X49930Y406020D01*
X50380Y405570D02*X49930Y406020D01*
X51460Y408000D02*X51910D01*
X52990Y404850D02*X53440Y404400D01*
X54790D01*
X55240Y404850D01*
Y405750D01*
X52990Y408000D02*X55240Y405750D01*
X52990Y408000D02*X55240D01*
X31560Y367000D02*X32600D01*
X31000Y366440D02*X31560Y367000D01*
X31000Y364360D02*Y366440D01*
Y364360D02*X31560Y363800D01*
X32600D01*
X34120Y367000D02*X35160D01*
X33560Y366440D02*X34120Y367000D01*
X33560Y364360D02*Y366440D01*
Y364360D02*X34120Y363800D01*
X35160D01*
X36120Y365400D02*X37720D01*
X38680Y367000D02*X40280D01*
X40680Y366600D01*
Y365640D02*Y366600D01*
X40280Y365240D02*X40680Y365640D01*
X39080Y365240D02*X40280D01*
X39080Y363800D02*Y367000D01*
X38680Y363800D02*X40280D01*
X40680Y364200D01*
Y364840D01*
X40280Y365240D02*X40680Y364840D01*
X41640Y363800D02*X42440Y365400D01*
X43240Y363800D01*
X42440Y365400D02*Y367000D01*
X44200Y365400D02*X45800D01*
X48360Y363800D02*X48760Y364200D01*
X47160Y363800D02*X48360D01*
X46760Y364200D02*X47160Y363800D01*
X46760Y364200D02*Y365000D01*
X47160Y365400D01*
X48360D01*
X48760Y365800D01*
Y366600D01*
X48360Y367000D02*X48760Y366600D01*
X47160Y367000D02*X48360D01*
X46760Y366600D02*X47160Y367000D01*
X49720Y364600D02*Y367000D01*
Y364600D02*X50280Y363800D01*
X51160D01*
X51720Y364600D01*
Y367000D01*
X49720Y365400D02*X51720D01*
X46000Y356100D02*X46400Y356500D01*
X46000Y353700D02*X46400Y353300D01*
X46000Y353700D02*Y356100D01*
X47920Y356500D02*X48960D01*
X47360Y355940D02*X47920Y356500D01*
X47360Y353860D02*Y355940D01*
Y353860D02*X47920Y353300D01*
X48960D01*
X49920D02*X50320Y353700D01*
Y356100D01*
X49920Y356500D02*X50320Y356100D01*
X51280Y353700D02*X51680Y353300D01*
X52880D01*
X53280Y353700D01*
Y354500D01*
X51280Y356500D02*X53280Y354500D01*
X51280Y356500D02*X53280D01*
X54240Y356100D02*X54640Y356500D01*
X54240Y353700D02*Y356100D01*
Y353700D02*X54640Y353300D01*
X55440D01*
X55840Y353700D01*
Y356100D01*
X55440Y356500D02*X55840Y356100D01*
X54640Y356500D02*X55440D01*
X54240Y355700D02*X55840Y354100D01*
X56800Y353940D02*X57440Y353300D01*
Y356500D01*
X56800D02*X58000D01*
X58960Y355300D02*X60560Y353300D01*
X58960Y355300D02*X60960D01*
X60560Y353300D02*Y356500D01*
X12130Y373000D02*X13300D01*
X11500Y372370D02*X12130Y373000D01*
X11500Y370030D02*Y372370D01*
Y370030D02*X12130Y369400D01*
X13300D01*
X14380D02*Y373000D01*
Y371200D02*X16180Y369400D01*
X14380Y371200D02*X16180Y373000D01*
X17260Y369400D02*X19060D01*
X18160D02*Y373000D01*
X20140Y371200D02*X21940D01*
X23020Y369400D02*X23920D01*
X23470D02*Y373000D01*
X23020D02*X23920D01*
X25000Y369400D02*X26800D01*
X27250Y369850D01*
Y370750D01*
X26800Y371200D02*X27250Y370750D01*
X25450Y371200D02*X26800D01*
X25450Y369400D02*Y373000D01*
X26170Y371200D02*X27250Y373000D01*
X30130Y369400D02*X30580Y369850D01*
X28780Y369400D02*X30130D01*
X28330Y369850D02*X28780Y369400D01*
X28330Y369850D02*Y370750D01*
X28780Y371200D01*
X30130D01*
X30580Y371650D01*
Y372550D01*
X30130Y373000D02*X30580Y372550D01*
X28780Y373000D02*X30130D01*
X28330Y372550D02*X28780Y373000D01*
X31660Y371020D02*X33010D01*
X31660Y373000D02*X33460D01*
X31660Y369400D02*Y373000D01*
Y369400D02*X33460D01*
X34540D02*Y373000D01*
Y369400D02*X36790Y373000D01*
Y369400D02*Y373000D01*
X39670Y369400D02*X40120Y369850D01*
X38320Y369400D02*X39670D01*
X37870Y369850D02*X38320Y369400D01*
X37870Y369850D02*Y370750D01*
X38320Y371200D01*
X39670D01*
X40120Y371650D01*
Y372550D01*
X39670Y373000D02*X40120Y372550D01*
X38320Y373000D02*X39670D01*
X37870Y372550D02*X38320Y373000D01*
X41200Y371020D02*X42550D01*
X41200Y373000D02*X43000D01*
X41200Y369400D02*Y373000D01*
Y369400D02*X43000D01*
X45700Y371200D02*X46600Y373000D01*
X47500Y371200D02*X46600Y373000D01*
X48580Y369850D02*X49030Y369400D01*
X49930D01*
X50380Y369850D01*
X49930Y373000D02*X50380Y372550D01*
X49030Y373000D02*X49930D01*
X48580Y372550D02*X49030Y373000D01*
Y371020D02*X49930D01*
X50380Y369850D02*Y370570D01*
Y371470D02*Y372550D01*
Y371470D02*X49930Y371020D01*
X50380Y370570D02*X49930Y371020D01*
X51460Y373000D02*X51910D01*
X52990Y369850D02*X53440Y369400D01*
X54790D01*
X55240Y369850D01*
Y370750D01*
X52990Y373000D02*X55240Y370750D01*
X52990Y373000D02*X55240D01*
X70000Y400000D02*X73000D01*
X70000D02*X69000Y399300D01*
Y398200D02*Y399300D01*
Y398200D02*X70000Y397500D01*
X73000D01*
X71000D02*Y400000D01*
X69000Y395800D02*X73000D01*
X69000Y394500D02*X69700Y393800D01*
X72300D01*
X73000Y394500D02*X72300Y393800D01*
X73000Y394500D02*Y396300D01*
X69000Y394500D02*Y396300D01*
Y391100D02*Y391900D01*
Y391100D02*X72500D01*
X73000Y391600D02*X72500Y391100D01*
X73000Y391600D02*Y392100D01*
X72500Y392600D02*X73000Y392100D01*
X72000Y392600D02*X72500D01*
X70000Y365000D02*X73000D01*
X70000D02*X69000Y364300D01*
Y363200D02*Y364300D01*
Y363200D02*X70000Y362500D01*
X73000D01*
X71000D02*Y365000D01*
X69000Y360800D02*X73000D01*
X69000Y359500D02*X69700Y358800D01*
X72300D01*
X73000Y359500D02*X72300Y358800D01*
X73000Y359500D02*Y361300D01*
X69000Y359500D02*Y361300D01*
Y356100D02*Y356900D01*
Y356100D02*X72500D01*
X73000Y356600D02*X72500Y356100D01*
X73000Y356600D02*Y357100D01*
X72500Y357600D02*X73000Y357100D01*
X72000Y357600D02*X72500D01*
X12130Y338000D02*X13300D01*
X11500Y337370D02*X12130Y338000D01*
X11500Y335030D02*Y337370D01*
Y335030D02*X12130Y334400D01*
X13300D01*
X14380D02*Y338000D01*
Y336200D02*X16180Y334400D01*
X14380Y336200D02*X16180Y338000D01*
X17260Y334400D02*X19060D01*
X18160D02*Y338000D01*
X20140Y336200D02*X21940D01*
X23020Y334400D02*X23920D01*
X23470D02*Y338000D01*
X23020D02*X23920D01*
X25000Y334400D02*X26800D01*
X27250Y334850D01*
Y335750D01*
X26800Y336200D02*X27250Y335750D01*
X25450Y336200D02*X26800D01*
X25450Y334400D02*Y338000D01*
X26170Y336200D02*X27250Y338000D01*
X30130Y334400D02*X30580Y334850D01*
X28780Y334400D02*X30130D01*
X28330Y334850D02*X28780Y334400D01*
X28330Y334850D02*Y335750D01*
X28780Y336200D01*
X30130D01*
X30580Y336650D01*
Y337550D01*
X30130Y338000D02*X30580Y337550D01*
X28780Y338000D02*X30130D01*
X28330Y337550D02*X28780Y338000D01*
X31660Y336020D02*X33010D01*
X31660Y338000D02*X33460D01*
X31660Y334400D02*Y338000D01*
Y334400D02*X33460D01*
X34540D02*Y338000D01*
Y334400D02*X36790Y338000D01*
Y334400D02*Y338000D01*
X39670Y334400D02*X40120Y334850D01*
X38320Y334400D02*X39670D01*
X37870Y334850D02*X38320Y334400D01*
X37870Y334850D02*Y335750D01*
X38320Y336200D01*
X39670D01*
X40120Y336650D01*
Y337550D01*
X39670Y338000D02*X40120Y337550D01*
X38320Y338000D02*X39670D01*
X37870Y337550D02*X38320Y338000D01*
X41200Y336020D02*X42550D01*
X41200Y338000D02*X43000D01*
X41200Y334400D02*Y338000D01*
Y334400D02*X43000D01*
X45700Y336200D02*X46600Y338000D01*
X47500Y336200D02*X46600Y338000D01*
X48580Y334850D02*X49030Y334400D01*
X49930D01*
X50380Y334850D01*
X49930Y338000D02*X50380Y337550D01*
X49030Y338000D02*X49930D01*
X48580Y337550D02*X49030Y338000D01*
Y336020D02*X49930D01*
X50380Y334850D02*Y335570D01*
Y336470D02*Y337550D01*
Y336470D02*X49930Y336020D01*
X50380Y335570D02*X49930Y336020D01*
X51460Y338000D02*X51910D01*
X52990Y334850D02*X53440Y334400D01*
X54790D01*
X55240Y334850D01*
Y335750D01*
X52990Y338000D02*X55240Y335750D01*
X52990Y338000D02*X55240D01*
X182000Y397500D02*X186000Y396500D01*
X182000Y395500D01*
Y393300D02*Y394300D01*
Y393800D02*X186000D01*
Y393300D02*Y394300D01*
X182000Y392100D02*X186000D01*
X182000D02*X186000Y389600D01*
X182000D02*X186000D01*
X182000Y362500D02*X186000Y361500D01*
X182000Y360500D01*
Y358300D02*Y359300D01*
Y358800D02*X186000D01*
Y358300D02*Y359300D01*
X182000Y357100D02*X186000D01*
X182000D02*X186000Y354600D01*
X182000D02*X186000D01*
X182000Y327500D02*X186000Y326500D01*
X182000Y325500D01*
Y323300D02*Y324300D01*
Y323800D02*X186000D01*
Y323300D02*Y324300D01*
X182000Y322100D02*X186000D01*
X182000D02*X186000Y319600D01*
X182000D02*X186000D01*
X152800Y331500D02*Y333000D01*
X155000Y331000D02*Y333000D01*
X151000D02*X155000D01*
X151000Y331000D02*Y333000D01*
X153500Y329300D02*X155000D01*
X153500D02*X153000Y328800D01*
Y328300D02*Y328800D01*
Y328300D02*X153500Y327800D01*
X155000D01*
X153000Y329800D02*X153500Y329300D01*
X153000Y325100D02*X153500Y324600D01*
X153000Y325100D02*Y326100D01*
X153500Y326600D02*X153000Y326100D01*
X153500Y326600D02*X154500D01*
X155000Y326100D01*
Y325100D02*Y326100D01*
Y325100D02*X154500Y324600D01*
X156000Y326600D02*X156500Y326100D01*
Y325100D02*Y326100D01*
Y325100D02*X156000Y324600D01*
X153000D02*X156000D01*
X155000Y322900D02*Y323400D01*
X144500Y334500D02*X145000Y334000D01*
X144500Y334500D02*Y336000D01*
X145000Y336500D02*X144500Y336000D01*
X145000Y336500D02*X146000D01*
X146500Y336000D01*
Y334500D02*Y336000D01*
Y334500D02*X147000Y334000D01*
X148000D01*
X148500Y334500D02*X148000Y334000D01*
X148500Y334500D02*Y336000D01*
X148000Y336500D02*X148500Y336000D01*
X146500Y330800D02*Y332300D01*
X147000Y332800D02*X146500Y332300D01*
X147000Y332800D02*X148000D01*
X148500Y332300D01*
Y330800D02*Y332300D01*
X146500Y328100D02*X147000Y327600D01*
X146500Y328100D02*Y329100D01*
X147000Y329600D02*X146500Y329100D01*
X147000Y329600D02*X148000D01*
X148500Y329100D01*
X146500Y327600D02*X148000D01*
X148500Y327100D01*
Y328100D02*Y329100D01*
Y328100D02*X148000Y327600D01*
X144500Y325900D02*X148000D01*
X148500Y325400D01*
Y322400D02*Y323900D01*
X148000Y324400D02*X148500Y323900D01*
X147000Y324400D02*X148000D01*
X147000D02*X146500Y323900D01*
Y322900D02*Y323900D01*
Y322900D02*X147000Y322400D01*
X147500D02*Y324400D01*
X147000Y322400D02*X147500D01*
X144500Y319200D02*X148500D01*
Y319700D02*X148000Y319200D01*
X148500Y319700D02*Y320700D01*
X148000Y321200D02*X148500Y320700D01*
X147000Y321200D02*X148000D01*
X147000D02*X146500Y320700D01*
Y319700D02*Y320700D01*
Y319700D02*X147000Y319200D01*
X161000Y336000D02*X161500Y335500D01*
X161000Y336000D02*Y337500D01*
X161500Y338000D02*X161000Y337500D01*
X161500Y338000D02*X164500D01*
X165000Y337500D01*
Y336000D02*Y337500D01*
Y336000D02*X164500Y335500D01*
X163500D02*X164500D01*
X163000Y336000D02*X163500Y335500D01*
X163000Y336000D02*Y337000D01*
X161000Y334300D02*X165000D01*
X161000D02*X165000Y331800D01*
X161000D02*X165000D01*
X161000Y330100D02*X165000D01*
X161000Y328800D02*X161700Y328100D01*
X164300D01*
X165000Y328800D02*X164300Y328100D01*
X165000Y328800D02*Y330600D01*
X161000Y328800D02*Y330600D01*
X138000Y333000D02*Y334000D01*
Y333500D02*X142000D01*
Y333000D02*Y334000D01*
X140500Y331800D02*X141500D01*
X140500D02*X140000Y331300D01*
Y330300D02*Y331300D01*
Y330300D02*X140500Y329800D01*
X141500D01*
X142000Y330300D02*X141500Y329800D01*
X142000Y330300D02*Y331300D01*
X141500Y331800D02*X142000Y331300D01*
X140000Y328600D02*X141500D01*
X142000Y328100D01*
Y327600D02*Y328100D01*
Y327600D02*X141500Y327100D01*
X140000D02*X141500D01*
X142000Y326600D01*
Y326100D02*Y326600D01*
Y326100D02*X141500Y325600D01*
X140000D02*X141500D01*
X140000Y322900D02*X140500Y322400D01*
X140000Y322900D02*Y323900D01*
X140500Y324400D02*X140000Y323900D01*
X140500Y324400D02*X141500D01*
X142000Y323900D01*
X140000Y322400D02*X141500D01*
X142000Y321900D01*
Y322900D02*Y323900D01*
Y322900D02*X141500Y322400D01*
X127500Y334000D02*X131500D01*
X127500Y332700D02*X128200Y332000D01*
X130800D01*
X131500Y332700D02*X130800Y332000D01*
X131500Y332700D02*Y334500D01*
X127500Y332700D02*Y334500D01*
Y324000D02*X131500D01*
X127500Y322700D02*X128200Y322000D01*
X130800D01*
X131500Y322700D02*X130800Y322000D01*
X131500Y322700D02*Y324500D01*
X127500Y322700D02*Y324500D01*
Y299000D02*X131500D01*
X127500Y297700D02*X128200Y297000D01*
X130800D01*
X131500Y297700D02*X130800Y297000D01*
X131500Y297700D02*Y299500D01*
X127500Y297700D02*Y299500D01*
Y289000D02*X131500D01*
X127500Y287700D02*X128200Y287000D01*
X130800D01*
X131500Y287700D02*X130800Y287000D01*
X131500Y287700D02*Y289500D01*
X127500Y287700D02*Y289500D01*
X46000Y181100D02*X46400Y181500D01*
X46000Y178700D02*X46400Y178300D01*
X46000Y178700D02*Y181100D01*
X47920Y181500D02*X48960D01*
X47360Y180940D02*X47920Y181500D01*
X47360Y178860D02*Y180940D01*
Y178860D02*X47920Y178300D01*
X48960D01*
X49920D02*X50320Y178700D01*
Y181100D01*
X49920Y181500D02*X50320Y181100D01*
X51280Y178700D02*X51680Y178300D01*
X52880D01*
X53280Y178700D01*
Y179500D01*
X51280Y181500D02*X53280Y179500D01*
X51280Y181500D02*X53280D01*
X54240Y181100D02*X54640Y181500D01*
X54240Y178700D02*Y181100D01*
Y178700D02*X54640Y178300D01*
X55440D01*
X55840Y178700D01*
Y181100D01*
X55440Y181500D02*X55840Y181100D01*
X54640Y181500D02*X55440D01*
X54240Y180700D02*X55840Y179100D01*
X56800Y178940D02*X57440Y178300D01*
Y181500D01*
X56800D02*X58000D01*
X58960Y180300D02*X60560Y178300D01*
X58960Y180300D02*X60960D01*
X60560Y178300D02*Y181500D01*
X31560Y156500D02*X32600D01*
X31000Y155940D02*X31560Y156500D01*
X31000Y153860D02*Y155940D01*
Y153860D02*X31560Y153300D01*
X32600D01*
X34120Y156500D02*X35160D01*
X33560Y155940D02*X34120Y156500D01*
X33560Y153860D02*Y155940D01*
Y153860D02*X34120Y153300D01*
X35160D01*
X36120Y154900D02*X37720D01*
X38680Y156500D02*X40280D01*
X40680Y156100D01*
Y155140D02*Y156100D01*
X40280Y154740D02*X40680Y155140D01*
X39080Y154740D02*X40280D01*
X39080Y153300D02*Y156500D01*
X38680Y153300D02*X40280D01*
X40680Y153700D01*
Y154340D01*
X40280Y154740D02*X40680Y154340D01*
X41640Y153300D02*X42440Y154900D01*
X43240Y153300D01*
X42440Y154900D02*Y156500D01*
X44200Y154900D02*X45800D01*
X48360Y153300D02*X48760Y153700D01*
X47160Y153300D02*X48360D01*
X46760Y153700D02*X47160Y153300D01*
X46760Y153700D02*Y154500D01*
X47160Y154900D01*
X48360D01*
X48760Y155300D01*
Y156100D01*
X48360Y156500D02*X48760Y156100D01*
X47160Y156500D02*X48360D01*
X46760Y156100D02*X47160Y156500D01*
X49720Y154100D02*Y156500D01*
Y154100D02*X50280Y153300D01*
X51160D01*
X51720Y154100D01*
Y156500D01*
X49720Y154900D02*X51720D01*
X12130Y162500D02*X13300D01*
X11500Y161870D02*X12130Y162500D01*
X11500Y159530D02*Y161870D01*
Y159530D02*X12130Y158900D01*
X13300D01*
X14380D02*Y162500D01*
Y160700D02*X16180Y158900D01*
X14380Y160700D02*X16180Y162500D01*
X17260Y158900D02*X19060D01*
X18160D02*Y162500D01*
X20140Y160700D02*X21940D01*
X23020Y158900D02*X23920D01*
X23470D02*Y162500D01*
X23020D02*X23920D01*
X25000Y158900D02*X26800D01*
X27250Y159350D01*
Y160250D01*
X26800Y160700D02*X27250Y160250D01*
X25450Y160700D02*X26800D01*
X25450Y158900D02*Y162500D01*
X26170Y160700D02*X27250Y162500D01*
X30130Y158900D02*X30580Y159350D01*
X28780Y158900D02*X30130D01*
X28330Y159350D02*X28780Y158900D01*
X28330Y159350D02*Y160250D01*
X28780Y160700D01*
X30130D01*
X30580Y161150D01*
Y162050D01*
X30130Y162500D02*X30580Y162050D01*
X28780Y162500D02*X30130D01*
X28330Y162050D02*X28780Y162500D01*
X31660Y160520D02*X33010D01*
X31660Y162500D02*X33460D01*
X31660Y158900D02*Y162500D01*
Y158900D02*X33460D01*
X34540D02*Y162500D01*
Y158900D02*X36790Y162500D01*
Y158900D02*Y162500D01*
X39670Y158900D02*X40120Y159350D01*
X38320Y158900D02*X39670D01*
X37870Y159350D02*X38320Y158900D01*
X37870Y159350D02*Y160250D01*
X38320Y160700D01*
X39670D01*
X40120Y161150D01*
Y162050D01*
X39670Y162500D02*X40120Y162050D01*
X38320Y162500D02*X39670D01*
X37870Y162050D02*X38320Y162500D01*
X41200Y160520D02*X42550D01*
X41200Y162500D02*X43000D01*
X41200Y158900D02*Y162500D01*
Y158900D02*X43000D01*
X45700Y160700D02*X46600Y162500D01*
X47500Y160700D02*X46600Y162500D01*
X48580Y159350D02*X49030Y158900D01*
X49930D01*
X50380Y159350D01*
X49930Y162500D02*X50380Y162050D01*
X49030Y162500D02*X49930D01*
X48580Y162050D02*X49030Y162500D01*
Y160520D02*X49930D01*
X50380Y159350D02*Y160070D01*
Y160970D02*Y162050D01*
Y160970D02*X49930Y160520D01*
X50380Y160070D02*X49930Y160520D01*
X51460Y162500D02*X51910D01*
X52990Y159350D02*X53440Y158900D01*
X54790D01*
X55240Y159350D01*
Y160250D01*
X52990Y162500D02*X55240Y160250D01*
X52990Y162500D02*X55240D01*
X12130Y198000D02*X13300D01*
X11500Y197370D02*X12130Y198000D01*
X11500Y195030D02*Y197370D01*
Y195030D02*X12130Y194400D01*
X13300D01*
X14380D02*Y198000D01*
Y196200D02*X16180Y194400D01*
X14380Y196200D02*X16180Y198000D01*
X17260Y194400D02*X19060D01*
X18160D02*Y198000D01*
X20140Y196200D02*X21940D01*
X23020Y194400D02*X23920D01*
X23470D02*Y198000D01*
X23020D02*X23920D01*
X25000Y194400D02*X26800D01*
X27250Y194850D01*
Y195750D01*
X26800Y196200D02*X27250Y195750D01*
X25450Y196200D02*X26800D01*
X25450Y194400D02*Y198000D01*
X26170Y196200D02*X27250Y198000D01*
X30130Y194400D02*X30580Y194850D01*
X28780Y194400D02*X30130D01*
X28330Y194850D02*X28780Y194400D01*
X28330Y194850D02*Y195750D01*
X28780Y196200D01*
X30130D01*
X30580Y196650D01*
Y197550D01*
X30130Y198000D02*X30580Y197550D01*
X28780Y198000D02*X30130D01*
X28330Y197550D02*X28780Y198000D01*
X31660Y196020D02*X33010D01*
X31660Y198000D02*X33460D01*
X31660Y194400D02*Y198000D01*
Y194400D02*X33460D01*
X34540D02*Y198000D01*
Y194400D02*X36790Y198000D01*
Y194400D02*Y198000D01*
X39670Y194400D02*X40120Y194850D01*
X38320Y194400D02*X39670D01*
X37870Y194850D02*X38320Y194400D01*
X37870Y194850D02*Y195750D01*
X38320Y196200D01*
X39670D01*
X40120Y196650D01*
Y197550D01*
X39670Y198000D02*X40120Y197550D01*
X38320Y198000D02*X39670D01*
X37870Y197550D02*X38320Y198000D01*
X41200Y196020D02*X42550D01*
X41200Y198000D02*X43000D01*
X41200Y194400D02*Y198000D01*
Y194400D02*X43000D01*
X45700Y196200D02*X46600Y198000D01*
X47500Y196200D02*X46600Y198000D01*
X48580Y194850D02*X49030Y194400D01*
X49930D01*
X50380Y194850D01*
X49930Y198000D02*X50380Y197550D01*
X49030Y198000D02*X49930D01*
X48580Y197550D02*X49030Y198000D01*
Y196020D02*X49930D01*
X50380Y194850D02*Y195570D01*
Y196470D02*Y197550D01*
Y196470D02*X49930Y196020D01*
X50380Y195570D02*X49930Y196020D01*
X51460Y198000D02*X51910D01*
X52990Y194850D02*X53440Y194400D01*
X54790D01*
X55240Y194850D01*
Y195750D01*
X52990Y198000D02*X55240Y195750D01*
X52990Y198000D02*X55240D01*
X46000Y145600D02*X46400Y146000D01*
X46000Y143200D02*X46400Y142800D01*
X46000Y143200D02*Y145600D01*
X47920Y146000D02*X48960D01*
X47360Y145440D02*X47920Y146000D01*
X47360Y143360D02*Y145440D01*
Y143360D02*X47920Y142800D01*
X48960D01*
X49920D02*X50320Y143200D01*
Y145600D01*
X49920Y146000D02*X50320Y145600D01*
X51280Y143200D02*X51680Y142800D01*
X52880D01*
X53280Y143200D01*
Y144000D01*
X51280Y146000D02*X53280Y144000D01*
X51280Y146000D02*X53280D01*
X54240Y145600D02*X54640Y146000D01*
X54240Y143200D02*Y145600D01*
Y143200D02*X54640Y142800D01*
X55440D01*
X55840Y143200D01*
Y145600D01*
X55440Y146000D02*X55840Y145600D01*
X54640Y146000D02*X55440D01*
X54240Y145200D02*X55840Y143600D01*
X56800Y143440D02*X57440Y142800D01*
Y146000D01*
X56800D02*X58000D01*
X58960Y144800D02*X60560Y142800D01*
X58960Y144800D02*X60960D01*
X60560Y142800D02*Y146000D01*
X31560Y122000D02*X32600D01*
X31000Y121440D02*X31560Y122000D01*
X31000Y119360D02*Y121440D01*
Y119360D02*X31560Y118800D01*
X32600D01*
X34120Y122000D02*X35160D01*
X33560Y121440D02*X34120Y122000D01*
X33560Y119360D02*Y121440D01*
Y119360D02*X34120Y118800D01*
X35160D01*
X36120Y120400D02*X37720D01*
X38680Y122000D02*X40280D01*
X40680Y121600D01*
Y120640D02*Y121600D01*
X40280Y120240D02*X40680Y120640D01*
X39080Y120240D02*X40280D01*
X39080Y118800D02*Y122000D01*
X38680Y118800D02*X40280D01*
X40680Y119200D01*
Y119840D01*
X40280Y120240D02*X40680Y119840D01*
X41640Y118800D02*X42440Y120400D01*
X43240Y118800D01*
X42440Y120400D02*Y122000D01*
X44200Y120400D02*X45800D01*
X48360Y118800D02*X48760Y119200D01*
X47160Y118800D02*X48360D01*
X46760Y119200D02*X47160Y118800D01*
X46760Y119200D02*Y120000D01*
X47160Y120400D01*
X48360D01*
X48760Y120800D01*
Y121600D01*
X48360Y122000D02*X48760Y121600D01*
X47160Y122000D02*X48360D01*
X46760Y121600D02*X47160Y122000D01*
X49720Y119600D02*Y122000D01*
Y119600D02*X50280Y118800D01*
X51160D01*
X51720Y119600D01*
Y122000D01*
X49720Y120400D02*X51720D01*
X46000Y111100D02*X46400Y111500D01*
X46000Y108700D02*X46400Y108300D01*
X46000Y108700D02*Y111100D01*
X47920Y111500D02*X48960D01*
X47360Y110940D02*X47920Y111500D01*
X47360Y108860D02*Y110940D01*
Y108860D02*X47920Y108300D01*
X48960D01*
X49920D02*X50320Y108700D01*
Y111100D01*
X49920Y111500D02*X50320Y111100D01*
X51280Y108700D02*X51680Y108300D01*
X52880D01*
X53280Y108700D01*
Y109500D01*
X51280Y111500D02*X53280Y109500D01*
X51280Y111500D02*X53280D01*
X54240Y111100D02*X54640Y111500D01*
X54240Y108700D02*Y111100D01*
Y108700D02*X54640Y108300D01*
X55440D01*
X55840Y108700D01*
Y111100D01*
X55440Y111500D02*X55840Y111100D01*
X54640Y111500D02*X55440D01*
X54240Y110700D02*X55840Y109100D01*
X56800Y108940D02*X57440Y108300D01*
Y111500D01*
X56800D02*X58000D01*
X58960Y110300D02*X60560Y108300D01*
X58960Y110300D02*X60960D01*
X60560Y108300D02*Y111500D01*
X12130Y128000D02*X13300D01*
X11500Y127370D02*X12130Y128000D01*
X11500Y125030D02*Y127370D01*
Y125030D02*X12130Y124400D01*
X13300D01*
X14380D02*Y128000D01*
Y126200D02*X16180Y124400D01*
X14380Y126200D02*X16180Y128000D01*
X17260Y124400D02*X19060D01*
X18160D02*Y128000D01*
X20140Y126200D02*X21940D01*
X23020Y124400D02*X23920D01*
X23470D02*Y128000D01*
X23020D02*X23920D01*
X25000Y124400D02*X26800D01*
X27250Y124850D01*
Y125750D01*
X26800Y126200D02*X27250Y125750D01*
X25450Y126200D02*X26800D01*
X25450Y124400D02*Y128000D01*
X26170Y126200D02*X27250Y128000D01*
X30130Y124400D02*X30580Y124850D01*
X28780Y124400D02*X30130D01*
X28330Y124850D02*X28780Y124400D01*
X28330Y124850D02*Y125750D01*
X28780Y126200D01*
X30130D01*
X30580Y126650D01*
Y127550D01*
X30130Y128000D02*X30580Y127550D01*
X28780Y128000D02*X30130D01*
X28330Y127550D02*X28780Y128000D01*
X31660Y126020D02*X33010D01*
X31660Y128000D02*X33460D01*
X31660Y124400D02*Y128000D01*
Y124400D02*X33460D01*
X34540D02*Y128000D01*
Y124400D02*X36790Y128000D01*
Y124400D02*Y128000D01*
X39670Y124400D02*X40120Y124850D01*
X38320Y124400D02*X39670D01*
X37870Y124850D02*X38320Y124400D01*
X37870Y124850D02*Y125750D01*
X38320Y126200D01*
X39670D01*
X40120Y126650D01*
Y127550D01*
X39670Y128000D02*X40120Y127550D01*
X38320Y128000D02*X39670D01*
X37870Y127550D02*X38320Y128000D01*
X41200Y126020D02*X42550D01*
X41200Y128000D02*X43000D01*
X41200Y124400D02*Y128000D01*
Y124400D02*X43000D01*
X45700Y126200D02*X46600Y128000D01*
X47500Y126200D02*X46600Y128000D01*
X48580Y124850D02*X49030Y124400D01*
X49930D01*
X50380Y124850D01*
X49930Y128000D02*X50380Y127550D01*
X49030Y128000D02*X49930D01*
X48580Y127550D02*X49030Y128000D01*
Y126020D02*X49930D01*
X50380Y124850D02*Y125570D01*
Y126470D02*Y127550D01*
Y126470D02*X49930Y126020D01*
X50380Y125570D02*X49930Y126020D01*
X51460Y128000D02*X51910D01*
X52990Y124850D02*X53440Y124400D01*
X54790D01*
X55240Y124850D01*
Y125750D01*
X52990Y128000D02*X55240Y125750D01*
X52990Y128000D02*X55240D01*
X127500Y194000D02*X131500D01*
X127500Y192700D02*X128200Y192000D01*
X130800D01*
X131500Y192700D02*X130800Y192000D01*
X131500Y192700D02*Y194500D01*
X127500Y192700D02*Y194500D01*
Y184000D02*X131500D01*
X127500Y182700D02*X128200Y182000D01*
X130800D01*
X131500Y182700D02*X130800Y182000D01*
X131500Y182700D02*Y184500D01*
X127500Y182700D02*Y184500D01*
Y158500D02*X131500D01*
X127500Y157200D02*X128200Y156500D01*
X130800D01*
X131500Y157200D02*X130800Y156500D01*
X131500Y157200D02*Y159000D01*
X127500Y157200D02*Y159000D01*
Y148500D02*X131500D01*
X127500Y147200D02*X128200Y146500D01*
X130800D01*
X131500Y147200D02*X130800Y146500D01*
X131500Y147200D02*Y149000D01*
X127500Y147200D02*Y149000D01*
Y124000D02*X131500D01*
X127500Y122700D02*X128200Y122000D01*
X130800D01*
X131500Y122700D02*X130800Y122000D01*
X131500Y122700D02*Y124500D01*
X127500Y122700D02*Y124500D01*
Y114000D02*X131500D01*
X127500Y112700D02*X128200Y112000D01*
X130800D01*
X131500Y112700D02*X130800Y112000D01*
X131500Y112700D02*Y114500D01*
X127500Y112700D02*Y114500D01*
X152800Y121500D02*Y123000D01*
X155000Y121000D02*Y123000D01*
X151000D02*X155000D01*
X151000Y121000D02*Y123000D01*
X153500Y119300D02*X155000D01*
X153500D02*X153000Y118800D01*
Y118300D02*Y118800D01*
Y118300D02*X153500Y117800D01*
X155000D01*
X153000Y119800D02*X153500Y119300D01*
X153000Y115100D02*X153500Y114600D01*
X153000Y115100D02*Y116100D01*
X153500Y116600D02*X153000Y116100D01*
X153500Y116600D02*X154500D01*
X155000Y116100D01*
Y115100D02*Y116100D01*
Y115100D02*X154500Y114600D01*
X156000Y116600D02*X156500Y116100D01*
Y115100D02*Y116100D01*
Y115100D02*X156000Y114600D01*
X153000D02*X156000D01*
X155000Y112900D02*Y113400D01*
X144500Y124500D02*X145000Y124000D01*
X144500Y124500D02*Y126000D01*
X145000Y126500D02*X144500Y126000D01*
X145000Y126500D02*X146000D01*
X146500Y126000D01*
Y124500D02*Y126000D01*
Y124500D02*X147000Y124000D01*
X148000D01*
X148500Y124500D02*X148000Y124000D01*
X148500Y124500D02*Y126000D01*
X148000Y126500D02*X148500Y126000D01*
X146500Y120800D02*Y122300D01*
X147000Y122800D02*X146500Y122300D01*
X147000Y122800D02*X148000D01*
X148500Y122300D01*
Y120800D02*Y122300D01*
X146500Y118100D02*X147000Y117600D01*
X146500Y118100D02*Y119100D01*
X147000Y119600D02*X146500Y119100D01*
X147000Y119600D02*X148000D01*
X148500Y119100D01*
X146500Y117600D02*X148000D01*
X148500Y117100D01*
Y118100D02*Y119100D01*
Y118100D02*X148000Y117600D01*
X144500Y115900D02*X148000D01*
X148500Y115400D01*
Y112400D02*Y113900D01*
X148000Y114400D02*X148500Y113900D01*
X147000Y114400D02*X148000D01*
X147000D02*X146500Y113900D01*
Y112900D02*Y113900D01*
Y112900D02*X147000Y112400D01*
X147500D02*Y114400D01*
X147000Y112400D02*X147500D01*
X144500Y109200D02*X148500D01*
Y109700D02*X148000Y109200D01*
X148500Y109700D02*Y110700D01*
X148000Y111200D02*X148500Y110700D01*
X147000Y111200D02*X148000D01*
X147000D02*X146500Y110700D01*
Y109700D02*Y110700D01*
Y109700D02*X147000Y109200D01*
X138000Y123000D02*Y124000D01*
Y123500D02*X142000D01*
Y123000D02*Y124000D01*
X140500Y121800D02*X141500D01*
X140500D02*X140000Y121300D01*
Y120300D02*Y121300D01*
Y120300D02*X140500Y119800D01*
X141500D01*
X142000Y120300D02*X141500Y119800D01*
X142000Y120300D02*Y121300D01*
X141500Y121800D02*X142000Y121300D01*
X140000Y118600D02*X141500D01*
X142000Y118100D01*
Y117600D02*Y118100D01*
Y117600D02*X141500Y117100D01*
X140000D02*X141500D01*
X142000Y116600D01*
Y116100D02*Y116600D01*
Y116100D02*X141500Y115600D01*
X140000D02*X141500D01*
X140000Y112900D02*X140500Y112400D01*
X140000Y112900D02*Y113900D01*
X140500Y114400D02*X140000Y113900D01*
X140500Y114400D02*X141500D01*
X142000Y113900D01*
X140000Y112400D02*X141500D01*
X142000Y111900D01*
Y112900D02*Y113900D01*
Y112900D02*X141500Y112400D01*
X161000Y126000D02*X161500Y125500D01*
X161000Y126000D02*Y127500D01*
X161500Y128000D02*X161000Y127500D01*
X161500Y128000D02*X164500D01*
X165000Y127500D01*
Y126000D02*Y127500D01*
Y126000D02*X164500Y125500D01*
X163500D02*X164500D01*
X163000Y126000D02*X163500Y125500D01*
X163000Y126000D02*Y127000D01*
X161000Y124300D02*X165000D01*
X161000D02*X165000Y121800D01*
X161000D02*X165000D01*
X161000Y120100D02*X165000D01*
X161000Y118800D02*X161700Y118100D01*
X164300D01*
X165000Y118800D02*X164300Y118100D01*
X165000Y118800D02*Y120600D01*
X161000Y118800D02*Y120600D01*
X182000Y152000D02*X186000Y151000D01*
X182000Y150000D01*
Y147800D02*Y148800D01*
Y148300D02*X186000D01*
Y147800D02*Y148800D01*
X182000Y146600D02*X186000D01*
X182000D02*X186000Y144100D01*
X182000D02*X186000D01*
X182000Y117500D02*X186000Y116500D01*
X182000Y115500D01*
Y113300D02*Y114300D01*
Y113800D02*X186000D01*
Y113300D02*Y114300D01*
X182000Y112100D02*X186000D01*
X182000D02*X186000Y109600D01*
X182000D02*X186000D01*
X182000Y82500D02*X186000Y81500D01*
X182000Y80500D01*
Y78300D02*Y79300D01*
Y78800D02*X186000D01*
Y78300D02*Y79300D01*
X182000Y77100D02*X186000D01*
X182000D02*X186000Y74600D01*
X182000D02*X186000D01*
X182000Y47500D02*X186000Y46500D01*
X182000Y45500D01*
Y43300D02*Y44300D01*
Y43800D02*X186000D01*
Y43300D02*Y44300D01*
X182000Y42100D02*X186000D01*
X182000D02*X186000Y39600D01*
X182000D02*X186000D01*
X152800Y86500D02*Y88000D01*
X155000Y86000D02*Y88000D01*
X151000D02*X155000D01*
X151000Y86000D02*Y88000D01*
X153500Y84300D02*X155000D01*
X153500D02*X153000Y83800D01*
Y83300D02*Y83800D01*
Y83300D02*X153500Y82800D01*
X155000D01*
X153000Y84800D02*X153500Y84300D01*
X153000Y80100D02*X153500Y79600D01*
X153000Y80100D02*Y81100D01*
X153500Y81600D02*X153000Y81100D01*
X153500Y81600D02*X154500D01*
X155000Y81100D01*
Y80100D02*Y81100D01*
Y80100D02*X154500Y79600D01*
X156000Y81600D02*X156500Y81100D01*
Y80100D02*Y81100D01*
Y80100D02*X156000Y79600D01*
X153000D02*X156000D01*
X155000Y77900D02*Y78400D01*
X144500Y89500D02*X145000Y89000D01*
X144500Y89500D02*Y91000D01*
X145000Y91500D02*X144500Y91000D01*
X145000Y91500D02*X146000D01*
X146500Y91000D01*
Y89500D02*Y91000D01*
Y89500D02*X147000Y89000D01*
X148000D01*
X148500Y89500D02*X148000Y89000D01*
X148500Y89500D02*Y91000D01*
X148000Y91500D02*X148500Y91000D01*
X146500Y85800D02*Y87300D01*
X147000Y87800D02*X146500Y87300D01*
X147000Y87800D02*X148000D01*
X148500Y87300D01*
Y85800D02*Y87300D01*
X146500Y83100D02*X147000Y82600D01*
X146500Y83100D02*Y84100D01*
X147000Y84600D02*X146500Y84100D01*
X147000Y84600D02*X148000D01*
X148500Y84100D01*
X146500Y82600D02*X148000D01*
X148500Y82100D01*
Y83100D02*Y84100D01*
Y83100D02*X148000Y82600D01*
X144500Y80900D02*X148000D01*
X148500Y80400D01*
Y77400D02*Y78900D01*
X148000Y79400D02*X148500Y78900D01*
X147000Y79400D02*X148000D01*
X147000D02*X146500Y78900D01*
Y77900D02*Y78900D01*
Y77900D02*X147000Y77400D01*
X147500D02*Y79400D01*
X147000Y77400D02*X147500D01*
X144500Y74200D02*X148500D01*
Y74700D02*X148000Y74200D01*
X148500Y74700D02*Y75700D01*
X148000Y76200D02*X148500Y75700D01*
X147000Y76200D02*X148000D01*
X147000D02*X146500Y75700D01*
Y74700D02*Y75700D01*
Y74700D02*X147000Y74200D01*
X138000Y88000D02*Y89000D01*
Y88500D02*X142000D01*
Y88000D02*Y89000D01*
X140500Y86800D02*X141500D01*
X140500D02*X140000Y86300D01*
Y85300D02*Y86300D01*
Y85300D02*X140500Y84800D01*
X141500D01*
X142000Y85300D02*X141500Y84800D01*
X142000Y85300D02*Y86300D01*
X141500Y86800D02*X142000Y86300D01*
X140000Y83600D02*X141500D01*
X142000Y83100D01*
Y82600D02*Y83100D01*
Y82600D02*X141500Y82100D01*
X140000D02*X141500D01*
X142000Y81600D01*
Y81100D02*Y81600D01*
Y81100D02*X141500Y80600D01*
X140000D02*X141500D01*
X140000Y77900D02*X140500Y77400D01*
X140000Y77900D02*Y78900D01*
X140500Y79400D02*X140000Y78900D01*
X140500Y79400D02*X141500D01*
X142000Y78900D01*
X140000Y77400D02*X141500D01*
X142000Y76900D01*
Y77900D02*Y78900D01*
Y77900D02*X141500Y77400D01*
X161000Y91000D02*X161500Y90500D01*
X161000Y91000D02*Y92500D01*
X161500Y93000D02*X161000Y92500D01*
X161500Y93000D02*X164500D01*
X165000Y92500D01*
Y91000D02*Y92500D01*
Y91000D02*X164500Y90500D01*
X163500D02*X164500D01*
X163000Y91000D02*X163500Y90500D01*
X163000Y91000D02*Y92000D01*
X161000Y89300D02*X165000D01*
X161000D02*X165000Y86800D01*
X161000D02*X165000D01*
X161000Y85100D02*X165000D01*
X161000Y83800D02*X161700Y83100D01*
X164300D01*
X165000Y83800D02*X164300Y83100D01*
X165000Y83800D02*Y85600D01*
X161000Y83800D02*Y85600D01*
X127500Y89000D02*X131500D01*
X127500Y87700D02*X128200Y87000D01*
X130800D01*
X131500Y87700D02*X130800Y87000D01*
X131500Y87700D02*Y89500D01*
X127500Y87700D02*Y89500D01*
Y79000D02*X131500D01*
X127500Y77700D02*X128200Y77000D01*
X130800D01*
X131500Y77700D02*X130800Y77000D01*
X131500Y77700D02*Y79500D01*
X127500Y77700D02*Y79500D01*
X152800Y51500D02*Y53000D01*
X155000Y51000D02*Y53000D01*
X151000D02*X155000D01*
X151000Y51000D02*Y53000D01*
X153500Y49300D02*X155000D01*
X153500D02*X153000Y48800D01*
Y48300D02*Y48800D01*
Y48300D02*X153500Y47800D01*
X155000D01*
X153000Y49800D02*X153500Y49300D01*
X153000Y45100D02*X153500Y44600D01*
X153000Y45100D02*Y46100D01*
X153500Y46600D02*X153000Y46100D01*
X153500Y46600D02*X154500D01*
X155000Y46100D01*
Y45100D02*Y46100D01*
Y45100D02*X154500Y44600D01*
X156000Y46600D02*X156500Y46100D01*
Y45100D02*Y46100D01*
Y45100D02*X156000Y44600D01*
X153000D02*X156000D01*
X155000Y42900D02*Y43400D01*
X144500Y54500D02*X145000Y54000D01*
X144500Y54500D02*Y56000D01*
X145000Y56500D02*X144500Y56000D01*
X145000Y56500D02*X146000D01*
X146500Y56000D01*
Y54500D02*Y56000D01*
Y54500D02*X147000Y54000D01*
X148000D01*
X148500Y54500D02*X148000Y54000D01*
X148500Y54500D02*Y56000D01*
X148000Y56500D02*X148500Y56000D01*
X146500Y50800D02*Y52300D01*
X147000Y52800D02*X146500Y52300D01*
X147000Y52800D02*X148000D01*
X148500Y52300D01*
Y50800D02*Y52300D01*
X146500Y48100D02*X147000Y47600D01*
X146500Y48100D02*Y49100D01*
X147000Y49600D02*X146500Y49100D01*
X147000Y49600D02*X148000D01*
X148500Y49100D01*
X146500Y47600D02*X148000D01*
X148500Y47100D01*
Y48100D02*Y49100D01*
Y48100D02*X148000Y47600D01*
X144500Y45900D02*X148000D01*
X148500Y45400D01*
Y42400D02*Y43900D01*
X148000Y44400D02*X148500Y43900D01*
X147000Y44400D02*X148000D01*
X147000D02*X146500Y43900D01*
Y42900D02*Y43900D01*
Y42900D02*X147000Y42400D01*
X147500D02*Y44400D01*
X147000Y42400D02*X147500D01*
X144500Y39200D02*X148500D01*
Y39700D02*X148000Y39200D01*
X148500Y39700D02*Y40700D01*
X148000Y41200D02*X148500Y40700D01*
X147000Y41200D02*X148000D01*
X147000D02*X146500Y40700D01*
Y39700D02*Y40700D01*
Y39700D02*X147000Y39200D01*
X138000Y53000D02*Y54000D01*
Y53500D02*X142000D01*
Y53000D02*Y54000D01*
X140500Y51800D02*X141500D01*
X140500D02*X140000Y51300D01*
Y50300D02*Y51300D01*
Y50300D02*X140500Y49800D01*
X141500D01*
X142000Y50300D02*X141500Y49800D01*
X142000Y50300D02*Y51300D01*
X141500Y51800D02*X142000Y51300D01*
X140000Y48600D02*X141500D01*
X142000Y48100D01*
Y47600D02*Y48100D01*
Y47600D02*X141500Y47100D01*
X140000D02*X141500D01*
X142000Y46600D01*
Y46100D02*Y46600D01*
Y46100D02*X141500Y45600D01*
X140000D02*X141500D01*
X140000Y42900D02*X140500Y42400D01*
X140000Y42900D02*Y43900D01*
X140500Y44400D02*X140000Y43900D01*
X140500Y44400D02*X141500D01*
X142000Y43900D01*
X140000Y42400D02*X141500D01*
X142000Y41900D01*
Y42900D02*Y43900D01*
Y42900D02*X141500Y42400D01*
X161000Y56000D02*X161500Y55500D01*
X161000Y56000D02*Y57500D01*
X161500Y58000D02*X161000Y57500D01*
X161500Y58000D02*X164500D01*
X165000Y57500D01*
Y56000D02*Y57500D01*
Y56000D02*X164500Y55500D01*
X163500D02*X164500D01*
X163000Y56000D02*X163500Y55500D01*
X163000Y56000D02*Y57000D01*
X161000Y54300D02*X165000D01*
X161000D02*X165000Y51800D01*
X161000D02*X165000D01*
X161000Y50100D02*X165000D01*
X161000Y48800D02*X161700Y48100D01*
X164300D01*
X165000Y48800D02*X164300Y48100D01*
X165000Y48800D02*Y50600D01*
X161000Y48800D02*Y50600D01*
X127500Y54000D02*X131500D01*
X127500Y52700D02*X128200Y52000D01*
X130800D01*
X131500Y52700D02*X130800Y52000D01*
X131500Y52700D02*Y54500D01*
X127500Y52700D02*Y54500D01*
Y44000D02*X131500D01*
X127500Y42700D02*X128200Y42000D01*
X130800D01*
X131500Y42700D02*X130800Y42000D01*
X131500Y42700D02*Y44500D01*
X127500Y42700D02*Y44500D01*
X152800Y16500D02*Y18000D01*
X155000Y16000D02*Y18000D01*
X151000D02*X155000D01*
X151000Y16000D02*Y18000D01*
X153500Y14300D02*X155000D01*
X153500D02*X153000Y13800D01*
Y13300D02*Y13800D01*
Y13300D02*X153500Y12800D01*
X155000D01*
X153000Y14800D02*X153500Y14300D01*
X153000Y10100D02*X153500Y9600D01*
X153000Y10100D02*Y11100D01*
X153500Y11600D02*X153000Y11100D01*
X153500Y11600D02*X154500D01*
X155000Y11100D01*
Y10100D02*Y11100D01*
Y10100D02*X154500Y9600D01*
X156000Y11600D02*X156500Y11100D01*
Y10100D02*Y11100D01*
Y10100D02*X156000Y9600D01*
X153000D02*X156000D01*
X155000Y7900D02*Y8400D01*
X144500Y19500D02*X145000Y19000D01*
X144500Y19500D02*Y21000D01*
X145000Y21500D02*X144500Y21000D01*
X145000Y21500D02*X146000D01*
X146500Y21000D01*
Y19500D02*Y21000D01*
Y19500D02*X147000Y19000D01*
X148000D01*
X148500Y19500D02*X148000Y19000D01*
X148500Y19500D02*Y21000D01*
X148000Y21500D02*X148500Y21000D01*
X146500Y15800D02*Y17300D01*
X147000Y17800D02*X146500Y17300D01*
X147000Y17800D02*X148000D01*
X148500Y17300D01*
Y15800D02*Y17300D01*
X146500Y13100D02*X147000Y12600D01*
X146500Y13100D02*Y14100D01*
X147000Y14600D02*X146500Y14100D01*
X147000Y14600D02*X148000D01*
X148500Y14100D01*
X146500Y12600D02*X148000D01*
X148500Y12100D01*
Y13100D02*Y14100D01*
Y13100D02*X148000Y12600D01*
X144500Y10900D02*X148000D01*
X148500Y10400D01*
Y7400D02*Y8900D01*
X148000Y9400D02*X148500Y8900D01*
X147000Y9400D02*X148000D01*
X147000D02*X146500Y8900D01*
Y7900D02*Y8900D01*
Y7900D02*X147000Y7400D01*
X147500D02*Y9400D01*
X147000Y7400D02*X147500D01*
X144500Y4200D02*X148500D01*
Y4700D02*X148000Y4200D01*
X148500Y4700D02*Y5700D01*
X148000Y6200D02*X148500Y5700D01*
X147000Y6200D02*X148000D01*
X147000D02*X146500Y5700D01*
Y4700D02*Y5700D01*
Y4700D02*X147000Y4200D01*
X138000Y18000D02*Y19000D01*
Y18500D02*X142000D01*
Y18000D02*Y19000D01*
X140500Y16800D02*X141500D01*
X140500D02*X140000Y16300D01*
Y15300D02*Y16300D01*
Y15300D02*X140500Y14800D01*
X141500D01*
X142000Y15300D02*X141500Y14800D01*
X142000Y15300D02*Y16300D01*
X141500Y16800D02*X142000Y16300D01*
X140000Y13600D02*X141500D01*
X142000Y13100D01*
Y12600D02*Y13100D01*
Y12600D02*X141500Y12100D01*
X140000D02*X141500D01*
X142000Y11600D01*
Y11100D02*Y11600D01*
Y11100D02*X141500Y10600D01*
X140000D02*X141500D01*
X140000Y7900D02*X140500Y7400D01*
X140000Y7900D02*Y8900D01*
X140500Y9400D02*X140000Y8900D01*
X140500Y9400D02*X141500D01*
X142000Y8900D01*
X140000Y7400D02*X141500D01*
X142000Y6900D01*
Y7900D02*Y8900D01*
Y7900D02*X141500Y7400D01*
X161000Y21000D02*X161500Y20500D01*
X161000Y21000D02*Y22500D01*
X161500Y23000D02*X161000Y22500D01*
X161500Y23000D02*X164500D01*
X165000Y22500D01*
Y21000D02*Y22500D01*
Y21000D02*X164500Y20500D01*
X163500D02*X164500D01*
X163000Y21000D02*X163500Y20500D01*
X163000Y21000D02*Y22000D01*
X161000Y19300D02*X165000D01*
X161000D02*X165000Y16800D01*
X161000D02*X165000D01*
X161000Y15100D02*X165000D01*
X161000Y13800D02*X161700Y13100D01*
X164300D01*
X165000Y13800D02*X164300Y13100D01*
X165000Y13800D02*Y15600D01*
X161000Y13800D02*Y15600D01*
X182000Y12500D02*X186000Y11500D01*
X182000Y10500D01*
Y8300D02*Y9300D01*
Y8800D02*X186000D01*
Y8300D02*Y9300D01*
X182000Y7100D02*X186000D01*
X182000D02*X186000Y4600D01*
X182000D02*X186000D01*
X127500Y19000D02*X131500D01*
X127500Y17700D02*X128200Y17000D01*
X130800D01*
X131500Y17700D02*X130800Y17000D01*
X131500Y17700D02*Y19500D01*
X127500Y17700D02*Y19500D01*
Y9000D02*X131500D01*
X127500Y7700D02*X128200Y7000D01*
X130800D01*
X131500Y7700D02*X130800Y7000D01*
X131500Y7700D02*Y9500D01*
X127500Y7700D02*Y9500D01*
X70000Y120000D02*X73000D01*
X70000D02*X69000Y119300D01*
Y118200D02*Y119300D01*
Y118200D02*X70000Y117500D01*
X73000D01*
X71000D02*Y120000D01*
X69000Y115800D02*X73000D01*
X69000Y114500D02*X69700Y113800D01*
X72300D01*
X73000Y114500D02*X72300Y113800D01*
X73000Y114500D02*Y116300D01*
X69000Y114500D02*Y116300D01*
Y111100D02*Y111900D01*
Y111100D02*X72500D01*
X73000Y111600D02*X72500Y111100D01*
X73000Y111600D02*Y112100D01*
X72500Y112600D02*X73000Y112100D01*
X72000Y112600D02*X72500D01*
X70000Y85000D02*X73000D01*
X70000D02*X69000Y84300D01*
Y83200D02*Y84300D01*
Y83200D02*X70000Y82500D01*
X73000D01*
X71000D02*Y85000D01*
X69000Y80800D02*X73000D01*
X69000Y79500D02*X69700Y78800D01*
X72300D01*
X73000Y79500D02*X72300Y78800D01*
X73000Y79500D02*Y81300D01*
X69000Y79500D02*Y81300D01*
Y76100D02*Y76900D01*
Y76100D02*X72500D01*
X73000Y76600D02*X72500Y76100D01*
X73000Y76600D02*Y77100D01*
X72500Y77600D02*X73000Y77100D01*
X72000Y77600D02*X72500D01*
X70000Y50000D02*X73000D01*
X70000D02*X69000Y49300D01*
Y48200D02*Y49300D01*
Y48200D02*X70000Y47500D01*
X73000D01*
X71000D02*Y50000D01*
X69000Y45800D02*X73000D01*
X69000Y44500D02*X69700Y43800D01*
X72300D01*
X73000Y44500D02*X72300Y43800D01*
X73000Y44500D02*Y46300D01*
X69000Y44500D02*Y46300D01*
Y41100D02*Y41900D01*
Y41100D02*X72500D01*
X73000Y41600D02*X72500Y41100D01*
X73000Y41600D02*Y42100D01*
X72500Y42600D02*X73000Y42100D01*
X72000Y42600D02*X72500D01*
X31560Y87000D02*X32600D01*
X31000Y86440D02*X31560Y87000D01*
X31000Y84360D02*Y86440D01*
Y84360D02*X31560Y83800D01*
X32600D01*
X34120Y87000D02*X35160D01*
X33560Y86440D02*X34120Y87000D01*
X33560Y84360D02*Y86440D01*
Y84360D02*X34120Y83800D01*
X35160D01*
X36120Y85400D02*X37720D01*
X38680Y87000D02*X40280D01*
X40680Y86600D01*
Y85640D02*Y86600D01*
X40280Y85240D02*X40680Y85640D01*
X39080Y85240D02*X40280D01*
X39080Y83800D02*Y87000D01*
X38680Y83800D02*X40280D01*
X40680Y84200D01*
Y84840D01*
X40280Y85240D02*X40680Y84840D01*
X41640Y83800D02*X42440Y85400D01*
X43240Y83800D01*
X42440Y85400D02*Y87000D01*
X44200Y85400D02*X45800D01*
X48360Y83800D02*X48760Y84200D01*
X47160Y83800D02*X48360D01*
X46760Y84200D02*X47160Y83800D01*
X46760Y84200D02*Y85000D01*
X47160Y85400D01*
X48360D01*
X48760Y85800D01*
Y86600D01*
X48360Y87000D02*X48760Y86600D01*
X47160Y87000D02*X48360D01*
X46760Y86600D02*X47160Y87000D01*
X49720Y84600D02*Y87000D01*
Y84600D02*X50280Y83800D01*
X51160D01*
X51720Y84600D01*
Y87000D01*
X49720Y85400D02*X51720D01*
X12130Y93000D02*X13300D01*
X11500Y92370D02*X12130Y93000D01*
X11500Y90030D02*Y92370D01*
Y90030D02*X12130Y89400D01*
X13300D01*
X14380D02*Y93000D01*
Y91200D02*X16180Y89400D01*
X14380Y91200D02*X16180Y93000D01*
X17260Y89400D02*X19060D01*
X18160D02*Y93000D01*
X20140Y91200D02*X21940D01*
X23020Y89400D02*X23920D01*
X23470D02*Y93000D01*
X23020D02*X23920D01*
X25000Y89400D02*X26800D01*
X27250Y89850D01*
Y90750D01*
X26800Y91200D02*X27250Y90750D01*
X25450Y91200D02*X26800D01*
X25450Y89400D02*Y93000D01*
X26170Y91200D02*X27250Y93000D01*
X30130Y89400D02*X30580Y89850D01*
X28780Y89400D02*X30130D01*
X28330Y89850D02*X28780Y89400D01*
X28330Y89850D02*Y90750D01*
X28780Y91200D01*
X30130D01*
X30580Y91650D01*
Y92550D01*
X30130Y93000D02*X30580Y92550D01*
X28780Y93000D02*X30130D01*
X28330Y92550D02*X28780Y93000D01*
X31660Y91020D02*X33010D01*
X31660Y93000D02*X33460D01*
X31660Y89400D02*Y93000D01*
Y89400D02*X33460D01*
X34540D02*Y93000D01*
Y89400D02*X36790Y93000D01*
Y89400D02*Y93000D01*
X39670Y89400D02*X40120Y89850D01*
X38320Y89400D02*X39670D01*
X37870Y89850D02*X38320Y89400D01*
X37870Y89850D02*Y90750D01*
X38320Y91200D01*
X39670D01*
X40120Y91650D01*
Y92550D01*
X39670Y93000D02*X40120Y92550D01*
X38320Y93000D02*X39670D01*
X37870Y92550D02*X38320Y93000D01*
X41200Y91020D02*X42550D01*
X41200Y93000D02*X43000D01*
X41200Y89400D02*Y93000D01*
Y89400D02*X43000D01*
X45700Y91200D02*X46600Y93000D01*
X47500Y91200D02*X46600Y93000D01*
X48580Y89850D02*X49030Y89400D01*
X49930D01*
X50380Y89850D01*
X49930Y93000D02*X50380Y92550D01*
X49030Y93000D02*X49930D01*
X48580Y92550D02*X49030Y93000D01*
Y91020D02*X49930D01*
X50380Y89850D02*Y90570D01*
Y91470D02*Y92550D01*
Y91470D02*X49930Y91020D01*
X50380Y90570D02*X49930Y91020D01*
X51460Y93000D02*X51910D01*
X52990Y89850D02*X53440Y89400D01*
X54790D01*
X55240Y89850D01*
Y90750D01*
X52990Y93000D02*X55240Y90750D01*
X52990Y93000D02*X55240D01*
X46000Y76100D02*X46400Y76500D01*
X46000Y73700D02*X46400Y73300D01*
X46000Y73700D02*Y76100D01*
X47920Y76500D02*X48960D01*
X47360Y75940D02*X47920Y76500D01*
X47360Y73860D02*Y75940D01*
Y73860D02*X47920Y73300D01*
X48960D01*
X49920D02*X50320Y73700D01*
Y76100D01*
X49920Y76500D02*X50320Y76100D01*
X51280Y73700D02*X51680Y73300D01*
X52880D01*
X53280Y73700D01*
Y74500D01*
X51280Y76500D02*X53280Y74500D01*
X51280Y76500D02*X53280D01*
X54240Y76100D02*X54640Y76500D01*
X54240Y73700D02*Y76100D01*
Y73700D02*X54640Y73300D01*
X55440D01*
X55840Y73700D01*
Y76100D01*
X55440Y76500D02*X55840Y76100D01*
X54640Y76500D02*X55440D01*
X54240Y75700D02*X55840Y74100D01*
X56800Y73940D02*X57440Y73300D01*
Y76500D01*
X56800D02*X58000D01*
X58960Y75300D02*X60560Y73300D01*
X58960Y75300D02*X60960D01*
X60560Y73300D02*Y76500D01*
X31560Y52000D02*X32600D01*
X31000Y51440D02*X31560Y52000D01*
X31000Y49360D02*Y51440D01*
Y49360D02*X31560Y48800D01*
X32600D01*
X34120Y52000D02*X35160D01*
X33560Y51440D02*X34120Y52000D01*
X33560Y49360D02*Y51440D01*
Y49360D02*X34120Y48800D01*
X35160D01*
X36120Y50400D02*X37720D01*
X38680Y52000D02*X40280D01*
X40680Y51600D01*
Y50640D02*Y51600D01*
X40280Y50240D02*X40680Y50640D01*
X39080Y50240D02*X40280D01*
X39080Y48800D02*Y52000D01*
X38680Y48800D02*X40280D01*
X40680Y49200D01*
Y49840D01*
X40280Y50240D02*X40680Y49840D01*
X41640Y48800D02*X42440Y50400D01*
X43240Y48800D01*
X42440Y50400D02*Y52000D01*
X44200Y50400D02*X45800D01*
X48360Y48800D02*X48760Y49200D01*
X47160Y48800D02*X48360D01*
X46760Y49200D02*X47160Y48800D01*
X46760Y49200D02*Y50000D01*
X47160Y50400D01*
X48360D01*
X48760Y50800D01*
Y51600D01*
X48360Y52000D02*X48760Y51600D01*
X47160Y52000D02*X48360D01*
X46760Y51600D02*X47160Y52000D01*
X49720Y49600D02*Y52000D01*
Y49600D02*X50280Y48800D01*
X51160D01*
X51720Y49600D01*
Y52000D01*
X49720Y50400D02*X51720D01*
X12130Y58000D02*X13300D01*
X11500Y57370D02*X12130Y58000D01*
X11500Y55030D02*Y57370D01*
Y55030D02*X12130Y54400D01*
X13300D01*
X14380D02*Y58000D01*
Y56200D02*X16180Y54400D01*
X14380Y56200D02*X16180Y58000D01*
X17260Y54400D02*X19060D01*
X18160D02*Y58000D01*
X20140Y56200D02*X21940D01*
X23020Y54400D02*X23920D01*
X23470D02*Y58000D01*
X23020D02*X23920D01*
X25000Y54400D02*X26800D01*
X27250Y54850D01*
Y55750D01*
X26800Y56200D02*X27250Y55750D01*
X25450Y56200D02*X26800D01*
X25450Y54400D02*Y58000D01*
X26170Y56200D02*X27250Y58000D01*
X30130Y54400D02*X30580Y54850D01*
X28780Y54400D02*X30130D01*
X28330Y54850D02*X28780Y54400D01*
X28330Y54850D02*Y55750D01*
X28780Y56200D01*
X30130D01*
X30580Y56650D01*
Y57550D01*
X30130Y58000D02*X30580Y57550D01*
X28780Y58000D02*X30130D01*
X28330Y57550D02*X28780Y58000D01*
X31660Y56020D02*X33010D01*
X31660Y58000D02*X33460D01*
X31660Y54400D02*Y58000D01*
Y54400D02*X33460D01*
X34540D02*Y58000D01*
Y54400D02*X36790Y58000D01*
Y54400D02*Y58000D01*
X39670Y54400D02*X40120Y54850D01*
X38320Y54400D02*X39670D01*
X37870Y54850D02*X38320Y54400D01*
X37870Y54850D02*Y55750D01*
X38320Y56200D01*
X39670D01*
X40120Y56650D01*
Y57550D01*
X39670Y58000D02*X40120Y57550D01*
X38320Y58000D02*X39670D01*
X37870Y57550D02*X38320Y58000D01*
X41200Y56020D02*X42550D01*
X41200Y58000D02*X43000D01*
X41200Y54400D02*Y58000D01*
Y54400D02*X43000D01*
X45700Y56200D02*X46600Y58000D01*
X47500Y56200D02*X46600Y58000D01*
X48580Y54850D02*X49030Y54400D01*
X49930D01*
X50380Y54850D01*
X49930Y58000D02*X50380Y57550D01*
X49030Y58000D02*X49930D01*
X48580Y57550D02*X49030Y58000D01*
Y56020D02*X49930D01*
X50380Y54850D02*Y55570D01*
Y56470D02*Y57550D01*
Y56470D02*X49930Y56020D01*
X50380Y55570D02*X49930Y56020D01*
X51460Y58000D02*X51910D01*
X52990Y54850D02*X53440Y54400D01*
X54790D01*
X55240Y54850D01*
Y55750D01*
X52990Y58000D02*X55240Y55750D01*
X52990Y58000D02*X55240D01*
X46000Y41100D02*X46400Y41500D01*
X46000Y38700D02*X46400Y38300D01*
X46000Y38700D02*Y41100D01*
X47920Y41500D02*X48960D01*
X47360Y40940D02*X47920Y41500D01*
X47360Y38860D02*Y40940D01*
Y38860D02*X47920Y38300D01*
X48960D01*
X49920D02*X50320Y38700D01*
Y41100D01*
X49920Y41500D02*X50320Y41100D01*
X51280Y38700D02*X51680Y38300D01*
X52880D01*
X53280Y38700D01*
Y39500D01*
X51280Y41500D02*X53280Y39500D01*
X51280Y41500D02*X53280D01*
X54240Y41100D02*X54640Y41500D01*
X54240Y38700D02*Y41100D01*
Y38700D02*X54640Y38300D01*
X55440D01*
X55840Y38700D01*
Y41100D01*
X55440Y41500D02*X55840Y41100D01*
X54640Y41500D02*X55440D01*
X54240Y40700D02*X55840Y39100D01*
X56800Y38940D02*X57440Y38300D01*
Y41500D01*
X56800D02*X58000D01*
X58960Y40300D02*X60560Y38300D01*
X58960Y40300D02*X60960D01*
X60560Y38300D02*Y41500D01*
X31560Y17000D02*X32600D01*
X31000Y16440D02*X31560Y17000D01*
X31000Y14360D02*Y16440D01*
Y14360D02*X31560Y13800D01*
X32600D01*
X34120Y17000D02*X35160D01*
X33560Y16440D02*X34120Y17000D01*
X33560Y14360D02*Y16440D01*
Y14360D02*X34120Y13800D01*
X35160D01*
X36120Y15400D02*X37720D01*
X38680Y17000D02*X40280D01*
X40680Y16600D01*
Y15640D02*Y16600D01*
X40280Y15240D02*X40680Y15640D01*
X39080Y15240D02*X40280D01*
X39080Y13800D02*Y17000D01*
X38680Y13800D02*X40280D01*
X40680Y14200D01*
Y14840D01*
X40280Y15240D02*X40680Y14840D01*
X41640Y13800D02*X42440Y15400D01*
X43240Y13800D01*
X42440Y15400D02*Y17000D01*
X44200Y15400D02*X45800D01*
X48360Y13800D02*X48760Y14200D01*
X47160Y13800D02*X48360D01*
X46760Y14200D02*X47160Y13800D01*
X46760Y14200D02*Y15000D01*
X47160Y15400D01*
X48360D01*
X48760Y15800D01*
Y16600D01*
X48360Y17000D02*X48760Y16600D01*
X47160Y17000D02*X48360D01*
X46760Y16600D02*X47160Y17000D01*
X49720Y14600D02*Y17000D01*
Y14600D02*X50280Y13800D01*
X51160D01*
X51720Y14600D01*
Y17000D01*
X49720Y15400D02*X51720D01*
X46000Y6100D02*X46400Y6500D01*
X46000Y3700D02*X46400Y3300D01*
X46000Y3700D02*Y6100D01*
X47920Y6500D02*X48960D01*
X47360Y5940D02*X47920Y6500D01*
X47360Y3860D02*Y5940D01*
Y3860D02*X47920Y3300D01*
X48960D01*
X49920D02*X50320Y3700D01*
Y6100D01*
X49920Y6500D02*X50320Y6100D01*
X51280Y3700D02*X51680Y3300D01*
X52880D01*
X53280Y3700D01*
Y4500D01*
X51280Y6500D02*X53280Y4500D01*
X51280Y6500D02*X53280D01*
X54240Y6100D02*X54640Y6500D01*
X54240Y3700D02*Y6100D01*
Y3700D02*X54640Y3300D01*
X55440D01*
X55840Y3700D01*
Y6100D01*
X55440Y6500D02*X55840Y6100D01*
X54640Y6500D02*X55440D01*
X54240Y5700D02*X55840Y4100D01*
X56800Y3940D02*X57440Y3300D01*
Y6500D01*
X56800D02*X58000D01*
X58960Y5300D02*X60560Y3300D01*
X58960Y5300D02*X60960D01*
X60560Y3300D02*Y6500D01*
X12130Y23000D02*X13300D01*
X11500Y22370D02*X12130Y23000D01*
X11500Y20030D02*Y22370D01*
Y20030D02*X12130Y19400D01*
X13300D01*
X14380D02*Y23000D01*
Y21200D02*X16180Y19400D01*
X14380Y21200D02*X16180Y23000D01*
X17260Y19400D02*X19060D01*
X18160D02*Y23000D01*
X20140Y21200D02*X21940D01*
X23020Y19400D02*X23920D01*
X23470D02*Y23000D01*
X23020D02*X23920D01*
X25000Y19400D02*X26800D01*
X27250Y19850D01*
Y20750D01*
X26800Y21200D02*X27250Y20750D01*
X25450Y21200D02*X26800D01*
X25450Y19400D02*Y23000D01*
X26170Y21200D02*X27250Y23000D01*
X30130Y19400D02*X30580Y19850D01*
X28780Y19400D02*X30130D01*
X28330Y19850D02*X28780Y19400D01*
X28330Y19850D02*Y20750D01*
X28780Y21200D01*
X30130D01*
X30580Y21650D01*
Y22550D01*
X30130Y23000D02*X30580Y22550D01*
X28780Y23000D02*X30130D01*
X28330Y22550D02*X28780Y23000D01*
X31660Y21020D02*X33010D01*
X31660Y23000D02*X33460D01*
X31660Y19400D02*Y23000D01*
Y19400D02*X33460D01*
X34540D02*Y23000D01*
Y19400D02*X36790Y23000D01*
Y19400D02*Y23000D01*
X39670Y19400D02*X40120Y19850D01*
X38320Y19400D02*X39670D01*
X37870Y19850D02*X38320Y19400D01*
X37870Y19850D02*Y20750D01*
X38320Y21200D01*
X39670D01*
X40120Y21650D01*
Y22550D01*
X39670Y23000D02*X40120Y22550D01*
X38320Y23000D02*X39670D01*
X37870Y22550D02*X38320Y23000D01*
X41200Y21020D02*X42550D01*
X41200Y23000D02*X43000D01*
X41200Y19400D02*Y23000D01*
Y19400D02*X43000D01*
X45700Y21200D02*X46600Y23000D01*
X47500Y21200D02*X46600Y23000D01*
X48580Y19850D02*X49030Y19400D01*
X49930D01*
X50380Y19850D01*
X49930Y23000D02*X50380Y22550D01*
X49030Y23000D02*X49930D01*
X48580Y22550D02*X49030Y23000D01*
Y21020D02*X49930D01*
X50380Y19850D02*Y20570D01*
Y21470D02*Y22550D01*
Y21470D02*X49930Y21020D01*
X50380Y20570D02*X49930Y21020D01*
X51460Y23000D02*X51910D01*
X52990Y19850D02*X53440Y19400D01*
X54790D01*
X55240Y19850D01*
Y20750D01*
X52990Y23000D02*X55240Y20750D01*
X52990Y23000D02*X55240D01*
X70000Y15000D02*X73000D01*
X70000D02*X69000Y14300D01*
Y13200D02*Y14300D01*
Y13200D02*X70000Y12500D01*
X73000D01*
X71000D02*Y15000D01*
X69000Y10800D02*X73000D01*
X69000Y9500D02*X69700Y8800D01*
X72300D01*
X73000Y9500D02*X72300Y8800D01*
X73000Y9500D02*Y11300D01*
X69000Y9500D02*Y11300D01*
Y6100D02*Y6900D01*
Y6100D02*X72500D01*
X73000Y6600D02*X72500Y6100D01*
X73000Y6600D02*Y7100D01*
X72500Y7600D02*X73000Y7100D01*
X72000Y7600D02*X72500D01*
M02*
