G04 start of page 3 for group 1 idx 1 *
G04 Title: (unknown), bottom *
G04 Creator: pcb 20110918 *
G04 CreationDate: Mon 02 Feb 2015 04:29:52 AM GMT UTC *
G04 For: railfan *
G04 Format: Gerber/RS-274X *
G04 PCB-Dimensions: 211000 411000 *
G04 PCB-Coordinate-Origin: lower left *
%MOIN*%
%FSLAX25Y25*%
%LNBOTTOM*%
%ADD40C,0.0390*%
%ADD39C,0.0380*%
%ADD38C,0.0140*%
%ADD37C,0.0300*%
%ADD36C,0.0310*%
%ADD35R,0.0284X0.0284*%
%ADD34C,0.0250*%
%ADD33C,0.0080*%
%ADD32C,0.0200*%
%ADD31C,0.0100*%
%ADD30C,0.0001*%
G54D30*G36*
X1500Y397500D02*X5993D01*
X5971Y397474D01*
X5766Y397138D01*
X5615Y396775D01*
X5523Y396392D01*
X5492Y396000D01*
X5523Y395608D01*
X5615Y395225D01*
X5766Y394862D01*
X5971Y394526D01*
X6227Y394227D01*
X6526Y393971D01*
X6862Y393766D01*
X7225Y393615D01*
X7608Y393523D01*
X8000Y393492D01*
X8392Y393523D01*
X8477Y393543D01*
X8500Y393520D01*
Y393000D01*
X1500D01*
Y397500D01*
G37*
G36*
Y398500D02*Y408500D01*
X6500D01*
Y407007D01*
X6227Y406773D01*
X5971Y406474D01*
X5766Y406138D01*
X5615Y405775D01*
X5523Y405392D01*
X5492Y405000D01*
X5523Y404608D01*
X5615Y404225D01*
X5766Y403862D01*
X5971Y403526D01*
X6227Y403227D01*
X6500Y402993D01*
Y402007D01*
X6227Y401773D01*
X5971Y401474D01*
X5766Y401138D01*
X5615Y400775D01*
X5523Y400392D01*
X5492Y400000D01*
X5523Y399608D01*
X5615Y399225D01*
X5766Y398862D01*
X5971Y398526D01*
X5993Y398500D01*
X1500D01*
G37*
G36*
Y392000D02*X10020D01*
X12500Y389520D01*
Y387000D01*
X1500D01*
Y392000D01*
G37*
G36*
Y362500D02*X5993D01*
X5971Y362474D01*
X5766Y362138D01*
X5615Y361775D01*
X5523Y361392D01*
X5492Y361000D01*
X5523Y360608D01*
X5615Y360225D01*
X5766Y359862D01*
X5971Y359526D01*
X6227Y359227D01*
X6526Y358971D01*
X6862Y358766D01*
X7225Y358615D01*
X7608Y358523D01*
X8000Y358492D01*
X8392Y358523D01*
X8477Y358543D01*
X8500Y358520D01*
Y358000D01*
X1500D01*
Y362500D01*
G37*
G36*
Y363500D02*Y373500D01*
X6500D01*
Y372007D01*
X6227Y371773D01*
X5971Y371474D01*
X5766Y371138D01*
X5615Y370775D01*
X5523Y370392D01*
X5492Y370000D01*
X5523Y369608D01*
X5615Y369225D01*
X5766Y368862D01*
X5971Y368526D01*
X6227Y368227D01*
X6500Y367993D01*
Y367007D01*
X6227Y366773D01*
X5971Y366474D01*
X5766Y366138D01*
X5615Y365775D01*
X5523Y365392D01*
X5492Y365000D01*
X5523Y364608D01*
X5615Y364225D01*
X5766Y363862D01*
X5971Y363526D01*
X5993Y363500D01*
X1500D01*
G37*
G36*
Y357000D02*X10020D01*
X12500Y354520D01*
Y352000D01*
X1500D01*
Y357000D01*
G37*
G36*
Y327500D02*X5993D01*
X5971Y327474D01*
X5766Y327138D01*
X5615Y326775D01*
X5523Y326392D01*
X5492Y326000D01*
X5523Y325608D01*
X5615Y325225D01*
X5766Y324862D01*
X5971Y324526D01*
X6227Y324227D01*
X6526Y323971D01*
X6862Y323766D01*
X7225Y323615D01*
X7608Y323523D01*
X8000Y323492D01*
X8392Y323523D01*
X8477Y323543D01*
X8500Y323520D01*
Y323000D01*
X1500D01*
Y327500D01*
G37*
G36*
Y328500D02*Y338500D01*
X6500D01*
Y337007D01*
X6227Y336773D01*
X5971Y336474D01*
X5766Y336138D01*
X5615Y335775D01*
X5523Y335392D01*
X5492Y335000D01*
X5523Y334608D01*
X5615Y334225D01*
X5766Y333862D01*
X5971Y333526D01*
X6227Y333227D01*
X6500Y332993D01*
Y332007D01*
X6227Y331773D01*
X5971Y331474D01*
X5766Y331138D01*
X5615Y330775D01*
X5523Y330392D01*
X5492Y330000D01*
X5523Y329608D01*
X5615Y329225D01*
X5766Y328862D01*
X5971Y328526D01*
X5993Y328500D01*
X1500D01*
G37*
G36*
Y322000D02*X10020D01*
X12500Y319520D01*
Y317000D01*
X1500D01*
Y322000D01*
G37*
G36*
X108500Y387500D02*Y390879D01*
X108621Y391000D01*
X112500D01*
Y387500D01*
X108500D01*
G37*
G36*
X77500Y409000D02*X116000D01*
Y404500D01*
X105000D01*
X104977Y404892D01*
X104885Y405275D01*
X104734Y405638D01*
X104529Y405974D01*
X104273Y406273D01*
X103974Y406529D01*
X103638Y406734D01*
X103275Y406885D01*
X102892Y406977D01*
X102500Y407008D01*
X102108Y406977D01*
X101725Y406885D01*
X101362Y406734D01*
X101026Y406529D01*
X100992Y406500D01*
X97508D01*
X97474Y406529D01*
X97138Y406734D01*
X96775Y406885D01*
X96392Y406977D01*
X96000Y407008D01*
X95608Y406977D01*
X95225Y406885D01*
X94862Y406734D01*
X94526Y406529D01*
X94227Y406273D01*
X93971Y405974D01*
X93766Y405638D01*
X93615Y405275D01*
X93523Y404892D01*
X93497Y404556D01*
X93477Y404892D01*
X93385Y405275D01*
X93234Y405638D01*
X93029Y405974D01*
X92773Y406273D01*
X92474Y406529D01*
X92138Y406734D01*
X91775Y406885D01*
X91392Y406977D01*
X91000Y407008D01*
X90608Y406977D01*
X90225Y406885D01*
X89862Y406734D01*
X89526Y406529D01*
X89227Y406273D01*
X88971Y405974D01*
X88766Y405638D01*
X88615Y405275D01*
X88523Y404892D01*
X88492Y404500D01*
X82566D01*
X82343Y404637D01*
X81914Y404814D01*
X81463Y404923D01*
X81000Y404959D01*
X80537Y404923D01*
X80086Y404814D01*
X79657Y404637D01*
X79434Y404500D01*
X77500D01*
Y409000D01*
G37*
G36*
X108500Y352500D02*Y355879D01*
X108621Y356000D01*
X112500D01*
Y352500D01*
X108500D01*
G37*
G36*
Y317500D02*Y320879D01*
X108621Y321000D01*
X112500D01*
Y317500D01*
X108500D01*
G37*
G36*
X77500Y339000D02*X116000D01*
Y334500D01*
X105000D01*
X104977Y334892D01*
X104885Y335275D01*
X104734Y335638D01*
X104529Y335974D01*
X104273Y336273D01*
X103974Y336529D01*
X103638Y336734D01*
X103275Y336885D01*
X102892Y336977D01*
X102500Y337008D01*
X102108Y336977D01*
X101725Y336885D01*
X101362Y336734D01*
X101026Y336529D01*
X100992Y336500D01*
X97508D01*
X97474Y336529D01*
X97138Y336734D01*
X96775Y336885D01*
X96392Y336977D01*
X96000Y337008D01*
X95608Y336977D01*
X95225Y336885D01*
X94862Y336734D01*
X94526Y336529D01*
X94227Y336273D01*
X93971Y335974D01*
X93766Y335638D01*
X93615Y335275D01*
X93523Y334892D01*
X93497Y334556D01*
X93477Y334892D01*
X93385Y335275D01*
X93234Y335638D01*
X93029Y335974D01*
X92773Y336273D01*
X92474Y336529D01*
X92138Y336734D01*
X91775Y336885D01*
X91392Y336977D01*
X91000Y337008D01*
X90608Y336977D01*
X90225Y336885D01*
X89862Y336734D01*
X89526Y336529D01*
X89227Y336273D01*
X88971Y335974D01*
X88766Y335638D01*
X88615Y335275D01*
X88523Y334892D01*
X88492Y334500D01*
X82566D01*
X82343Y334637D01*
X81914Y334814D01*
X81463Y334923D01*
X81000Y334959D01*
X80537Y334923D01*
X80086Y334814D01*
X79657Y334637D01*
X79434Y334500D01*
X77500D01*
Y339000D01*
G37*
G36*
X108500Y282500D02*Y285879D01*
X108621Y286000D01*
X112500D01*
Y282500D01*
X108500D01*
G37*
G36*
X77500Y304000D02*X116000D01*
Y299500D01*
X105000D01*
X104977Y299892D01*
X104885Y300275D01*
X104734Y300638D01*
X104529Y300974D01*
X104273Y301273D01*
X103974Y301529D01*
X103638Y301734D01*
X103275Y301885D01*
X102892Y301977D01*
X102500Y302008D01*
X102108Y301977D01*
X101725Y301885D01*
X101362Y301734D01*
X101026Y301529D01*
X100992Y301500D01*
X97508D01*
X97474Y301529D01*
X97138Y301734D01*
X96775Y301885D01*
X96392Y301977D01*
X96000Y302008D01*
X95608Y301977D01*
X95225Y301885D01*
X94862Y301734D01*
X94526Y301529D01*
X94227Y301273D01*
X93971Y300974D01*
X93766Y300638D01*
X93615Y300275D01*
X93523Y299892D01*
X93497Y299556D01*
X93477Y299892D01*
X93385Y300275D01*
X93234Y300638D01*
X93029Y300974D01*
X92773Y301273D01*
X92474Y301529D01*
X92138Y301734D01*
X91775Y301885D01*
X91392Y301977D01*
X91000Y302008D01*
X90608Y301977D01*
X90225Y301885D01*
X89862Y301734D01*
X89526Y301529D01*
X89227Y301273D01*
X88971Y300974D01*
X88766Y300638D01*
X88615Y300275D01*
X88523Y299892D01*
X88492Y299500D01*
X82566D01*
X82343Y299637D01*
X81914Y299814D01*
X81463Y299923D01*
X81000Y299959D01*
X80537Y299923D01*
X80086Y299814D01*
X79657Y299637D01*
X79434Y299500D01*
X77500D01*
Y304000D01*
G37*
G36*
Y374000D02*X116000D01*
Y369500D01*
X105000D01*
X104977Y369892D01*
X104885Y370275D01*
X104734Y370638D01*
X104529Y370974D01*
X104273Y371273D01*
X103974Y371529D01*
X103638Y371734D01*
X103275Y371885D01*
X102892Y371977D01*
X102500Y372008D01*
X102108Y371977D01*
X101725Y371885D01*
X101362Y371734D01*
X101026Y371529D01*
X100992Y371500D01*
X97508D01*
X97474Y371529D01*
X97138Y371734D01*
X96775Y371885D01*
X96392Y371977D01*
X96000Y372008D01*
X95608Y371977D01*
X95225Y371885D01*
X94862Y371734D01*
X94526Y371529D01*
X94227Y371273D01*
X93971Y370974D01*
X93766Y370638D01*
X93615Y370275D01*
X93523Y369892D01*
X93497Y369556D01*
X93477Y369892D01*
X93385Y370275D01*
X93234Y370638D01*
X93029Y370974D01*
X92773Y371273D01*
X92474Y371529D01*
X92138Y371734D01*
X91775Y371885D01*
X91392Y371977D01*
X91000Y372008D01*
X90608Y371977D01*
X90225Y371885D01*
X89862Y371734D01*
X89526Y371529D01*
X89227Y371273D01*
X88971Y370974D01*
X88766Y370638D01*
X88615Y370275D01*
X88523Y369892D01*
X88492Y369500D01*
X82566D01*
X82343Y369637D01*
X81914Y369814D01*
X81463Y369923D01*
X81000Y369959D01*
X80537Y369923D01*
X80086Y369814D01*
X79657Y369637D01*
X79434Y369500D01*
X77500D01*
Y374000D01*
G37*
G36*
Y269000D02*X116000D01*
Y264500D01*
X105000D01*
X104977Y264892D01*
X104885Y265275D01*
X104734Y265638D01*
X104529Y265974D01*
X104273Y266273D01*
X103974Y266529D01*
X103638Y266734D01*
X103275Y266885D01*
X102892Y266977D01*
X102500Y267008D01*
X102108Y266977D01*
X101725Y266885D01*
X101362Y266734D01*
X101026Y266529D01*
X100992Y266500D01*
X97508D01*
X97474Y266529D01*
X97138Y266734D01*
X96775Y266885D01*
X96392Y266977D01*
X96000Y267008D01*
X95608Y266977D01*
X95225Y266885D01*
X94862Y266734D01*
X94526Y266529D01*
X94227Y266273D01*
X93971Y265974D01*
X93766Y265638D01*
X93615Y265275D01*
X93523Y264892D01*
X93497Y264556D01*
X93477Y264892D01*
X93385Y265275D01*
X93234Y265638D01*
X93029Y265974D01*
X92773Y266273D01*
X92474Y266529D01*
X92138Y266734D01*
X91775Y266885D01*
X91392Y266977D01*
X91000Y267008D01*
X90608Y266977D01*
X90225Y266885D01*
X89862Y266734D01*
X89526Y266529D01*
X89227Y266273D01*
X88971Y265974D01*
X88766Y265638D01*
X88615Y265275D01*
X88523Y264892D01*
X88492Y264500D01*
X82566D01*
X82343Y264637D01*
X81914Y264814D01*
X81463Y264923D01*
X81000Y264959D01*
X80537Y264923D01*
X80086Y264814D01*
X79657Y264637D01*
X79434Y264500D01*
X77500D01*
Y269000D01*
G37*
G36*
X1500Y292500D02*X5993D01*
X5971Y292474D01*
X5766Y292138D01*
X5615Y291775D01*
X5523Y291392D01*
X5492Y291000D01*
X5523Y290608D01*
X5615Y290225D01*
X5766Y289862D01*
X5971Y289526D01*
X6227Y289227D01*
X6526Y288971D01*
X6862Y288766D01*
X7225Y288615D01*
X7608Y288523D01*
X8000Y288492D01*
X8392Y288523D01*
X8477Y288543D01*
X8500Y288520D01*
Y288000D01*
X1500D01*
Y292500D01*
G37*
G36*
Y293500D02*Y303500D01*
X6500D01*
Y302007D01*
X6227Y301773D01*
X5971Y301474D01*
X5766Y301138D01*
X5615Y300775D01*
X5523Y300392D01*
X5492Y300000D01*
X5523Y299608D01*
X5615Y299225D01*
X5766Y298862D01*
X5971Y298526D01*
X6227Y298227D01*
X6500Y297993D01*
Y297007D01*
X6227Y296773D01*
X5971Y296474D01*
X5766Y296138D01*
X5615Y295775D01*
X5523Y295392D01*
X5492Y295000D01*
X5523Y294608D01*
X5615Y294225D01*
X5766Y293862D01*
X5971Y293526D01*
X5993Y293500D01*
X1500D01*
G37*
G36*
Y287000D02*X10020D01*
X12500Y284520D01*
Y282000D01*
X1500D01*
Y287000D01*
G37*
G36*
Y257500D02*X5993D01*
X5971Y257474D01*
X5766Y257138D01*
X5615Y256775D01*
X5523Y256392D01*
X5492Y256000D01*
X5523Y255608D01*
X5615Y255225D01*
X5766Y254862D01*
X5971Y254526D01*
X6227Y254227D01*
X6526Y253971D01*
X6862Y253766D01*
X7225Y253615D01*
X7608Y253523D01*
X8000Y253492D01*
X8392Y253523D01*
X8477Y253543D01*
X8500Y253520D01*
Y253000D01*
X1500D01*
Y257500D01*
G37*
G36*
Y258500D02*Y268500D01*
X6500D01*
Y267007D01*
X6227Y266773D01*
X5971Y266474D01*
X5766Y266138D01*
X5615Y265775D01*
X5523Y265392D01*
X5492Y265000D01*
X5523Y264608D01*
X5615Y264225D01*
X5766Y263862D01*
X5971Y263526D01*
X6227Y263227D01*
X6500Y262993D01*
Y262007D01*
X6227Y261773D01*
X5971Y261474D01*
X5766Y261138D01*
X5615Y260775D01*
X5523Y260392D01*
X5492Y260000D01*
X5523Y259608D01*
X5615Y259225D01*
X5766Y258862D01*
X5971Y258526D01*
X5993Y258500D01*
X1500D01*
G37*
G36*
Y252000D02*X10020D01*
X12500Y249520D01*
Y247000D01*
X1500D01*
Y252000D01*
G37*
G36*
Y222500D02*X5993D01*
X5971Y222474D01*
X5766Y222138D01*
X5615Y221775D01*
X5523Y221392D01*
X5492Y221000D01*
X5523Y220608D01*
X5615Y220225D01*
X5766Y219862D01*
X5971Y219526D01*
X6227Y219227D01*
X6526Y218971D01*
X6862Y218766D01*
X7225Y218615D01*
X7608Y218523D01*
X8000Y218492D01*
X8392Y218523D01*
X8477Y218543D01*
X8500Y218520D01*
Y218000D01*
X1500D01*
Y222500D01*
G37*
G36*
Y223500D02*Y233500D01*
X6500D01*
Y232007D01*
X6227Y231773D01*
X5971Y231474D01*
X5766Y231138D01*
X5615Y230775D01*
X5523Y230392D01*
X5492Y230000D01*
X5523Y229608D01*
X5615Y229225D01*
X5766Y228862D01*
X5971Y228526D01*
X6227Y228227D01*
X6500Y227993D01*
Y227007D01*
X6227Y226773D01*
X5971Y226474D01*
X5766Y226138D01*
X5615Y225775D01*
X5523Y225392D01*
X5492Y225000D01*
X5523Y224608D01*
X5615Y224225D01*
X5766Y223862D01*
X5971Y223526D01*
X5993Y223500D01*
X1500D01*
G37*
G36*
Y217000D02*X10020D01*
X12500Y214520D01*
Y212000D01*
X1500D01*
Y217000D01*
G37*
G36*
Y187500D02*X5993D01*
X5971Y187474D01*
X5766Y187138D01*
X5615Y186775D01*
X5523Y186392D01*
X5492Y186000D01*
X5523Y185608D01*
X5615Y185225D01*
X5766Y184862D01*
X5971Y184526D01*
X6227Y184227D01*
X6526Y183971D01*
X6862Y183766D01*
X7225Y183615D01*
X7608Y183523D01*
X8000Y183492D01*
X8392Y183523D01*
X8477Y183543D01*
X8500Y183520D01*
Y183000D01*
X1500D01*
Y187500D01*
G37*
G36*
Y188500D02*Y198500D01*
X6500D01*
Y197007D01*
X6227Y196773D01*
X5971Y196474D01*
X5766Y196138D01*
X5615Y195775D01*
X5523Y195392D01*
X5492Y195000D01*
X5523Y194608D01*
X5615Y194225D01*
X5766Y193862D01*
X5971Y193526D01*
X6227Y193227D01*
X6500Y192993D01*
Y192007D01*
X6227Y191773D01*
X5971Y191474D01*
X5766Y191138D01*
X5615Y190775D01*
X5523Y190392D01*
X5492Y190000D01*
X5523Y189608D01*
X5615Y189225D01*
X5766Y188862D01*
X5971Y188526D01*
X5993Y188500D01*
X1500D01*
G37*
G36*
Y182000D02*X10020D01*
X12500Y179520D01*
Y177000D01*
X1500D01*
Y182000D01*
G37*
G36*
Y152000D02*X5993D01*
X5971Y151974D01*
X5766Y151638D01*
X5615Y151275D01*
X5523Y150892D01*
X5492Y150500D01*
X5523Y150108D01*
X5615Y149725D01*
X5766Y149362D01*
X5971Y149026D01*
X6227Y148727D01*
X6526Y148471D01*
X6862Y148266D01*
X7225Y148115D01*
X7608Y148023D01*
X8000Y147992D01*
X8392Y148023D01*
X8477Y148043D01*
X8500Y148020D01*
Y147500D01*
X1500D01*
Y152000D01*
G37*
G36*
Y153000D02*Y163000D01*
X6500D01*
Y161507D01*
X6227Y161273D01*
X5971Y160974D01*
X5766Y160638D01*
X5615Y160275D01*
X5523Y159892D01*
X5492Y159500D01*
X5523Y159108D01*
X5615Y158725D01*
X5766Y158362D01*
X5971Y158026D01*
X6227Y157727D01*
X6500Y157493D01*
Y156507D01*
X6227Y156273D01*
X5971Y155974D01*
X5766Y155638D01*
X5615Y155275D01*
X5523Y154892D01*
X5492Y154500D01*
X5523Y154108D01*
X5615Y153725D01*
X5766Y153362D01*
X5971Y153026D01*
X5993Y153000D01*
X1500D01*
G37*
G36*
Y146500D02*X10020D01*
X12500Y144020D01*
Y141500D01*
X1500D01*
Y146500D01*
G37*
G36*
Y117500D02*X5993D01*
X5971Y117474D01*
X5766Y117138D01*
X5615Y116775D01*
X5523Y116392D01*
X5492Y116000D01*
X5523Y115608D01*
X5615Y115225D01*
X5766Y114862D01*
X5971Y114526D01*
X6227Y114227D01*
X6526Y113971D01*
X6862Y113766D01*
X7225Y113615D01*
X7608Y113523D01*
X8000Y113492D01*
X8392Y113523D01*
X8477Y113543D01*
X8500Y113520D01*
Y113000D01*
X1500D01*
Y117500D01*
G37*
G36*
Y118500D02*Y128500D01*
X6500D01*
Y127007D01*
X6227Y126773D01*
X5971Y126474D01*
X5766Y126138D01*
X5615Y125775D01*
X5523Y125392D01*
X5492Y125000D01*
X5523Y124608D01*
X5615Y124225D01*
X5766Y123862D01*
X5971Y123526D01*
X6227Y123227D01*
X6500Y122993D01*
Y122007D01*
X6227Y121773D01*
X5971Y121474D01*
X5766Y121138D01*
X5615Y120775D01*
X5523Y120392D01*
X5492Y120000D01*
X5523Y119608D01*
X5615Y119225D01*
X5766Y118862D01*
X5971Y118526D01*
X5993Y118500D01*
X1500D01*
G37*
G36*
Y112000D02*X10020D01*
X12500Y109520D01*
Y107000D01*
X1500D01*
Y112000D01*
G37*
G36*
Y82500D02*X5993D01*
X5971Y82474D01*
X5766Y82138D01*
X5615Y81775D01*
X5523Y81392D01*
X5492Y81000D01*
X5523Y80608D01*
X5615Y80225D01*
X5766Y79862D01*
X5971Y79526D01*
X6227Y79227D01*
X6526Y78971D01*
X6862Y78766D01*
X7225Y78615D01*
X7608Y78523D01*
X8000Y78492D01*
X8392Y78523D01*
X8477Y78543D01*
X8500Y78520D01*
Y78000D01*
X1500D01*
Y82500D01*
G37*
G36*
Y83500D02*Y93500D01*
X6500D01*
Y92007D01*
X6227Y91773D01*
X5971Y91474D01*
X5766Y91138D01*
X5615Y90775D01*
X5523Y90392D01*
X5492Y90000D01*
X5523Y89608D01*
X5615Y89225D01*
X5766Y88862D01*
X5971Y88526D01*
X6227Y88227D01*
X6500Y87993D01*
Y87007D01*
X6227Y86773D01*
X5971Y86474D01*
X5766Y86138D01*
X5615Y85775D01*
X5523Y85392D01*
X5492Y85000D01*
X5523Y84608D01*
X5615Y84225D01*
X5766Y83862D01*
X5971Y83526D01*
X5993Y83500D01*
X1500D01*
G37*
G36*
Y77000D02*X10020D01*
X12500Y74520D01*
Y72000D01*
X1500D01*
Y77000D01*
G37*
G36*
Y47500D02*X5993D01*
X5971Y47474D01*
X5766Y47138D01*
X5615Y46775D01*
X5523Y46392D01*
X5492Y46000D01*
X5523Y45608D01*
X5615Y45225D01*
X5766Y44862D01*
X5971Y44526D01*
X6227Y44227D01*
X6526Y43971D01*
X6862Y43766D01*
X7225Y43615D01*
X7608Y43523D01*
X8000Y43492D01*
X8392Y43523D01*
X8477Y43543D01*
X8500Y43520D01*
Y43000D01*
X1500D01*
Y47500D01*
G37*
G36*
Y48500D02*Y58500D01*
X6500D01*
Y57007D01*
X6227Y56773D01*
X5971Y56474D01*
X5766Y56138D01*
X5615Y55775D01*
X5523Y55392D01*
X5492Y55000D01*
X5523Y54608D01*
X5615Y54225D01*
X5766Y53862D01*
X5971Y53526D01*
X6227Y53227D01*
X6500Y52993D01*
Y52007D01*
X6227Y51773D01*
X5971Y51474D01*
X5766Y51138D01*
X5615Y50775D01*
X5523Y50392D01*
X5492Y50000D01*
X5523Y49608D01*
X5615Y49225D01*
X5766Y48862D01*
X5971Y48526D01*
X5993Y48500D01*
X1500D01*
G37*
G36*
Y42000D02*X10020D01*
X12500Y39520D01*
Y37000D01*
X1500D01*
Y42000D01*
G37*
G36*
Y12500D02*X5993D01*
X5971Y12474D01*
X5766Y12138D01*
X5615Y11775D01*
X5523Y11392D01*
X5492Y11000D01*
X5523Y10608D01*
X5615Y10225D01*
X5766Y9862D01*
X5971Y9526D01*
X6227Y9227D01*
X6526Y8971D01*
X6862Y8766D01*
X7225Y8615D01*
X7608Y8523D01*
X8000Y8492D01*
X8392Y8523D01*
X8477Y8543D01*
X8500Y8520D01*
Y8000D01*
X1500D01*
Y12500D01*
G37*
G36*
Y13500D02*Y23500D01*
X6500D01*
Y22007D01*
X6227Y21773D01*
X5971Y21474D01*
X5766Y21138D01*
X5615Y20775D01*
X5523Y20392D01*
X5492Y20000D01*
X5523Y19608D01*
X5615Y19225D01*
X5766Y18862D01*
X5971Y18526D01*
X6227Y18227D01*
X6500Y17993D01*
Y17007D01*
X6227Y16773D01*
X5971Y16474D01*
X5766Y16138D01*
X5615Y15775D01*
X5523Y15392D01*
X5492Y15000D01*
X5523Y14608D01*
X5615Y14225D01*
X5766Y13862D01*
X5971Y13526D01*
X5993Y13500D01*
X1500D01*
G37*
G36*
Y7000D02*X10020D01*
X12500Y4520D01*
Y2000D01*
X1500D01*
Y7000D01*
G37*
G36*
X108500Y247500D02*Y250879D01*
X108621Y251000D01*
X112500D01*
Y247500D01*
X108500D01*
G37*
G36*
Y177500D02*Y180879D01*
X108621Y181000D01*
X112500D01*
Y177500D01*
X108500D01*
G37*
G36*
Y142000D02*Y145379D01*
X108621Y145500D01*
X112500D01*
Y142000D01*
X108500D01*
G37*
G36*
Y107500D02*Y110879D01*
X108621Y111000D01*
X112500D01*
Y107500D01*
X108500D01*
G37*
G36*
Y72500D02*Y75879D01*
X108621Y76000D01*
X112500D01*
Y72500D01*
X108500D01*
G37*
G36*
Y37500D02*Y40879D01*
X108621Y41000D01*
X112500D01*
Y37500D01*
X108500D01*
G37*
G36*
Y212500D02*Y215879D01*
X108621Y216000D01*
X112500D01*
Y212500D01*
X108500D01*
G37*
G36*
X77500Y234000D02*X116000D01*
Y229500D01*
X105000D01*
X104977Y229892D01*
X104885Y230275D01*
X104734Y230638D01*
X104529Y230974D01*
X104273Y231273D01*
X103974Y231529D01*
X103638Y231734D01*
X103275Y231885D01*
X102892Y231977D01*
X102500Y232008D01*
X102108Y231977D01*
X101725Y231885D01*
X101362Y231734D01*
X101026Y231529D01*
X100992Y231500D01*
X97508D01*
X97474Y231529D01*
X97138Y231734D01*
X96775Y231885D01*
X96392Y231977D01*
X96000Y232008D01*
X95608Y231977D01*
X95225Y231885D01*
X94862Y231734D01*
X94526Y231529D01*
X94227Y231273D01*
X93971Y230974D01*
X93766Y230638D01*
X93615Y230275D01*
X93523Y229892D01*
X93497Y229556D01*
X93477Y229892D01*
X93385Y230275D01*
X93234Y230638D01*
X93029Y230974D01*
X92773Y231273D01*
X92474Y231529D01*
X92138Y231734D01*
X91775Y231885D01*
X91392Y231977D01*
X91000Y232008D01*
X90608Y231977D01*
X90225Y231885D01*
X89862Y231734D01*
X89526Y231529D01*
X89227Y231273D01*
X88971Y230974D01*
X88766Y230638D01*
X88615Y230275D01*
X88523Y229892D01*
X88492Y229500D01*
X82566D01*
X82343Y229637D01*
X81914Y229814D01*
X81463Y229923D01*
X81000Y229959D01*
X80537Y229923D01*
X80086Y229814D01*
X79657Y229637D01*
X79434Y229500D01*
X77500D01*
Y234000D01*
G37*
G36*
Y199000D02*X116000D01*
Y194500D01*
X105000D01*
X104977Y194892D01*
X104885Y195275D01*
X104734Y195638D01*
X104529Y195974D01*
X104273Y196273D01*
X103974Y196529D01*
X103638Y196734D01*
X103275Y196885D01*
X102892Y196977D01*
X102500Y197008D01*
X102108Y196977D01*
X101725Y196885D01*
X101362Y196734D01*
X101026Y196529D01*
X100992Y196500D01*
X97508D01*
X97474Y196529D01*
X97138Y196734D01*
X96775Y196885D01*
X96392Y196977D01*
X96000Y197008D01*
X95608Y196977D01*
X95225Y196885D01*
X94862Y196734D01*
X94526Y196529D01*
X94227Y196273D01*
X93971Y195974D01*
X93766Y195638D01*
X93615Y195275D01*
X93523Y194892D01*
X93497Y194556D01*
X93477Y194892D01*
X93385Y195275D01*
X93234Y195638D01*
X93029Y195974D01*
X92773Y196273D01*
X92474Y196529D01*
X92138Y196734D01*
X91775Y196885D01*
X91392Y196977D01*
X91000Y197008D01*
X90608Y196977D01*
X90225Y196885D01*
X89862Y196734D01*
X89526Y196529D01*
X89227Y196273D01*
X88971Y195974D01*
X88766Y195638D01*
X88615Y195275D01*
X88523Y194892D01*
X88492Y194500D01*
X82566D01*
X82343Y194637D01*
X81914Y194814D01*
X81463Y194923D01*
X81000Y194959D01*
X80537Y194923D01*
X80086Y194814D01*
X79657Y194637D01*
X79434Y194500D01*
X77500D01*
Y199000D01*
G37*
G36*
Y163500D02*X116000D01*
Y159000D01*
X105000D01*
X104977Y159392D01*
X104885Y159775D01*
X104734Y160138D01*
X104529Y160474D01*
X104273Y160773D01*
X103974Y161029D01*
X103638Y161234D01*
X103275Y161385D01*
X102892Y161477D01*
X102500Y161508D01*
X102108Y161477D01*
X101725Y161385D01*
X101362Y161234D01*
X101026Y161029D01*
X100992Y161000D01*
X97508D01*
X97474Y161029D01*
X97138Y161234D01*
X96775Y161385D01*
X96392Y161477D01*
X96000Y161508D01*
X95608Y161477D01*
X95225Y161385D01*
X94862Y161234D01*
X94526Y161029D01*
X94227Y160773D01*
X93971Y160474D01*
X93766Y160138D01*
X93615Y159775D01*
X93523Y159392D01*
X93497Y159056D01*
X93477Y159392D01*
X93385Y159775D01*
X93234Y160138D01*
X93029Y160474D01*
X92773Y160773D01*
X92474Y161029D01*
X92138Y161234D01*
X91775Y161385D01*
X91392Y161477D01*
X91000Y161508D01*
X90608Y161477D01*
X90225Y161385D01*
X89862Y161234D01*
X89526Y161029D01*
X89227Y160773D01*
X88971Y160474D01*
X88766Y160138D01*
X88615Y159775D01*
X88523Y159392D01*
X88492Y159000D01*
X82566D01*
X82343Y159137D01*
X81914Y159314D01*
X81463Y159423D01*
X81000Y159459D01*
X80537Y159423D01*
X80086Y159314D01*
X79657Y159137D01*
X79434Y159000D01*
X77500D01*
Y163500D01*
G37*
G36*
Y129000D02*X116000D01*
Y124500D01*
X105000D01*
X104977Y124892D01*
X104885Y125275D01*
X104734Y125638D01*
X104529Y125974D01*
X104273Y126273D01*
X103974Y126529D01*
X103638Y126734D01*
X103275Y126885D01*
X102892Y126977D01*
X102500Y127008D01*
X102108Y126977D01*
X101725Y126885D01*
X101362Y126734D01*
X101026Y126529D01*
X100992Y126500D01*
X97508D01*
X97474Y126529D01*
X97138Y126734D01*
X96775Y126885D01*
X96392Y126977D01*
X96000Y127008D01*
X95608Y126977D01*
X95225Y126885D01*
X94862Y126734D01*
X94526Y126529D01*
X94227Y126273D01*
X93971Y125974D01*
X93766Y125638D01*
X93615Y125275D01*
X93523Y124892D01*
X93497Y124556D01*
X93477Y124892D01*
X93385Y125275D01*
X93234Y125638D01*
X93029Y125974D01*
X92773Y126273D01*
X92474Y126529D01*
X92138Y126734D01*
X91775Y126885D01*
X91392Y126977D01*
X91000Y127008D01*
X90608Y126977D01*
X90225Y126885D01*
X89862Y126734D01*
X89526Y126529D01*
X89227Y126273D01*
X88971Y125974D01*
X88766Y125638D01*
X88615Y125275D01*
X88523Y124892D01*
X88492Y124500D01*
X82566D01*
X82343Y124637D01*
X81914Y124814D01*
X81463Y124923D01*
X81000Y124959D01*
X80537Y124923D01*
X80086Y124814D01*
X79657Y124637D01*
X79434Y124500D01*
X77500D01*
Y129000D01*
G37*
G36*
Y94000D02*X116000D01*
Y89500D01*
X105000D01*
X104977Y89892D01*
X104885Y90275D01*
X104734Y90638D01*
X104529Y90974D01*
X104273Y91273D01*
X103974Y91529D01*
X103638Y91734D01*
X103275Y91885D01*
X102892Y91977D01*
X102500Y92008D01*
X102108Y91977D01*
X101725Y91885D01*
X101362Y91734D01*
X101026Y91529D01*
X100992Y91500D01*
X97508D01*
X97474Y91529D01*
X97138Y91734D01*
X96775Y91885D01*
X96392Y91977D01*
X96000Y92008D01*
X95608Y91977D01*
X95225Y91885D01*
X94862Y91734D01*
X94526Y91529D01*
X94227Y91273D01*
X93971Y90974D01*
X93766Y90638D01*
X93615Y90275D01*
X93523Y89892D01*
X93497Y89556D01*
X93477Y89892D01*
X93385Y90275D01*
X93234Y90638D01*
X93029Y90974D01*
X92773Y91273D01*
X92474Y91529D01*
X92138Y91734D01*
X91775Y91885D01*
X91392Y91977D01*
X91000Y92008D01*
X90608Y91977D01*
X90225Y91885D01*
X89862Y91734D01*
X89526Y91529D01*
X89227Y91273D01*
X88971Y90974D01*
X88766Y90638D01*
X88615Y90275D01*
X88523Y89892D01*
X88492Y89500D01*
X82566D01*
X82343Y89637D01*
X81914Y89814D01*
X81463Y89923D01*
X81000Y89959D01*
X80537Y89923D01*
X80086Y89814D01*
X79657Y89637D01*
X79434Y89500D01*
X77500D01*
Y94000D01*
G37*
G36*
Y59000D02*X116000D01*
Y54500D01*
X105000D01*
X104977Y54892D01*
X104885Y55275D01*
X104734Y55638D01*
X104529Y55974D01*
X104273Y56273D01*
X103974Y56529D01*
X103638Y56734D01*
X103275Y56885D01*
X102892Y56977D01*
X102500Y57008D01*
X102108Y56977D01*
X101725Y56885D01*
X101362Y56734D01*
X101026Y56529D01*
X100992Y56500D01*
X97508D01*
X97474Y56529D01*
X97138Y56734D01*
X96775Y56885D01*
X96392Y56977D01*
X96000Y57008D01*
X95608Y56977D01*
X95225Y56885D01*
X94862Y56734D01*
X94526Y56529D01*
X94227Y56273D01*
X93971Y55974D01*
X93766Y55638D01*
X93615Y55275D01*
X93523Y54892D01*
X93497Y54556D01*
X93477Y54892D01*
X93385Y55275D01*
X93234Y55638D01*
X93029Y55974D01*
X92773Y56273D01*
X92474Y56529D01*
X92138Y56734D01*
X91775Y56885D01*
X91392Y56977D01*
X91000Y57008D01*
X90608Y56977D01*
X90225Y56885D01*
X89862Y56734D01*
X89526Y56529D01*
X89227Y56273D01*
X88971Y55974D01*
X88766Y55638D01*
X88615Y55275D01*
X88523Y54892D01*
X88492Y54500D01*
X82566D01*
X82343Y54637D01*
X81914Y54814D01*
X81463Y54923D01*
X81000Y54959D01*
X80537Y54923D01*
X80086Y54814D01*
X79657Y54637D01*
X79434Y54500D01*
X77500D01*
Y59000D01*
G37*
G36*
X108500Y2500D02*Y5879D01*
X108621Y6000D01*
X112500D01*
Y2500D01*
X108500D01*
G37*
G36*
X77500Y24000D02*X116000D01*
Y19500D01*
X105000D01*
X104977Y19892D01*
X104885Y20275D01*
X104734Y20638D01*
X104529Y20974D01*
X104273Y21273D01*
X103974Y21529D01*
X103638Y21734D01*
X103275Y21885D01*
X102892Y21977D01*
X102500Y22008D01*
X102108Y21977D01*
X101725Y21885D01*
X101362Y21734D01*
X101026Y21529D01*
X100992Y21500D01*
X97508D01*
X97474Y21529D01*
X97138Y21734D01*
X96775Y21885D01*
X96392Y21977D01*
X96000Y22008D01*
X95608Y21977D01*
X95225Y21885D01*
X94862Y21734D01*
X94526Y21529D01*
X94227Y21273D01*
X93971Y20974D01*
X93766Y20638D01*
X93615Y20275D01*
X93523Y19892D01*
X93497Y19556D01*
X93477Y19892D01*
X93385Y20275D01*
X93234Y20638D01*
X93029Y20974D01*
X92773Y21273D01*
X92474Y21529D01*
X92138Y21734D01*
X91775Y21885D01*
X91392Y21977D01*
X91000Y22008D01*
X90608Y21977D01*
X90225Y21885D01*
X89862Y21734D01*
X89526Y21529D01*
X89227Y21273D01*
X88971Y20974D01*
X88766Y20638D01*
X88615Y20275D01*
X88523Y19892D01*
X88492Y19500D01*
X82566D01*
X82343Y19637D01*
X81914Y19814D01*
X81463Y19923D01*
X81000Y19959D01*
X80537Y19923D01*
X80086Y19814D01*
X79657Y19637D01*
X79434Y19500D01*
X77500D01*
Y24000D01*
G37*
G54D31*X95000Y388000D02*X196000D01*
G54D32*X136000Y398000D02*X114500D01*
G54D33*X96000Y360500D02*X97000Y359500D01*
X96000Y369500D02*Y365500D01*
G54D32*X136000Y363000D02*X114500D01*
X96000Y369500D02*X102500D01*
X106500Y362000D02*Y372000D01*
X114500Y362500D02*Y372000D01*
G54D31*X110500Y360000D02*Y362500D01*
X107000Y356500D02*X110500Y360000D01*
X97000Y356500D02*X107000D01*
X93500Y354500D02*X95000Y353000D01*
X93500Y357500D02*Y354500D01*
G54D33*X91000Y356000D02*Y360500D01*
Y369500D02*Y365500D01*
X89500Y354500D02*X91000Y356000D01*
G54D31*X95000Y353000D02*X196000D01*
X95000Y318000D02*X196000D01*
G54D33*X97000Y359500D02*Y356500D01*
G54D32*X136000Y328000D02*X114500D01*
Y327500D02*Y337000D01*
X96000Y334500D02*X102500D01*
X106500Y327000D02*Y337000D01*
G54D31*X93500Y319500D02*X95000Y318000D01*
X93500Y322500D02*Y319500D01*
X110500Y325000D02*Y327500D01*
X107000Y321500D02*X110500Y325000D01*
X97000Y321500D02*X107000D01*
G54D33*X97000Y324500D02*Y321500D01*
X96000Y325500D02*X97000Y324500D01*
X91000Y321000D02*Y325500D01*
X89500Y319500D02*X91000Y321000D01*
Y334500D02*Y330500D01*
X96000Y334500D02*Y330500D01*
G54D31*X95000Y283000D02*X196000D01*
G54D32*X136000Y293000D02*X114500D01*
X96000Y299500D02*X102500D01*
X106500Y292000D02*Y302000D01*
X114500Y292500D02*Y302000D01*
G54D33*X91000Y299500D02*Y295500D01*
G54D31*X110500Y290000D02*Y292500D01*
X107000Y286500D02*X110500Y290000D01*
X97000Y286500D02*X107000D01*
G54D33*X97000Y289500D02*Y286500D01*
X96000Y290500D02*X97000Y289500D01*
G54D31*X93500Y284500D02*X95000Y283000D01*
X93500Y287500D02*Y284500D01*
G54D33*X87000Y286000D02*X88500Y287500D01*
X91000Y286000D02*Y290500D01*
X89500Y284500D02*X91000Y286000D01*
G54D31*X196000Y388000D02*X198000Y390000D01*
X196000Y353000D02*X198000Y355000D01*
X196000Y318000D02*X198000Y320000D01*
X196000Y283000D02*X198000Y285000D01*
X196000Y248000D02*X198000Y250000D01*
G54D33*X96000Y299500D02*Y295500D01*
G54D32*Y264500D02*X102500D01*
X106500Y257000D02*Y267000D01*
X114500Y257500D02*Y267000D01*
G54D33*X96000Y264500D02*Y260500D01*
G54D31*X110500Y255000D02*Y257500D01*
X107000Y251500D02*X110500Y255000D01*
X97000Y251500D02*X107000D01*
X93500Y249500D02*X95000Y248000D01*
X93500Y252500D02*Y249500D01*
G54D33*X87000Y251000D02*X88500Y252500D01*
X91000Y251000D02*Y255500D01*
Y264500D02*Y260500D01*
X89500Y249500D02*X91000Y251000D01*
G54D31*X95000Y248000D02*X196000D01*
G54D33*X96000Y220500D02*X97000Y219500D01*
X96000Y229500D02*Y225500D01*
G54D32*X136000Y258000D02*X114500D01*
G54D33*X97000Y254500D02*Y251500D01*
X96000Y255500D02*X97000Y254500D01*
G54D32*X136000Y223000D02*X114500D01*
X96000Y229500D02*X102500D01*
X106500Y222000D02*Y232000D01*
X114500Y222500D02*Y232000D01*
G54D31*X110500Y220000D02*Y222500D01*
X107000Y216500D02*X110500Y220000D01*
X97000Y216500D02*X107000D01*
X93500Y217500D02*Y214500D01*
G54D33*X91000Y216000D02*Y220500D01*
X89500Y214500D02*X91000Y216000D01*
Y229500D02*Y225500D01*
G54D31*X93500Y214500D02*X95000Y213000D01*
G54D33*X87000Y216000D02*X88500Y217500D01*
X97000Y219500D02*Y216500D01*
G54D32*X96000Y194500D02*X102500D01*
X106500Y187000D02*Y197000D01*
X114500Y187500D02*Y197000D01*
G54D31*X110500Y185000D02*Y187500D01*
G54D33*X96000Y194500D02*Y190500D01*
G54D31*X93500Y179500D02*X95000Y178000D01*
X93500Y182500D02*Y179500D01*
G54D33*X87000Y181000D02*X88500Y182500D01*
X91000Y181000D02*Y185500D01*
X89500Y179500D02*X91000Y181000D01*
Y194500D02*Y190500D01*
G54D31*X95000Y213000D02*X196000D01*
X95000Y178000D02*X196000D01*
G54D32*X136000Y188000D02*X114500D01*
G54D31*X107000Y181500D02*X110500Y185000D01*
X97000Y181500D02*X107000D01*
G54D33*X97000Y184500D02*Y181500D01*
X96000Y185500D02*X97000Y184500D01*
G54D32*X136000Y152500D02*X114500D01*
X96000Y159000D02*X102500D01*
G54D33*X91000D02*Y155000D01*
X96000Y159000D02*Y155000D01*
G54D32*X106500Y151500D02*Y161500D01*
X114500Y152000D02*Y161500D01*
G54D31*X110500Y149500D02*Y152000D01*
X107000Y146000D02*X110500Y149500D01*
X97000Y146000D02*X107000D01*
X93500Y144000D02*X95000Y142500D01*
X93500Y147000D02*Y144000D01*
G54D33*X87000Y145500D02*X88500Y147000D01*
X89500Y144000D02*X91000Y145500D01*
X97000Y149000D02*Y146000D01*
X96000Y150000D02*X97000Y149000D01*
X91000Y145500D02*Y150000D01*
G54D31*X95000Y142500D02*X196000D01*
X95000Y108000D02*X196000D01*
G54D32*X136000Y118000D02*X114500D01*
X96000Y124500D02*X102500D01*
X106500Y117000D02*Y127000D01*
X114500Y117500D02*Y127000D01*
G54D31*X110500Y115000D02*Y117500D01*
X107000Y111500D02*X110500Y115000D01*
X97000Y111500D02*X107000D01*
X93500Y109500D02*X95000Y108000D01*
X93500Y112500D02*Y109500D01*
G54D33*X97000Y114500D02*Y111500D01*
X96000Y115500D02*X97000Y114500D01*
X87000Y111000D02*X88500Y112500D01*
X91000Y111000D02*Y115500D01*
X89500Y109500D02*X91000Y111000D01*
Y124500D02*Y120500D01*
X96000Y124500D02*Y120500D01*
G54D31*X95000Y73000D02*X196000D01*
G54D32*X136000Y83000D02*X114500D01*
G54D31*X110500Y80000D02*Y82500D01*
X107000Y76500D02*X110500Y80000D01*
X97000Y76500D02*X107000D01*
X93500Y74500D02*X95000Y73000D01*
X93500Y77500D02*Y74500D01*
G54D33*X97000Y79500D02*Y76500D01*
X96000Y80500D02*X97000Y79500D01*
X87000Y76000D02*X88500Y77500D01*
X91000Y76000D02*Y80500D01*
X89500Y74500D02*X91000Y76000D01*
Y89500D02*Y85500D01*
G54D32*X96000Y89500D02*X102500D01*
X106500Y82000D02*Y92000D01*
X114500Y82500D02*Y92000D01*
G54D33*X96000Y89500D02*Y85500D01*
G54D32*X136000Y48000D02*X114500D01*
Y47500D02*Y57000D01*
X96000Y54500D02*X102500D01*
X106500Y47000D02*Y57000D01*
G54D33*X91000Y54500D02*Y50500D01*
X96000Y54500D02*Y50500D01*
G54D31*X93500Y39500D02*X95000Y38000D01*
X93500Y42500D02*Y39500D01*
G54D33*X87000Y41000D02*X88500Y42500D01*
X91000Y41000D02*Y45500D01*
X89500Y39500D02*X91000Y41000D01*
G54D31*X110500Y45000D02*Y47500D01*
X107000Y41500D02*X110500Y45000D01*
X97000Y41500D02*X107000D01*
G54D33*X97000Y44500D02*Y41500D01*
X96000Y45500D02*X97000Y44500D01*
G54D31*X196000Y213000D02*X198000Y215000D01*
X196000Y178000D02*X198000Y180000D01*
X196000Y142500D02*X198000Y144500D01*
X196000Y108000D02*X198000Y110000D01*
X196000Y73000D02*X198000Y75000D01*
X196000Y38000D02*X198000Y40000D01*
X196000Y3000D02*X198000Y5000D01*
X95000Y38000D02*X196000D01*
X95000Y3000D02*X196000D01*
G54D33*X96000Y19500D02*Y15500D01*
G54D32*X136000Y13000D02*X114500D01*
Y12500D02*Y22000D01*
X96000Y19500D02*X102500D01*
X106500Y12000D02*Y22000D01*
G54D33*X91000Y19500D02*Y15500D01*
G54D31*X93500Y4500D02*X95000Y3000D01*
X93500Y7500D02*Y4500D01*
G54D33*X91000Y6000D02*Y10500D01*
X89500Y4500D02*X91000Y6000D01*
G54D31*X110500Y10000D02*Y12500D01*
X107000Y6500D02*X110500Y10000D01*
X97000Y6500D02*X107000D01*
G54D33*X97000Y9500D02*Y6500D01*
X96000Y10500D02*X97000Y9500D01*
X87000Y6000D02*X88500Y7500D01*
X32500Y387500D02*X10000D01*
X28500Y390000D02*X30500D01*
X27500Y389000D02*X28500Y390000D01*
X15000Y389000D02*X27500D01*
X8000Y396000D02*X15000Y389000D01*
G54D34*X23500Y400000D02*X25000Y401500D01*
X8000Y400000D02*X23500D01*
X26500Y405000D02*X28500Y403000D01*
X8000Y405000D02*X26500D01*
G54D33*X32500Y387500D02*X34000Y389000D01*
G54D34*X29500Y406500D02*X27500Y404500D01*
G54D33*X38500Y394000D02*Y398500D01*
G54D34*X28500Y395500D02*X25000Y392000D01*
X28500Y403000D02*Y395500D01*
G54D33*X30500Y390000D02*X32000Y391500D01*
X54000Y394000D02*X61000D01*
X38000Y388500D02*X62500D01*
X39500Y390000D02*X61000D01*
X40000Y392500D02*X38500Y394000D01*
X43500Y392500D02*X40000D01*
X34000Y389000D02*X37500D01*
X38000Y391500D02*X39500Y390000D01*
X37500Y389000D02*X38000Y388500D01*
X32000Y391500D02*X38000D01*
X77500Y396500D02*X43500D01*
G54D34*X62500Y406500D02*X29500D01*
G54D33*X42000Y402000D02*X68000D01*
X38500Y398500D02*X42000Y402000D01*
G54D32*X96000Y404500D02*X102500D01*
X106500Y397000D02*Y407000D01*
X114500Y397500D02*Y407000D01*
G54D33*X96000Y404500D02*Y400500D01*
G54D31*X110500Y395000D02*Y397500D01*
X107000Y391500D02*X110500Y395000D01*
X97000Y391500D02*X107000D01*
X93500Y389500D02*X95000Y388000D01*
G54D33*X97000Y394500D02*Y391500D01*
X96000Y395500D02*X97000Y394500D01*
G54D32*X77000Y404000D02*X79000Y406000D01*
X77000Y401000D02*Y404000D01*
X75500Y399500D02*X77000Y401000D01*
X54500Y399500D02*X75500D01*
G54D33*X68000Y402000D02*X71000Y405000D01*
X74500Y392000D02*X77000Y389500D01*
X63000Y392000D02*X74500D01*
X62000Y395000D02*X75500D01*
X61000Y394000D02*X62000Y395000D01*
X63162Y389162D02*X62500Y388500D01*
X65500Y389162D02*X63162D01*
X61000Y390000D02*X63000Y392000D01*
X75500Y395000D02*X79500Y391000D01*
G54D32*X86000Y400500D02*Y407500D01*
G54D31*X93500Y392500D02*Y389500D01*
G54D33*X87000Y391000D02*X88500Y392500D01*
X89500Y389500D02*X91000Y391000D01*
Y395500D01*
Y404500D02*Y400500D01*
X79500Y391000D02*X87000D01*
X77000Y389500D02*X89500D01*
X78000Y397000D02*X77500Y396500D01*
X84500Y397000D02*X78000D01*
X86000Y395500D02*X84500Y397000D01*
G54D34*X23500Y365000D02*X25000Y366500D01*
X8000Y365000D02*X23500D01*
X26500Y370000D02*X28500Y368000D01*
X8000Y370000D02*X26500D01*
X29500Y371500D02*X27500Y369500D01*
G54D33*X38500Y359000D02*Y363500D01*
G54D34*X28500Y368000D02*Y360500D01*
G54D33*X32500Y352500D02*X34000Y354000D01*
X32500Y352500D02*X10000D01*
G54D34*X28500Y360500D02*X25000Y357000D01*
G54D33*X30500Y355000D02*X32000Y356500D01*
X28500Y355000D02*X30500D01*
X27500Y354000D02*X28500Y355000D01*
X15000Y354000D02*X27500D01*
X8000Y361000D02*X15000Y354000D01*
G54D32*X77000Y369000D02*X79000Y371000D01*
X86000Y365500D02*Y372500D01*
G54D34*X62500Y371500D02*X29500D01*
G54D33*X68000Y367000D02*X71000Y370000D01*
X42000Y367000D02*X68000D01*
X38500Y363500D02*X42000Y367000D01*
X86000Y360500D02*X84500Y362000D01*
X40000Y357500D02*X38500Y359000D01*
X43500Y357500D02*X40000D01*
X87000Y356000D02*X88500Y357500D01*
X79500Y356000D02*X87000D01*
X77000Y354500D02*X89500D01*
X74500Y357000D02*X77000Y354500D01*
X75500Y360000D02*X79500Y356000D01*
X38000Y353500D02*X62500D01*
X39500Y355000D02*X61000D01*
X63162Y354162D02*X62500Y353500D01*
X65500Y354162D02*X63162D01*
X61000Y355000D02*X63000Y357000D01*
X34000Y354000D02*X37500D01*
X38000Y356500D02*X39500Y355000D01*
X32000Y356500D02*X38000D01*
X37500Y354000D02*X38000Y353500D01*
G54D32*X77000Y366000D02*Y369000D01*
X75500Y364500D02*X77000Y366000D01*
X54500Y364500D02*X75500D01*
G54D33*X63000Y357000D02*X74500D01*
X62000Y360000D02*X75500D01*
X61000Y359000D02*X62000Y360000D01*
X54000Y359000D02*X61000D01*
X77500Y361500D02*X43500D01*
X78000Y362000D02*X77500Y361500D01*
X84500Y362000D02*X78000D01*
G54D32*X77000Y334000D02*X79000Y336000D01*
X86000Y330500D02*Y337500D01*
G54D34*X62500Y336500D02*X29500D01*
G54D33*X68000Y332000D02*X71000Y335000D01*
X42000Y332000D02*X68000D01*
X38500Y328500D02*X42000Y332000D01*
X86000Y325500D02*X84500Y327000D01*
X40000Y322500D02*X38500Y324000D01*
X43500Y322500D02*X40000D01*
X87000Y321000D02*X88500Y322500D01*
X79500Y321000D02*X87000D01*
X77000Y319500D02*X89500D01*
X74500Y322000D02*X77000Y319500D01*
X75500Y325000D02*X79500Y321000D01*
X38000Y318500D02*X62500D01*
X39500Y320000D02*X61000D01*
X63162Y319162D02*X62500Y318500D01*
X65500Y319162D02*X63162D01*
X61000Y320000D02*X63000Y322000D01*
X38000Y321500D02*X39500Y320000D01*
G54D32*X77000Y331000D02*Y334000D01*
X75500Y329500D02*X77000Y331000D01*
X54500Y329500D02*X75500D01*
G54D33*X63000Y322000D02*X74500D01*
X62000Y325000D02*X75500D01*
X61000Y324000D02*X62000Y325000D01*
X54000Y324000D02*X61000D01*
X77500Y326500D02*X43500D01*
X78000Y327000D02*X77500Y326500D01*
X84500Y327000D02*X78000D01*
G54D32*X77000Y299000D02*X79000Y301000D01*
X86000Y295500D02*Y302500D01*
X77000Y296000D02*Y299000D01*
X75500Y294500D02*X77000Y296000D01*
G54D33*X79500Y286000D02*X87000D01*
X77000Y284500D02*X89500D01*
X86000Y290500D02*X84500Y292000D01*
X74500Y287000D02*X77000Y284500D01*
X75500Y290000D02*X79500Y286000D01*
X78000Y292000D02*X77500Y291500D01*
X84500Y292000D02*X78000D01*
G54D32*X54500Y294500D02*X75500D01*
G54D33*X63000Y287000D02*X74500D01*
X62000Y290000D02*X75500D01*
X61000Y289000D02*X62000Y290000D01*
X54000Y289000D02*X61000D01*
X77500Y291500D02*X43500D01*
X63162Y284162D02*X62500Y283500D01*
X61000Y285000D02*X63000Y287000D01*
X65500Y284162D02*X63162D01*
X68000Y297000D02*X71000Y300000D01*
X42000Y297000D02*X68000D01*
X38500Y293500D02*X42000Y297000D01*
X43500Y287500D02*X40000D01*
G54D32*X77000Y264000D02*X79000Y266000D01*
X86000Y260500D02*Y267500D01*
X77000Y261000D02*Y264000D01*
X75500Y259500D02*X77000Y261000D01*
G54D33*X79500Y251000D02*X87000D01*
X77000Y249500D02*X89500D01*
X86000Y255500D02*X84500Y257000D01*
X74500Y252000D02*X77000Y249500D01*
X75500Y255000D02*X79500Y251000D01*
X78000Y257000D02*X77500Y256500D01*
X84500Y257000D02*X78000D01*
X68000Y262000D02*X71000Y265000D01*
G54D34*X23500Y330000D02*X25000Y331500D01*
X28500Y333000D02*Y325500D01*
X26500Y335000D02*X28500Y333000D01*
X8000Y330000D02*X23500D01*
X8000Y335000D02*X26500D01*
X29500Y336500D02*X27500Y334500D01*
G54D33*X32500Y317500D02*X10000D01*
X38500Y324000D02*Y328500D01*
G54D34*X28500Y325500D02*X25000Y322000D01*
G54D33*X28500Y320000D02*X30500D01*
X8000Y326000D02*X15000Y319000D01*
X34000D02*X37500D01*
X32500Y317500D02*X34000Y319000D01*
X37500D02*X38000Y318500D01*
X32000Y321500D02*X38000D01*
X30500Y320000D02*X32000Y321500D01*
X27500Y319000D02*X28500Y320000D01*
X15000Y319000D02*X27500D01*
X32500Y282500D02*X10000D01*
X28500Y285000D02*X30500D01*
X27500Y284000D02*X28500Y285000D01*
X15000Y284000D02*X27500D01*
X34000D02*X37500D01*
X32500Y282500D02*X34000Y284000D01*
X32000Y286500D02*X38000D01*
G54D34*X23500Y295000D02*X25000Y296500D01*
X8000Y295000D02*X23500D01*
X26500Y300000D02*X28500Y298000D01*
X8000Y300000D02*X26500D01*
X29500Y301500D02*X27500Y299500D01*
G54D33*X37500Y284000D02*X38000Y283500D01*
X38500Y289000D02*Y293500D01*
G54D34*X28500Y290500D02*X25000Y287000D01*
X28500Y298000D02*Y290500D01*
G54D33*X30500Y285000D02*X32000Y286500D01*
X8000Y291000D02*X15000Y284000D01*
X38000Y283500D02*X62500D01*
X39500Y285000D02*X61000D01*
X38000Y286500D02*X39500Y285000D01*
G54D34*X62500Y301500D02*X29500D01*
G54D33*X40000Y287500D02*X38500Y289000D01*
G54D32*X54500Y259500D02*X75500D01*
G54D33*X63000Y252000D02*X74500D01*
X62000Y255000D02*X75500D01*
X61000Y254000D02*X62000Y255000D01*
X54000Y254000D02*X61000D01*
X77500Y256500D02*X43500D01*
X38000Y248500D02*X62500D01*
X39500Y250000D02*X61000D01*
X37500Y249000D02*X38000Y248500D01*
X63162Y249162D02*X62500Y248500D01*
X61000Y250000D02*X63000Y252000D01*
X65500Y249162D02*X63162D01*
X34000Y249000D02*X37500D01*
X38000Y251500D02*X39500Y250000D01*
X32000Y251500D02*X38000D01*
G54D34*X62500Y266500D02*X29500D01*
G54D33*X42000Y262000D02*X68000D01*
X38500Y258500D02*X42000Y262000D01*
X38500Y254000D02*Y258500D01*
X40000Y252500D02*X38500Y254000D01*
X43500Y252500D02*X40000D01*
G54D32*X77000Y229000D02*X79000Y231000D01*
X86000Y225500D02*Y232500D01*
X77000Y226000D02*Y229000D01*
X75500Y224500D02*X77000Y226000D01*
G54D33*X79500Y216000D02*X87000D01*
X77000Y214500D02*X89500D01*
X86000Y220500D02*X84500Y222000D01*
X74500Y217000D02*X77000Y214500D01*
X75500Y220000D02*X79500Y216000D01*
X78000Y222000D02*X77500Y221500D01*
X84500Y222000D02*X78000D01*
G54D32*X54500Y224500D02*X75500D01*
G54D33*X63000Y217000D02*X74500D01*
X62000Y220000D02*X75500D01*
X61000Y219000D02*X62000Y220000D01*
X68000Y227000D02*X71000Y230000D01*
X54000Y219000D02*X61000D01*
X63162Y214162D02*X62500Y213500D01*
X61000Y215000D02*X63000Y217000D01*
X65500Y214162D02*X63162D01*
X77500Y221500D02*X43500D01*
G54D34*X62500Y231500D02*X29500D01*
G54D33*X42000Y227000D02*X68000D01*
X38500Y223500D02*X42000Y227000D01*
X38000Y216500D02*X39500Y215000D01*
X38500Y219000D02*Y223500D01*
X38000Y213500D02*X62500D01*
X39500Y215000D02*X61000D01*
X40000Y217500D02*X38500Y219000D01*
X43500Y217500D02*X40000D01*
G54D34*X23500Y260000D02*X25000Y261500D01*
X28500Y263000D02*Y255500D01*
X26500Y265000D02*X28500Y263000D01*
X29500Y266500D02*X27500Y264500D01*
X8000Y260000D02*X23500D01*
X8000Y265000D02*X26500D01*
G54D33*X32500Y247500D02*X10000D01*
X15000Y249000D02*X27500D01*
G54D34*X28500Y255500D02*X25000Y252000D01*
G54D33*X32500Y247500D02*X34000Y249000D01*
X30500Y250000D02*X32000Y251500D01*
X28500Y250000D02*X30500D01*
X27500Y249000D02*X28500Y250000D01*
X8000Y256000D02*X15000Y249000D01*
X32500Y212500D02*X10000D01*
X28500Y215000D02*X30500D01*
X27500Y214000D02*X28500Y215000D01*
X15000Y214000D02*X27500D01*
X34000D02*X37500D01*
X32500Y212500D02*X34000Y214000D01*
X37500D02*X38000Y213500D01*
X32000Y216500D02*X38000D01*
G54D34*X23500Y225000D02*X25000Y226500D01*
X8000Y225000D02*X23500D01*
X26500Y230000D02*X28500Y228000D01*
X8000Y230000D02*X26500D01*
X29500Y231500D02*X27500Y229500D01*
X28500Y220500D02*X25000Y217000D01*
X28500Y228000D02*Y220500D01*
G54D33*X30500Y215000D02*X32000Y216500D01*
X8000Y221000D02*X15000Y214000D01*
G54D32*X54500Y189500D02*X75500D01*
G54D34*X62500Y196500D02*X29500D01*
G54D33*X68000Y192000D02*X71000Y195000D01*
X42000Y192000D02*X68000D01*
X38500Y188500D02*X42000Y192000D01*
X63000Y182000D02*X74500D01*
X62000Y185000D02*X75500D01*
X61000Y184000D02*X62000Y185000D01*
X63162Y179162D02*X62500Y178500D01*
X65500Y179162D02*X63162D01*
X61000Y180000D02*X63000Y182000D01*
X54000Y184000D02*X61000D01*
X38000Y178500D02*X62500D01*
X39500Y180000D02*X61000D01*
X38000Y181500D02*X39500Y180000D01*
X40000Y182500D02*X38500Y184000D01*
X43500Y182500D02*X40000D01*
X77500Y186500D02*X43500D01*
X34000Y179000D02*X37500D01*
X32000Y181500D02*X38000D01*
X30500Y180000D02*X32000Y181500D01*
X37500Y179000D02*X38000Y178500D01*
X38500Y184000D02*Y188500D01*
G54D32*X77000Y194000D02*X79000Y196000D01*
X86000Y190500D02*Y197500D01*
X77000Y191000D02*Y194000D01*
X75500Y189500D02*X77000Y191000D01*
G54D33*X79500Y181000D02*X87000D01*
X77000Y179500D02*X89500D01*
X86000Y185500D02*X84500Y187000D01*
X74500Y182000D02*X77000Y179500D01*
X75500Y185000D02*X79500Y181000D01*
X78000Y187000D02*X77500Y186500D01*
X84500Y187000D02*X78000D01*
G54D34*X62500Y161000D02*X29500D01*
G54D33*X38500Y148500D02*Y153000D01*
G54D32*X77000Y158500D02*X79000Y160500D01*
X86000Y155000D02*Y162000D01*
X77000Y155500D02*Y158500D01*
X75500Y154000D02*X77000Y155500D01*
G54D33*X79500Y145500D02*X87000D01*
X77000Y144000D02*X89500D01*
X86000Y150000D02*X84500Y151500D01*
X74500Y146500D02*X77000Y144000D01*
X75500Y149500D02*X79500Y145500D01*
X78000Y151500D02*X77500Y151000D01*
X84500Y151500D02*X78000D01*
X38000Y143000D02*X62500D01*
X39500Y144500D02*X61000D01*
X38000Y146000D02*X39500Y144500D01*
G54D32*X54500Y154000D02*X75500D01*
G54D33*X63000Y146500D02*X74500D01*
X62000Y149500D02*X75500D01*
X61000Y148500D02*X62000Y149500D01*
X54000Y148500D02*X61000D01*
X77500Y151000D02*X43500D01*
X63162Y143662D02*X62500Y143000D01*
X61000Y144500D02*X63000Y146500D01*
X65500Y143662D02*X63162D01*
X68000Y156500D02*X71000Y159500D01*
X42000Y156500D02*X68000D01*
X38500Y153000D02*X42000Y156500D01*
X40000Y147000D02*X38500Y148500D01*
X43500Y147000D02*X40000D01*
G54D34*X23500Y190000D02*X25000Y191500D01*
X28500Y193000D02*Y185500D01*
X26500Y195000D02*X28500Y193000D01*
X29500Y196500D02*X27500Y194500D01*
X8000Y190000D02*X23500D01*
X8000Y195000D02*X26500D01*
G54D33*X32500Y177500D02*X10000D01*
X32500D02*X34000Y179000D01*
X15000D02*X27500D01*
G54D34*X28500Y185500D02*X25000Y182000D01*
G54D33*X28500Y180000D02*X30500D01*
X27500Y179000D02*X28500Y180000D01*
X8000Y186000D02*X15000Y179000D01*
X32500Y142000D02*X10000D01*
X28500Y144500D02*X30500D01*
X27500Y143500D02*X28500Y144500D01*
X15000Y143500D02*X27500D01*
X34000D02*X37500D01*
X32500Y142000D02*X34000Y143500D01*
X37500D02*X38000Y143000D01*
X32000Y146000D02*X38000D01*
G54D34*X23500Y154500D02*X25000Y156000D01*
X8000Y154500D02*X23500D01*
X26500Y159500D02*X28500Y157500D01*
X8000Y159500D02*X26500D01*
X29500Y161000D02*X27500Y159000D01*
X28500Y150000D02*X25000Y146500D01*
X28500Y157500D02*Y150000D01*
G54D33*X30500Y144500D02*X32000Y146000D01*
X8000Y150500D02*X15000Y143500D01*
G54D34*X23500Y120000D02*X25000Y121500D01*
X28500Y115500D02*X25000Y112000D01*
X28500Y123000D02*Y115500D01*
X26500Y125000D02*X28500Y123000D01*
X29500Y126500D02*X27500Y124500D01*
X8000Y120000D02*X23500D01*
X8000Y125000D02*X26500D01*
G54D33*X32500Y107500D02*X10000D01*
X34000Y109000D02*X37500D01*
X32500Y107500D02*X34000Y109000D01*
X37500D02*X38000Y108500D01*
X32000Y111500D02*X38000D01*
X30500Y110000D02*X32000Y111500D01*
X28500Y110000D02*X30500D01*
X27500Y109000D02*X28500Y110000D01*
X15000Y109000D02*X27500D01*
X8000Y116000D02*X15000Y109000D01*
G54D32*X77000Y124000D02*X79000Y126000D01*
X86000Y120500D02*Y127500D01*
X77000Y121000D02*Y124000D01*
X75500Y119500D02*X77000Y121000D01*
G54D33*X79500Y111000D02*X87000D01*
X77000Y109500D02*X89500D01*
X86000Y115500D02*X84500Y117000D01*
X74500Y112000D02*X77000Y109500D01*
X75500Y115000D02*X79500Y111000D01*
X78000Y117000D02*X77500Y116500D01*
X84500Y117000D02*X78000D01*
G54D32*X54500Y119500D02*X75500D01*
G54D33*X63000Y112000D02*X74500D01*
X62000Y115000D02*X75500D01*
X61000Y114000D02*X62000Y115000D01*
X54000Y114000D02*X61000D01*
X77500Y116500D02*X43500D01*
X63162Y109162D02*X62500Y108500D01*
X61000Y110000D02*X63000Y112000D01*
X65500Y109162D02*X63162D01*
X68000Y122000D02*X71000Y125000D01*
X42000Y122000D02*X68000D01*
X38500Y118500D02*X42000Y122000D01*
X40000Y112500D02*X38500Y114000D01*
X43500Y112500D02*X40000D01*
G54D32*X77000Y89000D02*X79000Y91000D01*
X86000Y85500D02*Y92500D01*
X77000Y86000D02*Y89000D01*
X75500Y84500D02*X77000Y86000D01*
G54D33*X79500Y76000D02*X87000D01*
X77000Y74500D02*X89500D01*
X86000Y80500D02*X84500Y82000D01*
X74500Y77000D02*X77000Y74500D01*
X75500Y80000D02*X79500Y76000D01*
X78000Y82000D02*X77500Y81500D01*
X84500Y82000D02*X78000D01*
X68000Y87000D02*X71000Y90000D01*
X38000Y108500D02*X62500D01*
X39500Y110000D02*X61000D01*
X38000Y111500D02*X39500Y110000D01*
G54D34*X62500Y126500D02*X29500D01*
G54D33*X38500Y114000D02*Y118500D01*
G54D32*X54500Y84500D02*X75500D01*
G54D33*X63000Y77000D02*X74500D01*
X62000Y80000D02*X75500D01*
X61000Y79000D02*X62000Y80000D01*
X54000Y79000D02*X61000D01*
X77500Y81500D02*X43500D01*
X38000Y73500D02*X62500D01*
X39500Y75000D02*X61000D01*
X37500Y74000D02*X38000Y73500D01*
X63162Y74162D02*X62500Y73500D01*
X61000Y75000D02*X63000Y77000D01*
X65500Y74162D02*X63162D01*
X34000Y74000D02*X37500D01*
X38000Y76500D02*X39500Y75000D01*
X32000Y76500D02*X38000D01*
G54D34*X62500Y91500D02*X29500D01*
G54D33*X42000Y87000D02*X68000D01*
X38500Y83500D02*X42000Y87000D01*
X38500Y79000D02*Y83500D01*
X40000Y77500D02*X38500Y79000D01*
X43500Y77500D02*X40000D01*
G54D32*X77000Y54000D02*X79000Y56000D01*
X86000Y50500D02*Y57500D01*
X77000Y51000D02*Y54000D01*
X75500Y49500D02*X77000Y51000D01*
G54D33*X79500Y41000D02*X87000D01*
X77000Y39500D02*X89500D01*
X86000Y45500D02*X84500Y47000D01*
X74500Y42000D02*X77000Y39500D01*
X75500Y45000D02*X79500Y41000D01*
X78000Y47000D02*X77500Y46500D01*
X84500Y47000D02*X78000D01*
G54D32*X54500Y49500D02*X75500D01*
G54D33*X63000Y42000D02*X74500D01*
X62000Y45000D02*X75500D01*
X61000Y44000D02*X62000Y45000D01*
X68000Y52000D02*X71000Y55000D01*
X54000Y44000D02*X61000D01*
X63162Y39162D02*X62500Y38500D01*
X61000Y40000D02*X63000Y42000D01*
X65500Y39162D02*X63162D01*
X77500Y46500D02*X43500D01*
G54D34*X62500Y56500D02*X29500D01*
G54D33*X42000Y52000D02*X68000D01*
X38500Y48500D02*X42000Y52000D01*
X38000Y41500D02*X39500Y40000D01*
X38500Y44000D02*Y48500D01*
X38000Y38500D02*X62500D01*
X39500Y40000D02*X61000D01*
X40000Y42500D02*X38500Y44000D01*
X43500Y42500D02*X40000D01*
G54D32*X54500Y14500D02*X75500D01*
G54D34*X62500Y21500D02*X29500D01*
G54D33*X68000Y17000D02*X71000Y20000D01*
X42000Y17000D02*X68000D01*
X38500Y13500D02*X42000Y17000D01*
X63000Y7000D02*X74500D01*
X62000Y10000D02*X75500D01*
X61000Y9000D02*X62000Y10000D01*
X63162Y4162D02*X62500Y3500D01*
X65500Y4162D02*X63162D01*
X61000Y5000D02*X63000Y7000D01*
X54000Y9000D02*X61000D01*
X38000Y3500D02*X62500D01*
X39500Y5000D02*X61000D01*
X38000Y6500D02*X39500Y5000D01*
X40000Y7500D02*X38500Y9000D01*
X43500Y7500D02*X40000D01*
X77500Y11500D02*X43500D01*
X34000Y4000D02*X37500D01*
X32000Y6500D02*X38000D01*
X30500Y5000D02*X32000Y6500D01*
X37500Y4000D02*X38000Y3500D01*
X38500Y9000D02*Y13500D01*
G54D32*X77000Y19000D02*X79000Y21000D01*
X86000Y15500D02*Y22500D01*
X77000Y16000D02*Y19000D01*
X75500Y14500D02*X77000Y16000D01*
G54D33*X79500Y6000D02*X87000D01*
X77000Y4500D02*X89500D01*
X86000Y10500D02*X84500Y12000D01*
X74500Y7000D02*X77000Y4500D01*
X75500Y10000D02*X79500Y6000D01*
X78000Y12000D02*X77500Y11500D01*
X84500Y12000D02*X78000D01*
X32500Y72500D02*X10000D01*
X28500Y75000D02*X30500D01*
X27500Y74000D02*X28500Y75000D01*
X15000Y74000D02*X27500D01*
G54D34*X23500Y85000D02*X25000Y86500D01*
X8000Y85000D02*X23500D01*
X26500Y90000D02*X28500Y88000D01*
X8000Y90000D02*X26500D01*
G54D33*X32500Y72500D02*X34000Y74000D01*
G54D34*X29500Y91500D02*X27500Y89500D01*
X28500Y80500D02*X25000Y77000D01*
X28500Y88000D02*Y80500D01*
G54D33*X30500Y75000D02*X32000Y76500D01*
G54D34*X23500Y50000D02*X25000Y51500D01*
X26500Y55000D02*X28500Y53000D01*
X29500Y56500D02*X27500Y54500D01*
G54D33*X8000Y81000D02*X15000Y74000D01*
G54D34*X8000Y55000D02*X26500D01*
X8000Y50000D02*X23500D01*
G54D33*X37500Y39000D02*X38000Y38500D01*
X32000Y41500D02*X38000D01*
X32500Y37500D02*X10000D01*
X15000Y39000D02*X27500D01*
X8000Y46000D02*X15000Y39000D01*
G54D34*X28500Y45500D02*X25000Y42000D01*
X28500Y53000D02*Y45500D01*
G54D33*X34000Y39000D02*X37500D01*
X32500Y37500D02*X34000Y39000D01*
X30500Y40000D02*X32000Y41500D01*
X28500Y40000D02*X30500D01*
X27500Y39000D02*X28500Y40000D01*
G54D34*X23500Y15000D02*X25000Y16500D01*
X8000Y15000D02*X23500D01*
X28500Y18000D02*Y10500D01*
X26500Y20000D02*X28500Y18000D01*
X8000Y20000D02*X26500D01*
G54D33*X32500Y2500D02*X34000Y4000D01*
G54D34*X29500Y21500D02*X27500Y19500D01*
G54D33*X32500Y2500D02*X10000D01*
G54D34*X28500Y10500D02*X25000Y7000D01*
G54D33*X28500Y5000D02*X30500D01*
X27500Y4000D02*X28500Y5000D01*
X15000Y4000D02*X27500D01*
X8000Y11000D02*X15000Y4000D01*
G54D30*G36*
X118500Y256000D02*Y250000D01*
X124500D01*
Y256000D01*
X118500D01*
G37*
G36*
Y266000D02*Y260000D01*
X124500D01*
Y266000D01*
X118500D01*
G37*
G36*
X68000Y268000D02*Y262000D01*
X74000D01*
Y268000D01*
X68000D01*
G37*
G36*
X118500Y221000D02*Y215000D01*
X124500D01*
Y221000D01*
X118500D01*
G37*
G36*
Y231000D02*Y225000D01*
X124500D01*
Y231000D01*
X118500D01*
G37*
G36*
X68000Y233000D02*Y227000D01*
X74000D01*
Y233000D01*
X68000D01*
G37*
G36*
Y198000D02*Y192000D01*
X74000D01*
Y198000D01*
X68000D01*
G37*
G36*
Y162500D02*Y156500D01*
X74000D01*
Y162500D01*
X68000D01*
G37*
G36*
X118500Y186000D02*Y180000D01*
X124500D01*
Y186000D01*
X118500D01*
G37*
G36*
Y196000D02*Y190000D01*
X124500D01*
Y196000D01*
X118500D01*
G37*
G36*
X167500Y338000D02*Y332000D01*
X173500D01*
Y338000D01*
X167500D01*
G37*
G36*
Y303000D02*Y297000D01*
X173500D01*
Y303000D01*
X167500D01*
G37*
G36*
Y268000D02*Y262000D01*
X173500D01*
Y268000D01*
X167500D01*
G37*
G36*
X188500Y291000D02*Y285000D01*
X194500D01*
Y291000D01*
X188500D01*
G37*
G36*
Y256000D02*Y250000D01*
X194500D01*
Y256000D01*
X188500D01*
G37*
G36*
Y221000D02*Y215000D01*
X194500D01*
Y221000D01*
X188500D01*
G37*
G36*
Y186000D02*Y180000D01*
X194500D01*
Y186000D01*
X188500D01*
G37*
G36*
Y150500D02*Y144500D01*
X194500D01*
Y150500D01*
X188500D01*
G37*
G36*
Y116000D02*Y110000D01*
X194500D01*
Y116000D01*
X188500D01*
G37*
G36*
X167500Y233000D02*Y227000D01*
X173500D01*
Y233000D01*
X167500D01*
G37*
G36*
Y198000D02*Y192000D01*
X173500D01*
Y198000D01*
X167500D01*
G37*
G36*
Y162500D02*Y156500D01*
X173500D01*
Y162500D01*
X167500D01*
G37*
G36*
Y128000D02*Y122000D01*
X173500D01*
Y128000D01*
X167500D01*
G37*
G36*
X188500Y81000D02*Y75000D01*
X194500D01*
Y81000D01*
X188500D01*
G37*
G36*
X167500Y93000D02*Y87000D01*
X173500D01*
Y93000D01*
X167500D01*
G37*
G36*
Y58000D02*Y52000D01*
X173500D01*
Y58000D01*
X167500D01*
G37*
G36*
Y23000D02*Y17000D01*
X173500D01*
Y23000D01*
X167500D01*
G37*
G36*
X188500Y46000D02*Y40000D01*
X194500D01*
Y46000D01*
X188500D01*
G37*
G36*
Y11000D02*Y5000D01*
X194500D01*
Y11000D01*
X188500D01*
G37*
G36*
X118500Y150500D02*Y144500D01*
X124500D01*
Y150500D01*
X118500D01*
G37*
G36*
Y160500D02*Y154500D01*
X124500D01*
Y160500D01*
X118500D01*
G37*
G36*
X68000Y128000D02*Y122000D01*
X74000D01*
Y128000D01*
X68000D01*
G37*
G36*
X118500Y116000D02*Y110000D01*
X124500D01*
Y116000D01*
X118500D01*
G37*
G36*
Y126000D02*Y120000D01*
X124500D01*
Y126000D01*
X118500D01*
G37*
G36*
X68000Y93000D02*Y87000D01*
X74000D01*
Y93000D01*
X68000D01*
G37*
G36*
X118500Y81000D02*Y75000D01*
X124500D01*
Y81000D01*
X118500D01*
G37*
G36*
Y91000D02*Y85000D01*
X124500D01*
Y91000D01*
X118500D01*
G37*
G36*
X68000Y58000D02*Y52000D01*
X74000D01*
Y58000D01*
X68000D01*
G37*
G36*
X118500Y46000D02*Y40000D01*
X124500D01*
Y46000D01*
X118500D01*
G37*
G36*
Y56000D02*Y50000D01*
X124500D01*
Y56000D01*
X118500D01*
G37*
G36*
Y11000D02*Y5000D01*
X124500D01*
Y11000D01*
X118500D01*
G37*
G36*
Y21000D02*Y15000D01*
X124500D01*
Y21000D01*
X118500D01*
G37*
G36*
X68000Y23000D02*Y17000D01*
X74000D01*
Y23000D01*
X68000D01*
G37*
G36*
X118500Y396000D02*Y390000D01*
X124500D01*
Y396000D01*
X118500D01*
G37*
G36*
Y406000D02*Y400000D01*
X124500D01*
Y406000D01*
X118500D01*
G37*
G36*
X68000Y408000D02*Y402000D01*
X74000D01*
Y408000D01*
X68000D01*
G37*
G36*
Y373000D02*Y367000D01*
X74000D01*
Y373000D01*
X68000D01*
G37*
G36*
X188500Y396000D02*Y390000D01*
X194500D01*
Y396000D01*
X188500D01*
G37*
G36*
X167500Y408000D02*Y402000D01*
X173500D01*
Y408000D01*
X167500D01*
G37*
G36*
X118500Y361000D02*Y355000D01*
X124500D01*
Y361000D01*
X118500D01*
G37*
G36*
X188500D02*Y355000D01*
X194500D01*
Y361000D01*
X188500D01*
G37*
G36*
X118500Y371000D02*Y365000D01*
X124500D01*
Y371000D01*
X118500D01*
G37*
G36*
X167500Y373000D02*Y367000D01*
X173500D01*
Y373000D01*
X167500D01*
G37*
G36*
X188500Y326000D02*Y320000D01*
X194500D01*
Y326000D01*
X188500D01*
G37*
G36*
X118500D02*Y320000D01*
X124500D01*
Y326000D01*
X118500D01*
G37*
G36*
Y336000D02*Y330000D01*
X124500D01*
Y336000D01*
X118500D01*
G37*
G36*
X68000Y338000D02*Y332000D01*
X74000D01*
Y338000D01*
X68000D01*
G37*
G36*
Y303000D02*Y297000D01*
X74000D01*
Y303000D01*
X68000D01*
G37*
G36*
X118500Y291000D02*Y285000D01*
X124500D01*
Y291000D01*
X118500D01*
G37*
G36*
Y301000D02*Y295000D01*
X124500D01*
Y301000D01*
X118500D01*
G37*
G54D35*X1919Y320500D02*X3837D01*
X1919Y325500D02*X3837D01*
X1919Y330500D02*X3837D01*
X1919Y335500D02*X3837D01*
X1919Y290500D02*X3837D01*
X1919Y285500D02*X3837D01*
X1919Y300500D02*X3837D01*
X1919Y295500D02*X3837D01*
X1919Y260500D02*X3837D01*
X1919Y255500D02*X3837D01*
X1919Y250500D02*X3837D01*
X1919Y265500D02*X3837D01*
X1919Y215500D02*X3837D01*
X1919Y220500D02*X3837D01*
X1919Y225500D02*X3837D01*
X1919Y230500D02*X3837D01*
G54D36*X96000Y290500D03*
Y295500D03*
X91000Y290500D03*
Y295500D03*
X86000Y290500D03*
Y295500D03*
X96000Y400500D03*
X91000D03*
X96000Y360500D03*
Y365500D03*
X91000Y360500D03*
Y365500D03*
G54D35*X1919Y405500D02*X3837D01*
X1919Y400500D02*X3837D01*
X1919Y395500D02*X3837D01*
X1919Y390500D02*X3837D01*
X1919Y365500D02*X3837D01*
X1919Y360500D02*X3837D01*
X1919Y355500D02*X3837D01*
X1919Y370500D02*X3837D01*
G54D36*X96000Y395500D03*
X91000D03*
X86000D03*
Y400500D03*
Y360500D03*
Y365500D03*
X96000Y325500D03*
Y330500D03*
X91000Y325500D03*
Y330500D03*
X86000Y325500D03*
Y330500D03*
X96000Y255500D03*
Y260500D03*
X91000Y255500D03*
Y260500D03*
X86000Y255500D03*
Y260500D03*
X96000Y220500D03*
Y225500D03*
X91000Y220500D03*
X86000D03*
X91000Y225500D03*
X86000D03*
X96000Y185500D03*
Y190500D03*
X91000Y185500D03*
Y190500D03*
X86000Y185500D03*
Y190500D03*
X96000Y150000D03*
Y155000D03*
X91000D03*
X86000D03*
X91000Y150000D03*
X86000D03*
G54D35*X1919Y185500D02*X3837D01*
X1919Y180500D02*X3837D01*
X1919Y195500D02*X3837D01*
X1919Y190500D02*X3837D01*
X1919Y155000D02*X3837D01*
X1919Y150000D02*X3837D01*
X1919Y145000D02*X3837D01*
X1919Y160000D02*X3837D01*
X1919Y110500D02*X3837D01*
X1919Y115500D02*X3837D01*
X1919Y120500D02*X3837D01*
X1919Y125500D02*X3837D01*
X1919Y80500D02*X3837D01*
X1919Y75500D02*X3837D01*
X1919Y90500D02*X3837D01*
X1919Y85500D02*X3837D01*
G54D36*X96000Y115500D03*
Y120500D03*
X91000Y115500D03*
Y120500D03*
X86000Y115500D03*
Y120500D03*
X96000Y80500D03*
Y85500D03*
X91000Y80500D03*
X86000D03*
X91000Y85500D03*
X86000D03*
X96000Y45500D03*
Y50500D03*
X91000Y45500D03*
Y50500D03*
X86000Y45500D03*
Y50500D03*
X96000Y10500D03*
Y15500D03*
X91000D03*
X86000D03*
X91000Y10500D03*
X86000D03*
G54D35*X1919Y50500D02*X3837D01*
X1919Y45500D02*X3837D01*
X1919Y40500D02*X3837D01*
X1919Y55500D02*X3837D01*
X1919Y5500D02*X3837D01*
X1919Y15500D02*X3837D01*
X1919Y20500D02*X3837D01*
X1919Y10500D02*X3837D01*
G54D37*X136000Y328000D03*
Y293000D03*
X132000D03*
X198000Y285000D03*
Y250000D03*
Y215000D03*
X136000Y258000D03*
X132000D03*
X136000Y223000D03*
X132000D03*
X102500Y229500D03*
X114500Y222500D03*
X106500Y222000D03*
X110500Y222500D03*
X93500Y217500D03*
X91000Y229500D03*
X88500Y217500D03*
X110500Y214000D03*
X97000Y216500D03*
X96000Y229500D03*
X25000Y252000D03*
X28500Y222500D03*
X25000Y226500D03*
X8000Y265000D03*
Y256000D03*
Y260000D03*
X34000Y214000D03*
X30500Y215000D03*
X25000Y217000D03*
X28500Y187500D03*
X25000Y191500D03*
X34000Y179000D03*
X30500Y180000D03*
X25000Y182000D03*
X8000Y230000D03*
Y221000D03*
Y225000D03*
Y195000D03*
Y186000D03*
Y190000D03*
X63000Y217000D03*
X43500Y217500D03*
Y221500D03*
X54000Y219000D03*
X54500Y224500D03*
X54000Y184000D03*
X54500Y189500D03*
X43500Y182500D03*
Y186500D03*
X65500Y214162D03*
X62500Y196500D03*
X59000D03*
X62500Y231500D03*
X59000D03*
X102500Y194500D03*
X114500Y187500D03*
X106500Y187000D03*
X110500Y187500D03*
Y179000D03*
X97000Y181500D03*
X93500Y182500D03*
X88500D03*
X91000Y194500D03*
X96000D03*
X102500Y159000D03*
X114500Y152000D03*
X106500Y151500D03*
X110500Y152000D03*
Y143500D03*
X97000Y146000D03*
X93500Y147000D03*
X88500D03*
X91000Y159000D03*
X96000D03*
X102500Y124500D03*
X114500Y117500D03*
X106500Y117000D03*
X110500Y117500D03*
Y109000D03*
X97000Y111500D03*
X93500Y112500D03*
X88500D03*
X91000Y124500D03*
X96000D03*
X63000Y182000D03*
X65500Y179162D03*
Y143662D03*
X63000Y146500D03*
X54000Y148500D03*
X62500Y161000D03*
X59000D03*
X54500Y154000D03*
X43500Y151000D03*
Y147000D03*
X34000Y143500D03*
X30500Y144500D03*
X25000Y146500D03*
X28500Y152000D03*
X25000Y156000D03*
X43500Y112500D03*
X34000Y109000D03*
X30500Y110000D03*
X25000Y112000D03*
X28500Y117500D03*
X25000Y121500D03*
X8000Y159500D03*
Y150500D03*
Y154500D03*
Y125000D03*
Y116000D03*
Y120000D03*
Y90000D03*
Y81000D03*
Y85000D03*
Y55000D03*
Y46000D03*
Y50000D03*
Y20000D03*
Y11000D03*
Y15000D03*
X63000Y112000D03*
X54000Y114000D03*
X65500Y109162D03*
X62500Y126500D03*
X59000D03*
X54500Y119500D03*
X43500Y116500D03*
Y42500D03*
Y46500D03*
X63000Y77000D03*
X43500Y77500D03*
Y81500D03*
X62500Y91500D03*
X59000D03*
X28500Y82500D03*
X25000Y86500D03*
X34000Y74000D03*
X30500Y75000D03*
X25000Y77000D03*
X28500Y47500D03*
X34000Y39000D03*
X30500Y40000D03*
X25000Y42000D03*
Y51500D03*
X28500Y12500D03*
X25000Y16500D03*
X34000Y4000D03*
X30500Y5000D03*
X25000Y7000D03*
X54000Y79000D03*
X54500Y84500D03*
X54000Y44000D03*
X54500Y49500D03*
X54000Y9000D03*
X54500Y14500D03*
X65500Y74162D03*
X63000Y42000D03*
X62500Y56500D03*
X59000D03*
X65500Y39162D03*
X63000Y7000D03*
X65500Y4162D03*
X62500Y21500D03*
X59000D03*
X43500Y7500D03*
Y11500D03*
X198000Y180000D03*
Y144500D03*
Y110000D03*
Y75000D03*
X136000Y188000D03*
Y152500D03*
X132000D03*
Y188000D03*
X136000Y118000D03*
X132000D03*
X136000Y83000D03*
X132000D03*
X198000Y40000D03*
Y5000D03*
X136000Y48000D03*
X132000D03*
X136000Y13000D03*
X132000D03*
X102500Y89500D03*
X114500Y82500D03*
X106500Y82000D03*
X110500Y82500D03*
Y74000D03*
X97000Y76500D03*
X93500Y77500D03*
X88500D03*
X91000Y89500D03*
X96000D03*
X102500Y54500D03*
X114500Y47500D03*
X106500Y47000D03*
X110500Y47500D03*
Y39000D03*
X97000Y41500D03*
X93500Y42500D03*
X88500D03*
X91000Y54500D03*
X96000D03*
X102500Y19500D03*
X114500Y12500D03*
X106500Y12000D03*
X110500Y12500D03*
Y4000D03*
X97000Y6500D03*
X93500Y7500D03*
X88500D03*
X91000Y19500D03*
X96000D03*
X136000Y398000D03*
X132000D03*
X102500Y404500D03*
X114500Y397500D03*
X106500Y397000D03*
X110500Y397500D03*
X198000Y390000D03*
X110500Y389000D03*
X198000Y355000D03*
X136000Y363000D03*
X198000Y320000D03*
X132000Y328000D03*
Y363000D03*
X114500Y362500D03*
X106500Y362000D03*
X110500Y362500D03*
X102500Y369500D03*
X110500Y354000D03*
X97000Y356500D03*
X93500Y357500D03*
X88500D03*
X91000Y369500D03*
X96000D03*
X97000Y391500D03*
X93500Y392500D03*
X91000Y404500D03*
X96000D03*
X88500Y392500D03*
X63000Y392000D03*
X54000Y394000D03*
X65500Y389162D03*
X62500Y406500D03*
X59000D03*
X54500Y399500D03*
X43500Y392500D03*
X34000Y389000D03*
X30500Y390000D03*
X25000Y392000D03*
X43500Y396500D03*
X28500Y397500D03*
X25000Y401500D03*
X8000Y405000D03*
Y396000D03*
Y400000D03*
X63000Y357000D03*
X65500Y354162D03*
X62500Y371500D03*
X59000D03*
X54000Y359000D03*
X54500Y364500D03*
X43500Y357500D03*
Y361500D03*
X28500Y362500D03*
X34000Y354000D03*
X30500Y355000D03*
X25000Y357000D03*
Y366500D03*
X8000Y370000D03*
Y361000D03*
Y365000D03*
X59000Y336500D03*
X54500Y329500D03*
X43500Y322500D03*
Y326500D03*
X28500Y327500D03*
X34000Y319000D03*
X30500Y320000D03*
X25000Y322000D03*
Y331500D03*
X8000Y335000D03*
Y326000D03*
Y330000D03*
X102500Y334500D03*
X91000D03*
X96000D03*
X114500Y327500D03*
X110500D03*
Y319000D03*
X106500Y327000D03*
X97000Y321500D03*
X93500Y322500D03*
X88500D03*
X102500Y299500D03*
X91000D03*
X96000D03*
X114500Y292500D03*
X110500D03*
Y284000D03*
X106500Y292000D03*
X97000Y286500D03*
X93500Y287500D03*
X88500D03*
X102500Y264500D03*
X114500Y257500D03*
X106500Y257000D03*
X110500Y257500D03*
X91000Y264500D03*
X96000D03*
X110500Y249000D03*
X97000Y251500D03*
X93500Y252500D03*
X88500D03*
X63000Y322000D03*
X54000Y324000D03*
X65500Y319162D03*
X62500Y336500D03*
Y301500D03*
X54000Y289000D03*
X59000Y301500D03*
X54500Y294500D03*
X43500Y287500D03*
Y291500D03*
X28500Y292500D03*
X25000Y296500D03*
X8000Y300000D03*
Y291000D03*
Y295000D03*
X34000Y284000D03*
X30500Y285000D03*
X25000Y287000D03*
X63000D03*
X65500Y284162D03*
X63000Y252000D03*
X65500Y249162D03*
X62500Y266500D03*
X54000Y254000D03*
X59000Y266500D03*
X54500Y259500D03*
X43500Y252500D03*
Y256500D03*
X28500Y257500D03*
X34000Y249000D03*
X30500Y250000D03*
X25000Y261500D03*
G54D38*G54D39*G54D40*G54D39*G54D40*G54D39*G54D40*G54D39*G54D40*G54D39*G54D40*G54D39*G54D40*G54D39*G54D40*G54D39*G54D40*G54D39*G54D40*G54D39*G54D40*G54D39*G54D40*G54D39*G54D40*G54D39*G54D40*G54D39*G54D40*G54D39*G54D40*M02*
