G04 start of page 4 for group 2 idx 2 *
G04 Title: (unknown), outline *
G04 Creator: pcb 4.2.2 *
G04 CreationDate: Mon Feb 10 04:01:32 2025 UTC *
G04 For: petersen *
G04 Format: Gerber/RS-274X *
G04 PCB-Dimensions (mil): 3000.00 5500.00 *
G04 PCB-Coordinate-Origin: lower left *
%MOIN*%
%FSLAX25Y25*%
%LNOUTLINE*%
%ADD38C,0.0093*%
%ADD37C,0.0074*%
%ADD36C,0.0100*%
G54D36*X120000Y490000D02*X261500D01*
X100000D02*X52500D01*
Y520000D02*X270000D01*
X52500Y490000D02*Y520000D01*
X120000Y480000D02*X261500D01*
Y490000D02*Y480000D01*
X270000D02*Y455000D01*
X261500D02*Y445000D01*
X120000Y455000D02*X261500D01*
X120000Y445000D02*X261500D01*
X120000Y420000D02*X261500D01*
Y410000D01*
X270000Y445000D02*Y420000D01*
X52500Y410000D02*X100000D01*
X120000D02*X261500D01*
X100000Y60000D02*X52500D01*
Y30000D02*X270000D01*
X52500Y60000D02*Y30000D01*
X261500Y60000D02*X120000D01*
X261500Y105000D02*Y95000D01*
X120000Y105000D02*X261500D01*
X120000Y95000D02*X261500D01*
Y70000D02*Y60000D01*
X270000Y95000D02*Y70000D01*
X52500Y95000D02*X100000D01*
X52500Y70000D02*X100000D01*
X120000D02*X261500D01*
Y385000D02*Y375000D01*
Y350000D02*Y340000D01*
Y315000D02*Y305000D01*
X270000Y410000D02*Y385000D01*
Y375000D02*Y350000D01*
Y340000D02*Y315000D01*
Y520000D02*Y30000D01*
X120000Y385000D02*X261500D01*
X120000Y375000D02*X261500D01*
X120000Y350000D02*X261500D01*
X120000Y340000D02*X261500D01*
X120000Y315000D02*X261500D01*
X120000Y305000D02*X261500D01*
X270000D02*Y280000D01*
X52500Y455000D02*Y480000D01*
X100000D01*
X52500Y455000D02*X100000D01*
X52500Y445000D02*X100000D01*
X52500Y420000D02*Y445000D01*
Y420000D02*X100000D01*
X52500Y385000D02*Y410000D01*
Y350000D02*Y375000D01*
Y315000D02*Y340000D01*
Y385000D02*X100000D01*
X52500Y375000D02*X100000D01*
X52500Y350000D02*X100000D01*
X52500Y340000D02*X100000D01*
X52500Y315000D02*X100000D01*
X52500Y305000D02*X100000D01*
X52500Y280000D02*Y305000D01*
X261500Y280000D02*Y270000D01*
Y245000D02*Y235000D01*
Y210000D02*Y200000D01*
Y175000D02*Y165000D01*
X270000Y200000D02*Y175000D01*
X52500Y280000D02*X100000D01*
X52500Y245000D02*Y270000D01*
X100000D01*
X52500Y245000D02*X100000D01*
X120000Y280000D02*X261500D01*
X270000Y270000D02*Y245000D01*
X120000Y270000D02*X261500D01*
X120000Y245000D02*X261500D01*
X52500Y210000D02*Y235000D01*
Y210000D02*X100000D01*
X52500Y175000D02*Y200000D01*
X100000D01*
X52500Y175000D02*X100000D01*
X270000Y235000D02*Y210000D01*
X120000D02*X261500D01*
X120000Y200000D02*X261500D01*
X120000Y175000D02*X261500D01*
X52500Y235000D02*X100000D01*
X120000D02*X261500D01*
Y140000D02*Y130000D01*
X270000D02*Y105000D01*
X52500Y140000D02*Y165000D01*
X100000D01*
X52500Y140000D02*X100000D01*
X52500Y130000D02*X100000D01*
X270000Y165000D02*Y140000D01*
X120000Y165000D02*X261500D01*
X120000Y140000D02*X261500D01*
X120000Y130000D02*X261500D01*
X52500Y105000D02*Y130000D01*
Y105000D02*X100000D01*
X52500Y70000D02*Y95000D01*
X115000Y170000D02*G75*G03X120000Y165000I5000J0D01*G01*
X115000Y170000D02*G75*G02X120000Y175000I5000J0D01*G01*
X115000Y205000D02*G75*G03X120000Y200000I5000J0D01*G01*
X115000Y205000D02*G75*G02X120000Y210000I5000J0D01*G01*
X105000Y170000D02*G75*G03X100000Y175000I-5000J0D01*G01*
X105000Y205000D02*G75*G02X100000Y200000I-5000J0D01*G01*
X105000Y205000D02*G75*G03X100000Y210000I-5000J0D01*G01*
X105000Y240000D02*G75*G02X100000Y235000I-5000J0D01*G01*
X105000Y240000D02*G75*G03X100000Y245000I-5000J0D01*G01*
X115000Y135000D02*G75*G03X120000Y130000I5000J0D01*G01*
X115000Y135000D02*G75*G02X120000Y140000I5000J0D01*G01*
X105000Y135000D02*G75*G02X100000Y130000I-5000J0D01*G01*
X105000Y135000D02*G75*G03X100000Y140000I-5000J0D01*G01*
X115000Y100000D02*G75*G03X120000Y95000I5000J0D01*G01*
X115000Y100000D02*G75*G02X120000Y105000I5000J0D01*G01*
X105000Y100000D02*G75*G02X100000Y95000I-5000J0D01*G01*
X105000Y100000D02*G75*G03X100000Y105000I-5000J0D01*G01*
X105000Y170000D02*G75*G02X100000Y165000I-5000J0D01*G01*
X115000Y65000D02*G75*G02X120000Y70000I5000J0D01*G01*
X115000Y65000D02*G75*G03X120000Y60000I5000J0D01*G01*
X105000Y65000D02*G75*G03X100000Y70000I-5000J0D01*G01*
X105000Y65000D02*G75*G02X100000Y60000I-5000J0D01*G01*
X115000Y240000D02*G75*G03X120000Y235000I5000J0D01*G01*
X115000Y240000D02*G75*G02X120000Y245000I5000J0D01*G01*
X115000Y275000D02*G75*G03X120000Y270000I5000J0D01*G01*
X115000Y275000D02*G75*G02X120000Y280000I5000J0D01*G01*
X105000Y275000D02*G75*G02X100000Y270000I-5000J0D01*G01*
X105000Y275000D02*G75*G03X100000Y280000I-5000J0D01*G01*
X105000Y310000D02*G75*G02X100000Y305000I-5000J0D01*G01*
X105000Y310000D02*G75*G03X100000Y315000I-5000J0D01*G01*
X115000Y310000D02*G75*G03X120000Y305000I5000J0D01*G01*
X115000Y310000D02*G75*G02X120000Y315000I5000J0D01*G01*
X115000Y345000D02*G75*G03X120000Y340000I5000J0D01*G01*
X115000Y345000D02*G75*G02X120000Y350000I5000J0D01*G01*
X115000Y380000D02*G75*G03X120000Y375000I5000J0D01*G01*
X115000Y380000D02*G75*G02X120000Y385000I5000J0D01*G01*
X105000Y345000D02*G75*G02X100000Y340000I-5000J0D01*G01*
X105000Y345000D02*G75*G03X100000Y350000I-5000J0D01*G01*
X105000Y380000D02*G75*G02X100000Y375000I-5000J0D01*G01*
X105000Y380000D02*G75*G03X100000Y385000I-5000J0D01*G01*
X105000Y415000D02*G75*G02X100000Y410000I-5000J0D01*G01*
X105000Y415000D02*G75*G03X100000Y420000I-5000J0D01*G01*
X115000Y415000D02*G75*G03X120000Y410000I5000J0D01*G01*
X115000Y415000D02*G75*G02X120000Y420000I5000J0D01*G01*
X115000Y450000D02*G75*G03X120000Y445000I5000J0D01*G01*
X115000Y450000D02*G75*G02X120000Y455000I5000J0D01*G01*
X105000Y450000D02*G75*G02X100000Y445000I-5000J0D01*G01*
X105000Y450000D02*G75*G03X100000Y455000I-5000J0D01*G01*
X115000Y485000D02*G75*G03X120000Y480000I5000J0D01*G01*
X115000Y485000D02*G75*G02X120000Y490000I5000J0D01*G01*
X105000Y485000D02*G75*G02X100000Y480000I-5000J0D01*G01*
X105000Y485000D02*G75*G03X100000Y490000I-5000J0D01*G01*
G54D37*X277860Y164720D02*Y161000D01*
Y162860D02*X285300D01*
X281580Y169742D02*X282510Y170672D01*
X281580Y169742D02*Y167882D01*
X282510Y166952D02*X281580Y167882D01*
X282510Y166952D02*X284370D01*
X285300Y167882D01*
X281580Y170672D02*X284370D01*
X285300Y171602D01*
Y169742D02*Y167882D01*
Y169742D02*X284370Y170672D01*
X277860Y173834D02*X285300D01*
X284370D02*X285300Y174764D01*
Y176624D02*Y174764D01*
Y176624D02*X284370Y177554D01*
X282510D02*X284370D01*
X281580Y176624D02*X282510Y177554D01*
X281580Y176624D02*Y174764D01*
X282510Y173834D02*X281580Y174764D01*
X285300Y183506D02*Y180716D01*
Y183506D02*X284370Y184436D01*
X283440Y183506D02*X284370Y184436D01*
X283440Y183506D02*Y180716D01*
X282510Y179786D02*X283440Y180716D01*
X282510Y179786D02*X281580Y180716D01*
Y183506D02*Y180716D01*
Y183506D02*X282510Y184436D01*
X284370Y179786D02*X285300Y180716D01*
Y193736D02*Y190946D01*
Y193736D02*X284370Y194666D01*
X283440Y193736D02*X284370Y194666D01*
X283440Y193736D02*Y190946D01*
X282510Y190016D02*X283440Y190946D01*
X282510Y190016D02*X281580Y190946D01*
Y193736D02*Y190946D01*
Y193736D02*X282510Y194666D01*
X284370Y190016D02*X285300Y190946D01*
X277860Y196898D02*X285300D01*
X282510D02*X281580Y197828D01*
Y199688D02*Y197828D01*
Y199688D02*X282510Y200618D01*
X285300D01*
X282510Y202850D02*X284370D01*
X282510D02*X281580Y203780D01*
Y205640D02*Y203780D01*
Y205640D02*X282510Y206570D01*
X284370D01*
X285300Y205640D02*X284370Y206570D01*
X285300Y205640D02*Y203780D01*
X284370Y202850D02*X285300Y203780D01*
X281580Y208802D02*X284370D01*
X285300Y209732D01*
Y211592D02*Y209732D01*
Y211592D02*X284370Y212522D01*
X281580D02*X284370D01*
X277860Y214754D02*X284370D01*
X285300Y215684D01*
X277860Y221264D02*X285300D01*
Y220334D02*X284370Y221264D01*
X285300Y220334D02*Y218474D01*
X284370Y217544D02*X285300Y218474D01*
X282510Y217544D02*X284370D01*
X282510D02*X281580Y218474D01*
Y220334D02*Y218474D01*
Y220334D02*X282510Y221264D01*
X277860Y226844D02*X285300D01*
X284370D02*X285300Y227774D01*
Y229634D02*Y227774D01*
Y229634D02*X284370Y230564D01*
X282510D02*X284370D01*
X281580Y229634D02*X282510Y230564D01*
X281580Y229634D02*Y227774D01*
X282510Y226844D02*X281580Y227774D01*
X285300Y236516D02*Y233726D01*
X284370Y232796D02*X285300Y233726D01*
X282510Y232796D02*X284370D01*
X282510D02*X281580Y233726D01*
Y235586D02*Y233726D01*
Y235586D02*X282510Y236516D01*
X283440D02*Y232796D01*
X282510Y236516D02*X283440D01*
X285300Y245816D02*Y243026D01*
Y245816D02*X284370Y246746D01*
X283440Y245816D02*X284370Y246746D01*
X283440Y245816D02*Y243026D01*
X282510Y242096D02*X283440Y243026D01*
X282510Y242096D02*X281580Y243026D01*
Y245816D02*Y243026D01*
Y245816D02*X282510Y246746D01*
X284370Y242096D02*X285300Y243026D01*
X282510Y248978D02*X284370D01*
X282510D02*X281580Y249908D01*
Y251768D02*Y249908D01*
Y251768D02*X282510Y252698D01*
X284370D01*
X285300Y251768D02*X284370Y252698D01*
X285300Y251768D02*Y249908D01*
X284370Y248978D02*X285300Y249908D01*
X277860Y254930D02*X284370D01*
X285300Y255860D01*
G54D38*X279720Y257720D02*X279906D01*
G54D37*X282510D02*X285300D01*
X277860Y263300D02*X285300D01*
Y262370D02*X284370Y263300D01*
X285300Y262370D02*Y260510D01*
X284370Y259580D02*X285300Y260510D01*
X282510Y259580D02*X284370D01*
X282510D02*X281580Y260510D01*
Y262370D02*Y260510D01*
Y262370D02*X282510Y263300D01*
Y268880D02*X284370D01*
X282510D02*X281580Y269810D01*
Y271670D02*Y269810D01*
Y271670D02*X282510Y272600D01*
X284370D01*
X285300Y271670D02*X284370Y272600D01*
X285300Y271670D02*Y269810D01*
X284370Y268880D02*X285300Y269810D01*
X282510Y275762D02*X285300D01*
X282510D02*X281580Y276692D01*
Y277622D02*Y276692D01*
Y277622D02*X282510Y278552D01*
X285300D01*
X281580Y274832D02*X282510Y275762D01*
X277860Y285062D02*X284370D01*
X285300Y285992D01*
X280650D02*Y284132D01*
X277860Y287852D02*X285300D01*
X282510D02*X281580Y288782D01*
Y290642D02*Y288782D01*
Y290642D02*X282510Y291572D01*
X285300D01*
G54D38*X279720Y293804D02*X279906D01*
G54D37*X282510D02*X285300D01*
Y299384D02*Y296594D01*
Y299384D02*X284370Y300314D01*
X283440Y299384D02*X284370Y300314D01*
X283440Y299384D02*Y296594D01*
X282510Y295664D02*X283440Y296594D01*
X282510Y295664D02*X281580Y296594D01*
Y299384D02*Y296594D01*
Y299384D02*X282510Y300314D01*
X284370Y295664D02*X285300Y296594D01*
Y309614D02*Y306824D01*
X284370Y305894D02*X285300Y306824D01*
X282510Y305894D02*X284370D01*
X282510D02*X281580Y306824D01*
Y308684D02*Y306824D01*
Y308684D02*X282510Y309614D01*
X283440D02*Y305894D01*
X282510Y309614D02*X283440D01*
X277860Y315566D02*X285300D01*
Y314636D02*X284370Y315566D01*
X285300Y314636D02*Y312776D01*
X284370Y311846D02*X285300Y312776D01*
X282510Y311846D02*X284370D01*
X282510D02*X281580Y312776D01*
Y314636D02*Y312776D01*
Y314636D02*X282510Y315566D01*
X281580Y320588D02*X282510Y321518D01*
X281580Y320588D02*Y318728D01*
X282510Y317798D02*X281580Y318728D01*
X282510Y317798D02*X284370D01*
X285300Y318728D01*
Y320588D02*Y318728D01*
Y320588D02*X284370Y321518D01*
X287160Y317798D02*X288090Y318728D01*
Y320588D02*Y318728D01*
Y320588D02*X287160Y321518D01*
X281580D02*X287160D01*
X285300Y327470D02*Y324680D01*
X284370Y323750D02*X285300Y324680D01*
X282510Y323750D02*X284370D01*
X282510D02*X281580Y324680D01*
Y326540D02*Y324680D01*
Y326540D02*X282510Y327470D01*
X283440D02*Y323750D01*
X282510Y327470D02*X283440D01*
X285300Y330632D02*Y329702D01*
X277860Y339560D02*X285300D01*
X277860D02*X285300Y344210D01*
X277860D02*X285300D01*
X282510Y346442D02*X284370D01*
X282510D02*X281580Y347372D01*
Y349232D02*Y347372D01*
Y349232D02*X282510Y350162D01*
X284370D01*
X285300Y349232D02*X284370Y350162D01*
X285300Y349232D02*Y347372D01*
X284370Y346442D02*X285300Y347372D01*
X277860Y355742D02*X285300D01*
X282510D02*X281580Y356672D01*
Y358532D02*Y356672D01*
Y358532D02*X282510Y359462D01*
X285300D01*
X282510Y361694D02*X284370D01*
X282510D02*X281580Y362624D01*
Y364484D02*Y362624D01*
Y364484D02*X282510Y365414D01*
X284370D01*
X285300Y364484D02*X284370Y365414D01*
X285300Y364484D02*Y362624D01*
X284370Y361694D02*X285300Y362624D01*
X277860Y367646D02*X284370D01*
X285300Y368576D01*
Y374156D02*Y371366D01*
X284370Y370436D02*X285300Y371366D01*
X282510Y370436D02*X284370D01*
X282510D02*X281580Y371366D01*
Y373226D02*Y371366D01*
Y373226D02*X282510Y374156D01*
X283440D02*Y370436D01*
X282510Y374156D02*X283440D01*
X285300Y380108D02*Y377318D01*
Y380108D02*X284370Y381038D01*
X283440Y380108D02*X284370Y381038D01*
X283440Y380108D02*Y377318D01*
X282510Y376388D02*X283440Y377318D01*
X282510Y376388D02*X281580Y377318D01*
Y380108D02*Y377318D01*
Y380108D02*X282510Y381038D01*
X284370Y376388D02*X285300Y377318D01*
Y384200D02*Y383270D01*
M02*
