G04 start of page 10 for group -4078 idx -4078 *
G04 Title: (unknown), bottomsilk *
G04 Creator: pcb 4.2.2 *
G04 CreationDate: Mon Feb 10 04:01:32 2025 UTC *
G04 For: petersen *
G04 Format: Gerber/RS-274X *
G04 PCB-Dimensions (mil): 3000.00 5500.00 *
G04 PCB-Coordinate-Origin: lower left *
%MOIN*%
%FSLAX25Y25*%
%LNBOTTOMSILK*%
%ADD53C,0.0080*%
%ADD52C,0.0100*%
G54D52*X53000Y479500D02*X269500D01*
Y455500D02*X53000D01*
Y479500D02*Y455500D01*
Y444500D02*X269500D01*
Y420500D02*X53000D01*
Y444500D02*Y420500D01*
Y409500D02*X269500D01*
Y479500D02*Y455500D01*
Y444500D02*Y420500D01*
Y409500D02*Y385500D01*
X53000D01*
Y374500D02*X269500D01*
X53000D02*Y350500D01*
Y409500D02*Y385500D01*
X269500Y350500D02*X53000D01*
X269500Y374500D02*Y350500D01*
X53000Y339500D02*X269500D01*
Y315500D02*X53000D01*
X269500Y339500D02*Y315500D01*
X53000Y339500D02*Y315500D01*
Y304500D02*X269500D01*
Y280500D02*X53000D01*
Y304500D02*Y280500D01*
Y269500D02*X269500D01*
Y245500D02*X53000D01*
Y269500D02*Y245500D01*
X269500Y304500D02*Y280500D01*
Y269500D02*Y245500D01*
X53000Y234500D02*X269500D01*
Y210500D02*X53000D01*
Y234500D02*Y210500D01*
Y199500D02*X269500D01*
Y175500D02*X53000D01*
Y199500D02*Y175500D01*
X269500Y234500D02*Y210500D01*
Y199500D02*Y175500D01*
Y164500D02*Y140500D01*
Y94500D02*Y70500D01*
X53000Y164500D02*X269500D01*
Y129500D02*Y105500D01*
Y140500D02*X53000D01*
Y164500D02*Y140500D01*
Y129500D02*X269500D01*
Y105500D02*X53000D01*
Y129500D02*Y105500D01*
Y94500D02*X269500D01*
X53000D02*Y70500D01*
X269500D02*X53000D01*
G54D53*X126957Y476631D02*Y476720D01*
Y474050D02*Y475385D01*
X124732Y475830D02*X124287Y475385D01*
X124732Y475830D02*X125622D01*
X126067Y475385D02*X125622Y475830D01*
X126067Y474495D02*Y475385D01*
Y474495D02*X125622Y474050D01*
X124287Y474495D02*Y475830D01*
Y474495D02*X123842Y474050D01*
X124732D02*X125622D01*
X124732D02*X124287Y474495D01*
X120994Y474050D02*X122329D01*
X120994D02*X120549Y474495D01*
X120994Y474940D02*X120549Y474495D01*
X120994Y474940D02*X122329D01*
X122774Y475385D02*X122329Y474940D01*
X122774Y475385D02*X122329Y475830D01*
X120994D02*X122329D01*
X120994D02*X120549Y475385D01*
X122774Y474495D02*X122329Y474050D01*
X117701Y475830D02*X119036D01*
X119481Y475385D02*X119036Y475830D01*
X119481Y474495D02*Y475385D01*
Y474495D02*X119036Y474050D01*
X117701D02*X119036D01*
X115298Y475830D02*X114853Y475385D01*
X115298Y475830D02*X116188D01*
X116633Y475385D02*X116188Y475830D01*
X116633Y474495D02*Y475385D01*
Y474495D02*X116188Y474050D01*
X114853Y474495D02*Y475830D01*
Y474495D02*X114408Y474050D01*
X115298D02*X116188D01*
X115298D02*X114853Y474495D01*
X113340D02*Y477610D01*
Y474495D02*X112895Y474050D01*
X110225D02*X111560D01*
X112005Y474495D02*X111560Y474050D01*
X112005Y474495D02*Y475385D01*
X111560Y475830D01*
X110670D02*X111560D01*
X110670D02*X110225Y475385D01*
Y474940D02*X112005D01*
X110225D02*Y475385D01*
X107377Y474050D02*Y477610D01*
X107822Y474050D02*X107377Y474495D01*
X107822Y474050D02*X108712D01*
X109157Y474495D02*X108712Y474050D01*
X109157Y474495D02*Y475385D01*
X108712Y475830D01*
X107822D02*X108712D01*
X107822D02*X107377Y475385D01*
X105864Y474050D02*X106309D01*
X103016Y475830D02*X104351D01*
X104796Y475385D02*X104351Y475830D01*
X104796Y474495D02*Y475385D01*
Y474495D02*X104351Y474050D01*
X103016D02*X104351D01*
X101948Y474495D02*Y475385D01*
X101503Y475830D01*
X100613D02*X101503D01*
X100613D02*X100168Y475385D01*
Y474495D02*Y475385D01*
X100613Y474050D02*X100168Y474495D01*
X100613Y474050D02*X101503D01*
X101948Y474495D02*X101503Y474050D01*
X98655D02*Y475385D01*
X98210Y475830D01*
X97765D02*X98210D01*
X97765D02*X97320Y475385D01*
Y474050D02*Y475385D01*
X96875Y475830D01*
X96430D02*X96875D01*
X96430D02*X95985Y475385D01*
Y474050D02*Y475385D01*
X99100Y475830D02*X98655Y475385D01*
X126957Y441631D02*Y441720D01*
Y439050D02*Y440385D01*
X124732Y440830D02*X124287Y440385D01*
X124732Y440830D02*X125622D01*
X126067Y440385D02*X125622Y440830D01*
X126067Y439495D02*Y440385D01*
Y439495D02*X125622Y439050D01*
X124287Y439495D02*Y440830D01*
Y439495D02*X123842Y439050D01*
X124732D02*X125622D01*
X124732D02*X124287Y439495D01*
X120994Y439050D02*X122329D01*
X120994D02*X120549Y439495D01*
X120994Y439940D02*X120549Y439495D01*
X120994Y439940D02*X122329D01*
X122774Y440385D02*X122329Y439940D01*
X122774Y440385D02*X122329Y440830D01*
X120994D02*X122329D01*
X120994D02*X120549Y440385D01*
X122774Y439495D02*X122329Y439050D01*
X117701Y440830D02*X119036D01*
X119481Y440385D02*X119036Y440830D01*
X119481Y439495D02*Y440385D01*
Y439495D02*X119036Y439050D01*
X117701D02*X119036D01*
X115298Y440830D02*X114853Y440385D01*
X115298Y440830D02*X116188D01*
X116633Y440385D02*X116188Y440830D01*
X116633Y439495D02*Y440385D01*
Y439495D02*X116188Y439050D01*
X114853Y439495D02*Y440830D01*
Y439495D02*X114408Y439050D01*
X115298D02*X116188D01*
X115298D02*X114853Y439495D01*
X113340D02*Y442610D01*
Y439495D02*X112895Y439050D01*
X110225D02*X111560D01*
X112005Y439495D02*X111560Y439050D01*
X112005Y439495D02*Y440385D01*
X111560Y440830D01*
X110670D02*X111560D01*
X110670D02*X110225Y440385D01*
Y439940D02*X112005D01*
X110225D02*Y440385D01*
X107377Y439050D02*Y442610D01*
X107822Y439050D02*X107377Y439495D01*
X107822Y439050D02*X108712D01*
X109157Y439495D02*X108712Y439050D01*
X109157Y439495D02*Y440385D01*
X108712Y440830D01*
X107822D02*X108712D01*
X107822D02*X107377Y440385D01*
X105864Y439050D02*X106309D01*
X103016Y440830D02*X104351D01*
X104796Y440385D02*X104351Y440830D01*
X104796Y439495D02*Y440385D01*
Y439495D02*X104351Y439050D01*
X103016D02*X104351D01*
X101948Y439495D02*Y440385D01*
X101503Y440830D01*
X100613D02*X101503D01*
X100613D02*X100168Y440385D01*
Y439495D02*Y440385D01*
X100613Y439050D02*X100168Y439495D01*
X100613Y439050D02*X101503D01*
X101948Y439495D02*X101503Y439050D01*
X98655D02*Y440385D01*
X98210Y440830D01*
X97765D02*X98210D01*
X97765D02*X97320Y440385D01*
Y439050D02*Y440385D01*
X96875Y440830D01*
X96430D02*X96875D01*
X96430D02*X95985Y440385D01*
Y439050D02*Y440385D01*
X99100Y440830D02*X98655Y440385D01*
X126957Y406631D02*Y406720D01*
Y404050D02*Y405385D01*
X124732Y405830D02*X124287Y405385D01*
X124732Y405830D02*X125622D01*
X126067Y405385D02*X125622Y405830D01*
X126067Y404495D02*Y405385D01*
Y404495D02*X125622Y404050D01*
X124287Y404495D02*Y405830D01*
Y404495D02*X123842Y404050D01*
X124732D02*X125622D01*
X124732D02*X124287Y404495D01*
X120994Y404050D02*X122329D01*
X120994D02*X120549Y404495D01*
X120994Y404940D02*X120549Y404495D01*
X120994Y404940D02*X122329D01*
X122774Y405385D02*X122329Y404940D01*
X122774Y405385D02*X122329Y405830D01*
X120994D02*X122329D01*
X120994D02*X120549Y405385D01*
X122774Y404495D02*X122329Y404050D01*
X117701Y405830D02*X119036D01*
X119481Y405385D02*X119036Y405830D01*
X119481Y404495D02*Y405385D01*
Y404495D02*X119036Y404050D01*
X117701D02*X119036D01*
X115298Y405830D02*X114853Y405385D01*
X115298Y405830D02*X116188D01*
X116633Y405385D02*X116188Y405830D01*
X116633Y404495D02*Y405385D01*
Y404495D02*X116188Y404050D01*
X114853Y404495D02*Y405830D01*
Y404495D02*X114408Y404050D01*
X115298D02*X116188D01*
X115298D02*X114853Y404495D01*
X113340D02*Y407610D01*
Y404495D02*X112895Y404050D01*
X110225D02*X111560D01*
X112005Y404495D02*X111560Y404050D01*
X112005Y404495D02*Y405385D01*
X111560Y405830D01*
X110670D02*X111560D01*
X110670D02*X110225Y405385D01*
Y404940D02*X112005D01*
X110225D02*Y405385D01*
X107377Y404050D02*Y407610D01*
X107822Y404050D02*X107377Y404495D01*
X107822Y404050D02*X108712D01*
X109157Y404495D02*X108712Y404050D01*
X109157Y404495D02*Y405385D01*
X108712Y405830D01*
X107822D02*X108712D01*
X107822D02*X107377Y405385D01*
X105864Y404050D02*X106309D01*
X103016Y405830D02*X104351D01*
X104796Y405385D02*X104351Y405830D01*
X104796Y404495D02*Y405385D01*
Y404495D02*X104351Y404050D01*
X103016D02*X104351D01*
X101948Y404495D02*Y405385D01*
X101503Y405830D01*
X100613D02*X101503D01*
X100613D02*X100168Y405385D01*
Y404495D02*Y405385D01*
X100613Y404050D02*X100168Y404495D01*
X100613Y404050D02*X101503D01*
X101948Y404495D02*X101503Y404050D01*
X98655D02*Y405385D01*
X98210Y405830D01*
X97765D02*X98210D01*
X97765D02*X97320Y405385D01*
Y404050D02*Y405385D01*
X96875Y405830D01*
X96430D02*X96875D01*
X96430D02*X95985Y405385D01*
Y404050D02*Y405385D01*
X99100Y405830D02*X98655Y405385D01*
X126957Y371631D02*Y371720D01*
Y369050D02*Y370385D01*
X124732Y370830D02*X124287Y370385D01*
X124732Y370830D02*X125622D01*
X126067Y370385D02*X125622Y370830D01*
X126067Y369495D02*Y370385D01*
Y369495D02*X125622Y369050D01*
X124287Y369495D02*Y370830D01*
Y369495D02*X123842Y369050D01*
X124732D02*X125622D01*
X124732D02*X124287Y369495D01*
X120994Y369050D02*X122329D01*
X120994D02*X120549Y369495D01*
X120994Y369940D02*X120549Y369495D01*
X120994Y369940D02*X122329D01*
X122774Y370385D02*X122329Y369940D01*
X122774Y370385D02*X122329Y370830D01*
X120994D02*X122329D01*
X120994D02*X120549Y370385D01*
X122774Y369495D02*X122329Y369050D01*
X117701Y370830D02*X119036D01*
X119481Y370385D02*X119036Y370830D01*
X119481Y369495D02*Y370385D01*
Y369495D02*X119036Y369050D01*
X117701D02*X119036D01*
X115298Y370830D02*X114853Y370385D01*
X115298Y370830D02*X116188D01*
X116633Y370385D02*X116188Y370830D01*
X116633Y369495D02*Y370385D01*
Y369495D02*X116188Y369050D01*
X114853Y369495D02*Y370830D01*
Y369495D02*X114408Y369050D01*
X115298D02*X116188D01*
X115298D02*X114853Y369495D01*
X113340D02*Y372610D01*
Y369495D02*X112895Y369050D01*
X110225D02*X111560D01*
X112005Y369495D02*X111560Y369050D01*
X112005Y369495D02*Y370385D01*
X111560Y370830D01*
X110670D02*X111560D01*
X110670D02*X110225Y370385D01*
Y369940D02*X112005D01*
X110225D02*Y370385D01*
X107377Y369050D02*Y372610D01*
X107822Y369050D02*X107377Y369495D01*
X107822Y369050D02*X108712D01*
X109157Y369495D02*X108712Y369050D01*
X109157Y369495D02*Y370385D01*
X108712Y370830D01*
X107822D02*X108712D01*
X107822D02*X107377Y370385D01*
X105864Y369050D02*X106309D01*
X103016Y370830D02*X104351D01*
X104796Y370385D02*X104351Y370830D01*
X104796Y369495D02*Y370385D01*
Y369495D02*X104351Y369050D01*
X103016D02*X104351D01*
X101948Y369495D02*Y370385D01*
X101503Y370830D01*
X100613D02*X101503D01*
X100613D02*X100168Y370385D01*
Y369495D02*Y370385D01*
X100613Y369050D02*X100168Y369495D01*
X100613Y369050D02*X101503D01*
X101948Y369495D02*X101503Y369050D01*
X98655D02*Y370385D01*
X98210Y370830D01*
X97765D02*X98210D01*
X97765D02*X97320Y370385D01*
Y369050D02*Y370385D01*
X96875Y370830D01*
X96430D02*X96875D01*
X96430D02*X95985Y370385D01*
Y369050D02*Y370385D01*
X99100Y370830D02*X98655Y370385D01*
X126957Y336631D02*Y336720D01*
Y334050D02*Y335385D01*
X124732Y335830D02*X124287Y335385D01*
X124732Y335830D02*X125622D01*
X126067Y335385D02*X125622Y335830D01*
X126067Y334495D02*Y335385D01*
Y334495D02*X125622Y334050D01*
X124287Y334495D02*Y335830D01*
Y334495D02*X123842Y334050D01*
X124732D02*X125622D01*
X124732D02*X124287Y334495D01*
X120994Y334050D02*X122329D01*
X120994D02*X120549Y334495D01*
X120994Y334940D02*X120549Y334495D01*
X120994Y334940D02*X122329D01*
X122774Y335385D02*X122329Y334940D01*
X122774Y335385D02*X122329Y335830D01*
X120994D02*X122329D01*
X120994D02*X120549Y335385D01*
X122774Y334495D02*X122329Y334050D01*
X117701Y335830D02*X119036D01*
X119481Y335385D02*X119036Y335830D01*
X119481Y334495D02*Y335385D01*
Y334495D02*X119036Y334050D01*
X117701D02*X119036D01*
X115298Y335830D02*X114853Y335385D01*
X115298Y335830D02*X116188D01*
X116633Y335385D02*X116188Y335830D01*
X116633Y334495D02*Y335385D01*
Y334495D02*X116188Y334050D01*
X114853Y334495D02*Y335830D01*
Y334495D02*X114408Y334050D01*
X115298D02*X116188D01*
X115298D02*X114853Y334495D01*
X113340D02*Y337610D01*
Y334495D02*X112895Y334050D01*
X110225D02*X111560D01*
X112005Y334495D02*X111560Y334050D01*
X112005Y334495D02*Y335385D01*
X111560Y335830D01*
X110670D02*X111560D01*
X110670D02*X110225Y335385D01*
Y334940D02*X112005D01*
X110225D02*Y335385D01*
X107377Y334050D02*Y337610D01*
X107822Y334050D02*X107377Y334495D01*
X107822Y334050D02*X108712D01*
X109157Y334495D02*X108712Y334050D01*
X109157Y334495D02*Y335385D01*
X108712Y335830D01*
X107822D02*X108712D01*
X107822D02*X107377Y335385D01*
X105864Y334050D02*X106309D01*
X103016Y335830D02*X104351D01*
X104796Y335385D02*X104351Y335830D01*
X104796Y334495D02*Y335385D01*
Y334495D02*X104351Y334050D01*
X103016D02*X104351D01*
X101948Y334495D02*Y335385D01*
X101503Y335830D01*
X100613D02*X101503D01*
X100613D02*X100168Y335385D01*
Y334495D02*Y335385D01*
X100613Y334050D02*X100168Y334495D01*
X100613Y334050D02*X101503D01*
X101948Y334495D02*X101503Y334050D01*
X98655D02*Y335385D01*
X98210Y335830D01*
X97765D02*X98210D01*
X97765D02*X97320Y335385D01*
Y334050D02*Y335385D01*
X96875Y335830D01*
X96430D02*X96875D01*
X96430D02*X95985Y335385D01*
Y334050D02*Y335385D01*
X99100Y335830D02*X98655Y335385D01*
X126957Y301631D02*Y301720D01*
Y299050D02*Y300385D01*
X124732Y300830D02*X124287Y300385D01*
X124732Y300830D02*X125622D01*
X126067Y300385D02*X125622Y300830D01*
X126067Y299495D02*Y300385D01*
Y299495D02*X125622Y299050D01*
X124287Y299495D02*Y300830D01*
Y299495D02*X123842Y299050D01*
X124732D02*X125622D01*
X124732D02*X124287Y299495D01*
X120994Y299050D02*X122329D01*
X120994D02*X120549Y299495D01*
X120994Y299940D02*X120549Y299495D01*
X120994Y299940D02*X122329D01*
X122774Y300385D02*X122329Y299940D01*
X122774Y300385D02*X122329Y300830D01*
X120994D02*X122329D01*
X120994D02*X120549Y300385D01*
X122774Y299495D02*X122329Y299050D01*
X117701Y300830D02*X119036D01*
X119481Y300385D02*X119036Y300830D01*
X119481Y299495D02*Y300385D01*
Y299495D02*X119036Y299050D01*
X117701D02*X119036D01*
X115298Y300830D02*X114853Y300385D01*
X115298Y300830D02*X116188D01*
X116633Y300385D02*X116188Y300830D01*
X116633Y299495D02*Y300385D01*
Y299495D02*X116188Y299050D01*
X114853Y299495D02*Y300830D01*
Y299495D02*X114408Y299050D01*
X115298D02*X116188D01*
X115298D02*X114853Y299495D01*
X113340D02*Y302610D01*
Y299495D02*X112895Y299050D01*
X110225D02*X111560D01*
X112005Y299495D02*X111560Y299050D01*
X112005Y299495D02*Y300385D01*
X111560Y300830D01*
X110670D02*X111560D01*
X110670D02*X110225Y300385D01*
Y299940D02*X112005D01*
X110225D02*Y300385D01*
X107377Y299050D02*Y302610D01*
X107822Y299050D02*X107377Y299495D01*
X107822Y299050D02*X108712D01*
X109157Y299495D02*X108712Y299050D01*
X109157Y299495D02*Y300385D01*
X108712Y300830D01*
X107822D02*X108712D01*
X107822D02*X107377Y300385D01*
X105864Y299050D02*X106309D01*
X103016Y300830D02*X104351D01*
X104796Y300385D02*X104351Y300830D01*
X104796Y299495D02*Y300385D01*
Y299495D02*X104351Y299050D01*
X103016D02*X104351D01*
X101948Y299495D02*Y300385D01*
X101503Y300830D01*
X100613D02*X101503D01*
X100613D02*X100168Y300385D01*
Y299495D02*Y300385D01*
X100613Y299050D02*X100168Y299495D01*
X100613Y299050D02*X101503D01*
X101948Y299495D02*X101503Y299050D01*
X98655D02*Y300385D01*
X98210Y300830D01*
X97765D02*X98210D01*
X97765D02*X97320Y300385D01*
Y299050D02*Y300385D01*
X96875Y300830D01*
X96430D02*X96875D01*
X96430D02*X95985Y300385D01*
Y299050D02*Y300385D01*
X99100Y300830D02*X98655Y300385D01*
X126957Y266631D02*Y266720D01*
Y264050D02*Y265385D01*
X124732Y265830D02*X124287Y265385D01*
X124732Y265830D02*X125622D01*
X126067Y265385D02*X125622Y265830D01*
X126067Y264495D02*Y265385D01*
Y264495D02*X125622Y264050D01*
X124287Y264495D02*Y265830D01*
Y264495D02*X123842Y264050D01*
X124732D02*X125622D01*
X124732D02*X124287Y264495D01*
X120994Y264050D02*X122329D01*
X120994D02*X120549Y264495D01*
X120994Y264940D02*X120549Y264495D01*
X120994Y264940D02*X122329D01*
X122774Y265385D02*X122329Y264940D01*
X122774Y265385D02*X122329Y265830D01*
X120994D02*X122329D01*
X120994D02*X120549Y265385D01*
X122774Y264495D02*X122329Y264050D01*
X117701Y265830D02*X119036D01*
X119481Y265385D02*X119036Y265830D01*
X119481Y264495D02*Y265385D01*
Y264495D02*X119036Y264050D01*
X117701D02*X119036D01*
X115298Y265830D02*X114853Y265385D01*
X115298Y265830D02*X116188D01*
X116633Y265385D02*X116188Y265830D01*
X116633Y264495D02*Y265385D01*
Y264495D02*X116188Y264050D01*
X114853Y264495D02*Y265830D01*
Y264495D02*X114408Y264050D01*
X115298D02*X116188D01*
X115298D02*X114853Y264495D01*
X113340D02*Y267610D01*
Y264495D02*X112895Y264050D01*
X110225D02*X111560D01*
X112005Y264495D02*X111560Y264050D01*
X112005Y264495D02*Y265385D01*
X111560Y265830D01*
X110670D02*X111560D01*
X110670D02*X110225Y265385D01*
Y264940D02*X112005D01*
X110225D02*Y265385D01*
X107377Y264050D02*Y267610D01*
X107822Y264050D02*X107377Y264495D01*
X107822Y264050D02*X108712D01*
X109157Y264495D02*X108712Y264050D01*
X109157Y264495D02*Y265385D01*
X108712Y265830D01*
X107822D02*X108712D01*
X107822D02*X107377Y265385D01*
X105864Y264050D02*X106309D01*
X103016Y265830D02*X104351D01*
X104796Y265385D02*X104351Y265830D01*
X104796Y264495D02*Y265385D01*
Y264495D02*X104351Y264050D01*
X103016D02*X104351D01*
X101948Y264495D02*Y265385D01*
X101503Y265830D01*
X100613D02*X101503D01*
X100613D02*X100168Y265385D01*
Y264495D02*Y265385D01*
X100613Y264050D02*X100168Y264495D01*
X100613Y264050D02*X101503D01*
X101948Y264495D02*X101503Y264050D01*
X98655D02*Y265385D01*
X98210Y265830D01*
X97765D02*X98210D01*
X97765D02*X97320Y265385D01*
Y264050D02*Y265385D01*
X96875Y265830D01*
X96430D02*X96875D01*
X96430D02*X95985Y265385D01*
Y264050D02*Y265385D01*
X99100Y265830D02*X98655Y265385D01*
X126957Y231631D02*Y231720D01*
Y229050D02*Y230385D01*
X124732Y230830D02*X124287Y230385D01*
X124732Y230830D02*X125622D01*
X126067Y230385D02*X125622Y230830D01*
X126067Y229495D02*Y230385D01*
Y229495D02*X125622Y229050D01*
X124287Y229495D02*Y230830D01*
Y229495D02*X123842Y229050D01*
X124732D02*X125622D01*
X124732D02*X124287Y229495D01*
X120994Y229050D02*X122329D01*
X120994D02*X120549Y229495D01*
X120994Y229940D02*X120549Y229495D01*
X120994Y229940D02*X122329D01*
X122774Y230385D02*X122329Y229940D01*
X122774Y230385D02*X122329Y230830D01*
X120994D02*X122329D01*
X120994D02*X120549Y230385D01*
X122774Y229495D02*X122329Y229050D01*
X117701Y230830D02*X119036D01*
X119481Y230385D02*X119036Y230830D01*
X119481Y229495D02*Y230385D01*
Y229495D02*X119036Y229050D01*
X117701D02*X119036D01*
X115298Y230830D02*X114853Y230385D01*
X115298Y230830D02*X116188D01*
X116633Y230385D02*X116188Y230830D01*
X116633Y229495D02*Y230385D01*
Y229495D02*X116188Y229050D01*
X114853Y229495D02*Y230830D01*
Y229495D02*X114408Y229050D01*
X115298D02*X116188D01*
X115298D02*X114853Y229495D01*
X113340D02*Y232610D01*
Y229495D02*X112895Y229050D01*
X110225D02*X111560D01*
X112005Y229495D02*X111560Y229050D01*
X112005Y229495D02*Y230385D01*
X111560Y230830D01*
X110670D02*X111560D01*
X110670D02*X110225Y230385D01*
Y229940D02*X112005D01*
X110225D02*Y230385D01*
X107377Y229050D02*Y232610D01*
X107822Y229050D02*X107377Y229495D01*
X107822Y229050D02*X108712D01*
X109157Y229495D02*X108712Y229050D01*
X109157Y229495D02*Y230385D01*
X108712Y230830D01*
X107822D02*X108712D01*
X107822D02*X107377Y230385D01*
X105864Y229050D02*X106309D01*
X103016Y230830D02*X104351D01*
X104796Y230385D02*X104351Y230830D01*
X104796Y229495D02*Y230385D01*
Y229495D02*X104351Y229050D01*
X103016D02*X104351D01*
X101948Y229495D02*Y230385D01*
X101503Y230830D01*
X100613D02*X101503D01*
X100613D02*X100168Y230385D01*
Y229495D02*Y230385D01*
X100613Y229050D02*X100168Y229495D01*
X100613Y229050D02*X101503D01*
X101948Y229495D02*X101503Y229050D01*
X98655D02*Y230385D01*
X98210Y230830D01*
X97765D02*X98210D01*
X97765D02*X97320Y230385D01*
Y229050D02*Y230385D01*
X96875Y230830D01*
X96430D02*X96875D01*
X96430D02*X95985Y230385D01*
Y229050D02*Y230385D01*
X99100Y230830D02*X98655Y230385D01*
X126957Y196631D02*Y196720D01*
Y194050D02*Y195385D01*
X124732Y195830D02*X124287Y195385D01*
X124732Y195830D02*X125622D01*
X126067Y195385D02*X125622Y195830D01*
X126067Y194495D02*Y195385D01*
Y194495D02*X125622Y194050D01*
X124287Y194495D02*Y195830D01*
Y194495D02*X123842Y194050D01*
X124732D02*X125622D01*
X124732D02*X124287Y194495D01*
X120994Y194050D02*X122329D01*
X120994D02*X120549Y194495D01*
X120994Y194940D02*X120549Y194495D01*
X120994Y194940D02*X122329D01*
X122774Y195385D02*X122329Y194940D01*
X122774Y195385D02*X122329Y195830D01*
X120994D02*X122329D01*
X120994D02*X120549Y195385D01*
X122774Y194495D02*X122329Y194050D01*
X117701Y195830D02*X119036D01*
X119481Y195385D02*X119036Y195830D01*
X119481Y194495D02*Y195385D01*
Y194495D02*X119036Y194050D01*
X117701D02*X119036D01*
X115298Y195830D02*X114853Y195385D01*
X115298Y195830D02*X116188D01*
X116633Y195385D02*X116188Y195830D01*
X116633Y194495D02*Y195385D01*
Y194495D02*X116188Y194050D01*
X114853Y194495D02*Y195830D01*
Y194495D02*X114408Y194050D01*
X115298D02*X116188D01*
X115298D02*X114853Y194495D01*
X113340D02*Y197610D01*
Y194495D02*X112895Y194050D01*
X110225D02*X111560D01*
X112005Y194495D02*X111560Y194050D01*
X112005Y194495D02*Y195385D01*
X111560Y195830D01*
X110670D02*X111560D01*
X110670D02*X110225Y195385D01*
Y194940D02*X112005D01*
X110225D02*Y195385D01*
X107377Y194050D02*Y197610D01*
X107822Y194050D02*X107377Y194495D01*
X107822Y194050D02*X108712D01*
X109157Y194495D02*X108712Y194050D01*
X109157Y194495D02*Y195385D01*
X108712Y195830D01*
X107822D02*X108712D01*
X107822D02*X107377Y195385D01*
X105864Y194050D02*X106309D01*
X103016Y195830D02*X104351D01*
X104796Y195385D02*X104351Y195830D01*
X104796Y194495D02*Y195385D01*
Y194495D02*X104351Y194050D01*
X103016D02*X104351D01*
X101948Y194495D02*Y195385D01*
X101503Y195830D01*
X100613D02*X101503D01*
X100613D02*X100168Y195385D01*
Y194495D02*Y195385D01*
X100613Y194050D02*X100168Y194495D01*
X100613Y194050D02*X101503D01*
X101948Y194495D02*X101503Y194050D01*
X98655D02*Y195385D01*
X98210Y195830D01*
X97765D02*X98210D01*
X97765D02*X97320Y195385D01*
Y194050D02*Y195385D01*
X96875Y195830D01*
X96430D02*X96875D01*
X96430D02*X95985Y195385D01*
Y194050D02*Y195385D01*
X99100Y195830D02*X98655Y195385D01*
X126957Y161631D02*Y161720D01*
Y159050D02*Y160385D01*
X124732Y160830D02*X124287Y160385D01*
X124732Y160830D02*X125622D01*
X126067Y160385D02*X125622Y160830D01*
X126067Y159495D02*Y160385D01*
Y159495D02*X125622Y159050D01*
X124287Y159495D02*Y160830D01*
Y159495D02*X123842Y159050D01*
X124732D02*X125622D01*
X124732D02*X124287Y159495D01*
X120994Y159050D02*X122329D01*
X120994D02*X120549Y159495D01*
X120994Y159940D02*X120549Y159495D01*
X120994Y159940D02*X122329D01*
X122774Y160385D02*X122329Y159940D01*
X122774Y160385D02*X122329Y160830D01*
X120994D02*X122329D01*
X120994D02*X120549Y160385D01*
X122774Y159495D02*X122329Y159050D01*
X117701Y160830D02*X119036D01*
X119481Y160385D02*X119036Y160830D01*
X119481Y159495D02*Y160385D01*
Y159495D02*X119036Y159050D01*
X117701D02*X119036D01*
X115298Y160830D02*X114853Y160385D01*
X115298Y160830D02*X116188D01*
X116633Y160385D02*X116188Y160830D01*
X116633Y159495D02*Y160385D01*
Y159495D02*X116188Y159050D01*
X114853Y159495D02*Y160830D01*
Y159495D02*X114408Y159050D01*
X115298D02*X116188D01*
X115298D02*X114853Y159495D01*
X113340D02*Y162610D01*
Y159495D02*X112895Y159050D01*
X110225D02*X111560D01*
X112005Y159495D02*X111560Y159050D01*
X112005Y159495D02*Y160385D01*
X111560Y160830D01*
X110670D02*X111560D01*
X110670D02*X110225Y160385D01*
Y159940D02*X112005D01*
X110225D02*Y160385D01*
X107377Y159050D02*Y162610D01*
X107822Y159050D02*X107377Y159495D01*
X107822Y159050D02*X108712D01*
X109157Y159495D02*X108712Y159050D01*
X109157Y159495D02*Y160385D01*
X108712Y160830D01*
X107822D02*X108712D01*
X107822D02*X107377Y160385D01*
X105864Y159050D02*X106309D01*
X103016Y160830D02*X104351D01*
X104796Y160385D02*X104351Y160830D01*
X104796Y159495D02*Y160385D01*
Y159495D02*X104351Y159050D01*
X103016D02*X104351D01*
X101948Y159495D02*Y160385D01*
X101503Y160830D01*
X100613D02*X101503D01*
X100613D02*X100168Y160385D01*
Y159495D02*Y160385D01*
X100613Y159050D02*X100168Y159495D01*
X100613Y159050D02*X101503D01*
X101948Y159495D02*X101503Y159050D01*
X98655D02*Y160385D01*
X98210Y160830D01*
X97765D02*X98210D01*
X97765D02*X97320Y160385D01*
Y159050D02*Y160385D01*
X96875Y160830D01*
X96430D02*X96875D01*
X96430D02*X95985Y160385D01*
Y159050D02*Y160385D01*
X99100Y160830D02*X98655Y160385D01*
X126957Y126631D02*Y126720D01*
Y124050D02*Y125385D01*
X124732Y125830D02*X124287Y125385D01*
X124732Y125830D02*X125622D01*
X126067Y125385D02*X125622Y125830D01*
X126067Y124495D02*Y125385D01*
Y124495D02*X125622Y124050D01*
X124287Y124495D02*Y125830D01*
Y124495D02*X123842Y124050D01*
X124732D02*X125622D01*
X124732D02*X124287Y124495D01*
X120994Y124050D02*X122329D01*
X120994D02*X120549Y124495D01*
X120994Y124940D02*X120549Y124495D01*
X120994Y124940D02*X122329D01*
X122774Y125385D02*X122329Y124940D01*
X122774Y125385D02*X122329Y125830D01*
X120994D02*X122329D01*
X120994D02*X120549Y125385D01*
X122774Y124495D02*X122329Y124050D01*
X117701Y125830D02*X119036D01*
X119481Y125385D02*X119036Y125830D01*
X119481Y124495D02*Y125385D01*
Y124495D02*X119036Y124050D01*
X117701D02*X119036D01*
X115298Y125830D02*X114853Y125385D01*
X115298Y125830D02*X116188D01*
X116633Y125385D02*X116188Y125830D01*
X116633Y124495D02*Y125385D01*
Y124495D02*X116188Y124050D01*
X114853Y124495D02*Y125830D01*
Y124495D02*X114408Y124050D01*
X115298D02*X116188D01*
X115298D02*X114853Y124495D01*
X113340D02*Y127610D01*
Y124495D02*X112895Y124050D01*
X110225D02*X111560D01*
X112005Y124495D02*X111560Y124050D01*
X112005Y124495D02*Y125385D01*
X111560Y125830D01*
X110670D02*X111560D01*
X110670D02*X110225Y125385D01*
Y124940D02*X112005D01*
X110225D02*Y125385D01*
X107377Y124050D02*Y127610D01*
X107822Y124050D02*X107377Y124495D01*
X107822Y124050D02*X108712D01*
X109157Y124495D02*X108712Y124050D01*
X109157Y124495D02*Y125385D01*
X108712Y125830D01*
X107822D02*X108712D01*
X107822D02*X107377Y125385D01*
X105864Y124050D02*X106309D01*
X103016Y125830D02*X104351D01*
X104796Y125385D02*X104351Y125830D01*
X104796Y124495D02*Y125385D01*
Y124495D02*X104351Y124050D01*
X103016D02*X104351D01*
X101948Y124495D02*Y125385D01*
X101503Y125830D01*
X100613D02*X101503D01*
X100613D02*X100168Y125385D01*
Y124495D02*Y125385D01*
X100613Y124050D02*X100168Y124495D01*
X100613Y124050D02*X101503D01*
X101948Y124495D02*X101503Y124050D01*
X98655D02*Y125385D01*
X98210Y125830D01*
X97765D02*X98210D01*
X97765D02*X97320Y125385D01*
Y124050D02*Y125385D01*
X96875Y125830D01*
X96430D02*X96875D01*
X96430D02*X95985Y125385D01*
Y124050D02*Y125385D01*
X99100Y125830D02*X98655Y125385D01*
X126957Y91631D02*Y91720D01*
Y89050D02*Y90385D01*
X124732Y90830D02*X124287Y90385D01*
X124732Y90830D02*X125622D01*
X126067Y90385D02*X125622Y90830D01*
X126067Y89495D02*Y90385D01*
Y89495D02*X125622Y89050D01*
X124287Y89495D02*Y90830D01*
Y89495D02*X123842Y89050D01*
X124732D02*X125622D01*
X124732D02*X124287Y89495D01*
X120994Y89050D02*X122329D01*
X120994D02*X120549Y89495D01*
X120994Y89940D02*X120549Y89495D01*
X120994Y89940D02*X122329D01*
X122774Y90385D02*X122329Y89940D01*
X122774Y90385D02*X122329Y90830D01*
X120994D02*X122329D01*
X120994D02*X120549Y90385D01*
X122774Y89495D02*X122329Y89050D01*
X117701Y90830D02*X119036D01*
X119481Y90385D02*X119036Y90830D01*
X119481Y89495D02*Y90385D01*
Y89495D02*X119036Y89050D01*
X117701D02*X119036D01*
X115298Y90830D02*X114853Y90385D01*
X115298Y90830D02*X116188D01*
X116633Y90385D02*X116188Y90830D01*
X116633Y89495D02*Y90385D01*
Y89495D02*X116188Y89050D01*
X114853Y89495D02*Y90830D01*
Y89495D02*X114408Y89050D01*
X115298D02*X116188D01*
X115298D02*X114853Y89495D01*
X113340D02*Y92610D01*
Y89495D02*X112895Y89050D01*
X110225D02*X111560D01*
X112005Y89495D02*X111560Y89050D01*
X112005Y89495D02*Y90385D01*
X111560Y90830D01*
X110670D02*X111560D01*
X110670D02*X110225Y90385D01*
Y89940D02*X112005D01*
X110225D02*Y90385D01*
X107377Y89050D02*Y92610D01*
X107822Y89050D02*X107377Y89495D01*
X107822Y89050D02*X108712D01*
X109157Y89495D02*X108712Y89050D01*
X109157Y89495D02*Y90385D01*
X108712Y90830D01*
X107822D02*X108712D01*
X107822D02*X107377Y90385D01*
X105864Y89050D02*X106309D01*
X103016Y90830D02*X104351D01*
X104796Y90385D02*X104351Y90830D01*
X104796Y89495D02*Y90385D01*
Y89495D02*X104351Y89050D01*
X103016D02*X104351D01*
X101948Y89495D02*Y90385D01*
X101503Y90830D01*
X100613D02*X101503D01*
X100613D02*X100168Y90385D01*
Y89495D02*Y90385D01*
X100613Y89050D02*X100168Y89495D01*
X100613Y89050D02*X101503D01*
X101948Y89495D02*X101503Y89050D01*
X98655D02*Y90385D01*
X98210Y90830D01*
X97765D02*X98210D01*
X97765D02*X97320Y90385D01*
Y89050D02*Y90385D01*
X96875Y90830D01*
X96430D02*X96875D01*
X96430D02*X95985Y90385D01*
Y89050D02*Y90385D01*
X99100Y90830D02*X98655Y90385D01*
X261800Y436000D02*Y437500D01*
X264000Y435500D02*Y437500D01*
X260000D02*X264000D01*
X260000Y435500D02*Y437500D01*
X262500Y433800D02*X264000D01*
X262500D02*X262000Y433300D01*
Y432800D02*Y433300D01*
Y432800D02*X262500Y432300D01*
X264000D01*
X262000Y434300D02*X262500Y433800D01*
X262000Y429600D02*X262500Y429100D01*
X262000Y429600D02*Y430600D01*
X262500Y431100D02*X262000Y430600D01*
X262500Y431100D02*X263500D01*
X264000Y430600D01*
Y429600D02*Y430600D01*
Y429600D02*X263500Y429100D01*
X265000Y431100D02*X265500Y430600D01*
Y429600D02*Y430600D01*
Y429600D02*X265000Y429100D01*
X262000D02*X265000D01*
X264000Y427400D02*Y427900D01*
X261800Y401000D02*Y402500D01*
X264000Y400500D02*Y402500D01*
X260000D02*X264000D01*
X260000Y400500D02*Y402500D01*
X262500Y398800D02*X264000D01*
X262500D02*X262000Y398300D01*
Y397800D02*Y398300D01*
Y397800D02*X262500Y397300D01*
X264000D01*
X262000Y399300D02*X262500Y398800D01*
X262000Y394600D02*X262500Y394100D01*
X262000Y394600D02*Y395600D01*
X262500Y396100D02*X262000Y395600D01*
X262500Y396100D02*X263500D01*
X264000Y395600D01*
Y394600D02*Y395600D01*
Y394600D02*X263500Y394100D01*
X265000Y396100D02*X265500Y395600D01*
Y394600D02*Y395600D01*
Y394600D02*X265000Y394100D01*
X262000D02*X265000D01*
X264000Y392400D02*Y392900D01*
X261800Y366000D02*Y367500D01*
X264000Y365500D02*Y367500D01*
X260000D02*X264000D01*
X260000Y365500D02*Y367500D01*
X262500Y363800D02*X264000D01*
X262500D02*X262000Y363300D01*
Y362800D02*Y363300D01*
Y362800D02*X262500Y362300D01*
X264000D01*
X262000Y364300D02*X262500Y363800D01*
X262000Y359600D02*X262500Y359100D01*
X262000Y359600D02*Y360600D01*
X262500Y361100D02*X262000Y360600D01*
X262500Y361100D02*X263500D01*
X264000Y360600D01*
Y359600D02*Y360600D01*
Y359600D02*X263500Y359100D01*
X265000Y361100D02*X265500Y360600D01*
Y359600D02*Y360600D01*
Y359600D02*X265000Y359100D01*
X262000D02*X265000D01*
X264000Y357400D02*Y357900D01*
X261800Y331000D02*Y332500D01*
X264000Y330500D02*Y332500D01*
X260000D02*X264000D01*
X260000Y330500D02*Y332500D01*
X262500Y328800D02*X264000D01*
X262500D02*X262000Y328300D01*
Y327800D02*Y328300D01*
Y327800D02*X262500Y327300D01*
X264000D01*
X262000Y329300D02*X262500Y328800D01*
X262000Y324600D02*X262500Y324100D01*
X262000Y324600D02*Y325600D01*
X262500Y326100D02*X262000Y325600D01*
X262500Y326100D02*X263500D01*
X264000Y325600D01*
Y324600D02*Y325600D01*
Y324600D02*X263500Y324100D01*
X265000Y326100D02*X265500Y325600D01*
Y324600D02*Y325600D01*
Y324600D02*X265000Y324100D01*
X262000D02*X265000D01*
X264000Y322400D02*Y322900D01*
X253500Y439000D02*X254000Y438500D01*
X253500Y439000D02*Y440500D01*
X254000Y441000D02*X253500Y440500D01*
X254000Y441000D02*X255000D01*
X255500Y440500D01*
Y439000D02*Y440500D01*
Y439000D02*X256000Y438500D01*
X257000D01*
X257500Y439000D02*X257000Y438500D01*
X257500Y439000D02*Y440500D01*
X257000Y441000D02*X257500Y440500D01*
X255500Y435300D02*Y436800D01*
X256000Y437300D02*X255500Y436800D01*
X256000Y437300D02*X257000D01*
X257500Y436800D01*
Y435300D02*Y436800D01*
X255500Y432600D02*X256000Y432100D01*
X255500Y432600D02*Y433600D01*
X256000Y434100D02*X255500Y433600D01*
X256000Y434100D02*X257000D01*
X257500Y433600D01*
X255500Y432100D02*X257000D01*
X257500Y431600D01*
Y432600D02*Y433600D01*
Y432600D02*X257000Y432100D01*
X253500Y430400D02*X257000D01*
X257500Y429900D01*
Y426900D02*Y428400D01*
X257000Y428900D02*X257500Y428400D01*
X256000Y428900D02*X257000D01*
X256000D02*X255500Y428400D01*
Y427400D02*Y428400D01*
Y427400D02*X256000Y426900D01*
X256500D02*Y428900D01*
X256000Y426900D02*X256500D01*
X253500Y423700D02*X257500D01*
Y424200D02*X257000Y423700D01*
X257500Y424200D02*Y425200D01*
X257000Y425700D02*X257500Y425200D01*
X256000Y425700D02*X257000D01*
X256000D02*X255500Y425200D01*
Y424200D02*Y425200D01*
Y424200D02*X256000Y423700D01*
X253500Y404000D02*X254000Y403500D01*
X253500Y404000D02*Y405500D01*
X254000Y406000D02*X253500Y405500D01*
X254000Y406000D02*X255000D01*
X255500Y405500D01*
Y404000D02*Y405500D01*
Y404000D02*X256000Y403500D01*
X257000D01*
X257500Y404000D02*X257000Y403500D01*
X257500Y404000D02*Y405500D01*
X257000Y406000D02*X257500Y405500D01*
X255500Y400300D02*Y401800D01*
X256000Y402300D02*X255500Y401800D01*
X256000Y402300D02*X257000D01*
X257500Y401800D01*
Y400300D02*Y401800D01*
X255500Y397600D02*X256000Y397100D01*
X255500Y397600D02*Y398600D01*
X256000Y399100D02*X255500Y398600D01*
X256000Y399100D02*X257000D01*
X257500Y398600D01*
X255500Y397100D02*X257000D01*
X257500Y396600D01*
Y397600D02*Y398600D01*
Y397600D02*X257000Y397100D01*
X253500Y395400D02*X257000D01*
X257500Y394900D01*
Y391900D02*Y393400D01*
X257000Y393900D02*X257500Y393400D01*
X256000Y393900D02*X257000D01*
X256000D02*X255500Y393400D01*
Y392400D02*Y393400D01*
Y392400D02*X256000Y391900D01*
X256500D02*Y393900D01*
X256000Y391900D02*X256500D01*
X253500Y388700D02*X257500D01*
Y389200D02*X257000Y388700D01*
X257500Y389200D02*Y390200D01*
X257000Y390700D02*X257500Y390200D01*
X256000Y390700D02*X257000D01*
X256000D02*X255500Y390200D01*
Y389200D02*Y390200D01*
Y389200D02*X256000Y388700D01*
X247000Y402500D02*Y403500D01*
Y403000D02*X251000D01*
Y402500D02*Y403500D01*
X249500Y401300D02*X250500D01*
X249500D02*X249000Y400800D01*
Y399800D02*Y400800D01*
Y399800D02*X249500Y399300D01*
X250500D01*
X251000Y399800D02*X250500Y399300D01*
X251000Y399800D02*Y400800D01*
X250500Y401300D02*X251000Y400800D01*
X249000Y398100D02*X250500D01*
X251000Y397600D01*
Y397100D02*Y397600D01*
Y397100D02*X250500Y396600D01*
X249000D02*X250500D01*
X251000Y396100D01*
Y395600D02*Y396100D01*
Y395600D02*X250500Y395100D01*
X249000D02*X250500D01*
X249000Y392400D02*X249500Y391900D01*
X249000Y392400D02*Y393400D01*
X249500Y393900D02*X249000Y393400D01*
X249500Y393900D02*X250500D01*
X251000Y393400D01*
X249000Y391900D02*X250500D01*
X251000Y391400D01*
Y392400D02*Y393400D01*
Y392400D02*X250500Y391900D01*
X253500Y369000D02*X254000Y368500D01*
X253500Y369000D02*Y370500D01*
X254000Y371000D02*X253500Y370500D01*
X254000Y371000D02*X255000D01*
X255500Y370500D01*
Y369000D02*Y370500D01*
Y369000D02*X256000Y368500D01*
X257000D01*
X257500Y369000D02*X257000Y368500D01*
X257500Y369000D02*Y370500D01*
X257000Y371000D02*X257500Y370500D01*
X255500Y365300D02*Y366800D01*
X256000Y367300D02*X255500Y366800D01*
X256000Y367300D02*X257000D01*
X257500Y366800D01*
Y365300D02*Y366800D01*
X255500Y362600D02*X256000Y362100D01*
X255500Y362600D02*Y363600D01*
X256000Y364100D02*X255500Y363600D01*
X256000Y364100D02*X257000D01*
X257500Y363600D01*
X255500Y362100D02*X257000D01*
X257500Y361600D01*
Y362600D02*Y363600D01*
Y362600D02*X257000Y362100D01*
X253500Y360400D02*X257000D01*
X257500Y359900D01*
Y356900D02*Y358400D01*
X257000Y358900D02*X257500Y358400D01*
X256000Y358900D02*X257000D01*
X256000D02*X255500Y358400D01*
Y357400D02*Y358400D01*
Y357400D02*X256000Y356900D01*
X256500D02*Y358900D01*
X256000Y356900D02*X256500D01*
X253500Y353700D02*X257500D01*
Y354200D02*X257000Y353700D01*
X257500Y354200D02*Y355200D01*
X257000Y355700D02*X257500Y355200D01*
X256000Y355700D02*X257000D01*
X256000D02*X255500Y355200D01*
Y354200D02*Y355200D01*
Y354200D02*X256000Y353700D01*
X247000Y367500D02*Y368500D01*
Y368000D02*X251000D01*
Y367500D02*Y368500D01*
X249500Y366300D02*X250500D01*
X249500D02*X249000Y365800D01*
Y364800D02*Y365800D01*
Y364800D02*X249500Y364300D01*
X250500D01*
X251000Y364800D02*X250500Y364300D01*
X251000Y364800D02*Y365800D01*
X250500Y366300D02*X251000Y365800D01*
X249000Y363100D02*X250500D01*
X251000Y362600D01*
Y362100D02*Y362600D01*
Y362100D02*X250500Y361600D01*
X249000D02*X250500D01*
X251000Y361100D01*
Y360600D02*Y361100D01*
Y360600D02*X250500Y360100D01*
X249000D02*X250500D01*
X249000Y357400D02*X249500Y356900D01*
X249000Y357400D02*Y358400D01*
X249500Y358900D02*X249000Y358400D01*
X249500Y358900D02*X250500D01*
X251000Y358400D01*
X249000Y356900D02*X250500D01*
X251000Y356400D01*
Y357400D02*Y358400D01*
Y357400D02*X250500Y356900D01*
X253500Y334000D02*X254000Y333500D01*
X253500Y334000D02*Y335500D01*
X254000Y336000D02*X253500Y335500D01*
X254000Y336000D02*X255000D01*
X255500Y335500D01*
Y334000D02*Y335500D01*
Y334000D02*X256000Y333500D01*
X257000D01*
X257500Y334000D02*X257000Y333500D01*
X257500Y334000D02*Y335500D01*
X257000Y336000D02*X257500Y335500D01*
X255500Y330300D02*Y331800D01*
X256000Y332300D02*X255500Y331800D01*
X256000Y332300D02*X257000D01*
X257500Y331800D01*
Y330300D02*Y331800D01*
X255500Y327600D02*X256000Y327100D01*
X255500Y327600D02*Y328600D01*
X256000Y329100D02*X255500Y328600D01*
X256000Y329100D02*X257000D01*
X257500Y328600D01*
X255500Y327100D02*X257000D01*
X257500Y326600D01*
Y327600D02*Y328600D01*
Y327600D02*X257000Y327100D01*
X253500Y325400D02*X257000D01*
X257500Y324900D01*
Y321900D02*Y323400D01*
X257000Y323900D02*X257500Y323400D01*
X256000Y323900D02*X257000D01*
X256000D02*X255500Y323400D01*
Y322400D02*Y323400D01*
Y322400D02*X256000Y321900D01*
X256500D02*Y323900D01*
X256000Y321900D02*X256500D01*
X253500Y318700D02*X257500D01*
Y319200D02*X257000Y318700D01*
X257500Y319200D02*Y320200D01*
X257000Y320700D02*X257500Y320200D01*
X256000Y320700D02*X257000D01*
X256000D02*X255500Y320200D01*
Y319200D02*Y320200D01*
Y319200D02*X256000Y318700D01*
X247000Y332500D02*Y333500D01*
Y333000D02*X251000D01*
Y332500D02*Y333500D01*
X249500Y331300D02*X250500D01*
X249500D02*X249000Y330800D01*
Y329800D02*Y330800D01*
Y329800D02*X249500Y329300D01*
X250500D01*
X251000Y329800D02*X250500Y329300D01*
X251000Y329800D02*Y330800D01*
X250500Y331300D02*X251000Y330800D01*
X249000Y328100D02*X250500D01*
X251000Y327600D01*
Y327100D02*Y327600D01*
Y327100D02*X250500Y326600D01*
X249000D02*X250500D01*
X251000Y326100D01*
Y325600D02*Y326100D01*
Y325600D02*X250500Y325100D01*
X249000D02*X250500D01*
X249000Y322400D02*X249500Y321900D01*
X249000Y322400D02*Y323400D01*
X249500Y323900D02*X249000Y323400D01*
X249500Y323900D02*X250500D01*
X251000Y323400D01*
X249000Y321900D02*X250500D01*
X251000Y321400D01*
Y322400D02*Y323400D01*
Y322400D02*X250500Y321900D01*
X223717Y336380D02*X225957D01*
X224837Y331900D02*Y336380D01*
X221813Y331900D02*Y333580D01*
X221253Y334140D01*
X220133D02*X221253D01*
X222373D02*X221813Y333580D01*
X217109Y334140D02*X216549Y333580D01*
X217109Y334140D02*X218229D01*
X218789Y333580D02*X218229Y334140D01*
X218789Y332460D02*Y333580D01*
Y332460D02*X218229Y331900D01*
X216549Y332460D02*Y334140D01*
Y332460D02*X215989Y331900D01*
X217109D02*X218229D01*
X217109D02*X216549Y332460D01*
X214645Y335148D02*Y335260D01*
Y331900D02*Y333580D01*
X212965Y331900D02*Y333580D01*
X212405Y334140D01*
X211845D02*X212405D01*
X211845D02*X211285Y333580D01*
Y331900D02*Y333580D01*
X213525Y334140D02*X212965Y333580D01*
X207701Y336380D02*X207141Y335820D01*
X207701Y336380D02*X209381D01*
X209941Y335820D02*X209381Y336380D01*
X209941Y334700D02*Y335820D01*
Y334700D02*X209381Y334140D01*
X207701D02*X209381D01*
X207701D02*X207141Y333580D01*
Y332460D02*Y333580D01*
X207701Y331900D02*X207141Y332460D01*
X207701Y331900D02*X209381D01*
X209941Y332460D02*X209381Y331900D01*
X205237Y330220D02*Y333580D01*
X205797Y334140D02*X205237Y333580D01*
X204677Y334140D01*
X203557D02*X204677D01*
X203557D02*X202997Y333580D01*
Y332460D02*Y333580D01*
X203557Y331900D02*X202997Y332460D01*
X203557Y331900D02*X204677D01*
X205237Y332460D02*X204677Y331900D01*
X201653Y332460D02*Y333580D01*
X201093Y334140D01*
X199973D02*X201093D01*
X199973D02*X199413Y333580D01*
Y332460D02*Y333580D01*
X199973Y331900D02*X199413Y332460D01*
X199973Y331900D02*X201093D01*
X201653Y332460D02*X201093Y331900D01*
X197509Y332460D02*Y336380D01*
Y332460D02*X196949Y331900D01*
Y334700D02*X198069D01*
X195269Y332460D02*Y336380D01*
Y332460D02*X194709Y331900D01*
Y334700D02*X195829D01*
X191349Y331900D02*X193029D01*
X193589Y332460D02*X193029Y331900D01*
X193589Y332460D02*Y333580D01*
X193029Y334140D01*
X191909D02*X193029D01*
X191909D02*X191349Y333580D01*
Y333020D02*X193589D01*
X191349D02*Y333580D01*
X189445Y331900D02*Y333580D01*
X188885Y334140D01*
X187765D02*X188885D01*
X190005D02*X189445Y333580D01*
X234200Y325000D02*X235370D01*
X236000Y325630D02*X235370Y325000D01*
X236000Y325630D02*Y327970D01*
X235370Y328600D01*
X234200D02*X235370D01*
X233120Y325000D02*Y328600D01*
Y326800D02*X231320Y328600D01*
X233120Y326800D02*X231320Y325000D01*
X228440Y328600D02*X230240D01*
X229340Y325000D02*Y328600D01*
X225560Y326800D02*X227360D01*
X223580Y328600D02*X224480D01*
X224030Y325000D02*Y328600D01*
X223580Y325000D02*X224480D01*
X220700Y328600D02*X222500D01*
X220700D02*X220250Y328150D01*
Y327250D02*Y328150D01*
X220700Y326800D02*X220250Y327250D01*
X220700Y326800D02*X222050D01*
Y325000D02*Y328600D01*
X221330Y326800D02*X220250Y325000D01*
X217370Y328600D02*X216920Y328150D01*
X217370Y328600D02*X218720D01*
X219170Y328150D02*X218720Y328600D01*
X219170Y327250D02*Y328150D01*
Y327250D02*X218720Y326800D01*
X217370D02*X218720D01*
X217370D02*X216920Y326350D01*
Y325450D02*Y326350D01*
X217370Y325000D02*X216920Y325450D01*
X217370Y325000D02*X218720D01*
X219170Y325450D02*X218720Y325000D01*
X214490Y326980D02*X215840D01*
X214040Y325000D02*X215840D01*
Y328600D01*
X214040D02*X215840D01*
X212960Y325000D02*Y328600D01*
X210710Y325000D01*
Y328600D01*
X207830D02*X207380Y328150D01*
X207830Y328600D02*X209180D01*
X209630Y328150D02*X209180Y328600D01*
X209630Y327250D02*Y328150D01*
Y327250D02*X209180Y326800D01*
X207830D02*X209180D01*
X207830D02*X207380Y326350D01*
Y325450D02*Y326350D01*
X207830Y325000D02*X207380Y325450D01*
X207830Y325000D02*X209180D01*
X209630Y325450D02*X209180Y325000D01*
X204950Y326980D02*X206300D01*
X204500Y325000D02*X206300D01*
Y328600D01*
X204500D02*X206300D01*
X201620Y326800D02*X203420D01*
X198740Y328600D02*X200540D01*
X198740D02*X198290Y328150D01*
Y327250D02*Y328150D01*
X198740Y326800D02*X198290Y327250D01*
X198740Y326800D02*X200090D01*
Y325000D02*Y328600D01*
X199370Y326800D02*X198290Y325000D01*
X197210D02*Y327700D01*
X196580Y328600D01*
X195590D02*X196580D01*
X195590D02*X194960Y327700D01*
Y325000D02*Y327700D01*
Y326800D02*X197210D01*
X192260D02*X191360Y325000D01*
X190460Y326800D02*X191360Y325000D01*
X189380Y326350D02*X187580Y328600D01*
X187130Y326350D02*X189380D01*
X187580Y325000D02*Y328600D01*
X185600Y325000D02*X186050D01*
X182720Y328600D02*X184520D01*
Y326800D02*Y328600D01*
Y326800D02*X184070Y327250D01*
X183170D02*X184070D01*
X183170D02*X182720Y326800D01*
Y325450D02*Y326800D01*
X183170Y325000D02*X182720Y325450D01*
X183170Y325000D02*X184070D01*
X184520Y325450D02*X184070Y325000D01*
X201500Y318900D02*X201100Y318500D01*
X201500Y321300D02*X201100Y321700D01*
X201500Y318900D02*Y321300D01*
X198540Y318500D02*X199580D01*
X200140Y319060D02*X199580Y318500D01*
X200140Y319060D02*Y321140D01*
X199580Y321700D01*
X198540D02*X199580D01*
X197580D02*X197180Y321300D01*
Y318900D02*Y321300D01*
X197580Y318500D02*X197180Y318900D01*
X196220Y321300D02*X195820Y321700D01*
X194620D02*X195820D01*
X194620D02*X194220Y321300D01*
Y320500D02*Y321300D01*
X196220Y318500D02*X194220Y320500D01*
Y318500D02*X196220D01*
X193260Y318900D02*X192860Y318500D01*
X193260Y318900D02*Y321300D01*
X192860Y321700D01*
X192060D02*X192860D01*
X192060D02*X191660Y321300D01*
Y318900D02*Y321300D01*
X192060Y318500D02*X191660Y318900D01*
X192060Y318500D02*X192860D01*
X193260Y319300D02*X191660Y320900D01*
X190700Y321300D02*X190300Y321700D01*
X189100D02*X190300D01*
X189100D02*X188700Y321300D01*
Y320500D02*Y321300D01*
X190700Y318500D02*X188700Y320500D01*
Y318500D02*X190700D01*
X186140Y321700D02*X187740D01*
Y320100D02*Y321700D01*
Y320100D02*X187340Y320500D01*
X186540D02*X187340D01*
X186540D02*X186140Y320100D01*
Y318900D02*Y320100D01*
X186540Y318500D02*X186140Y318900D01*
X186540Y318500D02*X187340D01*
X187740Y318900D02*X187340Y318500D01*
X226400D02*X227440D01*
X228000Y319060D02*X227440Y318500D01*
X228000Y319060D02*Y321140D01*
X227440Y321700D01*
X226400D02*X227440D01*
X223840Y318500D02*X224880D01*
X225440Y319060D02*X224880Y318500D01*
X225440Y319060D02*Y321140D01*
X224880Y321700D01*
X223840D02*X224880D01*
X221280Y320100D02*X222880D01*
X218720Y318500D02*X220320D01*
X218720D02*X218320Y318900D01*
Y319860D01*
X218720Y320260D02*X218320Y319860D01*
X218720Y320260D02*X219920D01*
Y318500D02*Y321700D01*
X218720D02*X220320D01*
X218720D02*X218320Y321300D01*
Y320660D02*Y321300D01*
X218720Y320260D02*X218320Y320660D01*
X217360Y321700D02*X216560Y320100D01*
X215760Y321700D01*
X216560Y318500D02*Y320100D01*
X213200D02*X214800D01*
X210640Y321700D02*X210240Y321300D01*
X210640Y321700D02*X211840D01*
X212240Y321300D02*X211840Y321700D01*
X212240Y320500D02*Y321300D01*
Y320500D02*X211840Y320100D01*
X210640D02*X211840D01*
X210640D02*X210240Y319700D01*
Y318900D02*Y319700D01*
X210640Y318500D02*X210240Y318900D01*
X210640Y318500D02*X211840D01*
X212240Y318900D02*X211840Y318500D01*
X209280D02*Y320900D01*
X208720Y321700D01*
X207840D02*X208720D01*
X207840D02*X207280Y320900D01*
Y318500D02*Y320900D01*
Y320100D02*X209280D01*
X223717Y301380D02*X225957D01*
X224837Y296900D02*Y301380D01*
X221813Y296900D02*Y298580D01*
X221253Y299140D01*
X220133D02*X221253D01*
X222373D02*X221813Y298580D01*
X217109Y299140D02*X216549Y298580D01*
X217109Y299140D02*X218229D01*
X218789Y298580D02*X218229Y299140D01*
X218789Y297460D02*Y298580D01*
Y297460D02*X218229Y296900D01*
X216549Y297460D02*Y299140D01*
Y297460D02*X215989Y296900D01*
X217109D02*X218229D01*
X217109D02*X216549Y297460D01*
X214645Y300148D02*Y300260D01*
Y296900D02*Y298580D01*
X212965Y296900D02*Y298580D01*
X212405Y299140D01*
X211845D02*X212405D01*
X211845D02*X211285Y298580D01*
Y296900D02*Y298580D01*
X213525Y299140D02*X212965Y298580D01*
X207701Y301380D02*X207141Y300820D01*
X207701Y301380D02*X209381D01*
X209941Y300820D02*X209381Y301380D01*
X209941Y299700D02*Y300820D01*
Y299700D02*X209381Y299140D01*
X207701D02*X209381D01*
X207701D02*X207141Y298580D01*
Y297460D02*Y298580D01*
X207701Y296900D02*X207141Y297460D01*
X207701Y296900D02*X209381D01*
X209941Y297460D02*X209381Y296900D01*
X205237Y295220D02*Y298580D01*
X205797Y299140D02*X205237Y298580D01*
X204677Y299140D01*
X203557D02*X204677D01*
X203557D02*X202997Y298580D01*
Y297460D02*Y298580D01*
X203557Y296900D02*X202997Y297460D01*
X203557Y296900D02*X204677D01*
X205237Y297460D02*X204677Y296900D01*
X201653Y297460D02*Y298580D01*
X201093Y299140D01*
X199973D02*X201093D01*
X199973D02*X199413Y298580D01*
Y297460D02*Y298580D01*
X199973Y296900D02*X199413Y297460D01*
X199973Y296900D02*X201093D01*
X201653Y297460D02*X201093Y296900D01*
X197509Y297460D02*Y301380D01*
Y297460D02*X196949Y296900D01*
Y299700D02*X198069D01*
X195269Y297460D02*Y301380D01*
Y297460D02*X194709Y296900D01*
Y299700D02*X195829D01*
X191349Y296900D02*X193029D01*
X193589Y297460D02*X193029Y296900D01*
X193589Y297460D02*Y298580D01*
X193029Y299140D01*
X191909D02*X193029D01*
X191909D02*X191349Y298580D01*
Y298020D02*X193589D01*
X191349D02*Y298580D01*
X189445Y296900D02*Y298580D01*
X188885Y299140D01*
X187765D02*X188885D01*
X190005D02*X189445Y298580D01*
X201500Y283900D02*X201100Y283500D01*
X201500Y286300D02*X201100Y286700D01*
X201500Y283900D02*Y286300D01*
X198540Y283500D02*X199580D01*
X200140Y284060D02*X199580Y283500D01*
X200140Y284060D02*Y286140D01*
X199580Y286700D01*
X198540D02*X199580D01*
X197580D02*X197180Y286300D01*
Y283900D02*Y286300D01*
X197580Y283500D02*X197180Y283900D01*
X196220Y286300D02*X195820Y286700D01*
X194620D02*X195820D01*
X194620D02*X194220Y286300D01*
Y285500D02*Y286300D01*
X196220Y283500D02*X194220Y285500D01*
Y283500D02*X196220D01*
X193260Y283900D02*X192860Y283500D01*
X193260Y283900D02*Y286300D01*
X192860Y286700D01*
X192060D02*X192860D01*
X192060D02*X191660Y286300D01*
Y283900D02*Y286300D01*
X192060Y283500D02*X191660Y283900D01*
X192060Y283500D02*X192860D01*
X193260Y284300D02*X191660Y285900D01*
X190700Y286300D02*X190300Y286700D01*
X189100D02*X190300D01*
X189100D02*X188700Y286300D01*
Y285500D02*Y286300D01*
X190700Y283500D02*X188700Y285500D01*
Y283500D02*X190700D01*
X186140Y286700D02*X187740D01*
Y285100D02*Y286700D01*
Y285100D02*X187340Y285500D01*
X186540D02*X187340D01*
X186540D02*X186140Y285100D01*
Y283900D02*Y285100D01*
X186540Y283500D02*X186140Y283900D01*
X186540Y283500D02*X187340D01*
X187740Y283900D02*X187340Y283500D01*
X226400D02*X227440D01*
X228000Y284060D02*X227440Y283500D01*
X228000Y284060D02*Y286140D01*
X227440Y286700D01*
X226400D02*X227440D01*
X223840Y283500D02*X224880D01*
X225440Y284060D02*X224880Y283500D01*
X225440Y284060D02*Y286140D01*
X224880Y286700D01*
X223840D02*X224880D01*
X221280Y285100D02*X222880D01*
X218720Y283500D02*X220320D01*
X218720D02*X218320Y283900D01*
Y284860D01*
X218720Y285260D02*X218320Y284860D01*
X218720Y285260D02*X219920D01*
Y283500D02*Y286700D01*
X218720D02*X220320D01*
X218720D02*X218320Y286300D01*
Y285660D02*Y286300D01*
X218720Y285260D02*X218320Y285660D01*
X217360Y286700D02*X216560Y285100D01*
X215760Y286700D01*
X216560Y283500D02*Y285100D01*
X213200D02*X214800D01*
X210640Y286700D02*X210240Y286300D01*
X210640Y286700D02*X211840D01*
X212240Y286300D02*X211840Y286700D01*
X212240Y285500D02*Y286300D01*
Y285500D02*X211840Y285100D01*
X210640D02*X211840D01*
X210640D02*X210240Y284700D01*
Y283900D02*Y284700D01*
X210640Y283500D02*X210240Y283900D01*
X210640Y283500D02*X211840D01*
X212240Y283900D02*X211840Y283500D01*
X209280D02*Y285900D01*
X208720Y286700D01*
X207840D02*X208720D01*
X207840D02*X207280Y285900D01*
Y283500D02*Y285900D01*
Y285100D02*X209280D01*
X234200Y290000D02*X235370D01*
X236000Y290630D02*X235370Y290000D01*
X236000Y290630D02*Y292970D01*
X235370Y293600D01*
X234200D02*X235370D01*
X233120Y290000D02*Y293600D01*
Y291800D02*X231320Y293600D01*
X233120Y291800D02*X231320Y290000D01*
X228440Y293600D02*X230240D01*
X229340Y290000D02*Y293600D01*
X225560Y291800D02*X227360D01*
X223580Y293600D02*X224480D01*
X224030Y290000D02*Y293600D01*
X223580Y290000D02*X224480D01*
X220700Y293600D02*X222500D01*
X220700D02*X220250Y293150D01*
Y292250D02*Y293150D01*
X220700Y291800D02*X220250Y292250D01*
X220700Y291800D02*X222050D01*
Y290000D02*Y293600D01*
X221330Y291800D02*X220250Y290000D01*
X217370Y293600D02*X216920Y293150D01*
X217370Y293600D02*X218720D01*
X219170Y293150D02*X218720Y293600D01*
X219170Y292250D02*Y293150D01*
Y292250D02*X218720Y291800D01*
X217370D02*X218720D01*
X217370D02*X216920Y291350D01*
Y290450D02*Y291350D01*
X217370Y290000D02*X216920Y290450D01*
X217370Y290000D02*X218720D01*
X219170Y290450D02*X218720Y290000D01*
X214490Y291980D02*X215840D01*
X214040Y290000D02*X215840D01*
Y293600D01*
X214040D02*X215840D01*
X212960Y290000D02*Y293600D01*
X210710Y290000D01*
Y293600D01*
X207830D02*X207380Y293150D01*
X207830Y293600D02*X209180D01*
X209630Y293150D02*X209180Y293600D01*
X209630Y292250D02*Y293150D01*
Y292250D02*X209180Y291800D01*
X207830D02*X209180D01*
X207830D02*X207380Y291350D01*
Y290450D02*Y291350D01*
X207830Y290000D02*X207380Y290450D01*
X207830Y290000D02*X209180D01*
X209630Y290450D02*X209180Y290000D01*
X204950Y291980D02*X206300D01*
X204500Y290000D02*X206300D01*
Y293600D01*
X204500D02*X206300D01*
X201620Y291800D02*X203420D01*
X198740Y293600D02*X200540D01*
X198740D02*X198290Y293150D01*
Y292250D02*Y293150D01*
X198740Y291800D02*X198290Y292250D01*
X198740Y291800D02*X200090D01*
Y290000D02*Y293600D01*
X199370Y291800D02*X198290Y290000D01*
X197210D02*Y292700D01*
X196580Y293600D01*
X195590D02*X196580D01*
X195590D02*X194960Y292700D01*
Y290000D02*Y292700D01*
Y291800D02*X197210D01*
X192260D02*X191360Y290000D01*
X190460Y291800D02*X191360Y290000D01*
X189380Y291350D02*X187580Y293600D01*
X187130Y291350D02*X189380D01*
X187580Y290000D02*Y293600D01*
X185600Y290000D02*X186050D01*
X182720Y293600D02*X184520D01*
Y291800D02*Y293600D01*
Y291800D02*X184070Y292250D01*
X183170D02*X184070D01*
X183170D02*X182720Y291800D01*
Y290450D02*Y291800D01*
X183170Y290000D02*X182720Y290450D01*
X183170Y290000D02*X184070D01*
X184520Y290450D02*X184070Y290000D01*
X223717Y266380D02*X225957D01*
X224837Y261900D02*Y266380D01*
X221813Y261900D02*Y263580D01*
X221253Y264140D01*
X220133D02*X221253D01*
X222373D02*X221813Y263580D01*
X217109Y264140D02*X216549Y263580D01*
X217109Y264140D02*X218229D01*
X218789Y263580D02*X218229Y264140D01*
X218789Y262460D02*Y263580D01*
Y262460D02*X218229Y261900D01*
X216549Y262460D02*Y264140D01*
Y262460D02*X215989Y261900D01*
X217109D02*X218229D01*
X217109D02*X216549Y262460D01*
X214645Y265148D02*Y265260D01*
Y261900D02*Y263580D01*
X212965Y261900D02*Y263580D01*
X212405Y264140D01*
X211845D02*X212405D01*
X211845D02*X211285Y263580D01*
Y261900D02*Y263580D01*
X213525Y264140D02*X212965Y263580D01*
X207701Y266380D02*X207141Y265820D01*
X207701Y266380D02*X209381D01*
X209941Y265820D02*X209381Y266380D01*
X209941Y264700D02*Y265820D01*
Y264700D02*X209381Y264140D01*
X207701D02*X209381D01*
X207701D02*X207141Y263580D01*
Y262460D02*Y263580D01*
X207701Y261900D02*X207141Y262460D01*
X207701Y261900D02*X209381D01*
X209941Y262460D02*X209381Y261900D01*
X205237Y260220D02*Y263580D01*
X205797Y264140D02*X205237Y263580D01*
X204677Y264140D01*
X203557D02*X204677D01*
X203557D02*X202997Y263580D01*
Y262460D02*Y263580D01*
X203557Y261900D02*X202997Y262460D01*
X203557Y261900D02*X204677D01*
X205237Y262460D02*X204677Y261900D01*
X201653Y262460D02*Y263580D01*
X201093Y264140D01*
X199973D02*X201093D01*
X199973D02*X199413Y263580D01*
Y262460D02*Y263580D01*
X199973Y261900D02*X199413Y262460D01*
X199973Y261900D02*X201093D01*
X201653Y262460D02*X201093Y261900D01*
X197509Y262460D02*Y266380D01*
Y262460D02*X196949Y261900D01*
Y264700D02*X198069D01*
X195269Y262460D02*Y266380D01*
Y262460D02*X194709Y261900D01*
Y264700D02*X195829D01*
X191349Y261900D02*X193029D01*
X193589Y262460D02*X193029Y261900D01*
X193589Y262460D02*Y263580D01*
X193029Y264140D01*
X191909D02*X193029D01*
X191909D02*X191349Y263580D01*
Y263020D02*X193589D01*
X191349D02*Y263580D01*
X189445Y261900D02*Y263580D01*
X188885Y264140D01*
X187765D02*X188885D01*
X190005D02*X189445Y263580D01*
X201500Y248900D02*X201100Y248500D01*
X201500Y251300D02*X201100Y251700D01*
X201500Y248900D02*Y251300D01*
X198540Y248500D02*X199580D01*
X200140Y249060D02*X199580Y248500D01*
X200140Y249060D02*Y251140D01*
X199580Y251700D01*
X198540D02*X199580D01*
X197580D02*X197180Y251300D01*
Y248900D02*Y251300D01*
X197580Y248500D02*X197180Y248900D01*
X196220Y251300D02*X195820Y251700D01*
X194620D02*X195820D01*
X194620D02*X194220Y251300D01*
Y250500D02*Y251300D01*
X196220Y248500D02*X194220Y250500D01*
Y248500D02*X196220D01*
X193260Y248900D02*X192860Y248500D01*
X193260Y248900D02*Y251300D01*
X192860Y251700D01*
X192060D02*X192860D01*
X192060D02*X191660Y251300D01*
Y248900D02*Y251300D01*
X192060Y248500D02*X191660Y248900D01*
X192060Y248500D02*X192860D01*
X193260Y249300D02*X191660Y250900D01*
X190700Y251300D02*X190300Y251700D01*
X189100D02*X190300D01*
X189100D02*X188700Y251300D01*
Y250500D02*Y251300D01*
X190700Y248500D02*X188700Y250500D01*
Y248500D02*X190700D01*
X186140Y251700D02*X187740D01*
Y250100D02*Y251700D01*
Y250100D02*X187340Y250500D01*
X186540D02*X187340D01*
X186540D02*X186140Y250100D01*
Y248900D02*Y250100D01*
X186540Y248500D02*X186140Y248900D01*
X186540Y248500D02*X187340D01*
X187740Y248900D02*X187340Y248500D01*
X226400D02*X227440D01*
X228000Y249060D02*X227440Y248500D01*
X228000Y249060D02*Y251140D01*
X227440Y251700D01*
X226400D02*X227440D01*
X223840Y248500D02*X224880D01*
X225440Y249060D02*X224880Y248500D01*
X225440Y249060D02*Y251140D01*
X224880Y251700D01*
X223840D02*X224880D01*
X221280Y250100D02*X222880D01*
X218720Y248500D02*X220320D01*
X218720D02*X218320Y248900D01*
Y249860D01*
X218720Y250260D02*X218320Y249860D01*
X218720Y250260D02*X219920D01*
Y248500D02*Y251700D01*
X218720D02*X220320D01*
X218720D02*X218320Y251300D01*
Y250660D02*Y251300D01*
X218720Y250260D02*X218320Y250660D01*
X217360Y251700D02*X216560Y250100D01*
X215760Y251700D01*
X216560Y248500D02*Y250100D01*
X213200D02*X214800D01*
X210640Y251700D02*X210240Y251300D01*
X210640Y251700D02*X211840D01*
X212240Y251300D02*X211840Y251700D01*
X212240Y250500D02*Y251300D01*
Y250500D02*X211840Y250100D01*
X210640D02*X211840D01*
X210640D02*X210240Y249700D01*
Y248900D02*Y249700D01*
X210640Y248500D02*X210240Y248900D01*
X210640Y248500D02*X211840D01*
X212240Y248900D02*X211840Y248500D01*
X209280D02*Y250900D01*
X208720Y251700D01*
X207840D02*X208720D01*
X207840D02*X207280Y250900D01*
Y248500D02*Y250900D01*
Y250100D02*X209280D01*
X223717Y231380D02*X225957D01*
X224837Y226900D02*Y231380D01*
X221813Y226900D02*Y228580D01*
X221253Y229140D01*
X220133D02*X221253D01*
X222373D02*X221813Y228580D01*
X217109Y229140D02*X216549Y228580D01*
X217109Y229140D02*X218229D01*
X218789Y228580D02*X218229Y229140D01*
X218789Y227460D02*Y228580D01*
Y227460D02*X218229Y226900D01*
X216549Y227460D02*Y229140D01*
Y227460D02*X215989Y226900D01*
X217109D02*X218229D01*
X217109D02*X216549Y227460D01*
X214645Y230148D02*Y230260D01*
Y226900D02*Y228580D01*
X212965Y226900D02*Y228580D01*
X212405Y229140D01*
X211845D02*X212405D01*
X211845D02*X211285Y228580D01*
Y226900D02*Y228580D01*
X213525Y229140D02*X212965Y228580D01*
X207701Y231380D02*X207141Y230820D01*
X207701Y231380D02*X209381D01*
X209941Y230820D02*X209381Y231380D01*
X209941Y229700D02*Y230820D01*
Y229700D02*X209381Y229140D01*
X207701D02*X209381D01*
X207701D02*X207141Y228580D01*
Y227460D02*Y228580D01*
X207701Y226900D02*X207141Y227460D01*
X207701Y226900D02*X209381D01*
X209941Y227460D02*X209381Y226900D01*
X205237Y225220D02*Y228580D01*
X205797Y229140D02*X205237Y228580D01*
X204677Y229140D01*
X203557D02*X204677D01*
X203557D02*X202997Y228580D01*
Y227460D02*Y228580D01*
X203557Y226900D02*X202997Y227460D01*
X203557Y226900D02*X204677D01*
X205237Y227460D02*X204677Y226900D01*
X201653Y227460D02*Y228580D01*
X201093Y229140D01*
X199973D02*X201093D01*
X199973D02*X199413Y228580D01*
Y227460D02*Y228580D01*
X199973Y226900D02*X199413Y227460D01*
X199973Y226900D02*X201093D01*
X201653Y227460D02*X201093Y226900D01*
X197509Y227460D02*Y231380D01*
Y227460D02*X196949Y226900D01*
Y229700D02*X198069D01*
X195269Y227460D02*Y231380D01*
Y227460D02*X194709Y226900D01*
Y229700D02*X195829D01*
X191349Y226900D02*X193029D01*
X193589Y227460D02*X193029Y226900D01*
X193589Y227460D02*Y228580D01*
X193029Y229140D01*
X191909D02*X193029D01*
X191909D02*X191349Y228580D01*
Y228020D02*X193589D01*
X191349D02*Y228580D01*
X189445Y226900D02*Y228580D01*
X188885Y229140D01*
X187765D02*X188885D01*
X190005D02*X189445Y228580D01*
X226400Y213500D02*X227440D01*
X228000Y214060D02*X227440Y213500D01*
X228000Y214060D02*Y216140D01*
X227440Y216700D01*
X226400D02*X227440D01*
X223840Y213500D02*X224880D01*
X225440Y214060D02*X224880Y213500D01*
X225440Y214060D02*Y216140D01*
X224880Y216700D01*
X223840D02*X224880D01*
X221280Y215100D02*X222880D01*
X218720Y213500D02*X220320D01*
X218720D02*X218320Y213900D01*
Y214860D01*
X218720Y215260D02*X218320Y214860D01*
X218720Y215260D02*X219920D01*
Y213500D02*Y216700D01*
X218720D02*X220320D01*
X218720D02*X218320Y216300D01*
Y215660D02*Y216300D01*
X218720Y215260D02*X218320Y215660D01*
X217360Y216700D02*X216560Y215100D01*
X215760Y216700D01*
X216560Y213500D02*Y215100D01*
X213200D02*X214800D01*
X210640Y216700D02*X210240Y216300D01*
X210640Y216700D02*X211840D01*
X212240Y216300D02*X211840Y216700D01*
X212240Y215500D02*Y216300D01*
Y215500D02*X211840Y215100D01*
X210640D02*X211840D01*
X210640D02*X210240Y214700D01*
Y213900D02*Y214700D01*
X210640Y213500D02*X210240Y213900D01*
X210640Y213500D02*X211840D01*
X212240Y213900D02*X211840Y213500D01*
X209280D02*Y215900D01*
X208720Y216700D01*
X207840D02*X208720D01*
X207840D02*X207280Y215900D01*
Y213500D02*Y215900D01*
Y215100D02*X209280D01*
X234200Y220000D02*X235370D01*
X236000Y220630D02*X235370Y220000D01*
X236000Y220630D02*Y222970D01*
X235370Y223600D01*
X234200D02*X235370D01*
X233120Y220000D02*Y223600D01*
Y221800D02*X231320Y223600D01*
X233120Y221800D02*X231320Y220000D01*
X228440Y223600D02*X230240D01*
X229340Y220000D02*Y223600D01*
X225560Y221800D02*X227360D01*
X223580Y223600D02*X224480D01*
X224030Y220000D02*Y223600D01*
X223580Y220000D02*X224480D01*
X220700Y223600D02*X222500D01*
X220700D02*X220250Y223150D01*
Y222250D02*Y223150D01*
X220700Y221800D02*X220250Y222250D01*
X220700Y221800D02*X222050D01*
Y220000D02*Y223600D01*
X221330Y221800D02*X220250Y220000D01*
X217370Y223600D02*X216920Y223150D01*
X217370Y223600D02*X218720D01*
X219170Y223150D02*X218720Y223600D01*
X219170Y222250D02*Y223150D01*
Y222250D02*X218720Y221800D01*
X217370D02*X218720D01*
X217370D02*X216920Y221350D01*
Y220450D02*Y221350D01*
X217370Y220000D02*X216920Y220450D01*
X217370Y220000D02*X218720D01*
X219170Y220450D02*X218720Y220000D01*
X214490Y221980D02*X215840D01*
X214040Y220000D02*X215840D01*
Y223600D01*
X214040D02*X215840D01*
X212960Y220000D02*Y223600D01*
X210710Y220000D01*
Y223600D01*
X207830D02*X207380Y223150D01*
X207830Y223600D02*X209180D01*
X209630Y223150D02*X209180Y223600D01*
X209630Y222250D02*Y223150D01*
Y222250D02*X209180Y221800D01*
X207830D02*X209180D01*
X207830D02*X207380Y221350D01*
Y220450D02*Y221350D01*
X207830Y220000D02*X207380Y220450D01*
X207830Y220000D02*X209180D01*
X209630Y220450D02*X209180Y220000D01*
X204950Y221980D02*X206300D01*
X204500Y220000D02*X206300D01*
Y223600D01*
X204500D02*X206300D01*
X201620Y221800D02*X203420D01*
X198740Y223600D02*X200540D01*
X198740D02*X198290Y223150D01*
Y222250D02*Y223150D01*
X198740Y221800D02*X198290Y222250D01*
X198740Y221800D02*X200090D01*
Y220000D02*Y223600D01*
X199370Y221800D02*X198290Y220000D01*
X197210D02*Y222700D01*
X196580Y223600D01*
X195590D02*X196580D01*
X195590D02*X194960Y222700D01*
Y220000D02*Y222700D01*
Y221800D02*X197210D01*
X192260D02*X191360Y220000D01*
X190460Y221800D02*X191360Y220000D01*
X189380Y221350D02*X187580Y223600D01*
X187130Y221350D02*X189380D01*
X187580Y220000D02*Y223600D01*
X185600Y220000D02*X186050D01*
X182720Y223600D02*X184520D01*
Y221800D02*Y223600D01*
Y221800D02*X184070Y222250D01*
X183170D02*X184070D01*
X183170D02*X182720Y221800D01*
Y220450D02*Y221800D01*
X183170Y220000D02*X182720Y220450D01*
X183170Y220000D02*X184070D01*
X184520Y220450D02*X184070Y220000D01*
X234200Y255000D02*X235370D01*
X236000Y255630D02*X235370Y255000D01*
X236000Y255630D02*Y257970D01*
X235370Y258600D01*
X234200D02*X235370D01*
X233120Y255000D02*Y258600D01*
Y256800D02*X231320Y258600D01*
X233120Y256800D02*X231320Y255000D01*
X228440Y258600D02*X230240D01*
X229340Y255000D02*Y258600D01*
X225560Y256800D02*X227360D01*
X223580Y258600D02*X224480D01*
X224030Y255000D02*Y258600D01*
X223580Y255000D02*X224480D01*
X220700Y258600D02*X222500D01*
X220700D02*X220250Y258150D01*
Y257250D02*Y258150D01*
X220700Y256800D02*X220250Y257250D01*
X220700Y256800D02*X222050D01*
Y255000D02*Y258600D01*
X221330Y256800D02*X220250Y255000D01*
X217370Y258600D02*X216920Y258150D01*
X217370Y258600D02*X218720D01*
X219170Y258150D02*X218720Y258600D01*
X219170Y257250D02*Y258150D01*
Y257250D02*X218720Y256800D01*
X217370D02*X218720D01*
X217370D02*X216920Y256350D01*
Y255450D02*Y256350D01*
X217370Y255000D02*X216920Y255450D01*
X217370Y255000D02*X218720D01*
X219170Y255450D02*X218720Y255000D01*
X214490Y256980D02*X215840D01*
X214040Y255000D02*X215840D01*
Y258600D01*
X214040D02*X215840D01*
X212960Y255000D02*Y258600D01*
X210710Y255000D01*
Y258600D01*
X207830D02*X207380Y258150D01*
X207830Y258600D02*X209180D01*
X209630Y258150D02*X209180Y258600D01*
X209630Y257250D02*Y258150D01*
Y257250D02*X209180Y256800D01*
X207830D02*X209180D01*
X207830D02*X207380Y256350D01*
Y255450D02*Y256350D01*
X207830Y255000D02*X207380Y255450D01*
X207830Y255000D02*X209180D01*
X209630Y255450D02*X209180Y255000D01*
X204950Y256980D02*X206300D01*
X204500Y255000D02*X206300D01*
Y258600D01*
X204500D02*X206300D01*
X201620Y256800D02*X203420D01*
X198740Y258600D02*X200540D01*
X198740D02*X198290Y258150D01*
Y257250D02*Y258150D01*
X198740Y256800D02*X198290Y257250D01*
X198740Y256800D02*X200090D01*
Y255000D02*Y258600D01*
X199370Y256800D02*X198290Y255000D01*
X197210D02*Y257700D01*
X196580Y258600D01*
X195590D02*X196580D01*
X195590D02*X194960Y257700D01*
Y255000D02*Y257700D01*
Y256800D02*X197210D01*
X192260D02*X191360Y255000D01*
X190460Y256800D02*X191360Y255000D01*
X189380Y256350D02*X187580Y258600D01*
X187130Y256350D02*X189380D01*
X187580Y255000D02*Y258600D01*
X185600Y255000D02*X186050D01*
X182720Y258600D02*X184520D01*
Y256800D02*Y258600D01*
Y256800D02*X184070Y257250D01*
X183170D02*X184070D01*
X183170D02*X182720Y256800D01*
Y255450D02*Y256800D01*
X183170Y255000D02*X182720Y255450D01*
X183170Y255000D02*X184070D01*
X184520Y255450D02*X184070Y255000D01*
X201500Y213900D02*X201100Y213500D01*
X201500Y216300D02*X201100Y216700D01*
X201500Y213900D02*Y216300D01*
X198540Y213500D02*X199580D01*
X200140Y214060D02*X199580Y213500D01*
X200140Y214060D02*Y216140D01*
X199580Y216700D01*
X198540D02*X199580D01*
X197580D02*X197180Y216300D01*
Y213900D02*Y216300D01*
X197580Y213500D02*X197180Y213900D01*
X196220Y216300D02*X195820Y216700D01*
X194620D02*X195820D01*
X194620D02*X194220Y216300D01*
Y215500D02*Y216300D01*
X196220Y213500D02*X194220Y215500D01*
Y213500D02*X196220D01*
X193260Y213900D02*X192860Y213500D01*
X193260Y213900D02*Y216300D01*
X192860Y216700D01*
X192060D02*X192860D01*
X192060D02*X191660Y216300D01*
Y213900D02*Y216300D01*
X192060Y213500D02*X191660Y213900D01*
X192060Y213500D02*X192860D01*
X193260Y214300D02*X191660Y215900D01*
X190700Y216300D02*X190300Y216700D01*
X189100D02*X190300D01*
X189100D02*X188700Y216300D01*
Y215500D02*Y216300D01*
X190700Y213500D02*X188700Y215500D01*
Y213500D02*X190700D01*
X186140Y216700D02*X187740D01*
Y215100D02*Y216700D01*
Y215100D02*X187340Y215500D01*
X186540D02*X187340D01*
X186540D02*X186140Y215100D01*
Y213900D02*Y215100D01*
X186540Y213500D02*X186140Y213900D01*
X186540Y213500D02*X187340D01*
X187740Y213900D02*X187340Y213500D01*
X223717Y196380D02*X225957D01*
X224837Y191900D02*Y196380D01*
X221813Y191900D02*Y193580D01*
X221253Y194140D01*
X220133D02*X221253D01*
X222373D02*X221813Y193580D01*
X217109Y194140D02*X216549Y193580D01*
X217109Y194140D02*X218229D01*
X218789Y193580D02*X218229Y194140D01*
X218789Y192460D02*Y193580D01*
Y192460D02*X218229Y191900D01*
X216549Y192460D02*Y194140D01*
Y192460D02*X215989Y191900D01*
X217109D02*X218229D01*
X217109D02*X216549Y192460D01*
X214645Y195148D02*Y195260D01*
Y191900D02*Y193580D01*
X212965Y191900D02*Y193580D01*
X212405Y194140D01*
X211845D02*X212405D01*
X211845D02*X211285Y193580D01*
Y191900D02*Y193580D01*
X213525Y194140D02*X212965Y193580D01*
X207701Y196380D02*X207141Y195820D01*
X207701Y196380D02*X209381D01*
X209941Y195820D02*X209381Y196380D01*
X209941Y194700D02*Y195820D01*
Y194700D02*X209381Y194140D01*
X207701D02*X209381D01*
X207701D02*X207141Y193580D01*
Y192460D02*Y193580D01*
X207701Y191900D02*X207141Y192460D01*
X207701Y191900D02*X209381D01*
X209941Y192460D02*X209381Y191900D01*
X205237Y190220D02*Y193580D01*
X205797Y194140D02*X205237Y193580D01*
X204677Y194140D01*
X203557D02*X204677D01*
X203557D02*X202997Y193580D01*
Y192460D02*Y193580D01*
X203557Y191900D02*X202997Y192460D01*
X203557Y191900D02*X204677D01*
X205237Y192460D02*X204677Y191900D01*
X201653Y192460D02*Y193580D01*
X201093Y194140D01*
X199973D02*X201093D01*
X199973D02*X199413Y193580D01*
Y192460D02*Y193580D01*
X199973Y191900D02*X199413Y192460D01*
X199973Y191900D02*X201093D01*
X201653Y192460D02*X201093Y191900D01*
X197509Y192460D02*Y196380D01*
Y192460D02*X196949Y191900D01*
Y194700D02*X198069D01*
X195269Y192460D02*Y196380D01*
Y192460D02*X194709Y191900D01*
Y194700D02*X195829D01*
X191349Y191900D02*X193029D01*
X193589Y192460D02*X193029Y191900D01*
X193589Y192460D02*Y193580D01*
X193029Y194140D01*
X191909D02*X193029D01*
X191909D02*X191349Y193580D01*
Y193020D02*X193589D01*
X191349D02*Y193580D01*
X189445Y191900D02*Y193580D01*
X188885Y194140D01*
X187765D02*X188885D01*
X190005D02*X189445Y193580D01*
X201500Y178900D02*X201100Y178500D01*
X201500Y181300D02*X201100Y181700D01*
X201500Y178900D02*Y181300D01*
X198540Y178500D02*X199580D01*
X200140Y179060D02*X199580Y178500D01*
X200140Y179060D02*Y181140D01*
X199580Y181700D01*
X198540D02*X199580D01*
X197580D02*X197180Y181300D01*
Y178900D02*Y181300D01*
X197580Y178500D02*X197180Y178900D01*
X196220Y181300D02*X195820Y181700D01*
X194620D02*X195820D01*
X194620D02*X194220Y181300D01*
Y180500D02*Y181300D01*
X196220Y178500D02*X194220Y180500D01*
Y178500D02*X196220D01*
X193260Y178900D02*X192860Y178500D01*
X193260Y178900D02*Y181300D01*
X192860Y181700D01*
X192060D02*X192860D01*
X192060D02*X191660Y181300D01*
Y178900D02*Y181300D01*
X192060Y178500D02*X191660Y178900D01*
X192060Y178500D02*X192860D01*
X193260Y179300D02*X191660Y180900D01*
X190700Y181300D02*X190300Y181700D01*
X189100D02*X190300D01*
X189100D02*X188700Y181300D01*
Y180500D02*Y181300D01*
X190700Y178500D02*X188700Y180500D01*
Y178500D02*X190700D01*
X186140Y181700D02*X187740D01*
Y180100D02*Y181700D01*
Y180100D02*X187340Y180500D01*
X186540D02*X187340D01*
X186540D02*X186140Y180100D01*
Y178900D02*Y180100D01*
X186540Y178500D02*X186140Y178900D01*
X186540Y178500D02*X187340D01*
X187740Y178900D02*X187340Y178500D01*
X226400D02*X227440D01*
X228000Y179060D02*X227440Y178500D01*
X228000Y179060D02*Y181140D01*
X227440Y181700D01*
X226400D02*X227440D01*
X223840Y178500D02*X224880D01*
X225440Y179060D02*X224880Y178500D01*
X225440Y179060D02*Y181140D01*
X224880Y181700D01*
X223840D02*X224880D01*
X221280Y180100D02*X222880D01*
X218720Y178500D02*X220320D01*
X218720D02*X218320Y178900D01*
Y179860D01*
X218720Y180260D02*X218320Y179860D01*
X218720Y180260D02*X219920D01*
Y178500D02*Y181700D01*
X218720D02*X220320D01*
X218720D02*X218320Y181300D01*
Y180660D02*Y181300D01*
X218720Y180260D02*X218320Y180660D01*
X217360Y181700D02*X216560Y180100D01*
X215760Y181700D01*
X216560Y178500D02*Y180100D01*
X213200D02*X214800D01*
X210640Y181700D02*X210240Y181300D01*
X210640Y181700D02*X211840D01*
X212240Y181300D02*X211840Y181700D01*
X212240Y180500D02*Y181300D01*
Y180500D02*X211840Y180100D01*
X210640D02*X211840D01*
X210640D02*X210240Y179700D01*
Y178900D02*Y179700D01*
X210640Y178500D02*X210240Y178900D01*
X210640Y178500D02*X211840D01*
X212240Y178900D02*X211840Y178500D01*
X209280D02*Y180900D01*
X208720Y181700D01*
X207840D02*X208720D01*
X207840D02*X207280Y180900D01*
Y178500D02*Y180900D01*
Y180100D02*X209280D01*
X234200Y185000D02*X235370D01*
X236000Y185630D02*X235370Y185000D01*
X236000Y185630D02*Y187970D01*
X235370Y188600D01*
X234200D02*X235370D01*
X233120Y185000D02*Y188600D01*
Y186800D02*X231320Y188600D01*
X233120Y186800D02*X231320Y185000D01*
X228440Y188600D02*X230240D01*
X229340Y185000D02*Y188600D01*
X225560Y186800D02*X227360D01*
X223580Y188600D02*X224480D01*
X224030Y185000D02*Y188600D01*
X223580Y185000D02*X224480D01*
X220700Y188600D02*X222500D01*
X220700D02*X220250Y188150D01*
Y187250D02*Y188150D01*
X220700Y186800D02*X220250Y187250D01*
X220700Y186800D02*X222050D01*
Y185000D02*Y188600D01*
X221330Y186800D02*X220250Y185000D01*
X217370Y188600D02*X216920Y188150D01*
X217370Y188600D02*X218720D01*
X219170Y188150D02*X218720Y188600D01*
X219170Y187250D02*Y188150D01*
Y187250D02*X218720Y186800D01*
X217370D02*X218720D01*
X217370D02*X216920Y186350D01*
Y185450D02*Y186350D01*
X217370Y185000D02*X216920Y185450D01*
X217370Y185000D02*X218720D01*
X219170Y185450D02*X218720Y185000D01*
X214490Y186980D02*X215840D01*
X214040Y185000D02*X215840D01*
Y188600D01*
X214040D02*X215840D01*
X212960Y185000D02*Y188600D01*
X210710Y185000D01*
Y188600D01*
X207830D02*X207380Y188150D01*
X207830Y188600D02*X209180D01*
X209630Y188150D02*X209180Y188600D01*
X209630Y187250D02*Y188150D01*
Y187250D02*X209180Y186800D01*
X207830D02*X209180D01*
X207830D02*X207380Y186350D01*
Y185450D02*Y186350D01*
X207830Y185000D02*X207380Y185450D01*
X207830Y185000D02*X209180D01*
X209630Y185450D02*X209180Y185000D01*
X204950Y186980D02*X206300D01*
X204500Y185000D02*X206300D01*
Y188600D01*
X204500D02*X206300D01*
X201620Y186800D02*X203420D01*
X198740Y188600D02*X200540D01*
X198740D02*X198290Y188150D01*
Y187250D02*Y188150D01*
X198740Y186800D02*X198290Y187250D01*
X198740Y186800D02*X200090D01*
Y185000D02*Y188600D01*
X199370Y186800D02*X198290Y185000D01*
X197210D02*Y187700D01*
X196580Y188600D01*
X195590D02*X196580D01*
X195590D02*X194960Y187700D01*
Y185000D02*Y187700D01*
Y186800D02*X197210D01*
X192260D02*X191360Y185000D01*
X190460Y186800D02*X191360Y185000D01*
X189380Y186350D02*X187580Y188600D01*
X187130Y186350D02*X189380D01*
X187580Y185000D02*Y188600D01*
X185600Y185000D02*X186050D01*
X182720Y188600D02*X184520D01*
Y186800D02*Y188600D01*
Y186800D02*X184070Y187250D01*
X183170D02*X184070D01*
X183170D02*X182720Y186800D01*
Y185450D02*Y186800D01*
X183170Y185000D02*X182720Y185450D01*
X183170Y185000D02*X184070D01*
X184520Y185450D02*X184070Y185000D01*
X223717Y161380D02*X225957D01*
X224837Y156900D02*Y161380D01*
X221813Y156900D02*Y158580D01*
X221253Y159140D01*
X220133D02*X221253D01*
X222373D02*X221813Y158580D01*
X217109Y159140D02*X216549Y158580D01*
X217109Y159140D02*X218229D01*
X218789Y158580D02*X218229Y159140D01*
X218789Y157460D02*Y158580D01*
Y157460D02*X218229Y156900D01*
X216549Y157460D02*Y159140D01*
Y157460D02*X215989Y156900D01*
X217109D02*X218229D01*
X217109D02*X216549Y157460D01*
X214645Y160148D02*Y160260D01*
Y156900D02*Y158580D01*
X212965Y156900D02*Y158580D01*
X212405Y159140D01*
X211845D02*X212405D01*
X211845D02*X211285Y158580D01*
Y156900D02*Y158580D01*
X213525Y159140D02*X212965Y158580D01*
X207701Y161380D02*X207141Y160820D01*
X207701Y161380D02*X209381D01*
X209941Y160820D02*X209381Y161380D01*
X209941Y159700D02*Y160820D01*
Y159700D02*X209381Y159140D01*
X207701D02*X209381D01*
X207701D02*X207141Y158580D01*
Y157460D02*Y158580D01*
X207701Y156900D02*X207141Y157460D01*
X207701Y156900D02*X209381D01*
X209941Y157460D02*X209381Y156900D01*
X205237Y155220D02*Y158580D01*
X205797Y159140D02*X205237Y158580D01*
X204677Y159140D01*
X203557D02*X204677D01*
X203557D02*X202997Y158580D01*
Y157460D02*Y158580D01*
X203557Y156900D02*X202997Y157460D01*
X203557Y156900D02*X204677D01*
X205237Y157460D02*X204677Y156900D01*
X201653Y157460D02*Y158580D01*
X201093Y159140D01*
X199973D02*X201093D01*
X199973D02*X199413Y158580D01*
Y157460D02*Y158580D01*
X199973Y156900D02*X199413Y157460D01*
X199973Y156900D02*X201093D01*
X201653Y157460D02*X201093Y156900D01*
X197509Y157460D02*Y161380D01*
Y157460D02*X196949Y156900D01*
Y159700D02*X198069D01*
X195269Y157460D02*Y161380D01*
Y157460D02*X194709Y156900D01*
Y159700D02*X195829D01*
X191349Y156900D02*X193029D01*
X193589Y157460D02*X193029Y156900D01*
X193589Y157460D02*Y158580D01*
X193029Y159140D01*
X191909D02*X193029D01*
X191909D02*X191349Y158580D01*
Y158020D02*X193589D01*
X191349D02*Y158580D01*
X189445Y156900D02*Y158580D01*
X188885Y159140D01*
X187765D02*X188885D01*
X190005D02*X189445Y158580D01*
X201500Y143900D02*X201100Y143500D01*
X201500Y146300D02*X201100Y146700D01*
X201500Y143900D02*Y146300D01*
X198540Y143500D02*X199580D01*
X200140Y144060D02*X199580Y143500D01*
X200140Y144060D02*Y146140D01*
X199580Y146700D01*
X198540D02*X199580D01*
X197580D02*X197180Y146300D01*
Y143900D02*Y146300D01*
X197580Y143500D02*X197180Y143900D01*
X196220Y146300D02*X195820Y146700D01*
X194620D02*X195820D01*
X194620D02*X194220Y146300D01*
Y145500D02*Y146300D01*
X196220Y143500D02*X194220Y145500D01*
Y143500D02*X196220D01*
X193260Y143900D02*X192860Y143500D01*
X193260Y143900D02*Y146300D01*
X192860Y146700D01*
X192060D02*X192860D01*
X192060D02*X191660Y146300D01*
Y143900D02*Y146300D01*
X192060Y143500D02*X191660Y143900D01*
X192060Y143500D02*X192860D01*
X193260Y144300D02*X191660Y145900D01*
X190700Y146300D02*X190300Y146700D01*
X189100D02*X190300D01*
X189100D02*X188700Y146300D01*
Y145500D02*Y146300D01*
X190700Y143500D02*X188700Y145500D01*
Y143500D02*X190700D01*
X186140Y146700D02*X187740D01*
Y145100D02*Y146700D01*
Y145100D02*X187340Y145500D01*
X186540D02*X187340D01*
X186540D02*X186140Y145100D01*
Y143900D02*Y145100D01*
X186540Y143500D02*X186140Y143900D01*
X186540Y143500D02*X187340D01*
X187740Y143900D02*X187340Y143500D01*
X226400D02*X227440D01*
X228000Y144060D02*X227440Y143500D01*
X228000Y144060D02*Y146140D01*
X227440Y146700D01*
X226400D02*X227440D01*
X223840Y143500D02*X224880D01*
X225440Y144060D02*X224880Y143500D01*
X225440Y144060D02*Y146140D01*
X224880Y146700D01*
X223840D02*X224880D01*
X221280Y145100D02*X222880D01*
X218720Y143500D02*X220320D01*
X218720D02*X218320Y143900D01*
Y144860D01*
X218720Y145260D02*X218320Y144860D01*
X218720Y145260D02*X219920D01*
Y143500D02*Y146700D01*
X218720D02*X220320D01*
X218720D02*X218320Y146300D01*
Y145660D02*Y146300D01*
X218720Y145260D02*X218320Y145660D01*
X217360Y146700D02*X216560Y145100D01*
X215760Y146700D01*
X216560Y143500D02*Y145100D01*
X213200D02*X214800D01*
X210640Y146700D02*X210240Y146300D01*
X210640Y146700D02*X211840D01*
X212240Y146300D02*X211840Y146700D01*
X212240Y145500D02*Y146300D01*
Y145500D02*X211840Y145100D01*
X210640D02*X211840D01*
X210640D02*X210240Y144700D01*
Y143900D02*Y144700D01*
X210640Y143500D02*X210240Y143900D01*
X210640Y143500D02*X211840D01*
X212240Y143900D02*X211840Y143500D01*
X209280D02*Y145900D01*
X208720Y146700D01*
X207840D02*X208720D01*
X207840D02*X207280Y145900D01*
Y143500D02*Y145900D01*
Y145100D02*X209280D01*
X234200Y150000D02*X235370D01*
X236000Y150630D02*X235370Y150000D01*
X236000Y150630D02*Y152970D01*
X235370Y153600D01*
X234200D02*X235370D01*
X233120Y150000D02*Y153600D01*
Y151800D02*X231320Y153600D01*
X233120Y151800D02*X231320Y150000D01*
X228440Y153600D02*X230240D01*
X229340Y150000D02*Y153600D01*
X225560Y151800D02*X227360D01*
X223580Y153600D02*X224480D01*
X224030Y150000D02*Y153600D01*
X223580Y150000D02*X224480D01*
X220700Y153600D02*X222500D01*
X220700D02*X220250Y153150D01*
Y152250D02*Y153150D01*
X220700Y151800D02*X220250Y152250D01*
X220700Y151800D02*X222050D01*
Y150000D02*Y153600D01*
X221330Y151800D02*X220250Y150000D01*
X217370Y153600D02*X216920Y153150D01*
X217370Y153600D02*X218720D01*
X219170Y153150D02*X218720Y153600D01*
X219170Y152250D02*Y153150D01*
Y152250D02*X218720Y151800D01*
X217370D02*X218720D01*
X217370D02*X216920Y151350D01*
Y150450D02*Y151350D01*
X217370Y150000D02*X216920Y150450D01*
X217370Y150000D02*X218720D01*
X219170Y150450D02*X218720Y150000D01*
X214490Y151980D02*X215840D01*
X214040Y150000D02*X215840D01*
Y153600D01*
X214040D02*X215840D01*
X212960Y150000D02*Y153600D01*
X210710Y150000D01*
Y153600D01*
X207830D02*X207380Y153150D01*
X207830Y153600D02*X209180D01*
X209630Y153150D02*X209180Y153600D01*
X209630Y152250D02*Y153150D01*
Y152250D02*X209180Y151800D01*
X207830D02*X209180D01*
X207830D02*X207380Y151350D01*
Y150450D02*Y151350D01*
X207830Y150000D02*X207380Y150450D01*
X207830Y150000D02*X209180D01*
X209630Y150450D02*X209180Y150000D01*
X204950Y151980D02*X206300D01*
X204500Y150000D02*X206300D01*
Y153600D01*
X204500D02*X206300D01*
X201620Y151800D02*X203420D01*
X198740Y153600D02*X200540D01*
X198740D02*X198290Y153150D01*
Y152250D02*Y153150D01*
X198740Y151800D02*X198290Y152250D01*
X198740Y151800D02*X200090D01*
Y150000D02*Y153600D01*
X199370Y151800D02*X198290Y150000D01*
X197210D02*Y152700D01*
X196580Y153600D01*
X195590D02*X196580D01*
X195590D02*X194960Y152700D01*
Y150000D02*Y152700D01*
Y151800D02*X197210D01*
X192260D02*X191360Y150000D01*
X190460Y151800D02*X191360Y150000D01*
X189380Y151350D02*X187580Y153600D01*
X187130Y151350D02*X189380D01*
X187580Y150000D02*Y153600D01*
X185600Y150000D02*X186050D01*
X182720Y153600D02*X184520D01*
Y151800D02*Y153600D01*
Y151800D02*X184070Y152250D01*
X183170D02*X184070D01*
X183170D02*X182720Y151800D01*
Y150450D02*Y151800D01*
X183170Y150000D02*X182720Y150450D01*
X183170Y150000D02*X184070D01*
X184520Y150450D02*X184070Y150000D01*
X223717Y126380D02*X225957D01*
X224837Y121900D02*Y126380D01*
X221813Y121900D02*Y123580D01*
X221253Y124140D01*
X220133D02*X221253D01*
X222373D02*X221813Y123580D01*
X217109Y124140D02*X216549Y123580D01*
X217109Y124140D02*X218229D01*
X218789Y123580D02*X218229Y124140D01*
X218789Y122460D02*Y123580D01*
Y122460D02*X218229Y121900D01*
X216549Y122460D02*Y124140D01*
Y122460D02*X215989Y121900D01*
X217109D02*X218229D01*
X217109D02*X216549Y122460D01*
X214645Y125148D02*Y125260D01*
Y121900D02*Y123580D01*
X212965Y121900D02*Y123580D01*
X212405Y124140D01*
X211845D02*X212405D01*
X211845D02*X211285Y123580D01*
Y121900D02*Y123580D01*
X213525Y124140D02*X212965Y123580D01*
X207701Y126380D02*X207141Y125820D01*
X207701Y126380D02*X209381D01*
X209941Y125820D02*X209381Y126380D01*
X209941Y124700D02*Y125820D01*
Y124700D02*X209381Y124140D01*
X207701D02*X209381D01*
X207701D02*X207141Y123580D01*
Y122460D02*Y123580D01*
X207701Y121900D02*X207141Y122460D01*
X207701Y121900D02*X209381D01*
X209941Y122460D02*X209381Y121900D01*
X205237Y120220D02*Y123580D01*
X205797Y124140D02*X205237Y123580D01*
X204677Y124140D01*
X203557D02*X204677D01*
X203557D02*X202997Y123580D01*
Y122460D02*Y123580D01*
X203557Y121900D02*X202997Y122460D01*
X203557Y121900D02*X204677D01*
X205237Y122460D02*X204677Y121900D01*
X201653Y122460D02*Y123580D01*
X201093Y124140D01*
X199973D02*X201093D01*
X199973D02*X199413Y123580D01*
Y122460D02*Y123580D01*
X199973Y121900D02*X199413Y122460D01*
X199973Y121900D02*X201093D01*
X201653Y122460D02*X201093Y121900D01*
X197509Y122460D02*Y126380D01*
Y122460D02*X196949Y121900D01*
Y124700D02*X198069D01*
X195269Y122460D02*Y126380D01*
Y122460D02*X194709Y121900D01*
Y124700D02*X195829D01*
X191349Y121900D02*X193029D01*
X193589Y122460D02*X193029Y121900D01*
X193589Y122460D02*Y123580D01*
X193029Y124140D01*
X191909D02*X193029D01*
X191909D02*X191349Y123580D01*
Y123020D02*X193589D01*
X191349D02*Y123580D01*
X189445Y121900D02*Y123580D01*
X188885Y124140D01*
X187765D02*X188885D01*
X190005D02*X189445Y123580D01*
X234200Y115000D02*X235370D01*
X236000Y115630D02*X235370Y115000D01*
X236000Y115630D02*Y117970D01*
X235370Y118600D01*
X234200D02*X235370D01*
X233120Y115000D02*Y118600D01*
Y116800D02*X231320Y118600D01*
X233120Y116800D02*X231320Y115000D01*
X228440Y118600D02*X230240D01*
X229340Y115000D02*Y118600D01*
X225560Y116800D02*X227360D01*
X223580Y118600D02*X224480D01*
X224030Y115000D02*Y118600D01*
X223580Y115000D02*X224480D01*
X220700Y118600D02*X222500D01*
X220700D02*X220250Y118150D01*
Y117250D02*Y118150D01*
X220700Y116800D02*X220250Y117250D01*
X220700Y116800D02*X222050D01*
Y115000D02*Y118600D01*
X221330Y116800D02*X220250Y115000D01*
X217370Y118600D02*X216920Y118150D01*
X217370Y118600D02*X218720D01*
X219170Y118150D02*X218720Y118600D01*
X219170Y117250D02*Y118150D01*
Y117250D02*X218720Y116800D01*
X217370D02*X218720D01*
X217370D02*X216920Y116350D01*
Y115450D02*Y116350D01*
X217370Y115000D02*X216920Y115450D01*
X217370Y115000D02*X218720D01*
X219170Y115450D02*X218720Y115000D01*
X214490Y116980D02*X215840D01*
X214040Y115000D02*X215840D01*
Y118600D01*
X214040D02*X215840D01*
X212960Y115000D02*Y118600D01*
X210710Y115000D01*
Y118600D01*
X207830D02*X207380Y118150D01*
X207830Y118600D02*X209180D01*
X209630Y118150D02*X209180Y118600D01*
X209630Y117250D02*Y118150D01*
Y117250D02*X209180Y116800D01*
X207830D02*X209180D01*
X207830D02*X207380Y116350D01*
Y115450D02*Y116350D01*
X207830Y115000D02*X207380Y115450D01*
X207830Y115000D02*X209180D01*
X209630Y115450D02*X209180Y115000D01*
X204950Y116980D02*X206300D01*
X204500Y115000D02*X206300D01*
Y118600D01*
X204500D02*X206300D01*
X201620Y116800D02*X203420D01*
X198740Y118600D02*X200540D01*
X198740D02*X198290Y118150D01*
Y117250D02*Y118150D01*
X198740Y116800D02*X198290Y117250D01*
X198740Y116800D02*X200090D01*
Y115000D02*Y118600D01*
X199370Y116800D02*X198290Y115000D01*
X197210D02*Y117700D01*
X196580Y118600D01*
X195590D02*X196580D01*
X195590D02*X194960Y117700D01*
Y115000D02*Y117700D01*
Y116800D02*X197210D01*
X192260D02*X191360Y115000D01*
X190460Y116800D02*X191360Y115000D01*
X189380Y116350D02*X187580Y118600D01*
X187130Y116350D02*X189380D01*
X187580Y115000D02*Y118600D01*
X185600Y115000D02*X186050D01*
X182720Y118600D02*X184520D01*
Y116800D02*Y118600D01*
Y116800D02*X184070Y117250D01*
X183170D02*X184070D01*
X183170D02*X182720Y116800D01*
Y115450D02*Y116800D01*
X183170Y115000D02*X182720Y115450D01*
X183170Y115000D02*X184070D01*
X184520Y115450D02*X184070Y115000D01*
X201500Y108900D02*X201100Y108500D01*
X201500Y111300D02*X201100Y111700D01*
X201500Y108900D02*Y111300D01*
X198540Y108500D02*X199580D01*
X200140Y109060D02*X199580Y108500D01*
X200140Y109060D02*Y111140D01*
X199580Y111700D01*
X198540D02*X199580D01*
X197580D02*X197180Y111300D01*
Y108900D02*Y111300D01*
X197580Y108500D02*X197180Y108900D01*
X196220Y111300D02*X195820Y111700D01*
X194620D02*X195820D01*
X194620D02*X194220Y111300D01*
Y110500D02*Y111300D01*
X196220Y108500D02*X194220Y110500D01*
Y108500D02*X196220D01*
X193260Y108900D02*X192860Y108500D01*
X193260Y108900D02*Y111300D01*
X192860Y111700D01*
X192060D02*X192860D01*
X192060D02*X191660Y111300D01*
Y108900D02*Y111300D01*
X192060Y108500D02*X191660Y108900D01*
X192060Y108500D02*X192860D01*
X193260Y109300D02*X191660Y110900D01*
X190700Y111300D02*X190300Y111700D01*
X189100D02*X190300D01*
X189100D02*X188700Y111300D01*
Y110500D02*Y111300D01*
X190700Y108500D02*X188700Y110500D01*
Y108500D02*X190700D01*
X186140Y111700D02*X187740D01*
Y110100D02*Y111700D01*
Y110100D02*X187340Y110500D01*
X186540D02*X187340D01*
X186540D02*X186140Y110100D01*
Y108900D02*Y110100D01*
X186540Y108500D02*X186140Y108900D01*
X186540Y108500D02*X187340D01*
X187740Y108900D02*X187340Y108500D01*
X226400D02*X227440D01*
X228000Y109060D02*X227440Y108500D01*
X228000Y109060D02*Y111140D01*
X227440Y111700D01*
X226400D02*X227440D01*
X223840Y108500D02*X224880D01*
X225440Y109060D02*X224880Y108500D01*
X225440Y109060D02*Y111140D01*
X224880Y111700D01*
X223840D02*X224880D01*
X221280Y110100D02*X222880D01*
X218720Y108500D02*X220320D01*
X218720D02*X218320Y108900D01*
Y109860D01*
X218720Y110260D02*X218320Y109860D01*
X218720Y110260D02*X219920D01*
Y108500D02*Y111700D01*
X218720D02*X220320D01*
X218720D02*X218320Y111300D01*
Y110660D02*Y111300D01*
X218720Y110260D02*X218320Y110660D01*
X217360Y111700D02*X216560Y110100D01*
X215760Y111700D01*
X216560Y108500D02*Y110100D01*
X213200D02*X214800D01*
X210640Y111700D02*X210240Y111300D01*
X210640Y111700D02*X211840D01*
X212240Y111300D02*X211840Y111700D01*
X212240Y110500D02*Y111300D01*
Y110500D02*X211840Y110100D01*
X210640D02*X211840D01*
X210640D02*X210240Y109700D01*
Y108900D02*Y109700D01*
X210640Y108500D02*X210240Y108900D01*
X210640Y108500D02*X211840D01*
X212240Y108900D02*X211840Y108500D01*
X209280D02*Y110900D01*
X208720Y111700D01*
X207840D02*X208720D01*
X207840D02*X207280Y110900D01*
Y108500D02*Y110900D01*
Y110100D02*X209280D01*
X223717Y91380D02*X225957D01*
X224837Y86900D02*Y91380D01*
X221813Y86900D02*Y88580D01*
X221253Y89140D01*
X220133D02*X221253D01*
X222373D02*X221813Y88580D01*
X217109Y89140D02*X216549Y88580D01*
X217109Y89140D02*X218229D01*
X218789Y88580D02*X218229Y89140D01*
X218789Y87460D02*Y88580D01*
Y87460D02*X218229Y86900D01*
X216549Y87460D02*Y89140D01*
Y87460D02*X215989Y86900D01*
X217109D02*X218229D01*
X217109D02*X216549Y87460D01*
X214645Y90148D02*Y90260D01*
Y86900D02*Y88580D01*
X212965Y86900D02*Y88580D01*
X212405Y89140D01*
X211845D02*X212405D01*
X211845D02*X211285Y88580D01*
Y86900D02*Y88580D01*
X213525Y89140D02*X212965Y88580D01*
X207701Y91380D02*X207141Y90820D01*
X207701Y91380D02*X209381D01*
X209941Y90820D02*X209381Y91380D01*
X209941Y89700D02*Y90820D01*
Y89700D02*X209381Y89140D01*
X207701D02*X209381D01*
X207701D02*X207141Y88580D01*
Y87460D02*Y88580D01*
X207701Y86900D02*X207141Y87460D01*
X207701Y86900D02*X209381D01*
X209941Y87460D02*X209381Y86900D01*
X205237Y85220D02*Y88580D01*
X205797Y89140D02*X205237Y88580D01*
X204677Y89140D01*
X203557D02*X204677D01*
X203557D02*X202997Y88580D01*
Y87460D02*Y88580D01*
X203557Y86900D02*X202997Y87460D01*
X203557Y86900D02*X204677D01*
X205237Y87460D02*X204677Y86900D01*
X201653Y87460D02*Y88580D01*
X201093Y89140D01*
X199973D02*X201093D01*
X199973D02*X199413Y88580D01*
Y87460D02*Y88580D01*
X199973Y86900D02*X199413Y87460D01*
X199973Y86900D02*X201093D01*
X201653Y87460D02*X201093Y86900D01*
X197509Y87460D02*Y91380D01*
Y87460D02*X196949Y86900D01*
Y89700D02*X198069D01*
X195269Y87460D02*Y91380D01*
Y87460D02*X194709Y86900D01*
Y89700D02*X195829D01*
X191349Y86900D02*X193029D01*
X193589Y87460D02*X193029Y86900D01*
X193589Y87460D02*Y88580D01*
X193029Y89140D01*
X191909D02*X193029D01*
X191909D02*X191349Y88580D01*
Y88020D02*X193589D01*
X191349D02*Y88580D01*
X189445Y86900D02*Y88580D01*
X188885Y89140D01*
X187765D02*X188885D01*
X190005D02*X189445Y88580D01*
X201500Y73900D02*X201100Y73500D01*
X201500Y76300D02*X201100Y76700D01*
X201500Y73900D02*Y76300D01*
X198540Y73500D02*X199580D01*
X200140Y74060D02*X199580Y73500D01*
X200140Y74060D02*Y76140D01*
X199580Y76700D01*
X198540D02*X199580D01*
X197580D02*X197180Y76300D01*
Y73900D02*Y76300D01*
X197580Y73500D02*X197180Y73900D01*
X196220Y76300D02*X195820Y76700D01*
X194620D02*X195820D01*
X194620D02*X194220Y76300D01*
Y75500D02*Y76300D01*
X196220Y73500D02*X194220Y75500D01*
Y73500D02*X196220D01*
X193260Y73900D02*X192860Y73500D01*
X193260Y73900D02*Y76300D01*
X192860Y76700D01*
X192060D02*X192860D01*
X192060D02*X191660Y76300D01*
Y73900D02*Y76300D01*
X192060Y73500D02*X191660Y73900D01*
X192060Y73500D02*X192860D01*
X193260Y74300D02*X191660Y75900D01*
X190700Y76300D02*X190300Y76700D01*
X189100D02*X190300D01*
X189100D02*X188700Y76300D01*
Y75500D02*Y76300D01*
X190700Y73500D02*X188700Y75500D01*
Y73500D02*X190700D01*
X186140Y76700D02*X187740D01*
Y75100D02*Y76700D01*
Y75100D02*X187340Y75500D01*
X186540D02*X187340D01*
X186540D02*X186140Y75100D01*
Y73900D02*Y75100D01*
X186540Y73500D02*X186140Y73900D01*
X186540Y73500D02*X187340D01*
X187740Y73900D02*X187340Y73500D01*
X226400D02*X227440D01*
X228000Y74060D02*X227440Y73500D01*
X228000Y74060D02*Y76140D01*
X227440Y76700D01*
X226400D02*X227440D01*
X223840Y73500D02*X224880D01*
X225440Y74060D02*X224880Y73500D01*
X225440Y74060D02*Y76140D01*
X224880Y76700D01*
X223840D02*X224880D01*
X221280Y75100D02*X222880D01*
X218720Y73500D02*X220320D01*
X218720D02*X218320Y73900D01*
Y74860D01*
X218720Y75260D02*X218320Y74860D01*
X218720Y75260D02*X219920D01*
Y73500D02*Y76700D01*
X218720D02*X220320D01*
X218720D02*X218320Y76300D01*
Y75660D02*Y76300D01*
X218720Y75260D02*X218320Y75660D01*
X217360Y76700D02*X216560Y75100D01*
X215760Y76700D01*
X216560Y73500D02*Y75100D01*
X213200D02*X214800D01*
X210640Y76700D02*X210240Y76300D01*
X210640Y76700D02*X211840D01*
X212240Y76300D02*X211840Y76700D01*
X212240Y75500D02*Y76300D01*
Y75500D02*X211840Y75100D01*
X210640D02*X211840D01*
X210640D02*X210240Y74700D01*
Y73900D02*Y74700D01*
X210640Y73500D02*X210240Y73900D01*
X210640Y73500D02*X211840D01*
X212240Y73900D02*X211840Y73500D01*
X209280D02*Y75900D01*
X208720Y76700D01*
X207840D02*X208720D01*
X207840D02*X207280Y75900D01*
Y73500D02*Y75900D01*
Y75100D02*X209280D01*
X234200Y80000D02*X235370D01*
X236000Y80630D02*X235370Y80000D01*
X236000Y80630D02*Y82970D01*
X235370Y83600D01*
X234200D02*X235370D01*
X233120Y80000D02*Y83600D01*
Y81800D02*X231320Y83600D01*
X233120Y81800D02*X231320Y80000D01*
X228440Y83600D02*X230240D01*
X229340Y80000D02*Y83600D01*
X225560Y81800D02*X227360D01*
X223580Y83600D02*X224480D01*
X224030Y80000D02*Y83600D01*
X223580Y80000D02*X224480D01*
X220700Y83600D02*X222500D01*
X220700D02*X220250Y83150D01*
Y82250D02*Y83150D01*
X220700Y81800D02*X220250Y82250D01*
X220700Y81800D02*X222050D01*
Y80000D02*Y83600D01*
X221330Y81800D02*X220250Y80000D01*
X217370Y83600D02*X216920Y83150D01*
X217370Y83600D02*X218720D01*
X219170Y83150D02*X218720Y83600D01*
X219170Y82250D02*Y83150D01*
Y82250D02*X218720Y81800D01*
X217370D02*X218720D01*
X217370D02*X216920Y81350D01*
Y80450D02*Y81350D01*
X217370Y80000D02*X216920Y80450D01*
X217370Y80000D02*X218720D01*
X219170Y80450D02*X218720Y80000D01*
X214490Y81980D02*X215840D01*
X214040Y80000D02*X215840D01*
Y83600D01*
X214040D02*X215840D01*
X212960Y80000D02*Y83600D01*
X210710Y80000D01*
Y83600D01*
X207830D02*X207380Y83150D01*
X207830Y83600D02*X209180D01*
X209630Y83150D02*X209180Y83600D01*
X209630Y82250D02*Y83150D01*
Y82250D02*X209180Y81800D01*
X207830D02*X209180D01*
X207830D02*X207380Y81350D01*
Y80450D02*Y81350D01*
X207830Y80000D02*X207380Y80450D01*
X207830Y80000D02*X209180D01*
X209630Y80450D02*X209180Y80000D01*
X204950Y81980D02*X206300D01*
X204500Y80000D02*X206300D01*
Y83600D01*
X204500D02*X206300D01*
X201620Y81800D02*X203420D01*
X198740Y83600D02*X200540D01*
X198740D02*X198290Y83150D01*
Y82250D02*Y83150D01*
X198740Y81800D02*X198290Y82250D01*
X198740Y81800D02*X200090D01*
Y80000D02*Y83600D01*
X199370Y81800D02*X198290Y80000D01*
X197210D02*Y82700D01*
X196580Y83600D01*
X195590D02*X196580D01*
X195590D02*X194960Y82700D01*
Y80000D02*Y82700D01*
Y81800D02*X197210D01*
X192260D02*X191360Y80000D01*
X190460Y81800D02*X191360Y80000D01*
X189380Y81350D02*X187580Y83600D01*
X187130Y81350D02*X189380D01*
X187580Y80000D02*Y83600D01*
X185600Y80000D02*X186050D01*
X182720Y83600D02*X184520D01*
Y81800D02*Y83600D01*
Y81800D02*X184070Y82250D01*
X183170D02*X184070D01*
X183170D02*X182720Y81800D01*
Y80450D02*Y81800D01*
X183170Y80000D02*X182720Y80450D01*
X183170Y80000D02*X184070D01*
X184520Y80450D02*X184070Y80000D01*
X261800Y296000D02*Y297500D01*
X264000Y295500D02*Y297500D01*
X260000D02*X264000D01*
X260000Y295500D02*Y297500D01*
X262500Y293800D02*X264000D01*
X262500D02*X262000Y293300D01*
Y292800D02*Y293300D01*
Y292800D02*X262500Y292300D01*
X264000D01*
X262000Y294300D02*X262500Y293800D01*
X262000Y289600D02*X262500Y289100D01*
X262000Y289600D02*Y290600D01*
X262500Y291100D02*X262000Y290600D01*
X262500Y291100D02*X263500D01*
X264000Y290600D01*
Y289600D02*Y290600D01*
Y289600D02*X263500Y289100D01*
X265000Y291100D02*X265500Y290600D01*
Y289600D02*Y290600D01*
Y289600D02*X265000Y289100D01*
X262000D02*X265000D01*
X264000Y287400D02*Y287900D01*
X261800Y261000D02*Y262500D01*
X264000Y260500D02*Y262500D01*
X260000D02*X264000D01*
X260000Y260500D02*Y262500D01*
X262500Y258800D02*X264000D01*
X262500D02*X262000Y258300D01*
Y257800D02*Y258300D01*
Y257800D02*X262500Y257300D01*
X264000D01*
X262000Y259300D02*X262500Y258800D01*
X262000Y254600D02*X262500Y254100D01*
X262000Y254600D02*Y255600D01*
X262500Y256100D02*X262000Y255600D01*
X262500Y256100D02*X263500D01*
X264000Y255600D01*
Y254600D02*Y255600D01*
Y254600D02*X263500Y254100D01*
X265000Y256100D02*X265500Y255600D01*
Y254600D02*Y255600D01*
Y254600D02*X265000Y254100D01*
X262000D02*X265000D01*
X264000Y252400D02*Y252900D01*
X261800Y226000D02*Y227500D01*
X264000Y225500D02*Y227500D01*
X260000D02*X264000D01*
X260000Y225500D02*Y227500D01*
X262500Y223800D02*X264000D01*
X262500D02*X262000Y223300D01*
Y222800D02*Y223300D01*
Y222800D02*X262500Y222300D01*
X264000D01*
X262000Y224300D02*X262500Y223800D01*
X262000Y219600D02*X262500Y219100D01*
X262000Y219600D02*Y220600D01*
X262500Y221100D02*X262000Y220600D01*
X262500Y221100D02*X263500D01*
X264000Y220600D01*
Y219600D02*Y220600D01*
Y219600D02*X263500Y219100D01*
X265000Y221100D02*X265500Y220600D01*
Y219600D02*Y220600D01*
Y219600D02*X265000Y219100D01*
X262000D02*X265000D01*
X264000Y217400D02*Y217900D01*
X253500Y299000D02*X254000Y298500D01*
X253500Y299000D02*Y300500D01*
X254000Y301000D02*X253500Y300500D01*
X254000Y301000D02*X255000D01*
X255500Y300500D01*
Y299000D02*Y300500D01*
Y299000D02*X256000Y298500D01*
X257000D01*
X257500Y299000D02*X257000Y298500D01*
X257500Y299000D02*Y300500D01*
X257000Y301000D02*X257500Y300500D01*
X255500Y295300D02*Y296800D01*
X256000Y297300D02*X255500Y296800D01*
X256000Y297300D02*X257000D01*
X257500Y296800D01*
Y295300D02*Y296800D01*
X255500Y292600D02*X256000Y292100D01*
X255500Y292600D02*Y293600D01*
X256000Y294100D02*X255500Y293600D01*
X256000Y294100D02*X257000D01*
X257500Y293600D01*
X255500Y292100D02*X257000D01*
X257500Y291600D01*
Y292600D02*Y293600D01*
Y292600D02*X257000Y292100D01*
X253500Y290400D02*X257000D01*
X257500Y289900D01*
Y286900D02*Y288400D01*
X257000Y288900D02*X257500Y288400D01*
X256000Y288900D02*X257000D01*
X256000D02*X255500Y288400D01*
Y287400D02*Y288400D01*
Y287400D02*X256000Y286900D01*
X256500D02*Y288900D01*
X256000Y286900D02*X256500D01*
X253500Y283700D02*X257500D01*
Y284200D02*X257000Y283700D01*
X257500Y284200D02*Y285200D01*
X257000Y285700D02*X257500Y285200D01*
X256000Y285700D02*X257000D01*
X256000D02*X255500Y285200D01*
Y284200D02*Y285200D01*
Y284200D02*X256000Y283700D01*
X253500Y264000D02*X254000Y263500D01*
X253500Y264000D02*Y265500D01*
X254000Y266000D02*X253500Y265500D01*
X254000Y266000D02*X255000D01*
X255500Y265500D01*
Y264000D02*Y265500D01*
Y264000D02*X256000Y263500D01*
X257000D01*
X257500Y264000D02*X257000Y263500D01*
X257500Y264000D02*Y265500D01*
X257000Y266000D02*X257500Y265500D01*
X255500Y260300D02*Y261800D01*
X256000Y262300D02*X255500Y261800D01*
X256000Y262300D02*X257000D01*
X257500Y261800D01*
Y260300D02*Y261800D01*
X255500Y257600D02*X256000Y257100D01*
X255500Y257600D02*Y258600D01*
X256000Y259100D02*X255500Y258600D01*
X256000Y259100D02*X257000D01*
X257500Y258600D01*
X255500Y257100D02*X257000D01*
X257500Y256600D01*
Y257600D02*Y258600D01*
Y257600D02*X257000Y257100D01*
X253500Y255400D02*X257000D01*
X257500Y254900D01*
Y251900D02*Y253400D01*
X257000Y253900D02*X257500Y253400D01*
X256000Y253900D02*X257000D01*
X256000D02*X255500Y253400D01*
Y252400D02*Y253400D01*
Y252400D02*X256000Y251900D01*
X256500D02*Y253900D01*
X256000Y251900D02*X256500D01*
X253500Y248700D02*X257500D01*
Y249200D02*X257000Y248700D01*
X257500Y249200D02*Y250200D01*
X257000Y250700D02*X257500Y250200D01*
X256000Y250700D02*X257000D01*
X256000D02*X255500Y250200D01*
Y249200D02*Y250200D01*
Y249200D02*X256000Y248700D01*
X253500Y229000D02*X254000Y228500D01*
X253500Y229000D02*Y230500D01*
X254000Y231000D02*X253500Y230500D01*
X254000Y231000D02*X255000D01*
X255500Y230500D01*
Y229000D02*Y230500D01*
Y229000D02*X256000Y228500D01*
X257000D01*
X257500Y229000D02*X257000Y228500D01*
X257500Y229000D02*Y230500D01*
X257000Y231000D02*X257500Y230500D01*
X255500Y225300D02*Y226800D01*
X256000Y227300D02*X255500Y226800D01*
X256000Y227300D02*X257000D01*
X257500Y226800D01*
Y225300D02*Y226800D01*
X255500Y222600D02*X256000Y222100D01*
X255500Y222600D02*Y223600D01*
X256000Y224100D02*X255500Y223600D01*
X256000Y224100D02*X257000D01*
X257500Y223600D01*
X255500Y222100D02*X257000D01*
X257500Y221600D01*
Y222600D02*Y223600D01*
Y222600D02*X257000Y222100D01*
X253500Y220400D02*X257000D01*
X257500Y219900D01*
Y216900D02*Y218400D01*
X257000Y218900D02*X257500Y218400D01*
X256000Y218900D02*X257000D01*
X256000D02*X255500Y218400D01*
Y217400D02*Y218400D01*
Y217400D02*X256000Y216900D01*
X256500D02*Y218900D01*
X256000Y216900D02*X256500D01*
X253500Y213700D02*X257500D01*
Y214200D02*X257000Y213700D01*
X257500Y214200D02*Y215200D01*
X257000Y215700D02*X257500Y215200D01*
X256000Y215700D02*X257000D01*
X256000D02*X255500Y215200D01*
Y214200D02*Y215200D01*
Y214200D02*X256000Y213700D01*
X253500Y194000D02*X254000Y193500D01*
X253500Y194000D02*Y195500D01*
X254000Y196000D02*X253500Y195500D01*
X254000Y196000D02*X255000D01*
X255500Y195500D01*
Y194000D02*Y195500D01*
Y194000D02*X256000Y193500D01*
X257000D01*
X257500Y194000D02*X257000Y193500D01*
X257500Y194000D02*Y195500D01*
X257000Y196000D02*X257500Y195500D01*
X255500Y190300D02*Y191800D01*
X256000Y192300D02*X255500Y191800D01*
X256000Y192300D02*X257000D01*
X257500Y191800D01*
Y190300D02*Y191800D01*
X255500Y187600D02*X256000Y187100D01*
X255500Y187600D02*Y188600D01*
X256000Y189100D02*X255500Y188600D01*
X256000Y189100D02*X257000D01*
X257500Y188600D01*
X255500Y187100D02*X257000D01*
X257500Y186600D01*
Y187600D02*Y188600D01*
Y187600D02*X257000Y187100D01*
X253500Y185400D02*X257000D01*
X257500Y184900D01*
Y181900D02*Y183400D01*
X257000Y183900D02*X257500Y183400D01*
X256000Y183900D02*X257000D01*
X256000D02*X255500Y183400D01*
Y182400D02*Y183400D01*
Y182400D02*X256000Y181900D01*
X256500D02*Y183900D01*
X256000Y181900D02*X256500D01*
X253500Y178700D02*X257500D01*
Y179200D02*X257000Y178700D01*
X257500Y179200D02*Y180200D01*
X257000Y180700D02*X257500Y180200D01*
X256000Y180700D02*X257000D01*
X256000D02*X255500Y180200D01*
Y179200D02*Y180200D01*
Y179200D02*X256000Y178700D01*
X253500Y159000D02*X254000Y158500D01*
X253500Y159000D02*Y160500D01*
X254000Y161000D02*X253500Y160500D01*
X254000Y161000D02*X255000D01*
X255500Y160500D01*
Y159000D02*Y160500D01*
Y159000D02*X256000Y158500D01*
X257000D01*
X257500Y159000D02*X257000Y158500D01*
X257500Y159000D02*Y160500D01*
X257000Y161000D02*X257500Y160500D01*
X255500Y155300D02*Y156800D01*
X256000Y157300D02*X255500Y156800D01*
X256000Y157300D02*X257000D01*
X257500Y156800D01*
Y155300D02*Y156800D01*
X255500Y152600D02*X256000Y152100D01*
X255500Y152600D02*Y153600D01*
X256000Y154100D02*X255500Y153600D01*
X256000Y154100D02*X257000D01*
X257500Y153600D01*
X255500Y152100D02*X257000D01*
X257500Y151600D01*
Y152600D02*Y153600D01*
Y152600D02*X257000Y152100D01*
X253500Y150400D02*X257000D01*
X257500Y149900D01*
Y146900D02*Y148400D01*
X257000Y148900D02*X257500Y148400D01*
X256000Y148900D02*X257000D01*
X256000D02*X255500Y148400D01*
Y147400D02*Y148400D01*
Y147400D02*X256000Y146900D01*
X256500D02*Y148900D01*
X256000Y146900D02*X256500D01*
X253500Y143700D02*X257500D01*
Y144200D02*X257000Y143700D01*
X257500Y144200D02*Y145200D01*
X257000Y145700D02*X257500Y145200D01*
X256000Y145700D02*X257000D01*
X256000D02*X255500Y145200D01*
Y144200D02*Y145200D01*
Y144200D02*X256000Y143700D01*
X253500Y124000D02*X254000Y123500D01*
X253500Y124000D02*Y125500D01*
X254000Y126000D02*X253500Y125500D01*
X254000Y126000D02*X255000D01*
X255500Y125500D01*
Y124000D02*Y125500D01*
Y124000D02*X256000Y123500D01*
X257000D01*
X257500Y124000D02*X257000Y123500D01*
X257500Y124000D02*Y125500D01*
X257000Y126000D02*X257500Y125500D01*
X255500Y120300D02*Y121800D01*
X256000Y122300D02*X255500Y121800D01*
X256000Y122300D02*X257000D01*
X257500Y121800D01*
Y120300D02*Y121800D01*
X255500Y117600D02*X256000Y117100D01*
X255500Y117600D02*Y118600D01*
X256000Y119100D02*X255500Y118600D01*
X256000Y119100D02*X257000D01*
X257500Y118600D01*
X255500Y117100D02*X257000D01*
X257500Y116600D01*
Y117600D02*Y118600D01*
Y117600D02*X257000Y117100D01*
X253500Y115400D02*X257000D01*
X257500Y114900D01*
Y111900D02*Y113400D01*
X257000Y113900D02*X257500Y113400D01*
X256000Y113900D02*X257000D01*
X256000D02*X255500Y113400D01*
Y112400D02*Y113400D01*
Y112400D02*X256000Y111900D01*
X256500D02*Y113900D01*
X256000Y111900D02*X256500D01*
X253500Y108700D02*X257500D01*
Y109200D02*X257000Y108700D01*
X257500Y109200D02*Y110200D01*
X257000Y110700D02*X257500Y110200D01*
X256000Y110700D02*X257000D01*
X256000D02*X255500Y110200D01*
Y109200D02*Y110200D01*
Y109200D02*X256000Y108700D01*
X247000Y297500D02*Y298500D01*
Y298000D02*X251000D01*
Y297500D02*Y298500D01*
X249500Y296300D02*X250500D01*
X249500D02*X249000Y295800D01*
Y294800D02*Y295800D01*
Y294800D02*X249500Y294300D01*
X250500D01*
X251000Y294800D02*X250500Y294300D01*
X251000Y294800D02*Y295800D01*
X250500Y296300D02*X251000Y295800D01*
X249000Y293100D02*X250500D01*
X251000Y292600D01*
Y292100D02*Y292600D01*
Y292100D02*X250500Y291600D01*
X249000D02*X250500D01*
X251000Y291100D01*
Y290600D02*Y291100D01*
Y290600D02*X250500Y290100D01*
X249000D02*X250500D01*
X249000Y287400D02*X249500Y286900D01*
X249000Y287400D02*Y288400D01*
X249500Y288900D02*X249000Y288400D01*
X249500Y288900D02*X250500D01*
X251000Y288400D01*
X249000Y286900D02*X250500D01*
X251000Y286400D01*
Y287400D02*Y288400D01*
Y287400D02*X250500Y286900D01*
X247000Y262500D02*Y263500D01*
Y263000D02*X251000D01*
Y262500D02*Y263500D01*
X249500Y261300D02*X250500D01*
X249500D02*X249000Y260800D01*
Y259800D02*Y260800D01*
Y259800D02*X249500Y259300D01*
X250500D01*
X251000Y259800D02*X250500Y259300D01*
X251000Y259800D02*Y260800D01*
X250500Y261300D02*X251000Y260800D01*
X249000Y258100D02*X250500D01*
X251000Y257600D01*
Y257100D02*Y257600D01*
Y257100D02*X250500Y256600D01*
X249000D02*X250500D01*
X251000Y256100D01*
Y255600D02*Y256100D01*
Y255600D02*X250500Y255100D01*
X249000D02*X250500D01*
X249000Y252400D02*X249500Y251900D01*
X249000Y252400D02*Y253400D01*
X249500Y253900D02*X249000Y253400D01*
X249500Y253900D02*X250500D01*
X251000Y253400D01*
X249000Y251900D02*X250500D01*
X251000Y251400D01*
Y252400D02*Y253400D01*
Y252400D02*X250500Y251900D01*
X247000Y227500D02*Y228500D01*
Y228000D02*X251000D01*
Y227500D02*Y228500D01*
X249500Y226300D02*X250500D01*
X249500D02*X249000Y225800D01*
Y224800D02*Y225800D01*
Y224800D02*X249500Y224300D01*
X250500D01*
X251000Y224800D02*X250500Y224300D01*
X251000Y224800D02*Y225800D01*
X250500Y226300D02*X251000Y225800D01*
X249000Y223100D02*X250500D01*
X251000Y222600D01*
Y222100D02*Y222600D01*
Y222100D02*X250500Y221600D01*
X249000D02*X250500D01*
X251000Y221100D01*
Y220600D02*Y221100D01*
Y220600D02*X250500Y220100D01*
X249000D02*X250500D01*
X249000Y217400D02*X249500Y216900D01*
X249000Y217400D02*Y218400D01*
X249500Y218900D02*X249000Y218400D01*
X249500Y218900D02*X250500D01*
X251000Y218400D01*
X249000Y216900D02*X250500D01*
X251000Y216400D01*
Y217400D02*Y218400D01*
Y217400D02*X250500Y216900D01*
X247000Y192500D02*Y193500D01*
Y193000D02*X251000D01*
Y192500D02*Y193500D01*
X249500Y191300D02*X250500D01*
X249500D02*X249000Y190800D01*
Y189800D02*Y190800D01*
Y189800D02*X249500Y189300D01*
X250500D01*
X251000Y189800D02*X250500Y189300D01*
X251000Y189800D02*Y190800D01*
X250500Y191300D02*X251000Y190800D01*
X249000Y188100D02*X250500D01*
X251000Y187600D01*
Y187100D02*Y187600D01*
Y187100D02*X250500Y186600D01*
X249000D02*X250500D01*
X251000Y186100D01*
Y185600D02*Y186100D01*
Y185600D02*X250500Y185100D01*
X249000D02*X250500D01*
X249000Y182400D02*X249500Y181900D01*
X249000Y182400D02*Y183400D01*
X249500Y183900D02*X249000Y183400D01*
X249500Y183900D02*X250500D01*
X251000Y183400D01*
X249000Y181900D02*X250500D01*
X251000Y181400D01*
Y182400D02*Y183400D01*
Y182400D02*X250500Y181900D01*
X247000Y157500D02*Y158500D01*
Y158000D02*X251000D01*
Y157500D02*Y158500D01*
X249500Y156300D02*X250500D01*
X249500D02*X249000Y155800D01*
Y154800D02*Y155800D01*
Y154800D02*X249500Y154300D01*
X250500D01*
X251000Y154800D02*X250500Y154300D01*
X251000Y154800D02*Y155800D01*
X250500Y156300D02*X251000Y155800D01*
X249000Y153100D02*X250500D01*
X251000Y152600D01*
Y152100D02*Y152600D01*
Y152100D02*X250500Y151600D01*
X249000D02*X250500D01*
X251000Y151100D01*
Y150600D02*Y151100D01*
Y150600D02*X250500Y150100D01*
X249000D02*X250500D01*
X249000Y147400D02*X249500Y146900D01*
X249000Y147400D02*Y148400D01*
X249500Y148900D02*X249000Y148400D01*
X249500Y148900D02*X250500D01*
X251000Y148400D01*
X249000Y146900D02*X250500D01*
X251000Y146400D01*
Y147400D02*Y148400D01*
Y147400D02*X250500Y146900D01*
X247000Y122500D02*Y123500D01*
Y123000D02*X251000D01*
Y122500D02*Y123500D01*
X249500Y121300D02*X250500D01*
X249500D02*X249000Y120800D01*
Y119800D02*Y120800D01*
Y119800D02*X249500Y119300D01*
X250500D01*
X251000Y119800D02*X250500Y119300D01*
X251000Y119800D02*Y120800D01*
X250500Y121300D02*X251000Y120800D01*
X249000Y118100D02*X250500D01*
X251000Y117600D01*
Y117100D02*Y117600D01*
Y117100D02*X250500Y116600D01*
X249000D02*X250500D01*
X251000Y116100D01*
Y115600D02*Y116100D01*
Y115600D02*X250500Y115100D01*
X249000D02*X250500D01*
X249000Y112400D02*X249500Y111900D01*
X249000Y112400D02*Y113400D01*
X249500Y113900D02*X249000Y113400D01*
X249500Y113900D02*X250500D01*
X251000Y113400D01*
X249000Y111900D02*X250500D01*
X251000Y111400D01*
Y112400D02*Y113400D01*
Y112400D02*X250500Y111900D01*
X261800Y191000D02*Y192500D01*
X264000Y190500D02*Y192500D01*
X260000D02*X264000D01*
X260000Y190500D02*Y192500D01*
X262500Y188800D02*X264000D01*
X262500D02*X262000Y188300D01*
Y187800D02*Y188300D01*
Y187800D02*X262500Y187300D01*
X264000D01*
X262000Y189300D02*X262500Y188800D01*
X262000Y184600D02*X262500Y184100D01*
X262000Y184600D02*Y185600D01*
X262500Y186100D02*X262000Y185600D01*
X262500Y186100D02*X263500D01*
X264000Y185600D01*
Y184600D02*Y185600D01*
Y184600D02*X263500Y184100D01*
X265000Y186100D02*X265500Y185600D01*
Y184600D02*Y185600D01*
Y184600D02*X265000Y184100D01*
X262000D02*X265000D01*
X264000Y182400D02*Y182900D01*
X261800Y156000D02*Y157500D01*
X264000Y155500D02*Y157500D01*
X260000D02*X264000D01*
X260000Y155500D02*Y157500D01*
X262500Y153800D02*X264000D01*
X262500D02*X262000Y153300D01*
Y152800D02*Y153300D01*
Y152800D02*X262500Y152300D01*
X264000D01*
X262000Y154300D02*X262500Y153800D01*
X262000Y149600D02*X262500Y149100D01*
X262000Y149600D02*Y150600D01*
X262500Y151100D02*X262000Y150600D01*
X262500Y151100D02*X263500D01*
X264000Y150600D01*
Y149600D02*Y150600D01*
Y149600D02*X263500Y149100D01*
X265000Y151100D02*X265500Y150600D01*
Y149600D02*Y150600D01*
Y149600D02*X265000Y149100D01*
X262000D02*X265000D01*
X264000Y147400D02*Y147900D01*
X261800Y121000D02*Y122500D01*
X264000Y120500D02*Y122500D01*
X260000D02*X264000D01*
X260000Y120500D02*Y122500D01*
X262500Y118800D02*X264000D01*
X262500D02*X262000Y118300D01*
Y117800D02*Y118300D01*
Y117800D02*X262500Y117300D01*
X264000D01*
X262000Y119300D02*X262500Y118800D01*
X262000Y114600D02*X262500Y114100D01*
X262000Y114600D02*Y115600D01*
X262500Y116100D02*X262000Y115600D01*
X262500Y116100D02*X263500D01*
X264000Y115600D01*
Y114600D02*Y115600D01*
Y114600D02*X263500Y114100D01*
X265000Y116100D02*X265500Y115600D01*
Y114600D02*Y115600D01*
Y114600D02*X265000Y114100D01*
X262000D02*X265000D01*
X264000Y112400D02*Y112900D01*
X261800Y86000D02*Y87500D01*
X264000Y85500D02*Y87500D01*
X260000D02*X264000D01*
X260000Y85500D02*Y87500D01*
X262500Y83800D02*X264000D01*
X262500D02*X262000Y83300D01*
Y82800D02*Y83300D01*
Y82800D02*X262500Y82300D01*
X264000D01*
X262000Y84300D02*X262500Y83800D01*
X262000Y79600D02*X262500Y79100D01*
X262000Y79600D02*Y80600D01*
X262500Y81100D02*X262000Y80600D01*
X262500Y81100D02*X263500D01*
X264000Y80600D01*
Y79600D02*Y80600D01*
Y79600D02*X263500Y79100D01*
X265000Y81100D02*X265500Y80600D01*
Y79600D02*Y80600D01*
Y79600D02*X265000Y79100D01*
X262000D02*X265000D01*
X264000Y77400D02*Y77900D01*
X253500Y89000D02*X254000Y88500D01*
X253500Y89000D02*Y90500D01*
X254000Y91000D02*X253500Y90500D01*
X254000Y91000D02*X255000D01*
X255500Y90500D01*
Y89000D02*Y90500D01*
Y89000D02*X256000Y88500D01*
X257000D01*
X257500Y89000D02*X257000Y88500D01*
X257500Y89000D02*Y90500D01*
X257000Y91000D02*X257500Y90500D01*
X255500Y85300D02*Y86800D01*
X256000Y87300D02*X255500Y86800D01*
X256000Y87300D02*X257000D01*
X257500Y86800D01*
Y85300D02*Y86800D01*
X255500Y82600D02*X256000Y82100D01*
X255500Y82600D02*Y83600D01*
X256000Y84100D02*X255500Y83600D01*
X256000Y84100D02*X257000D01*
X257500Y83600D01*
X255500Y82100D02*X257000D01*
X257500Y81600D01*
Y82600D02*Y83600D01*
Y82600D02*X257000Y82100D01*
X253500Y80400D02*X257000D01*
X257500Y79900D01*
Y76900D02*Y78400D01*
X257000Y78900D02*X257500Y78400D01*
X256000Y78900D02*X257000D01*
X256000D02*X255500Y78400D01*
Y77400D02*Y78400D01*
Y77400D02*X256000Y76900D01*
X256500D02*Y78900D01*
X256000Y76900D02*X256500D01*
X253500Y73700D02*X257500D01*
Y74200D02*X257000Y73700D01*
X257500Y74200D02*Y75200D01*
X257000Y75700D02*X257500Y75200D01*
X256000Y75700D02*X257000D01*
X256000D02*X255500Y75200D01*
Y74200D02*Y75200D01*
Y74200D02*X256000Y73700D01*
X247000Y87500D02*Y88500D01*
Y88000D02*X251000D01*
Y87500D02*Y88500D01*
X249500Y86300D02*X250500D01*
X249500D02*X249000Y85800D01*
Y84800D02*Y85800D01*
Y84800D02*X249500Y84300D01*
X250500D01*
X251000Y84800D02*X250500Y84300D01*
X251000Y84800D02*Y85800D01*
X250500Y86300D02*X251000Y85800D01*
X249000Y83100D02*X250500D01*
X251000Y82600D01*
Y82100D02*Y82600D01*
Y82100D02*X250500Y81600D01*
X249000D02*X250500D01*
X251000Y81100D01*
Y80600D02*Y81100D01*
Y80600D02*X250500Y80100D01*
X249000D02*X250500D01*
X249000Y77400D02*X249500Y76900D01*
X249000Y77400D02*Y78400D01*
X249500Y78900D02*X249000Y78400D01*
X249500Y78900D02*X250500D01*
X251000Y78400D01*
X249000Y76900D02*X250500D01*
X251000Y76400D01*
Y77400D02*Y78400D01*
Y77400D02*X250500Y76900D01*
X261800Y471000D02*Y472500D01*
X264000Y470500D02*Y472500D01*
X260000D02*X264000D01*
X260000Y470500D02*Y472500D01*
X262500Y468800D02*X264000D01*
X262500D02*X262000Y468300D01*
Y467800D02*Y468300D01*
Y467800D02*X262500Y467300D01*
X264000D01*
X262000Y469300D02*X262500Y468800D01*
X262000Y464600D02*X262500Y464100D01*
X262000Y464600D02*Y465600D01*
X262500Y466100D02*X262000Y465600D01*
X262500Y466100D02*X263500D01*
X264000Y465600D01*
Y464600D02*Y465600D01*
Y464600D02*X263500Y464100D01*
X265000Y466100D02*X265500Y465600D01*
Y464600D02*Y465600D01*
Y464600D02*X265000Y464100D01*
X262000D02*X265000D01*
X264000Y462400D02*Y462900D01*
X253500Y474000D02*X254000Y473500D01*
X253500Y474000D02*Y475500D01*
X254000Y476000D02*X253500Y475500D01*
X254000Y476000D02*X255000D01*
X255500Y475500D01*
Y474000D02*Y475500D01*
Y474000D02*X256000Y473500D01*
X257000D01*
X257500Y474000D02*X257000Y473500D01*
X257500Y474000D02*Y475500D01*
X257000Y476000D02*X257500Y475500D01*
X255500Y470300D02*Y471800D01*
X256000Y472300D02*X255500Y471800D01*
X256000Y472300D02*X257000D01*
X257500Y471800D01*
Y470300D02*Y471800D01*
X255500Y467600D02*X256000Y467100D01*
X255500Y467600D02*Y468600D01*
X256000Y469100D02*X255500Y468600D01*
X256000Y469100D02*X257000D01*
X257500Y468600D01*
X255500Y467100D02*X257000D01*
X257500Y466600D01*
Y467600D02*Y468600D01*
Y467600D02*X257000Y467100D01*
X253500Y465400D02*X257000D01*
X257500Y464900D01*
Y461900D02*Y463400D01*
X257000Y463900D02*X257500Y463400D01*
X256000Y463900D02*X257000D01*
X256000D02*X255500Y463400D01*
Y462400D02*Y463400D01*
Y462400D02*X256000Y461900D01*
X256500D02*Y463900D01*
X256000Y461900D02*X256500D01*
X253500Y458700D02*X257500D01*
Y459200D02*X257000Y458700D01*
X257500Y459200D02*Y460200D01*
X257000Y460700D02*X257500Y460200D01*
X256000Y460700D02*X257000D01*
X256000D02*X255500Y460200D01*
Y459200D02*Y460200D01*
Y459200D02*X256000Y458700D01*
X247000Y472500D02*Y473500D01*
Y473000D02*X251000D01*
Y472500D02*Y473500D01*
X249500Y471300D02*X250500D01*
X249500D02*X249000Y470800D01*
Y469800D02*Y470800D01*
Y469800D02*X249500Y469300D01*
X250500D01*
X251000Y469800D02*X250500Y469300D01*
X251000Y469800D02*Y470800D01*
X250500Y471300D02*X251000Y470800D01*
X249000Y468100D02*X250500D01*
X251000Y467600D01*
Y467100D02*Y467600D01*
Y467100D02*X250500Y466600D01*
X249000D02*X250500D01*
X251000Y466100D01*
Y465600D02*Y466100D01*
Y465600D02*X250500Y465100D01*
X249000D02*X250500D01*
X249000Y462400D02*X249500Y461900D01*
X249000Y462400D02*Y463400D01*
X249500Y463900D02*X249000Y463400D01*
X249500Y463900D02*X250500D01*
X251000Y463400D01*
X249000Y461900D02*X250500D01*
X251000Y461400D01*
Y462400D02*Y463400D01*
Y462400D02*X250500Y461900D01*
X223717Y476380D02*X225957D01*
X224837Y471900D02*Y476380D01*
X221813Y471900D02*Y473580D01*
X221253Y474140D01*
X220133D02*X221253D01*
X222373D02*X221813Y473580D01*
X217109Y474140D02*X216549Y473580D01*
X217109Y474140D02*X218229D01*
X218789Y473580D02*X218229Y474140D01*
X218789Y472460D02*Y473580D01*
Y472460D02*X218229Y471900D01*
X216549Y472460D02*Y474140D01*
Y472460D02*X215989Y471900D01*
X217109D02*X218229D01*
X217109D02*X216549Y472460D01*
X214645Y475148D02*Y475260D01*
Y471900D02*Y473580D01*
X212965Y471900D02*Y473580D01*
X212405Y474140D01*
X211845D02*X212405D01*
X211845D02*X211285Y473580D01*
Y471900D02*Y473580D01*
X213525Y474140D02*X212965Y473580D01*
X207701Y476380D02*X207141Y475820D01*
X207701Y476380D02*X209381D01*
X209941Y475820D02*X209381Y476380D01*
X209941Y474700D02*Y475820D01*
Y474700D02*X209381Y474140D01*
X207701D02*X209381D01*
X207701D02*X207141Y473580D01*
Y472460D02*Y473580D01*
X207701Y471900D02*X207141Y472460D01*
X207701Y471900D02*X209381D01*
X209941Y472460D02*X209381Y471900D01*
X205237Y470220D02*Y473580D01*
X205797Y474140D02*X205237Y473580D01*
X204677Y474140D01*
X203557D02*X204677D01*
X203557D02*X202997Y473580D01*
Y472460D02*Y473580D01*
X203557Y471900D02*X202997Y472460D01*
X203557Y471900D02*X204677D01*
X205237Y472460D02*X204677Y471900D01*
X201653Y472460D02*Y473580D01*
X201093Y474140D01*
X199973D02*X201093D01*
X199973D02*X199413Y473580D01*
Y472460D02*Y473580D01*
X199973Y471900D02*X199413Y472460D01*
X199973Y471900D02*X201093D01*
X201653Y472460D02*X201093Y471900D01*
X197509Y472460D02*Y476380D01*
Y472460D02*X196949Y471900D01*
Y474700D02*X198069D01*
X195269Y472460D02*Y476380D01*
Y472460D02*X194709Y471900D01*
Y474700D02*X195829D01*
X191349Y471900D02*X193029D01*
X193589Y472460D02*X193029Y471900D01*
X193589Y472460D02*Y473580D01*
X193029Y474140D01*
X191909D02*X193029D01*
X191909D02*X191349Y473580D01*
Y473020D02*X193589D01*
X191349D02*Y473580D01*
X189445Y471900D02*Y473580D01*
X188885Y474140D01*
X187765D02*X188885D01*
X190005D02*X189445Y473580D01*
X201500Y458900D02*X201100Y458500D01*
X201500Y461300D02*X201100Y461700D01*
X201500Y458900D02*Y461300D01*
X198540Y458500D02*X199580D01*
X200140Y459060D02*X199580Y458500D01*
X200140Y459060D02*Y461140D01*
X199580Y461700D01*
X198540D02*X199580D01*
X197580D02*X197180Y461300D01*
Y458900D02*Y461300D01*
X197580Y458500D02*X197180Y458900D01*
X196220Y461300D02*X195820Y461700D01*
X194620D02*X195820D01*
X194620D02*X194220Y461300D01*
Y460500D02*Y461300D01*
X196220Y458500D02*X194220Y460500D01*
Y458500D02*X196220D01*
X193260Y458900D02*X192860Y458500D01*
X193260Y458900D02*Y461300D01*
X192860Y461700D01*
X192060D02*X192860D01*
X192060D02*X191660Y461300D01*
Y458900D02*Y461300D01*
X192060Y458500D02*X191660Y458900D01*
X192060Y458500D02*X192860D01*
X193260Y459300D02*X191660Y460900D01*
X190700Y461300D02*X190300Y461700D01*
X189100D02*X190300D01*
X189100D02*X188700Y461300D01*
Y460500D02*Y461300D01*
X190700Y458500D02*X188700Y460500D01*
Y458500D02*X190700D01*
X186140Y461700D02*X187740D01*
Y460100D02*Y461700D01*
Y460100D02*X187340Y460500D01*
X186540D02*X187340D01*
X186540D02*X186140Y460100D01*
Y458900D02*Y460100D01*
X186540Y458500D02*X186140Y458900D01*
X186540Y458500D02*X187340D01*
X187740Y458900D02*X187340Y458500D01*
X226400D02*X227440D01*
X228000Y459060D02*X227440Y458500D01*
X228000Y459060D02*Y461140D01*
X227440Y461700D01*
X226400D02*X227440D01*
X223840Y458500D02*X224880D01*
X225440Y459060D02*X224880Y458500D01*
X225440Y459060D02*Y461140D01*
X224880Y461700D01*
X223840D02*X224880D01*
X221280Y460100D02*X222880D01*
X218720Y458500D02*X220320D01*
X218720D02*X218320Y458900D01*
Y459860D01*
X218720Y460260D02*X218320Y459860D01*
X218720Y460260D02*X219920D01*
Y458500D02*Y461700D01*
X218720D02*X220320D01*
X218720D02*X218320Y461300D01*
Y460660D02*Y461300D01*
X218720Y460260D02*X218320Y460660D01*
X217360Y461700D02*X216560Y460100D01*
X215760Y461700D01*
X216560Y458500D02*Y460100D01*
X213200D02*X214800D01*
X210640Y461700D02*X210240Y461300D01*
X210640Y461700D02*X211840D01*
X212240Y461300D02*X211840Y461700D01*
X212240Y460500D02*Y461300D01*
Y460500D02*X211840Y460100D01*
X210640D02*X211840D01*
X210640D02*X210240Y459700D01*
Y458900D02*Y459700D01*
X210640Y458500D02*X210240Y458900D01*
X210640Y458500D02*X211840D01*
X212240Y458900D02*X211840Y458500D01*
X209280D02*Y460900D01*
X208720Y461700D01*
X207840D02*X208720D01*
X207840D02*X207280Y460900D01*
Y458500D02*Y460900D01*
Y460100D02*X209280D01*
X234200Y465000D02*X235370D01*
X236000Y465630D02*X235370Y465000D01*
X236000Y465630D02*Y467970D01*
X235370Y468600D01*
X234200D02*X235370D01*
X233120Y465000D02*Y468600D01*
Y466800D02*X231320Y468600D01*
X233120Y466800D02*X231320Y465000D01*
X228440Y468600D02*X230240D01*
X229340Y465000D02*Y468600D01*
X225560Y466800D02*X227360D01*
X223580Y468600D02*X224480D01*
X224030Y465000D02*Y468600D01*
X223580Y465000D02*X224480D01*
X220700Y468600D02*X222500D01*
X220700D02*X220250Y468150D01*
Y467250D02*Y468150D01*
X220700Y466800D02*X220250Y467250D01*
X220700Y466800D02*X222050D01*
Y465000D02*Y468600D01*
X221330Y466800D02*X220250Y465000D01*
X217370Y468600D02*X216920Y468150D01*
X217370Y468600D02*X218720D01*
X219170Y468150D02*X218720Y468600D01*
X219170Y467250D02*Y468150D01*
Y467250D02*X218720Y466800D01*
X217370D02*X218720D01*
X217370D02*X216920Y466350D01*
Y465450D02*Y466350D01*
X217370Y465000D02*X216920Y465450D01*
X217370Y465000D02*X218720D01*
X219170Y465450D02*X218720Y465000D01*
X214490Y466980D02*X215840D01*
X214040Y465000D02*X215840D01*
Y468600D01*
X214040D02*X215840D01*
X212960Y465000D02*Y468600D01*
X210710Y465000D01*
Y468600D01*
X207830D02*X207380Y468150D01*
X207830Y468600D02*X209180D01*
X209630Y468150D02*X209180Y468600D01*
X209630Y467250D02*Y468150D01*
Y467250D02*X209180Y466800D01*
X207830D02*X209180D01*
X207830D02*X207380Y466350D01*
Y465450D02*Y466350D01*
X207830Y465000D02*X207380Y465450D01*
X207830Y465000D02*X209180D01*
X209630Y465450D02*X209180Y465000D01*
X204950Y466980D02*X206300D01*
X204500Y465000D02*X206300D01*
Y468600D01*
X204500D02*X206300D01*
X201620Y466800D02*X203420D01*
X198740Y468600D02*X200540D01*
X198740D02*X198290Y468150D01*
Y467250D02*Y468150D01*
X198740Y466800D02*X198290Y467250D01*
X198740Y466800D02*X200090D01*
Y465000D02*Y468600D01*
X199370Y466800D02*X198290Y465000D01*
X197210D02*Y467700D01*
X196580Y468600D01*
X195590D02*X196580D01*
X195590D02*X194960Y467700D01*
Y465000D02*Y467700D01*
Y466800D02*X197210D01*
X192260D02*X191360Y465000D01*
X190460Y466800D02*X191360Y465000D01*
X189380Y466350D02*X187580Y468600D01*
X187130Y466350D02*X189380D01*
X187580Y465000D02*Y468600D01*
X185600Y465000D02*X186050D01*
X182720Y468600D02*X184520D01*
Y466800D02*Y468600D01*
Y466800D02*X184070Y467250D01*
X183170D02*X184070D01*
X183170D02*X182720Y466800D01*
Y465450D02*Y466800D01*
X183170Y465000D02*X182720Y465450D01*
X183170Y465000D02*X184070D01*
X184520Y465450D02*X184070Y465000D01*
X247000Y437500D02*Y438500D01*
Y438000D02*X251000D01*
Y437500D02*Y438500D01*
X249500Y436300D02*X250500D01*
X249500D02*X249000Y435800D01*
Y434800D02*Y435800D01*
Y434800D02*X249500Y434300D01*
X250500D01*
X251000Y434800D02*X250500Y434300D01*
X251000Y434800D02*Y435800D01*
X250500Y436300D02*X251000Y435800D01*
X249000Y433100D02*X250500D01*
X251000Y432600D01*
Y432100D02*Y432600D01*
Y432100D02*X250500Y431600D01*
X249000D02*X250500D01*
X251000Y431100D01*
Y430600D02*Y431100D01*
Y430600D02*X250500Y430100D01*
X249000D02*X250500D01*
X249000Y427400D02*X249500Y426900D01*
X249000Y427400D02*Y428400D01*
X249500Y428900D02*X249000Y428400D01*
X249500Y428900D02*X250500D01*
X251000Y428400D01*
X249000Y426900D02*X250500D01*
X251000Y426400D01*
Y427400D02*Y428400D01*
Y427400D02*X250500Y426900D01*
X223717Y441380D02*X225957D01*
X224837Y436900D02*Y441380D01*
X221813Y436900D02*Y438580D01*
X221253Y439140D01*
X220133D02*X221253D01*
X222373D02*X221813Y438580D01*
X217109Y439140D02*X216549Y438580D01*
X217109Y439140D02*X218229D01*
X218789Y438580D02*X218229Y439140D01*
X218789Y437460D02*Y438580D01*
Y437460D02*X218229Y436900D01*
X216549Y437460D02*Y439140D01*
Y437460D02*X215989Y436900D01*
X217109D02*X218229D01*
X217109D02*X216549Y437460D01*
X214645Y440148D02*Y440260D01*
Y436900D02*Y438580D01*
X212965Y436900D02*Y438580D01*
X212405Y439140D01*
X211845D02*X212405D01*
X211845D02*X211285Y438580D01*
Y436900D02*Y438580D01*
X213525Y439140D02*X212965Y438580D01*
X207701Y441380D02*X207141Y440820D01*
X207701Y441380D02*X209381D01*
X209941Y440820D02*X209381Y441380D01*
X209941Y439700D02*Y440820D01*
Y439700D02*X209381Y439140D01*
X207701D02*X209381D01*
X207701D02*X207141Y438580D01*
Y437460D02*Y438580D01*
X207701Y436900D02*X207141Y437460D01*
X207701Y436900D02*X209381D01*
X209941Y437460D02*X209381Y436900D01*
X205237Y435220D02*Y438580D01*
X205797Y439140D02*X205237Y438580D01*
X204677Y439140D01*
X203557D02*X204677D01*
X203557D02*X202997Y438580D01*
Y437460D02*Y438580D01*
X203557Y436900D02*X202997Y437460D01*
X203557Y436900D02*X204677D01*
X205237Y437460D02*X204677Y436900D01*
X201653Y437460D02*Y438580D01*
X201093Y439140D01*
X199973D02*X201093D01*
X199973D02*X199413Y438580D01*
Y437460D02*Y438580D01*
X199973Y436900D02*X199413Y437460D01*
X199973Y436900D02*X201093D01*
X201653Y437460D02*X201093Y436900D01*
X197509Y437460D02*Y441380D01*
Y437460D02*X196949Y436900D01*
Y439700D02*X198069D01*
X195269Y437460D02*Y441380D01*
Y437460D02*X194709Y436900D01*
Y439700D02*X195829D01*
X191349Y436900D02*X193029D01*
X193589Y437460D02*X193029Y436900D01*
X193589Y437460D02*Y438580D01*
X193029Y439140D01*
X191909D02*X193029D01*
X191909D02*X191349Y438580D01*
Y438020D02*X193589D01*
X191349D02*Y438580D01*
X189445Y436900D02*Y438580D01*
X188885Y439140D01*
X187765D02*X188885D01*
X190005D02*X189445Y438580D01*
X226400Y423500D02*X227440D01*
X228000Y424060D02*X227440Y423500D01*
X228000Y424060D02*Y426140D01*
X227440Y426700D01*
X226400D02*X227440D01*
X223840Y423500D02*X224880D01*
X225440Y424060D02*X224880Y423500D01*
X225440Y424060D02*Y426140D01*
X224880Y426700D01*
X223840D02*X224880D01*
X221280Y425100D02*X222880D01*
X218720Y423500D02*X220320D01*
X218720D02*X218320Y423900D01*
Y424860D01*
X218720Y425260D02*X218320Y424860D01*
X218720Y425260D02*X219920D01*
Y423500D02*Y426700D01*
X218720D02*X220320D01*
X218720D02*X218320Y426300D01*
Y425660D02*Y426300D01*
X218720Y425260D02*X218320Y425660D01*
X217360Y426700D02*X216560Y425100D01*
X215760Y426700D01*
X216560Y423500D02*Y425100D01*
X213200D02*X214800D01*
X210640Y426700D02*X210240Y426300D01*
X210640Y426700D02*X211840D01*
X212240Y426300D02*X211840Y426700D01*
X212240Y425500D02*Y426300D01*
Y425500D02*X211840Y425100D01*
X210640D02*X211840D01*
X210640D02*X210240Y424700D01*
Y423900D02*Y424700D01*
X210640Y423500D02*X210240Y423900D01*
X210640Y423500D02*X211840D01*
X212240Y423900D02*X211840Y423500D01*
X209280D02*Y425900D01*
X208720Y426700D01*
X207840D02*X208720D01*
X207840D02*X207280Y425900D01*
Y423500D02*Y425900D01*
Y425100D02*X209280D01*
X234200Y430000D02*X235370D01*
X236000Y430630D02*X235370Y430000D01*
X236000Y430630D02*Y432970D01*
X235370Y433600D01*
X234200D02*X235370D01*
X233120Y430000D02*Y433600D01*
Y431800D02*X231320Y433600D01*
X233120Y431800D02*X231320Y430000D01*
X228440Y433600D02*X230240D01*
X229340Y430000D02*Y433600D01*
X225560Y431800D02*X227360D01*
X223580Y433600D02*X224480D01*
X224030Y430000D02*Y433600D01*
X223580Y430000D02*X224480D01*
X220700Y433600D02*X222500D01*
X220700D02*X220250Y433150D01*
Y432250D02*Y433150D01*
X220700Y431800D02*X220250Y432250D01*
X220700Y431800D02*X222050D01*
Y430000D02*Y433600D01*
X221330Y431800D02*X220250Y430000D01*
X217370Y433600D02*X216920Y433150D01*
X217370Y433600D02*X218720D01*
X219170Y433150D02*X218720Y433600D01*
X219170Y432250D02*Y433150D01*
Y432250D02*X218720Y431800D01*
X217370D02*X218720D01*
X217370D02*X216920Y431350D01*
Y430450D02*Y431350D01*
X217370Y430000D02*X216920Y430450D01*
X217370Y430000D02*X218720D01*
X219170Y430450D02*X218720Y430000D01*
X214490Y431980D02*X215840D01*
X214040Y430000D02*X215840D01*
Y433600D01*
X214040D02*X215840D01*
X212960Y430000D02*Y433600D01*
X210710Y430000D01*
Y433600D01*
X207830D02*X207380Y433150D01*
X207830Y433600D02*X209180D01*
X209630Y433150D02*X209180Y433600D01*
X209630Y432250D02*Y433150D01*
Y432250D02*X209180Y431800D01*
X207830D02*X209180D01*
X207830D02*X207380Y431350D01*
Y430450D02*Y431350D01*
X207830Y430000D02*X207380Y430450D01*
X207830Y430000D02*X209180D01*
X209630Y430450D02*X209180Y430000D01*
X204950Y431980D02*X206300D01*
X204500Y430000D02*X206300D01*
Y433600D01*
X204500D02*X206300D01*
X201620Y431800D02*X203420D01*
X198740Y433600D02*X200540D01*
X198740D02*X198290Y433150D01*
Y432250D02*Y433150D01*
X198740Y431800D02*X198290Y432250D01*
X198740Y431800D02*X200090D01*
Y430000D02*Y433600D01*
X199370Y431800D02*X198290Y430000D01*
X197210D02*Y432700D01*
X196580Y433600D01*
X195590D02*X196580D01*
X195590D02*X194960Y432700D01*
Y430000D02*Y432700D01*
Y431800D02*X197210D01*
X192260D02*X191360Y430000D01*
X190460Y431800D02*X191360Y430000D01*
X189380Y431350D02*X187580Y433600D01*
X187130Y431350D02*X189380D01*
X187580Y430000D02*Y433600D01*
X185600Y430000D02*X186050D01*
X182720Y433600D02*X184520D01*
Y431800D02*Y433600D01*
Y431800D02*X184070Y432250D01*
X183170D02*X184070D01*
X183170D02*X182720Y431800D01*
Y430450D02*Y431800D01*
X183170Y430000D02*X182720Y430450D01*
X183170Y430000D02*X184070D01*
X184520Y430450D02*X184070Y430000D01*
X201500Y423900D02*X201100Y423500D01*
X201500Y426300D02*X201100Y426700D01*
X201500Y423900D02*Y426300D01*
X198540Y423500D02*X199580D01*
X200140Y424060D02*X199580Y423500D01*
X200140Y424060D02*Y426140D01*
X199580Y426700D01*
X198540D02*X199580D01*
X197580D02*X197180Y426300D01*
Y423900D02*Y426300D01*
X197580Y423500D02*X197180Y423900D01*
X196220Y426300D02*X195820Y426700D01*
X194620D02*X195820D01*
X194620D02*X194220Y426300D01*
Y425500D02*Y426300D01*
X196220Y423500D02*X194220Y425500D01*
Y423500D02*X196220D01*
X193260Y423900D02*X192860Y423500D01*
X193260Y423900D02*Y426300D01*
X192860Y426700D01*
X192060D02*X192860D01*
X192060D02*X191660Y426300D01*
Y423900D02*Y426300D01*
X192060Y423500D02*X191660Y423900D01*
X192060Y423500D02*X192860D01*
X193260Y424300D02*X191660Y425900D01*
X190700Y426300D02*X190300Y426700D01*
X189100D02*X190300D01*
X189100D02*X188700Y426300D01*
Y425500D02*Y426300D01*
X190700Y423500D02*X188700Y425500D01*
Y423500D02*X190700D01*
X186140Y426700D02*X187740D01*
Y425100D02*Y426700D01*
Y425100D02*X187340Y425500D01*
X186540D02*X187340D01*
X186540D02*X186140Y425100D01*
Y423900D02*Y425100D01*
X186540Y423500D02*X186140Y423900D01*
X186540Y423500D02*X187340D01*
X187740Y423900D02*X187340Y423500D01*
X223717Y406380D02*X225957D01*
X224837Y401900D02*Y406380D01*
X221813Y401900D02*Y403580D01*
X221253Y404140D01*
X220133D02*X221253D01*
X222373D02*X221813Y403580D01*
X217109Y404140D02*X216549Y403580D01*
X217109Y404140D02*X218229D01*
X218789Y403580D02*X218229Y404140D01*
X218789Y402460D02*Y403580D01*
Y402460D02*X218229Y401900D01*
X216549Y402460D02*Y404140D01*
Y402460D02*X215989Y401900D01*
X217109D02*X218229D01*
X217109D02*X216549Y402460D01*
X214645Y405148D02*Y405260D01*
Y401900D02*Y403580D01*
X212965Y401900D02*Y403580D01*
X212405Y404140D01*
X211845D02*X212405D01*
X211845D02*X211285Y403580D01*
Y401900D02*Y403580D01*
X213525Y404140D02*X212965Y403580D01*
X207701Y406380D02*X207141Y405820D01*
X207701Y406380D02*X209381D01*
X209941Y405820D02*X209381Y406380D01*
X209941Y404700D02*Y405820D01*
Y404700D02*X209381Y404140D01*
X207701D02*X209381D01*
X207701D02*X207141Y403580D01*
Y402460D02*Y403580D01*
X207701Y401900D02*X207141Y402460D01*
X207701Y401900D02*X209381D01*
X209941Y402460D02*X209381Y401900D01*
X205237Y400220D02*Y403580D01*
X205797Y404140D02*X205237Y403580D01*
X204677Y404140D01*
X203557D02*X204677D01*
X203557D02*X202997Y403580D01*
Y402460D02*Y403580D01*
X203557Y401900D02*X202997Y402460D01*
X203557Y401900D02*X204677D01*
X205237Y402460D02*X204677Y401900D01*
X201653Y402460D02*Y403580D01*
X201093Y404140D01*
X199973D02*X201093D01*
X199973D02*X199413Y403580D01*
Y402460D02*Y403580D01*
X199973Y401900D02*X199413Y402460D01*
X199973Y401900D02*X201093D01*
X201653Y402460D02*X201093Y401900D01*
X197509Y402460D02*Y406380D01*
Y402460D02*X196949Y401900D01*
Y404700D02*X198069D01*
X195269Y402460D02*Y406380D01*
Y402460D02*X194709Y401900D01*
Y404700D02*X195829D01*
X191349Y401900D02*X193029D01*
X193589Y402460D02*X193029Y401900D01*
X193589Y402460D02*Y403580D01*
X193029Y404140D01*
X191909D02*X193029D01*
X191909D02*X191349Y403580D01*
Y403020D02*X193589D01*
X191349D02*Y403580D01*
X189445Y401900D02*Y403580D01*
X188885Y404140D01*
X187765D02*X188885D01*
X190005D02*X189445Y403580D01*
X226400Y388500D02*X227440D01*
X228000Y389060D02*X227440Y388500D01*
X228000Y389060D02*Y391140D01*
X227440Y391700D01*
X226400D02*X227440D01*
X223840Y388500D02*X224880D01*
X225440Y389060D02*X224880Y388500D01*
X225440Y389060D02*Y391140D01*
X224880Y391700D01*
X223840D02*X224880D01*
X221280Y390100D02*X222880D01*
X218720Y388500D02*X220320D01*
X218720D02*X218320Y388900D01*
Y389860D01*
X218720Y390260D02*X218320Y389860D01*
X218720Y390260D02*X219920D01*
Y388500D02*Y391700D01*
X218720D02*X220320D01*
X218720D02*X218320Y391300D01*
Y390660D02*Y391300D01*
X218720Y390260D02*X218320Y390660D01*
X217360Y391700D02*X216560Y390100D01*
X215760Y391700D01*
X216560Y388500D02*Y390100D01*
X213200D02*X214800D01*
X210640Y391700D02*X210240Y391300D01*
X210640Y391700D02*X211840D01*
X212240Y391300D02*X211840Y391700D01*
X212240Y390500D02*Y391300D01*
Y390500D02*X211840Y390100D01*
X210640D02*X211840D01*
X210640D02*X210240Y389700D01*
Y388900D02*Y389700D01*
X210640Y388500D02*X210240Y388900D01*
X210640Y388500D02*X211840D01*
X212240Y388900D02*X211840Y388500D01*
X209280D02*Y390900D01*
X208720Y391700D01*
X207840D02*X208720D01*
X207840D02*X207280Y390900D01*
Y388500D02*Y390900D01*
Y390100D02*X209280D01*
X234200Y395000D02*X235370D01*
X236000Y395630D02*X235370Y395000D01*
X236000Y395630D02*Y397970D01*
X235370Y398600D01*
X234200D02*X235370D01*
X233120Y395000D02*Y398600D01*
Y396800D02*X231320Y398600D01*
X233120Y396800D02*X231320Y395000D01*
X228440Y398600D02*X230240D01*
X229340Y395000D02*Y398600D01*
X225560Y396800D02*X227360D01*
X223580Y398600D02*X224480D01*
X224030Y395000D02*Y398600D01*
X223580Y395000D02*X224480D01*
X220700Y398600D02*X222500D01*
X220700D02*X220250Y398150D01*
Y397250D02*Y398150D01*
X220700Y396800D02*X220250Y397250D01*
X220700Y396800D02*X222050D01*
Y395000D02*Y398600D01*
X221330Y396800D02*X220250Y395000D01*
X217370Y398600D02*X216920Y398150D01*
X217370Y398600D02*X218720D01*
X219170Y398150D02*X218720Y398600D01*
X219170Y397250D02*Y398150D01*
Y397250D02*X218720Y396800D01*
X217370D02*X218720D01*
X217370D02*X216920Y396350D01*
Y395450D02*Y396350D01*
X217370Y395000D02*X216920Y395450D01*
X217370Y395000D02*X218720D01*
X219170Y395450D02*X218720Y395000D01*
X214490Y396980D02*X215840D01*
X214040Y395000D02*X215840D01*
Y398600D01*
X214040D02*X215840D01*
X212960Y395000D02*Y398600D01*
X210710Y395000D01*
Y398600D01*
X207830D02*X207380Y398150D01*
X207830Y398600D02*X209180D01*
X209630Y398150D02*X209180Y398600D01*
X209630Y397250D02*Y398150D01*
Y397250D02*X209180Y396800D01*
X207830D02*X209180D01*
X207830D02*X207380Y396350D01*
Y395450D02*Y396350D01*
X207830Y395000D02*X207380Y395450D01*
X207830Y395000D02*X209180D01*
X209630Y395450D02*X209180Y395000D01*
X204950Y396980D02*X206300D01*
X204500Y395000D02*X206300D01*
Y398600D01*
X204500D02*X206300D01*
X201620Y396800D02*X203420D01*
X198740Y398600D02*X200540D01*
X198740D02*X198290Y398150D01*
Y397250D02*Y398150D01*
X198740Y396800D02*X198290Y397250D01*
X198740Y396800D02*X200090D01*
Y395000D02*Y398600D01*
X199370Y396800D02*X198290Y395000D01*
X197210D02*Y397700D01*
X196580Y398600D01*
X195590D02*X196580D01*
X195590D02*X194960Y397700D01*
Y395000D02*Y397700D01*
Y396800D02*X197210D01*
X192260D02*X191360Y395000D01*
X190460Y396800D02*X191360Y395000D01*
X189380Y396350D02*X187580Y398600D01*
X187130Y396350D02*X189380D01*
X187580Y395000D02*Y398600D01*
X185600Y395000D02*X186050D01*
X182720Y398600D02*X184520D01*
Y396800D02*Y398600D01*
Y396800D02*X184070Y397250D01*
X183170D02*X184070D01*
X183170D02*X182720Y396800D01*
Y395450D02*Y396800D01*
X183170Y395000D02*X182720Y395450D01*
X183170Y395000D02*X184070D01*
X184520Y395450D02*X184070Y395000D01*
X201500Y388900D02*X201100Y388500D01*
X201500Y391300D02*X201100Y391700D01*
X201500Y388900D02*Y391300D01*
X198540Y388500D02*X199580D01*
X200140Y389060D02*X199580Y388500D01*
X200140Y389060D02*Y391140D01*
X199580Y391700D01*
X198540D02*X199580D01*
X197580D02*X197180Y391300D01*
Y388900D02*Y391300D01*
X197580Y388500D02*X197180Y388900D01*
X196220Y391300D02*X195820Y391700D01*
X194620D02*X195820D01*
X194620D02*X194220Y391300D01*
Y390500D02*Y391300D01*
X196220Y388500D02*X194220Y390500D01*
Y388500D02*X196220D01*
X193260Y388900D02*X192860Y388500D01*
X193260Y388900D02*Y391300D01*
X192860Y391700D01*
X192060D02*X192860D01*
X192060D02*X191660Y391300D01*
Y388900D02*Y391300D01*
X192060Y388500D02*X191660Y388900D01*
X192060Y388500D02*X192860D01*
X193260Y389300D02*X191660Y390900D01*
X190700Y391300D02*X190300Y391700D01*
X189100D02*X190300D01*
X189100D02*X188700Y391300D01*
Y390500D02*Y391300D01*
X190700Y388500D02*X188700Y390500D01*
Y388500D02*X190700D01*
X186140Y391700D02*X187740D01*
Y390100D02*Y391700D01*
Y390100D02*X187340Y390500D01*
X186540D02*X187340D01*
X186540D02*X186140Y390100D01*
Y388900D02*Y390100D01*
X186540Y388500D02*X186140Y388900D01*
X186540Y388500D02*X187340D01*
X187740Y388900D02*X187340Y388500D01*
X223717Y371380D02*X225957D01*
X224837Y366900D02*Y371380D01*
X221813Y366900D02*Y368580D01*
X221253Y369140D01*
X220133D02*X221253D01*
X222373D02*X221813Y368580D01*
X217109Y369140D02*X216549Y368580D01*
X217109Y369140D02*X218229D01*
X218789Y368580D02*X218229Y369140D01*
X218789Y367460D02*Y368580D01*
Y367460D02*X218229Y366900D01*
X216549Y367460D02*Y369140D01*
Y367460D02*X215989Y366900D01*
X217109D02*X218229D01*
X217109D02*X216549Y367460D01*
X214645Y370148D02*Y370260D01*
Y366900D02*Y368580D01*
X212965Y366900D02*Y368580D01*
X212405Y369140D01*
X211845D02*X212405D01*
X211845D02*X211285Y368580D01*
Y366900D02*Y368580D01*
X213525Y369140D02*X212965Y368580D01*
X207701Y371380D02*X207141Y370820D01*
X207701Y371380D02*X209381D01*
X209941Y370820D02*X209381Y371380D01*
X209941Y369700D02*Y370820D01*
Y369700D02*X209381Y369140D01*
X207701D02*X209381D01*
X207701D02*X207141Y368580D01*
Y367460D02*Y368580D01*
X207701Y366900D02*X207141Y367460D01*
X207701Y366900D02*X209381D01*
X209941Y367460D02*X209381Y366900D01*
X205237Y365220D02*Y368580D01*
X205797Y369140D02*X205237Y368580D01*
X204677Y369140D01*
X203557D02*X204677D01*
X203557D02*X202997Y368580D01*
Y367460D02*Y368580D01*
X203557Y366900D02*X202997Y367460D01*
X203557Y366900D02*X204677D01*
X205237Y367460D02*X204677Y366900D01*
X201653Y367460D02*Y368580D01*
X201093Y369140D01*
X199973D02*X201093D01*
X199973D02*X199413Y368580D01*
Y367460D02*Y368580D01*
X199973Y366900D02*X199413Y367460D01*
X199973Y366900D02*X201093D01*
X201653Y367460D02*X201093Y366900D01*
X197509Y367460D02*Y371380D01*
Y367460D02*X196949Y366900D01*
Y369700D02*X198069D01*
X195269Y367460D02*Y371380D01*
Y367460D02*X194709Y366900D01*
Y369700D02*X195829D01*
X191349Y366900D02*X193029D01*
X193589Y367460D02*X193029Y366900D01*
X193589Y367460D02*Y368580D01*
X193029Y369140D01*
X191909D02*X193029D01*
X191909D02*X191349Y368580D01*
Y368020D02*X193589D01*
X191349D02*Y368580D01*
X189445Y366900D02*Y368580D01*
X188885Y369140D01*
X187765D02*X188885D01*
X190005D02*X189445Y368580D01*
X201500Y353900D02*X201100Y353500D01*
X201500Y356300D02*X201100Y356700D01*
X201500Y353900D02*Y356300D01*
X198540Y353500D02*X199580D01*
X200140Y354060D02*X199580Y353500D01*
X200140Y354060D02*Y356140D01*
X199580Y356700D01*
X198540D02*X199580D01*
X197580D02*X197180Y356300D01*
Y353900D02*Y356300D01*
X197580Y353500D02*X197180Y353900D01*
X196220Y356300D02*X195820Y356700D01*
X194620D02*X195820D01*
X194620D02*X194220Y356300D01*
Y355500D02*Y356300D01*
X196220Y353500D02*X194220Y355500D01*
Y353500D02*X196220D01*
X193260Y353900D02*X192860Y353500D01*
X193260Y353900D02*Y356300D01*
X192860Y356700D01*
X192060D02*X192860D01*
X192060D02*X191660Y356300D01*
Y353900D02*Y356300D01*
X192060Y353500D02*X191660Y353900D01*
X192060Y353500D02*X192860D01*
X193260Y354300D02*X191660Y355900D01*
X190700Y356300D02*X190300Y356700D01*
X189100D02*X190300D01*
X189100D02*X188700Y356300D01*
Y355500D02*Y356300D01*
X190700Y353500D02*X188700Y355500D01*
Y353500D02*X190700D01*
X186140Y356700D02*X187740D01*
Y355100D02*Y356700D01*
Y355100D02*X187340Y355500D01*
X186540D02*X187340D01*
X186540D02*X186140Y355100D01*
Y353900D02*Y355100D01*
X186540Y353500D02*X186140Y353900D01*
X186540Y353500D02*X187340D01*
X187740Y353900D02*X187340Y353500D01*
X226400D02*X227440D01*
X228000Y354060D02*X227440Y353500D01*
X228000Y354060D02*Y356140D01*
X227440Y356700D01*
X226400D02*X227440D01*
X223840Y353500D02*X224880D01*
X225440Y354060D02*X224880Y353500D01*
X225440Y354060D02*Y356140D01*
X224880Y356700D01*
X223840D02*X224880D01*
X221280Y355100D02*X222880D01*
X218720Y353500D02*X220320D01*
X218720D02*X218320Y353900D01*
Y354860D01*
X218720Y355260D02*X218320Y354860D01*
X218720Y355260D02*X219920D01*
Y353500D02*Y356700D01*
X218720D02*X220320D01*
X218720D02*X218320Y356300D01*
Y355660D02*Y356300D01*
X218720Y355260D02*X218320Y355660D01*
X217360Y356700D02*X216560Y355100D01*
X215760Y356700D01*
X216560Y353500D02*Y355100D01*
X213200D02*X214800D01*
X210640Y356700D02*X210240Y356300D01*
X210640Y356700D02*X211840D01*
X212240Y356300D02*X211840Y356700D01*
X212240Y355500D02*Y356300D01*
Y355500D02*X211840Y355100D01*
X210640D02*X211840D01*
X210640D02*X210240Y354700D01*
Y353900D02*Y354700D01*
X210640Y353500D02*X210240Y353900D01*
X210640Y353500D02*X211840D01*
X212240Y353900D02*X211840Y353500D01*
X209280D02*Y355900D01*
X208720Y356700D01*
X207840D02*X208720D01*
X207840D02*X207280Y355900D01*
Y353500D02*Y355900D01*
Y355100D02*X209280D01*
X234200Y360000D02*X235370D01*
X236000Y360630D02*X235370Y360000D01*
X236000Y360630D02*Y362970D01*
X235370Y363600D01*
X234200D02*X235370D01*
X233120Y360000D02*Y363600D01*
Y361800D02*X231320Y363600D01*
X233120Y361800D02*X231320Y360000D01*
X228440Y363600D02*X230240D01*
X229340Y360000D02*Y363600D01*
X225560Y361800D02*X227360D01*
X223580Y363600D02*X224480D01*
X224030Y360000D02*Y363600D01*
X223580Y360000D02*X224480D01*
X220700Y363600D02*X222500D01*
X220700D02*X220250Y363150D01*
Y362250D02*Y363150D01*
X220700Y361800D02*X220250Y362250D01*
X220700Y361800D02*X222050D01*
Y360000D02*Y363600D01*
X221330Y361800D02*X220250Y360000D01*
X217370Y363600D02*X216920Y363150D01*
X217370Y363600D02*X218720D01*
X219170Y363150D02*X218720Y363600D01*
X219170Y362250D02*Y363150D01*
Y362250D02*X218720Y361800D01*
X217370D02*X218720D01*
X217370D02*X216920Y361350D01*
Y360450D02*Y361350D01*
X217370Y360000D02*X216920Y360450D01*
X217370Y360000D02*X218720D01*
X219170Y360450D02*X218720Y360000D01*
X214490Y361980D02*X215840D01*
X214040Y360000D02*X215840D01*
Y363600D01*
X214040D02*X215840D01*
X212960Y360000D02*Y363600D01*
X210710Y360000D01*
Y363600D01*
X207830D02*X207380Y363150D01*
X207830Y363600D02*X209180D01*
X209630Y363150D02*X209180Y363600D01*
X209630Y362250D02*Y363150D01*
Y362250D02*X209180Y361800D01*
X207830D02*X209180D01*
X207830D02*X207380Y361350D01*
Y360450D02*Y361350D01*
X207830Y360000D02*X207380Y360450D01*
X207830Y360000D02*X209180D01*
X209630Y360450D02*X209180Y360000D01*
X204950Y361980D02*X206300D01*
X204500Y360000D02*X206300D01*
Y363600D01*
X204500D02*X206300D01*
X201620Y361800D02*X203420D01*
X198740Y363600D02*X200540D01*
X198740D02*X198290Y363150D01*
Y362250D02*Y363150D01*
X198740Y361800D02*X198290Y362250D01*
X198740Y361800D02*X200090D01*
Y360000D02*Y363600D01*
X199370Y361800D02*X198290Y360000D01*
X197210D02*Y362700D01*
X196580Y363600D01*
X195590D02*X196580D01*
X195590D02*X194960Y362700D01*
Y360000D02*Y362700D01*
Y361800D02*X197210D01*
X192260D02*X191360Y360000D01*
X190460Y361800D02*X191360Y360000D01*
X189380Y361350D02*X187580Y363600D01*
X187130Y361350D02*X189380D01*
X187580Y360000D02*Y363600D01*
X185600Y360000D02*X186050D01*
X182720Y363600D02*X184520D01*
Y361800D02*Y363600D01*
Y361800D02*X184070Y362250D01*
X183170D02*X184070D01*
X183170D02*X182720Y361800D01*
Y360450D02*Y361800D01*
X183170Y360000D02*X182720Y360450D01*
X183170Y360000D02*X184070D01*
X184520Y360450D02*X184070Y360000D01*
X92538Y83762D02*X93338D01*
X92538Y80262D02*Y83762D01*
X93038Y79762D02*X92538Y80262D01*
X93038Y79762D02*X93538D01*
X94038Y80262D02*X93538Y79762D01*
X94038Y80262D02*Y80762D01*
X90838Y79762D02*Y83762D01*
X89338D02*X91338D01*
X89338D02*X88838Y83262D01*
Y82262D02*Y83262D01*
X89338Y81762D02*X88838Y82262D01*
X89338Y81762D02*X90838D01*
X87638Y82962D02*X86838Y83762D01*
Y79762D02*Y83762D01*
X86138Y79762D02*X87638D01*
X92538Y468762D02*X93338D01*
X92538Y465262D02*Y468762D01*
X93038Y464762D02*X92538Y465262D01*
X93038Y464762D02*X93538D01*
X94038Y465262D02*X93538Y464762D01*
X94038Y465262D02*Y465762D01*
X90838Y464762D02*Y468762D01*
X89338D02*X91338D01*
X89338D02*X88838Y468262D01*
Y467262D02*Y468262D01*
X89338Y466762D02*X88838Y467262D01*
X89338Y466762D02*X90838D01*
X87638Y467962D02*X86838Y468762D01*
Y464762D02*Y468762D01*
X86138Y464762D02*X87638D01*
X92538Y398762D02*X93338D01*
X92538Y395262D02*Y398762D01*
X93038Y394762D02*X92538Y395262D01*
X93038Y394762D02*X93538D01*
X94038Y395262D02*X93538Y394762D01*
X94038Y395262D02*Y395762D01*
X90838Y394762D02*Y398762D01*
X89338D02*X91338D01*
X89338D02*X88838Y398262D01*
Y397262D02*Y398262D01*
X89338Y396762D02*X88838Y397262D01*
X89338Y396762D02*X90838D01*
X87638Y397962D02*X86838Y398762D01*
Y394762D02*Y398762D01*
X86138Y394762D02*X87638D01*
X92538Y433762D02*X93338D01*
X92538Y430262D02*Y433762D01*
X93038Y429762D02*X92538Y430262D01*
X93038Y429762D02*X93538D01*
X94038Y430262D02*X93538Y429762D01*
X94038Y430262D02*Y430762D01*
X90838Y429762D02*Y433762D01*
X89338D02*X91338D01*
X89338D02*X88838Y433262D01*
Y432262D02*Y433262D01*
X89338Y431762D02*X88838Y432262D01*
X89338Y431762D02*X90838D01*
X87638Y432962D02*X86838Y433762D01*
Y429762D02*Y433762D01*
X86138Y429762D02*X87638D01*
X92538Y363762D02*X93338D01*
X92538Y360262D02*Y363762D01*
X93038Y359762D02*X92538Y360262D01*
X93038Y359762D02*X93538D01*
X94038Y360262D02*X93538Y359762D01*
X94038Y360262D02*Y360762D01*
X90838Y359762D02*Y363762D01*
X89338D02*X91338D01*
X89338D02*X88838Y363262D01*
Y362262D02*Y363262D01*
X89338Y361762D02*X88838Y362262D01*
X89338Y361762D02*X90838D01*
X87638Y362962D02*X86838Y363762D01*
Y359762D02*Y363762D01*
X86138Y359762D02*X87638D01*
X92538Y328762D02*X93338D01*
X92538Y325262D02*Y328762D01*
X93038Y324762D02*X92538Y325262D01*
X93038Y324762D02*X93538D01*
X94038Y325262D02*X93538Y324762D01*
X94038Y325262D02*Y325762D01*
X90838Y324762D02*Y328762D01*
X89338D02*X91338D01*
X89338D02*X88838Y328262D01*
Y327262D02*Y328262D01*
X89338Y326762D02*X88838Y327262D01*
X89338Y326762D02*X90838D01*
X87638Y327962D02*X86838Y328762D01*
Y324762D02*Y328762D01*
X86138Y324762D02*X87638D01*
X92538Y293762D02*X93338D01*
X92538Y290262D02*Y293762D01*
X93038Y289762D02*X92538Y290262D01*
X93038Y289762D02*X93538D01*
X94038Y290262D02*X93538Y289762D01*
X94038Y290262D02*Y290762D01*
X90838Y289762D02*Y293762D01*
X89338D02*X91338D01*
X89338D02*X88838Y293262D01*
Y292262D02*Y293262D01*
X89338Y291762D02*X88838Y292262D01*
X89338Y291762D02*X90838D01*
X87638Y292962D02*X86838Y293762D01*
Y289762D02*Y293762D01*
X86138Y289762D02*X87638D01*
X92538Y258762D02*X93338D01*
X92538Y255262D02*Y258762D01*
X93038Y254762D02*X92538Y255262D01*
X93038Y254762D02*X93538D01*
X94038Y255262D02*X93538Y254762D01*
X94038Y255262D02*Y255762D01*
X90838Y254762D02*Y258762D01*
X89338D02*X91338D01*
X89338D02*X88838Y258262D01*
Y257262D02*Y258262D01*
X89338Y256762D02*X88838Y257262D01*
X89338Y256762D02*X90838D01*
X87638Y257962D02*X86838Y258762D01*
Y254762D02*Y258762D01*
X86138Y254762D02*X87638D01*
X92538Y223762D02*X93338D01*
X92538Y220262D02*Y223762D01*
X93038Y219762D02*X92538Y220262D01*
X93038Y219762D02*X93538D01*
X94038Y220262D02*X93538Y219762D01*
X94038Y220262D02*Y220762D01*
X90838Y219762D02*Y223762D01*
X89338D02*X91338D01*
X89338D02*X88838Y223262D01*
Y222262D02*Y223262D01*
X89338Y221762D02*X88838Y222262D01*
X89338Y221762D02*X90838D01*
X87638Y222962D02*X86838Y223762D01*
Y219762D02*Y223762D01*
X86138Y219762D02*X87638D01*
X92538Y188762D02*X93338D01*
X92538Y185262D02*Y188762D01*
X93038Y184762D02*X92538Y185262D01*
X93038Y184762D02*X93538D01*
X94038Y185262D02*X93538Y184762D01*
X94038Y185262D02*Y185762D01*
X90838Y184762D02*Y188762D01*
X89338D02*X91338D01*
X89338D02*X88838Y188262D01*
Y187262D02*Y188262D01*
X89338Y186762D02*X88838Y187262D01*
X89338Y186762D02*X90838D01*
X87638Y187962D02*X86838Y188762D01*
Y184762D02*Y188762D01*
X86138Y184762D02*X87638D01*
X92538Y153762D02*X93338D01*
X92538Y150262D02*Y153762D01*
X93038Y149762D02*X92538Y150262D01*
X93038Y149762D02*X93538D01*
X94038Y150262D02*X93538Y149762D01*
X94038Y150262D02*Y150762D01*
X90838Y149762D02*Y153762D01*
X89338D02*X91338D01*
X89338D02*X88838Y153262D01*
Y152262D02*Y153262D01*
X89338Y151762D02*X88838Y152262D01*
X89338Y151762D02*X90838D01*
X87638Y152962D02*X86838Y153762D01*
Y149762D02*Y153762D01*
X86138Y149762D02*X87638D01*
X92538Y118762D02*X93338D01*
X92538Y115262D02*Y118762D01*
X93038Y114762D02*X92538Y115262D01*
X93038Y114762D02*X93538D01*
X94038Y115262D02*X93538Y114762D01*
X94038Y115262D02*Y115762D01*
X90838Y114762D02*Y118762D01*
X89338D02*X91338D01*
X89338D02*X88838Y118262D01*
Y117262D02*Y118262D01*
X89338Y116762D02*X88838Y117262D01*
X89338Y116762D02*X90838D01*
X87638Y117962D02*X86838Y118762D01*
Y114762D02*Y118762D01*
X86138Y114762D02*X87638D01*
M02*
