G04 start of page 10 for group -4015 idx -4015 *
G04 Title: (unknown), toppaste *
G04 Creator: pcb 20110918 *
G04 CreationDate: Sun 22 Jun 2014 04:25:54 AM GMT UTC *
G04 For: railfan *
G04 Format: Gerber/RS-274X *
G04 PCB-Dimensions: 340000 25000 *
G04 PCB-Coordinate-Origin: lower left *
%MOIN*%
%FSLAX25Y25*%
%LNTOPPASTE*%
%ADD26C,0.0001*%
G54D26*G36*
X8090Y19646D02*Y16810D01*
X10926D01*
Y19646D01*
X8090D01*
G37*
G36*
Y15826D02*Y12992D01*
X10926D01*
Y15826D01*
X8090D01*
G37*
G36*
Y12008D02*Y9174D01*
X10926D01*
Y12008D01*
X8090D01*
G37*
G36*
Y8190D02*Y5354D01*
X10926D01*
Y8190D01*
X8090D01*
G37*
G36*
X14074D02*Y5354D01*
X16910D01*
Y8190D01*
X14074D01*
G37*
G36*
Y12008D02*Y9174D01*
X16910D01*
Y12008D01*
X14074D01*
G37*
G36*
Y15826D02*Y12992D01*
X16910D01*
Y15826D01*
X14074D01*
G37*
G36*
Y19646D02*Y16810D01*
X16910D01*
Y19646D01*
X14074D01*
G37*
G36*
X43090D02*Y16810D01*
X45926D01*
Y19646D01*
X43090D01*
G37*
G36*
Y15826D02*Y12992D01*
X45926D01*
Y15826D01*
X43090D01*
G37*
G36*
Y12008D02*Y9174D01*
X45926D01*
Y12008D01*
X43090D01*
G37*
G36*
Y8190D02*Y5354D01*
X45926D01*
Y8190D01*
X43090D01*
G37*
G36*
X49074D02*Y5354D01*
X51910D01*
Y8190D01*
X49074D01*
G37*
G36*
Y12008D02*Y9174D01*
X51910D01*
Y12008D01*
X49074D01*
G37*
G36*
Y15826D02*Y12992D01*
X51910D01*
Y15826D01*
X49074D01*
G37*
G36*
Y19646D02*Y16810D01*
X51910D01*
Y19646D01*
X49074D01*
G37*
G36*
X78090D02*Y16810D01*
X80926D01*
Y19646D01*
X78090D01*
G37*
G36*
Y15826D02*Y12992D01*
X80926D01*
Y15826D01*
X78090D01*
G37*
G36*
Y12008D02*Y9174D01*
X80926D01*
Y12008D01*
X78090D01*
G37*
G36*
Y8190D02*Y5354D01*
X80926D01*
Y8190D01*
X78090D01*
G37*
G36*
X84074D02*Y5354D01*
X86910D01*
Y8190D01*
X84074D01*
G37*
G36*
Y12008D02*Y9174D01*
X86910D01*
Y12008D01*
X84074D01*
G37*
G36*
Y15826D02*Y12992D01*
X86910D01*
Y15826D01*
X84074D01*
G37*
G36*
Y19646D02*Y16810D01*
X86910D01*
Y19646D01*
X84074D01*
G37*
G36*
X113090D02*Y16810D01*
X115926D01*
Y19646D01*
X113090D01*
G37*
G36*
Y15826D02*Y12992D01*
X115926D01*
Y15826D01*
X113090D01*
G37*
G36*
Y12008D02*Y9174D01*
X115926D01*
Y12008D01*
X113090D01*
G37*
G36*
Y8190D02*Y5354D01*
X115926D01*
Y8190D01*
X113090D01*
G37*
G36*
X119074D02*Y5354D01*
X121910D01*
Y8190D01*
X119074D01*
G37*
G36*
Y12008D02*Y9174D01*
X121910D01*
Y12008D01*
X119074D01*
G37*
G36*
Y15826D02*Y12992D01*
X121910D01*
Y15826D01*
X119074D01*
G37*
G36*
Y19646D02*Y16810D01*
X121910D01*
Y19646D01*
X119074D01*
G37*
G36*
X148090D02*Y16810D01*
X150926D01*
Y19646D01*
X148090D01*
G37*
G36*
Y15826D02*Y12992D01*
X150926D01*
Y15826D01*
X148090D01*
G37*
G36*
Y12008D02*Y9174D01*
X150926D01*
Y12008D01*
X148090D01*
G37*
G36*
Y8190D02*Y5354D01*
X150926D01*
Y8190D01*
X148090D01*
G37*
G36*
X154074D02*Y5354D01*
X156910D01*
Y8190D01*
X154074D01*
G37*
G36*
Y12008D02*Y9174D01*
X156910D01*
Y12008D01*
X154074D01*
G37*
G36*
Y15826D02*Y12992D01*
X156910D01*
Y15826D01*
X154074D01*
G37*
G36*
Y19646D02*Y16810D01*
X156910D01*
Y19646D01*
X154074D01*
G37*
G36*
X183090D02*Y16810D01*
X185926D01*
Y19646D01*
X183090D01*
G37*
G36*
Y15826D02*Y12992D01*
X185926D01*
Y15826D01*
X183090D01*
G37*
G36*
Y12008D02*Y9174D01*
X185926D01*
Y12008D01*
X183090D01*
G37*
G36*
Y8190D02*Y5354D01*
X185926D01*
Y8190D01*
X183090D01*
G37*
G36*
X189074D02*Y5354D01*
X191910D01*
Y8190D01*
X189074D01*
G37*
G36*
Y12008D02*Y9174D01*
X191910D01*
Y12008D01*
X189074D01*
G37*
G36*
Y15826D02*Y12992D01*
X191910D01*
Y15826D01*
X189074D01*
G37*
G36*
Y19646D02*Y16810D01*
X191910D01*
Y19646D01*
X189074D01*
G37*
G36*
X218091D02*Y16810D01*
X220926D01*
Y19646D01*
X218091D01*
G37*
G36*
Y15826D02*Y12992D01*
X220926D01*
Y15826D01*
X218091D01*
G37*
G36*
Y12008D02*Y9174D01*
X220926D01*
Y12008D01*
X218091D01*
G37*
G36*
Y8190D02*Y5354D01*
X220926D01*
Y8190D01*
X218091D01*
G37*
G36*
X224074D02*Y5354D01*
X226909D01*
Y8190D01*
X224074D01*
G37*
G36*
Y12008D02*Y9174D01*
X226909D01*
Y12008D01*
X224074D01*
G37*
G36*
Y15826D02*Y12992D01*
X226909D01*
Y15826D01*
X224074D01*
G37*
G36*
Y19646D02*Y16810D01*
X226909D01*
Y19646D01*
X224074D01*
G37*
G36*
X253091D02*Y16810D01*
X255926D01*
Y19646D01*
X253091D01*
G37*
G36*
Y15826D02*Y12992D01*
X255926D01*
Y15826D01*
X253091D01*
G37*
G36*
Y12008D02*Y9174D01*
X255926D01*
Y12008D01*
X253091D01*
G37*
G36*
Y8190D02*Y5354D01*
X255926D01*
Y8190D01*
X253091D01*
G37*
G36*
X259074D02*Y5354D01*
X261909D01*
Y8190D01*
X259074D01*
G37*
G36*
Y12008D02*Y9174D01*
X261909D01*
Y12008D01*
X259074D01*
G37*
G36*
Y15826D02*Y12992D01*
X261909D01*
Y15826D01*
X259074D01*
G37*
G36*
Y19646D02*Y16810D01*
X261909D01*
Y19646D01*
X259074D01*
G37*
G36*
X288090D02*Y16810D01*
X290926D01*
Y19646D01*
X288090D01*
G37*
G36*
Y15826D02*Y12992D01*
X290926D01*
Y15826D01*
X288090D01*
G37*
G36*
Y12008D02*Y9174D01*
X290926D01*
Y12008D01*
X288090D01*
G37*
G36*
Y8190D02*Y5354D01*
X290926D01*
Y8190D01*
X288090D01*
G37*
G36*
X294074D02*Y5354D01*
X296910D01*
Y8190D01*
X294074D01*
G37*
G36*
Y12008D02*Y9174D01*
X296910D01*
Y12008D01*
X294074D01*
G37*
G36*
Y15826D02*Y12992D01*
X296910D01*
Y15826D01*
X294074D01*
G37*
G36*
Y19646D02*Y16810D01*
X296910D01*
Y19646D01*
X294074D01*
G37*
G36*
X323090D02*Y16810D01*
X325926D01*
Y19646D01*
X323090D01*
G37*
G36*
Y15826D02*Y12992D01*
X325926D01*
Y15826D01*
X323090D01*
G37*
G36*
Y12008D02*Y9174D01*
X325926D01*
Y12008D01*
X323090D01*
G37*
G36*
Y8190D02*Y5354D01*
X325926D01*
Y8190D01*
X323090D01*
G37*
G36*
X329074D02*Y5354D01*
X331910D01*
Y8190D01*
X329074D01*
G37*
G36*
Y12008D02*Y9174D01*
X331910D01*
Y12008D01*
X329074D01*
G37*
G36*
Y15826D02*Y12992D01*
X331910D01*
Y15826D01*
X329074D01*
G37*
G36*
Y19646D02*Y16810D01*
X331910D01*
Y19646D01*
X329074D01*
G37*
M02*
