G04 start of page 2 for group 0 idx 0 *
G04 Title: (unknown), top *
G04 Creator: pcb 20110918 *
G04 CreationDate: Sun 22 Jun 2014 04:25:54 AM GMT UTC *
G04 For: railfan *
G04 Format: Gerber/RS-274X *
G04 PCB-Dimensions: 340000 25000 *
G04 PCB-Coordinate-Origin: lower left *
%MOIN*%
%FSLAX25Y25*%
%LNTOP*%
%ADD14C,0.0130*%
%ADD13C,0.0270*%
%ADD12C,0.0001*%
%ADD11C,0.0100*%
G54D11*X144500Y18000D02*X149508D01*
X144500Y14500D02*X149508D01*
X144500Y10500D02*X149508D01*
X144500Y7000D02*X149508D01*
X160500D02*X155492D01*
X160500Y10500D02*X155492D01*
X160500Y14500D02*X155492D01*
X160500Y18000D02*X155492D01*
X179500D02*X184508D01*
X179500Y14500D02*X184508D01*
X179500Y10500D02*X184508D01*
X179500Y7000D02*X184508D01*
X195500D02*X190492D01*
X195500Y10500D02*X190492D01*
X195500Y14500D02*X190492D01*
X195500Y18000D02*X190492D01*
X214500D02*X219508D01*
X214500Y14500D02*X219508D01*
X214500Y10500D02*X219508D01*
X214500Y7000D02*X219508D01*
X230500D02*X225492D01*
X230500Y10500D02*X225492D01*
X230500Y14500D02*X225492D01*
X230500Y18000D02*X225492D01*
X249500D02*X254508D01*
X249500Y14500D02*X254508D01*
X249500Y10500D02*X254508D01*
X249500Y7000D02*X254508D01*
X265500D02*X260492D01*
X265500Y10500D02*X260492D01*
X265500Y14500D02*X260492D01*
X265500Y18000D02*X260492D01*
X284500D02*X289508D01*
X284500Y14500D02*X289508D01*
X284500Y10500D02*X289508D01*
X284500Y7000D02*X289508D01*
X300500D02*X295492D01*
X300500Y10500D02*X295492D01*
X300500Y14500D02*X295492D01*
X300500Y18000D02*X295492D01*
X319500D02*X324508D01*
X319500Y14500D02*X324508D01*
X319500Y10500D02*X324508D01*
X319500Y7000D02*X324508D01*
X335500D02*X330492D01*
X335500Y10500D02*X330492D01*
X335500Y14500D02*X330492D01*
X335500Y18000D02*X330492D01*
X39500D02*X44508D01*
X55500D02*X50492D01*
X74500D02*X79508D01*
X39500Y14500D02*X44508D01*
X55500D02*X50492D01*
X74500D02*X79508D01*
X39500Y10500D02*X44508D01*
X39500Y7000D02*X44508D01*
X55500D02*X50492D01*
X55500Y10500D02*X50492D01*
X4500Y7000D02*X9508D01*
X20500D02*X15492D01*
X20500Y10500D02*X15492D01*
X20500Y14500D02*X15492D01*
X4500Y18000D02*X9508D01*
X4500Y14500D02*X9508D01*
X4500Y10500D02*X9508D01*
X20500Y18000D02*X15492D01*
X74500Y10500D02*X79508D01*
X74500Y7000D02*X79508D01*
X90500D02*X85492D01*
X90500Y10500D02*X85492D01*
X90500Y14500D02*X85492D01*
X90500Y18000D02*X85492D01*
X109500D02*X114508D01*
X109500Y14500D02*X114508D01*
X109500Y10500D02*X114508D01*
X109500Y7000D02*X114508D01*
X125500D02*X120492D01*
X125500Y10500D02*X120492D01*
X125500Y14500D02*X120492D01*
X125500Y18000D02*X120492D01*
G54D12*G36*
X113090Y19646D02*Y16810D01*
X115926D01*
Y19646D01*
X113090D01*
G37*
G36*
X119074D02*Y16810D01*
X121910D01*
Y19646D01*
X119074D01*
G37*
G36*
X113090Y15826D02*Y12992D01*
X115926D01*
Y15826D01*
X113090D01*
G37*
G36*
Y12008D02*Y9174D01*
X115926D01*
Y12008D01*
X113090D01*
G37*
G36*
X119074D02*Y9174D01*
X121910D01*
Y12008D01*
X119074D01*
G37*
G36*
Y15826D02*Y12992D01*
X121910D01*
Y15826D01*
X119074D01*
G37*
G36*
X113090Y8190D02*Y5354D01*
X115926D01*
Y8190D01*
X113090D01*
G37*
G36*
X119074D02*Y5354D01*
X121910D01*
Y8190D01*
X119074D01*
G37*
G36*
X148090Y19646D02*Y16810D01*
X150926D01*
Y19646D01*
X148090D01*
G37*
G36*
Y15826D02*Y12992D01*
X150926D01*
Y15826D01*
X148090D01*
G37*
G36*
Y12008D02*Y9174D01*
X150926D01*
Y12008D01*
X148090D01*
G37*
G36*
Y8190D02*Y5354D01*
X150926D01*
Y8190D01*
X148090D01*
G37*
G36*
X154074D02*Y5354D01*
X156910D01*
Y8190D01*
X154074D01*
G37*
G36*
Y12008D02*Y9174D01*
X156910D01*
Y12008D01*
X154074D01*
G37*
G36*
Y15826D02*Y12992D01*
X156910D01*
Y15826D01*
X154074D01*
G37*
G36*
Y19646D02*Y16810D01*
X156910D01*
Y19646D01*
X154074D01*
G37*
G36*
X14074D02*Y16810D01*
X16910D01*
Y19646D01*
X14074D01*
G37*
G36*
Y8190D02*Y5354D01*
X16910D01*
Y8190D01*
X14074D01*
G37*
G36*
Y12008D02*Y9174D01*
X16910D01*
Y12008D01*
X14074D01*
G37*
G36*
X8090D02*Y9174D01*
X10926D01*
Y12008D01*
X8090D01*
G37*
G36*
Y8190D02*Y5354D01*
X10926D01*
Y8190D01*
X8090D01*
G37*
G36*
X14074Y15826D02*Y12992D01*
X16910D01*
Y15826D01*
X14074D01*
G37*
G36*
X8090Y19646D02*Y16810D01*
X10926D01*
Y19646D01*
X8090D01*
G37*
G36*
Y15826D02*Y12992D01*
X10926D01*
Y15826D01*
X8090D01*
G37*
G36*
X43090Y19646D02*Y16810D01*
X45926D01*
Y19646D01*
X43090D01*
G37*
G36*
X49074D02*Y16810D01*
X51910D01*
Y19646D01*
X49074D01*
G37*
G36*
X78090D02*Y16810D01*
X80926D01*
Y19646D01*
X78090D01*
G37*
G36*
X43090Y15826D02*Y12992D01*
X45926D01*
Y15826D01*
X43090D01*
G37*
G36*
X49074D02*Y12992D01*
X51910D01*
Y15826D01*
X49074D01*
G37*
G36*
X78090D02*Y12992D01*
X80926D01*
Y15826D01*
X78090D01*
G37*
G36*
X43090Y12008D02*Y9174D01*
X45926D01*
Y12008D01*
X43090D01*
G37*
G36*
X49074D02*Y9174D01*
X51910D01*
Y12008D01*
X49074D01*
G37*
G36*
X43090Y8190D02*Y5354D01*
X45926D01*
Y8190D01*
X43090D01*
G37*
G36*
X49074D02*Y5354D01*
X51910D01*
Y8190D01*
X49074D01*
G37*
G36*
X78090Y12008D02*Y9174D01*
X80926D01*
Y12008D01*
X78090D01*
G37*
G36*
Y8190D02*Y5354D01*
X80926D01*
Y8190D01*
X78090D01*
G37*
G36*
X84074Y15826D02*Y12992D01*
X86910D01*
Y15826D01*
X84074D01*
G37*
G36*
Y19646D02*Y16810D01*
X86910D01*
Y19646D01*
X84074D01*
G37*
G36*
Y8190D02*Y5354D01*
X86910D01*
Y8190D01*
X84074D01*
G37*
G36*
Y12008D02*Y9174D01*
X86910D01*
Y12008D01*
X84074D01*
G37*
G36*
X183090Y19646D02*Y16810D01*
X185926D01*
Y19646D01*
X183090D01*
G37*
G36*
Y15826D02*Y12992D01*
X185926D01*
Y15826D01*
X183090D01*
G37*
G36*
X189074Y19646D02*Y16810D01*
X191910D01*
Y19646D01*
X189074D01*
G37*
G36*
X183090Y12008D02*Y9174D01*
X185926D01*
Y12008D01*
X183090D01*
G37*
G36*
Y8190D02*Y5354D01*
X185926D01*
Y8190D01*
X183090D01*
G37*
G36*
X189074Y15826D02*Y12992D01*
X191910D01*
Y15826D01*
X189074D01*
G37*
G36*
Y8190D02*Y5354D01*
X191910D01*
Y8190D01*
X189074D01*
G37*
G36*
Y12008D02*Y9174D01*
X191910D01*
Y12008D01*
X189074D01*
G37*
G36*
X218091Y19646D02*Y16810D01*
X220926D01*
Y19646D01*
X218091D01*
G37*
G36*
X224074D02*Y16810D01*
X226909D01*
Y19646D01*
X224074D01*
G37*
G36*
X218091Y15826D02*Y12992D01*
X220926D01*
Y15826D01*
X218091D01*
G37*
G36*
X224074D02*Y12992D01*
X226909D01*
Y15826D01*
X224074D01*
G37*
G36*
X218091Y12008D02*Y9174D01*
X220926D01*
Y12008D01*
X218091D01*
G37*
G36*
Y8190D02*Y5354D01*
X220926D01*
Y8190D01*
X218091D01*
G37*
G36*
X224074D02*Y5354D01*
X226909D01*
Y8190D01*
X224074D01*
G37*
G36*
Y12008D02*Y9174D01*
X226909D01*
Y12008D01*
X224074D01*
G37*
G36*
X253091Y19646D02*Y16810D01*
X255926D01*
Y19646D01*
X253091D01*
G37*
G36*
Y15826D02*Y12992D01*
X255926D01*
Y15826D01*
X253091D01*
G37*
G36*
X259074Y19646D02*Y16810D01*
X261909D01*
Y19646D01*
X259074D01*
G37*
G36*
X253091Y12008D02*Y9174D01*
X255926D01*
Y12008D01*
X253091D01*
G37*
G36*
Y8190D02*Y5354D01*
X255926D01*
Y8190D01*
X253091D01*
G37*
G36*
X259074Y15826D02*Y12992D01*
X261909D01*
Y15826D01*
X259074D01*
G37*
G36*
Y8190D02*Y5354D01*
X261909D01*
Y8190D01*
X259074D01*
G37*
G36*
Y12008D02*Y9174D01*
X261909D01*
Y12008D01*
X259074D01*
G37*
G36*
X288090Y19646D02*Y16810D01*
X290926D01*
Y19646D01*
X288090D01*
G37*
G36*
X294074D02*Y16810D01*
X296910D01*
Y19646D01*
X294074D01*
G37*
G36*
X288090Y15826D02*Y12992D01*
X290926D01*
Y15826D01*
X288090D01*
G37*
G36*
X294074D02*Y12992D01*
X296910D01*
Y15826D01*
X294074D01*
G37*
G36*
X288090Y12008D02*Y9174D01*
X290926D01*
Y12008D01*
X288090D01*
G37*
G36*
Y8190D02*Y5354D01*
X290926D01*
Y8190D01*
X288090D01*
G37*
G36*
X294074D02*Y5354D01*
X296910D01*
Y8190D01*
X294074D01*
G37*
G36*
Y12008D02*Y9174D01*
X296910D01*
Y12008D01*
X294074D01*
G37*
G36*
X323090Y19646D02*Y16810D01*
X325926D01*
Y19646D01*
X323090D01*
G37*
G36*
Y15826D02*Y12992D01*
X325926D01*
Y15826D01*
X323090D01*
G37*
G36*
X329074Y19646D02*Y16810D01*
X331910D01*
Y19646D01*
X329074D01*
G37*
G36*
X323090Y12008D02*Y9174D01*
X325926D01*
Y12008D01*
X323090D01*
G37*
G36*
Y8190D02*Y5354D01*
X325926D01*
Y8190D01*
X323090D01*
G37*
G36*
X329074Y15826D02*Y12992D01*
X331910D01*
Y15826D01*
X329074D01*
G37*
G36*
Y8190D02*Y5354D01*
X331910D01*
Y8190D01*
X329074D01*
G37*
G36*
Y12008D02*Y9174D01*
X331910D01*
Y12008D01*
X329074D01*
G37*
G54D13*X160500Y18500D03*
X144500D03*
X160500Y14500D03*
X144500D03*
Y10500D03*
Y6500D03*
X160500Y10500D03*
Y6500D03*
X179500Y18500D03*
Y14500D03*
Y10500D03*
X195500Y18500D03*
Y14500D03*
Y10500D03*
Y6500D03*
X179500D03*
X230500D03*
X214500D03*
X230500Y18500D03*
Y14500D03*
Y10500D03*
X214500Y18500D03*
Y14500D03*
Y10500D03*
X265500Y18500D03*
X249500D03*
X265500Y14500D03*
X249500D03*
Y10500D03*
Y6500D03*
X265500Y10500D03*
Y6500D03*
X284500Y18500D03*
Y14500D03*
Y10500D03*
X300500Y18500D03*
Y14500D03*
Y10500D03*
Y6500D03*
X284500D03*
X335500D03*
X319500D03*
X335500Y18500D03*
Y14500D03*
Y10500D03*
X319500Y18500D03*
Y14500D03*
Y10500D03*
X55500Y18500D03*
X39500D03*
X55500Y14500D03*
X39500D03*
Y10500D03*
Y6500D03*
X55500Y10500D03*
Y6500D03*
X74500Y18500D03*
Y14500D03*
Y10500D03*
X4500Y18500D03*
Y14500D03*
Y10500D03*
X20500Y18500D03*
Y14500D03*
Y10500D03*
Y6500D03*
X4500D03*
X90500Y18500D03*
Y14500D03*
Y10500D03*
Y6500D03*
X74500D03*
X125500D03*
X109500D03*
X125500Y18500D03*
Y14500D03*
Y10500D03*
X109500Y18500D03*
Y14500D03*
Y10500D03*
G54D14*M02*
