G04 start of page 8 for group -4079 idx -4079 *
G04 Title: (unknown), topsilk *
G04 Creator: pcb 20110918 *
G04 CreationDate: Sun 22 Jun 2014 04:25:54 AM GMT UTC *
G04 For: railfan *
G04 Format: Gerber/RS-274X *
G04 PCB-Dimensions: 340000 25000 *
G04 PCB-Coordinate-Origin: lower left *
%MOIN*%
%FSLAX25Y25*%
%LNTOPSILK*%
%ADD24C,0.0100*%
%ADD23C,0.0001*%
G54D23*G36*
X111500Y24000D02*Y21000D01*
X108500D01*
X111500Y24000D01*
G37*
G36*
X146500D02*Y21000D01*
X143500D01*
X146500Y24000D01*
G37*
G36*
X181500D02*Y21000D01*
X178500D01*
X181500Y24000D01*
G37*
G36*
X216500D02*Y21000D01*
X213500D01*
X216500Y24000D01*
G37*
G36*
X6500D02*Y21000D01*
X3500D01*
X6500Y24000D01*
G37*
G36*
X41500D02*Y21000D01*
X38500D01*
X41500Y24000D01*
G37*
G36*
X76500D02*Y21000D01*
X73500D01*
X76500Y24000D01*
G37*
G36*
X251500D02*Y21000D01*
X248500D01*
X251500Y24000D01*
G37*
G36*
X286500D02*Y21000D01*
X283500D01*
X286500Y24000D01*
G37*
G36*
X321500D02*Y21000D01*
X318500D01*
X321500Y24000D01*
G37*
G54D24*X94500Y7000D02*X88000Y500D01*
X105500Y7000D02*X112000Y500D01*
X129500Y7000D02*X123000Y500D01*
X88000Y24500D02*X94500Y18000D01*
X112000Y24500D02*X105500Y18000D01*
X123000Y24500D02*X129500Y18000D01*
X147000Y24500D02*X140500Y18000D01*
X158000Y24500D02*X164500Y18000D01*
X182000Y24500D02*X175500Y18000D01*
X140500Y7000D02*X147000Y500D01*
X164500Y7000D02*X158000Y500D01*
X175500Y7000D02*X182000Y500D01*
X199500Y7000D02*X193000Y500D01*
X42000Y24500D02*X35500Y18000D01*
Y7000D02*X42000Y500D01*
X59500Y7000D02*X53000Y500D01*
Y24500D02*X59500Y18000D01*
X7000Y24500D02*X500Y18000D01*
Y7000D02*X7000Y500D01*
X24500Y7000D02*X18000Y500D01*
Y24500D02*X24500Y18000D01*
X77000Y24500D02*X70500Y18000D01*
Y7000D02*X77000Y500D01*
X193000Y24500D02*X199500Y18000D01*
X217000Y24500D02*X210500Y18000D01*
X228000Y24500D02*X234500Y18000D01*
X252000Y24500D02*X245500Y18000D01*
X210500Y7000D02*X217000Y500D01*
X234500Y7000D02*X228000Y500D01*
X245500Y7000D02*X252000Y500D01*
X269500Y7000D02*X263000Y500D01*
X280500Y7000D02*X287000Y500D01*
X304500Y7000D02*X298000Y500D01*
X263000Y24500D02*X269500Y18000D01*
X287000Y24500D02*X280500Y18000D01*
X298000Y24500D02*X304500Y18000D01*
X322000Y24500D02*X315500Y18000D01*
X333000Y24500D02*X339500Y18000D01*
X315500Y7000D02*X322000Y500D01*
X339500Y7000D02*X333000Y500D01*
X146988Y20768D02*X158012D01*
Y4232D01*
X146988D01*
Y20768D01*
X144988Y22268D02*G75*G03X144988Y22268I500J0D01*G01*
X181988Y20768D02*X193012D01*
Y4232D01*
X181988D01*
Y20768D01*
X179988Y22268D02*G75*G03X179988Y22268I500J0D01*G01*
X216988Y20768D02*X228012D01*
Y4232D01*
X216988D01*
Y20768D01*
X214988Y22268D02*G75*G03X214988Y22268I500J0D01*G01*
X251988Y20768D02*X263012D01*
Y4232D01*
X251988D01*
Y20768D01*
X249988Y22268D02*G75*G03X249988Y22268I500J0D01*G01*
X286988Y20768D02*X298012D01*
Y4232D01*
X286988D01*
Y20768D01*
X284988Y22268D02*G75*G03X284988Y22268I500J0D01*G01*
X321988Y20768D02*X333012D01*
Y4232D01*
X321988D01*
Y20768D01*
X319988Y22268D02*G75*G03X319988Y22268I500J0D01*G01*
X76988Y20768D02*X88012D01*
Y4232D01*
X76988D01*
Y20768D01*
X74988Y22268D02*G75*G03X74988Y22268I500J0D01*G01*
X111988Y20768D02*X123012D01*
Y4232D01*
X111988D01*
Y20768D01*
X109988Y22268D02*G75*G03X109988Y22268I500J0D01*G01*
X6988Y20768D02*X18012D01*
Y4232D01*
X6988D01*
Y20768D01*
X4988Y22268D02*G75*G03X4988Y22268I500J0D01*G01*
X41988Y20768D02*X53012D01*
Y4232D01*
X41988D01*
Y20768D01*
X39988Y22268D02*G75*G03X39988Y22268I500J0D01*G01*
M02*
