M48
INCH
T20C0.013
%
T20
X016050Y001850
X014450Y001850
X016050Y001450
X014450Y001450
X014450Y001050
X014450Y000650
X016050Y001050
X016050Y000650
X017950Y001850
X017950Y001450
X017950Y001050
X019550Y001850
X019550Y001450
X019550Y001050
X019550Y000650
X017950Y000650
X023050Y000650
X021450Y000650
X023050Y001850
X023050Y001450
X023050Y001050
X021450Y001850
X021450Y001450
X021450Y001050
X026550Y001850
X024950Y001850
X026550Y001450
X024950Y001450
X024950Y001050
X024950Y000650
X026550Y001050
X026550Y000650
X028450Y001850
X028450Y001450
X028450Y001050
X030050Y001850
X030050Y001450
X030050Y001050
X030050Y000650
X028450Y000650
X033550Y000650
X031950Y000650
X033550Y001850
X033550Y001450
X033550Y001050
X031950Y001850
X031950Y001450
X031950Y001050
X005550Y001850
X003950Y001850
X005550Y001450
X003950Y001450
X003950Y001050
X003950Y000650
X005550Y001050
X005550Y000650
X007450Y001850
X007450Y001450
X007450Y001050
X000450Y001850
X000450Y001450
X000450Y001050
X002050Y001850
X002050Y001450
X002050Y001050
X002050Y000650
X000450Y000650
X009050Y001850
X009050Y001450
X009050Y001050
X009050Y000650
X007450Y000650
X012550Y000650
X010950Y000650
X012550Y001850
X012550Y001450
X012550Y001050
X010950Y001850
X010950Y001450
X010950Y001050
M30
