G04 start of page 8 for group -4079 idx -4079 *
G04 Title: (unknown), topsilk *
G04 Creator: pcb 20140316 *
G04 CreationDate: Tue 13 Dec 2016 03:17:30 AM GMT UTC *
G04 For: railfan *
G04 Format: Gerber/RS-274X *
G04 PCB-Dimensions (mil): 2500.00 1200.00 *
G04 PCB-Coordinate-Origin: lower left *
%MOIN*%
%FSLAX25Y25*%
%LNTOPSILK*%
%ADD56C,0.0080*%
%ADD55C,0.0100*%
G54D55*X34500Y38000D02*X36500D01*
X35500Y39000D02*Y37000D01*
G54D56*X28500Y34500D02*Y31000D01*
G54D55*X164000Y76000D02*X500D01*
X164000D02*Y52000D01*
G54D56*X82500Y70500D02*Y67000D01*
G54D55*X164000Y52000D02*X500D01*
G54D56*X113000Y65500D02*X113500Y66000D01*
X113000Y65500D02*Y64000D01*
X113500Y63500D02*X113000Y64000D01*
X113500Y63500D02*X116500D01*
X117000Y64000D01*
Y65500D02*Y64000D01*
Y65500D02*X116500Y66000D01*
X115500D02*X116500D01*
X115000Y65500D02*X115500Y66000D01*
X115000Y65500D02*Y64500D01*
X113000Y67200D02*X117000D01*
X113000D02*X117000Y69700D01*
X113000D02*X117000D01*
X113000Y71400D02*X117000D01*
X113000Y72700D02*X113700Y73400D01*
X116300D01*
X117000Y72700D02*X116300Y73400D01*
X117000Y72700D02*Y70900D01*
X113000Y72700D02*Y70900D01*
X134000Y55000D02*X138000Y56000D01*
X134000Y57000D01*
Y59200D02*Y58200D01*
Y58700D02*X138000D01*
Y59200D02*Y58200D01*
X134000Y60400D02*X138000D01*
X134000D02*X138000Y62900D01*
X134000D02*X138000D01*
X99043Y16000D02*X101043D01*
X101543Y15500D01*
Y14500D01*
X101043Y14000D02*X101543Y14500D01*
X99543Y14000D02*X101043D01*
X99543Y16000D02*Y12000D01*
X100343Y14000D02*X101543Y12000D01*
X102743Y15000D02*Y12000D01*
Y15000D02*X103443Y16000D01*
X104543D01*
X105243Y15000D01*
Y12000D01*
X102743Y14000D02*X105243D01*
X106943Y16000D02*Y12000D01*
X108243Y16000D02*X108943Y15300D01*
Y12700D01*
X108243Y12000D02*X108943Y12700D01*
X106443Y12000D02*X108243D01*
X106443Y16000D02*X108243D01*
X110843D02*X111643D01*
Y12500D01*
X111143Y12000D02*X111643Y12500D01*
X110643Y12000D02*X111143D01*
X110143Y12500D02*X110643Y12000D01*
X110143Y13000D02*Y12500D01*
X146000Y26220D02*X147560D01*
X146780D02*Y23100D01*
X148496Y24816D02*X149666D01*
X148496Y23100D02*X150056D01*
X148496Y26220D02*Y23100D01*
Y26220D02*X150056D01*
X152552D02*X152942Y25830D01*
X151382Y26220D02*X152552D01*
X150992Y25830D02*X151382Y26220D01*
X150992Y25830D02*Y25050D01*
X151382Y24660D01*
X152552D01*
X152942Y24270D01*
Y23490D01*
X152552Y23100D02*X152942Y23490D01*
X151382Y23100D02*X152552D01*
X150992Y23490D02*X151382Y23100D01*
X153878Y26220D02*X155438D01*
X154658D02*Y23100D01*
X156374Y24660D02*X157934D01*
X158870Y26220D02*X159650D01*
X159260D02*Y23100D01*
X158870D02*X159650D01*
X160586Y26220D02*X162146D01*
X162536Y25830D01*
Y25050D01*
X162146Y24660D02*X162536Y25050D01*
X160976Y24660D02*X162146D01*
X160976Y26220D02*Y23100D01*
X161600Y24660D02*X162536Y23100D01*
X165032Y26220D02*X165422Y25830D01*
X163862Y26220D02*X165032D01*
X163472Y25830D02*X163862Y26220D01*
X163472Y25830D02*Y25050D01*
X163862Y24660D01*
X165032D01*
X165422Y24270D01*
Y23490D01*
X165032Y23100D02*X165422Y23490D01*
X163862Y23100D02*X165032D01*
X163472Y23490D02*X163862Y23100D01*
X166358Y24816D02*X167528D01*
X166358Y23100D02*X167918D01*
X166358Y26220D02*Y23100D01*
Y26220D02*X167918D01*
X168854D02*Y23100D01*
Y26220D02*X170804Y23100D01*
Y26220D02*Y23100D01*
X173300Y26220D02*X173690Y25830D01*
X172130Y26220D02*X173300D01*
X171740Y25830D02*X172130Y26220D01*
X171740Y25830D02*Y25050D01*
X172130Y24660D01*
X173300D01*
X173690Y24270D01*
Y23490D01*
X173300Y23100D02*X173690Y23490D01*
X172130Y23100D02*X173300D01*
X171740Y23490D02*X172130Y23100D01*
X174626Y24816D02*X175796D01*
X174626Y23100D02*X176186D01*
X174626Y26220D02*Y23100D01*
Y26220D02*X176186D01*
X146000Y18660D02*X146780Y17100D01*
X147560Y18660D02*X146780Y17100D01*
X148496Y19596D02*X149120Y20220D01*
Y17100D01*
X148496D02*X149666D01*
X150602D02*X150992D01*
X151928Y19596D02*X152552Y20220D01*
Y17100D01*
X151928D02*X153098D01*
X24000Y55000D02*X27000D01*
X24000D02*X23000Y55700D01*
Y56800D02*Y55700D01*
Y56800D02*X24000Y57500D01*
X27000D01*
X25000D02*Y55000D01*
X23000Y59200D02*X27000D01*
X23000Y60500D02*X23700Y61200D01*
X26300D01*
X27000Y60500D02*X26300Y61200D01*
X27000Y60500D02*Y58700D01*
X23000Y60500D02*Y58700D01*
Y63900D02*Y63100D01*
Y63900D02*X26500D01*
X27000Y63400D02*X26500Y63900D01*
X27000Y63400D02*Y62900D01*
X26500Y62400D02*X27000Y62900D01*
X26000Y62400D02*X26500D01*
X84000Y58000D02*X88000D01*
X84000Y59300D02*X84700Y60000D01*
X87300D01*
X88000Y59300D02*X87300Y60000D01*
X88000Y59300D02*Y57500D01*
X84000Y59300D02*Y57500D01*
Y68000D02*X88000D01*
X84000Y69300D02*X84700Y70000D01*
X87300D01*
X88000Y69300D02*X87300Y70000D01*
X88000Y69300D02*Y67500D01*
X84000Y69300D02*Y67500D01*
X30000Y42000D02*X34000D01*
X30000Y43300D02*X30700Y44000D01*
X33300D01*
X34000Y43300D02*X33300Y44000D01*
X34000Y43300D02*Y41500D01*
X30000Y43300D02*Y41500D01*
Y32000D02*X34000D01*
X30000Y33300D02*X30700Y34000D01*
X33300D01*
X34000Y33300D02*X33300Y34000D01*
X34000Y33300D02*Y31500D01*
X30000Y33300D02*Y31500D01*
G54D55*X20000Y66000D02*X30000D01*
Y76000D02*Y66000D01*
X20000Y76000D02*X30000D01*
X20000D02*Y66000D01*
X119500Y76000D02*Y66000D01*
X129500D01*
Y76000D01*
X119500D01*
X70500Y74000D02*Y64000D01*
X80500D01*
Y74000D01*
X70500D01*
Y64000D02*Y54000D01*
X80500D01*
Y64000D01*
X70500D01*
X36126Y112500D02*Y99508D01*
X71559Y112500D02*Y99508D01*
X140500Y64000D02*Y54000D01*
X150500D01*
Y64000D01*
X140500D01*
X220000Y80000D02*X249500D01*
Y46000D01*
X193500D02*X249500D01*
X193500Y51000D02*Y46000D01*
Y80000D02*X197500D01*
X193500D02*Y75000D01*
X249500Y80000D02*Y46000D01*
X249000Y80000D02*Y46000D01*
X248500Y80000D02*Y46000D01*
X248000Y80000D02*Y46000D01*
X247500Y80000D02*Y46000D01*
X247000Y80000D02*Y46000D01*
X246500Y80000D02*Y46000D01*
X246000Y80000D02*Y46000D01*
X236500Y80000D02*Y46000D01*
X237000Y80000D02*Y46000D01*
X237500Y80000D02*Y46000D01*
X238000Y80000D02*Y46000D01*
X238500Y80000D02*Y46000D01*
X239000Y80000D02*Y46000D01*
X239500Y80000D02*Y46000D01*
X240000Y80000D02*Y46000D01*
X90150Y16755D02*X90936D01*
X90150Y11245D02*X90936D01*
X36126Y20492D02*Y7500D01*
X71559Y20492D02*Y7500D01*
X43607Y30245D02*X44393D01*
X43607Y35755D02*X44393D01*
X43607Y40245D02*X44393D01*
X43607Y45755D02*X44393D01*
X65107Y40245D02*X65893D01*
X65107Y45755D02*X65893D01*
X65107Y30245D02*X65893D01*
X65107Y35755D02*X65893D01*
M02*
