G04 start of page 7 for group -4062 idx -4062 *
G04 Title: (unknown), soldermask *
G04 Creator: pcb 20140316 *
G04 CreationDate: Tue 13 Dec 2016 03:17:30 AM GMT UTC *
G04 For: railfan *
G04 Format: Gerber/RS-274X *
G04 PCB-Dimensions (mil): 2500.00 1200.00 *
G04 PCB-Coordinate-Origin: lower left *
%MOIN*%
%FSLAX25Y25*%
%LNBOTTOMMASK*%
%ADD54C,0.0610*%
%ADD53C,0.1950*%
%ADD52C,0.1700*%
%ADD51C,0.0001*%
%ADD50C,0.2997*%
G54D50*X233000Y103000D03*
G54D51*G36*
X121200Y74300D02*Y67700D01*
X127800D01*
Y74300D01*
X121200D01*
G37*
G36*
X142200Y62300D02*Y55700D01*
X148800D01*
Y62300D01*
X142200D01*
G37*
G54D52*X208000Y82000D03*
G54D50*X233000Y17000D03*
G54D53*X196000Y63000D03*
G54D52*X220000D03*
G54D50*X17000Y103000D03*
G54D51*G36*
X21700Y74300D02*Y67700D01*
X28300D01*
Y74300D01*
X21700D01*
G37*
G36*
X40950Y102558D02*Y96458D01*
X47050D01*
Y102558D01*
X40950D01*
G37*
G54D54*X44000Y112500D03*
G54D50*X17000Y17000D03*
G54D51*G36*
X72200Y72300D02*Y65700D01*
X78800D01*
Y72300D01*
X72200D01*
G37*
G36*
Y62300D02*Y55700D01*
X78800D01*
Y62300D01*
X72200D01*
G37*
G54D54*X53843Y99508D03*
X63685D03*
X53843Y112500D03*
X63685D03*
G54D51*G36*
X40950Y10550D02*Y4450D01*
X47050D01*
Y10550D01*
X40950D01*
G37*
G54D54*X53843Y7500D03*
X63685D03*
X44000Y20492D03*
X53843D03*
X63685D03*
M02*
