G04 start of page 2 for group 0 idx 0 *
G04 Title: (unknown), top *
G04 Creator: pcb 20140316 *
G04 CreationDate: Tue 13 Dec 2016 03:17:30 AM GMT UTC *
G04 For: railfan *
G04 Format: Gerber/RS-274X *
G04 PCB-Dimensions (mil): 2500.00 1200.00 *
G04 PCB-Coordinate-Origin: lower left *
%MOIN*%
%FSLAX25Y25*%
%LNTOP*%
%ADD24C,0.0350*%
%ADD23C,0.1250*%
%ADD22C,0.1100*%
%ADD21C,0.0420*%
%ADD20C,0.1285*%
%ADD19C,0.0200*%
%ADD18C,0.0400*%
%ADD17R,0.0512X0.0512*%
%ADD16C,0.0550*%
%ADD15C,0.1750*%
%ADD14C,0.1500*%
%ADD13C,0.0001*%
%ADD12C,0.2937*%
%ADD11C,0.0100*%
G54D11*X139500Y80500D02*X145500Y74500D01*
Y59000D01*
X152657Y106343D02*X196000Y63000D01*
X53843Y106343D02*X152657D01*
X139500Y80500D02*X52000D01*
X44000Y88500D01*
X81000Y69000D02*X84500Y65500D01*
X44000Y7500D02*Y20492D01*
X43992Y7492D02*X44000Y7500D01*
X53843D02*Y20492D01*
Y14000D02*X87000D01*
X94043Y20500D02*Y14000D01*
X25000Y71000D02*Y39492D01*
X40457Y33000D02*Y68957D01*
X25000Y39492D02*X44000Y20492D01*
X47543Y33000D02*X61957D01*
X53843Y112500D02*Y99508D01*
X44000Y88500D02*Y112500D01*
X40457Y68957D02*X52000Y80500D01*
X47543Y43000D02*X61957D01*
X69043D02*X73000D01*
X75500Y45500D01*
Y59000D01*
Y69000D02*X81000D01*
Y33000D02*X69043D01*
X84500Y65500D02*Y36500D01*
X81000Y33000D01*
G54D12*X233000Y103000D03*
G54D13*G36*
X121500Y74000D02*Y68000D01*
X127500D01*
Y74000D01*
X121500D01*
G37*
G36*
X142500Y62000D02*Y56000D01*
X148500D01*
Y62000D01*
X142500D01*
G37*
G54D14*X208000Y82000D03*
G54D12*X233000Y17000D03*
G54D15*X196000Y63000D03*
G54D14*X220000D03*
G54D12*X17000Y103000D03*
G54D13*G36*
X22000Y74000D02*Y68000D01*
X28000D01*
Y74000D01*
X22000D01*
G37*
G36*
X41250Y102258D02*Y96758D01*
X46750D01*
Y102258D01*
X41250D01*
G37*
G54D16*X44000Y112500D03*
G54D12*X17000Y17000D03*
G54D13*G36*
X72500Y72000D02*Y66000D01*
X78500D01*
Y72000D01*
X72500D01*
G37*
G36*
Y62000D02*Y56000D01*
X78500D01*
Y62000D01*
X72500D01*
G37*
G54D16*X53843Y99508D03*
X63685D03*
X53843Y112500D03*
X63685D03*
G54D13*G36*
X41250Y10250D02*Y4750D01*
X46750D01*
Y10250D01*
X41250D01*
G37*
G54D16*X53843Y7500D03*
X63685D03*
X44000Y20492D03*
X53843D03*
X63685D03*
G54D17*X47543Y33393D02*Y32607D01*
X40457Y33393D02*Y32607D01*
X47543Y43393D02*Y42607D01*
X40457Y43393D02*Y42607D01*
X87000Y14393D02*Y13607D01*
X94086Y14393D02*Y13607D01*
X69043Y43393D02*Y42607D01*
X61957Y43393D02*Y42607D01*
X69043Y33393D02*Y32607D01*
X61957Y33393D02*Y32607D01*
G54D18*X94043Y20500D03*
G54D19*G54D20*G54D21*G54D22*G54D20*G54D23*G54D22*G54D20*G54D21*G54D24*G54D20*G54D21*G54D24*M02*
