G04 start of page 6 for group -4063 idx -4063 *
G04 Title: (unknown), componentmask *
G04 Creator: pcb 20140316 *
G04 CreationDate: Tue 13 Dec 2016 03:17:30 AM GMT UTC *
G04 For: railfan *
G04 Format: Gerber/RS-274X *
G04 PCB-Dimensions (mil): 2500.00 1200.00 *
G04 PCB-Coordinate-Origin: lower left *
%MOIN*%
%FSLAX25Y25*%
%LNTOPMASK*%
%ADD49R,0.0572X0.0572*%
%ADD48C,0.0610*%
%ADD47C,0.1950*%
%ADD46C,0.1700*%
%ADD45C,0.0001*%
%ADD44C,0.2997*%
G54D44*X233000Y103000D03*
G54D45*G36*
X121200Y74300D02*Y67700D01*
X127800D01*
Y74300D01*
X121200D01*
G37*
G36*
X142200Y62300D02*Y55700D01*
X148800D01*
Y62300D01*
X142200D01*
G37*
G54D46*X208000Y82000D03*
G54D44*X233000Y17000D03*
G54D47*X196000Y63000D03*
G54D46*X220000D03*
G54D44*X17000Y103000D03*
G54D45*G36*
X21700Y74300D02*Y67700D01*
X28300D01*
Y74300D01*
X21700D01*
G37*
G36*
X40950Y102558D02*Y96458D01*
X47050D01*
Y102558D01*
X40950D01*
G37*
G54D48*X44000Y112500D03*
G54D44*X17000Y17000D03*
G54D45*G36*
X72200Y72300D02*Y65700D01*
X78800D01*
Y72300D01*
X72200D01*
G37*
G36*
Y62300D02*Y55700D01*
X78800D01*
Y62300D01*
X72200D01*
G37*
G54D48*X53843Y99508D03*
X63685D03*
X53843Y112500D03*
X63685D03*
G54D45*G36*
X40950Y10550D02*Y4450D01*
X47050D01*
Y10550D01*
X40950D01*
G37*
G54D48*X53843Y7500D03*
X63685D03*
X44000Y20492D03*
X53843D03*
X63685D03*
G54D49*X47543Y33393D02*Y32607D01*
X40457Y33393D02*Y32607D01*
X47543Y43393D02*Y42607D01*
X40457Y43393D02*Y42607D01*
X87000Y14393D02*Y13607D01*
X94086Y14393D02*Y13607D01*
X69043Y43393D02*Y42607D01*
X61957Y43393D02*Y42607D01*
X69043Y33393D02*Y32607D01*
X61957Y33393D02*Y32607D01*
M02*
