G04 start of page 3 for group 1 idx 1 *
G04 Title: (unknown), bottom *
G04 Creator: pcb 20140316 *
G04 CreationDate: Tue 13 Dec 2016 03:17:30 AM GMT UTC *
G04 For: railfan *
G04 Format: Gerber/RS-274X *
G04 PCB-Dimensions (mil): 2500.00 1200.00 *
G04 PCB-Coordinate-Origin: lower left *
%MOIN*%
%FSLAX25Y25*%
%LNBOTTOM*%
%ADD36C,0.0350*%
%ADD35C,0.1250*%
%ADD34C,0.1100*%
%ADD33C,0.0420*%
%ADD32C,0.1285*%
%ADD31C,0.0200*%
%ADD30C,0.0400*%
%ADD29C,0.0550*%
%ADD28C,0.1750*%
%ADD27C,0.1500*%
%ADD26C,0.2937*%
%ADD25C,0.0001*%
G54D25*G36*
X215155Y84245D02*X215319Y83638D01*
X215435Y82988D01*
X215493Y82330D01*
Y81670D01*
X215435Y81012D01*
X215319Y80362D01*
X215155Y79755D01*
Y84245D01*
G37*
G36*
X227155Y65245D02*X227319Y64638D01*
X227435Y63988D01*
X227493Y63330D01*
Y62670D01*
X227435Y62012D01*
X227319Y61362D01*
X227155Y60755D01*
Y65245D01*
G37*
G36*
Y2445D02*X228138Y2038D01*
X228295Y2000D01*
X227155D01*
Y2445D01*
G37*
G36*
Y88445D02*X228138Y88038D01*
X230539Y87461D01*
X233000Y87268D01*
X235461Y87461D01*
X237862Y88038D01*
X240142Y88982D01*
X242247Y90272D01*
X244124Y91876D01*
X245728Y93753D01*
X247018Y95858D01*
X247962Y98138D01*
X248000Y98295D01*
Y21705D01*
X247962Y21862D01*
X247018Y24142D01*
X245728Y26247D01*
X244124Y28124D01*
X242247Y29728D01*
X240142Y31018D01*
X237862Y31962D01*
X235461Y32539D01*
X233000Y32732D01*
X230539Y32539D01*
X228138Y31962D01*
X227155Y31555D01*
Y58396D01*
X227530Y59039D01*
X227849Y59716D01*
X228107Y60419D01*
X228303Y61142D01*
X228434Y61879D01*
X228500Y62626D01*
Y63374D01*
X228434Y64121D01*
X228303Y64858D01*
X228107Y65581D01*
X227849Y66284D01*
X227530Y66961D01*
X227155Y67604D01*
Y88445D01*
G37*
G36*
Y118000D02*X228295D01*
X228138Y117962D01*
X227155Y117555D01*
Y118000D01*
G37*
G36*
X215155D02*X227155D01*
Y117555D01*
X225858Y117018D01*
X223753Y115728D01*
X221876Y114124D01*
X220272Y112247D01*
X218982Y110142D01*
X218038Y107862D01*
X217461Y105461D01*
X217268Y103000D01*
X217461Y100539D01*
X218038Y98138D01*
X218982Y95858D01*
X220272Y93753D01*
X221876Y91876D01*
X223753Y90272D01*
X225858Y88982D01*
X227155Y88445D01*
Y67604D01*
X227152Y67608D01*
X226719Y68219D01*
X226666Y68279D01*
X226604Y68328D01*
X226534Y68368D01*
X226460Y68396D01*
X226381Y68412D01*
X226302Y68416D01*
X226222Y68407D01*
X226145Y68386D01*
X226073Y68353D01*
X226006Y68309D01*
X225947Y68256D01*
X225897Y68193D01*
X225857Y68124D01*
X225829Y68049D01*
X225813Y67971D01*
X225809Y67891D01*
X225818Y67812D01*
X225839Y67735D01*
X225872Y67662D01*
X225917Y67596D01*
X226305Y67062D01*
X226638Y66492D01*
X226919Y65895D01*
X227147Y65275D01*
X227155Y65245D01*
Y60755D01*
X227147Y60725D01*
X226919Y60105D01*
X226638Y59508D01*
X226305Y58938D01*
X225923Y58399D01*
X225879Y58334D01*
X225846Y58263D01*
X225825Y58187D01*
X225817Y58109D01*
X225820Y58030D01*
X225836Y57953D01*
X225864Y57879D01*
X225903Y57811D01*
X225952Y57749D01*
X226010Y57696D01*
X226076Y57653D01*
X226148Y57621D01*
X226224Y57600D01*
X226302Y57591D01*
X226381Y57595D01*
X226458Y57611D01*
X226531Y57639D01*
X226600Y57678D01*
X226661Y57727D01*
X226713Y57786D01*
X227152Y58392D01*
X227155Y58396D01*
Y31555D01*
X225858Y31018D01*
X223753Y29728D01*
X221876Y28124D01*
X220272Y26247D01*
X218982Y24142D01*
X218038Y21862D01*
X217461Y19461D01*
X217268Y17000D01*
X217461Y14539D01*
X218038Y12138D01*
X218982Y9858D01*
X220272Y7753D01*
X221876Y5876D01*
X223753Y4272D01*
X225858Y2982D01*
X227155Y2445D01*
Y2000D01*
X215155D01*
Y56020D01*
X215392Y55848D01*
X216039Y55470D01*
X216716Y55151D01*
X217419Y54893D01*
X218142Y54697D01*
X218879Y54566D01*
X219626Y54500D01*
X220374D01*
X221120Y54566D01*
X221858Y54697D01*
X222581Y54893D01*
X223284Y55151D01*
X223961Y55470D01*
X224608Y55848D01*
X225219Y56281D01*
X225279Y56334D01*
X225328Y56396D01*
X225368Y56466D01*
X225396Y56540D01*
X225412Y56619D01*
X225416Y56698D01*
X225407Y56778D01*
X225386Y56855D01*
X225353Y56927D01*
X225309Y56994D01*
X225256Y57053D01*
X225193Y57103D01*
X225124Y57143D01*
X225049Y57171D01*
X224971Y57187D01*
X224891Y57191D01*
X224812Y57182D01*
X224735Y57161D01*
X224662Y57128D01*
X224596Y57083D01*
X224062Y56695D01*
X223492Y56362D01*
X222895Y56081D01*
X222275Y55853D01*
X221638Y55681D01*
X220988Y55565D01*
X220330Y55507D01*
X219670D01*
X219012Y55565D01*
X218362Y55681D01*
X217725Y55853D01*
X217105Y56081D01*
X216508Y56362D01*
X215938Y56695D01*
X215399Y57077D01*
X215334Y57121D01*
X215263Y57154D01*
X215187Y57175D01*
X215155Y57178D01*
Y68815D01*
X215188Y68818D01*
X215265Y68839D01*
X215338Y68872D01*
X215404Y68917D01*
X215938Y69305D01*
X216508Y69638D01*
X217105Y69919D01*
X217725Y70147D01*
X218362Y70319D01*
X219012Y70435D01*
X219670Y70493D01*
X220330D01*
X220988Y70435D01*
X221638Y70319D01*
X222275Y70147D01*
X222895Y69919D01*
X223492Y69638D01*
X224062Y69305D01*
X224601Y68923D01*
X224666Y68879D01*
X224737Y68846D01*
X224813Y68825D01*
X224891Y68817D01*
X224970Y68820D01*
X225047Y68836D01*
X225121Y68864D01*
X225189Y68903D01*
X225251Y68952D01*
X225304Y69010D01*
X225347Y69076D01*
X225379Y69148D01*
X225400Y69224D01*
X225409Y69302D01*
X225405Y69381D01*
X225389Y69458D01*
X225361Y69531D01*
X225322Y69600D01*
X225273Y69661D01*
X225214Y69713D01*
X224608Y70152D01*
X223961Y70530D01*
X223284Y70849D01*
X222581Y71107D01*
X221858Y71303D01*
X221120Y71434D01*
X220374Y71500D01*
X219626D01*
X218879Y71434D01*
X218142Y71303D01*
X217419Y71107D01*
X216716Y70849D01*
X216039Y70530D01*
X215392Y70152D01*
X215155Y69984D01*
Y77396D01*
X215530Y78039D01*
X215849Y78716D01*
X216107Y79419D01*
X216303Y80142D01*
X216434Y80880D01*
X216500Y81626D01*
Y82374D01*
X216434Y83121D01*
X216303Y83858D01*
X216107Y84581D01*
X215849Y85284D01*
X215530Y85961D01*
X215155Y86604D01*
Y118000D01*
G37*
G36*
X212845D02*X215155D01*
Y86604D01*
X215152Y86608D01*
X214719Y87219D01*
X214666Y87279D01*
X214604Y87328D01*
X214534Y87368D01*
X214460Y87396D01*
X214381Y87412D01*
X214302Y87416D01*
X214222Y87407D01*
X214145Y87386D01*
X214073Y87353D01*
X214006Y87309D01*
X213947Y87256D01*
X213897Y87193D01*
X213857Y87124D01*
X213829Y87049D01*
X213813Y86971D01*
X213809Y86891D01*
X213818Y86812D01*
X213839Y86735D01*
X213872Y86662D01*
X213917Y86596D01*
X214305Y86062D01*
X214638Y85492D01*
X214919Y84895D01*
X215147Y84275D01*
X215155Y84245D01*
Y79755D01*
X215147Y79725D01*
X214919Y79105D01*
X214638Y78508D01*
X214305Y77938D01*
X213923Y77399D01*
X213879Y77334D01*
X213846Y77263D01*
X213825Y77187D01*
X213817Y77109D01*
X213820Y77030D01*
X213836Y76953D01*
X213864Y76879D01*
X213903Y76811D01*
X213952Y76749D01*
X214010Y76696D01*
X214076Y76653D01*
X214148Y76621D01*
X214224Y76600D01*
X214302Y76591D01*
X214381Y76595D01*
X214458Y76611D01*
X214531Y76639D01*
X214600Y76678D01*
X214661Y76727D01*
X214713Y76786D01*
X215152Y77392D01*
X215155Y77396D01*
Y69984D01*
X214781Y69719D01*
X214721Y69666D01*
X214672Y69604D01*
X214632Y69534D01*
X214604Y69460D01*
X214588Y69381D01*
X214584Y69302D01*
X214593Y69222D01*
X214614Y69145D01*
X214647Y69073D01*
X214691Y69006D01*
X214744Y68947D01*
X214807Y68897D01*
X214876Y68857D01*
X214951Y68829D01*
X215029Y68813D01*
X215109Y68809D01*
X215155Y68815D01*
Y57178D01*
X215109Y57183D01*
X215030Y57180D01*
X214953Y57164D01*
X214879Y57136D01*
X214811Y57097D01*
X214749Y57048D01*
X214696Y56990D01*
X214653Y56924D01*
X214621Y56852D01*
X214600Y56776D01*
X214591Y56698D01*
X214595Y56619D01*
X214611Y56542D01*
X214639Y56469D01*
X214678Y56400D01*
X214727Y56339D01*
X214786Y56287D01*
X215155Y56020D01*
Y2000D01*
X212845D01*
Y58396D01*
X212848Y58392D01*
X213281Y57781D01*
X213334Y57721D01*
X213396Y57672D01*
X213466Y57632D01*
X213540Y57604D01*
X213619Y57588D01*
X213698Y57584D01*
X213778Y57593D01*
X213855Y57614D01*
X213927Y57647D01*
X213994Y57691D01*
X214053Y57744D01*
X214103Y57807D01*
X214143Y57876D01*
X214171Y57951D01*
X214187Y58029D01*
X214191Y58109D01*
X214182Y58188D01*
X214161Y58265D01*
X214128Y58338D01*
X214083Y58404D01*
X213695Y58938D01*
X213362Y59508D01*
X213081Y60105D01*
X212853Y60725D01*
X212845Y60755D01*
Y65245D01*
X212853Y65275D01*
X213081Y65895D01*
X213362Y66492D01*
X213695Y67062D01*
X214077Y67601D01*
X214121Y67666D01*
X214154Y67737D01*
X214175Y67813D01*
X214183Y67891D01*
X214180Y67970D01*
X214164Y68047D01*
X214136Y68121D01*
X214097Y68189D01*
X214048Y68251D01*
X213990Y68304D01*
X213924Y68347D01*
X213852Y68379D01*
X213776Y68400D01*
X213698Y68409D01*
X213619Y68405D01*
X213542Y68389D01*
X213469Y68361D01*
X213400Y68322D01*
X213339Y68273D01*
X213287Y68214D01*
X212848Y67608D01*
X212845Y67604D01*
Y75016D01*
X213219Y75281D01*
X213279Y75334D01*
X213328Y75396D01*
X213368Y75466D01*
X213396Y75540D01*
X213412Y75619D01*
X213416Y75698D01*
X213407Y75778D01*
X213386Y75855D01*
X213353Y75927D01*
X213309Y75994D01*
X213256Y76053D01*
X213193Y76103D01*
X213124Y76143D01*
X213049Y76171D01*
X212971Y76187D01*
X212891Y76191D01*
X212845Y76186D01*
Y87822D01*
X212891Y87817D01*
X212970Y87820D01*
X213047Y87836D01*
X213121Y87864D01*
X213189Y87903D01*
X213251Y87952D01*
X213304Y88010D01*
X213347Y88076D01*
X213379Y88148D01*
X213400Y88224D01*
X213409Y88302D01*
X213405Y88381D01*
X213389Y88458D01*
X213361Y88531D01*
X213322Y88600D01*
X213273Y88661D01*
X213214Y88713D01*
X212845Y88980D01*
Y118000D01*
G37*
G36*
Y60755D02*X212681Y61362D01*
X212565Y62012D01*
X212507Y62670D01*
Y63330D01*
X212565Y63988D01*
X212681Y64638D01*
X212845Y65245D01*
Y60755D01*
G37*
G36*
Y76186D02*X212812Y76182D01*
X212735Y76161D01*
X212662Y76128D01*
X212596Y76083D01*
X212062Y75695D01*
X211492Y75362D01*
X210895Y75081D01*
X210275Y74853D01*
X209638Y74681D01*
X208988Y74565D01*
X208330Y74507D01*
X208004D01*
Y89493D01*
X208330D01*
X208988Y89435D01*
X209638Y89319D01*
X210275Y89147D01*
X210895Y88919D01*
X211492Y88638D01*
X212062Y88305D01*
X212601Y87923D01*
X212666Y87879D01*
X212737Y87846D01*
X212813Y87825D01*
X212845Y87822D01*
Y76186D01*
G37*
G36*
Y2000D02*X208004D01*
Y73500D01*
X208374D01*
X209120Y73566D01*
X209858Y73697D01*
X210581Y73893D01*
X211284Y74151D01*
X211961Y74470D01*
X212608Y74848D01*
X212845Y75016D01*
Y67604D01*
X212470Y66961D01*
X212151Y66284D01*
X211893Y65581D01*
X211697Y64858D01*
X211566Y64121D01*
X211500Y63374D01*
Y62626D01*
X211566Y61879D01*
X211697Y61142D01*
X211893Y60419D01*
X212151Y59716D01*
X212470Y59039D01*
X212845Y58396D01*
Y2000D01*
G37*
G36*
X208004Y118000D02*X212845D01*
Y88980D01*
X212608Y89152D01*
X211961Y89530D01*
X211284Y89849D01*
X210581Y90107D01*
X209858Y90303D01*
X209120Y90434D01*
X208374Y90500D01*
X208004D01*
Y118000D01*
G37*
G36*
X200845D02*X208004D01*
Y90500D01*
X207626D01*
X206879Y90434D01*
X206142Y90303D01*
X205419Y90107D01*
X204716Y89849D01*
X204039Y89530D01*
X203392Y89152D01*
X202781Y88719D01*
X202721Y88666D01*
X202672Y88604D01*
X202632Y88534D01*
X202604Y88460D01*
X202588Y88381D01*
X202584Y88302D01*
X202593Y88222D01*
X202614Y88145D01*
X202647Y88073D01*
X202691Y88006D01*
X202744Y87947D01*
X202807Y87897D01*
X202876Y87857D01*
X202951Y87829D01*
X203029Y87813D01*
X203109Y87809D01*
X203188Y87818D01*
X203265Y87839D01*
X203338Y87872D01*
X203404Y87917D01*
X203938Y88305D01*
X204508Y88638D01*
X205105Y88919D01*
X205725Y89147D01*
X206362Y89319D01*
X207012Y89435D01*
X207670Y89493D01*
X208004D01*
Y74507D01*
X207670D01*
X207012Y74565D01*
X206362Y74681D01*
X205725Y74853D01*
X205105Y75081D01*
X204508Y75362D01*
X203938Y75695D01*
X203399Y76077D01*
X203334Y76121D01*
X203263Y76154D01*
X203187Y76175D01*
X203109Y76183D01*
X203030Y76180D01*
X202953Y76164D01*
X202879Y76136D01*
X202811Y76097D01*
X202749Y76048D01*
X202696Y75990D01*
X202653Y75924D01*
X202621Y75852D01*
X202600Y75776D01*
X202591Y75698D01*
X202595Y75619D01*
X202611Y75542D01*
X202639Y75469D01*
X202678Y75400D01*
X202727Y75339D01*
X202786Y75287D01*
X203392Y74848D01*
X204039Y74470D01*
X204716Y74151D01*
X205419Y73893D01*
X206142Y73697D01*
X206879Y73566D01*
X207626Y73500D01*
X208004D01*
Y2000D01*
X200845D01*
Y54534D01*
X201749Y55088D01*
X202916Y56084D01*
X203912Y57251D01*
X204714Y58560D01*
X205301Y59978D01*
X205660Y61470D01*
X205750Y63000D01*
X205660Y64530D01*
X205301Y66022D01*
X204714Y67440D01*
X203912Y68749D01*
X202916Y69916D01*
X201749Y70912D01*
X200845Y71466D01*
Y77396D01*
X200848Y77392D01*
X201281Y76781D01*
X201334Y76721D01*
X201396Y76672D01*
X201466Y76632D01*
X201540Y76604D01*
X201619Y76588D01*
X201698Y76584D01*
X201778Y76593D01*
X201855Y76614D01*
X201927Y76647D01*
X201994Y76691D01*
X202053Y76744D01*
X202103Y76807D01*
X202143Y76876D01*
X202171Y76951D01*
X202187Y77029D01*
X202191Y77109D01*
X202182Y77188D01*
X202161Y77265D01*
X202128Y77338D01*
X202083Y77404D01*
X201695Y77938D01*
X201362Y78508D01*
X201081Y79105D01*
X200853Y79725D01*
X200845Y79755D01*
Y84245D01*
X200853Y84275D01*
X201081Y84895D01*
X201362Y85492D01*
X201695Y86062D01*
X202077Y86601D01*
X202121Y86666D01*
X202154Y86737D01*
X202175Y86813D01*
X202183Y86891D01*
X202180Y86970D01*
X202164Y87047D01*
X202136Y87121D01*
X202097Y87189D01*
X202048Y87251D01*
X201990Y87304D01*
X201924Y87347D01*
X201852Y87379D01*
X201776Y87400D01*
X201698Y87409D01*
X201619Y87405D01*
X201542Y87389D01*
X201469Y87361D01*
X201400Y87322D01*
X201339Y87273D01*
X201287Y87214D01*
X200848Y86608D01*
X200845Y86604D01*
Y118000D01*
G37*
G36*
Y79755D02*X200681Y80362D01*
X200565Y81012D01*
X200507Y81670D01*
Y82330D01*
X200565Y82988D01*
X200681Y83638D01*
X200845Y84245D01*
Y79755D01*
G37*
G36*
X145500Y118000D02*X200845D01*
Y86604D01*
X200470Y85961D01*
X200151Y85284D01*
X199893Y84581D01*
X199697Y83858D01*
X199566Y83121D01*
X199500Y82374D01*
Y81626D01*
X199566Y80880D01*
X199697Y80142D01*
X199893Y79419D01*
X200151Y78716D01*
X200470Y78039D01*
X200845Y77396D01*
Y71466D01*
X200440Y71714D01*
X199022Y72301D01*
X197530Y72660D01*
X196000Y72780D01*
X194470Y72660D01*
X192978Y72301D01*
X191560Y71714D01*
X190251Y70912D01*
X189084Y69916D01*
X188088Y68749D01*
X187286Y67440D01*
X186699Y66022D01*
X186340Y64530D01*
X186220Y63000D01*
X186340Y61470D01*
X186699Y59978D01*
X187286Y58560D01*
X188088Y57251D01*
X189084Y56084D01*
X190251Y55088D01*
X191560Y54286D01*
X192978Y53699D01*
X194470Y53340D01*
X196000Y53220D01*
X197530Y53340D01*
X199022Y53699D01*
X200440Y54286D01*
X200845Y54534D01*
Y2000D01*
X145500D01*
Y54507D01*
X148735Y54514D01*
X148965Y54569D01*
X149183Y54659D01*
X149384Y54783D01*
X149564Y54936D01*
X149717Y55116D01*
X149841Y55317D01*
X149931Y55535D01*
X149986Y55765D01*
X150000Y56000D01*
X149986Y62235D01*
X149931Y62465D01*
X149841Y62683D01*
X149717Y62884D01*
X149564Y63064D01*
X149384Y63217D01*
X149183Y63341D01*
X148965Y63431D01*
X148735Y63486D01*
X148500Y63500D01*
X145500Y63493D01*
Y118000D01*
G37*
G36*
X128250D02*X145500D01*
Y63493D01*
X142265Y63486D01*
X142035Y63431D01*
X141817Y63341D01*
X141616Y63217D01*
X141436Y63064D01*
X141283Y62884D01*
X141159Y62683D01*
X141069Y62465D01*
X141014Y62235D01*
X141000Y62000D01*
X141014Y55765D01*
X141069Y55535D01*
X141159Y55317D01*
X141283Y55116D01*
X141436Y54936D01*
X141616Y54783D01*
X141817Y54659D01*
X142035Y54569D01*
X142265Y54514D01*
X142500Y54500D01*
X145500Y54507D01*
Y2000D01*
X128250D01*
Y68748D01*
X128368Y68757D01*
X128482Y68785D01*
X128592Y68830D01*
X128692Y68891D01*
X128782Y68968D01*
X128859Y69058D01*
X128920Y69158D01*
X128965Y69268D01*
X128993Y69382D01*
X129000Y69500D01*
Y72500D01*
X128993Y72618D01*
X128965Y72732D01*
X128920Y72842D01*
X128859Y72942D01*
X128782Y73032D01*
X128692Y73109D01*
X128592Y73170D01*
X128482Y73215D01*
X128368Y73243D01*
X128250Y73252D01*
Y118000D01*
G37*
G36*
X124500D02*X128250D01*
Y73252D01*
X128132Y73243D01*
X128018Y73215D01*
X127908Y73170D01*
X127808Y73109D01*
X127718Y73032D01*
X127641Y72942D01*
X127580Y72842D01*
X127535Y72732D01*
X127507Y72618D01*
X127500Y72500D01*
Y69500D01*
X127507Y69382D01*
X127535Y69268D01*
X127580Y69158D01*
X127641Y69058D01*
X127718Y68968D01*
X127808Y68891D01*
X127908Y68830D01*
X128018Y68785D01*
X128132Y68757D01*
X128250Y68748D01*
Y2000D01*
X124500D01*
Y66500D01*
X126000D01*
X126118Y66507D01*
X126232Y66535D01*
X126342Y66580D01*
X126442Y66641D01*
X126532Y66718D01*
X126609Y66808D01*
X126670Y66908D01*
X126715Y67018D01*
X126743Y67132D01*
X126752Y67250D01*
X126743Y67368D01*
X126715Y67482D01*
X126670Y67592D01*
X126609Y67692D01*
X126532Y67782D01*
X126442Y67859D01*
X126342Y67920D01*
X126232Y67965D01*
X126118Y67993D01*
X126000Y68000D01*
X124500D01*
Y74000D01*
X126000D01*
X126118Y74007D01*
X126232Y74035D01*
X126342Y74080D01*
X126442Y74141D01*
X126532Y74218D01*
X126609Y74308D01*
X126670Y74408D01*
X126715Y74518D01*
X126743Y74632D01*
X126752Y74750D01*
X126743Y74868D01*
X126715Y74982D01*
X126670Y75092D01*
X126609Y75192D01*
X126532Y75282D01*
X126442Y75359D01*
X126342Y75420D01*
X126232Y75465D01*
X126118Y75493D01*
X126000Y75500D01*
X124500D01*
Y118000D01*
G37*
G36*
X120750D02*X124500D01*
Y75500D01*
X123000D01*
X122882Y75493D01*
X122768Y75465D01*
X122658Y75420D01*
X122558Y75359D01*
X122468Y75282D01*
X122391Y75192D01*
X122330Y75092D01*
X122285Y74982D01*
X122257Y74868D01*
X122248Y74750D01*
X122257Y74632D01*
X122285Y74518D01*
X122330Y74408D01*
X122391Y74308D01*
X122468Y74218D01*
X122558Y74141D01*
X122658Y74080D01*
X122768Y74035D01*
X122882Y74007D01*
X123000Y74000D01*
X124500D01*
Y68000D01*
X123000D01*
X122882Y67993D01*
X122768Y67965D01*
X122658Y67920D01*
X122558Y67859D01*
X122468Y67782D01*
X122391Y67692D01*
X122330Y67592D01*
X122285Y67482D01*
X122257Y67368D01*
X122248Y67250D01*
X122257Y67132D01*
X122285Y67018D01*
X122330Y66908D01*
X122391Y66808D01*
X122468Y66718D01*
X122558Y66641D01*
X122658Y66580D01*
X122768Y66535D01*
X122882Y66507D01*
X123000Y66500D01*
X124500D01*
Y2000D01*
X120750D01*
Y68748D01*
X120868Y68757D01*
X120982Y68785D01*
X121092Y68830D01*
X121192Y68891D01*
X121282Y68968D01*
X121359Y69058D01*
X121420Y69158D01*
X121465Y69268D01*
X121493Y69382D01*
X121500Y69500D01*
Y72500D01*
X121493Y72618D01*
X121465Y72732D01*
X121420Y72842D01*
X121359Y72942D01*
X121282Y73032D01*
X121192Y73109D01*
X121092Y73170D01*
X120982Y73215D01*
X120868Y73243D01*
X120750Y73252D01*
Y118000D01*
G37*
G36*
X75500D02*X120750D01*
Y73252D01*
X120632Y73243D01*
X120518Y73215D01*
X120408Y73170D01*
X120308Y73109D01*
X120218Y73032D01*
X120141Y72942D01*
X120080Y72842D01*
X120035Y72732D01*
X120007Y72618D01*
X120000Y72500D01*
Y69500D01*
X120007Y69382D01*
X120035Y69268D01*
X120080Y69158D01*
X120141Y69058D01*
X120218Y68968D01*
X120308Y68891D01*
X120408Y68830D01*
X120518Y68785D01*
X120632Y68757D01*
X120750Y68748D01*
Y2000D01*
X75500D01*
Y54507D01*
X78735Y54514D01*
X78965Y54569D01*
X79183Y54659D01*
X79384Y54783D01*
X79564Y54936D01*
X79717Y55116D01*
X79841Y55317D01*
X79931Y55535D01*
X79986Y55765D01*
X80000Y56000D01*
X79986Y62235D01*
X79931Y62465D01*
X79841Y62683D01*
X79717Y62884D01*
X79564Y63064D01*
X79384Y63217D01*
X79183Y63341D01*
X78965Y63431D01*
X78735Y63486D01*
X78500Y63500D01*
X75500Y63493D01*
Y64507D01*
X78735Y64514D01*
X78965Y64569D01*
X79183Y64659D01*
X79384Y64783D01*
X79564Y64936D01*
X79717Y65116D01*
X79841Y65317D01*
X79931Y65535D01*
X79986Y65765D01*
X80000Y66000D01*
X79986Y72235D01*
X79931Y72465D01*
X79841Y72683D01*
X79717Y72884D01*
X79564Y73064D01*
X79384Y73217D01*
X79183Y73341D01*
X78965Y73431D01*
X78735Y73486D01*
X78500Y73500D01*
X75500Y73493D01*
Y118000D01*
G37*
G36*
X63679D02*X75500D01*
Y73493D01*
X72265Y73486D01*
X72035Y73431D01*
X71817Y73341D01*
X71616Y73217D01*
X71436Y73064D01*
X71283Y72884D01*
X71159Y72683D01*
X71069Y72465D01*
X71014Y72235D01*
X71000Y72000D01*
X71014Y65765D01*
X71069Y65535D01*
X71159Y65317D01*
X71283Y65116D01*
X71436Y64936D01*
X71616Y64783D01*
X71817Y64659D01*
X72035Y64569D01*
X72265Y64514D01*
X72500Y64500D01*
X75500Y64507D01*
Y63493D01*
X72265Y63486D01*
X72035Y63431D01*
X71817Y63341D01*
X71616Y63217D01*
X71436Y63064D01*
X71283Y62884D01*
X71159Y62683D01*
X71069Y62465D01*
X71014Y62235D01*
X71000Y62000D01*
X71014Y55765D01*
X71069Y55535D01*
X71159Y55317D01*
X71283Y55116D01*
X71436Y54936D01*
X71616Y54783D01*
X71817Y54659D01*
X72035Y54569D01*
X72265Y54514D01*
X72500Y54500D01*
X75500Y54507D01*
Y2000D01*
X63679D01*
Y3739D01*
X63685Y3739D01*
X64273Y3785D01*
X64847Y3923D01*
X65393Y4149D01*
X65896Y4457D01*
X66345Y4840D01*
X66728Y5289D01*
X67037Y5792D01*
X67262Y6338D01*
X67400Y6912D01*
X67435Y7500D01*
X67400Y8089D01*
X67262Y8663D01*
X67037Y9208D01*
X66728Y9711D01*
X66345Y10160D01*
X65896Y10543D01*
X65393Y10852D01*
X64847Y11078D01*
X64273Y11215D01*
X63685Y11262D01*
X63679Y11261D01*
Y16731D01*
X63685Y16731D01*
X64273Y16777D01*
X64847Y16915D01*
X65393Y17141D01*
X65896Y17449D01*
X66345Y17832D01*
X66728Y18281D01*
X67037Y18784D01*
X67262Y19330D01*
X67400Y19904D01*
X67435Y20492D01*
X67400Y21081D01*
X67262Y21655D01*
X67037Y22200D01*
X66728Y22703D01*
X66345Y23152D01*
X65896Y23535D01*
X65393Y23844D01*
X64847Y24070D01*
X64273Y24207D01*
X63685Y24254D01*
X63679Y24253D01*
Y95747D01*
X63685Y95746D01*
X64273Y95793D01*
X64847Y95931D01*
X65393Y96156D01*
X65896Y96465D01*
X66345Y96848D01*
X66728Y97297D01*
X67037Y97800D01*
X67262Y98346D01*
X67400Y98920D01*
X67435Y99508D01*
X67400Y100096D01*
X67262Y100670D01*
X67037Y101216D01*
X66728Y101719D01*
X66345Y102168D01*
X65896Y102551D01*
X65393Y102860D01*
X64847Y103085D01*
X64273Y103223D01*
X63685Y103270D01*
X63679Y103269D01*
Y108739D01*
X63685Y108738D01*
X64273Y108785D01*
X64847Y108923D01*
X65393Y109148D01*
X65896Y109457D01*
X66345Y109840D01*
X66728Y110289D01*
X67037Y110792D01*
X67262Y111338D01*
X67400Y111912D01*
X67435Y112500D01*
X67400Y113088D01*
X67262Y113662D01*
X67037Y114208D01*
X66728Y114711D01*
X66345Y115160D01*
X65896Y115543D01*
X65393Y115852D01*
X64847Y116077D01*
X64273Y116215D01*
X63685Y116262D01*
X63679Y116261D01*
Y118000D01*
G37*
G36*
X53837D02*X63679D01*
Y116261D01*
X63097Y116215D01*
X62523Y116077D01*
X61977Y115852D01*
X61474Y115543D01*
X61025Y115160D01*
X60642Y114711D01*
X60333Y114208D01*
X60108Y113662D01*
X59970Y113088D01*
X59923Y112500D01*
X59970Y111912D01*
X60108Y111338D01*
X60333Y110792D01*
X60642Y110289D01*
X61025Y109840D01*
X61474Y109457D01*
X61977Y109148D01*
X62523Y108923D01*
X63097Y108785D01*
X63679Y108739D01*
Y103269D01*
X63097Y103223D01*
X62523Y103085D01*
X61977Y102860D01*
X61474Y102551D01*
X61025Y102168D01*
X60642Y101719D01*
X60333Y101216D01*
X60108Y100670D01*
X59970Y100096D01*
X59923Y99508D01*
X59970Y98920D01*
X60108Y98346D01*
X60333Y97800D01*
X60642Y97297D01*
X61025Y96848D01*
X61474Y96465D01*
X61977Y96156D01*
X62523Y95931D01*
X63097Y95793D01*
X63679Y95747D01*
Y24253D01*
X63097Y24207D01*
X62523Y24070D01*
X61977Y23844D01*
X61474Y23535D01*
X61025Y23152D01*
X60642Y22703D01*
X60333Y22200D01*
X60108Y21655D01*
X59970Y21081D01*
X59923Y20492D01*
X59970Y19904D01*
X60108Y19330D01*
X60333Y18784D01*
X60642Y18281D01*
X61025Y17832D01*
X61474Y17449D01*
X61977Y17141D01*
X62523Y16915D01*
X63097Y16777D01*
X63679Y16731D01*
Y11261D01*
X63097Y11215D01*
X62523Y11078D01*
X61977Y10852D01*
X61474Y10543D01*
X61025Y10160D01*
X60642Y9711D01*
X60333Y9208D01*
X60108Y8663D01*
X59970Y8089D01*
X59923Y7500D01*
X59970Y6912D01*
X60108Y6338D01*
X60333Y5792D01*
X60642Y5289D01*
X61025Y4840D01*
X61474Y4457D01*
X61977Y4149D01*
X62523Y3923D01*
X63097Y3785D01*
X63679Y3739D01*
Y2000D01*
X53837D01*
Y3739D01*
X53843Y3739D01*
X54431Y3785D01*
X55005Y3923D01*
X55551Y4149D01*
X56054Y4457D01*
X56503Y4840D01*
X56886Y5289D01*
X57195Y5792D01*
X57420Y6338D01*
X57558Y6912D01*
X57593Y7500D01*
X57558Y8089D01*
X57420Y8663D01*
X57195Y9208D01*
X56886Y9711D01*
X56503Y10160D01*
X56054Y10543D01*
X55551Y10852D01*
X55005Y11078D01*
X54431Y11215D01*
X53843Y11262D01*
X53837Y11261D01*
Y16731D01*
X53843Y16731D01*
X54431Y16777D01*
X55005Y16915D01*
X55551Y17141D01*
X56054Y17449D01*
X56503Y17832D01*
X56886Y18281D01*
X57195Y18784D01*
X57420Y19330D01*
X57558Y19904D01*
X57593Y20492D01*
X57558Y21081D01*
X57420Y21655D01*
X57195Y22200D01*
X56886Y22703D01*
X56503Y23152D01*
X56054Y23535D01*
X55551Y23844D01*
X55005Y24070D01*
X54431Y24207D01*
X53843Y24254D01*
X53837Y24253D01*
Y95747D01*
X53843Y95746D01*
X54431Y95793D01*
X55005Y95931D01*
X55551Y96156D01*
X56054Y96465D01*
X56503Y96848D01*
X56886Y97297D01*
X57195Y97800D01*
X57420Y98346D01*
X57558Y98920D01*
X57593Y99508D01*
X57558Y100096D01*
X57420Y100670D01*
X57195Y101216D01*
X56886Y101719D01*
X56503Y102168D01*
X56054Y102551D01*
X55551Y102860D01*
X55005Y103085D01*
X54431Y103223D01*
X53843Y103270D01*
X53837Y103269D01*
Y108739D01*
X53843Y108738D01*
X54431Y108785D01*
X55005Y108923D01*
X55551Y109148D01*
X56054Y109457D01*
X56503Y109840D01*
X56886Y110289D01*
X57195Y110792D01*
X57420Y111338D01*
X57558Y111912D01*
X57593Y112500D01*
X57558Y113088D01*
X57420Y113662D01*
X57195Y114208D01*
X56886Y114711D01*
X56503Y115160D01*
X56054Y115543D01*
X55551Y115852D01*
X55005Y116077D01*
X54431Y116215D01*
X53843Y116262D01*
X53837Y116261D01*
Y118000D01*
G37*
G36*
X44000D02*X53837D01*
Y116261D01*
X53255Y116215D01*
X52681Y116077D01*
X52135Y115852D01*
X51632Y115543D01*
X51183Y115160D01*
X50800Y114711D01*
X50491Y114208D01*
X50266Y113662D01*
X50128Y113088D01*
X50081Y112500D01*
X50128Y111912D01*
X50266Y111338D01*
X50491Y110792D01*
X50800Y110289D01*
X51183Y109840D01*
X51632Y109457D01*
X52135Y109148D01*
X52681Y108923D01*
X53255Y108785D01*
X53837Y108739D01*
Y103269D01*
X53255Y103223D01*
X52681Y103085D01*
X52135Y102860D01*
X51632Y102551D01*
X51183Y102168D01*
X50800Y101719D01*
X50491Y101216D01*
X50266Y100670D01*
X50128Y100096D01*
X50081Y99508D01*
X50128Y98920D01*
X50266Y98346D01*
X50491Y97800D01*
X50800Y97297D01*
X51183Y96848D01*
X51632Y96465D01*
X52135Y96156D01*
X52681Y95931D01*
X53255Y95793D01*
X53837Y95747D01*
Y24253D01*
X53255Y24207D01*
X52681Y24070D01*
X52135Y23844D01*
X51632Y23535D01*
X51183Y23152D01*
X50800Y22703D01*
X50491Y22200D01*
X50266Y21655D01*
X50128Y21081D01*
X50081Y20492D01*
X50128Y19904D01*
X50266Y19330D01*
X50491Y18784D01*
X50800Y18281D01*
X51183Y17832D01*
X51632Y17449D01*
X52135Y17141D01*
X52681Y16915D01*
X53255Y16777D01*
X53837Y16731D01*
Y11261D01*
X53255Y11215D01*
X52681Y11078D01*
X52135Y10852D01*
X51632Y10543D01*
X51183Y10160D01*
X50800Y9711D01*
X50491Y9208D01*
X50266Y8663D01*
X50128Y8089D01*
X50081Y7500D01*
X50128Y6912D01*
X50266Y6338D01*
X50491Y5792D01*
X50800Y5289D01*
X51183Y4840D01*
X51632Y4457D01*
X52135Y4149D01*
X52681Y3923D01*
X53255Y3785D01*
X53837Y3739D01*
Y2000D01*
X44000D01*
Y3755D01*
X46907Y3759D01*
X47060Y3796D01*
X47205Y3856D01*
X47340Y3939D01*
X47459Y4041D01*
X47562Y4161D01*
X47644Y4295D01*
X47704Y4440D01*
X47741Y4593D01*
X47750Y4750D01*
X47741Y10407D01*
X47704Y10560D01*
X47644Y10706D01*
X47562Y10840D01*
X47459Y10959D01*
X47340Y11062D01*
X47205Y11144D01*
X47060Y11204D01*
X46907Y11241D01*
X46750Y11250D01*
X44000Y11246D01*
Y16731D01*
X44588Y16777D01*
X45162Y16915D01*
X45708Y17141D01*
X46211Y17449D01*
X46660Y17832D01*
X47043Y18281D01*
X47352Y18784D01*
X47577Y19330D01*
X47715Y19904D01*
X47750Y20492D01*
X47715Y21081D01*
X47577Y21655D01*
X47352Y22200D01*
X47043Y22703D01*
X46660Y23152D01*
X46211Y23535D01*
X45708Y23844D01*
X45162Y24070D01*
X44588Y24207D01*
X44000Y24254D01*
Y95763D01*
X46907Y95767D01*
X47060Y95804D01*
X47205Y95864D01*
X47340Y95946D01*
X47459Y96049D01*
X47562Y96168D01*
X47644Y96303D01*
X47704Y96448D01*
X47741Y96601D01*
X47750Y96758D01*
X47741Y102415D01*
X47704Y102568D01*
X47644Y102713D01*
X47562Y102848D01*
X47459Y102967D01*
X47340Y103070D01*
X47205Y103152D01*
X47060Y103212D01*
X46907Y103249D01*
X46750Y103258D01*
X44000Y103253D01*
Y108738D01*
X44588Y108785D01*
X45162Y108923D01*
X45708Y109148D01*
X46211Y109457D01*
X46660Y109840D01*
X47043Y110289D01*
X47352Y110792D01*
X47577Y111338D01*
X47715Y111912D01*
X47750Y112500D01*
X47715Y113088D01*
X47577Y113662D01*
X47352Y114208D01*
X47043Y114711D01*
X46660Y115160D01*
X46211Y115543D01*
X45708Y115852D01*
X45162Y116077D01*
X44588Y116215D01*
X44000Y116262D01*
Y118000D01*
G37*
G36*
X25000D02*X44000D01*
Y116262D01*
X43412Y116215D01*
X42838Y116077D01*
X42292Y115852D01*
X41789Y115543D01*
X41340Y115160D01*
X40957Y114711D01*
X40648Y114208D01*
X40423Y113662D01*
X40285Y113088D01*
X40238Y112500D01*
X40285Y111912D01*
X40423Y111338D01*
X40648Y110792D01*
X40957Y110289D01*
X41340Y109840D01*
X41789Y109457D01*
X42292Y109148D01*
X42838Y108923D01*
X43412Y108785D01*
X44000Y108738D01*
Y103253D01*
X41093Y103249D01*
X40940Y103212D01*
X40795Y103152D01*
X40660Y103070D01*
X40541Y102967D01*
X40438Y102848D01*
X40356Y102713D01*
X40296Y102568D01*
X40259Y102415D01*
X40250Y102258D01*
X40259Y96601D01*
X40296Y96448D01*
X40356Y96303D01*
X40438Y96168D01*
X40541Y96049D01*
X40660Y95946D01*
X40795Y95864D01*
X40940Y95804D01*
X41093Y95767D01*
X41250Y95758D01*
X44000Y95763D01*
Y24254D01*
X43412Y24207D01*
X42838Y24070D01*
X42292Y23844D01*
X41789Y23535D01*
X41340Y23152D01*
X40957Y22703D01*
X40648Y22200D01*
X40423Y21655D01*
X40285Y21081D01*
X40238Y20492D01*
X40285Y19904D01*
X40423Y19330D01*
X40648Y18784D01*
X40957Y18281D01*
X41340Y17832D01*
X41789Y17449D01*
X42292Y17141D01*
X42838Y16915D01*
X43412Y16777D01*
X44000Y16731D01*
Y11246D01*
X41093Y11241D01*
X40940Y11204D01*
X40795Y11144D01*
X40660Y11062D01*
X40541Y10959D01*
X40438Y10840D01*
X40356Y10706D01*
X40296Y10560D01*
X40259Y10407D01*
X40250Y10250D01*
X40259Y4593D01*
X40296Y4440D01*
X40356Y4295D01*
X40438Y4161D01*
X40541Y4041D01*
X40660Y3939D01*
X40795Y3856D01*
X40940Y3796D01*
X41093Y3759D01*
X41250Y3750D01*
X44000Y3755D01*
Y2000D01*
X25000D01*
Y3508D01*
X26247Y4272D01*
X28124Y5876D01*
X29728Y7753D01*
X31018Y9858D01*
X31962Y12138D01*
X32539Y14539D01*
X32684Y17000D01*
X32539Y19461D01*
X31962Y21862D01*
X31018Y24142D01*
X29728Y26247D01*
X28124Y28124D01*
X26247Y29728D01*
X25000Y30492D01*
Y66507D01*
X28235Y66514D01*
X28465Y66569D01*
X28683Y66659D01*
X28884Y66783D01*
X29064Y66936D01*
X29217Y67116D01*
X29341Y67317D01*
X29431Y67535D01*
X29486Y67765D01*
X29500Y68000D01*
X29486Y74235D01*
X29431Y74465D01*
X29341Y74683D01*
X29217Y74884D01*
X29064Y75064D01*
X28884Y75217D01*
X28683Y75341D01*
X28465Y75431D01*
X28235Y75486D01*
X28000Y75500D01*
X25000Y75493D01*
Y89508D01*
X26247Y90272D01*
X28124Y91876D01*
X29728Y93753D01*
X31018Y95858D01*
X31962Y98138D01*
X32539Y100539D01*
X32684Y103000D01*
X32539Y105461D01*
X31962Y107862D01*
X31018Y110142D01*
X29728Y112247D01*
X28124Y114124D01*
X26247Y115728D01*
X25000Y116492D01*
Y118000D01*
G37*
G36*
Y30492D02*X24142Y31018D01*
X21862Y31962D01*
X19461Y32539D01*
X17000Y32732D01*
X14539Y32539D01*
X12138Y31962D01*
X9858Y31018D01*
X7753Y29728D01*
X5876Y28124D01*
X4272Y26247D01*
X2982Y24142D01*
X2038Y21862D01*
X2000Y21705D01*
Y98295D01*
X2038Y98138D01*
X2982Y95858D01*
X4272Y93753D01*
X5876Y91876D01*
X7753Y90272D01*
X9858Y88982D01*
X12138Y88038D01*
X14539Y87461D01*
X17000Y87268D01*
X19461Y87461D01*
X21862Y88038D01*
X24142Y88982D01*
X25000Y89508D01*
Y75493D01*
X21765Y75486D01*
X21535Y75431D01*
X21317Y75341D01*
X21116Y75217D01*
X20936Y75064D01*
X20783Y74884D01*
X20659Y74683D01*
X20569Y74465D01*
X20514Y74235D01*
X20500Y74000D01*
X20514Y67765D01*
X20569Y67535D01*
X20659Y67317D01*
X20783Y67116D01*
X20936Y66936D01*
X21116Y66783D01*
X21317Y66659D01*
X21535Y66569D01*
X21765Y66514D01*
X22000Y66500D01*
X25000Y66507D01*
Y30492D01*
G37*
G36*
Y2000D02*X21705D01*
X21862Y2038D01*
X24142Y2982D01*
X25000Y3508D01*
Y2000D01*
G37*
G36*
X21705Y118000D02*X25000D01*
Y116492D01*
X24142Y117018D01*
X21862Y117962D01*
X21705Y118000D01*
G37*
G54D26*X233000Y103000D03*
G54D25*G36*
X121500Y74000D02*Y68000D01*
X127500D01*
Y74000D01*
X121500D01*
G37*
G36*
X142500Y62000D02*Y56000D01*
X148500D01*
Y62000D01*
X142500D01*
G37*
G54D27*X208000Y82000D03*
G54D26*X233000Y17000D03*
G54D28*X196000Y63000D03*
G54D27*X220000D03*
G54D26*X17000Y103000D03*
G54D25*G36*
X22000Y74000D02*Y68000D01*
X28000D01*
Y74000D01*
X22000D01*
G37*
G36*
X41250Y102258D02*Y96758D01*
X46750D01*
Y102258D01*
X41250D01*
G37*
G54D29*X44000Y112500D03*
G54D26*X17000Y17000D03*
G54D25*G36*
X72500Y72000D02*Y66000D01*
X78500D01*
Y72000D01*
X72500D01*
G37*
G36*
Y62000D02*Y56000D01*
X78500D01*
Y62000D01*
X72500D01*
G37*
G54D29*X53843Y99508D03*
X63685D03*
X53843Y112500D03*
X63685D03*
G54D25*G36*
X41250Y10250D02*Y4750D01*
X46750D01*
Y10250D01*
X41250D01*
G37*
G54D29*X53843Y7500D03*
X63685D03*
X44000Y20492D03*
X53843D03*
X63685D03*
G54D30*X94043Y20500D03*
G54D31*G54D32*G54D33*G54D34*G54D32*G54D35*G54D34*G54D32*G54D33*G54D36*G54D32*G54D33*G54D36*M02*
