G04 start of page 10 for group -4078 idx -4078 *
G04 Title: (unknown), bottomsilk *
G04 Creator: pcb 20140316 *
G04 CreationDate: Mon 02 Nov 2015 05:35:22 PM GMT UTC *
G04 For: ndholmes *
G04 Format: Gerber/RS-274X *
G04 PCB-Dimensions (mil): 1500.00 1250.00 *
G04 PCB-Coordinate-Origin: lower left *
%MOIN*%
%FSLAX25Y25*%
%LNBOTTOMSILK*%
%ADD84C,0.0060*%
%ADD83C,0.0080*%
G54D83*X500Y500D02*X149500D01*
Y124500D01*
X500D01*
Y500D01*
G54D84*X34500Y93000D02*Y94300D01*
X33800Y95000D02*X34500Y94300D01*
X31200Y95000D02*X33800D01*
X31200D02*X30500Y94300D01*
Y93000D02*Y94300D01*
Y91800D02*X34500D01*
X32500D02*X30500Y89800D01*
X32500Y91800D02*X34500Y89800D01*
X30500Y86600D02*Y88600D01*
Y87600D02*X34500D01*
X32500Y83400D02*Y85400D01*
X30500Y81200D02*Y82200D01*
Y81700D02*X34500D01*
Y81200D02*Y82200D01*
X30500Y78000D02*Y80000D01*
Y78000D02*X31000Y77500D01*
X32000D01*
X32500Y78000D02*X32000Y77500D01*
X32500Y78000D02*Y79500D01*
X30500D02*X34500D01*
X32500Y78700D02*X34500Y77500D01*
X30500Y74300D02*X31000Y73800D01*
X30500Y74300D02*Y75800D01*
X31000Y76300D02*X30500Y75800D01*
X31000Y76300D02*X32000D01*
X32500Y75800D01*
Y74300D02*Y75800D01*
Y74300D02*X33000Y73800D01*
X34000D01*
X34500Y74300D02*X34000Y73800D01*
X34500Y74300D02*Y75800D01*
X34000Y76300D02*X34500Y75800D01*
X32300Y71100D02*Y72600D01*
X34500Y70600D02*Y72600D01*
X30500D02*X34500D01*
X30500Y70600D02*Y72600D01*
Y69400D02*X34500D01*
X30500D02*X34500Y66900D01*
X30500D02*X34500D01*
X30500Y63700D02*X31000Y63200D01*
X30500Y63700D02*Y65200D01*
X31000Y65700D02*X30500Y65200D01*
X31000Y65700D02*X32000D01*
X32500Y65200D01*
Y63700D02*Y65200D01*
Y63700D02*X33000Y63200D01*
X34000D01*
X34500Y63700D02*X34000Y63200D01*
X34500Y63700D02*Y65200D01*
X34000Y65700D02*X34500Y65200D01*
X32300Y60500D02*Y62000D01*
X34500Y60000D02*Y62000D01*
X30500D02*X34500D01*
X30500Y60000D02*Y62000D01*
X32500Y56800D02*Y58800D01*
X34500Y53600D02*Y55600D01*
Y53600D02*X34000Y53100D01*
X32800D02*X34000D01*
X32300Y53600D02*X32800Y53100D01*
X32300Y53600D02*Y55100D01*
X30500D02*X34500D01*
X30500Y53600D02*Y55600D01*
Y53600D02*X31000Y53100D01*
X31800D01*
X32300Y53600D02*X31800Y53100D01*
X31500Y51900D02*X34500D01*
X31500D02*X30500Y51200D01*
Y50100D02*Y51200D01*
Y50100D02*X31500Y49400D01*
X34500D01*
X32500D02*Y51900D01*
X30500Y46200D02*X31000Y45700D01*
X30500Y46200D02*Y47700D01*
X31000Y48200D02*X30500Y47700D01*
X31000Y48200D02*X32000D01*
X32500Y47700D01*
Y46200D02*Y47700D01*
Y46200D02*X33000Y45700D01*
X34000D01*
X34500Y46200D02*X34000Y45700D01*
X34500Y46200D02*Y47700D01*
X34000Y48200D02*X34500Y47700D01*
X32300Y43000D02*Y44500D01*
X34500Y42500D02*Y44500D01*
X30500D02*X34500D01*
X30500Y42500D02*Y44500D01*
X32500Y39500D02*X34500Y38500D01*
X32500Y37500D02*X34500Y38500D01*
X31300Y36300D02*X30500Y35500D01*
X34500D01*
Y34800D02*Y36300D01*
Y33100D02*Y33600D01*
X34000Y31900D02*X34500Y31400D01*
X31000Y31900D02*X34000D01*
X31000D02*X30500Y31400D01*
Y30400D02*Y31400D01*
Y30400D02*X31000Y29900D01*
X34000D01*
X34500Y30400D02*X34000Y29900D01*
X34500Y30400D02*Y31400D01*
X33500Y31900D02*X31500Y29900D01*
X71563Y102594D02*X75563D01*
X74063D02*X73563Y102094D01*
Y101094D02*Y102094D01*
Y101094D02*X74063Y100594D01*
X75563D01*
X71563Y98894D02*X75063D01*
X75563Y98394D01*
X73063D02*Y99394D01*
X71563Y96894D02*X75063D01*
X75563Y96394D01*
X73063D02*Y97394D01*
X74063Y94894D02*X77063D01*
X73563Y95394D02*X74063Y94894D01*
X73563Y94394D01*
Y93394D02*Y94394D01*
Y93394D02*X74063Y92894D01*
X75063D01*
X75563Y93394D02*X75063Y92894D01*
X75563Y93394D02*Y94394D01*
X75063Y94894D02*X75563Y94394D01*
X73063Y91194D02*Y91694D01*
X74063Y91194D02*Y91694D01*
X75063Y89994D02*X72063Y86994D01*
X75063Y85794D02*X72063Y82794D01*
X73563Y81594D02*X75063D01*
X75563Y81094D01*
Y80594D02*Y81094D01*
Y80594D02*X75063Y80094D01*
X73563D02*X75063D01*
X75563Y79594D01*
Y79094D02*Y79594D01*
Y79094D02*X75063Y78594D01*
X73563D02*X75063D01*
X73563Y77394D02*X75063D01*
X75563Y76894D01*
Y76394D02*Y76894D01*
Y76394D02*X75063Y75894D01*
X73563D02*X75063D01*
X75563Y75394D01*
Y74894D02*Y75394D01*
Y74894D02*X75063Y74394D01*
X73563D02*X75063D01*
X73563Y73194D02*X75063D01*
X75563Y72694D01*
Y72194D02*Y72694D01*
Y72194D02*X75063Y71694D01*
X73563D02*X75063D01*
X75563Y71194D01*
Y70694D02*Y71194D01*
Y70694D02*X75063Y70194D01*
X73563D02*X75063D01*
X75563Y68494D02*Y68994D01*
X72563Y67294D02*X72663D01*
X74063D02*X75563D01*
X73563Y64794D02*X74063Y64294D01*
X73563Y64794D02*Y65794D01*
X74063Y66294D02*X73563Y65794D01*
X74063Y66294D02*X75063D01*
X75563Y65794D01*
X73563Y64294D02*X75063D01*
X75563Y63794D01*
Y64794D02*Y65794D01*
Y64794D02*X75063Y64294D01*
X75563Y60594D02*Y62094D01*
Y60594D02*X75063Y60094D01*
X74563Y60594D02*X75063Y60094D01*
X74563Y60594D02*Y62094D01*
X74063Y62594D02*X74563Y62094D01*
X74063Y62594D02*X73563Y62094D01*
Y60594D02*Y62094D01*
Y60594D02*X74063Y60094D01*
X75063Y62594D02*X75563Y62094D01*
X73563Y56894D02*Y58394D01*
X74063Y58894D02*X73563Y58394D01*
X74063Y58894D02*X75063D01*
X75563Y58394D01*
Y56894D02*Y58394D01*
X73563Y54194D02*X74063Y53694D01*
X73563Y54194D02*Y55194D01*
X74063Y55694D02*X73563Y55194D01*
X74063Y55694D02*X75063D01*
X75563Y55194D01*
X73563Y53694D02*X75063D01*
X75563Y53194D01*
Y54194D02*Y55194D01*
Y54194D02*X75063Y53694D01*
X71563Y51994D02*X75063D01*
X75563Y51494D01*
Y48494D02*Y49994D01*
X75063Y50494D02*X75563Y49994D01*
X74063Y50494D02*X75063D01*
X74063D02*X73563Y49994D01*
Y48994D02*Y49994D01*
Y48994D02*X74063Y48494D01*
X74563D02*Y50494D01*
X74063Y48494D02*X74563D01*
X71563Y45294D02*X75563D01*
Y45794D02*X75063Y45294D01*
X75563Y45794D02*Y46794D01*
X75063Y47294D02*X75563Y46794D01*
X74063Y47294D02*X75063D01*
X74063D02*X73563Y46794D01*
Y45794D02*Y46794D01*
Y45794D02*X74063Y45294D01*
X75563Y43594D02*Y44094D01*
X73563Y40394D02*Y41894D01*
X74063Y42394D02*X73563Y41894D01*
X74063Y42394D02*X75063D01*
X75563Y41894D01*
Y40394D02*Y41894D01*
X74063Y39194D02*X75063D01*
X74063D02*X73563Y38694D01*
Y37694D02*Y38694D01*
Y37694D02*X74063Y37194D01*
X75063D01*
X75563Y37694D02*X75063Y37194D01*
X75563Y37694D02*Y38694D01*
X75063Y39194D02*X75563Y38694D01*
X74063Y35494D02*X75563D01*
X74063D02*X73563Y34994D01*
Y34494D02*Y34994D01*
Y34494D02*X74063Y33994D01*
X75563D01*
X74063D02*X73563Y33494D01*
Y32994D02*Y33494D01*
Y32994D02*X74063Y32494D01*
X75563D01*
X73563Y35994D02*X74063Y35494D01*
X69921Y69500D02*Y70800D01*
X69221Y71500D02*X69921Y70800D01*
X66621Y71500D02*X69221D01*
X66621D02*X65921Y70800D01*
Y69500D02*Y70800D01*
X69921Y66300D02*Y67600D01*
X69221Y68300D02*X69921Y67600D01*
X66621Y68300D02*X69221D01*
X66621D02*X65921Y67600D01*
Y66300D02*Y67600D01*
X69921Y61300D02*Y63300D01*
Y61300D02*X69421Y60800D01*
X68221D02*X69421D01*
X67721Y61300D02*X68221Y60800D01*
X67721Y61300D02*Y62800D01*
X65921D02*X69921D01*
X65921Y61300D02*Y63300D01*
Y61300D02*X66421Y60800D01*
X67221D01*
X67721Y61300D02*X67221Y60800D01*
X65921Y59600D02*X67921Y58600D01*
X65921Y57600D01*
X67921Y58600D02*X69921D01*
X67921Y54400D02*Y56400D01*
X65921Y51200D02*X66421Y50700D01*
X65921Y51200D02*Y52700D01*
X66421Y53200D02*X65921Y52700D01*
X66421Y53200D02*X67421D01*
X67921Y52700D01*
Y51200D02*Y52700D01*
Y51200D02*X68421Y50700D01*
X69421D01*
X69921Y51200D02*X69421Y50700D01*
X69921Y51200D02*Y52700D01*
X69421Y53200D02*X69921Y52700D01*
X66921Y49500D02*X69921D01*
X66921D02*X65921Y48800D01*
Y47700D02*Y48800D01*
Y47700D02*X66921Y47000D01*
X69921D01*
X67921D02*Y49500D01*
X66421Y44000D02*X65921Y43500D01*
Y42000D02*Y43500D01*
Y42000D02*X66421Y41500D01*
X67421D01*
X69921Y44000D02*X67421Y41500D01*
X69921D02*Y44000D01*
X69421Y40300D02*X69921Y39800D01*
X66421Y40300D02*X69421D01*
X66421D02*X65921Y39800D01*
Y38800D02*Y39800D01*
Y38800D02*X66421Y38300D01*
X69421D01*
X69921Y38800D02*X69421Y38300D01*
X69921Y38800D02*Y39800D01*
X68921Y40300D02*X66921Y38300D01*
X66721Y37100D02*X65921Y36300D01*
X69921D01*
Y35600D02*Y37100D01*
X65921Y32400D02*Y34400D01*
X67921D01*
X67421Y33900D01*
Y32900D02*Y33900D01*
Y32900D02*X67921Y32400D01*
X69421D01*
X69921Y32900D02*X69421Y32400D01*
X69921Y32900D02*Y33900D01*
X69421Y34400D02*X69921Y33900D01*
X2500Y94500D02*Y95500D01*
Y95000D02*X6500D01*
Y94500D02*Y95500D01*
X5000Y93300D02*X6000D01*
X5000D02*X4500Y92800D01*
Y91800D02*Y92800D01*
Y91800D02*X5000Y91300D01*
X6000D01*
X6500Y91800D02*X6000Y91300D01*
X6500Y91800D02*Y92800D01*
X6000Y93300D02*X6500Y92800D01*
X4500Y90100D02*X6000D01*
X6500Y89600D01*
Y89100D02*Y89600D01*
Y89100D02*X6000Y88600D01*
X4500D02*X6000D01*
X6500Y88100D01*
Y87600D02*Y88100D01*
Y87600D02*X6000Y87100D01*
X4500D02*X6000D01*
X4500Y84400D02*X5000Y83900D01*
X4500Y84400D02*Y85400D01*
X5000Y85900D02*X4500Y85400D01*
X5000Y85900D02*X6000D01*
X6500Y85400D01*
X4500Y83900D02*X6000D01*
X6500Y83400D01*
Y84400D02*Y85400D01*
Y84400D02*X6000Y83900D01*
X2500Y78400D02*X3000Y77900D01*
X2500Y78400D02*Y79900D01*
X3000Y80400D02*X2500Y79900D01*
X3000Y80400D02*X4000D01*
X4500Y79900D01*
Y78400D02*Y79900D01*
Y78400D02*X5000Y77900D01*
X6000D01*
X6500Y78400D02*X6000Y77900D01*
X6500Y78400D02*Y79900D01*
X6000Y80400D02*X6500Y79900D01*
X4500Y74700D02*Y76200D01*
X5000Y76700D02*X4500Y76200D01*
X5000Y76700D02*X6000D01*
X6500Y76200D01*
Y74700D02*Y76200D01*
X4500Y72000D02*X5000Y71500D01*
X4500Y72000D02*Y73000D01*
X5000Y73500D02*X4500Y73000D01*
X5000Y73500D02*X6000D01*
X6500Y73000D01*
X4500Y71500D02*X6000D01*
X6500Y71000D01*
Y72000D02*Y73000D01*
Y72000D02*X6000Y71500D01*
X2500Y69800D02*X6000D01*
X6500Y69300D01*
Y66300D02*Y67800D01*
X6000Y68300D02*X6500Y67800D01*
X5000Y68300D02*X6000D01*
X5000D02*X4500Y67800D01*
Y66800D02*Y67800D01*
Y66800D02*X5000Y66300D01*
X5500D02*Y68300D01*
X5000Y66300D02*X5500D01*
X2500Y63100D02*X6500D01*
Y63600D02*X6000Y63100D01*
X6500Y63600D02*Y64600D01*
X6000Y65100D02*X6500Y64600D01*
X5000Y65100D02*X6000D01*
X5000D02*X4500Y64600D01*
Y63600D02*Y64600D01*
Y63600D02*X5000Y63100D01*
X4300Y58600D02*Y60100D01*
X6500Y58100D02*Y60100D01*
X2500D02*X6500D01*
X2500Y58100D02*Y60100D01*
X5000Y56400D02*X6500D01*
X5000D02*X4500Y55900D01*
Y55400D02*Y55900D01*
Y55400D02*X5000Y54900D01*
X6500D01*
X4500Y56900D02*X5000Y56400D01*
X4500Y52200D02*X5000Y51700D01*
X4500Y52200D02*Y53200D01*
X5000Y53700D02*X4500Y53200D01*
X5000Y53700D02*X6000D01*
X6500Y53200D01*
Y52200D02*Y53200D01*
Y52200D02*X6000Y51700D01*
X7500Y53700D02*X8000Y53200D01*
Y52200D02*Y53200D01*
Y52200D02*X7500Y51700D01*
X4500D02*X7500D01*
X3500Y50500D02*X3600D01*
X5000D02*X6500D01*
X5000Y49000D02*X6500D01*
X5000D02*X4500Y48500D01*
Y48000D02*Y48500D01*
Y48000D02*X5000Y47500D01*
X6500D01*
X4500Y49500D02*X5000Y49000D01*
X6500Y44300D02*Y45800D01*
X6000Y46300D02*X6500Y45800D01*
X5000Y46300D02*X6000D01*
X5000D02*X4500Y45800D01*
Y44800D02*Y45800D01*
Y44800D02*X5000Y44300D01*
X5500D02*Y46300D01*
X5000Y44300D02*X5500D01*
X6500Y41100D02*Y42600D01*
X6000Y43100D02*X6500Y42600D01*
X5000Y43100D02*X6000D01*
X5000D02*X4500Y42600D01*
Y41600D02*Y42600D01*
Y41600D02*X5000Y41100D01*
X5500D02*Y43100D01*
X5000Y41100D02*X5500D01*
X5000Y39400D02*X6500D01*
X5000D02*X4500Y38900D01*
Y37900D02*Y38900D01*
Y39900D02*X5000Y39400D01*
X3500Y36700D02*X3600D01*
X5000D02*X6500D01*
X5000Y35200D02*X6500D01*
X5000D02*X4500Y34700D01*
Y34200D02*Y34700D01*
Y34200D02*X5000Y33700D01*
X6500D01*
X4500Y35700D02*X5000Y35200D01*
X4500Y31000D02*X5000Y30500D01*
X4500Y31000D02*Y32000D01*
X5000Y32500D02*X4500Y32000D01*
X5000Y32500D02*X6000D01*
X6500Y32000D01*
Y31000D02*Y32000D01*
Y31000D02*X6000Y30500D01*
X7500Y32500D02*X8000Y32000D01*
Y31000D02*Y32000D01*
Y31000D02*X7500Y30500D01*
X4500D02*X7500D01*
M02*
