M48
INCH
T42C0.031
T41C0.039
%
T42
X010500Y048900
X010500Y048100
X010500Y045400
X010500Y044600
X010500Y041900
X010500Y041100
X010500Y038400
X010500Y037600
X010500Y034900
X010500Y034100
X010500Y031400
X010500Y030600
X010500Y027900
X010500Y027100
X010500Y024400
X010500Y023600
X010500Y020900
X010500Y020100
X010500Y017400
X010500Y016600
X010500Y013900
X010500Y013100
X010500Y010400
X010500Y009600
X010500Y006900
X010500Y006100
X011000Y048900
X011000Y048100
X011000Y045400
X011000Y044600
X011000Y041900
X011000Y041100
X011000Y038400
X011000Y037600
X011000Y034900
X011000Y034100
X011000Y031400
X011000Y030600
X011000Y027900
X011000Y027100
X011000Y024400
X011000Y023600
X011000Y020900
X011000Y020100
X011000Y017400
X011000Y016600
X011000Y013900
X011000Y013100
X011000Y010400
X011000Y009600
X011000Y006900
X011000Y006100
X011500Y048900
X011500Y048100
X011500Y045400
X011500Y044600
X011500Y041900
X011500Y041100
X011500Y038400
X011500Y037600
X011500Y034900
X011500Y034100
X011500Y031400
X011500Y030600
X011500Y027900
X011500Y027100
X011500Y024400
X011500Y023600
X011500Y020900
X011500Y020100
X011500Y017400
X011500Y016600
X011500Y013900
X011500Y013100
X011500Y010400
X011500Y009600
X011500Y006900
X011500Y006100
T41
X013250Y047150
X013250Y046350
X013250Y043650
X013250Y042850
X013250Y040150
X013250Y039350
X013250Y036650
X013250Y035850
X013250Y033150
X013250Y032350
X013250Y029650
X013250Y028850
X013250Y026150
X013250Y025350
X013250Y022650
X013250Y021850
X013250Y019150
X013250Y018350
X013250Y015650
X013250Y014850
X013250Y012150
X013250Y011350
X013250Y008650
X013250Y007850
X015250Y046750
X015250Y043250
X015250Y039750
X015250Y036250
X015250Y032750
X015250Y029250
X015250Y025750
X015250Y022250
X015250Y018750
X015250Y015250
X015250Y011750
X015250Y008250
M30
