G04 start of page 12 for group -4014 idx -4014 *
G04 Title: (unknown), bottompaste *
G04 Creator: pcb 4.2.2 *
G04 CreationDate: Tue Dec 31 20:20:16 2024 UTC *
G04 For: ndholmes *
G04 Format: Gerber/RS-274X *
G04 PCB-Dimensions (mil): 3000.00 5500.00 *
G04 PCB-Coordinate-Origin: lower left *
%MOIN*%
%FSLAX25Y25*%
%LNBOTTOMPASTE*%
%ADD56C,0.0001*%
%ADD55C,0.0600*%
G54D55*X99000Y469900D03*
G54D56*G36*
X96000D02*Y466900D01*
X102000D01*
Y469900D01*
X96000D01*
G37*
G54D55*X99000Y463100D03*
G54D56*G36*
X96000Y466100D02*Y463100D01*
X102000D01*
Y466100D01*
X96000D01*
G37*
G54D55*X99000Y434900D03*
G54D56*G36*
X96000D02*Y431900D01*
X102000D01*
Y434900D01*
X96000D01*
G37*
G54D55*X99000Y428100D03*
G54D56*G36*
X96000Y431100D02*Y428100D01*
X102000D01*
Y431100D01*
X96000D01*
G37*
G54D55*X99000Y399900D03*
G54D56*G36*
X96000D02*Y396900D01*
X102000D01*
Y399900D01*
X96000D01*
G37*
G54D55*X99000Y393100D03*
G54D56*G36*
X96000Y396100D02*Y393100D01*
X102000D01*
Y396100D01*
X96000D01*
G37*
G54D55*X99000Y364900D03*
G54D56*G36*
X96000D02*Y361900D01*
X102000D01*
Y364900D01*
X96000D01*
G37*
G54D55*X99000Y358100D03*
G54D56*G36*
X96000Y361100D02*Y358100D01*
X102000D01*
Y361100D01*
X96000D01*
G37*
G54D55*X99000Y329900D03*
G54D56*G36*
X96000D02*Y326900D01*
X102000D01*
Y329900D01*
X96000D01*
G37*
G54D55*X99000Y323100D03*
G54D56*G36*
X96000Y326100D02*Y323100D01*
X102000D01*
Y326100D01*
X96000D01*
G37*
G54D55*X99000Y294900D03*
G54D56*G36*
X96000D02*Y291900D01*
X102000D01*
Y294900D01*
X96000D01*
G37*
G54D55*X99000Y288100D03*
G54D56*G36*
X96000Y291100D02*Y288100D01*
X102000D01*
Y291100D01*
X96000D01*
G37*
G54D55*X99000Y259900D03*
G54D56*G36*
X96000D02*Y256900D01*
X102000D01*
Y259900D01*
X96000D01*
G37*
G54D55*X99000Y253100D03*
G54D56*G36*
X96000Y256100D02*Y253100D01*
X102000D01*
Y256100D01*
X96000D01*
G37*
G54D55*X99000Y224900D03*
G54D56*G36*
X96000D02*Y221900D01*
X102000D01*
Y224900D01*
X96000D01*
G37*
G54D55*X99000Y218100D03*
G54D56*G36*
X96000Y221100D02*Y218100D01*
X102000D01*
Y221100D01*
X96000D01*
G37*
G54D55*X99000Y189900D03*
G54D56*G36*
X96000D02*Y186900D01*
X102000D01*
Y189900D01*
X96000D01*
G37*
G54D55*X99000Y183100D03*
G54D56*G36*
X96000Y186100D02*Y183100D01*
X102000D01*
Y186100D01*
X96000D01*
G37*
G54D55*X99000Y154900D03*
G54D56*G36*
X96000D02*Y151900D01*
X102000D01*
Y154900D01*
X96000D01*
G37*
G54D55*X99000Y148100D03*
G54D56*G36*
X96000Y151100D02*Y148100D01*
X102000D01*
Y151100D01*
X96000D01*
G37*
G54D55*X99000Y119900D03*
G54D56*G36*
X96000D02*Y116900D01*
X102000D01*
Y119900D01*
X96000D01*
G37*
G54D55*X99000Y113100D03*
G54D56*G36*
X96000Y116100D02*Y113100D01*
X102000D01*
Y116100D01*
X96000D01*
G37*
G54D55*X99000Y84900D03*
G54D56*G36*
X96000D02*Y81900D01*
X102000D01*
Y84900D01*
X96000D01*
G37*
G54D55*X99000Y78100D03*
G54D56*G36*
X96000Y81100D02*Y78100D01*
X102000D01*
Y81100D01*
X96000D01*
G37*
M02*
