M48
INCH
T39C0.012
T38C0.014
%
T39
X007750Y046750
X007750Y043250
X007750Y039750
X007750Y036250
X007750Y032750
X007750Y029250
X007750Y025750
X007750Y022250
X007750Y018750
X007750Y015250
X007750Y011750
X007750Y008250
X008900Y047600
X008900Y044100
X008900Y040600
X008900Y037100
X008900Y033600
X008900Y030100
X008900Y026600
X008900Y023100
X008900Y019600
X008900Y016100
X008900Y012600
X008900Y009100
X009150Y047600
X009150Y044100
X009150Y040600
X009150Y037100
X009150Y033600
X009150Y030100
X009150Y026600
X009150Y023100
X009150Y019600
X009150Y016100
X009150Y012600
X009150Y009100
X009400Y046200
X009400Y042700
X009400Y039200
X009400Y035700
X009400Y032200
X009400Y028700
X009400Y025200
X009400Y021700
X009400Y018200
X009400Y014700
X009400Y011200
X009400Y007700
X010650Y046250
X010650Y042750
X010650Y039250
X010650Y035750
X010650Y032250
X010650Y028750
X010650Y025250
X010650Y021750
X010650Y018250
X010650Y014750
X010650Y011250
X010650Y007750
X010700Y046550
X010700Y043050
X010700Y039550
X010700Y036050
X010700Y032550
X010700Y029050
X010700Y025550
X010700Y022050
X010700Y018550
X010700Y015050
X010700Y011550
X010700Y008050
X011050Y046550
X011050Y043050
X011050Y039550
X011050Y036050
X011050Y032550
X011050Y029050
X011050Y025550
X011050Y022050
X011050Y018550
X011050Y015050
X011050Y011550
X011050Y008050
X011400Y046150
X011400Y042650
X011400Y039150
X011400Y035650
X011400Y032150
X011400Y028650
X011400Y025150
X011400Y021650
X011400Y018150
X011400Y014650
X011400Y011150
X011400Y007650
X011550Y045750
X011550Y042250
X011550Y038750
X011550Y035250
X011550Y031750
X011550Y028250
X011550Y024750
X011550Y021250
X011550Y017750
X011550Y014250
X011550Y010750
X011550Y007250
X014500Y047250
X014500Y043750
X014500Y040250
X014500Y036750
X014500Y033250
X014500Y029750
X014500Y026250
X014500Y022750
X014500Y019250
X014500Y015750
X014500Y012250
X014500Y008750
X016850Y047150
X016850Y043650
X016850Y040150
X016850Y036650
X016850Y033150
X016850Y029650
X016850Y026150
X016850Y022650
X016850Y019150
X016850Y015650
X016850Y012150
X016850Y008650
X023950Y046650
X023950Y043150
X023950Y039650
X023950Y036150
X023950Y032650
X023950Y029150
X023950Y025650
X023950Y022150
X023950Y018650
X023950Y015150
X023950Y011650
X023950Y008150
X024300Y046650
X024300Y043150
X024300Y039650
X024300Y036150
X024300Y032650
X024300Y029150
X024300Y025650
X024300Y022150
X024300Y018650
X024300Y015150
X024300Y011650
X024300Y008150
X025550Y046159
X025550Y042659
X025550Y039159
X025550Y035659
X025550Y032159
X025550Y028659
X025550Y025159
X025550Y021659
X025550Y018159
X025550Y014659
X025550Y011159
X025550Y007659
X025850Y046159
X025850Y042659
X025850Y039159
X025850Y035659
X025850Y032159
X025850Y028659
X025850Y025159
X025850Y021659
X025850Y018159
X025850Y014659
X025850Y011159
X025850Y007659
T38
X006750Y047450
X006750Y046950
X006750Y046550
X006750Y043950
X006750Y043450
X006750Y043050
X006750Y040450
X006750Y039950
X006750Y039550
X006750Y036950
X006750Y036450
X006750Y036050
X006750Y033450
X006750Y032950
X006750Y032550
X006750Y029950
X006750Y029450
X006750Y029050
X006750Y026450
X006750Y025950
X006750Y025550
X006750Y022950
X006750Y022450
X006750Y022050
X006750Y019450
X006750Y018950
X006750Y018550
X006750Y015950
X006750Y015450
X006750Y015050
X006750Y012450
X006750Y011950
X006750Y011550
X006750Y008950
X006750Y008450
X006750Y008050
X014000Y046200
X014000Y042700
X014000Y039200
X014000Y035700
X014000Y032200
X014000Y028700
X014000Y025200
X014000Y021700
X014000Y018200
X014000Y014700
X014000Y011200
X014000Y007700
X014500Y046200
X014500Y042700
X014500Y039200
X014500Y035700
X014500Y032200
X014500Y028700
X014500Y025200
X014500Y021700
X014500Y018200
X014500Y014700
X014500Y011200
X014500Y007700
X014850Y046100
X014850Y042600
X014850Y039100
X014850Y035600
X014850Y032100
X014850Y028600
X014850Y025100
X014850Y021600
X014850Y018100
X014850Y014600
X014850Y011100
X014850Y007600
X015250Y047250
X015250Y043750
X015250Y040250
X015250Y036750
X015250Y033250
X015250Y029750
X015250Y026250
X015250Y022750
X015250Y019250
X015250Y015750
X015250Y012250
X015250Y008750
X015700Y046650
X015700Y043150
X015700Y039650
X015700Y036150
X015700Y032650
X015700Y029150
X015700Y025650
X015700Y022150
X015700Y018650
X015700Y015150
X015700Y011650
X015700Y008150
X016100Y046700
X016100Y045850
X016100Y043200
X016100Y042350
X016100Y039700
X016100Y038850
X016100Y036200
X016100Y035350
X016100Y032700
X016100Y031850
X016100Y029200
X016100Y028350
X016100Y025700
X016100Y024850
X016100Y022200
X016100Y021350
X016100Y018700
X016100Y017850
X016100Y015200
X016100Y014350
X016100Y011700
X016100Y010850
X016100Y008200
X016100Y007350
X017150Y046800
X017150Y043300
X017150Y039800
X017150Y036300
X017150Y032800
X017150Y029300
X017150Y025800
X017150Y022300
X017150Y018800
X017150Y015300
X017150Y011800
X017150Y008300
X017550Y046800
X017550Y043300
X017550Y039800
X017550Y036300
X017550Y032800
X017550Y029300
X017550Y025800
X017550Y022300
X017550Y018800
X017550Y015300
X017550Y011800
X017550Y008300
X017950Y046800
X017950Y043300
X017950Y039800
X017950Y036300
X017950Y032800
X017950Y029300
X017950Y025800
X017950Y022300
X017950Y018800
X017950Y015300
X017950Y011800
X017950Y008300
M30
