G04 start of page 7 for group -4063 idx -4063 *
G04 Title: (unknown), componentmask *
G04 Creator: pcb 4.0.2 *
G04 CreationDate: Sun Oct 16 03:37:32 2022 UTC *
G04 For: ndholmes *
G04 Format: Gerber/RS-274X *
G04 PCB-Dimensions (mil): 3000.00 5500.00 *
G04 PCB-Coordinate-Origin: lower left *
%MOIN*%
%FSLAX25Y25*%
%LNTOPMASK*%
%ADD44C,0.0787*%
%ADD43C,0.0001*%
%ADD42C,0.0490*%
G54D42*X152500Y362500D03*
Y327500D03*
Y292500D03*
Y257500D03*
X132500Y366500D03*
Y358500D03*
Y331500D03*
Y323500D03*
Y296500D03*
Y288500D03*
Y261500D03*
Y253500D03*
X152500Y432500D03*
X132500Y436500D03*
Y428500D03*
X152500Y397500D03*
X132500Y401500D03*
X152500Y467500D03*
X132500Y471500D03*
Y463500D03*
Y393500D03*
X152500Y222500D03*
Y187500D03*
Y152500D03*
Y117500D03*
X132500Y226500D03*
Y218500D03*
Y191500D03*
Y183500D03*
Y156500D03*
Y148500D03*
Y121500D03*
Y113500D03*
X152500Y82500D03*
X132500Y86500D03*
Y78500D03*
G54D43*G36*
X59702Y391718D02*Y388282D01*
X65054D01*
Y391718D01*
X59702D01*
G37*
G36*
Y396718D02*Y393282D01*
X65054D01*
Y396718D01*
X59702D01*
G37*
G36*
X75316Y395252D02*X69598D01*
Y388748D01*
X75316D01*
Y395252D01*
G37*
G36*
Y406252D02*X69598D01*
Y399748D01*
X75316D01*
Y406252D01*
G37*
G36*
X59702Y401718D02*Y398282D01*
X65054D01*
Y401718D01*
X59702D01*
G37*
G36*
Y406718D02*Y403282D01*
X65054D01*
Y406718D01*
X59702D01*
G37*
G36*
X84748Y396816D02*Y391098D01*
X91252D01*
Y396816D01*
X84748D01*
G37*
G36*
Y403902D02*Y398184D01*
X91252D01*
Y403902D01*
X84748D01*
G37*
G36*
X82402Y395252D02*X76684D01*
Y388748D01*
X82402D01*
Y395252D01*
G37*
G36*
Y406252D02*X76684D01*
Y399748D01*
X82402D01*
Y406252D01*
G37*
G36*
X96000Y406500D02*Y403500D01*
X105500D01*
Y406500D01*
X96000D01*
G37*
G36*
Y401500D02*Y398500D01*
X105500D01*
Y401500D01*
X96000D01*
G37*
G36*
X93000D02*Y398500D01*
X102500D01*
Y401500D01*
X93000D01*
G37*
G36*
X96000Y396500D02*Y393500D01*
X105500D01*
Y396500D01*
X96000D01*
G37*
G36*
X93000D02*Y393500D01*
X102500D01*
Y396500D01*
X93000D01*
G37*
G36*
Y391500D02*Y388500D01*
X102500D01*
Y391500D01*
X93000D01*
G37*
G36*
X96000D02*Y388500D01*
X105500D01*
Y391500D01*
X96000D01*
G37*
G36*
X93000Y406500D02*Y403500D01*
X102500D01*
Y406500D01*
X93000D01*
G37*
G36*
X59702Y356718D02*Y353282D01*
X65054D01*
Y356718D01*
X59702D01*
G37*
G36*
Y361718D02*Y358282D01*
X65054D01*
Y361718D01*
X59702D01*
G37*
G36*
X75316Y360252D02*X69598D01*
Y353748D01*
X75316D01*
Y360252D01*
G37*
G36*
Y371252D02*X69598D01*
Y364748D01*
X75316D01*
Y371252D01*
G37*
G36*
X59702Y366718D02*Y363282D01*
X65054D01*
Y366718D01*
X59702D01*
G37*
G36*
Y371718D02*Y368282D01*
X65054D01*
Y371718D01*
X59702D01*
G37*
G36*
X84748Y361816D02*Y356098D01*
X91252D01*
Y361816D01*
X84748D01*
G37*
G36*
Y368902D02*Y363184D01*
X91252D01*
Y368902D01*
X84748D01*
G37*
G36*
X82402Y360252D02*X76684D01*
Y353748D01*
X82402D01*
Y360252D01*
G37*
G36*
Y371252D02*X76684D01*
Y364748D01*
X82402D01*
Y371252D01*
G37*
G36*
X96000Y371500D02*Y368500D01*
X105500D01*
Y371500D01*
X96000D01*
G37*
G36*
Y366500D02*Y363500D01*
X105500D01*
Y366500D01*
X96000D01*
G37*
G36*
X93000D02*Y363500D01*
X102500D01*
Y366500D01*
X93000D01*
G37*
G36*
X96000Y361500D02*Y358500D01*
X105500D01*
Y361500D01*
X96000D01*
G37*
G36*
X93000D02*Y358500D01*
X102500D01*
Y361500D01*
X93000D01*
G37*
G36*
Y356500D02*Y353500D01*
X102500D01*
Y356500D01*
X93000D01*
G37*
G36*
X96000D02*Y353500D01*
X105500D01*
Y356500D01*
X96000D01*
G37*
G36*
X93000Y371500D02*Y368500D01*
X102500D01*
Y371500D01*
X93000D01*
G37*
G36*
X158600Y430100D02*X155600D01*
Y425500D01*
X158600D01*
Y430100D01*
G37*
G36*
Y395100D02*X155600D01*
Y390500D01*
X158600D01*
Y395100D01*
G37*
G36*
X116500Y426500D02*Y423500D01*
X126000D01*
Y426500D01*
X116500D01*
G37*
G36*
X119500D02*Y423500D01*
X129000D01*
Y426500D01*
X119500D01*
G37*
G36*
X116500Y431500D02*Y428500D01*
X126000D01*
Y431500D01*
X116500D01*
G37*
G36*
X119500D02*Y428500D01*
X129000D01*
Y431500D01*
X119500D01*
G37*
G36*
X116500Y391500D02*Y388500D01*
X126000D01*
Y391500D01*
X116500D01*
G37*
G36*
Y396500D02*Y393500D01*
X126000D01*
Y396500D01*
X116500D01*
G37*
G36*
X119500Y391500D02*Y388500D01*
X129000D01*
Y391500D01*
X119500D01*
G37*
G36*
Y396500D02*Y393500D01*
X129000D01*
Y396500D01*
X119500D01*
G37*
G36*
X116500Y401500D02*Y398500D01*
X126000D01*
Y401500D01*
X116500D01*
G37*
G36*
Y406500D02*Y403500D01*
X126000D01*
Y406500D01*
X116500D01*
G37*
G36*
X119500Y401500D02*Y398500D01*
X129000D01*
Y401500D01*
X119500D01*
G37*
G36*
Y406500D02*Y403500D01*
X129000D01*
Y406500D01*
X119500D01*
G37*
G36*
X59702Y321718D02*Y318282D01*
X65054D01*
Y321718D01*
X59702D01*
G37*
G36*
Y326718D02*Y323282D01*
X65054D01*
Y326718D01*
X59702D01*
G37*
G36*
X75316Y325252D02*X69598D01*
Y318748D01*
X75316D01*
Y325252D01*
G37*
G36*
Y336252D02*X69598D01*
Y329748D01*
X75316D01*
Y336252D01*
G37*
G36*
X59702Y331718D02*Y328282D01*
X65054D01*
Y331718D01*
X59702D01*
G37*
G36*
Y336718D02*Y333282D01*
X65054D01*
Y336718D01*
X59702D01*
G37*
G36*
X84748Y326816D02*Y321098D01*
X91252D01*
Y326816D01*
X84748D01*
G37*
G36*
Y333902D02*Y328184D01*
X91252D01*
Y333902D01*
X84748D01*
G37*
G36*
X82402Y325252D02*X76684D01*
Y318748D01*
X82402D01*
Y325252D01*
G37*
G36*
Y336252D02*X76684D01*
Y329748D01*
X82402D01*
Y336252D01*
G37*
G36*
X96000Y336500D02*Y333500D01*
X105500D01*
Y336500D01*
X96000D01*
G37*
G36*
Y331500D02*Y328500D01*
X105500D01*
Y331500D01*
X96000D01*
G37*
G36*
X93000D02*Y328500D01*
X102500D01*
Y331500D01*
X93000D01*
G37*
G36*
X96000Y326500D02*Y323500D01*
X105500D01*
Y326500D01*
X96000D01*
G37*
G36*
X93000D02*Y323500D01*
X102500D01*
Y326500D01*
X93000D01*
G37*
G36*
Y321500D02*Y318500D01*
X102500D01*
Y321500D01*
X93000D01*
G37*
G36*
X96000D02*Y318500D01*
X105500D01*
Y321500D01*
X96000D01*
G37*
G36*
X93000Y336500D02*Y333500D01*
X102500D01*
Y336500D01*
X93000D01*
G37*
G36*
X166400Y403300D02*X163400D01*
Y398700D01*
X166400D01*
Y403300D01*
G37*
G36*
Y395100D02*X163400D01*
Y390500D01*
X166400D01*
Y395100D01*
G37*
G36*
X162500Y403300D02*X159500D01*
Y398700D01*
X162500D01*
Y403300D01*
G37*
G36*
X158600D02*X155600D01*
Y398700D01*
X158600D01*
Y403300D01*
G37*
G36*
X162500Y395100D02*X159500D01*
Y390500D01*
X162500D01*
Y395100D01*
G37*
G36*
X166400Y368300D02*X163400D01*
Y363700D01*
X166400D01*
Y368300D01*
G37*
G36*
X162500D02*X159500D01*
Y363700D01*
X162500D01*
Y368300D01*
G37*
G36*
X158600D02*X155600D01*
Y363700D01*
X158600D01*
Y368300D01*
G37*
G36*
X162500Y360100D02*X159500D01*
Y355500D01*
X162500D01*
Y360100D01*
G37*
G36*
X166400D02*X163400D01*
Y355500D01*
X166400D01*
Y360100D01*
G37*
G36*
X158600D02*X155600D01*
Y355500D01*
X158600D01*
Y360100D01*
G37*
G36*
X116500Y356500D02*Y353500D01*
X126000D01*
Y356500D01*
X116500D01*
G37*
G36*
X119500D02*Y353500D01*
X129000D01*
Y356500D01*
X119500D01*
G37*
G36*
X116500Y361500D02*Y358500D01*
X126000D01*
Y361500D01*
X116500D01*
G37*
G36*
Y366500D02*Y363500D01*
X126000D01*
Y366500D01*
X116500D01*
G37*
G36*
Y371500D02*Y368500D01*
X126000D01*
Y371500D01*
X116500D01*
G37*
G36*
X119500Y361500D02*Y358500D01*
X129000D01*
Y361500D01*
X119500D01*
G37*
G36*
Y366500D02*Y363500D01*
X129000D01*
Y366500D01*
X119500D01*
G37*
G36*
Y371500D02*Y368500D01*
X129000D01*
Y371500D01*
X119500D01*
G37*
G36*
X116500Y321500D02*Y318500D01*
X126000D01*
Y321500D01*
X116500D01*
G37*
G36*
Y326500D02*Y323500D01*
X126000D01*
Y326500D01*
X116500D01*
G37*
G36*
X119500Y321500D02*Y318500D01*
X129000D01*
Y321500D01*
X119500D01*
G37*
G36*
Y326500D02*Y323500D01*
X129000D01*
Y326500D01*
X119500D01*
G37*
G36*
X116500Y331500D02*Y328500D01*
X126000D01*
Y331500D01*
X116500D01*
G37*
G36*
Y336500D02*Y333500D01*
X126000D01*
Y336500D01*
X116500D01*
G37*
G36*
X119500Y331500D02*Y328500D01*
X129000D01*
Y331500D01*
X119500D01*
G37*
G36*
Y336500D02*Y333500D01*
X129000D01*
Y336500D01*
X119500D01*
G37*
G36*
X59702Y461718D02*Y458282D01*
X65054D01*
Y461718D01*
X59702D01*
G37*
G36*
Y466718D02*Y463282D01*
X65054D01*
Y466718D01*
X59702D01*
G37*
G36*
Y471718D02*Y468282D01*
X65054D01*
Y471718D01*
X59702D01*
G37*
G36*
Y476718D02*Y473282D01*
X65054D01*
Y476718D01*
X59702D01*
G37*
G36*
X75316Y476252D02*X69598D01*
Y469748D01*
X75316D01*
Y476252D01*
G37*
G36*
X82402D02*X76684D01*
Y469748D01*
X82402D01*
Y476252D01*
G37*
G36*
X75316Y465252D02*X69598D01*
Y458748D01*
X75316D01*
Y465252D01*
G37*
G36*
X82402D02*X76684D01*
Y458748D01*
X82402D01*
Y465252D01*
G37*
G54D44*X70000Y495000D03*
G54D43*G36*
X84748Y466816D02*Y461098D01*
X91252D01*
Y466816D01*
X84748D01*
G37*
G36*
Y473902D02*Y468184D01*
X91252D01*
Y473902D01*
X84748D01*
G37*
G36*
X96000Y476500D02*Y473500D01*
X105500D01*
Y476500D01*
X96000D01*
G37*
G36*
Y471500D02*Y468500D01*
X105500D01*
Y471500D01*
X96000D01*
G37*
G36*
X93000D02*Y468500D01*
X102500D01*
Y471500D01*
X93000D01*
G37*
G36*
X96000Y466500D02*Y463500D01*
X105500D01*
Y466500D01*
X96000D01*
G37*
G36*
X93000D02*Y463500D01*
X102500D01*
Y466500D01*
X93000D01*
G37*
G36*
Y461500D02*Y458500D01*
X102500D01*
Y461500D01*
X93000D01*
G37*
G36*
X96000D02*Y458500D01*
X105500D01*
Y461500D01*
X96000D01*
G37*
G36*
X93000Y476500D02*Y473500D01*
X102500D01*
Y476500D01*
X93000D01*
G37*
G36*
X59702Y426718D02*Y423282D01*
X65054D01*
Y426718D01*
X59702D01*
G37*
G36*
Y431718D02*Y428282D01*
X65054D01*
Y431718D01*
X59702D01*
G37*
G36*
X75316Y430252D02*X69598D01*
Y423748D01*
X75316D01*
Y430252D01*
G37*
G36*
Y441252D02*X69598D01*
Y434748D01*
X75316D01*
Y441252D01*
G37*
G36*
X59702Y436718D02*Y433282D01*
X65054D01*
Y436718D01*
X59702D01*
G37*
G36*
Y441718D02*Y438282D01*
X65054D01*
Y441718D01*
X59702D01*
G37*
G36*
X84748Y431816D02*Y426098D01*
X91252D01*
Y431816D01*
X84748D01*
G37*
G36*
Y438902D02*Y433184D01*
X91252D01*
Y438902D01*
X84748D01*
G37*
G36*
X82402Y430252D02*X76684D01*
Y423748D01*
X82402D01*
Y430252D01*
G37*
G36*
Y441252D02*X76684D01*
Y434748D01*
X82402D01*
Y441252D01*
G37*
G36*
X96000Y441500D02*Y438500D01*
X105500D01*
Y441500D01*
X96000D01*
G37*
G36*
Y436500D02*Y433500D01*
X105500D01*
Y436500D01*
X96000D01*
G37*
G36*
X93000D02*Y433500D01*
X102500D01*
Y436500D01*
X93000D01*
G37*
G36*
X96000Y431500D02*Y428500D01*
X105500D01*
Y431500D01*
X96000D01*
G37*
G36*
X93000D02*Y428500D01*
X102500D01*
Y431500D01*
X93000D01*
G37*
G36*
Y426500D02*Y423500D01*
X102500D01*
Y426500D01*
X93000D01*
G37*
G36*
X96000D02*Y423500D01*
X105500D01*
Y426500D01*
X96000D01*
G37*
G36*
X93000Y441500D02*Y438500D01*
X102500D01*
Y441500D01*
X93000D01*
G37*
G36*
X229050Y467050D02*X222950D01*
Y458950D01*
X229050D01*
Y467050D01*
G37*
G36*
X216050D02*X209950D01*
Y458950D01*
X216050D01*
Y467050D01*
G37*
G36*
X215316Y476752D02*X209598D01*
Y470248D01*
X215316D01*
Y476752D01*
G37*
G36*
X222402D02*X216684D01*
Y470248D01*
X222402D01*
Y476752D01*
G37*
G36*
X229050Y432050D02*X222950D01*
Y423950D01*
X229050D01*
Y432050D01*
G37*
G36*
X216050D02*X209950D01*
Y423950D01*
X216050D01*
Y432050D01*
G37*
G36*
X222402Y441752D02*X216684D01*
Y435248D01*
X222402D01*
Y441752D01*
G37*
G36*
X215316D02*X209598D01*
Y435248D01*
X215316D01*
Y441752D01*
G37*
G36*
X229050Y397050D02*X222950D01*
Y388950D01*
X229050D01*
Y397050D01*
G37*
G36*
Y362050D02*X222950D01*
Y353950D01*
X229050D01*
Y362050D01*
G37*
G36*
X235316Y371752D02*X229598D01*
Y365248D01*
X235316D01*
Y371752D01*
G37*
G36*
X242402D02*X236684D01*
Y365248D01*
X242402D01*
Y371752D01*
G37*
G36*
X216050Y397050D02*X209950D01*
Y388950D01*
X216050D01*
Y397050D01*
G37*
G36*
X215316Y406752D02*X209598D01*
Y400248D01*
X215316D01*
Y406752D01*
G37*
G36*
X222402D02*X216684D01*
Y400248D01*
X222402D01*
Y406752D01*
G37*
G36*
X216050Y362050D02*X209950D01*
Y353950D01*
X216050D01*
Y362050D01*
G37*
G36*
X215316Y371752D02*X209598D01*
Y365248D01*
X215316D01*
Y371752D01*
G37*
G36*
X222402D02*X216684D01*
Y365248D01*
X222402D01*
Y371752D01*
G37*
G36*
X183826Y475596D02*Y471216D01*
X192300D01*
Y475596D01*
X183826D01*
G37*
G36*
Y469690D02*Y465310D01*
X200016D01*
Y469690D01*
X183826D01*
G37*
G36*
X194535Y472525D02*Y462475D01*
X206475D01*
Y472525D01*
X194535D01*
G37*
G36*
X196679Y470805D02*X194835Y472649D01*
X191571Y469385D01*
X193415Y467541D01*
X196679Y470805D01*
G37*
G36*
X193415Y467459D02*X191571Y465615D01*
X194835Y462351D01*
X196679Y464195D01*
X193415Y467459D01*
G37*
G36*
X183826Y463784D02*Y459404D01*
X192300D01*
Y463784D01*
X183826D01*
G37*
G36*
X181902Y465252D02*X176184D01*
Y458748D01*
X181902D01*
Y465252D01*
G37*
G36*
X174816D02*X169098D01*
Y458748D01*
X174816D01*
Y465252D01*
G37*
G36*
X181902Y360252D02*X176184D01*
Y353748D01*
X181902D01*
Y360252D01*
G37*
G36*
X174816D02*X169098D01*
Y353748D01*
X174816D01*
Y360252D01*
G37*
G36*
X247649Y463075D02*Y460113D01*
X254351D01*
Y463075D01*
X247649D01*
G37*
G36*
Y467012D02*Y464050D01*
X254351D01*
Y467012D01*
X247649D01*
G37*
G36*
Y470950D02*Y467988D01*
X254351D01*
Y470950D01*
X247649D01*
G37*
G36*
Y474887D02*Y471925D01*
X254351D01*
Y474887D01*
X247649D01*
G37*
G36*
X262413Y459138D02*Y454700D01*
X270099D01*
Y459138D01*
X262413D01*
G37*
G36*
Y480300D02*Y475862D01*
X270099D01*
Y480300D01*
X262413D01*
G37*
G36*
X235316Y476752D02*X229598D01*
Y470248D01*
X235316D01*
Y476752D01*
G37*
G36*
X242402D02*X236684D01*
Y470248D01*
X242402D01*
Y476752D01*
G37*
G54D44*X260000Y495000D03*
G54D43*G36*
X247649Y428075D02*Y425113D01*
X254351D01*
Y428075D01*
X247649D01*
G37*
G36*
Y432012D02*Y429050D01*
X254351D01*
Y432012D01*
X247649D01*
G37*
G36*
X262413Y424138D02*Y419700D01*
X270099D01*
Y424138D01*
X262413D01*
G37*
G36*
X247649Y435950D02*Y432988D01*
X254351D01*
Y435950D01*
X247649D01*
G37*
G36*
X235316Y441752D02*X229598D01*
Y435248D01*
X235316D01*
Y441752D01*
G37*
G36*
X242402D02*X236684D01*
Y435248D01*
X242402D01*
Y441752D01*
G37*
G36*
X247649Y439887D02*Y436925D01*
X254351D01*
Y439887D01*
X247649D01*
G37*
G36*
X262413Y445300D02*Y440862D01*
X270099D01*
Y445300D01*
X262413D01*
G37*
G36*
Y410300D02*Y405862D01*
X270099D01*
Y410300D01*
X262413D01*
G37*
G36*
X158600Y473300D02*X155600D01*
Y468700D01*
X158600D01*
Y473300D01*
G37*
G36*
X162500Y465100D02*X159500D01*
Y460500D01*
X162500D01*
Y465100D01*
G37*
G36*
X166400D02*X163400D01*
Y460500D01*
X166400D01*
Y465100D01*
G37*
G36*
X116500Y471500D02*Y468500D01*
X126000D01*
Y471500D01*
X116500D01*
G37*
G36*
Y476500D02*Y473500D01*
X126000D01*
Y476500D01*
X116500D01*
G37*
G36*
X119500D02*Y473500D01*
X129000D01*
Y476500D01*
X119500D01*
G37*
G36*
X116500Y436500D02*Y433500D01*
X126000D01*
Y436500D01*
X116500D01*
G37*
G36*
Y441500D02*Y438500D01*
X126000D01*
Y441500D01*
X116500D01*
G37*
G36*
X119500Y436500D02*Y433500D01*
X129000D01*
Y436500D01*
X119500D01*
G37*
G36*
Y441500D02*Y438500D01*
X129000D01*
Y441500D01*
X119500D01*
G37*
G36*
X158600Y465100D02*X155600D01*
Y460500D01*
X158600D01*
Y465100D01*
G37*
G36*
X116500Y461500D02*Y458500D01*
X126000D01*
Y461500D01*
X116500D01*
G37*
G36*
Y466500D02*Y463500D01*
X126000D01*
Y466500D01*
X116500D01*
G37*
G36*
X119500Y461500D02*Y458500D01*
X129000D01*
Y461500D01*
X119500D01*
G37*
G36*
Y466500D02*Y463500D01*
X129000D01*
Y466500D01*
X119500D01*
G37*
G36*
Y471500D02*Y468500D01*
X129000D01*
Y471500D01*
X119500D01*
G37*
G36*
X166400Y473300D02*X163400D01*
Y468700D01*
X166400D01*
Y473300D01*
G37*
G36*
Y438300D02*X163400D01*
Y433700D01*
X166400D01*
Y438300D01*
G37*
G36*
X162500Y473300D02*X159500D01*
Y468700D01*
X162500D01*
Y473300D01*
G37*
G36*
Y438300D02*X159500D01*
Y433700D01*
X162500D01*
Y438300D01*
G37*
G36*
X158600D02*X155600D01*
Y433700D01*
X158600D01*
Y438300D01*
G37*
G36*
X162500Y430100D02*X159500D01*
Y425500D01*
X162500D01*
Y430100D01*
G37*
G36*
X166400D02*X163400D01*
Y425500D01*
X166400D01*
Y430100D01*
G37*
G36*
X183826Y440596D02*Y436216D01*
X192300D01*
Y440596D01*
X183826D01*
G37*
G36*
Y434690D02*Y430310D01*
X200016D01*
Y434690D01*
X183826D01*
G37*
G36*
Y428784D02*Y424404D01*
X192300D01*
Y428784D01*
X183826D01*
G37*
G36*
X181902Y430252D02*X176184D01*
Y423748D01*
X181902D01*
Y430252D01*
G37*
G36*
X174816D02*X169098D01*
Y423748D01*
X174816D01*
Y430252D01*
G37*
G36*
X194535Y437525D02*Y427475D01*
X206475D01*
Y437525D01*
X194535D01*
G37*
G36*
X196679Y435805D02*X194835Y437649D01*
X191571Y434385D01*
X193415Y432541D01*
X196679Y435805D01*
G37*
G36*
X193415Y432459D02*X191571Y430615D01*
X194835Y427351D01*
X196679Y429195D01*
X193415Y432459D01*
G37*
G36*
X247649Y393075D02*Y390113D01*
X254351D01*
Y393075D01*
X247649D01*
G37*
G36*
Y397012D02*Y394050D01*
X254351D01*
Y397012D01*
X247649D01*
G37*
G36*
Y400950D02*Y397988D01*
X254351D01*
Y400950D01*
X247649D01*
G37*
G36*
Y404887D02*Y401925D01*
X254351D01*
Y404887D01*
X247649D01*
G37*
G36*
X235316Y406752D02*X229598D01*
Y400248D01*
X235316D01*
Y406752D01*
G37*
G36*
X242402D02*X236684D01*
Y400248D01*
X242402D01*
Y406752D01*
G37*
G36*
X262413Y389138D02*Y384700D01*
X270099D01*
Y389138D01*
X262413D01*
G37*
G36*
Y375300D02*Y370862D01*
X270099D01*
Y375300D01*
X262413D01*
G37*
G36*
X247649Y358075D02*Y355113D01*
X254351D01*
Y358075D01*
X247649D01*
G37*
G36*
Y362012D02*Y359050D01*
X254351D01*
Y362012D01*
X247649D01*
G37*
G36*
Y365950D02*Y362988D01*
X254351D01*
Y365950D01*
X247649D01*
G37*
G36*
Y369887D02*Y366925D01*
X254351D01*
Y369887D01*
X247649D01*
G37*
G36*
X262413Y354138D02*Y349700D01*
X270099D01*
Y354138D01*
X262413D01*
G37*
G36*
X183826Y405596D02*Y401216D01*
X192300D01*
Y405596D01*
X183826D01*
G37*
G36*
Y399690D02*Y395310D01*
X200016D01*
Y399690D01*
X183826D01*
G37*
G36*
X194535Y402525D02*Y392475D01*
X206475D01*
Y402525D01*
X194535D01*
G37*
G36*
X196679Y400805D02*X194835Y402649D01*
X191571Y399385D01*
X193415Y397541D01*
X196679Y400805D01*
G37*
G36*
X193415Y397459D02*X191571Y395615D01*
X194835Y392351D01*
X196679Y394195D01*
X193415Y397459D01*
G37*
G36*
X183826Y393784D02*Y389404D01*
X192300D01*
Y393784D01*
X183826D01*
G37*
G36*
X181902Y395252D02*X176184D01*
Y388748D01*
X181902D01*
Y395252D01*
G37*
G36*
X174816D02*X169098D01*
Y388748D01*
X174816D01*
Y395252D01*
G37*
G36*
X183826Y370596D02*Y366216D01*
X192300D01*
Y370596D01*
X183826D01*
G37*
G36*
Y364690D02*Y360310D01*
X200016D01*
Y364690D01*
X183826D01*
G37*
G36*
X194535Y367525D02*Y357475D01*
X206475D01*
Y367525D01*
X194535D01*
G37*
G36*
X196679Y365805D02*X194835Y367649D01*
X191571Y364385D01*
X193415Y362541D01*
X196679Y365805D01*
G37*
G36*
X193415Y362459D02*X191571Y360615D01*
X194835Y357351D01*
X196679Y359195D01*
X193415Y362459D01*
G37*
G36*
X183826Y358784D02*Y354404D01*
X192300D01*
Y358784D01*
X183826D01*
G37*
G36*
X229050Y327050D02*X222950D01*
Y318950D01*
X229050D01*
Y327050D01*
G37*
G36*
X235316Y336752D02*X229598D01*
Y330248D01*
X235316D01*
Y336752D01*
G37*
G36*
X242402D02*X236684D01*
Y330248D01*
X242402D01*
Y336752D01*
G37*
G36*
X216050Y327050D02*X209950D01*
Y318950D01*
X216050D01*
Y327050D01*
G37*
G36*
X215316Y336752D02*X209598D01*
Y330248D01*
X215316D01*
Y336752D01*
G37*
G36*
X222402D02*X216684D01*
Y330248D01*
X222402D01*
Y336752D01*
G37*
G36*
X215316Y301752D02*X209598D01*
Y295248D01*
X215316D01*
Y301752D01*
G37*
G36*
X222402D02*X216684D01*
Y295248D01*
X222402D01*
Y301752D01*
G37*
G36*
X247649Y323075D02*Y320113D01*
X254351D01*
Y323075D01*
X247649D01*
G37*
G36*
Y327012D02*Y324050D01*
X254351D01*
Y327012D01*
X247649D01*
G37*
G36*
Y330950D02*Y327988D01*
X254351D01*
Y330950D01*
X247649D01*
G37*
G36*
Y334887D02*Y331925D01*
X254351D01*
Y334887D01*
X247649D01*
G37*
G36*
X262413Y319138D02*Y314700D01*
X270099D01*
Y319138D01*
X262413D01*
G37*
G36*
Y340300D02*Y335862D01*
X270099D01*
Y340300D01*
X262413D01*
G37*
G36*
X183826Y335596D02*Y331216D01*
X192300D01*
Y335596D01*
X183826D01*
G37*
G36*
Y329690D02*Y325310D01*
X200016D01*
Y329690D01*
X183826D01*
G37*
G36*
X194535Y332525D02*Y322475D01*
X206475D01*
Y332525D01*
X194535D01*
G37*
G36*
X196679Y330805D02*X194835Y332649D01*
X191571Y329385D01*
X193415Y327541D01*
X196679Y330805D01*
G37*
G36*
X193415Y327459D02*X191571Y325615D01*
X194835Y322351D01*
X196679Y324195D01*
X193415Y327459D01*
G37*
G36*
X183826Y323784D02*Y319404D01*
X192300D01*
Y323784D01*
X183826D01*
G37*
G36*
X181902Y325252D02*X176184D01*
Y318748D01*
X181902D01*
Y325252D01*
G37*
G36*
X174816D02*X169098D01*
Y318748D01*
X174816D01*
Y325252D01*
G37*
G36*
X229050Y292050D02*X222950D01*
Y283950D01*
X229050D01*
Y292050D01*
G37*
G36*
X247649Y288075D02*Y285113D01*
X254351D01*
Y288075D01*
X247649D01*
G37*
G36*
Y292012D02*Y289050D01*
X254351D01*
Y292012D01*
X247649D01*
G37*
G36*
Y295950D02*Y292988D01*
X254351D01*
Y295950D01*
X247649D01*
G37*
G36*
Y299887D02*Y296925D01*
X254351D01*
Y299887D01*
X247649D01*
G37*
G36*
X235316Y301752D02*X229598D01*
Y295248D01*
X235316D01*
Y301752D01*
G37*
G36*
X242402D02*X236684D01*
Y295248D01*
X242402D01*
Y301752D01*
G37*
G36*
X262413Y284138D02*Y279700D01*
X270099D01*
Y284138D01*
X262413D01*
G37*
G36*
Y305300D02*Y300862D01*
X270099D01*
Y305300D01*
X262413D01*
G37*
G36*
Y270300D02*Y265862D01*
X270099D01*
Y270300D01*
X262413D01*
G37*
G36*
X216050Y292050D02*X209950D01*
Y283950D01*
X216050D01*
Y292050D01*
G37*
G36*
X215316Y266752D02*X209598D01*
Y260248D01*
X215316D01*
Y266752D01*
G37*
G36*
X222402D02*X216684D01*
Y260248D01*
X222402D01*
Y266752D01*
G37*
G36*
X158600Y325100D02*X155600D01*
Y320500D01*
X158600D01*
Y325100D01*
G37*
G36*
Y290100D02*X155600D01*
Y285500D01*
X158600D01*
Y290100D01*
G37*
G36*
X166400Y333300D02*X163400D01*
Y328700D01*
X166400D01*
Y333300D01*
G37*
G36*
Y325100D02*X163400D01*
Y320500D01*
X166400D01*
Y325100D01*
G37*
G36*
Y298300D02*X163400D01*
Y293700D01*
X166400D01*
Y298300D01*
G37*
G36*
Y290100D02*X163400D01*
Y285500D01*
X166400D01*
Y290100D01*
G37*
G36*
X162500Y333300D02*X159500D01*
Y328700D01*
X162500D01*
Y333300D01*
G37*
G36*
Y325100D02*X159500D01*
Y320500D01*
X162500D01*
Y325100D01*
G37*
G36*
X158600Y333300D02*X155600D01*
Y328700D01*
X158600D01*
Y333300D01*
G37*
G36*
X162500Y298300D02*X159500D01*
Y293700D01*
X162500D01*
Y298300D01*
G37*
G36*
X158600D02*X155600D01*
Y293700D01*
X158600D01*
Y298300D01*
G37*
G36*
X162500Y290100D02*X159500D01*
Y285500D01*
X162500D01*
Y290100D01*
G37*
G36*
Y263300D02*X159500D01*
Y258700D01*
X162500D01*
Y263300D01*
G37*
G36*
X158600D02*X155600D01*
Y258700D01*
X158600D01*
Y263300D01*
G37*
G36*
X116500Y286500D02*Y283500D01*
X126000D01*
Y286500D01*
X116500D01*
G37*
G36*
X119500D02*Y283500D01*
X129000D01*
Y286500D01*
X119500D01*
G37*
G36*
X116500Y291500D02*Y288500D01*
X126000D01*
Y291500D01*
X116500D01*
G37*
G36*
Y296500D02*Y293500D01*
X126000D01*
Y296500D01*
X116500D01*
G37*
G36*
Y301500D02*Y298500D01*
X126000D01*
Y301500D01*
X116500D01*
G37*
G36*
X119500Y291500D02*Y288500D01*
X129000D01*
Y291500D01*
X119500D01*
G37*
G36*
Y296500D02*Y293500D01*
X129000D01*
Y296500D01*
X119500D01*
G37*
G36*
Y301500D02*Y298500D01*
X129000D01*
Y301500D01*
X119500D01*
G37*
G36*
X116500Y251500D02*Y248500D01*
X126000D01*
Y251500D01*
X116500D01*
G37*
G36*
Y256500D02*Y253500D01*
X126000D01*
Y256500D01*
X116500D01*
G37*
G36*
Y261500D02*Y258500D01*
X126000D01*
Y261500D01*
X116500D01*
G37*
G36*
Y266500D02*Y263500D01*
X126000D01*
Y266500D01*
X116500D01*
G37*
G36*
X119500Y251500D02*Y248500D01*
X129000D01*
Y251500D01*
X119500D01*
G37*
G36*
X59702Y286718D02*Y283282D01*
X65054D01*
Y286718D01*
X59702D01*
G37*
G36*
Y291718D02*Y288282D01*
X65054D01*
Y291718D01*
X59702D01*
G37*
G36*
X75316Y290252D02*X69598D01*
Y283748D01*
X75316D01*
Y290252D01*
G37*
G36*
Y301252D02*X69598D01*
Y294748D01*
X75316D01*
Y301252D01*
G37*
G36*
X59702Y296718D02*Y293282D01*
X65054D01*
Y296718D01*
X59702D01*
G37*
G36*
Y301718D02*Y298282D01*
X65054D01*
Y301718D01*
X59702D01*
G37*
G36*
X84748Y291816D02*Y286098D01*
X91252D01*
Y291816D01*
X84748D01*
G37*
G36*
Y298902D02*Y293184D01*
X91252D01*
Y298902D01*
X84748D01*
G37*
G36*
X82402Y290252D02*X76684D01*
Y283748D01*
X82402D01*
Y290252D01*
G37*
G36*
Y301252D02*X76684D01*
Y294748D01*
X82402D01*
Y301252D01*
G37*
G36*
X96000Y301500D02*Y298500D01*
X105500D01*
Y301500D01*
X96000D01*
G37*
G36*
Y296500D02*Y293500D01*
X105500D01*
Y296500D01*
X96000D01*
G37*
G36*
X93000D02*Y293500D01*
X102500D01*
Y296500D01*
X93000D01*
G37*
G36*
X96000Y291500D02*Y288500D01*
X105500D01*
Y291500D01*
X96000D01*
G37*
G36*
X93000D02*Y288500D01*
X102500D01*
Y291500D01*
X93000D01*
G37*
G36*
Y286500D02*Y283500D01*
X102500D01*
Y286500D01*
X93000D01*
G37*
G36*
X96000D02*Y283500D01*
X105500D01*
Y286500D01*
X96000D01*
G37*
G36*
X93000Y301500D02*Y298500D01*
X102500D01*
Y301500D01*
X93000D01*
G37*
G36*
X59702Y251718D02*Y248282D01*
X65054D01*
Y251718D01*
X59702D01*
G37*
G36*
Y256718D02*Y253282D01*
X65054D01*
Y256718D01*
X59702D01*
G37*
G36*
X75316Y255252D02*X69598D01*
Y248748D01*
X75316D01*
Y255252D01*
G37*
G36*
Y266252D02*X69598D01*
Y259748D01*
X75316D01*
Y266252D01*
G37*
G36*
X59702Y261718D02*Y258282D01*
X65054D01*
Y261718D01*
X59702D01*
G37*
G36*
Y266718D02*Y263282D01*
X65054D01*
Y266718D01*
X59702D01*
G37*
G36*
X84748Y256816D02*Y251098D01*
X91252D01*
Y256816D01*
X84748D01*
G37*
G36*
Y263902D02*Y258184D01*
X91252D01*
Y263902D01*
X84748D01*
G37*
G36*
X82402Y255252D02*X76684D01*
Y248748D01*
X82402D01*
Y255252D01*
G37*
G36*
Y266252D02*X76684D01*
Y259748D01*
X82402D01*
Y266252D01*
G37*
G36*
X96000Y266500D02*Y263500D01*
X105500D01*
Y266500D01*
X96000D01*
G37*
G36*
Y261500D02*Y258500D01*
X105500D01*
Y261500D01*
X96000D01*
G37*
G36*
X93000D02*Y258500D01*
X102500D01*
Y261500D01*
X93000D01*
G37*
G36*
X96000Y256500D02*Y253500D01*
X105500D01*
Y256500D01*
X96000D01*
G37*
G36*
X93000D02*Y253500D01*
X102500D01*
Y256500D01*
X93000D01*
G37*
G36*
Y251500D02*Y248500D01*
X102500D01*
Y251500D01*
X93000D01*
G37*
G36*
Y266500D02*Y263500D01*
X102500D01*
Y266500D01*
X93000D01*
G37*
G36*
X96000Y251500D02*Y248500D01*
X105500D01*
Y251500D01*
X96000D01*
G37*
G36*
X119500Y256500D02*Y253500D01*
X129000D01*
Y256500D01*
X119500D01*
G37*
G36*
Y261500D02*Y258500D01*
X129000D01*
Y261500D01*
X119500D01*
G37*
G36*
Y266500D02*Y263500D01*
X129000D01*
Y266500D01*
X119500D01*
G37*
G36*
X59702Y216718D02*Y213282D01*
X65054D01*
Y216718D01*
X59702D01*
G37*
G36*
Y221718D02*Y218282D01*
X65054D01*
Y221718D01*
X59702D01*
G37*
G36*
X75316Y220252D02*X69598D01*
Y213748D01*
X75316D01*
Y220252D01*
G37*
G36*
Y231252D02*X69598D01*
Y224748D01*
X75316D01*
Y231252D01*
G37*
G36*
X59702Y226718D02*Y223282D01*
X65054D01*
Y226718D01*
X59702D01*
G37*
G36*
Y231718D02*Y228282D01*
X65054D01*
Y231718D01*
X59702D01*
G37*
G36*
X84748Y221816D02*Y216098D01*
X91252D01*
Y221816D01*
X84748D01*
G37*
G36*
Y228902D02*Y223184D01*
X91252D01*
Y228902D01*
X84748D01*
G37*
G36*
X82402Y220252D02*X76684D01*
Y213748D01*
X82402D01*
Y220252D01*
G37*
G36*
Y231252D02*X76684D01*
Y224748D01*
X82402D01*
Y231252D01*
G37*
G36*
X96000Y231500D02*Y228500D01*
X105500D01*
Y231500D01*
X96000D01*
G37*
G36*
Y226500D02*Y223500D01*
X105500D01*
Y226500D01*
X96000D01*
G37*
G36*
X93000D02*Y223500D01*
X102500D01*
Y226500D01*
X93000D01*
G37*
G36*
X96000Y221500D02*Y218500D01*
X105500D01*
Y221500D01*
X96000D01*
G37*
G36*
X93000D02*Y218500D01*
X102500D01*
Y221500D01*
X93000D01*
G37*
G36*
Y216500D02*Y213500D01*
X102500D01*
Y216500D01*
X93000D01*
G37*
G36*
X96000D02*Y213500D01*
X105500D01*
Y216500D01*
X96000D01*
G37*
G36*
X93000Y231500D02*Y228500D01*
X102500D01*
Y231500D01*
X93000D01*
G37*
G36*
X166400Y228300D02*X163400D01*
Y223700D01*
X166400D01*
Y228300D01*
G37*
G36*
X162500D02*X159500D01*
Y223700D01*
X162500D01*
Y228300D01*
G37*
G36*
X158600D02*X155600D01*
Y223700D01*
X158600D01*
Y228300D01*
G37*
G36*
X162500Y220100D02*X159500D01*
Y215500D01*
X162500D01*
Y220100D01*
G37*
G36*
X166400D02*X163400D01*
Y215500D01*
X166400D01*
Y220100D01*
G37*
G36*
X116500Y226500D02*Y223500D01*
X126000D01*
Y226500D01*
X116500D01*
G37*
G36*
Y231500D02*Y228500D01*
X126000D01*
Y231500D01*
X116500D01*
G37*
G36*
X158600Y220100D02*X155600D01*
Y215500D01*
X158600D01*
Y220100D01*
G37*
G36*
X116500Y216500D02*Y213500D01*
X126000D01*
Y216500D01*
X116500D01*
G37*
G36*
Y221500D02*Y218500D01*
X126000D01*
Y221500D01*
X116500D01*
G37*
G36*
X119500Y216500D02*Y213500D01*
X129000D01*
Y216500D01*
X119500D01*
G37*
G36*
Y221500D02*Y218500D01*
X129000D01*
Y221500D01*
X119500D01*
G37*
G36*
Y226500D02*Y223500D01*
X129000D01*
Y226500D01*
X119500D01*
G37*
G36*
X59702Y181718D02*Y178282D01*
X65054D01*
Y181718D01*
X59702D01*
G37*
G36*
Y186718D02*Y183282D01*
X65054D01*
Y186718D01*
X59702D01*
G37*
G36*
X75316Y185252D02*X69598D01*
Y178748D01*
X75316D01*
Y185252D01*
G37*
G36*
Y196252D02*X69598D01*
Y189748D01*
X75316D01*
Y196252D01*
G37*
G36*
X59702Y191718D02*Y188282D01*
X65054D01*
Y191718D01*
X59702D01*
G37*
G36*
Y196718D02*Y193282D01*
X65054D01*
Y196718D01*
X59702D01*
G37*
G36*
X84748Y186816D02*Y181098D01*
X91252D01*
Y186816D01*
X84748D01*
G37*
G36*
Y193902D02*Y188184D01*
X91252D01*
Y193902D01*
X84748D01*
G37*
G36*
X82402Y185252D02*X76684D01*
Y178748D01*
X82402D01*
Y185252D01*
G37*
G36*
Y196252D02*X76684D01*
Y189748D01*
X82402D01*
Y196252D01*
G37*
G36*
X96000Y196500D02*Y193500D01*
X105500D01*
Y196500D01*
X96000D01*
G37*
G36*
Y191500D02*Y188500D01*
X105500D01*
Y191500D01*
X96000D01*
G37*
G36*
X93000D02*Y188500D01*
X102500D01*
Y191500D01*
X93000D01*
G37*
G36*
X96000Y186500D02*Y183500D01*
X105500D01*
Y186500D01*
X96000D01*
G37*
G36*
X93000D02*Y183500D01*
X102500D01*
Y186500D01*
X93000D01*
G37*
G36*
Y181500D02*Y178500D01*
X102500D01*
Y181500D01*
X93000D01*
G37*
G36*
X96000D02*Y178500D01*
X105500D01*
Y181500D01*
X96000D01*
G37*
G36*
X93000Y196500D02*Y193500D01*
X102500D01*
Y196500D01*
X93000D01*
G37*
G36*
X59702Y146718D02*Y143282D01*
X65054D01*
Y146718D01*
X59702D01*
G37*
G36*
Y151718D02*Y148282D01*
X65054D01*
Y151718D01*
X59702D01*
G37*
G36*
X75316Y150252D02*X69598D01*
Y143748D01*
X75316D01*
Y150252D01*
G37*
G36*
Y161252D02*X69598D01*
Y154748D01*
X75316D01*
Y161252D01*
G37*
G36*
X59702Y156718D02*Y153282D01*
X65054D01*
Y156718D01*
X59702D01*
G37*
G36*
Y161718D02*Y158282D01*
X65054D01*
Y161718D01*
X59702D01*
G37*
G36*
X84748Y151816D02*Y146098D01*
X91252D01*
Y151816D01*
X84748D01*
G37*
G36*
Y158902D02*Y153184D01*
X91252D01*
Y158902D01*
X84748D01*
G37*
G36*
X82402Y150252D02*X76684D01*
Y143748D01*
X82402D01*
Y150252D01*
G37*
G36*
Y161252D02*X76684D01*
Y154748D01*
X82402D01*
Y161252D01*
G37*
G36*
X96000Y161500D02*Y158500D01*
X105500D01*
Y161500D01*
X96000D01*
G37*
G36*
Y156500D02*Y153500D01*
X105500D01*
Y156500D01*
X96000D01*
G37*
G36*
X93000D02*Y153500D01*
X102500D01*
Y156500D01*
X93000D01*
G37*
G36*
X96000Y151500D02*Y148500D01*
X105500D01*
Y151500D01*
X96000D01*
G37*
G36*
X93000D02*Y148500D01*
X102500D01*
Y151500D01*
X93000D01*
G37*
G36*
Y146500D02*Y143500D01*
X102500D01*
Y146500D01*
X93000D01*
G37*
G36*
X96000D02*Y143500D01*
X105500D01*
Y146500D01*
X96000D01*
G37*
G36*
X93000Y161500D02*Y158500D01*
X102500D01*
Y161500D01*
X93000D01*
G37*
G36*
X59702Y111718D02*Y108282D01*
X65054D01*
Y111718D01*
X59702D01*
G37*
G36*
Y116718D02*Y113282D01*
X65054D01*
Y116718D01*
X59702D01*
G37*
G36*
X75316Y115252D02*X69598D01*
Y108748D01*
X75316D01*
Y115252D01*
G37*
G36*
Y126252D02*X69598D01*
Y119748D01*
X75316D01*
Y126252D01*
G37*
G36*
X59702Y121718D02*Y118282D01*
X65054D01*
Y121718D01*
X59702D01*
G37*
G36*
Y126718D02*Y123282D01*
X65054D01*
Y126718D01*
X59702D01*
G37*
G36*
X84748Y116816D02*Y111098D01*
X91252D01*
Y116816D01*
X84748D01*
G37*
G36*
Y123902D02*Y118184D01*
X91252D01*
Y123902D01*
X84748D01*
G37*
G36*
X82402Y115252D02*X76684D01*
Y108748D01*
X82402D01*
Y115252D01*
G37*
G36*
Y126252D02*X76684D01*
Y119748D01*
X82402D01*
Y126252D01*
G37*
G36*
X96000Y126500D02*Y123500D01*
X105500D01*
Y126500D01*
X96000D01*
G37*
G36*
Y121500D02*Y118500D01*
X105500D01*
Y121500D01*
X96000D01*
G37*
G36*
X93000D02*Y118500D01*
X102500D01*
Y121500D01*
X93000D01*
G37*
G36*
X96000Y116500D02*Y113500D01*
X105500D01*
Y116500D01*
X96000D01*
G37*
G36*
X93000D02*Y113500D01*
X102500D01*
Y116500D01*
X93000D01*
G37*
G36*
Y111500D02*Y108500D01*
X102500D01*
Y111500D01*
X93000D01*
G37*
G36*
X96000D02*Y108500D01*
X105500D01*
Y111500D01*
X96000D01*
G37*
G36*
X93000Y126500D02*Y123500D01*
X102500D01*
Y126500D01*
X93000D01*
G37*
G36*
X59702Y76718D02*Y73282D01*
X65054D01*
Y76718D01*
X59702D01*
G37*
G36*
Y81718D02*Y78282D01*
X65054D01*
Y81718D01*
X59702D01*
G37*
G36*
X75316Y80252D02*X69598D01*
Y73748D01*
X75316D01*
Y80252D01*
G37*
G36*
Y91252D02*X69598D01*
Y84748D01*
X75316D01*
Y91252D01*
G37*
G36*
X59702Y86718D02*Y83282D01*
X65054D01*
Y86718D01*
X59702D01*
G37*
G36*
Y91718D02*Y88282D01*
X65054D01*
Y91718D01*
X59702D01*
G37*
G54D44*X100000Y55000D03*
G54D43*G36*
X166400Y88300D02*X163400D01*
Y83700D01*
X166400D01*
Y88300D01*
G37*
G36*
X162500D02*X159500D01*
Y83700D01*
X162500D01*
Y88300D01*
G37*
G36*
X158600D02*X155600D01*
Y83700D01*
X158600D01*
Y88300D01*
G37*
G36*
X162500Y80100D02*X159500D01*
Y75500D01*
X162500D01*
Y80100D01*
G37*
G36*
X166400D02*X163400D01*
Y75500D01*
X166400D01*
Y80100D01*
G37*
G36*
X84748Y81816D02*Y76098D01*
X91252D01*
Y81816D01*
X84748D01*
G37*
G36*
Y88902D02*Y83184D01*
X91252D01*
Y88902D01*
X84748D01*
G37*
G36*
X82402Y80252D02*X76684D01*
Y73748D01*
X82402D01*
Y80252D01*
G37*
G36*
Y91252D02*X76684D01*
Y84748D01*
X82402D01*
Y91252D01*
G37*
G36*
X96000Y91500D02*Y88500D01*
X105500D01*
Y91500D01*
X96000D01*
G37*
G36*
Y86500D02*Y83500D01*
X105500D01*
Y86500D01*
X96000D01*
G37*
G36*
X93000D02*Y83500D01*
X102500D01*
Y86500D01*
X93000D01*
G37*
G36*
X96000Y81500D02*Y78500D01*
X105500D01*
Y81500D01*
X96000D01*
G37*
G36*
X93000D02*Y78500D01*
X102500D01*
Y81500D01*
X93000D01*
G37*
G36*
Y76500D02*Y73500D01*
X102500D01*
Y76500D01*
X93000D01*
G37*
G36*
X96000D02*Y73500D01*
X105500D01*
Y76500D01*
X96000D01*
G37*
G36*
X93000Y91500D02*Y88500D01*
X102500D01*
Y91500D01*
X93000D01*
G37*
G36*
X116500Y86500D02*Y83500D01*
X126000D01*
Y86500D01*
X116500D01*
G37*
G36*
Y91500D02*Y88500D01*
X126000D01*
Y91500D01*
X116500D01*
G37*
G36*
X119500D02*Y88500D01*
X129000D01*
Y91500D01*
X119500D01*
G37*
G36*
X158600Y80100D02*X155600D01*
Y75500D01*
X158600D01*
Y80100D01*
G37*
G36*
X116500Y76500D02*Y73500D01*
X126000D01*
Y76500D01*
X116500D01*
G37*
G36*
Y81500D02*Y78500D01*
X126000D01*
Y81500D01*
X116500D01*
G37*
G36*
X119500Y76500D02*Y73500D01*
X129000D01*
Y76500D01*
X119500D01*
G37*
G36*
Y81500D02*Y78500D01*
X129000D01*
Y81500D01*
X119500D01*
G37*
G36*
Y86500D02*Y83500D01*
X129000D01*
Y86500D01*
X119500D01*
G37*
G36*
X183826Y300596D02*Y296216D01*
X192300D01*
Y300596D01*
X183826D01*
G37*
G36*
Y294690D02*Y290310D01*
X200016D01*
Y294690D01*
X183826D01*
G37*
G36*
X194535Y297525D02*Y287475D01*
X206475D01*
Y297525D01*
X194535D01*
G37*
G36*
X196679Y295805D02*X194835Y297649D01*
X191571Y294385D01*
X193415Y292541D01*
X196679Y295805D01*
G37*
G36*
X193415Y292459D02*X191571Y290615D01*
X194835Y287351D01*
X196679Y289195D01*
X193415Y292459D01*
G37*
G36*
X183826Y288784D02*Y284404D01*
X192300D01*
Y288784D01*
X183826D01*
G37*
G36*
X181902Y290252D02*X176184D01*
Y283748D01*
X181902D01*
Y290252D01*
G37*
G36*
X174816D02*X169098D01*
Y283748D01*
X174816D01*
Y290252D01*
G37*
G36*
X247649Y253075D02*Y250113D01*
X254351D01*
Y253075D01*
X247649D01*
G37*
G36*
X262413Y249138D02*Y244700D01*
X270099D01*
Y249138D01*
X262413D01*
G37*
G36*
X247649Y257012D02*Y254050D01*
X254351D01*
Y257012D01*
X247649D01*
G37*
G36*
Y260950D02*Y257988D01*
X254351D01*
Y260950D01*
X247649D01*
G37*
G36*
Y264887D02*Y261925D01*
X254351D01*
Y264887D01*
X247649D01*
G37*
G36*
X235316Y266752D02*X229598D01*
Y260248D01*
X235316D01*
Y266752D01*
G37*
G36*
X242402D02*X236684D01*
Y260248D01*
X242402D01*
Y266752D01*
G37*
G36*
X247649Y222012D02*Y219050D01*
X254351D01*
Y222012D01*
X247649D01*
G37*
G36*
Y225950D02*Y222988D01*
X254351D01*
Y225950D01*
X247649D01*
G37*
G36*
Y229887D02*Y226925D01*
X254351D01*
Y229887D01*
X247649D01*
G37*
G36*
X262413Y235300D02*Y230862D01*
X270099D01*
Y235300D01*
X262413D01*
G37*
G36*
X235316Y231752D02*X229598D01*
Y225248D01*
X235316D01*
Y231752D01*
G37*
G36*
X242402D02*X236684D01*
Y225248D01*
X242402D01*
Y231752D01*
G37*
G36*
X183826Y265596D02*Y261216D01*
X192300D01*
Y265596D01*
X183826D01*
G37*
G36*
Y259690D02*Y255310D01*
X200016D01*
Y259690D01*
X183826D01*
G37*
G36*
X194535Y262525D02*Y252475D01*
X206475D01*
Y262525D01*
X194535D01*
G37*
G36*
X196679Y260805D02*X194835Y262649D01*
X191571Y259385D01*
X193415Y257541D01*
X196679Y260805D01*
G37*
G36*
X193415Y257459D02*X191571Y255615D01*
X194835Y252351D01*
X196679Y254195D01*
X193415Y257459D01*
G37*
G36*
X183826Y253784D02*Y249404D01*
X192300D01*
Y253784D01*
X183826D01*
G37*
G36*
X181902Y255252D02*X176184D01*
Y248748D01*
X181902D01*
Y255252D01*
G37*
G36*
X174816D02*X169098D01*
Y248748D01*
X174816D01*
Y255252D01*
G37*
G36*
X229050Y257050D02*X222950D01*
Y248950D01*
X229050D01*
Y257050D01*
G37*
G36*
X216050D02*X209950D01*
Y248950D01*
X216050D01*
Y257050D01*
G37*
G36*
X215316Y231752D02*X209598D01*
Y225248D01*
X215316D01*
Y231752D01*
G37*
G36*
X222402D02*X216684D01*
Y225248D01*
X222402D01*
Y231752D01*
G37*
G36*
X229050Y222050D02*X222950D01*
Y213950D01*
X229050D01*
Y222050D01*
G37*
G36*
X216050D02*X209950D01*
Y213950D01*
X216050D01*
Y222050D01*
G37*
G36*
X229050Y187050D02*X222950D01*
Y178950D01*
X229050D01*
Y187050D01*
G37*
G36*
X216050D02*X209950D01*
Y178950D01*
X216050D01*
Y187050D01*
G37*
G36*
X222402Y196752D02*X216684D01*
Y190248D01*
X222402D01*
Y196752D01*
G37*
G36*
X215316D02*X209598D01*
Y190248D01*
X215316D01*
Y196752D01*
G37*
G36*
X229050Y152050D02*X222950D01*
Y143950D01*
X229050D01*
Y152050D01*
G37*
G36*
Y117050D02*X222950D01*
Y108950D01*
X229050D01*
Y117050D01*
G37*
G36*
X222402Y126752D02*X216684D01*
Y120248D01*
X222402D01*
Y126752D01*
G37*
G36*
X229050Y82050D02*X222950D01*
Y73950D01*
X229050D01*
Y82050D01*
G37*
G36*
X222402Y91752D02*X216684D01*
Y85248D01*
X222402D01*
Y91752D01*
G37*
G36*
X216050Y152050D02*X209950D01*
Y143950D01*
X216050D01*
Y152050D01*
G37*
G36*
Y117050D02*X209950D01*
Y108950D01*
X216050D01*
Y117050D01*
G37*
G36*
X215316Y126752D02*X209598D01*
Y120248D01*
X215316D01*
Y126752D01*
G37*
G36*
X216050Y82050D02*X209950D01*
Y73950D01*
X216050D01*
Y82050D01*
G37*
G36*
X215316Y91752D02*X209598D01*
Y85248D01*
X215316D01*
Y91752D01*
G37*
G36*
Y161752D02*X209598D01*
Y155248D01*
X215316D01*
Y161752D01*
G37*
G36*
X222402D02*X216684D01*
Y155248D01*
X222402D01*
Y161752D01*
G37*
G36*
X183826Y230596D02*Y226216D01*
X192300D01*
Y230596D01*
X183826D01*
G37*
G36*
Y224690D02*Y220310D01*
X200016D01*
Y224690D01*
X183826D01*
G37*
G36*
X194535Y227525D02*Y217475D01*
X206475D01*
Y227525D01*
X194535D01*
G37*
G36*
X196679Y225805D02*X194835Y227649D01*
X191571Y224385D01*
X193415Y222541D01*
X196679Y225805D01*
G37*
G36*
X193415Y222459D02*X191571Y220615D01*
X194835Y217351D01*
X196679Y219195D01*
X193415Y222459D01*
G37*
G36*
X183826Y218784D02*Y214404D01*
X192300D01*
Y218784D01*
X183826D01*
G37*
G36*
X181902Y220252D02*X176184D01*
Y213748D01*
X181902D01*
Y220252D01*
G37*
G36*
X174816D02*X169098D01*
Y213748D01*
X174816D01*
Y220252D01*
G37*
G36*
X247649Y218075D02*Y215113D01*
X254351D01*
Y218075D01*
X247649D01*
G37*
G36*
X262413Y214138D02*Y209700D01*
X270099D01*
Y214138D01*
X262413D01*
G37*
G36*
X247649Y183075D02*Y180113D01*
X254351D01*
Y183075D01*
X247649D01*
G37*
G36*
Y187012D02*Y184050D01*
X254351D01*
Y187012D01*
X247649D01*
G37*
G36*
X262413Y179138D02*Y174700D01*
X270099D01*
Y179138D01*
X262413D01*
G37*
G36*
X247649Y190950D02*Y187988D01*
X254351D01*
Y190950D01*
X247649D01*
G37*
G36*
Y194887D02*Y191925D01*
X254351D01*
Y194887D01*
X247649D01*
G37*
G36*
X262413Y200300D02*Y195862D01*
X270099D01*
Y200300D01*
X262413D01*
G37*
G36*
X235316Y196752D02*X229598D01*
Y190248D01*
X235316D01*
Y196752D01*
G37*
G36*
X242402D02*X236684D01*
Y190248D01*
X242402D01*
Y196752D01*
G37*
G36*
X262413Y95300D02*Y90862D01*
X270099D01*
Y95300D01*
X262413D01*
G37*
G36*
X235316Y91752D02*X229598D01*
Y85248D01*
X235316D01*
Y91752D01*
G37*
G36*
X242402D02*X236684D01*
Y85248D01*
X242402D01*
Y91752D01*
G37*
G36*
X183826Y195596D02*Y191216D01*
X192300D01*
Y195596D01*
X183826D01*
G37*
G36*
Y189690D02*Y185310D01*
X200016D01*
Y189690D01*
X183826D01*
G37*
G36*
X194535Y192525D02*Y182475D01*
X206475D01*
Y192525D01*
X194535D01*
G37*
G36*
X196679Y190805D02*X194835Y192649D01*
X191571Y189385D01*
X193415Y187541D01*
X196679Y190805D01*
G37*
G36*
X193415Y187459D02*X191571Y185615D01*
X194835Y182351D01*
X196679Y184195D01*
X193415Y187459D01*
G37*
G36*
X183826Y183784D02*Y179404D01*
X192300D01*
Y183784D01*
X183826D01*
G37*
G36*
X181902Y185252D02*X176184D01*
Y178748D01*
X181902D01*
Y185252D01*
G37*
G36*
X174816D02*X169098D01*
Y178748D01*
X174816D01*
Y185252D01*
G37*
G36*
X183826Y160596D02*Y156216D01*
X192300D01*
Y160596D01*
X183826D01*
G37*
G36*
Y154690D02*Y150310D01*
X200016D01*
Y154690D01*
X183826D01*
G37*
G36*
X194535Y157525D02*Y147475D01*
X206475D01*
Y157525D01*
X194535D01*
G37*
G36*
X196679Y155805D02*X194835Y157649D01*
X191571Y154385D01*
X193415Y152541D01*
X196679Y155805D01*
G37*
G36*
X193415Y152459D02*X191571Y150615D01*
X194835Y147351D01*
X196679Y149195D01*
X193415Y152459D01*
G37*
G36*
X183826Y148784D02*Y144404D01*
X192300D01*
Y148784D01*
X183826D01*
G37*
G36*
X181902Y150252D02*X176184D01*
Y143748D01*
X181902D01*
Y150252D01*
G37*
G36*
X174816D02*X169098D01*
Y143748D01*
X174816D01*
Y150252D01*
G37*
G36*
X183826Y125596D02*Y121216D01*
X192300D01*
Y125596D01*
X183826D01*
G37*
G36*
Y119690D02*Y115310D01*
X200016D01*
Y119690D01*
X183826D01*
G37*
G36*
X194535Y122525D02*Y112475D01*
X206475D01*
Y122525D01*
X194535D01*
G37*
G36*
X196679Y120805D02*X194835Y122649D01*
X191571Y119385D01*
X193415Y117541D01*
X196679Y120805D01*
G37*
G36*
X193415Y117459D02*X191571Y115615D01*
X194835Y112351D01*
X196679Y114195D01*
X193415Y117459D01*
G37*
G36*
X183826Y113784D02*Y109404D01*
X192300D01*
Y113784D01*
X183826D01*
G37*
G36*
X181902Y115252D02*X176184D01*
Y108748D01*
X181902D01*
Y115252D01*
G37*
G36*
X174816D02*X169098D01*
Y108748D01*
X174816D01*
Y115252D01*
G37*
G36*
X183826Y90596D02*Y86216D01*
X192300D01*
Y90596D01*
X183826D01*
G37*
G36*
Y84690D02*Y80310D01*
X200016D01*
Y84690D01*
X183826D01*
G37*
G36*
X194535Y87525D02*Y77475D01*
X206475D01*
Y87525D01*
X194535D01*
G37*
G36*
X196679Y85805D02*X194835Y87649D01*
X191571Y84385D01*
X193415Y82541D01*
X196679Y85805D01*
G37*
G36*
X193415Y82459D02*X191571Y80615D01*
X194835Y77351D01*
X196679Y79195D01*
X193415Y82459D01*
G37*
G36*
X183826Y78784D02*Y74404D01*
X192300D01*
Y78784D01*
X183826D01*
G37*
G36*
X181902Y80252D02*X176184D01*
Y73748D01*
X181902D01*
Y80252D01*
G37*
G36*
X174816D02*X169098D01*
Y73748D01*
X174816D01*
Y80252D01*
G37*
G36*
X158600Y255100D02*X155600D01*
Y250500D01*
X158600D01*
Y255100D01*
G37*
G36*
X162500Y193300D02*X159500D01*
Y188700D01*
X162500D01*
Y193300D01*
G37*
G36*
X158600D02*X155600D01*
Y188700D01*
X158600D01*
Y193300D01*
G37*
G36*
Y185100D02*X155600D01*
Y180500D01*
X158600D01*
Y185100D01*
G37*
G36*
X162500D02*X159500D01*
Y180500D01*
X162500D01*
Y185100D01*
G37*
G36*
Y255100D02*X159500D01*
Y250500D01*
X162500D01*
Y255100D01*
G37*
G36*
X166400D02*X163400D01*
Y250500D01*
X166400D01*
Y255100D01*
G37*
G36*
Y263300D02*X163400D01*
Y258700D01*
X166400D01*
Y263300D01*
G37*
G36*
Y193300D02*X163400D01*
Y188700D01*
X166400D01*
Y193300D01*
G37*
G36*
Y185100D02*X163400D01*
Y180500D01*
X166400D01*
Y185100D01*
G37*
G36*
Y158300D02*X163400D01*
Y153700D01*
X166400D01*
Y158300D01*
G37*
G36*
Y150100D02*X163400D01*
Y145500D01*
X166400D01*
Y150100D01*
G37*
G36*
Y123300D02*X163400D01*
Y118700D01*
X166400D01*
Y123300D01*
G37*
G36*
Y115100D02*X163400D01*
Y110500D01*
X166400D01*
Y115100D01*
G37*
G36*
X162500Y158300D02*X159500D01*
Y153700D01*
X162500D01*
Y158300D01*
G37*
G36*
Y150100D02*X159500D01*
Y145500D01*
X162500D01*
Y150100D01*
G37*
G36*
Y123300D02*X159500D01*
Y118700D01*
X162500D01*
Y123300D01*
G37*
G36*
Y115100D02*X159500D01*
Y110500D01*
X162500D01*
Y115100D01*
G37*
G36*
X158600Y158300D02*X155600D01*
Y153700D01*
X158600D01*
Y158300D01*
G37*
G36*
Y150100D02*X155600D01*
Y145500D01*
X158600D01*
Y150100D01*
G37*
G36*
Y123300D02*X155600D01*
Y118700D01*
X158600D01*
Y123300D01*
G37*
G36*
Y115100D02*X155600D01*
Y110500D01*
X158600D01*
Y115100D01*
G37*
G36*
X119500Y231500D02*Y228500D01*
X129000D01*
Y231500D01*
X119500D01*
G37*
G36*
X116500Y181500D02*Y178500D01*
X126000D01*
Y181500D01*
X116500D01*
G37*
G36*
X119500D02*Y178500D01*
X129000D01*
Y181500D01*
X119500D01*
G37*
G36*
X116500Y186500D02*Y183500D01*
X126000D01*
Y186500D01*
X116500D01*
G37*
G36*
Y191500D02*Y188500D01*
X126000D01*
Y191500D01*
X116500D01*
G37*
G36*
Y196500D02*Y193500D01*
X126000D01*
Y196500D01*
X116500D01*
G37*
G36*
X119500Y186500D02*Y183500D01*
X129000D01*
Y186500D01*
X119500D01*
G37*
G36*
Y191500D02*Y188500D01*
X129000D01*
Y191500D01*
X119500D01*
G37*
G36*
Y196500D02*Y193500D01*
X129000D01*
Y196500D01*
X119500D01*
G37*
G36*
X116500Y146500D02*Y143500D01*
X126000D01*
Y146500D01*
X116500D01*
G37*
G36*
Y151500D02*Y148500D01*
X126000D01*
Y151500D01*
X116500D01*
G37*
G36*
X119500Y146500D02*Y143500D01*
X129000D01*
Y146500D01*
X119500D01*
G37*
G36*
Y151500D02*Y148500D01*
X129000D01*
Y151500D01*
X119500D01*
G37*
G36*
X116500Y156500D02*Y153500D01*
X126000D01*
Y156500D01*
X116500D01*
G37*
G36*
Y161500D02*Y158500D01*
X126000D01*
Y161500D01*
X116500D01*
G37*
G36*
X119500Y156500D02*Y153500D01*
X129000D01*
Y156500D01*
X119500D01*
G37*
G36*
Y161500D02*Y158500D01*
X129000D01*
Y161500D01*
X119500D01*
G37*
G36*
X116500Y111500D02*Y108500D01*
X126000D01*
Y111500D01*
X116500D01*
G37*
G36*
Y116500D02*Y113500D01*
X126000D01*
Y116500D01*
X116500D01*
G37*
G36*
X119500Y111500D02*Y108500D01*
X129000D01*
Y111500D01*
X119500D01*
G37*
G36*
Y116500D02*Y113500D01*
X129000D01*
Y116500D01*
X119500D01*
G37*
G36*
X116500Y121500D02*Y118500D01*
X126000D01*
Y121500D01*
X116500D01*
G37*
G36*
Y126500D02*Y123500D01*
X126000D01*
Y126500D01*
X116500D01*
G37*
G36*
X119500Y121500D02*Y118500D01*
X129000D01*
Y121500D01*
X119500D01*
G37*
G36*
Y126500D02*Y123500D01*
X129000D01*
Y126500D01*
X119500D01*
G37*
G36*
X247649Y148075D02*Y145113D01*
X254351D01*
Y148075D01*
X247649D01*
G37*
G36*
X262413Y144138D02*Y139700D01*
X270099D01*
Y144138D01*
X262413D01*
G37*
G36*
X247649Y152012D02*Y149050D01*
X254351D01*
Y152012D01*
X247649D01*
G37*
G36*
Y78075D02*Y75113D01*
X254351D01*
Y78075D01*
X247649D01*
G37*
G36*
Y82012D02*Y79050D01*
X254351D01*
Y82012D01*
X247649D01*
G37*
G36*
Y85950D02*Y82988D01*
X254351D01*
Y85950D01*
X247649D01*
G37*
G36*
Y89887D02*Y86925D01*
X254351D01*
Y89887D01*
X247649D01*
G37*
G36*
Y155950D02*Y152988D01*
X254351D01*
Y155950D01*
X247649D01*
G37*
G36*
Y159887D02*Y156925D01*
X254351D01*
Y159887D01*
X247649D01*
G37*
G36*
X262413Y165300D02*Y160862D01*
X270099D01*
Y165300D01*
X262413D01*
G37*
G36*
X235316Y161752D02*X229598D01*
Y155248D01*
X235316D01*
Y161752D01*
G37*
G36*
X242402D02*X236684D01*
Y155248D01*
X242402D01*
Y161752D01*
G37*
G36*
X247649Y113075D02*Y110113D01*
X254351D01*
Y113075D01*
X247649D01*
G37*
G36*
Y117012D02*Y114050D01*
X254351D01*
Y117012D01*
X247649D01*
G37*
G36*
Y120950D02*Y117988D01*
X254351D01*
Y120950D01*
X247649D01*
G37*
G36*
Y124887D02*Y121925D01*
X254351D01*
Y124887D01*
X247649D01*
G37*
G36*
X262413Y109138D02*Y104700D01*
X270099D01*
Y109138D01*
X262413D01*
G37*
G36*
Y130300D02*Y125862D01*
X270099D01*
Y130300D01*
X262413D01*
G37*
G36*
X235316Y126752D02*X229598D01*
Y120248D01*
X235316D01*
Y126752D01*
G37*
G36*
X242402D02*X236684D01*
Y120248D01*
X242402D01*
Y126752D01*
G37*
G36*
X262413Y74138D02*Y69700D01*
X270099D01*
Y74138D01*
X262413D01*
G37*
G54D44*X260000Y55000D03*
M02*
