G04 start of page 8 for group -4062 idx -4062 *
G04 Title: (unknown), soldermask *
G04 Creator: pcb 4.0.2 *
G04 CreationDate: Mon Jul 24 21:31:59 2023 UTC *
G04 For: railfan *
G04 Format: Gerber/RS-274X *
G04 PCB-Dimensions (mil): 3000.00 5500.00 *
G04 PCB-Coordinate-Origin: lower left *
%MOIN*%
%FSLAX25Y25*%
%LNBOTTOMMASK*%
%ADD49C,0.0370*%
%ADD48C,0.0001*%
%ADD47C,0.0600*%
%ADD46C,0.0490*%
G54D46*X152500Y362500D03*
Y327500D03*
Y292500D03*
Y257500D03*
X132500Y366500D03*
Y358500D03*
Y331500D03*
Y323500D03*
Y296500D03*
Y288500D03*
Y261500D03*
Y253500D03*
X152500Y432500D03*
X132500Y436500D03*
Y428500D03*
X152500Y397500D03*
X132500Y401500D03*
X152500Y467500D03*
X132500Y471500D03*
Y463500D03*
Y393500D03*
X152500Y222500D03*
Y187500D03*
Y152500D03*
Y117500D03*
X132500Y226500D03*
Y218500D03*
Y191500D03*
Y183500D03*
Y156500D03*
Y148500D03*
Y121500D03*
Y113500D03*
X152500Y82500D03*
X132500Y86500D03*
Y78500D03*
G54D47*X99000Y84900D03*
G54D48*G36*
X96000D02*Y81900D01*
X102000D01*
Y84900D01*
X96000D01*
G37*
G54D49*X147500Y80000D03*
Y85000D03*
X142500Y80000D03*
Y85000D03*
X137500Y80000D03*
Y85000D03*
G54D47*X99000Y78100D03*
G54D48*G36*
X96000Y81100D02*Y78100D01*
X102000D01*
Y81100D01*
X96000D01*
G37*
G54D47*X99000Y469900D03*
G54D48*G36*
X96000D02*Y466900D01*
X102000D01*
Y469900D01*
X96000D01*
G37*
G54D47*X99000Y463100D03*
G54D48*G36*
X96000Y466100D02*Y463100D01*
X102000D01*
Y466100D01*
X96000D01*
G37*
G54D49*X142500Y430000D03*
X137500D03*
X142500Y435000D03*
X137500D03*
G54D47*X99000Y428100D03*
Y434900D03*
G54D48*G36*
X96000D02*Y431900D01*
X102000D01*
Y434900D01*
X96000D01*
G37*
G36*
Y431100D02*Y428100D01*
X102000D01*
Y431100D01*
X96000D01*
G37*
G54D47*X99000Y399900D03*
G54D48*G36*
X96000D02*Y396900D01*
X102000D01*
Y399900D01*
X96000D01*
G37*
G54D47*X99000Y393100D03*
G54D48*G36*
X96000Y396100D02*Y393100D01*
X102000D01*
Y396100D01*
X96000D01*
G37*
G54D49*X147500Y465000D03*
X142500D03*
X137500D03*
X147500Y470000D03*
X142500D03*
X137500D03*
X147500Y430000D03*
Y435000D03*
Y395000D03*
Y400000D03*
X142500Y395000D03*
Y400000D03*
X137500Y395000D03*
Y400000D03*
X147500Y360000D03*
Y365000D03*
X142500Y360000D03*
Y365000D03*
X137500Y360000D03*
Y365000D03*
G54D47*X99000Y364900D03*
G54D48*G36*
X96000D02*Y361900D01*
X102000D01*
Y364900D01*
X96000D01*
G37*
G54D47*X99000Y358100D03*
G54D48*G36*
X96000Y361100D02*Y358100D01*
X102000D01*
Y361100D01*
X96000D01*
G37*
G54D47*X99000Y329900D03*
G54D48*G36*
X96000D02*Y326900D01*
X102000D01*
Y329900D01*
X96000D01*
G37*
G54D49*X147500Y325000D03*
Y330000D03*
X142500Y325000D03*
Y330000D03*
X137500Y325000D03*
Y330000D03*
G54D47*X99000Y323100D03*
G54D48*G36*
X96000Y326100D02*Y323100D01*
X102000D01*
Y326100D01*
X96000D01*
G37*
G54D47*X99000Y294900D03*
G54D48*G36*
X96000D02*Y291900D01*
X102000D01*
Y294900D01*
X96000D01*
G37*
G54D49*X147500Y290000D03*
X142500D03*
X137500D03*
X147500Y295000D03*
X142500D03*
X137500D03*
X147500Y255000D03*
X142500D03*
X137500D03*
X147500Y260000D03*
X142500D03*
X137500D03*
X147500Y220000D03*
Y225000D03*
X142500Y220000D03*
Y225000D03*
X137500D03*
Y220000D03*
X147500Y185000D03*
Y190000D03*
X142500D03*
X137500D03*
X142500Y185000D03*
X137500D03*
G54D47*X99000Y288100D03*
G54D48*G36*
X96000Y291100D02*Y288100D01*
X102000D01*
Y291100D01*
X96000D01*
G37*
G54D47*X99000Y259900D03*
G54D48*G36*
X96000D02*Y256900D01*
X102000D01*
Y259900D01*
X96000D01*
G37*
G54D47*X99000Y253100D03*
G54D48*G36*
X96000Y256100D02*Y253100D01*
X102000D01*
Y256100D01*
X96000D01*
G37*
G54D47*X99000Y224900D03*
G54D48*G36*
X96000D02*Y221900D01*
X102000D01*
Y224900D01*
X96000D01*
G37*
G54D47*X99000Y218100D03*
G54D48*G36*
X96000Y221100D02*Y218100D01*
X102000D01*
Y221100D01*
X96000D01*
G37*
G54D47*X99000Y183100D03*
G54D48*G36*
X96000Y186100D02*Y183100D01*
X102000D01*
Y186100D01*
X96000D01*
G37*
G54D47*X99000Y189900D03*
G54D48*G36*
X96000D02*Y186900D01*
X102000D01*
Y189900D01*
X96000D01*
G37*
G54D49*X147500Y150000D03*
Y155000D03*
X142500Y150000D03*
X137500D03*
X142500Y155000D03*
X137500D03*
X147500Y115000D03*
Y120000D03*
X142500Y115000D03*
G54D47*X99000Y148100D03*
Y154900D03*
G54D48*G36*
X96000D02*Y151900D01*
X102000D01*
Y154900D01*
X96000D01*
G37*
G36*
Y151100D02*Y148100D01*
X102000D01*
Y151100D01*
X96000D01*
G37*
G54D47*X99000Y113100D03*
Y119900D03*
G54D48*G36*
X96000D02*Y116900D01*
X102000D01*
Y119900D01*
X96000D01*
G37*
G36*
Y116100D02*Y113100D01*
X102000D01*
Y116100D01*
X96000D01*
G37*
G54D49*X142500Y120000D03*
X137500D03*
Y115000D03*
M02*
