G04 start of page 9 for group -4079 idx -4079 *
G04 Title: (unknown), topsilk *
G04 Creator: pcb 20140316 *
G04 CreationDate: Tue 10 May 2016 09:14:39 AM GMT UTC *
G04 For: ndholmes *
G04 Format: Gerber/RS-274X *
G04 PCB-Dimensions (mil): 1500.00 1250.00 *
G04 PCB-Coordinate-Origin: lower left *
%MOIN*%
%FSLAX25Y25*%
%LNTOPSILK*%
%ADD82C,0.0200*%
%ADD81C,0.0100*%
%ADD80C,0.0060*%
%ADD79C,0.0080*%
G54D79*X500Y500D02*X149500D01*
Y124500D01*
X500D01*
Y500D01*
G54D80*X60500Y6000D02*X61000Y5500D01*
X59000Y6000D02*X60500D01*
X58500Y5500D02*X59000Y6000D01*
X58500Y5500D02*Y2500D01*
X59000Y2000D01*
X60500D01*
X61000Y2500D01*
Y3500D02*Y2500D01*
X60500Y4000D02*X61000Y3500D01*
X59500Y4000D02*X60500D01*
X62200Y6000D02*Y2000D01*
Y6000D02*X64700Y2000D01*
Y6000D02*Y2000D01*
X66400Y6000D02*Y2000D01*
X67700Y6000D02*X68400Y5300D01*
Y2700D01*
X67700Y2000D02*X68400Y2700D01*
X65900Y2000D02*X67700D01*
X65900Y6000D02*X67700D01*
X85000Y2500D02*X88000Y5500D01*
X89700Y6000D02*Y2000D01*
X91000Y6000D02*X91700Y5300D01*
Y2700D01*
X91000Y2000D02*X91700Y2700D01*
X89200Y2000D02*X91000D01*
X89200Y6000D02*X91000D01*
X102500D02*Y2000D01*
X103800Y6000D02*X104500Y5300D01*
Y2700D01*
X103800Y2000D02*X104500Y2700D01*
X102000Y2000D02*X103800D01*
X102000Y6000D02*X103800D01*
X105700Y4200D02*X107200D01*
X105700Y2000D02*X107700D01*
X105700Y6000D02*Y2000D01*
Y6000D02*X107700D01*
X108900D02*Y2000D01*
X110900D01*
X112100Y5000D02*Y2000D01*
Y5000D02*X112800Y6000D01*
X113900D01*
X114600Y5000D01*
Y2000D01*
X112100Y4000D02*X114600D01*
X115800Y6000D02*X116800Y4000D01*
X117800Y6000D01*
X116800Y4000D02*Y2000D01*
X74500Y6000D02*Y2000D01*
X75800Y6000D02*X76500Y5300D01*
Y2700D01*
X75800Y2000D02*X76500Y2700D01*
X74000Y2000D02*X75800D01*
X74000Y6000D02*X75800D01*
X6500Y73000D02*X2500Y72000D01*
X6500Y71000D01*
Y69800D02*Y68800D01*
X2500Y69300D02*X6500D01*
X2500Y69800D02*Y68800D01*
Y67600D02*X6500D01*
X2500Y65100D01*
X6500D01*
Y58000D02*X6000Y57500D01*
X6500Y59500D02*Y58000D01*
X6000Y60000D02*X6500Y59500D01*
X3000Y60000D02*X6000D01*
X3000D02*X2500Y59500D01*
Y58000D01*
X3000Y57500D01*
X4000D01*
X4500Y58000D02*X4000Y57500D01*
X4500Y59000D02*Y58000D01*
X2500Y56300D02*X6500D01*
X2500Y53800D01*
X6500D01*
X2500Y52100D02*X6500D01*
Y50800D02*X5800Y50100D01*
X3200D02*X5800D01*
X2500Y50800D02*X3200Y50100D01*
X2500Y52600D02*Y50800D01*
X6500Y52600D02*Y50800D01*
X2500Y45500D02*X5500D01*
X6500Y44800D01*
Y43700D01*
X5500Y43000D01*
X2500D02*X5500D01*
X4500Y45500D02*Y43000D01*
X2500Y41300D02*X6500D01*
Y40000D02*X5800Y39300D01*
X3200D02*X5800D01*
X2500Y40000D02*X3200Y39300D01*
X2500Y41800D02*Y40000D01*
X6500Y41800D02*Y40000D01*
Y37400D02*Y36600D01*
X3000D02*X6500D01*
X2500Y37100D02*X3000Y36600D01*
X2500Y37600D02*Y37100D01*
X3000Y38100D02*X2500Y37600D01*
X3000Y38100D02*X3500D01*
X62000Y57500D02*X64000D01*
X63000Y58500D02*Y56500D01*
G54D81*X55890Y54799D02*Y42201D01*
X42110D02*X55890D01*
X42110Y54799D02*Y42201D01*
Y54799D02*X55890D01*
X60245Y49393D02*Y48607D01*
X65755Y49393D02*Y48607D01*
X36000Y16500D02*X49900D01*
Y28300D02*Y16500D01*
X36000Y28300D02*X49900D01*
X36000D02*Y16500D01*
X74755Y49393D02*Y48607D01*
X69245Y49393D02*Y48607D01*
X52500Y8000D02*X98169D01*
Y35559D02*Y8000D01*
X52500Y35559D02*X98169D01*
X52500D02*Y8000D01*
G54D82*X77700Y92000D02*X149000D01*
X77700Y40000D02*X149000D01*
X77700Y92000D02*Y40000D01*
X149000D02*X149020Y92000D01*
G54D81*X117600Y10500D02*X101400D01*
X117600Y32500D02*X101400D01*
X117600Y10500D02*Y32500D01*
X101400Y10500D02*Y32500D01*
X75814Y113468D02*Y109532D01*
X65186Y113468D02*Y109532D01*
X59607Y79745D02*X60393D01*
X59607Y85255D02*X60393D01*
X17100Y90500D02*X36800D01*
X17100Y82500D02*X36800D01*
Y90500D02*Y82500D01*
X17100Y90500D02*Y82500D01*
X30000Y90500D02*Y82500D01*
X44607Y95755D02*X45393D01*
X44607Y90245D02*X45393D01*
X60250Y114480D02*Y103850D01*
X41750Y114480D02*Y103850D01*
X57000D02*X60250D01*
X41750D02*X45000D01*
X60071Y114480D02*X60250D01*
X41750D02*X41929D01*
X41934Y76488D02*Y65512D01*
X73066D01*
Y76488D02*Y65512D01*
X41934Y76488D02*X55000D01*
X60000D02*X73066D01*
X55000D02*G75*G03X60000Y76488I2500J0D01*G01*
X9500Y78500D02*Y32831D01*
X37059D01*
Y78500D02*Y32831D01*
X9500Y78500D02*X37059D01*
G54D80*X143357Y37000D02*X144157D01*
Y33500D01*
X143657Y33000D02*X144157Y33500D01*
X143157Y33000D02*X143657D01*
X142657Y33500D02*X143157Y33000D01*
X142657Y34000D02*Y33500D01*
X145357Y36500D02*X145857Y37000D01*
X146857D01*
X147357Y36500D01*
X146857Y33000D02*X147357Y33500D01*
X145857Y33000D02*X146857D01*
X145357Y33500D02*X145857Y33000D01*
Y35200D02*X146857D01*
X147357Y36500D02*Y35700D01*
Y34700D02*Y33500D01*
Y34700D02*X146857Y35200D01*
X147357Y35700D02*X146857Y35200D01*
X110200Y101500D02*X111000D01*
Y98000D01*
X110500Y97500D02*X111000Y98000D01*
X110000Y97500D02*X110500D01*
X109500Y98000D02*X110000Y97500D01*
X109500Y98500D02*Y98000D01*
X112200Y99000D02*X114200Y101500D01*
X112200Y99000D02*X114700D01*
X114200Y101500D02*Y97500D01*
X100500Y38000D02*X102500D01*
X103000Y37500D01*
Y36500D01*
X102500Y36000D02*X103000Y36500D01*
X101000Y36000D02*X102500D01*
X101000Y38000D02*Y34000D01*
X101800Y36000D02*X103000Y34000D01*
X104200Y37500D02*X104700Y38000D01*
X106200D01*
X106700Y37500D01*
Y36500D01*
X104200Y34000D02*X106700Y36500D01*
X104200Y34000D02*X106700D01*
X30200Y31500D02*X31000D01*
Y28000D01*
X30500Y27500D02*X31000Y28000D01*
X30000Y27500D02*X30500D01*
X29500Y28000D02*X30000Y27500D01*
X29500Y28500D02*Y28000D01*
X32200Y30700D02*X33000Y31500D01*
Y27500D01*
X32200D02*X33700D01*
X78700Y109500D02*X80000D01*
X78000Y110200D02*X78700Y109500D01*
X78000Y112800D02*Y110200D01*
Y112800D02*X78700Y113500D01*
X80000D01*
X81200Y113000D02*X81700Y113500D01*
X83200D01*
X83700Y113000D01*
Y112000D01*
X81200Y109500D02*X83700Y112000D01*
X81200Y109500D02*X83700D01*
X34500Y107500D02*Y104000D01*
X35000Y103500D01*
X36000D01*
X36500Y104000D01*
Y107500D02*Y104000D01*
X37700Y106700D02*X38500Y107500D01*
Y103500D01*
X37700D02*X39200D01*
X10000Y88500D02*Y84500D01*
X11300Y88500D02*X12000Y87800D01*
Y85200D01*
X11300Y84500D02*X12000Y85200D01*
X9500Y84500D02*X11300D01*
X9500Y88500D02*X11300D01*
X13200Y87700D02*X14000Y88500D01*
Y84500D01*
X13200D02*X14700D01*
X32200Y92500D02*X33500D01*
X31500Y93200D02*X32200Y92500D01*
X31500Y95800D02*Y93200D01*
Y95800D02*X32200Y96500D01*
X33500D01*
X34700Y95700D02*X35500Y96500D01*
Y92500D01*
X34700D02*X36200D01*
X42000Y83000D02*Y79500D01*
X42500Y79000D01*
X43500D01*
X44000Y79500D01*
Y83000D02*Y79500D01*
X45200Y82500D02*X45700Y83000D01*
X47200D01*
X47700Y82500D01*
Y81500D01*
X45200Y79000D02*X47700Y81500D01*
X45200Y79000D02*X47700D01*
X38500Y61000D02*X40500D01*
X41000Y60500D01*
Y59500D01*
X40500Y59000D02*X41000Y59500D01*
X39000Y59000D02*X40500D01*
X39000Y61000D02*Y57000D01*
X39800Y59000D02*X41000Y57000D01*
X42200Y60200D02*X43000Y61000D01*
Y57000D01*
X42200D02*X43700D01*
X68200Y83500D02*X69500D01*
X67500Y84200D02*X68200Y83500D01*
X67500Y86800D02*Y84200D01*
Y86800D02*X68200Y87500D01*
X69500D01*
X70700Y87000D02*X71200Y87500D01*
X72200D01*
X72700Y87000D01*
X72200Y83500D02*X72700Y84000D01*
X71200Y83500D02*X72200D01*
X70700Y84000D02*X71200Y83500D01*
Y85700D02*X72200D01*
X72700Y87000D02*Y86200D01*
Y85200D02*Y84000D01*
Y85200D02*X72200Y85700D01*
X72700Y86200D02*X72200Y85700D01*
X60500Y41500D02*Y37500D01*
X61800Y41500D02*X62500Y40800D01*
Y38200D01*
X61800Y37500D02*X62500Y38200D01*
X60000Y37500D02*X61800D01*
X60000Y41500D02*X61800D01*
X63700Y41000D02*X64200Y41500D01*
X65700D01*
X66200Y41000D01*
Y40000D01*
X63700Y37500D02*X66200Y40000D01*
X63700Y37500D02*X66200D01*
X69000Y41500D02*X71000D01*
X71500Y41000D01*
Y40000D01*
X71000Y39500D02*X71500Y40000D01*
X69500Y39500D02*X71000D01*
X69500Y41500D02*Y37500D01*
X70300Y39500D02*X71500Y37500D01*
X72700Y41000D02*X73200Y41500D01*
X74200D01*
X74700Y41000D01*
X74200Y37500D02*X74700Y38000D01*
X73200Y37500D02*X74200D01*
X72700Y38000D02*X73200Y37500D01*
Y39700D02*X74200D01*
X74700Y41000D02*Y40200D01*
Y39200D02*Y38000D01*
Y39200D02*X74200Y39700D01*
X74700Y40200D02*X74200Y39700D01*
X36000Y15500D02*Y12000D01*
X36500Y11500D01*
X37500D01*
X38000Y12000D01*
Y15500D02*Y12000D01*
X39200Y13000D02*X41200Y15500D01*
X39200Y13000D02*X41700D01*
X41200Y15500D02*Y11500D01*
X46200Y13500D02*X47000D01*
Y10000D01*
X46500Y9500D02*X47000Y10000D01*
X46000Y9500D02*X46500D01*
X45500Y10000D02*X46000Y9500D01*
X45500Y10500D02*Y10000D01*
X48200Y13000D02*X48700Y13500D01*
X50200D01*
X50700Y13000D01*
Y12000D01*
X48200Y9500D02*X50700Y12000D01*
X48200Y9500D02*X50700D01*
M02*
