G04 start of page 7 for group -4063 idx -4063 *
G04 Title: (unknown), componentmask *
G04 Creator: pcb 20140316 *
G04 CreationDate: Tue 10 May 2016 09:14:39 AM GMT UTC *
G04 For: ndholmes *
G04 Format: Gerber/RS-274X *
G04 PCB-Dimensions (mil): 1500.00 1250.00 *
G04 PCB-Coordinate-Origin: lower left *
%MOIN*%
%FSLAX25Y25*%
%LNTOPMASK*%
%ADD72R,0.0690X0.0690*%
%ADD71R,0.0530X0.0530*%
%ADD70R,0.0300X0.0300*%
%ADD69R,0.0230X0.0230*%
%ADD68R,0.0227X0.0227*%
%ADD67C,0.0370*%
%ADD66R,0.1005X0.1005*%
%ADD65R,0.0438X0.0438*%
%ADD64R,0.0420X0.0420*%
%ADD63R,0.0572X0.0572*%
%ADD62C,0.0490*%
%ADD61C,0.0860*%
%ADD60C,0.0001*%
%ADD59C,0.1500*%
%ADD58C,0.0760*%
%ADD57C,0.2997*%
G54D57*X133500Y17000D03*
G54D58*X83000Y53500D03*
G54D59*X118000Y46000D03*
G54D60*G36*
X57255Y26473D02*Y17873D01*
X65855D01*
Y26473D01*
X57255D01*
G37*
G54D61*X75335Y22173D03*
X89114D03*
G54D57*X133000Y108000D03*
G54D62*X89000Y110500D03*
X109000Y114500D03*
Y106500D03*
G54D59*X118000Y86000D03*
G54D57*X17000Y17000D03*
Y108000D03*
G54D60*G36*
X19373Y73745D02*Y65145D01*
X27973D01*
Y73745D01*
X19373D01*
G37*
G54D61*X23673Y55665D03*
Y41886D03*
G54D58*X93000Y58500D03*
X83000Y63500D03*
Y73500D03*
X93000Y68500D03*
Y78500D03*
G54D63*X63543Y82893D02*Y82107D01*
X67745Y117405D02*X73255D01*
X67745Y105595D02*X73255D01*
X56457Y82893D02*Y82107D01*
G54D64*X20500Y87100D02*Y85900D01*
X33400Y87100D02*Y85900D01*
G54D63*X41457Y93393D02*Y92607D01*
X48543Y93393D02*Y92607D01*
G54D65*X56906Y117984D02*Y113890D01*
X51000Y117984D02*Y106174D01*
G54D66*Y104440D02*Y102550D01*
G54D60*G36*
X52885Y112429D02*X56149Y109165D01*
X54305Y107321D01*
X51041Y110585D01*
X52885Y112429D01*
G37*
G36*
X45851Y109165D02*X49115Y112429D01*
X50959Y110585D01*
X47695Y107321D01*
X45851Y109165D01*
G37*
G54D65*X45094Y117984D02*Y113890D01*
G54D67*X94000Y108000D03*
X99000D03*
X104000D03*
X94000Y113000D03*
X99000D03*
X104000D03*
G54D68*X47425Y52783D02*Y50913D01*
X44276Y52783D02*Y50913D01*
Y46087D02*Y44217D01*
X47425Y46087D02*Y44217D01*
X50575Y46087D02*Y44217D01*
X53724Y52783D02*Y50913D01*
X50575Y52783D02*Y50913D01*
G54D63*X62607Y52543D02*X63393D01*
X71607D02*X72393D01*
G54D68*X53724Y46087D02*Y44217D01*
G54D63*X62607Y45457D02*X63393D01*
X71607D02*X72393D01*
G54D69*X43583Y74838D02*X48189D01*
X43583Y72279D02*X48189D01*
X43583Y69721D02*X48189D01*
X43583Y67162D02*X48189D01*
X66811D02*X71417D01*
X66811Y69721D02*X71417D01*
X66811Y72279D02*X71417D01*
X66811Y74838D02*X71417D01*
G54D70*X46200Y18500D02*X47800D01*
X46200Y22400D02*X47800D01*
X46200Y26300D02*X47800D01*
X38000D02*X39600D01*
X38000Y22400D02*X39600D01*
X38000Y18500D02*X39600D01*
G54D71*X105599Y14450D02*X105600D01*
X113400D02*X113401D01*
G54D72*X109500Y27250D02*X109501D01*
M02*
