M48
INCH
T41C0.014
T40C0.038
%
T41
X005850Y002100
X006200Y002100
X009550Y001900
X009050Y001900
X008800Y000700
X009300Y000700
X009650Y000600
X011000Y000350
X019750Y000450
X011000Y001200
X010600Y001150
X011400Y001200
X013150Y001250
X013550Y001250
X010200Y001900
X002450Y001600
X002450Y000650
X003000Y000450
X003350Y000350
X002800Y001200
X000750Y001450
X000750Y001050
X000750Y001950
X004300Y001100
X004300Y000700
X006500Y000366
X006250Y000650
X005400Y001400
X005350Y000850
T40
X017000Y001950
X019100Y000750
X012100Y001750
X007050Y001950
X012100Y000750
M30
