G04 start of page 8 for group -4062 idx -4062 *
G04 Title: (unknown), soldermask *
G04 Creator: pcb 20110918 *
G04 CreationDate: Sat 14 Jun 2014 02:18:58 AM GMT UTC *
G04 For: railfan *
G04 Format: Gerber/RS-274X *
G04 PCB-Dimensions: 210000 25000 *
G04 PCB-Coordinate-Origin: lower left *
%MOIN*%
%FSLAX25Y25*%
%LNBOTTOMMASK*%
%ADD55C,0.0370*%
%ADD54C,0.0490*%
%ADD53C,0.0001*%
G54D53*G36*
X166700Y22800D02*Y16200D01*
X173300D01*
Y22800D01*
X166700D01*
G37*
G36*
X187700Y10800D02*Y4200D01*
X194300D01*
Y10800D01*
X187700D01*
G37*
G36*
X117700Y20800D02*Y14200D01*
X124300D01*
Y20800D01*
X117700D01*
G37*
G36*
X67200Y22800D02*Y16200D01*
X73800D01*
Y22800D01*
X67200D01*
G37*
G54D54*X100500Y12500D03*
X80500Y16500D03*
Y8500D03*
G54D53*G36*
X117700Y10800D02*Y4200D01*
X124300D01*
Y10800D01*
X117700D01*
G37*
G36*
X612Y12308D02*Y8874D01*
X4047D01*
Y12308D01*
X612D01*
G37*
G36*
Y8490D02*Y5054D01*
X4047D01*
Y8490D01*
X612D01*
G37*
G36*
Y19946D02*Y16510D01*
X4047D01*
Y19946D01*
X612D01*
G37*
G36*
Y16126D02*Y12692D01*
X4047D01*
Y16126D01*
X612D01*
G37*
G54D55*X95500Y15000D03*
X90500D03*
X95500Y10000D03*
X90500D03*
X85500D03*
Y15000D03*
M02*
