G04 start of page 3 for group 1 idx 1 *
G04 Title: (unknown), bottom *
G04 Creator: pcb 20110918 *
G04 CreationDate: Sat 14 Jun 2014 02:18:58 AM GMT UTC *
G04 For: railfan *
G04 Format: Gerber/RS-274X *
G04 PCB-Dimensions: 210000 25000 *
G04 PCB-Coordinate-Origin: lower left *
%MOIN*%
%FSLAX25Y25*%
%LNBOTTOM*%
%ADD38C,0.0390*%
%ADD37C,0.0380*%
%ADD36C,0.0140*%
%ADD35C,0.0300*%
%ADD34C,0.0310*%
%ADD33C,0.0100*%
%ADD32C,0.0200*%
%ADD31C,0.0250*%
%ADD30C,0.0080*%
%ADD29C,0.0001*%
G54D29*G36*
X77000Y23500D02*X115500D01*
Y19000D01*
X104500D01*
X104477Y19392D01*
X104385Y19775D01*
X104234Y20138D01*
X104029Y20474D01*
X103773Y20773D01*
X103474Y21029D01*
X103138Y21234D01*
X102775Y21385D01*
X102392Y21477D01*
X102000Y21508D01*
X101608Y21477D01*
X101225Y21385D01*
X100862Y21234D01*
X100526Y21029D01*
X100492Y21000D01*
X97008D01*
X96974Y21029D01*
X96638Y21234D01*
X96275Y21385D01*
X95892Y21477D01*
X95500Y21508D01*
X95108Y21477D01*
X94725Y21385D01*
X94362Y21234D01*
X94026Y21029D01*
X93727Y20773D01*
X93471Y20474D01*
X93266Y20138D01*
X93115Y19775D01*
X93023Y19392D01*
X92997Y19056D01*
X92977Y19392D01*
X92885Y19775D01*
X92734Y20138D01*
X92529Y20474D01*
X92273Y20773D01*
X91974Y21029D01*
X91638Y21234D01*
X91275Y21385D01*
X90892Y21477D01*
X90500Y21508D01*
X90108Y21477D01*
X89725Y21385D01*
X89362Y21234D01*
X89026Y21029D01*
X88727Y20773D01*
X88471Y20474D01*
X88266Y20138D01*
X88115Y19775D01*
X88023Y19392D01*
X87992Y19000D01*
X82066D01*
X81843Y19137D01*
X81414Y19314D01*
X80963Y19423D01*
X80500Y19459D01*
X80037Y19423D01*
X79586Y19314D01*
X79157Y19137D01*
X78934Y19000D01*
X77000D01*
Y23500D01*
G37*
G36*
X1000Y21000D02*X5000D01*
Y19598D01*
X4992Y19500D01*
X5000Y19402D01*
Y14598D01*
X4992Y14500D01*
X5000Y14402D01*
Y13000D01*
X1000D01*
Y21000D01*
G37*
G36*
X108000Y2000D02*Y5379D01*
X108121Y5500D01*
X112000D01*
Y2000D01*
X108000D01*
G37*
G54D30*X38000Y8500D02*Y13000D01*
X77000Y11000D02*X43000D01*
X53500Y8500D02*X60500D01*
X61500Y9500D01*
X75000D01*
X62500Y6500D02*X74000D01*
X41500Y16500D02*X67500D01*
G54D31*X62000Y21000D02*X29000D01*
X27000Y19000D01*
G54D32*X54000Y14000D02*X75000D01*
G54D31*X28000Y17500D02*Y10000D01*
G54D30*X27000Y3500D02*X28000Y4500D01*
X30000D01*
X31500Y6000D01*
X7500Y10500D02*X14500Y3500D01*
X27000D01*
G54D31*X5728Y6772D02*X8000Y4500D01*
G54D30*X32000Y2000D02*X10500D01*
X8000Y4500D01*
G54D31*X7500Y19500D02*X26000D01*
X7500Y14500D02*X23000D01*
X24500Y16000D01*
X26000Y19500D02*X28000Y17500D01*
Y10000D02*X24500Y6500D01*
X2329Y6772D02*X5728D01*
G54D30*X38000Y13000D02*X41500Y16500D01*
X43000Y7000D02*X39500D01*
X38000Y8500D01*
X31500Y6000D02*X37500D01*
X37000Y3500D02*X37500Y3000D01*
Y6000D02*X39000Y4500D01*
X33500Y3500D02*X37000D01*
X32000Y2000D02*X33500Y3500D01*
X39000Y4500D02*X60500D01*
X37500Y3000D02*X62000D01*
X60500Y4500D02*X62500Y6500D01*
X65000Y3662D02*X62662D01*
X62000Y3000D01*
X67500Y16500D02*X70500Y19500D01*
X90500Y19000D02*Y15000D01*
G54D32*X85500D02*Y22000D01*
G54D30*X75000Y9500D02*X79000Y5500D01*
X74000Y6500D02*X76500Y4000D01*
X89000D01*
X90500Y5500D01*
Y10000D01*
X79000Y5500D02*X86500D01*
X88000Y7000D01*
G54D33*X93000D02*Y4000D01*
G54D30*X85500Y10000D02*X84000Y11500D01*
X77500D01*
X77000Y11000D01*
G54D32*X75000Y14000D02*X76500Y15500D01*
Y18500D01*
X78500Y20500D01*
G54D30*X95500Y19000D02*Y15000D01*
G54D32*X114000Y12000D02*Y21500D01*
X106000Y11500D02*Y21500D01*
G54D30*X95500Y10000D02*X96500Y9000D01*
Y6000D01*
G54D33*X93000Y4000D02*X94500Y2500D01*
X96500Y6000D02*X106500D01*
X110000Y9500D01*
Y12000D01*
G54D32*X95500Y19000D02*X102000D01*
X135500Y12500D02*X114000D01*
G54D33*X94500Y2500D02*X195500D01*
X197500Y4500D01*
G54D29*G36*
X167000Y22500D02*Y16500D01*
X173000D01*
Y22500D01*
X167000D01*
G37*
G36*
X188000Y10500D02*Y4500D01*
X194000D01*
Y10500D01*
X188000D01*
G37*
G36*
X118000Y20500D02*Y14500D01*
X124000D01*
Y20500D01*
X118000D01*
G37*
G36*
X67500Y22500D02*Y16500D01*
X73500D01*
Y22500D01*
X67500D01*
G37*
G36*
X118000Y10500D02*Y4500D01*
X124000D01*
Y10500D01*
X118000D01*
G37*
G36*
X912Y12008D02*Y9174D01*
X3747D01*
Y12008D01*
X912D01*
G37*
G36*
Y8190D02*Y5354D01*
X3747D01*
Y8190D01*
X912D01*
G37*
G36*
Y19646D02*Y16810D01*
X3747D01*
Y19646D01*
X912D01*
G37*
G36*
Y15826D02*Y12992D01*
X3747D01*
Y15826D01*
X912D01*
G37*
G54D34*X95500Y15000D03*
X90500D03*
X95500Y10000D03*
X90500D03*
X85500D03*
Y15000D03*
G54D35*X58500Y21000D03*
X62000D03*
X95500Y19000D03*
X90500D03*
X88000Y7000D03*
X93000D03*
X96500Y6000D03*
X110000Y3500D03*
X197500Y4500D03*
X110000Y12000D03*
X106000Y11500D03*
X114000Y12000D03*
X131500Y12500D03*
X135500D03*
X102000Y19000D03*
X24500Y16000D03*
Y6500D03*
X30000Y4500D03*
X33500Y3500D03*
X28000Y12000D03*
X7500Y14500D03*
Y10500D03*
Y19500D03*
X43000Y11000D03*
Y7000D03*
X65000Y3662D03*
X62500Y6500D03*
X54000Y14000D03*
X53500Y8500D03*
G54D36*G54D37*G54D38*G54D37*M02*
