G04 start of page 10 for group -4078 idx -4078 *
G04 Title: (unknown), bottomsilk *
G04 Creator: pcb 20110918 *
G04 CreationDate: Sat 14 Jun 2014 02:18:58 AM GMT UTC *
G04 For: railfan *
G04 Format: Gerber/RS-274X *
G04 PCB-Dimensions: 210000 25000 *
G04 PCB-Coordinate-Origin: lower left *
%MOIN*%
%FSLAX25Y25*%
%LNBOTTOMSILK*%
%ADD60C,0.0100*%
%ADD59C,0.0080*%
G54D59*X125500Y16000D02*Y19500D01*
G54D60*X209500Y24500D02*Y500D01*
X500D01*
Y24500D02*X209500D01*
G54D59*X69500Y14500D02*X72500D01*
X69500D02*X68500Y13800D01*
Y12700D02*Y13800D01*
Y12700D02*X69500Y12000D01*
X72500D01*
X70500D02*Y14500D01*
X68500Y10300D02*X72500D01*
X68500Y9000D02*X69200Y8300D01*
X71800D01*
X72500Y9000D02*X71800Y8300D01*
X72500Y9000D02*Y10800D01*
X68500Y9000D02*Y10800D01*
Y5600D02*Y6400D01*
Y5600D02*X72000D01*
X72500Y6100D02*X72000Y5600D01*
X72500Y6100D02*Y6600D01*
X72000Y7100D02*X72500Y6600D01*
X71500Y7100D02*X72000D01*
X11630Y22500D02*X12800D01*
X11000Y21870D02*X11630Y22500D01*
X11000Y19530D02*Y21870D01*
Y19530D02*X11630Y18900D01*
X12800D01*
X13880D02*Y22500D01*
Y20700D02*X15680Y18900D01*
X13880Y20700D02*X15680Y22500D01*
X16760Y18900D02*X18560D01*
X17660D02*Y22500D01*
X19640Y20700D02*X21440D01*
X22520Y18900D02*X23420D01*
X22970D02*Y22500D01*
X22520D02*X23420D01*
X24500Y18900D02*X26300D01*
X26750Y19350D01*
Y20250D01*
X26300Y20700D02*X26750Y20250D01*
X24950Y20700D02*X26300D01*
X24950Y18900D02*Y22500D01*
X25670Y20700D02*X26750Y22500D01*
X29630Y18900D02*X30080Y19350D01*
X28280Y18900D02*X29630D01*
X27830Y19350D02*X28280Y18900D01*
X27830Y19350D02*Y20250D01*
X28280Y20700D01*
X29630D01*
X30080Y21150D01*
Y22050D01*
X29630Y22500D02*X30080Y22050D01*
X28280Y22500D02*X29630D01*
X27830Y22050D02*X28280Y22500D01*
X31160Y20520D02*X32510D01*
X31160Y22500D02*X32960D01*
X31160Y18900D02*Y22500D01*
Y18900D02*X32960D01*
X34040D02*Y22500D01*
Y18900D02*X36290Y22500D01*
Y18900D02*Y22500D01*
X39170Y18900D02*X39620Y19350D01*
X37820Y18900D02*X39170D01*
X37370Y19350D02*X37820Y18900D01*
X37370Y19350D02*Y20250D01*
X37820Y20700D01*
X39170D01*
X39620Y21150D01*
Y22050D01*
X39170Y22500D02*X39620Y22050D01*
X37820Y22500D02*X39170D01*
X37370Y22050D02*X37820Y22500D01*
X40700Y20520D02*X42050D01*
X40700Y22500D02*X42500D01*
X40700Y18900D02*Y22500D01*
Y18900D02*X42500D01*
X45200Y20700D02*X46100Y22500D01*
X47000Y20700D02*X46100Y22500D01*
X48080Y19350D02*X48530Y18900D01*
X49430D01*
X49880Y19350D01*
X49430Y22500D02*X49880Y22050D01*
X48530Y22500D02*X49430D01*
X48080Y22050D02*X48530Y22500D01*
Y20520D02*X49430D01*
X49880Y19350D02*Y20070D01*
Y20970D02*Y22050D01*
Y20970D02*X49430Y20520D01*
X49880Y20070D02*X49430Y20520D01*
X50960Y22500D02*X51410D01*
X52490Y22050D02*X52940Y22500D01*
X52490Y19350D02*Y22050D01*
Y19350D02*X52940Y18900D01*
X53840D01*
X54290Y19350D01*
Y22050D01*
X53840Y22500D02*X54290Y22050D01*
X52940Y22500D02*X53840D01*
X52490Y21600D02*X54290Y19800D01*
X45500Y5600D02*X45900Y6000D01*
X45500Y3200D02*X45900Y2800D01*
X45500Y3200D02*Y5600D01*
X47420Y6000D02*X48460D01*
X46860Y5440D02*X47420Y6000D01*
X46860Y3360D02*Y5440D01*
Y3360D02*X47420Y2800D01*
X48460D01*
X49420D02*X49820Y3200D01*
Y5600D01*
X49420Y6000D02*X49820Y5600D01*
X50780Y3200D02*X51180Y2800D01*
X52380D01*
X52780Y3200D01*
Y4000D01*
X50780Y6000D02*X52780Y4000D01*
X50780Y6000D02*X52780D01*
X53740Y5600D02*X54140Y6000D01*
X53740Y3200D02*Y5600D01*
Y3200D02*X54140Y2800D01*
X54940D01*
X55340Y3200D01*
Y5600D01*
X54940Y6000D02*X55340Y5600D01*
X54140Y6000D02*X54940D01*
X53740Y5200D02*X55340Y3600D01*
X56300Y3440D02*X56940Y2800D01*
Y6000D01*
X56300D02*X57500D01*
X58460Y4800D02*X60060Y2800D01*
X58460Y4800D02*X60460D01*
X60060Y2800D02*Y6000D01*
X31060Y16500D02*X32100D01*
X30500Y15940D02*X31060Y16500D01*
X30500Y13860D02*Y15940D01*
Y13860D02*X31060Y13300D01*
X32100D01*
X33620Y16500D02*X34660D01*
X33060Y15940D02*X33620Y16500D01*
X33060Y13860D02*Y15940D01*
Y13860D02*X33620Y13300D01*
X34660D01*
X35620Y14900D02*X37220D01*
X38180Y16500D02*X39780D01*
X40180Y16100D01*
Y15140D02*Y16100D01*
X39780Y14740D02*X40180Y15140D01*
X38580Y14740D02*X39780D01*
X38580Y13300D02*Y16500D01*
X38180Y13300D02*X39780D01*
X40180Y13700D01*
Y14340D01*
X39780Y14740D02*X40180Y14340D01*
X41140Y13300D02*X41940Y14900D01*
X42740Y13300D01*
X41940Y14900D02*Y16500D01*
X43700Y14900D02*X45300D01*
X47860Y13300D02*X48260Y13700D01*
X46660Y13300D02*X47860D01*
X46260Y13700D02*X46660Y13300D01*
X46260Y13700D02*Y14500D01*
X46660Y14900D01*
X47860D01*
X48260Y15300D01*
Y16100D01*
X47860Y16500D02*X48260Y16100D01*
X46660Y16500D02*X47860D01*
X46260Y16100D02*X46660Y16500D01*
X49220Y14100D02*Y16500D01*
Y14100D02*X49780Y13300D01*
X50660D01*
X51220Y14100D01*
Y16500D01*
X49220Y14900D02*X51220D01*
X181500Y12000D02*X185500Y11000D01*
X181500Y10000D01*
Y7800D02*Y8800D01*
Y8300D02*X185500D01*
Y7800D02*Y8800D01*
X181500Y6600D02*X185500D01*
X181500D02*X185500Y4100D01*
X181500D02*X185500D01*
X160500Y20500D02*X161000Y20000D01*
X160500Y20500D02*Y22000D01*
X161000Y22500D02*X160500Y22000D01*
X161000Y22500D02*X164000D01*
X164500Y22000D01*
Y20500D02*Y22000D01*
Y20500D02*X164000Y20000D01*
X163000D02*X164000D01*
X162500Y20500D02*X163000Y20000D01*
X162500Y20500D02*Y21500D01*
X160500Y18800D02*X164500D01*
X160500D02*X164500Y16300D01*
X160500D02*X164500D01*
X160500Y14600D02*X164500D01*
X160500Y13300D02*X161200Y12600D01*
X163800D01*
X164500Y13300D02*X163800Y12600D01*
X164500Y13300D02*Y15100D01*
X160500Y13300D02*Y15100D01*
X127000Y8500D02*X131000D01*
X127000Y7200D02*X127700Y6500D01*
X130300D01*
X131000Y7200D02*X130300Y6500D01*
X131000Y7200D02*Y9000D01*
X127000Y7200D02*Y9000D01*
Y18500D02*X131000D01*
X127000Y17200D02*X127700Y16500D01*
X130300D01*
X131000Y17200D02*X130300Y16500D01*
X131000Y17200D02*Y19000D01*
X127000Y17200D02*Y19000D01*
X137500Y17500D02*Y18500D01*
Y18000D02*X141500D01*
Y17500D02*Y18500D01*
X140000Y16300D02*X141000D01*
X140000D02*X139500Y15800D01*
Y14800D02*Y15800D01*
Y14800D02*X140000Y14300D01*
X141000D01*
X141500Y14800D02*X141000Y14300D01*
X141500Y14800D02*Y15800D01*
X141000Y16300D02*X141500Y15800D01*
X139500Y13100D02*X141000D01*
X141500Y12600D01*
Y12100D02*Y12600D01*
Y12100D02*X141000Y11600D01*
X139500D02*X141000D01*
X141500Y11100D01*
Y10600D02*Y11100D01*
Y10600D02*X141000Y10100D01*
X139500D02*X141000D01*
X139500Y7400D02*X140000Y6900D01*
X139500Y7400D02*Y8400D01*
X140000Y8900D02*X139500Y8400D01*
X140000Y8900D02*X141000D01*
X141500Y8400D01*
X139500Y6900D02*X141000D01*
X141500Y6400D01*
Y7400D02*Y8400D01*
Y7400D02*X141000Y6900D01*
X152300Y16000D02*Y17500D01*
X154500Y15500D02*Y17500D01*
X150500D02*X154500D01*
X150500Y15500D02*Y17500D01*
X153000Y13800D02*X154500D01*
X153000D02*X152500Y13300D01*
Y12800D02*Y13300D01*
Y12800D02*X153000Y12300D01*
X154500D01*
X152500Y14300D02*X153000Y13800D01*
X152500Y9600D02*X153000Y9100D01*
X152500Y9600D02*Y10600D01*
X153000Y11100D02*X152500Y10600D01*
X153000Y11100D02*X154000D01*
X154500Y10600D01*
Y9600D02*Y10600D01*
Y9600D02*X154000Y9100D01*
X155500Y11100D02*X156000Y10600D01*
Y9600D02*Y10600D01*
Y9600D02*X155500Y9100D01*
X152500D02*X155500D01*
X154500Y7400D02*Y7900D01*
X144000Y19000D02*X144500Y18500D01*
X144000Y19000D02*Y20500D01*
X144500Y21000D02*X144000Y20500D01*
X144500Y21000D02*X145500D01*
X146000Y20500D01*
Y19000D02*Y20500D01*
Y19000D02*X146500Y18500D01*
X147500D01*
X148000Y19000D02*X147500Y18500D01*
X148000Y19000D02*Y20500D01*
X147500Y21000D02*X148000Y20500D01*
X146000Y15300D02*Y16800D01*
X146500Y17300D02*X146000Y16800D01*
X146500Y17300D02*X147500D01*
X148000Y16800D01*
Y15300D02*Y16800D01*
X146000Y12600D02*X146500Y12100D01*
X146000Y12600D02*Y13600D01*
X146500Y14100D02*X146000Y13600D01*
X146500Y14100D02*X147500D01*
X148000Y13600D01*
X146000Y12100D02*X147500D01*
X148000Y11600D01*
Y12600D02*Y13600D01*
Y12600D02*X147500Y12100D01*
X144000Y10400D02*X147500D01*
X148000Y9900D01*
Y6900D02*Y8400D01*
X147500Y8900D02*X148000Y8400D01*
X146500Y8900D02*X147500D01*
X146500D02*X146000Y8400D01*
Y7400D02*Y8400D01*
Y7400D02*X146500Y6900D01*
X147000D02*Y8900D01*
X146500Y6900D02*X147000D01*
X144000Y3700D02*X148000D01*
Y4200D02*X147500Y3700D01*
X148000Y4200D02*Y5200D01*
X147500Y5700D02*X148000Y5200D01*
X146500Y5700D02*X147500D01*
X146500D02*X146000Y5200D01*
Y4200D02*Y5200D01*
Y4200D02*X146500Y3700D01*
M02*
