G04 start of page 9 for group -4079 idx -4079 *
G04 Title: (unknown), topsilk *
G04 Creator: pcb 20110918 *
G04 CreationDate: Sat 14 Jun 2014 02:18:58 AM GMT UTC *
G04 For: railfan *
G04 Format: Gerber/RS-274X *
G04 PCB-Dimensions: 210000 25000 *
G04 PCB-Coordinate-Origin: lower left *
%MOIN*%
%FSLAX25Y25*%
%LNTOPSILK*%
%ADD58C,0.0200*%
%ADD57C,0.0080*%
%ADD56C,0.0100*%
G54D56*X500Y24500D02*X209500D01*
Y500D01*
X500D01*
G54D57*X197000Y8000D02*X199000D01*
X198000Y9000D02*Y7000D01*
G54D56*X146520Y21250D02*X157150D01*
X146520Y2750D02*X157150D01*
Y21250D02*Y18000D01*
Y6000D02*Y2750D01*
X146520Y21250D02*Y21071D01*
Y2929D02*Y2750D01*
X165000Y24500D02*Y14500D01*
X175000D01*
Y24500D01*
X165000D01*
G54D58*X129200Y22100D02*X137800D01*
G54D56*X129200D02*X128000Y19700D01*
Y3900D01*
X139000D01*
Y19700D02*Y3900D01*
Y19700D02*X137800Y22100D01*
X116000Y22500D02*Y12500D01*
X126000D01*
Y22500D01*
X116000D01*
Y12500D02*Y2500D01*
X126000D01*
Y12500D01*
X116000D01*
X65500Y14500D02*X75500D01*
Y24500D02*Y14500D01*
X65500Y24500D02*X75500D01*
X65500D02*Y14500D01*
X191107Y22755D02*X191893D01*
X191107Y17245D02*X191893D01*
X207240Y14862D02*Y10138D01*
X199760Y14862D02*Y10138D01*
X164700Y1500D02*X184400D01*
X164700Y9500D02*X184400D01*
X164700Y1500D02*Y9500D01*
X184400Y1500D02*Y9500D01*
X171500Y1500D02*Y9500D01*
X186000Y12500D02*Y2500D01*
X196000D01*
Y12500D01*
X186000D01*
X177245Y16893D02*Y16107D01*
X182755Y16893D02*Y16107D01*
X837Y4232D02*X4849D01*
X837Y20768D02*X4849D01*
Y4232D01*
X6849Y2732D02*G75*G03X6849Y2732I-500J0D01*G01*
X15607Y22755D02*X16393D01*
X15607Y17245D02*X16393D01*
X49607D02*X50393D01*
X49607Y22755D02*X50393D01*
X15607Y15255D02*X16393D01*
X15607Y9745D02*X16393D01*
X15607Y7755D02*X16393D01*
X15607Y2245D02*X16393D01*
X28110Y18299D02*Y5701D01*
Y18299D02*X41890D01*
Y5701D01*
X28110D02*X41890D01*
X44434Y12988D02*Y2012D01*
X75566D01*
Y12988D02*Y2012D01*
X44434Y12988D02*X57500D01*
X62500D02*X75566D01*
X57500D02*G75*G03X62500Y12988I2500J0D01*G01*
X115900Y18900D02*Y5000D01*
X104100Y18900D02*X115900D01*
X104100D02*Y5000D01*
X115900D01*
G54D57*X58000Y17700D02*Y14900D01*
X58400Y14500D01*
X59200D01*
X59600Y14900D01*
Y17700D02*Y14900D01*
X60560Y17300D02*X60960Y17700D01*
X62160D01*
X62560Y17300D01*
Y16500D01*
X60560Y14500D02*X62560Y16500D01*
X60560Y14500D02*X62560D01*
X23490Y19500D02*X24400D01*
X23000Y19990D02*X23490Y19500D01*
X23000Y21810D02*Y19990D01*
Y21810D02*X23490Y22300D01*
X24400D01*
X25240D02*X26640D01*
X25240D02*Y20900D01*
X25590Y21250D01*
X26290D01*
X26640Y20900D01*
Y19850D01*
X26290Y19500D02*X26640Y19850D01*
X25590Y19500D02*X26290D01*
X25240Y19850D02*X25590Y19500D01*
X30000Y22700D02*X31600D01*
X32000Y22300D01*
Y21500D01*
X31600Y21100D02*X32000Y21500D01*
X30400Y21100D02*X31600D01*
X30400Y22700D02*Y19500D01*
X31040Y21100D02*X32000Y19500D01*
X32960Y22060D02*X33600Y22700D01*
Y19500D01*
X32960D02*X34160D01*
X39060Y20000D02*X40100D01*
X38500Y20560D02*X39060Y20000D01*
X38500Y22640D02*Y20560D01*
Y22640D02*X39060Y23200D01*
X40100D01*
X41060Y22800D02*X41460Y23200D01*
X42260D01*
X42660Y22800D01*
X42260Y20000D02*X42660Y20400D01*
X41460Y20000D02*X42260D01*
X41060Y20400D02*X41460Y20000D01*
Y21760D02*X42260D01*
X42660Y22800D02*Y22160D01*
Y21360D02*Y20400D01*
Y21360D02*X42260Y21760D01*
X42660Y22160D02*X42260Y21760D01*
X23490Y10500D02*X24400D01*
X23000Y10990D02*X23490Y10500D01*
X23000Y12810D02*Y10990D01*
Y12810D02*X23490Y13300D01*
X24400D01*
X25240Y11550D02*X26640Y13300D01*
X25240Y11550D02*X26990D01*
X26640Y13300D02*Y10500D01*
X23000Y4800D02*X24400D01*
X24750Y4450D01*
Y3750D01*
X24400Y3400D02*X24750Y3750D01*
X23350Y3400D02*X24400D01*
X23350Y4800D02*Y2000D01*
X23910Y3400D02*X24750Y2000D01*
X25590Y4450D02*X25940Y4800D01*
X26990D01*
X27340Y4450D01*
Y3750D01*
X25590Y2000D02*X27340Y3750D01*
X25590Y2000D02*X27340D01*
X159000Y21700D02*Y18900D01*
X159400Y18500D01*
X160200D01*
X160600Y18900D01*
Y21700D02*Y18900D01*
X161560Y21060D02*X162200Y21700D01*
Y18500D01*
X161560D02*X162760D01*
X173400Y7200D02*Y4000D01*
X174440Y7200D02*X175000Y6640D01*
Y4560D01*
X174440Y4000D02*X175000Y4560D01*
X173000Y4000D02*X174440D01*
X173000Y7200D02*X174440D01*
X175960Y6560D02*X176600Y7200D01*
Y4000D01*
X175960D02*X177160D01*
X184420Y13500D02*X185200D01*
X184000Y13920D02*X184420Y13500D01*
X184000Y15480D02*Y13920D01*
Y15480D02*X184420Y15900D01*
X185200D01*
X185920Y15420D02*X186400Y15900D01*
Y13500D01*
X185920D02*X186820D01*
X189350Y16050D02*X190550D01*
X190850Y15750D01*
Y15150D01*
X190550Y14850D02*X190850Y15150D01*
X189650Y14850D02*X190550D01*
X189650Y16050D02*Y13650D01*
X190130Y14850D02*X190850Y13650D01*
X191570Y15750D02*X191870Y16050D01*
X192470D01*
X192770Y15750D01*
X192470Y13650D02*X192770Y13950D01*
X191870Y13650D02*X192470D01*
X191570Y13950D02*X191870Y13650D01*
Y14970D02*X192470D01*
X192770Y15750D02*Y15270D01*
Y14670D02*Y13950D01*
Y14670D02*X192470Y14970D01*
X192770Y15270D02*X192470Y14970D01*
M02*
