M48
INCH
T39C0.015
T38C0.014
T37C0.047
T36C0.129
%
T38
X007900Y034450
X007900Y034050
X007900Y020950
X007900Y020550
X007900Y007450
X007900Y007050
X009250Y041600
X009250Y041200
X009250Y028100
X009250Y027700
X009250Y014600
X009250Y014200
X009400Y040550
X009400Y033650
X009400Y033250
X009400Y032850
X009400Y027050
X009400Y020150
X009400Y019750
X009400Y019350
X009400Y013550
X009400Y006650
X009400Y006250
X009400Y005850
X009800Y040550
X009800Y027050
X009800Y013550
X010200Y040550
X010200Y027050
X010200Y013550
X010600Y040550
X010600Y027050
X010600Y013550
X010750Y041600
X010750Y041200
X010750Y028100
X010750Y027700
X010750Y014600
X010750Y014200
X014650Y041050
X014650Y027550
X014650Y014050
X023900Y034450
X023900Y034050
X023900Y020950
X023900Y020550
X023900Y007450
X023900Y007050
X025250Y041600
X025250Y041200
X025250Y028100
X025250Y027700
X025250Y014600
X025250Y014200
X025400Y040550
X025400Y033650
X025400Y033250
X025400Y032850
X025400Y027050
X025400Y020150
X025400Y019750
X025400Y019350
X025400Y013550
X025400Y006650
X025400Y006250
X025400Y005850
X025800Y040550
X025800Y027050
X025800Y013550
X026200Y040550
X026200Y027050
X026200Y013550
X026600Y040550
X026600Y027050
X026600Y013550
X026750Y041600
X026750Y041200
X026750Y028100
X026750Y027700
X026750Y014600
X026750Y014200
X030650Y041050
X030650Y027550
X030650Y014050
T39
X009450Y037900
X009450Y037300
X009450Y036850
X009450Y024400
X009450Y023800
X009450Y023350
X009450Y010900
X009450Y010300
X009450Y009850
X010050Y038400
X010050Y024900
X010050Y011400
X010550Y036750
X010550Y023250
X010550Y009750
X012100Y037800
X012100Y024300
X012100Y010800
X012500Y038300
X012500Y037300
X012500Y024800
X012500Y023800
X012500Y011300
X012500Y010300
X013750Y037800
X013750Y024300
X013750Y010800
X014150Y038300
X014150Y024800
X014150Y011300
X014550Y033050
X014550Y019550
X014550Y006050
X014650Y039050
X014650Y038600
X014650Y037800
X014650Y025550
X014650Y025100
X014650Y024300
X014650Y012050
X014650Y011600
X014650Y010800
X016000Y037009
X016000Y023509
X016000Y010009
X016350Y037009
X016350Y023509
X016350Y010009
X025450Y037900
X025450Y037300
X025450Y036850
X025450Y024400
X025450Y023800
X025450Y023350
X025450Y010900
X025450Y010300
X025450Y009850
X026050Y038400
X026050Y024900
X026050Y011400
X026550Y036750
X026550Y023250
X026550Y009750
X028100Y037800
X028100Y024300
X028100Y010800
X028500Y038300
X028500Y037300
X028500Y024800
X028500Y023800
X028500Y011300
X028500Y010300
X029750Y037800
X029750Y024300
X029750Y010800
X030150Y038300
X030150Y024800
X030150Y011300
X030550Y033050
X030550Y019550
X030550Y006050
X030650Y039050
X030650Y038600
X030650Y037800
X030650Y025550
X030650Y025100
X030650Y024300
X030650Y012050
X030650Y011600
X030650Y010800
X032000Y037009
X032000Y023509
X032000Y010009
X032350Y037009
X032350Y023509
X032350Y010009
T37
X006367Y037944
X006367Y036566
X006367Y035189
X006367Y024444
X006367Y023066
X006367Y021689
X006367Y010944
X006367Y009566
X006367Y008189
X010156Y033217
X010156Y019717
X010156Y006217
X011534Y033217
X011534Y019717
X011534Y006217
X012911Y033217
X012911Y019717
X012911Y006217
X022367Y037944
X022367Y036566
X022367Y035189
X022367Y024444
X022367Y023066
X022367Y021689
X022367Y010944
X022367Y009566
X022367Y008189
X026156Y033217
X026156Y019717
X026156Y006217
X027534Y033217
X027534Y019717
X027534Y006217
X028911Y033217
X028911Y019717
X028911Y006217
T36
X005700Y041800
X005700Y032700
X005700Y028300
X005700Y019200
X005700Y014800
X005700Y005700
X017300Y041800
X017300Y028300
X017300Y014800
X017350Y032700
X017350Y019200
X017350Y005700
X021700Y041800
X021700Y032700
X021700Y028300
X021700Y019200
X021700Y014800
X021700Y005700
X033300Y041800
X033300Y028300
X033300Y014800
X033350Y032700
X033350Y019200
X033350Y005700
M30
