M48
INCH
T41C0.031
T40C0.039
%
T41
X003100Y037750
X003100Y037250
X003100Y036750
X003100Y024250
X003100Y023750
X003100Y023250
X003100Y010750
X003100Y010250
X003100Y009750
X003900Y037750
X003900Y037250
X003900Y036750
X003900Y024250
X003900Y023750
X003900Y023250
X003900Y010750
X003900Y010250
X003900Y009750
X011000Y044400
X011000Y043600
X011000Y030900
X011000Y030100
X011000Y017400
X011000Y016600
X011000Y003900
X011000Y003100
X011500Y044400
X011500Y043600
X011500Y030900
X011500Y030100
X011500Y017400
X011500Y016600
X011500Y003900
X011500Y003100
X012000Y044400
X012000Y043600
X012000Y030900
X012000Y030100
X012000Y017400
X012000Y016600
X012000Y003900
X012000Y003100
X019100Y037750
X019100Y037250
X019100Y036750
X019100Y024250
X019100Y023750
X019100Y023250
X019100Y010750
X019100Y010250
X019100Y009750
X019900Y037750
X019900Y037250
X019900Y036750
X019900Y024250
X019900Y023750
X019900Y023250
X019900Y010750
X019900Y010250
X019900Y009750
X027000Y044400
X027000Y043600
X027000Y030900
X027000Y030100
X027000Y017400
X027000Y016600
X027000Y003900
X027000Y003100
X027500Y044400
X027500Y043600
X027500Y030900
X027500Y030100
X027500Y017400
X027500Y016600
X027500Y003900
X027500Y003100
X028000Y044400
X028000Y043600
X028000Y030900
X028000Y030100
X028000Y017400
X028000Y016600
X028000Y003900
X028000Y003100
X035100Y037750
X035100Y037250
X035100Y036750
X035100Y024250
X035100Y023750
X035100Y023250
X035100Y010750
X035100Y010250
X035100Y009750
X035900Y037750
X035900Y037250
X035900Y036750
X035900Y024250
X035900Y023750
X035900Y023250
X035900Y010750
X035900Y010250
X035900Y009750
T40
X013150Y040250
X013150Y026750
X013150Y013250
X015150Y040650
X015150Y039850
X015150Y027150
X015150Y026350
X015150Y013650
X015150Y012850
X029150Y040250
X029150Y026750
X029150Y013250
X031150Y040650
X031150Y039850
X031150Y027150
X031150Y026350
X031150Y013650
X031150Y012850
M30
