G04 start of page 11 for group -4015 idx -4015 *
G04 Title: (unknown), toppaste *
G04 Creator: pcb 4.0.2 *
G04 CreationDate: Sun Oct 16 03:50:19 2022 UTC *
G04 For: ndholmes *
G04 Format: Gerber/RS-274X *
G04 PCB-Dimensions (mil): 3900.00 4750.00 *
G04 PCB-Coordinate-Origin: lower left *
%MOIN*%
%FSLAX25Y25*%
%LNTOPPASTE*%
%ADD57C,0.0001*%
G54D57*G36*
X83516Y409952D02*X78398D01*
Y404048D01*
X83516D01*
Y409952D01*
G37*
G36*
X90602D02*X85484D01*
Y404048D01*
X90602D01*
Y409952D01*
G37*
G36*
X107796Y429874D02*X104016D01*
Y422000D01*
X107796D01*
Y429874D01*
G37*
G36*
X101890D02*X98110D01*
Y414284D01*
X101890D01*
Y429874D01*
G37*
G36*
X104725Y419165D02*X95275D01*
Y407825D01*
X104725D01*
Y419165D01*
G37*
G36*
X101885Y422005D02*X100465Y420585D01*
X103305Y417745D01*
X104725Y419165D01*
X101885Y422005D01*
G37*
G36*
X99535Y420585D02*X98115Y422005D01*
X95275Y419165D01*
X96695Y417745D01*
X99535Y420585D01*
G37*
G36*
X95984Y429874D02*X92204D01*
Y422000D01*
X95984D01*
Y429874D01*
G37*
G36*
X85000Y329700D02*Y327300D01*
X89000D01*
Y329700D01*
X85000D01*
G37*
G36*
Y333600D02*Y331200D01*
X89000D01*
Y333600D01*
X85000D01*
G37*
G36*
Y337500D02*Y335100D01*
X89000D01*
Y337500D01*
X85000D01*
G37*
G36*
X76800D02*Y335100D01*
X80800D01*
Y337500D01*
X76800D01*
G37*
G36*
Y333600D02*Y331200D01*
X80800D01*
Y333600D01*
X76800D01*
G37*
G36*
Y329700D02*Y327300D01*
X80800D01*
Y329700D01*
X76800D01*
G37*
G36*
X143249Y326800D02*Y322100D01*
X147950D01*
Y326800D01*
X143249D01*
G37*
G36*
X151050D02*Y322100D01*
X155751D01*
Y326800D01*
X151050D01*
G37*
G36*
X146350Y340400D02*Y334100D01*
X152651D01*
Y340400D01*
X146350D01*
G37*
G36*
X166949Y371275D02*Y368913D01*
X173051D01*
Y371275D01*
X166949D01*
G37*
G36*
Y375212D02*Y372850D01*
X173051D01*
Y375212D01*
X166949D01*
G37*
G36*
Y379150D02*Y376788D01*
X173051D01*
Y379150D01*
X166949D01*
G37*
G36*
Y383087D02*Y380725D01*
X173051D01*
Y383087D01*
X166949D01*
G37*
G36*
X181713Y367338D02*Y362614D01*
X188799D01*
Y367338D01*
X181713D01*
G37*
G36*
Y389386D02*Y384662D01*
X188799D01*
Y389386D01*
X181713D01*
G37*
G36*
X123102Y412952D02*X117984D01*
Y407048D01*
X123102D01*
Y412952D01*
G37*
G36*
X116016D02*X110898D01*
Y407048D01*
X116016D01*
Y412952D01*
G37*
G36*
X83500Y389000D02*Y387000D01*
X92000D01*
Y389000D01*
X83500D01*
G37*
G36*
Y384000D02*Y382000D01*
X92000D01*
Y384000D01*
X83500D01*
G37*
G36*
Y379000D02*Y377000D01*
X92000D01*
Y379000D01*
X83500D01*
G37*
G36*
Y374000D02*Y372000D01*
X92000D01*
Y374000D01*
X83500D01*
G37*
G36*
X104000D02*Y372000D01*
X112500D01*
Y374000D01*
X104000D01*
G37*
G36*
Y379000D02*Y377000D01*
X112500D01*
Y379000D01*
X104000D01*
G37*
G36*
Y384000D02*Y382000D01*
X112500D01*
Y384000D01*
X104000D01*
G37*
G36*
Y389000D02*Y387000D01*
X112500D01*
Y389000D01*
X104000D01*
G37*
G36*
X63250Y400250D02*X57750D01*
Y392750D01*
X63250D01*
Y400250D01*
G37*
G36*
X76250D02*X70750D01*
Y392750D01*
X76250D01*
Y400250D01*
G37*
G36*
X80500Y389000D02*Y387000D01*
X89000D01*
Y389000D01*
X80500D01*
G37*
G36*
Y384000D02*Y382000D01*
X89000D01*
Y384000D01*
X80500D01*
G37*
G36*
Y379000D02*Y377000D01*
X89000D01*
Y379000D01*
X80500D01*
G37*
G36*
Y374000D02*Y372000D01*
X89000D01*
Y374000D01*
X80500D01*
G37*
G36*
X107000D02*Y372000D01*
X115500D01*
Y374000D01*
X107000D01*
G37*
G36*
Y379000D02*Y377000D01*
X115500D01*
Y379000D01*
X107000D01*
G37*
G36*
Y384000D02*Y382000D01*
X115500D01*
Y384000D01*
X107000D01*
G37*
G36*
Y389000D02*Y387000D01*
X115500D01*
Y389000D01*
X107000D01*
G37*
G36*
X112048Y364602D02*Y359484D01*
X117952D01*
Y364602D01*
X112048D01*
G37*
G36*
Y357516D02*Y352398D01*
X117952D01*
Y357516D01*
X112048D01*
G37*
G36*
X121548Y364602D02*Y359484D01*
X127452D01*
Y364602D01*
X121548D01*
G37*
G36*
Y357516D02*Y352398D01*
X127452D01*
Y357516D01*
X121548D01*
G37*
G36*
X102548Y364602D02*Y359484D01*
X108452D01*
Y364602D01*
X102548D01*
G37*
G36*
Y357516D02*Y352398D01*
X108452D01*
Y357516D01*
X102548D01*
G37*
G36*
X82548D02*Y352398D01*
X88452D01*
Y357516D01*
X82548D01*
G37*
G36*
Y364602D02*Y359484D01*
X88452D01*
Y364602D01*
X82548D01*
G37*
G36*
X91548D02*Y359484D01*
X97452D01*
Y364602D01*
X91548D01*
G37*
G36*
Y357516D02*Y352398D01*
X97452D01*
Y357516D01*
X91548D01*
G37*
G36*
X243516Y409952D02*X238398D01*
Y404048D01*
X243516D01*
Y409952D01*
G37*
G36*
X250602D02*X245484D01*
Y404048D01*
X250602D01*
Y409952D01*
G37*
G36*
X267796Y429874D02*X264016D01*
Y422000D01*
X267796D01*
Y429874D01*
G37*
G36*
X261890D02*X258110D01*
Y414284D01*
X261890D01*
Y429874D01*
G37*
G36*
X264725Y419165D02*X255275D01*
Y407825D01*
X264725D01*
Y419165D01*
G37*
G36*
X261885Y422005D02*X260465Y420585D01*
X263305Y417745D01*
X264725Y419165D01*
X261885Y422005D01*
G37*
G36*
X259535Y420585D02*X258115Y422005D01*
X255275Y419165D01*
X256695Y417745D01*
X259535Y420585D01*
G37*
G36*
X255984Y429874D02*X252204D01*
Y422000D01*
X255984D01*
Y429874D01*
G37*
G36*
X245000Y329700D02*Y327300D01*
X249000D01*
Y329700D01*
X245000D01*
G37*
G36*
Y333600D02*Y331200D01*
X249000D01*
Y333600D01*
X245000D01*
G37*
G36*
Y337500D02*Y335100D01*
X249000D01*
Y337500D01*
X245000D01*
G37*
G36*
X236800D02*Y335100D01*
X240800D01*
Y337500D01*
X236800D01*
G37*
G36*
Y333600D02*Y331200D01*
X240800D01*
Y333600D01*
X236800D01*
G37*
G36*
Y329700D02*Y327300D01*
X240800D01*
Y329700D01*
X236800D01*
G37*
G36*
X303249Y326800D02*Y322100D01*
X307950D01*
Y326800D01*
X303249D01*
G37*
G36*
X311050D02*Y322100D01*
X315751D01*
Y326800D01*
X311050D01*
G37*
G36*
X306350Y340400D02*Y334100D01*
X312651D01*
Y340400D01*
X306350D01*
G37*
G36*
X326949Y371275D02*Y368913D01*
X333051D01*
Y371275D01*
X326949D01*
G37*
G36*
Y375212D02*Y372850D01*
X333051D01*
Y375212D01*
X326949D01*
G37*
G36*
Y379150D02*Y376788D01*
X333051D01*
Y379150D01*
X326949D01*
G37*
G36*
Y383087D02*Y380725D01*
X333051D01*
Y383087D01*
X326949D01*
G37*
G36*
X341713Y367338D02*Y362614D01*
X348799D01*
Y367338D01*
X341713D01*
G37*
G36*
Y389386D02*Y384662D01*
X348799D01*
Y389386D01*
X341713D01*
G37*
G36*
X283102Y412952D02*X277984D01*
Y407048D01*
X283102D01*
Y412952D01*
G37*
G36*
X276016D02*X270898D01*
Y407048D01*
X276016D01*
Y412952D01*
G37*
G36*
X243500Y389000D02*Y387000D01*
X252000D01*
Y389000D01*
X243500D01*
G37*
G36*
Y384000D02*Y382000D01*
X252000D01*
Y384000D01*
X243500D01*
G37*
G36*
Y379000D02*Y377000D01*
X252000D01*
Y379000D01*
X243500D01*
G37*
G36*
Y374000D02*Y372000D01*
X252000D01*
Y374000D01*
X243500D01*
G37*
G36*
X264000D02*Y372000D01*
X272500D01*
Y374000D01*
X264000D01*
G37*
G36*
Y379000D02*Y377000D01*
X272500D01*
Y379000D01*
X264000D01*
G37*
G36*
Y384000D02*Y382000D01*
X272500D01*
Y384000D01*
X264000D01*
G37*
G36*
Y389000D02*Y387000D01*
X272500D01*
Y389000D01*
X264000D01*
G37*
G36*
X223250Y400250D02*X217750D01*
Y392750D01*
X223250D01*
Y400250D01*
G37*
G36*
X236250D02*X230750D01*
Y392750D01*
X236250D01*
Y400250D01*
G37*
G36*
X240500Y389000D02*Y387000D01*
X249000D01*
Y389000D01*
X240500D01*
G37*
G36*
Y384000D02*Y382000D01*
X249000D01*
Y384000D01*
X240500D01*
G37*
G36*
Y379000D02*Y377000D01*
X249000D01*
Y379000D01*
X240500D01*
G37*
G36*
Y374000D02*Y372000D01*
X249000D01*
Y374000D01*
X240500D01*
G37*
G36*
X267000D02*Y372000D01*
X275500D01*
Y374000D01*
X267000D01*
G37*
G36*
Y379000D02*Y377000D01*
X275500D01*
Y379000D01*
X267000D01*
G37*
G36*
Y384000D02*Y382000D01*
X275500D01*
Y384000D01*
X267000D01*
G37*
G36*
Y389000D02*Y387000D01*
X275500D01*
Y389000D01*
X267000D01*
G37*
G36*
X272048Y364602D02*Y359484D01*
X277952D01*
Y364602D01*
X272048D01*
G37*
G36*
Y357516D02*Y352398D01*
X277952D01*
Y357516D01*
X272048D01*
G37*
G36*
X281548Y364602D02*Y359484D01*
X287452D01*
Y364602D01*
X281548D01*
G37*
G36*
Y357516D02*Y352398D01*
X287452D01*
Y357516D01*
X281548D01*
G37*
G36*
X262548Y364602D02*Y359484D01*
X268452D01*
Y364602D01*
X262548D01*
G37*
G36*
Y357516D02*Y352398D01*
X268452D01*
Y357516D01*
X262548D01*
G37*
G36*
X242548D02*Y352398D01*
X248452D01*
Y357516D01*
X242548D01*
G37*
G36*
Y364602D02*Y359484D01*
X248452D01*
Y364602D01*
X242548D01*
G37*
G36*
X251548D02*Y359484D01*
X257452D01*
Y364602D01*
X251548D01*
G37*
G36*
Y357516D02*Y352398D01*
X257452D01*
Y357516D01*
X251548D01*
G37*
G36*
X243516Y274952D02*X238398D01*
Y269048D01*
X243516D01*
Y274952D01*
G37*
G36*
X250602D02*X245484D01*
Y269048D01*
X250602D01*
Y274952D01*
G37*
G36*
X267796Y294874D02*X264016D01*
Y287000D01*
X267796D01*
Y294874D01*
G37*
G36*
X261890D02*X258110D01*
Y279284D01*
X261890D01*
Y294874D01*
G37*
G36*
X264725Y284165D02*X255275D01*
Y272825D01*
X264725D01*
Y284165D01*
G37*
G36*
X261885Y287005D02*X260465Y285585D01*
X263305Y282745D01*
X264725Y284165D01*
X261885Y287005D01*
G37*
G36*
X259535Y285585D02*X258115Y287005D01*
X255275Y284165D01*
X256695Y282745D01*
X259535Y285585D01*
G37*
G36*
X255984Y294874D02*X252204D01*
Y287000D01*
X255984D01*
Y294874D01*
G37*
G36*
X245000Y194700D02*Y192300D01*
X249000D01*
Y194700D01*
X245000D01*
G37*
G36*
Y198600D02*Y196200D01*
X249000D01*
Y198600D01*
X245000D01*
G37*
G36*
Y202500D02*Y200100D01*
X249000D01*
Y202500D01*
X245000D01*
G37*
G36*
X236800D02*Y200100D01*
X240800D01*
Y202500D01*
X236800D01*
G37*
G36*
Y198600D02*Y196200D01*
X240800D01*
Y198600D01*
X236800D01*
G37*
G36*
Y194700D02*Y192300D01*
X240800D01*
Y194700D01*
X236800D01*
G37*
G36*
X303249Y191800D02*Y187100D01*
X307950D01*
Y191800D01*
X303249D01*
G37*
G36*
X311050D02*Y187100D01*
X315751D01*
Y191800D01*
X311050D01*
G37*
G36*
X306350Y205400D02*Y199100D01*
X312651D01*
Y205400D01*
X306350D01*
G37*
G36*
X326949Y236275D02*Y233913D01*
X333051D01*
Y236275D01*
X326949D01*
G37*
G36*
Y240212D02*Y237850D01*
X333051D01*
Y240212D01*
X326949D01*
G37*
G36*
Y244150D02*Y241788D01*
X333051D01*
Y244150D01*
X326949D01*
G37*
G36*
Y248087D02*Y245725D01*
X333051D01*
Y248087D01*
X326949D01*
G37*
G36*
X341713Y232338D02*Y227614D01*
X348799D01*
Y232338D01*
X341713D01*
G37*
G36*
Y254386D02*Y249662D01*
X348799D01*
Y254386D01*
X341713D01*
G37*
G36*
X283102Y277952D02*X277984D01*
Y272048D01*
X283102D01*
Y277952D01*
G37*
G36*
X276016D02*X270898D01*
Y272048D01*
X276016D01*
Y277952D01*
G37*
G36*
X243500Y254000D02*Y252000D01*
X252000D01*
Y254000D01*
X243500D01*
G37*
G36*
Y249000D02*Y247000D01*
X252000D01*
Y249000D01*
X243500D01*
G37*
G36*
Y244000D02*Y242000D01*
X252000D01*
Y244000D01*
X243500D01*
G37*
G36*
Y239000D02*Y237000D01*
X252000D01*
Y239000D01*
X243500D01*
G37*
G36*
X264000D02*Y237000D01*
X272500D01*
Y239000D01*
X264000D01*
G37*
G36*
Y244000D02*Y242000D01*
X272500D01*
Y244000D01*
X264000D01*
G37*
G36*
Y249000D02*Y247000D01*
X272500D01*
Y249000D01*
X264000D01*
G37*
G36*
Y254000D02*Y252000D01*
X272500D01*
Y254000D01*
X264000D01*
G37*
G36*
X223250Y265250D02*X217750D01*
Y257750D01*
X223250D01*
Y265250D01*
G37*
G36*
X236250D02*X230750D01*
Y257750D01*
X236250D01*
Y265250D01*
G37*
G36*
X240500Y254000D02*Y252000D01*
X249000D01*
Y254000D01*
X240500D01*
G37*
G36*
Y249000D02*Y247000D01*
X249000D01*
Y249000D01*
X240500D01*
G37*
G36*
Y244000D02*Y242000D01*
X249000D01*
Y244000D01*
X240500D01*
G37*
G36*
Y239000D02*Y237000D01*
X249000D01*
Y239000D01*
X240500D01*
G37*
G36*
X267000D02*Y237000D01*
X275500D01*
Y239000D01*
X267000D01*
G37*
G36*
Y244000D02*Y242000D01*
X275500D01*
Y244000D01*
X267000D01*
G37*
G36*
Y249000D02*Y247000D01*
X275500D01*
Y249000D01*
X267000D01*
G37*
G36*
Y254000D02*Y252000D01*
X275500D01*
Y254000D01*
X267000D01*
G37*
G36*
X272048Y229602D02*Y224484D01*
X277952D01*
Y229602D01*
X272048D01*
G37*
G36*
Y222516D02*Y217398D01*
X277952D01*
Y222516D01*
X272048D01*
G37*
G36*
X281548Y229602D02*Y224484D01*
X287452D01*
Y229602D01*
X281548D01*
G37*
G36*
Y222516D02*Y217398D01*
X287452D01*
Y222516D01*
X281548D01*
G37*
G36*
X262548Y229602D02*Y224484D01*
X268452D01*
Y229602D01*
X262548D01*
G37*
G36*
Y222516D02*Y217398D01*
X268452D01*
Y222516D01*
X262548D01*
G37*
G36*
X242548D02*Y217398D01*
X248452D01*
Y222516D01*
X242548D01*
G37*
G36*
Y229602D02*Y224484D01*
X248452D01*
Y229602D01*
X242548D01*
G37*
G36*
X251548D02*Y224484D01*
X257452D01*
Y229602D01*
X251548D01*
G37*
G36*
Y222516D02*Y217398D01*
X257452D01*
Y222516D01*
X251548D01*
G37*
G36*
X83516Y274952D02*X78398D01*
Y269048D01*
X83516D01*
Y274952D01*
G37*
G36*
X90602D02*X85484D01*
Y269048D01*
X90602D01*
Y274952D01*
G37*
G36*
X107796Y294874D02*X104016D01*
Y287000D01*
X107796D01*
Y294874D01*
G37*
G36*
X101890D02*X98110D01*
Y279284D01*
X101890D01*
Y294874D01*
G37*
G36*
X104725Y284165D02*X95275D01*
Y272825D01*
X104725D01*
Y284165D01*
G37*
G36*
X101885Y287005D02*X100465Y285585D01*
X103305Y282745D01*
X104725Y284165D01*
X101885Y287005D01*
G37*
G36*
X99535Y285585D02*X98115Y287005D01*
X95275Y284165D01*
X96695Y282745D01*
X99535Y285585D01*
G37*
G36*
X95984Y294874D02*X92204D01*
Y287000D01*
X95984D01*
Y294874D01*
G37*
G36*
X85000Y194700D02*Y192300D01*
X89000D01*
Y194700D01*
X85000D01*
G37*
G36*
Y198600D02*Y196200D01*
X89000D01*
Y198600D01*
X85000D01*
G37*
G36*
Y202500D02*Y200100D01*
X89000D01*
Y202500D01*
X85000D01*
G37*
G36*
X76800D02*Y200100D01*
X80800D01*
Y202500D01*
X76800D01*
G37*
G36*
Y198600D02*Y196200D01*
X80800D01*
Y198600D01*
X76800D01*
G37*
G36*
Y194700D02*Y192300D01*
X80800D01*
Y194700D01*
X76800D01*
G37*
G36*
X143249Y191800D02*Y187100D01*
X147950D01*
Y191800D01*
X143249D01*
G37*
G36*
X151050D02*Y187100D01*
X155751D01*
Y191800D01*
X151050D01*
G37*
G36*
X146350Y205400D02*Y199100D01*
X152651D01*
Y205400D01*
X146350D01*
G37*
G36*
X166949Y236275D02*Y233913D01*
X173051D01*
Y236275D01*
X166949D01*
G37*
G36*
Y240212D02*Y237850D01*
X173051D01*
Y240212D01*
X166949D01*
G37*
G36*
Y244150D02*Y241788D01*
X173051D01*
Y244150D01*
X166949D01*
G37*
G36*
Y248087D02*Y245725D01*
X173051D01*
Y248087D01*
X166949D01*
G37*
G36*
X181713Y232338D02*Y227614D01*
X188799D01*
Y232338D01*
X181713D01*
G37*
G36*
Y254386D02*Y249662D01*
X188799D01*
Y254386D01*
X181713D01*
G37*
G36*
X123102Y277952D02*X117984D01*
Y272048D01*
X123102D01*
Y277952D01*
G37*
G36*
X116016D02*X110898D01*
Y272048D01*
X116016D01*
Y277952D01*
G37*
G36*
X83500Y254000D02*Y252000D01*
X92000D01*
Y254000D01*
X83500D01*
G37*
G36*
Y249000D02*Y247000D01*
X92000D01*
Y249000D01*
X83500D01*
G37*
G36*
Y244000D02*Y242000D01*
X92000D01*
Y244000D01*
X83500D01*
G37*
G36*
Y239000D02*Y237000D01*
X92000D01*
Y239000D01*
X83500D01*
G37*
G36*
X104000D02*Y237000D01*
X112500D01*
Y239000D01*
X104000D01*
G37*
G36*
Y244000D02*Y242000D01*
X112500D01*
Y244000D01*
X104000D01*
G37*
G36*
Y249000D02*Y247000D01*
X112500D01*
Y249000D01*
X104000D01*
G37*
G36*
Y254000D02*Y252000D01*
X112500D01*
Y254000D01*
X104000D01*
G37*
G36*
X63250Y265250D02*X57750D01*
Y257750D01*
X63250D01*
Y265250D01*
G37*
G36*
X76250D02*X70750D01*
Y257750D01*
X76250D01*
Y265250D01*
G37*
G36*
X80500Y254000D02*Y252000D01*
X89000D01*
Y254000D01*
X80500D01*
G37*
G36*
Y249000D02*Y247000D01*
X89000D01*
Y249000D01*
X80500D01*
G37*
G36*
Y244000D02*Y242000D01*
X89000D01*
Y244000D01*
X80500D01*
G37*
G36*
Y239000D02*Y237000D01*
X89000D01*
Y239000D01*
X80500D01*
G37*
G36*
X107000D02*Y237000D01*
X115500D01*
Y239000D01*
X107000D01*
G37*
G36*
Y244000D02*Y242000D01*
X115500D01*
Y244000D01*
X107000D01*
G37*
G36*
Y249000D02*Y247000D01*
X115500D01*
Y249000D01*
X107000D01*
G37*
G36*
Y254000D02*Y252000D01*
X115500D01*
Y254000D01*
X107000D01*
G37*
G36*
X112048Y229602D02*Y224484D01*
X117952D01*
Y229602D01*
X112048D01*
G37*
G36*
Y222516D02*Y217398D01*
X117952D01*
Y222516D01*
X112048D01*
G37*
G36*
X121548Y229602D02*Y224484D01*
X127452D01*
Y229602D01*
X121548D01*
G37*
G36*
Y222516D02*Y217398D01*
X127452D01*
Y222516D01*
X121548D01*
G37*
G36*
X102548Y229602D02*Y224484D01*
X108452D01*
Y229602D01*
X102548D01*
G37*
G36*
Y222516D02*Y217398D01*
X108452D01*
Y222516D01*
X102548D01*
G37*
G36*
X82548D02*Y217398D01*
X88452D01*
Y222516D01*
X82548D01*
G37*
G36*
Y229602D02*Y224484D01*
X88452D01*
Y229602D01*
X82548D01*
G37*
G36*
X91548D02*Y224484D01*
X97452D01*
Y229602D01*
X91548D01*
G37*
G36*
Y222516D02*Y217398D01*
X97452D01*
Y222516D01*
X91548D01*
G37*
G36*
X83516Y139952D02*X78398D01*
Y134048D01*
X83516D01*
Y139952D01*
G37*
G36*
X90602D02*X85484D01*
Y134048D01*
X90602D01*
Y139952D01*
G37*
G36*
X107796Y159874D02*X104016D01*
Y152000D01*
X107796D01*
Y159874D01*
G37*
G36*
X101890D02*X98110D01*
Y144284D01*
X101890D01*
Y159874D01*
G37*
G36*
X104725Y149165D02*X95275D01*
Y137825D01*
X104725D01*
Y149165D01*
G37*
G36*
X101885Y152005D02*X100465Y150585D01*
X103305Y147745D01*
X104725Y149165D01*
X101885Y152005D01*
G37*
G36*
X99535Y150585D02*X98115Y152005D01*
X95275Y149165D01*
X96695Y147745D01*
X99535Y150585D01*
G37*
G36*
X95984Y159874D02*X92204D01*
Y152000D01*
X95984D01*
Y159874D01*
G37*
G36*
X85000Y59700D02*Y57300D01*
X89000D01*
Y59700D01*
X85000D01*
G37*
G36*
Y63600D02*Y61200D01*
X89000D01*
Y63600D01*
X85000D01*
G37*
G36*
Y67500D02*Y65100D01*
X89000D01*
Y67500D01*
X85000D01*
G37*
G36*
X76800D02*Y65100D01*
X80800D01*
Y67500D01*
X76800D01*
G37*
G36*
Y63600D02*Y61200D01*
X80800D01*
Y63600D01*
X76800D01*
G37*
G36*
Y59700D02*Y57300D01*
X80800D01*
Y59700D01*
X76800D01*
G37*
G36*
X143249Y56800D02*Y52100D01*
X147950D01*
Y56800D01*
X143249D01*
G37*
G36*
X151050D02*Y52100D01*
X155751D01*
Y56800D01*
X151050D01*
G37*
G36*
X146350Y70400D02*Y64100D01*
X152651D01*
Y70400D01*
X146350D01*
G37*
G36*
X166949Y101275D02*Y98913D01*
X173051D01*
Y101275D01*
X166949D01*
G37*
G36*
Y105212D02*Y102850D01*
X173051D01*
Y105212D01*
X166949D01*
G37*
G36*
Y109150D02*Y106788D01*
X173051D01*
Y109150D01*
X166949D01*
G37*
G36*
Y113087D02*Y110725D01*
X173051D01*
Y113087D01*
X166949D01*
G37*
G36*
X181713Y97338D02*Y92614D01*
X188799D01*
Y97338D01*
X181713D01*
G37*
G36*
Y119386D02*Y114662D01*
X188799D01*
Y119386D01*
X181713D01*
G37*
G36*
X123102Y142952D02*X117984D01*
Y137048D01*
X123102D01*
Y142952D01*
G37*
G36*
X116016D02*X110898D01*
Y137048D01*
X116016D01*
Y142952D01*
G37*
G36*
X83500Y119000D02*Y117000D01*
X92000D01*
Y119000D01*
X83500D01*
G37*
G36*
Y114000D02*Y112000D01*
X92000D01*
Y114000D01*
X83500D01*
G37*
G36*
Y109000D02*Y107000D01*
X92000D01*
Y109000D01*
X83500D01*
G37*
G36*
Y104000D02*Y102000D01*
X92000D01*
Y104000D01*
X83500D01*
G37*
G36*
X104000D02*Y102000D01*
X112500D01*
Y104000D01*
X104000D01*
G37*
G36*
Y109000D02*Y107000D01*
X112500D01*
Y109000D01*
X104000D01*
G37*
G36*
Y114000D02*Y112000D01*
X112500D01*
Y114000D01*
X104000D01*
G37*
G36*
Y119000D02*Y117000D01*
X112500D01*
Y119000D01*
X104000D01*
G37*
G36*
X63250Y130250D02*X57750D01*
Y122750D01*
X63250D01*
Y130250D01*
G37*
G36*
X76250D02*X70750D01*
Y122750D01*
X76250D01*
Y130250D01*
G37*
G36*
X80500Y119000D02*Y117000D01*
X89000D01*
Y119000D01*
X80500D01*
G37*
G36*
Y114000D02*Y112000D01*
X89000D01*
Y114000D01*
X80500D01*
G37*
G36*
Y109000D02*Y107000D01*
X89000D01*
Y109000D01*
X80500D01*
G37*
G36*
Y104000D02*Y102000D01*
X89000D01*
Y104000D01*
X80500D01*
G37*
G36*
X107000D02*Y102000D01*
X115500D01*
Y104000D01*
X107000D01*
G37*
G36*
Y109000D02*Y107000D01*
X115500D01*
Y109000D01*
X107000D01*
G37*
G36*
Y114000D02*Y112000D01*
X115500D01*
Y114000D01*
X107000D01*
G37*
G36*
Y119000D02*Y117000D01*
X115500D01*
Y119000D01*
X107000D01*
G37*
G36*
X112048Y94602D02*Y89484D01*
X117952D01*
Y94602D01*
X112048D01*
G37*
G36*
Y87516D02*Y82398D01*
X117952D01*
Y87516D01*
X112048D01*
G37*
G36*
X121548Y94602D02*Y89484D01*
X127452D01*
Y94602D01*
X121548D01*
G37*
G36*
Y87516D02*Y82398D01*
X127452D01*
Y87516D01*
X121548D01*
G37*
G36*
X102548Y94602D02*Y89484D01*
X108452D01*
Y94602D01*
X102548D01*
G37*
G36*
Y87516D02*Y82398D01*
X108452D01*
Y87516D01*
X102548D01*
G37*
G36*
X82548D02*Y82398D01*
X88452D01*
Y87516D01*
X82548D01*
G37*
G36*
Y94602D02*Y89484D01*
X88452D01*
Y94602D01*
X82548D01*
G37*
G36*
X91548D02*Y89484D01*
X97452D01*
Y94602D01*
X91548D01*
G37*
G36*
Y87516D02*Y82398D01*
X97452D01*
Y87516D01*
X91548D01*
G37*
G36*
X243516Y139952D02*X238398D01*
Y134048D01*
X243516D01*
Y139952D01*
G37*
G36*
X250602D02*X245484D01*
Y134048D01*
X250602D01*
Y139952D01*
G37*
G36*
X267796Y159874D02*X264016D01*
Y152000D01*
X267796D01*
Y159874D01*
G37*
G36*
X261890D02*X258110D01*
Y144284D01*
X261890D01*
Y159874D01*
G37*
G36*
X264725Y149165D02*X255275D01*
Y137825D01*
X264725D01*
Y149165D01*
G37*
G36*
X261885Y152005D02*X260465Y150585D01*
X263305Y147745D01*
X264725Y149165D01*
X261885Y152005D01*
G37*
G36*
X259535Y150585D02*X258115Y152005D01*
X255275Y149165D01*
X256695Y147745D01*
X259535Y150585D01*
G37*
G36*
X255984Y159874D02*X252204D01*
Y152000D01*
X255984D01*
Y159874D01*
G37*
G36*
X245000Y59700D02*Y57300D01*
X249000D01*
Y59700D01*
X245000D01*
G37*
G36*
Y63600D02*Y61200D01*
X249000D01*
Y63600D01*
X245000D01*
G37*
G36*
Y67500D02*Y65100D01*
X249000D01*
Y67500D01*
X245000D01*
G37*
G36*
X236800D02*Y65100D01*
X240800D01*
Y67500D01*
X236800D01*
G37*
G36*
Y63600D02*Y61200D01*
X240800D01*
Y63600D01*
X236800D01*
G37*
G36*
Y59700D02*Y57300D01*
X240800D01*
Y59700D01*
X236800D01*
G37*
G36*
X303249Y56800D02*Y52100D01*
X307950D01*
Y56800D01*
X303249D01*
G37*
G36*
X311050D02*Y52100D01*
X315751D01*
Y56800D01*
X311050D01*
G37*
G36*
X306350Y70400D02*Y64100D01*
X312651D01*
Y70400D01*
X306350D01*
G37*
G36*
X326949Y101275D02*Y98913D01*
X333051D01*
Y101275D01*
X326949D01*
G37*
G36*
Y105212D02*Y102850D01*
X333051D01*
Y105212D01*
X326949D01*
G37*
G36*
Y109150D02*Y106788D01*
X333051D01*
Y109150D01*
X326949D01*
G37*
G36*
Y113087D02*Y110725D01*
X333051D01*
Y113087D01*
X326949D01*
G37*
G36*
X341713Y97338D02*Y92614D01*
X348799D01*
Y97338D01*
X341713D01*
G37*
G36*
Y119386D02*Y114662D01*
X348799D01*
Y119386D01*
X341713D01*
G37*
G36*
X283102Y142952D02*X277984D01*
Y137048D01*
X283102D01*
Y142952D01*
G37*
G36*
X276016D02*X270898D01*
Y137048D01*
X276016D01*
Y142952D01*
G37*
G36*
X243500Y119000D02*Y117000D01*
X252000D01*
Y119000D01*
X243500D01*
G37*
G36*
Y114000D02*Y112000D01*
X252000D01*
Y114000D01*
X243500D01*
G37*
G36*
Y109000D02*Y107000D01*
X252000D01*
Y109000D01*
X243500D01*
G37*
G36*
Y104000D02*Y102000D01*
X252000D01*
Y104000D01*
X243500D01*
G37*
G36*
X264000D02*Y102000D01*
X272500D01*
Y104000D01*
X264000D01*
G37*
G36*
Y109000D02*Y107000D01*
X272500D01*
Y109000D01*
X264000D01*
G37*
G36*
Y114000D02*Y112000D01*
X272500D01*
Y114000D01*
X264000D01*
G37*
G36*
Y119000D02*Y117000D01*
X272500D01*
Y119000D01*
X264000D01*
G37*
G36*
X223250Y130250D02*X217750D01*
Y122750D01*
X223250D01*
Y130250D01*
G37*
G36*
X236250D02*X230750D01*
Y122750D01*
X236250D01*
Y130250D01*
G37*
G36*
X240500Y119000D02*Y117000D01*
X249000D01*
Y119000D01*
X240500D01*
G37*
G36*
Y114000D02*Y112000D01*
X249000D01*
Y114000D01*
X240500D01*
G37*
G36*
Y109000D02*Y107000D01*
X249000D01*
Y109000D01*
X240500D01*
G37*
G36*
Y104000D02*Y102000D01*
X249000D01*
Y104000D01*
X240500D01*
G37*
G36*
X267000D02*Y102000D01*
X275500D01*
Y104000D01*
X267000D01*
G37*
G36*
Y109000D02*Y107000D01*
X275500D01*
Y109000D01*
X267000D01*
G37*
G36*
Y114000D02*Y112000D01*
X275500D01*
Y114000D01*
X267000D01*
G37*
G36*
Y119000D02*Y117000D01*
X275500D01*
Y119000D01*
X267000D01*
G37*
G36*
X272048Y94602D02*Y89484D01*
X277952D01*
Y94602D01*
X272048D01*
G37*
G36*
Y87516D02*Y82398D01*
X277952D01*
Y87516D01*
X272048D01*
G37*
G36*
X281548Y94602D02*Y89484D01*
X287452D01*
Y94602D01*
X281548D01*
G37*
G36*
Y87516D02*Y82398D01*
X287452D01*
Y87516D01*
X281548D01*
G37*
G36*
X262548Y94602D02*Y89484D01*
X268452D01*
Y94602D01*
X262548D01*
G37*
G36*
Y87516D02*Y82398D01*
X268452D01*
Y87516D01*
X262548D01*
G37*
G36*
X242548D02*Y82398D01*
X248452D01*
Y87516D01*
X242548D01*
G37*
G36*
Y94602D02*Y89484D01*
X248452D01*
Y94602D01*
X242548D01*
G37*
G36*
X251548D02*Y89484D01*
X257452D01*
Y94602D01*
X251548D01*
G37*
G36*
Y87516D02*Y82398D01*
X257452D01*
Y87516D01*
X251548D01*
G37*
M02*
