G04 start of page 2 for group 0 idx 0 *
G04 Title: (unknown), top *
G04 Creator: pcb 4.0.2 *
G04 CreationDate: Sun Oct 16 03:50:19 2022 UTC *
G04 For: ndholmes *
G04 Format: Gerber/RS-274X *
G04 PCB-Dimensions (mil): 3900.00 4750.00 *
G04 PCB-Coordinate-Origin: lower left *
%MOIN*%
%FSLAX25Y25*%
%LNTOP*%
%ADD23C,0.0390*%
%ADD22C,0.0472*%
%ADD21C,0.1285*%
%ADD20C,0.0150*%
%ADD19C,0.0140*%
%ADD18C,0.0310*%
%ADD17C,0.0394*%
%ADD16C,0.0800*%
%ADD15C,0.2937*%
%ADD14C,0.0300*%
%ADD13C,0.0080*%
%ADD12C,0.0250*%
%ADD11C,0.0001*%
G54D11*G36*
X86500Y419000D02*X116000D01*
Y408000D01*
X86500D01*
Y419000D01*
G37*
G36*
Y407500D02*X116000D01*
Y396500D01*
X86500D01*
Y407500D01*
G37*
G36*
Y409500D02*X116000D01*
Y398500D01*
X86500D01*
Y409500D01*
G37*
G36*
X83000Y329500D02*X93000D01*
Y322000D01*
X83000D01*
Y329500D01*
G37*
G36*
X106305Y340500D02*X108000D01*
Y322500D01*
X106305D01*
Y328921D01*
X106423Y328930D01*
X106537Y328958D01*
X106647Y329003D01*
X106747Y329064D01*
X106837Y329141D01*
X106914Y329231D01*
X106975Y329331D01*
X107020Y329441D01*
X107048Y329555D01*
X107055Y329673D01*
Y334673D01*
X107048Y334791D01*
X107020Y334905D01*
X106975Y335015D01*
X106914Y335115D01*
X106837Y335205D01*
X106747Y335282D01*
X106647Y335343D01*
X106537Y335388D01*
X106423Y335416D01*
X106305Y335425D01*
Y340500D01*
G37*
G36*
X101555D02*X106305D01*
Y335425D01*
X106187Y335416D01*
X106073Y335388D01*
X105963Y335343D01*
X105863Y335282D01*
X105773Y335205D01*
X105696Y335115D01*
X105635Y335015D01*
X105590Y334905D01*
X105562Y334791D01*
X105555Y334673D01*
Y329673D01*
X105562Y329555D01*
X105590Y329441D01*
X105635Y329331D01*
X105696Y329231D01*
X105773Y329141D01*
X105863Y329064D01*
X105963Y329003D01*
X106073Y328958D01*
X106187Y328930D01*
X106305Y328921D01*
Y322500D01*
X101555D01*
Y326673D01*
X104055D01*
X104173Y326680D01*
X104287Y326708D01*
X104397Y326753D01*
X104497Y326814D01*
X104587Y326891D01*
X104664Y326981D01*
X104725Y327081D01*
X104770Y327191D01*
X104798Y327305D01*
X104807Y327423D01*
X104798Y327541D01*
X104770Y327655D01*
X104725Y327765D01*
X104664Y327865D01*
X104587Y327955D01*
X104497Y328032D01*
X104397Y328093D01*
X104287Y328138D01*
X104173Y328166D01*
X104055Y328173D01*
X101555D01*
Y336173D01*
X104055D01*
X104173Y336180D01*
X104287Y336208D01*
X104397Y336253D01*
X104497Y336314D01*
X104587Y336391D01*
X104664Y336481D01*
X104725Y336581D01*
X104770Y336691D01*
X104798Y336805D01*
X104807Y336923D01*
X104798Y337041D01*
X104770Y337155D01*
X104725Y337265D01*
X104664Y337365D01*
X104587Y337455D01*
X104497Y337532D01*
X104397Y337593D01*
X104287Y337638D01*
X104173Y337666D01*
X104055Y337673D01*
X101555D01*
Y340500D01*
G37*
G36*
X96805D02*X101555D01*
Y337673D01*
X99055D01*
X98937Y337666D01*
X98823Y337638D01*
X98713Y337593D01*
X98613Y337532D01*
X98523Y337455D01*
X98446Y337365D01*
X98385Y337265D01*
X98340Y337155D01*
X98312Y337041D01*
X98303Y336923D01*
X98312Y336805D01*
X98340Y336691D01*
X98385Y336581D01*
X98446Y336481D01*
X98523Y336391D01*
X98613Y336314D01*
X98713Y336253D01*
X98823Y336208D01*
X98937Y336180D01*
X99055Y336173D01*
X101555D01*
Y328173D01*
X99055D01*
X98937Y328166D01*
X98823Y328138D01*
X98713Y328093D01*
X98613Y328032D01*
X98523Y327955D01*
X98446Y327865D01*
X98385Y327765D01*
X98340Y327655D01*
X98312Y327541D01*
X98303Y327423D01*
X98312Y327305D01*
X98340Y327191D01*
X98385Y327081D01*
X98446Y326981D01*
X98523Y326891D01*
X98613Y326814D01*
X98713Y326753D01*
X98823Y326708D01*
X98937Y326680D01*
X99055Y326673D01*
X101555D01*
Y322500D01*
X96805D01*
Y328921D01*
X96923Y328930D01*
X97037Y328958D01*
X97147Y329003D01*
X97247Y329064D01*
X97337Y329141D01*
X97414Y329231D01*
X97475Y329331D01*
X97520Y329441D01*
X97548Y329555D01*
X97555Y329673D01*
Y334673D01*
X97548Y334791D01*
X97520Y334905D01*
X97475Y335015D01*
X97414Y335115D01*
X97337Y335205D01*
X97247Y335282D01*
X97147Y335343D01*
X97037Y335388D01*
X96923Y335416D01*
X96805Y335425D01*
Y340500D01*
G37*
G36*
X91000Y322500D02*Y340500D01*
X96805D01*
Y335425D01*
X96687Y335416D01*
X96573Y335388D01*
X96463Y335343D01*
X96363Y335282D01*
X96273Y335205D01*
X96196Y335115D01*
X96135Y335015D01*
X96090Y334905D01*
X96062Y334791D01*
X96055Y334673D01*
Y329673D01*
X96062Y329555D01*
X96090Y329441D01*
X96135Y329331D01*
X96196Y329231D01*
X96273Y329141D01*
X96363Y329064D01*
X96463Y329003D01*
X96573Y328958D01*
X96687Y328930D01*
X96805Y328921D01*
Y322500D01*
X91000D01*
G37*
G36*
X86500Y284000D02*X116000D01*
Y273000D01*
X86500D01*
Y284000D01*
G37*
G36*
Y272500D02*X116000D01*
Y261500D01*
X86500D01*
Y272500D01*
G37*
G36*
Y274500D02*X116000D01*
Y263500D01*
X86500D01*
Y274500D01*
G37*
G36*
X83000Y194500D02*X93000D01*
Y187000D01*
X83000D01*
Y194500D01*
G37*
G36*
Y59500D02*X93000D01*
Y52000D01*
X83000D01*
Y59500D01*
G37*
G36*
X106305Y70500D02*X108000D01*
Y52500D01*
X106305D01*
Y58921D01*
X106423Y58930D01*
X106537Y58958D01*
X106647Y59003D01*
X106747Y59064D01*
X106837Y59141D01*
X106914Y59231D01*
X106975Y59331D01*
X107020Y59441D01*
X107048Y59555D01*
X107055Y59673D01*
Y64673D01*
X107048Y64791D01*
X107020Y64905D01*
X106975Y65015D01*
X106914Y65115D01*
X106837Y65205D01*
X106747Y65282D01*
X106647Y65343D01*
X106537Y65388D01*
X106423Y65416D01*
X106305Y65425D01*
Y70500D01*
G37*
G36*
X101555D02*X106305D01*
Y65425D01*
X106187Y65416D01*
X106073Y65388D01*
X105963Y65343D01*
X105863Y65282D01*
X105773Y65205D01*
X105696Y65115D01*
X105635Y65015D01*
X105590Y64905D01*
X105562Y64791D01*
X105555Y64673D01*
Y59673D01*
X105562Y59555D01*
X105590Y59441D01*
X105635Y59331D01*
X105696Y59231D01*
X105773Y59141D01*
X105863Y59064D01*
X105963Y59003D01*
X106073Y58958D01*
X106187Y58930D01*
X106305Y58921D01*
Y52500D01*
X101555D01*
Y56673D01*
X104055D01*
X104173Y56680D01*
X104287Y56708D01*
X104397Y56753D01*
X104497Y56814D01*
X104587Y56891D01*
X104664Y56981D01*
X104725Y57081D01*
X104770Y57191D01*
X104798Y57305D01*
X104807Y57423D01*
X104798Y57541D01*
X104770Y57655D01*
X104725Y57765D01*
X104664Y57865D01*
X104587Y57955D01*
X104497Y58032D01*
X104397Y58093D01*
X104287Y58138D01*
X104173Y58166D01*
X104055Y58173D01*
X101555D01*
Y66173D01*
X104055D01*
X104173Y66180D01*
X104287Y66208D01*
X104397Y66253D01*
X104497Y66314D01*
X104587Y66391D01*
X104664Y66481D01*
X104725Y66581D01*
X104770Y66691D01*
X104798Y66805D01*
X104807Y66923D01*
X104798Y67041D01*
X104770Y67155D01*
X104725Y67265D01*
X104664Y67365D01*
X104587Y67455D01*
X104497Y67532D01*
X104397Y67593D01*
X104287Y67638D01*
X104173Y67666D01*
X104055Y67673D01*
X101555D01*
Y70500D01*
G37*
G36*
X96805D02*X101555D01*
Y67673D01*
X99055D01*
X98937Y67666D01*
X98823Y67638D01*
X98713Y67593D01*
X98613Y67532D01*
X98523Y67455D01*
X98446Y67365D01*
X98385Y67265D01*
X98340Y67155D01*
X98312Y67041D01*
X98303Y66923D01*
X98312Y66805D01*
X98340Y66691D01*
X98385Y66581D01*
X98446Y66481D01*
X98523Y66391D01*
X98613Y66314D01*
X98713Y66253D01*
X98823Y66208D01*
X98937Y66180D01*
X99055Y66173D01*
X101555D01*
Y58173D01*
X99055D01*
X98937Y58166D01*
X98823Y58138D01*
X98713Y58093D01*
X98613Y58032D01*
X98523Y57955D01*
X98446Y57865D01*
X98385Y57765D01*
X98340Y57655D01*
X98312Y57541D01*
X98303Y57423D01*
X98312Y57305D01*
X98340Y57191D01*
X98385Y57081D01*
X98446Y56981D01*
X98523Y56891D01*
X98613Y56814D01*
X98713Y56753D01*
X98823Y56708D01*
X98937Y56680D01*
X99055Y56673D01*
X101555D01*
Y52500D01*
X96805D01*
Y58921D01*
X96923Y58930D01*
X97037Y58958D01*
X97147Y59003D01*
X97247Y59064D01*
X97337Y59141D01*
X97414Y59231D01*
X97475Y59331D01*
X97520Y59441D01*
X97548Y59555D01*
X97555Y59673D01*
Y64673D01*
X97548Y64791D01*
X97520Y64905D01*
X97475Y65015D01*
X97414Y65115D01*
X97337Y65205D01*
X97247Y65282D01*
X97147Y65343D01*
X97037Y65388D01*
X96923Y65416D01*
X96805Y65425D01*
Y70500D01*
G37*
G36*
X91000Y52500D02*Y70500D01*
X96805D01*
Y65425D01*
X96687Y65416D01*
X96573Y65388D01*
X96463Y65343D01*
X96363Y65282D01*
X96273Y65205D01*
X96196Y65115D01*
X96135Y65015D01*
X96090Y64905D01*
X96062Y64791D01*
X96055Y64673D01*
Y59673D01*
X96062Y59555D01*
X96090Y59441D01*
X96135Y59331D01*
X96196Y59231D01*
X96273Y59141D01*
X96363Y59064D01*
X96463Y59003D01*
X96573Y58958D01*
X96687Y58930D01*
X96805Y58921D01*
Y52500D01*
X91000D01*
G37*
G36*
X106305Y205500D02*X108000D01*
Y187500D01*
X106305D01*
Y193921D01*
X106423Y193930D01*
X106537Y193958D01*
X106647Y194003D01*
X106747Y194064D01*
X106837Y194141D01*
X106914Y194231D01*
X106975Y194331D01*
X107020Y194441D01*
X107048Y194555D01*
X107055Y194673D01*
Y199673D01*
X107048Y199791D01*
X107020Y199905D01*
X106975Y200015D01*
X106914Y200115D01*
X106837Y200205D01*
X106747Y200282D01*
X106647Y200343D01*
X106537Y200388D01*
X106423Y200416D01*
X106305Y200425D01*
Y205500D01*
G37*
G36*
X101555D02*X106305D01*
Y200425D01*
X106187Y200416D01*
X106073Y200388D01*
X105963Y200343D01*
X105863Y200282D01*
X105773Y200205D01*
X105696Y200115D01*
X105635Y200015D01*
X105590Y199905D01*
X105562Y199791D01*
X105555Y199673D01*
Y194673D01*
X105562Y194555D01*
X105590Y194441D01*
X105635Y194331D01*
X105696Y194231D01*
X105773Y194141D01*
X105863Y194064D01*
X105963Y194003D01*
X106073Y193958D01*
X106187Y193930D01*
X106305Y193921D01*
Y187500D01*
X101555D01*
Y191673D01*
X104055D01*
X104173Y191680D01*
X104287Y191708D01*
X104397Y191753D01*
X104497Y191814D01*
X104587Y191891D01*
X104664Y191981D01*
X104725Y192081D01*
X104770Y192191D01*
X104798Y192305D01*
X104807Y192423D01*
X104798Y192541D01*
X104770Y192655D01*
X104725Y192765D01*
X104664Y192865D01*
X104587Y192955D01*
X104497Y193032D01*
X104397Y193093D01*
X104287Y193138D01*
X104173Y193166D01*
X104055Y193173D01*
X101555D01*
Y201173D01*
X104055D01*
X104173Y201180D01*
X104287Y201208D01*
X104397Y201253D01*
X104497Y201314D01*
X104587Y201391D01*
X104664Y201481D01*
X104725Y201581D01*
X104770Y201691D01*
X104798Y201805D01*
X104807Y201923D01*
X104798Y202041D01*
X104770Y202155D01*
X104725Y202265D01*
X104664Y202365D01*
X104587Y202455D01*
X104497Y202532D01*
X104397Y202593D01*
X104287Y202638D01*
X104173Y202666D01*
X104055Y202673D01*
X101555D01*
Y205500D01*
G37*
G36*
X96805D02*X101555D01*
Y202673D01*
X99055D01*
X98937Y202666D01*
X98823Y202638D01*
X98713Y202593D01*
X98613Y202532D01*
X98523Y202455D01*
X98446Y202365D01*
X98385Y202265D01*
X98340Y202155D01*
X98312Y202041D01*
X98303Y201923D01*
X98312Y201805D01*
X98340Y201691D01*
X98385Y201581D01*
X98446Y201481D01*
X98523Y201391D01*
X98613Y201314D01*
X98713Y201253D01*
X98823Y201208D01*
X98937Y201180D01*
X99055Y201173D01*
X101555D01*
Y193173D01*
X99055D01*
X98937Y193166D01*
X98823Y193138D01*
X98713Y193093D01*
X98613Y193032D01*
X98523Y192955D01*
X98446Y192865D01*
X98385Y192765D01*
X98340Y192655D01*
X98312Y192541D01*
X98303Y192423D01*
X98312Y192305D01*
X98340Y192191D01*
X98385Y192081D01*
X98446Y191981D01*
X98523Y191891D01*
X98613Y191814D01*
X98713Y191753D01*
X98823Y191708D01*
X98937Y191680D01*
X99055Y191673D01*
X101555D01*
Y187500D01*
X96805D01*
Y193921D01*
X96923Y193930D01*
X97037Y193958D01*
X97147Y194003D01*
X97247Y194064D01*
X97337Y194141D01*
X97414Y194231D01*
X97475Y194331D01*
X97520Y194441D01*
X97548Y194555D01*
X97555Y194673D01*
Y199673D01*
X97548Y199791D01*
X97520Y199905D01*
X97475Y200015D01*
X97414Y200115D01*
X97337Y200205D01*
X97247Y200282D01*
X97147Y200343D01*
X97037Y200388D01*
X96923Y200416D01*
X96805Y200425D01*
Y205500D01*
G37*
G36*
X91000Y187500D02*Y205500D01*
X96805D01*
Y200425D01*
X96687Y200416D01*
X96573Y200388D01*
X96463Y200343D01*
X96363Y200282D01*
X96273Y200205D01*
X96196Y200115D01*
X96135Y200015D01*
X96090Y199905D01*
X96062Y199791D01*
X96055Y199673D01*
Y194673D01*
X96062Y194555D01*
X96090Y194441D01*
X96135Y194331D01*
X96196Y194231D01*
X96273Y194141D01*
X96363Y194064D01*
X96463Y194003D01*
X96573Y193958D01*
X96687Y193930D01*
X96805Y193921D01*
Y187500D01*
X91000D01*
G37*
G36*
X86500Y149000D02*X116000D01*
Y138000D01*
X86500D01*
Y149000D01*
G37*
G36*
Y137500D02*X116000D01*
Y126500D01*
X86500D01*
Y137500D01*
G37*
G36*
Y139500D02*X116000D01*
Y128500D01*
X86500D01*
Y139500D01*
G37*
G36*
X188000Y402000D02*Y350000D01*
X175000D01*
Y402000D01*
X188000D01*
G37*
G36*
X246500Y419000D02*X276000D01*
Y408000D01*
X246500D01*
Y419000D01*
G37*
G36*
Y407500D02*X276000D01*
Y396500D01*
X246500D01*
Y407500D01*
G37*
G36*
Y409500D02*X276000D01*
Y398500D01*
X246500D01*
Y409500D01*
G37*
G36*
X243000Y329500D02*X253000D01*
Y322000D01*
X243000D01*
Y329500D01*
G37*
G36*
Y194500D02*X253000D01*
Y187000D01*
X243000D01*
Y194500D01*
G37*
G36*
X266305Y205500D02*X268000D01*
Y187500D01*
X266305D01*
Y193921D01*
X266423Y193930D01*
X266537Y193958D01*
X266647Y194003D01*
X266747Y194064D01*
X266837Y194141D01*
X266914Y194231D01*
X266975Y194331D01*
X267020Y194441D01*
X267048Y194555D01*
X267055Y194673D01*
Y199673D01*
X267048Y199791D01*
X267020Y199905D01*
X266975Y200015D01*
X266914Y200115D01*
X266837Y200205D01*
X266747Y200282D01*
X266647Y200343D01*
X266537Y200388D01*
X266423Y200416D01*
X266305Y200425D01*
Y205500D01*
G37*
G36*
X261555D02*X266305D01*
Y200425D01*
X266187Y200416D01*
X266073Y200388D01*
X265963Y200343D01*
X265863Y200282D01*
X265773Y200205D01*
X265696Y200115D01*
X265635Y200015D01*
X265590Y199905D01*
X265562Y199791D01*
X265555Y199673D01*
Y194673D01*
X265562Y194555D01*
X265590Y194441D01*
X265635Y194331D01*
X265696Y194231D01*
X265773Y194141D01*
X265863Y194064D01*
X265963Y194003D01*
X266073Y193958D01*
X266187Y193930D01*
X266305Y193921D01*
Y187500D01*
X261555D01*
Y191673D01*
X264055D01*
X264173Y191680D01*
X264287Y191708D01*
X264397Y191753D01*
X264497Y191814D01*
X264587Y191891D01*
X264664Y191981D01*
X264725Y192081D01*
X264770Y192191D01*
X264798Y192305D01*
X264807Y192423D01*
X264798Y192541D01*
X264770Y192655D01*
X264725Y192765D01*
X264664Y192865D01*
X264587Y192955D01*
X264497Y193032D01*
X264397Y193093D01*
X264287Y193138D01*
X264173Y193166D01*
X264055Y193173D01*
X261555D01*
Y201173D01*
X264055D01*
X264173Y201180D01*
X264287Y201208D01*
X264397Y201253D01*
X264497Y201314D01*
X264587Y201391D01*
X264664Y201481D01*
X264725Y201581D01*
X264770Y201691D01*
X264798Y201805D01*
X264807Y201923D01*
X264798Y202041D01*
X264770Y202155D01*
X264725Y202265D01*
X264664Y202365D01*
X264587Y202455D01*
X264497Y202532D01*
X264397Y202593D01*
X264287Y202638D01*
X264173Y202666D01*
X264055Y202673D01*
X261555D01*
Y205500D01*
G37*
G36*
X256805D02*X261555D01*
Y202673D01*
X259055D01*
X258937Y202666D01*
X258823Y202638D01*
X258713Y202593D01*
X258613Y202532D01*
X258523Y202455D01*
X258446Y202365D01*
X258385Y202265D01*
X258340Y202155D01*
X258312Y202041D01*
X258303Y201923D01*
X258312Y201805D01*
X258340Y201691D01*
X258385Y201581D01*
X258446Y201481D01*
X258523Y201391D01*
X258613Y201314D01*
X258713Y201253D01*
X258823Y201208D01*
X258937Y201180D01*
X259055Y201173D01*
X261555D01*
Y193173D01*
X259055D01*
X258937Y193166D01*
X258823Y193138D01*
X258713Y193093D01*
X258613Y193032D01*
X258523Y192955D01*
X258446Y192865D01*
X258385Y192765D01*
X258340Y192655D01*
X258312Y192541D01*
X258303Y192423D01*
X258312Y192305D01*
X258340Y192191D01*
X258385Y192081D01*
X258446Y191981D01*
X258523Y191891D01*
X258613Y191814D01*
X258713Y191753D01*
X258823Y191708D01*
X258937Y191680D01*
X259055Y191673D01*
X261555D01*
Y187500D01*
X256805D01*
Y193921D01*
X256923Y193930D01*
X257037Y193958D01*
X257147Y194003D01*
X257247Y194064D01*
X257337Y194141D01*
X257414Y194231D01*
X257475Y194331D01*
X257520Y194441D01*
X257548Y194555D01*
X257555Y194673D01*
Y199673D01*
X257548Y199791D01*
X257520Y199905D01*
X257475Y200015D01*
X257414Y200115D01*
X257337Y200205D01*
X257247Y200282D01*
X257147Y200343D01*
X257037Y200388D01*
X256923Y200416D01*
X256805Y200425D01*
Y205500D01*
G37*
G36*
X251000Y187500D02*Y205500D01*
X256805D01*
Y200425D01*
X256687Y200416D01*
X256573Y200388D01*
X256463Y200343D01*
X256363Y200282D01*
X256273Y200205D01*
X256196Y200115D01*
X256135Y200015D01*
X256090Y199905D01*
X256062Y199791D01*
X256055Y199673D01*
Y194673D01*
X256062Y194555D01*
X256090Y194441D01*
X256135Y194331D01*
X256196Y194231D01*
X256273Y194141D01*
X256363Y194064D01*
X256463Y194003D01*
X256573Y193958D01*
X256687Y193930D01*
X256805Y193921D01*
Y187500D01*
X251000D01*
G37*
G36*
X266305Y340500D02*X268000D01*
Y322500D01*
X266305D01*
Y328921D01*
X266423Y328930D01*
X266537Y328958D01*
X266647Y329003D01*
X266747Y329064D01*
X266837Y329141D01*
X266914Y329231D01*
X266975Y329331D01*
X267020Y329441D01*
X267048Y329555D01*
X267055Y329673D01*
Y334673D01*
X267048Y334791D01*
X267020Y334905D01*
X266975Y335015D01*
X266914Y335115D01*
X266837Y335205D01*
X266747Y335282D01*
X266647Y335343D01*
X266537Y335388D01*
X266423Y335416D01*
X266305Y335425D01*
Y340500D01*
G37*
G36*
X261555D02*X266305D01*
Y335425D01*
X266187Y335416D01*
X266073Y335388D01*
X265963Y335343D01*
X265863Y335282D01*
X265773Y335205D01*
X265696Y335115D01*
X265635Y335015D01*
X265590Y334905D01*
X265562Y334791D01*
X265555Y334673D01*
Y329673D01*
X265562Y329555D01*
X265590Y329441D01*
X265635Y329331D01*
X265696Y329231D01*
X265773Y329141D01*
X265863Y329064D01*
X265963Y329003D01*
X266073Y328958D01*
X266187Y328930D01*
X266305Y328921D01*
Y322500D01*
X261555D01*
Y326673D01*
X264055D01*
X264173Y326680D01*
X264287Y326708D01*
X264397Y326753D01*
X264497Y326814D01*
X264587Y326891D01*
X264664Y326981D01*
X264725Y327081D01*
X264770Y327191D01*
X264798Y327305D01*
X264807Y327423D01*
X264798Y327541D01*
X264770Y327655D01*
X264725Y327765D01*
X264664Y327865D01*
X264587Y327955D01*
X264497Y328032D01*
X264397Y328093D01*
X264287Y328138D01*
X264173Y328166D01*
X264055Y328173D01*
X261555D01*
Y336173D01*
X264055D01*
X264173Y336180D01*
X264287Y336208D01*
X264397Y336253D01*
X264497Y336314D01*
X264587Y336391D01*
X264664Y336481D01*
X264725Y336581D01*
X264770Y336691D01*
X264798Y336805D01*
X264807Y336923D01*
X264798Y337041D01*
X264770Y337155D01*
X264725Y337265D01*
X264664Y337365D01*
X264587Y337455D01*
X264497Y337532D01*
X264397Y337593D01*
X264287Y337638D01*
X264173Y337666D01*
X264055Y337673D01*
X261555D01*
Y340500D01*
G37*
G36*
X256805D02*X261555D01*
Y337673D01*
X259055D01*
X258937Y337666D01*
X258823Y337638D01*
X258713Y337593D01*
X258613Y337532D01*
X258523Y337455D01*
X258446Y337365D01*
X258385Y337265D01*
X258340Y337155D01*
X258312Y337041D01*
X258303Y336923D01*
X258312Y336805D01*
X258340Y336691D01*
X258385Y336581D01*
X258446Y336481D01*
X258523Y336391D01*
X258613Y336314D01*
X258713Y336253D01*
X258823Y336208D01*
X258937Y336180D01*
X259055Y336173D01*
X261555D01*
Y328173D01*
X259055D01*
X258937Y328166D01*
X258823Y328138D01*
X258713Y328093D01*
X258613Y328032D01*
X258523Y327955D01*
X258446Y327865D01*
X258385Y327765D01*
X258340Y327655D01*
X258312Y327541D01*
X258303Y327423D01*
X258312Y327305D01*
X258340Y327191D01*
X258385Y327081D01*
X258446Y326981D01*
X258523Y326891D01*
X258613Y326814D01*
X258713Y326753D01*
X258823Y326708D01*
X258937Y326680D01*
X259055Y326673D01*
X261555D01*
Y322500D01*
X256805D01*
Y328921D01*
X256923Y328930D01*
X257037Y328958D01*
X257147Y329003D01*
X257247Y329064D01*
X257337Y329141D01*
X257414Y329231D01*
X257475Y329331D01*
X257520Y329441D01*
X257548Y329555D01*
X257555Y329673D01*
Y334673D01*
X257548Y334791D01*
X257520Y334905D01*
X257475Y335015D01*
X257414Y335115D01*
X257337Y335205D01*
X257247Y335282D01*
X257147Y335343D01*
X257037Y335388D01*
X256923Y335416D01*
X256805Y335425D01*
Y340500D01*
G37*
G36*
X251000Y322500D02*Y340500D01*
X256805D01*
Y335425D01*
X256687Y335416D01*
X256573Y335388D01*
X256463Y335343D01*
X256363Y335282D01*
X256273Y335205D01*
X256196Y335115D01*
X256135Y335015D01*
X256090Y334905D01*
X256062Y334791D01*
X256055Y334673D01*
Y329673D01*
X256062Y329555D01*
X256090Y329441D01*
X256135Y329331D01*
X256196Y329231D01*
X256273Y329141D01*
X256363Y329064D01*
X256463Y329003D01*
X256573Y328958D01*
X256687Y328930D01*
X256805Y328921D01*
Y322500D01*
X251000D01*
G37*
G36*
X348000Y402000D02*Y350000D01*
X335000D01*
Y402000D01*
X348000D01*
G37*
G36*
Y267000D02*Y215000D01*
X335000D01*
Y267000D01*
X348000D01*
G37*
G36*
X246500Y284000D02*X276000D01*
Y273000D01*
X246500D01*
Y284000D01*
G37*
G36*
Y272500D02*X276000D01*
Y261500D01*
X246500D01*
Y272500D01*
G37*
G36*
Y274500D02*X276000D01*
Y263500D01*
X246500D01*
Y274500D01*
G37*
G36*
X188000Y267000D02*Y215000D01*
X175000D01*
Y267000D01*
X188000D01*
G37*
G36*
Y132000D02*Y80000D01*
X175000D01*
Y132000D01*
X188000D01*
G37*
G36*
X246500Y149000D02*X276000D01*
Y138000D01*
X246500D01*
Y149000D01*
G37*
G36*
Y137500D02*X276000D01*
Y126500D01*
X246500D01*
Y137500D01*
G37*
G36*
Y139500D02*X276000D01*
Y128500D01*
X246500D01*
Y139500D01*
G37*
G36*
X243000Y59500D02*X253000D01*
Y52000D01*
X243000D01*
Y59500D01*
G37*
G36*
X266305Y70500D02*X268000D01*
Y52500D01*
X266305D01*
Y58921D01*
X266423Y58930D01*
X266537Y58958D01*
X266647Y59003D01*
X266747Y59064D01*
X266837Y59141D01*
X266914Y59231D01*
X266975Y59331D01*
X267020Y59441D01*
X267048Y59555D01*
X267055Y59673D01*
Y64673D01*
X267048Y64791D01*
X267020Y64905D01*
X266975Y65015D01*
X266914Y65115D01*
X266837Y65205D01*
X266747Y65282D01*
X266647Y65343D01*
X266537Y65388D01*
X266423Y65416D01*
X266305Y65425D01*
Y70500D01*
G37*
G36*
X261555D02*X266305D01*
Y65425D01*
X266187Y65416D01*
X266073Y65388D01*
X265963Y65343D01*
X265863Y65282D01*
X265773Y65205D01*
X265696Y65115D01*
X265635Y65015D01*
X265590Y64905D01*
X265562Y64791D01*
X265555Y64673D01*
Y59673D01*
X265562Y59555D01*
X265590Y59441D01*
X265635Y59331D01*
X265696Y59231D01*
X265773Y59141D01*
X265863Y59064D01*
X265963Y59003D01*
X266073Y58958D01*
X266187Y58930D01*
X266305Y58921D01*
Y52500D01*
X261555D01*
Y56673D01*
X264055D01*
X264173Y56680D01*
X264287Y56708D01*
X264397Y56753D01*
X264497Y56814D01*
X264587Y56891D01*
X264664Y56981D01*
X264725Y57081D01*
X264770Y57191D01*
X264798Y57305D01*
X264807Y57423D01*
X264798Y57541D01*
X264770Y57655D01*
X264725Y57765D01*
X264664Y57865D01*
X264587Y57955D01*
X264497Y58032D01*
X264397Y58093D01*
X264287Y58138D01*
X264173Y58166D01*
X264055Y58173D01*
X261555D01*
Y66173D01*
X264055D01*
X264173Y66180D01*
X264287Y66208D01*
X264397Y66253D01*
X264497Y66314D01*
X264587Y66391D01*
X264664Y66481D01*
X264725Y66581D01*
X264770Y66691D01*
X264798Y66805D01*
X264807Y66923D01*
X264798Y67041D01*
X264770Y67155D01*
X264725Y67265D01*
X264664Y67365D01*
X264587Y67455D01*
X264497Y67532D01*
X264397Y67593D01*
X264287Y67638D01*
X264173Y67666D01*
X264055Y67673D01*
X261555D01*
Y70500D01*
G37*
G36*
X256805D02*X261555D01*
Y67673D01*
X259055D01*
X258937Y67666D01*
X258823Y67638D01*
X258713Y67593D01*
X258613Y67532D01*
X258523Y67455D01*
X258446Y67365D01*
X258385Y67265D01*
X258340Y67155D01*
X258312Y67041D01*
X258303Y66923D01*
X258312Y66805D01*
X258340Y66691D01*
X258385Y66581D01*
X258446Y66481D01*
X258523Y66391D01*
X258613Y66314D01*
X258713Y66253D01*
X258823Y66208D01*
X258937Y66180D01*
X259055Y66173D01*
X261555D01*
Y58173D01*
X259055D01*
X258937Y58166D01*
X258823Y58138D01*
X258713Y58093D01*
X258613Y58032D01*
X258523Y57955D01*
X258446Y57865D01*
X258385Y57765D01*
X258340Y57655D01*
X258312Y57541D01*
X258303Y57423D01*
X258312Y57305D01*
X258340Y57191D01*
X258385Y57081D01*
X258446Y56981D01*
X258523Y56891D01*
X258613Y56814D01*
X258713Y56753D01*
X258823Y56708D01*
X258937Y56680D01*
X259055Y56673D01*
X261555D01*
Y52500D01*
X256805D01*
Y58921D01*
X256923Y58930D01*
X257037Y58958D01*
X257147Y59003D01*
X257247Y59064D01*
X257337Y59141D01*
X257414Y59231D01*
X257475Y59331D01*
X257520Y59441D01*
X257548Y59555D01*
X257555Y59673D01*
Y64673D01*
X257548Y64791D01*
X257520Y64905D01*
X257475Y65015D01*
X257414Y65115D01*
X257337Y65205D01*
X257247Y65282D01*
X257147Y65343D01*
X257037Y65388D01*
X256923Y65416D01*
X256805Y65425D01*
Y70500D01*
G37*
G36*
X251000Y52500D02*Y70500D01*
X256805D01*
Y65425D01*
X256687Y65416D01*
X256573Y65388D01*
X256463Y65343D01*
X256363Y65282D01*
X256273Y65205D01*
X256196Y65115D01*
X256135Y65015D01*
X256090Y64905D01*
X256062Y64791D01*
X256055Y64673D01*
Y59673D01*
X256062Y59555D01*
X256090Y59441D01*
X256135Y59331D01*
X256196Y59231D01*
X256273Y59141D01*
X256363Y59064D01*
X256463Y59003D01*
X256573Y58958D01*
X256687Y58930D01*
X256805Y58921D01*
Y52500D01*
X251000D01*
G37*
G36*
X348000Y132000D02*Y80000D01*
X335000D01*
Y132000D01*
X348000D01*
G37*
G54D12*X254000Y426000D02*X243500D01*
X241000Y423500D01*
Y398500D01*
X239000Y396500D01*
X233500D01*
X223673Y379445D02*Y393327D01*
X220500Y396500D01*
G54D13*X252000Y375500D02*X240000D01*
X239000Y374500D01*
Y369500D01*
X247000Y378000D02*X237000D01*
X235000Y376000D01*
X236500Y377500D01*
X245500Y355000D02*X254500D01*
X239000Y370500D02*Y351000D01*
X233356Y351856D02*X235000Y353500D01*
Y376000D01*
X246500Y378000D02*X253500D01*
X254500Y379000D01*
X247750Y253000D02*X254000D01*
X252500Y248000D02*X247750D01*
G54D12*X254000Y291000D02*X243500D01*
X241000Y288500D01*
Y263500D01*
X239000Y261500D01*
X233500D01*
G54D13*X252000Y240500D02*X240000D01*
X247000Y243000D02*X237000D01*
X235000Y241000D01*
X236500Y242500D01*
X246500Y243000D02*X253500D01*
X254500Y244000D01*
X240000Y240500D02*X239000Y239500D01*
Y234500D01*
Y227000D02*X245500D01*
X239000Y235500D02*Y216000D01*
X235000Y218500D02*Y241000D01*
G54D12*X238500Y328500D02*Y321000D01*
X240000Y319500D01*
X247000Y336300D02*Y340500D01*
G54D13*X238700Y332500D02*X238800Y332400D01*
X247000D02*X244100D01*
X243500Y333000D01*
Y338000D01*
X239000Y332500D02*X241500D01*
X242000Y333000D01*
X309501Y337250D02*Y333500D01*
X313500Y329500D01*
Y324549D01*
X313401Y324450D01*
G54D12*X305599D02*Y330401D01*
X305500Y330500D01*
X240000Y319500D02*X272000D01*
X275500Y323000D01*
Y332008D01*
X275335Y332173D01*
X289114D02*Y338886D01*
G54D13*X243500Y336500D02*Y340500D01*
G54D14*X239000Y344500D02*Y336500D01*
G54D13*X242000Y333000D02*Y345500D01*
Y348000D02*Y343000D01*
X243500Y339500D02*Y348000D01*
X239000Y351000D02*X242000Y348000D01*
X239000Y362000D02*X245500D01*
X243500Y348000D02*X245000Y349500D01*
G54D12*X247000Y340500D02*X250000Y343500D01*
G54D13*X269500Y347000D02*X262500D01*
X261000Y348500D01*
G54D12*X293000Y358500D02*X289500Y355000D01*
X289457Y354957D02*X291250Y356750D01*
X265500Y354957D02*X289457D01*
G54D13*X261000Y348500D02*Y359000D01*
Y356500D02*Y361000D01*
X262000Y362000D01*
X265457D01*
G54D12*X250000Y343500D02*X284500D01*
G54D13*X245000Y349500D02*X258000D01*
X259000Y350500D01*
X268500Y372750D02*X268250Y373000D01*
G54D12*X246000D02*X254500D01*
G54D13*X259000Y374500D02*X262500Y378000D01*
X258000Y377000D02*X256500Y375500D01*
X250000D01*
X252500Y383000D02*X247750D01*
G54D12*X254500Y373000D02*Y362000D01*
G54D13*X259000Y350500D02*Y374500D01*
X251500Y383000D02*X257000D01*
X258000Y382000D01*
Y377000D01*
X275000Y362043D02*Y373000D01*
X265457Y362000D02*X265500Y362043D01*
Y367500D01*
X281000Y378000D02*X262500D01*
X284500Y366500D02*Y362043D01*
X311000Y378000D02*X330000D01*
G54D12*X315000Y374000D02*X296000D01*
X330000D02*X309500D01*
X330000Y370094D02*X320000D01*
G54D13*X312000Y378000D02*X306500D01*
G54D12*X293000Y374000D02*X303000D01*
G54D13*X309906Y381906D02*X330000D01*
G54D12*X284500Y343500D02*X289000Y339000D01*
X289114Y338886D02*X286500Y341500D01*
G54D13*X267000Y347000D02*X306500D01*
X309500Y344000D01*
Y337250D01*
X311906Y381906D02*X302594D01*
X303500D02*X302594D01*
X301500Y383000D01*
G54D12*X294500Y374000D02*X301000D01*
G54D13*X289000Y381500D02*Y371000D01*
X284500Y366500D01*
G54D12*X293000Y386000D02*Y358500D01*
G54D13*X247750Y388000D02*X254000D01*
X285000Y373000D02*X268250D01*
X260500Y384000D02*Y386500D01*
X259000Y388000D01*
X253500D01*
G54D12*X280000Y398000D02*Y388000D01*
X268250D02*X291000D01*
G54D13*X268250Y383000D02*X287500D01*
X289000Y381500D01*
G54D12*X291000Y388000D02*X293000Y386000D01*
G54D13*X301500Y383000D02*Y400000D01*
X297500Y378000D02*Y395500D01*
X296500Y396500D01*
Y400000D01*
G54D12*X306500Y405000D02*Y410500D01*
G54D13*X316000Y412500D02*Y388500D01*
X313500Y386000D02*X306500D01*
Y390500D02*Y400000D01*
X316000Y388500D02*X313500Y386000D01*
X301500Y405000D02*Y411500D01*
G54D12*X296500Y405000D02*Y408000D01*
X294500Y410000D01*
X280543D01*
G54D13*X301500Y411500D02*X304000Y414000D01*
X314500D01*
X316000Y412500D01*
G54D12*X280000Y395500D02*Y422500D01*
X276500Y426000D01*
X265969D01*
X265906Y425937D01*
G54D13*X311000Y243000D02*X330000D01*
X309906Y246906D02*X330000D01*
G54D12*X315000Y239000D02*X296000D01*
X330000D02*X309500D01*
X330000Y235094D02*X320000D01*
G54D13*X312000Y243000D02*X306500D01*
G54D12*X293000Y239000D02*X303000D01*
G54D13*X303500Y246906D02*X302594D01*
X268500Y237750D02*X268250Y238000D01*
G54D12*Y253000D02*X291000D01*
G54D13*X268250Y248000D02*X287500D01*
X289000Y246500D01*
X285000Y238000D02*X268250D01*
X275000Y227043D02*Y238000D01*
X281000Y243000D02*X262500D01*
X289000Y246500D02*Y236000D01*
G54D12*X293000Y251000D02*Y223500D01*
X289500Y220000D01*
X289457Y219957D02*X291250Y221750D01*
G54D13*X289000Y236000D02*X284500Y231500D01*
Y227043D01*
G54D12*X265500Y219957D02*X289457D01*
G54D13*X262000Y227000D02*X265457D01*
X265500Y227043D01*
Y232500D01*
X311906Y246906D02*X302594D01*
X313500Y251000D02*X306500D01*
X302594Y246906D02*X301500Y248000D01*
G54D12*X294500Y239000D02*X301000D01*
X306500Y270000D02*Y275500D01*
G54D13*X301500Y270000D02*Y276500D01*
X304000Y279000D01*
X306500Y255500D02*Y265000D01*
X301500Y248000D02*Y265000D01*
X297500Y243000D02*Y260500D01*
X296500Y261500D01*
Y265000D01*
G54D12*Y270000D02*Y273000D01*
X294500Y275000D01*
G54D13*X304000Y279000D02*X314500D01*
X316000Y277500D01*
Y253500D01*
X313500Y251000D01*
G54D12*X246000Y238000D02*X254500D01*
G54D13*X256500Y240500D02*X250000D01*
G54D12*X254500Y238000D02*Y227000D01*
G54D13*X259000Y215500D02*Y239500D01*
X262500Y243000D01*
X258000Y247000D02*Y242000D01*
X256500Y240500D01*
X251500Y248000D02*X257000D01*
X258000Y247000D01*
X260500Y249000D02*Y251500D01*
X259000Y253000D01*
X253500D01*
X261000Y213500D02*Y224000D01*
Y221500D02*Y226000D01*
X262000Y227000D01*
G54D12*X280000Y263000D02*Y253000D01*
X291000D02*X293000Y251000D01*
X294500Y275000D02*X280543D01*
X280000Y260500D02*Y287500D01*
X276500Y291000D01*
X265969D01*
X265906Y290937D01*
G54D13*X87750Y388000D02*X94000D01*
X92500Y383000D02*X87750D01*
G54D12*X94000Y426000D02*X83500D01*
X81000Y423500D01*
Y398500D01*
X79000Y396500D01*
X73500D01*
G54D13*X87000Y378000D02*X77000D01*
X75000Y376000D01*
X76500Y377500D01*
G54D12*X63673Y379445D02*Y393327D01*
X60500Y396500D01*
G54D13*X86500Y378000D02*X93500D01*
X94500Y379000D01*
X108500Y372750D02*X108250Y373000D01*
X92000Y375500D02*X80000D01*
X79000Y374500D01*
Y369500D01*
G54D12*X86000Y373000D02*X94500D01*
G54D13*X96500Y375500D02*X90000D01*
X75000Y353500D02*Y376000D01*
X99000Y374500D02*X102500Y378000D01*
X91500Y383000D02*X97000D01*
X98000Y382000D01*
Y377000D01*
X96500Y375500D01*
X100500Y384000D02*Y386500D01*
X99000Y388000D01*
X93500D01*
X125000Y373000D02*X108250D01*
X115000Y362043D02*Y373000D01*
X129000Y371000D02*X124500Y366500D01*
Y362043D01*
G54D12*X105500Y354957D02*X129457D01*
X131000Y388000D02*X133000Y386000D01*
Y358500D01*
X129500Y355000D01*
X129457Y354957D02*X131250Y356750D01*
G54D13*X121000Y378000D02*X102500D01*
X108250Y383000D02*X127500D01*
X129000Y381500D01*
Y371000D01*
G54D12*X146500Y405000D02*Y410500D01*
G54D13*X141500Y411500D02*X144000Y414000D01*
X154500D01*
X156000Y412500D01*
X141500Y383000D02*Y400000D01*
Y405000D02*Y411500D01*
X137500Y378000D02*Y395500D01*
X136500Y396500D01*
Y400000D01*
G54D12*Y405000D02*Y408000D01*
X134500Y410000D01*
G54D13*X156000Y412500D02*Y388500D01*
X153500Y386000D01*
X146500D01*
Y390500D02*Y400000D01*
X152000Y378000D02*X146500D01*
X143500Y381906D02*X142594D01*
X141500Y383000D01*
G54D12*X133000Y374000D02*X143000D01*
X94500Y373000D02*Y362000D01*
G54D13*X79000Y370500D02*Y351000D01*
Y362000D02*X85500D01*
X99000Y350500D02*Y374500D01*
X101000Y356500D02*Y361000D01*
X102000Y362000D01*
X105457D01*
X105500Y362043D01*
Y367500D01*
G54D12*X120000Y398000D02*Y388000D01*
X108250D02*X131000D01*
X134500Y410000D02*X120543D01*
X120000Y395500D02*Y422500D01*
X116500Y426000D01*
X105969D01*
X105906Y425937D01*
G54D13*X149501Y337250D02*Y333500D01*
X153500Y329500D01*
Y324549D01*
X153401Y324450D01*
G54D12*X145599D02*Y330401D01*
X145500Y330500D01*
G54D13*X146500Y347000D02*X149500Y344000D01*
Y337250D01*
X223787Y352000D02*X223673Y351886D01*
X223644Y351856D02*X233356D01*
X151000Y378000D02*X170000D01*
X149906Y381906D02*X170000D01*
X151906D02*X142594D01*
G54D12*X155000Y374000D02*X136000D01*
X170000D02*X149500D01*
X170000Y370094D02*X160000D01*
X134500Y374000D02*X141000D01*
X78500Y328500D02*Y321000D01*
X80000Y319500D01*
G54D13*X63787Y352000D02*X63673Y351886D01*
X63644Y351856D02*X73356D01*
X75000Y353500D01*
G54D14*X79000Y344500D02*Y336500D01*
G54D13*X78700Y332500D02*X78800Y332400D01*
X87000D02*X84100D01*
X83500Y333000D01*
Y338000D01*
X79000Y332500D02*X81500D01*
X82000Y333000D01*
Y345500D01*
Y348000D02*Y343000D01*
X83500Y339500D02*Y348000D01*
X79000Y351000D02*X82000Y348000D01*
X83500D02*X85000Y349500D01*
X83500Y336500D02*Y340500D01*
G54D12*X80000Y319500D02*X112000D01*
X115500Y323000D01*
Y332008D01*
X115335Y332173D01*
X87000Y336300D02*Y340500D01*
G54D13*X85500Y355000D02*X94500D01*
X85000Y349500D02*X98000D01*
X99000Y350500D01*
G54D12*X87000Y340500D02*X90000Y343500D01*
X124500D01*
X129000Y339000D01*
X129114Y332173D02*Y338886D01*
X126500Y341500D01*
G54D13*X107000Y347000D02*X146500D01*
X109500D02*X102500D01*
X101000Y348500D01*
Y359000D01*
X149501Y202250D02*Y198500D01*
X153500Y194500D01*
Y189549D01*
X153401Y189450D01*
G54D12*X145599D02*Y195401D01*
X145500Y195500D01*
G54D13*X146500Y212000D02*X149500Y209000D01*
Y202250D01*
X153500Y251000D02*X146500D01*
X152000Y243000D02*X146500D01*
G54D12*X112000Y184500D02*X115500Y188000D01*
Y197008D01*
X115335Y197173D01*
X120000Y263000D02*Y253000D01*
G54D13*X115000Y227043D02*Y238000D01*
X127500Y248000D02*X129000Y246500D01*
Y236000D01*
G54D12*X133000Y251000D02*Y223500D01*
X129500Y220000D01*
X129457Y219957D02*X131250Y221750D01*
G54D13*X129000Y236000D02*X124500Y231500D01*
Y227043D01*
G54D12*X105500Y219957D02*X129457D01*
G54D13*X101000Y213500D02*Y224000D01*
Y221500D02*Y226000D01*
X102000Y227000D01*
X105457D01*
X105500Y227043D01*
Y232500D01*
X97000Y248000D02*X98000Y247000D01*
X100500Y249000D02*Y251500D01*
X99000Y253000D01*
X93500D01*
X98000Y247000D02*Y242000D01*
X96500Y240500D01*
X90000D01*
X125000Y238000D02*X108250D01*
X121000Y243000D02*X102500D01*
G54D12*X108250Y253000D02*X131000D01*
X133000Y251000D01*
G54D13*X108250Y248000D02*X127500D01*
G54D12*X133000Y239000D02*X143000D01*
G54D13*X143500Y246906D02*X142594D01*
X141500Y248000D01*
X87750Y253000D02*X94000D01*
X92500Y248000D02*X87750D01*
G54D12*X94000Y291000D02*X83500D01*
X81000Y288500D01*
Y263500D01*
X79000Y261500D01*
X73500D01*
G54D13*X87000Y243000D02*X77000D01*
X75000Y241000D01*
X76500Y242500D01*
G54D12*X63673Y244445D02*Y258327D01*
X60500Y261500D01*
G54D13*X86500Y243000D02*X93500D01*
X94500Y244000D01*
X151000Y243000D02*X170000D01*
X149906Y246906D02*X170000D01*
X151906D02*X142594D01*
G54D12*X155000Y239000D02*X136000D01*
X170000D02*X149500D01*
X170000Y235094D02*X160000D01*
X134500Y239000D02*X141000D01*
G54D13*X141500Y248000D02*Y265000D01*
X137500Y243000D02*Y260500D01*
X136500Y261500D01*
Y265000D01*
X141500Y276500D02*X144000Y279000D01*
X154500D01*
X156000Y277500D01*
G54D12*X146500Y270000D02*Y275500D01*
G54D13*X141500Y270000D02*Y276500D01*
X156000Y277500D02*Y253500D01*
X146500Y255500D02*Y265000D01*
X156000Y253500D02*X153500Y251000D01*
G54D12*X136500Y270000D02*Y273000D01*
X134500Y275000D01*
X120543D01*
X120000Y260500D02*Y287500D01*
X116500Y291000D01*
X105969D01*
X105906Y290937D01*
G54D13*X63787Y217000D02*X63673Y216886D01*
X63644Y216856D02*X73356D01*
X75000Y218500D01*
X79000Y216000D02*X82000Y213000D01*
X83500D02*X85000Y214500D01*
X82000Y213000D02*Y208000D01*
X107000Y212000D02*X146500D01*
X109500D02*X102500D01*
X101000Y213500D01*
G54D12*X87000Y201300D02*Y205500D01*
G54D13*X85500Y220000D02*X94500D01*
X85000Y214500D02*X98000D01*
X99000Y215500D01*
X108500Y237750D02*X108250Y238000D01*
X99000Y239500D02*X102500Y243000D01*
X91500Y248000D02*X97000D01*
G54D12*X94500Y238000D02*Y227000D01*
G54D13*X79000Y235500D02*Y216000D01*
Y227000D02*X85500D01*
X99000Y215500D02*Y239500D01*
X92000Y240500D02*X80000D01*
X79000Y239500D01*
Y234500D01*
G54D12*X86000Y238000D02*X94500D01*
G54D13*X75000Y218500D02*Y241000D01*
X87000Y197400D02*X84100D01*
X83500Y198000D01*
Y201500D02*Y205500D01*
Y204500D02*Y213000D01*
X82000Y198000D02*Y210500D01*
G54D12*X78500Y193500D02*Y186000D01*
X80000Y184500D01*
G54D13*X78700Y197500D02*X78800Y197400D01*
G54D14*X79000Y209500D02*Y201500D01*
G54D12*X87000Y205500D02*X90000Y208500D01*
X124500D01*
X129000Y204000D01*
X129114Y197173D02*Y203886D01*
X126500Y206500D01*
G54D13*X83500Y198000D02*Y203000D01*
G54D12*X80000Y184500D02*X112000D01*
G54D13*X79000Y197500D02*X81500D01*
X82000Y198000D01*
X63787Y82000D02*X63673Y81886D01*
X63644Y81856D02*X73356D01*
X75000Y83500D01*
G54D12*X78500Y58500D02*Y51000D01*
X80000Y49500D01*
X112000D01*
X115500Y53000D01*
Y62008D01*
G54D13*X79000Y62500D02*X81500D01*
X78700D02*X78800Y62400D01*
X87000D02*X84100D01*
X83500Y63000D01*
Y68000D01*
Y66500D02*Y70500D01*
X81500Y62500D02*X82000Y63000D01*
G54D12*X87000Y70500D02*X90000Y73500D01*
G54D13*X85000Y79500D02*X98000D01*
X99000Y80500D01*
X109500Y77000D02*X102500D01*
X101000Y78500D01*
G54D14*X79000Y74500D02*Y66500D01*
G54D13*Y81000D02*X82000Y78000D01*
Y73000D01*
X83500Y69500D02*Y78000D01*
X85000Y79500D01*
X82000Y63000D02*Y75500D01*
X108500Y102750D02*X108250Y103000D01*
X99000Y104500D02*X102500Y108000D01*
X98000Y112000D02*Y107000D01*
X96500Y105500D01*
X91500Y113000D02*X97000D01*
X98000Y112000D01*
X93500Y108000D02*X94500Y109000D01*
X108250Y113000D02*X127500D01*
X129000Y111500D01*
X143500Y111906D02*X142594D01*
X141500Y113000D01*
G54D12*X87000Y66300D02*Y70500D01*
X115500Y62008D02*X115335Y62173D01*
X90000Y73500D02*X124500D01*
X129114Y68886D02*X126500Y71500D01*
G54D13*X75000Y83500D02*Y106000D01*
X101000Y78500D02*Y89000D01*
Y86500D02*Y91000D01*
X102000Y92000D01*
X105457D01*
X105500Y92043D01*
Y97500D01*
X87750Y118000D02*X94000D01*
X92500Y113000D02*X87750D01*
X87000Y108000D02*X77000D01*
X75000Y106000D01*
X76500Y107500D01*
X92000Y105500D02*X80000D01*
X79000Y104500D01*
Y99500D01*
G54D12*X86000Y103000D02*X94500D01*
G54D13*X96500Y105500D02*X90000D01*
X86500Y108000D02*X93500D01*
X99000Y118000D02*X93500D01*
G54D12*X124500Y73500D02*X129000Y69000D01*
G54D13*X107000Y77000D02*X146500D01*
X85500Y85000D02*X94500D01*
G54D12*Y103000D02*Y92000D01*
G54D13*X79000Y100500D02*Y81000D01*
Y92000D02*X85500D01*
X99000Y80500D02*Y104500D01*
X121000Y108000D02*X102500D01*
X125000Y103000D02*X108250D01*
X115000Y92043D02*Y103000D01*
X129000Y101000D02*X124500Y96500D01*
Y92043D01*
G54D12*X105500Y84957D02*X129457D01*
X131250Y86750D01*
X94000Y156000D02*X83500D01*
X81000Y153500D01*
Y128500D01*
X79000Y126500D01*
X73500D01*
X120000Y128000D02*Y118000D01*
X108250D02*X131000D01*
X134500Y140000D02*X120543D01*
X120000Y125500D02*Y152500D01*
X116500Y156000D01*
X105969D01*
X105906Y155937D01*
G54D13*X100500Y114000D02*Y116500D01*
X99000Y118000D01*
G54D12*X63673Y109445D02*Y123327D01*
X60500Y126500D01*
G54D13*X141500Y113000D02*Y130000D01*
X137500Y108000D02*Y125500D01*
X141500Y135000D02*Y141500D01*
X144000Y144000D01*
X154500D01*
X156000Y142500D01*
Y118500D01*
X153500Y116000D01*
X146500D01*
X152000Y108000D02*X146500D01*
G54D12*Y135000D02*Y140500D01*
G54D13*X137500Y125500D02*X136500Y126500D01*
Y130000D01*
X146500Y120500D02*Y130000D01*
G54D12*X136500Y135000D02*Y138000D01*
X134500Y140000D01*
G54D13*X149501Y67250D02*Y63500D01*
X153500Y59500D01*
Y54549D01*
X153401Y54450D01*
X151000Y108000D02*X170000D01*
X149906Y111906D02*X170000D01*
G54D12*X129114Y62173D02*Y68886D01*
X145599Y54450D02*Y60401D01*
X145500Y60500D01*
G54D13*X146500Y77000D02*X149500Y74000D01*
Y67250D01*
G54D12*X170000Y100094D02*X160000D01*
X133000Y104000D02*X143000D01*
X155000D02*X136000D01*
G54D13*X151906Y111906D02*X142594D01*
G54D12*X131000Y118000D02*X133000Y116000D01*
X134500Y104000D02*X141000D01*
X170000D02*X149500D01*
G54D13*X129000Y111500D02*Y101000D01*
G54D12*X133000Y116000D02*Y88500D01*
X129500Y85000D01*
G54D13*X309501Y198500D02*X313500Y194500D01*
Y189549D01*
X313401Y189450D01*
G54D12*X305599D02*Y195401D01*
X305500Y195500D01*
X284500Y208500D02*X289000Y204000D01*
X289114Y203886D02*X286500Y206500D01*
X289114Y197173D02*Y203886D01*
G54D13*X309501Y202250D02*Y198500D01*
X309500Y209000D02*Y202250D01*
G54D12*X240000Y184500D02*X272000D01*
X275500Y188000D01*
Y197008D01*
X275335Y197173D01*
G54D13*X267000Y212000D02*X306500D01*
X309500Y209000D01*
G54D12*X250000Y208500D02*X284500D01*
G54D13*X245000Y214500D02*X258000D01*
X259000Y215500D01*
X269500Y212000D02*X262500D01*
X261000Y213500D01*
X223787Y217000D02*X223673Y216886D01*
X223644Y216856D02*X233356D01*
X235000Y218500D01*
G54D12*X223673Y244445D02*Y258327D01*
X220500Y261500D01*
G54D13*X247000Y197400D02*X244100D01*
X243500Y198000D01*
X239000Y197500D02*X241500D01*
X242000Y198000D01*
X243500D02*Y203000D01*
G54D12*X238500Y193500D02*Y186000D01*
X240000Y184500D01*
G54D13*X238700Y197500D02*X238800Y197400D01*
X243500Y201500D02*Y205500D01*
G54D12*X247000Y201300D02*Y205500D01*
X250000Y208500D01*
G54D13*X245500Y220000D02*X254500D01*
X243500Y204500D02*Y213000D01*
X245000Y214500D01*
G54D14*X239000Y209500D02*Y201500D01*
G54D13*X242000Y198000D02*Y210500D01*
X239000Y216000D02*X242000Y213000D01*
Y208000D01*
X223787Y82000D02*X223673Y81886D01*
X223644Y81856D02*X233356D01*
G54D12*X238500Y58500D02*Y51000D01*
X240000Y49500D01*
G54D13*X238700Y62500D02*X238800Y62400D01*
X247000D02*X244100D01*
X243500Y63000D01*
Y68000D01*
X239000Y62500D02*X241500D01*
X243500Y66500D02*Y70500D01*
G54D12*X247000Y66300D02*Y70500D01*
X250000Y73500D01*
G54D14*X239000Y74500D02*Y66500D01*
G54D13*Y81000D02*X242000Y78000D01*
G54D12*X241000Y128500D02*X239000Y126500D01*
X233500D01*
G54D13*X240000Y105500D02*X239000Y104500D01*
Y99500D01*
X247000Y108000D02*X237000D01*
X235000Y106000D01*
X236500Y107500D01*
X239000Y100500D02*Y81000D01*
Y92000D02*X245500D01*
X233356Y81856D02*X235000Y83500D01*
Y106000D01*
G54D12*X223673Y109445D02*Y123327D01*
X220500Y126500D01*
G54D13*X309501Y67250D02*Y63500D01*
X306500Y77000D02*X309500Y74000D01*
Y67250D01*
X309501Y63500D02*X313500Y59500D01*
Y54549D01*
X313401Y54450D01*
G54D12*X305599D02*Y60401D01*
X305500Y60500D01*
X284500Y73500D02*X289000Y69000D01*
X289114Y68886D02*X286500Y71500D01*
X289114Y62173D02*Y68886D01*
X240000Y49500D02*X272000D01*
X275500Y53000D01*
Y62008D01*
X275335Y62173D01*
G54D13*X241500Y62500D02*X242000Y63000D01*
G54D12*X250000Y73500D02*X284500D01*
G54D13*X242000Y63000D02*Y75500D01*
Y78000D02*Y73000D01*
X243500Y69500D02*Y78000D01*
X245000Y79500D01*
X245500Y85000D02*X254500D01*
X245000Y79500D02*X258000D01*
X259000Y80500D01*
X267000Y77000D02*X306500D01*
X269500D02*X262500D01*
X261000Y78500D01*
X247750Y118000D02*X254000D01*
X252500Y113000D02*X247750D01*
X259000Y118000D02*X253500D01*
X252000Y105500D02*X240000D01*
G54D12*X246000Y103000D02*X254500D01*
Y92000D01*
G54D13*X256500Y105500D02*X250000D01*
X246500Y108000D02*X253500D01*
X254500Y109000D01*
X259000Y80500D02*Y104500D01*
X262500Y108000D01*
X258000Y112000D02*Y107000D01*
X256500Y105500D01*
X260500Y114000D02*Y116500D01*
X259000Y118000D01*
X251500Y113000D02*X257000D01*
X258000Y112000D01*
X261000Y78500D02*Y89000D01*
Y86500D02*Y91000D01*
X262000Y92000D01*
G54D12*X291000Y118000D02*X293000Y116000D01*
G54D13*X301500Y113000D02*Y130000D01*
X297500Y125500D02*X296500Y126500D01*
Y130000D01*
X297500Y108000D02*Y125500D01*
G54D12*X280000Y128000D02*Y118000D01*
X268250D02*X291000D01*
G54D13*X268250Y113000D02*X287500D01*
X289000Y111500D01*
G54D12*X294500Y140000D02*X280543D01*
X280000Y125500D02*Y152500D01*
X276500Y156000D01*
X265969D01*
X265906Y155937D01*
X254000Y156000D02*X243500D01*
X241000Y153500D01*
Y128500D01*
X315000Y104000D02*X296000D01*
G54D13*X311906Y111906D02*X302594D01*
G54D12*X294500Y104000D02*X301000D01*
G54D13*X303500Y111906D02*X302594D01*
G54D12*X330000Y104000D02*X309500D01*
G54D13*X311000Y108000D02*X330000D01*
X309906Y111906D02*X330000D01*
G54D12*Y100094D02*X320000D01*
G54D13*X312000Y108000D02*X306500D01*
X289000Y111500D02*Y101000D01*
G54D12*X293000Y104000D02*X303000D01*
G54D13*X302594Y111906D02*X301500Y113000D01*
X268500Y102750D02*X268250Y103000D01*
X285000D02*X268250D01*
X275000Y92043D02*Y103000D01*
X281000Y108000D02*X262500D01*
X265500Y92043D02*Y97500D01*
X289000Y101000D02*X284500Y96500D01*
Y92043D01*
G54D12*X293000Y116000D02*Y88500D01*
X289500Y85000D01*
X265500Y84957D02*X289457D01*
X291250Y86750D01*
G54D13*X262000Y92000D02*X265457D01*
X265500Y92043D01*
G54D12*X306500Y135000D02*Y140500D01*
G54D13*X301500Y141500D02*X304000Y144000D01*
X314500D01*
X316000Y142500D01*
Y118500D02*X313500Y116000D01*
X306500D01*
X316000Y142500D02*Y118500D01*
X306500Y120500D02*Y130000D01*
X301500Y135000D02*Y141500D01*
G54D12*X296500Y135000D02*Y138000D01*
X294500Y140000D01*
G54D15*X173000Y418000D03*
X173500Y327000D03*
X173000Y283000D03*
G54D16*X129114Y332173D03*
G54D15*X333500Y327000D03*
X217000D03*
G54D11*G36*
X257555Y336173D02*Y328173D01*
X265555D01*
Y336173D01*
X257555D01*
G37*
G54D16*X275335Y332173D03*
X289114D03*
G54D15*X333000Y418000D03*
G54D16*X223673Y351886D03*
G54D15*X217000Y283000D03*
Y418000D03*
G54D11*G36*
X219673Y383445D02*Y375445D01*
X227673D01*
Y383445D01*
X219673D01*
G37*
G54D16*X223673Y365665D03*
G54D15*X57000Y327000D03*
Y418000D03*
G54D11*G36*
X59673Y383445D02*Y375445D01*
X67673D01*
Y383445D01*
X59673D01*
G37*
G54D16*X63673Y365665D03*
Y351886D03*
G54D11*G36*
X97555Y336173D02*Y328173D01*
X105555D01*
Y336173D01*
X97555D01*
G37*
G54D16*X115335Y332173D03*
G54D15*X333000Y283000D03*
X333500Y192000D03*
G54D16*X289114Y197173D03*
G54D15*X333000Y148000D03*
X333500Y57000D03*
G54D16*X289114Y62173D03*
G54D15*X217000Y192000D03*
G54D11*G36*
X219673Y248445D02*Y240445D01*
X227673D01*
Y248445D01*
X219673D01*
G37*
G54D16*X223673Y230665D03*
Y216886D03*
G54D11*G36*
X257555Y201173D02*Y193173D01*
X265555D01*
Y201173D01*
X257555D01*
G37*
G54D15*X173500Y192000D03*
G54D16*X275335Y197173D03*
G54D15*X57000Y192000D03*
G54D11*G36*
X97555Y201173D02*Y193173D01*
X105555D01*
Y201173D01*
X97555D01*
G37*
G54D16*X115335Y197173D03*
X129114D03*
G54D15*X57000Y283000D03*
G54D11*G36*
X59673Y248445D02*Y240445D01*
X67673D01*
Y248445D01*
X59673D01*
G37*
G54D16*X63673Y230665D03*
Y216886D03*
G54D15*X173000Y148000D03*
X173500Y57000D03*
G54D11*G36*
X97555Y66173D02*Y58173D01*
X105555D01*
Y66173D01*
X97555D01*
G37*
G54D16*X115335Y62173D03*
X129114D03*
G54D15*X217000Y57000D03*
X57000D03*
Y148000D03*
G54D11*G36*
X59673Y113445D02*Y105445D01*
X67673D01*
Y113445D01*
X59673D01*
G37*
G54D16*X63673Y95665D03*
Y81886D03*
G54D15*X217000Y148000D03*
G54D11*G36*
X219673Y113445D02*Y105445D01*
X227673D01*
Y113445D01*
X219673D01*
G37*
G54D16*X223673Y95665D03*
Y81886D03*
G54D11*G36*
X257555Y66173D02*Y58173D01*
X265555D01*
Y66173D01*
X257555D01*
G37*
G54D16*X275335Y62173D03*
G54D17*X40000Y455000D03*
G54D11*G36*
X83516Y409952D02*X78398D01*
Y404048D01*
X83516D01*
Y409952D01*
G37*
G36*
X90602D02*X85484D01*
Y404048D01*
X90602D01*
Y409952D01*
G37*
G36*
X63250Y400250D02*X57750D01*
Y392750D01*
X63250D01*
Y400250D01*
G37*
G36*
X76250D02*X70750D01*
Y392750D01*
X76250D01*
Y400250D01*
G37*
G36*
X83500Y389000D02*Y387000D01*
X92000D01*
Y389000D01*
X83500D01*
G37*
G36*
Y384000D02*Y382000D01*
X92000D01*
Y384000D01*
X83500D01*
G37*
G36*
X80500Y389000D02*Y387000D01*
X89000D01*
Y389000D01*
X80500D01*
G37*
G36*
Y384000D02*Y382000D01*
X89000D01*
Y384000D01*
X80500D01*
G37*
G36*
X83500Y379000D02*Y377000D01*
X92000D01*
Y379000D01*
X83500D01*
G37*
G36*
Y374000D02*Y372000D01*
X92000D01*
Y374000D01*
X83500D01*
G37*
G36*
X80500Y379000D02*Y377000D01*
X89000D01*
Y379000D01*
X80500D01*
G37*
G36*
Y374000D02*Y372000D01*
X89000D01*
Y374000D01*
X80500D01*
G37*
G36*
X166949Y371275D02*Y368913D01*
X173051D01*
Y371275D01*
X166949D01*
G37*
G36*
X181713Y367338D02*Y362614D01*
X188799D01*
Y367338D01*
X181713D01*
G37*
G36*
X166949Y375212D02*Y372850D01*
X173051D01*
Y375212D01*
X166949D01*
G37*
G36*
Y379150D02*Y376788D01*
X173051D01*
Y379150D01*
X166949D01*
G37*
G36*
Y383087D02*Y380725D01*
X173051D01*
Y383087D01*
X166949D01*
G37*
G36*
X181713Y389386D02*Y384662D01*
X188799D01*
Y389386D01*
X181713D01*
G37*
G36*
X107796Y429874D02*X104016D01*
Y422000D01*
X107796D01*
Y429874D01*
G37*
G36*
X101890D02*X98110D01*
Y414284D01*
X101890D01*
Y429874D01*
G37*
G36*
X101885Y422005D02*X100465Y420585D01*
X103305Y417745D01*
X104725Y419165D01*
X101885Y422005D01*
G37*
G36*
X99535Y420585D02*X98115Y422005D01*
X95275Y419165D01*
X96695Y417745D01*
X99535Y420585D01*
G37*
G36*
X95984Y429874D02*X92204D01*
Y422000D01*
X95984D01*
Y429874D01*
G37*
G36*
X104725Y419165D02*X95275D01*
Y407825D01*
X104725D01*
Y419165D01*
G37*
G36*
X123102Y412952D02*X117984D01*
Y407048D01*
X123102D01*
Y412952D01*
G37*
G36*
X116016D02*X110898D01*
Y407048D01*
X116016D01*
Y412952D01*
G37*
G36*
X104000Y374000D02*Y372000D01*
X112500D01*
Y374000D01*
X104000D01*
G37*
G36*
Y379000D02*Y377000D01*
X112500D01*
Y379000D01*
X104000D01*
G37*
G36*
Y384000D02*Y382000D01*
X112500D01*
Y384000D01*
X104000D01*
G37*
G36*
Y389000D02*Y387000D01*
X112500D01*
Y389000D01*
X104000D01*
G37*
G36*
X121548Y364602D02*Y359484D01*
X127452D01*
Y364602D01*
X121548D01*
G37*
G36*
Y357516D02*Y352398D01*
X127452D01*
Y357516D01*
X121548D01*
G37*
G36*
X107000Y379000D02*Y377000D01*
X115500D01*
Y379000D01*
X107000D01*
G37*
G36*
Y384000D02*Y382000D01*
X115500D01*
Y384000D01*
X107000D01*
G37*
G36*
Y389000D02*Y387000D01*
X115500D01*
Y389000D01*
X107000D01*
G37*
G36*
Y374000D02*Y372000D01*
X115500D01*
Y374000D01*
X107000D01*
G37*
G36*
X112048Y364602D02*Y359484D01*
X117952D01*
Y364602D01*
X112048D01*
G37*
G36*
Y357516D02*Y352398D01*
X117952D01*
Y357516D01*
X112048D01*
G37*
G36*
X102548Y364602D02*Y359484D01*
X108452D01*
Y364602D01*
X102548D01*
G37*
G36*
Y357516D02*Y352398D01*
X108452D01*
Y357516D01*
X102548D01*
G37*
G54D17*X70000Y20000D03*
G54D11*G36*
X85000Y59700D02*Y57300D01*
X89000D01*
Y59700D01*
X85000D01*
G37*
G36*
Y63600D02*Y61200D01*
X89000D01*
Y63600D01*
X85000D01*
G37*
G36*
Y67500D02*Y65100D01*
X89000D01*
Y67500D01*
X85000D01*
G37*
G36*
X82548Y87516D02*Y82398D01*
X88452D01*
Y87516D01*
X82548D01*
G37*
G36*
Y94602D02*Y89484D01*
X88452D01*
Y94602D01*
X82548D01*
G37*
G36*
X76800Y67500D02*Y65100D01*
X80800D01*
Y67500D01*
X76800D01*
G37*
G36*
Y63600D02*Y61200D01*
X80800D01*
Y63600D01*
X76800D01*
G37*
G36*
Y59700D02*Y57300D01*
X80800D01*
Y59700D01*
X76800D01*
G37*
G36*
X85000Y194700D02*Y192300D01*
X89000D01*
Y194700D01*
X85000D01*
G37*
G36*
Y198600D02*Y196200D01*
X89000D01*
Y198600D01*
X85000D01*
G37*
G36*
Y202500D02*Y200100D01*
X89000D01*
Y202500D01*
X85000D01*
G37*
G36*
X82548Y222516D02*Y217398D01*
X88452D01*
Y222516D01*
X82548D01*
G37*
G36*
Y229602D02*Y224484D01*
X88452D01*
Y229602D01*
X82548D01*
G37*
G36*
X76800Y202500D02*Y200100D01*
X80800D01*
Y202500D01*
X76800D01*
G37*
G36*
X63250Y265250D02*X57750D01*
Y257750D01*
X63250D01*
Y265250D01*
G37*
G36*
X76250D02*X70750D01*
Y257750D01*
X76250D01*
Y265250D01*
G37*
G36*
X80500Y254000D02*Y252000D01*
X89000D01*
Y254000D01*
X80500D01*
G37*
G36*
Y249000D02*Y247000D01*
X89000D01*
Y249000D01*
X80500D01*
G37*
G36*
Y244000D02*Y242000D01*
X89000D01*
Y244000D01*
X80500D01*
G37*
G36*
Y239000D02*Y237000D01*
X89000D01*
Y239000D01*
X80500D01*
G37*
G36*
X76800Y198600D02*Y196200D01*
X80800D01*
Y198600D01*
X76800D01*
G37*
G36*
Y194700D02*Y192300D01*
X80800D01*
Y194700D01*
X76800D01*
G37*
G36*
X83516Y139952D02*X78398D01*
Y134048D01*
X83516D01*
Y139952D01*
G37*
G36*
X63250Y130250D02*X57750D01*
Y122750D01*
X63250D01*
Y130250D01*
G37*
G36*
X76250D02*X70750D01*
Y122750D01*
X76250D01*
Y130250D01*
G37*
G36*
X90602Y139952D02*X85484D01*
Y134048D01*
X90602D01*
Y139952D01*
G37*
G36*
X83500Y119000D02*Y117000D01*
X92000D01*
Y119000D01*
X83500D01*
G37*
G36*
Y114000D02*Y112000D01*
X92000D01*
Y114000D01*
X83500D01*
G37*
G36*
X80500Y119000D02*Y117000D01*
X89000D01*
Y119000D01*
X80500D01*
G37*
G36*
Y114000D02*Y112000D01*
X89000D01*
Y114000D01*
X80500D01*
G37*
G36*
X83500Y109000D02*Y107000D01*
X92000D01*
Y109000D01*
X83500D01*
G37*
G36*
Y104000D02*Y102000D01*
X92000D01*
Y104000D01*
X83500D01*
G37*
G36*
X80500Y109000D02*Y107000D01*
X89000D01*
Y109000D01*
X80500D01*
G37*
G36*
Y104000D02*Y102000D01*
X89000D01*
Y104000D01*
X80500D01*
G37*
G36*
X85000Y329700D02*Y327300D01*
X89000D01*
Y329700D01*
X85000D01*
G37*
G36*
Y333600D02*Y331200D01*
X89000D01*
Y333600D01*
X85000D01*
G37*
G36*
Y337500D02*Y335100D01*
X89000D01*
Y337500D01*
X85000D01*
G37*
G36*
X76800D02*Y335100D01*
X80800D01*
Y337500D01*
X76800D01*
G37*
G36*
Y333600D02*Y331200D01*
X80800D01*
Y333600D01*
X76800D01*
G37*
G36*
Y329700D02*Y327300D01*
X80800D01*
Y329700D01*
X76800D01*
G37*
G36*
X82548Y357516D02*Y352398D01*
X88452D01*
Y357516D01*
X82548D01*
G37*
G36*
Y364602D02*Y359484D01*
X88452D01*
Y364602D01*
X82548D01*
G37*
G36*
X91548D02*Y359484D01*
X97452D01*
Y364602D01*
X91548D01*
G37*
G36*
Y357516D02*Y352398D01*
X97452D01*
Y357516D01*
X91548D01*
G37*
G36*
X143249Y326800D02*Y322100D01*
X147950D01*
Y326800D01*
X143249D01*
G37*
G36*
X151050D02*Y322100D01*
X155751D01*
Y326800D01*
X151050D01*
G37*
G36*
X146350Y340400D02*Y334100D01*
X152651D01*
Y340400D01*
X146350D01*
G37*
G54D18*X136500Y400000D03*
Y405000D03*
X141500Y400000D03*
Y405000D03*
X146500Y400000D03*
Y405000D03*
G54D11*G36*
X83516Y274952D02*X78398D01*
Y269048D01*
X83516D01*
Y274952D01*
G37*
G36*
X83500Y254000D02*Y252000D01*
X92000D01*
Y254000D01*
X83500D01*
G37*
G36*
Y249000D02*Y247000D01*
X92000D01*
Y249000D01*
X83500D01*
G37*
G36*
Y244000D02*Y242000D01*
X92000D01*
Y244000D01*
X83500D01*
G37*
G36*
Y239000D02*Y237000D01*
X92000D01*
Y239000D01*
X83500D01*
G37*
G36*
X90602Y274952D02*X85484D01*
Y269048D01*
X90602D01*
Y274952D01*
G37*
G36*
X123102Y277952D02*X117984D01*
Y272048D01*
X123102D01*
Y277952D01*
G37*
G36*
X116016D02*X110898D01*
Y272048D01*
X116016D01*
Y277952D01*
G37*
G36*
X107796Y294874D02*X104016D01*
Y287000D01*
X107796D01*
Y294874D01*
G37*
G36*
X101890D02*X98110D01*
Y279284D01*
X101890D01*
Y294874D01*
G37*
G36*
X104725Y284165D02*X95275D01*
Y272825D01*
X104725D01*
Y284165D01*
G37*
G36*
X101885Y287005D02*X100465Y285585D01*
X103305Y282745D01*
X104725Y284165D01*
X101885Y287005D01*
G37*
G36*
X99535Y285585D02*X98115Y287005D01*
X95275Y284165D01*
X96695Y282745D01*
X99535Y285585D01*
G37*
G36*
X95984Y294874D02*X92204D01*
Y287000D01*
X95984D01*
Y294874D01*
G37*
G54D18*X136500Y265000D03*
X141500D03*
X146500D03*
X136500Y270000D03*
X141500D03*
X146500D03*
G54D11*G36*
X104000Y239000D02*Y237000D01*
X112500D01*
Y239000D01*
X104000D01*
G37*
G36*
Y244000D02*Y242000D01*
X112500D01*
Y244000D01*
X104000D01*
G37*
G36*
X107000Y239000D02*Y237000D01*
X115500D01*
Y239000D01*
X107000D01*
G37*
G36*
Y244000D02*Y242000D01*
X115500D01*
Y244000D01*
X107000D01*
G37*
G36*
X104000Y249000D02*Y247000D01*
X112500D01*
Y249000D01*
X104000D01*
G37*
G36*
Y254000D02*Y252000D01*
X112500D01*
Y254000D01*
X104000D01*
G37*
G36*
X107000Y249000D02*Y247000D01*
X115500D01*
Y249000D01*
X107000D01*
G37*
G36*
Y254000D02*Y252000D01*
X115500D01*
Y254000D01*
X107000D01*
G37*
G36*
X112048Y229602D02*Y224484D01*
X117952D01*
Y229602D01*
X112048D01*
G37*
G36*
Y222516D02*Y217398D01*
X117952D01*
Y222516D01*
X112048D01*
G37*
G36*
X121548Y229602D02*Y224484D01*
X127452D01*
Y229602D01*
X121548D01*
G37*
G36*
Y222516D02*Y217398D01*
X127452D01*
Y222516D01*
X121548D01*
G37*
G36*
X102548Y229602D02*Y224484D01*
X108452D01*
Y229602D01*
X102548D01*
G37*
G36*
Y222516D02*Y217398D01*
X108452D01*
Y222516D01*
X102548D01*
G37*
G36*
X91548Y229602D02*Y224484D01*
X97452D01*
Y229602D01*
X91548D01*
G37*
G36*
Y222516D02*Y217398D01*
X97452D01*
Y222516D01*
X91548D01*
G37*
G36*
X143249Y191800D02*Y187100D01*
X147950D01*
Y191800D01*
X143249D01*
G37*
G36*
X151050D02*Y187100D01*
X155751D01*
Y191800D01*
X151050D01*
G37*
G36*
X146350Y205400D02*Y199100D01*
X152651D01*
Y205400D01*
X146350D01*
G37*
G36*
X166949Y236275D02*Y233913D01*
X173051D01*
Y236275D01*
X166949D01*
G37*
G36*
Y240212D02*Y237850D01*
X173051D01*
Y240212D01*
X166949D01*
G37*
G36*
Y244150D02*Y241788D01*
X173051D01*
Y244150D01*
X166949D01*
G37*
G36*
Y248087D02*Y245725D01*
X173051D01*
Y248087D01*
X166949D01*
G37*
G36*
X181713Y232338D02*Y227614D01*
X188799D01*
Y232338D01*
X181713D01*
G37*
G36*
Y254386D02*Y249662D01*
X188799D01*
Y254386D01*
X181713D01*
G37*
G36*
X107796Y159874D02*X104016D01*
Y152000D01*
X107796D01*
Y159874D01*
G37*
G36*
X101890D02*X98110D01*
Y144284D01*
X101890D01*
Y159874D01*
G37*
G36*
X104725Y149165D02*X95275D01*
Y137825D01*
X104725D01*
Y149165D01*
G37*
G36*
X101885Y152005D02*X100465Y150585D01*
X103305Y147745D01*
X104725Y149165D01*
X101885Y152005D01*
G37*
G36*
X99535Y150585D02*X98115Y152005D01*
X95275Y149165D01*
X96695Y147745D01*
X99535Y150585D01*
G37*
G36*
X95984Y159874D02*X92204D01*
Y152000D01*
X95984D01*
Y159874D01*
G37*
G36*
X123102Y142952D02*X117984D01*
Y137048D01*
X123102D01*
Y142952D01*
G37*
G36*
X116016D02*X110898D01*
Y137048D01*
X116016D01*
Y142952D01*
G37*
G54D18*X136500Y130000D03*
Y135000D03*
X141500D03*
X146500D03*
X141500Y130000D03*
X146500D03*
G54D11*G36*
X143249Y56800D02*Y52100D01*
X147950D01*
Y56800D01*
X143249D01*
G37*
G36*
X151050D02*Y52100D01*
X155751D01*
Y56800D01*
X151050D01*
G37*
G36*
X146350Y70400D02*Y64100D01*
X152651D01*
Y70400D01*
X146350D01*
G37*
G36*
X166949Y101275D02*Y98913D01*
X173051D01*
Y101275D01*
X166949D01*
G37*
G36*
X181713Y97338D02*Y92614D01*
X188799D01*
Y97338D01*
X181713D01*
G37*
G36*
X166949Y105212D02*Y102850D01*
X173051D01*
Y105212D01*
X166949D01*
G37*
G36*
Y109150D02*Y106788D01*
X173051D01*
Y109150D01*
X166949D01*
G37*
G36*
Y113087D02*Y110725D01*
X173051D01*
Y113087D01*
X166949D01*
G37*
G36*
X181713Y119386D02*Y114662D01*
X188799D01*
Y119386D01*
X181713D01*
G37*
G36*
X104000Y104000D02*Y102000D01*
X112500D01*
Y104000D01*
X104000D01*
G37*
G36*
X107000D02*Y102000D01*
X115500D01*
Y104000D01*
X107000D01*
G37*
G36*
X102548Y94602D02*Y89484D01*
X108452D01*
Y94602D01*
X102548D01*
G37*
G36*
X104000Y109000D02*Y107000D01*
X112500D01*
Y109000D01*
X104000D01*
G37*
G36*
X107000D02*Y107000D01*
X115500D01*
Y109000D01*
X107000D01*
G37*
G36*
X104000Y114000D02*Y112000D01*
X112500D01*
Y114000D01*
X104000D01*
G37*
G36*
Y119000D02*Y117000D01*
X112500D01*
Y119000D01*
X104000D01*
G37*
G36*
X107000Y114000D02*Y112000D01*
X115500D01*
Y114000D01*
X107000D01*
G37*
G36*
Y119000D02*Y117000D01*
X115500D01*
Y119000D01*
X107000D01*
G37*
G36*
X112048Y94602D02*Y89484D01*
X117952D01*
Y94602D01*
X112048D01*
G37*
G36*
Y87516D02*Y82398D01*
X117952D01*
Y87516D01*
X112048D01*
G37*
G36*
X121548Y94602D02*Y89484D01*
X127452D01*
Y94602D01*
X121548D01*
G37*
G36*
Y87516D02*Y82398D01*
X127452D01*
Y87516D01*
X121548D01*
G37*
G36*
X102548D02*Y82398D01*
X108452D01*
Y87516D01*
X102548D01*
G37*
G36*
X91548Y94602D02*Y89484D01*
X97452D01*
Y94602D01*
X91548D01*
G37*
G36*
Y87516D02*Y82398D01*
X97452D01*
Y87516D01*
X91548D01*
G37*
G54D17*X350000Y455000D03*
Y20000D03*
G54D11*G36*
X341713Y232338D02*Y227614D01*
X348799D01*
Y232338D01*
X341713D01*
G37*
G36*
Y254386D02*Y249662D01*
X348799D01*
Y254386D01*
X341713D01*
G37*
G36*
Y97338D02*Y92614D01*
X348799D01*
Y97338D01*
X341713D01*
G37*
G36*
Y119386D02*Y114662D01*
X348799D01*
Y119386D01*
X341713D01*
G37*
G36*
X243516Y409952D02*X238398D01*
Y404048D01*
X243516D01*
Y409952D01*
G37*
G36*
X250602D02*X245484D01*
Y404048D01*
X250602D01*
Y409952D01*
G37*
G36*
X264725Y419165D02*X255275D01*
Y407825D01*
X264725D01*
Y419165D01*
G37*
G36*
X267796Y429874D02*X264016D01*
Y422000D01*
X267796D01*
Y429874D01*
G37*
G36*
X261890D02*X258110D01*
Y414284D01*
X261890D01*
Y429874D01*
G37*
G36*
X261885Y422005D02*X260465Y420585D01*
X263305Y417745D01*
X264725Y419165D01*
X261885Y422005D01*
G37*
G36*
X259535Y420585D02*X258115Y422005D01*
X255275Y419165D01*
X256695Y417745D01*
X259535Y420585D01*
G37*
G36*
X255984Y429874D02*X252204D01*
Y422000D01*
X255984D01*
Y429874D01*
G37*
G36*
X223250Y400250D02*X217750D01*
Y392750D01*
X223250D01*
Y400250D01*
G37*
G36*
X236250D02*X230750D01*
Y392750D01*
X236250D01*
Y400250D01*
G37*
G36*
X245000Y329700D02*Y327300D01*
X249000D01*
Y329700D01*
X245000D01*
G37*
G36*
X303249Y326800D02*Y322100D01*
X307950D01*
Y326800D01*
X303249D01*
G37*
G36*
X311050D02*Y322100D01*
X315751D01*
Y326800D01*
X311050D01*
G37*
G36*
X264000Y384000D02*Y382000D01*
X272500D01*
Y384000D01*
X264000D01*
G37*
G36*
X267000Y374000D02*Y372000D01*
X275500D01*
Y374000D01*
X267000D01*
G37*
G36*
Y379000D02*Y377000D01*
X275500D01*
Y379000D01*
X267000D01*
G37*
G36*
Y384000D02*Y382000D01*
X275500D01*
Y384000D01*
X267000D01*
G37*
G36*
X264000Y389000D02*Y387000D01*
X272500D01*
Y389000D01*
X264000D01*
G37*
G36*
X267000D02*Y387000D01*
X275500D01*
Y389000D01*
X267000D01*
G37*
G36*
X272048Y364602D02*Y359484D01*
X277952D01*
Y364602D01*
X272048D01*
G37*
G36*
Y357516D02*Y352398D01*
X277952D01*
Y357516D01*
X272048D01*
G37*
G36*
X281548Y364602D02*Y359484D01*
X287452D01*
Y364602D01*
X281548D01*
G37*
G36*
Y357516D02*Y352398D01*
X287452D01*
Y357516D01*
X281548D01*
G37*
G36*
X262548Y364602D02*Y359484D01*
X268452D01*
Y364602D01*
X262548D01*
G37*
G36*
X251548D02*Y359484D01*
X257452D01*
Y364602D01*
X251548D01*
G37*
G36*
X262548Y357516D02*Y352398D01*
X268452D01*
Y357516D01*
X262548D01*
G37*
G36*
X251548D02*Y352398D01*
X257452D01*
Y357516D01*
X251548D01*
G37*
G36*
X245000Y333600D02*Y331200D01*
X249000D01*
Y333600D01*
X245000D01*
G37*
G36*
X236800D02*Y331200D01*
X240800D01*
Y333600D01*
X236800D01*
G37*
G36*
Y329700D02*Y327300D01*
X240800D01*
Y329700D01*
X236800D01*
G37*
G36*
X245000Y337500D02*Y335100D01*
X249000D01*
Y337500D01*
X245000D01*
G37*
G36*
X236800D02*Y335100D01*
X240800D01*
Y337500D01*
X236800D01*
G37*
G36*
X243500Y389000D02*Y387000D01*
X252000D01*
Y389000D01*
X243500D01*
G37*
G36*
Y384000D02*Y382000D01*
X252000D01*
Y384000D01*
X243500D01*
G37*
G36*
Y379000D02*Y377000D01*
X252000D01*
Y379000D01*
X243500D01*
G37*
G36*
Y374000D02*Y372000D01*
X252000D01*
Y374000D01*
X243500D01*
G37*
G36*
X264000D02*Y372000D01*
X272500D01*
Y374000D01*
X264000D01*
G37*
G36*
Y379000D02*Y377000D01*
X272500D01*
Y379000D01*
X264000D01*
G37*
G36*
X240500Y389000D02*Y387000D01*
X249000D01*
Y389000D01*
X240500D01*
G37*
G36*
Y384000D02*Y382000D01*
X249000D01*
Y384000D01*
X240500D01*
G37*
G36*
Y379000D02*Y377000D01*
X249000D01*
Y379000D01*
X240500D01*
G37*
G36*
Y374000D02*Y372000D01*
X249000D01*
Y374000D01*
X240500D01*
G37*
G36*
X242548Y357516D02*Y352398D01*
X248452D01*
Y357516D01*
X242548D01*
G37*
G36*
Y364602D02*Y359484D01*
X248452D01*
Y364602D01*
X242548D01*
G37*
G36*
X306350Y340400D02*Y334100D01*
X312651D01*
Y340400D01*
X306350D01*
G37*
G36*
X326949Y371275D02*Y368913D01*
X333051D01*
Y371275D01*
X326949D01*
G37*
G36*
Y375212D02*Y372850D01*
X333051D01*
Y375212D01*
X326949D01*
G37*
G36*
Y379150D02*Y376788D01*
X333051D01*
Y379150D01*
X326949D01*
G37*
G36*
Y383087D02*Y380725D01*
X333051D01*
Y383087D01*
X326949D01*
G37*
G36*
X341713Y367338D02*Y362614D01*
X348799D01*
Y367338D01*
X341713D01*
G37*
G36*
Y389386D02*Y384662D01*
X348799D01*
Y389386D01*
X341713D01*
G37*
G36*
X283102Y412952D02*X277984D01*
Y407048D01*
X283102D01*
Y412952D01*
G37*
G36*
X276016D02*X270898D01*
Y407048D01*
X276016D01*
Y412952D01*
G37*
G54D18*X296500Y400000D03*
Y405000D03*
X301500Y400000D03*
Y405000D03*
X306500Y400000D03*
Y405000D03*
G54D11*G36*
X243516Y274952D02*X238398D01*
Y269048D01*
X243516D01*
Y274952D01*
G37*
G36*
X250602D02*X245484D01*
Y269048D01*
X250602D01*
Y274952D01*
G37*
G36*
X267796Y294874D02*X264016D01*
Y287000D01*
X267796D01*
Y294874D01*
G37*
G36*
X261890D02*X258110D01*
Y279284D01*
X261890D01*
Y294874D01*
G37*
G36*
X264725Y284165D02*X255275D01*
Y272825D01*
X264725D01*
Y284165D01*
G37*
G36*
X261885Y287005D02*X260465Y285585D01*
X263305Y282745D01*
X264725Y284165D01*
X261885Y287005D01*
G37*
G36*
X259535Y285585D02*X258115Y287005D01*
X255275Y284165D01*
X256695Y282745D01*
X259535Y285585D01*
G37*
G36*
X255984Y294874D02*X252204D01*
Y287000D01*
X255984D01*
Y294874D01*
G37*
G36*
X223250Y265250D02*X217750D01*
Y257750D01*
X223250D01*
Y265250D01*
G37*
G36*
X236250D02*X230750D01*
Y257750D01*
X236250D01*
Y265250D01*
G37*
G36*
X243500Y254000D02*Y252000D01*
X252000D01*
Y254000D01*
X243500D01*
G37*
G36*
X264000D02*Y252000D01*
X272500D01*
Y254000D01*
X264000D01*
G37*
G36*
X240500D02*Y252000D01*
X249000D01*
Y254000D01*
X240500D01*
G37*
G36*
X264000Y239000D02*Y237000D01*
X272500D01*
Y239000D01*
X264000D01*
G37*
G36*
Y244000D02*Y242000D01*
X272500D01*
Y244000D01*
X264000D01*
G37*
G36*
Y249000D02*Y247000D01*
X272500D01*
Y249000D01*
X264000D01*
G37*
G36*
X243500D02*Y247000D01*
X252000D01*
Y249000D01*
X243500D01*
G37*
G36*
Y244000D02*Y242000D01*
X252000D01*
Y244000D01*
X243500D01*
G37*
G36*
Y239000D02*Y237000D01*
X252000D01*
Y239000D01*
X243500D01*
G37*
G36*
X240500Y249000D02*Y247000D01*
X249000D01*
Y249000D01*
X240500D01*
G37*
G36*
Y244000D02*Y242000D01*
X249000D01*
Y244000D01*
X240500D01*
G37*
G36*
Y239000D02*Y237000D01*
X249000D01*
Y239000D01*
X240500D01*
G37*
G36*
X267000Y254000D02*Y252000D01*
X275500D01*
Y254000D01*
X267000D01*
G37*
G36*
X283102Y277952D02*X277984D01*
Y272048D01*
X283102D01*
Y277952D01*
G37*
G36*
X276016D02*X270898D01*
Y272048D01*
X276016D01*
Y277952D01*
G37*
G54D18*X296500Y265000D03*
Y270000D03*
X301500Y265000D03*
Y270000D03*
X306500Y265000D03*
Y270000D03*
G54D11*G36*
X245000Y194700D02*Y192300D01*
X249000D01*
Y194700D01*
X245000D01*
G37*
G36*
X303249Y191800D02*Y187100D01*
X307950D01*
Y191800D01*
X303249D01*
G37*
G36*
X311050D02*Y187100D01*
X315751D01*
Y191800D01*
X311050D01*
G37*
G36*
X306350Y205400D02*Y199100D01*
X312651D01*
Y205400D01*
X306350D01*
G37*
G36*
X326949Y236275D02*Y233913D01*
X333051D01*
Y236275D01*
X326949D01*
G37*
G36*
Y240212D02*Y237850D01*
X333051D01*
Y240212D01*
X326949D01*
G37*
G36*
Y244150D02*Y241788D01*
X333051D01*
Y244150D01*
X326949D01*
G37*
G36*
Y248087D02*Y245725D01*
X333051D01*
Y248087D01*
X326949D01*
G37*
G36*
X251548Y222516D02*Y217398D01*
X257452D01*
Y222516D01*
X251548D01*
G37*
G36*
X245000Y198600D02*Y196200D01*
X249000D01*
Y198600D01*
X245000D01*
G37*
G36*
X236800D02*Y196200D01*
X240800D01*
Y198600D01*
X236800D01*
G37*
G36*
Y194700D02*Y192300D01*
X240800D01*
Y194700D01*
X236800D01*
G37*
G36*
X245000Y202500D02*Y200100D01*
X249000D01*
Y202500D01*
X245000D01*
G37*
G36*
X236800D02*Y200100D01*
X240800D01*
Y202500D01*
X236800D01*
G37*
G36*
X242548Y222516D02*Y217398D01*
X248452D01*
Y222516D01*
X242548D01*
G37*
G36*
Y229602D02*Y224484D01*
X248452D01*
Y229602D01*
X242548D01*
G37*
G36*
X267000Y239000D02*Y237000D01*
X275500D01*
Y239000D01*
X267000D01*
G37*
G36*
Y244000D02*Y242000D01*
X275500D01*
Y244000D01*
X267000D01*
G37*
G36*
Y249000D02*Y247000D01*
X275500D01*
Y249000D01*
X267000D01*
G37*
G36*
X272048Y229602D02*Y224484D01*
X277952D01*
Y229602D01*
X272048D01*
G37*
G36*
Y222516D02*Y217398D01*
X277952D01*
Y222516D01*
X272048D01*
G37*
G36*
X281548Y229602D02*Y224484D01*
X287452D01*
Y229602D01*
X281548D01*
G37*
G36*
Y222516D02*Y217398D01*
X287452D01*
Y222516D01*
X281548D01*
G37*
G36*
X262548Y229602D02*Y224484D01*
X268452D01*
Y229602D01*
X262548D01*
G37*
G36*
Y222516D02*Y217398D01*
X268452D01*
Y222516D01*
X262548D01*
G37*
G36*
X251548Y229602D02*Y224484D01*
X257452D01*
Y229602D01*
X251548D01*
G37*
G36*
X243516Y139952D02*X238398D01*
Y134048D01*
X243516D01*
Y139952D01*
G37*
G36*
X223250Y130250D02*X217750D01*
Y122750D01*
X223250D01*
Y130250D01*
G37*
G36*
X236250D02*X230750D01*
Y122750D01*
X236250D01*
Y130250D01*
G37*
G36*
X250602Y139952D02*X245484D01*
Y134048D01*
X250602D01*
Y139952D01*
G37*
G36*
X264725Y149165D02*X255275D01*
Y137825D01*
X264725D01*
Y149165D01*
G37*
G36*
X283102Y142952D02*X277984D01*
Y137048D01*
X283102D01*
Y142952D01*
G37*
G36*
X276016D02*X270898D01*
Y137048D01*
X276016D01*
Y142952D01*
G37*
G36*
X267796Y159874D02*X264016D01*
Y152000D01*
X267796D01*
Y159874D01*
G37*
G36*
X261890D02*X258110D01*
Y144284D01*
X261890D01*
Y159874D01*
G37*
G36*
X261885Y152005D02*X260465Y150585D01*
X263305Y147745D01*
X264725Y149165D01*
X261885Y152005D01*
G37*
G36*
X259535Y150585D02*X258115Y152005D01*
X255275Y149165D01*
X256695Y147745D01*
X259535Y150585D01*
G37*
G36*
X255984Y159874D02*X252204D01*
Y152000D01*
X255984D01*
Y159874D01*
G37*
G54D18*X296500Y130000D03*
Y135000D03*
X301500D03*
X306500D03*
X301500Y130000D03*
X306500D03*
G54D11*G36*
X303249Y56800D02*Y52100D01*
X307950D01*
Y56800D01*
X303249D01*
G37*
G36*
X311050D02*Y52100D01*
X315751D01*
Y56800D01*
X311050D01*
G37*
G36*
X306350Y70400D02*Y64100D01*
X312651D01*
Y70400D01*
X306350D01*
G37*
G36*
X326949Y101275D02*Y98913D01*
X333051D01*
Y101275D01*
X326949D01*
G37*
G36*
Y105212D02*Y102850D01*
X333051D01*
Y105212D01*
X326949D01*
G37*
G36*
Y109150D02*Y106788D01*
X333051D01*
Y109150D01*
X326949D01*
G37*
G36*
Y113087D02*Y110725D01*
X333051D01*
Y113087D01*
X326949D01*
G37*
G36*
X243500Y119000D02*Y117000D01*
X252000D01*
Y119000D01*
X243500D01*
G37*
G36*
Y114000D02*Y112000D01*
X252000D01*
Y114000D01*
X243500D01*
G37*
G36*
Y109000D02*Y107000D01*
X252000D01*
Y109000D01*
X243500D01*
G37*
G36*
Y104000D02*Y102000D01*
X252000D01*
Y104000D01*
X243500D01*
G37*
G36*
X264000D02*Y102000D01*
X272500D01*
Y104000D01*
X264000D01*
G37*
G36*
Y109000D02*Y107000D01*
X272500D01*
Y109000D01*
X264000D01*
G37*
G36*
Y114000D02*Y112000D01*
X272500D01*
Y114000D01*
X264000D01*
G37*
G36*
X267000Y104000D02*Y102000D01*
X275500D01*
Y104000D01*
X267000D01*
G37*
G36*
Y109000D02*Y107000D01*
X275500D01*
Y109000D01*
X267000D01*
G37*
G36*
Y114000D02*Y112000D01*
X275500D01*
Y114000D01*
X267000D01*
G37*
G36*
X264000Y119000D02*Y117000D01*
X272500D01*
Y119000D01*
X264000D01*
G37*
G36*
X267000D02*Y117000D01*
X275500D01*
Y119000D01*
X267000D01*
G37*
G36*
X272048Y94602D02*Y89484D01*
X277952D01*
Y94602D01*
X272048D01*
G37*
G36*
X262548D02*Y89484D01*
X268452D01*
Y94602D01*
X262548D01*
G37*
G36*
X251548D02*Y89484D01*
X257452D01*
Y94602D01*
X251548D01*
G37*
G36*
X272048Y87516D02*Y82398D01*
X277952D01*
Y87516D01*
X272048D01*
G37*
G36*
X262548D02*Y82398D01*
X268452D01*
Y87516D01*
X262548D01*
G37*
G36*
X251548D02*Y82398D01*
X257452D01*
Y87516D01*
X251548D01*
G37*
G36*
X281548Y94602D02*Y89484D01*
X287452D01*
Y94602D01*
X281548D01*
G37*
G36*
Y87516D02*Y82398D01*
X287452D01*
Y87516D01*
X281548D01*
G37*
G36*
X245000Y59700D02*Y57300D01*
X249000D01*
Y59700D01*
X245000D01*
G37*
G36*
Y63600D02*Y61200D01*
X249000D01*
Y63600D01*
X245000D01*
G37*
G36*
Y67500D02*Y65100D01*
X249000D01*
Y67500D01*
X245000D01*
G37*
G36*
X236800D02*Y65100D01*
X240800D01*
Y67500D01*
X236800D01*
G37*
G36*
Y63600D02*Y61200D01*
X240800D01*
Y63600D01*
X236800D01*
G37*
G36*
Y59700D02*Y57300D01*
X240800D01*
Y59700D01*
X236800D01*
G37*
G36*
X240500Y119000D02*Y117000D01*
X249000D01*
Y119000D01*
X240500D01*
G37*
G36*
Y114000D02*Y112000D01*
X249000D01*
Y114000D01*
X240500D01*
G37*
G36*
Y109000D02*Y107000D01*
X249000D01*
Y109000D01*
X240500D01*
G37*
G36*
Y104000D02*Y102000D01*
X249000D01*
Y104000D01*
X240500D01*
G37*
G36*
X242548Y87516D02*Y82398D01*
X248452D01*
Y87516D01*
X242548D01*
G37*
G36*
Y94602D02*Y89484D01*
X248452D01*
Y94602D01*
X242548D01*
G37*
G54D14*X92500Y416000D03*
X94500Y368500D03*
Y373000D03*
X92500Y412000D03*
X94000Y405500D03*
X94500Y379000D03*
X107500Y416000D03*
X125000Y383000D03*
X121000Y378000D03*
X125000Y373000D03*
X107500Y412000D03*
X105500Y367500D03*
X100500Y384000D03*
X102000Y405500D03*
X106000D03*
X98000D03*
X94000Y328500D03*
Y332500D03*
Y336500D03*
X145500Y330500D03*
X79000Y344500D03*
Y340500D03*
X160000Y370094D03*
X163500D03*
X141500Y383000D03*
X137500Y378000D03*
X146500Y410500D03*
Y378000D03*
Y386000D03*
Y390500D03*
X267500Y277000D03*
X262000Y270500D03*
X266000D03*
X258000D03*
X260500Y249000D03*
X301500Y248000D03*
X306500Y275500D03*
Y251000D03*
Y255500D03*
X297500Y243000D03*
X306500D03*
X267500Y416000D03*
Y412000D03*
X266000Y405500D03*
X254000Y328500D03*
X239000Y344500D03*
X254000Y332500D03*
Y336500D03*
X239000Y340500D03*
X254500Y368500D03*
X265500Y367500D03*
X254500Y373000D03*
X252500Y412000D03*
X254000Y405500D03*
X258000D03*
X254500Y379000D03*
X260500Y384000D03*
X252500Y416000D03*
X262000Y405500D03*
X305500Y330500D03*
X306500Y410500D03*
X320000Y370094D03*
X301500Y383000D03*
X306500Y378000D03*
X323500Y370094D03*
X285000Y383000D03*
X281000Y378000D03*
X285000Y373000D03*
X297500Y378000D03*
X306500Y386000D03*
Y390500D03*
X320000Y235094D03*
X323500D03*
X254000Y193500D03*
X239000Y209500D03*
X254000Y197500D03*
Y201500D03*
X239000Y205500D03*
X252500Y281000D03*
X254500Y233500D03*
Y238000D03*
X252500Y277000D03*
X254000Y270500D03*
X254500Y244000D03*
X267500Y281000D03*
X265500Y232500D03*
X285000Y248000D03*
X281000Y243000D03*
X285000Y238000D03*
X94000Y193500D03*
X79000Y209500D03*
X94000Y197500D03*
Y201500D03*
X79000Y205500D03*
X92500Y281000D03*
Y277000D03*
X94000Y270500D03*
X94500Y244000D03*
X107500Y281000D03*
Y277000D03*
X102000Y270500D03*
X106000D03*
X98000D03*
X105500Y232500D03*
X100500Y249000D03*
X145500Y195500D03*
X146500Y120500D03*
X160000Y235094D03*
X163500D03*
X94500Y233500D03*
Y238000D03*
X125000Y248000D03*
X121000Y243000D03*
X125000Y238000D03*
X141500Y248000D03*
X137500Y243000D03*
X146500Y275500D03*
Y243000D03*
Y251000D03*
Y255500D03*
X94000Y58500D03*
X79000Y74500D03*
X94000Y62500D03*
Y66500D03*
X79000Y70500D03*
X92500Y146000D03*
X102000Y135500D03*
X92500Y142000D03*
X94000Y135500D03*
X98000D03*
X94500Y98500D03*
Y103000D03*
Y109000D03*
X100500Y114000D03*
X106000Y135500D03*
X105500Y97500D03*
X107500Y146000D03*
X146500Y140500D03*
X107500Y142000D03*
X125000Y113000D03*
X121000Y108000D03*
X125000Y103000D03*
X145500Y60500D03*
X160000Y100094D03*
X163500D03*
X141500Y113000D03*
X137500Y108000D03*
X146500D03*
Y116000D03*
X320000Y100094D03*
X323500D03*
X305500Y195500D03*
Y60500D03*
X306500Y140500D03*
X285000Y113000D03*
X281000Y108000D03*
X285000Y103000D03*
X301500Y113000D03*
X297500Y108000D03*
X306500D03*
Y116000D03*
Y120500D03*
X254000Y58500D03*
X239000Y74500D03*
X254000Y62500D03*
Y66500D03*
X239000Y70500D03*
X254500Y98500D03*
Y103000D03*
X265500Y97500D03*
X254500Y109000D03*
X252500Y146000D03*
Y142000D03*
X254000Y135500D03*
X267500Y146000D03*
Y142000D03*
X262000Y135500D03*
X266000D03*
X258000D03*
X260500Y114000D03*
G54D18*G54D19*G54D20*G54D19*G54D20*G54D19*G54D20*G54D19*G54D20*G54D19*G54D18*G54D19*G54D20*G54D19*G54D20*G54D19*G54D20*G54D18*G54D19*G54D20*G54D19*G54D20*G54D18*G54D19*G54D18*G54D19*G54D20*G54D19*G54D20*G54D18*G54D19*G54D18*G54D20*G54D19*G54D20*G54D18*G54D20*G54D19*G54D20*G54D19*G54D20*G54D19*G54D20*G54D18*G54D19*G54D20*G54D19*G54D20*G54D19*G54D20*G54D18*G54D19*G54D20*G54D19*G54D20*G54D19*G54D20*G54D18*G54D20*G54D19*G54D20*G54D19*G54D20*G54D19*G54D20*G54D21*G54D22*G54D21*G54D22*G54D21*G54D23*G54D22*G54D21*G54D22*G54D23*G54D21*G54D22*G54D23*G54D21*G54D22*G54D23*G54D21*G54D23*G54D21*G54D22*G54D21*G54D22*G54D21*G54D22*G54D21*G54D22*G54D21*G54D22*G54D23*G54D21*G54D23*G54D21*G54D22*G54D21*G54D22*G54D21*G54D22*M02*
