G04 #@! TF.GenerationSoftware,KiCad,Pcbnew,9.0.9-9.0.9~ubuntu24.04.1*
G04 #@! TF.CreationDate,2026-08-31T13:54:47-06:00*
G04 #@! TF.ProjectId,ckt-irsense-tiny2pc,636b742d-6972-4736-956e-73652d74696e,rev?*
G04 #@! TF.SameCoordinates,Original*
G04 #@! TF.FileFunction,Copper,L2,Bot*
G04 #@! TF.FilePolarity,Positive*
%FSLAX46Y46*%
G04 Gerber Fmt 4.6, Leading zero omitted, Abs format (unit mm)*
G04 Created by KiCad (PCBNEW 9.0.9-9.0.9~ubuntu24.04.1) date 2026-08-31 13:54:47*
%MOMM*%
%LPD*%
G01*
G04 APERTURE LIST*
G04 #@! TA.AperFunction,ConnectorPad*
%ADD10C,0.787400*%
G04 #@! TD*
G04 #@! TA.AperFunction,ViaPad*
%ADD11C,0.609600*%
G04 #@! TD*
G04 #@! TA.AperFunction,Conductor*
%ADD12C,0.254000*%
G04 #@! TD*
G04 APERTURE END LIST*
D10*
X53075584Y-30987999D03*
X51805584Y-30987999D03*
X53075584Y-32257999D03*
X51805584Y-32257999D03*
X53075584Y-33527999D03*
X51805584Y-33527999D03*
D11*
X42164000Y-32893000D03*
X39116000Y-32893000D03*
X31369000Y-31115000D03*
X30607000Y-31115000D03*
X27305000Y-36830000D03*
X62484000Y-36068000D03*
X49530000Y-36957000D03*
X33020000Y-36576000D03*
X42164000Y-32131000D03*
X27305000Y-26670000D03*
X61595000Y-26289000D03*
X42037000Y-29083000D03*
X39116000Y-34417000D03*
X26543000Y-26670000D03*
X40132000Y-29083000D03*
X57277000Y-32639000D03*
X57277000Y-31750000D03*
X33782000Y-36576000D03*
X39243000Y-29083000D03*
X62484000Y-36957000D03*
X39116000Y-32131000D03*
X26543000Y-36830000D03*
X62611000Y-26289000D03*
X41148000Y-29083000D03*
X50165000Y-35560000D03*
X48641000Y-36957000D03*
X51308000Y-29845000D03*
X54483000Y-31369000D03*
X50419000Y-29845000D03*
X46101000Y-31242000D03*
X48006000Y-30734000D03*
X54864000Y-32893000D03*
D12*
X51308000Y-30607000D02*
X51816000Y-31115000D01*
X51308000Y-29845000D02*
X51308000Y-30607000D01*
X53213000Y-32258000D02*
X53086000Y-32385000D01*
X54356000Y-32258000D02*
X53213000Y-32258000D01*
X54483000Y-31369000D02*
X54483000Y-32131000D01*
X54483000Y-32131000D02*
X54356000Y-32258000D01*
X50419000Y-29845000D02*
X50419000Y-31877000D01*
X50419000Y-31877000D02*
X50799999Y-32257999D01*
X50799999Y-32257999D02*
X51688999Y-32257999D01*
X48006000Y-30099000D02*
X48006000Y-30734000D01*
X53721000Y-30342583D02*
X53721000Y-29083000D01*
X53721000Y-29083000D02*
X53340000Y-28702000D01*
X49403000Y-28702000D02*
X48006000Y-30099000D01*
X53340000Y-28702000D02*
X49403000Y-28702000D01*
X46101000Y-31242000D02*
X46609000Y-30734000D01*
X53086000Y-30977583D02*
X53721000Y-30342583D01*
X46609000Y-30734000D02*
X48006000Y-30734000D01*
X54864000Y-32893000D02*
X54229001Y-33527999D01*
X54229001Y-33527999D02*
X53213001Y-33527999D01*
X53213001Y-33527999D02*
X53086000Y-33655000D01*
G04 #@! TA.AperFunction,Conductor*
G36*
X63062039Y-25800685D02*
G01*
X63107794Y-25853489D01*
X63119000Y-25905000D01*
X63119000Y-37595000D01*
X63099315Y-37662039D01*
X63046511Y-37707794D01*
X62995000Y-37719000D01*
X25905000Y-37719000D01*
X25837961Y-37699315D01*
X25792206Y-37646511D01*
X25781000Y-37595000D01*
X25781000Y-34724145D01*
X50674784Y-34724145D01*
X50674784Y-34871852D01*
X50703596Y-35016700D01*
X50703598Y-35016708D01*
X50760118Y-35153159D01*
X50760123Y-35153169D01*
X50842175Y-35275968D01*
X50842178Y-35275972D01*
X50946610Y-35380404D01*
X50946614Y-35380407D01*
X51069413Y-35462459D01*
X51069417Y-35462461D01*
X51069420Y-35462463D01*
X51205875Y-35518985D01*
X51350730Y-35547798D01*
X51350734Y-35547799D01*
X51350735Y-35547799D01*
X51498434Y-35547799D01*
X51498435Y-35547798D01*
X51643293Y-35518985D01*
X51779748Y-35462463D01*
X51902554Y-35380407D01*
X52006992Y-35275969D01*
X52089048Y-35153163D01*
X52145570Y-35016708D01*
X52174384Y-34871848D01*
X52174384Y-34724150D01*
X52145570Y-34579290D01*
X52089048Y-34442835D01*
X52089046Y-34442832D01*
X52089044Y-34442828D01*
X52006992Y-34320029D01*
X52006989Y-34320025D01*
X51902557Y-34215593D01*
X51902553Y-34215590D01*
X51779754Y-34133538D01*
X51779744Y-34133533D01*
X51643293Y-34077013D01*
X51643285Y-34077011D01*
X51498437Y-34048199D01*
X51498433Y-34048199D01*
X51350735Y-34048199D01*
X51350730Y-34048199D01*
X51205882Y-34077011D01*
X51205874Y-34077013D01*
X51069423Y-34133533D01*
X51069413Y-34133538D01*
X50946614Y-34215590D01*
X50946610Y-34215593D01*
X50842178Y-34320025D01*
X50842175Y-34320029D01*
X50760123Y-34442828D01*
X50760118Y-34442838D01*
X50703598Y-34579289D01*
X50703596Y-34579297D01*
X50674784Y-34724145D01*
X25781000Y-34724145D01*
X25781000Y-31168367D01*
X45541700Y-31168367D01*
X45541700Y-31315633D01*
X45575729Y-31442630D01*
X45579817Y-31457885D01*
X45599217Y-31491486D01*
X45653449Y-31585418D01*
X45757582Y-31689551D01*
X45847226Y-31741307D01*
X45885114Y-31763182D01*
X45885115Y-31763182D01*
X45885118Y-31763184D01*
X46027367Y-31801300D01*
X46027370Y-31801300D01*
X46174630Y-31801300D01*
X46174633Y-31801300D01*
X46316882Y-31763184D01*
X46444418Y-31689551D01*
X46548551Y-31585418D01*
X46622184Y-31457882D01*
X46660300Y-31315633D01*
X46660300Y-31273584D01*
X46668944Y-31244143D01*
X46675468Y-31214157D01*
X46679222Y-31209141D01*
X46679985Y-31206545D01*
X46696619Y-31185903D01*
X46730703Y-31151819D01*
X46792026Y-31118334D01*
X46818384Y-31115500D01*
X47545169Y-31115500D01*
X47612208Y-31135185D01*
X47632850Y-31151819D01*
X47662582Y-31181551D01*
X47733026Y-31222222D01*
X47790114Y-31255182D01*
X47790115Y-31255182D01*
X47790118Y-31255184D01*
X47932367Y-31293300D01*
X47932370Y-31293300D01*
X48079630Y-31293300D01*
X48079633Y-31293300D01*
X48221882Y-31255184D01*
X48349418Y-31181551D01*
X48453551Y-31077418D01*
X48527184Y-30949882D01*
X48565300Y-30807633D01*
X48565300Y-30660367D01*
X48527184Y-30518118D01*
X48453551Y-30390582D01*
X48441426Y-30378457D01*
X48407941Y-30317134D01*
X48412925Y-30247442D01*
X48441424Y-30203097D01*
X49524703Y-29119819D01*
X49586026Y-29086334D01*
X49612384Y-29083500D01*
X50159902Y-29083500D01*
X50226941Y-29103185D01*
X50272696Y-29155989D01*
X50282640Y-29225147D01*
X50253615Y-29288703D01*
X50207352Y-29322062D01*
X50203116Y-29323816D01*
X50075585Y-29397447D01*
X50075579Y-29397451D01*
X49971451Y-29501579D01*
X49971447Y-29501585D01*
X49897817Y-29629114D01*
X49897816Y-29629118D01*
X49859700Y-29771367D01*
X49859700Y-29918633D01*
X49897816Y-30060882D01*
X49897817Y-30060885D01*
X49904906Y-30073163D01*
X49971449Y-30188418D01*
X49971451Y-30188420D01*
X50001181Y-30218150D01*
X50034666Y-30279473D01*
X50037500Y-30305831D01*
X50037500Y-31927225D01*
X50056999Y-31999996D01*
X50063499Y-32024255D01*
X50063502Y-32024260D01*
X50089290Y-32068926D01*
X50113724Y-32111247D01*
X50565752Y-32563275D01*
X50652746Y-32613501D01*
X50749774Y-32639499D01*
X51219028Y-32639499D01*
X51286067Y-32659184D01*
X51306709Y-32675818D01*
X51392377Y-32761486D01*
X51392381Y-32761489D01*
X51498539Y-32832422D01*
X51498545Y-32832425D01*
X51498546Y-32832426D01*
X51616511Y-32881289D01*
X51668401Y-32891610D01*
X51705775Y-32899045D01*
X51767686Y-32931430D01*
X51802260Y-32992145D01*
X51805584Y-33020662D01*
X51805584Y-33527999D01*
X52312921Y-33527999D01*
X52379960Y-33547684D01*
X52425715Y-33600488D01*
X52434538Y-33627808D01*
X52452292Y-33717064D01*
X52452294Y-33717072D01*
X52501155Y-33835034D01*
X52501160Y-33835043D01*
X52572093Y-33941201D01*
X52572096Y-33941205D01*
X52662377Y-34031486D01*
X52662381Y-34031489D01*
X52768539Y-34102422D01*
X52768552Y-34102429D01*
X52826185Y-34126301D01*
X52880589Y-34170141D01*
X52902654Y-34236435D01*
X52885375Y-34304135D01*
X52874600Y-34319510D01*
X52874182Y-34320019D01*
X52792123Y-34442828D01*
X52792118Y-34442838D01*
X52735598Y-34579289D01*
X52735596Y-34579297D01*
X52706784Y-34724145D01*
X52706784Y-34871852D01*
X52735596Y-35016700D01*
X52735598Y-35016708D01*
X52792118Y-35153159D01*
X52792123Y-35153169D01*
X52874175Y-35275968D01*
X52874178Y-35275972D01*
X52978610Y-35380404D01*
X52978614Y-35380407D01*
X53101413Y-35462459D01*
X53101417Y-35462461D01*
X53101420Y-35462463D01*
X53237875Y-35518985D01*
X53382730Y-35547798D01*
X53382734Y-35547799D01*
X53382735Y-35547799D01*
X53530434Y-35547799D01*
X53530435Y-35547798D01*
X53675293Y-35518985D01*
X53811748Y-35462463D01*
X53934554Y-35380407D01*
X54038992Y-35275969D01*
X54121048Y-35153163D01*
X54177570Y-35016708D01*
X54206384Y-34871848D01*
X54206384Y-34724150D01*
X54177570Y-34579290D01*
X54121048Y-34442835D01*
X54121046Y-34442832D01*
X54121044Y-34442828D01*
X54038992Y-34320029D01*
X54038989Y-34320025D01*
X53934557Y-34215593D01*
X53934553Y-34215590D01*
X53816338Y-34136601D01*
X53771533Y-34082989D01*
X53762826Y-34013664D01*
X53792980Y-33950636D01*
X53852424Y-33913917D01*
X53885229Y-33909499D01*
X54279223Y-33909499D01*
X54279226Y-33909499D01*
X54376255Y-33883500D01*
X54463248Y-33833275D01*
X54534277Y-33762246D01*
X54534278Y-33762245D01*
X54807904Y-33488619D01*
X54869227Y-33455134D01*
X54895585Y-33452300D01*
X54937630Y-33452300D01*
X54937633Y-33452300D01*
X55079882Y-33414184D01*
X55207418Y-33340551D01*
X55311551Y-33236418D01*
X55385184Y-33108882D01*
X55423300Y-32966633D01*
X55423300Y-32819367D01*
X55385184Y-32677118D01*
X55384433Y-32675818D01*
X55363307Y-32639226D01*
X55311551Y-32549582D01*
X55207418Y-32445449D01*
X55183039Y-32431374D01*
X55079886Y-32371817D01*
X54951053Y-32337296D01*
X54891393Y-32300930D01*
X54860865Y-32238083D01*
X54863373Y-32185427D01*
X54864500Y-32181225D01*
X54864500Y-31829831D01*
X54884185Y-31762792D01*
X54900819Y-31742150D01*
X54930551Y-31712418D01*
X55004184Y-31584882D01*
X55042300Y-31442633D01*
X55042300Y-31295367D01*
X55004184Y-31153118D01*
X54993830Y-31135185D01*
X54982307Y-31115226D01*
X54930551Y-31025582D01*
X54826418Y-30921449D01*
X54766335Y-30886760D01*
X54698885Y-30847817D01*
X54698886Y-30847817D01*
X54674366Y-30841247D01*
X54556633Y-30809700D01*
X54409367Y-30809700D01*
X54291634Y-30841247D01*
X54267114Y-30847817D01*
X54139585Y-30921447D01*
X54139579Y-30921451D01*
X54035451Y-31025579D01*
X54035447Y-31025585D01*
X53961817Y-31153114D01*
X53961815Y-31153119D01*
X53940121Y-31234080D01*
X53937494Y-31238389D01*
X53935972Y-31249565D01*
X53923700Y-31295367D01*
X53923700Y-31442633D01*
X53961816Y-31584882D01*
X54022795Y-31690501D01*
X54039268Y-31758399D01*
X54016416Y-31824426D01*
X53961495Y-31867617D01*
X53915408Y-31876500D01*
X53662141Y-31876500D01*
X53636312Y-31868915D01*
X53609698Y-31864864D01*
X53600448Y-31858384D01*
X53595102Y-31856815D01*
X53580166Y-31845538D01*
X53577222Y-31842944D01*
X53488787Y-31754509D01*
X53439397Y-31721507D01*
X53433188Y-31716037D01*
X53418780Y-31693205D01*
X53401467Y-31672489D01*
X53400413Y-31664099D01*
X53395901Y-31656949D01*
X53396124Y-31629950D01*
X53392760Y-31603164D01*
X53396409Y-31595536D01*
X53396479Y-31587081D01*
X53411261Y-31564492D01*
X53422914Y-31540136D01*
X53432814Y-31531557D01*
X53434738Y-31528618D01*
X53437770Y-31527263D01*
X53446272Y-31519897D01*
X53463591Y-31508323D01*
X53488787Y-31491489D01*
X53579074Y-31401202D01*
X53650011Y-31295037D01*
X53698874Y-31177072D01*
X53718696Y-31077420D01*
X53723784Y-31051843D01*
X53723784Y-30930683D01*
X53743469Y-30863644D01*
X53760103Y-30843002D01*
X53848851Y-30754254D01*
X54026276Y-30576830D01*
X54076502Y-30489836D01*
X54102501Y-30392808D01*
X54102501Y-30292358D01*
X54102501Y-30284763D01*
X54102500Y-30284745D01*
X54102500Y-29032777D01*
X54102500Y-29032775D01*
X54076501Y-28935746D01*
X54026276Y-28848753D01*
X53955247Y-28777724D01*
X53955245Y-28777722D01*
X53574247Y-28396724D01*
X53487254Y-28346499D01*
X53487255Y-28346499D01*
X53462996Y-28339999D01*
X53390225Y-28320500D01*
X49352775Y-28320500D01*
X49280003Y-28339999D01*
X49255745Y-28346499D01*
X49168754Y-28396723D01*
X49168751Y-28396725D01*
X49097724Y-28467753D01*
X49097722Y-28467755D01*
X48429886Y-29135591D01*
X47754312Y-29811164D01*
X47754311Y-29811164D01*
X47754312Y-29811165D01*
X47700722Y-29864754D01*
X47650499Y-29951745D01*
X47650499Y-29951746D01*
X47624500Y-30048775D01*
X47624500Y-30048777D01*
X47624500Y-30228500D01*
X47604815Y-30295539D01*
X47552011Y-30341294D01*
X47500500Y-30352500D01*
X46558775Y-30352500D01*
X46486003Y-30371999D01*
X46461745Y-30378499D01*
X46374754Y-30428723D01*
X46374751Y-30428725D01*
X46303722Y-30499754D01*
X46303722Y-30499755D01*
X46157095Y-30646382D01*
X46095775Y-30679866D01*
X46069416Y-30682700D01*
X46027367Y-30682700D01*
X45896779Y-30717691D01*
X45885114Y-30720817D01*
X45757585Y-30794447D01*
X45757579Y-30794451D01*
X45653451Y-30898579D01*
X45653447Y-30898585D01*
X45579817Y-31026114D01*
X45579816Y-31026118D01*
X45541700Y-31168367D01*
X25781000Y-31168367D01*
X25781000Y-25905000D01*
X25800685Y-25837961D01*
X25853489Y-25792206D01*
X25905000Y-25781000D01*
X62995000Y-25781000D01*
X63062039Y-25800685D01*
G37*
G04 #@! TD.AperFunction*
M02*
