M48
INCH,TZ
T1C0.0120
%
G90
G05
T1
X10450Y-10500
X10450Y-14500
X10750Y-10500
X10750Y-14500
X12050Y-12250
X12350Y-12250
X13000Y-14400
X13300Y-14400
X15400Y-12650
X15400Y-12950
X15400Y-13550
X15450Y-11450
X15800Y-11450
X16200Y-11450
X16550Y-11450
X16600Y-12650
X16600Y-12950
X18150Y-12300
X18900Y-12100
X19150Y-14550
X19500Y-14550
X19750Y-14000
X19850Y-11750
X20200Y-11750
X21450Y-12350
X21600Y-12950
X22550Y-12500
X22550Y-12850
X24250Y-10350
X24600Y-14200
X24600Y-14550
X24650Y-10350
M30
