G04 start of page 9 for group -4079 idx -4079 *
G04 Title: (unknown), topsilk *
G04 Creator: pcb 4.0.2 *
G04 CreationDate: Thu Feb 25 03:30:48 2021 UTC *
G04 For: petersen *
G04 Format: Gerber/RS-274X *
G04 PCB-Dimensions (mil): 1500.00 4200.00 *
G04 PCB-Coordinate-Origin: lower left *
%MOIN*%
%FSLAX25Y25*%
%LNTOPSILK*%
%ADD34C,0.0100*%
%ADD33C,0.0080*%
G54D33*X61000Y274500D02*X131500D01*
Y250500D02*X61000D01*
Y239500D02*X131500D01*
Y215500D02*X61000D01*
Y204500D02*X131500D01*
Y180500D02*X61000D01*
Y169500D02*X131500D01*
Y145500D02*X61000D01*
Y134500D02*X131500D01*
Y110500D02*X61000D01*
Y99500D02*X131500D01*
Y75500D02*X61000D01*
Y64500D02*X131500D01*
Y40500D02*X61000D01*
Y29500D02*X131500D01*
Y5500D02*X61000D01*
X131500Y355500D02*X61000D01*
Y344500D02*X131500D01*
Y320500D02*X61000D01*
Y309500D02*X131500D01*
X61000Y414500D02*X131500D01*
Y390500D02*X61000D01*
Y379500D02*X131500D01*
Y285500D02*X61000D01*
X113500Y331240D02*X114260Y328200D01*
X115020Y331240D01*
X115040Y326230D02*X115425Y325845D01*
X113885Y326230D02*X115040D01*
X113500Y325845D02*X113885Y326230D01*
X113500Y325845D02*Y323535D01*
X113885Y323150D01*
X115040D01*
X115425Y323535D01*
Y324305D02*Y323535D01*
X115040Y324690D02*X115425Y324305D01*
X114270Y324690D02*X115040D01*
X113885Y301730D02*Y298650D01*
X114886Y301730D02*X115425Y301191D01*
Y299189D01*
X114886Y298650D02*X115425Y299189D01*
X113500Y298650D02*X114886D01*
X113500Y301730D02*X114886D01*
X114039Y303650D02*X115040D01*
X113500Y304189D02*X114039Y303650D01*
X113500Y306191D02*Y304189D01*
Y306191D02*X114039Y306730D01*
X115040D01*
X113885Y336730D02*Y333650D01*
X114886Y336730D02*X115425Y336191D01*
Y334189D01*
X114886Y333650D02*X115425Y334189D01*
X113500Y333650D02*X114886D01*
X113500Y336730D02*X114886D01*
X114039Y338650D02*X115040D01*
X113500Y339189D02*X114039Y338650D01*
X113500Y341191D02*Y339189D01*
Y341191D02*X114039Y341730D01*
X115040D01*
X113500Y296240D02*X114260Y293200D01*
X115020Y296240D01*
X115040Y291230D02*X115425Y290845D01*
X113885Y291230D02*X115040D01*
X113500Y290845D02*X113885Y291230D01*
X113500Y290845D02*Y288535D01*
X113885Y288150D01*
X115040D01*
X115425Y288535D01*
Y289305D02*Y288535D01*
X115040Y289690D02*X115425Y289305D01*
X114270Y289690D02*X115040D01*
X113500Y261240D02*X114260Y258200D01*
X115020Y261240D01*
X113885Y266730D02*Y263650D01*
X114886Y266730D02*X115425Y266191D01*
Y264189D01*
X114886Y263650D02*X115425Y264189D01*
X113500Y263650D02*X114886D01*
X113500Y266730D02*X114886D01*
X114039Y268650D02*X115040D01*
X113500Y269189D02*X114039Y268650D01*
X113500Y271191D02*Y269189D01*
Y271191D02*X114039Y271730D01*
X115040D01*
X113500Y366240D02*X114260Y363200D01*
X115020Y366240D01*
X113885Y371730D02*Y368650D01*
X114886Y371730D02*X115425Y371191D01*
Y369189D01*
X114886Y368650D02*X115425Y369189D01*
X113500Y368650D02*X114886D01*
X113500Y371730D02*X114886D01*
X114039Y373650D02*X115040D01*
X113500Y374189D02*X114039Y373650D01*
X113500Y376191D02*Y374189D01*
Y376191D02*X114039Y376730D01*
X115040D01*
X113500Y401240D02*X114260Y398200D01*
X115020Y401240D01*
X113885Y406730D02*Y403650D01*
X114886Y406730D02*X115425Y406191D01*
Y404189D01*
X114886Y403650D02*X115425Y404189D01*
X113500Y403650D02*X114886D01*
X113500Y406730D02*X114886D01*
X114039Y408650D02*X115040D01*
X113500Y409189D02*X114039Y408650D01*
X113500Y411191D02*Y409189D01*
Y411191D02*X114039Y411730D01*
X115040D01*
Y396230D02*X115425Y395845D01*
X113885Y396230D02*X115040D01*
X113500Y395845D02*X113885Y396230D01*
X113500Y395845D02*Y393535D01*
X113885Y393150D01*
X115040D01*
X115425Y393535D01*
Y394305D02*Y393535D01*
X115040Y394690D02*X115425Y394305D01*
X114270Y394690D02*X115040D01*
Y361230D02*X115425Y360845D01*
X113885Y361230D02*X115040D01*
X113500Y360845D02*X113885Y361230D01*
X113500Y360845D02*Y358535D01*
X113885Y358150D01*
X115040D01*
X115425Y358535D01*
Y359305D02*Y358535D01*
X115040Y359690D02*X115425Y359305D01*
X114270Y359690D02*X115040D01*
Y256230D02*X115425Y255845D01*
X113885Y256230D02*X115040D01*
X113500Y255845D02*X113885Y256230D01*
X113500Y255845D02*Y253535D01*
X113885Y253150D01*
X115040D01*
X115425Y253535D01*
Y254305D02*Y253535D01*
X115040Y254690D02*X115425Y254305D01*
X114270Y254690D02*X115040D01*
X113500Y226240D02*X114260Y223200D01*
X115020Y226240D01*
X113885Y231730D02*Y228650D01*
X114886Y231730D02*X115425Y231191D01*
Y229189D01*
X114886Y228650D02*X115425Y229189D01*
X113500Y228650D02*X114886D01*
X113500Y231730D02*X114886D01*
X114039Y233650D02*X115040D01*
X113500Y234189D02*X114039Y233650D01*
X113500Y236191D02*Y234189D01*
Y236191D02*X114039Y236730D01*
X115040D01*
Y221230D02*X115425Y220845D01*
X113885Y221230D02*X115040D01*
X113500Y220845D02*X113885Y221230D01*
X113500Y220845D02*Y218535D01*
X113885Y218150D01*
X115040D01*
X115425Y218535D01*
Y219305D02*Y218535D01*
X115040Y219690D02*X115425Y219305D01*
X114270Y219690D02*X115040D01*
X113500Y191240D02*X114260Y188200D01*
X115020Y191240D01*
X113885Y196730D02*Y193650D01*
X114886Y196730D02*X115425Y196191D01*
Y194189D01*
X114886Y193650D02*X115425Y194189D01*
X113500Y193650D02*X114886D01*
X113500Y196730D02*X114886D01*
X114039Y198650D02*X115040D01*
X113500Y199189D02*X114039Y198650D01*
X113500Y201191D02*Y199189D01*
Y201191D02*X114039Y201730D01*
X115040D01*
Y186230D02*X115425Y185845D01*
X113885Y186230D02*X115040D01*
X113500Y185845D02*X113885Y186230D01*
X113500Y185845D02*Y183535D01*
X113885Y183150D01*
X115040D01*
X115425Y183535D01*
Y184305D02*Y183535D01*
X115040Y184690D02*X115425Y184305D01*
X114270Y184690D02*X115040D01*
X113500Y156240D02*X114260Y153200D01*
X115020Y156240D01*
X115040Y151230D02*X115425Y150845D01*
X113885Y151230D02*X115040D01*
X113500Y150845D02*X113885Y151230D01*
X113500Y150845D02*Y148535D01*
X113885Y148150D01*
X115040D01*
X115425Y148535D01*
Y149305D02*Y148535D01*
X115040Y149690D02*X115425Y149305D01*
X114270Y149690D02*X115040D01*
X113885Y126730D02*Y123650D01*
X114886Y126730D02*X115425Y126191D01*
Y124189D01*
X114886Y123650D02*X115425Y124189D01*
X113500Y123650D02*X114886D01*
X113500Y126730D02*X114886D01*
X114039Y128650D02*X115040D01*
X113500Y129189D02*X114039Y128650D01*
X113500Y131191D02*Y129189D01*
Y131191D02*X114039Y131730D01*
X115040D01*
X113885Y161730D02*Y158650D01*
X114886Y161730D02*X115425Y161191D01*
Y159189D01*
X114886Y158650D02*X115425Y159189D01*
X113500Y158650D02*X114886D01*
X113500Y161730D02*X114886D01*
X114039Y163650D02*X115040D01*
X113500Y164189D02*X114039Y163650D01*
X113500Y166191D02*Y164189D01*
Y166191D02*X114039Y166730D01*
X115040D01*
X113500Y121240D02*X114260Y118200D01*
X115020Y121240D01*
X115040Y116230D02*X115425Y115845D01*
X113885Y116230D02*X115040D01*
X113500Y115845D02*X113885Y116230D01*
X113500Y115845D02*Y113535D01*
X113885Y113150D01*
X115040D01*
X115425Y113535D01*
Y114305D02*Y113535D01*
X115040Y114690D02*X115425Y114305D01*
X114270Y114690D02*X115040D01*
X113500Y86240D02*X114260Y83200D01*
X115020Y86240D01*
X113885Y91730D02*Y88650D01*
X114886Y91730D02*X115425Y91191D01*
Y89189D01*
X114886Y88650D02*X115425Y89189D01*
X113500Y88650D02*X114886D01*
X113500Y91730D02*X114886D01*
X114039Y93650D02*X115040D01*
X113500Y94189D02*X114039Y93650D01*
X113500Y96191D02*Y94189D01*
Y96191D02*X114039Y96730D01*
X115040D01*
Y81230D02*X115425Y80845D01*
X113885Y81230D02*X115040D01*
X113500Y80845D02*X113885Y81230D01*
X113500Y80845D02*Y78535D01*
X113885Y78150D01*
X115040D01*
X115425Y78535D01*
Y79305D02*Y78535D01*
X115040Y79690D02*X115425Y79305D01*
X114270Y79690D02*X115040D01*
X113500Y51240D02*X114260Y48200D01*
X115020Y51240D01*
X115040Y46230D02*X115425Y45845D01*
X113885Y46230D02*X115040D01*
X113500Y45845D02*X113885Y46230D01*
X113500Y45845D02*Y43535D01*
X113885Y43150D01*
X115040D01*
X115425Y43535D01*
Y44305D02*Y43535D01*
X115040Y44690D02*X115425Y44305D01*
X114270Y44690D02*X115040D01*
X113500Y16240D02*X114260Y13200D01*
X115020Y16240D01*
X113885Y21730D02*Y18650D01*
X114886Y21730D02*X115425Y21191D01*
Y19189D01*
X114886Y18650D02*X115425Y19189D01*
X113500Y18650D02*X114886D01*
X113500Y21730D02*X114886D01*
X114039Y23650D02*X115040D01*
X113500Y24189D02*X114039Y23650D01*
X113500Y26191D02*Y24189D01*
Y26191D02*X114039Y26730D01*
X115040D01*
Y11230D02*X115425Y10845D01*
X113885Y11230D02*X115040D01*
X113500Y10845D02*X113885Y11230D01*
X113500Y10845D02*Y8535D01*
X113885Y8150D01*
X115040D01*
X115425Y8535D01*
Y9305D02*Y8535D01*
X115040Y9690D02*X115425Y9305D01*
X114270Y9690D02*X115040D01*
X113885Y56730D02*Y53650D01*
X114886Y56730D02*X115425Y56191D01*
Y54189D01*
X114886Y53650D02*X115425Y54189D01*
X113500Y53650D02*X114886D01*
X113500Y56730D02*X114886D01*
X114039Y58650D02*X115040D01*
X113500Y59189D02*X114039Y58650D01*
X113500Y61191D02*Y59189D01*
Y61191D02*X114039Y61730D01*
X115040D01*
G54D34*X109755Y231893D02*Y231107D01*
X104245Y231893D02*Y231107D01*
X67837Y217732D02*G75*G03X67837Y217732I-500J0D01*G01*
X82745Y224393D02*Y223607D01*
X88255Y224393D02*Y223607D01*
X92245Y224393D02*Y223607D01*
X97755Y224393D02*Y223607D01*
X109755Y196893D02*Y196107D01*
X104245Y196893D02*Y196107D01*
X67837Y182732D02*G75*G03X67837Y182732I-500J0D01*G01*
X82745Y189393D02*Y188607D01*
X88255Y189393D02*Y188607D01*
X92245Y189393D02*Y188607D01*
X97755Y189393D02*Y188607D01*
X109755Y161893D02*Y161107D01*
X104245Y161893D02*Y161107D01*
X67837Y147732D02*G75*G03X67837Y147732I-500J0D01*G01*
X82745Y154393D02*Y153607D01*
X88255Y154393D02*Y153607D01*
X92245Y154393D02*Y153607D01*
X97755Y154393D02*Y153607D01*
X109755Y126893D02*Y126107D01*
X104245Y126893D02*Y126107D01*
X67837Y112732D02*G75*G03X67837Y112732I-500J0D01*G01*
X82745Y119393D02*Y118607D01*
X88255Y119393D02*Y118607D01*
X92245Y119393D02*Y118607D01*
X97755Y119393D02*Y118607D01*
X109755Y91893D02*Y91107D01*
X104245Y91893D02*Y91107D01*
X67837Y77732D02*G75*G03X67837Y77732I-500J0D01*G01*
X82745Y84393D02*Y83607D01*
X88255Y84393D02*Y83607D01*
X92245Y84393D02*Y83607D01*
X97755Y84393D02*Y83607D01*
X109755Y56893D02*Y56107D01*
X104245Y56893D02*Y56107D01*
X67837Y42732D02*G75*G03X67837Y42732I-500J0D01*G01*
X82745Y49393D02*Y48607D01*
X88255Y49393D02*Y48607D01*
X92245Y49393D02*Y48607D01*
X97755Y49393D02*Y48607D01*
X67837Y7732D02*G75*G03X67837Y7732I-500J0D01*G01*
X82745Y14393D02*Y13607D01*
X88255Y14393D02*Y13607D01*
X92245Y14393D02*Y13607D01*
X97755Y14393D02*Y13607D01*
X109755Y21893D02*Y21107D01*
X104245Y21893D02*Y21107D01*
X109755Y371893D02*Y371107D01*
X104245Y371893D02*Y371107D01*
X109755Y336893D02*Y336107D01*
X104245Y336893D02*Y336107D01*
X109755Y301893D02*Y301107D01*
X104245Y301893D02*Y301107D01*
X67837Y322732D02*G75*G03X67837Y322732I-500J0D01*G01*
X82745Y329393D02*Y328607D01*
X88255Y329393D02*Y328607D01*
X92245Y329393D02*Y328607D01*
X97755Y329393D02*Y328607D01*
X92245Y399393D02*Y398607D01*
X97755Y399393D02*Y398607D01*
X109755Y406893D02*Y406107D01*
X104245Y406893D02*Y406107D01*
X67837Y392732D02*G75*G03X67837Y392732I-500J0D01*G01*
X82745Y399393D02*Y398607D01*
X88255Y399393D02*Y398607D01*
X67837Y357732D02*G75*G03X67837Y357732I-500J0D01*G01*
X82745Y364393D02*Y363607D01*
X88255Y364393D02*Y363607D01*
X92245Y364393D02*Y363607D01*
X97755Y364393D02*Y363607D01*
X67837Y287732D02*G75*G03X67837Y287732I-500J0D01*G01*
X82745Y294393D02*Y293607D01*
X88255Y294393D02*Y293607D01*
X92245Y294393D02*Y293607D01*
X97755Y294393D02*Y293607D01*
X109755Y266893D02*Y266107D01*
X104245Y266893D02*Y266107D01*
X67837Y252732D02*G75*G03X67837Y252732I-500J0D01*G01*
X82745Y259393D02*Y258607D01*
X88255Y259393D02*Y258607D01*
X92245Y259393D02*Y258607D01*
X97755Y259393D02*Y258607D01*
G54D33*X107250Y359960D02*Y358621D01*
X106529Y357900D02*X107250Y358621D01*
X103851Y357900D02*X106529D01*
X103851D02*X103130Y358621D01*
Y359960D02*Y358621D01*
X103954Y361196D02*X103130Y362020D01*
X107250D01*
Y362741D02*Y361196D01*
Y324960D02*Y323621D01*
X106529Y322900D02*X107250Y323621D01*
X103851Y322900D02*X106529D01*
X103851D02*X103130Y323621D01*
Y324960D02*Y323621D01*
X103954Y326196D02*X103130Y327020D01*
X107250D01*
Y327741D02*Y326196D01*
Y289960D02*Y288621D01*
X106529Y287900D02*X107250Y288621D01*
X103851Y287900D02*X106529D01*
X103851D02*X103130Y288621D01*
Y289960D02*Y288621D01*
X103954Y291196D02*X103130Y292020D01*
X107250D01*
Y292741D02*Y291196D01*
Y254960D02*Y253621D01*
X106529Y252900D02*X107250Y253621D01*
X103851Y252900D02*X106529D01*
X103851D02*X103130Y253621D01*
Y254960D02*Y253621D01*
X103954Y256196D02*X103130Y257020D01*
X107250D01*
Y257741D02*Y256196D01*
X132000Y367000D02*Y366200D01*
Y367000D02*X135500D01*
X136000Y366500D02*X135500Y367000D01*
X136000Y366500D02*Y366000D01*
X135500Y365500D02*X136000Y366000D01*
X135000Y365500D02*X135500D01*
X132800Y368200D02*X132000Y369000D01*
X136000D01*
Y369700D02*Y368200D01*
X132000Y332000D02*Y331200D01*
Y332000D02*X135500D01*
X136000Y331500D02*X135500Y332000D01*
X136000Y331500D02*Y331000D01*
X135500Y330500D02*X136000Y331000D01*
X135000Y330500D02*X135500D01*
X132800Y333200D02*X132000Y334000D01*
X136000D01*
Y334700D02*Y333200D01*
X132000Y297000D02*Y296200D01*
Y297000D02*X135500D01*
X136000Y296500D02*X135500Y297000D01*
X136000Y296500D02*Y296000D01*
X135500Y295500D02*X136000Y296000D01*
X135000Y295500D02*X135500D01*
X132800Y298200D02*X132000Y299000D01*
X136000D01*
Y299700D02*Y298200D01*
X132000Y262000D02*Y261200D01*
Y262000D02*X135500D01*
X136000Y261500D02*X135500Y262000D01*
X136000Y261500D02*Y261000D01*
X135500Y260500D02*X136000Y261000D01*
X135000Y260500D02*X135500D01*
X132800Y263200D02*X132000Y264000D01*
X136000D01*
Y264700D02*Y263200D01*
X132000Y227000D02*Y226200D01*
Y227000D02*X135500D01*
X136000Y226500D02*X135500Y227000D01*
X136000Y226500D02*Y226000D01*
X135500Y225500D02*X136000Y226000D01*
X135000Y225500D02*X135500D01*
X132800Y228200D02*X132000Y229000D01*
X136000D01*
Y229700D02*Y228200D01*
X132000Y192000D02*Y191200D01*
Y192000D02*X135500D01*
X136000Y191500D02*X135500Y192000D01*
X136000Y191500D02*Y191000D01*
X135500Y190500D02*X136000Y191000D01*
X135000Y190500D02*X135500D01*
X132800Y193200D02*X132000Y194000D01*
X136000D01*
Y194700D02*Y193200D01*
X87357Y339343D02*Y338043D01*
X86657Y337343D02*X87357Y338043D01*
X84057Y337343D02*X86657D01*
X84057D02*X83357Y338043D01*
Y339343D02*Y338043D01*
X83857Y340543D02*X83357Y341043D01*
Y342543D02*Y341043D01*
Y342543D02*X83857Y343043D01*
X84857D01*
X87357Y340543D02*X84857Y343043D01*
X87357D02*Y340543D01*
X93000Y339500D02*Y337500D01*
Y339500D02*X93500Y340000D01*
X94500D01*
X95000Y339500D02*X94500Y340000D01*
X95000Y339500D02*Y338000D01*
X93000D02*X97000D01*
X95000Y338800D02*X97000Y340000D01*
X93800Y341200D02*X93000Y342000D01*
X97000D01*
Y342700D02*Y341200D01*
X87357Y304343D02*Y303043D01*
X86657Y302343D02*X87357Y303043D01*
X84057Y302343D02*X86657D01*
X84057D02*X83357Y303043D01*
Y304343D02*Y303043D01*
X83857Y305543D02*X83357Y306043D01*
Y307543D02*Y306043D01*
Y307543D02*X83857Y308043D01*
X84857D01*
X87357Y305543D02*X84857Y308043D01*
X87357D02*Y305543D01*
X93000Y304500D02*Y302500D01*
Y304500D02*X93500Y305000D01*
X94500D01*
X95000Y304500D02*X94500Y305000D01*
X95000Y304500D02*Y303000D01*
X93000D02*X97000D01*
X95000Y303800D02*X97000Y305000D01*
X93800Y306200D02*X93000Y307000D01*
X97000D01*
Y307700D02*Y306200D01*
X132000Y157000D02*Y156200D01*
Y157000D02*X135500D01*
X136000Y156500D02*X135500Y157000D01*
X136000Y156500D02*Y156000D01*
X135500Y155500D02*X136000Y156000D01*
X135000Y155500D02*X135500D01*
X132800Y158200D02*X132000Y159000D01*
X136000D01*
Y159700D02*Y158200D01*
X132000Y122000D02*Y121200D01*
Y122000D02*X135500D01*
X136000Y121500D02*X135500Y122000D01*
X136000Y121500D02*Y121000D01*
X135500Y120500D02*X136000Y121000D01*
X135000Y120500D02*X135500D01*
X132800Y123200D02*X132000Y124000D01*
X136000D01*
Y124700D02*Y123200D01*
X132000Y87000D02*Y86200D01*
Y87000D02*X135500D01*
X136000Y86500D02*X135500Y87000D01*
X136000Y86500D02*Y86000D01*
X135500Y85500D02*X136000Y86000D01*
X135000Y85500D02*X135500D01*
X132800Y88200D02*X132000Y89000D01*
X136000D01*
Y89700D02*Y88200D01*
X132000Y52000D02*Y51200D01*
Y52000D02*X135500D01*
X136000Y51500D02*X135500Y52000D01*
X136000Y51500D02*Y51000D01*
X135500Y50500D02*X136000Y51000D01*
X135000Y50500D02*X135500D01*
X132800Y53200D02*X132000Y54000D01*
X136000D01*
Y54700D02*Y53200D01*
X132000Y17000D02*Y16200D01*
Y17000D02*X135500D01*
X136000Y16500D02*X135500Y17000D01*
X136000Y16500D02*Y16000D01*
X135500Y15500D02*X136000Y16000D01*
X135000Y15500D02*X135500D01*
X132800Y18200D02*X132000Y19000D01*
X136000D01*
Y19700D02*Y18200D01*
X107250Y394960D02*Y393621D01*
X106529Y392900D02*X107250Y393621D01*
X103851Y392900D02*X106529D01*
X103851D02*X103130Y393621D01*
Y394960D02*Y393621D01*
X103954Y396196D02*X103130Y397020D01*
X107250D01*
Y397741D02*Y396196D01*
X132000Y402000D02*Y401200D01*
Y402000D02*X135500D01*
X136000Y401500D02*X135500Y402000D01*
X136000Y401500D02*Y401000D01*
X135500Y400500D02*X136000Y401000D01*
X135000Y400500D02*X135500D01*
X132800Y403200D02*X132000Y404000D01*
X136000D01*
Y404700D02*Y403200D01*
X87357Y374343D02*Y373043D01*
X86657Y372343D02*X87357Y373043D01*
X84057Y372343D02*X86657D01*
X84057D02*X83357Y373043D01*
Y374343D02*Y373043D01*
X83857Y375543D02*X83357Y376043D01*
Y377543D02*Y376043D01*
Y377543D02*X83857Y378043D01*
X84857D01*
X87357Y375543D02*X84857Y378043D01*
X87357D02*Y375543D01*
X93000Y374500D02*Y372500D01*
Y374500D02*X93500Y375000D01*
X94500D01*
X95000Y374500D02*X94500Y375000D01*
X95000Y374500D02*Y373000D01*
X93000D02*X97000D01*
X95000Y373800D02*X97000Y375000D01*
X93800Y376200D02*X93000Y377000D01*
X97000D01*
Y377700D02*Y376200D01*
X87357Y409343D02*Y408043D01*
X86657Y407343D02*X87357Y408043D01*
X84057Y407343D02*X86657D01*
X84057D02*X83357Y408043D01*
Y409343D02*Y408043D01*
X83857Y410543D02*X83357Y411043D01*
Y412543D02*Y411043D01*
Y412543D02*X83857Y413043D01*
X84857D01*
X87357Y410543D02*X84857Y413043D01*
X87357D02*Y410543D01*
X93000Y409500D02*Y407500D01*
Y409500D02*X93500Y410000D01*
X94500D01*
X95000Y409500D02*X94500Y410000D01*
X95000Y409500D02*Y408000D01*
X93000D02*X97000D01*
X95000Y408800D02*X97000Y410000D01*
X93800Y411200D02*X93000Y412000D01*
X97000D01*
Y412700D02*Y411200D01*
X87357Y269343D02*Y268043D01*
X86657Y267343D02*X87357Y268043D01*
X84057Y267343D02*X86657D01*
X84057D02*X83357Y268043D01*
Y269343D02*Y268043D01*
X83857Y270543D02*X83357Y271043D01*
Y272543D02*Y271043D01*
Y272543D02*X83857Y273043D01*
X84857D01*
X87357Y270543D02*X84857Y273043D01*
X87357D02*Y270543D01*
X93000Y269500D02*Y267500D01*
Y269500D02*X93500Y270000D01*
X94500D01*
X95000Y269500D02*X94500Y270000D01*
X95000Y269500D02*Y268000D01*
X93000D02*X97000D01*
X95000Y268800D02*X97000Y270000D01*
X93800Y271200D02*X93000Y272000D01*
X97000D01*
Y272700D02*Y271200D01*
X87357Y234343D02*Y233043D01*
X86657Y232343D02*X87357Y233043D01*
X84057Y232343D02*X86657D01*
X84057D02*X83357Y233043D01*
Y234343D02*Y233043D01*
X83857Y235543D02*X83357Y236043D01*
Y237543D02*Y236043D01*
Y237543D02*X83857Y238043D01*
X84857D01*
X87357Y235543D02*X84857Y238043D01*
X87357D02*Y235543D01*
X93000Y234500D02*Y232500D01*
Y234500D02*X93500Y235000D01*
X94500D01*
X95000Y234500D02*X94500Y235000D01*
X95000Y234500D02*Y233000D01*
X93000D02*X97000D01*
X95000Y233800D02*X97000Y235000D01*
X93800Y236200D02*X93000Y237000D01*
X97000D01*
Y237700D02*Y236200D01*
X107250Y219960D02*Y218621D01*
X106529Y217900D02*X107250Y218621D01*
X103851Y217900D02*X106529D01*
X103851D02*X103130Y218621D01*
Y219960D02*Y218621D01*
X103954Y221196D02*X103130Y222020D01*
X107250D01*
Y222741D02*Y221196D01*
Y184960D02*Y183621D01*
X106529Y182900D02*X107250Y183621D01*
X103851Y182900D02*X106529D01*
X103851D02*X103130Y183621D01*
Y184960D02*Y183621D01*
X103954Y186196D02*X103130Y187020D01*
X107250D01*
Y187741D02*Y186196D01*
X87357Y199343D02*Y198043D01*
X86657Y197343D02*X87357Y198043D01*
X84057Y197343D02*X86657D01*
X84057D02*X83357Y198043D01*
Y199343D02*Y198043D01*
X83857Y200543D02*X83357Y201043D01*
Y202543D02*Y201043D01*
Y202543D02*X83857Y203043D01*
X84857D01*
X87357Y200543D02*X84857Y203043D01*
X87357D02*Y200543D01*
X93000Y199500D02*Y197500D01*
Y199500D02*X93500Y200000D01*
X94500D01*
X95000Y199500D02*X94500Y200000D01*
X95000Y199500D02*Y198000D01*
X93000D02*X97000D01*
X95000Y198800D02*X97000Y200000D01*
X93800Y201200D02*X93000Y202000D01*
X97000D01*
Y202700D02*Y201200D01*
X87357Y164343D02*Y163043D01*
X86657Y162343D02*X87357Y163043D01*
X84057Y162343D02*X86657D01*
X84057D02*X83357Y163043D01*
Y164343D02*Y163043D01*
X83857Y165543D02*X83357Y166043D01*
Y167543D02*Y166043D01*
Y167543D02*X83857Y168043D01*
X84857D01*
X87357Y165543D02*X84857Y168043D01*
X87357D02*Y165543D01*
X93000Y164500D02*Y162500D01*
Y164500D02*X93500Y165000D01*
X94500D01*
X95000Y164500D02*X94500Y165000D01*
X95000Y164500D02*Y163000D01*
X93000D02*X97000D01*
X95000Y163800D02*X97000Y165000D01*
X93800Y166200D02*X93000Y167000D01*
X97000D01*
Y167700D02*Y166200D01*
X107250Y149960D02*Y148621D01*
X106529Y147900D02*X107250Y148621D01*
X103851Y147900D02*X106529D01*
X103851D02*X103130Y148621D01*
Y149960D02*Y148621D01*
X103954Y151196D02*X103130Y152020D01*
X107250D01*
Y152741D02*Y151196D01*
Y114960D02*Y113621D01*
X106529Y112900D02*X107250Y113621D01*
X103851Y112900D02*X106529D01*
X103851D02*X103130Y113621D01*
Y114960D02*Y113621D01*
X103954Y116196D02*X103130Y117020D01*
X107250D01*
Y117741D02*Y116196D01*
Y79960D02*Y78621D01*
X106529Y77900D02*X107250Y78621D01*
X103851Y77900D02*X106529D01*
X103851D02*X103130Y78621D01*
Y79960D02*Y78621D01*
X103954Y81196D02*X103130Y82020D01*
X107250D01*
Y82741D02*Y81196D01*
Y44960D02*Y43621D01*
X106529Y42900D02*X107250Y43621D01*
X103851Y42900D02*X106529D01*
X103851D02*X103130Y43621D01*
Y44960D02*Y43621D01*
X103954Y46196D02*X103130Y47020D01*
X107250D01*
Y47741D02*Y46196D01*
Y9960D02*Y8621D01*
X106529Y7900D02*X107250Y8621D01*
X103851Y7900D02*X106529D01*
X103851D02*X103130Y8621D01*
Y9960D02*Y8621D01*
X103954Y11196D02*X103130Y12020D01*
X107250D01*
Y12741D02*Y11196D01*
X87357Y129343D02*Y128043D01*
X86657Y127343D02*X87357Y128043D01*
X84057Y127343D02*X86657D01*
X84057D02*X83357Y128043D01*
Y129343D02*Y128043D01*
X83857Y130543D02*X83357Y131043D01*
Y132543D02*Y131043D01*
Y132543D02*X83857Y133043D01*
X84857D01*
X87357Y130543D02*X84857Y133043D01*
X87357D02*Y130543D01*
X93000Y129500D02*Y127500D01*
Y129500D02*X93500Y130000D01*
X94500D01*
X95000Y129500D02*X94500Y130000D01*
X95000Y129500D02*Y128000D01*
X93000D02*X97000D01*
X95000Y128800D02*X97000Y130000D01*
X93800Y131200D02*X93000Y132000D01*
X97000D01*
Y132700D02*Y131200D01*
X87357Y94343D02*Y93043D01*
X86657Y92343D02*X87357Y93043D01*
X84057Y92343D02*X86657D01*
X84057D02*X83357Y93043D01*
Y94343D02*Y93043D01*
X83857Y95543D02*X83357Y96043D01*
Y97543D02*Y96043D01*
Y97543D02*X83857Y98043D01*
X84857D01*
X87357Y95543D02*X84857Y98043D01*
X87357D02*Y95543D01*
X93000Y94500D02*Y92500D01*
Y94500D02*X93500Y95000D01*
X94500D01*
X95000Y94500D02*X94500Y95000D01*
X95000Y94500D02*Y93000D01*
X93000D02*X97000D01*
X95000Y93800D02*X97000Y95000D01*
X93800Y96200D02*X93000Y97000D01*
X97000D01*
Y97700D02*Y96200D01*
X87357Y59343D02*Y58043D01*
X86657Y57343D02*X87357Y58043D01*
X84057Y57343D02*X86657D01*
X84057D02*X83357Y58043D01*
Y59343D02*Y58043D01*
X83857Y60543D02*X83357Y61043D01*
Y62543D02*Y61043D01*
Y62543D02*X83857Y63043D01*
X84857D01*
X87357Y60543D02*X84857Y63043D01*
X87357D02*Y60543D01*
X93000Y59500D02*Y57500D01*
Y59500D02*X93500Y60000D01*
X94500D01*
X95000Y59500D02*X94500Y60000D01*
X95000Y59500D02*Y58000D01*
X93000D02*X97000D01*
X95000Y58800D02*X97000Y60000D01*
X93800Y61200D02*X93000Y62000D01*
X97000D01*
Y62700D02*Y61200D01*
X87357Y24343D02*Y23043D01*
X86657Y22343D02*X87357Y23043D01*
X84057Y22343D02*X86657D01*
X84057D02*X83357Y23043D01*
Y24343D02*Y23043D01*
X83857Y25543D02*X83357Y26043D01*
Y27543D02*Y26043D01*
Y27543D02*X83857Y28043D01*
X84857D01*
X87357Y25543D02*X84857Y28043D01*
X87357D02*Y25543D01*
X93000Y24500D02*Y22500D01*
Y24500D02*X93500Y25000D01*
X94500D01*
X95000Y24500D02*X94500Y25000D01*
X95000Y24500D02*Y23000D01*
X93000D02*X97000D01*
X95000Y23800D02*X97000Y25000D01*
X93800Y26200D02*X93000Y27000D01*
X97000D01*
Y27700D02*Y26200D01*
M02*
