G04 start of page 10 for group -4078 idx -4078 *
G04 Title: (unknown), bottomsilk *
G04 Creator: pcb 4.0.2 *
G04 CreationDate: Thu Feb 25 03:30:48 2021 UTC *
G04 For: petersen *
G04 Format: Gerber/RS-274X *
G04 PCB-Dimensions (mil): 1500.00 4200.00 *
G04 PCB-Coordinate-Origin: lower left *
%MOIN*%
%FSLAX25Y25*%
%LNBOTTOMSILK*%
%ADD35C,0.0080*%
G54D35*X139500Y320500D02*X61000D01*
X139500Y344500D02*Y320500D01*
Y309500D02*Y285500D01*
X61000Y309500D02*X139500D01*
Y285500D02*X61000D01*
Y274500D02*X139500D01*
X61000Y379500D02*X139500D01*
Y355500D02*X61000D01*
X139500Y379500D02*Y355500D01*
X61000Y344500D02*X139500D01*
X61000Y414500D02*X139500D01*
Y390500D02*X61000D01*
X139500Y414500D02*Y390500D01*
Y250500D02*X61000D01*
X139500Y274500D02*Y250500D01*
X61000Y239500D02*X139500D01*
Y215500D02*X61000D01*
X139500Y239500D02*Y215500D01*
X61000Y204500D02*X139500D01*
Y180500D02*X61000D01*
X139500Y204500D02*Y180500D01*
X61000Y169500D02*X139500D01*
Y145500D02*X61000D01*
X139500Y169500D02*Y145500D01*
X61000Y134500D02*X139500D01*
Y110500D02*X61000D01*
X139500Y134500D02*Y110500D01*
Y29500D02*Y5500D01*
X61000Y99500D02*X139500D01*
Y75500D02*X61000D01*
X139500Y99500D02*Y75500D01*
X61000Y64500D02*X139500D01*
Y40500D02*X61000D01*
X139500Y64500D02*Y40500D01*
X61000Y29500D02*X139500D01*
Y5500D02*X61000D01*
X74500Y252500D02*X75500D01*
X75000D02*Y256500D01*
X74500D02*X75500D01*
X76700Y253000D02*Y256000D01*
Y253000D02*X77200Y252500D01*
X78200D01*
X78700Y253000D01*
Y256000D01*
X78200Y256500D02*X78700Y256000D01*
X77200Y256500D02*X78200D01*
X76700Y256000D02*X77200Y256500D01*
X79900Y252500D02*Y254500D01*
X80400Y256500D01*
X81400Y254500D01*
X82400Y256500D01*
X82900Y254500D01*
Y252500D02*Y254500D01*
X84100Y253500D02*Y256500D01*
Y253500D02*X84800Y252500D01*
X85900D01*
X86600Y253500D01*
Y256500D01*
X84100Y254500D02*X86600D01*
X91600Y252500D02*X92100Y253000D01*
X90100Y252500D02*X91600D01*
X89600Y253000D02*X90100Y252500D01*
X89600Y253000D02*Y254000D01*
X90100Y254500D01*
X91600D01*
X92100Y255000D01*
Y256000D01*
X91600Y256500D02*X92100Y256000D01*
X90100Y256500D02*X91600D01*
X89600Y256000D02*X90100Y256500D01*
X94000D02*X95300D01*
X93300Y255800D02*X94000Y256500D01*
X93300Y253200D02*Y255800D01*
Y253200D02*X94000Y252500D01*
X95300D01*
X96500Y253500D02*Y256500D01*
Y253500D02*X97200Y252500D01*
X98300D01*
X99000Y253500D01*
Y256500D01*
X96500Y254500D02*X99000D01*
X100200Y252500D02*Y256500D01*
X102200D01*
X103400Y254300D02*X104900D01*
X103400Y256500D02*X105400D01*
X103400Y252500D02*Y256500D01*
Y252500D02*X105400D01*
X107100D02*Y256500D01*
X108400Y252500D02*X109100Y253200D01*
Y255800D01*
X108400Y256500D02*X109100Y255800D01*
X106600Y256500D02*X108400D01*
X106600Y252500D02*X108400D01*
X112100Y254300D02*X113600D01*
X112100Y256500D02*X114100D01*
X112100Y252500D02*Y256500D01*
Y252500D02*X114100D01*
X115300D02*Y256500D01*
Y252500D02*X117800Y256500D01*
Y252500D02*Y256500D01*
X121000Y252500D02*X121500Y253000D01*
X119500Y252500D02*X121000D01*
X119000Y253000D02*X119500Y252500D01*
X119000Y253000D02*Y256000D01*
X119500Y256500D01*
X121000D01*
X121500Y256000D01*
Y255000D02*Y256000D01*
X121000Y254500D02*X121500Y255000D01*
X120000Y254500D02*X121000D01*
X74500Y217500D02*X75500D01*
X75000D02*Y221500D01*
X74500D02*X75500D01*
X76700Y218000D02*Y221000D01*
Y218000D02*X77200Y217500D01*
X78200D01*
X78700Y218000D01*
Y221000D01*
X78200Y221500D02*X78700Y221000D01*
X77200Y221500D02*X78200D01*
X76700Y221000D02*X77200Y221500D01*
X79900Y217500D02*Y219500D01*
X80400Y221500D01*
X81400Y219500D01*
X82400Y221500D01*
X82900Y219500D01*
Y217500D02*Y219500D01*
X84100Y218500D02*Y221500D01*
Y218500D02*X84800Y217500D01*
X85900D01*
X86600Y218500D01*
Y221500D01*
X84100Y219500D02*X86600D01*
X91600Y217500D02*X92100Y218000D01*
X90100Y217500D02*X91600D01*
X89600Y218000D02*X90100Y217500D01*
X89600Y218000D02*Y219000D01*
X90100Y219500D01*
X91600D01*
X92100Y220000D01*
Y221000D01*
X91600Y221500D02*X92100Y221000D01*
X90100Y221500D02*X91600D01*
X89600Y221000D02*X90100Y221500D01*
X94000D02*X95300D01*
X93300Y220800D02*X94000Y221500D01*
X93300Y218200D02*Y220800D01*
Y218200D02*X94000Y217500D01*
X95300D01*
X96500Y218500D02*Y221500D01*
Y218500D02*X97200Y217500D01*
X98300D01*
X99000Y218500D01*
Y221500D01*
X96500Y219500D02*X99000D01*
X100200Y217500D02*Y221500D01*
X102200D01*
X103400Y219300D02*X104900D01*
X103400Y221500D02*X105400D01*
X103400Y217500D02*Y221500D01*
Y217500D02*X105400D01*
X107100D02*Y221500D01*
X108400Y217500D02*X109100Y218200D01*
Y220800D01*
X108400Y221500D02*X109100Y220800D01*
X106600Y221500D02*X108400D01*
X106600Y217500D02*X108400D01*
X112100Y219300D02*X113600D01*
X112100Y221500D02*X114100D01*
X112100Y217500D02*Y221500D01*
Y217500D02*X114100D01*
X115300D02*Y221500D01*
Y217500D02*X117800Y221500D01*
Y217500D02*Y221500D01*
X121000Y217500D02*X121500Y218000D01*
X119500Y217500D02*X121000D01*
X119000Y218000D02*X119500Y217500D01*
X119000Y218000D02*Y221000D01*
X119500Y221500D01*
X121000D01*
X121500Y221000D01*
Y220000D02*Y221000D01*
X121000Y219500D02*X121500Y220000D01*
X120000Y219500D02*X121000D01*
X74500Y182500D02*X75500D01*
X75000D02*Y186500D01*
X74500D02*X75500D01*
X76700Y183000D02*Y186000D01*
Y183000D02*X77200Y182500D01*
X78200D01*
X78700Y183000D01*
Y186000D01*
X78200Y186500D02*X78700Y186000D01*
X77200Y186500D02*X78200D01*
X76700Y186000D02*X77200Y186500D01*
X79900Y182500D02*Y184500D01*
X80400Y186500D01*
X81400Y184500D01*
X82400Y186500D01*
X82900Y184500D01*
Y182500D02*Y184500D01*
X84100Y183500D02*Y186500D01*
Y183500D02*X84800Y182500D01*
X85900D01*
X86600Y183500D01*
Y186500D01*
X84100Y184500D02*X86600D01*
X91600Y182500D02*X92100Y183000D01*
X90100Y182500D02*X91600D01*
X89600Y183000D02*X90100Y182500D01*
X89600Y183000D02*Y184000D01*
X90100Y184500D01*
X91600D01*
X92100Y185000D01*
Y186000D01*
X91600Y186500D02*X92100Y186000D01*
X90100Y186500D02*X91600D01*
X89600Y186000D02*X90100Y186500D01*
X94000D02*X95300D01*
X93300Y185800D02*X94000Y186500D01*
X93300Y183200D02*Y185800D01*
Y183200D02*X94000Y182500D01*
X95300D01*
X96500Y183500D02*Y186500D01*
Y183500D02*X97200Y182500D01*
X98300D01*
X99000Y183500D01*
Y186500D01*
X96500Y184500D02*X99000D01*
X100200Y182500D02*Y186500D01*
X102200D01*
X103400Y184300D02*X104900D01*
X103400Y186500D02*X105400D01*
X103400Y182500D02*Y186500D01*
Y182500D02*X105400D01*
X107100D02*Y186500D01*
X108400Y182500D02*X109100Y183200D01*
Y185800D01*
X108400Y186500D02*X109100Y185800D01*
X106600Y186500D02*X108400D01*
X106600Y182500D02*X108400D01*
X112100Y184300D02*X113600D01*
X112100Y186500D02*X114100D01*
X112100Y182500D02*Y186500D01*
Y182500D02*X114100D01*
X115300D02*Y186500D01*
Y182500D02*X117800Y186500D01*
Y182500D02*Y186500D01*
X121000Y182500D02*X121500Y183000D01*
X119500Y182500D02*X121000D01*
X119000Y183000D02*X119500Y182500D01*
X119000Y183000D02*Y186000D01*
X119500Y186500D01*
X121000D01*
X121500Y186000D01*
Y185000D02*Y186000D01*
X121000Y184500D02*X121500Y185000D01*
X120000Y184500D02*X121000D01*
X74500Y198500D02*X75500D01*
X75000D02*Y202500D01*
X74500D02*X75500D01*
X76700Y199000D02*X77200Y198500D01*
X78700D01*
X79200Y199000D01*
Y200000D01*
X76700Y202500D02*X79200Y200000D01*
X76700Y202500D02*X79200D01*
X81100D02*X82400D01*
X80400Y201800D02*X81100Y202500D01*
X80400Y199200D02*Y201800D01*
Y199200D02*X81100Y198500D01*
X82400D01*
X83600Y200500D02*X85600D01*
X86800Y198500D02*X87800D01*
X87300D02*Y202500D01*
X86800D02*X87800D01*
X89000Y198500D02*X91000D01*
X91500Y199000D01*
Y200000D01*
X91000Y200500D02*X91500Y200000D01*
X89500Y200500D02*X91000D01*
X89500Y198500D02*Y202500D01*
X90300Y200500D02*X91500Y202500D01*
X94700Y198500D02*X95200Y199000D01*
X93200Y198500D02*X94700D01*
X92700Y199000D02*X93200Y198500D01*
X92700Y199000D02*Y200000D01*
X93200Y200500D01*
X94700D01*
X95200Y201000D01*
Y202000D01*
X94700Y202500D02*X95200Y202000D01*
X93200Y202500D02*X94700D01*
X92700Y202000D02*X93200Y202500D01*
X96400Y200300D02*X97900D01*
X96400Y202500D02*X98400D01*
X96400Y198500D02*Y202500D01*
Y198500D02*X98400D01*
X99600D02*Y202500D01*
Y198500D02*X102100Y202500D01*
Y198500D02*Y202500D01*
X105300Y198500D02*X105800Y199000D01*
X103800Y198500D02*X105300D01*
X103300Y199000D02*X103800Y198500D01*
X103300Y199000D02*Y200000D01*
X103800Y200500D01*
X105300D01*
X105800Y201000D01*
Y202000D01*
X105300Y202500D02*X105800Y202000D01*
X103800Y202500D02*X105300D01*
X103300Y202000D02*X103800Y202500D01*
X107000Y200300D02*X108500D01*
X107000Y202500D02*X109000D01*
X107000Y198500D02*Y202500D01*
Y198500D02*X109000D01*
X112000Y200500D02*X113000Y202500D01*
X114000Y200500D02*X113000Y202500D01*
X115200Y199000D02*X115700Y198500D01*
X117200D01*
X117700Y199000D01*
Y200000D01*
X115200Y202500D02*X117700Y200000D01*
X115200Y202500D02*X117700D01*
X118900D02*X119400D01*
X120600Y199300D02*X121400Y198500D01*
Y202500D01*
X120600D02*X122100D01*
X74500Y233500D02*X75500D01*
X75000D02*Y237500D01*
X74500D02*X75500D01*
X76700Y234000D02*X77200Y233500D01*
X78700D01*
X79200Y234000D01*
Y235000D01*
X76700Y237500D02*X79200Y235000D01*
X76700Y237500D02*X79200D01*
X81100D02*X82400D01*
X80400Y236800D02*X81100Y237500D01*
X80400Y234200D02*Y236800D01*
Y234200D02*X81100Y233500D01*
X82400D01*
X83600Y235500D02*X85600D01*
X86800Y233500D02*X87800D01*
X87300D02*Y237500D01*
X86800D02*X87800D01*
X89000Y233500D02*X91000D01*
X91500Y234000D01*
Y235000D01*
X91000Y235500D02*X91500Y235000D01*
X89500Y235500D02*X91000D01*
X89500Y233500D02*Y237500D01*
X90300Y235500D02*X91500Y237500D01*
X94700Y233500D02*X95200Y234000D01*
X93200Y233500D02*X94700D01*
X92700Y234000D02*X93200Y233500D01*
X92700Y234000D02*Y235000D01*
X93200Y235500D01*
X94700D01*
X95200Y236000D01*
Y237000D01*
X94700Y237500D02*X95200Y237000D01*
X93200Y237500D02*X94700D01*
X92700Y237000D02*X93200Y237500D01*
X96400Y235300D02*X97900D01*
X96400Y237500D02*X98400D01*
X96400Y233500D02*Y237500D01*
Y233500D02*X98400D01*
X99600D02*Y237500D01*
Y233500D02*X102100Y237500D01*
Y233500D02*Y237500D01*
X105300Y233500D02*X105800Y234000D01*
X103800Y233500D02*X105300D01*
X103300Y234000D02*X103800Y233500D01*
X103300Y234000D02*Y235000D01*
X103800Y235500D01*
X105300D01*
X105800Y236000D01*
Y237000D01*
X105300Y237500D02*X105800Y237000D01*
X103800Y237500D02*X105300D01*
X103300Y237000D02*X103800Y237500D01*
X107000Y235300D02*X108500D01*
X107000Y237500D02*X109000D01*
X107000Y233500D02*Y237500D01*
Y233500D02*X109000D01*
X112000Y235500D02*X113000Y237500D01*
X114000Y235500D02*X113000Y237500D01*
X115200Y234000D02*X115700Y233500D01*
X117200D01*
X117700Y234000D01*
Y235000D01*
X115200Y237500D02*X117700Y235000D01*
X115200Y237500D02*X117700D01*
X118900D02*X119400D01*
X120600Y234300D02*X121400Y233500D01*
Y237500D01*
X120600D02*X122100D01*
X74500Y147500D02*X75500D01*
X75000D02*Y151500D01*
X74500D02*X75500D01*
X76700Y148000D02*Y151000D01*
Y148000D02*X77200Y147500D01*
X78200D01*
X78700Y148000D01*
Y151000D01*
X78200Y151500D02*X78700Y151000D01*
X77200Y151500D02*X78200D01*
X76700Y151000D02*X77200Y151500D01*
X79900Y147500D02*Y149500D01*
X80400Y151500D01*
X81400Y149500D01*
X82400Y151500D01*
X82900Y149500D01*
Y147500D02*Y149500D01*
X84100Y148500D02*Y151500D01*
Y148500D02*X84800Y147500D01*
X85900D01*
X86600Y148500D01*
Y151500D01*
X84100Y149500D02*X86600D01*
X91600Y147500D02*X92100Y148000D01*
X90100Y147500D02*X91600D01*
X89600Y148000D02*X90100Y147500D01*
X89600Y148000D02*Y149000D01*
X90100Y149500D01*
X91600D01*
X92100Y150000D01*
Y151000D01*
X91600Y151500D02*X92100Y151000D01*
X90100Y151500D02*X91600D01*
X89600Y151000D02*X90100Y151500D01*
X94000D02*X95300D01*
X93300Y150800D02*X94000Y151500D01*
X93300Y148200D02*Y150800D01*
Y148200D02*X94000Y147500D01*
X95300D01*
X96500Y148500D02*Y151500D01*
Y148500D02*X97200Y147500D01*
X98300D01*
X99000Y148500D01*
Y151500D01*
X96500Y149500D02*X99000D01*
X100200Y147500D02*Y151500D01*
X102200D01*
X103400Y149300D02*X104900D01*
X103400Y151500D02*X105400D01*
X103400Y147500D02*Y151500D01*
Y147500D02*X105400D01*
X107100D02*Y151500D01*
X108400Y147500D02*X109100Y148200D01*
Y150800D01*
X108400Y151500D02*X109100Y150800D01*
X106600Y151500D02*X108400D01*
X106600Y147500D02*X108400D01*
X112100Y149300D02*X113600D01*
X112100Y151500D02*X114100D01*
X112100Y147500D02*Y151500D01*
Y147500D02*X114100D01*
X115300D02*Y151500D01*
Y147500D02*X117800Y151500D01*
Y147500D02*Y151500D01*
X121000Y147500D02*X121500Y148000D01*
X119500Y147500D02*X121000D01*
X119000Y148000D02*X119500Y147500D01*
X119000Y148000D02*Y151000D01*
X119500Y151500D01*
X121000D01*
X121500Y151000D01*
Y150000D02*Y151000D01*
X121000Y149500D02*X121500Y150000D01*
X120000Y149500D02*X121000D01*
X74500Y163500D02*X75500D01*
X75000D02*Y167500D01*
X74500D02*X75500D01*
X76700Y164000D02*X77200Y163500D01*
X78700D01*
X79200Y164000D01*
Y165000D01*
X76700Y167500D02*X79200Y165000D01*
X76700Y167500D02*X79200D01*
X81100D02*X82400D01*
X80400Y166800D02*X81100Y167500D01*
X80400Y164200D02*Y166800D01*
Y164200D02*X81100Y163500D01*
X82400D01*
X83600Y165500D02*X85600D01*
X86800Y163500D02*X87800D01*
X87300D02*Y167500D01*
X86800D02*X87800D01*
X89000Y163500D02*X91000D01*
X91500Y164000D01*
Y165000D01*
X91000Y165500D02*X91500Y165000D01*
X89500Y165500D02*X91000D01*
X89500Y163500D02*Y167500D01*
X90300Y165500D02*X91500Y167500D01*
X94700Y163500D02*X95200Y164000D01*
X93200Y163500D02*X94700D01*
X92700Y164000D02*X93200Y163500D01*
X92700Y164000D02*Y165000D01*
X93200Y165500D01*
X94700D01*
X95200Y166000D01*
Y167000D01*
X94700Y167500D02*X95200Y167000D01*
X93200Y167500D02*X94700D01*
X92700Y167000D02*X93200Y167500D01*
X96400Y165300D02*X97900D01*
X96400Y167500D02*X98400D01*
X96400Y163500D02*Y167500D01*
Y163500D02*X98400D01*
X99600D02*Y167500D01*
Y163500D02*X102100Y167500D01*
Y163500D02*Y167500D01*
X105300Y163500D02*X105800Y164000D01*
X103800Y163500D02*X105300D01*
X103300Y164000D02*X103800Y163500D01*
X103300Y164000D02*Y165000D01*
X103800Y165500D01*
X105300D01*
X105800Y166000D01*
Y167000D01*
X105300Y167500D02*X105800Y167000D01*
X103800Y167500D02*X105300D01*
X103300Y167000D02*X103800Y167500D01*
X107000Y165300D02*X108500D01*
X107000Y167500D02*X109000D01*
X107000Y163500D02*Y167500D01*
Y163500D02*X109000D01*
X112000Y165500D02*X113000Y167500D01*
X114000Y165500D02*X113000Y167500D01*
X115200Y164000D02*X115700Y163500D01*
X117200D01*
X117700Y164000D01*
Y165000D01*
X115200Y167500D02*X117700Y165000D01*
X115200Y167500D02*X117700D01*
X118900D02*X119400D01*
X120600Y164300D02*X121400Y163500D01*
Y167500D01*
X120600D02*X122100D01*
X74500Y112500D02*X75500D01*
X75000D02*Y116500D01*
X74500D02*X75500D01*
X76700Y113000D02*Y116000D01*
Y113000D02*X77200Y112500D01*
X78200D01*
X78700Y113000D01*
Y116000D01*
X78200Y116500D02*X78700Y116000D01*
X77200Y116500D02*X78200D01*
X76700Y116000D02*X77200Y116500D01*
X79900Y112500D02*Y114500D01*
X80400Y116500D01*
X81400Y114500D01*
X82400Y116500D01*
X82900Y114500D01*
Y112500D02*Y114500D01*
X84100Y113500D02*Y116500D01*
Y113500D02*X84800Y112500D01*
X85900D01*
X86600Y113500D01*
Y116500D01*
X84100Y114500D02*X86600D01*
X91600Y112500D02*X92100Y113000D01*
X90100Y112500D02*X91600D01*
X89600Y113000D02*X90100Y112500D01*
X89600Y113000D02*Y114000D01*
X90100Y114500D01*
X91600D01*
X92100Y115000D01*
Y116000D01*
X91600Y116500D02*X92100Y116000D01*
X90100Y116500D02*X91600D01*
X89600Y116000D02*X90100Y116500D01*
X94000D02*X95300D01*
X93300Y115800D02*X94000Y116500D01*
X93300Y113200D02*Y115800D01*
Y113200D02*X94000Y112500D01*
X95300D01*
X96500Y113500D02*Y116500D01*
Y113500D02*X97200Y112500D01*
X98300D01*
X99000Y113500D01*
Y116500D01*
X96500Y114500D02*X99000D01*
X100200Y112500D02*Y116500D01*
X102200D01*
X103400Y114300D02*X104900D01*
X103400Y116500D02*X105400D01*
X103400Y112500D02*Y116500D01*
Y112500D02*X105400D01*
X107100D02*Y116500D01*
X108400Y112500D02*X109100Y113200D01*
Y115800D01*
X108400Y116500D02*X109100Y115800D01*
X106600Y116500D02*X108400D01*
X106600Y112500D02*X108400D01*
X112100Y114300D02*X113600D01*
X112100Y116500D02*X114100D01*
X112100Y112500D02*Y116500D01*
Y112500D02*X114100D01*
X115300D02*Y116500D01*
Y112500D02*X117800Y116500D01*
Y112500D02*Y116500D01*
X121000Y112500D02*X121500Y113000D01*
X119500Y112500D02*X121000D01*
X119000Y113000D02*X119500Y112500D01*
X119000Y113000D02*Y116000D01*
X119500Y116500D01*
X121000D01*
X121500Y116000D01*
Y115000D02*Y116000D01*
X121000Y114500D02*X121500Y115000D01*
X120000Y114500D02*X121000D01*
X74500Y128500D02*X75500D01*
X75000D02*Y132500D01*
X74500D02*X75500D01*
X76700Y129000D02*X77200Y128500D01*
X78700D01*
X79200Y129000D01*
Y130000D01*
X76700Y132500D02*X79200Y130000D01*
X76700Y132500D02*X79200D01*
X81100D02*X82400D01*
X80400Y131800D02*X81100Y132500D01*
X80400Y129200D02*Y131800D01*
Y129200D02*X81100Y128500D01*
X82400D01*
X83600Y130500D02*X85600D01*
X86800Y128500D02*X87800D01*
X87300D02*Y132500D01*
X86800D02*X87800D01*
X89000Y128500D02*X91000D01*
X91500Y129000D01*
Y130000D01*
X91000Y130500D02*X91500Y130000D01*
X89500Y130500D02*X91000D01*
X89500Y128500D02*Y132500D01*
X90300Y130500D02*X91500Y132500D01*
X94700Y128500D02*X95200Y129000D01*
X93200Y128500D02*X94700D01*
X92700Y129000D02*X93200Y128500D01*
X92700Y129000D02*Y130000D01*
X93200Y130500D01*
X94700D01*
X95200Y131000D01*
Y132000D01*
X94700Y132500D02*X95200Y132000D01*
X93200Y132500D02*X94700D01*
X92700Y132000D02*X93200Y132500D01*
X96400Y130300D02*X97900D01*
X96400Y132500D02*X98400D01*
X96400Y128500D02*Y132500D01*
Y128500D02*X98400D01*
X99600D02*Y132500D01*
Y128500D02*X102100Y132500D01*
Y128500D02*Y132500D01*
X105300Y128500D02*X105800Y129000D01*
X103800Y128500D02*X105300D01*
X103300Y129000D02*X103800Y128500D01*
X103300Y129000D02*Y130000D01*
X103800Y130500D01*
X105300D01*
X105800Y131000D01*
Y132000D01*
X105300Y132500D02*X105800Y132000D01*
X103800Y132500D02*X105300D01*
X103300Y132000D02*X103800Y132500D01*
X107000Y130300D02*X108500D01*
X107000Y132500D02*X109000D01*
X107000Y128500D02*Y132500D01*
Y128500D02*X109000D01*
X112000Y130500D02*X113000Y132500D01*
X114000Y130500D02*X113000Y132500D01*
X115200Y129000D02*X115700Y128500D01*
X117200D01*
X117700Y129000D01*
Y130000D01*
X115200Y132500D02*X117700Y130000D01*
X115200Y132500D02*X117700D01*
X118900D02*X119400D01*
X120600Y129300D02*X121400Y128500D01*
Y132500D01*
X120600D02*X122100D01*
X74500Y77500D02*X75500D01*
X75000D02*Y81500D01*
X74500D02*X75500D01*
X76700Y78000D02*Y81000D01*
Y78000D02*X77200Y77500D01*
X78200D01*
X78700Y78000D01*
Y81000D01*
X78200Y81500D02*X78700Y81000D01*
X77200Y81500D02*X78200D01*
X76700Y81000D02*X77200Y81500D01*
X79900Y77500D02*Y79500D01*
X80400Y81500D01*
X81400Y79500D01*
X82400Y81500D01*
X82900Y79500D01*
Y77500D02*Y79500D01*
X84100Y78500D02*Y81500D01*
Y78500D02*X84800Y77500D01*
X85900D01*
X86600Y78500D01*
Y81500D01*
X84100Y79500D02*X86600D01*
X91600Y77500D02*X92100Y78000D01*
X90100Y77500D02*X91600D01*
X89600Y78000D02*X90100Y77500D01*
X89600Y78000D02*Y79000D01*
X90100Y79500D01*
X91600D01*
X92100Y80000D01*
Y81000D01*
X91600Y81500D02*X92100Y81000D01*
X90100Y81500D02*X91600D01*
X89600Y81000D02*X90100Y81500D01*
X94000D02*X95300D01*
X93300Y80800D02*X94000Y81500D01*
X93300Y78200D02*Y80800D01*
Y78200D02*X94000Y77500D01*
X95300D01*
X96500Y78500D02*Y81500D01*
Y78500D02*X97200Y77500D01*
X98300D01*
X99000Y78500D01*
Y81500D01*
X96500Y79500D02*X99000D01*
X100200Y77500D02*Y81500D01*
X102200D01*
X103400Y79300D02*X104900D01*
X103400Y81500D02*X105400D01*
X103400Y77500D02*Y81500D01*
Y77500D02*X105400D01*
X107100D02*Y81500D01*
X108400Y77500D02*X109100Y78200D01*
Y80800D01*
X108400Y81500D02*X109100Y80800D01*
X106600Y81500D02*X108400D01*
X106600Y77500D02*X108400D01*
X112100Y79300D02*X113600D01*
X112100Y81500D02*X114100D01*
X112100Y77500D02*Y81500D01*
Y77500D02*X114100D01*
X115300D02*Y81500D01*
Y77500D02*X117800Y81500D01*
Y77500D02*Y81500D01*
X121000Y77500D02*X121500Y78000D01*
X119500Y77500D02*X121000D01*
X119000Y78000D02*X119500Y77500D01*
X119000Y78000D02*Y81000D01*
X119500Y81500D01*
X121000D01*
X121500Y81000D01*
Y80000D02*Y81000D01*
X121000Y79500D02*X121500Y80000D01*
X120000Y79500D02*X121000D01*
X74500Y42500D02*X75500D01*
X75000D02*Y46500D01*
X74500D02*X75500D01*
X76700Y43000D02*Y46000D01*
Y43000D02*X77200Y42500D01*
X78200D01*
X78700Y43000D01*
Y46000D01*
X78200Y46500D02*X78700Y46000D01*
X77200Y46500D02*X78200D01*
X76700Y46000D02*X77200Y46500D01*
X79900Y42500D02*Y44500D01*
X80400Y46500D01*
X81400Y44500D01*
X82400Y46500D01*
X82900Y44500D01*
Y42500D02*Y44500D01*
X84100Y43500D02*Y46500D01*
Y43500D02*X84800Y42500D01*
X85900D01*
X86600Y43500D01*
Y46500D01*
X84100Y44500D02*X86600D01*
X91600Y42500D02*X92100Y43000D01*
X90100Y42500D02*X91600D01*
X89600Y43000D02*X90100Y42500D01*
X89600Y43000D02*Y44000D01*
X90100Y44500D01*
X91600D01*
X92100Y45000D01*
Y46000D01*
X91600Y46500D02*X92100Y46000D01*
X90100Y46500D02*X91600D01*
X89600Y46000D02*X90100Y46500D01*
X94000D02*X95300D01*
X93300Y45800D02*X94000Y46500D01*
X93300Y43200D02*Y45800D01*
Y43200D02*X94000Y42500D01*
X95300D01*
X96500Y43500D02*Y46500D01*
Y43500D02*X97200Y42500D01*
X98300D01*
X99000Y43500D01*
Y46500D01*
X96500Y44500D02*X99000D01*
X100200Y42500D02*Y46500D01*
X102200D01*
X103400Y44300D02*X104900D01*
X103400Y46500D02*X105400D01*
X103400Y42500D02*Y46500D01*
Y42500D02*X105400D01*
X107100D02*Y46500D01*
X108400Y42500D02*X109100Y43200D01*
Y45800D01*
X108400Y46500D02*X109100Y45800D01*
X106600Y46500D02*X108400D01*
X106600Y42500D02*X108400D01*
X112100Y44300D02*X113600D01*
X112100Y46500D02*X114100D01*
X112100Y42500D02*Y46500D01*
Y42500D02*X114100D01*
X115300D02*Y46500D01*
Y42500D02*X117800Y46500D01*
Y42500D02*Y46500D01*
X121000Y42500D02*X121500Y43000D01*
X119500Y42500D02*X121000D01*
X119000Y43000D02*X119500Y42500D01*
X119000Y43000D02*Y46000D01*
X119500Y46500D01*
X121000D01*
X121500Y46000D01*
Y45000D02*Y46000D01*
X121000Y44500D02*X121500Y45000D01*
X120000Y44500D02*X121000D01*
X74500Y58500D02*X75500D01*
X75000D02*Y62500D01*
X74500D02*X75500D01*
X76700Y59000D02*X77200Y58500D01*
X78700D01*
X79200Y59000D01*
Y60000D01*
X76700Y62500D02*X79200Y60000D01*
X76700Y62500D02*X79200D01*
X81100D02*X82400D01*
X80400Y61800D02*X81100Y62500D01*
X80400Y59200D02*Y61800D01*
Y59200D02*X81100Y58500D01*
X82400D01*
X83600Y60500D02*X85600D01*
X86800Y58500D02*X87800D01*
X87300D02*Y62500D01*
X86800D02*X87800D01*
X89000Y58500D02*X91000D01*
X91500Y59000D01*
Y60000D01*
X91000Y60500D02*X91500Y60000D01*
X89500Y60500D02*X91000D01*
X89500Y58500D02*Y62500D01*
X90300Y60500D02*X91500Y62500D01*
X94700Y58500D02*X95200Y59000D01*
X93200Y58500D02*X94700D01*
X92700Y59000D02*X93200Y58500D01*
X92700Y59000D02*Y60000D01*
X93200Y60500D01*
X94700D01*
X95200Y61000D01*
Y62000D01*
X94700Y62500D02*X95200Y62000D01*
X93200Y62500D02*X94700D01*
X92700Y62000D02*X93200Y62500D01*
X96400Y60300D02*X97900D01*
X96400Y62500D02*X98400D01*
X96400Y58500D02*Y62500D01*
Y58500D02*X98400D01*
X99600D02*Y62500D01*
Y58500D02*X102100Y62500D01*
Y58500D02*Y62500D01*
X105300Y58500D02*X105800Y59000D01*
X103800Y58500D02*X105300D01*
X103300Y59000D02*X103800Y58500D01*
X103300Y59000D02*Y60000D01*
X103800Y60500D01*
X105300D01*
X105800Y61000D01*
Y62000D01*
X105300Y62500D02*X105800Y62000D01*
X103800Y62500D02*X105300D01*
X103300Y62000D02*X103800Y62500D01*
X107000Y60300D02*X108500D01*
X107000Y62500D02*X109000D01*
X107000Y58500D02*Y62500D01*
Y58500D02*X109000D01*
X112000Y60500D02*X113000Y62500D01*
X114000Y60500D02*X113000Y62500D01*
X115200Y59000D02*X115700Y58500D01*
X117200D01*
X117700Y59000D01*
Y60000D01*
X115200Y62500D02*X117700Y60000D01*
X115200Y62500D02*X117700D01*
X118900D02*X119400D01*
X120600Y59300D02*X121400Y58500D01*
Y62500D01*
X120600D02*X122100D01*
X74500Y7500D02*X75500D01*
X75000D02*Y11500D01*
X74500D02*X75500D01*
X76700Y8000D02*Y11000D01*
Y8000D02*X77200Y7500D01*
X78200D01*
X78700Y8000D01*
Y11000D01*
X78200Y11500D02*X78700Y11000D01*
X77200Y11500D02*X78200D01*
X76700Y11000D02*X77200Y11500D01*
X79900Y7500D02*Y9500D01*
X80400Y11500D01*
X81400Y9500D01*
X82400Y11500D01*
X82900Y9500D01*
Y7500D02*Y9500D01*
X84100Y8500D02*Y11500D01*
Y8500D02*X84800Y7500D01*
X85900D01*
X86600Y8500D01*
Y11500D01*
X84100Y9500D02*X86600D01*
X91600Y7500D02*X92100Y8000D01*
X90100Y7500D02*X91600D01*
X89600Y8000D02*X90100Y7500D01*
X89600Y8000D02*Y9000D01*
X90100Y9500D01*
X91600D01*
X92100Y10000D01*
Y11000D01*
X91600Y11500D02*X92100Y11000D01*
X90100Y11500D02*X91600D01*
X89600Y11000D02*X90100Y11500D01*
X94000D02*X95300D01*
X93300Y10800D02*X94000Y11500D01*
X93300Y8200D02*Y10800D01*
Y8200D02*X94000Y7500D01*
X95300D01*
X96500Y8500D02*Y11500D01*
Y8500D02*X97200Y7500D01*
X98300D01*
X99000Y8500D01*
Y11500D01*
X96500Y9500D02*X99000D01*
X100200Y7500D02*Y11500D01*
X102200D01*
X103400Y9300D02*X104900D01*
X103400Y11500D02*X105400D01*
X103400Y7500D02*Y11500D01*
Y7500D02*X105400D01*
X107100D02*Y11500D01*
X108400Y7500D02*X109100Y8200D01*
Y10800D01*
X108400Y11500D02*X109100Y10800D01*
X106600Y11500D02*X108400D01*
X106600Y7500D02*X108400D01*
X112100Y9300D02*X113600D01*
X112100Y11500D02*X114100D01*
X112100Y7500D02*Y11500D01*
Y7500D02*X114100D01*
X115300D02*Y11500D01*
Y7500D02*X117800Y11500D01*
Y7500D02*Y11500D01*
X121000Y7500D02*X121500Y8000D01*
X119500Y7500D02*X121000D01*
X119000Y8000D02*X119500Y7500D01*
X119000Y8000D02*Y11000D01*
X119500Y11500D01*
X121000D01*
X121500Y11000D01*
Y10000D02*Y11000D01*
X121000Y9500D02*X121500Y10000D01*
X120000Y9500D02*X121000D01*
X74500Y23500D02*X75500D01*
X75000D02*Y27500D01*
X74500D02*X75500D01*
X76700Y24000D02*X77200Y23500D01*
X78700D01*
X79200Y24000D01*
Y25000D01*
X76700Y27500D02*X79200Y25000D01*
X76700Y27500D02*X79200D01*
X81100D02*X82400D01*
X80400Y26800D02*X81100Y27500D01*
X80400Y24200D02*Y26800D01*
Y24200D02*X81100Y23500D01*
X82400D01*
X83600Y25500D02*X85600D01*
X86800Y23500D02*X87800D01*
X87300D02*Y27500D01*
X86800D02*X87800D01*
X89000Y23500D02*X91000D01*
X91500Y24000D01*
Y25000D01*
X91000Y25500D02*X91500Y25000D01*
X89500Y25500D02*X91000D01*
X89500Y23500D02*Y27500D01*
X90300Y25500D02*X91500Y27500D01*
X94700Y23500D02*X95200Y24000D01*
X93200Y23500D02*X94700D01*
X92700Y24000D02*X93200Y23500D01*
X92700Y24000D02*Y25000D01*
X93200Y25500D01*
X94700D01*
X95200Y26000D01*
Y27000D01*
X94700Y27500D02*X95200Y27000D01*
X93200Y27500D02*X94700D01*
X92700Y27000D02*X93200Y27500D01*
X96400Y25300D02*X97900D01*
X96400Y27500D02*X98400D01*
X96400Y23500D02*Y27500D01*
Y23500D02*X98400D01*
X99600D02*Y27500D01*
Y23500D02*X102100Y27500D01*
Y23500D02*Y27500D01*
X105300Y23500D02*X105800Y24000D01*
X103800Y23500D02*X105300D01*
X103300Y24000D02*X103800Y23500D01*
X103300Y24000D02*Y25000D01*
X103800Y25500D01*
X105300D01*
X105800Y26000D01*
Y27000D01*
X105300Y27500D02*X105800Y27000D01*
X103800Y27500D02*X105300D01*
X103300Y27000D02*X103800Y27500D01*
X107000Y25300D02*X108500D01*
X107000Y27500D02*X109000D01*
X107000Y23500D02*Y27500D01*
Y23500D02*X109000D01*
X112000Y25500D02*X113000Y27500D01*
X114000Y25500D02*X113000Y27500D01*
X115200Y24000D02*X115700Y23500D01*
X117200D01*
X117700Y24000D01*
Y25000D01*
X115200Y27500D02*X117700Y25000D01*
X115200Y27500D02*X117700D01*
X118900D02*X119400D01*
X120600Y24300D02*X121400Y23500D01*
Y27500D01*
X120600D02*X122100D01*
X74500Y93500D02*X75500D01*
X75000D02*Y97500D01*
X74500D02*X75500D01*
X76700Y94000D02*X77200Y93500D01*
X78700D01*
X79200Y94000D01*
Y95000D01*
X76700Y97500D02*X79200Y95000D01*
X76700Y97500D02*X79200D01*
X81100D02*X82400D01*
X80400Y96800D02*X81100Y97500D01*
X80400Y94200D02*Y96800D01*
Y94200D02*X81100Y93500D01*
X82400D01*
X83600Y95500D02*X85600D01*
X86800Y93500D02*X87800D01*
X87300D02*Y97500D01*
X86800D02*X87800D01*
X89000Y93500D02*X91000D01*
X91500Y94000D01*
Y95000D01*
X91000Y95500D02*X91500Y95000D01*
X89500Y95500D02*X91000D01*
X89500Y93500D02*Y97500D01*
X90300Y95500D02*X91500Y97500D01*
X94700Y93500D02*X95200Y94000D01*
X93200Y93500D02*X94700D01*
X92700Y94000D02*X93200Y93500D01*
X92700Y94000D02*Y95000D01*
X93200Y95500D01*
X94700D01*
X95200Y96000D01*
Y97000D01*
X94700Y97500D02*X95200Y97000D01*
X93200Y97500D02*X94700D01*
X92700Y97000D02*X93200Y97500D01*
X96400Y95300D02*X97900D01*
X96400Y97500D02*X98400D01*
X96400Y93500D02*Y97500D01*
Y93500D02*X98400D01*
X99600D02*Y97500D01*
Y93500D02*X102100Y97500D01*
Y93500D02*Y97500D01*
X105300Y93500D02*X105800Y94000D01*
X103800Y93500D02*X105300D01*
X103300Y94000D02*X103800Y93500D01*
X103300Y94000D02*Y95000D01*
X103800Y95500D01*
X105300D01*
X105800Y96000D01*
Y97000D01*
X105300Y97500D02*X105800Y97000D01*
X103800Y97500D02*X105300D01*
X103300Y97000D02*X103800Y97500D01*
X107000Y95300D02*X108500D01*
X107000Y97500D02*X109000D01*
X107000Y93500D02*Y97500D01*
Y93500D02*X109000D01*
X112000Y95500D02*X113000Y97500D01*
X114000Y95500D02*X113000Y97500D01*
X115200Y94000D02*X115700Y93500D01*
X117200D01*
X117700Y94000D01*
Y95000D01*
X115200Y97500D02*X117700Y95000D01*
X115200Y97500D02*X117700D01*
X118900D02*X119400D01*
X120600Y94300D02*X121400Y93500D01*
Y97500D01*
X120600D02*X122100D01*
X74500Y322500D02*X75500D01*
X75000D02*Y326500D01*
X74500D02*X75500D01*
X76700Y323000D02*Y326000D01*
Y323000D02*X77200Y322500D01*
X78200D01*
X78700Y323000D01*
Y326000D01*
X78200Y326500D02*X78700Y326000D01*
X77200Y326500D02*X78200D01*
X76700Y326000D02*X77200Y326500D01*
X79900Y322500D02*Y324500D01*
X80400Y326500D01*
X81400Y324500D01*
X82400Y326500D01*
X82900Y324500D01*
Y322500D02*Y324500D01*
X84100Y323500D02*Y326500D01*
Y323500D02*X84800Y322500D01*
X85900D01*
X86600Y323500D01*
Y326500D01*
X84100Y324500D02*X86600D01*
X91600Y322500D02*X92100Y323000D01*
X90100Y322500D02*X91600D01*
X89600Y323000D02*X90100Y322500D01*
X89600Y323000D02*Y324000D01*
X90100Y324500D01*
X91600D01*
X92100Y325000D01*
Y326000D01*
X91600Y326500D02*X92100Y326000D01*
X90100Y326500D02*X91600D01*
X89600Y326000D02*X90100Y326500D01*
X94000D02*X95300D01*
X93300Y325800D02*X94000Y326500D01*
X93300Y323200D02*Y325800D01*
Y323200D02*X94000Y322500D01*
X95300D01*
X96500Y323500D02*Y326500D01*
Y323500D02*X97200Y322500D01*
X98300D01*
X99000Y323500D01*
Y326500D01*
X96500Y324500D02*X99000D01*
X100200Y322500D02*Y326500D01*
X102200D01*
X103400Y324300D02*X104900D01*
X103400Y326500D02*X105400D01*
X103400Y322500D02*Y326500D01*
Y322500D02*X105400D01*
X107100D02*Y326500D01*
X108400Y322500D02*X109100Y323200D01*
Y325800D01*
X108400Y326500D02*X109100Y325800D01*
X106600Y326500D02*X108400D01*
X106600Y322500D02*X108400D01*
X112100Y324300D02*X113600D01*
X112100Y326500D02*X114100D01*
X112100Y322500D02*Y326500D01*
Y322500D02*X114100D01*
X115300D02*Y326500D01*
Y322500D02*X117800Y326500D01*
Y322500D02*Y326500D01*
X121000Y322500D02*X121500Y323000D01*
X119500Y322500D02*X121000D01*
X119000Y323000D02*X119500Y322500D01*
X119000Y323000D02*Y326000D01*
X119500Y326500D01*
X121000D01*
X121500Y326000D01*
Y325000D02*Y326000D01*
X121000Y324500D02*X121500Y325000D01*
X120000Y324500D02*X121000D01*
X74500Y338500D02*X75500D01*
X75000D02*Y342500D01*
X74500D02*X75500D01*
X76700Y339000D02*X77200Y338500D01*
X78700D01*
X79200Y339000D01*
Y340000D01*
X76700Y342500D02*X79200Y340000D01*
X76700Y342500D02*X79200D01*
X81100D02*X82400D01*
X80400Y341800D02*X81100Y342500D01*
X80400Y339200D02*Y341800D01*
Y339200D02*X81100Y338500D01*
X82400D01*
X83600Y340500D02*X85600D01*
X86800Y338500D02*X87800D01*
X87300D02*Y342500D01*
X86800D02*X87800D01*
X89000Y338500D02*X91000D01*
X91500Y339000D01*
Y340000D01*
X91000Y340500D02*X91500Y340000D01*
X89500Y340500D02*X91000D01*
X89500Y338500D02*Y342500D01*
X90300Y340500D02*X91500Y342500D01*
X94700Y338500D02*X95200Y339000D01*
X93200Y338500D02*X94700D01*
X92700Y339000D02*X93200Y338500D01*
X92700Y339000D02*Y340000D01*
X93200Y340500D01*
X94700D01*
X95200Y341000D01*
Y342000D01*
X94700Y342500D02*X95200Y342000D01*
X93200Y342500D02*X94700D01*
X92700Y342000D02*X93200Y342500D01*
X96400Y340300D02*X97900D01*
X96400Y342500D02*X98400D01*
X96400Y338500D02*Y342500D01*
Y338500D02*X98400D01*
X99600D02*Y342500D01*
Y338500D02*X102100Y342500D01*
Y338500D02*Y342500D01*
X105300Y338500D02*X105800Y339000D01*
X103800Y338500D02*X105300D01*
X103300Y339000D02*X103800Y338500D01*
X103300Y339000D02*Y340000D01*
X103800Y340500D01*
X105300D01*
X105800Y341000D01*
Y342000D01*
X105300Y342500D02*X105800Y342000D01*
X103800Y342500D02*X105300D01*
X103300Y342000D02*X103800Y342500D01*
X107000Y340300D02*X108500D01*
X107000Y342500D02*X109000D01*
X107000Y338500D02*Y342500D01*
Y338500D02*X109000D01*
X112000Y340500D02*X113000Y342500D01*
X114000Y340500D02*X113000Y342500D01*
X115200Y339000D02*X115700Y338500D01*
X117200D01*
X117700Y339000D01*
Y340000D01*
X115200Y342500D02*X117700Y340000D01*
X115200Y342500D02*X117700D01*
X118900D02*X119400D01*
X120600Y339300D02*X121400Y338500D01*
Y342500D01*
X120600D02*X122100D01*
X74500Y287500D02*X75500D01*
X75000D02*Y291500D01*
X74500D02*X75500D01*
X76700Y288000D02*Y291000D01*
Y288000D02*X77200Y287500D01*
X78200D01*
X78700Y288000D01*
Y291000D01*
X78200Y291500D02*X78700Y291000D01*
X77200Y291500D02*X78200D01*
X76700Y291000D02*X77200Y291500D01*
X79900Y287500D02*Y289500D01*
X80400Y291500D01*
X81400Y289500D01*
X82400Y291500D01*
X82900Y289500D01*
Y287500D02*Y289500D01*
X84100Y288500D02*Y291500D01*
Y288500D02*X84800Y287500D01*
X85900D01*
X86600Y288500D01*
Y291500D01*
X84100Y289500D02*X86600D01*
X91600Y287500D02*X92100Y288000D01*
X90100Y287500D02*X91600D01*
X89600Y288000D02*X90100Y287500D01*
X89600Y288000D02*Y289000D01*
X90100Y289500D01*
X91600D01*
X92100Y290000D01*
Y291000D01*
X91600Y291500D02*X92100Y291000D01*
X90100Y291500D02*X91600D01*
X89600Y291000D02*X90100Y291500D01*
X94000D02*X95300D01*
X93300Y290800D02*X94000Y291500D01*
X93300Y288200D02*Y290800D01*
Y288200D02*X94000Y287500D01*
X95300D01*
X96500Y288500D02*Y291500D01*
Y288500D02*X97200Y287500D01*
X98300D01*
X99000Y288500D01*
Y291500D01*
X96500Y289500D02*X99000D01*
X100200Y287500D02*Y291500D01*
X102200D01*
X103400Y289300D02*X104900D01*
X103400Y291500D02*X105400D01*
X103400Y287500D02*Y291500D01*
Y287500D02*X105400D01*
X107100D02*Y291500D01*
X108400Y287500D02*X109100Y288200D01*
Y290800D01*
X108400Y291500D02*X109100Y290800D01*
X106600Y291500D02*X108400D01*
X106600Y287500D02*X108400D01*
X112100Y289300D02*X113600D01*
X112100Y291500D02*X114100D01*
X112100Y287500D02*Y291500D01*
Y287500D02*X114100D01*
X115300D02*Y291500D01*
Y287500D02*X117800Y291500D01*
Y287500D02*Y291500D01*
X121000Y287500D02*X121500Y288000D01*
X119500Y287500D02*X121000D01*
X119000Y288000D02*X119500Y287500D01*
X119000Y288000D02*Y291000D01*
X119500Y291500D01*
X121000D01*
X121500Y291000D01*
Y290000D02*Y291000D01*
X121000Y289500D02*X121500Y290000D01*
X120000Y289500D02*X121000D01*
X74500Y303500D02*X75500D01*
X75000D02*Y307500D01*
X74500D02*X75500D01*
X76700Y304000D02*X77200Y303500D01*
X78700D01*
X79200Y304000D01*
Y305000D01*
X76700Y307500D02*X79200Y305000D01*
X76700Y307500D02*X79200D01*
X81100D02*X82400D01*
X80400Y306800D02*X81100Y307500D01*
X80400Y304200D02*Y306800D01*
Y304200D02*X81100Y303500D01*
X82400D01*
X83600Y305500D02*X85600D01*
X86800Y303500D02*X87800D01*
X87300D02*Y307500D01*
X86800D02*X87800D01*
X89000Y303500D02*X91000D01*
X91500Y304000D01*
Y305000D01*
X91000Y305500D02*X91500Y305000D01*
X89500Y305500D02*X91000D01*
X89500Y303500D02*Y307500D01*
X90300Y305500D02*X91500Y307500D01*
X94700Y303500D02*X95200Y304000D01*
X93200Y303500D02*X94700D01*
X92700Y304000D02*X93200Y303500D01*
X92700Y304000D02*Y305000D01*
X93200Y305500D01*
X94700D01*
X95200Y306000D01*
Y307000D01*
X94700Y307500D02*X95200Y307000D01*
X93200Y307500D02*X94700D01*
X92700Y307000D02*X93200Y307500D01*
X96400Y305300D02*X97900D01*
X96400Y307500D02*X98400D01*
X96400Y303500D02*Y307500D01*
Y303500D02*X98400D01*
X99600D02*Y307500D01*
Y303500D02*X102100Y307500D01*
Y303500D02*Y307500D01*
X105300Y303500D02*X105800Y304000D01*
X103800Y303500D02*X105300D01*
X103300Y304000D02*X103800Y303500D01*
X103300Y304000D02*Y305000D01*
X103800Y305500D01*
X105300D01*
X105800Y306000D01*
Y307000D01*
X105300Y307500D02*X105800Y307000D01*
X103800Y307500D02*X105300D01*
X103300Y307000D02*X103800Y307500D01*
X107000Y305300D02*X108500D01*
X107000Y307500D02*X109000D01*
X107000Y303500D02*Y307500D01*
Y303500D02*X109000D01*
X112000Y305500D02*X113000Y307500D01*
X114000Y305500D02*X113000Y307500D01*
X115200Y304000D02*X115700Y303500D01*
X117200D01*
X117700Y304000D01*
Y305000D01*
X115200Y307500D02*X117700Y305000D01*
X115200Y307500D02*X117700D01*
X118900D02*X119400D01*
X120600Y304300D02*X121400Y303500D01*
Y307500D01*
X120600D02*X122100D01*
X74500Y392500D02*X75500D01*
X75000D02*Y396500D01*
X74500D02*X75500D01*
X76700Y393000D02*Y396000D01*
Y393000D02*X77200Y392500D01*
X78200D01*
X78700Y393000D01*
Y396000D01*
X78200Y396500D02*X78700Y396000D01*
X77200Y396500D02*X78200D01*
X76700Y396000D02*X77200Y396500D01*
X79900Y392500D02*Y394500D01*
X80400Y396500D01*
X81400Y394500D01*
X82400Y396500D01*
X82900Y394500D01*
Y392500D02*Y394500D01*
X84100Y393500D02*Y396500D01*
Y393500D02*X84800Y392500D01*
X85900D01*
X86600Y393500D01*
Y396500D01*
X84100Y394500D02*X86600D01*
X91600Y392500D02*X92100Y393000D01*
X90100Y392500D02*X91600D01*
X89600Y393000D02*X90100Y392500D01*
X89600Y393000D02*Y394000D01*
X90100Y394500D01*
X91600D01*
X92100Y395000D01*
Y396000D01*
X91600Y396500D02*X92100Y396000D01*
X90100Y396500D02*X91600D01*
X89600Y396000D02*X90100Y396500D01*
X94000D02*X95300D01*
X93300Y395800D02*X94000Y396500D01*
X93300Y393200D02*Y395800D01*
Y393200D02*X94000Y392500D01*
X95300D01*
X96500Y393500D02*Y396500D01*
Y393500D02*X97200Y392500D01*
X98300D01*
X99000Y393500D01*
Y396500D01*
X96500Y394500D02*X99000D01*
X100200Y392500D02*Y396500D01*
X102200D01*
X103400Y394300D02*X104900D01*
X103400Y396500D02*X105400D01*
X103400Y392500D02*Y396500D01*
Y392500D02*X105400D01*
X107100D02*Y396500D01*
X108400Y392500D02*X109100Y393200D01*
Y395800D01*
X108400Y396500D02*X109100Y395800D01*
X106600Y396500D02*X108400D01*
X106600Y392500D02*X108400D01*
X112100Y394300D02*X113600D01*
X112100Y396500D02*X114100D01*
X112100Y392500D02*Y396500D01*
Y392500D02*X114100D01*
X115300D02*Y396500D01*
Y392500D02*X117800Y396500D01*
Y392500D02*Y396500D01*
X121000Y392500D02*X121500Y393000D01*
X119500Y392500D02*X121000D01*
X119000Y393000D02*X119500Y392500D01*
X119000Y393000D02*Y396000D01*
X119500Y396500D01*
X121000D01*
X121500Y396000D01*
Y395000D02*Y396000D01*
X121000Y394500D02*X121500Y395000D01*
X120000Y394500D02*X121000D01*
X74500Y408500D02*X75500D01*
X75000D02*Y412500D01*
X74500D02*X75500D01*
X76700Y409000D02*X77200Y408500D01*
X78700D01*
X79200Y409000D01*
Y410000D01*
X76700Y412500D02*X79200Y410000D01*
X76700Y412500D02*X79200D01*
X81100D02*X82400D01*
X80400Y411800D02*X81100Y412500D01*
X80400Y409200D02*Y411800D01*
Y409200D02*X81100Y408500D01*
X82400D01*
X83600Y410500D02*X85600D01*
X86800Y408500D02*X87800D01*
X87300D02*Y412500D01*
X86800D02*X87800D01*
X89000Y408500D02*X91000D01*
X91500Y409000D01*
Y410000D01*
X91000Y410500D02*X91500Y410000D01*
X89500Y410500D02*X91000D01*
X89500Y408500D02*Y412500D01*
X90300Y410500D02*X91500Y412500D01*
X94700Y408500D02*X95200Y409000D01*
X93200Y408500D02*X94700D01*
X92700Y409000D02*X93200Y408500D01*
X92700Y409000D02*Y410000D01*
X93200Y410500D01*
X94700D01*
X95200Y411000D01*
Y412000D01*
X94700Y412500D02*X95200Y412000D01*
X93200Y412500D02*X94700D01*
X92700Y412000D02*X93200Y412500D01*
X96400Y410300D02*X97900D01*
X96400Y412500D02*X98400D01*
X96400Y408500D02*Y412500D01*
Y408500D02*X98400D01*
X99600D02*Y412500D01*
Y408500D02*X102100Y412500D01*
Y408500D02*Y412500D01*
X105300Y408500D02*X105800Y409000D01*
X103800Y408500D02*X105300D01*
X103300Y409000D02*X103800Y408500D01*
X103300Y409000D02*Y410000D01*
X103800Y410500D01*
X105300D01*
X105800Y411000D01*
Y412000D01*
X105300Y412500D02*X105800Y412000D01*
X103800Y412500D02*X105300D01*
X103300Y412000D02*X103800Y412500D01*
X107000Y410300D02*X108500D01*
X107000Y412500D02*X109000D01*
X107000Y408500D02*Y412500D01*
Y408500D02*X109000D01*
X112000Y410500D02*X113000Y412500D01*
X114000Y410500D02*X113000Y412500D01*
X115200Y409000D02*X115700Y408500D01*
X117200D01*
X117700Y409000D01*
Y410000D01*
X115200Y412500D02*X117700Y410000D01*
X115200Y412500D02*X117700D01*
X118900D02*X119400D01*
X120600Y409300D02*X121400Y408500D01*
Y412500D01*
X120600D02*X122100D01*
X74500Y357500D02*X75500D01*
X75000D02*Y361500D01*
X74500D02*X75500D01*
X76700Y358000D02*Y361000D01*
Y358000D02*X77200Y357500D01*
X78200D01*
X78700Y358000D01*
Y361000D01*
X78200Y361500D02*X78700Y361000D01*
X77200Y361500D02*X78200D01*
X76700Y361000D02*X77200Y361500D01*
X79900Y357500D02*Y359500D01*
X80400Y361500D01*
X81400Y359500D01*
X82400Y361500D01*
X82900Y359500D01*
Y357500D02*Y359500D01*
X84100Y358500D02*Y361500D01*
Y358500D02*X84800Y357500D01*
X85900D01*
X86600Y358500D01*
Y361500D01*
X84100Y359500D02*X86600D01*
X91600Y357500D02*X92100Y358000D01*
X90100Y357500D02*X91600D01*
X89600Y358000D02*X90100Y357500D01*
X89600Y358000D02*Y359000D01*
X90100Y359500D01*
X91600D01*
X92100Y360000D01*
Y361000D01*
X91600Y361500D02*X92100Y361000D01*
X90100Y361500D02*X91600D01*
X89600Y361000D02*X90100Y361500D01*
X94000D02*X95300D01*
X93300Y360800D02*X94000Y361500D01*
X93300Y358200D02*Y360800D01*
Y358200D02*X94000Y357500D01*
X95300D01*
X96500Y358500D02*Y361500D01*
Y358500D02*X97200Y357500D01*
X98300D01*
X99000Y358500D01*
Y361500D01*
X96500Y359500D02*X99000D01*
X100200Y357500D02*Y361500D01*
X102200D01*
X103400Y359300D02*X104900D01*
X103400Y361500D02*X105400D01*
X103400Y357500D02*Y361500D01*
Y357500D02*X105400D01*
X107100D02*Y361500D01*
X108400Y357500D02*X109100Y358200D01*
Y360800D01*
X108400Y361500D02*X109100Y360800D01*
X106600Y361500D02*X108400D01*
X106600Y357500D02*X108400D01*
X112100Y359300D02*X113600D01*
X112100Y361500D02*X114100D01*
X112100Y357500D02*Y361500D01*
Y357500D02*X114100D01*
X115300D02*Y361500D01*
Y357500D02*X117800Y361500D01*
Y357500D02*Y361500D01*
X121000Y357500D02*X121500Y358000D01*
X119500Y357500D02*X121000D01*
X119000Y358000D02*X119500Y357500D01*
X119000Y358000D02*Y361000D01*
X119500Y361500D01*
X121000D01*
X121500Y361000D01*
Y360000D02*Y361000D01*
X121000Y359500D02*X121500Y360000D01*
X120000Y359500D02*X121000D01*
X74500Y373500D02*X75500D01*
X75000D02*Y377500D01*
X74500D02*X75500D01*
X76700Y374000D02*X77200Y373500D01*
X78700D01*
X79200Y374000D01*
Y375000D01*
X76700Y377500D02*X79200Y375000D01*
X76700Y377500D02*X79200D01*
X81100D02*X82400D01*
X80400Y376800D02*X81100Y377500D01*
X80400Y374200D02*Y376800D01*
Y374200D02*X81100Y373500D01*
X82400D01*
X83600Y375500D02*X85600D01*
X86800Y373500D02*X87800D01*
X87300D02*Y377500D01*
X86800D02*X87800D01*
X89000Y373500D02*X91000D01*
X91500Y374000D01*
Y375000D01*
X91000Y375500D02*X91500Y375000D01*
X89500Y375500D02*X91000D01*
X89500Y373500D02*Y377500D01*
X90300Y375500D02*X91500Y377500D01*
X94700Y373500D02*X95200Y374000D01*
X93200Y373500D02*X94700D01*
X92700Y374000D02*X93200Y373500D01*
X92700Y374000D02*Y375000D01*
X93200Y375500D01*
X94700D01*
X95200Y376000D01*
Y377000D01*
X94700Y377500D02*X95200Y377000D01*
X93200Y377500D02*X94700D01*
X92700Y377000D02*X93200Y377500D01*
X96400Y375300D02*X97900D01*
X96400Y377500D02*X98400D01*
X96400Y373500D02*Y377500D01*
Y373500D02*X98400D01*
X99600D02*Y377500D01*
Y373500D02*X102100Y377500D01*
Y373500D02*Y377500D01*
X105300Y373500D02*X105800Y374000D01*
X103800Y373500D02*X105300D01*
X103300Y374000D02*X103800Y373500D01*
X103300Y374000D02*Y375000D01*
X103800Y375500D01*
X105300D01*
X105800Y376000D01*
Y377000D01*
X105300Y377500D02*X105800Y377000D01*
X103800Y377500D02*X105300D01*
X103300Y377000D02*X103800Y377500D01*
X107000Y375300D02*X108500D01*
X107000Y377500D02*X109000D01*
X107000Y373500D02*Y377500D01*
Y373500D02*X109000D01*
X112000Y375500D02*X113000Y377500D01*
X114000Y375500D02*X113000Y377500D01*
X115200Y374000D02*X115700Y373500D01*
X117200D01*
X117700Y374000D01*
Y375000D01*
X115200Y377500D02*X117700Y375000D01*
X115200Y377500D02*X117700D01*
X118900D02*X119400D01*
X120600Y374300D02*X121400Y373500D01*
Y377500D01*
X120600D02*X122100D01*
X74500Y268500D02*X75500D01*
X75000D02*Y272500D01*
X74500D02*X75500D01*
X76700Y269000D02*X77200Y268500D01*
X78700D01*
X79200Y269000D01*
Y270000D01*
X76700Y272500D02*X79200Y270000D01*
X76700Y272500D02*X79200D01*
X81100D02*X82400D01*
X80400Y271800D02*X81100Y272500D01*
X80400Y269200D02*Y271800D01*
Y269200D02*X81100Y268500D01*
X82400D01*
X83600Y270500D02*X85600D01*
X86800Y268500D02*X87800D01*
X87300D02*Y272500D01*
X86800D02*X87800D01*
X89000Y268500D02*X91000D01*
X91500Y269000D01*
Y270000D01*
X91000Y270500D02*X91500Y270000D01*
X89500Y270500D02*X91000D01*
X89500Y268500D02*Y272500D01*
X90300Y270500D02*X91500Y272500D01*
X94700Y268500D02*X95200Y269000D01*
X93200Y268500D02*X94700D01*
X92700Y269000D02*X93200Y268500D01*
X92700Y269000D02*Y270000D01*
X93200Y270500D01*
X94700D01*
X95200Y271000D01*
Y272000D01*
X94700Y272500D02*X95200Y272000D01*
X93200Y272500D02*X94700D01*
X92700Y272000D02*X93200Y272500D01*
X96400Y270300D02*X97900D01*
X96400Y272500D02*X98400D01*
X96400Y268500D02*Y272500D01*
Y268500D02*X98400D01*
X99600D02*Y272500D01*
Y268500D02*X102100Y272500D01*
Y268500D02*Y272500D01*
X105300Y268500D02*X105800Y269000D01*
X103800Y268500D02*X105300D01*
X103300Y269000D02*X103800Y268500D01*
X103300Y269000D02*Y270000D01*
X103800Y270500D01*
X105300D01*
X105800Y271000D01*
Y272000D01*
X105300Y272500D02*X105800Y272000D01*
X103800Y272500D02*X105300D01*
X103300Y272000D02*X103800Y272500D01*
X107000Y270300D02*X108500D01*
X107000Y272500D02*X109000D01*
X107000Y268500D02*Y272500D01*
Y268500D02*X109000D01*
X112000Y270500D02*X113000Y272500D01*
X114000Y270500D02*X113000Y272500D01*
X115200Y269000D02*X115700Y268500D01*
X117200D01*
X117700Y269000D01*
Y270000D01*
X115200Y272500D02*X117700Y270000D01*
X115200Y272500D02*X117700D01*
X118900D02*X119400D01*
X120600Y269300D02*X121400Y268500D01*
Y272500D01*
X120600D02*X122100D01*
M02*
