G04 start of page 13 for group -3984 idx -3984 *
G04 Title: (unknown), fab *
G04 Creator: pcb 4.0.2 *
G04 CreationDate: Thu Feb 25 03:30:48 2021 UTC *
G04 For: petersen *
G04 Format: Gerber/RS-274X *
G04 PCB-Dimensions (mil): 1500.00 4200.00 *
G04 PCB-Coordinate-Origin: lower left *
%MOIN*%
%FSLAX25Y25*%
%LNFAB*%
%ADD42C,0.0094*%
%ADD41C,0.0075*%
%ADD40C,0.0100*%
%ADD39C,0.0075*%
%ADD38C,0.0060*%
%ADD37C,0.0001*%
G54D37*G36*
X98800Y390766D02*X101766Y387800D01*
X101200Y387234D01*
X98234Y390200D01*
X98800Y390766D01*
G37*
G36*
X98234Y387800D02*X101200Y390766D01*
X101766Y390200D01*
X98800Y387234D01*
X98234Y387800D01*
G37*
G36*
X93800Y390766D02*X96766Y387800D01*
X96200Y387234D01*
X93234Y390200D01*
X93800Y390766D01*
G37*
G36*
X93234Y387800D02*X96200Y390766D01*
X96766Y390200D01*
X93800Y387234D01*
X93234Y387800D01*
G37*
G36*
X103800Y390766D02*X106766Y387800D01*
X106200Y387234D01*
X103234Y390200D01*
X103800Y390766D01*
G37*
G36*
X103234Y387800D02*X106200Y390766D01*
X106766Y390200D01*
X103800Y387234D01*
X103234Y387800D01*
G37*
G36*
X98800Y382766D02*X101766Y379800D01*
X101200Y379234D01*
X98234Y382200D01*
X98800Y382766D01*
G37*
G36*
X98234Y379800D02*X101200Y382766D01*
X101766Y382200D01*
X98800Y379234D01*
X98234Y379800D01*
G37*
G36*
X93800Y382766D02*X96766Y379800D01*
X96200Y379234D01*
X93234Y382200D01*
X93800Y382766D01*
G37*
G36*
X93234Y379800D02*X96200Y382766D01*
X96766Y382200D01*
X93800Y379234D01*
X93234Y379800D01*
G37*
G36*
X103800Y382766D02*X106766Y379800D01*
X106200Y379234D01*
X103234Y382200D01*
X103800Y382766D01*
G37*
G36*
X103234Y379800D02*X106200Y382766D01*
X106766Y382200D01*
X103800Y379234D01*
X103234Y379800D01*
G37*
G36*
X98800Y355766D02*X101766Y352800D01*
X101200Y352234D01*
X98234Y355200D01*
X98800Y355766D01*
G37*
G36*
X98234Y352800D02*X101200Y355766D01*
X101766Y355200D01*
X98800Y352234D01*
X98234Y352800D01*
G37*
G36*
X93800Y355766D02*X96766Y352800D01*
X96200Y352234D01*
X93234Y355200D01*
X93800Y355766D01*
G37*
G36*
X93234Y352800D02*X96200Y355766D01*
X96766Y355200D01*
X93800Y352234D01*
X93234Y352800D01*
G37*
G36*
X103800Y355766D02*X106766Y352800D01*
X106200Y352234D01*
X103234Y355200D01*
X103800Y355766D01*
G37*
G36*
X103234Y352800D02*X106200Y355766D01*
X106766Y355200D01*
X103800Y352234D01*
X103234Y352800D01*
G37*
G36*
X98800Y347766D02*X101766Y344800D01*
X101200Y344234D01*
X98234Y347200D01*
X98800Y347766D01*
G37*
G36*
X98234Y344800D02*X101200Y347766D01*
X101766Y347200D01*
X98800Y344234D01*
X98234Y344800D01*
G37*
G36*
X93800Y347766D02*X96766Y344800D01*
X96200Y344234D01*
X93234Y347200D01*
X93800Y347766D01*
G37*
G36*
X93234Y344800D02*X96200Y347766D01*
X96766Y347200D01*
X93800Y344234D01*
X93234Y344800D01*
G37*
G36*
X103800Y347766D02*X106766Y344800D01*
X106200Y344234D01*
X103234Y347200D01*
X103800Y347766D01*
G37*
G36*
X103234Y344800D02*X106200Y347766D01*
X106766Y347200D01*
X103800Y344234D01*
X103234Y344800D01*
G37*
G36*
X98800Y320766D02*X101766Y317800D01*
X101200Y317234D01*
X98234Y320200D01*
X98800Y320766D01*
G37*
G36*
X98234Y317800D02*X101200Y320766D01*
X101766Y320200D01*
X98800Y317234D01*
X98234Y317800D01*
G37*
G36*
X93800Y320766D02*X96766Y317800D01*
X96200Y317234D01*
X93234Y320200D01*
X93800Y320766D01*
G37*
G36*
X93234Y317800D02*X96200Y320766D01*
X96766Y320200D01*
X93800Y317234D01*
X93234Y317800D01*
G37*
G36*
X103800Y320766D02*X106766Y317800D01*
X106200Y317234D01*
X103234Y320200D01*
X103800Y320766D01*
G37*
G36*
X103234Y317800D02*X106200Y320766D01*
X106766Y320200D01*
X103800Y317234D01*
X103234Y317800D01*
G37*
G36*
X98800Y312766D02*X101766Y309800D01*
X101200Y309234D01*
X98234Y312200D01*
X98800Y312766D01*
G37*
G36*
X98234Y309800D02*X101200Y312766D01*
X101766Y312200D01*
X98800Y309234D01*
X98234Y309800D01*
G37*
G36*
X93800Y312766D02*X96766Y309800D01*
X96200Y309234D01*
X93234Y312200D01*
X93800Y312766D01*
G37*
G36*
X93234Y309800D02*X96200Y312766D01*
X96766Y312200D01*
X93800Y309234D01*
X93234Y309800D01*
G37*
G36*
X103800Y312766D02*X106766Y309800D01*
X106200Y309234D01*
X103234Y312200D01*
X103800Y312766D01*
G37*
G36*
X103234Y309800D02*X106200Y312766D01*
X106766Y312200D01*
X103800Y309234D01*
X103234Y309800D01*
G37*
G36*
X98800Y285766D02*X101766Y282800D01*
X101200Y282234D01*
X98234Y285200D01*
X98800Y285766D01*
G37*
G36*
X98234Y282800D02*X101200Y285766D01*
X101766Y285200D01*
X98800Y282234D01*
X98234Y282800D01*
G37*
G36*
X93800Y285766D02*X96766Y282800D01*
X96200Y282234D01*
X93234Y285200D01*
X93800Y285766D01*
G37*
G36*
X93234Y282800D02*X96200Y285766D01*
X96766Y285200D01*
X93800Y282234D01*
X93234Y282800D01*
G37*
G36*
X103800Y285766D02*X106766Y282800D01*
X106200Y282234D01*
X103234Y285200D01*
X103800Y285766D01*
G37*
G36*
X103234Y282800D02*X106200Y285766D01*
X106766Y285200D01*
X103800Y282234D01*
X103234Y282800D01*
G37*
G36*
X98800Y277766D02*X101766Y274800D01*
X101200Y274234D01*
X98234Y277200D01*
X98800Y277766D01*
G37*
G36*
X98234Y274800D02*X101200Y277766D01*
X101766Y277200D01*
X98800Y274234D01*
X98234Y274800D01*
G37*
G36*
X93800Y277766D02*X96766Y274800D01*
X96200Y274234D01*
X93234Y277200D01*
X93800Y277766D01*
G37*
G36*
X93234Y274800D02*X96200Y277766D01*
X96766Y277200D01*
X93800Y274234D01*
X93234Y274800D01*
G37*
G36*
X103800Y277766D02*X106766Y274800D01*
X106200Y274234D01*
X103234Y277200D01*
X103800Y277766D01*
G37*
G36*
X103234Y274800D02*X106200Y277766D01*
X106766Y277200D01*
X103800Y274234D01*
X103234Y274800D01*
G37*
G36*
X98800Y250766D02*X101766Y247800D01*
X101200Y247234D01*
X98234Y250200D01*
X98800Y250766D01*
G37*
G36*
X98234Y247800D02*X101200Y250766D01*
X101766Y250200D01*
X98800Y247234D01*
X98234Y247800D01*
G37*
G36*
X93800Y250766D02*X96766Y247800D01*
X96200Y247234D01*
X93234Y250200D01*
X93800Y250766D01*
G37*
G36*
X93234Y247800D02*X96200Y250766D01*
X96766Y250200D01*
X93800Y247234D01*
X93234Y247800D01*
G37*
G36*
X103800Y250766D02*X106766Y247800D01*
X106200Y247234D01*
X103234Y250200D01*
X103800Y250766D01*
G37*
G36*
X103234Y247800D02*X106200Y250766D01*
X106766Y250200D01*
X103800Y247234D01*
X103234Y247800D01*
G37*
G36*
X98800Y242766D02*X101766Y239800D01*
X101200Y239234D01*
X98234Y242200D01*
X98800Y242766D01*
G37*
G36*
X98234Y239800D02*X101200Y242766D01*
X101766Y242200D01*
X98800Y239234D01*
X98234Y239800D01*
G37*
G36*
X93800Y242766D02*X96766Y239800D01*
X96200Y239234D01*
X93234Y242200D01*
X93800Y242766D01*
G37*
G36*
X93234Y239800D02*X96200Y242766D01*
X96766Y242200D01*
X93800Y239234D01*
X93234Y239800D01*
G37*
G36*
X103800Y242766D02*X106766Y239800D01*
X106200Y239234D01*
X103234Y242200D01*
X103800Y242766D01*
G37*
G36*
X103234Y239800D02*X106200Y242766D01*
X106766Y242200D01*
X103800Y239234D01*
X103234Y239800D01*
G37*
G36*
X98800Y215766D02*X101766Y212800D01*
X101200Y212234D01*
X98234Y215200D01*
X98800Y215766D01*
G37*
G36*
X98234Y212800D02*X101200Y215766D01*
X101766Y215200D01*
X98800Y212234D01*
X98234Y212800D01*
G37*
G36*
X93800Y215766D02*X96766Y212800D01*
X96200Y212234D01*
X93234Y215200D01*
X93800Y215766D01*
G37*
G36*
X93234Y212800D02*X96200Y215766D01*
X96766Y215200D01*
X93800Y212234D01*
X93234Y212800D01*
G37*
G36*
X103800Y215766D02*X106766Y212800D01*
X106200Y212234D01*
X103234Y215200D01*
X103800Y215766D01*
G37*
G36*
X103234Y212800D02*X106200Y215766D01*
X106766Y215200D01*
X103800Y212234D01*
X103234Y212800D01*
G37*
G36*
X98800Y207766D02*X101766Y204800D01*
X101200Y204234D01*
X98234Y207200D01*
X98800Y207766D01*
G37*
G36*
X98234Y204800D02*X101200Y207766D01*
X101766Y207200D01*
X98800Y204234D01*
X98234Y204800D01*
G37*
G36*
X93800Y207766D02*X96766Y204800D01*
X96200Y204234D01*
X93234Y207200D01*
X93800Y207766D01*
G37*
G36*
X93234Y204800D02*X96200Y207766D01*
X96766Y207200D01*
X93800Y204234D01*
X93234Y204800D01*
G37*
G36*
X103800Y207766D02*X106766Y204800D01*
X106200Y204234D01*
X103234Y207200D01*
X103800Y207766D01*
G37*
G36*
X103234Y204800D02*X106200Y207766D01*
X106766Y207200D01*
X103800Y204234D01*
X103234Y204800D01*
G37*
G36*
X98800Y180766D02*X101766Y177800D01*
X101200Y177234D01*
X98234Y180200D01*
X98800Y180766D01*
G37*
G36*
X98234Y177800D02*X101200Y180766D01*
X101766Y180200D01*
X98800Y177234D01*
X98234Y177800D01*
G37*
G36*
X93800Y180766D02*X96766Y177800D01*
X96200Y177234D01*
X93234Y180200D01*
X93800Y180766D01*
G37*
G36*
X93234Y177800D02*X96200Y180766D01*
X96766Y180200D01*
X93800Y177234D01*
X93234Y177800D01*
G37*
G36*
X103800Y180766D02*X106766Y177800D01*
X106200Y177234D01*
X103234Y180200D01*
X103800Y180766D01*
G37*
G36*
X103234Y177800D02*X106200Y180766D01*
X106766Y180200D01*
X103800Y177234D01*
X103234Y177800D01*
G37*
G36*
X98800Y172766D02*X101766Y169800D01*
X101200Y169234D01*
X98234Y172200D01*
X98800Y172766D01*
G37*
G36*
X98234Y169800D02*X101200Y172766D01*
X101766Y172200D01*
X98800Y169234D01*
X98234Y169800D01*
G37*
G36*
X93800Y172766D02*X96766Y169800D01*
X96200Y169234D01*
X93234Y172200D01*
X93800Y172766D01*
G37*
G36*
X93234Y169800D02*X96200Y172766D01*
X96766Y172200D01*
X93800Y169234D01*
X93234Y169800D01*
G37*
G36*
X103800Y172766D02*X106766Y169800D01*
X106200Y169234D01*
X103234Y172200D01*
X103800Y172766D01*
G37*
G36*
X103234Y169800D02*X106200Y172766D01*
X106766Y172200D01*
X103800Y169234D01*
X103234Y169800D01*
G37*
G36*
X98800Y145766D02*X101766Y142800D01*
X101200Y142234D01*
X98234Y145200D01*
X98800Y145766D01*
G37*
G36*
X98234Y142800D02*X101200Y145766D01*
X101766Y145200D01*
X98800Y142234D01*
X98234Y142800D01*
G37*
G36*
X93800Y145766D02*X96766Y142800D01*
X96200Y142234D01*
X93234Y145200D01*
X93800Y145766D01*
G37*
G36*
X93234Y142800D02*X96200Y145766D01*
X96766Y145200D01*
X93800Y142234D01*
X93234Y142800D01*
G37*
G36*
X103800Y145766D02*X106766Y142800D01*
X106200Y142234D01*
X103234Y145200D01*
X103800Y145766D01*
G37*
G36*
X103234Y142800D02*X106200Y145766D01*
X106766Y145200D01*
X103800Y142234D01*
X103234Y142800D01*
G37*
G36*
X98800Y137766D02*X101766Y134800D01*
X101200Y134234D01*
X98234Y137200D01*
X98800Y137766D01*
G37*
G36*
X98234Y134800D02*X101200Y137766D01*
X101766Y137200D01*
X98800Y134234D01*
X98234Y134800D01*
G37*
G36*
X93800Y137766D02*X96766Y134800D01*
X96200Y134234D01*
X93234Y137200D01*
X93800Y137766D01*
G37*
G36*
X93234Y134800D02*X96200Y137766D01*
X96766Y137200D01*
X93800Y134234D01*
X93234Y134800D01*
G37*
G36*
X103800Y137766D02*X106766Y134800D01*
X106200Y134234D01*
X103234Y137200D01*
X103800Y137766D01*
G37*
G36*
X103234Y134800D02*X106200Y137766D01*
X106766Y137200D01*
X103800Y134234D01*
X103234Y134800D01*
G37*
G36*
X98800Y110766D02*X101766Y107800D01*
X101200Y107234D01*
X98234Y110200D01*
X98800Y110766D01*
G37*
G36*
X98234Y107800D02*X101200Y110766D01*
X101766Y110200D01*
X98800Y107234D01*
X98234Y107800D01*
G37*
G36*
X93800Y110766D02*X96766Y107800D01*
X96200Y107234D01*
X93234Y110200D01*
X93800Y110766D01*
G37*
G36*
X93234Y107800D02*X96200Y110766D01*
X96766Y110200D01*
X93800Y107234D01*
X93234Y107800D01*
G37*
G36*
X103800Y110766D02*X106766Y107800D01*
X106200Y107234D01*
X103234Y110200D01*
X103800Y110766D01*
G37*
G36*
X103234Y107800D02*X106200Y110766D01*
X106766Y110200D01*
X103800Y107234D01*
X103234Y107800D01*
G37*
G36*
X98800Y102766D02*X101766Y99800D01*
X101200Y99234D01*
X98234Y102200D01*
X98800Y102766D01*
G37*
G36*
X98234Y99800D02*X101200Y102766D01*
X101766Y102200D01*
X98800Y99234D01*
X98234Y99800D01*
G37*
G36*
X93800Y102766D02*X96766Y99800D01*
X96200Y99234D01*
X93234Y102200D01*
X93800Y102766D01*
G37*
G36*
X93234Y99800D02*X96200Y102766D01*
X96766Y102200D01*
X93800Y99234D01*
X93234Y99800D01*
G37*
G36*
X103800Y102766D02*X106766Y99800D01*
X106200Y99234D01*
X103234Y102200D01*
X103800Y102766D01*
G37*
G36*
X103234Y99800D02*X106200Y102766D01*
X106766Y102200D01*
X103800Y99234D01*
X103234Y99800D01*
G37*
G36*
X98800Y75766D02*X101766Y72800D01*
X101200Y72234D01*
X98234Y75200D01*
X98800Y75766D01*
G37*
G36*
X98234Y72800D02*X101200Y75766D01*
X101766Y75200D01*
X98800Y72234D01*
X98234Y72800D01*
G37*
G36*
X93800Y75766D02*X96766Y72800D01*
X96200Y72234D01*
X93234Y75200D01*
X93800Y75766D01*
G37*
G36*
X93234Y72800D02*X96200Y75766D01*
X96766Y75200D01*
X93800Y72234D01*
X93234Y72800D01*
G37*
G36*
X103800Y75766D02*X106766Y72800D01*
X106200Y72234D01*
X103234Y75200D01*
X103800Y75766D01*
G37*
G36*
X103234Y72800D02*X106200Y75766D01*
X106766Y75200D01*
X103800Y72234D01*
X103234Y72800D01*
G37*
G36*
X98800Y67766D02*X101766Y64800D01*
X101200Y64234D01*
X98234Y67200D01*
X98800Y67766D01*
G37*
G36*
X98234Y64800D02*X101200Y67766D01*
X101766Y67200D01*
X98800Y64234D01*
X98234Y64800D01*
G37*
G36*
X93800Y67766D02*X96766Y64800D01*
X96200Y64234D01*
X93234Y67200D01*
X93800Y67766D01*
G37*
G36*
X93234Y64800D02*X96200Y67766D01*
X96766Y67200D01*
X93800Y64234D01*
X93234Y64800D01*
G37*
G36*
X103800Y67766D02*X106766Y64800D01*
X106200Y64234D01*
X103234Y67200D01*
X103800Y67766D01*
G37*
G36*
X103234Y64800D02*X106200Y67766D01*
X106766Y67200D01*
X103800Y64234D01*
X103234Y64800D01*
G37*
G36*
X98800Y40766D02*X101766Y37800D01*
X101200Y37234D01*
X98234Y40200D01*
X98800Y40766D01*
G37*
G36*
X98234Y37800D02*X101200Y40766D01*
X101766Y40200D01*
X98800Y37234D01*
X98234Y37800D01*
G37*
G36*
X93800Y40766D02*X96766Y37800D01*
X96200Y37234D01*
X93234Y40200D01*
X93800Y40766D01*
G37*
G36*
X93234Y37800D02*X96200Y40766D01*
X96766Y40200D01*
X93800Y37234D01*
X93234Y37800D01*
G37*
G36*
X103800Y40766D02*X106766Y37800D01*
X106200Y37234D01*
X103234Y40200D01*
X103800Y40766D01*
G37*
G36*
X103234Y37800D02*X106200Y40766D01*
X106766Y40200D01*
X103800Y37234D01*
X103234Y37800D01*
G37*
G36*
X98800Y32766D02*X101766Y29800D01*
X101200Y29234D01*
X98234Y32200D01*
X98800Y32766D01*
G37*
G36*
X98234Y29800D02*X101200Y32766D01*
X101766Y32200D01*
X98800Y29234D01*
X98234Y29800D01*
G37*
G36*
X93800Y32766D02*X96766Y29800D01*
X96200Y29234D01*
X93234Y32200D01*
X93800Y32766D01*
G37*
G36*
X93234Y29800D02*X96200Y32766D01*
X96766Y32200D01*
X93800Y29234D01*
X93234Y29800D01*
G37*
G36*
X103800Y32766D02*X106766Y29800D01*
X106200Y29234D01*
X103234Y32200D01*
X103800Y32766D01*
G37*
G36*
X103234Y29800D02*X106200Y32766D01*
X106766Y32200D01*
X103800Y29234D01*
X103234Y29800D01*
G37*
G36*
X13800Y448016D02*X16766Y445050D01*
X16200Y444484D01*
X13234Y447450D01*
X13800Y448016D01*
G37*
G36*
X13234Y445050D02*X16200Y448016D01*
X16766Y447450D01*
X13800Y444484D01*
X13234Y445050D01*
G37*
G54D38*X140000Y448500D02*Y442500D01*
Y448500D02*X143750Y442500D01*
Y448500D02*Y442500D01*
X145550Y447750D02*Y443250D01*
Y447750D02*X146300Y448500D01*
X147800D01*
X148550Y447750D01*
Y443250D01*
X147800Y442500D02*X148550Y443250D01*
X146300Y442500D02*X147800D01*
X145550Y443250D02*X146300Y442500D01*
X100250Y448500D02*X101000Y447750D01*
X98750Y448500D02*X100250D01*
X98000Y447750D02*X98750Y448500D01*
X98000Y447750D02*Y443250D01*
X98750Y442500D01*
X100250Y445800D02*X101000Y445050D01*
X98000Y445800D02*X100250D01*
X98750Y442500D02*X100250D01*
X101000Y443250D01*
Y445050D02*Y443250D01*
X105050Y448500D02*X105800Y447750D01*
X103550Y448500D02*X105050D01*
X102800Y447750D02*X103550Y448500D01*
X102800Y447750D02*Y443250D01*
X103550Y442500D01*
X105050Y445800D02*X105800Y445050D01*
X102800Y445800D02*X105050D01*
X103550Y442500D02*X105050D01*
X105800Y443250D01*
Y445050D02*Y443250D01*
X45000D02*X45750Y442500D01*
X45000Y447750D02*Y443250D01*
Y447750D02*X45750Y448500D01*
X47250D01*
X48000Y447750D01*
Y443250D01*
X47250Y442500D02*X48000Y443250D01*
X45750Y442500D02*X47250D01*
X45000Y444000D02*X48000Y447000D01*
X49800Y442500D02*X50550D01*
X52350Y443250D02*X53100Y442500D01*
X52350Y447750D02*Y443250D01*
Y447750D02*X53100Y448500D01*
X54600D01*
X55350Y447750D01*
Y443250D01*
X54600Y442500D02*X55350Y443250D01*
X53100Y442500D02*X54600D01*
X52350Y444000D02*X55350Y447000D01*
X57150Y447750D02*X57900Y448500D01*
X59400D01*
X60150Y447750D01*
X59400Y442500D02*X60150Y443250D01*
X57900Y442500D02*X59400D01*
X57150Y443250D02*X57900Y442500D01*
Y445800D02*X59400D01*
X60150Y447750D02*Y446550D01*
Y445050D02*Y443250D01*
Y445050D02*X59400Y445800D01*
X60150Y446550D02*X59400Y445800D01*
X61950Y447300D02*X63150Y448500D01*
Y442500D01*
X61950D02*X64200D01*
X127500Y410600D02*Y407400D01*
X125900Y409000D02*X129100D01*
X127500Y397600D02*Y394400D01*
X125900Y396000D02*X129100D01*
X127500Y375600D02*Y372400D01*
X125900Y374000D02*X129100D01*
X127500Y362600D02*Y359400D01*
X125900Y361000D02*X129100D01*
X127500Y340600D02*Y337400D01*
X125900Y339000D02*X129100D01*
X127500Y327600D02*Y324400D01*
X125900Y326000D02*X129100D01*
X127500Y305600D02*Y302400D01*
X125900Y304000D02*X129100D01*
X127500Y292600D02*Y289400D01*
X125900Y291000D02*X129100D01*
X127500Y270600D02*Y267400D01*
X125900Y269000D02*X129100D01*
X127500Y257600D02*Y254400D01*
X125900Y256000D02*X129100D01*
X127500Y235600D02*Y232400D01*
X125900Y234000D02*X129100D01*
X127500Y222600D02*Y219400D01*
X125900Y221000D02*X129100D01*
X127500Y200600D02*Y197400D01*
X125900Y199000D02*X129100D01*
X127500Y187600D02*Y184400D01*
X125900Y186000D02*X129100D01*
X127500Y165600D02*Y162400D01*
X125900Y164000D02*X129100D01*
X127500Y152600D02*Y149400D01*
X125900Y151000D02*X129100D01*
X127500Y130600D02*Y127400D01*
X125900Y129000D02*X129100D01*
X127500Y117600D02*Y114400D01*
X125900Y116000D02*X129100D01*
X127500Y95600D02*Y92400D01*
X125900Y94000D02*X129100D01*
X127500Y82600D02*Y79400D01*
X125900Y81000D02*X129100D01*
X127500Y60600D02*Y57400D01*
X125900Y59000D02*X129100D01*
X127500Y47600D02*Y44400D01*
X125900Y46000D02*X129100D01*
X127500Y25600D02*Y22400D01*
X125900Y24000D02*X129100D01*
X127500Y12600D02*Y9400D01*
X125900Y11000D02*X129100D01*
X15000Y462850D02*Y459650D01*
X13400Y461250D02*X16600D01*
X135000Y463500D02*X136500Y460500D01*
X138000Y463500D01*
X136500Y460500D02*Y457500D01*
X139800Y460800D02*X142050D01*
X139800Y457500D02*X142800D01*
X139800Y463500D02*Y457500D01*
Y463500D02*X142800D01*
X147600D02*X148350Y462750D01*
X145350Y463500D02*X147600D01*
X144600Y462750D02*X145350Y463500D01*
X144600Y462750D02*Y461250D01*
X145350Y460500D01*
X147600D01*
X148350Y459750D01*
Y458250D01*
X147600Y457500D02*X148350Y458250D01*
X145350Y457500D02*X147600D01*
X144600Y458250D02*X145350Y457500D01*
X98000Y462750D02*X98750Y463500D01*
X101000D01*
X101750Y462750D01*
Y461250D01*
X98000Y457500D02*X101750Y461250D01*
X98000Y457500D02*X101750D01*
X103550Y459750D02*X106550Y463500D01*
X103550Y459750D02*X107300D01*
X106550Y463500D02*Y457500D01*
X45000Y458250D02*X45750Y457500D01*
X45000Y462750D02*Y458250D01*
Y462750D02*X45750Y463500D01*
X47250D01*
X48000Y462750D01*
Y458250D01*
X47250Y457500D02*X48000Y458250D01*
X45750Y457500D02*X47250D01*
X45000Y459000D02*X48000Y462000D01*
X49800Y457500D02*X50550D01*
X52350Y458250D02*X53100Y457500D01*
X52350Y462750D02*Y458250D01*
Y462750D02*X53100Y463500D01*
X54600D01*
X55350Y462750D01*
Y458250D01*
X54600Y457500D02*X55350Y458250D01*
X53100Y457500D02*X54600D01*
X52350Y459000D02*X55350Y462000D01*
X57150Y462750D02*X57900Y463500D01*
X60150D01*
X60900Y462750D01*
Y461250D01*
X57150Y457500D02*X60900Y461250D01*
X57150Y457500D02*X60900D01*
X62700Y458250D02*X63450Y457500D01*
X62700Y462750D02*Y458250D01*
Y462750D02*X63450Y463500D01*
X64950D01*
X65700Y462750D01*
Y458250D01*
X64950Y457500D02*X65700Y458250D01*
X63450Y457500D02*X64950D01*
X62700Y459000D02*X65700Y462000D01*
X101500Y403500D02*Y401900D01*
Y403500D02*X102887Y404300D01*
X101500Y403500D02*X100113Y404300D01*
X101500Y399500D02*Y397900D01*
Y399500D02*X102887Y400300D01*
X101500Y399500D02*X100113Y400300D01*
X79900Y405300D02*Y403700D01*
Y405300D02*X81287Y406100D01*
X79900Y405300D02*X78513Y406100D01*
X69800Y399700D02*Y398100D01*
Y399700D02*X71187Y400500D01*
X69800Y399700D02*X68413Y400500D01*
X76200Y405300D02*Y403700D01*
Y405300D02*X77587Y406100D01*
X76200Y405300D02*X74813Y406100D01*
X101500Y368500D02*Y366900D01*
Y368500D02*X102887Y369300D01*
X101500Y368500D02*X100113Y369300D01*
X101500Y364500D02*Y362900D01*
Y364500D02*X102887Y365300D01*
X101500Y364500D02*X100113Y365300D01*
X79900Y370300D02*Y368700D01*
Y370300D02*X81287Y371100D01*
X79900Y370300D02*X78513Y371100D01*
X69800Y364700D02*Y363100D01*
Y364700D02*X71187Y365500D01*
X69800Y364700D02*X68413Y365500D01*
X76200Y370300D02*Y368700D01*
Y370300D02*X77587Y371100D01*
X76200Y370300D02*X74813Y371100D01*
X101500Y333500D02*Y331900D01*
Y333500D02*X102887Y334300D01*
X101500Y333500D02*X100113Y334300D01*
X101500Y329500D02*Y327900D01*
Y329500D02*X102887Y330300D01*
X101500Y329500D02*X100113Y330300D01*
X79900Y335300D02*Y333700D01*
Y335300D02*X81287Y336100D01*
X79900Y335300D02*X78513Y336100D01*
X69800Y329700D02*Y328100D01*
Y329700D02*X71187Y330500D01*
X69800Y329700D02*X68413Y330500D01*
X76200Y335300D02*Y333700D01*
Y335300D02*X77587Y336100D01*
X76200Y335300D02*X74813Y336100D01*
X101500Y298500D02*Y296900D01*
Y298500D02*X102887Y299300D01*
X101500Y298500D02*X100113Y299300D01*
X101500Y294500D02*Y292900D01*
Y294500D02*X102887Y295300D01*
X101500Y294500D02*X100113Y295300D01*
X79900Y300300D02*Y298700D01*
Y300300D02*X81287Y301100D01*
X79900Y300300D02*X78513Y301100D01*
X69800Y294700D02*Y293100D01*
Y294700D02*X71187Y295500D01*
X69800Y294700D02*X68413Y295500D01*
X76200Y300300D02*Y298700D01*
Y300300D02*X77587Y301100D01*
X76200Y300300D02*X74813Y301100D01*
X101500Y263500D02*Y261900D01*
Y263500D02*X102887Y264300D01*
X101500Y263500D02*X100113Y264300D01*
X101500Y259500D02*Y257900D01*
Y259500D02*X102887Y260300D01*
X101500Y259500D02*X100113Y260300D01*
X79900Y265300D02*Y263700D01*
Y265300D02*X81287Y266100D01*
X79900Y265300D02*X78513Y266100D01*
X69800Y259700D02*Y258100D01*
Y259700D02*X71187Y260500D01*
X69800Y259700D02*X68413Y260500D01*
X76200Y265300D02*Y263700D01*
Y265300D02*X77587Y266100D01*
X76200Y265300D02*X74813Y266100D01*
X101500Y228500D02*Y226900D01*
Y228500D02*X102887Y229300D01*
X101500Y228500D02*X100113Y229300D01*
X101500Y224500D02*Y222900D01*
Y224500D02*X102887Y225300D01*
X101500Y224500D02*X100113Y225300D01*
X79900Y230300D02*Y228700D01*
Y230300D02*X81287Y231100D01*
X79900Y230300D02*X78513Y231100D01*
X69800Y224700D02*Y223100D01*
Y224700D02*X71187Y225500D01*
X69800Y224700D02*X68413Y225500D01*
X76200Y230300D02*Y228700D01*
Y230300D02*X77587Y231100D01*
X76200Y230300D02*X74813Y231100D01*
X101500Y193500D02*Y191900D01*
Y193500D02*X102887Y194300D01*
X101500Y193500D02*X100113Y194300D01*
X101500Y189500D02*Y187900D01*
Y189500D02*X102887Y190300D01*
X101500Y189500D02*X100113Y190300D01*
X79900Y195300D02*Y193700D01*
Y195300D02*X81287Y196100D01*
X79900Y195300D02*X78513Y196100D01*
X69800Y189700D02*Y188100D01*
Y189700D02*X71187Y190500D01*
X69800Y189700D02*X68413Y190500D01*
X76200Y195300D02*Y193700D01*
Y195300D02*X77587Y196100D01*
X76200Y195300D02*X74813Y196100D01*
X101500Y158500D02*Y156900D01*
Y158500D02*X102887Y159300D01*
X101500Y158500D02*X100113Y159300D01*
X101500Y154500D02*Y152900D01*
Y154500D02*X102887Y155300D01*
X101500Y154500D02*X100113Y155300D01*
X79900Y160300D02*Y158700D01*
Y160300D02*X81287Y161100D01*
X79900Y160300D02*X78513Y161100D01*
X69800Y154700D02*Y153100D01*
Y154700D02*X71187Y155500D01*
X69800Y154700D02*X68413Y155500D01*
X76200Y160300D02*Y158700D01*
Y160300D02*X77587Y161100D01*
X76200Y160300D02*X74813Y161100D01*
X101500Y123500D02*Y121900D01*
Y123500D02*X102887Y124300D01*
X101500Y123500D02*X100113Y124300D01*
X101500Y119500D02*Y117900D01*
Y119500D02*X102887Y120300D01*
X101500Y119500D02*X100113Y120300D01*
X79900Y125300D02*Y123700D01*
Y125300D02*X81287Y126100D01*
X79900Y125300D02*X78513Y126100D01*
X69800Y119700D02*Y118100D01*
Y119700D02*X71187Y120500D01*
X69800Y119700D02*X68413Y120500D01*
X76200Y125300D02*Y123700D01*
Y125300D02*X77587Y126100D01*
X76200Y125300D02*X74813Y126100D01*
X101500Y88500D02*Y86900D01*
Y88500D02*X102887Y89300D01*
X101500Y88500D02*X100113Y89300D01*
X101500Y84500D02*Y82900D01*
Y84500D02*X102887Y85300D01*
X101500Y84500D02*X100113Y85300D01*
X79900Y90300D02*Y88700D01*
Y90300D02*X81287Y91100D01*
X79900Y90300D02*X78513Y91100D01*
X69800Y84700D02*Y83100D01*
Y84700D02*X71187Y85500D01*
X69800Y84700D02*X68413Y85500D01*
X76200Y90300D02*Y88700D01*
Y90300D02*X77587Y91100D01*
X76200Y90300D02*X74813Y91100D01*
X101500Y53500D02*Y51900D01*
Y53500D02*X102887Y54300D01*
X101500Y53500D02*X100113Y54300D01*
X101500Y49500D02*Y47900D01*
Y49500D02*X102887Y50300D01*
X101500Y49500D02*X100113Y50300D01*
X79900Y55300D02*Y53700D01*
Y55300D02*X81287Y56100D01*
X79900Y55300D02*X78513Y56100D01*
X69800Y49700D02*Y48100D01*
Y49700D02*X71187Y50500D01*
X69800Y49700D02*X68413Y50500D01*
X76200Y55300D02*Y53700D01*
Y55300D02*X77587Y56100D01*
X76200Y55300D02*X74813Y56100D01*
X101500Y18500D02*Y16900D01*
Y18500D02*X102887Y19300D01*
X101500Y18500D02*X100113Y19300D01*
X101500Y14500D02*Y12900D01*
Y14500D02*X102887Y15300D01*
X101500Y14500D02*X100113Y15300D01*
X79900Y20300D02*Y18700D01*
Y20300D02*X81287Y21100D01*
X79900Y20300D02*X78513Y21100D01*
X69800Y14700D02*Y13100D01*
Y14700D02*X71187Y15500D01*
X69800Y14700D02*X68413Y15500D01*
X76200Y20300D02*Y18700D01*
Y20300D02*X77587Y21100D01*
X76200Y20300D02*X74813Y21100D01*
X15000Y476250D02*Y474650D01*
Y476250D02*X16387Y477050D01*
X15000Y476250D02*X13613Y477050D01*
X135000Y478500D02*X136500Y475500D01*
X138000Y478500D01*
X136500Y475500D02*Y472500D01*
X139800Y475800D02*X142050D01*
X139800Y472500D02*X142800D01*
X139800Y478500D02*Y472500D01*
Y478500D02*X142800D01*
X147600D02*X148350Y477750D01*
X145350Y478500D02*X147600D01*
X144600Y477750D02*X145350Y478500D01*
X144600Y477750D02*Y476250D01*
X145350Y475500D01*
X147600D01*
X148350Y474750D01*
Y473250D01*
X147600Y472500D02*X148350Y473250D01*
X145350Y472500D02*X147600D01*
X144600Y473250D02*X145350Y472500D01*
X100250Y478500D02*X101000Y477750D01*
X98750Y478500D02*X100250D01*
X98000Y477750D02*X98750Y478500D01*
X98000Y477750D02*Y473250D01*
X98750Y472500D01*
X100250Y475800D02*X101000Y475050D01*
X98000Y475800D02*X100250D01*
X98750Y472500D02*X100250D01*
X101000Y473250D01*
Y475050D02*Y473250D01*
X102800D02*X103550Y472500D01*
X102800Y477750D02*Y473250D01*
Y477750D02*X103550Y478500D01*
X105050D01*
X105800Y477750D01*
Y473250D01*
X105050Y472500D02*X105800Y473250D01*
X103550Y472500D02*X105050D01*
X102800Y474000D02*X105800Y477000D01*
X45000Y473250D02*X45750Y472500D01*
X45000Y477750D02*Y473250D01*
Y477750D02*X45750Y478500D01*
X47250D01*
X48000Y477750D01*
Y473250D01*
X47250Y472500D02*X48000Y473250D01*
X45750Y472500D02*X47250D01*
X45000Y474000D02*X48000Y477000D01*
X49800Y472500D02*X50550D01*
X52350Y473250D02*X53100Y472500D01*
X52350Y477750D02*Y473250D01*
Y477750D02*X53100Y478500D01*
X54600D01*
X55350Y477750D01*
Y473250D01*
X54600Y472500D02*X55350Y473250D01*
X53100Y472500D02*X54600D01*
X52350Y474000D02*X55350Y477000D01*
X57150Y477300D02*X58350Y478500D01*
Y472500D01*
X57150D02*X59400D01*
X61200Y474750D02*X64200Y478500D01*
X61200Y474750D02*X64950D01*
X64200Y478500D02*Y472500D01*
X3000Y493500D02*X3750Y492750D01*
X750Y493500D02*X3000D01*
X0Y492750D02*X750Y493500D01*
X0Y492750D02*Y491250D01*
X750Y490500D01*
X3000D01*
X3750Y489750D01*
Y488250D01*
X3000Y487500D02*X3750Y488250D01*
X750Y487500D02*X3000D01*
X0Y488250D02*X750Y487500D01*
X5550Y490500D02*Y488250D01*
X6300Y487500D01*
X8550Y490500D02*Y486000D01*
X7800Y485250D02*X8550Y486000D01*
X6300Y485250D02*X7800D01*
X5550Y486000D02*X6300Y485250D01*
Y487500D02*X7800D01*
X8550Y488250D01*
X11100Y489750D02*Y487500D01*
Y489750D02*X11850Y490500D01*
X12600D01*
X13350Y489750D01*
Y487500D01*
Y489750D02*X14100Y490500D01*
X14850D01*
X15600Y489750D01*
Y487500D01*
X10350Y490500D02*X11100Y489750D01*
X17400Y493500D02*Y487500D01*
Y488250D02*X18150Y487500D01*
X19650D01*
X20400Y488250D01*
Y489750D02*Y488250D01*
X19650Y490500D02*X20400Y489750D01*
X18150Y490500D02*X19650D01*
X17400Y489750D02*X18150Y490500D01*
X22200Y489750D02*Y488250D01*
Y489750D02*X22950Y490500D01*
X24450D01*
X25200Y489750D01*
Y488250D01*
X24450Y487500D02*X25200Y488250D01*
X22950Y487500D02*X24450D01*
X22200Y488250D02*X22950Y487500D01*
X27000Y493500D02*Y488250D01*
X27750Y487500D01*
X0Y484250D02*X29250D01*
X41750Y493500D02*Y487500D01*
X43700Y493500D02*X44750Y492450D01*
Y488550D01*
X43700Y487500D02*X44750Y488550D01*
X41000Y487500D02*X43700D01*
X41000Y493500D02*X43700D01*
G54D39*X46550Y492000D02*Y491850D01*
G54D38*Y489750D02*Y487500D01*
X50300Y490500D02*X51050Y489750D01*
X48800Y490500D02*X50300D01*
X48050Y489750D02*X48800Y490500D01*
X48050Y489750D02*Y488250D01*
X48800Y487500D01*
X51050Y490500D02*Y488250D01*
X51800Y487500D01*
X48800D02*X50300D01*
X51050Y488250D01*
X54350Y489750D02*Y487500D01*
Y489750D02*X55100Y490500D01*
X55850D01*
X56600Y489750D01*
Y487500D01*
Y489750D02*X57350Y490500D01*
X58100D01*
X58850Y489750D01*
Y487500D01*
X53600Y490500D02*X54350Y489750D01*
X60650Y487500D02*X61400D01*
X65900Y488250D02*X66650Y487500D01*
X65900Y492750D02*X66650Y493500D01*
X65900Y492750D02*Y488250D01*
X68450Y493500D02*X69950D01*
X69200D02*Y487500D01*
X68450D02*X69950D01*
X72500Y489750D02*Y487500D01*
Y489750D02*X73250Y490500D01*
X74000D01*
X74750Y489750D01*
Y487500D01*
X71750Y490500D02*X72500Y489750D01*
X77300Y490500D02*X79550D01*
X76550Y489750D02*X77300Y490500D01*
X76550Y489750D02*Y488250D01*
X77300Y487500D01*
X79550D01*
X81350Y493500D02*Y487500D01*
Y489750D02*X82100Y490500D01*
X83600D01*
X84350Y489750D01*
Y487500D01*
X86150Y493500D02*X86900Y492750D01*
Y488250D01*
X86150Y487500D02*X86900Y488250D01*
X41000Y484250D02*X88700D01*
X96050Y487500D02*X98000D01*
X95000Y488550D02*X96050Y487500D01*
X95000Y492450D02*Y488550D01*
Y492450D02*X96050Y493500D01*
X98000D01*
X99800Y489750D02*Y488250D01*
Y489750D02*X100550Y490500D01*
X102050D01*
X102800Y489750D01*
Y488250D01*
X102050Y487500D02*X102800Y488250D01*
X100550Y487500D02*X102050D01*
X99800Y488250D02*X100550Y487500D01*
X104600Y490500D02*Y488250D01*
X105350Y487500D01*
X106850D01*
X107600Y488250D01*
Y490500D02*Y488250D01*
X110150Y489750D02*Y487500D01*
Y489750D02*X110900Y490500D01*
X111650D01*
X112400Y489750D01*
Y487500D01*
X109400Y490500D02*X110150Y489750D01*
X114950Y493500D02*Y488250D01*
X115700Y487500D01*
X114200Y491250D02*X115700D01*
X95000Y484250D02*X117200D01*
X130750Y493500D02*Y487500D01*
X130000Y493500D02*X133000D01*
X133750Y492750D01*
Y491250D01*
X133000Y490500D02*X133750Y491250D01*
X130750Y490500D02*X133000D01*
X135550Y493500D02*Y488250D01*
X136300Y487500D01*
X140050Y490500D02*X140800Y489750D01*
X138550Y490500D02*X140050D01*
X137800Y489750D02*X138550Y490500D01*
X137800Y489750D02*Y488250D01*
X138550Y487500D01*
X140800Y490500D02*Y488250D01*
X141550Y487500D01*
X138550D02*X140050D01*
X140800Y488250D01*
X144100Y493500D02*Y488250D01*
X144850Y487500D01*
X143350Y491250D02*X144850D01*
X147100Y487500D02*X149350D01*
X146350Y488250D02*X147100Y487500D01*
X146350Y489750D02*Y488250D01*
Y489750D02*X147100Y490500D01*
X148600D01*
X149350Y489750D01*
X146350Y489000D02*X149350D01*
Y489750D02*Y489000D01*
X154150Y493500D02*Y487500D01*
X153400D02*X154150Y488250D01*
X151900Y487500D02*X153400D01*
X151150Y488250D02*X151900Y487500D01*
X151150Y489750D02*Y488250D01*
Y489750D02*X151900Y490500D01*
X153400D01*
X154150Y489750D01*
X157450Y490500D02*Y489750D01*
Y488250D02*Y487500D01*
X155950Y492750D02*Y492000D01*
Y492750D02*X156700Y493500D01*
X158200D01*
X158950Y492750D01*
Y492000D01*
X157450Y490500D02*X158950Y492000D01*
X130000Y484250D02*X160750D01*
X0Y508500D02*X3000D01*
X1500D02*Y502500D01*
X4800Y508500D02*Y502500D01*
Y504750D02*X5550Y505500D01*
X7050D01*
X7800Y504750D01*
Y502500D01*
X10350D02*X12600D01*
X9600Y503250D02*X10350Y502500D01*
X9600Y504750D02*Y503250D01*
Y504750D02*X10350Y505500D01*
X11850D01*
X12600Y504750D01*
X9600Y504000D02*X12600D01*
Y504750D02*Y504000D01*
X15150Y504750D02*Y502500D01*
Y504750D02*X15900Y505500D01*
X17400D01*
X14400D02*X15150Y504750D01*
X19950Y502500D02*X22200D01*
X19200Y503250D02*X19950Y502500D01*
X19200Y504750D02*Y503250D01*
Y504750D02*X19950Y505500D01*
X21450D01*
X22200Y504750D01*
X19200Y504000D02*X22200D01*
Y504750D02*Y504000D01*
X28950Y505500D02*X29700Y504750D01*
X27450Y505500D02*X28950D01*
X26700Y504750D02*X27450Y505500D01*
X26700Y504750D02*Y503250D01*
X27450Y502500D01*
X29700Y505500D02*Y503250D01*
X30450Y502500D01*
X27450D02*X28950D01*
X29700Y503250D01*
X33000Y504750D02*Y502500D01*
Y504750D02*X33750Y505500D01*
X35250D01*
X32250D02*X33000Y504750D01*
X37800Y502500D02*X40050D01*
X37050Y503250D02*X37800Y502500D01*
X37050Y504750D02*Y503250D01*
Y504750D02*X37800Y505500D01*
X39300D01*
X40050Y504750D01*
X37050Y504000D02*X40050D01*
Y504750D02*Y504000D01*
X44550Y507750D02*X45300Y508500D01*
X46800D01*
X47550Y507750D01*
X46800Y502500D02*X47550Y503250D01*
X45300Y502500D02*X46800D01*
X44550Y503250D02*X45300Y502500D01*
Y505800D02*X46800D01*
X47550Y507750D02*Y506550D01*
Y505050D02*Y503250D01*
Y505050D02*X46800Y505800D01*
X47550Y506550D02*X46800Y505800D01*
X55050Y508500D02*Y502500D01*
X54300D02*X55050Y503250D01*
X52800Y502500D02*X54300D01*
X52050Y503250D02*X52800Y502500D01*
X52050Y504750D02*Y503250D01*
Y504750D02*X52800Y505500D01*
X54300D01*
X55050Y504750D01*
G54D39*X56850Y507000D02*Y506850D01*
G54D38*Y504750D02*Y502500D01*
X59100Y507750D02*Y502500D01*
Y507750D02*X59850Y508500D01*
X60600D01*
X58350Y505500D02*X59850D01*
X62850Y507750D02*Y502500D01*
Y507750D02*X63600Y508500D01*
X64350D01*
X62100Y505500D02*X63600D01*
X66600Y502500D02*X68850D01*
X65850Y503250D02*X66600Y502500D01*
X65850Y504750D02*Y503250D01*
Y504750D02*X66600Y505500D01*
X68100D01*
X68850Y504750D01*
X65850Y504000D02*X68850D01*
Y504750D02*Y504000D01*
X71400Y504750D02*Y502500D01*
Y504750D02*X72150Y505500D01*
X73650D01*
X70650D02*X71400Y504750D01*
X76200Y502500D02*X78450D01*
X75450Y503250D02*X76200Y502500D01*
X75450Y504750D02*Y503250D01*
Y504750D02*X76200Y505500D01*
X77700D01*
X78450Y504750D01*
X75450Y504000D02*X78450D01*
Y504750D02*Y504000D01*
X81000Y504750D02*Y502500D01*
Y504750D02*X81750Y505500D01*
X82500D01*
X83250Y504750D01*
Y502500D01*
X80250Y505500D02*X81000Y504750D01*
X85800Y508500D02*Y503250D01*
X86550Y502500D01*
X85050Y506250D02*X86550D01*
X93750Y508500D02*Y502500D01*
X93000D02*X93750Y503250D01*
X91500Y502500D02*X93000D01*
X90750Y503250D02*X91500Y502500D01*
X90750Y504750D02*Y503250D01*
Y504750D02*X91500Y505500D01*
X93000D01*
X93750Y504750D01*
X96300D02*Y502500D01*
Y504750D02*X97050Y505500D01*
X98550D01*
X95550D02*X96300Y504750D01*
G54D39*X100350Y507000D02*Y506850D01*
G54D38*Y504750D02*Y502500D01*
X101850Y508500D02*Y503250D01*
X102600Y502500D01*
X104100Y508500D02*Y503250D01*
X104850Y502500D01*
X109800D02*X112050D01*
X112800Y503250D01*
X112050Y504000D02*X112800Y503250D01*
X109800Y504000D02*X112050D01*
X109050Y504750D02*X109800Y504000D01*
X109050Y504750D02*X109800Y505500D01*
X112050D01*
X112800Y504750D01*
X109050Y503250D02*X109800Y502500D01*
G54D39*X114600Y507000D02*Y506850D01*
G54D38*Y504750D02*Y502500D01*
X116100Y505500D02*X119100D01*
X116100Y502500D02*X119100Y505500D01*
X116100Y502500D02*X119100D01*
X121650D02*X123900D01*
X120900Y503250D02*X121650Y502500D01*
X120900Y504750D02*Y503250D01*
Y504750D02*X121650Y505500D01*
X123150D01*
X123900Y504750D01*
X120900Y504000D02*X123900D01*
Y504750D02*Y504000D01*
X126450Y502500D02*X128700D01*
X129450Y503250D01*
X128700Y504000D02*X129450Y503250D01*
X126450Y504000D02*X128700D01*
X125700Y504750D02*X126450Y504000D01*
X125700Y504750D02*X126450Y505500D01*
X128700D01*
X129450Y504750D01*
X125700Y503250D02*X126450Y502500D01*
X133950Y505500D02*Y503250D01*
X134700Y502500D01*
X136200D01*
X136950Y503250D01*
Y505500D02*Y503250D01*
X139500Y502500D02*X141750D01*
X142500Y503250D01*
X141750Y504000D02*X142500Y503250D01*
X139500Y504000D02*X141750D01*
X138750Y504750D02*X139500Y504000D01*
X138750Y504750D02*X139500Y505500D01*
X141750D01*
X142500Y504750D01*
X138750Y503250D02*X139500Y502500D01*
X145050D02*X147300D01*
X144300Y503250D02*X145050Y502500D01*
X144300Y504750D02*Y503250D01*
Y504750D02*X145050Y505500D01*
X146550D01*
X147300Y504750D01*
X144300Y504000D02*X147300D01*
Y504750D02*Y504000D01*
X152100Y508500D02*Y502500D01*
X151350D02*X152100Y503250D01*
X149850Y502500D02*X151350D01*
X149100Y503250D02*X149850Y502500D01*
X149100Y504750D02*Y503250D01*
Y504750D02*X149850Y505500D01*
X151350D01*
X152100Y504750D01*
G54D39*X156600Y507000D02*Y506850D01*
G54D38*Y504750D02*Y502500D01*
X158850Y504750D02*Y502500D01*
Y504750D02*X159600Y505500D01*
X160350D01*
X161100Y504750D01*
Y502500D01*
X158100Y505500D02*X158850Y504750D01*
X166350Y508500D02*Y503250D01*
X167100Y502500D01*
X165600Y506250D02*X167100D01*
X168600Y508500D02*Y502500D01*
Y504750D02*X169350Y505500D01*
X170850D01*
X171600Y504750D01*
Y502500D01*
G54D39*X173400Y507000D02*Y506850D01*
G54D38*Y504750D02*Y502500D01*
X175650D02*X177900D01*
X178650Y503250D01*
X177900Y504000D02*X178650Y503250D01*
X175650Y504000D02*X177900D01*
X174900Y504750D02*X175650Y504000D01*
X174900Y504750D02*X175650Y505500D01*
X177900D01*
X178650Y504750D01*
X174900Y503250D02*X175650Y502500D01*
X183150Y508500D02*Y503250D01*
X183900Y502500D01*
X187650Y505500D02*X188400Y504750D01*
X186150Y505500D02*X187650D01*
X185400Y504750D02*X186150Y505500D01*
X185400Y504750D02*Y503250D01*
X186150Y502500D01*
X188400Y505500D02*Y503250D01*
X189150Y502500D01*
X186150D02*X187650D01*
X188400Y503250D01*
X190950Y505500D02*Y503250D01*
X191700Y502500D01*
X193950Y505500D02*Y501000D01*
X193200Y500250D02*X193950Y501000D01*
X191700Y500250D02*X193200D01*
X190950Y501000D02*X191700Y500250D01*
Y502500D02*X193200D01*
X193950Y503250D01*
X195750Y504750D02*Y503250D01*
Y504750D02*X196500Y505500D01*
X198000D01*
X198750Y504750D01*
Y503250D01*
X198000Y502500D02*X198750Y503250D01*
X196500Y502500D02*X198000D01*
X195750Y503250D02*X196500Y502500D01*
X200550Y505500D02*Y503250D01*
X201300Y502500D01*
X202800D01*
X203550Y503250D01*
Y505500D02*Y503250D01*
X206100Y508500D02*Y503250D01*
X206850Y502500D01*
X205350Y506250D02*X206850D01*
X208350Y501000D02*X209850Y502500D01*
X214350Y507300D02*X215550Y508500D01*
Y502500D01*
X214350D02*X216600D01*
X218400Y508500D02*X221400D01*
X218400D02*Y505500D01*
X219150Y506250D01*
X220650D01*
X221400Y505500D01*
Y503250D01*
X220650Y502500D02*X221400Y503250D01*
X219150Y502500D02*X220650D01*
X218400Y503250D02*X219150Y502500D01*
X223200Y503250D02*X223950Y502500D01*
X223200Y507750D02*Y503250D01*
Y507750D02*X223950Y508500D01*
X225450D01*
X226200Y507750D01*
Y503250D01*
X225450Y502500D02*X226200Y503250D01*
X223950Y502500D02*X225450D01*
X223200Y504000D02*X226200Y507000D01*
X230700Y508500D02*Y502500D01*
Y504750D02*X231450Y505500D01*
X232950D01*
X233700Y504750D01*
Y502500D01*
X235500Y504750D02*Y503250D01*
Y504750D02*X236250Y505500D01*
X237750D01*
X238500Y504750D01*
Y503250D01*
X237750Y502500D02*X238500Y503250D01*
X236250Y502500D02*X237750D01*
X235500Y503250D02*X236250Y502500D01*
X240300Y508500D02*Y503250D01*
X241050Y502500D01*
X243300D02*X245550D01*
X242550Y503250D02*X243300Y502500D01*
X242550Y504750D02*Y503250D01*
Y504750D02*X243300Y505500D01*
X244800D01*
X245550Y504750D01*
X242550Y504000D02*X245550D01*
Y504750D02*Y504000D01*
X248100Y502500D02*X250350D01*
X251100Y503250D01*
X250350Y504000D02*X251100Y503250D01*
X248100Y504000D02*X250350D01*
X247350Y504750D02*X248100Y504000D01*
X247350Y504750D02*X248100Y505500D01*
X250350D01*
X251100Y504750D01*
X247350Y503250D02*X248100Y502500D01*
X256350Y508500D02*Y503250D01*
X257100Y502500D01*
X255600Y506250D02*X257100D01*
X258600Y504750D02*Y503250D01*
Y504750D02*X259350Y505500D01*
X260850D01*
X261600Y504750D01*
Y503250D01*
X260850Y502500D02*X261600Y503250D01*
X259350Y502500D02*X260850D01*
X258600Y503250D02*X259350Y502500D01*
X264150Y508500D02*Y503250D01*
X264900Y502500D01*
X263400Y506250D02*X264900D01*
X268650Y505500D02*X269400Y504750D01*
X267150Y505500D02*X268650D01*
X266400Y504750D02*X267150Y505500D01*
X266400Y504750D02*Y503250D01*
X267150Y502500D01*
X269400Y505500D02*Y503250D01*
X270150Y502500D01*
X267150D02*X268650D01*
X269400Y503250D01*
X271950Y508500D02*Y503250D01*
X272700Y502500D01*
G54D40*X140000Y390000D02*Y415000D01*
X60000D02*Y390000D01*
X140000Y355000D02*Y380000D01*
X60000D02*Y355000D01*
X140000Y415000D02*X60000D01*
X140000Y320000D02*Y345000D01*
X60000D02*Y320000D01*
X140000Y285000D02*Y310000D01*
X60000D02*Y285000D01*
X140000Y250000D02*Y275000D01*
X60000D02*Y250000D01*
X140000Y215000D02*Y240000D01*
X60000D02*Y215000D01*
X140000Y180000D02*Y205000D01*
X60000D02*Y180000D01*
X140000Y145000D02*Y170000D01*
X60000D02*Y145000D01*
X140000Y110000D02*Y135000D01*
X60000D02*Y110000D01*
X140000Y75000D02*Y100000D01*
X60000D02*Y75000D01*
X140000Y40000D02*Y65000D01*
X60000D02*Y40000D01*
X140000Y5000D02*Y30000D01*
X60000D02*Y5000D01*
X140000D01*
X60000Y390000D02*X90000D01*
X60000Y380000D02*X90000D01*
X110000Y390000D02*X140000D01*
X110000Y380000D02*X140000D01*
X60000Y355000D02*X90000D01*
X60000Y345000D02*X90000D01*
X110000Y355000D02*X140000D01*
X110000Y345000D02*X140000D01*
X60000Y320000D02*X90000D01*
X60000Y310000D02*X90000D01*
X110000Y320000D02*X140000D01*
X110000Y310000D02*X140000D01*
X60000Y285000D02*X90000D01*
X60000Y275000D02*X90000D01*
X110000Y285000D02*X140000D01*
X110000Y275000D02*X140000D01*
X60000Y250000D02*X90000D01*
X60000Y240000D02*X90000D01*
X110000Y250000D02*X140000D01*
X110000Y240000D02*X140000D01*
X60000Y215000D02*X90000D01*
X60000Y205000D02*X90000D01*
X110000Y215000D02*X140000D01*
X110000Y205000D02*X140000D01*
X60000Y180000D02*X90000D01*
X60000Y170000D02*X90000D01*
X110000Y180000D02*X140000D01*
X110000Y170000D02*X140000D01*
X60000Y145000D02*X90000D01*
X60000Y135000D02*X90000D01*
X110000Y145000D02*X140000D01*
X110000Y135000D02*X140000D01*
X60000Y110000D02*X90000D01*
X60000Y100000D02*X90000D01*
X110000Y110000D02*X140000D01*
X110000Y100000D02*X140000D01*
X60000Y75000D02*X90000D01*
X60000Y65000D02*X90000D01*
X110000Y75000D02*X140000D01*
X110000Y65000D02*X140000D01*
X60000Y40000D02*X90000D01*
X60000Y30000D02*X90000D01*
X110000Y40000D02*X140000D01*
X110000Y30000D02*X140000D01*
X60000Y390000D02*X140000D01*
X60000Y355000D02*X140000D01*
Y380000D02*X60000D01*
Y320000D02*X140000D01*
Y345000D02*X60000D01*
Y285000D02*X140000D01*
Y310000D02*X60000D01*
Y250000D02*X140000D01*
Y275000D02*X60000D01*
Y215000D02*X140000D01*
Y240000D02*X60000D01*
Y180000D02*X140000D01*
Y205000D02*X60000D01*
Y145000D02*X140000D01*
Y170000D02*X60000D01*
Y110000D02*X140000D01*
Y135000D02*X60000D01*
Y75000D02*X140000D01*
Y100000D02*X60000D01*
Y40000D02*X140000D01*
Y65000D02*X60000D01*
X140000Y30000D02*X60000D01*
X95000Y385000D02*G75*G03X90000Y390000I-5000J0D01*G01*
X95000Y385000D02*G75*G02X90000Y380000I-5000J0D01*G01*
X105000Y385000D02*G75*G02X110000Y390000I5000J0D01*G01*
X105000Y385000D02*G75*G03X110000Y380000I5000J0D01*G01*
X95000Y350000D02*G75*G03X90000Y355000I-5000J0D01*G01*
X95000Y350000D02*G75*G02X90000Y345000I-5000J0D01*G01*
X105000Y350000D02*G75*G02X110000Y355000I5000J0D01*G01*
X105000Y350000D02*G75*G03X110000Y345000I5000J0D01*G01*
X95000Y315000D02*G75*G03X90000Y320000I-5000J0D01*G01*
X95000Y315000D02*G75*G02X90000Y310000I-5000J0D01*G01*
X105000Y315000D02*G75*G02X110000Y320000I5000J0D01*G01*
X105000Y315000D02*G75*G03X110000Y310000I5000J0D01*G01*
X95000Y280000D02*G75*G03X90000Y285000I-5000J0D01*G01*
X95000Y280000D02*G75*G02X90000Y275000I-5000J0D01*G01*
X105000Y280000D02*G75*G02X110000Y285000I5000J0D01*G01*
X105000Y280000D02*G75*G03X110000Y275000I5000J0D01*G01*
X95000Y245000D02*G75*G03X90000Y250000I-5000J0D01*G01*
X95000Y245000D02*G75*G02X90000Y240000I-5000J0D01*G01*
X105000Y245000D02*G75*G02X110000Y250000I5000J0D01*G01*
X105000Y245000D02*G75*G03X110000Y240000I5000J0D01*G01*
X95000Y210000D02*G75*G03X90000Y215000I-5000J0D01*G01*
X95000Y210000D02*G75*G02X90000Y205000I-5000J0D01*G01*
X105000Y210000D02*G75*G02X110000Y215000I5000J0D01*G01*
X105000Y210000D02*G75*G03X110000Y205000I5000J0D01*G01*
X95000Y175000D02*G75*G03X90000Y180000I-5000J0D01*G01*
X95000Y175000D02*G75*G02X90000Y170000I-5000J0D01*G01*
X105000Y175000D02*G75*G02X110000Y180000I5000J0D01*G01*
X105000Y175000D02*G75*G03X110000Y170000I5000J0D01*G01*
X95000Y140000D02*G75*G03X90000Y145000I-5000J0D01*G01*
X95000Y140000D02*G75*G02X90000Y135000I-5000J0D01*G01*
X105000Y140000D02*G75*G02X110000Y145000I5000J0D01*G01*
X105000Y140000D02*G75*G03X110000Y135000I5000J0D01*G01*
X95000Y105000D02*G75*G03X90000Y110000I-5000J0D01*G01*
X95000Y105000D02*G75*G02X90000Y100000I-5000J0D01*G01*
X105000Y105000D02*G75*G02X110000Y110000I5000J0D01*G01*
X105000Y105000D02*G75*G03X110000Y100000I5000J0D01*G01*
X95000Y70000D02*G75*G03X90000Y75000I-5000J0D01*G01*
X95000Y70000D02*G75*G02X90000Y65000I-5000J0D01*G01*
X105000Y70000D02*G75*G02X110000Y75000I5000J0D01*G01*
X105000Y70000D02*G75*G03X110000Y65000I5000J0D01*G01*
X95000Y35000D02*G75*G03X90000Y40000I-5000J0D01*G01*
X95000Y35000D02*G75*G02X90000Y30000I-5000J0D01*G01*
X105000Y35000D02*G75*G02X110000Y40000I5000J0D01*G01*
X105000Y35000D02*G75*G03X110000Y30000I5000J0D01*G01*
G54D41*X25380Y36500D02*X32900D01*
X25380D02*X29140Y39320D01*
X25380Y42140D01*
X32900D01*
Y48156D02*Y45336D01*
X31960Y44396D02*X32900Y45336D01*
X30080Y44396D02*X31960D01*
X30080D02*X29140Y45336D01*
Y47216D02*Y45336D01*
Y47216D02*X30080Y48156D01*
X31020D02*Y44396D01*
X30080Y48156D02*X31020D01*
X25380Y51352D02*X31960D01*
X32900Y52292D01*
X28200D02*Y50412D01*
X29140Y56992D02*X30080Y57932D01*
X29140Y56992D02*Y55112D01*
X30080Y54172D02*X29140Y55112D01*
X30080Y54172D02*X31960D01*
X32900Y55112D01*
X29140Y57932D02*X31960D01*
X32900Y58872D01*
Y56992D02*Y55112D01*
Y56992D02*X31960Y57932D01*
X25380Y61128D02*X31960D01*
X32900Y62068D01*
X30080Y68272D02*X35720D01*
X29140Y67332D02*X30080Y68272D01*
X29140Y69212D01*
Y71092D02*Y69212D01*
Y71092D02*X30080Y72032D01*
X31960D01*
X32900Y71092D02*X31960Y72032D01*
X32900Y71092D02*Y69212D01*
X31960Y68272D02*X32900Y69212D01*
X29140Y77108D02*X30080Y78048D01*
X29140Y77108D02*Y75228D01*
X30080Y74288D02*X29140Y75228D01*
X30080Y74288D02*X31960D01*
X32900Y75228D01*
X29140Y78048D02*X31960D01*
X32900Y78988D01*
Y77108D02*Y75228D01*
Y77108D02*X31960Y78048D01*
X25380Y85004D02*X32900D01*
Y84064D02*X31960Y85004D01*
X32900Y84064D02*Y82184D01*
X31960Y81244D02*X32900Y82184D01*
X30080Y81244D02*X31960D01*
X30080D02*X29140Y82184D01*
Y84064D02*Y82184D01*
Y84064D02*X30080Y85004D01*
X32900Y91020D02*Y88200D01*
Y91020D02*X31960Y91960D01*
X31020Y91020D02*X31960Y91960D01*
X31020Y91020D02*Y88200D01*
X30080Y87260D02*X31020Y88200D01*
X30080Y87260D02*X29140Y88200D01*
Y91020D02*Y88200D01*
Y91020D02*X30080Y91960D01*
X31960Y87260D02*X32900Y88200D01*
X30080Y97600D02*X31960D01*
X30080D02*X29140Y98540D01*
Y100420D02*Y98540D01*
Y100420D02*X30080Y101360D01*
X31960D01*
X32900Y100420D02*X31960Y101360D01*
X32900Y100420D02*Y98540D01*
X31960Y97600D02*X32900Y98540D01*
X30080Y104556D02*X32900D01*
X30080D02*X29140Y105496D01*
Y106436D02*Y105496D01*
Y106436D02*X30080Y107376D01*
X32900D01*
X29140Y103616D02*X30080Y104556D01*
X25380Y113956D02*X31960D01*
X32900Y114896D01*
X28200D02*Y113016D01*
X25380Y116776D02*X32900D01*
X30080D02*X29140Y117716D01*
Y119596D02*Y117716D01*
Y119596D02*X30080Y120536D01*
X32900D01*
G54D42*X27260Y122792D02*X27448D01*
G54D41*X30080D02*X32900D01*
Y128432D02*Y125612D01*
Y128432D02*X31960Y129372D01*
X31020Y128432D02*X31960Y129372D01*
X31020Y128432D02*Y125612D01*
X30080Y124672D02*X31020Y125612D01*
X30080Y124672D02*X29140Y125612D01*
Y128432D02*Y125612D01*
Y128432D02*X30080Y129372D01*
X31960Y124672D02*X32900Y125612D01*
Y138772D02*Y135952D01*
Y138772D02*X31960Y139712D01*
X31020Y138772D02*X31960Y139712D01*
X31020Y138772D02*Y135952D01*
X30080Y135012D02*X31020Y135952D01*
X30080Y135012D02*X29140Y135952D01*
Y138772D02*Y135952D01*
Y138772D02*X30080Y139712D01*
X31960Y135012D02*X32900Y135952D01*
G54D42*X27260Y141968D02*X27448D01*
G54D41*X30080D02*X32900D01*
X25380Y147608D02*X32900D01*
Y146668D02*X31960Y147608D01*
X32900Y146668D02*Y144788D01*
X31960Y143848D02*X32900Y144788D01*
X30080Y143848D02*X31960D01*
X30080D02*X29140Y144788D01*
Y146668D02*Y144788D01*
Y146668D02*X30080Y147608D01*
X32900Y153624D02*Y150804D01*
X31960Y149864D02*X32900Y150804D01*
X30080Y149864D02*X31960D01*
X30080D02*X29140Y150804D01*
Y152684D02*Y150804D01*
Y152684D02*X30080Y153624D01*
X31020D02*Y149864D01*
X30080Y153624D02*X31020D01*
X32900Y163024D02*Y160204D01*
Y163024D02*X31960Y163964D01*
X31020Y163024D02*X31960Y163964D01*
X31020Y163024D02*Y160204D01*
X30080Y159264D02*X31020Y160204D01*
X30080Y159264D02*X29140Y160204D01*
Y163024D02*Y160204D01*
Y163024D02*X30080Y163964D01*
X31960Y159264D02*X32900Y160204D01*
X25380Y166220D02*X32900D01*
X30080D02*X29140Y167160D01*
Y169040D02*Y167160D01*
Y169040D02*X30080Y169980D01*
X32900D01*
X30080Y172236D02*X31960D01*
X30080D02*X29140Y173176D01*
Y175056D02*Y173176D01*
Y175056D02*X30080Y175996D01*
X31960D01*
X32900Y175056D02*X31960Y175996D01*
X32900Y175056D02*Y173176D01*
X31960Y172236D02*X32900Y173176D01*
X29140Y178252D02*X31960D01*
X32900Y179192D01*
Y181072D02*Y179192D01*
Y181072D02*X31960Y182012D01*
X29140D02*X31960D01*
X25380Y184268D02*X31960D01*
X32900Y185208D01*
X25380Y190848D02*X32900D01*
Y189908D02*X31960Y190848D01*
X32900Y189908D02*Y188028D01*
X31960Y187088D02*X32900Y188028D01*
X30080Y187088D02*X31960D01*
X30080D02*X29140Y188028D01*
Y189908D02*Y188028D01*
Y189908D02*X30080Y190848D01*
X25380Y196488D02*X32900D01*
X31960D02*X32900Y197428D01*
Y199308D02*Y197428D01*
Y199308D02*X31960Y200248D01*
X30080D02*X31960D01*
X29140Y199308D02*X30080Y200248D01*
X29140Y199308D02*Y197428D01*
X30080Y196488D02*X29140Y197428D01*
X32900Y206264D02*Y203444D01*
X31960Y202504D02*X32900Y203444D01*
X30080Y202504D02*X31960D01*
X30080D02*X29140Y203444D01*
Y205324D02*Y203444D01*
Y205324D02*X30080Y206264D01*
X31020D02*Y202504D01*
X30080Y206264D02*X31020D01*
X29140Y215664D02*Y212844D01*
X30080Y211904D02*X29140Y212844D01*
X30080Y211904D02*X31960D01*
X32900Y212844D01*
Y215664D02*Y212844D01*
X30080Y217920D02*X31960D01*
X30080D02*X29140Y218860D01*
Y220740D02*Y218860D01*
Y220740D02*X30080Y221680D01*
X31960D01*
X32900Y220740D02*X31960Y221680D01*
X32900Y220740D02*Y218860D01*
X31960Y217920D02*X32900Y218860D01*
G54D42*X27260Y223936D02*X27448D01*
G54D41*X30080D02*X32900D01*
X30080Y226756D02*X32900D01*
X30080D02*X29140Y227696D01*
Y228636D02*Y227696D01*
Y228636D02*X30080Y229576D01*
X32900D01*
X29140Y225816D02*X30080Y226756D01*
X29140Y235592D02*Y232772D01*
X30080Y231832D02*X29140Y232772D01*
X30080Y231832D02*X31960D01*
X32900Y232772D01*
Y235592D02*Y232772D01*
G54D42*X27260Y237848D02*X27448D01*
G54D41*X30080D02*X32900D01*
X25380Y243488D02*X32900D01*
Y242548D02*X31960Y243488D01*
X32900Y242548D02*Y240668D01*
X31960Y239728D02*X32900Y240668D01*
X30080Y239728D02*X31960D01*
X30080D02*X29140Y240668D01*
Y242548D02*Y240668D01*
Y242548D02*X30080Y243488D01*
X32900Y249504D02*Y246684D01*
X31960Y245744D02*X32900Y246684D01*
X30080Y245744D02*X31960D01*
X30080D02*X29140Y246684D01*
Y248564D02*Y246684D01*
Y248564D02*X30080Y249504D01*
X31020D02*Y245744D01*
X30080Y249504D02*X31020D01*
X30080Y252700D02*X32900D01*
X30080D02*X29140Y253640D01*
Y254580D02*Y253640D01*
Y254580D02*X30080Y255520D01*
X32900D01*
X29140Y251760D02*X30080Y252700D01*
X25380Y258716D02*X31960D01*
X32900Y259656D01*
X28200D02*Y257776D01*
X29140Y264920D02*X31960D01*
X32900Y265860D01*
Y266800D02*Y265860D01*
Y266800D02*X31960Y267740D01*
X29140D02*X31960D01*
X32900Y268680D01*
Y269620D02*Y268680D01*
Y269620D02*X31960Y270560D01*
X29140D02*X31960D01*
G54D42*X27260Y272816D02*X27448D01*
G54D41*X30080D02*X32900D01*
X25380Y275636D02*X31960D01*
X32900Y276576D01*
X28200D02*Y274696D01*
X25380Y278456D02*X32900D01*
X30080D02*X29140Y279396D01*
Y281276D02*Y279396D01*
Y281276D02*X30080Y282216D01*
X32900D01*
X25380Y287856D02*X32900D01*
X31960D02*X32900Y288796D01*
Y290676D02*Y288796D01*
Y290676D02*X31960Y291616D01*
X30080D02*X31960D01*
X29140Y290676D02*X30080Y291616D01*
X29140Y290676D02*Y288796D01*
X30080Y287856D02*X29140Y288796D01*
X30080Y293872D02*X31960D01*
X30080D02*X29140Y294812D01*
Y296692D02*Y294812D01*
Y296692D02*X30080Y297632D01*
X31960D01*
X32900Y296692D02*X31960Y297632D01*
X32900Y296692D02*Y294812D01*
X31960Y293872D02*X32900Y294812D01*
X29140Y302708D02*X30080Y303648D01*
X29140Y302708D02*Y300828D01*
X30080Y299888D02*X29140Y300828D01*
X30080Y299888D02*X31960D01*
X32900Y300828D01*
X29140Y303648D02*X31960D01*
X32900Y304588D01*
Y302708D02*Y300828D01*
Y302708D02*X31960Y303648D01*
X30080Y307784D02*X32900D01*
X30080D02*X29140Y308724D01*
Y310604D02*Y308724D01*
Y306844D02*X30080Y307784D01*
X25380Y316620D02*X32900D01*
Y315680D02*X31960Y316620D01*
X32900Y315680D02*Y313800D01*
X31960Y312860D02*X32900Y313800D01*
X30080Y312860D02*X31960D01*
X30080D02*X29140Y313800D01*
Y315680D02*Y313800D01*
Y315680D02*X30080Y316620D01*
X32900Y326020D02*Y323200D01*
X31960Y322260D02*X32900Y323200D01*
X30080Y322260D02*X31960D01*
X30080D02*X29140Y323200D01*
Y325080D02*Y323200D01*
Y325080D02*X30080Y326020D01*
X31020D02*Y322260D01*
X30080Y326020D02*X31020D01*
X25380Y332036D02*X32900D01*
Y331096D02*X31960Y332036D01*
X32900Y331096D02*Y329216D01*
X31960Y328276D02*X32900Y329216D01*
X30080Y328276D02*X31960D01*
X30080D02*X29140Y329216D01*
Y331096D02*Y329216D01*
Y331096D02*X30080Y332036D01*
X29140Y337112D02*X30080Y338052D01*
X29140Y337112D02*Y335232D01*
X30080Y334292D02*X29140Y335232D01*
X30080Y334292D02*X31960D01*
X32900Y335232D01*
Y337112D02*Y335232D01*
Y337112D02*X31960Y338052D01*
X34780Y334292D02*X35720Y335232D01*
Y337112D02*Y335232D01*
Y337112D02*X34780Y338052D01*
X29140D02*X34780D01*
X32900Y344068D02*Y341248D01*
X31960Y340308D02*X32900Y341248D01*
X30080Y340308D02*X31960D01*
X30080D02*X29140Y341248D01*
Y343128D02*Y341248D01*
Y343128D02*X30080Y344068D01*
X31020D02*Y340308D01*
X30080Y344068D02*X31020D01*
X31960Y349708D02*X32900Y350648D01*
X26320Y349708D02*X25380Y350648D01*
X26320Y349708D02*X31960D01*
X29140Y352904D02*X27260Y354784D01*
X29140Y352904D02*X31020Y354784D01*
X25380Y360800D02*Y357040D01*
X29140D01*
X28200Y357980D01*
Y359860D02*Y357980D01*
Y359860D02*X29140Y360800D01*
X31960D01*
X32900Y359860D02*X31960Y360800D01*
X32900Y359860D02*Y357980D01*
X31960Y357040D02*X32900Y357980D01*
X30080Y363996D02*X32900D01*
X30080D02*X29140Y364936D01*
Y365876D02*Y364936D01*
Y365876D02*X30080Y366816D01*
X32900D01*
X30080D02*X29140Y367756D01*
Y368696D02*Y367756D01*
Y368696D02*X30080Y369636D01*
X32900D01*
X29140Y363056D02*X30080Y363996D01*
G54D42*X27260Y371892D02*X27448D01*
G54D41*X30080D02*X32900D01*
X25380Y373772D02*X31960D01*
X32900Y374712D01*
X25380Y376592D02*X26320Y377532D01*
X31960D01*
X32900Y376592D02*X31960Y377532D01*
X32900Y380728D02*Y379788D01*
X41880Y132940D02*X49400D01*
X41880Y135760D02*Y132000D01*
Y135760D02*X42820Y136700D01*
X44700D01*
X45640Y135760D02*X44700Y136700D01*
X45640Y135760D02*Y132940D01*
X41880Y138956D02*X48460D01*
X49400Y139896D01*
Y145536D02*Y142716D01*
X48460Y141776D02*X49400Y142716D01*
X46580Y141776D02*X48460D01*
X46580D02*X45640Y142716D01*
Y144596D02*Y142716D01*
Y144596D02*X46580Y145536D01*
X47520D02*Y141776D01*
X46580Y145536D02*X47520D01*
X45640Y150612D02*X46580Y151552D01*
X45640Y150612D02*Y148732D01*
X46580Y147792D02*X45640Y148732D01*
X46580Y147792D02*X48460D01*
X49400Y148732D01*
X45640Y151552D02*X48460D01*
X49400Y152492D01*
Y150612D02*Y148732D01*
Y150612D02*X48460Y151552D01*
X49400Y158508D02*Y155688D01*
Y158508D02*X48460Y159448D01*
X47520Y158508D02*X48460Y159448D01*
X47520Y158508D02*Y155688D01*
X46580Y154748D02*X47520Y155688D01*
X46580Y154748D02*X45640Y155688D01*
Y158508D02*Y155688D01*
Y158508D02*X46580Y159448D01*
X48460Y154748D02*X49400Y155688D01*
Y165464D02*Y162644D01*
X48460Y161704D02*X49400Y162644D01*
X46580Y161704D02*X48460D01*
X46580D02*X45640Y162644D01*
Y164524D02*Y162644D01*
Y164524D02*X46580Y165464D01*
X47520D02*Y161704D01*
X46580Y165464D02*X47520D01*
X41880Y174864D02*X49400D01*
Y173924D02*X48460Y174864D01*
X49400Y173924D02*Y172044D01*
X48460Y171104D02*X49400Y172044D01*
X46580Y171104D02*X48460D01*
X46580D02*X45640Y172044D01*
Y173924D02*Y172044D01*
Y173924D02*X46580Y174864D01*
Y177120D02*X48460D01*
X46580D02*X45640Y178060D01*
Y179940D02*Y178060D01*
Y179940D02*X46580Y180880D01*
X48460D01*
X49400Y179940D02*X48460Y180880D01*
X49400Y179940D02*Y178060D01*
X48460Y177120D02*X49400Y178060D01*
X41880Y186520D02*X49400D01*
X41880D02*X49400Y191220D01*
X41880D02*X49400D01*
X42820Y193476D02*X48460D01*
X42820D02*X41880Y194416D01*
Y196296D02*Y194416D01*
Y196296D02*X42820Y197236D01*
X48460D01*
X49400Y196296D02*X48460Y197236D01*
X49400Y196296D02*Y194416D01*
X48460Y193476D02*X49400Y194416D01*
X41880Y203252D02*Y199492D01*
Y201372D02*X49400D01*
X46580Y209832D02*X52220D01*
X45640Y208892D02*X46580Y209832D01*
X45640Y210772D01*
Y212652D02*Y210772D01*
Y212652D02*X46580Y213592D01*
X48460D01*
X49400Y212652D02*X48460Y213592D01*
X49400Y212652D02*Y210772D01*
X48460Y209832D02*X49400Y210772D01*
X45640Y215848D02*X48460D01*
X49400Y216788D01*
Y218668D02*Y216788D01*
Y218668D02*X48460Y219608D01*
X45640D02*X48460D01*
X41880Y221864D02*X48460D01*
X49400Y222804D01*
X41880Y224684D02*X48460D01*
X49400Y225624D01*
X41880Y230888D02*X49400D01*
X48460D02*X49400Y231828D01*
Y233708D02*Y231828D01*
Y233708D02*X48460Y234648D01*
X46580D02*X48460D01*
X45640Y233708D02*X46580Y234648D01*
X45640Y233708D02*Y231828D01*
X46580Y230888D02*X45640Y231828D01*
Y239724D02*X46580Y240664D01*
X45640Y239724D02*Y237844D01*
X46580Y236904D02*X45640Y237844D01*
X46580Y236904D02*X48460D01*
X49400Y237844D01*
X45640Y240664D02*X48460D01*
X49400Y241604D01*
Y239724D02*Y237844D01*
Y239724D02*X48460Y240664D01*
X45640Y247620D02*Y244800D01*
X46580Y243860D02*X45640Y244800D01*
X46580Y243860D02*X48460D01*
X49400Y244800D01*
Y247620D02*Y244800D01*
X41880Y249876D02*X49400D01*
X46580D02*X49400Y252696D01*
X46580Y249876D02*X44700Y251756D01*
X46580Y259276D02*X49400D01*
X46580D02*X45640Y260216D01*
Y261156D02*Y260216D01*
Y261156D02*X46580Y262096D01*
X49400D01*
X46580D02*X45640Y263036D01*
Y263976D02*Y263036D01*
Y263976D02*X46580Y264916D01*
X49400D01*
X45640Y258336D02*X46580Y259276D01*
X49400Y270932D02*Y268112D01*
X48460Y267172D02*X49400Y268112D01*
X46580Y267172D02*X48460D01*
X46580D02*X45640Y268112D01*
Y269992D02*Y268112D01*
Y269992D02*X46580Y270932D01*
X47520D02*Y267172D01*
X46580Y270932D02*X47520D01*
X41880Y274128D02*X48460D01*
X49400Y275068D01*
X44700D02*Y273188D01*
X45640Y279768D02*X46580Y280708D01*
X45640Y279768D02*Y277888D01*
X46580Y276948D02*X45640Y277888D01*
X46580Y276948D02*X48460D01*
X49400Y277888D01*
X45640Y280708D02*X48460D01*
X49400Y281648D01*
Y279768D02*Y277888D01*
Y279768D02*X48460Y280708D01*
X41880Y283904D02*X48460D01*
X49400Y284844D01*
X48460Y286724D02*X49400D01*
X41880D02*X46580D01*
G54D38*X0Y-9500D02*X3000D01*
X3750Y-8750D01*
Y-6950D02*Y-8750D01*
X3000Y-6200D02*X3750Y-6950D01*
X750Y-6200D02*X3000D01*
X750Y-3500D02*Y-9500D01*
X0Y-3500D02*X3000D01*
X3750Y-4250D01*
Y-5450D01*
X3000Y-6200D02*X3750Y-5450D01*
X5550Y-7250D02*Y-8750D01*
Y-7250D02*X6300Y-6500D01*
X7800D01*
X8550Y-7250D01*
Y-8750D01*
X7800Y-9500D02*X8550Y-8750D01*
X6300Y-9500D02*X7800D01*
X5550Y-8750D02*X6300Y-9500D01*
X12600Y-6500D02*X13350Y-7250D01*
X11100Y-6500D02*X12600D01*
X10350Y-7250D02*X11100Y-6500D01*
X10350Y-7250D02*Y-8750D01*
X11100Y-9500D01*
X13350Y-6500D02*Y-8750D01*
X14100Y-9500D01*
X11100D02*X12600D01*
X13350Y-8750D01*
X16650Y-7250D02*Y-9500D01*
Y-7250D02*X17400Y-6500D01*
X18900D01*
X15900D02*X16650Y-7250D01*
X23700Y-3500D02*Y-9500D01*
X22950D02*X23700Y-8750D01*
X21450Y-9500D02*X22950D01*
X20700Y-8750D02*X21450Y-9500D01*
X20700Y-7250D02*Y-8750D01*
Y-7250D02*X21450Y-6500D01*
X22950D01*
X23700Y-7250D01*
X28200D02*Y-8750D01*
Y-7250D02*X28950Y-6500D01*
X30450D01*
X31200Y-7250D01*
Y-8750D01*
X30450Y-9500D02*X31200Y-8750D01*
X28950Y-9500D02*X30450D01*
X28200Y-8750D02*X28950Y-9500D01*
X33000Y-6500D02*Y-8750D01*
X33750Y-9500D01*
X35250D01*
X36000Y-8750D01*
Y-6500D02*Y-8750D01*
X38550Y-3500D02*Y-8750D01*
X39300Y-9500D01*
X37800Y-5750D02*X39300D01*
X40800Y-3500D02*Y-8750D01*
X41550Y-9500D01*
G54D39*X43050Y-5000D02*Y-5150D01*
G54D38*Y-7250D02*Y-9500D01*
X45300Y-7250D02*Y-9500D01*
Y-7250D02*X46050Y-6500D01*
X46800D01*
X47550Y-7250D01*
Y-9500D01*
X44550Y-6500D02*X45300Y-7250D01*
X50100Y-9500D02*X52350D01*
X49350Y-8750D02*X50100Y-9500D01*
X49350Y-7250D02*Y-8750D01*
Y-7250D02*X50100Y-6500D01*
X51600D01*
X52350Y-7250D01*
X49350Y-8000D02*X52350D01*
Y-7250D02*Y-8000D01*
G54D39*X56850Y-5000D02*Y-5150D01*
G54D38*Y-7250D02*Y-9500D01*
X59100D02*X61350D01*
X62100Y-8750D01*
X61350Y-8000D02*X62100Y-8750D01*
X59100Y-8000D02*X61350D01*
X58350Y-7250D02*X59100Y-8000D01*
X58350Y-7250D02*X59100Y-6500D01*
X61350D01*
X62100Y-7250D01*
X58350Y-8750D02*X59100Y-9500D01*
X67350Y-3500D02*Y-8750D01*
X68100Y-9500D01*
X66600Y-5750D02*X68100D01*
X69600Y-3500D02*Y-9500D01*
Y-7250D02*X70350Y-6500D01*
X71850D01*
X72600Y-7250D01*
Y-9500D01*
X75150D02*X77400D01*
X74400Y-8750D02*X75150Y-9500D01*
X74400Y-7250D02*Y-8750D01*
Y-7250D02*X75150Y-6500D01*
X76650D01*
X77400Y-7250D01*
X74400Y-8000D02*X77400D01*
Y-7250D02*Y-8000D01*
X82650Y-6500D02*X84900D01*
X81900Y-7250D02*X82650Y-6500D01*
X81900Y-7250D02*Y-8750D01*
X82650Y-9500D01*
X84900D01*
X87450D02*X89700D01*
X86700Y-8750D02*X87450Y-9500D01*
X86700Y-7250D02*Y-8750D01*
Y-7250D02*X87450Y-6500D01*
X88950D01*
X89700Y-7250D01*
X86700Y-8000D02*X89700D01*
Y-7250D02*Y-8000D01*
X92250Y-7250D02*Y-9500D01*
Y-7250D02*X93000Y-6500D01*
X93750D01*
X94500Y-7250D01*
Y-9500D01*
X91500Y-6500D02*X92250Y-7250D01*
X97050Y-3500D02*Y-8750D01*
X97800Y-9500D01*
X96300Y-5750D02*X97800D01*
X100050Y-9500D02*X102300D01*
X99300Y-8750D02*X100050Y-9500D01*
X99300Y-7250D02*Y-8750D01*
Y-7250D02*X100050Y-6500D01*
X101550D01*
X102300Y-7250D01*
X99300Y-8000D02*X102300D01*
Y-7250D02*Y-8000D01*
X104850Y-7250D02*Y-9500D01*
Y-7250D02*X105600Y-6500D01*
X107100D01*
X104100D02*X104850Y-7250D01*
X108900Y-3500D02*Y-8750D01*
X109650Y-9500D01*
G54D39*X111150Y-5000D02*Y-5150D01*
G54D38*Y-7250D02*Y-9500D01*
X113400Y-7250D02*Y-9500D01*
Y-7250D02*X114150Y-6500D01*
X114900D01*
X115650Y-7250D01*
Y-9500D01*
X112650Y-6500D02*X113400Y-7250D01*
X118200Y-9500D02*X120450D01*
X117450Y-8750D02*X118200Y-9500D01*
X117450Y-7250D02*Y-8750D01*
Y-7250D02*X118200Y-6500D01*
X119700D01*
X120450Y-7250D01*
X117450Y-8000D02*X120450D01*
Y-7250D02*Y-8000D01*
X124950Y-7250D02*Y-8750D01*
Y-7250D02*X125700Y-6500D01*
X127200D01*
X127950Y-7250D01*
Y-8750D01*
X127200Y-9500D02*X127950Y-8750D01*
X125700Y-9500D02*X127200D01*
X124950Y-8750D02*X125700Y-9500D01*
X130500Y-4250D02*Y-9500D01*
Y-4250D02*X131250Y-3500D01*
X132000D01*
X129750Y-6500D02*X131250D01*
X136950Y-3500D02*Y-8750D01*
X137700Y-9500D01*
X136200Y-5750D02*X137700D01*
X139200Y-3500D02*Y-9500D01*
Y-7250D02*X139950Y-6500D01*
X141450D01*
X142200Y-7250D01*
Y-9500D01*
G54D39*X144000Y-5000D02*Y-5150D01*
G54D38*Y-7250D02*Y-9500D01*
X146250D02*X148500D01*
X149250Y-8750D01*
X148500Y-8000D02*X149250Y-8750D01*
X146250Y-8000D02*X148500D01*
X145500Y-7250D02*X146250Y-8000D01*
X145500Y-7250D02*X146250Y-6500D01*
X148500D01*
X149250Y-7250D01*
X145500Y-8750D02*X146250Y-9500D01*
X154500Y-7250D02*Y-11750D01*
X153750Y-6500D02*X154500Y-7250D01*
X155250Y-6500D01*
X156750D01*
X157500Y-7250D01*
Y-8750D01*
X156750Y-9500D02*X157500Y-8750D01*
X155250Y-9500D02*X156750D01*
X154500Y-8750D02*X155250Y-9500D01*
X161550Y-6500D02*X162300Y-7250D01*
X160050Y-6500D02*X161550D01*
X159300Y-7250D02*X160050Y-6500D01*
X159300Y-7250D02*Y-8750D01*
X160050Y-9500D01*
X162300Y-6500D02*Y-8750D01*
X163050Y-9500D01*
X160050D02*X161550D01*
X162300Y-8750D01*
X165600Y-3500D02*Y-8750D01*
X166350Y-9500D01*
X164850Y-5750D02*X166350D01*
X167850Y-3500D02*Y-9500D01*
Y-7250D02*X168600Y-6500D01*
X170100D01*
X170850Y-7250D01*
Y-9500D01*
X200750Y448500D02*Y442500D01*
X202700Y448500D02*X203750Y447450D01*
Y443550D01*
X202700Y442500D02*X203750Y443550D01*
X200000Y442500D02*X202700D01*
X200000Y448500D02*X202700D01*
X207800Y445500D02*X208550Y444750D01*
X206300Y445500D02*X207800D01*
X205550Y444750D02*X206300Y445500D01*
X205550Y444750D02*Y443250D01*
X206300Y442500D01*
X208550Y445500D02*Y443250D01*
X209300Y442500D01*
X206300D02*X207800D01*
X208550Y443250D01*
X211850Y448500D02*Y443250D01*
X212600Y442500D01*
X211100Y446250D02*X212600D01*
X214850Y442500D02*X217100D01*
X214100Y443250D02*X214850Y442500D01*
X214100Y444750D02*Y443250D01*
Y444750D02*X214850Y445500D01*
X216350D01*
X217100Y444750D01*
X214100Y444000D02*X217100D01*
Y444750D02*Y444000D01*
X218900Y446250D02*X219650D01*
X218900Y444750D02*X219650D01*
X224150Y448500D02*X227150D01*
X225650D02*Y442500D01*
X228950Y448500D02*Y442500D01*
Y444750D02*X229700Y445500D01*
X231200D01*
X231950Y444750D01*
Y442500D01*
X233750Y445500D02*Y443250D01*
X234500Y442500D01*
X236000D01*
X236750Y443250D01*
Y445500D02*Y443250D01*
X241250Y448500D02*Y442500D01*
Y448500D02*X244250D01*
X241250Y445800D02*X243500D01*
X246800Y442500D02*X249050D01*
X246050Y443250D02*X246800Y442500D01*
X246050Y444750D02*Y443250D01*
Y444750D02*X246800Y445500D01*
X248300D01*
X249050Y444750D01*
X246050Y444000D02*X249050D01*
Y444750D02*Y444000D01*
X250850Y448500D02*Y442500D01*
Y443250D02*X251600Y442500D01*
X253100D01*
X253850Y443250D01*
Y444750D02*Y443250D01*
X253100Y445500D02*X253850Y444750D01*
X251600Y445500D02*X253100D01*
X250850Y444750D02*X251600Y445500D01*
X258350Y447750D02*X259100Y448500D01*
X261350D01*
X262100Y447750D01*
Y446250D01*
X258350Y442500D02*X262100Y446250D01*
X258350Y442500D02*X262100D01*
X263900Y448500D02*X266900D01*
X263900D02*Y445500D01*
X264650Y446250D01*
X266150D01*
X266900Y445500D01*
Y443250D01*
X266150Y442500D02*X266900Y443250D01*
X264650Y442500D02*X266150D01*
X263900Y443250D02*X264650Y442500D01*
X271400Y443250D02*X272150Y442500D01*
X271400Y447750D02*Y443250D01*
Y447750D02*X272150Y448500D01*
X273650D01*
X274400Y447750D01*
Y443250D01*
X273650Y442500D02*X274400Y443250D01*
X272150Y442500D02*X273650D01*
X271400Y444000D02*X274400Y447000D01*
X276200Y447750D02*X276950Y448500D01*
X278450D01*
X279200Y447750D01*
X278450Y442500D02*X279200Y443250D01*
X276950Y442500D02*X278450D01*
X276200Y443250D02*X276950Y442500D01*
Y445800D02*X278450D01*
X279200Y447750D02*Y446550D01*
Y445050D02*Y443250D01*
Y445050D02*X278450Y445800D01*
X279200Y446550D02*X278450Y445800D01*
X281000Y446250D02*X281750D01*
X281000Y444750D02*X281750D01*
X283550Y447750D02*X284300Y448500D01*
X285800D01*
X286550Y447750D01*
X285800Y442500D02*X286550Y443250D01*
X284300Y442500D02*X285800D01*
X283550Y443250D02*X284300Y442500D01*
Y445800D02*X285800D01*
X286550Y447750D02*Y446550D01*
Y445050D02*Y443250D01*
Y445050D02*X285800Y445800D01*
X286550Y446550D02*X285800Y445800D01*
X288350Y443250D02*X289100Y442500D01*
X288350Y447750D02*Y443250D01*
Y447750D02*X289100Y448500D01*
X290600D01*
X291350Y447750D01*
Y443250D01*
X290600Y442500D02*X291350Y443250D01*
X289100Y442500D02*X290600D01*
X288350Y444000D02*X291350Y447000D01*
X293150Y446250D02*X293900D01*
X293150Y444750D02*X293900D01*
X295700D02*X298700Y448500D01*
X295700Y444750D02*X299450D01*
X298700Y448500D02*Y442500D01*
X301250Y443250D02*X302000Y442500D01*
X301250Y444450D02*Y443250D01*
Y444450D02*X302300Y445500D01*
X303200D01*
X304250Y444450D01*
Y443250D01*
X303500Y442500D02*X304250Y443250D01*
X302000Y442500D02*X303500D01*
X301250Y446550D02*X302300Y445500D01*
X301250Y447750D02*Y446550D01*
Y447750D02*X302000Y448500D01*
X303500D01*
X304250Y447750D01*
Y446550D01*
X303200Y445500D02*X304250Y446550D01*
X308750Y447750D02*X309500Y448500D01*
X311750D01*
X312500Y447750D01*
Y446250D01*
X308750Y442500D02*X312500Y446250D01*
X308750Y442500D02*X312500D01*
X314300Y443250D02*X315050Y442500D01*
X314300Y447750D02*Y443250D01*
Y447750D02*X315050Y448500D01*
X316550D01*
X317300Y447750D01*
Y443250D01*
X316550Y442500D02*X317300Y443250D01*
X315050Y442500D02*X316550D01*
X314300Y444000D02*X317300Y447000D01*
X319100Y447750D02*X319850Y448500D01*
X322100D01*
X322850Y447750D01*
Y446250D01*
X319100Y442500D02*X322850Y446250D01*
X319100Y442500D02*X322850D01*
X324650Y447300D02*X325850Y448500D01*
Y442500D01*
X324650D02*X326900D01*
X331400Y448500D02*Y443250D01*
X332150Y442500D01*
X333650D01*
X334400Y443250D01*
Y448500D02*Y443250D01*
X336200Y448500D02*X339200D01*
X337700D02*Y442500D01*
X342050D02*X344000D01*
X341000Y443550D02*X342050Y442500D01*
X341000Y447450D02*Y443550D01*
Y447450D02*X342050Y448500D01*
X344000D01*
X200000Y462000D02*Y457500D01*
Y462000D02*X201050Y463500D01*
X202700D01*
X203750Y462000D01*
Y457500D01*
X200000Y460500D02*X203750D01*
X205550D02*Y458250D01*
X206300Y457500D01*
X207800D01*
X208550Y458250D01*
Y460500D02*Y458250D01*
X211100Y463500D02*Y458250D01*
X211850Y457500D01*
X210350Y461250D02*X211850D01*
X213350Y463500D02*Y457500D01*
Y459750D02*X214100Y460500D01*
X215600D01*
X216350Y459750D01*
Y457500D01*
X218150Y459750D02*Y458250D01*
Y459750D02*X218900Y460500D01*
X220400D01*
X221150Y459750D01*
Y458250D01*
X220400Y457500D02*X221150Y458250D01*
X218900Y457500D02*X220400D01*
X218150Y458250D02*X218900Y457500D01*
X223700Y459750D02*Y457500D01*
Y459750D02*X224450Y460500D01*
X225950D01*
X222950D02*X223700Y459750D01*
X227750Y461250D02*X228500D01*
X227750Y459750D02*X228500D01*
X233000Y463500D02*Y457500D01*
Y463500D02*X235250Y460500D01*
X237500Y463500D01*
Y457500D01*
G54D39*X239300Y462000D02*Y461850D01*
G54D38*Y459750D02*Y457500D01*
X241550Y460500D02*X243800D01*
X240800Y459750D02*X241550Y460500D01*
X240800Y459750D02*Y458250D01*
X241550Y457500D01*
X243800D01*
X245600Y463500D02*Y457500D01*
Y459750D02*X246350Y460500D01*
X247850D01*
X248600Y459750D01*
Y457500D01*
X252650Y460500D02*X253400Y459750D01*
X251150Y460500D02*X252650D01*
X250400Y459750D02*X251150Y460500D01*
X250400Y459750D02*Y458250D01*
X251150Y457500D01*
X253400Y460500D02*Y458250D01*
X254150Y457500D01*
X251150D02*X252650D01*
X253400Y458250D01*
X256700Y457500D02*X258950D01*
X255950Y458250D02*X256700Y457500D01*
X255950Y459750D02*Y458250D01*
Y459750D02*X256700Y460500D01*
X258200D01*
X258950Y459750D01*
X255950Y459000D02*X258950D01*
Y459750D02*Y459000D01*
X260750Y463500D02*Y458250D01*
X261500Y457500D01*
X266450Y463500D02*Y457500D01*
X265700Y463500D02*X268700D01*
X269450Y462750D01*
Y461250D01*
X268700Y460500D02*X269450Y461250D01*
X266450Y460500D02*X268700D01*
X272000Y457500D02*X274250D01*
X271250Y458250D02*X272000Y457500D01*
X271250Y459750D02*Y458250D01*
Y459750D02*X272000Y460500D01*
X273500D01*
X274250Y459750D01*
X271250Y459000D02*X274250D01*
Y459750D02*Y459000D01*
X276800Y463500D02*Y458250D01*
X277550Y457500D01*
X276050Y461250D02*X277550D01*
X279800Y457500D02*X282050D01*
X279050Y458250D02*X279800Y457500D01*
X279050Y459750D02*Y458250D01*
Y459750D02*X279800Y460500D01*
X281300D01*
X282050Y459750D01*
X279050Y459000D02*X282050D01*
Y459750D02*Y459000D01*
X284600Y459750D02*Y457500D01*
Y459750D02*X285350Y460500D01*
X286850D01*
X283850D02*X284600Y459750D01*
X289400Y457500D02*X291650D01*
X292400Y458250D01*
X291650Y459000D02*X292400Y458250D01*
X289400Y459000D02*X291650D01*
X288650Y459750D02*X289400Y459000D01*
X288650Y459750D02*X289400Y460500D01*
X291650D01*
X292400Y459750D01*
X288650Y458250D02*X289400Y457500D01*
X294950D02*X297200D01*
X294200Y458250D02*X294950Y457500D01*
X294200Y459750D02*Y458250D01*
Y459750D02*X294950Y460500D01*
X296450D01*
X297200Y459750D01*
X294200Y459000D02*X297200D01*
Y459750D02*Y459000D01*
X299750Y459750D02*Y457500D01*
Y459750D02*X300500Y460500D01*
X301250D01*
X302000Y459750D01*
Y457500D01*
X299000Y460500D02*X299750Y459750D01*
X200000Y478500D02*X203000D01*
X201500D02*Y472500D01*
G54D39*X204800Y477000D02*Y476850D01*
G54D38*Y474750D02*Y472500D01*
X207050Y478500D02*Y473250D01*
X207800Y472500D01*
X206300Y476250D02*X207800D01*
X209300Y478500D02*Y473250D01*
X210050Y472500D01*
X212300D02*X214550D01*
X211550Y473250D02*X212300Y472500D01*
X211550Y474750D02*Y473250D01*
Y474750D02*X212300Y475500D01*
X213800D01*
X214550Y474750D01*
X211550Y474000D02*X214550D01*
Y474750D02*Y474000D01*
X216350Y476250D02*X217100D01*
X216350Y474750D02*X217100D01*
X221600Y473250D02*X222350Y472500D01*
X221600Y477750D02*X222350Y478500D01*
X221600Y477750D02*Y473250D01*
X224150Y475500D02*Y473250D01*
X224900Y472500D01*
X226400D01*
X227150Y473250D01*
Y475500D02*Y473250D01*
X229700Y474750D02*Y472500D01*
Y474750D02*X230450Y475500D01*
X231200D01*
X231950Y474750D01*
Y472500D01*
X228950Y475500D02*X229700Y474750D01*
X233750Y478500D02*Y472500D01*
Y474750D02*X236000Y472500D01*
X233750Y474750D02*X235250Y476250D01*
X238550Y474750D02*Y472500D01*
Y474750D02*X239300Y475500D01*
X240050D01*
X240800Y474750D01*
Y472500D01*
X237800Y475500D02*X238550Y474750D01*
X242600D02*Y473250D01*
Y474750D02*X243350Y475500D01*
X244850D01*
X245600Y474750D01*
Y473250D01*
X244850Y472500D02*X245600Y473250D01*
X243350Y472500D02*X244850D01*
X242600Y473250D02*X243350Y472500D01*
X247400Y475500D02*Y473250D01*
X248150Y472500D01*
X248900D01*
X249650Y473250D01*
Y475500D02*Y473250D01*
X250400Y472500D01*
X251150D01*
X251900Y473250D01*
Y475500D02*Y473250D01*
X254450Y474750D02*Y472500D01*
Y474750D02*X255200Y475500D01*
X255950D01*
X256700Y474750D01*
Y472500D01*
X253700Y475500D02*X254450Y474750D01*
X258500Y478500D02*X259250Y477750D01*
Y473250D01*
X258500Y472500D02*X259250Y473250D01*
X263750Y475500D02*X266750D01*
X271250Y478500D02*Y472500D01*
Y478500D02*X274250D01*
X271250Y475800D02*X273500D01*
X278300Y475500D02*X279050Y474750D01*
X276800Y475500D02*X278300D01*
X276050Y474750D02*X276800Y475500D01*
X276050Y474750D02*Y473250D01*
X276800Y472500D01*
X279050Y475500D02*Y473250D01*
X279800Y472500D01*
X276800D02*X278300D01*
X279050Y473250D01*
X281600Y478500D02*Y472500D01*
Y473250D02*X282350Y472500D01*
X283850D01*
X284600Y473250D01*
Y474750D02*Y473250D01*
X283850Y475500D02*X284600Y474750D01*
X282350Y475500D02*X283850D01*
X281600Y474750D02*X282350Y475500D01*
X287150Y474750D02*Y472500D01*
Y474750D02*X287900Y475500D01*
X289400D01*
X286400D02*X287150Y474750D01*
G54D39*X291200Y477000D02*Y476850D01*
G54D38*Y474750D02*Y472500D01*
X293450Y475500D02*X295700D01*
X292700Y474750D02*X293450Y475500D01*
X292700Y474750D02*Y473250D01*
X293450Y472500D01*
X295700D01*
X299750Y475500D02*X300500Y474750D01*
X298250Y475500D02*X299750D01*
X297500Y474750D02*X298250Y475500D01*
X297500Y474750D02*Y473250D01*
X298250Y472500D01*
X300500Y475500D02*Y473250D01*
X301250Y472500D01*
X298250D02*X299750D01*
X300500Y473250D01*
X303800Y478500D02*Y473250D01*
X304550Y472500D01*
X303050Y476250D02*X304550D01*
G54D39*X306050Y477000D02*Y476850D01*
G54D38*Y474750D02*Y472500D01*
X307550Y474750D02*Y473250D01*
Y474750D02*X308300Y475500D01*
X309800D01*
X310550Y474750D01*
Y473250D01*
X309800Y472500D02*X310550Y473250D01*
X308300Y472500D02*X309800D01*
X307550Y473250D02*X308300Y472500D01*
X313100Y474750D02*Y472500D01*
Y474750D02*X313850Y475500D01*
X314600D01*
X315350Y474750D01*
Y472500D01*
X312350Y475500D02*X313100Y474750D01*
X320600Y478500D02*Y472500D01*
X322550Y478500D02*X323600Y477450D01*
Y473550D01*
X322550Y472500D02*X323600Y473550D01*
X319850Y472500D02*X322550D01*
X319850Y478500D02*X322550D01*
X326150Y474750D02*Y472500D01*
Y474750D02*X326900Y475500D01*
X328400D01*
X325400D02*X326150Y474750D01*
X332450Y475500D02*X333200Y474750D01*
X330950Y475500D02*X332450D01*
X330200Y474750D02*X330950Y475500D01*
X330200Y474750D02*Y473250D01*
X330950Y472500D01*
X333200Y475500D02*Y473250D01*
X333950Y472500D01*
X330950D02*X332450D01*
X333200Y473250D01*
X335750Y475500D02*Y473250D01*
X336500Y472500D01*
X337250D01*
X338000Y473250D01*
Y475500D02*Y473250D01*
X338750Y472500D01*
X339500D01*
X340250Y473250D01*
Y475500D02*Y473250D01*
G54D39*X342050Y477000D02*Y476850D01*
G54D38*Y474750D02*Y472500D01*
X344300Y474750D02*Y472500D01*
Y474750D02*X345050Y475500D01*
X345800D01*
X346550Y474750D01*
Y472500D01*
X343550Y475500D02*X344300Y474750D01*
X350600Y475500D02*X351350Y474750D01*
X349100Y475500D02*X350600D01*
X348350Y474750D02*X349100Y475500D01*
X348350Y474750D02*Y473250D01*
X349100Y472500D01*
X350600D01*
X351350Y473250D01*
X348350Y471000D02*X349100Y470250D01*
X350600D01*
X351350Y471000D01*
Y475500D02*Y471000D01*
M02*
