M48
INCH
T30C0.031
%
T30
X009500Y038900
X009500Y038100
X009500Y035400
X009500Y034600
X009500Y031900
X009500Y031100
X009500Y028400
X009500Y027600
X009500Y024900
X009500Y024100
X009500Y021400
X009500Y020600
X009500Y017900
X009500Y017100
X009500Y014400
X009500Y013600
X009500Y010900
X009500Y010100
X009500Y007400
X009500Y006600
X009500Y003900
X009500Y003100
X010000Y038900
X010000Y038100
X010000Y035400
X010000Y034600
X010000Y031900
X010000Y031100
X010000Y028400
X010000Y027600
X010000Y024900
X010000Y024100
X010000Y021400
X010000Y020600
X010000Y017900
X010000Y017100
X010000Y014400
X010000Y013600
X010000Y010900
X010000Y010100
X010000Y007400
X010000Y006600
X010000Y003900
X010000Y003100
X010500Y038900
X010500Y038100
X010500Y035400
X010500Y034600
X010500Y031900
X010500Y031100
X010500Y028400
X010500Y027600
X010500Y024900
X010500Y024100
X010500Y021400
X010500Y020600
X010500Y017900
X010500Y017100
X010500Y014400
X010500Y013600
X010500Y010900
X010500Y010100
X010500Y007400
X010500Y006600
X010500Y003900
X010500Y003100
M30
