G04 start of page 11 for group -4015 idx -4015 *
G04 Title: (unknown), toppaste *
G04 Creator: pcb 4.0.2 *
G04 CreationDate: Thu Feb 25 03:30:48 2021 UTC *
G04 For: petersen *
G04 Format: Gerber/RS-274X *
G04 PCB-Dimensions (mil): 1500.00 4200.00 *
G04 PCB-Coordinate-Origin: lower left *
%MOIN*%
%FSLAX25Y25*%
%LNTOPPASTE*%
%ADD36C,0.0001*%
G54D36*G36*
X82548Y398016D02*Y392898D01*
X88452D01*
Y398016D01*
X82548D01*
G37*
G36*
Y405102D02*Y399984D01*
X88452D01*
Y405102D01*
X82548D01*
G37*
G36*
X92048Y398016D02*Y392898D01*
X97952D01*
Y398016D01*
X92048D01*
G37*
G36*
Y405102D02*Y399984D01*
X97952D01*
Y405102D01*
X92048D01*
G37*
G36*
X104048Y412602D02*Y407484D01*
X109952D01*
Y412602D01*
X104048D01*
G37*
G36*
Y405516D02*Y400398D01*
X109952D01*
Y405516D01*
X104048D01*
G37*
G36*
X117949Y397775D02*Y395413D01*
X124051D01*
Y397775D01*
X117949D01*
G37*
G36*
Y401712D02*Y399350D01*
X124051D01*
Y401712D01*
X117949D01*
G37*
G36*
Y405650D02*Y403288D01*
X124051D01*
Y405650D01*
X117949D01*
G37*
G36*
Y409587D02*Y407225D01*
X124051D01*
Y409587D01*
X117949D01*
G37*
G36*
X132713Y393838D02*Y390000D01*
X139799D01*
Y393838D01*
X132713D01*
G37*
G36*
Y415000D02*Y411162D01*
X139799D01*
Y415000D01*
X132713D01*
G37*
G36*
X82548Y363016D02*Y357898D01*
X88452D01*
Y363016D01*
X82548D01*
G37*
G36*
Y370102D02*Y364984D01*
X88452D01*
Y370102D01*
X82548D01*
G37*
G36*
X92048Y363016D02*Y357898D01*
X97952D01*
Y363016D01*
X92048D01*
G37*
G36*
Y370102D02*Y364984D01*
X97952D01*
Y370102D01*
X92048D01*
G37*
G36*
X104048Y377602D02*Y372484D01*
X109952D01*
Y377602D01*
X104048D01*
G37*
G36*
Y370516D02*Y365398D01*
X109952D01*
Y370516D01*
X104048D01*
G37*
G36*
X117949Y362775D02*Y360413D01*
X124051D01*
Y362775D01*
X117949D01*
G37*
G36*
Y366712D02*Y364350D01*
X124051D01*
Y366712D01*
X117949D01*
G37*
G36*
Y370650D02*Y368288D01*
X124051D01*
Y370650D01*
X117949D01*
G37*
G36*
Y374587D02*Y372225D01*
X124051D01*
Y374587D01*
X117949D01*
G37*
G36*
X132713Y358838D02*Y355000D01*
X139799D01*
Y358838D01*
X132713D01*
G37*
G36*
Y380000D02*Y376162D01*
X139799D01*
Y380000D01*
X132713D01*
G37*
G36*
X82548Y328016D02*Y322898D01*
X88452D01*
Y328016D01*
X82548D01*
G37*
G36*
Y335102D02*Y329984D01*
X88452D01*
Y335102D01*
X82548D01*
G37*
G36*
X92048Y328016D02*Y322898D01*
X97952D01*
Y328016D01*
X92048D01*
G37*
G36*
Y335102D02*Y329984D01*
X97952D01*
Y335102D01*
X92048D01*
G37*
G36*
X104048Y342602D02*Y337484D01*
X109952D01*
Y342602D01*
X104048D01*
G37*
G36*
Y335516D02*Y330398D01*
X109952D01*
Y335516D01*
X104048D01*
G37*
G36*
X117949Y327775D02*Y325413D01*
X124051D01*
Y327775D01*
X117949D01*
G37*
G36*
Y331712D02*Y329350D01*
X124051D01*
Y331712D01*
X117949D01*
G37*
G36*
Y335650D02*Y333288D01*
X124051D01*
Y335650D01*
X117949D01*
G37*
G36*
Y339587D02*Y337225D01*
X124051D01*
Y339587D01*
X117949D01*
G37*
G36*
X132713Y323838D02*Y320000D01*
X139799D01*
Y323838D01*
X132713D01*
G37*
G36*
Y345000D02*Y341162D01*
X139799D01*
Y345000D01*
X132713D01*
G37*
G36*
X82548Y293016D02*Y287898D01*
X88452D01*
Y293016D01*
X82548D01*
G37*
G36*
Y300102D02*Y294984D01*
X88452D01*
Y300102D01*
X82548D01*
G37*
G36*
X92048Y293016D02*Y287898D01*
X97952D01*
Y293016D01*
X92048D01*
G37*
G36*
Y300102D02*Y294984D01*
X97952D01*
Y300102D01*
X92048D01*
G37*
G36*
X104048Y307602D02*Y302484D01*
X109952D01*
Y307602D01*
X104048D01*
G37*
G36*
Y300516D02*Y295398D01*
X109952D01*
Y300516D01*
X104048D01*
G37*
G36*
X117949Y292775D02*Y290413D01*
X124051D01*
Y292775D01*
X117949D01*
G37*
G36*
Y296712D02*Y294350D01*
X124051D01*
Y296712D01*
X117949D01*
G37*
G36*
Y300650D02*Y298288D01*
X124051D01*
Y300650D01*
X117949D01*
G37*
G36*
Y304587D02*Y302225D01*
X124051D01*
Y304587D01*
X117949D01*
G37*
G36*
X132713Y288838D02*Y285000D01*
X139799D01*
Y288838D01*
X132713D01*
G37*
G36*
Y310000D02*Y306162D01*
X139799D01*
Y310000D01*
X132713D01*
G37*
G36*
X82548Y258016D02*Y252898D01*
X88452D01*
Y258016D01*
X82548D01*
G37*
G36*
Y265102D02*Y259984D01*
X88452D01*
Y265102D01*
X82548D01*
G37*
G36*
X92048Y258016D02*Y252898D01*
X97952D01*
Y258016D01*
X92048D01*
G37*
G36*
Y265102D02*Y259984D01*
X97952D01*
Y265102D01*
X92048D01*
G37*
G36*
X104048Y272602D02*Y267484D01*
X109952D01*
Y272602D01*
X104048D01*
G37*
G36*
Y265516D02*Y260398D01*
X109952D01*
Y265516D01*
X104048D01*
G37*
G36*
X117949Y257775D02*Y255413D01*
X124051D01*
Y257775D01*
X117949D01*
G37*
G36*
Y261712D02*Y259350D01*
X124051D01*
Y261712D01*
X117949D01*
G37*
G36*
Y265650D02*Y263288D01*
X124051D01*
Y265650D01*
X117949D01*
G37*
G36*
Y269587D02*Y267225D01*
X124051D01*
Y269587D01*
X117949D01*
G37*
G36*
X132713Y253838D02*Y250000D01*
X139799D01*
Y253838D01*
X132713D01*
G37*
G36*
Y275000D02*Y271162D01*
X139799D01*
Y275000D01*
X132713D01*
G37*
G36*
X82548Y223016D02*Y217898D01*
X88452D01*
Y223016D01*
X82548D01*
G37*
G36*
Y230102D02*Y224984D01*
X88452D01*
Y230102D01*
X82548D01*
G37*
G36*
X92048Y223016D02*Y217898D01*
X97952D01*
Y223016D01*
X92048D01*
G37*
G36*
Y230102D02*Y224984D01*
X97952D01*
Y230102D01*
X92048D01*
G37*
G36*
X104048Y237602D02*Y232484D01*
X109952D01*
Y237602D01*
X104048D01*
G37*
G36*
Y230516D02*Y225398D01*
X109952D01*
Y230516D01*
X104048D01*
G37*
G36*
X117949Y222775D02*Y220413D01*
X124051D01*
Y222775D01*
X117949D01*
G37*
G36*
Y226712D02*Y224350D01*
X124051D01*
Y226712D01*
X117949D01*
G37*
G36*
Y230650D02*Y228288D01*
X124051D01*
Y230650D01*
X117949D01*
G37*
G36*
Y234587D02*Y232225D01*
X124051D01*
Y234587D01*
X117949D01*
G37*
G36*
X132713Y218838D02*Y215000D01*
X139799D01*
Y218838D01*
X132713D01*
G37*
G36*
Y240000D02*Y236162D01*
X139799D01*
Y240000D01*
X132713D01*
G37*
G36*
X82548Y188016D02*Y182898D01*
X88452D01*
Y188016D01*
X82548D01*
G37*
G36*
Y195102D02*Y189984D01*
X88452D01*
Y195102D01*
X82548D01*
G37*
G36*
X92048Y188016D02*Y182898D01*
X97952D01*
Y188016D01*
X92048D01*
G37*
G36*
Y195102D02*Y189984D01*
X97952D01*
Y195102D01*
X92048D01*
G37*
G36*
X104048Y202602D02*Y197484D01*
X109952D01*
Y202602D01*
X104048D01*
G37*
G36*
Y195516D02*Y190398D01*
X109952D01*
Y195516D01*
X104048D01*
G37*
G36*
X117949Y187775D02*Y185413D01*
X124051D01*
Y187775D01*
X117949D01*
G37*
G36*
Y191712D02*Y189350D01*
X124051D01*
Y191712D01*
X117949D01*
G37*
G36*
Y195650D02*Y193288D01*
X124051D01*
Y195650D01*
X117949D01*
G37*
G36*
Y199587D02*Y197225D01*
X124051D01*
Y199587D01*
X117949D01*
G37*
G36*
X132713Y183838D02*Y180000D01*
X139799D01*
Y183838D01*
X132713D01*
G37*
G36*
Y205000D02*Y201162D01*
X139799D01*
Y205000D01*
X132713D01*
G37*
G36*
X82548Y153016D02*Y147898D01*
X88452D01*
Y153016D01*
X82548D01*
G37*
G36*
Y160102D02*Y154984D01*
X88452D01*
Y160102D01*
X82548D01*
G37*
G36*
X92048Y153016D02*Y147898D01*
X97952D01*
Y153016D01*
X92048D01*
G37*
G36*
Y160102D02*Y154984D01*
X97952D01*
Y160102D01*
X92048D01*
G37*
G36*
X104048Y167602D02*Y162484D01*
X109952D01*
Y167602D01*
X104048D01*
G37*
G36*
Y160516D02*Y155398D01*
X109952D01*
Y160516D01*
X104048D01*
G37*
G36*
X117949Y152775D02*Y150413D01*
X124051D01*
Y152775D01*
X117949D01*
G37*
G36*
Y156712D02*Y154350D01*
X124051D01*
Y156712D01*
X117949D01*
G37*
G36*
Y160650D02*Y158288D01*
X124051D01*
Y160650D01*
X117949D01*
G37*
G36*
Y164587D02*Y162225D01*
X124051D01*
Y164587D01*
X117949D01*
G37*
G36*
X132713Y148838D02*Y145000D01*
X139799D01*
Y148838D01*
X132713D01*
G37*
G36*
Y170000D02*Y166162D01*
X139799D01*
Y170000D01*
X132713D01*
G37*
G36*
X82548Y118016D02*Y112898D01*
X88452D01*
Y118016D01*
X82548D01*
G37*
G36*
Y125102D02*Y119984D01*
X88452D01*
Y125102D01*
X82548D01*
G37*
G36*
X92048Y118016D02*Y112898D01*
X97952D01*
Y118016D01*
X92048D01*
G37*
G36*
Y125102D02*Y119984D01*
X97952D01*
Y125102D01*
X92048D01*
G37*
G36*
X104048Y132602D02*Y127484D01*
X109952D01*
Y132602D01*
X104048D01*
G37*
G36*
Y125516D02*Y120398D01*
X109952D01*
Y125516D01*
X104048D01*
G37*
G36*
X117949Y117775D02*Y115413D01*
X124051D01*
Y117775D01*
X117949D01*
G37*
G36*
Y121712D02*Y119350D01*
X124051D01*
Y121712D01*
X117949D01*
G37*
G36*
Y125650D02*Y123288D01*
X124051D01*
Y125650D01*
X117949D01*
G37*
G36*
Y129587D02*Y127225D01*
X124051D01*
Y129587D01*
X117949D01*
G37*
G36*
X132713Y113838D02*Y110000D01*
X139799D01*
Y113838D01*
X132713D01*
G37*
G36*
Y135000D02*Y131162D01*
X139799D01*
Y135000D01*
X132713D01*
G37*
G36*
X82548Y83016D02*Y77898D01*
X88452D01*
Y83016D01*
X82548D01*
G37*
G36*
Y90102D02*Y84984D01*
X88452D01*
Y90102D01*
X82548D01*
G37*
G36*
X92048Y83016D02*Y77898D01*
X97952D01*
Y83016D01*
X92048D01*
G37*
G36*
Y90102D02*Y84984D01*
X97952D01*
Y90102D01*
X92048D01*
G37*
G36*
X104048Y97602D02*Y92484D01*
X109952D01*
Y97602D01*
X104048D01*
G37*
G36*
Y90516D02*Y85398D01*
X109952D01*
Y90516D01*
X104048D01*
G37*
G36*
X117949Y82775D02*Y80413D01*
X124051D01*
Y82775D01*
X117949D01*
G37*
G36*
Y86712D02*Y84350D01*
X124051D01*
Y86712D01*
X117949D01*
G37*
G36*
Y90650D02*Y88288D01*
X124051D01*
Y90650D01*
X117949D01*
G37*
G36*
Y94587D02*Y92225D01*
X124051D01*
Y94587D01*
X117949D01*
G37*
G36*
X132713Y78838D02*Y75000D01*
X139799D01*
Y78838D01*
X132713D01*
G37*
G36*
Y100000D02*Y96162D01*
X139799D01*
Y100000D01*
X132713D01*
G37*
G36*
X82548Y48016D02*Y42898D01*
X88452D01*
Y48016D01*
X82548D01*
G37*
G36*
Y55102D02*Y49984D01*
X88452D01*
Y55102D01*
X82548D01*
G37*
G36*
X92048Y48016D02*Y42898D01*
X97952D01*
Y48016D01*
X92048D01*
G37*
G36*
Y55102D02*Y49984D01*
X97952D01*
Y55102D01*
X92048D01*
G37*
G36*
X104048Y62602D02*Y57484D01*
X109952D01*
Y62602D01*
X104048D01*
G37*
G36*
Y55516D02*Y50398D01*
X109952D01*
Y55516D01*
X104048D01*
G37*
G36*
X117949Y47775D02*Y45413D01*
X124051D01*
Y47775D01*
X117949D01*
G37*
G36*
Y51712D02*Y49350D01*
X124051D01*
Y51712D01*
X117949D01*
G37*
G36*
Y55650D02*Y53288D01*
X124051D01*
Y55650D01*
X117949D01*
G37*
G36*
Y59587D02*Y57225D01*
X124051D01*
Y59587D01*
X117949D01*
G37*
G36*
X132713Y43838D02*Y40000D01*
X139799D01*
Y43838D01*
X132713D01*
G37*
G36*
Y65000D02*Y61162D01*
X139799D01*
Y65000D01*
X132713D01*
G37*
G36*
X82548Y13016D02*Y7898D01*
X88452D01*
Y13016D01*
X82548D01*
G37*
G36*
Y20102D02*Y14984D01*
X88452D01*
Y20102D01*
X82548D01*
G37*
G36*
X92048Y13016D02*Y7898D01*
X97952D01*
Y13016D01*
X92048D01*
G37*
G36*
Y20102D02*Y14984D01*
X97952D01*
Y20102D01*
X92048D01*
G37*
G36*
X104048Y27602D02*Y22484D01*
X109952D01*
Y27602D01*
X104048D01*
G37*
G36*
Y20516D02*Y15398D01*
X109952D01*
Y20516D01*
X104048D01*
G37*
G36*
X117949Y12775D02*Y10413D01*
X124051D01*
Y12775D01*
X117949D01*
G37*
G36*
Y16712D02*Y14350D01*
X124051D01*
Y16712D01*
X117949D01*
G37*
G36*
Y20650D02*Y18288D01*
X124051D01*
Y20650D01*
X117949D01*
G37*
G36*
Y24587D02*Y22225D01*
X124051D01*
Y24587D01*
X117949D01*
G37*
G36*
X132713Y8838D02*Y5000D01*
X139799D01*
Y8838D01*
X132713D01*
G37*
G36*
Y30000D02*Y26162D01*
X139799D01*
Y30000D01*
X132713D01*
G37*
M02*
