G04 start of page 8 for group -4062 idx -4062 *
G04 Title: (unknown), soldermask *
G04 Creator: pcb 4.0.2 *
G04 CreationDate: Thu Feb 25 03:30:48 2021 UTC *
G04 For: petersen *
G04 Format: Gerber/RS-274X *
G04 PCB-Dimensions (mil): 1500.00 4200.00 *
G04 PCB-Coordinate-Origin: lower left *
%MOIN*%
%FSLAX25Y25*%
%LNBOTTOMMASK*%
%ADD32C,0.0001*%
G54D32*G36*
X59902Y326718D02*Y323282D01*
X65054D01*
Y326718D01*
X59902D01*
G37*
G36*
Y331718D02*Y328282D01*
X65054D01*
Y331718D01*
X59902D01*
G37*
G36*
Y341718D02*Y338282D01*
X65054D01*
Y341718D01*
X59902D01*
G37*
G36*
Y336718D02*Y333282D01*
X65054D01*
Y336718D01*
X59902D01*
G37*
G36*
Y411718D02*Y408282D01*
X65054D01*
Y411718D01*
X59902D01*
G37*
G36*
Y406718D02*Y403282D01*
X65054D01*
Y406718D01*
X59902D01*
G37*
G36*
Y401718D02*Y398282D01*
X65054D01*
Y401718D01*
X59902D01*
G37*
G36*
Y396718D02*Y393282D01*
X65054D01*
Y396718D01*
X59902D01*
G37*
G36*
Y361718D02*Y358282D01*
X65054D01*
Y361718D01*
X59902D01*
G37*
G36*
Y376718D02*Y373282D01*
X65054D01*
Y376718D01*
X59902D01*
G37*
G36*
Y371718D02*Y368282D01*
X65054D01*
Y371718D01*
X59902D01*
G37*
G36*
Y366718D02*Y363282D01*
X65054D01*
Y366718D01*
X59902D01*
G37*
G36*
Y296718D02*Y293282D01*
X65054D01*
Y296718D01*
X59902D01*
G37*
G36*
Y291718D02*Y288282D01*
X65054D01*
Y291718D01*
X59902D01*
G37*
G36*
Y306718D02*Y303282D01*
X65054D01*
Y306718D01*
X59902D01*
G37*
G36*
Y301718D02*Y298282D01*
X65054D01*
Y301718D01*
X59902D01*
G37*
G36*
Y271718D02*Y268282D01*
X65054D01*
Y271718D01*
X59902D01*
G37*
G36*
Y266718D02*Y263282D01*
X65054D01*
Y266718D01*
X59902D01*
G37*
G36*
Y261718D02*Y258282D01*
X65054D01*
Y261718D01*
X59902D01*
G37*
G36*
Y256718D02*Y253282D01*
X65054D01*
Y256718D01*
X59902D01*
G37*
G36*
Y186718D02*Y183282D01*
X65054D01*
Y186718D01*
X59902D01*
G37*
G36*
Y201718D02*Y198282D01*
X65054D01*
Y201718D01*
X59902D01*
G37*
G36*
Y196718D02*Y193282D01*
X65054D01*
Y196718D01*
X59902D01*
G37*
G36*
Y191718D02*Y188282D01*
X65054D01*
Y191718D01*
X59902D01*
G37*
G36*
Y221718D02*Y218282D01*
X65054D01*
Y221718D01*
X59902D01*
G37*
G36*
Y236718D02*Y233282D01*
X65054D01*
Y236718D01*
X59902D01*
G37*
G36*
Y231718D02*Y228282D01*
X65054D01*
Y231718D01*
X59902D01*
G37*
G36*
Y226718D02*Y223282D01*
X65054D01*
Y226718D01*
X59902D01*
G37*
G36*
Y151718D02*Y148282D01*
X65054D01*
Y151718D01*
X59902D01*
G37*
G36*
Y156718D02*Y153282D01*
X65054D01*
Y156718D01*
X59902D01*
G37*
G36*
Y161718D02*Y158282D01*
X65054D01*
Y161718D01*
X59902D01*
G37*
G36*
Y166718D02*Y163282D01*
X65054D01*
Y166718D01*
X59902D01*
G37*
G36*
Y121718D02*Y118282D01*
X65054D01*
Y121718D01*
X59902D01*
G37*
G36*
Y116718D02*Y113282D01*
X65054D01*
Y116718D01*
X59902D01*
G37*
G36*
Y131718D02*Y128282D01*
X65054D01*
Y131718D01*
X59902D01*
G37*
G36*
Y126718D02*Y123282D01*
X65054D01*
Y126718D01*
X59902D01*
G37*
G36*
Y81718D02*Y78282D01*
X65054D01*
Y81718D01*
X59902D01*
G37*
G36*
Y96718D02*Y93282D01*
X65054D01*
Y96718D01*
X59902D01*
G37*
G36*
Y91718D02*Y88282D01*
X65054D01*
Y91718D01*
X59902D01*
G37*
G36*
Y86718D02*Y83282D01*
X65054D01*
Y86718D01*
X59902D01*
G37*
G36*
Y46718D02*Y43282D01*
X65054D01*
Y46718D01*
X59902D01*
G37*
G36*
Y61717D02*Y58283D01*
X65054D01*
Y61717D01*
X59902D01*
G37*
G36*
Y56717D02*Y53283D01*
X65054D01*
Y56717D01*
X59902D01*
G37*
G36*
Y51717D02*Y48282D01*
X65054D01*
Y51717D01*
X59902D01*
G37*
G36*
Y16718D02*Y13282D01*
X65054D01*
Y16718D01*
X59902D01*
G37*
G36*
Y11718D02*Y8282D01*
X65054D01*
Y11718D01*
X59902D01*
G37*
G36*
Y26718D02*Y23282D01*
X65054D01*
Y26718D01*
X59902D01*
G37*
G36*
Y21718D02*Y18282D01*
X65054D01*
Y21718D01*
X59902D01*
G37*
M02*
