G04 start of page 2 for group 0 idx 0 *
G04 Title: (unknown), top *
G04 Creator: pcb 4.0.2 *
G04 CreationDate: Thu Feb 25 03:30:48 2021 UTC *
G04 For: petersen *
G04 Format: Gerber/RS-274X *
G04 PCB-Dimensions (mil): 1500.00 4200.00 *
G04 PCB-Coordinate-Origin: lower left *
%MOIN*%
%FSLAX25Y25*%
%LNTOP*%
%ADD17C,0.0140*%
%ADD16C,0.0310*%
%ADD15C,0.0400*%
%ADD14C,0.0300*%
%ADD13C,0.0200*%
%ADD12C,0.0100*%
%ADD11C,0.0001*%
G54D11*G36*
X130500Y285000D02*Y310000D01*
X140000D01*
Y285000D01*
X130500D01*
G37*
G36*
Y250000D02*Y275000D01*
X140000D01*
Y250000D01*
X130500D01*
G37*
G36*
Y215000D02*Y240000D01*
X140000D01*
Y215000D01*
X130500D01*
G37*
G36*
Y180000D02*Y205000D01*
X140000D01*
Y180000D01*
X130500D01*
G37*
G36*
Y145000D02*Y170000D01*
X140000D01*
Y145000D01*
X130500D01*
G37*
G36*
X93000Y273000D02*X109500D01*
Y268000D01*
X93000D01*
Y273000D01*
G37*
G36*
X96500Y273500D02*X113500D01*
Y267000D01*
X96500D01*
Y273500D01*
G37*
G36*
X91500D02*X108000D01*
Y268500D01*
X91500D01*
Y273500D01*
G37*
G36*
X92000D02*X98000D01*
Y259500D01*
X92000D01*
Y273500D01*
G37*
G36*
X93000Y238000D02*X109500D01*
Y233000D01*
X93000D01*
Y238000D01*
G37*
G36*
X91500Y238500D02*X108000D01*
Y233500D01*
X91500D01*
Y238500D01*
G37*
G36*
X92000D02*X98000D01*
Y224500D01*
X92000D01*
Y238500D01*
G37*
G36*
X96500D02*X113500D01*
Y232000D01*
X96500D01*
Y238500D01*
G37*
G36*
X93000Y203000D02*X109500D01*
Y198000D01*
X93000D01*
Y203000D01*
G37*
G36*
X130500Y110000D02*Y135000D01*
X140000D01*
Y110000D01*
X130500D01*
G37*
G36*
Y75000D02*Y100000D01*
X140000D01*
Y75000D01*
X130500D01*
G37*
G36*
Y40000D02*Y65000D01*
X140000D01*
Y40000D01*
X130500D01*
G37*
G36*
Y5000D02*Y30000D01*
X140000D01*
Y5000D01*
X130500D01*
G37*
G36*
X61000Y273500D02*X98000D01*
Y268500D01*
X61000D01*
Y273500D01*
G37*
G36*
Y267500D02*X88500D01*
Y263000D01*
X61000D01*
Y267500D01*
G37*
G36*
Y262000D02*X72000D01*
Y257500D01*
X61000D01*
Y262000D01*
G37*
G36*
Y256500D02*X98000D01*
Y251500D01*
X61000D01*
Y256500D01*
G37*
G36*
Y238500D02*X98000D01*
Y233500D01*
X61000D01*
Y238500D01*
G37*
G36*
Y232500D02*X88500D01*
Y228000D01*
X61000D01*
Y232500D01*
G37*
G36*
X99000Y266000D02*X110000D01*
Y251500D01*
X99000D01*
Y266000D01*
G37*
G36*
Y231000D02*X110000D01*
Y216500D01*
X99000D01*
Y231000D01*
G37*
G36*
X61000Y227000D02*X72000D01*
Y222500D01*
X61000D01*
Y227000D01*
G37*
G36*
Y221500D02*X98000D01*
Y216500D01*
X61000D01*
Y221500D01*
G37*
G36*
Y203500D02*X98000D01*
Y198500D01*
X61000D01*
Y203500D01*
G37*
G36*
X91500D02*X108000D01*
Y198500D01*
X91500D01*
Y203500D01*
G37*
G36*
X61000Y197500D02*X88500D01*
Y193000D01*
X61000D01*
Y197500D01*
G37*
G36*
Y192000D02*X72000D01*
Y187500D01*
X61000D01*
Y192000D01*
G37*
G36*
Y186500D02*X98000D01*
Y181500D01*
X61000D01*
Y186500D01*
G37*
G36*
X99000Y196000D02*X110000D01*
Y181500D01*
X99000D01*
Y196000D01*
G37*
G36*
X61000Y168500D02*X98000D01*
Y163500D01*
X61000D01*
Y168500D01*
G37*
G36*
Y162500D02*X88500D01*
Y158000D01*
X61000D01*
Y162500D01*
G37*
G36*
Y157000D02*X72000D01*
Y152500D01*
X61000D01*
Y157000D01*
G37*
G36*
Y151500D02*X98000D01*
Y146500D01*
X61000D01*
Y151500D01*
G37*
G36*
X99000Y161000D02*X110000D01*
Y146500D01*
X99000D01*
Y161000D01*
G37*
G36*
X92000Y203500D02*X98000D01*
Y189500D01*
X92000D01*
Y203500D01*
G37*
G36*
X93000Y168000D02*X109500D01*
Y163000D01*
X93000D01*
Y168000D01*
G37*
G36*
X91500Y168500D02*X108000D01*
Y163500D01*
X91500D01*
Y168500D01*
G37*
G36*
X92000D02*X98000D01*
Y154500D01*
X92000D01*
Y168500D01*
G37*
G36*
X96500D02*X113500D01*
Y162000D01*
X96500D01*
Y168500D01*
G37*
G36*
Y203500D02*X113500D01*
Y197000D01*
X96500D01*
Y203500D01*
G37*
G36*
X99000Y406000D02*X110000D01*
Y391500D01*
X99000D01*
Y406000D01*
G37*
G36*
X130500Y390000D02*Y415000D01*
X140000D01*
Y390000D01*
X130500D01*
G37*
G36*
Y355000D02*Y380000D01*
X140000D01*
Y355000D01*
X130500D01*
G37*
G36*
Y320000D02*Y345000D01*
X140000D01*
Y320000D01*
X130500D01*
G37*
G36*
X93000Y378000D02*X109500D01*
Y373000D01*
X93000D01*
Y378000D01*
G37*
G36*
X91500Y378500D02*X108000D01*
Y373500D01*
X91500D01*
Y378500D01*
G37*
G36*
X92000D02*X98000D01*
Y364500D01*
X92000D01*
Y378500D01*
G37*
G36*
X96500D02*X113500D01*
Y372000D01*
X96500D01*
Y378500D01*
G37*
G36*
X61000Y413500D02*X98000D01*
Y408500D01*
X61000D01*
Y413500D01*
G37*
G36*
Y407500D02*X88500D01*
Y403000D01*
X61000D01*
Y407500D01*
G37*
G36*
Y402000D02*X72000D01*
Y397500D01*
X61000D01*
Y402000D01*
G37*
G36*
X93000Y413000D02*X109500D01*
Y408000D01*
X93000D01*
Y413000D01*
G37*
G36*
X91500Y413500D02*X108000D01*
Y408500D01*
X91500D01*
Y413500D01*
G37*
G36*
X92000D02*X98000D01*
Y399500D01*
X92000D01*
Y413500D01*
G37*
G36*
X96500D02*X113500D01*
Y407000D01*
X96500D01*
Y413500D01*
G37*
G36*
X61000Y396500D02*X98000D01*
Y391500D01*
X61000D01*
Y396500D01*
G37*
G36*
Y378500D02*X98000D01*
Y373500D01*
X61000D01*
Y378500D01*
G37*
G36*
Y372500D02*X88500D01*
Y368000D01*
X61000D01*
Y372500D01*
G37*
G36*
Y367000D02*X72000D01*
Y362500D01*
X61000D01*
Y367000D01*
G37*
G36*
Y361500D02*X98000D01*
Y356500D01*
X61000D01*
Y361500D01*
G37*
G36*
Y343500D02*X98000D01*
Y338500D01*
X61000D01*
Y343500D01*
G37*
G36*
Y337500D02*X88500D01*
Y333000D01*
X61000D01*
Y337500D01*
G37*
G36*
Y332000D02*X72000D01*
Y327500D01*
X61000D01*
Y332000D01*
G37*
G36*
Y326500D02*X98000D01*
Y321500D01*
X61000D01*
Y326500D01*
G37*
G36*
X99000Y371000D02*X110000D01*
Y356500D01*
X99000D01*
Y371000D01*
G37*
G36*
X93000Y343000D02*X109500D01*
Y338000D01*
X93000D01*
Y343000D01*
G37*
G36*
X91500Y343500D02*X108000D01*
Y338500D01*
X91500D01*
Y343500D01*
G37*
G36*
X96500D02*X113500D01*
Y337000D01*
X96500D01*
Y343500D01*
G37*
G36*
X92000D02*X98000D01*
Y329500D01*
X92000D01*
Y343500D01*
G37*
G36*
X99000Y336000D02*X110000D01*
Y321500D01*
X99000D01*
Y336000D01*
G37*
G36*
X93000Y308000D02*X109500D01*
Y303000D01*
X93000D01*
Y308000D01*
G37*
G36*
X61000Y308500D02*X98000D01*
Y303500D01*
X61000D01*
Y308500D01*
G37*
G36*
Y302500D02*X88500D01*
Y298000D01*
X61000D01*
Y302500D01*
G37*
G36*
Y297000D02*X72000D01*
Y292500D01*
X61000D01*
Y297000D01*
G37*
G36*
Y291500D02*X98000D01*
Y286500D01*
X61000D01*
Y291500D01*
G37*
G36*
X91500Y308500D02*X108000D01*
Y303500D01*
X91500D01*
Y308500D01*
G37*
G36*
X92000D02*X98000D01*
Y294500D01*
X92000D01*
Y308500D01*
G37*
G36*
X96500D02*X113500D01*
Y302000D01*
X96500D01*
Y308500D01*
G37*
G36*
X99000Y301000D02*X110000D01*
Y286500D01*
X99000D01*
Y301000D01*
G37*
G36*
X61000Y133500D02*X98000D01*
Y128500D01*
X61000D01*
Y133500D01*
G37*
G36*
Y127500D02*X88500D01*
Y123000D01*
X61000D01*
Y127500D01*
G37*
G36*
Y122000D02*X72000D01*
Y117500D01*
X61000D01*
Y122000D01*
G37*
G36*
Y116500D02*X98000D01*
Y111500D01*
X61000D01*
Y116500D01*
G37*
G36*
X99000Y126000D02*X110000D01*
Y111500D01*
X99000D01*
Y126000D01*
G37*
G36*
X61000Y98500D02*X98000D01*
Y93500D01*
X61000D01*
Y98500D01*
G37*
G36*
X91500D02*X108000D01*
Y93500D01*
X91500D01*
Y98500D01*
G37*
G36*
X61000Y92500D02*X88500D01*
Y88000D01*
X61000D01*
Y92500D01*
G37*
G36*
X93000Y133000D02*X109500D01*
Y128000D01*
X93000D01*
Y133000D01*
G37*
G36*
X91500Y133500D02*X108000D01*
Y128500D01*
X91500D01*
Y133500D01*
G37*
G36*
X92000D02*X98000D01*
Y119500D01*
X92000D01*
Y133500D01*
G37*
G36*
X96500D02*X113500D01*
Y127000D01*
X96500D01*
Y133500D01*
G37*
G36*
X93000Y98000D02*X109500D01*
Y93000D01*
X93000D01*
Y98000D01*
G37*
G36*
X92000Y98500D02*X98000D01*
Y84500D01*
X92000D01*
Y98500D01*
G37*
G36*
X96500D02*X113500D01*
Y92000D01*
X96500D01*
Y98500D01*
G37*
G36*
X93000Y63000D02*X109500D01*
Y58000D01*
X93000D01*
Y63000D01*
G37*
G36*
X91500Y63500D02*X108000D01*
Y58500D01*
X91500D01*
Y63500D01*
G37*
G36*
X92000D02*X98000D01*
Y49500D01*
X92000D01*
Y63500D01*
G37*
G36*
X96500D02*X113500D01*
Y57000D01*
X96500D01*
Y63500D01*
G37*
G36*
X93000Y28000D02*X109500D01*
Y23000D01*
X93000D01*
Y28000D01*
G37*
G36*
X92000Y28500D02*X98000D01*
Y14500D01*
X92000D01*
Y28500D01*
G37*
G36*
X96500D02*X113500D01*
Y22000D01*
X96500D01*
Y28500D01*
G37*
G36*
X61000Y87000D02*X72000D01*
Y82500D01*
X61000D01*
Y87000D01*
G37*
G36*
Y81500D02*X98000D01*
Y76500D01*
X61000D01*
Y81500D01*
G37*
G36*
Y63500D02*X98000D01*
Y58500D01*
X61000D01*
Y63500D01*
G37*
G36*
Y57500D02*X88500D01*
Y53000D01*
X61000D01*
Y57500D01*
G37*
G36*
X99000Y91000D02*X110000D01*
Y76500D01*
X99000D01*
Y91000D01*
G37*
G36*
Y56000D02*X110000D01*
Y41500D01*
X99000D01*
Y56000D01*
G37*
G36*
X61000Y52000D02*X72000D01*
Y47500D01*
X61000D01*
Y52000D01*
G37*
G36*
Y46500D02*X98000D01*
Y41500D01*
X61000D01*
Y46500D01*
G37*
G36*
Y28500D02*X98000D01*
Y23500D01*
X61000D01*
Y28500D01*
G37*
G36*
X91500D02*X108000D01*
Y23500D01*
X91500D01*
Y28500D01*
G37*
G36*
X61000Y22500D02*X88500D01*
Y18000D01*
X61000D01*
Y22500D01*
G37*
G36*
Y17000D02*X72000D01*
Y12500D01*
X61000D01*
Y17000D01*
G37*
G36*
Y11500D02*X98000D01*
Y6500D01*
X61000D01*
Y11500D01*
G37*
G36*
X99000Y21000D02*X110000D01*
Y6500D01*
X99000D01*
Y21000D01*
G37*
G54D12*X127500Y304000D02*X121000D01*
X127500Y297500D02*X125531Y299469D01*
X121000D01*
G54D13*X115500Y300000D02*X111500Y304000D01*
G54D12*X127500Y291000D02*Y297500D01*
Y256000D02*Y262500D01*
G54D13*X121000Y295531D02*X116969D01*
X115500Y297000D01*
Y300000D01*
X121000Y291594D02*X106500D01*
G54D12*X127500Y269000D02*X121000D01*
X127500Y262500D02*X125531Y264469D01*
X121000D01*
G54D13*Y260531D02*X116969D01*
X115500Y262000D01*
Y265000D01*
X111500Y269000D01*
X121000Y256594D02*X106500D01*
G54D12*X127500Y234000D02*X121000D01*
G54D13*Y225531D02*X116969D01*
X115500Y227000D01*
Y230000D01*
G54D12*X127500Y227500D02*X125531Y229469D01*
X121000D01*
G54D13*X115500Y230000D02*X111500Y234000D01*
G54D12*X127500Y221000D02*Y227500D01*
G54D13*X121000Y221594D02*X106500D01*
G54D12*X127500Y374000D02*X121000D01*
G54D13*Y365531D02*X116969D01*
G54D12*X127500Y361000D02*Y367500D01*
X125531Y369469D01*
X121000D01*
G54D13*Y361594D02*X106500D01*
X116969Y365531D02*X115500Y367000D01*
Y370000D01*
X111500Y374000D01*
G54D12*X127500Y409000D02*X121000D01*
X127500Y396000D02*Y402500D01*
X125531Y404469D01*
X121000D01*
G54D13*Y400531D02*X116969D01*
X115500Y402000D01*
Y405000D01*
X111500Y409000D01*
X121000Y396594D02*X106500D01*
X121000Y330531D02*X116969D01*
X115500Y332000D01*
Y335000D01*
X111500Y339000D01*
G54D12*X127500D02*X121000D01*
X127500Y326000D02*Y332500D01*
X125531Y334469D01*
X121000D01*
G54D13*Y326594D02*X106500D01*
X121000Y190531D02*X116969D01*
X115500Y192000D01*
Y195000D01*
X111500Y199000D01*
X121000Y186594D02*X106500D01*
G54D12*X127500Y199000D02*X121000D01*
X127500Y186000D02*Y192500D01*
X125531Y194469D01*
X121000D01*
X127500Y164000D02*X121000D01*
G54D13*Y155531D02*X116969D01*
X115500Y157000D01*
Y160000D01*
G54D12*X127500Y157500D02*X125531Y159469D01*
X121000D01*
G54D13*X115500Y160000D02*X111500Y164000D01*
G54D12*X127500Y151000D02*Y157500D01*
G54D13*X121000Y151594D02*X106500D01*
X121000Y120531D02*X116969D01*
X115500Y122000D01*
Y125000D01*
X111500Y129000D01*
X121000Y116594D02*X106500D01*
G54D12*X127500Y129000D02*X121000D01*
X127500Y116000D02*Y122500D01*
X125531Y124469D01*
X121000D01*
X127500Y94000D02*X121000D01*
G54D13*Y85531D02*X116969D01*
X115500Y87000D01*
Y90000D01*
G54D12*X127500Y87500D02*X125531Y89469D01*
X121000D01*
G54D13*X115500Y90000D02*X111500Y94000D01*
G54D12*X127500Y81000D02*Y87500D01*
G54D13*X121000Y81594D02*X106500D01*
X121000Y50531D02*X116969D01*
X115500Y52000D01*
Y55000D01*
X111500Y59000D01*
X121000Y46594D02*X106500D01*
G54D12*X127500Y59000D02*X121000D01*
X127500Y46000D02*Y52500D01*
X125531Y54469D01*
X121000D01*
X127500Y24000D02*X121000D01*
G54D13*Y15531D02*X116969D01*
X115500Y17000D01*
Y20000D01*
G54D12*X127500Y17500D02*X125531Y19469D01*
X121000D01*
G54D13*X115500Y20000D02*X111500Y24000D01*
G54D12*X127500Y11000D02*Y17500D01*
G54D13*X121000Y11594D02*X106500D01*
G54D11*G36*
X60202Y326418D02*Y323582D01*
X64754D01*
Y326418D01*
X60202D01*
G37*
G36*
X82548Y328016D02*Y322898D01*
X88452D01*
Y328016D01*
X82548D01*
G37*
G36*
X92048D02*Y322898D01*
X97952D01*
Y328016D01*
X92048D01*
G37*
G36*
X117949Y327775D02*Y325413D01*
X124051D01*
Y327775D01*
X117949D01*
G37*
G36*
X60202Y331418D02*Y328582D01*
X64754D01*
Y331418D01*
X60202D01*
G37*
G36*
X82548Y335102D02*Y329984D01*
X88452D01*
Y335102D01*
X82548D01*
G37*
G36*
X60202Y336418D02*Y333582D01*
X64754D01*
Y336418D01*
X60202D01*
G37*
G36*
Y341418D02*Y338582D01*
X64754D01*
Y341418D01*
X60202D01*
G37*
G36*
X104048Y342602D02*Y337484D01*
X109952D01*
Y342602D01*
X104048D01*
G37*
G36*
X92048Y335102D02*Y329984D01*
X97952D01*
Y335102D01*
X92048D01*
G37*
G36*
X104048Y335516D02*Y330398D01*
X109952D01*
Y335516D01*
X104048D01*
G37*
G36*
X117949Y331712D02*Y329350D01*
X124051D01*
Y331712D01*
X117949D01*
G37*
G36*
Y335650D02*Y333288D01*
X124051D01*
Y335650D01*
X117949D01*
G37*
G36*
Y339587D02*Y337225D01*
X124051D01*
Y339587D01*
X117949D01*
G37*
G36*
X132713Y323838D02*Y320000D01*
X139799D01*
Y323838D01*
X132713D01*
G37*
G36*
Y345000D02*Y341162D01*
X139799D01*
Y345000D01*
X132713D01*
G37*
G36*
X92048Y293016D02*Y287898D01*
X97952D01*
Y293016D01*
X92048D01*
G37*
G36*
Y300102D02*Y294984D01*
X97952D01*
Y300102D01*
X92048D01*
G37*
G36*
X104048Y307602D02*Y302484D01*
X109952D01*
Y307602D01*
X104048D01*
G37*
G36*
Y300516D02*Y295398D01*
X109952D01*
Y300516D01*
X104048D01*
G37*
G36*
X117949Y292775D02*Y290413D01*
X124051D01*
Y292775D01*
X117949D01*
G37*
G36*
Y296712D02*Y294350D01*
X124051D01*
Y296712D01*
X117949D01*
G37*
G36*
Y300650D02*Y298288D01*
X124051D01*
Y300650D01*
X117949D01*
G37*
G36*
Y304587D02*Y302225D01*
X124051D01*
Y304587D01*
X117949D01*
G37*
G36*
X132713Y288838D02*Y285000D01*
X139799D01*
Y288838D01*
X132713D01*
G37*
G36*
Y310000D02*Y306162D01*
X139799D01*
Y310000D01*
X132713D01*
G37*
G36*
X92048Y398016D02*Y392898D01*
X97952D01*
Y398016D01*
X92048D01*
G37*
G36*
Y405102D02*Y399984D01*
X97952D01*
Y405102D01*
X92048D01*
G37*
G36*
X104048Y412602D02*Y407484D01*
X109952D01*
Y412602D01*
X104048D01*
G37*
G36*
Y405516D02*Y400398D01*
X109952D01*
Y405516D01*
X104048D01*
G37*
G36*
X117949Y397775D02*Y395413D01*
X124051D01*
Y397775D01*
X117949D01*
G37*
G36*
Y401712D02*Y399350D01*
X124051D01*
Y401712D01*
X117949D01*
G37*
G36*
Y405650D02*Y403288D01*
X124051D01*
Y405650D01*
X117949D01*
G37*
G36*
Y409587D02*Y407225D01*
X124051D01*
Y409587D01*
X117949D01*
G37*
G36*
X132713Y393838D02*Y390000D01*
X139799D01*
Y393838D01*
X132713D01*
G37*
G36*
Y415000D02*Y411162D01*
X139799D01*
Y415000D01*
X132713D01*
G37*
G36*
X60202Y406418D02*Y403582D01*
X64754D01*
Y406418D01*
X60202D01*
G37*
G36*
Y411418D02*Y408582D01*
X64754D01*
Y411418D01*
X60202D01*
G37*
G36*
Y396418D02*Y393582D01*
X64754D01*
Y396418D01*
X60202D01*
G37*
G36*
Y401418D02*Y398582D01*
X64754D01*
Y401418D01*
X60202D01*
G37*
G36*
X82548Y405102D02*Y399984D01*
X88452D01*
Y405102D01*
X82548D01*
G37*
G36*
Y398016D02*Y392898D01*
X88452D01*
Y398016D01*
X82548D01*
G37*
G36*
Y370102D02*Y364984D01*
X88452D01*
Y370102D01*
X82548D01*
G37*
G36*
X60202Y361418D02*Y358582D01*
X64754D01*
Y361418D01*
X60202D01*
G37*
G36*
Y366418D02*Y363582D01*
X64754D01*
Y366418D01*
X60202D01*
G37*
G36*
Y371418D02*Y368582D01*
X64754D01*
Y371418D01*
X60202D01*
G37*
G36*
Y376418D02*Y373582D01*
X64754D01*
Y376418D01*
X60202D01*
G37*
G36*
X82548Y363016D02*Y357898D01*
X88452D01*
Y363016D01*
X82548D01*
G37*
G36*
X92048D02*Y357898D01*
X97952D01*
Y363016D01*
X92048D01*
G37*
G36*
Y370102D02*Y364984D01*
X97952D01*
Y370102D01*
X92048D01*
G37*
G36*
X104048Y377602D02*Y372484D01*
X109952D01*
Y377602D01*
X104048D01*
G37*
G36*
Y370516D02*Y365398D01*
X109952D01*
Y370516D01*
X104048D01*
G37*
G36*
X117949Y362775D02*Y360413D01*
X124051D01*
Y362775D01*
X117949D01*
G37*
G36*
X132713Y358838D02*Y355000D01*
X139799D01*
Y358838D01*
X132713D01*
G37*
G36*
X117949Y366712D02*Y364350D01*
X124051D01*
Y366712D01*
X117949D01*
G37*
G36*
Y370650D02*Y368288D01*
X124051D01*
Y370650D01*
X117949D01*
G37*
G36*
Y374587D02*Y372225D01*
X124051D01*
Y374587D01*
X117949D01*
G37*
G36*
X132713Y380000D02*Y376162D01*
X139799D01*
Y380000D01*
X132713D01*
G37*
G36*
X60202Y291418D02*Y288582D01*
X64754D01*
Y291418D01*
X60202D01*
G37*
G36*
Y296418D02*Y293582D01*
X64754D01*
Y296418D01*
X60202D01*
G37*
G36*
Y301418D02*Y298582D01*
X64754D01*
Y301418D01*
X60202D01*
G37*
G36*
Y306418D02*Y303582D01*
X64754D01*
Y306418D01*
X60202D01*
G37*
G36*
Y261418D02*Y258582D01*
X64754D01*
Y261418D01*
X60202D01*
G37*
G36*
Y266418D02*Y263582D01*
X64754D01*
Y266418D01*
X60202D01*
G37*
G36*
Y271418D02*Y268582D01*
X64754D01*
Y271418D01*
X60202D01*
G37*
G36*
X82548Y293016D02*Y287898D01*
X88452D01*
Y293016D01*
X82548D01*
G37*
G36*
Y265102D02*Y259984D01*
X88452D01*
Y265102D01*
X82548D01*
G37*
G36*
X60202Y256418D02*Y253582D01*
X64754D01*
Y256418D01*
X60202D01*
G37*
G36*
X82548Y258016D02*Y252898D01*
X88452D01*
Y258016D01*
X82548D01*
G37*
G36*
X92048D02*Y252898D01*
X97952D01*
Y258016D01*
X92048D01*
G37*
G36*
Y265102D02*Y259984D01*
X97952D01*
Y265102D01*
X92048D01*
G37*
G36*
X104048Y272602D02*Y267484D01*
X109952D01*
Y272602D01*
X104048D01*
G37*
G36*
Y265516D02*Y260398D01*
X109952D01*
Y265516D01*
X104048D01*
G37*
G36*
X117949Y257775D02*Y255413D01*
X124051D01*
Y257775D01*
X117949D01*
G37*
G36*
X132713Y253838D02*Y250000D01*
X139799D01*
Y253838D01*
X132713D01*
G37*
G36*
X117949Y261712D02*Y259350D01*
X124051D01*
Y261712D01*
X117949D01*
G37*
G36*
Y265650D02*Y263288D01*
X124051D01*
Y265650D01*
X117949D01*
G37*
G36*
Y269587D02*Y267225D01*
X124051D01*
Y269587D01*
X117949D01*
G37*
G36*
X132713Y275000D02*Y271162D01*
X139799D01*
Y275000D01*
X132713D01*
G37*
G36*
X82548Y300102D02*Y294984D01*
X88452D01*
Y300102D01*
X82548D01*
G37*
G36*
Y153016D02*Y147898D01*
X88452D01*
Y153016D01*
X82548D01*
G37*
G36*
Y160102D02*Y154984D01*
X88452D01*
Y160102D01*
X82548D01*
G37*
G36*
X60202Y186418D02*Y183582D01*
X64754D01*
Y186418D01*
X60202D01*
G37*
G36*
X82548Y188016D02*Y182898D01*
X88452D01*
Y188016D01*
X82548D01*
G37*
G36*
Y195102D02*Y189984D01*
X88452D01*
Y195102D01*
X82548D01*
G37*
G36*
X60202Y191418D02*Y188582D01*
X64754D01*
Y191418D01*
X60202D01*
G37*
G36*
Y196418D02*Y193582D01*
X64754D01*
Y196418D01*
X60202D01*
G37*
G36*
Y201418D02*Y198582D01*
X64754D01*
Y201418D01*
X60202D01*
G37*
G36*
X92048Y188016D02*Y182898D01*
X97952D01*
Y188016D01*
X92048D01*
G37*
G36*
Y195102D02*Y189984D01*
X97952D01*
Y195102D01*
X92048D01*
G37*
G36*
Y153016D02*Y147898D01*
X97952D01*
Y153016D01*
X92048D01*
G37*
G36*
Y160102D02*Y154984D01*
X97952D01*
Y160102D01*
X92048D01*
G37*
G36*
X60202Y221418D02*Y218582D01*
X64754D01*
Y221418D01*
X60202D01*
G37*
G36*
Y226418D02*Y223582D01*
X64754D01*
Y226418D01*
X60202D01*
G37*
G36*
Y231418D02*Y228582D01*
X64754D01*
Y231418D01*
X60202D01*
G37*
G36*
Y236418D02*Y233582D01*
X64754D01*
Y236418D01*
X60202D01*
G37*
G36*
X82548Y223016D02*Y217898D01*
X88452D01*
Y223016D01*
X82548D01*
G37*
G36*
Y230102D02*Y224984D01*
X88452D01*
Y230102D01*
X82548D01*
G37*
G36*
X92048Y223016D02*Y217898D01*
X97952D01*
Y223016D01*
X92048D01*
G37*
G36*
Y230102D02*Y224984D01*
X97952D01*
Y230102D01*
X92048D01*
G37*
G36*
X117949Y226712D02*Y224350D01*
X124051D01*
Y226712D01*
X117949D01*
G37*
G36*
X104048Y237602D02*Y232484D01*
X109952D01*
Y237602D01*
X104048D01*
G37*
G36*
Y230516D02*Y225398D01*
X109952D01*
Y230516D01*
X104048D01*
G37*
G36*
Y202602D02*Y197484D01*
X109952D01*
Y202602D01*
X104048D01*
G37*
G36*
X117949Y222775D02*Y220413D01*
X124051D01*
Y222775D01*
X117949D01*
G37*
G36*
X132713Y218838D02*Y215000D01*
X139799D01*
Y218838D01*
X132713D01*
G37*
G36*
X117949Y230650D02*Y228288D01*
X124051D01*
Y230650D01*
X117949D01*
G37*
G36*
Y234587D02*Y232225D01*
X124051D01*
Y234587D01*
X117949D01*
G37*
G36*
X132713Y240000D02*Y236162D01*
X139799D01*
Y240000D01*
X132713D01*
G37*
G36*
X117949Y195650D02*Y193288D01*
X124051D01*
Y195650D01*
X117949D01*
G37*
G36*
Y199587D02*Y197225D01*
X124051D01*
Y199587D01*
X117949D01*
G37*
G36*
X132713Y183838D02*Y180000D01*
X139799D01*
Y183838D01*
X132713D01*
G37*
G36*
Y205000D02*Y201162D01*
X139799D01*
Y205000D01*
X132713D01*
G37*
G36*
X104048Y195516D02*Y190398D01*
X109952D01*
Y195516D01*
X104048D01*
G37*
G36*
X117949Y187775D02*Y185413D01*
X124051D01*
Y187775D01*
X117949D01*
G37*
G36*
Y191712D02*Y189350D01*
X124051D01*
Y191712D01*
X117949D01*
G37*
G36*
X104048Y167602D02*Y162484D01*
X109952D01*
Y167602D01*
X104048D01*
G37*
G36*
Y160516D02*Y155398D01*
X109952D01*
Y160516D01*
X104048D01*
G37*
G36*
X117949Y152775D02*Y150413D01*
X124051D01*
Y152775D01*
X117949D01*
G37*
G36*
Y156712D02*Y154350D01*
X124051D01*
Y156712D01*
X117949D01*
G37*
G36*
Y160650D02*Y158288D01*
X124051D01*
Y160650D01*
X117949D01*
G37*
G36*
Y164587D02*Y162225D01*
X124051D01*
Y164587D01*
X117949D01*
G37*
G36*
X132713Y148838D02*Y145000D01*
X139799D01*
Y148838D01*
X132713D01*
G37*
G36*
Y170000D02*Y166162D01*
X139799D01*
Y170000D01*
X132713D01*
G37*
G36*
X60202Y151418D02*Y148582D01*
X64754D01*
Y151418D01*
X60202D01*
G37*
G36*
Y156418D02*Y153582D01*
X64754D01*
Y156418D01*
X60202D01*
G37*
G36*
Y161418D02*Y158582D01*
X64754D01*
Y161418D01*
X60202D01*
G37*
G36*
Y166418D02*Y163582D01*
X64754D01*
Y166418D01*
X60202D01*
G37*
G36*
Y116418D02*Y113582D01*
X64754D01*
Y116418D01*
X60202D01*
G37*
G36*
Y121418D02*Y118582D01*
X64754D01*
Y121418D01*
X60202D01*
G37*
G36*
Y126418D02*Y123582D01*
X64754D01*
Y126418D01*
X60202D01*
G37*
G36*
Y131418D02*Y128582D01*
X64754D01*
Y131418D01*
X60202D01*
G37*
G36*
X82548Y118016D02*Y112898D01*
X88452D01*
Y118016D01*
X82548D01*
G37*
G36*
Y125102D02*Y119984D01*
X88452D01*
Y125102D01*
X82548D01*
G37*
G36*
X92048Y118016D02*Y112898D01*
X97952D01*
Y118016D01*
X92048D01*
G37*
G36*
Y125102D02*Y119984D01*
X97952D01*
Y125102D01*
X92048D01*
G37*
G36*
X104048Y132602D02*Y127484D01*
X109952D01*
Y132602D01*
X104048D01*
G37*
G36*
Y125516D02*Y120398D01*
X109952D01*
Y125516D01*
X104048D01*
G37*
G36*
X117949Y117775D02*Y115413D01*
X124051D01*
Y117775D01*
X117949D01*
G37*
G36*
Y121712D02*Y119350D01*
X124051D01*
Y121712D01*
X117949D01*
G37*
G36*
Y125650D02*Y123288D01*
X124051D01*
Y125650D01*
X117949D01*
G37*
G36*
Y129587D02*Y127225D01*
X124051D01*
Y129587D01*
X117949D01*
G37*
G36*
X132713Y113838D02*Y110000D01*
X139799D01*
Y113838D01*
X132713D01*
G37*
G36*
Y135000D02*Y131162D01*
X139799D01*
Y135000D01*
X132713D01*
G37*
G36*
X117949Y82775D02*Y80413D01*
X124051D01*
Y82775D01*
X117949D01*
G37*
G36*
X132713Y78838D02*Y75000D01*
X139799D01*
Y78838D01*
X132713D01*
G37*
G36*
X117949Y86712D02*Y84350D01*
X124051D01*
Y86712D01*
X117949D01*
G37*
G36*
Y90650D02*Y88288D01*
X124051D01*
Y90650D01*
X117949D01*
G37*
G36*
Y94587D02*Y92225D01*
X124051D01*
Y94587D01*
X117949D01*
G37*
G36*
X132713Y100000D02*Y96162D01*
X139799D01*
Y100000D01*
X132713D01*
G37*
G36*
X117949Y55650D02*Y53288D01*
X124051D01*
Y55650D01*
X117949D01*
G37*
G36*
Y59587D02*Y57225D01*
X124051D01*
Y59587D01*
X117949D01*
G37*
G36*
X132713Y65000D02*Y61162D01*
X139799D01*
Y65000D01*
X132713D01*
G37*
G36*
X60202Y81418D02*Y78582D01*
X64754D01*
Y81418D01*
X60202D01*
G37*
G36*
Y86418D02*Y83582D01*
X64754D01*
Y86418D01*
X60202D01*
G37*
G36*
Y91418D02*Y88582D01*
X64754D01*
Y91418D01*
X60202D01*
G37*
G36*
Y96418D02*Y93582D01*
X64754D01*
Y96418D01*
X60202D01*
G37*
G36*
X82548Y83016D02*Y77898D01*
X88452D01*
Y83016D01*
X82548D01*
G37*
G36*
Y90102D02*Y84984D01*
X88452D01*
Y90102D01*
X82548D01*
G37*
G36*
X92048Y83016D02*Y77898D01*
X97952D01*
Y83016D01*
X92048D01*
G37*
G36*
Y90102D02*Y84984D01*
X97952D01*
Y90102D01*
X92048D01*
G37*
G36*
X104048Y97602D02*Y92484D01*
X109952D01*
Y97602D01*
X104048D01*
G37*
G36*
Y90516D02*Y85398D01*
X109952D01*
Y90516D01*
X104048D01*
G37*
G36*
X82548Y48016D02*Y42898D01*
X88452D01*
Y48016D01*
X82548D01*
G37*
G36*
Y55102D02*Y49984D01*
X88452D01*
Y55102D01*
X82548D01*
G37*
G36*
X92048Y48016D02*Y42898D01*
X97952D01*
Y48016D01*
X92048D01*
G37*
G36*
Y55102D02*Y49984D01*
X97952D01*
Y55102D01*
X92048D01*
G37*
G36*
X104048Y62602D02*Y57484D01*
X109952D01*
Y62602D01*
X104048D01*
G37*
G36*
Y55516D02*Y50398D01*
X109952D01*
Y55516D01*
X104048D01*
G37*
G36*
X60202Y46418D02*Y43582D01*
X64754D01*
Y46418D01*
X60202D01*
G37*
G36*
Y51417D02*Y48582D01*
X64754D01*
Y51417D01*
X60202D01*
G37*
G36*
Y56417D02*Y53583D01*
X64754D01*
Y56417D01*
X60202D01*
G37*
G36*
Y61417D02*Y58583D01*
X64754D01*
Y61417D01*
X60202D01*
G37*
G36*
Y11418D02*Y8582D01*
X64754D01*
Y11418D01*
X60202D01*
G37*
G36*
Y16418D02*Y13582D01*
X64754D01*
Y16418D01*
X60202D01*
G37*
G36*
Y21418D02*Y18582D01*
X64754D01*
Y21418D01*
X60202D01*
G37*
G36*
Y26418D02*Y23582D01*
X64754D01*
Y26418D01*
X60202D01*
G37*
G36*
X82548Y13016D02*Y7898D01*
X88452D01*
Y13016D01*
X82548D01*
G37*
G36*
X92048D02*Y7898D01*
X97952D01*
Y13016D01*
X92048D01*
G37*
G36*
X82548Y20102D02*Y14984D01*
X88452D01*
Y20102D01*
X82548D01*
G37*
G36*
X92048D02*Y14984D01*
X97952D01*
Y20102D01*
X92048D01*
G37*
G36*
X104048Y27602D02*Y22484D01*
X109952D01*
Y27602D01*
X104048D01*
G37*
G36*
Y20516D02*Y15398D01*
X109952D01*
Y20516D01*
X104048D01*
G37*
G36*
X117949Y47775D02*Y45413D01*
X124051D01*
Y47775D01*
X117949D01*
G37*
G36*
X132713Y43838D02*Y40000D01*
X139799D01*
Y43838D01*
X132713D01*
G37*
G36*
X117949Y51712D02*Y49350D01*
X124051D01*
Y51712D01*
X117949D01*
G37*
G36*
Y12775D02*Y10413D01*
X124051D01*
Y12775D01*
X117949D01*
G37*
G36*
Y16712D02*Y14350D01*
X124051D01*
Y16712D01*
X117949D01*
G37*
G36*
Y20650D02*Y18288D01*
X124051D01*
Y20650D01*
X117949D01*
G37*
G36*
Y24587D02*Y22225D01*
X124051D01*
Y24587D01*
X117949D01*
G37*
G36*
X132713Y8838D02*Y5000D01*
X139799D01*
Y8838D01*
X132713D01*
G37*
G36*
Y30000D02*Y26162D01*
X139799D01*
Y30000D01*
X132713D01*
G37*
G54D14*X101500Y228500D03*
Y224500D03*
Y193500D03*
Y189500D03*
X79900Y230300D03*
X69800Y224700D03*
X76200Y230300D03*
X101500Y158500D03*
Y154500D03*
Y123500D03*
Y119500D03*
X79900Y195300D03*
X69800Y189700D03*
X76200Y195300D03*
X79900Y160300D03*
X76200D03*
X69800Y154700D03*
X79900Y125300D03*
Y55300D03*
Y20300D03*
X69800Y119700D03*
Y49700D03*
Y14700D03*
X76200Y125300D03*
Y55300D03*
Y20300D03*
X79900Y90300D03*
X69800Y84700D03*
X76200Y90300D03*
X101500Y88500D03*
Y84500D03*
Y53500D03*
Y49500D03*
Y18500D03*
Y14500D03*
Y263500D03*
Y259500D03*
Y333500D03*
Y329500D03*
Y298500D03*
Y294500D03*
Y368500D03*
Y364500D03*
X79900Y370300D03*
X69800Y364700D03*
X76200Y370300D03*
X79900Y335300D03*
Y300300D03*
Y265300D03*
X69800Y329700D03*
Y294700D03*
Y259700D03*
X76200Y335300D03*
Y300300D03*
Y265300D03*
X101500Y403500D03*
X79900Y405300D03*
X76200D03*
G54D15*X127500Y409000D03*
G54D14*X101500Y399500D03*
X69800Y399700D03*
G54D15*X127500Y396000D03*
Y374000D03*
Y361000D03*
Y339000D03*
Y326000D03*
Y304000D03*
Y291000D03*
Y269000D03*
Y256000D03*
Y234000D03*
Y221000D03*
Y199000D03*
Y186000D03*
Y164000D03*
Y151000D03*
Y129000D03*
Y116000D03*
Y94000D03*
Y81000D03*
Y59000D03*
Y46000D03*
Y24000D03*
Y11000D03*
G54D16*G54D17*G54D16*G54D17*G54D16*G54D17*G54D16*G54D17*G54D16*G54D17*G54D16*G54D17*G54D16*G54D17*G54D16*G54D17*G54D16*G54D17*G54D13*G54D17*G54D13*M02*
