G04 start of page 3 for group 1 idx 1 *
G04 Title: (unknown), bottom *
G04 Creator: pcb 20110918 *
G04 CreationDate: Sat 30 Jan 2016 03:31:44 AM GMT UTC *
G04 For: railfan *
G04 Format: Gerber/RS-274X *
G04 PCB-Dimensions: 250000 50000 *
G04 PCB-Coordinate-Origin: lower left *
%MOIN*%
%FSLAX25Y25*%
%LNBOTTOM*%
%ADD32C,0.0350*%
%ADD31C,0.0420*%
%ADD30C,0.1100*%
%ADD29C,0.1250*%
%ADD28C,0.0200*%
%ADD27C,0.0400*%
%ADD26C,0.0550*%
%ADD25C,0.1500*%
%ADD24C,0.1750*%
%ADD23C,0.0001*%
G54D23*G36*
X227155Y19745D02*X227319Y19138D01*
X227435Y18488D01*
X227493Y17830D01*
Y17170D01*
X227435Y16512D01*
X227319Y15862D01*
X227155Y15255D01*
Y19745D01*
G37*
G36*
Y47500D02*X247500D01*
Y2500D01*
X227155D01*
Y12896D01*
X227530Y13539D01*
X227849Y14216D01*
X228107Y14919D01*
X228303Y15642D01*
X228434Y16379D01*
X228500Y17126D01*
Y17874D01*
X228434Y18621D01*
X228303Y19358D01*
X228107Y20081D01*
X227849Y20784D01*
X227530Y21461D01*
X227155Y22104D01*
Y47500D01*
G37*
G36*
X220004D02*X227155D01*
Y22104D01*
X227152Y22108D01*
X226719Y22719D01*
X226666Y22779D01*
X226604Y22828D01*
X226534Y22868D01*
X226460Y22896D01*
X226381Y22912D01*
X226302Y22916D01*
X226222Y22907D01*
X226145Y22886D01*
X226073Y22853D01*
X226006Y22809D01*
X225947Y22756D01*
X225897Y22693D01*
X225857Y22624D01*
X225829Y22549D01*
X225813Y22471D01*
X225809Y22391D01*
X225818Y22312D01*
X225839Y22235D01*
X225872Y22162D01*
X225917Y22096D01*
X226305Y21562D01*
X226638Y20992D01*
X226919Y20395D01*
X227147Y19775D01*
X227155Y19745D01*
Y15255D01*
X227147Y15225D01*
X226919Y14605D01*
X226638Y14008D01*
X226305Y13438D01*
X225923Y12899D01*
X225879Y12834D01*
X225846Y12763D01*
X225825Y12687D01*
X225817Y12609D01*
X225820Y12530D01*
X225836Y12453D01*
X225864Y12379D01*
X225903Y12311D01*
X225952Y12249D01*
X226010Y12196D01*
X226076Y12153D01*
X226148Y12121D01*
X226224Y12100D01*
X226302Y12091D01*
X226381Y12095D01*
X226458Y12111D01*
X226531Y12139D01*
X226600Y12178D01*
X226661Y12227D01*
X226713Y12286D01*
X227152Y12892D01*
X227155Y12896D01*
Y2500D01*
X220004D01*
Y9000D01*
X220374D01*
X221120Y9066D01*
X221858Y9197D01*
X222581Y9393D01*
X223284Y9651D01*
X223961Y9970D01*
X224608Y10348D01*
X225219Y10781D01*
X225279Y10834D01*
X225328Y10896D01*
X225368Y10966D01*
X225396Y11040D01*
X225412Y11119D01*
X225416Y11198D01*
X225407Y11278D01*
X225386Y11355D01*
X225353Y11427D01*
X225309Y11494D01*
X225256Y11553D01*
X225193Y11603D01*
X225124Y11643D01*
X225049Y11671D01*
X224971Y11687D01*
X224891Y11691D01*
X224812Y11682D01*
X224735Y11661D01*
X224662Y11628D01*
X224596Y11583D01*
X224062Y11195D01*
X223492Y10862D01*
X222895Y10581D01*
X222275Y10353D01*
X221638Y10181D01*
X220988Y10065D01*
X220330Y10007D01*
X220004D01*
Y24993D01*
X220330D01*
X220988Y24935D01*
X221638Y24819D01*
X222275Y24647D01*
X222895Y24419D01*
X223492Y24138D01*
X224062Y23805D01*
X224601Y23423D01*
X224666Y23379D01*
X224737Y23346D01*
X224813Y23325D01*
X224891Y23317D01*
X224970Y23320D01*
X225047Y23336D01*
X225121Y23364D01*
X225189Y23403D01*
X225251Y23452D01*
X225304Y23510D01*
X225347Y23576D01*
X225379Y23648D01*
X225400Y23724D01*
X225409Y23802D01*
X225405Y23881D01*
X225389Y23958D01*
X225361Y24031D01*
X225322Y24100D01*
X225273Y24161D01*
X225214Y24213D01*
X224608Y24652D01*
X223961Y25030D01*
X223284Y25349D01*
X222581Y25607D01*
X221858Y25803D01*
X221120Y25934D01*
X220374Y26000D01*
X220004D01*
Y47500D01*
G37*
G36*
X215155Y38745D02*X215319Y38138D01*
X215435Y37488D01*
X215493Y36830D01*
Y36170D01*
X215435Y35512D01*
X215319Y34862D01*
X215155Y34255D01*
Y38745D01*
G37*
G36*
Y10520D02*X215392Y10348D01*
X216039Y9970D01*
X216716Y9651D01*
X217419Y9393D01*
X218142Y9197D01*
X218879Y9066D01*
X219626Y9000D01*
X220004D01*
Y2500D01*
X215155D01*
Y10520D01*
G37*
G36*
Y23315D02*X215188Y23318D01*
X215265Y23339D01*
X215338Y23372D01*
X215404Y23417D01*
X215938Y23805D01*
X216508Y24138D01*
X217105Y24419D01*
X217725Y24647D01*
X218362Y24819D01*
X219012Y24935D01*
X219670Y24993D01*
X220004D01*
Y10007D01*
X219670D01*
X219012Y10065D01*
X218362Y10181D01*
X217725Y10353D01*
X217105Y10581D01*
X216508Y10862D01*
X215938Y11195D01*
X215399Y11577D01*
X215334Y11621D01*
X215263Y11654D01*
X215187Y11675D01*
X215155Y11678D01*
Y23315D01*
G37*
G36*
Y47500D02*X220004D01*
Y26000D01*
X219626D01*
X218879Y25934D01*
X218142Y25803D01*
X217419Y25607D01*
X216716Y25349D01*
X216039Y25030D01*
X215392Y24652D01*
X215155Y24484D01*
Y31896D01*
X215530Y32539D01*
X215849Y33216D01*
X216107Y33919D01*
X216303Y34642D01*
X216434Y35380D01*
X216500Y36126D01*
Y36874D01*
X216434Y37621D01*
X216303Y38358D01*
X216107Y39081D01*
X215849Y39784D01*
X215530Y40461D01*
X215155Y41104D01*
Y47500D01*
G37*
G36*
X212845D02*X215155D01*
Y41104D01*
X215152Y41108D01*
X214719Y41719D01*
X214666Y41779D01*
X214604Y41828D01*
X214534Y41868D01*
X214460Y41896D01*
X214381Y41912D01*
X214302Y41916D01*
X214222Y41907D01*
X214145Y41886D01*
X214073Y41853D01*
X214006Y41809D01*
X213947Y41756D01*
X213897Y41693D01*
X213857Y41624D01*
X213829Y41549D01*
X213813Y41471D01*
X213809Y41391D01*
X213818Y41312D01*
X213839Y41235D01*
X213872Y41162D01*
X213917Y41096D01*
X214305Y40562D01*
X214638Y39992D01*
X214919Y39395D01*
X215147Y38775D01*
X215155Y38745D01*
Y34255D01*
X215147Y34225D01*
X214919Y33605D01*
X214638Y33008D01*
X214305Y32438D01*
X213923Y31899D01*
X213879Y31834D01*
X213846Y31763D01*
X213825Y31687D01*
X213817Y31609D01*
X213820Y31530D01*
X213836Y31453D01*
X213864Y31379D01*
X213903Y31311D01*
X213952Y31249D01*
X214010Y31196D01*
X214076Y31153D01*
X214148Y31121D01*
X214224Y31100D01*
X214302Y31091D01*
X214381Y31095D01*
X214458Y31111D01*
X214531Y31139D01*
X214600Y31178D01*
X214661Y31227D01*
X214713Y31286D01*
X215152Y31892D01*
X215155Y31896D01*
Y24484D01*
X214781Y24219D01*
X214721Y24166D01*
X214672Y24104D01*
X214632Y24034D01*
X214604Y23960D01*
X214588Y23881D01*
X214584Y23802D01*
X214593Y23722D01*
X214614Y23645D01*
X214647Y23573D01*
X214691Y23506D01*
X214744Y23447D01*
X214807Y23397D01*
X214876Y23357D01*
X214951Y23329D01*
X215029Y23313D01*
X215109Y23309D01*
X215155Y23315D01*
Y11678D01*
X215109Y11683D01*
X215030Y11680D01*
X214953Y11664D01*
X214879Y11636D01*
X214811Y11597D01*
X214749Y11548D01*
X214696Y11490D01*
X214653Y11424D01*
X214621Y11352D01*
X214600Y11276D01*
X214591Y11198D01*
X214595Y11119D01*
X214611Y11042D01*
X214639Y10969D01*
X214678Y10900D01*
X214727Y10839D01*
X214786Y10787D01*
X215155Y10520D01*
Y2500D01*
X212845D01*
Y12896D01*
X212848Y12892D01*
X213281Y12281D01*
X213334Y12221D01*
X213396Y12172D01*
X213466Y12132D01*
X213540Y12104D01*
X213619Y12088D01*
X213698Y12084D01*
X213778Y12093D01*
X213855Y12114D01*
X213927Y12147D01*
X213994Y12191D01*
X214053Y12244D01*
X214103Y12307D01*
X214143Y12376D01*
X214171Y12451D01*
X214187Y12529D01*
X214191Y12609D01*
X214182Y12688D01*
X214161Y12765D01*
X214128Y12838D01*
X214083Y12904D01*
X213695Y13438D01*
X213362Y14008D01*
X213081Y14605D01*
X212853Y15225D01*
X212845Y15255D01*
Y19745D01*
X212853Y19775D01*
X213081Y20395D01*
X213362Y20992D01*
X213695Y21562D01*
X214077Y22101D01*
X214121Y22166D01*
X214154Y22237D01*
X214175Y22313D01*
X214183Y22391D01*
X214180Y22470D01*
X214164Y22547D01*
X214136Y22621D01*
X214097Y22689D01*
X214048Y22751D01*
X213990Y22804D01*
X213924Y22847D01*
X213852Y22879D01*
X213776Y22900D01*
X213698Y22909D01*
X213619Y22905D01*
X213542Y22889D01*
X213469Y22861D01*
X213400Y22822D01*
X213339Y22773D01*
X213287Y22714D01*
X212848Y22108D01*
X212845Y22104D01*
Y29516D01*
X213219Y29781D01*
X213279Y29834D01*
X213328Y29896D01*
X213368Y29966D01*
X213396Y30040D01*
X213412Y30119D01*
X213416Y30198D01*
X213407Y30278D01*
X213386Y30355D01*
X213353Y30427D01*
X213309Y30494D01*
X213256Y30553D01*
X213193Y30603D01*
X213124Y30643D01*
X213049Y30671D01*
X212971Y30687D01*
X212891Y30691D01*
X212845Y30686D01*
Y42322D01*
X212891Y42317D01*
X212970Y42320D01*
X213047Y42336D01*
X213121Y42364D01*
X213189Y42403D01*
X213251Y42452D01*
X213304Y42510D01*
X213347Y42576D01*
X213379Y42648D01*
X213400Y42724D01*
X213409Y42802D01*
X213405Y42881D01*
X213389Y42958D01*
X213361Y43031D01*
X213322Y43100D01*
X213273Y43161D01*
X213214Y43213D01*
X212845Y43480D01*
Y47500D01*
G37*
G36*
Y15255D02*X212681Y15862D01*
X212565Y16512D01*
X212507Y17170D01*
Y17830D01*
X212565Y18488D01*
X212681Y19138D01*
X212845Y19745D01*
Y15255D01*
G37*
G36*
X200845Y47500D02*X212845D01*
Y43480D01*
X212608Y43652D01*
X211961Y44030D01*
X211284Y44349D01*
X210581Y44607D01*
X209858Y44803D01*
X209120Y44934D01*
X208374Y45000D01*
X207626D01*
X206879Y44934D01*
X206142Y44803D01*
X205419Y44607D01*
X204716Y44349D01*
X204039Y44030D01*
X203392Y43652D01*
X202781Y43219D01*
X202721Y43166D01*
X202672Y43104D01*
X202632Y43034D01*
X202604Y42960D01*
X202588Y42881D01*
X202584Y42802D01*
X202593Y42722D01*
X202614Y42645D01*
X202647Y42573D01*
X202691Y42506D01*
X202744Y42447D01*
X202807Y42397D01*
X202876Y42357D01*
X202951Y42329D01*
X203029Y42313D01*
X203109Y42309D01*
X203188Y42318D01*
X203265Y42339D01*
X203338Y42372D01*
X203404Y42417D01*
X203938Y42805D01*
X204508Y43138D01*
X205105Y43419D01*
X205725Y43647D01*
X206362Y43819D01*
X207012Y43935D01*
X207670Y43993D01*
X208330D01*
X208988Y43935D01*
X209638Y43819D01*
X210275Y43647D01*
X210895Y43419D01*
X211492Y43138D01*
X212062Y42805D01*
X212601Y42423D01*
X212666Y42379D01*
X212737Y42346D01*
X212813Y42325D01*
X212845Y42322D01*
Y30686D01*
X212812Y30682D01*
X212735Y30661D01*
X212662Y30628D01*
X212596Y30583D01*
X212062Y30195D01*
X211492Y29862D01*
X210895Y29581D01*
X210275Y29353D01*
X209638Y29181D01*
X208988Y29065D01*
X208330Y29007D01*
X207670D01*
X207012Y29065D01*
X206362Y29181D01*
X205725Y29353D01*
X205105Y29581D01*
X204508Y29862D01*
X203938Y30195D01*
X203399Y30577D01*
X203334Y30621D01*
X203263Y30654D01*
X203187Y30675D01*
X203109Y30683D01*
X203030Y30680D01*
X202953Y30664D01*
X202879Y30636D01*
X202811Y30597D01*
X202749Y30548D01*
X202696Y30490D01*
X202653Y30424D01*
X202621Y30352D01*
X202600Y30276D01*
X202591Y30198D01*
X202595Y30119D01*
X202611Y30042D01*
X202639Y29969D01*
X202678Y29900D01*
X202727Y29839D01*
X202786Y29787D01*
X203392Y29348D01*
X204039Y28970D01*
X204716Y28651D01*
X205419Y28393D01*
X206142Y28197D01*
X206879Y28066D01*
X207626Y28000D01*
X208374D01*
X209120Y28066D01*
X209858Y28197D01*
X210581Y28393D01*
X211284Y28651D01*
X211961Y28970D01*
X212608Y29348D01*
X212845Y29516D01*
Y22104D01*
X212470Y21461D01*
X212151Y20784D01*
X211893Y20081D01*
X211697Y19358D01*
X211566Y18621D01*
X211500Y17874D01*
Y17126D01*
X211566Y16379D01*
X211697Y15642D01*
X211893Y14919D01*
X212151Y14216D01*
X212470Y13539D01*
X212845Y12896D01*
Y2500D01*
X200845D01*
Y9034D01*
X201749Y9588D01*
X202916Y10584D01*
X203912Y11751D01*
X204714Y13060D01*
X205301Y14478D01*
X205660Y15970D01*
X205750Y17500D01*
X205660Y19030D01*
X205301Y20522D01*
X204714Y21940D01*
X203912Y23249D01*
X202916Y24416D01*
X201749Y25412D01*
X200845Y25966D01*
Y31896D01*
X200848Y31892D01*
X201281Y31281D01*
X201334Y31221D01*
X201396Y31172D01*
X201466Y31132D01*
X201540Y31104D01*
X201619Y31088D01*
X201698Y31084D01*
X201778Y31093D01*
X201855Y31114D01*
X201927Y31147D01*
X201994Y31191D01*
X202053Y31244D01*
X202103Y31307D01*
X202143Y31376D01*
X202171Y31451D01*
X202187Y31529D01*
X202191Y31609D01*
X202182Y31688D01*
X202161Y31765D01*
X202128Y31838D01*
X202083Y31904D01*
X201695Y32438D01*
X201362Y33008D01*
X201081Y33605D01*
X200853Y34225D01*
X200845Y34255D01*
Y38745D01*
X200853Y38775D01*
X201081Y39395D01*
X201362Y39992D01*
X201695Y40562D01*
X202077Y41101D01*
X202121Y41166D01*
X202154Y41237D01*
X202175Y41313D01*
X202183Y41391D01*
X202180Y41470D01*
X202164Y41547D01*
X202136Y41621D01*
X202097Y41689D01*
X202048Y41751D01*
X201990Y41804D01*
X201924Y41847D01*
X201852Y41879D01*
X201776Y41900D01*
X201698Y41909D01*
X201619Y41905D01*
X201542Y41889D01*
X201469Y41861D01*
X201400Y41822D01*
X201339Y41773D01*
X201287Y41714D01*
X200848Y41108D01*
X200845Y41104D01*
Y47500D01*
G37*
G36*
Y34255D02*X200681Y34862D01*
X200565Y35512D01*
X200507Y36170D01*
Y36830D01*
X200565Y37488D01*
X200681Y38138D01*
X200845Y38745D01*
Y34255D01*
G37*
G36*
Y2500D02*X195985D01*
Y7721D01*
X196000Y7720D01*
X197530Y7840D01*
X199022Y8199D01*
X200440Y8786D01*
X200845Y9034D01*
Y2500D01*
G37*
G36*
X195985Y47500D02*X200845D01*
Y41104D01*
X200470Y40461D01*
X200151Y39784D01*
X199893Y39081D01*
X199697Y38358D01*
X199566Y37621D01*
X199500Y36874D01*
Y36126D01*
X199566Y35380D01*
X199697Y34642D01*
X199893Y33919D01*
X200151Y33216D01*
X200470Y32539D01*
X200845Y31896D01*
Y25966D01*
X200440Y26214D01*
X199022Y26801D01*
X197530Y27160D01*
X196000Y27280D01*
X195985Y27279D01*
Y47500D01*
G37*
G36*
X177553Y40239D02*X177559Y40238D01*
X178147Y40285D01*
X178721Y40423D01*
X179267Y40648D01*
X179770Y40957D01*
X180219Y41340D01*
X180602Y41789D01*
X180911Y42292D01*
X181136Y42838D01*
X181274Y43412D01*
X181309Y44000D01*
X181274Y44588D01*
X181136Y45162D01*
X180911Y45708D01*
X180602Y46211D01*
X180219Y46660D01*
X179770Y47043D01*
X179267Y47352D01*
X178908Y47500D01*
X195985D01*
Y27279D01*
X194470Y27160D01*
X192978Y26801D01*
X191560Y26214D01*
X190251Y25412D01*
X189084Y24416D01*
X188088Y23249D01*
X187286Y21940D01*
X186699Y20522D01*
X186340Y19030D01*
X186220Y17500D01*
X186340Y15970D01*
X186699Y14478D01*
X187286Y13060D01*
X188088Y11751D01*
X189084Y10584D01*
X190251Y9588D01*
X191560Y8786D01*
X192978Y8199D01*
X194470Y7840D01*
X195985Y7721D01*
Y2500D01*
X177553D01*
Y27247D01*
X177559Y27246D01*
X178147Y27293D01*
X178721Y27431D01*
X179267Y27656D01*
X179770Y27965D01*
X180219Y28348D01*
X180602Y28797D01*
X180911Y29300D01*
X181136Y29846D01*
X181274Y30420D01*
X181309Y31008D01*
X181274Y31596D01*
X181136Y32170D01*
X180911Y32716D01*
X180602Y33219D01*
X180219Y33668D01*
X179770Y34051D01*
X179267Y34360D01*
X178721Y34585D01*
X178147Y34723D01*
X177559Y34770D01*
X177553Y34769D01*
Y40239D01*
G37*
G36*
X167711D02*X167717Y40238D01*
X168305Y40285D01*
X168879Y40423D01*
X169425Y40648D01*
X169928Y40957D01*
X170377Y41340D01*
X170760Y41789D01*
X171069Y42292D01*
X171294Y42838D01*
X171432Y43412D01*
X171467Y44000D01*
X171432Y44588D01*
X171294Y45162D01*
X171069Y45708D01*
X170760Y46211D01*
X170377Y46660D01*
X169928Y47043D01*
X169425Y47352D01*
X169066Y47500D01*
X176210D01*
X175851Y47352D01*
X175348Y47043D01*
X174899Y46660D01*
X174516Y46211D01*
X174207Y45708D01*
X173982Y45162D01*
X173844Y44588D01*
X173797Y44000D01*
X173844Y43412D01*
X173982Y42838D01*
X174207Y42292D01*
X174516Y41789D01*
X174899Y41340D01*
X175348Y40957D01*
X175851Y40648D01*
X176397Y40423D01*
X176971Y40285D01*
X177553Y40239D01*
Y34769D01*
X176971Y34723D01*
X176397Y34585D01*
X175851Y34360D01*
X175348Y34051D01*
X174899Y33668D01*
X174516Y33219D01*
X174207Y32716D01*
X173982Y32170D01*
X173844Y31596D01*
X173797Y31008D01*
X173844Y30420D01*
X173982Y29846D01*
X174207Y29300D01*
X174516Y28797D01*
X174899Y28348D01*
X175348Y27965D01*
X175851Y27656D01*
X176397Y27431D01*
X176971Y27293D01*
X177553Y27247D01*
Y2500D01*
X167711D01*
Y27247D01*
X167717Y27246D01*
X168305Y27293D01*
X168879Y27431D01*
X169425Y27656D01*
X169928Y27965D01*
X170377Y28348D01*
X170760Y28797D01*
X171069Y29300D01*
X171294Y29846D01*
X171432Y30420D01*
X171467Y31008D01*
X171432Y31596D01*
X171294Y32170D01*
X171069Y32716D01*
X170760Y33219D01*
X170377Y33668D01*
X169928Y34051D01*
X169425Y34360D01*
X168879Y34585D01*
X168305Y34723D01*
X167717Y34770D01*
X167711Y34769D01*
Y40239D01*
G37*
G36*
X157874Y40238D02*X158462Y40285D01*
X159036Y40423D01*
X159582Y40648D01*
X160085Y40957D01*
X160534Y41340D01*
X160917Y41789D01*
X161226Y42292D01*
X161451Y42838D01*
X161589Y43412D01*
X161624Y44000D01*
X161589Y44588D01*
X161451Y45162D01*
X161226Y45708D01*
X160917Y46211D01*
X160534Y46660D01*
X160085Y47043D01*
X159582Y47352D01*
X159223Y47500D01*
X166368D01*
X166009Y47352D01*
X165506Y47043D01*
X165057Y46660D01*
X164674Y46211D01*
X164365Y45708D01*
X164140Y45162D01*
X164002Y44588D01*
X163955Y44000D01*
X164002Y43412D01*
X164140Y42838D01*
X164365Y42292D01*
X164674Y41789D01*
X165057Y41340D01*
X165506Y40957D01*
X166009Y40648D01*
X166555Y40423D01*
X167129Y40285D01*
X167711Y40239D01*
Y34769D01*
X167129Y34723D01*
X166555Y34585D01*
X166009Y34360D01*
X165506Y34051D01*
X165057Y33668D01*
X164674Y33219D01*
X164365Y32716D01*
X164140Y32170D01*
X164002Y31596D01*
X163955Y31008D01*
X164002Y30420D01*
X164140Y29846D01*
X164365Y29300D01*
X164674Y28797D01*
X165057Y28348D01*
X165506Y27965D01*
X166009Y27656D01*
X166555Y27431D01*
X167129Y27293D01*
X167711Y27247D01*
Y2500D01*
X157874D01*
Y27263D01*
X160781Y27267D01*
X160934Y27304D01*
X161079Y27364D01*
X161214Y27446D01*
X161333Y27549D01*
X161436Y27668D01*
X161518Y27803D01*
X161578Y27948D01*
X161615Y28101D01*
X161624Y28258D01*
X161615Y33915D01*
X161578Y34068D01*
X161518Y34213D01*
X161436Y34348D01*
X161333Y34467D01*
X161214Y34570D01*
X161079Y34652D01*
X160934Y34712D01*
X160781Y34749D01*
X160624Y34758D01*
X157874Y34753D01*
Y40238D01*
G37*
G36*
X145500Y47500D02*X156525D01*
X156166Y47352D01*
X155663Y47043D01*
X155214Y46660D01*
X154831Y46211D01*
X154522Y45708D01*
X154297Y45162D01*
X154159Y44588D01*
X154112Y44000D01*
X154159Y43412D01*
X154297Y42838D01*
X154522Y42292D01*
X154831Y41789D01*
X155214Y41340D01*
X155663Y40957D01*
X156166Y40648D01*
X156712Y40423D01*
X157286Y40285D01*
X157874Y40238D01*
Y34753D01*
X154967Y34749D01*
X154814Y34712D01*
X154669Y34652D01*
X154534Y34570D01*
X154415Y34467D01*
X154312Y34348D01*
X154230Y34213D01*
X154170Y34068D01*
X154133Y33915D01*
X154124Y33758D01*
X154133Y28101D01*
X154170Y27948D01*
X154230Y27803D01*
X154312Y27668D01*
X154415Y27549D01*
X154534Y27446D01*
X154669Y27364D01*
X154814Y27304D01*
X154967Y27267D01*
X155124Y27258D01*
X157874Y27263D01*
Y2500D01*
X145500D01*
Y3007D01*
X148735Y3014D01*
X148965Y3069D01*
X149183Y3159D01*
X149384Y3283D01*
X149564Y3436D01*
X149717Y3616D01*
X149841Y3817D01*
X149931Y4035D01*
X149986Y4265D01*
X150000Y4500D01*
X149986Y10735D01*
X149931Y10965D01*
X149841Y11183D01*
X149717Y11384D01*
X149564Y11564D01*
X149384Y11717D01*
X149183Y11841D01*
X148965Y11931D01*
X148735Y11986D01*
X148500Y12000D01*
X145500Y11993D01*
Y47500D01*
G37*
G36*
X128250D02*X145500D01*
Y11993D01*
X142265Y11986D01*
X142035Y11931D01*
X141817Y11841D01*
X141616Y11717D01*
X141436Y11564D01*
X141283Y11384D01*
X141159Y11183D01*
X141069Y10965D01*
X141014Y10735D01*
X141000Y10500D01*
X141014Y4265D01*
X141069Y4035D01*
X141159Y3817D01*
X141283Y3616D01*
X141436Y3436D01*
X141616Y3283D01*
X141817Y3159D01*
X142035Y3069D01*
X142265Y3014D01*
X142500Y3000D01*
X145500Y3007D01*
Y2500D01*
X128250D01*
Y17248D01*
X128368Y17257D01*
X128482Y17285D01*
X128592Y17330D01*
X128692Y17391D01*
X128782Y17468D01*
X128859Y17558D01*
X128920Y17658D01*
X128965Y17768D01*
X128993Y17882D01*
X129000Y18000D01*
Y21000D01*
X128993Y21118D01*
X128965Y21232D01*
X128920Y21342D01*
X128859Y21442D01*
X128782Y21532D01*
X128692Y21609D01*
X128592Y21670D01*
X128482Y21715D01*
X128368Y21743D01*
X128250Y21752D01*
Y47500D01*
G37*
G36*
X124500D02*X128250D01*
Y21752D01*
X128132Y21743D01*
X128018Y21715D01*
X127908Y21670D01*
X127808Y21609D01*
X127718Y21532D01*
X127641Y21442D01*
X127580Y21342D01*
X127535Y21232D01*
X127507Y21118D01*
X127500Y21000D01*
Y18000D01*
X127507Y17882D01*
X127535Y17768D01*
X127580Y17658D01*
X127641Y17558D01*
X127718Y17468D01*
X127808Y17391D01*
X127908Y17330D01*
X128018Y17285D01*
X128132Y17257D01*
X128250Y17248D01*
Y2500D01*
X124500D01*
Y15000D01*
X126000D01*
X126118Y15007D01*
X126232Y15035D01*
X126342Y15080D01*
X126442Y15141D01*
X126532Y15218D01*
X126609Y15308D01*
X126670Y15408D01*
X126715Y15518D01*
X126743Y15632D01*
X126752Y15750D01*
X126743Y15868D01*
X126715Y15982D01*
X126670Y16092D01*
X126609Y16192D01*
X126532Y16282D01*
X126442Y16359D01*
X126342Y16420D01*
X126232Y16465D01*
X126118Y16493D01*
X126000Y16500D01*
X124500D01*
Y22500D01*
X126000D01*
X126118Y22507D01*
X126232Y22535D01*
X126342Y22580D01*
X126442Y22641D01*
X126532Y22718D01*
X126609Y22808D01*
X126670Y22908D01*
X126715Y23018D01*
X126743Y23132D01*
X126752Y23250D01*
X126743Y23368D01*
X126715Y23482D01*
X126670Y23592D01*
X126609Y23692D01*
X126532Y23782D01*
X126442Y23859D01*
X126342Y23920D01*
X126232Y23965D01*
X126118Y23993D01*
X126000Y24000D01*
X124500D01*
Y47500D01*
G37*
G36*
X120750D02*X124500D01*
Y24000D01*
X123000D01*
X122882Y23993D01*
X122768Y23965D01*
X122658Y23920D01*
X122558Y23859D01*
X122468Y23782D01*
X122391Y23692D01*
X122330Y23592D01*
X122285Y23482D01*
X122257Y23368D01*
X122248Y23250D01*
X122257Y23132D01*
X122285Y23018D01*
X122330Y22908D01*
X122391Y22808D01*
X122468Y22718D01*
X122558Y22641D01*
X122658Y22580D01*
X122768Y22535D01*
X122882Y22507D01*
X123000Y22500D01*
X124500D01*
Y16500D01*
X123000D01*
X122882Y16493D01*
X122768Y16465D01*
X122658Y16420D01*
X122558Y16359D01*
X122468Y16282D01*
X122391Y16192D01*
X122330Y16092D01*
X122285Y15982D01*
X122257Y15868D01*
X122248Y15750D01*
X122257Y15632D01*
X122285Y15518D01*
X122330Y15408D01*
X122391Y15308D01*
X122468Y15218D01*
X122558Y15141D01*
X122658Y15080D01*
X122768Y15035D01*
X122882Y15007D01*
X123000Y15000D01*
X124500D01*
Y2500D01*
X120750D01*
Y17248D01*
X120868Y17257D01*
X120982Y17285D01*
X121092Y17330D01*
X121192Y17391D01*
X121282Y17468D01*
X121359Y17558D01*
X121420Y17658D01*
X121465Y17768D01*
X121493Y17882D01*
X121500Y18000D01*
Y21000D01*
X121493Y21118D01*
X121465Y21232D01*
X121420Y21342D01*
X121359Y21442D01*
X121282Y21532D01*
X121192Y21609D01*
X121092Y21670D01*
X120982Y21715D01*
X120868Y21743D01*
X120750Y21752D01*
Y47500D01*
G37*
G36*
X75500D02*X120750D01*
Y21752D01*
X120632Y21743D01*
X120518Y21715D01*
X120408Y21670D01*
X120308Y21609D01*
X120218Y21532D01*
X120141Y21442D01*
X120080Y21342D01*
X120035Y21232D01*
X120007Y21118D01*
X120000Y21000D01*
Y18000D01*
X120007Y17882D01*
X120035Y17768D01*
X120080Y17658D01*
X120141Y17558D01*
X120218Y17468D01*
X120308Y17391D01*
X120408Y17330D01*
X120518Y17285D01*
X120632Y17257D01*
X120750Y17248D01*
Y2500D01*
X75500D01*
Y3007D01*
X78735Y3014D01*
X78965Y3069D01*
X79183Y3159D01*
X79384Y3283D01*
X79564Y3436D01*
X79717Y3616D01*
X79841Y3817D01*
X79931Y4035D01*
X79986Y4265D01*
X80000Y4500D01*
X79986Y10735D01*
X79931Y10965D01*
X79841Y11183D01*
X79717Y11384D01*
X79564Y11564D01*
X79384Y11717D01*
X79183Y11841D01*
X78965Y11931D01*
X78735Y11986D01*
X78500Y12000D01*
X75500Y11993D01*
Y13007D01*
X78735Y13014D01*
X78965Y13069D01*
X79183Y13159D01*
X79384Y13283D01*
X79564Y13436D01*
X79717Y13616D01*
X79841Y13817D01*
X79931Y14035D01*
X79986Y14265D01*
X80000Y14500D01*
X79986Y20735D01*
X79931Y20965D01*
X79841Y21183D01*
X79717Y21384D01*
X79564Y21564D01*
X79384Y21717D01*
X79183Y21841D01*
X78965Y21931D01*
X78735Y21986D01*
X78500Y22000D01*
X75500Y21993D01*
Y47500D01*
G37*
G36*
X44553Y40239D02*X44559Y40238D01*
X45147Y40285D01*
X45721Y40423D01*
X46267Y40648D01*
X46770Y40957D01*
X47219Y41340D01*
X47602Y41789D01*
X47911Y42292D01*
X48136Y42838D01*
X48274Y43412D01*
X48309Y44000D01*
X48274Y44588D01*
X48136Y45162D01*
X47911Y45708D01*
X47602Y46211D01*
X47219Y46660D01*
X46770Y47043D01*
X46267Y47352D01*
X45908Y47500D01*
X75500D01*
Y21993D01*
X72265Y21986D01*
X72035Y21931D01*
X71817Y21841D01*
X71616Y21717D01*
X71436Y21564D01*
X71283Y21384D01*
X71159Y21183D01*
X71069Y20965D01*
X71014Y20735D01*
X71000Y20500D01*
X71014Y14265D01*
X71069Y14035D01*
X71159Y13817D01*
X71283Y13616D01*
X71436Y13436D01*
X71616Y13283D01*
X71817Y13159D01*
X72035Y13069D01*
X72265Y13014D01*
X72500Y13000D01*
X75500Y13007D01*
Y11993D01*
X72265Y11986D01*
X72035Y11931D01*
X71817Y11841D01*
X71616Y11717D01*
X71436Y11564D01*
X71283Y11384D01*
X71159Y11183D01*
X71069Y10965D01*
X71014Y10735D01*
X71000Y10500D01*
X71014Y4265D01*
X71069Y4035D01*
X71159Y3817D01*
X71283Y3616D01*
X71436Y3436D01*
X71616Y3283D01*
X71817Y3159D01*
X72035Y3069D01*
X72265Y3014D01*
X72500Y3000D01*
X75500Y3007D01*
Y2500D01*
X44553D01*
Y27247D01*
X44559Y27246D01*
X45147Y27293D01*
X45721Y27431D01*
X46267Y27656D01*
X46770Y27965D01*
X47219Y28348D01*
X47602Y28797D01*
X47911Y29300D01*
X48136Y29846D01*
X48274Y30420D01*
X48309Y31008D01*
X48274Y31596D01*
X48136Y32170D01*
X47911Y32716D01*
X47602Y33219D01*
X47219Y33668D01*
X46770Y34051D01*
X46267Y34360D01*
X45721Y34585D01*
X45147Y34723D01*
X44559Y34770D01*
X44553Y34769D01*
Y40239D01*
G37*
G36*
X34711D02*X34717Y40238D01*
X35305Y40285D01*
X35879Y40423D01*
X36425Y40648D01*
X36928Y40957D01*
X37377Y41340D01*
X37760Y41789D01*
X38069Y42292D01*
X38294Y42838D01*
X38432Y43412D01*
X38467Y44000D01*
X38432Y44588D01*
X38294Y45162D01*
X38069Y45708D01*
X37760Y46211D01*
X37377Y46660D01*
X36928Y47043D01*
X36425Y47352D01*
X36066Y47500D01*
X43210D01*
X42851Y47352D01*
X42348Y47043D01*
X41899Y46660D01*
X41516Y46211D01*
X41207Y45708D01*
X40982Y45162D01*
X40844Y44588D01*
X40797Y44000D01*
X40844Y43412D01*
X40982Y42838D01*
X41207Y42292D01*
X41516Y41789D01*
X41899Y41340D01*
X42348Y40957D01*
X42851Y40648D01*
X43397Y40423D01*
X43971Y40285D01*
X44553Y40239D01*
Y34769D01*
X43971Y34723D01*
X43397Y34585D01*
X42851Y34360D01*
X42348Y34051D01*
X41899Y33668D01*
X41516Y33219D01*
X41207Y32716D01*
X40982Y32170D01*
X40844Y31596D01*
X40797Y31008D01*
X40844Y30420D01*
X40982Y29846D01*
X41207Y29300D01*
X41516Y28797D01*
X41899Y28348D01*
X42348Y27965D01*
X42851Y27656D01*
X43397Y27431D01*
X43971Y27293D01*
X44553Y27247D01*
Y2500D01*
X34711D01*
Y27247D01*
X34717Y27246D01*
X35305Y27293D01*
X35879Y27431D01*
X36425Y27656D01*
X36928Y27965D01*
X37377Y28348D01*
X37760Y28797D01*
X38069Y29300D01*
X38294Y29846D01*
X38432Y30420D01*
X38467Y31008D01*
X38432Y31596D01*
X38294Y32170D01*
X38069Y32716D01*
X37760Y33219D01*
X37377Y33668D01*
X36928Y34051D01*
X36425Y34360D01*
X35879Y34585D01*
X35305Y34723D01*
X34717Y34770D01*
X34711Y34769D01*
Y40239D01*
G37*
G36*
X24874Y40238D02*X25462Y40285D01*
X26036Y40423D01*
X26582Y40648D01*
X27085Y40957D01*
X27534Y41340D01*
X27917Y41789D01*
X28226Y42292D01*
X28451Y42838D01*
X28589Y43412D01*
X28624Y44000D01*
X28589Y44588D01*
X28451Y45162D01*
X28226Y45708D01*
X27917Y46211D01*
X27534Y46660D01*
X27085Y47043D01*
X26582Y47352D01*
X26223Y47500D01*
X33368D01*
X33009Y47352D01*
X32506Y47043D01*
X32057Y46660D01*
X31674Y46211D01*
X31365Y45708D01*
X31140Y45162D01*
X31002Y44588D01*
X30955Y44000D01*
X31002Y43412D01*
X31140Y42838D01*
X31365Y42292D01*
X31674Y41789D01*
X32057Y41340D01*
X32506Y40957D01*
X33009Y40648D01*
X33555Y40423D01*
X34129Y40285D01*
X34711Y40239D01*
Y34769D01*
X34129Y34723D01*
X33555Y34585D01*
X33009Y34360D01*
X32506Y34051D01*
X32057Y33668D01*
X31674Y33219D01*
X31365Y32716D01*
X31140Y32170D01*
X31002Y31596D01*
X30955Y31008D01*
X31002Y30420D01*
X31140Y29846D01*
X31365Y29300D01*
X31674Y28797D01*
X32057Y28348D01*
X32506Y27965D01*
X33009Y27656D01*
X33555Y27431D01*
X34129Y27293D01*
X34711Y27247D01*
Y2500D01*
X24874D01*
Y15006D01*
X28235Y15014D01*
X28465Y15069D01*
X28683Y15159D01*
X28884Y15283D01*
X29064Y15436D01*
X29217Y15616D01*
X29341Y15817D01*
X29431Y16035D01*
X29486Y16265D01*
X29500Y16500D01*
X29486Y22735D01*
X29431Y22965D01*
X29341Y23183D01*
X29217Y23384D01*
X29064Y23564D01*
X28884Y23717D01*
X28683Y23841D01*
X28465Y23931D01*
X28235Y23986D01*
X28000Y24000D01*
X24874Y23993D01*
Y27263D01*
X27781Y27267D01*
X27934Y27304D01*
X28079Y27364D01*
X28214Y27446D01*
X28333Y27549D01*
X28436Y27668D01*
X28518Y27803D01*
X28578Y27948D01*
X28615Y28101D01*
X28624Y28258D01*
X28615Y33915D01*
X28578Y34068D01*
X28518Y34213D01*
X28436Y34348D01*
X28333Y34467D01*
X28214Y34570D01*
X28079Y34652D01*
X27934Y34712D01*
X27781Y34749D01*
X27624Y34758D01*
X24874Y34753D01*
Y40238D01*
G37*
G36*
X2500Y2500D02*Y47500D01*
X23525D01*
X23166Y47352D01*
X22663Y47043D01*
X22214Y46660D01*
X21831Y46211D01*
X21522Y45708D01*
X21297Y45162D01*
X21159Y44588D01*
X21112Y44000D01*
X21159Y43412D01*
X21297Y42838D01*
X21522Y42292D01*
X21831Y41789D01*
X22214Y41340D01*
X22663Y40957D01*
X23166Y40648D01*
X23712Y40423D01*
X24286Y40285D01*
X24874Y40238D01*
Y34753D01*
X21967Y34749D01*
X21814Y34712D01*
X21669Y34652D01*
X21534Y34570D01*
X21415Y34467D01*
X21312Y34348D01*
X21230Y34213D01*
X21170Y34068D01*
X21133Y33915D01*
X21124Y33758D01*
X21133Y28101D01*
X21170Y27948D01*
X21230Y27803D01*
X21312Y27668D01*
X21415Y27549D01*
X21534Y27446D01*
X21669Y27364D01*
X21814Y27304D01*
X21967Y27267D01*
X22124Y27258D01*
X24874Y27263D01*
Y23993D01*
X21765Y23986D01*
X21535Y23931D01*
X21317Y23841D01*
X21116Y23717D01*
X20936Y23564D01*
X20783Y23384D01*
X20659Y23183D01*
X20569Y22965D01*
X20514Y22735D01*
X20500Y22500D01*
X20514Y16265D01*
X20569Y16035D01*
X20659Y15817D01*
X20783Y15616D01*
X20936Y15436D01*
X21116Y15283D01*
X21317Y15159D01*
X21535Y15069D01*
X21765Y15014D01*
X22000Y15000D01*
X24874Y15006D01*
Y2500D01*
X2500D01*
G37*
G54D24*X196000Y17500D03*
G54D25*X220000D03*
X208000Y36500D03*
G54D23*G36*
X121500Y22500D02*Y16500D01*
X127500D01*
Y22500D01*
X121500D01*
G37*
G36*
X142500Y10500D02*Y4500D01*
X148500D01*
Y10500D01*
X142500D01*
G37*
G36*
X155124Y33758D02*Y28258D01*
X160624D01*
Y33758D01*
X155124D01*
G37*
G54D26*X167717Y31008D03*
X177559D03*
X157874Y44000D03*
X167717D03*
X177559D03*
G54D23*G36*
X22124Y33758D02*Y28258D01*
X27624D01*
Y33758D01*
X22124D01*
G37*
G54D26*X34717Y31008D03*
X44559D03*
X24874Y44000D03*
X34717D03*
X44559D03*
G54D23*G36*
X22000Y22500D02*Y16500D01*
X28000D01*
Y22500D01*
X22000D01*
G37*
G36*
X72500Y20500D02*Y14500D01*
X78500D01*
Y20500D01*
X72500D01*
G37*
G36*
Y10500D02*Y4500D01*
X78500D01*
Y10500D01*
X72500D01*
G37*
G54D27*X67500Y44000D03*
G54D28*G54D29*G54D30*G54D31*G54D32*G54D31*M02*
