G04 start of page 6 for group -4063 idx -4063 *
G04 Title: (unknown), componentmask *
G04 Creator: pcb 20110918 *
G04 CreationDate: Sat 30 Jan 2016 03:31:44 AM GMT UTC *
G04 For: railfan *
G04 Format: Gerber/RS-274X *
G04 PCB-Dimensions: 250000 50000 *
G04 PCB-Coordinate-Origin: lower left *
%MOIN*%
%FSLAX25Y25*%
%LNTOPMASK*%
%ADD43R,0.0572X0.0572*%
%ADD42C,0.0610*%
%ADD41C,0.0001*%
%ADD40C,0.1700*%
%ADD39C,0.1950*%
G54D39*X196000Y17500D03*
G54D40*X220000D03*
X208000Y36500D03*
G54D41*G36*
X121200Y22800D02*Y16200D01*
X127800D01*
Y22800D01*
X121200D01*
G37*
G36*
X142200Y10800D02*Y4200D01*
X148800D01*
Y10800D01*
X142200D01*
G37*
G36*
X154824Y34058D02*Y27958D01*
X160924D01*
Y34058D01*
X154824D01*
G37*
G54D42*X167717Y31008D03*
X177559D03*
X157874Y44000D03*
X167717D03*
X177559D03*
G54D41*G36*
X21824Y34058D02*Y27958D01*
X27924D01*
Y34058D01*
X21824D01*
G37*
G54D42*X34717Y31008D03*
X44559D03*
X24874Y44000D03*
X34717D03*
X44559D03*
G54D41*G36*
X21700Y22800D02*Y16200D01*
X28300D01*
Y22800D01*
X21700D01*
G37*
G36*
X72200Y20800D02*Y14200D01*
X78800D01*
Y20800D01*
X72200D01*
G37*
G36*
Y10800D02*Y4200D01*
X78800D01*
Y10800D01*
X72200D01*
G37*
G54D43*X95957Y42893D02*Y42107D01*
X103043Y42893D02*Y42107D01*
X95957Y32893D02*Y32107D01*
X103043Y32893D02*Y32107D01*
X60457Y37893D02*Y37107D01*
X67543Y37893D02*Y37107D01*
X117457Y42893D02*Y42107D01*
X124543Y42893D02*Y42107D01*
X117457Y32893D02*Y32107D01*
X124543Y32893D02*Y32107D01*
M02*
