G04 start of page 11 for group -4015 idx -4015 *
G04 Title: (unknown), toppaste *
G04 Creator: pcb 20140316 *
G04 CreationDate: Thu 02 Jul 2020 09:16:05 PM GMT UTC *
G04 For: railfan *
G04 Format: Gerber/RS-274X *
G04 PCB-Dimensions (mil): 2500.00 4300.00 *
G04 PCB-Coordinate-Origin: lower left *
%MOIN*%
%FSLAX25Y25*%
%LNTOPPASTE*%
%ADD82C,0.0001*%
%ADD81R,0.0945X0.0945*%
%ADD80R,0.0378X0.0378*%
%ADD79R,0.0100X0.0100*%
%ADD78R,0.0240X0.0240*%
%ADD77R,0.0384X0.0384*%
%ADD76R,0.0236X0.0236*%
%ADD75R,0.0512X0.0512*%
%ADD74R,0.0550X0.0550*%
G54D74*X196000Y404000D02*Y402000D01*
X183000Y404000D02*Y402000D01*
G54D75*X58607Y403957D02*X59393D01*
X58607Y411043D02*X59393D01*
X42457Y402393D02*Y401607D01*
X49543Y402393D02*Y401607D01*
X42457Y413393D02*Y412607D01*
X49543Y413393D02*Y412607D01*
G54D76*X219130Y401594D02*X222870D01*
X219130Y405531D02*X222870D01*
X219130Y409469D02*X222870D01*
X219130Y413406D02*X222870D01*
G54D77*X234632Y396919D02*X237880D01*
X234632Y418081D02*X237880D01*
G54D78*X134900Y411800D02*Y410200D01*
X131000Y411800D02*Y410200D01*
X127100Y411800D02*Y410200D01*
Y403600D02*Y402000D01*
X131000Y403600D02*Y402000D01*
X134900Y403600D02*Y402000D01*
G54D79*X67500Y407338D02*X70500D01*
X67500Y404779D02*X70500D01*
X67500Y402221D02*X70500D01*
X67500Y399662D02*X70500D01*
X90500D02*X93500D01*
X90500Y402221D02*X93500D01*
X90500Y404779D02*X93500D01*
X90500Y407338D02*X93500D01*
G54D80*X156016Y413406D02*X160110D01*
X156016Y407500D02*X167826D01*
G54D81*X169560D02*X171450D01*
G54D82*G36*
X161995Y409385D02*X164835Y412225D01*
X166255Y410805D01*
X163415Y407965D01*
X161995Y409385D01*
G37*
G36*
X163415Y407035D02*X166255Y404195D01*
X164835Y402775D01*
X161995Y405615D01*
X163415Y407035D01*
G37*
G54D80*X156016Y401594D02*X160110D01*
G54D75*X149043Y402393D02*Y401607D01*
X141957Y402393D02*Y401607D01*
X182457Y413893D02*Y413107D01*
X189543Y413893D02*Y413107D01*
X202457Y413893D02*Y413107D01*
X209543Y413893D02*Y413107D01*
G54D74*X196000Y369000D02*Y367000D01*
X183000Y369000D02*Y367000D01*
G54D75*X58607Y368957D02*X59393D01*
X58607Y376043D02*X59393D01*
X42457Y367393D02*Y366607D01*
X49543Y367393D02*Y366607D01*
X42457Y378393D02*Y377607D01*
X49543Y378393D02*Y377607D01*
G54D76*X219130Y366594D02*X222870D01*
X219130Y370531D02*X222870D01*
X219130Y374469D02*X222870D01*
X219130Y378406D02*X222870D01*
G54D77*X234632Y361919D02*X237880D01*
X234632Y383081D02*X237880D01*
G54D78*X134900Y376800D02*Y375200D01*
X131000Y376800D02*Y375200D01*
X127100Y376800D02*Y375200D01*
Y368600D02*Y367000D01*
X131000Y368600D02*Y367000D01*
X134900Y368600D02*Y367000D01*
G54D79*X67500Y372338D02*X70500D01*
X67500Y369779D02*X70500D01*
X67500Y367221D02*X70500D01*
X67500Y364662D02*X70500D01*
X90500D02*X93500D01*
X90500Y367221D02*X93500D01*
X90500Y369779D02*X93500D01*
X90500Y372338D02*X93500D01*
G54D80*X156016Y378406D02*X160110D01*
X156016Y372500D02*X167826D01*
G54D81*X169560D02*X171450D01*
G54D82*G36*
X161995Y374385D02*X164835Y377225D01*
X166255Y375805D01*
X163415Y372965D01*
X161995Y374385D01*
G37*
G36*
X163415Y372035D02*X166255Y369195D01*
X164835Y367775D01*
X161995Y370615D01*
X163415Y372035D01*
G37*
G54D80*X156016Y366594D02*X160110D01*
G54D75*X149043Y367393D02*Y366607D01*
X141957Y367393D02*Y366607D01*
X182457Y378893D02*Y378107D01*
X189543Y378893D02*Y378107D01*
X202457Y378893D02*Y378107D01*
X209543Y378893D02*Y378107D01*
G54D74*X196000Y334000D02*Y332000D01*
X183000Y334000D02*Y332000D01*
G54D75*X58607Y333957D02*X59393D01*
X58607Y341043D02*X59393D01*
X42457Y332393D02*Y331607D01*
X49543Y332393D02*Y331607D01*
X42457Y343393D02*Y342607D01*
X49543Y343393D02*Y342607D01*
G54D76*X219130Y331594D02*X222870D01*
X219130Y335531D02*X222870D01*
X219130Y339469D02*X222870D01*
X219130Y343406D02*X222870D01*
G54D77*X234632Y326919D02*X237880D01*
X234632Y348081D02*X237880D01*
G54D78*X134900Y341800D02*Y340200D01*
X131000Y341800D02*Y340200D01*
X127100Y341800D02*Y340200D01*
Y333600D02*Y332000D01*
X131000Y333600D02*Y332000D01*
X134900Y333600D02*Y332000D01*
G54D79*X67500Y337338D02*X70500D01*
X67500Y334779D02*X70500D01*
X67500Y332221D02*X70500D01*
X67500Y329662D02*X70500D01*
X90500D02*X93500D01*
X90500Y332221D02*X93500D01*
X90500Y334779D02*X93500D01*
X90500Y337338D02*X93500D01*
G54D80*X156016Y343406D02*X160110D01*
X156016Y337500D02*X167826D01*
G54D81*X169560D02*X171450D01*
G54D82*G36*
X161995Y339385D02*X164835Y342225D01*
X166255Y340805D01*
X163415Y337965D01*
X161995Y339385D01*
G37*
G36*
X163415Y337035D02*X166255Y334195D01*
X164835Y332775D01*
X161995Y335615D01*
X163415Y337035D01*
G37*
G54D80*X156016Y331594D02*X160110D01*
G54D75*X149043Y332393D02*Y331607D01*
X141957Y332393D02*Y331607D01*
X182457Y343893D02*Y343107D01*
X189543Y343893D02*Y343107D01*
X202457Y343893D02*Y343107D01*
X209543Y343893D02*Y343107D01*
G54D74*X196000Y299000D02*Y297000D01*
X183000Y299000D02*Y297000D01*
G54D75*X58607Y298957D02*X59393D01*
X58607Y306043D02*X59393D01*
X42457Y297393D02*Y296607D01*
X49543Y297393D02*Y296607D01*
X42457Y308393D02*Y307607D01*
X49543Y308393D02*Y307607D01*
G54D76*X219130Y296594D02*X222870D01*
X219130Y300531D02*X222870D01*
X219130Y304469D02*X222870D01*
X219130Y308406D02*X222870D01*
G54D77*X234632Y291919D02*X237880D01*
X234632Y313081D02*X237880D01*
G54D78*X134900Y306800D02*Y305200D01*
X131000Y306800D02*Y305200D01*
X127100Y306800D02*Y305200D01*
Y298600D02*Y297000D01*
X131000Y298600D02*Y297000D01*
X134900Y298600D02*Y297000D01*
G54D79*X67500Y302338D02*X70500D01*
X67500Y299779D02*X70500D01*
X67500Y297221D02*X70500D01*
X67500Y294662D02*X70500D01*
X90500D02*X93500D01*
X90500Y297221D02*X93500D01*
X90500Y299779D02*X93500D01*
X90500Y302338D02*X93500D01*
G54D80*X156016Y308406D02*X160110D01*
X156016Y302500D02*X167826D01*
G54D81*X169560D02*X171450D01*
G54D82*G36*
X161995Y304385D02*X164835Y307225D01*
X166255Y305805D01*
X163415Y302965D01*
X161995Y304385D01*
G37*
G36*
X163415Y302035D02*X166255Y299195D01*
X164835Y297775D01*
X161995Y300615D01*
X163415Y302035D01*
G37*
G54D80*X156016Y296594D02*X160110D01*
G54D75*X149043Y297393D02*Y296607D01*
X141957Y297393D02*Y296607D01*
X182457Y308893D02*Y308107D01*
X189543Y308893D02*Y308107D01*
X202457Y308893D02*Y308107D01*
X209543Y308893D02*Y308107D01*
G54D74*X196000Y264000D02*Y262000D01*
X183000Y264000D02*Y262000D01*
G54D75*X58607Y263957D02*X59393D01*
X58607Y271043D02*X59393D01*
X42457Y262393D02*Y261607D01*
X49543Y262393D02*Y261607D01*
X42457Y273393D02*Y272607D01*
X49543Y273393D02*Y272607D01*
G54D76*X219130Y261594D02*X222870D01*
X219130Y265531D02*X222870D01*
X219130Y269469D02*X222870D01*
X219130Y273406D02*X222870D01*
G54D77*X234632Y256919D02*X237880D01*
X234632Y278081D02*X237880D01*
G54D78*X134900Y271800D02*Y270200D01*
X131000Y271800D02*Y270200D01*
X127100Y271800D02*Y270200D01*
Y263600D02*Y262000D01*
X131000Y263600D02*Y262000D01*
X134900Y263600D02*Y262000D01*
G54D79*X67500Y267338D02*X70500D01*
X67500Y264779D02*X70500D01*
X67500Y262221D02*X70500D01*
X67500Y259662D02*X70500D01*
X90500D02*X93500D01*
X90500Y262221D02*X93500D01*
X90500Y264779D02*X93500D01*
X90500Y267338D02*X93500D01*
G54D80*X156016Y273406D02*X160110D01*
X156016Y267500D02*X167826D01*
G54D81*X169560D02*X171450D01*
G54D82*G36*
X161995Y269385D02*X164835Y272225D01*
X166255Y270805D01*
X163415Y267965D01*
X161995Y269385D01*
G37*
G36*
X163415Y267035D02*X166255Y264195D01*
X164835Y262775D01*
X161995Y265615D01*
X163415Y267035D01*
G37*
G54D80*X156016Y261594D02*X160110D01*
G54D75*X149043Y262393D02*Y261607D01*
X141957Y262393D02*Y261607D01*
X182457Y273893D02*Y273107D01*
X189543Y273893D02*Y273107D01*
X202457Y273893D02*Y273107D01*
X209543Y273893D02*Y273107D01*
G54D74*X196000Y229000D02*Y227000D01*
X183000Y229000D02*Y227000D01*
G54D75*X58607Y228957D02*X59393D01*
X58607Y236043D02*X59393D01*
X42457Y227393D02*Y226607D01*
X49543Y227393D02*Y226607D01*
X42457Y238393D02*Y237607D01*
X49543Y238393D02*Y237607D01*
G54D76*X219130Y226594D02*X222870D01*
X219130Y230531D02*X222870D01*
X219130Y234469D02*X222870D01*
X219130Y238406D02*X222870D01*
G54D77*X234632Y221919D02*X237880D01*
X234632Y243081D02*X237880D01*
G54D78*X134900Y236800D02*Y235200D01*
X131000Y236800D02*Y235200D01*
X127100Y236800D02*Y235200D01*
Y228600D02*Y227000D01*
X131000Y228600D02*Y227000D01*
X134900Y228600D02*Y227000D01*
G54D79*X67500Y232338D02*X70500D01*
X67500Y229779D02*X70500D01*
X67500Y227221D02*X70500D01*
X67500Y224662D02*X70500D01*
X90500D02*X93500D01*
X90500Y227221D02*X93500D01*
X90500Y229779D02*X93500D01*
X90500Y232338D02*X93500D01*
G54D80*X156016Y238406D02*X160110D01*
X156016Y232500D02*X167826D01*
G54D81*X169560D02*X171450D01*
G54D82*G36*
X161995Y234385D02*X164835Y237225D01*
X166255Y235805D01*
X163415Y232965D01*
X161995Y234385D01*
G37*
G36*
X163415Y232035D02*X166255Y229195D01*
X164835Y227775D01*
X161995Y230615D01*
X163415Y232035D01*
G37*
G54D80*X156016Y226594D02*X160110D01*
G54D75*X149043Y227393D02*Y226607D01*
X141957Y227393D02*Y226607D01*
X182457Y238893D02*Y238107D01*
X189543Y238893D02*Y238107D01*
X202457Y238893D02*Y238107D01*
X209543Y238893D02*Y238107D01*
G54D74*X196000Y194000D02*Y192000D01*
X183000Y194000D02*Y192000D01*
G54D75*X58607Y193957D02*X59393D01*
X58607Y201043D02*X59393D01*
X42457Y192393D02*Y191607D01*
X49543Y192393D02*Y191607D01*
X42457Y203393D02*Y202607D01*
X49543Y203393D02*Y202607D01*
G54D76*X219130Y191594D02*X222870D01*
X219130Y195531D02*X222870D01*
X219130Y199469D02*X222870D01*
X219130Y203406D02*X222870D01*
G54D77*X234632Y186919D02*X237880D01*
X234632Y208081D02*X237880D01*
G54D78*X134900Y201800D02*Y200200D01*
X131000Y201800D02*Y200200D01*
X127100Y201800D02*Y200200D01*
Y193600D02*Y192000D01*
X131000Y193600D02*Y192000D01*
X134900Y193600D02*Y192000D01*
G54D79*X67500Y197338D02*X70500D01*
X67500Y194779D02*X70500D01*
X67500Y192221D02*X70500D01*
X67500Y189662D02*X70500D01*
X90500D02*X93500D01*
X90500Y192221D02*X93500D01*
X90500Y194779D02*X93500D01*
X90500Y197338D02*X93500D01*
G54D80*X156016Y203406D02*X160110D01*
X156016Y197500D02*X167826D01*
G54D81*X169560D02*X171450D01*
G54D82*G36*
X161995Y199385D02*X164835Y202225D01*
X166255Y200805D01*
X163415Y197965D01*
X161995Y199385D01*
G37*
G36*
X163415Y197035D02*X166255Y194195D01*
X164835Y192775D01*
X161995Y195615D01*
X163415Y197035D01*
G37*
G54D80*X156016Y191594D02*X160110D01*
G54D75*X149043Y192393D02*Y191607D01*
X141957Y192393D02*Y191607D01*
X182457Y203893D02*Y203107D01*
X189543Y203893D02*Y203107D01*
X202457Y203893D02*Y203107D01*
X209543Y203893D02*Y203107D01*
G54D74*X196000Y159000D02*Y157000D01*
X183000Y159000D02*Y157000D01*
G54D75*X58607Y158957D02*X59393D01*
X58607Y166043D02*X59393D01*
X42457Y157393D02*Y156607D01*
X49543Y157393D02*Y156607D01*
X42457Y168393D02*Y167607D01*
X49543Y168393D02*Y167607D01*
G54D76*X219130Y156594D02*X222870D01*
X219130Y160531D02*X222870D01*
X219130Y164469D02*X222870D01*
X219130Y168406D02*X222870D01*
G54D77*X234632Y151919D02*X237880D01*
X234632Y173081D02*X237880D01*
G54D78*X134900Y166800D02*Y165200D01*
X131000Y166800D02*Y165200D01*
X127100Y166800D02*Y165200D01*
Y158600D02*Y157000D01*
X131000Y158600D02*Y157000D01*
X134900Y158600D02*Y157000D01*
G54D79*X67500Y162338D02*X70500D01*
X67500Y159779D02*X70500D01*
X67500Y157221D02*X70500D01*
X67500Y154662D02*X70500D01*
X90500D02*X93500D01*
X90500Y157221D02*X93500D01*
X90500Y159779D02*X93500D01*
X90500Y162338D02*X93500D01*
G54D80*X156016Y168406D02*X160110D01*
X156016Y162500D02*X167826D01*
G54D81*X169560D02*X171450D01*
G54D82*G36*
X161995Y164385D02*X164835Y167225D01*
X166255Y165805D01*
X163415Y162965D01*
X161995Y164385D01*
G37*
G36*
X163415Y162035D02*X166255Y159195D01*
X164835Y157775D01*
X161995Y160615D01*
X163415Y162035D01*
G37*
G54D80*X156016Y156594D02*X160110D01*
G54D75*X149043Y157393D02*Y156607D01*
X141957Y157393D02*Y156607D01*
X182457Y168893D02*Y168107D01*
X189543Y168893D02*Y168107D01*
X202457Y168893D02*Y168107D01*
X209543Y168893D02*Y168107D01*
G54D74*X196000Y124000D02*Y122000D01*
X183000Y124000D02*Y122000D01*
G54D75*X58607Y123957D02*X59393D01*
X58607Y131043D02*X59393D01*
X42457Y122393D02*Y121607D01*
X49543Y122393D02*Y121607D01*
X42457Y133393D02*Y132607D01*
X49543Y133393D02*Y132607D01*
G54D76*X219130Y121594D02*X222870D01*
X219130Y125531D02*X222870D01*
X219130Y129469D02*X222870D01*
X219130Y133406D02*X222870D01*
G54D77*X234632Y116919D02*X237880D01*
X234632Y138081D02*X237880D01*
G54D78*X134900Y131800D02*Y130200D01*
X131000Y131800D02*Y130200D01*
X127100Y131800D02*Y130200D01*
Y123600D02*Y122000D01*
X131000Y123600D02*Y122000D01*
X134900Y123600D02*Y122000D01*
G54D79*X67500Y127338D02*X70500D01*
X67500Y124779D02*X70500D01*
X67500Y122221D02*X70500D01*
X67500Y119662D02*X70500D01*
X90500D02*X93500D01*
X90500Y122221D02*X93500D01*
X90500Y124779D02*X93500D01*
X90500Y127338D02*X93500D01*
G54D80*X156016Y133406D02*X160110D01*
X156016Y127500D02*X167826D01*
G54D81*X169560D02*X171450D01*
G54D82*G36*
X161995Y129385D02*X164835Y132225D01*
X166255Y130805D01*
X163415Y127965D01*
X161995Y129385D01*
G37*
G36*
X163415Y127035D02*X166255Y124195D01*
X164835Y122775D01*
X161995Y125615D01*
X163415Y127035D01*
G37*
G54D80*X156016Y121594D02*X160110D01*
G54D75*X149043Y122393D02*Y121607D01*
X141957Y122393D02*Y121607D01*
X182457Y133893D02*Y133107D01*
X189543Y133893D02*Y133107D01*
X202457Y133893D02*Y133107D01*
X209543Y133893D02*Y133107D01*
G54D74*X196000Y89000D02*Y87000D01*
X183000Y89000D02*Y87000D01*
G54D75*X58607Y88957D02*X59393D01*
X58607Y96043D02*X59393D01*
X42457Y87393D02*Y86607D01*
X49543Y87393D02*Y86607D01*
X42457Y98393D02*Y97607D01*
X49543Y98393D02*Y97607D01*
G54D76*X219130Y86594D02*X222870D01*
X219130Y90531D02*X222870D01*
X219130Y94469D02*X222870D01*
X219130Y98406D02*X222870D01*
G54D77*X234632Y81919D02*X237880D01*
X234632Y103081D02*X237880D01*
G54D78*X134900Y96800D02*Y95200D01*
X131000Y96800D02*Y95200D01*
X127100Y96800D02*Y95200D01*
Y88600D02*Y87000D01*
X131000Y88600D02*Y87000D01*
X134900Y88600D02*Y87000D01*
G54D79*X67500Y92338D02*X70500D01*
X67500Y89779D02*X70500D01*
X67500Y87221D02*X70500D01*
X67500Y84662D02*X70500D01*
X90500D02*X93500D01*
X90500Y87221D02*X93500D01*
X90500Y89779D02*X93500D01*
X90500Y92338D02*X93500D01*
G54D80*X156016Y98406D02*X160110D01*
X156016Y92500D02*X167826D01*
G54D81*X169560D02*X171450D01*
G54D82*G36*
X161995Y94385D02*X164835Y97225D01*
X166255Y95805D01*
X163415Y92965D01*
X161995Y94385D01*
G37*
G36*
X163415Y92035D02*X166255Y89195D01*
X164835Y87775D01*
X161995Y90615D01*
X163415Y92035D01*
G37*
G54D80*X156016Y86594D02*X160110D01*
G54D75*X149043Y87393D02*Y86607D01*
X141957Y87393D02*Y86607D01*
X182457Y98893D02*Y98107D01*
X189543Y98893D02*Y98107D01*
X202457Y98893D02*Y98107D01*
X209543Y98893D02*Y98107D01*
G54D74*X196000Y54000D02*Y52000D01*
X183000Y54000D02*Y52000D01*
G54D75*X58607Y53957D02*X59393D01*
X58607Y61043D02*X59393D01*
X42457Y52393D02*Y51607D01*
X49543Y52393D02*Y51607D01*
X42457Y63393D02*Y62607D01*
X49543Y63393D02*Y62607D01*
G54D76*X219130Y51594D02*X222870D01*
X219130Y55531D02*X222870D01*
X219130Y59469D02*X222870D01*
X219130Y63406D02*X222870D01*
G54D77*X234632Y46919D02*X237880D01*
X234632Y68081D02*X237880D01*
G54D78*X134900Y61800D02*Y60200D01*
X131000Y61800D02*Y60200D01*
X127100Y61800D02*Y60200D01*
Y53600D02*Y52000D01*
X131000Y53600D02*Y52000D01*
X134900Y53600D02*Y52000D01*
G54D79*X67500Y57338D02*X70500D01*
X67500Y54779D02*X70500D01*
X67500Y52221D02*X70500D01*
X67500Y49662D02*X70500D01*
X90500D02*X93500D01*
X90500Y52221D02*X93500D01*
X90500Y54779D02*X93500D01*
X90500Y57338D02*X93500D01*
G54D80*X156016Y63406D02*X160110D01*
X156016Y57500D02*X167826D01*
G54D81*X169560D02*X171450D01*
G54D82*G36*
X161995Y59385D02*X164835Y62225D01*
X166255Y60805D01*
X163415Y57965D01*
X161995Y59385D01*
G37*
G36*
X163415Y57035D02*X166255Y54195D01*
X164835Y52775D01*
X161995Y55615D01*
X163415Y57035D01*
G37*
G54D80*X156016Y51594D02*X160110D01*
G54D75*X149043Y52393D02*Y51607D01*
X141957Y52393D02*Y51607D01*
X182457Y63893D02*Y63107D01*
X189543Y63893D02*Y63107D01*
X202457Y63893D02*Y63107D01*
X209543Y63893D02*Y63107D01*
G54D74*X196000Y19000D02*Y17000D01*
X183000Y19000D02*Y17000D01*
G54D75*X58607Y18957D02*X59393D01*
X58607Y26043D02*X59393D01*
X42457Y17393D02*Y16607D01*
X49543Y17393D02*Y16607D01*
X42457Y28393D02*Y27607D01*
X49543Y28393D02*Y27607D01*
G54D76*X219130Y16594D02*X222870D01*
X219130Y20531D02*X222870D01*
X219130Y24469D02*X222870D01*
X219130Y28406D02*X222870D01*
G54D77*X234632Y11919D02*X237880D01*
X234632Y33081D02*X237880D01*
G54D78*X134900Y26800D02*Y25200D01*
X131000Y26800D02*Y25200D01*
X127100Y26800D02*Y25200D01*
Y18600D02*Y17000D01*
X131000Y18600D02*Y17000D01*
X134900Y18600D02*Y17000D01*
G54D79*X67500Y22338D02*X70500D01*
X67500Y19779D02*X70500D01*
X67500Y17221D02*X70500D01*
X67500Y14662D02*X70500D01*
X90500D02*X93500D01*
X90500Y17221D02*X93500D01*
X90500Y19779D02*X93500D01*
X90500Y22338D02*X93500D01*
G54D80*X156016Y28406D02*X160110D01*
X156016Y22500D02*X167826D01*
G54D81*X169560D02*X171450D01*
G54D82*G36*
X161995Y24385D02*X164835Y27225D01*
X166255Y25805D01*
X163415Y22965D01*
X161995Y24385D01*
G37*
G36*
X163415Y22035D02*X166255Y19195D01*
X164835Y17775D01*
X161995Y20615D01*
X163415Y22035D01*
G37*
G54D80*X156016Y16594D02*X160110D01*
G54D75*X149043Y17393D02*Y16607D01*
X141957Y17393D02*Y16607D01*
X182457Y28893D02*Y28107D01*
X189543Y28893D02*Y28107D01*
X202457Y28893D02*Y28107D01*
X209543Y28893D02*Y28107D01*
M02*
