M48
INCH
T53C0.031
T52C0.039
%
T53
X007500Y039400
X007500Y038600
X007500Y035900
X007500Y035100
X007500Y032400
X007500Y031600
X007500Y028900
X007500Y028100
X007500Y025400
X007500Y024600
X007500Y021900
X007500Y021100
X007500Y018400
X007500Y017600
X007500Y014900
X007500Y014100
X007500Y011400
X007500Y010600
X007500Y007900
X007500Y007100
X007500Y004400
X007500Y003600
X008000Y039400
X008000Y038600
X008000Y035900
X008000Y035100
X008000Y032400
X008000Y031600
X008000Y028900
X008000Y028100
X008000Y025400
X008000Y024600
X008000Y021900
X008000Y021100
X008000Y018400
X008000Y017600
X008000Y014900
X008000Y014100
X008000Y011400
X008000Y010600
X008000Y007900
X008000Y007100
X008000Y004400
X008000Y003600
X008500Y039400
X008500Y038600
X008500Y035900
X008500Y035100
X008500Y032400
X008500Y031600
X008500Y028900
X008500Y028100
X008500Y025400
X008500Y024600
X008500Y021900
X008500Y021100
X008500Y018400
X008500Y017600
X008500Y014900
X008500Y014100
X008500Y011400
X008500Y010600
X008500Y007900
X008500Y007100
X008500Y004400
X008500Y003600
X018500Y039400
X018500Y038600
X018500Y035900
X018500Y035100
X018500Y032400
X018500Y031600
X018500Y028900
X018500Y028100
X018500Y025400
X018500Y024600
X018500Y021900
X018500Y021100
X018500Y018400
X018500Y017600
X018500Y014900
X018500Y014100
X018500Y011400
X018500Y010600
X018500Y007900
X018500Y007100
X018500Y004400
X018500Y003600
X019000Y039400
X019000Y038600
X019000Y035900
X019000Y035100
X019000Y032400
X019000Y031600
X019000Y028900
X019000Y028100
X019000Y025400
X019000Y024600
X019000Y021900
X019000Y021100
X019000Y018400
X019000Y017600
X019000Y014900
X019000Y014100
X019000Y011400
X019000Y010600
X019000Y007900
X019000Y007100
X019000Y004400
X019000Y003600
X019500Y039400
X019500Y038600
X019500Y035900
X019500Y035100
X019500Y032400
X019500Y031600
X019500Y028900
X019500Y028100
X019500Y025400
X019500Y024600
X019500Y021900
X019500Y021100
X019500Y018400
X019500Y017600
X019500Y014900
X019500Y014100
X019500Y011400
X019500Y010600
X019500Y007900
X019500Y007100
X019500Y004400
X019500Y003600
T52
X010150Y041150
X010150Y040350
X010150Y037650
X010150Y036850
X010150Y034150
X010150Y033350
X010150Y030650
X010150Y029850
X010150Y027150
X010150Y026350
X010150Y023650
X010150Y022850
X010150Y020150
X010150Y019350
X010150Y016650
X010150Y015850
X010150Y013150
X010150Y012350
X010150Y009650
X010150Y008850
X010150Y006150
X010150Y005350
X010150Y002650
X010150Y001850
X012150Y040750
X012150Y037250
X012150Y033750
X012150Y030250
X012150Y026750
X012150Y023250
X012150Y019750
X012150Y016250
X012150Y012750
X012150Y009250
X012150Y005750
X012150Y002250
M30
