G04 start of page 7 for group -4063 idx -4063 *
G04 Title: (unknown), componentmask *
G04 Creator: pcb 20140316 *
G04 CreationDate: Thu 02 Jul 2020 09:16:05 PM GMT UTC *
G04 For: railfan *
G04 Format: Gerber/RS-274X *
G04 PCB-Dimensions (mil): 2500.00 4300.00 *
G04 PCB-Coordinate-Origin: lower left *
%MOIN*%
%FSLAX25Y25*%
%LNTOPMASK*%
%ADD64R,0.0610X0.0610*%
%ADD63R,0.0300X0.0300*%
%ADD62R,0.0444X0.0444*%
%ADD61R,0.0296X0.0296*%
%ADD60C,0.0001*%
%ADD59R,0.1005X0.1005*%
%ADD58R,0.0438X0.0438*%
%ADD57R,0.0344X0.0344*%
%ADD56R,0.0230X0.0230*%
%ADD55R,0.0572X0.0572*%
%ADD54C,0.0490*%
G54D54*X121500Y302500D03*
Y267500D03*
Y232500D03*
Y197500D03*
X101500Y306500D03*
Y298500D03*
Y271500D03*
Y263500D03*
Y236500D03*
Y228500D03*
Y201500D03*
Y193500D03*
X121500Y372500D03*
X101500Y376500D03*
Y368500D03*
X121500Y337500D03*
X101500Y341500D03*
X121500Y407500D03*
X101500Y411500D03*
Y403500D03*
Y333500D03*
X121500Y162500D03*
Y127500D03*
Y92500D03*
Y57500D03*
X101500Y166500D03*
Y158500D03*
Y131500D03*
Y123500D03*
Y96500D03*
Y88500D03*
Y61500D03*
Y53500D03*
X121500Y22500D03*
X101500Y26500D03*
Y18500D03*
G54D55*X58607Y333957D02*X59393D01*
X58607Y341043D02*X59393D01*
X49543Y332393D02*Y331607D01*
Y343393D02*Y342607D01*
G54D56*X66583Y337338D02*X71189D01*
X67500D02*X70500D01*
X66583Y334779D02*X71189D01*
X67500D02*X70500D01*
X66583Y332221D02*X71189D01*
X67500D02*X70500D01*
X66583Y329662D02*X71189D01*
X67500D02*X70500D01*
G54D57*X31419Y330000D02*X33337D01*
G54D55*X42457Y332393D02*Y331607D01*
G54D57*X31419Y335000D02*X33337D01*
X31419Y340000D02*X33337D01*
X31419Y345000D02*X33337D01*
G54D55*X42457Y343393D02*Y342607D01*
X58607Y298957D02*X59393D01*
X58607Y306043D02*X59393D01*
X49543Y297393D02*Y296607D01*
Y308393D02*Y307607D01*
G54D56*X66583Y302338D02*X71189D01*
X67500D02*X70500D01*
X66583Y299779D02*X71189D01*
X67500D02*X70500D01*
X66583Y297221D02*X71189D01*
X67500D02*X70500D01*
X66583Y294662D02*X71189D01*
X67500D02*X70500D01*
G54D57*X31419Y295000D02*X33337D01*
X31419Y300000D02*X33337D01*
X31419Y305000D02*X33337D01*
X31419Y310000D02*X33337D01*
G54D55*X42457Y297393D02*Y296607D01*
Y308393D02*Y307607D01*
G54D58*X156016Y378406D02*X160110D01*
X156016Y372500D02*X167826D01*
X156016Y366594D02*X160110D01*
G54D55*X149043Y367393D02*Y366607D01*
X141957Y367393D02*Y366607D01*
G54D59*X169560Y372500D02*X171450D01*
G54D60*G36*
X161571Y374385D02*X164835Y377649D01*
X166679Y375805D01*
X163415Y372541D01*
X161571Y374385D01*
G37*
G36*
X163415Y372459D02*X166679Y369195D01*
X164835Y367351D01*
X161571Y370615D01*
X163415Y372459D01*
G37*
G54D61*X219130Y331594D02*X222870D01*
X219130Y335531D02*X222870D01*
X219130Y339469D02*X222870D01*
X219130Y343406D02*X222870D01*
G54D55*X202457Y343893D02*Y343107D01*
X209543Y343893D02*Y343107D01*
G54D62*X234632Y326919D02*X237880D01*
X234632Y313081D02*X237880D01*
G54D61*X219130Y296594D02*X222870D01*
X219130Y300531D02*X222870D01*
X219130Y304469D02*X222870D01*
X219130Y308406D02*X222870D01*
G54D62*X234632Y291919D02*X237880D01*
G54D58*X156016Y343406D02*X160110D01*
X156016Y337500D02*X167826D01*
G54D59*X169560D02*X171450D01*
G54D60*G36*
X161571Y339385D02*X164835Y342649D01*
X166679Y340805D01*
X163415Y337541D01*
X161571Y339385D01*
G37*
G36*
X163415Y337459D02*X166679Y334195D01*
X164835Y332351D01*
X161571Y335615D01*
X163415Y337459D01*
G37*
G54D58*X156016Y331594D02*X160110D01*
G54D55*X149043Y332393D02*Y331607D01*
X141957Y332393D02*Y331607D01*
G54D58*X156016Y308406D02*X160110D01*
X156016Y302500D02*X167826D01*
G54D59*X169560D02*X171450D01*
G54D60*G36*
X161571Y304385D02*X164835Y307649D01*
X166679Y305805D01*
X163415Y302541D01*
X161571Y304385D01*
G37*
G36*
X163415Y302459D02*X166679Y299195D01*
X164835Y297351D01*
X161571Y300615D01*
X163415Y302459D01*
G37*
G54D58*X156016Y296594D02*X160110D01*
G54D56*X89811Y364662D02*X94417D01*
X90500D02*X93500D01*
X89811Y367221D02*X94417D01*
X90500D02*X93500D01*
X89811Y329662D02*X94417D01*
X89811Y332221D02*X94417D01*
X90500Y329662D02*X93500D01*
X90500Y332221D02*X93500D01*
X89811Y334779D02*X94417D01*
X89811Y337338D02*X94417D01*
X90500Y334779D02*X93500D01*
X90500Y337338D02*X93500D01*
G54D63*X134900Y341800D02*Y340200D01*
X131000Y341800D02*Y340200D01*
X127100Y341800D02*Y340200D01*
Y333600D02*Y332000D01*
X131000Y333600D02*Y332000D01*
Y306800D02*Y305200D01*
X127100Y306800D02*Y305200D01*
Y298600D02*Y297000D01*
X131000Y298600D02*Y297000D01*
G54D57*X31419Y400000D02*X33337D01*
X31419Y405000D02*X33337D01*
X31419Y410000D02*X33337D01*
X31419Y415000D02*X33337D01*
G54D55*X42457Y413393D02*Y412607D01*
X49543Y413393D02*Y412607D01*
X42457Y402393D02*Y401607D01*
X49543Y402393D02*Y401607D01*
X58607Y403957D02*X59393D01*
X58607Y411043D02*X59393D01*
G54D56*X66583Y407338D02*X71189D01*
X66583Y404779D02*X71189D01*
X67500Y407338D02*X70500D01*
X67500Y404779D02*X70500D01*
X66583Y402221D02*X71189D01*
X66583Y399662D02*X71189D01*
X67500Y402221D02*X70500D01*
X67500Y399662D02*X70500D01*
G54D57*X31419Y365000D02*X33337D01*
X31419Y370000D02*X33337D01*
G54D55*X42457Y367393D02*Y366607D01*
Y378393D02*Y377607D01*
G54D57*X31419Y375000D02*X33337D01*
X31419Y380000D02*X33337D01*
G54D55*X58607Y368957D02*X59393D01*
X58607Y376043D02*X59393D01*
X49543Y367393D02*Y366607D01*
Y378393D02*Y377607D01*
G54D56*X66583Y372338D02*X71189D01*
X66583Y369779D02*X71189D01*
X67500Y372338D02*X70500D01*
X67500Y369779D02*X70500D01*
X66583Y367221D02*X71189D01*
X66583Y364662D02*X71189D01*
X67500Y367221D02*X70500D01*
X67500Y364662D02*X70500D01*
G54D64*X196000Y404000D02*Y402000D01*
X183000Y404000D02*Y402000D01*
G54D55*X182457Y413893D02*Y413107D01*
X189543Y413893D02*Y413107D01*
G54D64*X196000Y369000D02*Y367000D01*
X183000Y369000D02*Y367000D01*
G54D55*X189543Y378893D02*Y378107D01*
X182457Y378893D02*Y378107D01*
G54D64*X196000Y334000D02*Y332000D01*
Y299000D02*Y297000D01*
G54D55*X202457Y308893D02*Y308107D01*
X209543Y308893D02*Y308107D01*
G54D64*X183000Y334000D02*Y332000D01*
G54D55*X182457Y343893D02*Y343107D01*
X189543Y343893D02*Y343107D01*
G54D64*X183000Y299000D02*Y297000D01*
G54D55*X182457Y308893D02*Y308107D01*
X189543Y308893D02*Y308107D01*
G54D58*X156016Y413406D02*X160110D01*
X156016Y407500D02*X167826D01*
G54D59*X169560D02*X171450D01*
G54D60*G36*
X161571Y409385D02*X164835Y412649D01*
X166679Y410805D01*
X163415Y407541D01*
X161571Y409385D01*
G37*
G36*
X163415Y407459D02*X166679Y404195D01*
X164835Y402351D01*
X161571Y405615D01*
X163415Y407459D01*
G37*
G54D58*X156016Y401594D02*X160110D01*
G54D55*X149043Y402393D02*Y401607D01*
X141957Y402393D02*Y401607D01*
X149043Y297393D02*Y296607D01*
X141957Y297393D02*Y296607D01*
G54D61*X219130Y401594D02*X222870D01*
X219130Y405531D02*X222870D01*
X219130Y409469D02*X222870D01*
X219130Y413406D02*X222870D01*
G54D62*X234632Y396919D02*X237880D01*
X234632Y418081D02*X237880D01*
G54D55*X202457Y413893D02*Y413107D01*
X209543Y413893D02*Y413107D01*
G54D61*X219130Y366594D02*X222870D01*
X219130Y370531D02*X222870D01*
G54D62*X234632Y361919D02*X237880D01*
G54D61*X219130Y374469D02*X222870D01*
G54D55*X202457Y378893D02*Y378107D01*
X209543Y378893D02*Y378107D01*
G54D61*X219130Y378406D02*X222870D01*
G54D62*X234632Y383081D02*X237880D01*
X234632Y348081D02*X237880D01*
G54D63*X134900Y411800D02*Y410200D01*
X131000Y411800D02*Y410200D01*
X127100Y411800D02*Y410200D01*
Y403600D02*Y402000D01*
X131000Y403600D02*Y402000D01*
X134900Y403600D02*Y402000D01*
G54D56*X89811Y399662D02*X94417D01*
X89811Y402221D02*X94417D01*
X90500Y399662D02*X93500D01*
X90500Y402221D02*X93500D01*
X89811Y404779D02*X94417D01*
X89811Y407338D02*X94417D01*
X90500Y404779D02*X93500D01*
X90500Y407338D02*X93500D01*
X89811Y369779D02*X94417D01*
X90500D02*X93500D01*
X89811Y372338D02*X94417D01*
X90500D02*X93500D01*
G54D63*X127100Y368600D02*Y367000D01*
X131000Y368600D02*Y367000D01*
X134900Y368600D02*Y367000D01*
Y376800D02*Y375200D01*
X131000Y376800D02*Y375200D01*
X127100Y376800D02*Y375200D01*
G54D55*X58607Y263957D02*X59393D01*
X58607Y271043D02*X59393D01*
X49543Y262393D02*Y261607D01*
Y273393D02*Y272607D01*
G54D56*X66583Y267338D02*X71189D01*
X67500D02*X70500D01*
X66583Y264779D02*X71189D01*
X67500D02*X70500D01*
X66583Y262221D02*X71189D01*
X67500D02*X70500D01*
X66583Y259662D02*X71189D01*
X67500D02*X70500D01*
G54D57*X31419Y260000D02*X33337D01*
X31419Y265000D02*X33337D01*
X31419Y270000D02*X33337D01*
X31419Y275000D02*X33337D01*
G54D55*X42457Y262393D02*Y261607D01*
Y273393D02*Y272607D01*
G54D57*X31419Y235000D02*X33337D01*
X31419Y240000D02*X33337D01*
G54D55*X42457Y238393D02*Y237607D01*
X58607Y228957D02*X59393D01*
X58607Y236043D02*X59393D01*
X49543Y227393D02*Y226607D01*
Y238393D02*Y237607D01*
G54D56*X66583Y232338D02*X71189D01*
X67500D02*X70500D01*
X66583Y229779D02*X71189D01*
X67500D02*X70500D01*
X66583Y227221D02*X71189D01*
X67500D02*X70500D01*
X66583Y224662D02*X71189D01*
X67500D02*X70500D01*
G54D64*X196000Y264000D02*Y262000D01*
G54D55*X202457Y273893D02*Y273107D01*
X209543Y273893D02*Y273107D01*
G54D64*X183000Y264000D02*Y262000D01*
G54D55*X182457Y273893D02*Y273107D01*
X189543Y273893D02*Y273107D01*
X182457Y238893D02*Y238107D01*
X189543Y238893D02*Y238107D01*
G54D61*X219130Y261594D02*X222870D01*
X219130Y265531D02*X222870D01*
X219130Y269469D02*X222870D01*
X219130Y273406D02*X222870D01*
G54D62*X234632Y256919D02*X237880D01*
X234632Y278081D02*X237880D01*
G54D58*X156016Y273406D02*X160110D01*
X156016Y267500D02*X167826D01*
G54D59*X169560D02*X171450D01*
G54D60*G36*
X161571Y269385D02*X164835Y272649D01*
X166679Y270805D01*
X163415Y267541D01*
X161571Y269385D01*
G37*
G36*
X163415Y267459D02*X166679Y264195D01*
X164835Y262351D01*
X161571Y265615D01*
X163415Y267459D01*
G37*
G54D58*X156016Y261594D02*X160110D01*
G54D55*X149043Y262393D02*Y261607D01*
X141957Y262393D02*Y261607D01*
G54D64*X196000Y229000D02*Y227000D01*
G54D61*X219130Y226594D02*X222870D01*
X219130Y230531D02*X222870D01*
X219130Y234469D02*X222870D01*
X219130Y238406D02*X222870D01*
G54D55*X202457Y238893D02*Y238107D01*
X209543Y238893D02*Y238107D01*
G54D62*X234632Y221919D02*X237880D01*
X234632Y243081D02*X237880D01*
X234632Y208081D02*X237880D01*
G54D64*X183000Y229000D02*Y227000D01*
G54D55*X182457Y203893D02*Y203107D01*
X189543Y203893D02*Y203107D01*
G54D56*X89811Y294662D02*X94417D01*
X90500D02*X93500D01*
X89811Y297221D02*X94417D01*
X89811Y299779D02*X94417D01*
X89811Y302338D02*X94417D01*
X90500Y297221D02*X93500D01*
X90500Y299779D02*X93500D01*
X90500Y302338D02*X93500D01*
X89811Y259662D02*X94417D01*
X89811Y262221D02*X94417D01*
X90500Y259662D02*X93500D01*
X90500Y262221D02*X93500D01*
X89811Y264779D02*X94417D01*
X89811Y267338D02*X94417D01*
X90500Y264779D02*X93500D01*
X90500Y267338D02*X93500D01*
G54D63*X134900Y333600D02*Y332000D01*
Y306800D02*Y305200D01*
Y298600D02*Y297000D01*
Y271800D02*Y270200D01*
X131000Y271800D02*Y270200D01*
X127100Y271800D02*Y270200D01*
Y263600D02*Y262000D01*
X131000Y263600D02*Y262000D01*
X134900Y263600D02*Y262000D01*
G54D57*X31419Y225000D02*X33337D01*
G54D55*X42457Y227393D02*Y226607D01*
G54D57*X31419Y230000D02*X33337D01*
X31419Y200000D02*X33337D01*
X31419Y205000D02*X33337D01*
G54D55*X42457Y203393D02*Y202607D01*
X49543Y203393D02*Y202607D01*
G54D57*X31419Y190000D02*X33337D01*
X31419Y195000D02*X33337D01*
G54D55*X42457Y192393D02*Y191607D01*
X49543Y192393D02*Y191607D01*
X58607Y193957D02*X59393D01*
X58607Y201043D02*X59393D01*
G54D56*X66583Y197338D02*X71189D01*
X66583Y194779D02*X71189D01*
X67500Y197338D02*X70500D01*
X67500Y194779D02*X70500D01*
X66583Y192221D02*X71189D01*
X66583Y189662D02*X71189D01*
X67500Y192221D02*X70500D01*
X67500Y189662D02*X70500D01*
G54D58*X156016Y238406D02*X160110D01*
X156016Y232500D02*X167826D01*
G54D59*X169560D02*X171450D01*
G54D60*G36*
X161571Y234385D02*X164835Y237649D01*
X166679Y235805D01*
X163415Y232541D01*
X161571Y234385D01*
G37*
G36*
X163415Y232459D02*X166679Y229195D01*
X164835Y227351D01*
X161571Y230615D01*
X163415Y232459D01*
G37*
G54D58*X156016Y226594D02*X160110D01*
G54D55*X149043Y227393D02*Y226607D01*
X141957Y227393D02*Y226607D01*
G54D61*X219130Y191594D02*X222870D01*
G54D62*X234632Y186919D02*X237880D01*
G54D61*X219130Y195531D02*X222870D01*
X219130Y199469D02*X222870D01*
X219130Y203406D02*X222870D01*
G54D55*X202457Y203893D02*Y203107D01*
X209543Y203893D02*Y203107D01*
G54D61*X219130Y160531D02*X222870D01*
X219130Y164469D02*X222870D01*
X219130Y168406D02*X222870D01*
G54D62*X234632Y173081D02*X237880D01*
G54D55*X202457Y168893D02*Y168107D01*
X209543Y168893D02*Y168107D01*
G54D58*X156016Y203406D02*X160110D01*
X156016Y197500D02*X167826D01*
G54D59*X169560D02*X171450D01*
G54D60*G36*
X161571Y199385D02*X164835Y202649D01*
X166679Y200805D01*
X163415Y197541D01*
X161571Y199385D01*
G37*
G36*
X163415Y197459D02*X166679Y194195D01*
X164835Y192351D01*
X161571Y195615D01*
X163415Y197459D01*
G37*
G54D58*X156016Y191594D02*X160110D01*
G54D55*X149043Y192393D02*Y191607D01*
X141957Y192393D02*Y191607D01*
G54D56*X89811Y224662D02*X94417D01*
X90500D02*X93500D01*
X89811Y227221D02*X94417D01*
X89811Y229779D02*X94417D01*
X89811Y232338D02*X94417D01*
X90500Y227221D02*X93500D01*
X90500Y229779D02*X93500D01*
X90500Y232338D02*X93500D01*
X89811Y189662D02*X94417D01*
X89811Y192221D02*X94417D01*
X90500Y189662D02*X93500D01*
X90500Y192221D02*X93500D01*
X89811Y194779D02*X94417D01*
X89811Y197338D02*X94417D01*
X90500Y194779D02*X93500D01*
X90500Y197338D02*X93500D01*
G54D63*X131000Y236800D02*Y235200D01*
Y201800D02*Y200200D01*
Y193600D02*Y192000D01*
X127100Y236800D02*Y235200D01*
Y228600D02*Y227000D01*
Y201800D02*Y200200D01*
Y193600D02*Y192000D01*
X131000Y228600D02*Y227000D01*
X134900Y228600D02*Y227000D01*
Y236800D02*Y235200D01*
Y201800D02*Y200200D01*
Y193600D02*Y192000D01*
Y166800D02*Y165200D01*
Y158600D02*Y157000D01*
Y131800D02*Y130200D01*
G54D57*X31419Y155000D02*X33337D01*
X31419Y160000D02*X33337D01*
G54D55*X42457Y157393D02*Y156607D01*
Y168393D02*Y167607D01*
G54D57*X31419Y165000D02*X33337D01*
X31419Y170000D02*X33337D01*
G54D55*X58607Y158957D02*X59393D01*
X58607Y166043D02*X59393D01*
X49543Y157393D02*Y156607D01*
Y168393D02*Y167607D01*
G54D56*X66583Y162338D02*X71189D01*
X66583Y159779D02*X71189D01*
X67500Y162338D02*X70500D01*
X67500Y159779D02*X70500D01*
X66583Y157221D02*X71189D01*
X66583Y154662D02*X71189D01*
X67500Y157221D02*X70500D01*
X67500Y154662D02*X70500D01*
G54D55*X58607Y123957D02*X59393D01*
X58607Y131043D02*X59393D01*
X49543Y122393D02*Y121607D01*
Y133393D02*Y132607D01*
G54D56*X66583Y127338D02*X71189D01*
X67500D02*X70500D01*
X66583Y124779D02*X71189D01*
X67500D02*X70500D01*
X66583Y122221D02*X71189D01*
X67500D02*X70500D01*
X66583Y119662D02*X71189D01*
X67500D02*X70500D01*
G54D57*X31419Y120000D02*X33337D01*
G54D55*X42457Y122393D02*Y121607D01*
G54D57*X31419Y125000D02*X33337D01*
X31419Y130000D02*X33337D01*
X31419Y135000D02*X33337D01*
G54D55*X42457Y133393D02*Y132607D01*
G54D63*X131000Y166800D02*Y165200D01*
X127100Y166800D02*Y165200D01*
Y158600D02*Y157000D01*
X131000Y158600D02*Y157000D01*
Y131800D02*Y130200D01*
X127100Y131800D02*Y130200D01*
Y123600D02*Y122000D01*
X131000Y123600D02*Y122000D01*
G54D56*X89811Y154662D02*X94417D01*
X90500D02*X93500D01*
X89811Y157221D02*X94417D01*
X89811Y159779D02*X94417D01*
X89811Y162338D02*X94417D01*
X90500Y157221D02*X93500D01*
X90500Y159779D02*X93500D01*
X90500Y162338D02*X93500D01*
X89811Y119662D02*X94417D01*
X89811Y122221D02*X94417D01*
X90500Y119662D02*X93500D01*
X90500Y122221D02*X93500D01*
X89811Y124779D02*X94417D01*
X89811Y127338D02*X94417D01*
X90500Y124779D02*X93500D01*
X90500Y127338D02*X93500D01*
G54D63*X134900Y123600D02*Y122000D01*
Y96800D02*Y95200D01*
X131000Y96800D02*Y95200D01*
X127100Y96800D02*Y95200D01*
Y88600D02*Y87000D01*
X131000Y88600D02*Y87000D01*
X134900Y88600D02*Y87000D01*
Y61800D02*Y60200D01*
Y26800D02*Y25200D01*
Y18600D02*Y17000D01*
X131000Y61800D02*Y60200D01*
Y26800D02*Y25200D01*
X127100Y26800D02*Y25200D01*
Y18600D02*Y17000D01*
X131000Y18600D02*Y17000D01*
X127100Y61800D02*Y60200D01*
Y53600D02*Y52000D01*
X131000Y53600D02*Y52000D01*
X134900Y53600D02*Y52000D01*
G54D56*X89811Y84662D02*X94417D01*
X90500D02*X93500D01*
X89811Y87221D02*X94417D01*
X89811Y89779D02*X94417D01*
X89811Y92338D02*X94417D01*
X90500Y87221D02*X93500D01*
X90500Y89779D02*X93500D01*
X90500Y92338D02*X93500D01*
X89811Y49662D02*X94417D01*
X89811Y52221D02*X94417D01*
X90500Y49662D02*X93500D01*
X90500Y52221D02*X93500D01*
X89811Y54779D02*X94417D01*
X89811Y57338D02*X94417D01*
X90500Y54779D02*X93500D01*
X90500Y57338D02*X93500D01*
X89811Y14662D02*X94417D01*
X90500D02*X93500D01*
X89811Y17221D02*X94417D01*
X89811Y19779D02*X94417D01*
X89811Y22338D02*X94417D01*
X90500Y17221D02*X93500D01*
X90500Y19779D02*X93500D01*
X90500Y22338D02*X93500D01*
G54D64*X196000Y194000D02*Y192000D01*
X183000Y194000D02*Y192000D01*
G54D55*X182457Y168893D02*Y168107D01*
X189543Y168893D02*Y168107D01*
G54D64*X196000Y159000D02*Y157000D01*
X183000Y159000D02*Y157000D01*
X196000Y124000D02*Y122000D01*
X183000Y124000D02*Y122000D01*
G54D55*X189543Y133893D02*Y133107D01*
X182457Y133893D02*Y133107D01*
G54D64*X196000Y89000D02*Y87000D01*
Y54000D02*Y52000D01*
G54D55*X189543Y63893D02*Y63107D01*
G54D64*X196000Y19000D02*Y17000D01*
G54D55*X189543Y28893D02*Y28107D01*
G54D64*X183000Y89000D02*Y87000D01*
Y54000D02*Y52000D01*
G54D55*X182457Y63893D02*Y63107D01*
G54D64*X183000Y19000D02*Y17000D01*
G54D55*X182457Y28893D02*Y28107D01*
Y98893D02*Y98107D01*
X189543Y98893D02*Y98107D01*
G54D58*X156016Y168406D02*X160110D01*
X156016Y162500D02*X167826D01*
G54D59*X169560D02*X171450D01*
G54D60*G36*
X161571Y164385D02*X164835Y167649D01*
X166679Y165805D01*
X163415Y162541D01*
X161571Y164385D01*
G37*
G36*
X163415Y162459D02*X166679Y159195D01*
X164835Y157351D01*
X161571Y160615D01*
X163415Y162459D01*
G37*
G54D58*X156016Y156594D02*X160110D01*
G54D55*X149043Y157393D02*Y156607D01*
X141957Y157393D02*Y156607D01*
G54D61*X219130Y156594D02*X222870D01*
G54D62*X234632Y151919D02*X237880D01*
G54D61*X219130Y121594D02*X222870D01*
X219130Y125531D02*X222870D01*
G54D62*X234632Y116919D02*X237880D01*
G54D61*X219130Y129469D02*X222870D01*
X219130Y133406D02*X222870D01*
G54D62*X234632Y138081D02*X237880D01*
G54D55*X202457Y133893D02*Y133107D01*
X209543Y133893D02*Y133107D01*
G54D62*X234632Y33081D02*X237880D01*
G54D55*X202457Y28893D02*Y28107D01*
X209543Y28893D02*Y28107D01*
G54D58*X156016Y133406D02*X160110D01*
X156016Y127500D02*X167826D01*
G54D59*X169560D02*X171450D01*
G54D60*G36*
X161571Y129385D02*X164835Y132649D01*
X166679Y130805D01*
X163415Y127541D01*
X161571Y129385D01*
G37*
G36*
X163415Y127459D02*X166679Y124195D01*
X164835Y122351D01*
X161571Y125615D01*
X163415Y127459D01*
G37*
G54D58*X156016Y121594D02*X160110D01*
G54D55*X149043Y122393D02*Y121607D01*
X141957Y122393D02*Y121607D01*
G54D58*X156016Y98406D02*X160110D01*
X156016Y92500D02*X167826D01*
G54D59*X169560D02*X171450D01*
G54D60*G36*
X161571Y94385D02*X164835Y97649D01*
X166679Y95805D01*
X163415Y92541D01*
X161571Y94385D01*
G37*
G36*
X163415Y92459D02*X166679Y89195D01*
X164835Y87351D01*
X161571Y90615D01*
X163415Y92459D01*
G37*
G54D58*X156016Y86594D02*X160110D01*
G54D55*X149043Y87393D02*Y86607D01*
X141957Y87393D02*Y86607D01*
G54D58*X156016Y63406D02*X160110D01*
X156016Y57500D02*X167826D01*
G54D59*X169560D02*X171450D01*
G54D60*G36*
X161571Y59385D02*X164835Y62649D01*
X166679Y60805D01*
X163415Y57541D01*
X161571Y59385D01*
G37*
G36*
X163415Y57459D02*X166679Y54195D01*
X164835Y52351D01*
X161571Y55615D01*
X163415Y57459D01*
G37*
G54D58*X156016Y51594D02*X160110D01*
G54D55*X149043Y52393D02*Y51607D01*
X141957Y52393D02*Y51607D01*
G54D58*X156016Y28406D02*X160110D01*
X156016Y22500D02*X167826D01*
G54D59*X169560D02*X171450D01*
G54D60*G36*
X161571Y24385D02*X164835Y27649D01*
X166679Y25805D01*
X163415Y22541D01*
X161571Y24385D01*
G37*
G36*
X163415Y22459D02*X166679Y19195D01*
X164835Y17351D01*
X161571Y20615D01*
X163415Y22459D01*
G37*
G54D58*X156016Y16594D02*X160110D01*
G54D55*X149043Y17393D02*Y16607D01*
X141957Y17393D02*Y16607D01*
X58607Y88957D02*X59393D01*
X58607Y96043D02*X59393D01*
X49543Y87393D02*Y86607D01*
Y98393D02*Y97607D01*
G54D56*X66583Y92338D02*X71189D01*
X67500D02*X70500D01*
X66583Y89779D02*X71189D01*
X67500D02*X70500D01*
X66583Y87221D02*X71189D01*
X67500D02*X70500D01*
X66583Y84662D02*X71189D01*
X67500D02*X70500D01*
G54D57*X31419Y85000D02*X33337D01*
X31419Y90000D02*X33337D01*
X31419Y95000D02*X33337D01*
X31419Y100000D02*X33337D01*
G54D55*X42457Y87393D02*Y86607D01*
Y98393D02*Y97607D01*
X58607Y53957D02*X59393D01*
X58607Y61043D02*X59393D01*
X49543Y52393D02*Y51607D01*
Y63393D02*Y62607D01*
G54D56*X66583Y57338D02*X71189D01*
X67500D02*X70500D01*
X66583Y54779D02*X71189D01*
X67500D02*X70500D01*
X66583Y52221D02*X71189D01*
X67500D02*X70500D01*
X66583Y49662D02*X71189D01*
X67500D02*X70500D01*
G54D57*X31419Y50000D02*X33337D01*
X31419Y55000D02*X33337D01*
X31419Y60000D02*X33337D01*
X31419Y65000D02*X33337D01*
G54D55*X42457Y52393D02*Y51607D01*
Y63393D02*Y62607D01*
G54D57*X31419Y15000D02*X33337D01*
G54D55*X42457Y17393D02*Y16607D01*
G54D57*X31419Y20000D02*X33337D01*
X31419Y25000D02*X33337D01*
X31419Y30000D02*X33337D01*
G54D55*X42457Y28393D02*Y27607D01*
X58607Y18957D02*X59393D01*
X58607Y26043D02*X59393D01*
X49543Y17393D02*Y16607D01*
Y28393D02*Y27607D01*
G54D56*X66583Y22338D02*X71189D01*
X67500D02*X70500D01*
X66583Y19779D02*X71189D01*
X67500D02*X70500D01*
X66583Y17221D02*X71189D01*
X67500D02*X70500D01*
X66583Y14662D02*X71189D01*
X67500D02*X70500D01*
G54D61*X219130Y86594D02*X222870D01*
G54D62*X234632Y81919D02*X237880D01*
G54D61*X219130Y90531D02*X222870D01*
X219130Y16594D02*X222870D01*
X219130Y20531D02*X222870D01*
X219130Y24469D02*X222870D01*
X219130Y28406D02*X222870D01*
X219130Y94469D02*X222870D01*
X219130Y98406D02*X222870D01*
G54D62*X234632Y103081D02*X237880D01*
G54D55*X202457Y98893D02*Y98107D01*
X209543Y98893D02*Y98107D01*
G54D61*X219130Y51594D02*X222870D01*
X219130Y55531D02*X222870D01*
X219130Y59469D02*X222870D01*
X219130Y63406D02*X222870D01*
G54D62*X234632Y46919D02*X237880D01*
X234632Y68081D02*X237880D01*
G54D55*X202457Y63893D02*Y63107D01*
X209543Y63893D02*Y63107D01*
G54D62*X234632Y11919D02*X237880D01*
M02*
