G04 start of page 3 for group 1 idx 1 *
G04 Title: (unknown), bottom *
G04 Creator: pcb 20140316 *
G04 CreationDate: Sat 10 Dec 2016 02:50:52 AM GMT UTC *
G04 For: railfan *
G04 Format: Gerber/RS-274X *
G04 PCB-Dimensions (mil): 4100.00 250.00 *
G04 PCB-Coordinate-Origin: lower left *
%MOIN*%
%FSLAX25Y25*%
%LNBOTTOM*%
%ADD22C,0.0560*%
%ADD21C,0.0130*%
%ADD20C,0.0700*%
%ADD19C,0.0270*%
%ADD18R,0.0284X0.0284*%
%ADD17C,0.0250*%
G54D17*X88500Y4500D02*X90000Y6000D01*
Y7900D02*Y6000D01*
X84500Y4500D02*X85000Y5000D01*
Y7900D02*Y5000D01*
X80500Y4500D02*X80000Y5000D01*
Y7900D02*Y5000D01*
X76500Y4500D02*X75000Y6000D01*
Y7900D02*Y6000D01*
X119500Y4500D02*X120000Y5000D01*
X115500Y4500D02*X115000Y5000D01*
Y7900D02*Y5000D01*
X111500Y4500D02*X110000Y6000D01*
Y7900D02*Y6000D01*
X76500Y20500D02*X75000Y19000D01*
Y17100D01*
X80500Y20500D02*X80000Y20000D01*
X84500Y20500D02*X85000Y20000D01*
Y17100D01*
X88500Y20500D02*X90000Y19000D01*
Y17100D01*
X80000Y20000D02*Y17100D01*
X123500Y4500D02*X125000Y6000D01*
Y7900D02*Y6000D01*
X120000Y7900D02*Y5000D01*
X146500Y4500D02*X145000Y6000D01*
Y7900D02*Y6000D01*
X111500Y20500D02*X110000Y19000D01*
Y17100D01*
X115500Y20500D02*X115000Y20000D01*
Y17100D01*
X119500Y20500D02*X120000Y20000D01*
Y17100D01*
X123500Y20500D02*X125000Y19000D01*
Y17100D01*
X53500Y4500D02*X55000Y6000D01*
Y7900D02*Y6000D01*
X49500Y4500D02*X50000Y5000D01*
Y7900D02*Y5000D01*
X45500Y4500D02*X45000Y5000D01*
Y7900D02*Y5000D01*
X41500Y4500D02*X40000Y6000D01*
Y7900D02*Y6000D01*
X10500Y4500D02*X10000Y5000D01*
Y7900D02*Y5000D01*
X6500Y4500D02*X5000Y6000D01*
Y7900D02*Y6000D01*
X18500Y4500D02*X20000Y6000D01*
Y7900D02*Y6000D01*
X14500Y4500D02*X15000Y5000D01*
Y7900D02*Y5000D01*
X6500Y20500D02*X5000Y19000D01*
Y17100D01*
X10500Y20500D02*X10000Y20000D01*
X14500Y20500D02*X15000Y20000D01*
Y17100D01*
X18500Y20500D02*X20000Y19000D01*
Y17100D01*
X10000Y20000D02*Y17100D01*
X41500Y20500D02*X40000Y19000D01*
Y17100D01*
X45500Y20500D02*X45000Y20000D01*
Y17100D01*
X49500Y20500D02*X50000Y20000D01*
Y17100D01*
X53500Y20500D02*X55000Y19000D01*
Y17100D01*
X158500Y4500D02*X160000Y6000D01*
Y7900D02*Y6000D01*
X154500Y4500D02*X155000Y5000D01*
Y7900D02*Y5000D01*
X150500Y4500D02*X150000Y5000D01*
Y7900D02*Y5000D01*
X189500Y4500D02*X190000Y5000D01*
X185500Y4500D02*X185000Y5000D01*
Y7900D02*Y5000D01*
X181500Y4500D02*X180000Y6000D01*
Y7900D02*Y6000D01*
X146500Y20500D02*X145000Y19000D01*
Y17100D01*
X150500Y20500D02*X150000Y20000D01*
X154500Y20500D02*X155000Y20000D01*
Y17100D01*
X158500Y20500D02*X160000Y19000D01*
Y17100D01*
X150000Y20000D02*Y17100D01*
X193500Y4500D02*X195000Y6000D01*
Y7900D02*Y6000D01*
X190000Y7900D02*Y5000D01*
X216500Y4500D02*X215000Y6000D01*
Y7900D02*Y6000D01*
X181500Y20500D02*X180000Y19000D01*
Y17100D01*
X185500Y20500D02*X185000Y20000D01*
Y17100D01*
X189500Y20500D02*X190000Y20000D01*
Y17100D01*
X193500Y20500D02*X195000Y19000D01*
Y17100D01*
X228500Y4500D02*X230000Y6000D01*
Y7900D02*Y6000D01*
X224500Y4500D02*X225000Y5000D01*
Y7900D02*Y5000D01*
X220500Y4500D02*X220000Y5000D01*
Y7900D02*Y5000D01*
X259500Y4500D02*X260000Y5000D01*
X255500Y4500D02*X255000Y5000D01*
Y7900D02*Y5000D01*
X251500Y4500D02*X250000Y6000D01*
Y7900D02*Y6000D01*
X216500Y20500D02*X215000Y19000D01*
Y17100D01*
X220500Y20500D02*X220000Y20000D01*
X224500Y20500D02*X225000Y20000D01*
Y17100D01*
X228500Y20500D02*X230000Y19000D01*
Y17100D01*
X220000Y20000D02*Y17100D01*
X263500Y4500D02*X265000Y6000D01*
Y7900D02*Y6000D01*
X260000Y7900D02*Y5000D01*
X286500Y4500D02*X285000Y6000D01*
Y7900D02*Y6000D01*
X251500Y20500D02*X250000Y19000D01*
Y17100D01*
X255500Y20500D02*X255000Y20000D01*
Y17100D01*
X259500Y20500D02*X260000Y20000D01*
Y17100D01*
X263500Y20500D02*X265000Y19000D01*
Y17100D01*
X298500Y4500D02*X300000Y6000D01*
Y7900D02*Y6000D01*
X294500Y4500D02*X295000Y5000D01*
Y7900D02*Y5000D01*
X290500Y4500D02*X290000Y5000D01*
Y7900D02*Y5000D01*
X329500Y4500D02*X330000Y5000D01*
X325500Y4500D02*X325000Y5000D01*
Y7900D02*Y5000D01*
X321500Y4500D02*X320000Y6000D01*
Y7900D02*Y6000D01*
X286500Y20500D02*X285000Y19000D01*
Y17100D01*
X290500Y20500D02*X290000Y20000D01*
X294500Y20500D02*X295000Y20000D01*
Y17100D01*
X298500Y20500D02*X300000Y19000D01*
Y17100D01*
X290000Y20000D02*Y17100D01*
X333500Y4500D02*X335000Y6000D01*
Y7900D02*Y6000D01*
X330000Y7900D02*Y5000D01*
X356500Y4500D02*X355000Y6000D01*
Y7900D02*Y6000D01*
X321500Y20500D02*X320000Y19000D01*
Y17100D01*
X325500Y20500D02*X325000Y20000D01*
Y17100D01*
X329500Y20500D02*X330000Y20000D01*
Y17100D01*
X333500Y20500D02*X335000Y19000D01*
Y17100D01*
X368500Y4500D02*X370000Y6000D01*
Y7900D02*Y6000D01*
X364500Y4500D02*X365000Y5000D01*
Y7900D02*Y5000D01*
X360500Y4500D02*X360000Y5000D01*
Y7900D02*Y5000D01*
X403500Y4500D02*X405000Y6000D01*
Y7900D02*Y6000D01*
X399500Y4500D02*X400000Y5000D01*
Y7900D02*Y5000D01*
X395500Y4500D02*X395000Y5000D01*
Y7900D02*Y5000D01*
X391500Y4500D02*X390000Y6000D01*
Y7900D02*Y6000D01*
X356500Y20500D02*X355000Y19000D01*
Y17100D01*
X360500Y20500D02*X360000Y20000D01*
X364500Y20500D02*X365000Y20000D01*
Y17100D01*
X368500Y20500D02*X370000Y19000D01*
Y17100D01*
X360000Y20000D02*Y17100D01*
X391500Y20500D02*X390000Y19000D01*
Y17100D01*
X395500Y20500D02*X395000Y20000D01*
Y17100D01*
X399500Y20500D02*X400000Y20000D01*
Y17100D01*
X403500Y20500D02*X405000Y19000D01*
Y17100D01*
G54D18*X75000Y17700D02*Y16500D01*
X80000Y17700D02*Y16500D01*
X85000Y17700D02*Y16500D01*
X90000Y8500D02*Y7300D01*
Y17700D02*Y16500D01*
X85000Y8500D02*Y7300D01*
X80000Y8500D02*Y7300D01*
X75000Y8500D02*Y7300D01*
X110000Y17700D02*Y16500D01*
X115000Y17700D02*Y16500D01*
Y8500D02*Y7300D01*
X110000Y8500D02*Y7300D01*
X125000Y8500D02*Y7300D01*
X120000Y8500D02*Y7300D01*
Y17700D02*Y16500D01*
X125000Y17700D02*Y16500D01*
X5000Y17700D02*Y16500D01*
X10000Y17700D02*Y16500D01*
X15000Y17700D02*Y16500D01*
X20000Y17700D02*Y16500D01*
Y8500D02*Y7300D01*
X15000Y8500D02*Y7300D01*
X10000Y8500D02*Y7300D01*
X5000Y8500D02*Y7300D01*
X40000Y17700D02*Y16500D01*
X45000Y17700D02*Y16500D01*
Y8500D02*Y7300D01*
X40000Y8500D02*Y7300D01*
X55000Y8500D02*Y7300D01*
X50000Y8500D02*Y7300D01*
Y17700D02*Y16500D01*
X55000Y17700D02*Y16500D01*
X145000Y17700D02*Y16500D01*
X150000Y17700D02*Y16500D01*
X155000Y17700D02*Y16500D01*
X160000Y8500D02*Y7300D01*
Y17700D02*Y16500D01*
X155000Y8500D02*Y7300D01*
X150000Y8500D02*Y7300D01*
X145000Y8500D02*Y7300D01*
X180000Y17700D02*Y16500D01*
X185000Y17700D02*Y16500D01*
Y8500D02*Y7300D01*
X180000Y8500D02*Y7300D01*
X195000Y8500D02*Y7300D01*
X190000Y8500D02*Y7300D01*
Y17700D02*Y16500D01*
X195000Y17700D02*Y16500D01*
X215000Y17700D02*Y16500D01*
X220000Y17700D02*Y16500D01*
X225000Y17700D02*Y16500D01*
X230000Y8500D02*Y7300D01*
Y17700D02*Y16500D01*
X225000Y8500D02*Y7300D01*
X220000Y8500D02*Y7300D01*
X215000Y8500D02*Y7300D01*
X250000Y17700D02*Y16500D01*
X255000Y17700D02*Y16500D01*
Y8500D02*Y7300D01*
X250000Y8500D02*Y7300D01*
X265000Y8500D02*Y7300D01*
X260000Y8500D02*Y7300D01*
Y17700D02*Y16500D01*
X265000Y17700D02*Y16500D01*
X285000Y17700D02*Y16500D01*
X290000Y17700D02*Y16500D01*
X295000Y17700D02*Y16500D01*
X300000Y8500D02*Y7300D01*
Y17700D02*Y16500D01*
X295000Y8500D02*Y7300D01*
X290000Y8500D02*Y7300D01*
X285000Y8500D02*Y7300D01*
X320000Y17700D02*Y16500D01*
X325000Y17700D02*Y16500D01*
Y8500D02*Y7300D01*
X320000Y8500D02*Y7300D01*
X335000Y8500D02*Y7300D01*
X330000Y8500D02*Y7300D01*
Y17700D02*Y16500D01*
X335000Y17700D02*Y16500D01*
X355000Y17700D02*Y16500D01*
X360000Y17700D02*Y16500D01*
X365000Y17700D02*Y16500D01*
X370000Y8500D02*Y7300D01*
Y17700D02*Y16500D01*
X365000Y8500D02*Y7300D01*
X360000Y8500D02*Y7300D01*
X355000Y8500D02*Y7300D01*
X390000Y17700D02*Y16500D01*
X395000Y17700D02*Y16500D01*
Y8500D02*Y7300D01*
X390000Y8500D02*Y7300D01*
X405000Y8500D02*Y7300D01*
X400000Y8500D02*Y7300D01*
Y17700D02*Y16500D01*
X405000Y17700D02*Y16500D01*
G54D19*X123500Y4500D03*
X146500D03*
X150500D03*
X154500D03*
X158500D03*
X146500Y20500D03*
X150500D03*
X154500D03*
X158500D03*
X181500D03*
G54D20*X130500Y12500D03*
X165500D03*
X139500D03*
X174500D03*
G54D19*X185500Y20500D03*
X189500D03*
X193500D03*
X216500D03*
X220500D03*
X181500Y4500D03*
X185500D03*
X189500D03*
X193500D03*
G54D20*X200500Y12500D03*
X209500D03*
G54D19*X216500Y4500D03*
X220500D03*
X224500D03*
X228500D03*
X224500Y20500D03*
X228500D03*
X251500D03*
X255500D03*
G54D20*X235500Y12500D03*
X244500D03*
G54D19*X259500Y20500D03*
X263500D03*
X286500D03*
X290500D03*
X294500D03*
X298500D03*
X251500Y4500D03*
X255500D03*
X259500D03*
X263500D03*
X286500D03*
X290500D03*
X294500D03*
G54D20*X270500Y12500D03*
X279500D03*
G54D19*X298500Y4500D03*
X321500D03*
X325500D03*
X329500D03*
X333500D03*
X321500Y20500D03*
X325500D03*
X329500D03*
X333500D03*
G54D20*X305500Y12500D03*
X340500D03*
X314500D03*
X349500D03*
G54D19*X356500Y20500D03*
X360500D03*
X364500D03*
X368500D03*
X391500D03*
X395500D03*
X399500D03*
X403500D03*
X356500Y4500D03*
X360500D03*
X364500D03*
X368500D03*
X391500D03*
X395500D03*
X399500D03*
X403500D03*
G54D20*X375500Y12500D03*
X384500D03*
G54D19*X18500Y4500D03*
X45500Y20500D03*
Y4500D03*
X49500D03*
X53500D03*
X49500Y20500D03*
X53500D03*
G54D20*X25500Y12500D03*
X60500D03*
X69500D03*
X34500D03*
G54D19*X6500Y4500D03*
X10500D03*
X14500D03*
X6500Y20500D03*
X10500D03*
X14500D03*
X18500D03*
X41500D03*
Y4500D03*
X76500Y20500D03*
X80500D03*
X84500D03*
X88500D03*
X111500D03*
X115500D03*
X119500D03*
X123500D03*
X76500Y4500D03*
X80500D03*
X84500D03*
X88500D03*
X111500D03*
X115500D03*
X119500D03*
G54D20*X95500Y12500D03*
X104500D03*
G54D21*G54D22*G54D21*G54D22*G54D21*G54D22*G54D21*G54D22*G54D21*G54D22*G54D21*G54D22*G54D21*G54D22*G54D21*G54D22*M02*
