G04 start of page 7 for group -4063 idx -4063 *
G04 Title: (unknown), componentmask *
G04 Creator: pcb 4.0.2 *
G04 CreationDate: Mon Oct 12 23:48:26 2020 UTC *
G04 For: petersen *
G04 Format: Gerber/RS-274X *
G04 PCB-Dimensions (mil): 2400.00 450.00 *
G04 PCB-Coordinate-Origin: lower left *
%MOIN*%
%FSLAX25Y25*%
%LNTOPMASK*%
%ADD39C,0.0001*%
%ADD38C,0.0490*%
G54D38*X109000Y22500D03*
X89000Y26500D03*
Y18500D03*
G54D39*G36*
X186550Y22050D02*X180450D01*
Y13950D01*
X186550D01*
Y22050D01*
G37*
G36*
X173550D02*X167450D01*
Y13950D01*
X173550D01*
Y22050D01*
G37*
G36*
X205149Y18075D02*Y15113D01*
X211851D01*
Y18075D01*
X205149D01*
G37*
G36*
X219913Y14138D02*Y9700D01*
X227599D01*
Y14138D01*
X219913D01*
G37*
G36*
X205149Y22012D02*Y19050D01*
X211851D01*
Y22012D01*
X205149D01*
G37*
G36*
Y25950D02*Y22988D01*
X211851D01*
Y25950D01*
X205149D01*
G37*
G36*
Y29887D02*Y26925D01*
X211851D01*
Y29887D01*
X205149D01*
G37*
G36*
X219913Y35300D02*Y30862D01*
X227599D01*
Y35300D01*
X219913D01*
G37*
G36*
X172816Y31752D02*X167098D01*
Y25248D01*
X172816D01*
Y31752D01*
G37*
G36*
X179902D02*X174184D01*
Y25248D01*
X179902D01*
Y31752D01*
G37*
G36*
X192816D02*X187098D01*
Y25248D01*
X192816D01*
Y31752D01*
G37*
G36*
X199902D02*X194184D01*
Y25248D01*
X199902D01*
Y31752D01*
G37*
G36*
X43248Y21816D02*Y16098D01*
X49752D01*
Y21816D01*
X43248D01*
G37*
G36*
Y28902D02*Y23184D01*
X49752D01*
Y28902D01*
X43248D01*
G37*
G36*
X39902Y20252D02*X34184D01*
Y13748D01*
X39902D01*
Y20252D01*
G37*
G36*
Y31252D02*X34184D01*
Y24748D01*
X39902D01*
Y31252D01*
G37*
G36*
X53500Y16500D02*Y13500D01*
X63000D01*
Y16500D01*
X53500D01*
G37*
G36*
Y31500D02*Y28500D01*
X63000D01*
Y31500D01*
X53500D01*
G37*
G36*
Y26500D02*Y23500D01*
X63000D01*
Y26500D01*
X53500D01*
G37*
G36*
Y21500D02*Y18500D01*
X63000D01*
Y21500D01*
X53500D01*
G37*
G36*
X123900Y28300D02*X120900D01*
Y23700D01*
X123900D01*
Y28300D01*
G37*
G36*
X120000D02*X117000D01*
Y23700D01*
X120000D01*
Y28300D01*
G37*
G36*
X116100D02*X113100D01*
Y23700D01*
X116100D01*
Y28300D01*
G37*
G36*
Y20100D02*X113100D01*
Y15500D01*
X116100D01*
Y20100D01*
G37*
G36*
X120000D02*X117000D01*
Y15500D01*
X120000D01*
Y20100D01*
G37*
G36*
X123900D02*X120900D01*
Y15500D01*
X123900D01*
Y20100D01*
G37*
G36*
X139402Y20252D02*X133684D01*
Y13748D01*
X139402D01*
Y20252D01*
G37*
G36*
X132316D02*X126598D01*
Y13748D01*
X132316D01*
Y20252D01*
G37*
G36*
X74000Y16500D02*Y13500D01*
X83500D01*
Y16500D01*
X74000D01*
G37*
G36*
Y21500D02*Y18500D01*
X83500D01*
Y21500D01*
X74000D01*
G37*
G36*
Y26500D02*Y23500D01*
X83500D01*
Y26500D01*
X74000D01*
G37*
G36*
Y31500D02*Y28500D01*
X83500D01*
Y31500D01*
X74000D01*
G37*
G36*
X141326Y30596D02*Y26216D01*
X149800D01*
Y30596D01*
X141326D01*
G37*
G36*
Y24690D02*Y20310D01*
X157516D01*
Y24690D01*
X141326D01*
G37*
G36*
X152035Y27525D02*Y17475D01*
X163975D01*
Y27525D01*
X152035D01*
G37*
G36*
X154179Y25805D02*X152335Y27649D01*
X149071Y24385D01*
X150915Y22541D01*
X154179Y25805D01*
G37*
G36*
X150915Y22459D02*X149071Y20615D01*
X152335Y17351D01*
X154179Y19195D01*
X150915Y22459D01*
G37*
G36*
X141326Y18784D02*Y14404D01*
X149800D01*
Y18784D01*
X141326D01*
G37*
G36*
X32816Y20252D02*X27098D01*
Y13748D01*
X32816D01*
Y20252D01*
G37*
G36*
Y31252D02*X27098D01*
Y24748D01*
X32816D01*
Y31252D01*
G37*
G36*
X18774Y18490D02*Y15054D01*
X22210D01*
Y18490D01*
X18774D01*
G37*
G36*
Y22308D02*Y18874D01*
X22210D01*
Y22308D01*
X18774D01*
G37*
G36*
Y26126D02*Y22692D01*
X22210D01*
Y26126D01*
X18774D01*
G37*
G36*
Y29946D02*Y26510D01*
X22210D01*
Y29946D01*
X18774D01*
G37*
G36*
X12790D02*Y26510D01*
X16226D01*
Y29946D01*
X12790D01*
G37*
G36*
Y26126D02*Y22692D01*
X16226D01*
Y26126D01*
X12790D01*
G37*
G36*
Y22308D02*Y18874D01*
X16226D01*
Y22308D01*
X12790D01*
G37*
G36*
Y18490D02*Y15054D01*
X16226D01*
Y18490D01*
X12790D01*
G37*
M02*
