M48
INCH
T36C0.012
T35C0.014
%
T36
X001750Y001350
X003600Y002250
X004750Y003100
X005000Y003100
X005150Y001700
X006400Y001750
X006450Y002050
X006800Y002050
X007150Y001650
X007300Y001250
X010150Y002750
X012600Y002650
X019700Y002150
X020050Y002150
X021300Y001659
X021600Y001659
T35
X002500Y002950
X002500Y002450
X002500Y002050
X009650Y001700
X010150Y001700
X010500Y001600
X011000Y002750
X011450Y002150
X011850Y002200
X011850Y001350
X012900Y002300
X013300Y002300
X013700Y002300
M30
