G04 start of page 13 for group -3984 idx -3984 *
G04 Title: (unknown), fab *
G04 Creator: pcb 4.0.2 *
G04 CreationDate: Mon Oct 12 23:48:26 2020 UTC *
G04 For: petersen *
G04 Format: Gerber/RS-274X *
G04 PCB-Dimensions (mil): 2400.00 450.00 *
G04 PCB-Coordinate-Origin: lower left *
%MOIN*%
%FSLAX25Y25*%
%LNFAB*%
%ADD54C,0.0100*%
%ADD53C,0.0075*%
%ADD52C,0.0060*%
%ADD51C,0.0001*%
G54D51*G36*
X107800Y24266D02*X110766Y21300D01*
X110200Y20734D01*
X107234Y23700D01*
X107800Y24266D01*
G37*
G36*
X107234Y21300D02*X110200Y24266D01*
X110766Y23700D01*
X107800Y20734D01*
X107234Y21300D01*
G37*
G36*
X87800Y28266D02*X90766Y25300D01*
X90200Y24734D01*
X87234Y27700D01*
X87800Y28266D01*
G37*
G36*
X87234Y25300D02*X90200Y28266D01*
X90766Y27700D01*
X87800Y24734D01*
X87234Y25300D01*
G37*
G36*
X87800Y20266D02*X90766Y17300D01*
X90200Y16734D01*
X87234Y19700D01*
X87800Y20266D01*
G37*
G36*
X87234Y17300D02*X90200Y20266D01*
X90766Y19700D01*
X87800Y16734D01*
X87234Y17300D01*
G37*
G36*
X13800Y73016D02*X16766Y70050D01*
X16200Y69484D01*
X13234Y72450D01*
X13800Y73016D01*
G37*
G36*
X13234Y70050D02*X16200Y73016D01*
X16766Y72450D01*
X13800Y69484D01*
X13234Y70050D01*
G37*
G54D52*X140000Y73500D02*Y67500D01*
Y73500D02*X143750Y67500D01*
Y73500D02*Y67500D01*
X145550Y72750D02*Y68250D01*
Y72750D02*X146300Y73500D01*
X147800D01*
X148550Y72750D01*
Y68250D01*
X147800Y67500D02*X148550Y68250D01*
X146300Y67500D02*X147800D01*
X145550Y68250D02*X146300Y67500D01*
X98000Y72750D02*X98750Y73500D01*
X100250D01*
X101000Y72750D01*
X100250Y67500D02*X101000Y68250D01*
X98750Y67500D02*X100250D01*
X98000Y68250D02*X98750Y67500D01*
Y70800D02*X100250D01*
X101000Y72750D02*Y71550D01*
Y70050D02*Y68250D01*
Y70050D02*X100250Y70800D01*
X101000Y71550D02*X100250Y70800D01*
X45000Y68250D02*X45750Y67500D01*
X45000Y72750D02*Y68250D01*
Y72750D02*X45750Y73500D01*
X47250D01*
X48000Y72750D01*
Y68250D01*
X47250Y67500D02*X48000Y68250D01*
X45750Y67500D02*X47250D01*
X45000Y69000D02*X48000Y72000D01*
X49800Y67500D02*X50550D01*
X52350Y68250D02*X53100Y67500D01*
X52350Y72750D02*Y68250D01*
Y72750D02*X53100Y73500D01*
X54600D01*
X55350Y72750D01*
Y68250D01*
X54600Y67500D02*X55350Y68250D01*
X53100Y67500D02*X54600D01*
X52350Y69000D02*X55350Y72000D01*
X57150Y72750D02*X57900Y73500D01*
X59400D01*
X60150Y72750D01*
X59400Y67500D02*X60150Y68250D01*
X57900Y67500D02*X59400D01*
X57150Y68250D02*X57900Y67500D01*
Y70800D02*X59400D01*
X60150Y72750D02*Y71550D01*
Y70050D02*Y68250D01*
Y70050D02*X59400Y70800D01*
X60150Y71550D02*X59400Y70800D01*
X62700Y67500D02*X64950Y70500D01*
Y72750D02*Y70500D01*
X64200Y73500D02*X64950Y72750D01*
X62700Y73500D02*X64200D01*
X61950Y72750D02*X62700Y73500D01*
X61950Y72750D02*Y71250D01*
X62700Y70500D01*
X64950D01*
X25000Y31100D02*Y27900D01*
X23400Y29500D02*X26600D01*
X25000Y22100D02*Y18900D01*
X23400Y20500D02*X26600D01*
X25000Y26100D02*Y22900D01*
X23400Y24500D02*X26600D01*
X96500Y18600D02*Y15400D01*
X94900Y17000D02*X98100D01*
X101500Y18600D02*Y15400D01*
X99900Y17000D02*X103100D01*
X105000Y17600D02*Y14400D01*
X103400Y16000D02*X106600D01*
X118500Y15100D02*Y11900D01*
X116900Y13500D02*X120100D01*
X118500Y23600D02*Y20400D01*
X116900Y22000D02*X120100D01*
X114500Y23100D02*Y19900D01*
X112900Y21500D02*X116100D01*
X110000Y29100D02*Y25900D01*
X108400Y27500D02*X111600D01*
X133000Y24600D02*Y21400D01*
X131400Y23000D02*X134600D01*
X137000Y24600D02*Y21400D01*
X135400Y23000D02*X138600D01*
X129000Y24600D02*Y21400D01*
X127400Y23000D02*X130600D01*
X15000Y87850D02*Y84650D01*
X13400Y86250D02*X16600D01*
X135000Y88500D02*X136500Y85500D01*
X138000Y88500D01*
X136500Y85500D02*Y82500D01*
X139800Y85800D02*X142050D01*
X139800Y82500D02*X142800D01*
X139800Y88500D02*Y82500D01*
Y88500D02*X142800D01*
X147600D02*X148350Y87750D01*
X145350Y88500D02*X147600D01*
X144600Y87750D02*X145350Y88500D01*
X144600Y87750D02*Y86250D01*
X145350Y85500D01*
X147600D01*
X148350Y84750D01*
Y83250D01*
X147600Y82500D02*X148350Y83250D01*
X145350Y82500D02*X147600D01*
X144600Y83250D02*X145350Y82500D01*
X98000Y87300D02*X99200Y88500D01*
Y82500D01*
X98000D02*X100250D01*
X102050Y87750D02*X102800Y88500D01*
X104300D01*
X105050Y87750D01*
X104300Y82500D02*X105050Y83250D01*
X102800Y82500D02*X104300D01*
X102050Y83250D02*X102800Y82500D01*
Y85800D02*X104300D01*
X105050Y87750D02*Y86550D01*
Y85050D02*Y83250D01*
Y85050D02*X104300Y85800D01*
X105050Y86550D02*X104300Y85800D01*
X45000Y83250D02*X45750Y82500D01*
X45000Y87750D02*Y83250D01*
Y87750D02*X45750Y88500D01*
X47250D01*
X48000Y87750D01*
Y83250D01*
X47250Y82500D02*X48000Y83250D01*
X45750Y82500D02*X47250D01*
X45000Y84000D02*X48000Y87000D01*
X49800Y82500D02*X50550D01*
X52350Y83250D02*X53100Y82500D01*
X52350Y87750D02*Y83250D01*
Y87750D02*X53100Y88500D01*
X54600D01*
X55350Y87750D01*
Y83250D01*
X54600Y82500D02*X55350Y83250D01*
X53100Y82500D02*X54600D01*
X52350Y84000D02*X55350Y87000D01*
X57150Y87300D02*X58350Y88500D01*
Y82500D01*
X57150D02*X59400D01*
X61200Y84750D02*X64200Y88500D01*
X61200Y84750D02*X64950D01*
X64200Y88500D02*Y82500D01*
X36000Y22500D02*Y20900D01*
Y22500D02*X37387Y23300D01*
X36000Y22500D02*X34613Y23300D01*
X51500Y17000D02*Y15400D01*
Y17000D02*X52887Y17800D01*
X51500Y17000D02*X50113Y17800D01*
X47500Y31000D02*Y29400D01*
Y31000D02*X48887Y31800D01*
X47500Y31000D02*X46113Y31800D01*
X50000Y31000D02*Y29400D01*
Y31000D02*X51387Y31800D01*
X50000Y31000D02*X48613Y31800D01*
X126000Y26500D02*Y24900D01*
Y26500D02*X127387Y27300D01*
X126000Y26500D02*X124613Y27300D01*
X213000Y16594D02*Y14994D01*
Y16594D02*X214387Y17394D01*
X213000Y16594D02*X211613Y17394D01*
X216000Y16594D02*Y14994D01*
Y16594D02*X217387Y17394D01*
X216000Y16594D02*X214613Y17394D01*
X200500Y21500D02*Y19900D01*
Y21500D02*X201887Y22300D01*
X200500Y21500D02*X199113Y22300D01*
X197000Y21500D02*Y19900D01*
Y21500D02*X198387Y22300D01*
X197000Y21500D02*X195613Y22300D01*
X101500Y27500D02*Y25900D01*
Y27500D02*X102887Y28300D01*
X101500Y27500D02*X100113Y28300D01*
X73000Y12500D02*Y10900D01*
Y12500D02*X74387Y13300D01*
X73000Y12500D02*X71613Y13300D01*
X71500Y16500D02*Y14900D01*
Y16500D02*X72887Y17300D01*
X71500Y16500D02*X70113Y17300D01*
X64000Y17500D02*Y15900D01*
Y17500D02*X65387Y18300D01*
X64000Y17500D02*X62613Y18300D01*
X64500Y20500D02*Y18900D01*
Y20500D02*X65887Y21300D01*
X64500Y20500D02*X63113Y21300D01*
X68000Y20500D02*Y18900D01*
Y20500D02*X69387Y21300D01*
X68000Y20500D02*X66613Y21300D01*
X17500Y13500D02*Y11900D01*
Y13500D02*X18887Y14300D01*
X17500Y13500D02*X16113Y14300D01*
X15000Y101250D02*Y99650D01*
Y101250D02*X16387Y102050D01*
X15000Y101250D02*X13613Y102050D01*
X135000Y103500D02*X136500Y100500D01*
X138000Y103500D01*
X136500Y100500D02*Y97500D01*
X139800Y100800D02*X142050D01*
X139800Y97500D02*X142800D01*
X139800Y103500D02*Y97500D01*
Y103500D02*X142800D01*
X147600D02*X148350Y102750D01*
X145350Y103500D02*X147600D01*
X144600Y102750D02*X145350Y103500D01*
X144600Y102750D02*Y101250D01*
X145350Y100500D01*
X147600D01*
X148350Y99750D01*
Y98250D01*
X147600Y97500D02*X148350Y98250D01*
X145350Y97500D02*X147600D01*
X144600Y98250D02*X145350Y97500D01*
X98000Y102300D02*X99200Y103500D01*
Y97500D01*
X98000D02*X100250D01*
X104300Y103500D02*X105050Y102750D01*
X102800Y103500D02*X104300D01*
X102050Y102750D02*X102800Y103500D01*
X102050Y102750D02*Y98250D01*
X102800Y97500D01*
X104300Y100800D02*X105050Y100050D01*
X102050Y100800D02*X104300D01*
X102800Y97500D02*X104300D01*
X105050Y98250D01*
Y100050D02*Y98250D01*
X45000D02*X45750Y97500D01*
X45000Y102750D02*Y98250D01*
Y102750D02*X45750Y103500D01*
X47250D01*
X48000Y102750D01*
Y98250D01*
X47250Y97500D02*X48000Y98250D01*
X45750Y97500D02*X47250D01*
X45000Y99000D02*X48000Y102000D01*
X49800Y97500D02*X50550D01*
X52350Y98250D02*X53100Y97500D01*
X52350Y102750D02*Y98250D01*
Y102750D02*X53100Y103500D01*
X54600D01*
X55350Y102750D01*
Y98250D01*
X54600Y97500D02*X55350Y98250D01*
X53100Y97500D02*X54600D01*
X52350Y99000D02*X55350Y102000D01*
X57150Y102300D02*X58350Y103500D01*
Y97500D01*
X57150D02*X59400D01*
X61200Y102750D02*X61950Y103500D01*
X64200D01*
X64950Y102750D01*
Y101250D01*
X61200Y97500D02*X64950Y101250D01*
X61200Y97500D02*X64950D01*
X3000Y118500D02*X3750Y117750D01*
X750Y118500D02*X3000D01*
X0Y117750D02*X750Y118500D01*
X0Y117750D02*Y116250D01*
X750Y115500D01*
X3000D01*
X3750Y114750D01*
Y113250D01*
X3000Y112500D02*X3750Y113250D01*
X750Y112500D02*X3000D01*
X0Y113250D02*X750Y112500D01*
X5550Y115500D02*Y113250D01*
X6300Y112500D01*
X8550Y115500D02*Y111000D01*
X7800Y110250D02*X8550Y111000D01*
X6300Y110250D02*X7800D01*
X5550Y111000D02*X6300Y110250D01*
Y112500D02*X7800D01*
X8550Y113250D01*
X11100Y114750D02*Y112500D01*
Y114750D02*X11850Y115500D01*
X12600D01*
X13350Y114750D01*
Y112500D01*
Y114750D02*X14100Y115500D01*
X14850D01*
X15600Y114750D01*
Y112500D01*
X10350Y115500D02*X11100Y114750D01*
X17400Y118500D02*Y112500D01*
Y113250D02*X18150Y112500D01*
X19650D01*
X20400Y113250D01*
Y114750D02*Y113250D01*
X19650Y115500D02*X20400Y114750D01*
X18150Y115500D02*X19650D01*
X17400Y114750D02*X18150Y115500D01*
X22200Y114750D02*Y113250D01*
Y114750D02*X22950Y115500D01*
X24450D01*
X25200Y114750D01*
Y113250D01*
X24450Y112500D02*X25200Y113250D01*
X22950Y112500D02*X24450D01*
X22200Y113250D02*X22950Y112500D01*
X27000Y118500D02*Y113250D01*
X27750Y112500D01*
X0Y109250D02*X29250D01*
X41750Y118500D02*Y112500D01*
X43700Y118500D02*X44750Y117450D01*
Y113550D01*
X43700Y112500D02*X44750Y113550D01*
X41000Y112500D02*X43700D01*
X41000Y118500D02*X43700D01*
G54D53*X46550Y117000D02*Y116850D01*
G54D52*Y114750D02*Y112500D01*
X50300Y115500D02*X51050Y114750D01*
X48800Y115500D02*X50300D01*
X48050Y114750D02*X48800Y115500D01*
X48050Y114750D02*Y113250D01*
X48800Y112500D01*
X51050Y115500D02*Y113250D01*
X51800Y112500D01*
X48800D02*X50300D01*
X51050Y113250D01*
X54350Y114750D02*Y112500D01*
Y114750D02*X55100Y115500D01*
X55850D01*
X56600Y114750D01*
Y112500D01*
Y114750D02*X57350Y115500D01*
X58100D01*
X58850Y114750D01*
Y112500D01*
X53600Y115500D02*X54350Y114750D01*
X60650Y112500D02*X61400D01*
X65900Y113250D02*X66650Y112500D01*
X65900Y117750D02*X66650Y118500D01*
X65900Y117750D02*Y113250D01*
X68450Y118500D02*X69950D01*
X69200D02*Y112500D01*
X68450D02*X69950D01*
X72500Y114750D02*Y112500D01*
Y114750D02*X73250Y115500D01*
X74000D01*
X74750Y114750D01*
Y112500D01*
X71750Y115500D02*X72500Y114750D01*
X77300Y115500D02*X79550D01*
X76550Y114750D02*X77300Y115500D01*
X76550Y114750D02*Y113250D01*
X77300Y112500D01*
X79550D01*
X81350Y118500D02*Y112500D01*
Y114750D02*X82100Y115500D01*
X83600D01*
X84350Y114750D01*
Y112500D01*
X86150Y118500D02*X86900Y117750D01*
Y113250D01*
X86150Y112500D02*X86900Y113250D01*
X41000Y109250D02*X88700D01*
X96050Y112500D02*X98000D01*
X95000Y113550D02*X96050Y112500D01*
X95000Y117450D02*Y113550D01*
Y117450D02*X96050Y118500D01*
X98000D01*
X99800Y114750D02*Y113250D01*
Y114750D02*X100550Y115500D01*
X102050D01*
X102800Y114750D01*
Y113250D01*
X102050Y112500D02*X102800Y113250D01*
X100550Y112500D02*X102050D01*
X99800Y113250D02*X100550Y112500D01*
X104600Y115500D02*Y113250D01*
X105350Y112500D01*
X106850D01*
X107600Y113250D01*
Y115500D02*Y113250D01*
X110150Y114750D02*Y112500D01*
Y114750D02*X110900Y115500D01*
X111650D01*
X112400Y114750D01*
Y112500D01*
X109400Y115500D02*X110150Y114750D01*
X114950Y118500D02*Y113250D01*
X115700Y112500D01*
X114200Y116250D02*X115700D01*
X95000Y109250D02*X117200D01*
X130750Y118500D02*Y112500D01*
X130000Y118500D02*X133000D01*
X133750Y117750D01*
Y116250D01*
X133000Y115500D02*X133750Y116250D01*
X130750Y115500D02*X133000D01*
X135550Y118500D02*Y113250D01*
X136300Y112500D01*
X140050Y115500D02*X140800Y114750D01*
X138550Y115500D02*X140050D01*
X137800Y114750D02*X138550Y115500D01*
X137800Y114750D02*Y113250D01*
X138550Y112500D01*
X140800Y115500D02*Y113250D01*
X141550Y112500D01*
X138550D02*X140050D01*
X140800Y113250D01*
X144100Y118500D02*Y113250D01*
X144850Y112500D01*
X143350Y116250D02*X144850D01*
X147100Y112500D02*X149350D01*
X146350Y113250D02*X147100Y112500D01*
X146350Y114750D02*Y113250D01*
Y114750D02*X147100Y115500D01*
X148600D01*
X149350Y114750D01*
X146350Y114000D02*X149350D01*
Y114750D02*Y114000D01*
X154150Y118500D02*Y112500D01*
X153400D02*X154150Y113250D01*
X151900Y112500D02*X153400D01*
X151150Y113250D02*X151900Y112500D01*
X151150Y114750D02*Y113250D01*
Y114750D02*X151900Y115500D01*
X153400D01*
X154150Y114750D01*
X157450Y115500D02*Y114750D01*
Y113250D02*Y112500D01*
X155950Y117750D02*Y117000D01*
Y117750D02*X156700Y118500D01*
X158200D01*
X158950Y117750D01*
Y117000D01*
X157450Y115500D02*X158950Y117000D01*
X130000Y109250D02*X160750D01*
X0Y133500D02*X3000D01*
X1500D02*Y127500D01*
X4800Y133500D02*Y127500D01*
Y129750D02*X5550Y130500D01*
X7050D01*
X7800Y129750D01*
Y127500D01*
X10350D02*X12600D01*
X9600Y128250D02*X10350Y127500D01*
X9600Y129750D02*Y128250D01*
Y129750D02*X10350Y130500D01*
X11850D01*
X12600Y129750D01*
X9600Y129000D02*X12600D01*
Y129750D02*Y129000D01*
X15150Y129750D02*Y127500D01*
Y129750D02*X15900Y130500D01*
X17400D01*
X14400D02*X15150Y129750D01*
X19950Y127500D02*X22200D01*
X19200Y128250D02*X19950Y127500D01*
X19200Y129750D02*Y128250D01*
Y129750D02*X19950Y130500D01*
X21450D01*
X22200Y129750D01*
X19200Y129000D02*X22200D01*
Y129750D02*Y129000D01*
X28950Y130500D02*X29700Y129750D01*
X27450Y130500D02*X28950D01*
X26700Y129750D02*X27450Y130500D01*
X26700Y129750D02*Y128250D01*
X27450Y127500D01*
X29700Y130500D02*Y128250D01*
X30450Y127500D01*
X27450D02*X28950D01*
X29700Y128250D01*
X33000Y129750D02*Y127500D01*
Y129750D02*X33750Y130500D01*
X35250D01*
X32250D02*X33000Y129750D01*
X37800Y127500D02*X40050D01*
X37050Y128250D02*X37800Y127500D01*
X37050Y129750D02*Y128250D01*
Y129750D02*X37800Y130500D01*
X39300D01*
X40050Y129750D01*
X37050Y129000D02*X40050D01*
Y129750D02*Y129000D01*
X44550Y132750D02*X45300Y133500D01*
X46800D01*
X47550Y132750D01*
X46800Y127500D02*X47550Y128250D01*
X45300Y127500D02*X46800D01*
X44550Y128250D02*X45300Y127500D01*
Y130800D02*X46800D01*
X47550Y132750D02*Y131550D01*
Y130050D02*Y128250D01*
Y130050D02*X46800Y130800D01*
X47550Y131550D02*X46800Y130800D01*
X55050Y133500D02*Y127500D01*
X54300D02*X55050Y128250D01*
X52800Y127500D02*X54300D01*
X52050Y128250D02*X52800Y127500D01*
X52050Y129750D02*Y128250D01*
Y129750D02*X52800Y130500D01*
X54300D01*
X55050Y129750D01*
G54D53*X56850Y132000D02*Y131850D01*
G54D52*Y129750D02*Y127500D01*
X59100Y132750D02*Y127500D01*
Y132750D02*X59850Y133500D01*
X60600D01*
X58350Y130500D02*X59850D01*
X62850Y132750D02*Y127500D01*
Y132750D02*X63600Y133500D01*
X64350D01*
X62100Y130500D02*X63600D01*
X66600Y127500D02*X68850D01*
X65850Y128250D02*X66600Y127500D01*
X65850Y129750D02*Y128250D01*
Y129750D02*X66600Y130500D01*
X68100D01*
X68850Y129750D01*
X65850Y129000D02*X68850D01*
Y129750D02*Y129000D01*
X71400Y129750D02*Y127500D01*
Y129750D02*X72150Y130500D01*
X73650D01*
X70650D02*X71400Y129750D01*
X76200Y127500D02*X78450D01*
X75450Y128250D02*X76200Y127500D01*
X75450Y129750D02*Y128250D01*
Y129750D02*X76200Y130500D01*
X77700D01*
X78450Y129750D01*
X75450Y129000D02*X78450D01*
Y129750D02*Y129000D01*
X81000Y129750D02*Y127500D01*
Y129750D02*X81750Y130500D01*
X82500D01*
X83250Y129750D01*
Y127500D01*
X80250Y130500D02*X81000Y129750D01*
X85800Y133500D02*Y128250D01*
X86550Y127500D01*
X85050Y131250D02*X86550D01*
X93750Y133500D02*Y127500D01*
X93000D02*X93750Y128250D01*
X91500Y127500D02*X93000D01*
X90750Y128250D02*X91500Y127500D01*
X90750Y129750D02*Y128250D01*
Y129750D02*X91500Y130500D01*
X93000D01*
X93750Y129750D01*
X96300D02*Y127500D01*
Y129750D02*X97050Y130500D01*
X98550D01*
X95550D02*X96300Y129750D01*
G54D53*X100350Y132000D02*Y131850D01*
G54D52*Y129750D02*Y127500D01*
X101850Y133500D02*Y128250D01*
X102600Y127500D01*
X104100Y133500D02*Y128250D01*
X104850Y127500D01*
X109800D02*X112050D01*
X112800Y128250D01*
X112050Y129000D02*X112800Y128250D01*
X109800Y129000D02*X112050D01*
X109050Y129750D02*X109800Y129000D01*
X109050Y129750D02*X109800Y130500D01*
X112050D01*
X112800Y129750D01*
X109050Y128250D02*X109800Y127500D01*
G54D53*X114600Y132000D02*Y131850D01*
G54D52*Y129750D02*Y127500D01*
X116100Y130500D02*X119100D01*
X116100Y127500D02*X119100Y130500D01*
X116100Y127500D02*X119100D01*
X121650D02*X123900D01*
X120900Y128250D02*X121650Y127500D01*
X120900Y129750D02*Y128250D01*
Y129750D02*X121650Y130500D01*
X123150D01*
X123900Y129750D01*
X120900Y129000D02*X123900D01*
Y129750D02*Y129000D01*
X126450Y127500D02*X128700D01*
X129450Y128250D01*
X128700Y129000D02*X129450Y128250D01*
X126450Y129000D02*X128700D01*
X125700Y129750D02*X126450Y129000D01*
X125700Y129750D02*X126450Y130500D01*
X128700D01*
X129450Y129750D01*
X125700Y128250D02*X126450Y127500D01*
X133950Y130500D02*Y128250D01*
X134700Y127500D01*
X136200D01*
X136950Y128250D01*
Y130500D02*Y128250D01*
X139500Y127500D02*X141750D01*
X142500Y128250D01*
X141750Y129000D02*X142500Y128250D01*
X139500Y129000D02*X141750D01*
X138750Y129750D02*X139500Y129000D01*
X138750Y129750D02*X139500Y130500D01*
X141750D01*
X142500Y129750D01*
X138750Y128250D02*X139500Y127500D01*
X145050D02*X147300D01*
X144300Y128250D02*X145050Y127500D01*
X144300Y129750D02*Y128250D01*
Y129750D02*X145050Y130500D01*
X146550D01*
X147300Y129750D01*
X144300Y129000D02*X147300D01*
Y129750D02*Y129000D01*
X152100Y133500D02*Y127500D01*
X151350D02*X152100Y128250D01*
X149850Y127500D02*X151350D01*
X149100Y128250D02*X149850Y127500D01*
X149100Y129750D02*Y128250D01*
Y129750D02*X149850Y130500D01*
X151350D01*
X152100Y129750D01*
G54D53*X156600Y132000D02*Y131850D01*
G54D52*Y129750D02*Y127500D01*
X158850Y129750D02*Y127500D01*
Y129750D02*X159600Y130500D01*
X160350D01*
X161100Y129750D01*
Y127500D01*
X158100Y130500D02*X158850Y129750D01*
X166350Y133500D02*Y128250D01*
X167100Y127500D01*
X165600Y131250D02*X167100D01*
X168600Y133500D02*Y127500D01*
Y129750D02*X169350Y130500D01*
X170850D01*
X171600Y129750D01*
Y127500D01*
G54D53*X173400Y132000D02*Y131850D01*
G54D52*Y129750D02*Y127500D01*
X175650D02*X177900D01*
X178650Y128250D01*
X177900Y129000D02*X178650Y128250D01*
X175650Y129000D02*X177900D01*
X174900Y129750D02*X175650Y129000D01*
X174900Y129750D02*X175650Y130500D01*
X177900D01*
X178650Y129750D01*
X174900Y128250D02*X175650Y127500D01*
X183150Y133500D02*Y128250D01*
X183900Y127500D01*
X187650Y130500D02*X188400Y129750D01*
X186150Y130500D02*X187650D01*
X185400Y129750D02*X186150Y130500D01*
X185400Y129750D02*Y128250D01*
X186150Y127500D01*
X188400Y130500D02*Y128250D01*
X189150Y127500D01*
X186150D02*X187650D01*
X188400Y128250D01*
X190950Y130500D02*Y128250D01*
X191700Y127500D01*
X193950Y130500D02*Y126000D01*
X193200Y125250D02*X193950Y126000D01*
X191700Y125250D02*X193200D01*
X190950Y126000D02*X191700Y125250D01*
Y127500D02*X193200D01*
X193950Y128250D01*
X195750Y129750D02*Y128250D01*
Y129750D02*X196500Y130500D01*
X198000D01*
X198750Y129750D01*
Y128250D01*
X198000Y127500D02*X198750Y128250D01*
X196500Y127500D02*X198000D01*
X195750Y128250D02*X196500Y127500D01*
X200550Y130500D02*Y128250D01*
X201300Y127500D01*
X202800D01*
X203550Y128250D01*
Y130500D02*Y128250D01*
X206100Y133500D02*Y128250D01*
X206850Y127500D01*
X205350Y131250D02*X206850D01*
X208350Y126000D02*X209850Y127500D01*
X214350Y132750D02*X215100Y133500D01*
X216600D01*
X217350Y132750D01*
X216600Y127500D02*X217350Y128250D01*
X215100Y127500D02*X216600D01*
X214350Y128250D02*X215100Y127500D01*
Y130800D02*X216600D01*
X217350Y132750D02*Y131550D01*
Y130050D02*Y128250D01*
Y130050D02*X216600Y130800D01*
X217350Y131550D02*X216600Y130800D01*
X219150Y132750D02*X219900Y133500D01*
X222150D01*
X222900Y132750D01*
Y131250D01*
X219150Y127500D02*X222900Y131250D01*
X219150Y127500D02*X222900D01*
X227400Y133500D02*Y127500D01*
Y129750D02*X228150Y130500D01*
X229650D01*
X230400Y129750D01*
Y127500D01*
X232200Y129750D02*Y128250D01*
Y129750D02*X232950Y130500D01*
X234450D01*
X235200Y129750D01*
Y128250D01*
X234450Y127500D02*X235200Y128250D01*
X232950Y127500D02*X234450D01*
X232200Y128250D02*X232950Y127500D01*
X237000Y133500D02*Y128250D01*
X237750Y127500D01*
X240000D02*X242250D01*
X239250Y128250D02*X240000Y127500D01*
X239250Y129750D02*Y128250D01*
Y129750D02*X240000Y130500D01*
X241500D01*
X242250Y129750D01*
X239250Y129000D02*X242250D01*
Y129750D02*Y129000D01*
X244800Y127500D02*X247050D01*
X247800Y128250D01*
X247050Y129000D02*X247800Y128250D01*
X244800Y129000D02*X247050D01*
X244050Y129750D02*X244800Y129000D01*
X244050Y129750D02*X244800Y130500D01*
X247050D01*
X247800Y129750D01*
X244050Y128250D02*X244800Y127500D01*
X253050Y133500D02*Y128250D01*
X253800Y127500D01*
X252300Y131250D02*X253800D01*
X255300Y129750D02*Y128250D01*
Y129750D02*X256050Y130500D01*
X257550D01*
X258300Y129750D01*
Y128250D01*
X257550Y127500D02*X258300Y128250D01*
X256050Y127500D02*X257550D01*
X255300Y128250D02*X256050Y127500D01*
X260850Y133500D02*Y128250D01*
X261600Y127500D01*
X260100Y131250D02*X261600D01*
X265350Y130500D02*X266100Y129750D01*
X263850Y130500D02*X265350D01*
X263100Y129750D02*X263850Y130500D01*
X263100Y129750D02*Y128250D01*
X263850Y127500D01*
X266100Y130500D02*Y128250D01*
X266850Y127500D01*
X263850D02*X265350D01*
X266100Y128250D01*
X268650Y133500D02*Y128250D01*
X269400Y127500D01*
G54D54*X227500Y10000D02*X10000D01*
X227500Y35000D02*Y10000D01*
X10000Y35000D02*X227500D01*
X10000D02*Y10000D01*
G54D52*X33675Y-9500D02*X36675D01*
X37425Y-8750D01*
Y-6950D02*Y-8750D01*
X36675Y-6200D02*X37425Y-6950D01*
X34425Y-6200D02*X36675D01*
X34425Y-3500D02*Y-9500D01*
X33675Y-3500D02*X36675D01*
X37425Y-4250D01*
Y-5450D01*
X36675Y-6200D02*X37425Y-5450D01*
X39225Y-7250D02*Y-8750D01*
Y-7250D02*X39975Y-6500D01*
X41475D01*
X42225Y-7250D01*
Y-8750D01*
X41475Y-9500D02*X42225Y-8750D01*
X39975Y-9500D02*X41475D01*
X39225Y-8750D02*X39975Y-9500D01*
X46275Y-6500D02*X47025Y-7250D01*
X44775Y-6500D02*X46275D01*
X44025Y-7250D02*X44775Y-6500D01*
X44025Y-7250D02*Y-8750D01*
X44775Y-9500D01*
X47025Y-6500D02*Y-8750D01*
X47775Y-9500D01*
X44775D02*X46275D01*
X47025Y-8750D01*
X50325Y-7250D02*Y-9500D01*
Y-7250D02*X51075Y-6500D01*
X52575D01*
X49575D02*X50325Y-7250D01*
X57375Y-3500D02*Y-9500D01*
X56625D02*X57375Y-8750D01*
X55125Y-9500D02*X56625D01*
X54375Y-8750D02*X55125Y-9500D01*
X54375Y-7250D02*Y-8750D01*
Y-7250D02*X55125Y-6500D01*
X56625D01*
X57375Y-7250D01*
X61875D02*Y-8750D01*
Y-7250D02*X62625Y-6500D01*
X64125D01*
X64875Y-7250D01*
Y-8750D01*
X64125Y-9500D02*X64875Y-8750D01*
X62625Y-9500D02*X64125D01*
X61875Y-8750D02*X62625Y-9500D01*
X66675Y-6500D02*Y-8750D01*
X67425Y-9500D01*
X68925D01*
X69675Y-8750D01*
Y-6500D02*Y-8750D01*
X72225Y-3500D02*Y-8750D01*
X72975Y-9500D01*
X71475Y-5750D02*X72975D01*
X74475Y-3500D02*Y-8750D01*
X75225Y-9500D01*
G54D53*X76725Y-5000D02*Y-5150D01*
G54D52*Y-7250D02*Y-9500D01*
X78975Y-7250D02*Y-9500D01*
Y-7250D02*X79725Y-6500D01*
X80475D01*
X81225Y-7250D01*
Y-9500D01*
X78225Y-6500D02*X78975Y-7250D01*
X83775Y-9500D02*X86025D01*
X83025Y-8750D02*X83775Y-9500D01*
X83025Y-7250D02*Y-8750D01*
Y-7250D02*X83775Y-6500D01*
X85275D01*
X86025Y-7250D01*
X83025Y-8000D02*X86025D01*
Y-7250D02*Y-8000D01*
G54D53*X90525Y-5000D02*Y-5150D01*
G54D52*Y-7250D02*Y-9500D01*
X92775D02*X95025D01*
X95775Y-8750D01*
X95025Y-8000D02*X95775Y-8750D01*
X92775Y-8000D02*X95025D01*
X92025Y-7250D02*X92775Y-8000D01*
X92025Y-7250D02*X92775Y-6500D01*
X95025D01*
X95775Y-7250D01*
X92025Y-8750D02*X92775Y-9500D01*
X101025Y-3500D02*Y-8750D01*
X101775Y-9500D01*
X100275Y-5750D02*X101775D01*
X103275Y-3500D02*Y-9500D01*
Y-7250D02*X104025Y-6500D01*
X105525D01*
X106275Y-7250D01*
Y-9500D01*
X108825D02*X111075D01*
X108075Y-8750D02*X108825Y-9500D01*
X108075Y-7250D02*Y-8750D01*
Y-7250D02*X108825Y-6500D01*
X110325D01*
X111075Y-7250D01*
X108075Y-8000D02*X111075D01*
Y-7250D02*Y-8000D01*
X116325Y-6500D02*X118575D01*
X115575Y-7250D02*X116325Y-6500D01*
X115575Y-7250D02*Y-8750D01*
X116325Y-9500D01*
X118575D01*
X121125D02*X123375D01*
X120375Y-8750D02*X121125Y-9500D01*
X120375Y-7250D02*Y-8750D01*
Y-7250D02*X121125Y-6500D01*
X122625D01*
X123375Y-7250D01*
X120375Y-8000D02*X123375D01*
Y-7250D02*Y-8000D01*
X125925Y-7250D02*Y-9500D01*
Y-7250D02*X126675Y-6500D01*
X127425D01*
X128175Y-7250D01*
Y-9500D01*
X125175Y-6500D02*X125925Y-7250D01*
X130725Y-3500D02*Y-8750D01*
X131475Y-9500D01*
X129975Y-5750D02*X131475D01*
X133725Y-9500D02*X135975D01*
X132975Y-8750D02*X133725Y-9500D01*
X132975Y-7250D02*Y-8750D01*
Y-7250D02*X133725Y-6500D01*
X135225D01*
X135975Y-7250D01*
X132975Y-8000D02*X135975D01*
Y-7250D02*Y-8000D01*
X138525Y-7250D02*Y-9500D01*
Y-7250D02*X139275Y-6500D01*
X140775D01*
X137775D02*X138525Y-7250D01*
X142575Y-3500D02*Y-8750D01*
X143325Y-9500D01*
G54D53*X144825Y-5000D02*Y-5150D01*
G54D52*Y-7250D02*Y-9500D01*
X147075Y-7250D02*Y-9500D01*
Y-7250D02*X147825Y-6500D01*
X148575D01*
X149325Y-7250D01*
Y-9500D01*
X146325Y-6500D02*X147075Y-7250D01*
X151875Y-9500D02*X154125D01*
X151125Y-8750D02*X151875Y-9500D01*
X151125Y-7250D02*Y-8750D01*
Y-7250D02*X151875Y-6500D01*
X153375D01*
X154125Y-7250D01*
X151125Y-8000D02*X154125D01*
Y-7250D02*Y-8000D01*
X158625Y-7250D02*Y-8750D01*
Y-7250D02*X159375Y-6500D01*
X160875D01*
X161625Y-7250D01*
Y-8750D01*
X160875Y-9500D02*X161625Y-8750D01*
X159375Y-9500D02*X160875D01*
X158625Y-8750D02*X159375Y-9500D01*
X164175Y-4250D02*Y-9500D01*
Y-4250D02*X164925Y-3500D01*
X165675D01*
X163425Y-6500D02*X164925D01*
X170625Y-3500D02*Y-8750D01*
X171375Y-9500D01*
X169875Y-5750D02*X171375D01*
X172875Y-3500D02*Y-9500D01*
Y-7250D02*X173625Y-6500D01*
X175125D01*
X175875Y-7250D01*
Y-9500D01*
G54D53*X177675Y-5000D02*Y-5150D01*
G54D52*Y-7250D02*Y-9500D01*
X179925D02*X182175D01*
X182925Y-8750D01*
X182175Y-8000D02*X182925Y-8750D01*
X179925Y-8000D02*X182175D01*
X179175Y-7250D02*X179925Y-8000D01*
X179175Y-7250D02*X179925Y-6500D01*
X182175D01*
X182925Y-7250D01*
X179175Y-8750D02*X179925Y-9500D01*
X188175Y-7250D02*Y-11750D01*
X187425Y-6500D02*X188175Y-7250D01*
X188925Y-6500D01*
X190425D01*
X191175Y-7250D01*
Y-8750D01*
X190425Y-9500D02*X191175Y-8750D01*
X188925Y-9500D02*X190425D01*
X188175Y-8750D02*X188925Y-9500D01*
X195225Y-6500D02*X195975Y-7250D01*
X193725Y-6500D02*X195225D01*
X192975Y-7250D02*X193725Y-6500D01*
X192975Y-7250D02*Y-8750D01*
X193725Y-9500D01*
X195975Y-6500D02*Y-8750D01*
X196725Y-9500D01*
X193725D02*X195225D01*
X195975Y-8750D01*
X199275Y-3500D02*Y-8750D01*
X200025Y-9500D01*
X198525Y-5750D02*X200025D01*
X201525Y-3500D02*Y-9500D01*
Y-7250D02*X202275Y-6500D01*
X203775D01*
X204525Y-7250D01*
Y-9500D01*
X200750Y73500D02*Y67500D01*
X202700Y73500D02*X203750Y72450D01*
Y68550D01*
X202700Y67500D02*X203750Y68550D01*
X200000Y67500D02*X202700D01*
X200000Y73500D02*X202700D01*
X207800Y70500D02*X208550Y69750D01*
X206300Y70500D02*X207800D01*
X205550Y69750D02*X206300Y70500D01*
X205550Y69750D02*Y68250D01*
X206300Y67500D01*
X208550Y70500D02*Y68250D01*
X209300Y67500D01*
X206300D02*X207800D01*
X208550Y68250D01*
X211850Y73500D02*Y68250D01*
X212600Y67500D01*
X211100Y71250D02*X212600D01*
X214850Y67500D02*X217100D01*
X214100Y68250D02*X214850Y67500D01*
X214100Y69750D02*Y68250D01*
Y69750D02*X214850Y70500D01*
X216350D01*
X217100Y69750D01*
X214100Y69000D02*X217100D01*
Y69750D02*Y69000D01*
X218900Y71250D02*X219650D01*
X218900Y69750D02*X219650D01*
X224150Y73500D02*Y67500D01*
Y73500D02*X226400Y70500D01*
X228650Y73500D01*
Y67500D01*
X230450Y69750D02*Y68250D01*
Y69750D02*X231200Y70500D01*
X232700D01*
X233450Y69750D01*
Y68250D01*
X232700Y67500D02*X233450Y68250D01*
X231200Y67500D02*X232700D01*
X230450Y68250D02*X231200Y67500D01*
X236000Y69750D02*Y67500D01*
Y69750D02*X236750Y70500D01*
X237500D01*
X238250Y69750D01*
Y67500D01*
X235250Y70500D02*X236000Y69750D01*
X242750Y72750D02*Y68250D01*
Y72750D02*X243500Y73500D01*
X245000D01*
X245750Y72750D01*
Y68250D01*
X245000Y67500D02*X245750Y68250D01*
X243500Y67500D02*X245000D01*
X242750Y68250D02*X243500Y67500D01*
X248300Y70500D02*X250550D01*
X247550Y69750D02*X248300Y70500D01*
X247550Y69750D02*Y68250D01*
X248300Y67500D01*
X250550D01*
X253100Y73500D02*Y68250D01*
X253850Y67500D01*
X252350Y71250D02*X253850D01*
X258050Y72300D02*X259250Y73500D01*
Y67500D01*
X258050D02*X260300D01*
X262100Y72750D02*X262850Y73500D01*
X265100D01*
X265850Y72750D01*
Y71250D01*
X262100Y67500D02*X265850Y71250D01*
X262100Y67500D02*X265850D01*
X270350Y72750D02*X271100Y73500D01*
X273350D01*
X274100Y72750D01*
Y71250D01*
X270350Y67500D02*X274100Y71250D01*
X270350Y67500D02*X274100D01*
X275900Y72750D02*X276650Y73500D01*
X278150D01*
X278900Y72750D01*
X278150Y67500D02*X278900Y68250D01*
X276650Y67500D02*X278150D01*
X275900Y68250D02*X276650Y67500D01*
Y70800D02*X278150D01*
X278900Y72750D02*Y71550D01*
Y70050D02*Y68250D01*
Y70050D02*X278150Y70800D01*
X278900Y71550D02*X278150Y70800D01*
X280700Y71250D02*X281450D01*
X280700Y69750D02*X281450D01*
X283250D02*X286250Y73500D01*
X283250Y69750D02*X287000D01*
X286250Y73500D02*Y67500D01*
X288800Y68250D02*X289550Y67500D01*
X288800Y69450D02*Y68250D01*
Y69450D02*X289850Y70500D01*
X290750D01*
X291800Y69450D01*
Y68250D01*
X291050Y67500D02*X291800Y68250D01*
X289550Y67500D02*X291050D01*
X288800Y71550D02*X289850Y70500D01*
X288800Y72750D02*Y71550D01*
Y72750D02*X289550Y73500D01*
X291050D01*
X291800Y72750D01*
Y71550D01*
X290750Y70500D02*X291800Y71550D01*
X293600Y71250D02*X294350D01*
X293600Y69750D02*X294350D01*
X296150Y72750D02*X296900Y73500D01*
X299150D01*
X299900Y72750D01*
Y71250D01*
X296150Y67500D02*X299900Y71250D01*
X296150Y67500D02*X299900D01*
X303950Y73500D02*X304700Y72750D01*
X302450Y73500D02*X303950D01*
X301700Y72750D02*X302450Y73500D01*
X301700Y72750D02*Y68250D01*
X302450Y67500D01*
X303950Y70800D02*X304700Y70050D01*
X301700Y70800D02*X303950D01*
X302450Y67500D02*X303950D01*
X304700Y68250D01*
Y70050D02*Y68250D01*
X309200Y72750D02*X309950Y73500D01*
X312200D01*
X312950Y72750D01*
Y71250D01*
X309200Y67500D02*X312950Y71250D01*
X309200Y67500D02*X312950D01*
X314750Y68250D02*X315500Y67500D01*
X314750Y72750D02*Y68250D01*
Y72750D02*X315500Y73500D01*
X317000D01*
X317750Y72750D01*
Y68250D01*
X317000Y67500D02*X317750Y68250D01*
X315500Y67500D02*X317000D01*
X314750Y69000D02*X317750Y72000D01*
X319550Y72750D02*X320300Y73500D01*
X322550D01*
X323300Y72750D01*
Y71250D01*
X319550Y67500D02*X323300Y71250D01*
X319550Y67500D02*X323300D01*
X325100Y68250D02*X325850Y67500D01*
X325100Y72750D02*Y68250D01*
Y72750D02*X325850Y73500D01*
X327350D01*
X328100Y72750D01*
Y68250D01*
X327350Y67500D02*X328100Y68250D01*
X325850Y67500D02*X327350D01*
X325100Y69000D02*X328100Y72000D01*
X332600Y73500D02*Y68250D01*
X333350Y67500D01*
X334850D01*
X335600Y68250D01*
Y73500D02*Y68250D01*
X337400Y73500D02*X340400D01*
X338900D02*Y67500D01*
X343250D02*X345200D01*
X342200Y68550D02*X343250Y67500D01*
X342200Y72450D02*Y68550D01*
Y72450D02*X343250Y73500D01*
X345200D01*
X200000Y87000D02*Y82500D01*
Y87000D02*X201050Y88500D01*
X202700D01*
X203750Y87000D01*
Y82500D01*
X200000Y85500D02*X203750D01*
X205550D02*Y83250D01*
X206300Y82500D01*
X207800D01*
X208550Y83250D01*
Y85500D02*Y83250D01*
X211100Y88500D02*Y83250D01*
X211850Y82500D01*
X210350Y86250D02*X211850D01*
X213350Y88500D02*Y82500D01*
Y84750D02*X214100Y85500D01*
X215600D01*
X216350Y84750D01*
Y82500D01*
X218150Y84750D02*Y83250D01*
Y84750D02*X218900Y85500D01*
X220400D01*
X221150Y84750D01*
Y83250D01*
X220400Y82500D02*X221150Y83250D01*
X218900Y82500D02*X220400D01*
X218150Y83250D02*X218900Y82500D01*
X223700Y84750D02*Y82500D01*
Y84750D02*X224450Y85500D01*
X225950D01*
X222950D02*X223700Y84750D01*
X227750Y86250D02*X228500D01*
X227750Y84750D02*X228500D01*
X233000Y88500D02*Y82500D01*
Y88500D02*X235250Y85500D01*
X237500Y88500D01*
Y82500D01*
G54D53*X239300Y87000D02*Y86850D01*
G54D52*Y84750D02*Y82500D01*
X241550Y85500D02*X243800D01*
X240800Y84750D02*X241550Y85500D01*
X240800Y84750D02*Y83250D01*
X241550Y82500D01*
X243800D01*
X245600Y88500D02*Y82500D01*
Y84750D02*X246350Y85500D01*
X247850D01*
X248600Y84750D01*
Y82500D01*
X252650Y85500D02*X253400Y84750D01*
X251150Y85500D02*X252650D01*
X250400Y84750D02*X251150Y85500D01*
X250400Y84750D02*Y83250D01*
X251150Y82500D01*
X253400Y85500D02*Y83250D01*
X254150Y82500D01*
X251150D02*X252650D01*
X253400Y83250D01*
X256700Y82500D02*X258950D01*
X255950Y83250D02*X256700Y82500D01*
X255950Y84750D02*Y83250D01*
Y84750D02*X256700Y85500D01*
X258200D01*
X258950Y84750D01*
X255950Y84000D02*X258950D01*
Y84750D02*Y84000D01*
X260750Y88500D02*Y83250D01*
X261500Y82500D01*
X266450Y88500D02*Y82500D01*
X265700Y88500D02*X268700D01*
X269450Y87750D01*
Y86250D01*
X268700Y85500D02*X269450Y86250D01*
X266450Y85500D02*X268700D01*
X272000Y82500D02*X274250D01*
X271250Y83250D02*X272000Y82500D01*
X271250Y84750D02*Y83250D01*
Y84750D02*X272000Y85500D01*
X273500D01*
X274250Y84750D01*
X271250Y84000D02*X274250D01*
Y84750D02*Y84000D01*
X276800Y88500D02*Y83250D01*
X277550Y82500D01*
X276050Y86250D02*X277550D01*
X279800Y82500D02*X282050D01*
X279050Y83250D02*X279800Y82500D01*
X279050Y84750D02*Y83250D01*
Y84750D02*X279800Y85500D01*
X281300D01*
X282050Y84750D01*
X279050Y84000D02*X282050D01*
Y84750D02*Y84000D01*
X284600Y84750D02*Y82500D01*
Y84750D02*X285350Y85500D01*
X286850D01*
X283850D02*X284600Y84750D01*
X289400Y82500D02*X291650D01*
X292400Y83250D01*
X291650Y84000D02*X292400Y83250D01*
X289400Y84000D02*X291650D01*
X288650Y84750D02*X289400Y84000D01*
X288650Y84750D02*X289400Y85500D01*
X291650D01*
X292400Y84750D01*
X288650Y83250D02*X289400Y82500D01*
X294950D02*X297200D01*
X294200Y83250D02*X294950Y82500D01*
X294200Y84750D02*Y83250D01*
Y84750D02*X294950Y85500D01*
X296450D01*
X297200Y84750D01*
X294200Y84000D02*X297200D01*
Y84750D02*Y84000D01*
X299750Y84750D02*Y82500D01*
Y84750D02*X300500Y85500D01*
X301250D01*
X302000Y84750D01*
Y82500D01*
X299000Y85500D02*X299750Y84750D01*
X200000Y103500D02*X203000D01*
X201500D02*Y97500D01*
G54D53*X204800Y102000D02*Y101850D01*
G54D52*Y99750D02*Y97500D01*
X207050Y103500D02*Y98250D01*
X207800Y97500D01*
X206300Y101250D02*X207800D01*
X209300Y103500D02*Y98250D01*
X210050Y97500D01*
X212300D02*X214550D01*
X211550Y98250D02*X212300Y97500D01*
X211550Y99750D02*Y98250D01*
Y99750D02*X212300Y100500D01*
X213800D01*
X214550Y99750D01*
X211550Y99000D02*X214550D01*
Y99750D02*Y99000D01*
X216350Y101250D02*X217100D01*
X216350Y99750D02*X217100D01*
X221600Y98250D02*X222350Y97500D01*
X221600Y102750D02*X222350Y103500D01*
X221600Y102750D02*Y98250D01*
X224150Y100500D02*Y98250D01*
X224900Y97500D01*
X226400D01*
X227150Y98250D01*
Y100500D02*Y98250D01*
X229700Y99750D02*Y97500D01*
Y99750D02*X230450Y100500D01*
X231200D01*
X231950Y99750D01*
Y97500D01*
X228950Y100500D02*X229700Y99750D01*
X233750Y103500D02*Y97500D01*
Y99750D02*X236000Y97500D01*
X233750Y99750D02*X235250Y101250D01*
X238550Y99750D02*Y97500D01*
Y99750D02*X239300Y100500D01*
X240050D01*
X240800Y99750D01*
Y97500D01*
X237800Y100500D02*X238550Y99750D01*
X242600D02*Y98250D01*
Y99750D02*X243350Y100500D01*
X244850D01*
X245600Y99750D01*
Y98250D01*
X244850Y97500D02*X245600Y98250D01*
X243350Y97500D02*X244850D01*
X242600Y98250D02*X243350Y97500D01*
X247400Y100500D02*Y98250D01*
X248150Y97500D01*
X248900D01*
X249650Y98250D01*
Y100500D02*Y98250D01*
X250400Y97500D01*
X251150D01*
X251900Y98250D01*
Y100500D02*Y98250D01*
X254450Y99750D02*Y97500D01*
Y99750D02*X255200Y100500D01*
X255950D01*
X256700Y99750D01*
Y97500D01*
X253700Y100500D02*X254450Y99750D01*
X258500Y103500D02*X259250Y102750D01*
Y98250D01*
X258500Y97500D02*X259250Y98250D01*
X263750Y100500D02*X266750D01*
X271250Y103500D02*Y97500D01*
Y103500D02*X274250D01*
X271250Y100800D02*X273500D01*
X278300Y100500D02*X279050Y99750D01*
X276800Y100500D02*X278300D01*
X276050Y99750D02*X276800Y100500D01*
X276050Y99750D02*Y98250D01*
X276800Y97500D01*
X279050Y100500D02*Y98250D01*
X279800Y97500D01*
X276800D02*X278300D01*
X279050Y98250D01*
X281600Y103500D02*Y97500D01*
Y98250D02*X282350Y97500D01*
X283850D01*
X284600Y98250D01*
Y99750D02*Y98250D01*
X283850Y100500D02*X284600Y99750D01*
X282350Y100500D02*X283850D01*
X281600Y99750D02*X282350Y100500D01*
X287150Y99750D02*Y97500D01*
Y99750D02*X287900Y100500D01*
X289400D01*
X286400D02*X287150Y99750D01*
G54D53*X291200Y102000D02*Y101850D01*
G54D52*Y99750D02*Y97500D01*
X293450Y100500D02*X295700D01*
X292700Y99750D02*X293450Y100500D01*
X292700Y99750D02*Y98250D01*
X293450Y97500D01*
X295700D01*
X299750Y100500D02*X300500Y99750D01*
X298250Y100500D02*X299750D01*
X297500Y99750D02*X298250Y100500D01*
X297500Y99750D02*Y98250D01*
X298250Y97500D01*
X300500Y100500D02*Y98250D01*
X301250Y97500D01*
X298250D02*X299750D01*
X300500Y98250D01*
X303800Y103500D02*Y98250D01*
X304550Y97500D01*
X303050Y101250D02*X304550D01*
G54D53*X306050Y102000D02*Y101850D01*
G54D52*Y99750D02*Y97500D01*
X307550Y99750D02*Y98250D01*
Y99750D02*X308300Y100500D01*
X309800D01*
X310550Y99750D01*
Y98250D01*
X309800Y97500D02*X310550Y98250D01*
X308300Y97500D02*X309800D01*
X307550Y98250D02*X308300Y97500D01*
X313100Y99750D02*Y97500D01*
Y99750D02*X313850Y100500D01*
X314600D01*
X315350Y99750D01*
Y97500D01*
X312350Y100500D02*X313100Y99750D01*
X320600Y103500D02*Y97500D01*
X322550Y103500D02*X323600Y102450D01*
Y98550D01*
X322550Y97500D02*X323600Y98550D01*
X319850Y97500D02*X322550D01*
X319850Y103500D02*X322550D01*
X326150Y99750D02*Y97500D01*
Y99750D02*X326900Y100500D01*
X328400D01*
X325400D02*X326150Y99750D01*
X332450Y100500D02*X333200Y99750D01*
X330950Y100500D02*X332450D01*
X330200Y99750D02*X330950Y100500D01*
X330200Y99750D02*Y98250D01*
X330950Y97500D01*
X333200Y100500D02*Y98250D01*
X333950Y97500D01*
X330950D02*X332450D01*
X333200Y98250D01*
X335750Y100500D02*Y98250D01*
X336500Y97500D01*
X337250D01*
X338000Y98250D01*
Y100500D02*Y98250D01*
X338750Y97500D01*
X339500D01*
X340250Y98250D01*
Y100500D02*Y98250D01*
G54D53*X342050Y102000D02*Y101850D01*
G54D52*Y99750D02*Y97500D01*
X344300Y99750D02*Y97500D01*
Y99750D02*X345050Y100500D01*
X345800D01*
X346550Y99750D01*
Y97500D01*
X343550Y100500D02*X344300Y99750D01*
X350600Y100500D02*X351350Y99750D01*
X349100Y100500D02*X350600D01*
X348350Y99750D02*X349100Y100500D01*
X348350Y99750D02*Y98250D01*
X349100Y97500D01*
X350600D01*
X351350Y98250D01*
X348350Y96000D02*X349100Y95250D01*
X350600D01*
X351350Y96000D01*
Y100500D02*Y96000D01*
M02*
