G04 start of page 10 for group -4078 idx -4078 *
G04 Title: (unknown), bottomsilk *
G04 Creator: pcb 4.0.2 *
G04 CreationDate: Mon Oct 12 23:48:26 2020 UTC *
G04 For: petersen *
G04 Format: Gerber/RS-274X *
G04 PCB-Dimensions (mil): 2400.00 450.00 *
G04 PCB-Coordinate-Origin: lower left *
%MOIN*%
%FSLAX25Y25*%
%LNBOTTOMSILK*%
%ADD47C,0.0080*%
%ADD46C,0.0100*%
G54D46*X10500Y34500D02*X227000D01*
Y10500D02*X10500D01*
X227000Y34500D02*Y10500D01*
X10500Y34500D02*Y10500D01*
G54D47*X181217Y31380D02*X183457D01*
X182337Y26900D02*Y31380D01*
X179313Y26900D02*Y28580D01*
X178753Y29140D01*
X177633D02*X178753D01*
X179873D02*X179313Y28580D01*
X174609Y29140D02*X174049Y28580D01*
X174609Y29140D02*X175729D01*
X176289Y28580D02*X175729Y29140D01*
X176289Y27460D02*Y28580D01*
Y27460D02*X175729Y26900D01*
X174049Y27460D02*Y29140D01*
Y27460D02*X173489Y26900D01*
X174609D02*X175729D01*
X174609D02*X174049Y27460D01*
X172145Y30148D02*Y30260D01*
Y26900D02*Y28580D01*
X170465Y26900D02*Y28580D01*
X169905Y29140D01*
X169345D02*X169905D01*
X169345D02*X168785Y28580D01*
Y26900D02*Y28580D01*
X171025Y29140D02*X170465Y28580D01*
X165201Y31380D02*X164641Y30820D01*
X165201Y31380D02*X166881D01*
X167441Y30820D02*X166881Y31380D01*
X167441Y29700D02*Y30820D01*
Y29700D02*X166881Y29140D01*
X165201D02*X166881D01*
X165201D02*X164641Y28580D01*
Y27460D02*Y28580D01*
X165201Y26900D02*X164641Y27460D01*
X165201Y26900D02*X166881D01*
X167441Y27460D02*X166881Y26900D01*
X162737Y25220D02*Y28580D01*
X163297Y29140D02*X162737Y28580D01*
X162177Y29140D01*
X161057D02*X162177D01*
X161057D02*X160497Y28580D01*
Y27460D02*Y28580D01*
X161057Y26900D02*X160497Y27460D01*
X161057Y26900D02*X162177D01*
X162737Y27460D02*X162177Y26900D01*
X159153Y27460D02*Y28580D01*
X158593Y29140D01*
X157473D02*X158593D01*
X157473D02*X156913Y28580D01*
Y27460D02*Y28580D01*
X157473Y26900D02*X156913Y27460D01*
X157473Y26900D02*X158593D01*
X159153Y27460D02*X158593Y26900D01*
X155009Y27460D02*Y31380D01*
Y27460D02*X154449Y26900D01*
Y29700D02*X155569D01*
X152769Y27460D02*Y31380D01*
Y27460D02*X152209Y26900D01*
Y29700D02*X153329D01*
X148849Y26900D02*X150529D01*
X151089Y27460D02*X150529Y26900D01*
X151089Y27460D02*Y28580D01*
X150529Y29140D01*
X149409D02*X150529D01*
X149409D02*X148849Y28580D01*
Y28020D02*X151089D01*
X148849D02*Y28580D01*
X146945Y26900D02*Y28580D01*
X146385Y29140D01*
X145265D02*X146385D01*
X147505D02*X146945Y28580D01*
X191200Y20000D02*X192370D01*
X193000Y20630D02*X192370Y20000D01*
X193000Y20630D02*Y22970D01*
X192370Y23600D01*
X191200D02*X192370D01*
X190120Y20000D02*Y23600D01*
Y21800D02*X188320Y23600D01*
X190120Y21800D02*X188320Y20000D01*
X185440Y23600D02*X187240D01*
X186340Y20000D02*Y23600D01*
X182560Y21800D02*X184360D01*
X180580Y23600D02*X181480D01*
X181030Y20000D02*Y23600D01*
X180580Y20000D02*X181480D01*
X177700Y23600D02*X179500D01*
X177700D02*X177250Y23150D01*
Y22250D02*Y23150D01*
X177700Y21800D02*X177250Y22250D01*
X177700Y21800D02*X179050D01*
Y20000D02*Y23600D01*
X178330Y21800D02*X177250Y20000D01*
X174370Y23600D02*X173920Y23150D01*
X174370Y23600D02*X175720D01*
X176170Y23150D02*X175720Y23600D01*
X176170Y22250D02*Y23150D01*
Y22250D02*X175720Y21800D01*
X174370D02*X175720D01*
X174370D02*X173920Y21350D01*
Y20450D02*Y21350D01*
X174370Y20000D02*X173920Y20450D01*
X174370Y20000D02*X175720D01*
X176170Y20450D02*X175720Y20000D01*
X171490Y21980D02*X172840D01*
X171040Y20000D02*X172840D01*
Y23600D01*
X171040D02*X172840D01*
X169960Y20000D02*Y23600D01*
X167710Y20000D01*
Y23600D01*
X164830D02*X164380Y23150D01*
X164830Y23600D02*X166180D01*
X166630Y23150D02*X166180Y23600D01*
X166630Y22250D02*Y23150D01*
Y22250D02*X166180Y21800D01*
X164830D02*X166180D01*
X164830D02*X164380Y21350D01*
Y20450D02*Y21350D01*
X164830Y20000D02*X164380Y20450D01*
X164830Y20000D02*X166180D01*
X166630Y20450D02*X166180Y20000D01*
X161950Y21980D02*X163300D01*
X161500Y20000D02*X163300D01*
Y23600D01*
X161500D02*X163300D01*
X158620Y21800D02*X160420D01*
X155740Y23600D02*X157540D01*
X155740D02*X155290Y23150D01*
Y22250D02*Y23150D01*
X155740Y21800D02*X155290Y22250D01*
X155740Y21800D02*X157090D01*
Y20000D02*Y23600D01*
X156370Y21800D02*X155290Y20000D01*
X154210D02*Y22700D01*
X153580Y23600D01*
X152590D02*X153580D01*
X152590D02*X151960Y22700D01*
Y20000D02*Y22700D01*
Y21800D02*X154210D01*
X149260D02*X148360Y20000D01*
X147460Y21800D02*X148360Y20000D01*
X146380Y21350D02*X144580Y23600D01*
X144130Y21350D02*X146380D01*
X144580Y20000D02*Y23600D01*
X142600Y20000D02*X143050D01*
X141520Y22880D02*X140800Y23600D01*
Y20000D02*Y23600D01*
X140170Y20000D02*X141520D01*
X159000Y13900D02*X158600Y13500D01*
X159000Y16300D02*X158600Y16700D01*
X159000Y13900D02*Y16300D01*
X156040Y13500D02*X157080D01*
X157640Y14060D02*X157080Y13500D01*
X157640Y14060D02*Y16140D01*
X157080Y16700D01*
X156040D02*X157080D01*
X155080D02*X154680Y16300D01*
Y13900D02*Y16300D01*
X155080Y13500D02*X154680Y13900D01*
X153720Y16300D02*X153320Y16700D01*
X152120D02*X153320D01*
X152120D02*X151720Y16300D01*
Y15500D02*Y16300D01*
X153720Y13500D02*X151720Y15500D01*
Y13500D02*X153720D01*
X150760Y13900D02*X150360Y13500D01*
X150760Y13900D02*Y16300D01*
X150360Y16700D01*
X149560D02*X150360D01*
X149560D02*X149160Y16300D01*
Y13900D02*Y16300D01*
X149560Y13500D02*X149160Y13900D01*
X149560Y13500D02*X150360D01*
X150760Y14300D02*X149160Y15900D01*
X148200Y16300D02*X147800Y16700D01*
X146600D02*X147800D01*
X146600D02*X146200Y16300D01*
Y15500D02*Y16300D01*
X148200Y13500D02*X146200Y15500D01*
Y13500D02*X148200D01*
X145240Y13900D02*X144840Y13500D01*
X145240Y13900D02*Y16300D01*
X144840Y16700D01*
X144040D02*X144840D01*
X144040D02*X143640Y16300D01*
Y13900D02*Y16300D01*
X144040Y13500D02*X143640Y13900D01*
X144040Y13500D02*X144840D01*
X145240Y14300D02*X143640Y15900D01*
X183900Y13500D02*X184940D01*
X185500Y14060D02*X184940Y13500D01*
X185500Y14060D02*Y16140D01*
X184940Y16700D01*
X183900D02*X184940D01*
X181340Y13500D02*X182380D01*
X182940Y14060D02*X182380Y13500D01*
X182940Y14060D02*Y16140D01*
X182380Y16700D01*
X181340D02*X182380D01*
X178780Y15100D02*X180380D01*
X176220Y13500D02*X177820D01*
X176220D02*X175820Y13900D01*
Y14860D01*
X176220Y15260D02*X175820Y14860D01*
X176220Y15260D02*X177420D01*
Y13500D02*Y16700D01*
X176220D02*X177820D01*
X176220D02*X175820Y16300D01*
Y15660D02*Y16300D01*
X176220Y15260D02*X175820Y15660D01*
X174860Y16700D02*X174060Y15100D01*
X173260Y16700D01*
X174060Y13500D02*Y15100D01*
X170700D02*X172300D01*
X168140Y16700D02*X167740Y16300D01*
X168140Y16700D02*X169340D01*
X169740Y16300D02*X169340Y16700D01*
X169740Y15500D02*Y16300D01*
Y15500D02*X169340Y15100D01*
X168140D02*X169340D01*
X168140D02*X167740Y14700D01*
Y13900D02*Y14700D01*
X168140Y13500D02*X167740Y13900D01*
X168140Y13500D02*X169340D01*
X169740Y13900D02*X169340Y13500D01*
X166780D02*Y15900D01*
X166220Y16700D01*
X165340D02*X166220D01*
X165340D02*X164780Y15900D01*
Y13500D02*Y15900D01*
Y15100D02*X166780D01*
X219300Y26000D02*Y27500D01*
X221500Y25500D02*Y27500D01*
X217500D02*X221500D01*
X217500Y25500D02*Y27500D01*
X220000Y23800D02*X221500D01*
X220000D02*X219500Y23300D01*
Y22800D02*Y23300D01*
Y22800D02*X220000Y22300D01*
X221500D01*
X219500Y24300D02*X220000Y23800D01*
X219500Y19600D02*X220000Y19100D01*
X219500Y19600D02*Y20600D01*
X220000Y21100D02*X219500Y20600D01*
X220000Y21100D02*X221000D01*
X221500Y20600D01*
Y19600D02*Y20600D01*
Y19600D02*X221000Y19100D01*
X222500Y21100D02*X223000Y20600D01*
Y19600D02*Y20600D01*
Y19600D02*X222500Y19100D01*
X219500D02*X222500D01*
X221500Y17400D02*Y17900D01*
X211000Y29000D02*X211500Y28500D01*
X211000Y29000D02*Y30500D01*
X211500Y31000D02*X211000Y30500D01*
X211500Y31000D02*X212500D01*
X213000Y30500D01*
Y29000D02*Y30500D01*
Y29000D02*X213500Y28500D01*
X214500D01*
X215000Y29000D02*X214500Y28500D01*
X215000Y29000D02*Y30500D01*
X214500Y31000D02*X215000Y30500D01*
X213000Y25300D02*Y26800D01*
X213500Y27300D02*X213000Y26800D01*
X213500Y27300D02*X214500D01*
X215000Y26800D01*
Y25300D02*Y26800D01*
X213000Y22600D02*X213500Y22100D01*
X213000Y22600D02*Y23600D01*
X213500Y24100D02*X213000Y23600D01*
X213500Y24100D02*X214500D01*
X215000Y23600D01*
X213000Y22100D02*X214500D01*
X215000Y21600D01*
Y22600D02*Y23600D01*
Y22600D02*X214500Y22100D01*
X211000Y20400D02*X214500D01*
X215000Y19900D01*
Y16900D02*Y18400D01*
X214500Y18900D02*X215000Y18400D01*
X213500Y18900D02*X214500D01*
X213500D02*X213000Y18400D01*
Y17400D02*Y18400D01*
Y17400D02*X213500Y16900D01*
X214000D02*Y18900D01*
X213500Y16900D02*X214000D01*
X211000Y13700D02*X215000D01*
Y14200D02*X214500Y13700D01*
X215000Y14200D02*Y15200D01*
X214500Y15700D02*X215000Y15200D01*
X213500Y15700D02*X214500D01*
X213500D02*X213000Y15200D01*
Y14200D02*Y15200D01*
Y14200D02*X213500Y13700D01*
X204500Y27500D02*Y28500D01*
Y28000D02*X208500D01*
Y27500D02*Y28500D01*
X207000Y26300D02*X208000D01*
X207000D02*X206500Y25800D01*
Y24800D02*Y25800D01*
Y24800D02*X207000Y24300D01*
X208000D01*
X208500Y24800D02*X208000Y24300D01*
X208500Y24800D02*Y25800D01*
X208000Y26300D02*X208500Y25800D01*
X206500Y23100D02*X208000D01*
X208500Y22600D01*
Y22100D02*Y22600D01*
Y22100D02*X208000Y21600D01*
X206500D02*X208000D01*
X208500Y21100D01*
Y20600D02*Y21100D01*
Y20600D02*X208000Y20100D01*
X206500D02*X208000D01*
X206500Y17400D02*X207000Y16900D01*
X206500Y17400D02*Y18400D01*
X207000Y18900D02*X206500Y18400D01*
X207000Y18900D02*X208000D01*
X208500Y18400D01*
X206500Y16900D02*X208000D01*
X208500Y16400D01*
Y17400D02*Y18400D01*
Y17400D02*X208000Y16900D01*
X84457Y31631D02*Y31720D01*
Y29050D02*Y30385D01*
X82232Y30830D02*X81787Y30385D01*
X82232Y30830D02*X83122D01*
X83567Y30385D02*X83122Y30830D01*
X83567Y29495D02*Y30385D01*
Y29495D02*X83122Y29050D01*
X81787Y29495D02*Y30830D01*
Y29495D02*X81342Y29050D01*
X82232D02*X83122D01*
X82232D02*X81787Y29495D01*
X78494Y29050D02*X79829D01*
X78494D02*X78049Y29495D01*
X78494Y29940D02*X78049Y29495D01*
X78494Y29940D02*X79829D01*
X80274Y30385D02*X79829Y29940D01*
X80274Y30385D02*X79829Y30830D01*
X78494D02*X79829D01*
X78494D02*X78049Y30385D01*
X80274Y29495D02*X79829Y29050D01*
X75201Y30830D02*X76536D01*
X76981Y30385D02*X76536Y30830D01*
X76981Y29495D02*Y30385D01*
Y29495D02*X76536Y29050D01*
X75201D02*X76536D01*
X72798Y30830D02*X72353Y30385D01*
X72798Y30830D02*X73688D01*
X74133Y30385D02*X73688Y30830D01*
X74133Y29495D02*Y30385D01*
Y29495D02*X73688Y29050D01*
X72353Y29495D02*Y30830D01*
Y29495D02*X71908Y29050D01*
X72798D02*X73688D01*
X72798D02*X72353Y29495D01*
X70840D02*Y32610D01*
Y29495D02*X70395Y29050D01*
X67725D02*X69060D01*
X69505Y29495D02*X69060Y29050D01*
X69505Y29495D02*Y30385D01*
X69060Y30830D01*
X68170D02*X69060D01*
X68170D02*X67725Y30385D01*
Y29940D02*X69505D01*
X67725D02*Y30385D01*
X64877Y29050D02*Y32610D01*
X65322Y29050D02*X64877Y29495D01*
X65322Y29050D02*X66212D01*
X66657Y29495D02*X66212Y29050D01*
X66657Y29495D02*Y30385D01*
X66212Y30830D01*
X65322D02*X66212D01*
X65322D02*X64877Y30385D01*
X63364Y29050D02*X63809D01*
X60516Y30830D02*X61851D01*
X62296Y30385D02*X61851Y30830D01*
X62296Y29495D02*Y30385D01*
Y29495D02*X61851Y29050D01*
X60516D02*X61851D01*
X59448Y29495D02*Y30385D01*
X59003Y30830D01*
X58113D02*X59003D01*
X58113D02*X57668Y30385D01*
Y29495D02*Y30385D01*
X58113Y29050D02*X57668Y29495D01*
X58113Y29050D02*X59003D01*
X59448Y29495D02*X59003Y29050D01*
X56155D02*Y30385D01*
X55710Y30830D01*
X55265D02*X55710D01*
X55265D02*X54820Y30385D01*
Y29050D02*Y30385D01*
X54375Y30830D01*
X53930D02*X54375D01*
X53930D02*X53485Y30385D01*
Y29050D02*Y30385D01*
X56600Y30830D02*X56155Y30385D01*
X50038Y23762D02*X50838D01*
X50038Y20262D02*Y23762D01*
X50538Y19762D02*X50038Y20262D01*
X50538Y19762D02*X51038D01*
X51538Y20262D02*X51038Y19762D01*
X51538Y20262D02*Y20762D01*
X48338Y19762D02*Y23762D01*
X46838D02*X48838D01*
X46838D02*X46338Y23262D01*
Y22262D02*Y23262D01*
X46838Y21762D02*X46338Y22262D01*
X46838Y21762D02*X48338D01*
X45138Y22962D02*X44338Y23762D01*
Y19762D02*Y23762D01*
X43638Y19762D02*X45138D01*
M02*
