G04 start of page 11 for group -4015 idx -4015 *
G04 Title: (unknown), toppaste *
G04 Creator: pcb 4.0.2 *
G04 CreationDate: Mon Oct 12 23:48:26 2020 UTC *
G04 For: petersen *
G04 Format: Gerber/RS-274X *
G04 PCB-Dimensions (mil): 2400.00 450.00 *
G04 PCB-Coordinate-Origin: lower left *
%MOIN*%
%FSLAX25Y25*%
%LNTOPPASTE*%
%ADD48C,0.0001*%
G54D48*G36*
X186250Y21750D02*X180750D01*
Y14250D01*
X186250D01*
Y21750D01*
G37*
G36*
X173250D02*X167750D01*
Y14250D01*
X173250D01*
Y21750D01*
G37*
G36*
X43548Y21516D02*Y16398D01*
X49452D01*
Y21516D01*
X43548D01*
G37*
G36*
Y28602D02*Y23484D01*
X49452D01*
Y28602D01*
X43548D01*
G37*
G36*
X32516Y19952D02*X27398D01*
Y14048D01*
X32516D01*
Y19952D01*
G37*
G36*
X39602D02*X34484D01*
Y14048D01*
X39602D01*
Y19952D01*
G37*
G36*
X32516Y30952D02*X27398D01*
Y25048D01*
X32516D01*
Y30952D01*
G37*
G36*
X39602D02*X34484D01*
Y25048D01*
X39602D01*
Y30952D01*
G37*
G36*
X205449Y17775D02*Y15413D01*
X211551D01*
Y17775D01*
X205449D01*
G37*
G36*
Y21712D02*Y19350D01*
X211551D01*
Y21712D01*
X205449D01*
G37*
G36*
Y25650D02*Y23288D01*
X211551D01*
Y25650D01*
X205449D01*
G37*
G36*
Y29587D02*Y27225D01*
X211551D01*
Y29587D01*
X205449D01*
G37*
G36*
X220213Y13838D02*Y10000D01*
X227299D01*
Y13838D01*
X220213D01*
G37*
G36*
Y35000D02*Y31162D01*
X227299D01*
Y35000D01*
X220213D01*
G37*
G36*
X123600Y28000D02*X121200D01*
Y24000D01*
X123600D01*
Y28000D01*
G37*
G36*
X119700D02*X117300D01*
Y24000D01*
X119700D01*
Y28000D01*
G37*
G36*
X115800D02*X113400D01*
Y24000D01*
X115800D01*
Y28000D01*
G37*
G36*
Y19800D02*X113400D01*
Y15800D01*
X115800D01*
Y19800D01*
G37*
G36*
X119700D02*X117300D01*
Y15800D01*
X119700D01*
Y19800D01*
G37*
G36*
X123600D02*X121200D01*
Y15800D01*
X123600D01*
Y19800D01*
G37*
G36*
X141626Y30296D02*Y26516D01*
X149500D01*
Y30296D01*
X141626D01*
G37*
G36*
Y24390D02*Y20610D01*
X157216D01*
Y24390D01*
X141626D01*
G37*
G36*
X152335Y27225D02*Y17775D01*
X163675D01*
Y27225D01*
X152335D01*
G37*
G36*
X153755Y25805D02*X152335Y27225D01*
X149495Y24385D01*
X150915Y22965D01*
X153755Y25805D01*
G37*
G36*
X150915Y22035D02*X149495Y20615D01*
X152335Y17775D01*
X153755Y19195D01*
X150915Y22035D01*
G37*
G36*
X141626Y18484D02*Y14704D01*
X149500D01*
Y18484D01*
X141626D01*
G37*
G36*
X139102Y19952D02*X133984D01*
Y14048D01*
X139102D01*
Y19952D01*
G37*
G36*
X132016D02*X126898D01*
Y14048D01*
X132016D01*
Y19952D01*
G37*
G36*
X172516Y31452D02*X167398D01*
Y25548D01*
X172516D01*
Y31452D01*
G37*
G36*
X179602D02*X174484D01*
Y25548D01*
X179602D01*
Y31452D01*
G37*
G36*
X192516D02*X187398D01*
Y25548D01*
X192516D01*
Y31452D01*
G37*
G36*
X199602D02*X194484D01*
Y25548D01*
X199602D01*
Y31452D01*
G37*
G36*
X54000Y31000D02*Y29000D01*
X62500D01*
Y31000D01*
X54000D01*
G37*
G36*
Y26000D02*Y24000D01*
X62500D01*
Y26000D01*
X54000D01*
G37*
G36*
Y21000D02*Y19000D01*
X62500D01*
Y21000D01*
X54000D01*
G37*
G36*
Y16000D02*Y14000D01*
X62500D01*
Y16000D01*
X54000D01*
G37*
G36*
X74500D02*Y14000D01*
X83000D01*
Y16000D01*
X74500D01*
G37*
G36*
Y21000D02*Y19000D01*
X83000D01*
Y21000D01*
X74500D01*
G37*
G36*
Y26000D02*Y24000D01*
X83000D01*
Y26000D01*
X74500D01*
G37*
G36*
Y31000D02*Y29000D01*
X83000D01*
Y31000D01*
X74500D01*
G37*
G36*
X19074Y18190D02*Y15354D01*
X21910D01*
Y18190D01*
X19074D01*
G37*
G36*
Y22008D02*Y19174D01*
X21910D01*
Y22008D01*
X19074D01*
G37*
G36*
Y25826D02*Y22992D01*
X21910D01*
Y25826D01*
X19074D01*
G37*
G36*
Y29646D02*Y26810D01*
X21910D01*
Y29646D01*
X19074D01*
G37*
G36*
X13090D02*Y26810D01*
X15926D01*
Y29646D01*
X13090D01*
G37*
G36*
Y25826D02*Y22992D01*
X15926D01*
Y25826D01*
X13090D01*
G37*
G36*
Y22008D02*Y19174D01*
X15926D01*
Y22008D01*
X13090D01*
G37*
G36*
Y18190D02*Y15354D01*
X15926D01*
Y18190D01*
X13090D01*
G37*
M02*
