G04 start of page 7 for group -4063 idx -4063 *
G04 Title: (unknown), componentmask *
G04 Creator: pcb 20140316 *
G04 CreationDate: Thu 17 Dec 2020 03:42:44 AM GMT UTC *
G04 For: railfan *
G04 Format: Gerber/RS-274X *
G04 PCB-Dimensions (mil): 3000.00 4500.00 *
G04 PCB-Coordinate-Origin: lower left *
%MOIN*%
%FSLAX25Y25*%
%LNTOPMASK*%
%ADD63R,0.0444X0.0444*%
%ADD62R,0.0296X0.0296*%
%ADD61C,0.0001*%
%ADD60R,0.1005X0.1005*%
%ADD59R,0.0438X0.0438*%
%ADD58R,0.0610X0.0610*%
%ADD57R,0.0300X0.0300*%
%ADD56R,0.0572X0.0572*%
%ADD55R,0.0344X0.0344*%
%ADD54C,0.0490*%
G54D54*X151500Y312500D03*
Y277500D03*
Y242500D03*
Y207500D03*
X131500Y316500D03*
Y308500D03*
Y281500D03*
Y273500D03*
Y246500D03*
Y238500D03*
Y211500D03*
Y203500D03*
X151500Y382500D03*
X131500Y386500D03*
Y378500D03*
X151500Y347500D03*
X131500Y351500D03*
X151500Y417500D03*
X131500Y421500D03*
Y413500D03*
Y343500D03*
X151500Y172500D03*
Y137500D03*
Y102500D03*
Y67500D03*
X131500Y176500D03*
Y168500D03*
Y141500D03*
Y133500D03*
Y106500D03*
Y98500D03*
Y71500D03*
Y63500D03*
X151500Y32500D03*
X131500Y36500D03*
Y28500D03*
G54D55*X61419Y340000D02*X63337D01*
X61419Y345000D02*X63337D01*
G54D56*X72457Y342393D02*Y341607D01*
Y353393D02*Y352607D01*
G54D55*X61419Y350000D02*X63337D01*
X61419Y355000D02*X63337D01*
G54D56*X88607Y343957D02*X89393D01*
X88607Y351043D02*X89393D01*
X79543Y342393D02*Y341607D01*
Y353393D02*Y352607D01*
G54D57*X97500Y355000D02*X104000D01*
X97500Y350000D02*X104000D01*
X97500Y345000D02*X104000D01*
X97500Y340000D02*X104000D01*
G54D55*X61419Y305000D02*X63337D01*
X61419Y310000D02*X63337D01*
G54D56*X72457Y307393D02*Y306607D01*
Y318393D02*Y317607D01*
G54D55*X61419Y315000D02*X63337D01*
X61419Y320000D02*X63337D01*
G54D56*X88607Y308957D02*X89393D01*
X88607Y316043D02*X89393D01*
X79543Y307393D02*Y306607D01*
Y318393D02*Y317607D01*
G54D57*X97500Y320000D02*X104000D01*
X97500Y315000D02*X104000D01*
X97500Y310000D02*X104000D01*
X97500Y305000D02*X104000D01*
X157100Y343600D02*Y342000D01*
X161000Y343600D02*Y342000D01*
X164900Y343600D02*Y342000D01*
Y351800D02*Y350200D01*
X161000Y351800D02*Y350200D01*
X157100Y351800D02*Y350200D01*
X164900Y316800D02*Y315200D01*
Y308600D02*Y307000D01*
X161000Y316800D02*Y315200D01*
X157100Y316800D02*Y315200D01*
Y308600D02*Y307000D01*
X161000Y308600D02*Y307000D01*
X118000Y305000D02*X124500D01*
X118000Y310000D02*X124500D01*
X118000Y315000D02*X124500D01*
X118000Y320000D02*X124500D01*
G54D55*X61419Y270000D02*X63337D01*
X61419Y275000D02*X63337D01*
G54D56*X72457Y272393D02*Y271607D01*
Y283393D02*Y282607D01*
G54D55*X61419Y280000D02*X63337D01*
X61419Y285000D02*X63337D01*
G54D56*X88607Y273957D02*X89393D01*
X88607Y281043D02*X89393D01*
X79543Y272393D02*Y271607D01*
Y283393D02*Y282607D01*
G54D57*X97500Y285000D02*X104000D01*
X97500Y280000D02*X104000D01*
X97500Y275000D02*X104000D01*
X97500Y270000D02*X104000D01*
G54D55*X61419Y235000D02*X63337D01*
X61419Y240000D02*X63337D01*
G54D56*X72457Y237393D02*Y236607D01*
Y248393D02*Y247607D01*
G54D55*X61419Y245000D02*X63337D01*
X61419Y250000D02*X63337D01*
G54D56*X88607Y238957D02*X89393D01*
X88607Y246043D02*X89393D01*
X79543Y237393D02*Y236607D01*
Y248393D02*Y247607D01*
G54D57*X97500Y250000D02*X104000D01*
X97500Y245000D02*X104000D01*
X97500Y240000D02*X104000D01*
X97500Y235000D02*X104000D01*
G54D55*X61419Y410000D02*X63337D01*
X61419Y415000D02*X63337D01*
X61419Y420000D02*X63337D01*
X61419Y425000D02*X63337D01*
G54D56*X72457Y423393D02*Y422607D01*
X79543Y423393D02*Y422607D01*
X72457Y412393D02*Y411607D01*
X79543Y412393D02*Y411607D01*
X88607Y413957D02*X89393D01*
X88607Y421043D02*X89393D01*
G54D57*X97500Y425000D02*X104000D01*
X97500Y420000D02*X104000D01*
X97500Y415000D02*X104000D01*
X97500Y410000D02*X104000D01*
G54D55*X61419Y375000D02*X63337D01*
X61419Y380000D02*X63337D01*
G54D56*X72457Y377393D02*Y376607D01*
Y388393D02*Y387607D01*
G54D55*X61419Y385000D02*X63337D01*
X61419Y390000D02*X63337D01*
G54D56*X88607Y378957D02*X89393D01*
X88607Y386043D02*X89393D01*
X79543Y377393D02*Y376607D01*
Y388393D02*Y387607D01*
G54D57*X97500Y390000D02*X104000D01*
X97500Y385000D02*X104000D01*
X97500Y380000D02*X104000D01*
X97500Y375000D02*X104000D01*
G54D58*X226000Y414000D02*Y412000D01*
X213000Y414000D02*Y412000D01*
G54D56*X212457Y423893D02*Y423107D01*
X219543Y423893D02*Y423107D01*
G54D58*X226000Y379000D02*Y377000D01*
X213000Y379000D02*Y377000D01*
G54D56*X219543Y388893D02*Y388107D01*
X212457Y388893D02*Y388107D01*
G54D58*X226000Y344000D02*Y342000D01*
Y309000D02*Y307000D01*
G54D56*X232457Y318893D02*Y318107D01*
X239543Y318893D02*Y318107D01*
G54D58*X213000Y344000D02*Y342000D01*
G54D56*X212457Y353893D02*Y353107D01*
X219543Y353893D02*Y353107D01*
G54D58*X213000Y309000D02*Y307000D01*
G54D56*X212457Y318893D02*Y318107D01*
X219543Y318893D02*Y318107D01*
G54D59*X186016Y423406D02*X190110D01*
X186016Y417500D02*X197826D01*
G54D60*X199560D02*X201450D01*
G54D61*G36*
X191571Y419385D02*X194835Y422649D01*
X196679Y420805D01*
X193415Y417541D01*
X191571Y419385D01*
G37*
G36*
X193415Y417459D02*X196679Y414195D01*
X194835Y412351D01*
X191571Y415615D01*
X193415Y417459D01*
G37*
G54D59*X186016Y411594D02*X190110D01*
G54D56*X179043Y412393D02*Y411607D01*
X171957Y412393D02*Y411607D01*
X179043Y307393D02*Y306607D01*
X171957Y307393D02*Y306607D01*
G54D62*X249130Y411594D02*X252870D01*
X249130Y415531D02*X252870D01*
X249130Y419469D02*X252870D01*
X249130Y423406D02*X252870D01*
G54D63*X264632Y406919D02*X267880D01*
X264632Y428081D02*X267880D01*
G54D56*X232457Y423893D02*Y423107D01*
X239543Y423893D02*Y423107D01*
G54D62*X249130Y376594D02*X252870D01*
X249130Y380531D02*X252870D01*
G54D63*X264632Y371919D02*X267880D01*
G54D62*X249130Y384469D02*X252870D01*
G54D56*X232457Y388893D02*Y388107D01*
X239543Y388893D02*Y388107D01*
G54D62*X249130Y388406D02*X252870D01*
G54D63*X264632Y393081D02*X267880D01*
X264632Y358081D02*X267880D01*
G54D57*X118000Y425000D02*X124500D01*
X164900Y421800D02*Y420200D01*
X161000Y421800D02*Y420200D01*
X157100Y421800D02*Y420200D01*
Y413600D02*Y412000D01*
X118000Y410000D02*X124500D01*
X118000Y415000D02*X124500D01*
X161000Y413600D02*Y412000D01*
X164900Y413600D02*Y412000D01*
X118000Y420000D02*X124500D01*
X118000Y390000D02*X124500D01*
X164900Y386800D02*Y385200D01*
X161000Y386800D02*Y385200D01*
X157100Y386800D02*Y385200D01*
Y378600D02*Y377000D01*
X118000Y375000D02*X124500D01*
X118000Y380000D02*X124500D01*
X161000Y378600D02*Y377000D01*
X164900Y378600D02*Y377000D01*
X118000Y385000D02*X124500D01*
X118000Y340000D02*X124500D01*
X118000Y345000D02*X124500D01*
X118000Y350000D02*X124500D01*
X118000Y355000D02*X124500D01*
G54D59*X186016Y388406D02*X190110D01*
X186016Y382500D02*X197826D01*
X186016Y376594D02*X190110D01*
G54D56*X179043Y377393D02*Y376607D01*
X171957Y377393D02*Y376607D01*
G54D60*X199560Y382500D02*X201450D01*
G54D61*G36*
X191571Y384385D02*X194835Y387649D01*
X196679Y385805D01*
X193415Y382541D01*
X191571Y384385D01*
G37*
G36*
X193415Y382459D02*X196679Y379195D01*
X194835Y377351D01*
X191571Y380615D01*
X193415Y382459D01*
G37*
G54D62*X249130Y341594D02*X252870D01*
X249130Y345531D02*X252870D01*
X249130Y349469D02*X252870D01*
X249130Y353406D02*X252870D01*
G54D56*X232457Y353893D02*Y353107D01*
X239543Y353893D02*Y353107D01*
G54D63*X264632Y336919D02*X267880D01*
X264632Y323081D02*X267880D01*
G54D62*X249130Y306594D02*X252870D01*
X249130Y310531D02*X252870D01*
X249130Y314469D02*X252870D01*
X249130Y318406D02*X252870D01*
G54D63*X264632Y301919D02*X267880D01*
G54D59*X186016Y353406D02*X190110D01*
X186016Y347500D02*X197826D01*
G54D60*X199560D02*X201450D01*
G54D61*G36*
X191571Y349385D02*X194835Y352649D01*
X196679Y350805D01*
X193415Y347541D01*
X191571Y349385D01*
G37*
G36*
X193415Y347459D02*X196679Y344195D01*
X194835Y342351D01*
X191571Y345615D01*
X193415Y347459D01*
G37*
G54D59*X186016Y341594D02*X190110D01*
G54D56*X179043Y342393D02*Y341607D01*
X171957Y342393D02*Y341607D01*
G54D59*X186016Y318406D02*X190110D01*
X186016Y312500D02*X197826D01*
G54D60*X199560D02*X201450D01*
G54D61*G36*
X191571Y314385D02*X194835Y317649D01*
X196679Y315805D01*
X193415Y312541D01*
X191571Y314385D01*
G37*
G36*
X193415Y312459D02*X196679Y309195D01*
X194835Y307351D01*
X191571Y310615D01*
X193415Y312459D01*
G37*
G54D59*X186016Y306594D02*X190110D01*
G54D58*X226000Y274000D02*Y272000D01*
G54D56*X232457Y283893D02*Y283107D01*
X239543Y283893D02*Y283107D01*
G54D58*X213000Y274000D02*Y272000D01*
G54D56*X212457Y283893D02*Y283107D01*
X219543Y283893D02*Y283107D01*
X212457Y248893D02*Y248107D01*
X219543Y248893D02*Y248107D01*
G54D62*X249130Y271594D02*X252870D01*
X249130Y275531D02*X252870D01*
X249130Y279469D02*X252870D01*
X249130Y283406D02*X252870D01*
G54D63*X264632Y266919D02*X267880D01*
X264632Y288081D02*X267880D01*
G54D59*X186016Y283406D02*X190110D01*
X186016Y277500D02*X197826D01*
G54D60*X199560D02*X201450D01*
G54D61*G36*
X191571Y279385D02*X194835Y282649D01*
X196679Y280805D01*
X193415Y277541D01*
X191571Y279385D01*
G37*
G36*
X193415Y277459D02*X196679Y274195D01*
X194835Y272351D01*
X191571Y275615D01*
X193415Y277459D01*
G37*
G54D59*X186016Y271594D02*X190110D01*
G54D56*X179043Y272393D02*Y271607D01*
X171957Y272393D02*Y271607D01*
G54D58*X226000Y239000D02*Y237000D01*
G54D62*X249130Y236594D02*X252870D01*
X249130Y240531D02*X252870D01*
X249130Y244469D02*X252870D01*
X249130Y248406D02*X252870D01*
G54D56*X232457Y248893D02*Y248107D01*
X239543Y248893D02*Y248107D01*
G54D63*X264632Y231919D02*X267880D01*
X264632Y253081D02*X267880D01*
X264632Y218081D02*X267880D01*
G54D58*X213000Y239000D02*Y237000D01*
G54D56*X212457Y213893D02*Y213107D01*
X219543Y213893D02*Y213107D01*
G54D57*X157100Y273600D02*Y272000D01*
X161000Y273600D02*Y272000D01*
X164900Y273600D02*Y272000D01*
Y281800D02*Y280200D01*
X161000Y281800D02*Y280200D01*
X157100Y281800D02*Y280200D01*
X118000Y270000D02*X124500D01*
X118000Y275000D02*X124500D01*
X118000Y280000D02*X124500D01*
X118000Y285000D02*X124500D01*
X118000Y235000D02*X124500D01*
X118000Y240000D02*X124500D01*
X118000Y245000D02*X124500D01*
X118000Y250000D02*X124500D01*
X164900Y246800D02*Y245200D01*
Y238600D02*Y237000D01*
X161000Y246800D02*Y245200D01*
Y238600D02*Y237000D01*
X157100Y246800D02*Y245200D01*
Y238600D02*Y237000D01*
X164900Y211800D02*Y210200D01*
Y203600D02*Y202000D01*
X161000Y211800D02*Y210200D01*
X157100Y211800D02*Y210200D01*
Y203600D02*Y202000D01*
X161000Y203600D02*Y202000D01*
X118000Y200000D02*X124500D01*
X118000Y205000D02*X124500D01*
X118000Y210000D02*X124500D01*
X118000Y215000D02*X124500D01*
G54D59*X186016Y248406D02*X190110D01*
X186016Y242500D02*X197826D01*
G54D60*X199560D02*X201450D01*
G54D61*G36*
X191571Y244385D02*X194835Y247649D01*
X196679Y245805D01*
X193415Y242541D01*
X191571Y244385D01*
G37*
G36*
X193415Y242459D02*X196679Y239195D01*
X194835Y237351D01*
X191571Y240615D01*
X193415Y242459D01*
G37*
G54D59*X186016Y236594D02*X190110D01*
G54D56*X179043Y237393D02*Y236607D01*
X171957Y237393D02*Y236607D01*
G54D62*X249130Y201594D02*X252870D01*
G54D63*X264632Y196919D02*X267880D01*
G54D62*X249130Y205531D02*X252870D01*
X249130Y209469D02*X252870D01*
X249130Y213406D02*X252870D01*
G54D56*X232457Y213893D02*Y213107D01*
X239543Y213893D02*Y213107D01*
G54D62*X249130Y170531D02*X252870D01*
X249130Y174469D02*X252870D01*
X249130Y178406D02*X252870D01*
G54D63*X264632Y183081D02*X267880D01*
G54D56*X232457Y178893D02*Y178107D01*
X239543Y178893D02*Y178107D01*
G54D59*X186016Y213406D02*X190110D01*
X186016Y207500D02*X197826D01*
G54D60*X199560D02*X201450D01*
G54D61*G36*
X191571Y209385D02*X194835Y212649D01*
X196679Y210805D01*
X193415Y207541D01*
X191571Y209385D01*
G37*
G36*
X193415Y207459D02*X196679Y204195D01*
X194835Y202351D01*
X191571Y205615D01*
X193415Y207459D01*
G37*
G54D59*X186016Y201594D02*X190110D01*
G54D56*X179043Y202393D02*Y201607D01*
X171957Y202393D02*Y201607D01*
G54D58*X226000Y204000D02*Y202000D01*
X213000Y204000D02*Y202000D01*
G54D56*X212457Y178893D02*Y178107D01*
X219543Y178893D02*Y178107D01*
G54D58*X226000Y169000D02*Y167000D01*
X213000Y169000D02*Y167000D01*
X226000Y134000D02*Y132000D01*
X213000Y134000D02*Y132000D01*
G54D56*X219543Y143893D02*Y143107D01*
X212457Y143893D02*Y143107D01*
G54D59*X186016Y178406D02*X190110D01*
X186016Y172500D02*X197826D01*
G54D60*X199560D02*X201450D01*
G54D61*G36*
X191571Y174385D02*X194835Y177649D01*
X196679Y175805D01*
X193415Y172541D01*
X191571Y174385D01*
G37*
G36*
X193415Y172459D02*X196679Y169195D01*
X194835Y167351D01*
X191571Y170615D01*
X193415Y172459D01*
G37*
G54D59*X186016Y166594D02*X190110D01*
G54D56*X179043Y167393D02*Y166607D01*
X171957Y167393D02*Y166607D01*
G54D62*X249130Y166594D02*X252870D01*
G54D63*X264632Y161919D02*X267880D01*
G54D62*X249130Y131594D02*X252870D01*
X249130Y135531D02*X252870D01*
G54D63*X264632Y126919D02*X267880D01*
G54D62*X249130Y139469D02*X252870D01*
X249130Y143406D02*X252870D01*
G54D63*X264632Y148081D02*X267880D01*
G54D56*X232457Y143893D02*Y143107D01*
X239543Y143893D02*Y143107D01*
G54D59*X186016Y143406D02*X190110D01*
X186016Y137500D02*X197826D01*
G54D60*X199560D02*X201450D01*
G54D61*G36*
X191571Y139385D02*X194835Y142649D01*
X196679Y140805D01*
X193415Y137541D01*
X191571Y139385D01*
G37*
G36*
X193415Y137459D02*X196679Y134195D01*
X194835Y132351D01*
X191571Y135615D01*
X193415Y137459D01*
G37*
G54D59*X186016Y131594D02*X190110D01*
G54D56*X179043Y132393D02*Y131607D01*
X171957Y132393D02*Y131607D01*
G54D59*X186016Y108406D02*X190110D01*
X186016Y102500D02*X197826D01*
G54D60*X199560D02*X201450D01*
G54D61*G36*
X191571Y104385D02*X194835Y107649D01*
X196679Y105805D01*
X193415Y102541D01*
X191571Y104385D01*
G37*
G36*
X193415Y102459D02*X196679Y99195D01*
X194835Y97351D01*
X191571Y100615D01*
X193415Y102459D01*
G37*
G54D59*X186016Y96594D02*X190110D01*
G54D58*X226000Y99000D02*Y97000D01*
Y64000D02*Y62000D01*
G54D56*X219543Y73893D02*Y73107D01*
X232457Y73893D02*Y73107D01*
X239543Y73893D02*Y73107D01*
G54D58*X213000Y99000D02*Y97000D01*
Y64000D02*Y62000D01*
G54D56*X212457Y73893D02*Y73107D01*
G54D58*X213000Y29000D02*Y27000D01*
G54D56*X212457Y38893D02*Y38107D01*
Y108893D02*Y108107D01*
X219543Y108893D02*Y108107D01*
G54D58*X226000Y29000D02*Y27000D01*
G54D62*X249130Y26594D02*X252870D01*
X249130Y30531D02*X252870D01*
G54D63*X264632Y21919D02*X267880D01*
G54D62*X249130Y34469D02*X252870D01*
G54D56*X219543Y38893D02*Y38107D01*
X232457Y38893D02*Y38107D01*
X239543Y38893D02*Y38107D01*
G54D62*X249130Y38406D02*X252870D01*
G54D63*X264632Y43081D02*X267880D01*
G54D59*X186016Y61594D02*X190110D01*
G54D56*X179043Y62393D02*Y61607D01*
X171957Y62393D02*Y61607D01*
G54D59*X186016Y38406D02*X190110D01*
X186016Y32500D02*X197826D01*
G54D60*X199560D02*X201450D01*
G54D61*G36*
X191571Y34385D02*X194835Y37649D01*
X196679Y35805D01*
X193415Y32541D01*
X191571Y34385D01*
G37*
G36*
X193415Y32459D02*X196679Y29195D01*
X194835Y27351D01*
X191571Y30615D01*
X193415Y32459D01*
G37*
G54D59*X186016Y26594D02*X190110D01*
G54D56*X179043Y27393D02*Y26607D01*
X171957Y27393D02*Y26607D01*
G54D62*X249130Y96594D02*X252870D01*
G54D63*X264632Y91919D02*X267880D01*
G54D62*X249130Y100531D02*X252870D01*
X249130Y104469D02*X252870D01*
X249130Y108406D02*X252870D01*
G54D63*X264632Y113081D02*X267880D01*
G54D56*X232457Y108893D02*Y108107D01*
X239543Y108893D02*Y108107D01*
G54D62*X249130Y61594D02*X252870D01*
X249130Y65531D02*X252870D01*
X249130Y69469D02*X252870D01*
X249130Y73406D02*X252870D01*
G54D63*X264632Y56919D02*X267880D01*
X264632Y78081D02*X267880D01*
G54D56*X179043Y97393D02*Y96607D01*
X171957Y97393D02*Y96607D01*
G54D57*X157100Y71800D02*Y70200D01*
Y63600D02*Y62000D01*
Y28600D02*Y27000D01*
X161000Y28600D02*Y27000D01*
X164900Y28600D02*Y27000D01*
Y36800D02*Y35200D01*
X161000Y36800D02*Y35200D01*
X157100Y36800D02*Y35200D01*
X118000Y25000D02*X124500D01*
X118000Y30000D02*X124500D01*
X118000Y35000D02*X124500D01*
X118000Y40000D02*X124500D01*
X164900Y71800D02*Y70200D01*
Y63600D02*Y62000D01*
X161000Y71800D02*Y70200D01*
Y63600D02*Y62000D01*
G54D59*X186016Y73406D02*X190110D01*
X186016Y67500D02*X197826D01*
G54D60*X199560D02*X201450D01*
G54D61*G36*
X191571Y69385D02*X194835Y72649D01*
X196679Y70805D01*
X193415Y67541D01*
X191571Y69385D01*
G37*
G36*
X193415Y67459D02*X196679Y64195D01*
X194835Y62351D01*
X191571Y65615D01*
X193415Y67459D01*
G37*
G54D57*X118000Y60000D02*X124500D01*
X118000Y65000D02*X124500D01*
X118000Y70000D02*X124500D01*
X118000Y75000D02*X124500D01*
G54D55*X61419Y200000D02*X63337D01*
X61419Y205000D02*X63337D01*
G54D56*X72457Y202393D02*Y201607D01*
Y213393D02*Y212607D01*
G54D55*X61419Y210000D02*X63337D01*
X61419Y215000D02*X63337D01*
G54D56*X88607Y203957D02*X89393D01*
X88607Y211043D02*X89393D01*
X79543Y202393D02*Y201607D01*
Y213393D02*Y212607D01*
G54D57*X97500Y215000D02*X104000D01*
X97500Y210000D02*X104000D01*
X97500Y205000D02*X104000D01*
X97500Y200000D02*X104000D01*
G54D55*X61419Y165000D02*X63337D01*
X61419Y170000D02*X63337D01*
G54D56*X72457Y167393D02*Y166607D01*
Y178393D02*Y177607D01*
G54D55*X61419Y175000D02*X63337D01*
X61419Y180000D02*X63337D01*
G54D56*X88607Y168957D02*X89393D01*
X88607Y176043D02*X89393D01*
X79543Y167393D02*Y166607D01*
Y178393D02*Y177607D01*
G54D57*X97500Y180000D02*X104000D01*
X97500Y175000D02*X104000D01*
X97500Y170000D02*X104000D01*
X97500Y165000D02*X104000D01*
G54D55*X61419Y130000D02*X63337D01*
X61419Y135000D02*X63337D01*
G54D56*X72457Y132393D02*Y131607D01*
Y143393D02*Y142607D01*
G54D55*X61419Y140000D02*X63337D01*
X61419Y145000D02*X63337D01*
G54D56*X88607Y133957D02*X89393D01*
X88607Y141043D02*X89393D01*
X79543Y132393D02*Y131607D01*
Y143393D02*Y142607D01*
G54D57*X97500Y145000D02*X104000D01*
X97500Y140000D02*X104000D01*
X97500Y135000D02*X104000D01*
X97500Y130000D02*X104000D01*
X164900Y176800D02*Y175200D01*
X161000Y176800D02*Y175200D01*
X157100Y176800D02*Y175200D01*
Y168600D02*Y167000D01*
X118000Y165000D02*X124500D01*
X118000Y170000D02*X124500D01*
X161000Y168600D02*Y167000D01*
X164900Y168600D02*Y167000D01*
X118000Y175000D02*X124500D01*
X118000Y180000D02*X124500D01*
X118000Y145000D02*X124500D01*
X164900Y141800D02*Y140200D01*
X161000Y141800D02*Y140200D01*
X157100Y141800D02*Y140200D01*
Y133600D02*Y132000D01*
X118000Y130000D02*X124500D01*
X118000Y135000D02*X124500D01*
X161000Y133600D02*Y132000D01*
X164900Y133600D02*Y132000D01*
X118000Y140000D02*X124500D01*
X157100Y98600D02*Y97000D01*
X161000Y98600D02*Y97000D01*
X164900Y98600D02*Y97000D01*
Y106800D02*Y105200D01*
X161000Y106800D02*Y105200D01*
X157100Y106800D02*Y105200D01*
X118000Y95000D02*X124500D01*
X118000Y100000D02*X124500D01*
X118000Y105000D02*X124500D01*
X118000Y110000D02*X124500D01*
G54D55*X61419Y95000D02*X63337D01*
X61419Y100000D02*X63337D01*
G54D56*X72457Y97393D02*Y96607D01*
Y108393D02*Y107607D01*
G54D55*X61419Y105000D02*X63337D01*
X61419Y110000D02*X63337D01*
G54D56*X88607Y98957D02*X89393D01*
X88607Y106043D02*X89393D01*
X79543Y97393D02*Y96607D01*
Y108393D02*Y107607D01*
G54D57*X97500Y110000D02*X104000D01*
X97500Y105000D02*X104000D01*
X97500Y100000D02*X104000D01*
X97500Y95000D02*X104000D01*
G54D55*X61419Y60000D02*X63337D01*
X61419Y65000D02*X63337D01*
G54D56*X72457Y62393D02*Y61607D01*
Y73393D02*Y72607D01*
G54D55*X61419Y70000D02*X63337D01*
X61419Y75000D02*X63337D01*
G54D56*X88607Y63957D02*X89393D01*
X88607Y71043D02*X89393D01*
X79543Y62393D02*Y61607D01*
Y73393D02*Y72607D01*
G54D57*X97500Y75000D02*X104000D01*
X97500Y70000D02*X104000D01*
X97500Y65000D02*X104000D01*
X97500Y60000D02*X104000D01*
G54D55*X61419Y25000D02*X63337D01*
X61419Y30000D02*X63337D01*
G54D56*X72457Y27393D02*Y26607D01*
Y38393D02*Y37607D01*
G54D55*X61419Y35000D02*X63337D01*
X61419Y40000D02*X63337D01*
G54D56*X88607Y28957D02*X89393D01*
X88607Y36043D02*X89393D01*
X79543Y27393D02*Y26607D01*
Y38393D02*Y37607D01*
G54D57*X97500Y40000D02*X104000D01*
X97500Y35000D02*X104000D01*
X97500Y30000D02*X104000D01*
X97500Y25000D02*X104000D01*
M02*
