M48
INCH
T53C0.031
T52C0.039
%
T53
X010500Y040400
X010500Y039600
X010500Y036900
X010500Y036100
X010500Y033400
X010500Y032600
X010500Y029900
X010500Y029100
X010500Y026400
X010500Y025600
X010500Y022900
X010500Y022100
X010500Y019400
X010500Y018600
X010500Y015900
X010500Y015100
X010500Y012400
X010500Y011600
X010500Y008900
X010500Y008100
X010500Y005400
X010500Y004600
X011000Y040400
X011000Y039600
X011000Y036900
X011000Y036100
X011000Y033400
X011000Y032600
X011000Y029900
X011000Y029100
X011000Y026400
X011000Y025600
X011000Y022900
X011000Y022100
X011000Y019400
X011000Y018600
X011000Y015900
X011000Y015100
X011000Y012400
X011000Y011600
X011000Y008900
X011000Y008100
X011000Y005400
X011000Y004600
X011500Y040400
X011500Y039600
X011500Y036900
X011500Y036100
X011500Y033400
X011500Y032600
X011500Y029900
X011500Y029100
X011500Y026400
X011500Y025600
X011500Y022900
X011500Y022100
X011500Y019400
X011500Y018600
X011500Y015900
X011500Y015100
X011500Y012400
X011500Y011600
X011500Y008900
X011500Y008100
X011500Y005400
X011500Y004600
X021500Y040400
X021500Y039600
X021500Y036900
X021500Y036100
X021500Y033400
X021500Y032600
X021500Y029900
X021500Y029100
X021500Y026400
X021500Y025600
X021500Y022900
X021500Y022100
X021500Y019400
X021500Y018600
X021500Y015900
X021500Y015100
X021500Y012400
X021500Y011600
X021500Y008900
X021500Y008100
X021500Y005400
X021500Y004600
X022000Y040400
X022000Y039600
X022000Y036900
X022000Y036100
X022000Y033400
X022000Y032600
X022000Y029900
X022000Y029100
X022000Y026400
X022000Y025600
X022000Y022900
X022000Y022100
X022000Y019400
X022000Y018600
X022000Y015900
X022000Y015100
X022000Y012400
X022000Y011600
X022000Y008900
X022000Y008100
X022000Y005400
X022000Y004600
X022500Y040400
X022500Y039600
X022500Y036900
X022500Y036100
X022500Y033400
X022500Y032600
X022500Y029900
X022500Y029100
X022500Y026400
X022500Y025600
X022500Y022900
X022500Y022100
X022500Y019400
X022500Y018600
X022500Y015900
X022500Y015100
X022500Y012400
X022500Y011600
X022500Y008900
X022500Y008100
X022500Y005400
X022500Y004600
T52
X013150Y042150
X013150Y041350
X013150Y038650
X013150Y037850
X013150Y035150
X013150Y034350
X013150Y031650
X013150Y030850
X013150Y028150
X013150Y027350
X013150Y024650
X013150Y023850
X013150Y021150
X013150Y020350
X013150Y017650
X013150Y016850
X013150Y014150
X013150Y013350
X013150Y010650
X013150Y009850
X013150Y007150
X013150Y006350
X013150Y003650
X013150Y002850
X015150Y041750
X015150Y038250
X015150Y034750
X015150Y031250
X015150Y027750
X015150Y024250
X015150Y020750
X015150Y017250
X015150Y013750
X015150Y010250
X015150Y006750
X015150Y003250
M30
