G04 start of page 3 for group 1 idx 1 *
G04 Title: (unknown), bottom *
G04 Creator: pcb 20140316 *
G04 CreationDate: Thu 17 Dec 2020 03:42:44 AM GMT UTC *
G04 For: railfan *
G04 Format: Gerber/RS-274X *
G04 PCB-Dimensions (mil): 3000.00 4500.00 *
G04 PCB-Coordinate-Origin: lower left *
%MOIN*%
%FSLAX25Y25*%
%LNBOTTOM*%
%ADD44C,0.0390*%
%ADD43C,0.0140*%
%ADD42C,0.0120*%
%ADD41C,0.0300*%
%ADD40C,0.0240*%
%ADD39C,0.0310*%
%ADD38R,0.0300X0.0300*%
%ADD37C,0.0600*%
%ADD36R,0.0284X0.0284*%
%ADD35C,0.0250*%
%ADD34C,0.0200*%
%ADD33C,0.0100*%
%ADD32C,0.0080*%
%ADD31C,0.0001*%
G54D31*G36*
X182000Y393000D02*Y381000D01*
X169900D01*
Y384803D01*
X170060Y384940D01*
X170285Y385203D01*
X170466Y385498D01*
X170599Y385818D01*
X170680Y386155D01*
X170700Y386500D01*
X170680Y386845D01*
X170599Y387182D01*
X170466Y387502D01*
X170285Y387797D01*
X170060Y388060D01*
X169797Y388285D01*
X169502Y388466D01*
X169182Y388599D01*
X169000Y388642D01*
Y393000D01*
X182000D01*
G37*
G36*
X170000D02*X268000D01*
Y372000D01*
X245621D01*
X246519Y372898D01*
X246564Y372936D01*
X246717Y373115D01*
X246717Y373116D01*
X246841Y373317D01*
X246931Y373535D01*
X246986Y373765D01*
X247005Y374000D01*
X247000Y374059D01*
Y382441D01*
X247005Y382500D01*
X246986Y382735D01*
X246931Y382965D01*
X246841Y383183D01*
X246717Y383384D01*
X246564Y383564D01*
X246519Y383602D01*
X245102Y385019D01*
X245064Y385064D01*
X244884Y385217D01*
X244683Y385341D01*
X244465Y385431D01*
X244235Y385486D01*
X244000Y385505D01*
X243941Y385500D01*
X242059D01*
X242000Y385505D01*
X241765Y385486D01*
X241535Y385431D01*
X241317Y385341D01*
X241116Y385217D01*
X241115Y385217D01*
X240936Y385064D01*
X240898Y385019D01*
X239579Y383701D01*
X239500Y383707D01*
X239155Y383680D01*
X238818Y383599D01*
X238498Y383466D01*
X238203Y383285D01*
X237940Y383060D01*
X237715Y382797D01*
X237534Y382502D01*
X237401Y382182D01*
X237320Y381845D01*
X237293Y381500D01*
X237320Y381155D01*
X237401Y380818D01*
X237534Y380498D01*
X237715Y380203D01*
X237940Y379940D01*
X238203Y379715D01*
X238498Y379534D01*
X238818Y379401D01*
X239155Y379320D01*
X239500Y379293D01*
X239845Y379320D01*
X240182Y379401D01*
X240502Y379534D01*
X240797Y379715D01*
X241060Y379940D01*
X241250Y380162D01*
X241440Y379940D01*
X241600Y379803D01*
Y376080D01*
X241420Y375900D01*
X170580D01*
X170000Y376480D01*
Y384888D01*
X170060Y384940D01*
X170285Y385203D01*
X170466Y385498D01*
X170599Y385818D01*
X170680Y386155D01*
X170700Y386500D01*
X170680Y386845D01*
X170599Y387182D01*
X170466Y387502D01*
X170285Y387797D01*
X170060Y388060D01*
X170000Y388112D01*
Y393000D01*
G37*
G36*
Y358000D02*X268000D01*
Y337000D01*
X245621D01*
X246519Y337898D01*
X246564Y337936D01*
X246717Y338115D01*
X246717Y338116D01*
X246841Y338317D01*
X246931Y338535D01*
X246986Y338765D01*
X247005Y339000D01*
X247000Y339059D01*
Y347441D01*
X247005Y347500D01*
X246986Y347735D01*
X246931Y347965D01*
X246841Y348183D01*
X246717Y348384D01*
X246564Y348564D01*
X246519Y348602D01*
X245102Y350019D01*
X245064Y350064D01*
X244884Y350217D01*
X244683Y350341D01*
X244465Y350431D01*
X244235Y350486D01*
X244000Y350505D01*
X243941Y350500D01*
X242059D01*
X242000Y350505D01*
X241765Y350486D01*
X241535Y350431D01*
X241317Y350341D01*
X241116Y350217D01*
X241115Y350217D01*
X240936Y350064D01*
X240898Y350019D01*
X239579Y348701D01*
X239500Y348707D01*
X239155Y348680D01*
X238818Y348599D01*
X238498Y348466D01*
X238203Y348285D01*
X237940Y348060D01*
X237715Y347797D01*
X237534Y347502D01*
X237401Y347182D01*
X237320Y346845D01*
X237293Y346500D01*
X237320Y346155D01*
X237401Y345818D01*
X237534Y345498D01*
X237715Y345203D01*
X237940Y344940D01*
X238203Y344715D01*
X238498Y344534D01*
X238818Y344401D01*
X239155Y344320D01*
X239500Y344293D01*
X239845Y344320D01*
X240182Y344401D01*
X240502Y344534D01*
X240797Y344715D01*
X241060Y344940D01*
X241250Y345162D01*
X241440Y344940D01*
X241600Y344803D01*
Y341080D01*
X241420Y340900D01*
X170580D01*
X170000Y341480D01*
Y349888D01*
X170060Y349940D01*
X170285Y350203D01*
X170466Y350498D01*
X170599Y350818D01*
X170680Y351155D01*
X170700Y351500D01*
X170680Y351845D01*
X170599Y352182D01*
X170466Y352502D01*
X170285Y352797D01*
X170060Y353060D01*
X170000Y353112D01*
Y358000D01*
G37*
G36*
Y323000D02*X268000D01*
Y302000D01*
X245621D01*
X246519Y302898D01*
X246564Y302936D01*
X246717Y303115D01*
X246717Y303116D01*
X246841Y303317D01*
X246931Y303535D01*
X246986Y303765D01*
X247005Y304000D01*
X247000Y304059D01*
Y312441D01*
X247005Y312500D01*
X246986Y312735D01*
X246931Y312965D01*
X246841Y313183D01*
X246717Y313384D01*
X246564Y313564D01*
X246519Y313602D01*
X245102Y315019D01*
X245064Y315064D01*
X244884Y315217D01*
X244683Y315341D01*
X244465Y315431D01*
X244235Y315486D01*
X244000Y315505D01*
X243941Y315500D01*
X242059D01*
X242000Y315505D01*
X241765Y315486D01*
X241535Y315431D01*
X241317Y315341D01*
X241116Y315217D01*
X241115Y315217D01*
X240936Y315064D01*
X240898Y315019D01*
X239579Y313701D01*
X239500Y313707D01*
X239155Y313680D01*
X238818Y313599D01*
X238498Y313466D01*
X238203Y313285D01*
X237940Y313060D01*
X237715Y312797D01*
X237534Y312502D01*
X237401Y312182D01*
X237320Y311845D01*
X237293Y311500D01*
X237320Y311155D01*
X237401Y310818D01*
X237534Y310498D01*
X237715Y310203D01*
X237940Y309940D01*
X238203Y309715D01*
X238498Y309534D01*
X238818Y309401D01*
X239155Y309320D01*
X239500Y309293D01*
X239845Y309320D01*
X240182Y309401D01*
X240502Y309534D01*
X240797Y309715D01*
X241060Y309940D01*
X241250Y310162D01*
X241440Y309940D01*
X241600Y309803D01*
Y306080D01*
X241420Y305900D01*
X170580D01*
X170000Y306480D01*
Y314888D01*
X170060Y314940D01*
X170285Y315203D01*
X170466Y315498D01*
X170599Y315818D01*
X170680Y316155D01*
X170700Y316500D01*
X170680Y316845D01*
X170599Y317182D01*
X170466Y317502D01*
X170285Y317797D01*
X170060Y318060D01*
X170000Y318112D01*
Y323000D01*
G37*
G36*
Y288000D02*X268000D01*
Y267000D01*
X245621D01*
X246519Y267898D01*
X246564Y267936D01*
X246717Y268115D01*
X246717Y268116D01*
X246841Y268317D01*
X246931Y268535D01*
X246986Y268765D01*
X247005Y269000D01*
X247000Y269059D01*
Y277441D01*
X247005Y277500D01*
X246986Y277735D01*
X246931Y277965D01*
X246841Y278183D01*
X246717Y278384D01*
X246564Y278564D01*
X246519Y278602D01*
X245102Y280019D01*
X245064Y280064D01*
X244884Y280217D01*
X244683Y280341D01*
X244465Y280431D01*
X244235Y280486D01*
X244000Y280505D01*
X243941Y280500D01*
X242059D01*
X242000Y280505D01*
X241765Y280486D01*
X241535Y280431D01*
X241317Y280341D01*
X241116Y280217D01*
X241115Y280217D01*
X240936Y280064D01*
X240898Y280019D01*
X239579Y278701D01*
X239500Y278707D01*
X239155Y278680D01*
X238818Y278599D01*
X238498Y278466D01*
X238203Y278285D01*
X237940Y278060D01*
X237715Y277797D01*
X237534Y277502D01*
X237401Y277182D01*
X237320Y276845D01*
X237293Y276500D01*
X237320Y276155D01*
X237401Y275818D01*
X237534Y275498D01*
X237715Y275203D01*
X237940Y274940D01*
X238203Y274715D01*
X238498Y274534D01*
X238818Y274401D01*
X239155Y274320D01*
X239500Y274293D01*
X239845Y274320D01*
X240182Y274401D01*
X240502Y274534D01*
X240797Y274715D01*
X241060Y274940D01*
X241250Y275162D01*
X241440Y274940D01*
X241600Y274803D01*
Y271080D01*
X241420Y270900D01*
X170580D01*
X170000Y271480D01*
Y279888D01*
X170060Y279940D01*
X170285Y280203D01*
X170466Y280498D01*
X170599Y280818D01*
X170680Y281155D01*
X170700Y281500D01*
X170680Y281845D01*
X170599Y282182D01*
X170466Y282502D01*
X170285Y282797D01*
X170060Y283060D01*
X170000Y283112D01*
Y288000D01*
G37*
G36*
Y253000D02*X268000D01*
Y232000D01*
X245621D01*
X246519Y232898D01*
X246564Y232936D01*
X246717Y233115D01*
X246717Y233116D01*
X246841Y233317D01*
X246931Y233535D01*
X246986Y233765D01*
X247005Y234000D01*
X247000Y234059D01*
Y242441D01*
X247005Y242500D01*
X246986Y242735D01*
X246931Y242965D01*
X246841Y243183D01*
X246717Y243384D01*
X246564Y243564D01*
X246519Y243602D01*
X245102Y245019D01*
X245064Y245064D01*
X244884Y245217D01*
X244683Y245341D01*
X244465Y245431D01*
X244235Y245486D01*
X244000Y245505D01*
X243941Y245500D01*
X242059D01*
X242000Y245505D01*
X241765Y245486D01*
X241535Y245431D01*
X241317Y245341D01*
X241116Y245217D01*
X241115Y245217D01*
X240936Y245064D01*
X240898Y245019D01*
X239579Y243701D01*
X239500Y243707D01*
X239155Y243680D01*
X238818Y243599D01*
X238498Y243466D01*
X238203Y243285D01*
X237940Y243060D01*
X237715Y242797D01*
X237534Y242502D01*
X237401Y242182D01*
X237320Y241845D01*
X237293Y241500D01*
X237320Y241155D01*
X237401Y240818D01*
X237534Y240498D01*
X237715Y240203D01*
X237940Y239940D01*
X238203Y239715D01*
X238498Y239534D01*
X238818Y239401D01*
X239155Y239320D01*
X239500Y239293D01*
X239845Y239320D01*
X240182Y239401D01*
X240502Y239534D01*
X240797Y239715D01*
X241060Y239940D01*
X241250Y240162D01*
X241440Y239940D01*
X241600Y239803D01*
Y236080D01*
X241420Y235900D01*
X170580D01*
X170000Y236480D01*
Y244888D01*
X170060Y244940D01*
X170285Y245203D01*
X170466Y245498D01*
X170599Y245818D01*
X170680Y246155D01*
X170700Y246500D01*
X170680Y246845D01*
X170599Y247182D01*
X170466Y247502D01*
X170285Y247797D01*
X170060Y248060D01*
X170000Y248112D01*
Y253000D01*
G37*
G36*
Y218000D02*X268000D01*
Y197000D01*
X245621D01*
X246519Y197898D01*
X246564Y197936D01*
X246717Y198115D01*
X246717Y198116D01*
X246841Y198317D01*
X246931Y198535D01*
X246986Y198765D01*
X247005Y199000D01*
X247000Y199059D01*
Y207441D01*
X247005Y207500D01*
X246986Y207735D01*
X246931Y207965D01*
X246841Y208183D01*
X246717Y208384D01*
X246564Y208564D01*
X246519Y208602D01*
X245102Y210019D01*
X245064Y210064D01*
X244884Y210217D01*
X244683Y210341D01*
X244465Y210431D01*
X244235Y210486D01*
X244000Y210505D01*
X243941Y210500D01*
X242059D01*
X242000Y210505D01*
X241765Y210486D01*
X241535Y210431D01*
X241317Y210341D01*
X241116Y210217D01*
X241115Y210217D01*
X240936Y210064D01*
X240898Y210019D01*
X239579Y208701D01*
X239500Y208707D01*
X239155Y208680D01*
X238818Y208599D01*
X238498Y208466D01*
X238203Y208285D01*
X237940Y208060D01*
X237715Y207797D01*
X237534Y207502D01*
X237401Y207182D01*
X237320Y206845D01*
X237293Y206500D01*
X237320Y206155D01*
X237401Y205818D01*
X237534Y205498D01*
X237715Y205203D01*
X237940Y204940D01*
X238203Y204715D01*
X238498Y204534D01*
X238818Y204401D01*
X239155Y204320D01*
X239500Y204293D01*
X239845Y204320D01*
X240182Y204401D01*
X240502Y204534D01*
X240797Y204715D01*
X241060Y204940D01*
X241250Y205162D01*
X241440Y204940D01*
X241600Y204803D01*
Y201080D01*
X241420Y200900D01*
X170580D01*
X170000Y201480D01*
Y209888D01*
X170060Y209940D01*
X170285Y210203D01*
X170466Y210498D01*
X170599Y210818D01*
X170680Y211155D01*
X170700Y211500D01*
X170680Y211845D01*
X170599Y212182D01*
X170466Y212502D01*
X170285Y212797D01*
X170060Y213060D01*
X170000Y213112D01*
Y218000D01*
G37*
G36*
Y183000D02*X268000D01*
Y162000D01*
X245621D01*
X246519Y162898D01*
X246564Y162936D01*
X246717Y163115D01*
X246717Y163116D01*
X246841Y163317D01*
X246931Y163535D01*
X246986Y163765D01*
X247005Y164000D01*
X247000Y164059D01*
Y172441D01*
X247005Y172500D01*
X246986Y172735D01*
X246931Y172965D01*
X246841Y173183D01*
X246717Y173384D01*
X246564Y173564D01*
X246519Y173602D01*
X245102Y175019D01*
X245064Y175064D01*
X244884Y175217D01*
X244683Y175341D01*
X244465Y175431D01*
X244235Y175486D01*
X244000Y175505D01*
X243941Y175500D01*
X242059D01*
X242000Y175505D01*
X241765Y175486D01*
X241535Y175431D01*
X241317Y175341D01*
X241116Y175217D01*
X241115Y175217D01*
X240936Y175064D01*
X240898Y175019D01*
X239579Y173701D01*
X239500Y173707D01*
X239155Y173680D01*
X238818Y173599D01*
X238498Y173466D01*
X238203Y173285D01*
X237940Y173060D01*
X237715Y172797D01*
X237534Y172502D01*
X237401Y172182D01*
X237320Y171845D01*
X237293Y171500D01*
X237320Y171155D01*
X237401Y170818D01*
X237534Y170498D01*
X237715Y170203D01*
X237940Y169940D01*
X238203Y169715D01*
X238498Y169534D01*
X238818Y169401D01*
X239155Y169320D01*
X239500Y169293D01*
X239845Y169320D01*
X240182Y169401D01*
X240502Y169534D01*
X240797Y169715D01*
X241060Y169940D01*
X241250Y170162D01*
X241440Y169940D01*
X241600Y169803D01*
Y166080D01*
X241420Y165900D01*
X170580D01*
X170000Y166480D01*
Y174888D01*
X170060Y174940D01*
X170285Y175203D01*
X170466Y175498D01*
X170599Y175818D01*
X170680Y176155D01*
X170700Y176500D01*
X170680Y176845D01*
X170599Y177182D01*
X170466Y177502D01*
X170285Y177797D01*
X170060Y178060D01*
X170000Y178112D01*
Y183000D01*
G37*
G36*
Y148000D02*X268000D01*
Y127000D01*
X245621D01*
X246519Y127898D01*
X246564Y127936D01*
X246717Y128115D01*
X246717Y128116D01*
X246841Y128317D01*
X246931Y128535D01*
X246986Y128765D01*
X247005Y129000D01*
X247000Y129059D01*
Y137441D01*
X247005Y137500D01*
X246986Y137735D01*
X246931Y137965D01*
X246841Y138183D01*
X246717Y138384D01*
X246564Y138564D01*
X246519Y138602D01*
X245102Y140019D01*
X245064Y140064D01*
X244884Y140217D01*
X244683Y140341D01*
X244465Y140431D01*
X244235Y140486D01*
X244000Y140505D01*
X243941Y140500D01*
X242059D01*
X242000Y140505D01*
X241765Y140486D01*
X241535Y140431D01*
X241317Y140341D01*
X241116Y140217D01*
X241115Y140217D01*
X240936Y140064D01*
X240898Y140019D01*
X239579Y138701D01*
X239500Y138707D01*
X239155Y138680D01*
X238818Y138599D01*
X238498Y138466D01*
X238203Y138285D01*
X237940Y138060D01*
X237715Y137797D01*
X237534Y137502D01*
X237401Y137182D01*
X237320Y136845D01*
X237293Y136500D01*
X237320Y136155D01*
X237401Y135818D01*
X237534Y135498D01*
X237715Y135203D01*
X237940Y134940D01*
X238203Y134715D01*
X238498Y134534D01*
X238818Y134401D01*
X239155Y134320D01*
X239500Y134293D01*
X239845Y134320D01*
X240182Y134401D01*
X240502Y134534D01*
X240797Y134715D01*
X241060Y134940D01*
X241250Y135162D01*
X241440Y134940D01*
X241600Y134803D01*
Y131080D01*
X241420Y130900D01*
X170580D01*
X170000Y131480D01*
Y139888D01*
X170060Y139940D01*
X170285Y140203D01*
X170466Y140498D01*
X170599Y140818D01*
X170680Y141155D01*
X170700Y141500D01*
X170680Y141845D01*
X170599Y142182D01*
X170466Y142502D01*
X170285Y142797D01*
X170060Y143060D01*
X170000Y143112D01*
Y148000D01*
G37*
G36*
Y113000D02*X268000D01*
Y92000D01*
X245621D01*
X246519Y92898D01*
X246564Y92936D01*
X246717Y93115D01*
X246717Y93116D01*
X246841Y93317D01*
X246931Y93535D01*
X246986Y93765D01*
X247005Y94000D01*
X247000Y94059D01*
Y102441D01*
X247005Y102500D01*
X246986Y102735D01*
X246931Y102965D01*
X246841Y103183D01*
X246717Y103384D01*
X246564Y103564D01*
X246519Y103602D01*
X245102Y105019D01*
X245064Y105064D01*
X244884Y105217D01*
X244683Y105341D01*
X244465Y105431D01*
X244235Y105486D01*
X244000Y105505D01*
X243941Y105500D01*
X242059D01*
X242000Y105505D01*
X241765Y105486D01*
X241535Y105431D01*
X241317Y105341D01*
X241116Y105217D01*
X241115Y105217D01*
X240936Y105064D01*
X240898Y105019D01*
X239579Y103701D01*
X239500Y103707D01*
X239155Y103680D01*
X238818Y103599D01*
X238498Y103466D01*
X238203Y103285D01*
X237940Y103060D01*
X237715Y102797D01*
X237534Y102502D01*
X237401Y102182D01*
X237320Y101845D01*
X237293Y101500D01*
X237320Y101155D01*
X237401Y100818D01*
X237534Y100498D01*
X237715Y100203D01*
X237940Y99940D01*
X238203Y99715D01*
X238498Y99534D01*
X238818Y99401D01*
X239155Y99320D01*
X239500Y99293D01*
X239845Y99320D01*
X240182Y99401D01*
X240502Y99534D01*
X240797Y99715D01*
X241060Y99940D01*
X241250Y100162D01*
X241440Y99940D01*
X241600Y99803D01*
Y96080D01*
X241420Y95900D01*
X170580D01*
X170000Y96480D01*
Y104888D01*
X170060Y104940D01*
X170285Y105203D01*
X170466Y105498D01*
X170599Y105818D01*
X170680Y106155D01*
X170700Y106500D01*
X170680Y106845D01*
X170599Y107182D01*
X170466Y107502D01*
X170285Y107797D01*
X170060Y108060D01*
X170000Y108112D01*
Y113000D01*
G37*
G36*
Y78000D02*X268000D01*
Y57000D01*
X245621D01*
X246519Y57898D01*
X246564Y57936D01*
X246717Y58115D01*
X246717Y58116D01*
X246841Y58317D01*
X246931Y58535D01*
X246986Y58765D01*
X247005Y59000D01*
X247000Y59059D01*
Y67441D01*
X247005Y67500D01*
X246986Y67735D01*
X246931Y67965D01*
X246841Y68183D01*
X246717Y68384D01*
X246564Y68564D01*
X246519Y68602D01*
X245102Y70019D01*
X245064Y70064D01*
X244884Y70217D01*
X244683Y70341D01*
X244465Y70431D01*
X244235Y70486D01*
X244000Y70505D01*
X243941Y70500D01*
X242059D01*
X242000Y70505D01*
X241765Y70486D01*
X241535Y70431D01*
X241317Y70341D01*
X241116Y70217D01*
X241115Y70217D01*
X240936Y70064D01*
X240898Y70019D01*
X239579Y68701D01*
X239500Y68707D01*
X239155Y68680D01*
X238818Y68599D01*
X238498Y68466D01*
X238203Y68285D01*
X237940Y68060D01*
X237715Y67797D01*
X237534Y67502D01*
X237401Y67182D01*
X237320Y66845D01*
X237293Y66500D01*
X237320Y66155D01*
X237401Y65818D01*
X237534Y65498D01*
X237715Y65203D01*
X237940Y64940D01*
X238203Y64715D01*
X238498Y64534D01*
X238818Y64401D01*
X239155Y64320D01*
X239500Y64293D01*
X239845Y64320D01*
X240182Y64401D01*
X240502Y64534D01*
X240797Y64715D01*
X241060Y64940D01*
X241250Y65162D01*
X241440Y64940D01*
X241600Y64803D01*
Y61080D01*
X241420Y60900D01*
X170580D01*
X170000Y61480D01*
Y69888D01*
X170060Y69940D01*
X170285Y70203D01*
X170466Y70498D01*
X170599Y70818D01*
X170680Y71155D01*
X170700Y71500D01*
X170680Y71845D01*
X170599Y72182D01*
X170466Y72502D01*
X170285Y72797D01*
X170060Y73060D01*
X170000Y73112D01*
Y78000D01*
G37*
G36*
Y43000D02*X268000D01*
Y22000D01*
X245621D01*
X246519Y22898D01*
X246564Y22936D01*
X246717Y23115D01*
X246717Y23116D01*
X246841Y23317D01*
X246931Y23535D01*
X246986Y23765D01*
X247005Y24000D01*
X247000Y24059D01*
Y32441D01*
X247005Y32500D01*
X246986Y32735D01*
X246931Y32965D01*
X246841Y33183D01*
X246717Y33384D01*
X246564Y33564D01*
X246519Y33602D01*
X245102Y35019D01*
X245064Y35064D01*
X244884Y35217D01*
X244683Y35341D01*
X244465Y35431D01*
X244235Y35486D01*
X244000Y35505D01*
X243941Y35500D01*
X242059D01*
X242000Y35505D01*
X241765Y35486D01*
X241535Y35431D01*
X241317Y35341D01*
X241116Y35217D01*
X241115Y35217D01*
X240936Y35064D01*
X240898Y35019D01*
X239579Y33701D01*
X239500Y33707D01*
X239155Y33680D01*
X238818Y33599D01*
X238498Y33466D01*
X238203Y33285D01*
X237940Y33060D01*
X237715Y32797D01*
X237534Y32502D01*
X237401Y32182D01*
X237320Y31845D01*
X237293Y31500D01*
X237320Y31155D01*
X237401Y30818D01*
X237534Y30498D01*
X237715Y30203D01*
X237940Y29940D01*
X238203Y29715D01*
X238498Y29534D01*
X238818Y29401D01*
X239155Y29320D01*
X239500Y29293D01*
X239845Y29320D01*
X240182Y29401D01*
X240502Y29534D01*
X240797Y29715D01*
X241060Y29940D01*
X241250Y30162D01*
X241440Y29940D01*
X241600Y29803D01*
Y26080D01*
X241420Y25900D01*
X170580D01*
X170000Y26480D01*
Y34888D01*
X170060Y34940D01*
X170285Y35203D01*
X170466Y35498D01*
X170599Y35818D01*
X170680Y36155D01*
X170700Y36500D01*
X170680Y36845D01*
X170599Y37182D01*
X170466Y37502D01*
X170285Y37797D01*
X170060Y38060D01*
X170000Y38112D01*
Y43000D01*
G37*
G36*
X159000Y337000D02*Y340379D01*
X159121Y340500D01*
X163000D01*
Y337000D01*
X159000D01*
G37*
G36*
X182000Y358000D02*Y346000D01*
X169900D01*
Y349803D01*
X170060Y349940D01*
X170285Y350203D01*
X170466Y350498D01*
X170599Y350818D01*
X170680Y351155D01*
X170700Y351500D01*
X170680Y351845D01*
X170599Y352182D01*
X170466Y352502D01*
X170285Y352797D01*
X170060Y353060D01*
X169797Y353285D01*
X169502Y353466D01*
X169182Y353599D01*
X169000Y353642D01*
Y358000D01*
X182000D01*
G37*
G36*
X128000D02*X182000D01*
Y354000D01*
X154507D01*
X154273Y354273D01*
X153974Y354529D01*
X153638Y354734D01*
X153275Y354885D01*
X152892Y354977D01*
X152500Y355008D01*
X152108Y354977D01*
X151725Y354885D01*
X151399Y354750D01*
X149088D01*
X149000Y354757D01*
X148647Y354729D01*
X148303Y354646D01*
X147975Y354511D01*
X147673Y354326D01*
X147673Y354326D01*
X147404Y354096D01*
X147347Y354029D01*
X147318Y354000D01*
X145323D01*
X145179Y354123D01*
X144911Y354288D01*
X144620Y354408D01*
X144314Y354481D01*
X144000Y354506D01*
X143686Y354481D01*
X143380Y354408D01*
X143089Y354288D01*
X142821Y354123D01*
X142677Y354000D01*
X133066D01*
X132843Y354137D01*
X132414Y354314D01*
X131963Y354423D01*
X131500Y354459D01*
X131037Y354423D01*
X130586Y354314D01*
X130157Y354137D01*
X129934Y354000D01*
X128000D01*
Y358000D01*
G37*
G36*
X159000Y302000D02*Y305379D01*
X159121Y305500D01*
X163000D01*
Y302000D01*
X159000D01*
G37*
G36*
X182000Y323000D02*Y311000D01*
X169900D01*
Y314803D01*
X170060Y314940D01*
X170285Y315203D01*
X170466Y315498D01*
X170599Y315818D01*
X170680Y316155D01*
X170700Y316500D01*
X170680Y316845D01*
X170599Y317182D01*
X170466Y317502D01*
X170285Y317797D01*
X170060Y318060D01*
X169797Y318285D01*
X169502Y318466D01*
X169182Y318599D01*
X169000Y318642D01*
Y323000D01*
X182000D01*
G37*
G36*
X128000D02*X182000D01*
Y319000D01*
X154507D01*
X154273Y319273D01*
X153974Y319529D01*
X153638Y319734D01*
X153275Y319885D01*
X152892Y319977D01*
X152500Y320008D01*
X152108Y319977D01*
X151725Y319885D01*
X151399Y319750D01*
X149088D01*
X149000Y319757D01*
X148647Y319729D01*
X148303Y319646D01*
X147975Y319511D01*
X147673Y319326D01*
X147673Y319326D01*
X147404Y319096D01*
X147347Y319029D01*
X147318Y319000D01*
X145323D01*
X145179Y319123D01*
X144911Y319288D01*
X144620Y319408D01*
X144314Y319481D01*
X144000Y319506D01*
X143686Y319481D01*
X143380Y319408D01*
X143089Y319288D01*
X142821Y319123D01*
X142677Y319000D01*
X133066D01*
X132843Y319137D01*
X132414Y319314D01*
X131963Y319423D01*
X131500Y319459D01*
X131037Y319423D01*
X130586Y319314D01*
X130157Y319137D01*
X129934Y319000D01*
X128000D01*
Y323000D01*
G37*
G36*
X182000Y288000D02*Y276000D01*
X169900D01*
Y279803D01*
X170060Y279940D01*
X170285Y280203D01*
X170466Y280498D01*
X170599Y280818D01*
X170680Y281155D01*
X170700Y281500D01*
X170680Y281845D01*
X170599Y282182D01*
X170466Y282502D01*
X170285Y282797D01*
X170060Y283060D01*
X169797Y283285D01*
X169502Y283466D01*
X169182Y283599D01*
X169000Y283642D01*
Y288000D01*
X182000D01*
G37*
G36*
X128000D02*X182000D01*
Y284000D01*
X154507D01*
X154273Y284273D01*
X153974Y284529D01*
X153638Y284734D01*
X153275Y284885D01*
X152892Y284977D01*
X152500Y285008D01*
X152108Y284977D01*
X151725Y284885D01*
X151399Y284750D01*
X149088D01*
X149000Y284757D01*
X148647Y284729D01*
X148303Y284646D01*
X147975Y284511D01*
X147673Y284326D01*
X147673Y284326D01*
X147404Y284096D01*
X147347Y284029D01*
X147318Y284000D01*
X145323D01*
X145179Y284123D01*
X144911Y284288D01*
X144620Y284408D01*
X144314Y284481D01*
X144000Y284506D01*
X143686Y284481D01*
X143380Y284408D01*
X143089Y284288D01*
X142821Y284123D01*
X142677Y284000D01*
X133066D01*
X132843Y284137D01*
X132414Y284314D01*
X131963Y284423D01*
X131500Y284459D01*
X131037Y284423D01*
X130586Y284314D01*
X130157Y284137D01*
X129934Y284000D01*
X128000D01*
Y288000D01*
G37*
G36*
Y183000D02*X182000D01*
Y179000D01*
X154507D01*
X154273Y179273D01*
X153974Y179529D01*
X153638Y179734D01*
X153275Y179885D01*
X152892Y179977D01*
X152500Y180008D01*
X152108Y179977D01*
X151725Y179885D01*
X151399Y179750D01*
X149088D01*
X149000Y179757D01*
X148647Y179729D01*
X148303Y179646D01*
X147975Y179511D01*
X147673Y179326D01*
X147673Y179326D01*
X147404Y179096D01*
X147347Y179029D01*
X147318Y179000D01*
X145323D01*
X145179Y179123D01*
X144911Y179288D01*
X144620Y179408D01*
X144314Y179481D01*
X144000Y179506D01*
X143686Y179481D01*
X143380Y179408D01*
X143089Y179288D01*
X142821Y179123D01*
X142677Y179000D01*
X133066D01*
X132843Y179137D01*
X132414Y179314D01*
X131963Y179423D01*
X131500Y179459D01*
X131037Y179423D01*
X130586Y179314D01*
X130157Y179137D01*
X129934Y179000D01*
X128000D01*
Y183000D01*
G37*
G36*
Y148000D02*X182000D01*
Y144000D01*
X154507D01*
X154273Y144273D01*
X153974Y144529D01*
X153638Y144734D01*
X153275Y144885D01*
X152892Y144977D01*
X152500Y145008D01*
X152108Y144977D01*
X151725Y144885D01*
X151399Y144750D01*
X149088D01*
X149000Y144757D01*
X148647Y144729D01*
X148303Y144646D01*
X147975Y144511D01*
X147673Y144326D01*
X147673Y144326D01*
X147404Y144096D01*
X147347Y144029D01*
X147318Y144000D01*
X145323D01*
X145179Y144123D01*
X144911Y144288D01*
X144620Y144408D01*
X144314Y144481D01*
X144000Y144506D01*
X143686Y144481D01*
X143380Y144408D01*
X143089Y144288D01*
X142821Y144123D01*
X142677Y144000D01*
X133066D01*
X132843Y144137D01*
X132414Y144314D01*
X131963Y144423D01*
X131500Y144459D01*
X131037Y144423D01*
X130586Y144314D01*
X130157Y144137D01*
X129934Y144000D01*
X128000D01*
Y148000D01*
G37*
G36*
Y113000D02*X182000D01*
Y109000D01*
X154507D01*
X154273Y109273D01*
X153974Y109529D01*
X153638Y109734D01*
X153275Y109885D01*
X152892Y109977D01*
X152500Y110008D01*
X152108Y109977D01*
X151725Y109885D01*
X151399Y109750D01*
X149088D01*
X149000Y109757D01*
X148647Y109729D01*
X148303Y109646D01*
X147975Y109511D01*
X147673Y109326D01*
X147673Y109326D01*
X147404Y109096D01*
X147347Y109029D01*
X147318Y109000D01*
X145323D01*
X145179Y109123D01*
X144911Y109288D01*
X144620Y109408D01*
X144314Y109481D01*
X144000Y109506D01*
X143686Y109481D01*
X143380Y109408D01*
X143089Y109288D01*
X142821Y109123D01*
X142677Y109000D01*
X133066D01*
X132843Y109137D01*
X132414Y109314D01*
X131963Y109423D01*
X131500Y109459D01*
X131037Y109423D01*
X130586Y109314D01*
X130157Y109137D01*
X129934Y109000D01*
X128000D01*
Y113000D01*
G37*
G36*
Y78000D02*X182000D01*
Y74000D01*
X154507D01*
X154273Y74273D01*
X153974Y74529D01*
X153638Y74734D01*
X153275Y74885D01*
X152892Y74977D01*
X152500Y75008D01*
X152108Y74977D01*
X151725Y74885D01*
X151399Y74750D01*
X149088D01*
X149000Y74757D01*
X148647Y74729D01*
X148303Y74646D01*
X147975Y74511D01*
X147673Y74326D01*
X147673Y74326D01*
X147404Y74096D01*
X147347Y74029D01*
X147318Y74000D01*
X145323D01*
X145179Y74123D01*
X144911Y74288D01*
X144620Y74408D01*
X144314Y74481D01*
X144000Y74506D01*
X143686Y74481D01*
X143380Y74408D01*
X143089Y74288D01*
X142821Y74123D01*
X142677Y74000D01*
X133066D01*
X132843Y74137D01*
X132414Y74314D01*
X131963Y74423D01*
X131500Y74459D01*
X131037Y74423D01*
X130586Y74314D01*
X130157Y74137D01*
X129934Y74000D01*
X128000D01*
Y78000D01*
G37*
G36*
Y43000D02*X182000D01*
Y39000D01*
X154507D01*
X154273Y39273D01*
X153974Y39529D01*
X153638Y39734D01*
X153275Y39885D01*
X152892Y39977D01*
X152500Y40008D01*
X152108Y39977D01*
X151725Y39885D01*
X151399Y39750D01*
X149088D01*
X149000Y39757D01*
X148647Y39729D01*
X148303Y39646D01*
X147975Y39511D01*
X147673Y39326D01*
X147673Y39326D01*
X147404Y39096D01*
X147347Y39029D01*
X147318Y39000D01*
X145323D01*
X145179Y39123D01*
X144911Y39288D01*
X144620Y39408D01*
X144314Y39481D01*
X144000Y39506D01*
X143686Y39481D01*
X143380Y39408D01*
X143089Y39288D01*
X142821Y39123D01*
X142677Y39000D01*
X133066D01*
X132843Y39137D01*
X132414Y39314D01*
X131963Y39423D01*
X131500Y39459D01*
X131037Y39423D01*
X130586Y39314D01*
X130157Y39137D01*
X129934Y39000D01*
X128000D01*
Y43000D01*
G37*
G36*
X61000Y417000D02*X65493D01*
X65471Y416974D01*
X65266Y416638D01*
X65115Y416275D01*
X65023Y415892D01*
X64992Y415500D01*
X65023Y415108D01*
X65115Y414725D01*
X65266Y414362D01*
X65471Y414026D01*
X65727Y413727D01*
X66026Y413471D01*
X66362Y413266D01*
X66725Y413115D01*
X67108Y413023D01*
X67500Y412992D01*
X67892Y413023D01*
X67977Y413043D01*
X68000Y413020D01*
Y412500D01*
X61000D01*
Y417000D01*
G37*
G36*
Y418000D02*Y428000D01*
X66000D01*
Y426507D01*
X65727Y426273D01*
X65471Y425974D01*
X65266Y425638D01*
X65115Y425275D01*
X65023Y424892D01*
X64992Y424500D01*
X65023Y424108D01*
X65115Y423725D01*
X65266Y423362D01*
X65471Y423026D01*
X65727Y422727D01*
X66000Y422493D01*
Y421507D01*
X65727Y421273D01*
X65471Y420974D01*
X65266Y420638D01*
X65115Y420275D01*
X65023Y419892D01*
X64992Y419500D01*
X65023Y419108D01*
X65115Y418725D01*
X65266Y418362D01*
X65471Y418026D01*
X65493Y418000D01*
X61000D01*
G37*
G36*
Y411500D02*X69520D01*
X72000Y409020D01*
Y407000D01*
X61000D01*
Y411500D01*
G37*
G36*
X77000Y419000D02*X95003D01*
X95009Y416743D01*
X95046Y416590D01*
X95083Y416500D01*
X95046Y416410D01*
X95009Y416257D01*
X95000Y416100D01*
X95008Y413359D01*
X94988Y413100D01*
X95037Y412472D01*
X95184Y411860D01*
X95425Y411278D01*
X95754Y410742D01*
X96046Y410400D01*
X77000D01*
Y419000D01*
G37*
G36*
X81000Y416000D02*Y422250D01*
X88412D01*
X88500Y422243D01*
X88853Y422271D01*
X88853Y422271D01*
X89197Y422354D01*
X89525Y422489D01*
X89827Y422674D01*
X90096Y422904D01*
X90153Y422971D01*
X90932Y423750D01*
X92500D01*
X92853Y423771D01*
X93197Y423854D01*
X93525Y423989D01*
X93827Y424174D01*
X94096Y424404D01*
X94326Y424673D01*
X94511Y424975D01*
X94646Y425303D01*
X94729Y425647D01*
X94757Y426000D01*
X94729Y426353D01*
X94646Y426697D01*
X94511Y427025D01*
X94326Y427327D01*
X94096Y427596D01*
X93827Y427826D01*
X93543Y428000D01*
X99000D01*
Y423912D01*
X98372Y423863D01*
X97760Y423716D01*
X97178Y423475D01*
X96642Y423146D01*
X96163Y422737D01*
X95754Y422258D01*
X95425Y421722D01*
X95184Y421140D01*
X95037Y420528D01*
X94988Y419900D01*
X95000Y419737D01*
X95009Y416743D01*
X95046Y416590D01*
X95083Y416500D01*
X95046Y416410D01*
X95009Y416257D01*
X95000Y416100D01*
X95000Y416000D01*
X81000D01*
G37*
G36*
X83500Y422250D02*Y415500D01*
X77000D01*
Y422250D01*
X83500D01*
G37*
G36*
X103500Y428000D02*Y423000D01*
X101529D01*
X101358Y423146D01*
X100822Y423475D01*
X100240Y423716D01*
X99628Y423863D01*
X99000Y423912D01*
X98372Y423863D01*
X97760Y423716D01*
X97178Y423475D01*
X96642Y423146D01*
X96471Y423000D01*
X95500D01*
Y428000D01*
X103500D01*
G37*
G36*
X109500Y424500D02*Y417467D01*
X109498Y417466D01*
X109203Y417285D01*
X108940Y417060D01*
X108888Y417000D01*
X108612D01*
X108560Y417060D01*
X108297Y417285D01*
X108002Y417466D01*
X107682Y417599D01*
X107345Y417680D01*
X107000Y417707D01*
X106655Y417680D01*
X106318Y417599D01*
X105998Y417466D01*
X105703Y417285D01*
X105440Y417060D01*
X105388Y417000D01*
X103000D01*
X102992Y419758D01*
X103000Y419900D01*
X102991Y420057D01*
Y420057D01*
X102991Y420057D01*
X102963Y420528D01*
X102816Y421140D01*
X102575Y421722D01*
X102246Y422258D01*
X101837Y422737D01*
X101358Y423146D01*
X100822Y423475D01*
X100240Y423716D01*
X99628Y423863D01*
X99000Y423912D01*
X98372Y423863D01*
X97760Y423716D01*
X97178Y423475D01*
X96642Y423146D01*
X96163Y422737D01*
X95754Y422258D01*
X95425Y421722D01*
X95184Y421140D01*
X95037Y420528D01*
X94988Y419900D01*
X95000Y419737D01*
X95009Y417000D01*
X93000D01*
Y423806D01*
X93197Y423854D01*
X93525Y423989D01*
X93827Y424174D01*
X94096Y424404D01*
X94178Y424500D01*
X109500D01*
G37*
G36*
X103500Y417000D02*X94500D01*
Y424500D01*
X103500D01*
Y417000D01*
G37*
G36*
X101000Y428000D02*X131500D01*
Y424459D01*
X131037Y424423D01*
X130586Y424314D01*
X130157Y424137D01*
X129761Y423894D01*
X129408Y423592D01*
X129106Y423239D01*
X128863Y422843D01*
X128686Y422414D01*
X128577Y421963D01*
X128541Y421500D01*
X128577Y421037D01*
X128686Y420586D01*
X128863Y420157D01*
X129106Y419761D01*
X129329Y419500D01*
X102992D01*
X102992Y419758D01*
X103000Y419900D01*
X102991Y420057D01*
Y420057D01*
X102991Y420057D01*
X102963Y420528D01*
X102816Y421140D01*
X102575Y421722D01*
X102246Y422258D01*
X101837Y422737D01*
X101358Y423146D01*
X101000Y423366D01*
Y428000D01*
G37*
G36*
X61000Y383000D02*Y393000D01*
X66000D01*
Y391507D01*
X65727Y391273D01*
X65471Y390974D01*
X65266Y390638D01*
X65115Y390275D01*
X65023Y389892D01*
X64992Y389500D01*
X65023Y389108D01*
X65115Y388725D01*
X65266Y388362D01*
X65471Y388026D01*
X65727Y387727D01*
X66000Y387493D01*
Y386507D01*
X65727Y386273D01*
X65471Y385974D01*
X65266Y385638D01*
X65115Y385275D01*
X65023Y384892D01*
X64992Y384500D01*
X65023Y384108D01*
X65115Y383725D01*
X65266Y383362D01*
X65471Y383026D01*
X65493Y383000D01*
X61000D01*
G37*
G36*
X128000Y393000D02*X182000D01*
Y389000D01*
X154507D01*
X154273Y389273D01*
X153974Y389529D01*
X153638Y389734D01*
X153275Y389885D01*
X152892Y389977D01*
X152500Y390008D01*
X152108Y389977D01*
X151725Y389885D01*
X151399Y389750D01*
X149088D01*
X149000Y389757D01*
X148647Y389729D01*
X148303Y389646D01*
X147975Y389511D01*
X147673Y389326D01*
X147673Y389326D01*
X147404Y389096D01*
X147347Y389029D01*
X147318Y389000D01*
X145323D01*
X145179Y389123D01*
X144911Y389288D01*
X144620Y389408D01*
X144314Y389481D01*
X144000Y389506D01*
X143686Y389481D01*
X143380Y389408D01*
X143089Y389288D01*
X142821Y389123D01*
X142677Y389000D01*
X133066D01*
X132843Y389137D01*
X132414Y389314D01*
X131963Y389423D01*
X131500Y389459D01*
X131037Y389423D01*
X130586Y389314D01*
X130157Y389137D01*
X129934Y389000D01*
X128000D01*
Y393000D01*
G37*
G36*
X103500D02*Y388000D01*
X101529D01*
X101358Y388146D01*
X100822Y388475D01*
X100240Y388716D01*
X99628Y388863D01*
X99000Y388912D01*
X98372Y388863D01*
X97760Y388716D01*
X97178Y388475D01*
X96642Y388146D01*
X96471Y388000D01*
X95500D01*
Y393000D01*
X103500D01*
G37*
G36*
X101000D02*X131500D01*
Y389459D01*
X131037Y389423D01*
X130586Y389314D01*
X130157Y389137D01*
X129761Y388894D01*
X129408Y388592D01*
X129106Y388239D01*
X128863Y387843D01*
X128686Y387414D01*
X128577Y386963D01*
X128541Y386500D01*
X128577Y386037D01*
X128686Y385586D01*
X128863Y385157D01*
X129106Y384761D01*
X129329Y384500D01*
X102992D01*
X102992Y384758D01*
X103000Y384900D01*
X102991Y385057D01*
Y385057D01*
X102991Y385057D01*
X102963Y385528D01*
X102816Y386140D01*
X102575Y386722D01*
X102246Y387258D01*
X101837Y387737D01*
X101358Y388146D01*
X101000Y388366D01*
Y393000D01*
G37*
G36*
X109500Y389500D02*Y382467D01*
X109498Y382466D01*
X109203Y382285D01*
X108940Y382060D01*
X108888Y382000D01*
X108612D01*
X108560Y382060D01*
X108297Y382285D01*
X108002Y382466D01*
X107682Y382599D01*
X107345Y382680D01*
X107000Y382707D01*
X106655Y382680D01*
X106318Y382599D01*
X105998Y382466D01*
X105703Y382285D01*
X105440Y382060D01*
X105388Y382000D01*
X103000D01*
X102992Y384758D01*
X103000Y384900D01*
X102991Y385057D01*
Y385057D01*
X102991Y385057D01*
X102963Y385528D01*
X102816Y386140D01*
X102575Y386722D01*
X102246Y387258D01*
X101837Y387737D01*
X101358Y388146D01*
X100822Y388475D01*
X100240Y388716D01*
X99628Y388863D01*
X99000Y388912D01*
X98372Y388863D01*
X97760Y388716D01*
X97178Y388475D01*
X96642Y388146D01*
X96163Y387737D01*
X95754Y387258D01*
X95425Y386722D01*
X95184Y386140D01*
X95037Y385528D01*
X94988Y384900D01*
X95000Y384737D01*
X95009Y382000D01*
X93000D01*
Y388806D01*
X93197Y388854D01*
X93525Y388989D01*
X93827Y389174D01*
X94096Y389404D01*
X94178Y389500D01*
X109500D01*
G37*
G36*
X103500Y382000D02*X94500D01*
Y389500D01*
X103500D01*
Y382000D01*
G37*
G36*
X159000Y407000D02*Y410379D01*
X159121Y410500D01*
X163000D01*
Y407000D01*
X159000D01*
G37*
G36*
X182000Y428000D02*Y416000D01*
X169900D01*
Y419803D01*
X170060Y419940D01*
X170285Y420203D01*
X170466Y420498D01*
X170599Y420818D01*
X170680Y421155D01*
X170700Y421500D01*
X170680Y421845D01*
X170599Y422182D01*
X170466Y422502D01*
X170285Y422797D01*
X170060Y423060D01*
X169797Y423285D01*
X169502Y423466D01*
X169182Y423599D01*
X169000Y423642D01*
Y428000D01*
X182000D01*
G37*
G36*
X170000D02*X268000D01*
Y407000D01*
X245621D01*
X246519Y407898D01*
X246564Y407936D01*
X246717Y408115D01*
X246717Y408116D01*
X246841Y408317D01*
X246931Y408535D01*
X246986Y408765D01*
X247005Y409000D01*
X247000Y409059D01*
Y417441D01*
X247005Y417500D01*
X246986Y417735D01*
X246931Y417965D01*
X246841Y418183D01*
X246717Y418384D01*
X246564Y418564D01*
X246519Y418602D01*
X245102Y420019D01*
X245064Y420064D01*
X244884Y420217D01*
X244683Y420341D01*
X244465Y420431D01*
X244235Y420486D01*
X244000Y420505D01*
X243941Y420500D01*
X242059D01*
X242000Y420505D01*
X241765Y420486D01*
X241535Y420431D01*
X241317Y420341D01*
X241116Y420217D01*
X241115Y420217D01*
X240936Y420064D01*
X240898Y420019D01*
X239579Y418701D01*
X239500Y418707D01*
X239155Y418680D01*
X238818Y418599D01*
X238498Y418466D01*
X238203Y418285D01*
X237940Y418060D01*
X237715Y417797D01*
X237534Y417502D01*
X237401Y417182D01*
X237320Y416845D01*
X237293Y416500D01*
X237320Y416155D01*
X237401Y415818D01*
X237534Y415498D01*
X237715Y415203D01*
X237940Y414940D01*
X238203Y414715D01*
X238498Y414534D01*
X238818Y414401D01*
X239155Y414320D01*
X239500Y414293D01*
X239845Y414320D01*
X240182Y414401D01*
X240502Y414534D01*
X240797Y414715D01*
X241060Y414940D01*
X241250Y415162D01*
X241440Y414940D01*
X241600Y414803D01*
Y411080D01*
X241420Y410900D01*
X170580D01*
X170000Y411480D01*
Y419888D01*
X170060Y419940D01*
X170285Y420203D01*
X170466Y420498D01*
X170599Y420818D01*
X170680Y421155D01*
X170700Y421500D01*
X170680Y421845D01*
X170599Y422182D01*
X170466Y422502D01*
X170285Y422797D01*
X170060Y423060D01*
X170000Y423112D01*
Y428000D01*
G37*
G36*
X128000D02*X182000D01*
Y424000D01*
X154507D01*
X154273Y424273D01*
X153974Y424529D01*
X153638Y424734D01*
X153275Y424885D01*
X152892Y424977D01*
X152500Y425008D01*
X152108Y424977D01*
X151725Y424885D01*
X151399Y424750D01*
X149088D01*
X149000Y424757D01*
X148647Y424729D01*
X148303Y424646D01*
X147975Y424511D01*
X147673Y424326D01*
X147673Y424326D01*
X147404Y424096D01*
X147347Y424029D01*
X147318Y424000D01*
X145323D01*
X145179Y424123D01*
X144911Y424288D01*
X144620Y424408D01*
X144314Y424481D01*
X144000Y424506D01*
X143686Y424481D01*
X143380Y424408D01*
X143089Y424288D01*
X142821Y424123D01*
X142677Y424000D01*
X133066D01*
X132843Y424137D01*
X132414Y424314D01*
X131963Y424423D01*
X131500Y424459D01*
X131037Y424423D01*
X130586Y424314D01*
X130157Y424137D01*
X129934Y424000D01*
X128000D01*
Y428000D01*
G37*
G36*
X61000Y382000D02*X65493D01*
X65471Y381974D01*
X65266Y381638D01*
X65115Y381275D01*
X65023Y380892D01*
X64992Y380500D01*
X65023Y380108D01*
X65115Y379725D01*
X65266Y379362D01*
X65471Y379026D01*
X65727Y378727D01*
X66026Y378471D01*
X66362Y378266D01*
X66725Y378115D01*
X67108Y378023D01*
X67500Y377992D01*
X67892Y378023D01*
X67977Y378043D01*
X68000Y378020D01*
Y377500D01*
X61000D01*
Y382000D01*
G37*
G36*
X77000Y384000D02*X95003D01*
X95009Y381743D01*
X95046Y381590D01*
X95083Y381500D01*
X95046Y381410D01*
X95009Y381257D01*
X95000Y381100D01*
X95008Y378359D01*
X94988Y378100D01*
X95037Y377472D01*
X95184Y376860D01*
X95425Y376278D01*
X95754Y375742D01*
X96046Y375400D01*
X77000D01*
Y384000D01*
G37*
G36*
X81000Y381000D02*Y387250D01*
X88412D01*
X88500Y387243D01*
X88853Y387271D01*
X88853Y387271D01*
X89197Y387354D01*
X89525Y387489D01*
X89827Y387674D01*
X90096Y387904D01*
X90153Y387971D01*
X90932Y388750D01*
X92500D01*
X92853Y388771D01*
X93197Y388854D01*
X93525Y388989D01*
X93827Y389174D01*
X94096Y389404D01*
X94326Y389673D01*
X94511Y389975D01*
X94646Y390303D01*
X94729Y390647D01*
X94757Y391000D01*
X94729Y391353D01*
X94646Y391697D01*
X94511Y392025D01*
X94326Y392327D01*
X94096Y392596D01*
X93827Y392826D01*
X93543Y393000D01*
X99000D01*
Y388912D01*
X98372Y388863D01*
X97760Y388716D01*
X97178Y388475D01*
X96642Y388146D01*
X96163Y387737D01*
X95754Y387258D01*
X95425Y386722D01*
X95184Y386140D01*
X95037Y385528D01*
X94988Y384900D01*
X95000Y384737D01*
X95009Y381743D01*
X95046Y381590D01*
X95083Y381500D01*
X95046Y381410D01*
X95009Y381257D01*
X95000Y381100D01*
X95000Y381000D01*
X81000D01*
G37*
G36*
X83500Y387250D02*Y380500D01*
X77000D01*
Y387250D01*
X83500D01*
G37*
G36*
X61000Y376500D02*X69520D01*
X72000Y374020D01*
Y372000D01*
X61000D01*
Y376500D01*
G37*
G36*
X159000Y372000D02*Y375379D01*
X159121Y375500D01*
X163000D01*
Y372000D01*
X159000D01*
G37*
G36*
X77000Y349000D02*X95003D01*
X95009Y346743D01*
X95046Y346590D01*
X95083Y346500D01*
X95046Y346410D01*
X95009Y346257D01*
X95000Y346100D01*
X95008Y343359D01*
X94988Y343100D01*
X95037Y342472D01*
X95184Y341860D01*
X95425Y341278D01*
X95754Y340742D01*
X96046Y340400D01*
X77000D01*
Y349000D01*
G37*
G36*
X81000Y346000D02*Y352250D01*
X88412D01*
X88500Y352243D01*
X88853Y352271D01*
X88853Y352271D01*
X89197Y352354D01*
X89525Y352489D01*
X89827Y352674D01*
X90096Y352904D01*
X90153Y352971D01*
X90932Y353750D01*
X92500D01*
X92853Y353771D01*
X93197Y353854D01*
X93525Y353989D01*
X93827Y354174D01*
X94096Y354404D01*
X94326Y354673D01*
X94511Y354975D01*
X94646Y355303D01*
X94729Y355647D01*
X94757Y356000D01*
X94729Y356353D01*
X94646Y356697D01*
X94511Y357025D01*
X94326Y357327D01*
X94096Y357596D01*
X93827Y357826D01*
X93543Y358000D01*
X99000D01*
Y353912D01*
X98372Y353863D01*
X97760Y353716D01*
X97178Y353475D01*
X96642Y353146D01*
X96163Y352737D01*
X95754Y352258D01*
X95425Y351722D01*
X95184Y351140D01*
X95037Y350528D01*
X94988Y349900D01*
X95000Y349737D01*
X95009Y346743D01*
X95046Y346590D01*
X95083Y346500D01*
X95046Y346410D01*
X95009Y346257D01*
X95000Y346100D01*
X95000Y346000D01*
X81000D01*
G37*
G36*
X103500Y358000D02*Y353000D01*
X101529D01*
X101358Y353146D01*
X100822Y353475D01*
X100240Y353716D01*
X99628Y353863D01*
X99000Y353912D01*
X98372Y353863D01*
X97760Y353716D01*
X97178Y353475D01*
X96642Y353146D01*
X96471Y353000D01*
X95500D01*
Y358000D01*
X103500D01*
G37*
G36*
X83500Y352250D02*Y345500D01*
X77000D01*
Y352250D01*
X83500D01*
G37*
G36*
X101000Y358000D02*X131500D01*
Y354459D01*
X131037Y354423D01*
X130586Y354314D01*
X130157Y354137D01*
X129761Y353894D01*
X129408Y353592D01*
X129106Y353239D01*
X128863Y352843D01*
X128686Y352414D01*
X128577Y351963D01*
X128541Y351500D01*
X128577Y351037D01*
X128686Y350586D01*
X128863Y350157D01*
X129106Y349761D01*
X129329Y349500D01*
X102992D01*
X102992Y349758D01*
X103000Y349900D01*
X102991Y350057D01*
Y350057D01*
X102991Y350057D01*
X102963Y350528D01*
X102816Y351140D01*
X102575Y351722D01*
X102246Y352258D01*
X101837Y352737D01*
X101358Y353146D01*
X101000Y353366D01*
Y358000D01*
G37*
G36*
X109500Y354500D02*Y347467D01*
X109498Y347466D01*
X109203Y347285D01*
X108940Y347060D01*
X108888Y347000D01*
X108612D01*
X108560Y347060D01*
X108297Y347285D01*
X108002Y347466D01*
X107682Y347599D01*
X107345Y347680D01*
X107000Y347707D01*
X106655Y347680D01*
X106318Y347599D01*
X105998Y347466D01*
X105703Y347285D01*
X105440Y347060D01*
X105388Y347000D01*
X103000D01*
X102992Y349758D01*
X103000Y349900D01*
X102991Y350057D01*
Y350057D01*
X102991Y350057D01*
X102963Y350528D01*
X102816Y351140D01*
X102575Y351722D01*
X102246Y352258D01*
X101837Y352737D01*
X101358Y353146D01*
X100822Y353475D01*
X100240Y353716D01*
X99628Y353863D01*
X99000Y353912D01*
X98372Y353863D01*
X97760Y353716D01*
X97178Y353475D01*
X96642Y353146D01*
X96163Y352737D01*
X95754Y352258D01*
X95425Y351722D01*
X95184Y351140D01*
X95037Y350528D01*
X94988Y349900D01*
X95000Y349737D01*
X95009Y347000D01*
X93000D01*
Y353806D01*
X93197Y353854D01*
X93525Y353989D01*
X93827Y354174D01*
X94096Y354404D01*
X94178Y354500D01*
X109500D01*
G37*
G36*
X103500Y347000D02*X94500D01*
Y354500D01*
X103500D01*
Y347000D01*
G37*
G36*
X61000D02*X65493D01*
X65471Y346974D01*
X65266Y346638D01*
X65115Y346275D01*
X65023Y345892D01*
X64992Y345500D01*
X65023Y345108D01*
X65115Y344725D01*
X65266Y344362D01*
X65471Y344026D01*
X65727Y343727D01*
X66026Y343471D01*
X66362Y343266D01*
X66725Y343115D01*
X67108Y343023D01*
X67500Y342992D01*
X67892Y343023D01*
X67977Y343043D01*
X68000Y343020D01*
Y342500D01*
X61000D01*
Y347000D01*
G37*
G36*
Y348000D02*Y358000D01*
X66000D01*
Y356507D01*
X65727Y356273D01*
X65471Y355974D01*
X65266Y355638D01*
X65115Y355275D01*
X65023Y354892D01*
X64992Y354500D01*
X65023Y354108D01*
X65115Y353725D01*
X65266Y353362D01*
X65471Y353026D01*
X65727Y352727D01*
X66000Y352493D01*
Y351507D01*
X65727Y351273D01*
X65471Y350974D01*
X65266Y350638D01*
X65115Y350275D01*
X65023Y349892D01*
X64992Y349500D01*
X65023Y349108D01*
X65115Y348725D01*
X65266Y348362D01*
X65471Y348026D01*
X65493Y348000D01*
X61000D01*
G37*
G36*
Y341500D02*X69520D01*
X72000Y339020D01*
Y337000D01*
X61000D01*
Y341500D01*
G37*
G36*
X103500Y312000D02*X94500D01*
Y319500D01*
X103500D01*
Y312000D01*
G37*
G36*
X77000Y314000D02*X95003D01*
X95009Y311743D01*
X95046Y311590D01*
X95083Y311500D01*
X95046Y311410D01*
X95009Y311257D01*
X95000Y311100D01*
X95008Y308359D01*
X94988Y308100D01*
X95037Y307472D01*
X95184Y306860D01*
X95425Y306278D01*
X95754Y305742D01*
X96046Y305400D01*
X77000D01*
Y314000D01*
G37*
G36*
X81000Y311000D02*Y317250D01*
X88412D01*
X88500Y317243D01*
X88853Y317271D01*
X88853Y317271D01*
X89197Y317354D01*
X89525Y317489D01*
X89827Y317674D01*
X90096Y317904D01*
X90153Y317971D01*
X90932Y318750D01*
X92500D01*
X92853Y318771D01*
X93197Y318854D01*
X93525Y318989D01*
X93827Y319174D01*
X94096Y319404D01*
X94326Y319673D01*
X94511Y319975D01*
X94646Y320303D01*
X94729Y320647D01*
X94757Y321000D01*
X94729Y321353D01*
X94646Y321697D01*
X94511Y322025D01*
X94326Y322327D01*
X94096Y322596D01*
X93827Y322826D01*
X93543Y323000D01*
X99000D01*
Y318912D01*
X98372Y318863D01*
X97760Y318716D01*
X97178Y318475D01*
X96642Y318146D01*
X96163Y317737D01*
X95754Y317258D01*
X95425Y316722D01*
X95184Y316140D01*
X95037Y315528D01*
X94988Y314900D01*
X95000Y314737D01*
X95009Y311743D01*
X95046Y311590D01*
X95083Y311500D01*
X95046Y311410D01*
X95009Y311257D01*
X95000Y311100D01*
X95000Y311000D01*
X81000D01*
G37*
G36*
X103500Y323000D02*Y318000D01*
X101529D01*
X101358Y318146D01*
X100822Y318475D01*
X100240Y318716D01*
X99628Y318863D01*
X99000Y318912D01*
X98372Y318863D01*
X97760Y318716D01*
X97178Y318475D01*
X96642Y318146D01*
X96471Y318000D01*
X95500D01*
Y323000D01*
X103500D01*
G37*
G36*
X83500Y317250D02*Y310500D01*
X77000D01*
Y317250D01*
X83500D01*
G37*
G36*
X101000Y323000D02*X131500D01*
Y319459D01*
X131037Y319423D01*
X130586Y319314D01*
X130157Y319137D01*
X129761Y318894D01*
X129408Y318592D01*
X129106Y318239D01*
X128863Y317843D01*
X128686Y317414D01*
X128577Y316963D01*
X128541Y316500D01*
X128577Y316037D01*
X128686Y315586D01*
X128863Y315157D01*
X129106Y314761D01*
X129329Y314500D01*
X102992D01*
X102992Y314758D01*
X103000Y314900D01*
X102991Y315057D01*
Y315057D01*
X102991Y315057D01*
X102963Y315528D01*
X102816Y316140D01*
X102575Y316722D01*
X102246Y317258D01*
X101837Y317737D01*
X101358Y318146D01*
X101000Y318366D01*
Y323000D01*
G37*
G36*
X109500Y319500D02*Y312467D01*
X109498Y312466D01*
X109203Y312285D01*
X108940Y312060D01*
X108888Y312000D01*
X108612D01*
X108560Y312060D01*
X108297Y312285D01*
X108002Y312466D01*
X107682Y312599D01*
X107345Y312680D01*
X107000Y312707D01*
X106655Y312680D01*
X106318Y312599D01*
X105998Y312466D01*
X105703Y312285D01*
X105440Y312060D01*
X105388Y312000D01*
X103000D01*
X102992Y314758D01*
X103000Y314900D01*
X102991Y315057D01*
Y315057D01*
X102991Y315057D01*
X102963Y315528D01*
X102816Y316140D01*
X102575Y316722D01*
X102246Y317258D01*
X101837Y317737D01*
X101358Y318146D01*
X100822Y318475D01*
X100240Y318716D01*
X99628Y318863D01*
X99000Y318912D01*
X98372Y318863D01*
X97760Y318716D01*
X97178Y318475D01*
X96642Y318146D01*
X96163Y317737D01*
X95754Y317258D01*
X95425Y316722D01*
X95184Y316140D01*
X95037Y315528D01*
X94988Y314900D01*
X95000Y314737D01*
X95009Y312000D01*
X93000D01*
Y318806D01*
X93197Y318854D01*
X93525Y318989D01*
X93827Y319174D01*
X94096Y319404D01*
X94178Y319500D01*
X109500D01*
G37*
G36*
X81000Y276000D02*Y282250D01*
X88412D01*
X88500Y282243D01*
X88853Y282271D01*
X88853Y282271D01*
X89197Y282354D01*
X89525Y282489D01*
X89827Y282674D01*
X90096Y282904D01*
X90153Y282971D01*
X90932Y283750D01*
X92500D01*
X92853Y283771D01*
X93197Y283854D01*
X93525Y283989D01*
X93827Y284174D01*
X94096Y284404D01*
X94326Y284673D01*
X94511Y284975D01*
X94646Y285303D01*
X94729Y285647D01*
X94757Y286000D01*
X94729Y286353D01*
X94646Y286697D01*
X94511Y287025D01*
X94326Y287327D01*
X94096Y287596D01*
X93827Y287826D01*
X93543Y288000D01*
X99000D01*
Y283912D01*
X98372Y283863D01*
X97760Y283716D01*
X97178Y283475D01*
X96642Y283146D01*
X96163Y282737D01*
X95754Y282258D01*
X95425Y281722D01*
X95184Y281140D01*
X95037Y280528D01*
X94988Y279900D01*
X95000Y279737D01*
X95009Y276743D01*
X95046Y276590D01*
X95083Y276500D01*
X95046Y276410D01*
X95009Y276257D01*
X95000Y276100D01*
X95000Y276000D01*
X81000D01*
G37*
G36*
X103500Y288000D02*Y283000D01*
X101529D01*
X101358Y283146D01*
X100822Y283475D01*
X100240Y283716D01*
X99628Y283863D01*
X99000Y283912D01*
X98372Y283863D01*
X97760Y283716D01*
X97178Y283475D01*
X96642Y283146D01*
X96471Y283000D01*
X95500D01*
Y288000D01*
X103500D01*
G37*
G36*
X83500Y282250D02*Y275500D01*
X77000D01*
Y282250D01*
X83500D01*
G37*
G36*
X101000Y288000D02*X131500D01*
Y284459D01*
X131037Y284423D01*
X130586Y284314D01*
X130157Y284137D01*
X129761Y283894D01*
X129408Y283592D01*
X129106Y283239D01*
X128863Y282843D01*
X128686Y282414D01*
X128577Y281963D01*
X128541Y281500D01*
X128577Y281037D01*
X128686Y280586D01*
X128863Y280157D01*
X129106Y279761D01*
X129329Y279500D01*
X102992D01*
X102992Y279758D01*
X103000Y279900D01*
X102991Y280057D01*
Y280057D01*
X102991Y280057D01*
X102963Y280528D01*
X102816Y281140D01*
X102575Y281722D01*
X102246Y282258D01*
X101837Y282737D01*
X101358Y283146D01*
X101000Y283366D01*
Y288000D01*
G37*
G36*
X109500Y284500D02*Y277467D01*
X109498Y277466D01*
X109203Y277285D01*
X108940Y277060D01*
X108888Y277000D01*
X108612D01*
X108560Y277060D01*
X108297Y277285D01*
X108002Y277466D01*
X107682Y277599D01*
X107345Y277680D01*
X107000Y277707D01*
X106655Y277680D01*
X106318Y277599D01*
X105998Y277466D01*
X105703Y277285D01*
X105440Y277060D01*
X105388Y277000D01*
X103000D01*
X102992Y279758D01*
X103000Y279900D01*
X102991Y280057D01*
Y280057D01*
X102991Y280057D01*
X102963Y280528D01*
X102816Y281140D01*
X102575Y281722D01*
X102246Y282258D01*
X101837Y282737D01*
X101358Y283146D01*
X100822Y283475D01*
X100240Y283716D01*
X99628Y283863D01*
X99000Y283912D01*
X98372Y283863D01*
X97760Y283716D01*
X97178Y283475D01*
X96642Y283146D01*
X96163Y282737D01*
X95754Y282258D01*
X95425Y281722D01*
X95184Y281140D01*
X95037Y280528D01*
X94988Y279900D01*
X95000Y279737D01*
X95009Y277000D01*
X93000D01*
Y283806D01*
X93197Y283854D01*
X93525Y283989D01*
X93827Y284174D01*
X94096Y284404D01*
X94178Y284500D01*
X109500D01*
G37*
G36*
X103500Y277000D02*X94500D01*
Y284500D01*
X103500D01*
Y277000D01*
G37*
G36*
X61000Y312000D02*X65493D01*
X65471Y311974D01*
X65266Y311638D01*
X65115Y311275D01*
X65023Y310892D01*
X64992Y310500D01*
X65023Y310108D01*
X65115Y309725D01*
X65266Y309362D01*
X65471Y309026D01*
X65727Y308727D01*
X66026Y308471D01*
X66362Y308266D01*
X66725Y308115D01*
X67108Y308023D01*
X67500Y307992D01*
X67892Y308023D01*
X67977Y308043D01*
X68000Y308020D01*
Y307500D01*
X61000D01*
Y312000D01*
G37*
G36*
Y313000D02*Y323000D01*
X66000D01*
Y321507D01*
X65727Y321273D01*
X65471Y320974D01*
X65266Y320638D01*
X65115Y320275D01*
X65023Y319892D01*
X64992Y319500D01*
X65023Y319108D01*
X65115Y318725D01*
X65266Y318362D01*
X65471Y318026D01*
X65727Y317727D01*
X66000Y317493D01*
Y316507D01*
X65727Y316273D01*
X65471Y315974D01*
X65266Y315638D01*
X65115Y315275D01*
X65023Y314892D01*
X64992Y314500D01*
X65023Y314108D01*
X65115Y313725D01*
X65266Y313362D01*
X65471Y313026D01*
X65493Y313000D01*
X61000D01*
G37*
G36*
Y306500D02*X69520D01*
X72000Y304020D01*
Y302000D01*
X61000D01*
Y306500D01*
G37*
G36*
Y277000D02*X65493D01*
X65471Y276974D01*
X65266Y276638D01*
X65115Y276275D01*
X65023Y275892D01*
X64992Y275500D01*
X65023Y275108D01*
X65115Y274725D01*
X65266Y274362D01*
X65471Y274026D01*
X65727Y273727D01*
X66026Y273471D01*
X66362Y273266D01*
X66725Y273115D01*
X67108Y273023D01*
X67500Y272992D01*
X67892Y273023D01*
X67977Y273043D01*
X68000Y273020D01*
Y272500D01*
X61000D01*
Y277000D01*
G37*
G36*
Y278000D02*Y288000D01*
X66000D01*
Y286507D01*
X65727Y286273D01*
X65471Y285974D01*
X65266Y285638D01*
X65115Y285275D01*
X65023Y284892D01*
X64992Y284500D01*
X65023Y284108D01*
X65115Y283725D01*
X65266Y283362D01*
X65471Y283026D01*
X65727Y282727D01*
X66000Y282493D01*
Y281507D01*
X65727Y281273D01*
X65471Y280974D01*
X65266Y280638D01*
X65115Y280275D01*
X65023Y279892D01*
X64992Y279500D01*
X65023Y279108D01*
X65115Y278725D01*
X65266Y278362D01*
X65471Y278026D01*
X65493Y278000D01*
X61000D01*
G37*
G36*
Y271500D02*X69520D01*
X72000Y269020D01*
Y267000D01*
X61000D01*
Y271500D01*
G37*
G36*
X77000Y279000D02*X95003D01*
X95009Y276743D01*
X95046Y276590D01*
X95083Y276500D01*
X95046Y276410D01*
X95009Y276257D01*
X95000Y276100D01*
X95008Y273359D01*
X94988Y273100D01*
X95037Y272472D01*
X95184Y271860D01*
X95425Y271278D01*
X95754Y270742D01*
X96046Y270400D01*
X77000D01*
Y279000D01*
G37*
G36*
X159000Y267000D02*Y270379D01*
X159121Y270500D01*
X163000D01*
Y267000D01*
X159000D01*
G37*
G36*
Y232000D02*Y235379D01*
X159121Y235500D01*
X163000D01*
Y232000D01*
X159000D01*
G37*
G36*
Y197000D02*Y200379D01*
X159121Y200500D01*
X163000D01*
Y197000D01*
X159000D01*
G37*
G36*
Y127000D02*Y130379D01*
X159121Y130500D01*
X163000D01*
Y127000D01*
X159000D01*
G37*
G36*
Y92000D02*Y95379D01*
X159121Y95500D01*
X163000D01*
Y92000D01*
X159000D01*
G37*
G36*
X81000Y241000D02*Y247250D01*
X88412D01*
X88500Y247243D01*
X88853Y247271D01*
X88853Y247271D01*
X89197Y247354D01*
X89525Y247489D01*
X89827Y247674D01*
X90096Y247904D01*
X90153Y247971D01*
X90932Y248750D01*
X92500D01*
X92853Y248771D01*
X93197Y248854D01*
X93525Y248989D01*
X93827Y249174D01*
X94096Y249404D01*
X94326Y249673D01*
X94511Y249975D01*
X94646Y250303D01*
X94729Y250647D01*
X94757Y251000D01*
X94729Y251353D01*
X94646Y251697D01*
X94511Y252025D01*
X94326Y252327D01*
X94096Y252596D01*
X93827Y252826D01*
X93543Y253000D01*
X99000D01*
Y248912D01*
X98372Y248863D01*
X97760Y248716D01*
X97178Y248475D01*
X96642Y248146D01*
X96163Y247737D01*
X95754Y247258D01*
X95425Y246722D01*
X95184Y246140D01*
X95037Y245528D01*
X94988Y244900D01*
X95000Y244737D01*
X95009Y241743D01*
X95046Y241590D01*
X95083Y241500D01*
X95046Y241410D01*
X95009Y241257D01*
X95000Y241100D01*
X95000Y241000D01*
X81000D01*
G37*
G36*
X101000Y253000D02*X131500D01*
Y249459D01*
X131037Y249423D01*
X130586Y249314D01*
X130157Y249137D01*
X129761Y248894D01*
X129408Y248592D01*
X129106Y248239D01*
X128863Y247843D01*
X128686Y247414D01*
X128577Y246963D01*
X128541Y246500D01*
X128577Y246037D01*
X128686Y245586D01*
X128863Y245157D01*
X129106Y244761D01*
X129329Y244500D01*
X102992D01*
X102992Y244758D01*
X103000Y244900D01*
X102991Y245057D01*
Y245057D01*
X102991Y245057D01*
X102963Y245528D01*
X102816Y246140D01*
X102575Y246722D01*
X102246Y247258D01*
X101837Y247737D01*
X101358Y248146D01*
X101000Y248366D01*
Y253000D01*
G37*
G36*
X109500Y249500D02*Y242467D01*
X109498Y242466D01*
X109203Y242285D01*
X108940Y242060D01*
X108888Y242000D01*
X108612D01*
X108560Y242060D01*
X108297Y242285D01*
X108002Y242466D01*
X107682Y242599D01*
X107345Y242680D01*
X107000Y242707D01*
X106655Y242680D01*
X106318Y242599D01*
X105998Y242466D01*
X105703Y242285D01*
X105440Y242060D01*
X105388Y242000D01*
X103000D01*
X102992Y244758D01*
X103000Y244900D01*
X102991Y245057D01*
Y245057D01*
X102991Y245057D01*
X102963Y245528D01*
X102816Y246140D01*
X102575Y246722D01*
X102246Y247258D01*
X101837Y247737D01*
X101358Y248146D01*
X100822Y248475D01*
X100240Y248716D01*
X99628Y248863D01*
X99000Y248912D01*
X98372Y248863D01*
X97760Y248716D01*
X97178Y248475D01*
X96642Y248146D01*
X96163Y247737D01*
X95754Y247258D01*
X95425Y246722D01*
X95184Y246140D01*
X95037Y245528D01*
X94988Y244900D01*
X95000Y244737D01*
X95009Y242000D01*
X93000D01*
Y248806D01*
X93197Y248854D01*
X93525Y248989D01*
X93827Y249174D01*
X94096Y249404D01*
X94178Y249500D01*
X109500D01*
G37*
G36*
X182000Y253000D02*Y241000D01*
X169900D01*
Y244803D01*
X170060Y244940D01*
X170285Y245203D01*
X170466Y245498D01*
X170599Y245818D01*
X170680Y246155D01*
X170700Y246500D01*
X170680Y246845D01*
X170599Y247182D01*
X170466Y247502D01*
X170285Y247797D01*
X170060Y248060D01*
X169797Y248285D01*
X169502Y248466D01*
X169182Y248599D01*
X169000Y248642D01*
Y253000D01*
X182000D01*
G37*
G36*
Y218000D02*Y206000D01*
X169900D01*
Y209803D01*
X170060Y209940D01*
X170285Y210203D01*
X170466Y210498D01*
X170599Y210818D01*
X170680Y211155D01*
X170700Y211500D01*
X170680Y211845D01*
X170599Y212182D01*
X170466Y212502D01*
X170285Y212797D01*
X170060Y213060D01*
X169797Y213285D01*
X169502Y213466D01*
X169182Y213599D01*
X169000Y213642D01*
Y218000D01*
X182000D01*
G37*
G36*
Y183000D02*Y171000D01*
X169900D01*
Y174803D01*
X170060Y174940D01*
X170285Y175203D01*
X170466Y175498D01*
X170599Y175818D01*
X170680Y176155D01*
X170700Y176500D01*
X170680Y176845D01*
X170599Y177182D01*
X170466Y177502D01*
X170285Y177797D01*
X170060Y178060D01*
X169797Y178285D01*
X169502Y178466D01*
X169182Y178599D01*
X169000Y178642D01*
Y183000D01*
X182000D01*
G37*
G36*
X128000Y253000D02*X182000D01*
Y249000D01*
X154507D01*
X154273Y249273D01*
X153974Y249529D01*
X153638Y249734D01*
X153275Y249885D01*
X152892Y249977D01*
X152500Y250008D01*
X152108Y249977D01*
X151725Y249885D01*
X151399Y249750D01*
X149088D01*
X149000Y249757D01*
X148647Y249729D01*
X148303Y249646D01*
X147975Y249511D01*
X147673Y249326D01*
X147673Y249326D01*
X147404Y249096D01*
X147347Y249029D01*
X147318Y249000D01*
X145323D01*
X145179Y249123D01*
X144911Y249288D01*
X144620Y249408D01*
X144314Y249481D01*
X144000Y249506D01*
X143686Y249481D01*
X143380Y249408D01*
X143089Y249288D01*
X142821Y249123D01*
X142677Y249000D01*
X133066D01*
X132843Y249137D01*
X132414Y249314D01*
X131963Y249423D01*
X131500Y249459D01*
X131037Y249423D01*
X130586Y249314D01*
X130157Y249137D01*
X129934Y249000D01*
X128000D01*
Y253000D01*
G37*
G36*
Y218000D02*X182000D01*
Y214000D01*
X154507D01*
X154273Y214273D01*
X153974Y214529D01*
X153638Y214734D01*
X153275Y214885D01*
X152892Y214977D01*
X152500Y215008D01*
X152108Y214977D01*
X151725Y214885D01*
X151399Y214750D01*
X149088D01*
X149000Y214757D01*
X148647Y214729D01*
X148303Y214646D01*
X147975Y214511D01*
X147673Y214326D01*
X147673Y214326D01*
X147404Y214096D01*
X147347Y214029D01*
X147318Y214000D01*
X145323D01*
X145179Y214123D01*
X144911Y214288D01*
X144620Y214408D01*
X144314Y214481D01*
X144000Y214506D01*
X143686Y214481D01*
X143380Y214408D01*
X143089Y214288D01*
X142821Y214123D01*
X142677Y214000D01*
X133066D01*
X132843Y214137D01*
X132414Y214314D01*
X131963Y214423D01*
X131500Y214459D01*
X131037Y214423D01*
X130586Y214314D01*
X130157Y214137D01*
X129934Y214000D01*
X128000D01*
Y218000D01*
G37*
G36*
X61000Y242000D02*X65493D01*
X65471Y241974D01*
X65266Y241638D01*
X65115Y241275D01*
X65023Y240892D01*
X64992Y240500D01*
X65023Y240108D01*
X65115Y239725D01*
X65266Y239362D01*
X65471Y239026D01*
X65727Y238727D01*
X66026Y238471D01*
X66362Y238266D01*
X66725Y238115D01*
X67108Y238023D01*
X67500Y237992D01*
X67892Y238023D01*
X67977Y238043D01*
X68000Y238020D01*
Y237500D01*
X61000D01*
Y242000D01*
G37*
G36*
Y243000D02*Y253000D01*
X66000D01*
Y251507D01*
X65727Y251273D01*
X65471Y250974D01*
X65266Y250638D01*
X65115Y250275D01*
X65023Y249892D01*
X64992Y249500D01*
X65023Y249108D01*
X65115Y248725D01*
X65266Y248362D01*
X65471Y248026D01*
X65727Y247727D01*
X66000Y247493D01*
Y246507D01*
X65727Y246273D01*
X65471Y245974D01*
X65266Y245638D01*
X65115Y245275D01*
X65023Y244892D01*
X64992Y244500D01*
X65023Y244108D01*
X65115Y243725D01*
X65266Y243362D01*
X65471Y243026D01*
X65493Y243000D01*
X61000D01*
G37*
G36*
Y236500D02*X69520D01*
X72000Y234020D01*
Y232000D01*
X61000D01*
Y236500D01*
G37*
G36*
Y172000D02*X65493D01*
X65471Y171974D01*
X65266Y171638D01*
X65115Y171275D01*
X65023Y170892D01*
X64992Y170500D01*
X65023Y170108D01*
X65115Y169725D01*
X65266Y169362D01*
X65471Y169026D01*
X65727Y168727D01*
X66026Y168471D01*
X66362Y168266D01*
X66725Y168115D01*
X67108Y168023D01*
X67500Y167992D01*
X67892Y168023D01*
X67977Y168043D01*
X68000Y168020D01*
Y167500D01*
X61000D01*
Y172000D01*
G37*
G36*
Y173000D02*Y183000D01*
X66000D01*
Y181507D01*
X65727Y181273D01*
X65471Y180974D01*
X65266Y180638D01*
X65115Y180275D01*
X65023Y179892D01*
X64992Y179500D01*
X65023Y179108D01*
X65115Y178725D01*
X65266Y178362D01*
X65471Y178026D01*
X65727Y177727D01*
X66000Y177493D01*
Y176507D01*
X65727Y176273D01*
X65471Y175974D01*
X65266Y175638D01*
X65115Y175275D01*
X65023Y174892D01*
X64992Y174500D01*
X65023Y174108D01*
X65115Y173725D01*
X65266Y173362D01*
X65471Y173026D01*
X65493Y173000D01*
X61000D01*
G37*
G36*
Y166500D02*X69520D01*
X72000Y164020D01*
Y162000D01*
X61000D01*
Y166500D01*
G37*
G36*
X77000Y244000D02*X95003D01*
X95009Y241743D01*
X95046Y241590D01*
X95083Y241500D01*
X95046Y241410D01*
X95009Y241257D01*
X95000Y241100D01*
X95008Y238359D01*
X94988Y238100D01*
X95037Y237472D01*
X95184Y236860D01*
X95425Y236278D01*
X95754Y235742D01*
X96046Y235400D01*
X77000D01*
Y244000D01*
G37*
G36*
X103500Y253000D02*Y248000D01*
X101529D01*
X101358Y248146D01*
X100822Y248475D01*
X100240Y248716D01*
X99628Y248863D01*
X99000Y248912D01*
X98372Y248863D01*
X97760Y248716D01*
X97178Y248475D01*
X96642Y248146D01*
X96471Y248000D01*
X95500D01*
Y253000D01*
X103500D01*
G37*
G36*
X83500Y247250D02*Y240500D01*
X77000D01*
Y247250D01*
X83500D01*
G37*
G36*
X103500Y242000D02*X94500D01*
Y249500D01*
X103500D01*
Y242000D01*
G37*
G36*
X61000Y207000D02*X65493D01*
X65471Y206974D01*
X65266Y206638D01*
X65115Y206275D01*
X65023Y205892D01*
X64992Y205500D01*
X65023Y205108D01*
X65115Y204725D01*
X65266Y204362D01*
X65471Y204026D01*
X65727Y203727D01*
X66026Y203471D01*
X66362Y203266D01*
X66725Y203115D01*
X67108Y203023D01*
X67500Y202992D01*
X67892Y203023D01*
X67977Y203043D01*
X68000Y203020D01*
Y202500D01*
X61000D01*
Y207000D01*
G37*
G36*
Y208000D02*Y218000D01*
X66000D01*
Y216507D01*
X65727Y216273D01*
X65471Y215974D01*
X65266Y215638D01*
X65115Y215275D01*
X65023Y214892D01*
X64992Y214500D01*
X65023Y214108D01*
X65115Y213725D01*
X65266Y213362D01*
X65471Y213026D01*
X65727Y212727D01*
X66000Y212493D01*
Y211507D01*
X65727Y211273D01*
X65471Y210974D01*
X65266Y210638D01*
X65115Y210275D01*
X65023Y209892D01*
X64992Y209500D01*
X65023Y209108D01*
X65115Y208725D01*
X65266Y208362D01*
X65471Y208026D01*
X65493Y208000D01*
X61000D01*
G37*
G36*
Y201500D02*X69520D01*
X72000Y199020D01*
Y197000D01*
X61000D01*
Y201500D01*
G37*
G36*
X77000Y209000D02*X95003D01*
X95009Y206743D01*
X95046Y206590D01*
X95083Y206500D01*
X95046Y206410D01*
X95009Y206257D01*
X95000Y206100D01*
X95008Y203359D01*
X94988Y203100D01*
X95037Y202472D01*
X95184Y201860D01*
X95425Y201278D01*
X95754Y200742D01*
X96046Y200400D01*
X77000D01*
Y209000D01*
G37*
G36*
X103500Y207000D02*X94500D01*
Y214500D01*
X103500D01*
Y207000D01*
G37*
G36*
X77000Y174000D02*X95003D01*
X95009Y171743D01*
X95046Y171590D01*
X95083Y171500D01*
X95046Y171410D01*
X95009Y171257D01*
X95000Y171100D01*
X95008Y168359D01*
X94988Y168100D01*
X95037Y167472D01*
X95184Y166860D01*
X95425Y166278D01*
X95754Y165742D01*
X96046Y165400D01*
X77000D01*
Y174000D01*
G37*
G36*
X81000Y171000D02*Y177250D01*
X88412D01*
X88500Y177243D01*
X88853Y177271D01*
X88853Y177271D01*
X89197Y177354D01*
X89525Y177489D01*
X89827Y177674D01*
X90096Y177904D01*
X90153Y177971D01*
X90932Y178750D01*
X92500D01*
X92853Y178771D01*
X93197Y178854D01*
X93525Y178989D01*
X93827Y179174D01*
X94096Y179404D01*
X94326Y179673D01*
X94511Y179975D01*
X94646Y180303D01*
X94729Y180647D01*
X94757Y181000D01*
X94729Y181353D01*
X94646Y181697D01*
X94511Y182025D01*
X94326Y182327D01*
X94096Y182596D01*
X93827Y182826D01*
X93543Y183000D01*
X99000D01*
Y178912D01*
X98372Y178863D01*
X97760Y178716D01*
X97178Y178475D01*
X96642Y178146D01*
X96163Y177737D01*
X95754Y177258D01*
X95425Y176722D01*
X95184Y176140D01*
X95037Y175528D01*
X94988Y174900D01*
X95000Y174737D01*
X95009Y171743D01*
X95046Y171590D01*
X95083Y171500D01*
X95046Y171410D01*
X95009Y171257D01*
X95000Y171100D01*
X95000Y171000D01*
X81000D01*
G37*
G36*
Y206000D02*Y212250D01*
X88412D01*
X88500Y212243D01*
X88853Y212271D01*
X88853Y212271D01*
X89197Y212354D01*
X89525Y212489D01*
X89827Y212674D01*
X90096Y212904D01*
X90153Y212971D01*
X90932Y213750D01*
X92500D01*
X92853Y213771D01*
X93197Y213854D01*
X93525Y213989D01*
X93827Y214174D01*
X94096Y214404D01*
X94326Y214673D01*
X94511Y214975D01*
X94646Y215303D01*
X94729Y215647D01*
X94757Y216000D01*
X94729Y216353D01*
X94646Y216697D01*
X94511Y217025D01*
X94326Y217327D01*
X94096Y217596D01*
X93827Y217826D01*
X93543Y218000D01*
X99000D01*
Y213912D01*
X98372Y213863D01*
X97760Y213716D01*
X97178Y213475D01*
X96642Y213146D01*
X96163Y212737D01*
X95754Y212258D01*
X95425Y211722D01*
X95184Y211140D01*
X95037Y210528D01*
X94988Y209900D01*
X95000Y209737D01*
X95009Y206743D01*
X95046Y206590D01*
X95083Y206500D01*
X95046Y206410D01*
X95009Y206257D01*
X95000Y206100D01*
X95000Y206000D01*
X81000D01*
G37*
G36*
X103500Y218000D02*Y213000D01*
X101529D01*
X101358Y213146D01*
X100822Y213475D01*
X100240Y213716D01*
X99628Y213863D01*
X99000Y213912D01*
X98372Y213863D01*
X97760Y213716D01*
X97178Y213475D01*
X96642Y213146D01*
X96471Y213000D01*
X95500D01*
Y218000D01*
X103500D01*
G37*
G36*
X83500Y212250D02*Y205500D01*
X77000D01*
Y212250D01*
X83500D01*
G37*
G36*
X101000Y218000D02*X131500D01*
Y214459D01*
X131037Y214423D01*
X130586Y214314D01*
X130157Y214137D01*
X129761Y213894D01*
X129408Y213592D01*
X129106Y213239D01*
X128863Y212843D01*
X128686Y212414D01*
X128577Y211963D01*
X128541Y211500D01*
X128577Y211037D01*
X128686Y210586D01*
X128863Y210157D01*
X129106Y209761D01*
X129329Y209500D01*
X102992D01*
X102992Y209758D01*
X103000Y209900D01*
X102991Y210057D01*
Y210057D01*
X102991Y210057D01*
X102963Y210528D01*
X102816Y211140D01*
X102575Y211722D01*
X102246Y212258D01*
X101837Y212737D01*
X101358Y213146D01*
X101000Y213366D01*
Y218000D01*
G37*
G36*
X109500Y214500D02*Y207467D01*
X109498Y207466D01*
X109203Y207285D01*
X108940Y207060D01*
X108888Y207000D01*
X108612D01*
X108560Y207060D01*
X108297Y207285D01*
X108002Y207466D01*
X107682Y207599D01*
X107345Y207680D01*
X107000Y207707D01*
X106655Y207680D01*
X106318Y207599D01*
X105998Y207466D01*
X105703Y207285D01*
X105440Y207060D01*
X105388Y207000D01*
X103000D01*
X102992Y209758D01*
X103000Y209900D01*
X102991Y210057D01*
Y210057D01*
X102991Y210057D01*
X102963Y210528D01*
X102816Y211140D01*
X102575Y211722D01*
X102246Y212258D01*
X101837Y212737D01*
X101358Y213146D01*
X100822Y213475D01*
X100240Y213716D01*
X99628Y213863D01*
X99000Y213912D01*
X98372Y213863D01*
X97760Y213716D01*
X97178Y213475D01*
X96642Y213146D01*
X96163Y212737D01*
X95754Y212258D01*
X95425Y211722D01*
X95184Y211140D01*
X95037Y210528D01*
X94988Y209900D01*
X95000Y209737D01*
X95009Y207000D01*
X93000D01*
Y213806D01*
X93197Y213854D01*
X93525Y213989D01*
X93827Y214174D01*
X94096Y214404D01*
X94178Y214500D01*
X109500D01*
G37*
G36*
X159000Y162000D02*Y165379D01*
X159121Y165500D01*
X163000D01*
Y162000D01*
X159000D01*
G37*
G36*
X101000Y183000D02*X131500D01*
Y179459D01*
X131037Y179423D01*
X130586Y179314D01*
X130157Y179137D01*
X129761Y178894D01*
X129408Y178592D01*
X129106Y178239D01*
X128863Y177843D01*
X128686Y177414D01*
X128577Y176963D01*
X128541Y176500D01*
X128577Y176037D01*
X128686Y175586D01*
X128863Y175157D01*
X129106Y174761D01*
X129329Y174500D01*
X102992D01*
X102992Y174758D01*
X103000Y174900D01*
X102991Y175057D01*
Y175057D01*
X102991Y175057D01*
X102963Y175528D01*
X102816Y176140D01*
X102575Y176722D01*
X102246Y177258D01*
X101837Y177737D01*
X101358Y178146D01*
X101000Y178366D01*
Y183000D01*
G37*
G36*
X103500D02*Y178000D01*
X101529D01*
X101358Y178146D01*
X100822Y178475D01*
X100240Y178716D01*
X99628Y178863D01*
X99000Y178912D01*
X98372Y178863D01*
X97760Y178716D01*
X97178Y178475D01*
X96642Y178146D01*
X96471Y178000D01*
X95500D01*
Y183000D01*
X103500D01*
G37*
G36*
X83500Y177250D02*Y170500D01*
X77000D01*
Y177250D01*
X83500D01*
G37*
G36*
X109500Y179500D02*Y172467D01*
X109498Y172466D01*
X109203Y172285D01*
X108940Y172060D01*
X108888Y172000D01*
X108612D01*
X108560Y172060D01*
X108297Y172285D01*
X108002Y172466D01*
X107682Y172599D01*
X107345Y172680D01*
X107000Y172707D01*
X106655Y172680D01*
X106318Y172599D01*
X105998Y172466D01*
X105703Y172285D01*
X105440Y172060D01*
X105388Y172000D01*
X103000D01*
X102992Y174758D01*
X103000Y174900D01*
X102991Y175057D01*
Y175057D01*
X102991Y175057D01*
X102963Y175528D01*
X102816Y176140D01*
X102575Y176722D01*
X102246Y177258D01*
X101837Y177737D01*
X101358Y178146D01*
X100822Y178475D01*
X100240Y178716D01*
X99628Y178863D01*
X99000Y178912D01*
X98372Y178863D01*
X97760Y178716D01*
X97178Y178475D01*
X96642Y178146D01*
X96163Y177737D01*
X95754Y177258D01*
X95425Y176722D01*
X95184Y176140D01*
X95037Y175528D01*
X94988Y174900D01*
X95000Y174737D01*
X95009Y172000D01*
X93000D01*
Y178806D01*
X93197Y178854D01*
X93525Y178989D01*
X93827Y179174D01*
X94096Y179404D01*
X94178Y179500D01*
X109500D01*
G37*
G36*
X103500Y172000D02*X94500D01*
Y179500D01*
X103500D01*
Y172000D01*
G37*
G36*
X81000Y136000D02*Y142250D01*
X88412D01*
X88500Y142243D01*
X88853Y142271D01*
X88853Y142271D01*
X89197Y142354D01*
X89525Y142489D01*
X89827Y142674D01*
X90096Y142904D01*
X90153Y142971D01*
X90932Y143750D01*
X92500D01*
X92853Y143771D01*
X93197Y143854D01*
X93525Y143989D01*
X93827Y144174D01*
X94096Y144404D01*
X94326Y144673D01*
X94511Y144975D01*
X94646Y145303D01*
X94729Y145647D01*
X94757Y146000D01*
X94729Y146353D01*
X94646Y146697D01*
X94511Y147025D01*
X94326Y147327D01*
X94096Y147596D01*
X93827Y147826D01*
X93543Y148000D01*
X99000D01*
Y143912D01*
X98372Y143863D01*
X97760Y143716D01*
X97178Y143475D01*
X96642Y143146D01*
X96163Y142737D01*
X95754Y142258D01*
X95425Y141722D01*
X95184Y141140D01*
X95037Y140528D01*
X94988Y139900D01*
X95000Y139737D01*
X95009Y136743D01*
X95046Y136590D01*
X95083Y136500D01*
X95046Y136410D01*
X95009Y136257D01*
X95000Y136100D01*
X95000Y136000D01*
X81000D01*
G37*
G36*
X182000Y148000D02*Y136000D01*
X169900D01*
Y139803D01*
X170060Y139940D01*
X170285Y140203D01*
X170466Y140498D01*
X170599Y140818D01*
X170680Y141155D01*
X170700Y141500D01*
X170680Y141845D01*
X170599Y142182D01*
X170466Y142502D01*
X170285Y142797D01*
X170060Y143060D01*
X169797Y143285D01*
X169502Y143466D01*
X169182Y143599D01*
X169000Y143642D01*
Y148000D01*
X182000D01*
G37*
G36*
Y113000D02*Y101000D01*
X169900D01*
Y104803D01*
X170060Y104940D01*
X170285Y105203D01*
X170466Y105498D01*
X170599Y105818D01*
X170680Y106155D01*
X170700Y106500D01*
X170680Y106845D01*
X170599Y107182D01*
X170466Y107502D01*
X170285Y107797D01*
X170060Y108060D01*
X169797Y108285D01*
X169502Y108466D01*
X169182Y108599D01*
X169000Y108642D01*
Y113000D01*
X182000D01*
G37*
G36*
X103500Y148000D02*Y143000D01*
X101529D01*
X101358Y143146D01*
X100822Y143475D01*
X100240Y143716D01*
X99628Y143863D01*
X99000Y143912D01*
X98372Y143863D01*
X97760Y143716D01*
X97178Y143475D01*
X96642Y143146D01*
X96471Y143000D01*
X95500D01*
Y148000D01*
X103500D01*
G37*
G36*
X101000D02*X131500D01*
Y144459D01*
X131037Y144423D01*
X130586Y144314D01*
X130157Y144137D01*
X129761Y143894D01*
X129408Y143592D01*
X129106Y143239D01*
X128863Y142843D01*
X128686Y142414D01*
X128577Y141963D01*
X128541Y141500D01*
X128577Y141037D01*
X128686Y140586D01*
X128863Y140157D01*
X129106Y139761D01*
X129329Y139500D01*
X102992D01*
X102992Y139758D01*
X103000Y139900D01*
X102991Y140057D01*
Y140057D01*
X102991Y140057D01*
X102963Y140528D01*
X102816Y141140D01*
X102575Y141722D01*
X102246Y142258D01*
X101837Y142737D01*
X101358Y143146D01*
X101000Y143366D01*
Y148000D01*
G37*
G36*
X109500Y144500D02*Y137467D01*
X109498Y137466D01*
X109203Y137285D01*
X108940Y137060D01*
X108888Y137000D01*
X108612D01*
X108560Y137060D01*
X108297Y137285D01*
X108002Y137466D01*
X107682Y137599D01*
X107345Y137680D01*
X107000Y137707D01*
X106655Y137680D01*
X106318Y137599D01*
X105998Y137466D01*
X105703Y137285D01*
X105440Y137060D01*
X105388Y137000D01*
X103000D01*
X102992Y139758D01*
X103000Y139900D01*
X102991Y140057D01*
Y140057D01*
X102991Y140057D01*
X102963Y140528D01*
X102816Y141140D01*
X102575Y141722D01*
X102246Y142258D01*
X101837Y142737D01*
X101358Y143146D01*
X100822Y143475D01*
X100240Y143716D01*
X99628Y143863D01*
X99000Y143912D01*
X98372Y143863D01*
X97760Y143716D01*
X97178Y143475D01*
X96642Y143146D01*
X96163Y142737D01*
X95754Y142258D01*
X95425Y141722D01*
X95184Y141140D01*
X95037Y140528D01*
X94988Y139900D01*
X95000Y139737D01*
X95009Y137000D01*
X93000D01*
Y143806D01*
X93197Y143854D01*
X93525Y143989D01*
X93827Y144174D01*
X94096Y144404D01*
X94178Y144500D01*
X109500D01*
G37*
G36*
X103500Y137000D02*X94500D01*
Y144500D01*
X103500D01*
Y137000D01*
G37*
G36*
X81000Y101000D02*Y107250D01*
X88412D01*
X88500Y107243D01*
X88853Y107271D01*
X88853Y107271D01*
X89197Y107354D01*
X89525Y107489D01*
X89827Y107674D01*
X90096Y107904D01*
X90153Y107971D01*
X90932Y108750D01*
X92500D01*
X92853Y108771D01*
X93197Y108854D01*
X93525Y108989D01*
X93827Y109174D01*
X94096Y109404D01*
X94326Y109673D01*
X94511Y109975D01*
X94646Y110303D01*
X94729Y110647D01*
X94757Y111000D01*
X94729Y111353D01*
X94646Y111697D01*
X94511Y112025D01*
X94326Y112327D01*
X94096Y112596D01*
X93827Y112826D01*
X93543Y113000D01*
X99000D01*
Y108912D01*
X98372Y108863D01*
X97760Y108716D01*
X97178Y108475D01*
X96642Y108146D01*
X96163Y107737D01*
X95754Y107258D01*
X95425Y106722D01*
X95184Y106140D01*
X95037Y105528D01*
X94988Y104900D01*
X95000Y104737D01*
X95009Y101743D01*
X95046Y101590D01*
X95083Y101500D01*
X95046Y101410D01*
X95009Y101257D01*
X95000Y101100D01*
X95000Y101000D01*
X81000D01*
G37*
G36*
X103500Y113000D02*Y108000D01*
X101529D01*
X101358Y108146D01*
X100822Y108475D01*
X100240Y108716D01*
X99628Y108863D01*
X99000Y108912D01*
X98372Y108863D01*
X97760Y108716D01*
X97178Y108475D01*
X96642Y108146D01*
X96471Y108000D01*
X95500D01*
Y113000D01*
X103500D01*
G37*
G36*
X101000D02*X131500D01*
Y109459D01*
X131037Y109423D01*
X130586Y109314D01*
X130157Y109137D01*
X129761Y108894D01*
X129408Y108592D01*
X129106Y108239D01*
X128863Y107843D01*
X128686Y107414D01*
X128577Y106963D01*
X128541Y106500D01*
X128577Y106037D01*
X128686Y105586D01*
X128863Y105157D01*
X129106Y104761D01*
X129329Y104500D01*
X102992D01*
X102992Y104758D01*
X103000Y104900D01*
X102991Y105057D01*
Y105057D01*
X102991Y105057D01*
X102963Y105528D01*
X102816Y106140D01*
X102575Y106722D01*
X102246Y107258D01*
X101837Y107737D01*
X101358Y108146D01*
X101000Y108366D01*
Y113000D01*
G37*
G36*
X61000Y137000D02*X65493D01*
X65471Y136974D01*
X65266Y136638D01*
X65115Y136275D01*
X65023Y135892D01*
X64992Y135500D01*
X65023Y135108D01*
X65115Y134725D01*
X65266Y134362D01*
X65471Y134026D01*
X65727Y133727D01*
X66026Y133471D01*
X66362Y133266D01*
X66725Y133115D01*
X67108Y133023D01*
X67500Y132992D01*
X67892Y133023D01*
X67977Y133043D01*
X68000Y133020D01*
Y132500D01*
X61000D01*
Y137000D01*
G37*
G36*
Y131500D02*X69520D01*
X72000Y129020D01*
Y127000D01*
X61000D01*
Y131500D01*
G37*
G36*
X77000Y139000D02*X95003D01*
X95009Y136743D01*
X95046Y136590D01*
X95083Y136500D01*
X95046Y136410D01*
X95009Y136257D01*
X95000Y136100D01*
X95008Y133359D01*
X94988Y133100D01*
X95037Y132472D01*
X95184Y131860D01*
X95425Y131278D01*
X95754Y130742D01*
X96046Y130400D01*
X77000D01*
Y139000D01*
G37*
G36*
X83500Y142250D02*Y135500D01*
X77000D01*
Y142250D01*
X83500D01*
G37*
G36*
X77000Y104000D02*X95003D01*
X95009Y101743D01*
X95046Y101590D01*
X95083Y101500D01*
X95046Y101410D01*
X95009Y101257D01*
X95000Y101100D01*
X95008Y98359D01*
X94988Y98100D01*
X95037Y97472D01*
X95184Y96860D01*
X95425Y96278D01*
X95754Y95742D01*
X96046Y95400D01*
X77000D01*
Y104000D01*
G37*
G36*
X83500Y107250D02*Y100500D01*
X77000D01*
Y107250D01*
X83500D01*
G37*
G36*
X61000Y138000D02*Y148000D01*
X66000D01*
Y146507D01*
X65727Y146273D01*
X65471Y145974D01*
X65266Y145638D01*
X65115Y145275D01*
X65023Y144892D01*
X64992Y144500D01*
X65023Y144108D01*
X65115Y143725D01*
X65266Y143362D01*
X65471Y143026D01*
X65727Y142727D01*
X66000Y142493D01*
Y141507D01*
X65727Y141273D01*
X65471Y140974D01*
X65266Y140638D01*
X65115Y140275D01*
X65023Y139892D01*
X64992Y139500D01*
X65023Y139108D01*
X65115Y138725D01*
X65266Y138362D01*
X65471Y138026D01*
X65493Y138000D01*
X61000D01*
G37*
G36*
Y103000D02*Y113000D01*
X66000D01*
Y111507D01*
X65727Y111273D01*
X65471Y110974D01*
X65266Y110638D01*
X65115Y110275D01*
X65023Y109892D01*
X64992Y109500D01*
X65023Y109108D01*
X65115Y108725D01*
X65266Y108362D01*
X65471Y108026D01*
X65727Y107727D01*
X66000Y107493D01*
Y106507D01*
X65727Y106273D01*
X65471Y105974D01*
X65266Y105638D01*
X65115Y105275D01*
X65023Y104892D01*
X64992Y104500D01*
X65023Y104108D01*
X65115Y103725D01*
X65266Y103362D01*
X65471Y103026D01*
X65493Y103000D01*
X61000D01*
G37*
G36*
Y102000D02*X65493D01*
X65471Y101974D01*
X65266Y101638D01*
X65115Y101275D01*
X65023Y100892D01*
X64992Y100500D01*
X65023Y100108D01*
X65115Y99725D01*
X65266Y99362D01*
X65471Y99026D01*
X65727Y98727D01*
X66026Y98471D01*
X66362Y98266D01*
X66725Y98115D01*
X67108Y98023D01*
X67500Y97992D01*
X67892Y98023D01*
X67977Y98043D01*
X68000Y98020D01*
Y97500D01*
X61000D01*
Y102000D01*
G37*
G36*
Y96500D02*X69520D01*
X72000Y94020D01*
Y92000D01*
X61000D01*
Y96500D01*
G37*
G36*
Y67000D02*X65493D01*
X65471Y66974D01*
X65266Y66638D01*
X65115Y66275D01*
X65023Y65892D01*
X64992Y65500D01*
X65023Y65108D01*
X65115Y64725D01*
X65266Y64362D01*
X65471Y64026D01*
X65727Y63727D01*
X66026Y63471D01*
X66362Y63266D01*
X66725Y63115D01*
X67108Y63023D01*
X67500Y62992D01*
X67892Y63023D01*
X67977Y63043D01*
X68000Y63020D01*
Y62500D01*
X61000D01*
Y67000D01*
G37*
G36*
Y68000D02*Y78000D01*
X66000D01*
Y76507D01*
X65727Y76273D01*
X65471Y75974D01*
X65266Y75638D01*
X65115Y75275D01*
X65023Y74892D01*
X64992Y74500D01*
X65023Y74108D01*
X65115Y73725D01*
X65266Y73362D01*
X65471Y73026D01*
X65727Y72727D01*
X66000Y72493D01*
Y71507D01*
X65727Y71273D01*
X65471Y70974D01*
X65266Y70638D01*
X65115Y70275D01*
X65023Y69892D01*
X64992Y69500D01*
X65023Y69108D01*
X65115Y68725D01*
X65266Y68362D01*
X65471Y68026D01*
X65493Y68000D01*
X61000D01*
G37*
G36*
Y61500D02*X69520D01*
X72000Y59020D01*
Y57000D01*
X61000D01*
Y61500D01*
G37*
G36*
X77000Y69000D02*X95003D01*
X95009Y66743D01*
X95046Y66590D01*
X95083Y66500D01*
X95046Y66410D01*
X95009Y66257D01*
X95000Y66100D01*
X95008Y63359D01*
X94988Y63100D01*
X95037Y62472D01*
X95184Y61860D01*
X95425Y61278D01*
X95754Y60742D01*
X96046Y60400D01*
X77000D01*
Y69000D01*
G37*
G36*
X83500Y72250D02*Y65500D01*
X77000D01*
Y72250D01*
X83500D01*
G37*
G36*
X61000Y32000D02*X65493D01*
X65471Y31974D01*
X65266Y31638D01*
X65115Y31275D01*
X65023Y30892D01*
X64992Y30500D01*
X65023Y30108D01*
X65115Y29725D01*
X65266Y29362D01*
X65471Y29026D01*
X65727Y28727D01*
X66026Y28471D01*
X66362Y28266D01*
X66725Y28115D01*
X67108Y28023D01*
X67500Y27992D01*
X67892Y28023D01*
X67977Y28043D01*
X68000Y28020D01*
Y27500D01*
X61000D01*
Y32000D01*
G37*
G36*
Y33000D02*Y43000D01*
X66000D01*
Y41507D01*
X65727Y41273D01*
X65471Y40974D01*
X65266Y40638D01*
X65115Y40275D01*
X65023Y39892D01*
X64992Y39500D01*
X65023Y39108D01*
X65115Y38725D01*
X65266Y38362D01*
X65471Y38026D01*
X65727Y37727D01*
X66000Y37493D01*
Y36507D01*
X65727Y36273D01*
X65471Y35974D01*
X65266Y35638D01*
X65115Y35275D01*
X65023Y34892D01*
X64992Y34500D01*
X65023Y34108D01*
X65115Y33725D01*
X65266Y33362D01*
X65471Y33026D01*
X65493Y33000D01*
X61000D01*
G37*
G36*
Y26500D02*X69520D01*
X72000Y24020D01*
Y22000D01*
X61000D01*
Y26500D01*
G37*
G36*
X77000Y34000D02*X95003D01*
X95009Y31743D01*
X95046Y31590D01*
X95083Y31500D01*
X95046Y31410D01*
X95009Y31257D01*
X95000Y31100D01*
X95008Y28359D01*
X94988Y28100D01*
X95037Y27472D01*
X95184Y26860D01*
X95425Y26278D01*
X95754Y25742D01*
X96046Y25400D01*
X77000D01*
Y34000D01*
G37*
G36*
X83500Y37250D02*Y30500D01*
X77000D01*
Y37250D01*
X83500D01*
G37*
G36*
X109500Y109500D02*Y102467D01*
X109498Y102466D01*
X109203Y102285D01*
X108940Y102060D01*
X108888Y102000D01*
X108612D01*
X108560Y102060D01*
X108297Y102285D01*
X108002Y102466D01*
X107682Y102599D01*
X107345Y102680D01*
X107000Y102707D01*
X106655Y102680D01*
X106318Y102599D01*
X105998Y102466D01*
X105703Y102285D01*
X105440Y102060D01*
X105388Y102000D01*
X103000D01*
X102992Y104758D01*
X103000Y104900D01*
X102991Y105057D01*
Y105057D01*
X102991Y105057D01*
X102963Y105528D01*
X102816Y106140D01*
X102575Y106722D01*
X102246Y107258D01*
X101837Y107737D01*
X101358Y108146D01*
X100822Y108475D01*
X100240Y108716D01*
X99628Y108863D01*
X99000Y108912D01*
X98372Y108863D01*
X97760Y108716D01*
X97178Y108475D01*
X96642Y108146D01*
X96163Y107737D01*
X95754Y107258D01*
X95425Y106722D01*
X95184Y106140D01*
X95037Y105528D01*
X94988Y104900D01*
X95000Y104737D01*
X95009Y102000D01*
X93000D01*
Y108806D01*
X93197Y108854D01*
X93525Y108989D01*
X93827Y109174D01*
X94096Y109404D01*
X94178Y109500D01*
X109500D01*
G37*
G36*
X103500Y102000D02*X94500D01*
Y109500D01*
X103500D01*
Y102000D01*
G37*
G36*
X159000Y57000D02*Y60379D01*
X159121Y60500D01*
X163000D01*
Y57000D01*
X159000D01*
G37*
G36*
X182000Y78000D02*Y66000D01*
X169900D01*
Y69803D01*
X170060Y69940D01*
X170285Y70203D01*
X170466Y70498D01*
X170599Y70818D01*
X170680Y71155D01*
X170700Y71500D01*
X170680Y71845D01*
X170599Y72182D01*
X170466Y72502D01*
X170285Y72797D01*
X170060Y73060D01*
X169797Y73285D01*
X169502Y73466D01*
X169182Y73599D01*
X169000Y73642D01*
Y78000D01*
X182000D01*
G37*
G36*
X81000Y66000D02*Y72250D01*
X88412D01*
X88500Y72243D01*
X88853Y72271D01*
X88853Y72271D01*
X89197Y72354D01*
X89525Y72489D01*
X89827Y72674D01*
X90096Y72904D01*
X90153Y72971D01*
X90932Y73750D01*
X92500D01*
X92853Y73771D01*
X93197Y73854D01*
X93525Y73989D01*
X93827Y74174D01*
X94096Y74404D01*
X94326Y74673D01*
X94511Y74975D01*
X94646Y75303D01*
X94729Y75647D01*
X94757Y76000D01*
X94729Y76353D01*
X94646Y76697D01*
X94511Y77025D01*
X94326Y77327D01*
X94096Y77596D01*
X93827Y77826D01*
X93543Y78000D01*
X99000D01*
Y73912D01*
X98372Y73863D01*
X97760Y73716D01*
X97178Y73475D01*
X96642Y73146D01*
X96163Y72737D01*
X95754Y72258D01*
X95425Y71722D01*
X95184Y71140D01*
X95037Y70528D01*
X94988Y69900D01*
X95000Y69737D01*
X95009Y66743D01*
X95046Y66590D01*
X95083Y66500D01*
X95046Y66410D01*
X95009Y66257D01*
X95000Y66100D01*
X95000Y66000D01*
X81000D01*
G37*
G36*
X103500Y78000D02*Y73000D01*
X101529D01*
X101358Y73146D01*
X100822Y73475D01*
X100240Y73716D01*
X99628Y73863D01*
X99000Y73912D01*
X98372Y73863D01*
X97760Y73716D01*
X97178Y73475D01*
X96642Y73146D01*
X96471Y73000D01*
X95500D01*
Y78000D01*
X103500D01*
G37*
G36*
X101000D02*X131500D01*
Y74459D01*
X131037Y74423D01*
X130586Y74314D01*
X130157Y74137D01*
X129761Y73894D01*
X129408Y73592D01*
X129106Y73239D01*
X128863Y72843D01*
X128686Y72414D01*
X128577Y71963D01*
X128541Y71500D01*
X128577Y71037D01*
X128686Y70586D01*
X128863Y70157D01*
X129106Y69761D01*
X129329Y69500D01*
X102992D01*
X102992Y69758D01*
X103000Y69900D01*
X102991Y70057D01*
Y70057D01*
X102991Y70057D01*
X102963Y70528D01*
X102816Y71140D01*
X102575Y71722D01*
X102246Y72258D01*
X101837Y72737D01*
X101358Y73146D01*
X101000Y73366D01*
Y78000D01*
G37*
G36*
X109500Y74500D02*Y67467D01*
X109498Y67466D01*
X109203Y67285D01*
X108940Y67060D01*
X108888Y67000D01*
X108612D01*
X108560Y67060D01*
X108297Y67285D01*
X108002Y67466D01*
X107682Y67599D01*
X107345Y67680D01*
X107000Y67707D01*
X106655Y67680D01*
X106318Y67599D01*
X105998Y67466D01*
X105703Y67285D01*
X105440Y67060D01*
X105388Y67000D01*
X103000D01*
X102992Y69758D01*
X103000Y69900D01*
X102991Y70057D01*
Y70057D01*
X102991Y70057D01*
X102963Y70528D01*
X102816Y71140D01*
X102575Y71722D01*
X102246Y72258D01*
X101837Y72737D01*
X101358Y73146D01*
X100822Y73475D01*
X100240Y73716D01*
X99628Y73863D01*
X99000Y73912D01*
X98372Y73863D01*
X97760Y73716D01*
X97178Y73475D01*
X96642Y73146D01*
X96163Y72737D01*
X95754Y72258D01*
X95425Y71722D01*
X95184Y71140D01*
X95037Y70528D01*
X94988Y69900D01*
X95000Y69737D01*
X95009Y67000D01*
X93000D01*
Y73806D01*
X93197Y73854D01*
X93525Y73989D01*
X93827Y74174D01*
X94096Y74404D01*
X94178Y74500D01*
X109500D01*
G37*
G36*
X103500Y67000D02*X94500D01*
Y74500D01*
X103500D01*
Y67000D01*
G37*
G36*
X159000Y22000D02*Y25379D01*
X159121Y25500D01*
X163000D01*
Y22000D01*
X159000D01*
G37*
G36*
X81000Y31000D02*Y37250D01*
X88412D01*
X88500Y37243D01*
X88853Y37271D01*
X88853Y37271D01*
X89197Y37354D01*
X89525Y37489D01*
X89827Y37674D01*
X90096Y37904D01*
X90153Y37971D01*
X90932Y38750D01*
X92500D01*
X92853Y38771D01*
X93197Y38854D01*
X93525Y38989D01*
X93827Y39174D01*
X94096Y39404D01*
X94326Y39673D01*
X94511Y39975D01*
X94646Y40303D01*
X94729Y40647D01*
X94757Y41000D01*
X94729Y41353D01*
X94646Y41697D01*
X94511Y42025D01*
X94326Y42327D01*
X94096Y42596D01*
X93827Y42826D01*
X93543Y43000D01*
X99000D01*
Y38912D01*
X98372Y38863D01*
X97760Y38716D01*
X97178Y38475D01*
X96642Y38146D01*
X96163Y37737D01*
X95754Y37258D01*
X95425Y36722D01*
X95184Y36140D01*
X95037Y35528D01*
X94988Y34900D01*
X95000Y34737D01*
X95009Y31743D01*
X95046Y31590D01*
X95083Y31500D01*
X95046Y31410D01*
X95009Y31257D01*
X95000Y31100D01*
X95000Y31000D01*
X81000D01*
G37*
G36*
X103500Y43000D02*Y38000D01*
X101529D01*
X101358Y38146D01*
X100822Y38475D01*
X100240Y38716D01*
X99628Y38863D01*
X99000Y38912D01*
X98372Y38863D01*
X97760Y38716D01*
X97178Y38475D01*
X96642Y38146D01*
X96471Y38000D01*
X95500D01*
Y43000D01*
X103500D01*
G37*
G36*
X101000D02*X131500D01*
Y39459D01*
X131037Y39423D01*
X130586Y39314D01*
X130157Y39137D01*
X129761Y38894D01*
X129408Y38592D01*
X129106Y38239D01*
X128863Y37843D01*
X128686Y37414D01*
X128577Y36963D01*
X128541Y36500D01*
X128577Y36037D01*
X128686Y35586D01*
X128863Y35157D01*
X129106Y34761D01*
X129329Y34500D01*
X102992D01*
X102992Y34758D01*
X103000Y34900D01*
X102991Y35057D01*
Y35057D01*
X102991Y35057D01*
X102963Y35528D01*
X102816Y36140D01*
X102575Y36722D01*
X102246Y37258D01*
X101837Y37737D01*
X101358Y38146D01*
X101000Y38366D01*
Y43000D01*
G37*
G36*
X109500Y39500D02*Y32467D01*
X109498Y32466D01*
X109203Y32285D01*
X108940Y32060D01*
X108888Y32000D01*
X108612D01*
X108560Y32060D01*
X108297Y32285D01*
X108002Y32466D01*
X107682Y32599D01*
X107345Y32680D01*
X107000Y32707D01*
X106655Y32680D01*
X106318Y32599D01*
X105998Y32466D01*
X105703Y32285D01*
X105440Y32060D01*
X105388Y32000D01*
X103000D01*
X102992Y34758D01*
X103000Y34900D01*
X102991Y35057D01*
Y35057D01*
X102991Y35057D01*
X102963Y35528D01*
X102816Y36140D01*
X102575Y36722D01*
X102246Y37258D01*
X101837Y37737D01*
X101358Y38146D01*
X100822Y38475D01*
X100240Y38716D01*
X99628Y38863D01*
X99000Y38912D01*
X98372Y38863D01*
X97760Y38716D01*
X97178Y38475D01*
X96642Y38146D01*
X96163Y37737D01*
X95754Y37258D01*
X95425Y36722D01*
X95184Y36140D01*
X95037Y35528D01*
X94988Y34900D01*
X95000Y34737D01*
X95009Y32000D01*
X93000D01*
Y38806D01*
X93197Y38854D01*
X93525Y38989D01*
X93827Y39174D01*
X94096Y39404D01*
X94178Y39500D01*
X109500D01*
G37*
G36*
X103500Y32000D02*X94500D01*
Y39500D01*
X103500D01*
Y32000D01*
G37*
G36*
X182000Y43000D02*Y31000D01*
X169900D01*
Y34803D01*
X170060Y34940D01*
X170285Y35203D01*
X170466Y35498D01*
X170599Y35818D01*
X170680Y36155D01*
X170700Y36500D01*
X170680Y36845D01*
X170599Y37182D01*
X170466Y37502D01*
X170285Y37797D01*
X170060Y38060D01*
X169797Y38285D01*
X169502Y38466D01*
X169182Y38599D01*
X169000Y38642D01*
Y43000D01*
X182000D01*
G37*
G54D32*X146500Y345000D02*X147500Y344000D01*
Y341000D01*
G54D33*X157500D01*
X161000Y344500D01*
Y347000D01*
G54D32*X168500Y351500D02*Y341000D01*
X170000Y339500D01*
G54D34*X157000Y346500D02*Y356500D01*
G54D35*X152500Y352500D02*X149000D01*
X146500Y350000D01*
G54D32*X144000Y352500D02*X141500Y350000D01*
G54D33*X145500Y337500D02*X229500D01*
G54D32*X170000Y339500D02*X242000D01*
G54D33*X145500Y302500D02*X229500D01*
G54D32*X168500Y316500D02*Y306000D01*
X170000Y304500D01*
X242000D01*
X140000Y339000D02*X141500Y340500D01*
Y345000D01*
X137500Y340500D02*X139000Y342000D01*
G54D33*X144000D02*Y339000D01*
X145500Y337500D01*
G54D32*X136500Y345000D02*X135000Y346500D01*
G54D34*X136500Y350000D02*Y357000D01*
G54D32*X140000Y339000D02*X119500D01*
X117000Y341500D01*
X137500Y340500D02*X120500D01*
X117000Y341500D02*X114000D01*
X135000Y311500D02*X113000D01*
Y309000D02*X117000D01*
X120500Y340500D02*X117000Y344000D01*
X135000Y346500D02*X113000D01*
X115500Y337500D02*X69500D01*
X74000Y339000D02*X111500D01*
X67500Y345500D02*X74000Y339000D01*
G54D35*X67500Y349500D02*X77000D01*
X67500Y354500D02*X88500D01*
X90000Y356000D01*
X92500D01*
G54D32*X106500Y342500D02*X104000Y345000D01*
X99000D01*
X107000Y345500D02*X109500Y343000D01*
X111500Y339000D02*X114000Y341500D01*
X113000Y346500D02*X112000Y345500D01*
X110500D01*
X109500Y343000D02*X112000D01*
X113000Y344000D01*
X117000D01*
X115500Y302500D02*X69500D01*
X74000Y304000D02*X111500D01*
X67500Y310500D02*X74000Y304000D01*
G54D35*X67500Y314500D02*X77000D01*
X67500Y319500D02*X88500D01*
X90000Y321000D01*
X92500D01*
G54D32*X111500Y304000D02*X114000Y306500D01*
X113000Y311500D02*X112000Y310500D01*
X110500D01*
X109500Y308000D02*X112000D01*
X113000Y309000D01*
X106500Y307500D02*X104000Y310000D01*
X99000D01*
X107000Y310500D02*X109500Y308000D01*
X136500Y310000D02*X135000Y311500D01*
X140000Y304000D02*X141500Y305500D01*
Y310000D01*
X137500Y305500D02*X139000Y307000D01*
G54D34*X136500Y315000D02*Y322000D01*
G54D32*X146500Y310000D02*X147500Y309000D01*
Y306000D01*
G54D33*X157500D01*
X144000Y307000D02*Y304000D01*
X145500Y302500D01*
X157500Y306000D02*X161000Y309500D01*
Y312000D01*
G54D34*X157000Y311500D02*Y321500D01*
G54D35*X152500Y317500D02*X149000D01*
X146500Y315000D01*
G54D32*X144000Y317500D02*X141500Y315000D01*
X140000Y304000D02*X119500D01*
X117000Y306500D01*
X114000D01*
X137500Y305500D02*X120500D01*
X117000Y309000D01*
X136500Y275000D02*X135000Y276500D01*
X140000Y269000D02*X141500Y270500D01*
Y275000D01*
X137500Y270500D02*X139000Y272000D01*
G54D34*X136500Y280000D02*Y287000D01*
G54D32*X146500Y275000D02*X147500Y274000D01*
Y271000D01*
G54D33*X144000Y272000D02*Y269000D01*
X145500Y267500D01*
X147500Y271000D02*X157500D01*
X161000Y274500D01*
Y277000D01*
G54D34*X157000Y276500D02*Y286500D01*
G54D32*X115500Y407500D02*X69500D01*
X74000Y409000D02*X111500D01*
X117000Y411500D02*X114000D01*
X67500Y415500D02*X74000Y409000D01*
G54D35*X67500Y419500D02*X77000D01*
X67500Y424500D02*X88500D01*
X90000Y426000D01*
X92500D01*
G54D32*X106500Y412500D02*X104000Y415000D01*
X99000D01*
X107000Y415500D02*X109500Y413000D01*
X136500Y415000D02*X135000Y416500D01*
X140000Y409000D02*X141500Y410500D01*
Y415000D01*
X137500Y410500D02*X139000Y412000D01*
G54D34*X136500Y420000D02*Y427000D01*
G54D33*X144000Y412000D02*Y409000D01*
G54D32*X140000D02*X119500D01*
X137500Y410500D02*X120500D01*
X119500Y409000D02*X117000Y411500D01*
X120500Y410500D02*X117000Y414000D01*
X135000Y416500D02*X113000D01*
Y414000D02*X117000D01*
X111500Y409000D02*X114000Y411500D01*
X113000Y416500D02*X112000Y415500D01*
X110500D01*
X109500Y413000D02*X112000D01*
X113000Y414000D01*
X146500Y415000D02*X147500Y414000D01*
Y411000D01*
G54D33*X157500D01*
G54D34*X157000Y416500D02*Y426500D01*
G54D35*X152500Y422500D02*X149000D01*
G54D33*X157500Y411000D02*X161000Y414500D01*
Y417000D01*
G54D32*X168500Y421500D02*Y411000D01*
X170000Y409500D01*
G54D35*X149000Y422500D02*X146500Y420000D01*
G54D32*X144000Y422500D02*X141500Y420000D01*
G54D33*X144000Y409000D02*X145500Y407500D01*
X229500D01*
G54D32*X168500Y386500D02*Y376000D01*
G54D35*X152500Y387500D02*X149000D01*
X146500Y385000D01*
G54D32*X170000Y409500D02*X242000D01*
G54D33*X229500Y407500D02*X244000D01*
G54D32*X242000Y409500D02*X243000Y410500D01*
Y416500D01*
G54D33*X244000Y407500D02*X245500Y409000D01*
X244000Y419000D02*X242000D01*
X245500Y382500D02*X244000Y384000D01*
X242000D01*
X239500Y381500D01*
X245500Y409000D02*Y417500D01*
X244000Y419000D01*
X242000D02*X239500Y416500D01*
X145500Y372500D02*X229500D01*
G54D32*X168500Y376000D02*X170000Y374500D01*
X242000D01*
G54D33*X229500Y372500D02*X244000D01*
G54D32*X242000Y374500D02*X243000Y375500D01*
Y381500D01*
G54D33*X245500Y374000D02*Y382500D01*
X244000Y372500D02*X245500Y374000D01*
G54D32*X136500Y380000D02*X135000Y381500D01*
G54D34*X136500Y385000D02*Y392000D01*
G54D32*X140000Y374000D02*X141500Y375500D01*
X137500D02*X139000Y377000D01*
X144000Y387500D02*X141500Y385000D01*
Y375500D02*Y380000D01*
X146500D02*X147500Y379000D01*
Y376000D01*
G54D33*X144000Y377000D02*Y374000D01*
X145500Y372500D01*
X147500Y376000D02*X157500D01*
X161000Y379500D01*
Y382000D01*
G54D34*X157000Y381500D02*Y391500D01*
G54D32*X115500Y372500D02*X69500D01*
X74000Y374000D02*X111500D01*
X67500Y380500D02*X74000Y374000D01*
G54D35*X67500Y384500D02*X77000D01*
X67500Y389500D02*X88500D01*
X90000Y391000D01*
X92500D01*
G54D32*X140000Y374000D02*X119500D01*
X137500Y375500D02*X120500D01*
X119500Y374000D02*X117000Y376500D01*
X120500Y375500D02*X117000Y379000D01*
Y376500D02*X114000D01*
X135000Y381500D02*X113000D01*
Y379000D02*X117000D01*
X111500Y374000D02*X114000Y376500D01*
X106500Y377500D02*X104000Y380000D01*
X99000D01*
X113000Y381500D02*X112000Y380500D01*
X110500D01*
X107000D02*X109500Y378000D01*
X112000D01*
X113000Y379000D01*
G54D33*X229500Y337500D02*X244000D01*
G54D32*X242000Y339500D02*X243000Y340500D01*
Y346500D01*
G54D33*X244000Y337500D02*X245500Y339000D01*
Y347500D01*
X244000Y349000D01*
X242000D01*
X239500Y346500D01*
X229500Y302500D02*X244000D01*
G54D32*X242000Y304500D02*X243000Y305500D01*
Y311500D01*
G54D33*X244000Y302500D02*X245500Y304000D01*
Y312500D01*
X244000Y314000D01*
X242000D01*
X239500Y311500D01*
G54D32*X242000Y269500D02*X243000Y270500D01*
Y276500D01*
G54D33*X245500Y269000D02*Y277500D01*
X244000Y279000D01*
X242000D01*
X239500Y276500D01*
G54D32*X243000Y235500D02*Y241500D01*
G54D33*X145500Y267500D02*X229500D01*
X244000D01*
X245500Y269000D01*
G54D32*X140000D02*X119500D01*
X168500Y281500D02*Y271000D01*
Y246500D02*Y236000D01*
X170000Y234500D01*
X168500Y271000D02*X170000Y269500D01*
X242000D01*
G54D35*X152500Y282500D02*X149000D01*
X146500Y280000D01*
G54D32*X144000Y282500D02*X141500Y280000D01*
X119500Y269000D02*X117000Y271500D01*
X114000D01*
X137500Y270500D02*X120500D01*
X117000Y274000D01*
X135000Y276500D02*X113000D01*
Y274000D02*X117000D01*
G54D33*X145500Y232500D02*X229500D01*
G54D32*X170000Y234500D02*X242000D01*
G54D33*X229500Y232500D02*X244000D01*
G54D32*X242000Y234500D02*X243000Y235500D01*
G54D33*X244000Y232500D02*X245500Y234000D01*
Y242500D01*
X244000Y244000D01*
X242000D01*
X239500Y241500D01*
G54D32*X113000Y239000D02*X117000D01*
G54D35*X152500Y212500D02*X149000D01*
X146500Y210000D01*
G54D32*X144000Y212500D02*X141500Y210000D01*
X135000Y206500D02*X113000D01*
G54D33*X145500Y197500D02*X229500D01*
G54D32*X168500Y211500D02*Y201000D01*
X170000Y199500D01*
X140000Y199000D02*X119500D01*
X117000Y201500D01*
X120500Y200500D02*X117000Y204000D01*
Y201500D02*X114000D01*
X113000Y204000D02*X117000D01*
X137500Y200500D02*X120500D01*
X115500Y267500D02*X69500D01*
X74000Y269000D02*X111500D01*
X67500Y275500D02*X74000Y269000D01*
G54D35*X67500Y279500D02*X77000D01*
X67500Y284500D02*X88500D01*
X90000Y286000D01*
X92500D01*
G54D32*X111500Y269000D02*X114000Y271500D01*
X113000Y276500D02*X112000Y275500D01*
X110500D01*
X109500Y273000D02*X112000D01*
X113000Y274000D01*
X106500Y272500D02*X104000Y275000D01*
X99000D01*
X107000Y275500D02*X109500Y273000D01*
X115500Y232500D02*X69500D01*
X74000Y234000D02*X111500D01*
X67500Y240500D02*X74000Y234000D01*
G54D35*X67500Y244500D02*X77000D01*
X67500Y249500D02*X88500D01*
X90000Y251000D01*
X92500D01*
G54D32*X111500Y234000D02*X114000Y236500D01*
X113000Y241500D02*X112000Y240500D01*
X110500D01*
X109500Y238000D02*X112000D01*
X113000Y239000D01*
X106500Y237500D02*X104000Y240000D01*
X99000D01*
X107000Y240500D02*X109500Y238000D01*
X136500Y240000D02*X135000Y241500D01*
X140000Y234000D02*X141500Y235500D01*
Y240000D01*
X137500Y235500D02*X139000Y237000D01*
G54D34*X136500Y245000D02*Y252000D01*
G54D32*X144000Y247500D02*X141500Y245000D01*
X146500Y240000D02*X147500Y239000D01*
Y236000D01*
G54D33*X144000Y237000D02*Y234000D01*
X145500Y232500D01*
X147500Y236000D02*X157500D01*
X161000Y239500D01*
Y242000D01*
G54D34*X157000Y241500D02*Y251500D01*
G54D35*X152500Y247500D02*X149000D01*
X146500Y245000D01*
G54D32*X140000Y234000D02*X119500D01*
X117000Y236500D01*
X114000D01*
X137500Y235500D02*X120500D01*
X117000Y239000D01*
X135000Y241500D02*X113000D01*
X115500Y197500D02*X69500D01*
X74000Y199000D02*X111500D01*
X67500Y205500D02*X74000Y199000D01*
G54D35*X67500Y209500D02*X77000D01*
X67500Y214500D02*X88500D01*
X90000Y216000D01*
X92500D01*
G54D32*X106500Y202500D02*X104000Y205000D01*
X99000D01*
X107000Y205500D02*X109500Y203000D01*
X136500Y205000D02*X135000Y206500D01*
G54D34*X136500Y210000D02*Y217000D01*
Y175000D02*Y182000D01*
G54D32*X140000Y199000D02*X141500Y200500D01*
G54D33*X144000Y202000D02*Y199000D01*
X145500Y197500D01*
G54D32*X137500Y200500D02*X139000Y202000D01*
X146500Y205000D02*X147500Y204000D01*
Y201000D01*
G54D33*X157500D01*
X161000Y204500D01*
Y207000D01*
G54D34*X157000Y206500D02*Y216500D01*
G54D32*X146500Y170000D02*X147500Y169000D01*
Y166000D01*
G54D33*X157500D01*
X161000Y169500D01*
Y172000D01*
G54D34*X157000Y171500D02*Y181500D01*
G54D35*X152500Y177500D02*X149000D01*
X146500Y175000D01*
G54D32*X111500Y199000D02*X114000Y201500D01*
X113000Y206500D02*X112000Y205500D01*
X110500D01*
X109500Y203000D02*X112000D01*
X113000Y204000D01*
G54D35*X88500Y179500D02*X90000Y181000D01*
X92500D01*
G54D32*X117000Y166500D02*X114000D01*
X113000Y171500D02*X112000Y170500D01*
X110500D01*
X107000D02*X109500Y168000D01*
X111500Y164000D02*X114000Y166500D01*
X106500Y167500D02*X104000Y170000D01*
X99000D01*
X109500Y168000D02*X112000D01*
X113000Y169000D01*
X141500Y200500D02*Y205000D01*
X140000Y129000D02*X141500Y130500D01*
Y135000D01*
G54D33*X144000Y132000D02*Y129000D01*
G54D32*Y142500D02*X141500Y140000D01*
X140000Y164000D02*X141500Y165500D01*
Y170000D01*
X137500Y165500D02*X139000Y167000D01*
G54D33*X144000D02*Y164000D01*
X145500Y162500D01*
G54D32*X144000Y177500D02*X141500Y175000D01*
X140000Y164000D02*X119500D01*
X117000Y166500D01*
X137500Y165500D02*X120500D01*
X117000Y169000D01*
X135000Y171500D02*X113000D01*
Y169000D02*X117000D01*
X136500Y170000D02*X135000Y171500D01*
X136500Y135000D02*X135000Y136500D01*
X137500Y130500D02*X139000Y132000D01*
G54D34*X136500Y140000D02*Y147000D01*
G54D32*X140000Y129000D02*X119500D01*
X137500Y130500D02*X120500D01*
X119500Y129000D02*X117000Y131500D01*
X120500Y130500D02*X117000Y134000D01*
X135000Y136500D02*X113000D01*
Y134000D02*X117000D01*
X170000Y199500D02*X242000D01*
G54D33*X229500Y197500D02*X244000D01*
X245500Y199000D01*
G54D32*X242000Y199500D02*X243000Y200500D01*
Y206500D01*
G54D33*X245500Y199000D02*Y207500D01*
X244000Y209000D01*
X242000D01*
X239500Y206500D01*
X229500Y162500D02*X244000D01*
G54D32*X242000Y164500D02*X243000Y165500D01*
Y171500D01*
G54D33*X244000Y162500D02*X245500Y164000D01*
Y172500D01*
X244000Y174000D01*
X242000D01*
X145500Y162500D02*X229500D01*
G54D32*X168500Y176500D02*Y166000D01*
X170000Y164500D01*
X242000D01*
G54D33*Y174000D02*X239500Y171500D01*
G54D32*X170000Y129500D02*X242000D01*
G54D33*Y139000D02*X239500Y136500D01*
X229500Y127500D02*X244000D01*
G54D32*X242000Y129500D02*X243000Y130500D01*
Y136500D01*
G54D33*X245500Y129000D02*Y137500D01*
X244000Y139000D01*
X242000D01*
X145500Y127500D02*X229500D01*
G54D32*X168500Y141500D02*Y131000D01*
X170000Y129500D01*
G54D35*X152500Y142500D02*X149000D01*
G54D32*X146500Y135000D02*X147500Y134000D01*
G54D35*X149000Y142500D02*X146500Y140000D01*
G54D32*X147500Y134000D02*Y131000D01*
G54D33*X144000Y129000D02*X145500Y127500D01*
X147500Y131000D02*X157500D01*
X161000Y134500D01*
Y137000D01*
G54D34*X157000Y136500D02*Y146500D01*
G54D32*X115500Y162500D02*X69500D01*
X74000Y164000D02*X111500D01*
X67500Y170500D02*X74000Y164000D01*
G54D35*X67500Y174500D02*X77000D01*
X67500Y179500D02*X88500D01*
Y144500D02*X90000Y146000D01*
X92500D01*
G54D32*X117000Y131500D02*X114000D01*
X113000Y136500D02*X112000Y135500D01*
X110500D01*
X107000D02*X109500Y133000D01*
X67500Y135500D02*X74000Y129000D01*
G54D35*X67500Y139500D02*X77000D01*
X67500Y144500D02*X88500D01*
G54D32*X115500Y127500D02*X69500D01*
X74000Y129000D02*X111500D01*
X114000Y131500D01*
X106500Y132500D02*X104000Y135000D01*
X99000D01*
X109500Y133000D02*X112000D01*
X113000Y134000D01*
X136500Y100000D02*X135000Y101500D01*
X140000Y94000D02*X141500Y95500D01*
Y100000D01*
X137500Y95500D02*X139000Y97000D01*
G54D33*X144000D02*Y94000D01*
X145500Y92500D01*
G54D32*X140000Y94000D02*X119500D01*
X137500Y95500D02*X120500D01*
X119500Y94000D02*X117000Y96500D01*
X120500Y95500D02*X117000Y99000D01*
Y96500D02*X114000D01*
X135000Y101500D02*X113000D01*
Y99000D02*X117000D01*
G54D33*X147500Y96000D02*X157500D01*
X161000Y99500D01*
Y102000D01*
G54D32*X146500Y100000D02*X147500Y99000D01*
Y96000D01*
G54D34*X136500Y105000D02*Y112000D01*
G54D32*X144000Y107500D02*X141500Y105000D01*
G54D34*X157000Y101500D02*Y111500D01*
G54D32*X115500Y92500D02*X69500D01*
X74000Y94000D02*X111500D01*
X67500Y100500D02*X74000Y94000D01*
G54D35*X67500Y104500D02*X77000D01*
X67500Y109500D02*X88500D01*
X90000Y111000D01*
X92500D01*
G54D32*X111500Y94000D02*X114000Y96500D01*
X113000Y101500D02*X112000Y100500D01*
X110500D01*
X109500Y98000D02*X112000D01*
X113000Y99000D01*
X106500Y97500D02*X104000Y100000D01*
X99000D01*
X107000Y100500D02*X109500Y98000D01*
G54D33*X244000Y127500D02*X245500Y129000D01*
X229500Y92500D02*X244000D01*
G54D32*X242000Y94500D02*X243000Y95500D01*
G54D33*X244000Y92500D02*X245500Y94000D01*
G54D32*X243000Y95500D02*Y101500D01*
G54D33*X245500Y94000D02*Y102500D01*
X244000Y104000D01*
X242000D01*
X239500Y101500D01*
X145500Y92500D02*X229500D01*
G54D32*X168500Y106500D02*Y96000D01*
X170000Y94500D01*
X242000D01*
G54D35*X152500Y107500D02*X149000D01*
X146500Y105000D01*
X152500Y72500D02*X149000D01*
X146500Y70000D01*
G54D33*X145500Y57500D02*X229500D01*
G54D32*X168500Y71500D02*Y61000D01*
X170000Y59500D01*
X242000D01*
G54D33*X229500Y57500D02*X244000D01*
X245500Y59000D01*
G54D32*X242000Y59500D02*X243000Y60500D01*
Y66500D01*
G54D33*X245500Y59000D02*Y67500D01*
X244000Y69000D01*
X242000D01*
X239500Y66500D01*
X145500Y22500D02*X229500D01*
G54D32*X168500Y36500D02*Y26000D01*
X170000Y24500D01*
X242000D01*
G54D33*Y34000D02*X239500Y31500D01*
G54D35*X149000Y37500D02*X146500Y35000D01*
G54D33*X229500Y22500D02*X244000D01*
G54D32*X242000Y24500D02*X243000Y25500D01*
Y31500D01*
G54D33*X244000Y22500D02*X245500Y24000D01*
Y32500D01*
X244000Y34000D01*
X242000D01*
G54D32*X140000Y59000D02*X141500Y60500D01*
Y65000D01*
X146500D02*X147500Y64000D01*
Y61000D01*
G54D33*X144000Y62000D02*Y59000D01*
G54D32*Y72500D02*X141500Y70000D01*
G54D33*X144000Y59000D02*X145500Y57500D01*
X147500Y61000D02*X157500D01*
X161000Y64500D01*
Y67000D01*
G54D34*X157000Y66500D02*Y76500D01*
G54D32*X115500Y57500D02*X69500D01*
X74000Y59000D02*X111500D01*
X67500Y65500D02*X74000Y59000D01*
G54D35*X67500Y69500D02*X77000D01*
X67500Y74500D02*X88500D01*
X90000Y76000D01*
X92500D01*
G54D32*X111500Y59000D02*X114000Y61500D01*
X113000Y66500D02*X112000Y65500D01*
X110500D01*
X109500Y63000D02*X112000D01*
X113000Y64000D01*
X106500Y62500D02*X104000Y65000D01*
X99000D01*
X107000Y65500D02*X109500Y63000D01*
X136500Y65000D02*X135000Y66500D01*
X137500Y60500D02*X139000Y62000D01*
G54D34*X136500Y70000D02*Y77000D01*
G54D32*X140000Y59000D02*X119500D01*
X137500Y60500D02*X120500D01*
X135000Y66500D02*X113000D01*
X119500Y59000D02*X117000Y61500D01*
X114000D01*
X120500Y60500D02*X117000Y64000D01*
X113000D02*X117000D01*
X136500Y30000D02*X135000Y31500D01*
G54D34*X136500Y35000D02*Y42000D01*
G54D32*X140000Y24000D02*X141500Y25500D01*
X137500D02*X139000Y27000D01*
X141500Y25500D02*Y30000D01*
X146500D02*X147500Y29000D01*
Y26000D01*
G54D33*X144000Y27000D02*Y24000D01*
X145500Y22500D01*
X147500Y26000D02*X157500D01*
X161000Y29500D01*
Y32000D01*
G54D34*X157000Y31500D02*Y41500D01*
G54D35*X152500Y37500D02*X149000D01*
G54D32*X144000D02*X141500Y35000D01*
X115500Y22500D02*X69500D01*
X74000Y24000D02*X111500D01*
X67500Y30500D02*X74000Y24000D01*
G54D35*X67500Y34500D02*X77000D01*
X67500Y39500D02*X88500D01*
X90000Y41000D01*
X92500D01*
G54D32*X111500Y24000D02*X114000Y26500D01*
X113000Y31500D02*X112000Y30500D01*
X110500D01*
X109500Y28000D02*X112000D01*
X113000Y29000D01*
X106500Y27500D02*X104000Y30000D01*
X99000D01*
X107000Y30500D02*X109500Y28000D01*
X140000Y24000D02*X119500D01*
X137500Y25500D02*X120500D01*
X135000Y31500D02*X113000D01*
X119500Y24000D02*X117000Y26500D01*
X114000D01*
X120500Y25500D02*X117000Y29000D01*
X113000D02*X117000D01*
G54D36*X61419Y340000D02*X63337D01*
X61419Y345000D02*X63337D01*
X61419Y355000D02*X63337D01*
X61419Y350000D02*X63337D01*
G54D37*X99000Y349900D03*
G54D38*X97500Y348400D02*X100500D01*
G54D37*X99000Y343100D03*
G54D38*X97500Y344600D02*X100500D01*
G54D36*X61419Y305000D02*X63337D01*
X61419Y310000D02*X63337D01*
X61419Y320000D02*X63337D01*
X61419Y315000D02*X63337D01*
G54D37*X99000Y314900D03*
G54D38*X97500Y313400D02*X100500D01*
G54D37*X99000Y308100D03*
G54D38*X97500Y309600D02*X100500D01*
G54D39*X146500Y345000D03*
Y350000D03*
X141500Y345000D03*
X146500Y310000D03*
Y315000D03*
X141500Y310000D03*
Y315000D03*
X136500Y310000D03*
Y315000D03*
G54D36*X61419Y270000D02*X63337D01*
X61419Y275000D02*X63337D01*
X61419Y285000D02*X63337D01*
X61419Y280000D02*X63337D01*
G54D37*X99000Y279900D03*
G54D38*X97500Y278400D02*X100500D01*
G54D37*X99000Y273100D03*
G54D38*X97500Y274600D02*X100500D01*
G54D36*X61419Y235000D02*X63337D01*
X61419Y240000D02*X63337D01*
X61419Y250000D02*X63337D01*
X61419Y245000D02*X63337D01*
G54D37*X99000Y244900D03*
G54D38*X97500Y243400D02*X100500D01*
G54D37*X99000Y238100D03*
G54D38*X97500Y239600D02*X100500D01*
G54D36*X61419Y415000D02*X63337D01*
X61419Y410000D02*X63337D01*
X61419Y425000D02*X63337D01*
X61419Y420000D02*X63337D01*
G54D37*X99000Y419900D03*
G54D38*X97500Y418400D02*X100500D01*
G54D37*X99000Y413100D03*
G54D38*X97500Y414600D02*X100500D01*
G54D36*X61419Y375000D02*X63337D01*
X61419Y380000D02*X63337D01*
X61419Y390000D02*X63337D01*
X61419Y385000D02*X63337D01*
G54D37*X99000Y384900D03*
G54D38*X97500Y383400D02*X100500D01*
G54D37*X99000Y378100D03*
G54D38*X97500Y379600D02*X100500D01*
G54D39*X146500Y415000D03*
Y420000D03*
X141500Y415000D03*
Y420000D03*
X136500Y415000D03*
Y420000D03*
X146500Y380000D03*
Y385000D03*
X141500Y380000D03*
Y385000D03*
X136500Y380000D03*
Y385000D03*
X141500Y350000D03*
X136500D03*
Y345000D03*
X146500Y275000D03*
Y280000D03*
X141500D03*
Y275000D03*
X136500D03*
Y280000D03*
X146500Y240000D03*
Y245000D03*
X141500Y240000D03*
Y245000D03*
X136500Y240000D03*
Y245000D03*
X146500Y205000D03*
Y210000D03*
X141500Y205000D03*
Y210000D03*
X136500Y205000D03*
Y210000D03*
X146500Y170000D03*
Y30000D03*
Y35000D03*
X141500D03*
X136500D03*
X141500Y30000D03*
X136500D03*
X146500Y65000D03*
Y70000D03*
X141500Y65000D03*
Y70000D03*
X136500Y65000D03*
Y70000D03*
G54D36*X61419Y200000D02*X63337D01*
X61419Y205000D02*X63337D01*
X61419Y215000D02*X63337D01*
X61419Y210000D02*X63337D01*
G54D37*X99000Y209900D03*
G54D38*X97500Y208400D02*X100500D01*
G54D37*X99000Y203100D03*
G54D38*X97500Y204600D02*X100500D01*
G54D36*X61419Y165000D02*X63337D01*
X61419Y170000D02*X63337D01*
X61419Y180000D02*X63337D01*
X61419Y175000D02*X63337D01*
G54D37*X99000Y174900D03*
G54D38*X97500Y173400D02*X100500D01*
G54D37*X99000Y168100D03*
G54D38*X97500Y169600D02*X100500D01*
G54D36*X61419Y130000D02*X63337D01*
X61419Y135000D02*X63337D01*
X61419Y145000D02*X63337D01*
X61419Y140000D02*X63337D01*
G54D37*X99000Y139900D03*
G54D38*X97500Y138400D02*X100500D01*
G54D37*X99000Y133100D03*
G54D38*X97500Y134600D02*X100500D01*
G54D39*X146500Y175000D03*
X141500Y170000D03*
Y175000D03*
X136500Y170000D03*
Y175000D03*
X146500Y135000D03*
Y140000D03*
X141500Y135000D03*
Y140000D03*
X136500Y135000D03*
Y140000D03*
X146500Y100000D03*
Y105000D03*
X141500Y100000D03*
Y105000D03*
X136500D03*
Y100000D03*
G54D36*X61419Y95000D02*X63337D01*
X61419Y100000D02*X63337D01*
X61419Y110000D02*X63337D01*
X61419Y105000D02*X63337D01*
G54D37*X99000Y104900D03*
G54D38*X97500Y103400D02*X100500D01*
G54D37*X99000Y98100D03*
G54D38*X97500Y99600D02*X100500D01*
G54D36*X61419Y60000D02*X63337D01*
X61419Y65000D02*X63337D01*
X61419Y75000D02*X63337D01*
X61419Y70000D02*X63337D01*
G54D37*X99000Y69900D03*
G54D38*X97500Y68400D02*X100500D01*
G54D37*X99000Y63100D03*
G54D38*X97500Y64600D02*X100500D01*
G54D36*X61419Y25000D02*X63337D01*
X61419Y30000D02*X63337D01*
X61419Y40000D02*X63337D01*
X61419Y35000D02*X63337D01*
G54D37*X99000Y34900D03*
G54D38*X97500Y33400D02*X100500D01*
G54D37*X99000Y28100D03*
G54D38*X97500Y29600D02*X100500D01*
G54D40*X255500Y236594D03*
X258500D03*
X243000Y241500D03*
X239500D03*
X255500Y306594D03*
X243000Y311500D03*
X239500D03*
X258500Y306594D03*
X255500Y271594D03*
X258500D03*
X243000Y276500D03*
X239500D03*
X255500Y201594D03*
X258500D03*
X243000Y206500D03*
X239500D03*
X255500Y166594D03*
X258500D03*
X243000Y171500D03*
X239500D03*
X258500Y131594D03*
X255500D03*
Y96594D03*
X258500D03*
X243000Y136500D03*
X239500D03*
X243000Y101500D03*
X239500D03*
X255500Y61594D03*
Y26594D03*
X258500D03*
Y61594D03*
X243000Y66500D03*
Y31500D03*
X239500D03*
Y66500D03*
G54D41*X171500Y103000D03*
G54D40*X144000Y107500D03*
G54D41*X147500Y61000D03*
G54D40*X144000Y37500D03*
G54D41*X161000Y58500D03*
X139000Y62000D03*
X144000D03*
X157000Y66500D03*
X152500Y72500D03*
G54D40*X144000D03*
G54D41*X161000Y67000D03*
X175500Y68000D03*
X179500D03*
X171500D03*
G54D40*X168500Y71500D03*
G54D41*X161000Y408500D03*
Y417000D03*
X175500Y418000D03*
X179500D03*
G54D40*X168500Y421500D03*
G54D41*X171500Y418000D03*
G54D40*X255500Y411594D03*
X258500D03*
X243000Y416500D03*
X239500D03*
X255500Y376594D03*
X258500D03*
X243000Y381500D03*
X239500D03*
G54D41*X139000Y412000D03*
X144000D03*
X147500Y411000D03*
X157000Y416500D03*
X152500Y422500D03*
G54D40*X144000D03*
G54D41*X139000Y377000D03*
X144000D03*
X147500Y376000D03*
X161000Y373500D03*
Y382000D03*
X175500Y383000D03*
X179500D03*
G54D40*X168500Y386500D03*
G54D41*X171500Y383000D03*
X157000Y381500D03*
X152500Y387500D03*
G54D40*X144000D03*
G54D41*X139000Y342000D03*
X144000D03*
X147500Y341000D03*
X161000Y338500D03*
Y347000D03*
X157000Y346500D03*
X152500Y352500D03*
G54D40*X144000D03*
G54D41*X175500Y348000D03*
X179500D03*
G54D40*X255500Y341594D03*
X258500D03*
X243000Y346500D03*
X239500D03*
X168500Y351500D03*
G54D41*X171500Y348000D03*
G54D40*X110500Y100500D03*
X114000Y61500D03*
X106500Y62500D03*
X107000Y65500D03*
X110500D03*
X106500Y202500D03*
X107000Y205500D03*
X110500D03*
X114000Y201500D03*
Y236500D03*
X106500Y237500D03*
X107000Y240500D03*
X110500D03*
X115500Y92500D03*
X114000Y96500D03*
X106500Y97500D03*
X107000Y100500D03*
X115500Y57500D03*
G54D41*X139000Y237000D03*
X144000D03*
G54D40*Y247500D03*
G54D41*X147500Y236000D03*
X161000Y233500D03*
Y242000D03*
X175500Y243000D03*
X179500D03*
G54D40*X168500Y246500D03*
G54D41*X171500Y243000D03*
X157000Y241500D03*
X152500Y247500D03*
G54D40*X115500Y232500D03*
Y197500D03*
G54D41*X139000Y202000D03*
Y167000D03*
X144000Y202000D03*
G54D40*Y212500D03*
G54D41*Y167000D03*
X147500Y201000D03*
Y166000D03*
X161000Y198500D03*
Y163500D03*
Y172000D03*
X157000Y171500D03*
X152500Y177500D03*
X161000Y207000D03*
X157000Y206500D03*
X152500Y212500D03*
X175500Y208000D03*
X179500D03*
G54D40*X168500Y211500D03*
G54D41*X171500Y208000D03*
X175500Y173000D03*
X179500D03*
G54D40*X168500Y176500D03*
X110500Y275500D03*
X115500Y267500D03*
X114000Y271500D03*
X106500Y272500D03*
X107000Y275500D03*
X115500Y302500D03*
X114000Y306500D03*
X106500Y307500D03*
X107000Y310500D03*
X110500D03*
G54D41*X139000Y307000D03*
X144000D03*
G54D40*Y317500D03*
G54D41*X147500Y306000D03*
X161000Y303500D03*
Y312000D03*
X157000Y311500D03*
X152500Y317500D03*
X175500Y313000D03*
X179500D03*
G54D40*X168500Y316500D03*
G54D41*X171500Y313000D03*
X139000Y272000D03*
X144000D03*
X147500Y271000D03*
X161000Y268500D03*
Y277000D03*
X157000Y276500D03*
X152500Y282500D03*
G54D40*X144000D03*
G54D41*X175500Y278000D03*
X179500D03*
G54D40*X168500Y281500D03*
X110500Y345500D03*
X115500Y337500D03*
X114000Y341500D03*
X106500Y342500D03*
X107000Y345500D03*
X114000Y376500D03*
X106500Y377500D03*
X107000Y380500D03*
X110500D03*
X94000Y412000D03*
X106500Y412500D03*
X107000Y415500D03*
X115500Y407500D03*
X114000Y411500D03*
X110500Y415500D03*
G54D41*X67500Y424500D03*
Y415500D03*
Y419500D03*
G54D40*X78500Y417500D03*
X90000Y426000D03*
X92500D03*
X94000Y342000D03*
X90000Y356000D03*
X92500D03*
G54D41*X67500Y389500D03*
G54D40*X90000Y391000D03*
X92500D03*
G54D41*X67500Y380500D03*
G54D40*X78500Y382500D03*
X94000Y377000D03*
G54D41*X67500Y384500D03*
Y354500D03*
Y345500D03*
Y349500D03*
G54D40*X78500Y347500D03*
G54D41*X67500Y319500D03*
Y310500D03*
Y314500D03*
G54D40*X78500Y312500D03*
X94000Y307000D03*
X90000Y321000D03*
X92500D03*
X90000Y286000D03*
X92500D03*
X94000Y272000D03*
Y237000D03*
X90000Y251000D03*
X92500D03*
G54D41*X67500Y284500D03*
Y275500D03*
G54D40*X78500Y277500D03*
G54D41*X67500Y279500D03*
Y249500D03*
Y240500D03*
Y244500D03*
G54D40*X78500Y242500D03*
Y207500D03*
X115500Y372500D03*
Y162500D03*
X114000Y166500D03*
X106500Y167500D03*
X107000Y170500D03*
X110500D03*
X106500Y27500D03*
X107000Y30500D03*
X110500D03*
X94000Y202000D03*
X90000Y181000D03*
X92500D03*
X90000Y216000D03*
X92500D03*
X94000Y167000D03*
Y132000D03*
X90000Y146000D03*
X92500D03*
X94000Y97000D03*
Y62000D03*
X92500Y76000D03*
X94000Y27000D03*
X92500Y41000D03*
X90000Y111000D03*
Y76000D03*
Y41000D03*
X92500Y111000D03*
G54D41*X67500Y214500D03*
Y205500D03*
Y209500D03*
Y179500D03*
Y174500D03*
Y144500D03*
Y135500D03*
Y139500D03*
G54D40*X78500Y137500D03*
G54D41*X67500Y170500D03*
Y109500D03*
G54D40*X78500Y172500D03*
Y67500D03*
G54D41*X67500Y100500D03*
G54D40*X78500Y102500D03*
G54D41*X67500Y104500D03*
Y74500D03*
Y65500D03*
Y69500D03*
Y39500D03*
Y30500D03*
Y34500D03*
G54D40*X78500Y32500D03*
G54D41*X171500Y278000D03*
Y173000D03*
X175500Y33000D03*
X179500D03*
G54D40*X168500Y36500D03*
G54D41*X171500Y33000D03*
G54D40*X115500Y127500D03*
X114000Y131500D03*
X106500Y132500D03*
X107000Y135500D03*
X110500D03*
X115500Y22500D03*
X114000Y26500D03*
X144000Y177500D03*
G54D41*X139000Y97000D03*
X144000D03*
X147500Y96000D03*
X139000Y132000D03*
X144000D03*
X147500Y131000D03*
X161000Y128500D03*
Y137000D03*
X157000Y136500D03*
X152500Y142500D03*
G54D40*X144000D03*
G54D41*X139000Y27000D03*
X144000D03*
X147500Y26000D03*
X161000Y23500D03*
Y32000D03*
X157000Y31500D03*
X152500Y37500D03*
X175500Y138000D03*
G54D40*X168500Y141500D03*
G54D41*X171500Y138000D03*
X179500D03*
X161000Y93500D03*
Y102000D03*
X157000Y101500D03*
X152500Y107500D03*
X175500Y103000D03*
X179500D03*
G54D40*X168500Y106500D03*
G54D39*G54D42*G54D43*G54D42*G54D43*G54D42*G54D43*G54D42*G54D43*G54D42*G54D43*G54D42*G54D43*G54D42*G54D43*G54D42*G54D43*G54D42*G54D43*G54D42*G54D43*G54D42*G54D43*G54D42*G54D43*G54D39*G54D42*G54D39*G54D42*G54D39*G54D42*G54D39*G54D42*G54D39*G54D42*G54D43*G54D42*G54D43*G54D42*G54D43*G54D42*G54D43*G54D42*G54D43*G54D42*G54D43*G54D42*G54D39*G54D42*G54D39*G54D42*G54D39*G54D42*G54D43*G54D42*G54D43*G54D42*G54D43*G54D42*G54D43*G54D42*G54D39*G54D42*G54D39*G54D42*G54D39*G54D42*G54D39*G54D42*G54D39*G54D42*G54D43*G54D42*G54D43*G54D42*G54D43*G54D42*G54D43*G54D42*G54D43*G54D42*G54D43*G54D42*G54D43*G54D42*G54D43*G54D42*G54D43*G54D42*G54D43*G54D42*G54D43*G54D42*G54D43*G54D42*G54D43*G54D42*G54D43*G54D42*G54D43*G54D42*G54D43*G54D42*G54D44*M02*
