M48
INCH
T51C0.014
T50C0.012
%
T50
X007850Y041750
X007850Y038250
X007850Y034750
X007850Y031250
X007850Y027750
X007850Y024250
X007850Y020750
X007850Y017250
X007850Y013750
X007850Y010250
X007850Y006750
X007850Y003250
X009000Y042600
X009000Y039100
X009000Y035600
X009000Y032100
X009000Y028600
X009000Y025100
X009000Y021600
X009000Y018100
X009000Y014600
X009000Y011100
X009000Y007600
X009000Y004100
X009250Y042600
X009250Y039100
X009250Y035600
X009250Y032100
X009250Y028600
X009250Y025100
X009250Y021600
X009250Y018100
X009250Y014600
X009250Y011100
X009250Y007600
X009250Y004100
X009400Y041200
X009400Y037700
X009400Y034200
X009400Y030700
X009400Y027200
X009400Y023700
X009400Y020200
X009400Y016700
X009400Y013200
X009400Y009700
X009400Y006200
X009400Y002700
X010650Y041250
X010650Y037750
X010650Y034250
X010650Y030750
X010650Y027250
X010650Y023750
X010650Y020250
X010650Y016750
X010650Y013250
X010650Y009750
X010650Y006250
X010650Y002750
X010700Y041550
X010700Y038050
X010700Y034550
X010700Y031050
X010700Y027550
X010700Y024050
X010700Y020550
X010700Y017050
X010700Y013550
X010700Y010050
X010700Y006550
X010700Y003050
X011050Y041550
X011050Y038050
X011050Y034550
X011050Y031050
X011050Y027550
X011050Y024050
X011050Y020550
X011050Y017050
X011050Y013550
X011050Y010050
X011050Y006550
X011050Y003050
X011400Y041150
X011400Y037650
X011400Y034150
X011400Y030650
X011400Y027150
X011400Y023650
X011400Y020150
X011400Y016650
X011400Y013150
X011400Y009650
X011400Y006150
X011400Y002650
X011550Y040750
X011550Y037250
X011550Y033750
X011550Y030250
X011550Y026750
X011550Y023250
X011550Y019750
X011550Y016250
X011550Y012750
X011550Y009250
X011550Y005750
X011550Y002250
X014400Y042250
X014400Y038750
X014400Y035250
X014400Y031750
X014400Y028250
X014400Y024750
X014400Y021250
X014400Y017750
X014400Y014250
X014400Y010750
X014400Y007250
X014400Y003750
X016850Y042150
X016850Y038650
X016850Y035150
X016850Y031650
X016850Y028150
X016850Y024650
X016850Y021150
X016850Y017650
X016850Y014150
X016850Y010650
X016850Y007150
X016850Y003650
X023950Y041650
X023950Y038150
X023950Y034650
X023950Y031150
X023950Y027650
X023950Y024150
X023950Y020650
X023950Y017150
X023950Y013650
X023950Y010150
X023950Y006650
X023950Y003150
X024300Y041650
X024300Y038150
X024300Y034650
X024300Y031150
X024300Y027650
X024300Y024150
X024300Y020650
X024300Y017150
X024300Y013650
X024300Y010150
X024300Y006650
X024300Y003150
X025550Y041159
X025550Y037659
X025550Y034159
X025550Y030659
X025550Y027159
X025550Y023659
X025550Y020159
X025550Y016659
X025550Y013159
X025550Y009659
X025550Y006159
X025550Y002659
X025850Y041159
X025850Y037659
X025850Y034159
X025850Y030659
X025850Y027159
X025850Y023659
X025850Y020159
X025850Y016659
X025850Y013159
X025850Y009659
X025850Y006159
X025850Y002659
T51
X006750Y042450
X006750Y041950
X006750Y041550
X006750Y038950
X006750Y038450
X006750Y038050
X006750Y035450
X006750Y034950
X006750Y034550
X006750Y031950
X006750Y031450
X006750Y031050
X006750Y028450
X006750Y027950
X006750Y027550
X006750Y024950
X006750Y024450
X006750Y024050
X006750Y021450
X006750Y020950
X006750Y020550
X006750Y017950
X006750Y017450
X006750Y017050
X006750Y014450
X006750Y013950
X006750Y013550
X006750Y010950
X006750Y010450
X006750Y010050
X006750Y007450
X006750Y006950
X006750Y006550
X006750Y003950
X006750Y003450
X006750Y003050
X013900Y041200
X013900Y037700
X013900Y034200
X013900Y030700
X013900Y027200
X013900Y023700
X013900Y020200
X013900Y016700
X013900Y013200
X013900Y009700
X013900Y006200
X013900Y002700
X014400Y041200
X014400Y037700
X014400Y034200
X014400Y030700
X014400Y027200
X014400Y023700
X014400Y020200
X014400Y016700
X014400Y013200
X014400Y009700
X014400Y006200
X014400Y002700
X014750Y041100
X014750Y037600
X014750Y034100
X014750Y030600
X014750Y027100
X014750Y023600
X014750Y020100
X014750Y016600
X014750Y013100
X014750Y009600
X014750Y006100
X014750Y002600
X015250Y042250
X015250Y038750
X015250Y035250
X015250Y031750
X015250Y028250
X015250Y024750
X015250Y021250
X015250Y017750
X015250Y014250
X015250Y010750
X015250Y007250
X015250Y003750
X015700Y041650
X015700Y038150
X015700Y034650
X015700Y031150
X015700Y027650
X015700Y024150
X015700Y020650
X015700Y017150
X015700Y013650
X015700Y010150
X015700Y006650
X015700Y003150
X016100Y041700
X016100Y040850
X016100Y038200
X016100Y037350
X016100Y034700
X016100Y033850
X016100Y031200
X016100Y030350
X016100Y027700
X016100Y026850
X016100Y024200
X016100Y023350
X016100Y020700
X016100Y019850
X016100Y017200
X016100Y016350
X016100Y013700
X016100Y012850
X016100Y010200
X016100Y009350
X016100Y006700
X016100Y005850
X016100Y003200
X016100Y002350
X017150Y041800
X017150Y038300
X017150Y034800
X017150Y031300
X017150Y027800
X017150Y024300
X017150Y020800
X017150Y017300
X017150Y013800
X017150Y010300
X017150Y006800
X017150Y003300
X017550Y041800
X017550Y038300
X017550Y034800
X017550Y031300
X017550Y027800
X017550Y024300
X017550Y020800
X017550Y017300
X017550Y013800
X017550Y010300
X017550Y006800
X017550Y003300
X017950Y041800
X017950Y038300
X017950Y034800
X017950Y031300
X017950Y027800
X017950Y024300
X017950Y020800
X017950Y017300
X017950Y013800
X017950Y010300
X017950Y006800
X017950Y003300
M30
