G04 start of page 13 for group -3984 idx -3984 *
G04 Title: (unknown), fab *
G04 Creator: pcb 20140316 *
G04 CreationDate: Thu 17 Dec 2020 03:42:44 AM GMT UTC *
G04 For: railfan *
G04 Format: Gerber/RS-274X *
G04 PCB-Dimensions (mil): 3000.00 4500.00 *
G04 PCB-Coordinate-Origin: lower left *
%MOIN*%
%FSLAX25Y25*%
%LNFAB*%
%ADD91C,0.0083*%
%ADD90C,0.0066*%
%ADD89C,0.0093*%
%ADD88C,0.0074*%
%ADD87C,0.0100*%
%ADD86C,0.0075*%
%ADD85C,0.0060*%
%ADD84R,0.0080X0.0080*%
G54D84*X150700Y417500D02*G75*G03X152300Y417500I800J0D01*G01*
G75*G03X150700Y417500I-800J0D01*G01*
X130700Y421500D02*G75*G03X132300Y421500I800J0D01*G01*
G75*G03X130700Y421500I-800J0D01*G01*
Y413500D02*G75*G03X132300Y413500I800J0D01*G01*
G75*G03X130700Y413500I-800J0D01*G01*
X150700Y382500D02*G75*G03X152300Y382500I800J0D01*G01*
G75*G03X150700Y382500I-800J0D01*G01*
X130700Y386500D02*G75*G03X132300Y386500I800J0D01*G01*
G75*G03X130700Y386500I-800J0D01*G01*
Y378500D02*G75*G03X132300Y378500I800J0D01*G01*
G75*G03X130700Y378500I-800J0D01*G01*
X150700Y347500D02*G75*G03X152300Y347500I800J0D01*G01*
G75*G03X150700Y347500I-800J0D01*G01*
X130700Y351500D02*G75*G03X132300Y351500I800J0D01*G01*
G75*G03X130700Y351500I-800J0D01*G01*
Y343500D02*G75*G03X132300Y343500I800J0D01*G01*
G75*G03X130700Y343500I-800J0D01*G01*
X150700Y312500D02*G75*G03X152300Y312500I800J0D01*G01*
G75*G03X150700Y312500I-800J0D01*G01*
X130700Y316500D02*G75*G03X132300Y316500I800J0D01*G01*
G75*G03X130700Y316500I-800J0D01*G01*
Y308500D02*G75*G03X132300Y308500I800J0D01*G01*
G75*G03X130700Y308500I-800J0D01*G01*
X150700Y277500D02*G75*G03X152300Y277500I800J0D01*G01*
G75*G03X150700Y277500I-800J0D01*G01*
X130700Y281500D02*G75*G03X132300Y281500I800J0D01*G01*
G75*G03X130700Y281500I-800J0D01*G01*
Y273500D02*G75*G03X132300Y273500I800J0D01*G01*
G75*G03X130700Y273500I-800J0D01*G01*
X150700Y242500D02*G75*G03X152300Y242500I800J0D01*G01*
G75*G03X150700Y242500I-800J0D01*G01*
X130700Y246500D02*G75*G03X132300Y246500I800J0D01*G01*
G75*G03X130700Y246500I-800J0D01*G01*
Y238500D02*G75*G03X132300Y238500I800J0D01*G01*
G75*G03X130700Y238500I-800J0D01*G01*
X150700Y207500D02*G75*G03X152300Y207500I800J0D01*G01*
G75*G03X150700Y207500I-800J0D01*G01*
X130700Y211500D02*G75*G03X132300Y211500I800J0D01*G01*
G75*G03X130700Y211500I-800J0D01*G01*
Y203500D02*G75*G03X132300Y203500I800J0D01*G01*
G75*G03X130700Y203500I-800J0D01*G01*
X150700Y172500D02*G75*G03X152300Y172500I800J0D01*G01*
G75*G03X150700Y172500I-800J0D01*G01*
X130700Y176500D02*G75*G03X132300Y176500I800J0D01*G01*
G75*G03X130700Y176500I-800J0D01*G01*
Y168500D02*G75*G03X132300Y168500I800J0D01*G01*
G75*G03X130700Y168500I-800J0D01*G01*
X150700Y137500D02*G75*G03X152300Y137500I800J0D01*G01*
G75*G03X150700Y137500I-800J0D01*G01*
X130700Y141500D02*G75*G03X132300Y141500I800J0D01*G01*
G75*G03X130700Y141500I-800J0D01*G01*
Y133500D02*G75*G03X132300Y133500I800J0D01*G01*
G75*G03X130700Y133500I-800J0D01*G01*
X150700Y102500D02*G75*G03X152300Y102500I800J0D01*G01*
G75*G03X150700Y102500I-800J0D01*G01*
X130700Y106500D02*G75*G03X132300Y106500I800J0D01*G01*
G75*G03X130700Y106500I-800J0D01*G01*
Y98500D02*G75*G03X132300Y98500I800J0D01*G01*
G75*G03X130700Y98500I-800J0D01*G01*
X150700Y67500D02*G75*G03X152300Y67500I800J0D01*G01*
G75*G03X150700Y67500I-800J0D01*G01*
X130700Y71500D02*G75*G03X132300Y71500I800J0D01*G01*
G75*G03X130700Y71500I-800J0D01*G01*
Y63500D02*G75*G03X132300Y63500I800J0D01*G01*
G75*G03X130700Y63500I-800J0D01*G01*
X150700Y32500D02*G75*G03X152300Y32500I800J0D01*G01*
G75*G03X150700Y32500I-800J0D01*G01*
X130700Y36500D02*G75*G03X132300Y36500I800J0D01*G01*
G75*G03X130700Y36500I-800J0D01*G01*
Y28500D02*G75*G03X132300Y28500I800J0D01*G01*
G75*G03X130700Y28500I-800J0D01*G01*
X14200Y461250D02*G75*G03X15800Y461250I800J0D01*G01*
G75*G03X14200Y461250I-800J0D01*G01*
G54D85*X140000Y463500D02*Y457500D01*
Y463500D02*X143750Y457500D01*
Y463500D02*Y457500D01*
X145550Y462750D02*Y458250D01*
Y462750D02*X146300Y463500D01*
X147800D01*
X148550Y462750D01*
Y458250D01*
X147800Y457500D02*X148550Y458250D01*
X146300Y457500D02*X147800D01*
X145550Y458250D02*X146300Y457500D01*
X98000Y462750D02*X98750Y463500D01*
X100250D01*
X101000Y462750D01*
X100250Y457500D02*X101000Y458250D01*
X98750Y457500D02*X100250D01*
X98000Y458250D02*X98750Y457500D01*
Y460800D02*X100250D01*
X101000Y462750D02*Y461550D01*
Y460050D02*Y458250D01*
Y460050D02*X100250Y460800D01*
X101000Y461550D02*X100250Y460800D01*
X105050Y463500D02*X105800Y462750D01*
X103550Y463500D02*X105050D01*
X102800Y462750D02*X103550Y463500D01*
X102800Y462750D02*Y458250D01*
X103550Y457500D01*
X105050Y460800D02*X105800Y460050D01*
X102800Y460800D02*X105050D01*
X103550Y457500D02*X105050D01*
X105800Y458250D01*
Y460050D02*Y458250D01*
X45000D02*X45750Y457500D01*
X45000Y462750D02*Y458250D01*
Y462750D02*X45750Y463500D01*
X47250D01*
X48000Y462750D01*
Y458250D01*
X47250Y457500D02*X48000Y458250D01*
X45750Y457500D02*X47250D01*
X45000Y459000D02*X48000Y462000D01*
X49800Y457500D02*X50550D01*
X52350Y458250D02*X53100Y457500D01*
X52350Y462750D02*Y458250D01*
Y462750D02*X53100Y463500D01*
X54600D01*
X55350Y462750D01*
Y458250D01*
X54600Y457500D02*X55350Y458250D01*
X53100Y457500D02*X54600D01*
X52350Y459000D02*X55350Y462000D01*
X57150Y462750D02*X57900Y463500D01*
X59400D01*
X60150Y462750D01*
X59400Y457500D02*X60150Y458250D01*
X57900Y457500D02*X59400D01*
X57150Y458250D02*X57900Y457500D01*
Y460800D02*X59400D01*
X60150Y462750D02*Y461550D01*
Y460050D02*Y458250D01*
Y460050D02*X59400Y460800D01*
X60150Y461550D02*X59400Y460800D01*
X62700Y457500D02*X64950Y460500D01*
Y462750D02*Y460500D01*
X64200Y463500D02*X64950Y462750D01*
X62700Y463500D02*X64200D01*
X61950Y462750D02*X62700Y463500D01*
X61950Y462750D02*Y461250D01*
X62700Y460500D01*
X64950D01*
X213800Y55200D02*X216200Y52800D01*
X213800D02*X216200Y55200D01*
X218800D02*X221200Y52800D01*
X218800D02*X221200Y55200D01*
X223800D02*X226200Y52800D01*
X223800D02*X226200Y55200D01*
X218800Y47200D02*X221200Y44800D01*
X218800D02*X221200Y47200D01*
X213800D02*X216200Y44800D01*
X213800D02*X216200Y47200D01*
X223800D02*X226200Y44800D01*
X223800D02*X226200Y47200D01*
X103800Y55200D02*X106200Y52800D01*
X103800D02*X106200Y55200D01*
X108800D02*X111200Y52800D01*
X108800D02*X111200Y55200D01*
X113800D02*X116200Y52800D01*
X113800D02*X116200Y55200D01*
X108800Y47200D02*X111200Y44800D01*
X108800D02*X111200Y47200D01*
X103800D02*X106200Y44800D01*
X103800D02*X106200Y47200D01*
X113800D02*X116200Y44800D01*
X113800D02*X116200Y47200D01*
X213800Y90200D02*X216200Y87800D01*
X213800D02*X216200Y90200D01*
X218800D02*X221200Y87800D01*
X218800D02*X221200Y90200D01*
X223800D02*X226200Y87800D01*
X223800D02*X226200Y90200D01*
X218800Y82200D02*X221200Y79800D01*
X218800D02*X221200Y82200D01*
X213800D02*X216200Y79800D01*
X213800D02*X216200Y82200D01*
X223800D02*X226200Y79800D01*
X223800D02*X226200Y82200D01*
X103800Y90200D02*X106200Y87800D01*
X103800D02*X106200Y90200D01*
X108800D02*X111200Y87800D01*
X108800D02*X111200Y90200D01*
X113800D02*X116200Y87800D01*
X113800D02*X116200Y90200D01*
X108800Y82200D02*X111200Y79800D01*
X108800D02*X111200Y82200D01*
X103800D02*X106200Y79800D01*
X103800D02*X106200Y82200D01*
X113800D02*X116200Y79800D01*
X113800D02*X116200Y82200D01*
X213800Y125200D02*X216200Y122800D01*
X213800D02*X216200Y125200D01*
X218800D02*X221200Y122800D01*
X218800D02*X221200Y125200D01*
X223800D02*X226200Y122800D01*
X223800D02*X226200Y125200D01*
X218800Y117200D02*X221200Y114800D01*
X218800D02*X221200Y117200D01*
X213800D02*X216200Y114800D01*
X213800D02*X216200Y117200D01*
X223800D02*X226200Y114800D01*
X223800D02*X226200Y117200D01*
X103800Y125200D02*X106200Y122800D01*
X103800D02*X106200Y125200D01*
X108800D02*X111200Y122800D01*
X108800D02*X111200Y125200D01*
X113800D02*X116200Y122800D01*
X113800D02*X116200Y125200D01*
X108800Y117200D02*X111200Y114800D01*
X108800D02*X111200Y117200D01*
X103800D02*X106200Y114800D01*
X103800D02*X106200Y117200D01*
X113800D02*X116200Y114800D01*
X113800D02*X116200Y117200D01*
X213800Y160200D02*X216200Y157800D01*
X213800D02*X216200Y160200D01*
X218800D02*X221200Y157800D01*
X218800D02*X221200Y160200D01*
X223800D02*X226200Y157800D01*
X223800D02*X226200Y160200D01*
X218800Y152200D02*X221200Y149800D01*
X218800D02*X221200Y152200D01*
X213800D02*X216200Y149800D01*
X213800D02*X216200Y152200D01*
X223800D02*X226200Y149800D01*
X223800D02*X226200Y152200D01*
X103800Y160200D02*X106200Y157800D01*
X103800D02*X106200Y160200D01*
X108800D02*X111200Y157800D01*
X108800D02*X111200Y160200D01*
X113800D02*X116200Y157800D01*
X113800D02*X116200Y160200D01*
X108800Y152200D02*X111200Y149800D01*
X108800D02*X111200Y152200D01*
X103800D02*X106200Y149800D01*
X103800D02*X106200Y152200D01*
X113800D02*X116200Y149800D01*
X113800D02*X116200Y152200D01*
X213800Y195200D02*X216200Y192800D01*
X213800D02*X216200Y195200D01*
X218800D02*X221200Y192800D01*
X218800D02*X221200Y195200D01*
X223800D02*X226200Y192800D01*
X223800D02*X226200Y195200D01*
X218800Y187200D02*X221200Y184800D01*
X218800D02*X221200Y187200D01*
X213800D02*X216200Y184800D01*
X213800D02*X216200Y187200D01*
X223800D02*X226200Y184800D01*
X223800D02*X226200Y187200D01*
X103800Y195200D02*X106200Y192800D01*
X103800D02*X106200Y195200D01*
X108800D02*X111200Y192800D01*
X108800D02*X111200Y195200D01*
X113800D02*X116200Y192800D01*
X113800D02*X116200Y195200D01*
X108800Y187200D02*X111200Y184800D01*
X108800D02*X111200Y187200D01*
X103800D02*X106200Y184800D01*
X103800D02*X106200Y187200D01*
X113800D02*X116200Y184800D01*
X113800D02*X116200Y187200D01*
X213800Y230200D02*X216200Y227800D01*
X213800D02*X216200Y230200D01*
X218800D02*X221200Y227800D01*
X218800D02*X221200Y230200D01*
X223800D02*X226200Y227800D01*
X223800D02*X226200Y230200D01*
X218800Y222200D02*X221200Y219800D01*
X218800D02*X221200Y222200D01*
X213800D02*X216200Y219800D01*
X213800D02*X216200Y222200D01*
X223800D02*X226200Y219800D01*
X223800D02*X226200Y222200D01*
X103800Y230200D02*X106200Y227800D01*
X103800D02*X106200Y230200D01*
X108800D02*X111200Y227800D01*
X108800D02*X111200Y230200D01*
X113800D02*X116200Y227800D01*
X113800D02*X116200Y230200D01*
X108800Y222200D02*X111200Y219800D01*
X108800D02*X111200Y222200D01*
X103800D02*X106200Y219800D01*
X103800D02*X106200Y222200D01*
X113800D02*X116200Y219800D01*
X113800D02*X116200Y222200D01*
X213800Y265200D02*X216200Y262800D01*
X213800D02*X216200Y265200D01*
X218800D02*X221200Y262800D01*
X218800D02*X221200Y265200D01*
X223800D02*X226200Y262800D01*
X223800D02*X226200Y265200D01*
X218800Y257200D02*X221200Y254800D01*
X218800D02*X221200Y257200D01*
X213800D02*X216200Y254800D01*
X213800D02*X216200Y257200D01*
X223800D02*X226200Y254800D01*
X223800D02*X226200Y257200D01*
X103800Y265200D02*X106200Y262800D01*
X103800D02*X106200Y265200D01*
X108800D02*X111200Y262800D01*
X108800D02*X111200Y265200D01*
X113800D02*X116200Y262800D01*
X113800D02*X116200Y265200D01*
X108800Y257200D02*X111200Y254800D01*
X108800D02*X111200Y257200D01*
X103800D02*X106200Y254800D01*
X103800D02*X106200Y257200D01*
X113800D02*X116200Y254800D01*
X113800D02*X116200Y257200D01*
X213800Y300200D02*X216200Y297800D01*
X213800D02*X216200Y300200D01*
X218800D02*X221200Y297800D01*
X218800D02*X221200Y300200D01*
X223800D02*X226200Y297800D01*
X223800D02*X226200Y300200D01*
X218800Y292200D02*X221200Y289800D01*
X218800D02*X221200Y292200D01*
X213800D02*X216200Y289800D01*
X213800D02*X216200Y292200D01*
X223800D02*X226200Y289800D01*
X223800D02*X226200Y292200D01*
X103800Y300200D02*X106200Y297800D01*
X103800D02*X106200Y300200D01*
X108800D02*X111200Y297800D01*
X108800D02*X111200Y300200D01*
X113800D02*X116200Y297800D01*
X113800D02*X116200Y300200D01*
X108800Y292200D02*X111200Y289800D01*
X108800D02*X111200Y292200D01*
X103800D02*X106200Y289800D01*
X103800D02*X106200Y292200D01*
X113800D02*X116200Y289800D01*
X113800D02*X116200Y292200D01*
X213800Y335200D02*X216200Y332800D01*
X213800D02*X216200Y335200D01*
X218800D02*X221200Y332800D01*
X218800D02*X221200Y335200D01*
X223800D02*X226200Y332800D01*
X223800D02*X226200Y335200D01*
X218800Y327200D02*X221200Y324800D01*
X218800D02*X221200Y327200D01*
X213800D02*X216200Y324800D01*
X213800D02*X216200Y327200D01*
X223800D02*X226200Y324800D01*
X223800D02*X226200Y327200D01*
X103800Y335200D02*X106200Y332800D01*
X103800D02*X106200Y335200D01*
X108800D02*X111200Y332800D01*
X108800D02*X111200Y335200D01*
X113800D02*X116200Y332800D01*
X113800D02*X116200Y335200D01*
X108800Y327200D02*X111200Y324800D01*
X108800D02*X111200Y327200D01*
X103800D02*X106200Y324800D01*
X103800D02*X106200Y327200D01*
X113800D02*X116200Y324800D01*
X113800D02*X116200Y327200D01*
X213800Y370200D02*X216200Y367800D01*
X213800D02*X216200Y370200D01*
X218800D02*X221200Y367800D01*
X218800D02*X221200Y370200D01*
X223800D02*X226200Y367800D01*
X223800D02*X226200Y370200D01*
X218800Y362200D02*X221200Y359800D01*
X218800D02*X221200Y362200D01*
X213800D02*X216200Y359800D01*
X213800D02*X216200Y362200D01*
X223800D02*X226200Y359800D01*
X223800D02*X226200Y362200D01*
X103800Y370200D02*X106200Y367800D01*
X103800D02*X106200Y370200D01*
X108800D02*X111200Y367800D01*
X108800D02*X111200Y370200D01*
X113800D02*X116200Y367800D01*
X113800D02*X116200Y370200D01*
X108800Y362200D02*X111200Y359800D01*
X108800D02*X111200Y362200D01*
X103800D02*X106200Y359800D01*
X103800D02*X106200Y362200D01*
X113800D02*X116200Y359800D01*
X113800D02*X116200Y362200D01*
X213800Y405200D02*X216200Y402800D01*
X213800D02*X216200Y405200D01*
X218800D02*X221200Y402800D01*
X218800D02*X221200Y405200D01*
X223800D02*X226200Y402800D01*
X223800D02*X226200Y405200D01*
X218800Y397200D02*X221200Y394800D01*
X218800D02*X221200Y397200D01*
X213800D02*X216200Y394800D01*
X213800D02*X216200Y397200D01*
X223800D02*X226200Y394800D01*
X223800D02*X226200Y397200D01*
X103800Y405200D02*X106200Y402800D01*
X103800D02*X106200Y405200D01*
X108800D02*X111200Y402800D01*
X108800D02*X111200Y405200D01*
X113800D02*X116200Y402800D01*
X113800D02*X116200Y405200D01*
X108800Y397200D02*X111200Y394800D01*
X108800D02*X111200Y397200D01*
X103800D02*X106200Y394800D01*
X103800D02*X106200Y397200D01*
X113800D02*X116200Y394800D01*
X113800D02*X116200Y397200D01*
X13800Y477450D02*X16200Y475050D01*
X13800D02*X16200Y477450D01*
X140000Y478500D02*Y472500D01*
Y478500D02*X143750Y472500D01*
Y478500D02*Y472500D01*
X145550Y477750D02*Y473250D01*
Y477750D02*X146300Y478500D01*
X147800D01*
X148550Y477750D01*
Y473250D01*
X147800Y472500D02*X148550Y473250D01*
X146300Y472500D02*X147800D01*
X145550Y473250D02*X146300Y472500D01*
X98000Y477300D02*X99200Y478500D01*
Y472500D01*
X98000D02*X100250D01*
X102050Y477750D02*X102800Y478500D01*
X104300D01*
X105050Y477750D01*
X104300Y472500D02*X105050Y473250D01*
X102800Y472500D02*X104300D01*
X102050Y473250D02*X102800Y472500D01*
Y475800D02*X104300D01*
X105050Y477750D02*Y476550D01*
Y475050D02*Y473250D01*
Y475050D02*X104300Y475800D01*
X105050Y476550D02*X104300Y475800D01*
X106850Y477750D02*X107600Y478500D01*
X109850D01*
X110600Y477750D01*
Y476250D01*
X106850Y472500D02*X110600Y476250D01*
X106850Y472500D02*X110600D01*
X45000Y473250D02*X45750Y472500D01*
X45000Y477750D02*Y473250D01*
Y477750D02*X45750Y478500D01*
X47250D01*
X48000Y477750D01*
Y473250D01*
X47250Y472500D02*X48000Y473250D01*
X45750Y472500D02*X47250D01*
X45000Y474000D02*X48000Y477000D01*
X49800Y472500D02*X50550D01*
X52350Y473250D02*X53100Y472500D01*
X52350Y477750D02*Y473250D01*
Y477750D02*X53100Y478500D01*
X54600D01*
X55350Y477750D01*
Y473250D01*
X54600Y472500D02*X55350Y473250D01*
X53100Y472500D02*X54600D01*
X52350Y474000D02*X55350Y477000D01*
X57150Y477750D02*X57900Y478500D01*
X59400D01*
X60150Y477750D01*
X59400Y472500D02*X60150Y473250D01*
X57900Y472500D02*X59400D01*
X57150Y473250D02*X57900Y472500D01*
Y475800D02*X59400D01*
X60150Y477750D02*Y476550D01*
Y475050D02*Y473250D01*
Y475050D02*X59400Y475800D01*
X60150Y476550D02*X59400Y475800D01*
X61950Y477300D02*X63150Y478500D01*
Y472500D01*
X61950D02*X64200D01*
X67500Y426100D02*Y422900D01*
X65900Y424500D02*X69100D01*
X67500Y417100D02*Y413900D01*
X65900Y415500D02*X69100D01*
X67500Y421100D02*Y417900D01*
X65900Y419500D02*X69100D01*
X139000Y413600D02*Y410400D01*
X137400Y412000D02*X140600D01*
X144000Y413600D02*Y410400D01*
X142400Y412000D02*X145600D01*
X147500Y412600D02*Y409400D01*
X145900Y411000D02*X149100D01*
X161000Y410100D02*Y406900D01*
X159400Y408500D02*X162600D01*
X161000Y418600D02*Y415400D01*
X159400Y417000D02*X162600D01*
X157000Y418100D02*Y414900D01*
X155400Y416500D02*X158600D01*
X152500Y424100D02*Y420900D01*
X150900Y422500D02*X154100D01*
X175500Y419600D02*Y416400D01*
X173900Y418000D02*X177100D01*
X179500Y419600D02*Y416400D01*
X177900Y418000D02*X181100D01*
X171500Y419600D02*Y416400D01*
X169900Y418000D02*X173100D01*
X67500Y391100D02*Y387900D01*
X65900Y389500D02*X69100D01*
X67500Y382100D02*Y378900D01*
X65900Y380500D02*X69100D01*
X67500Y386100D02*Y382900D01*
X65900Y384500D02*X69100D01*
X139000Y378600D02*Y375400D01*
X137400Y377000D02*X140600D01*
X144000Y378600D02*Y375400D01*
X142400Y377000D02*X145600D01*
X147500Y377600D02*Y374400D01*
X145900Y376000D02*X149100D01*
X161000Y375100D02*Y371900D01*
X159400Y373500D02*X162600D01*
X161000Y383600D02*Y380400D01*
X159400Y382000D02*X162600D01*
X157000Y383100D02*Y379900D01*
X155400Y381500D02*X158600D01*
X152500Y389100D02*Y385900D01*
X150900Y387500D02*X154100D01*
X175500Y384600D02*Y381400D01*
X173900Y383000D02*X177100D01*
X179500Y384600D02*Y381400D01*
X177900Y383000D02*X181100D01*
X171500Y384600D02*Y381400D01*
X169900Y383000D02*X173100D01*
X67500Y356100D02*Y352900D01*
X65900Y354500D02*X69100D01*
X67500Y347100D02*Y343900D01*
X65900Y345500D02*X69100D01*
X67500Y351100D02*Y347900D01*
X65900Y349500D02*X69100D01*
X139000Y343600D02*Y340400D01*
X137400Y342000D02*X140600D01*
X144000Y343600D02*Y340400D01*
X142400Y342000D02*X145600D01*
X147500Y342600D02*Y339400D01*
X145900Y341000D02*X149100D01*
X161000Y340100D02*Y336900D01*
X159400Y338500D02*X162600D01*
X161000Y348600D02*Y345400D01*
X159400Y347000D02*X162600D01*
X157000Y348100D02*Y344900D01*
X155400Y346500D02*X158600D01*
X152500Y354100D02*Y350900D01*
X150900Y352500D02*X154100D01*
X175500Y349600D02*Y346400D01*
X173900Y348000D02*X177100D01*
X179500Y349600D02*Y346400D01*
X177900Y348000D02*X181100D01*
X171500Y349600D02*Y346400D01*
X169900Y348000D02*X173100D01*
X67500Y321100D02*Y317900D01*
X65900Y319500D02*X69100D01*
X67500Y312100D02*Y308900D01*
X65900Y310500D02*X69100D01*
X67500Y316100D02*Y312900D01*
X65900Y314500D02*X69100D01*
X139000Y308600D02*Y305400D01*
X137400Y307000D02*X140600D01*
X144000Y308600D02*Y305400D01*
X142400Y307000D02*X145600D01*
X147500Y307600D02*Y304400D01*
X145900Y306000D02*X149100D01*
X161000Y305100D02*Y301900D01*
X159400Y303500D02*X162600D01*
X161000Y313600D02*Y310400D01*
X159400Y312000D02*X162600D01*
X157000Y313100D02*Y309900D01*
X155400Y311500D02*X158600D01*
X152500Y319100D02*Y315900D01*
X150900Y317500D02*X154100D01*
X175500Y314600D02*Y311400D01*
X173900Y313000D02*X177100D01*
X179500Y314600D02*Y311400D01*
X177900Y313000D02*X181100D01*
X171500Y314600D02*Y311400D01*
X169900Y313000D02*X173100D01*
X67500Y286100D02*Y282900D01*
X65900Y284500D02*X69100D01*
X67500Y277100D02*Y273900D01*
X65900Y275500D02*X69100D01*
X67500Y281100D02*Y277900D01*
X65900Y279500D02*X69100D01*
X139000Y273600D02*Y270400D01*
X137400Y272000D02*X140600D01*
X144000Y273600D02*Y270400D01*
X142400Y272000D02*X145600D01*
X147500Y272600D02*Y269400D01*
X145900Y271000D02*X149100D01*
X161000Y270100D02*Y266900D01*
X159400Y268500D02*X162600D01*
X161000Y278600D02*Y275400D01*
X159400Y277000D02*X162600D01*
X157000Y278100D02*Y274900D01*
X155400Y276500D02*X158600D01*
X152500Y284100D02*Y280900D01*
X150900Y282500D02*X154100D01*
X175500Y279600D02*Y276400D01*
X173900Y278000D02*X177100D01*
X179500Y279600D02*Y276400D01*
X177900Y278000D02*X181100D01*
X171500Y279600D02*Y276400D01*
X169900Y278000D02*X173100D01*
X67500Y251100D02*Y247900D01*
X65900Y249500D02*X69100D01*
X67500Y242100D02*Y238900D01*
X65900Y240500D02*X69100D01*
X67500Y246100D02*Y242900D01*
X65900Y244500D02*X69100D01*
X139000Y238600D02*Y235400D01*
X137400Y237000D02*X140600D01*
X144000Y238600D02*Y235400D01*
X142400Y237000D02*X145600D01*
X147500Y237600D02*Y234400D01*
X145900Y236000D02*X149100D01*
X161000Y235100D02*Y231900D01*
X159400Y233500D02*X162600D01*
X161000Y243600D02*Y240400D01*
X159400Y242000D02*X162600D01*
X157000Y243100D02*Y239900D01*
X155400Y241500D02*X158600D01*
X152500Y249100D02*Y245900D01*
X150900Y247500D02*X154100D01*
X175500Y244600D02*Y241400D01*
X173900Y243000D02*X177100D01*
X179500Y244600D02*Y241400D01*
X177900Y243000D02*X181100D01*
X171500Y244600D02*Y241400D01*
X169900Y243000D02*X173100D01*
X67500Y216100D02*Y212900D01*
X65900Y214500D02*X69100D01*
X67500Y207100D02*Y203900D01*
X65900Y205500D02*X69100D01*
X67500Y211100D02*Y207900D01*
X65900Y209500D02*X69100D01*
X139000Y203600D02*Y200400D01*
X137400Y202000D02*X140600D01*
X144000Y203600D02*Y200400D01*
X142400Y202000D02*X145600D01*
X147500Y202600D02*Y199400D01*
X145900Y201000D02*X149100D01*
X161000Y200100D02*Y196900D01*
X159400Y198500D02*X162600D01*
X161000Y208600D02*Y205400D01*
X159400Y207000D02*X162600D01*
X157000Y208100D02*Y204900D01*
X155400Y206500D02*X158600D01*
X152500Y214100D02*Y210900D01*
X150900Y212500D02*X154100D01*
X175500Y209600D02*Y206400D01*
X173900Y208000D02*X177100D01*
X179500Y209600D02*Y206400D01*
X177900Y208000D02*X181100D01*
X171500Y209600D02*Y206400D01*
X169900Y208000D02*X173100D01*
X67500Y181100D02*Y177900D01*
X65900Y179500D02*X69100D01*
X67500Y172100D02*Y168900D01*
X65900Y170500D02*X69100D01*
X67500Y176100D02*Y172900D01*
X65900Y174500D02*X69100D01*
X139000Y168600D02*Y165400D01*
X137400Y167000D02*X140600D01*
X144000Y168600D02*Y165400D01*
X142400Y167000D02*X145600D01*
X147500Y167600D02*Y164400D01*
X145900Y166000D02*X149100D01*
X161000Y165100D02*Y161900D01*
X159400Y163500D02*X162600D01*
X161000Y173600D02*Y170400D01*
X159400Y172000D02*X162600D01*
X157000Y173100D02*Y169900D01*
X155400Y171500D02*X158600D01*
X152500Y179100D02*Y175900D01*
X150900Y177500D02*X154100D01*
X175500Y174600D02*Y171400D01*
X173900Y173000D02*X177100D01*
X179500Y174600D02*Y171400D01*
X177900Y173000D02*X181100D01*
X171500Y174600D02*Y171400D01*
X169900Y173000D02*X173100D01*
X67500Y146100D02*Y142900D01*
X65900Y144500D02*X69100D01*
X67500Y137100D02*Y133900D01*
X65900Y135500D02*X69100D01*
X67500Y141100D02*Y137900D01*
X65900Y139500D02*X69100D01*
X139000Y133600D02*Y130400D01*
X137400Y132000D02*X140600D01*
X144000Y133600D02*Y130400D01*
X142400Y132000D02*X145600D01*
X147500Y132600D02*Y129400D01*
X145900Y131000D02*X149100D01*
X161000Y130100D02*Y126900D01*
X159400Y128500D02*X162600D01*
X161000Y138600D02*Y135400D01*
X159400Y137000D02*X162600D01*
X157000Y138100D02*Y134900D01*
X155400Y136500D02*X158600D01*
X152500Y144100D02*Y140900D01*
X150900Y142500D02*X154100D01*
X175500Y139600D02*Y136400D01*
X173900Y138000D02*X177100D01*
X179500Y139600D02*Y136400D01*
X177900Y138000D02*X181100D01*
X171500Y139600D02*Y136400D01*
X169900Y138000D02*X173100D01*
X67500Y111100D02*Y107900D01*
X65900Y109500D02*X69100D01*
X67500Y102100D02*Y98900D01*
X65900Y100500D02*X69100D01*
X67500Y106100D02*Y102900D01*
X65900Y104500D02*X69100D01*
X139000Y98600D02*Y95400D01*
X137400Y97000D02*X140600D01*
X144000Y98600D02*Y95400D01*
X142400Y97000D02*X145600D01*
X147500Y97600D02*Y94400D01*
X145900Y96000D02*X149100D01*
X161000Y95100D02*Y91900D01*
X159400Y93500D02*X162600D01*
X161000Y103600D02*Y100400D01*
X159400Y102000D02*X162600D01*
X157000Y103100D02*Y99900D01*
X155400Y101500D02*X158600D01*
X152500Y109100D02*Y105900D01*
X150900Y107500D02*X154100D01*
X175500Y104600D02*Y101400D01*
X173900Y103000D02*X177100D01*
X179500Y104600D02*Y101400D01*
X177900Y103000D02*X181100D01*
X171500Y104600D02*Y101400D01*
X169900Y103000D02*X173100D01*
X67500Y76100D02*Y72900D01*
X65900Y74500D02*X69100D01*
X67500Y67100D02*Y63900D01*
X65900Y65500D02*X69100D01*
X67500Y71100D02*Y67900D01*
X65900Y69500D02*X69100D01*
X139000Y63600D02*Y60400D01*
X137400Y62000D02*X140600D01*
X144000Y63600D02*Y60400D01*
X142400Y62000D02*X145600D01*
X147500Y62600D02*Y59400D01*
X145900Y61000D02*X149100D01*
X161000Y60100D02*Y56900D01*
X159400Y58500D02*X162600D01*
X161000Y68600D02*Y65400D01*
X159400Y67000D02*X162600D01*
X157000Y68100D02*Y64900D01*
X155400Y66500D02*X158600D01*
X152500Y74100D02*Y70900D01*
X150900Y72500D02*X154100D01*
X175500Y69600D02*Y66400D01*
X173900Y68000D02*X177100D01*
X179500Y69600D02*Y66400D01*
X177900Y68000D02*X181100D01*
X171500Y69600D02*Y66400D01*
X169900Y68000D02*X173100D01*
X67500Y41100D02*Y37900D01*
X65900Y39500D02*X69100D01*
X67500Y32100D02*Y28900D01*
X65900Y30500D02*X69100D01*
X67500Y36100D02*Y32900D01*
X65900Y34500D02*X69100D01*
X139000Y28600D02*Y25400D01*
X137400Y27000D02*X140600D01*
X144000Y28600D02*Y25400D01*
X142400Y27000D02*X145600D01*
X147500Y27600D02*Y24400D01*
X145900Y26000D02*X149100D01*
X161000Y25100D02*Y21900D01*
X159400Y23500D02*X162600D01*
X161000Y33600D02*Y30400D01*
X159400Y32000D02*X162600D01*
X157000Y33100D02*Y29900D01*
X155400Y31500D02*X158600D01*
X152500Y39100D02*Y35900D01*
X150900Y37500D02*X154100D01*
X175500Y34600D02*Y31400D01*
X173900Y33000D02*X177100D01*
X179500Y34600D02*Y31400D01*
X177900Y33000D02*X181100D01*
X171500Y34600D02*Y31400D01*
X169900Y33000D02*X173100D01*
X15000Y492850D02*Y489650D01*
X13400Y491250D02*X16600D01*
X135000Y493500D02*X136500Y490500D01*
X138000Y493500D01*
X136500Y490500D02*Y487500D01*
X139800Y490800D02*X142050D01*
X139800Y487500D02*X142800D01*
X139800Y493500D02*Y487500D01*
Y493500D02*X142800D01*
X147600D02*X148350Y492750D01*
X145350Y493500D02*X147600D01*
X144600Y492750D02*X145350Y493500D01*
X144600Y492750D02*Y491250D01*
X145350Y490500D01*
X147600D01*
X148350Y489750D01*
Y488250D01*
X147600Y487500D02*X148350Y488250D01*
X145350Y487500D02*X147600D01*
X144600Y488250D02*X145350Y487500D01*
X98000Y492300D02*X99200Y493500D01*
Y487500D01*
X98000D02*X100250D01*
X102050Y493500D02*X105050D01*
X102050D02*Y490500D01*
X102800Y491250D01*
X104300D01*
X105050Y490500D01*
Y488250D01*
X104300Y487500D02*X105050Y488250D01*
X102800Y487500D02*X104300D01*
X102050Y488250D02*X102800Y487500D01*
X109100Y493500D02*X109850Y492750D01*
X107600Y493500D02*X109100D01*
X106850Y492750D02*X107600Y493500D01*
X106850Y492750D02*Y488250D01*
X107600Y487500D01*
X109100Y490800D02*X109850Y490050D01*
X106850Y490800D02*X109100D01*
X107600Y487500D02*X109100D01*
X109850Y488250D01*
Y490050D02*Y488250D01*
X45000D02*X45750Y487500D01*
X45000Y492750D02*Y488250D01*
Y492750D02*X45750Y493500D01*
X47250D01*
X48000Y492750D01*
Y488250D01*
X47250Y487500D02*X48000Y488250D01*
X45750Y487500D02*X47250D01*
X45000Y489000D02*X48000Y492000D01*
X49800Y487500D02*X50550D01*
X52350Y488250D02*X53100Y487500D01*
X52350Y492750D02*Y488250D01*
Y492750D02*X53100Y493500D01*
X54600D01*
X55350Y492750D01*
Y488250D01*
X54600Y487500D02*X55350Y488250D01*
X53100Y487500D02*X54600D01*
X52350Y489000D02*X55350Y492000D01*
X57150Y492300D02*X58350Y493500D01*
Y487500D01*
X57150D02*X59400D01*
X61200Y489750D02*X64200Y493500D01*
X61200Y489750D02*X64950D01*
X64200Y493500D02*Y487500D01*
X78500Y417500D02*Y415900D01*
Y417500D02*X79887Y418300D01*
X78500Y417500D02*X77113Y418300D01*
X94000Y412000D02*Y410400D01*
Y412000D02*X95387Y412800D01*
X94000Y412000D02*X92613Y412800D01*
X90000Y426000D02*Y424400D01*
Y426000D02*X91387Y426800D01*
X90000Y426000D02*X88613Y426800D01*
X92500Y426000D02*Y424400D01*
Y426000D02*X93887Y426800D01*
X92500Y426000D02*X91113Y426800D01*
X168500Y421500D02*Y419900D01*
Y421500D02*X169887Y422300D01*
X168500Y421500D02*X167113Y422300D01*
X255500Y411594D02*Y409994D01*
Y411594D02*X256887Y412394D01*
X255500Y411594D02*X254113Y412394D01*
X258500Y411594D02*Y409994D01*
Y411594D02*X259887Y412394D01*
X258500Y411594D02*X257113Y412394D01*
X243000Y416500D02*Y414900D01*
Y416500D02*X244387Y417300D01*
X243000Y416500D02*X241613Y417300D01*
X239500Y416500D02*Y414900D01*
Y416500D02*X240887Y417300D01*
X239500Y416500D02*X238113Y417300D01*
X144000Y422500D02*Y420900D01*
Y422500D02*X145387Y423300D01*
X144000Y422500D02*X142613Y423300D01*
X115500Y407500D02*Y405900D01*
Y407500D02*X116887Y408300D01*
X115500Y407500D02*X114113Y408300D01*
X114000Y411500D02*Y409900D01*
Y411500D02*X115387Y412300D01*
X114000Y411500D02*X112613Y412300D01*
X106500Y412500D02*Y410900D01*
Y412500D02*X107887Y413300D01*
X106500Y412500D02*X105113Y413300D01*
X107000Y415500D02*Y413900D01*
Y415500D02*X108387Y416300D01*
X107000Y415500D02*X105613Y416300D01*
X110500Y415500D02*Y413900D01*
Y415500D02*X111887Y416300D01*
X110500Y415500D02*X109113Y416300D01*
X78500Y382500D02*Y380900D01*
Y382500D02*X79887Y383300D01*
X78500Y382500D02*X77113Y383300D01*
X94000Y377000D02*Y375400D01*
Y377000D02*X95387Y377800D01*
X94000Y377000D02*X92613Y377800D01*
X90000Y391000D02*Y389400D01*
Y391000D02*X91387Y391800D01*
X90000Y391000D02*X88613Y391800D01*
X92500Y391000D02*Y389400D01*
Y391000D02*X93887Y391800D01*
X92500Y391000D02*X91113Y391800D01*
X168500Y386500D02*Y384900D01*
Y386500D02*X169887Y387300D01*
X168500Y386500D02*X167113Y387300D01*
X255500Y376594D02*Y374994D01*
Y376594D02*X256887Y377394D01*
X255500Y376594D02*X254113Y377394D01*
X258500Y376594D02*Y374994D01*
Y376594D02*X259887Y377394D01*
X258500Y376594D02*X257113Y377394D01*
X243000Y381500D02*Y379900D01*
Y381500D02*X244387Y382300D01*
X243000Y381500D02*X241613Y382300D01*
X239500Y381500D02*Y379900D01*
Y381500D02*X240887Y382300D01*
X239500Y381500D02*X238113Y382300D01*
X144000Y387500D02*Y385900D01*
Y387500D02*X145387Y388300D01*
X144000Y387500D02*X142613Y388300D01*
X115500Y372500D02*Y370900D01*
Y372500D02*X116887Y373300D01*
X115500Y372500D02*X114113Y373300D01*
X114000Y376500D02*Y374900D01*
Y376500D02*X115387Y377300D01*
X114000Y376500D02*X112613Y377300D01*
X106500Y377500D02*Y375900D01*
Y377500D02*X107887Y378300D01*
X106500Y377500D02*X105113Y378300D01*
X107000Y380500D02*Y378900D01*
Y380500D02*X108387Y381300D01*
X107000Y380500D02*X105613Y381300D01*
X110500Y380500D02*Y378900D01*
Y380500D02*X111887Y381300D01*
X110500Y380500D02*X109113Y381300D01*
X78500Y347500D02*Y345900D01*
Y347500D02*X79887Y348300D01*
X78500Y347500D02*X77113Y348300D01*
X94000Y342000D02*Y340400D01*
Y342000D02*X95387Y342800D01*
X94000Y342000D02*X92613Y342800D01*
X90000Y356000D02*Y354400D01*
Y356000D02*X91387Y356800D01*
X90000Y356000D02*X88613Y356800D01*
X92500Y356000D02*Y354400D01*
Y356000D02*X93887Y356800D01*
X92500Y356000D02*X91113Y356800D01*
X168500Y351500D02*Y349900D01*
Y351500D02*X169887Y352300D01*
X168500Y351500D02*X167113Y352300D01*
X255500Y341594D02*Y339994D01*
Y341594D02*X256887Y342394D01*
X255500Y341594D02*X254113Y342394D01*
X258500Y341594D02*Y339994D01*
Y341594D02*X259887Y342394D01*
X258500Y341594D02*X257113Y342394D01*
X243000Y346500D02*Y344900D01*
Y346500D02*X244387Y347300D01*
X243000Y346500D02*X241613Y347300D01*
X239500Y346500D02*Y344900D01*
Y346500D02*X240887Y347300D01*
X239500Y346500D02*X238113Y347300D01*
X144000Y352500D02*Y350900D01*
Y352500D02*X145387Y353300D01*
X144000Y352500D02*X142613Y353300D01*
X115500Y337500D02*Y335900D01*
Y337500D02*X116887Y338300D01*
X115500Y337500D02*X114113Y338300D01*
X114000Y341500D02*Y339900D01*
Y341500D02*X115387Y342300D01*
X114000Y341500D02*X112613Y342300D01*
X106500Y342500D02*Y340900D01*
Y342500D02*X107887Y343300D01*
X106500Y342500D02*X105113Y343300D01*
X107000Y345500D02*Y343900D01*
Y345500D02*X108387Y346300D01*
X107000Y345500D02*X105613Y346300D01*
X110500Y345500D02*Y343900D01*
Y345500D02*X111887Y346300D01*
X110500Y345500D02*X109113Y346300D01*
X78500Y312500D02*Y310900D01*
Y312500D02*X79887Y313300D01*
X78500Y312500D02*X77113Y313300D01*
X94000Y307000D02*Y305400D01*
Y307000D02*X95387Y307800D01*
X94000Y307000D02*X92613Y307800D01*
X90000Y321000D02*Y319400D01*
Y321000D02*X91387Y321800D01*
X90000Y321000D02*X88613Y321800D01*
X92500Y321000D02*Y319400D01*
Y321000D02*X93887Y321800D01*
X92500Y321000D02*X91113Y321800D01*
X168500Y316500D02*Y314900D01*
Y316500D02*X169887Y317300D01*
X168500Y316500D02*X167113Y317300D01*
X255500Y306594D02*Y304994D01*
Y306594D02*X256887Y307394D01*
X255500Y306594D02*X254113Y307394D01*
X258500Y306594D02*Y304994D01*
Y306594D02*X259887Y307394D01*
X258500Y306594D02*X257113Y307394D01*
X243000Y311500D02*Y309900D01*
Y311500D02*X244387Y312300D01*
X243000Y311500D02*X241613Y312300D01*
X239500Y311500D02*Y309900D01*
Y311500D02*X240887Y312300D01*
X239500Y311500D02*X238113Y312300D01*
X144000Y317500D02*Y315900D01*
Y317500D02*X145387Y318300D01*
X144000Y317500D02*X142613Y318300D01*
X115500Y302500D02*Y300900D01*
Y302500D02*X116887Y303300D01*
X115500Y302500D02*X114113Y303300D01*
X114000Y306500D02*Y304900D01*
Y306500D02*X115387Y307300D01*
X114000Y306500D02*X112613Y307300D01*
X106500Y307500D02*Y305900D01*
Y307500D02*X107887Y308300D01*
X106500Y307500D02*X105113Y308300D01*
X107000Y310500D02*Y308900D01*
Y310500D02*X108387Y311300D01*
X107000Y310500D02*X105613Y311300D01*
X110500Y310500D02*Y308900D01*
Y310500D02*X111887Y311300D01*
X110500Y310500D02*X109113Y311300D01*
X78500Y277500D02*Y275900D01*
Y277500D02*X79887Y278300D01*
X78500Y277500D02*X77113Y278300D01*
X94000Y272000D02*Y270400D01*
Y272000D02*X95387Y272800D01*
X94000Y272000D02*X92613Y272800D01*
X90000Y286000D02*Y284400D01*
Y286000D02*X91387Y286800D01*
X90000Y286000D02*X88613Y286800D01*
X92500Y286000D02*Y284400D01*
Y286000D02*X93887Y286800D01*
X92500Y286000D02*X91113Y286800D01*
X168500Y281500D02*Y279900D01*
Y281500D02*X169887Y282300D01*
X168500Y281500D02*X167113Y282300D01*
X255500Y271594D02*Y269994D01*
Y271594D02*X256887Y272394D01*
X255500Y271594D02*X254113Y272394D01*
X258500Y271594D02*Y269994D01*
Y271594D02*X259887Y272394D01*
X258500Y271594D02*X257113Y272394D01*
X243000Y276500D02*Y274900D01*
Y276500D02*X244387Y277300D01*
X243000Y276500D02*X241613Y277300D01*
X239500Y276500D02*Y274900D01*
Y276500D02*X240887Y277300D01*
X239500Y276500D02*X238113Y277300D01*
X144000Y282500D02*Y280900D01*
Y282500D02*X145387Y283300D01*
X144000Y282500D02*X142613Y283300D01*
X115500Y267500D02*Y265900D01*
Y267500D02*X116887Y268300D01*
X115500Y267500D02*X114113Y268300D01*
X114000Y271500D02*Y269900D01*
Y271500D02*X115387Y272300D01*
X114000Y271500D02*X112613Y272300D01*
X106500Y272500D02*Y270900D01*
Y272500D02*X107887Y273300D01*
X106500Y272500D02*X105113Y273300D01*
X107000Y275500D02*Y273900D01*
Y275500D02*X108387Y276300D01*
X107000Y275500D02*X105613Y276300D01*
X110500Y275500D02*Y273900D01*
Y275500D02*X111887Y276300D01*
X110500Y275500D02*X109113Y276300D01*
X78500Y242500D02*Y240900D01*
Y242500D02*X79887Y243300D01*
X78500Y242500D02*X77113Y243300D01*
X94000Y237000D02*Y235400D01*
Y237000D02*X95387Y237800D01*
X94000Y237000D02*X92613Y237800D01*
X90000Y251000D02*Y249400D01*
Y251000D02*X91387Y251800D01*
X90000Y251000D02*X88613Y251800D01*
X92500Y251000D02*Y249400D01*
Y251000D02*X93887Y251800D01*
X92500Y251000D02*X91113Y251800D01*
X168500Y246500D02*Y244900D01*
Y246500D02*X169887Y247300D01*
X168500Y246500D02*X167113Y247300D01*
X255500Y236594D02*Y234994D01*
Y236594D02*X256887Y237394D01*
X255500Y236594D02*X254113Y237394D01*
X258500Y236594D02*Y234994D01*
Y236594D02*X259887Y237394D01*
X258500Y236594D02*X257113Y237394D01*
X243000Y241500D02*Y239900D01*
Y241500D02*X244387Y242300D01*
X243000Y241500D02*X241613Y242300D01*
X239500Y241500D02*Y239900D01*
Y241500D02*X240887Y242300D01*
X239500Y241500D02*X238113Y242300D01*
X144000Y247500D02*Y245900D01*
Y247500D02*X145387Y248300D01*
X144000Y247500D02*X142613Y248300D01*
X115500Y232500D02*Y230900D01*
Y232500D02*X116887Y233300D01*
X115500Y232500D02*X114113Y233300D01*
X114000Y236500D02*Y234900D01*
Y236500D02*X115387Y237300D01*
X114000Y236500D02*X112613Y237300D01*
X106500Y237500D02*Y235900D01*
Y237500D02*X107887Y238300D01*
X106500Y237500D02*X105113Y238300D01*
X107000Y240500D02*Y238900D01*
Y240500D02*X108387Y241300D01*
X107000Y240500D02*X105613Y241300D01*
X110500Y240500D02*Y238900D01*
Y240500D02*X111887Y241300D01*
X110500Y240500D02*X109113Y241300D01*
X78500Y207500D02*Y205900D01*
Y207500D02*X79887Y208300D01*
X78500Y207500D02*X77113Y208300D01*
X94000Y202000D02*Y200400D01*
Y202000D02*X95387Y202800D01*
X94000Y202000D02*X92613Y202800D01*
X90000Y216000D02*Y214400D01*
Y216000D02*X91387Y216800D01*
X90000Y216000D02*X88613Y216800D01*
X92500Y216000D02*Y214400D01*
Y216000D02*X93887Y216800D01*
X92500Y216000D02*X91113Y216800D01*
X168500Y211500D02*Y209900D01*
Y211500D02*X169887Y212300D01*
X168500Y211500D02*X167113Y212300D01*
X255500Y201594D02*Y199994D01*
Y201594D02*X256887Y202394D01*
X255500Y201594D02*X254113Y202394D01*
X258500Y201594D02*Y199994D01*
Y201594D02*X259887Y202394D01*
X258500Y201594D02*X257113Y202394D01*
X243000Y206500D02*Y204900D01*
Y206500D02*X244387Y207300D01*
X243000Y206500D02*X241613Y207300D01*
X239500Y206500D02*Y204900D01*
Y206500D02*X240887Y207300D01*
X239500Y206500D02*X238113Y207300D01*
X144000Y212500D02*Y210900D01*
Y212500D02*X145387Y213300D01*
X144000Y212500D02*X142613Y213300D01*
X115500Y197500D02*Y195900D01*
Y197500D02*X116887Y198300D01*
X115500Y197500D02*X114113Y198300D01*
X114000Y201500D02*Y199900D01*
Y201500D02*X115387Y202300D01*
X114000Y201500D02*X112613Y202300D01*
X106500Y202500D02*Y200900D01*
Y202500D02*X107887Y203300D01*
X106500Y202500D02*X105113Y203300D01*
X107000Y205500D02*Y203900D01*
Y205500D02*X108387Y206300D01*
X107000Y205500D02*X105613Y206300D01*
X110500Y205500D02*Y203900D01*
Y205500D02*X111887Y206300D01*
X110500Y205500D02*X109113Y206300D01*
X78500Y172500D02*Y170900D01*
Y172500D02*X79887Y173300D01*
X78500Y172500D02*X77113Y173300D01*
X94000Y167000D02*Y165400D01*
Y167000D02*X95387Y167800D01*
X94000Y167000D02*X92613Y167800D01*
X90000Y181000D02*Y179400D01*
Y181000D02*X91387Y181800D01*
X90000Y181000D02*X88613Y181800D01*
X92500Y181000D02*Y179400D01*
Y181000D02*X93887Y181800D01*
X92500Y181000D02*X91113Y181800D01*
X168500Y176500D02*Y174900D01*
Y176500D02*X169887Y177300D01*
X168500Y176500D02*X167113Y177300D01*
X255500Y166594D02*Y164994D01*
Y166594D02*X256887Y167394D01*
X255500Y166594D02*X254113Y167394D01*
X258500Y166594D02*Y164994D01*
Y166594D02*X259887Y167394D01*
X258500Y166594D02*X257113Y167394D01*
X243000Y171500D02*Y169900D01*
Y171500D02*X244387Y172300D01*
X243000Y171500D02*X241613Y172300D01*
X239500Y171500D02*Y169900D01*
Y171500D02*X240887Y172300D01*
X239500Y171500D02*X238113Y172300D01*
X144000Y177500D02*Y175900D01*
Y177500D02*X145387Y178300D01*
X144000Y177500D02*X142613Y178300D01*
X115500Y162500D02*Y160900D01*
Y162500D02*X116887Y163300D01*
X115500Y162500D02*X114113Y163300D01*
X114000Y166500D02*Y164900D01*
Y166500D02*X115387Y167300D01*
X114000Y166500D02*X112613Y167300D01*
X106500Y167500D02*Y165900D01*
Y167500D02*X107887Y168300D01*
X106500Y167500D02*X105113Y168300D01*
X107000Y170500D02*Y168900D01*
Y170500D02*X108387Y171300D01*
X107000Y170500D02*X105613Y171300D01*
X110500Y170500D02*Y168900D01*
Y170500D02*X111887Y171300D01*
X110500Y170500D02*X109113Y171300D01*
X78500Y137500D02*Y135900D01*
Y137500D02*X79887Y138300D01*
X78500Y137500D02*X77113Y138300D01*
X94000Y132000D02*Y130400D01*
Y132000D02*X95387Y132800D01*
X94000Y132000D02*X92613Y132800D01*
X90000Y146000D02*Y144400D01*
Y146000D02*X91387Y146800D01*
X90000Y146000D02*X88613Y146800D01*
X92500Y146000D02*Y144400D01*
Y146000D02*X93887Y146800D01*
X92500Y146000D02*X91113Y146800D01*
X168500Y141500D02*Y139900D01*
Y141500D02*X169887Y142300D01*
X168500Y141500D02*X167113Y142300D01*
X255500Y131594D02*Y129994D01*
Y131594D02*X256887Y132394D01*
X255500Y131594D02*X254113Y132394D01*
X258500Y131594D02*Y129994D01*
Y131594D02*X259887Y132394D01*
X258500Y131594D02*X257113Y132394D01*
X243000Y136500D02*Y134900D01*
Y136500D02*X244387Y137300D01*
X243000Y136500D02*X241613Y137300D01*
X239500Y136500D02*Y134900D01*
Y136500D02*X240887Y137300D01*
X239500Y136500D02*X238113Y137300D01*
X144000Y142500D02*Y140900D01*
Y142500D02*X145387Y143300D01*
X144000Y142500D02*X142613Y143300D01*
X115500Y127500D02*Y125900D01*
Y127500D02*X116887Y128300D01*
X115500Y127500D02*X114113Y128300D01*
X114000Y131500D02*Y129900D01*
Y131500D02*X115387Y132300D01*
X114000Y131500D02*X112613Y132300D01*
X106500Y132500D02*Y130900D01*
Y132500D02*X107887Y133300D01*
X106500Y132500D02*X105113Y133300D01*
X107000Y135500D02*Y133900D01*
Y135500D02*X108387Y136300D01*
X107000Y135500D02*X105613Y136300D01*
X110500Y135500D02*Y133900D01*
Y135500D02*X111887Y136300D01*
X110500Y135500D02*X109113Y136300D01*
X78500Y102500D02*Y100900D01*
Y102500D02*X79887Y103300D01*
X78500Y102500D02*X77113Y103300D01*
X94000Y97000D02*Y95400D01*
Y97000D02*X95387Y97800D01*
X94000Y97000D02*X92613Y97800D01*
X90000Y111000D02*Y109400D01*
Y111000D02*X91387Y111800D01*
X90000Y111000D02*X88613Y111800D01*
X92500Y111000D02*Y109400D01*
Y111000D02*X93887Y111800D01*
X92500Y111000D02*X91113Y111800D01*
X168500Y106500D02*Y104900D01*
Y106500D02*X169887Y107300D01*
X168500Y106500D02*X167113Y107300D01*
X255500Y96594D02*Y94994D01*
Y96594D02*X256887Y97394D01*
X255500Y96594D02*X254113Y97394D01*
X258500Y96594D02*Y94994D01*
Y96594D02*X259887Y97394D01*
X258500Y96594D02*X257113Y97394D01*
X243000Y101500D02*Y99900D01*
Y101500D02*X244387Y102300D01*
X243000Y101500D02*X241613Y102300D01*
X239500Y101500D02*Y99900D01*
Y101500D02*X240887Y102300D01*
X239500Y101500D02*X238113Y102300D01*
X144000Y107500D02*Y105900D01*
Y107500D02*X145387Y108300D01*
X144000Y107500D02*X142613Y108300D01*
X115500Y92500D02*Y90900D01*
Y92500D02*X116887Y93300D01*
X115500Y92500D02*X114113Y93300D01*
X114000Y96500D02*Y94900D01*
Y96500D02*X115387Y97300D01*
X114000Y96500D02*X112613Y97300D01*
X106500Y97500D02*Y95900D01*
Y97500D02*X107887Y98300D01*
X106500Y97500D02*X105113Y98300D01*
X107000Y100500D02*Y98900D01*
Y100500D02*X108387Y101300D01*
X107000Y100500D02*X105613Y101300D01*
X110500Y100500D02*Y98900D01*
Y100500D02*X111887Y101300D01*
X110500Y100500D02*X109113Y101300D01*
X78500Y67500D02*Y65900D01*
Y67500D02*X79887Y68300D01*
X78500Y67500D02*X77113Y68300D01*
X94000Y62000D02*Y60400D01*
Y62000D02*X95387Y62800D01*
X94000Y62000D02*X92613Y62800D01*
X90000Y76000D02*Y74400D01*
Y76000D02*X91387Y76800D01*
X90000Y76000D02*X88613Y76800D01*
X92500Y76000D02*Y74400D01*
Y76000D02*X93887Y76800D01*
X92500Y76000D02*X91113Y76800D01*
X168500Y71500D02*Y69900D01*
Y71500D02*X169887Y72300D01*
X168500Y71500D02*X167113Y72300D01*
X255500Y61594D02*Y59994D01*
Y61594D02*X256887Y62394D01*
X255500Y61594D02*X254113Y62394D01*
X258500Y61594D02*Y59994D01*
Y61594D02*X259887Y62394D01*
X258500Y61594D02*X257113Y62394D01*
X243000Y66500D02*Y64900D01*
Y66500D02*X244387Y67300D01*
X243000Y66500D02*X241613Y67300D01*
X239500Y66500D02*Y64900D01*
Y66500D02*X240887Y67300D01*
X239500Y66500D02*X238113Y67300D01*
X144000Y72500D02*Y70900D01*
Y72500D02*X145387Y73300D01*
X144000Y72500D02*X142613Y73300D01*
X115500Y57500D02*Y55900D01*
Y57500D02*X116887Y58300D01*
X115500Y57500D02*X114113Y58300D01*
X114000Y61500D02*Y59900D01*
Y61500D02*X115387Y62300D01*
X114000Y61500D02*X112613Y62300D01*
X106500Y62500D02*Y60900D01*
Y62500D02*X107887Y63300D01*
X106500Y62500D02*X105113Y63300D01*
X107000Y65500D02*Y63900D01*
Y65500D02*X108387Y66300D01*
X107000Y65500D02*X105613Y66300D01*
X110500Y65500D02*Y63900D01*
Y65500D02*X111887Y66300D01*
X110500Y65500D02*X109113Y66300D01*
X78500Y32500D02*Y30900D01*
Y32500D02*X79887Y33300D01*
X78500Y32500D02*X77113Y33300D01*
X94000Y27000D02*Y25400D01*
Y27000D02*X95387Y27800D01*
X94000Y27000D02*X92613Y27800D01*
X90000Y41000D02*Y39400D01*
Y41000D02*X91387Y41800D01*
X90000Y41000D02*X88613Y41800D01*
X92500Y41000D02*Y39400D01*
Y41000D02*X93887Y41800D01*
X92500Y41000D02*X91113Y41800D01*
X168500Y36500D02*Y34900D01*
Y36500D02*X169887Y37300D01*
X168500Y36500D02*X167113Y37300D01*
X255500Y26594D02*Y24994D01*
Y26594D02*X256887Y27394D01*
X255500Y26594D02*X254113Y27394D01*
X258500Y26594D02*Y24994D01*
Y26594D02*X259887Y27394D01*
X258500Y26594D02*X257113Y27394D01*
X243000Y31500D02*Y29900D01*
Y31500D02*X244387Y32300D01*
X243000Y31500D02*X241613Y32300D01*
X239500Y31500D02*Y29900D01*
Y31500D02*X240887Y32300D01*
X239500Y31500D02*X238113Y32300D01*
X144000Y37500D02*Y35900D01*
Y37500D02*X145387Y38300D01*
X144000Y37500D02*X142613Y38300D01*
X115500Y22500D02*Y20900D01*
Y22500D02*X116887Y23300D01*
X115500Y22500D02*X114113Y23300D01*
X114000Y26500D02*Y24900D01*
Y26500D02*X115387Y27300D01*
X114000Y26500D02*X112613Y27300D01*
X106500Y27500D02*Y25900D01*
Y27500D02*X107887Y28300D01*
X106500Y27500D02*X105113Y28300D01*
X107000Y30500D02*Y28900D01*
Y30500D02*X108387Y31300D01*
X107000Y30500D02*X105613Y31300D01*
X110500Y30500D02*Y28900D01*
Y30500D02*X111887Y31300D01*
X110500Y30500D02*X109113Y31300D01*
X15000Y506250D02*Y504650D01*
Y506250D02*X16387Y507050D01*
X15000Y506250D02*X13613Y507050D01*
X135000Y508500D02*X136500Y505500D01*
X138000Y508500D01*
X136500Y505500D02*Y502500D01*
X139800Y505800D02*X142050D01*
X139800Y502500D02*X142800D01*
X139800Y508500D02*Y502500D01*
Y508500D02*X142800D01*
X147600D02*X148350Y507750D01*
X145350Y508500D02*X147600D01*
X144600Y507750D02*X145350Y508500D01*
X144600Y507750D02*Y506250D01*
X145350Y505500D01*
X147600D01*
X148350Y504750D01*
Y503250D01*
X147600Y502500D02*X148350Y503250D01*
X145350Y502500D02*X147600D01*
X144600Y503250D02*X145350Y502500D01*
X98000Y507300D02*X99200Y508500D01*
Y502500D01*
X98000D02*X100250D01*
X102050Y503250D02*X102800Y502500D01*
X102050Y504450D02*Y503250D01*
Y504450D02*X103100Y505500D01*
X104000D01*
X105050Y504450D01*
Y503250D01*
X104300Y502500D02*X105050Y503250D01*
X102800Y502500D02*X104300D01*
X102050Y506550D02*X103100Y505500D01*
X102050Y507750D02*Y506550D01*
Y507750D02*X102800Y508500D01*
X104300D01*
X105050Y507750D01*
Y506550D01*
X104000Y505500D02*X105050Y506550D01*
X106850Y503250D02*X107600Y502500D01*
X106850Y507750D02*Y503250D01*
Y507750D02*X107600Y508500D01*
X109100D01*
X109850Y507750D01*
Y503250D01*
X109100Y502500D02*X109850Y503250D01*
X107600Y502500D02*X109100D01*
X106850Y504000D02*X109850Y507000D01*
X45000Y503250D02*X45750Y502500D01*
X45000Y507750D02*Y503250D01*
Y507750D02*X45750Y508500D01*
X47250D01*
X48000Y507750D01*
Y503250D01*
X47250Y502500D02*X48000Y503250D01*
X45750Y502500D02*X47250D01*
X45000Y504000D02*X48000Y507000D01*
X49800Y502500D02*X50550D01*
X52350Y503250D02*X53100Y502500D01*
X52350Y507750D02*Y503250D01*
Y507750D02*X53100Y508500D01*
X54600D01*
X55350Y507750D01*
Y503250D01*
X54600Y502500D02*X55350Y503250D01*
X53100Y502500D02*X54600D01*
X52350Y504000D02*X55350Y507000D01*
X57150Y507300D02*X58350Y508500D01*
Y502500D01*
X57150D02*X59400D01*
X61200Y507750D02*X61950Y508500D01*
X64200D01*
X64950Y507750D01*
Y506250D01*
X61200Y502500D02*X64950Y506250D01*
X61200Y502500D02*X64950D01*
X3000Y523500D02*X3750Y522750D01*
X750Y523500D02*X3000D01*
X0Y522750D02*X750Y523500D01*
X0Y522750D02*Y521250D01*
X750Y520500D01*
X3000D01*
X3750Y519750D01*
Y518250D01*
X3000Y517500D02*X3750Y518250D01*
X750Y517500D02*X3000D01*
X0Y518250D02*X750Y517500D01*
X5550Y520500D02*Y518250D01*
X6300Y517500D01*
X8550Y520500D02*Y516000D01*
X7800Y515250D02*X8550Y516000D01*
X6300Y515250D02*X7800D01*
X5550Y516000D02*X6300Y515250D01*
Y517500D02*X7800D01*
X8550Y518250D01*
X11100Y519750D02*Y517500D01*
Y519750D02*X11850Y520500D01*
X12600D01*
X13350Y519750D01*
Y517500D01*
Y519750D02*X14100Y520500D01*
X14850D01*
X15600Y519750D01*
Y517500D01*
X10350Y520500D02*X11100Y519750D01*
X17400Y523500D02*Y517500D01*
Y518250D02*X18150Y517500D01*
X19650D01*
X20400Y518250D01*
Y519750D02*Y518250D01*
X19650Y520500D02*X20400Y519750D01*
X18150Y520500D02*X19650D01*
X17400Y519750D02*X18150Y520500D01*
X22200Y519750D02*Y518250D01*
Y519750D02*X22950Y520500D01*
X24450D01*
X25200Y519750D01*
Y518250D01*
X24450Y517500D02*X25200Y518250D01*
X22950Y517500D02*X24450D01*
X22200Y518250D02*X22950Y517500D01*
X27000Y523500D02*Y518250D01*
X27750Y517500D01*
X0Y514250D02*X29250D01*
X41750Y523500D02*Y517500D01*
X43700Y523500D02*X44750Y522450D01*
Y518550D01*
X43700Y517500D02*X44750Y518550D01*
X41000Y517500D02*X43700D01*
X41000Y523500D02*X43700D01*
G54D86*X46550Y522000D02*Y521850D01*
G54D85*Y519750D02*Y517500D01*
X50300Y520500D02*X51050Y519750D01*
X48800Y520500D02*X50300D01*
X48050Y519750D02*X48800Y520500D01*
X48050Y519750D02*Y518250D01*
X48800Y517500D01*
X51050Y520500D02*Y518250D01*
X51800Y517500D01*
X48800D02*X50300D01*
X51050Y518250D01*
X54350Y519750D02*Y517500D01*
Y519750D02*X55100Y520500D01*
X55850D01*
X56600Y519750D01*
Y517500D01*
Y519750D02*X57350Y520500D01*
X58100D01*
X58850Y519750D01*
Y517500D01*
X53600Y520500D02*X54350Y519750D01*
X60650Y517500D02*X61400D01*
X65900Y518250D02*X66650Y517500D01*
X65900Y522750D02*X66650Y523500D01*
X65900Y522750D02*Y518250D01*
X68450Y523500D02*X69950D01*
X69200D02*Y517500D01*
X68450D02*X69950D01*
X72500Y519750D02*Y517500D01*
Y519750D02*X73250Y520500D01*
X74000D01*
X74750Y519750D01*
Y517500D01*
X71750Y520500D02*X72500Y519750D01*
X77300Y520500D02*X79550D01*
X76550Y519750D02*X77300Y520500D01*
X76550Y519750D02*Y518250D01*
X77300Y517500D01*
X79550D01*
X81350Y523500D02*Y517500D01*
Y519750D02*X82100Y520500D01*
X83600D01*
X84350Y519750D01*
Y517500D01*
X86150Y523500D02*X86900Y522750D01*
Y518250D01*
X86150Y517500D02*X86900Y518250D01*
X41000Y514250D02*X88700D01*
X96050Y517500D02*X98000D01*
X95000Y518550D02*X96050Y517500D01*
X95000Y522450D02*Y518550D01*
Y522450D02*X96050Y523500D01*
X98000D01*
X99800Y519750D02*Y518250D01*
Y519750D02*X100550Y520500D01*
X102050D01*
X102800Y519750D01*
Y518250D01*
X102050Y517500D02*X102800Y518250D01*
X100550Y517500D02*X102050D01*
X99800Y518250D02*X100550Y517500D01*
X104600Y520500D02*Y518250D01*
X105350Y517500D01*
X106850D01*
X107600Y518250D01*
Y520500D02*Y518250D01*
X110150Y519750D02*Y517500D01*
Y519750D02*X110900Y520500D01*
X111650D01*
X112400Y519750D01*
Y517500D01*
X109400Y520500D02*X110150Y519750D01*
X114950Y523500D02*Y518250D01*
X115700Y517500D01*
X114200Y521250D02*X115700D01*
X95000Y514250D02*X117200D01*
X130750Y523500D02*Y517500D01*
X130000Y523500D02*X133000D01*
X133750Y522750D01*
Y521250D01*
X133000Y520500D02*X133750Y521250D01*
X130750Y520500D02*X133000D01*
X135550Y523500D02*Y518250D01*
X136300Y517500D01*
X140050Y520500D02*X140800Y519750D01*
X138550Y520500D02*X140050D01*
X137800Y519750D02*X138550Y520500D01*
X137800Y519750D02*Y518250D01*
X138550Y517500D01*
X140800Y520500D02*Y518250D01*
X141550Y517500D01*
X138550D02*X140050D01*
X140800Y518250D01*
X144100Y523500D02*Y518250D01*
X144850Y517500D01*
X143350Y521250D02*X144850D01*
X147100Y517500D02*X149350D01*
X146350Y518250D02*X147100Y517500D01*
X146350Y519750D02*Y518250D01*
Y519750D02*X147100Y520500D01*
X148600D01*
X149350Y519750D01*
X146350Y519000D02*X149350D01*
Y519750D02*Y519000D01*
X154150Y523500D02*Y517500D01*
X153400D02*X154150Y518250D01*
X151900Y517500D02*X153400D01*
X151150Y518250D02*X151900Y517500D01*
X151150Y519750D02*Y518250D01*
Y519750D02*X151900Y520500D01*
X153400D01*
X154150Y519750D01*
X157450Y520500D02*Y519750D01*
Y518250D02*Y517500D01*
X155950Y522750D02*Y522000D01*
Y522750D02*X156700Y523500D01*
X158200D01*
X158950Y522750D01*
Y522000D01*
X157450Y520500D02*X158950Y522000D01*
X130000Y514250D02*X160750D01*
X0Y538500D02*X3000D01*
X1500D02*Y532500D01*
X4800Y538500D02*Y532500D01*
Y534750D02*X5550Y535500D01*
X7050D01*
X7800Y534750D01*
Y532500D01*
X10350D02*X12600D01*
X9600Y533250D02*X10350Y532500D01*
X9600Y534750D02*Y533250D01*
Y534750D02*X10350Y535500D01*
X11850D01*
X12600Y534750D01*
X9600Y534000D02*X12600D01*
Y534750D02*Y534000D01*
X15150Y534750D02*Y532500D01*
Y534750D02*X15900Y535500D01*
X17400D01*
X14400D02*X15150Y534750D01*
X19950Y532500D02*X22200D01*
X19200Y533250D02*X19950Y532500D01*
X19200Y534750D02*Y533250D01*
Y534750D02*X19950Y535500D01*
X21450D01*
X22200Y534750D01*
X19200Y534000D02*X22200D01*
Y534750D02*Y534000D01*
X28950Y535500D02*X29700Y534750D01*
X27450Y535500D02*X28950D01*
X26700Y534750D02*X27450Y535500D01*
X26700Y534750D02*Y533250D01*
X27450Y532500D01*
X29700Y535500D02*Y533250D01*
X30450Y532500D01*
X27450D02*X28950D01*
X29700Y533250D01*
X33000Y534750D02*Y532500D01*
Y534750D02*X33750Y535500D01*
X35250D01*
X32250D02*X33000Y534750D01*
X37800Y532500D02*X40050D01*
X37050Y533250D02*X37800Y532500D01*
X37050Y534750D02*Y533250D01*
Y534750D02*X37800Y535500D01*
X39300D01*
X40050Y534750D01*
X37050Y534000D02*X40050D01*
Y534750D02*Y534000D01*
X44550Y534750D02*X47550Y538500D01*
X44550Y534750D02*X48300D01*
X47550Y538500D02*Y532500D01*
X55800Y538500D02*Y532500D01*
X55050D02*X55800Y533250D01*
X53550Y532500D02*X55050D01*
X52800Y533250D02*X53550Y532500D01*
X52800Y534750D02*Y533250D01*
Y534750D02*X53550Y535500D01*
X55050D01*
X55800Y534750D01*
G54D86*X57600Y537000D02*Y536850D01*
G54D85*Y534750D02*Y532500D01*
X59850Y537750D02*Y532500D01*
Y537750D02*X60600Y538500D01*
X61350D01*
X59100Y535500D02*X60600D01*
X63600Y537750D02*Y532500D01*
Y537750D02*X64350Y538500D01*
X65100D01*
X62850Y535500D02*X64350D01*
X67350Y532500D02*X69600D01*
X66600Y533250D02*X67350Y532500D01*
X66600Y534750D02*Y533250D01*
Y534750D02*X67350Y535500D01*
X68850D01*
X69600Y534750D01*
X66600Y534000D02*X69600D01*
Y534750D02*Y534000D01*
X72150Y534750D02*Y532500D01*
Y534750D02*X72900Y535500D01*
X74400D01*
X71400D02*X72150Y534750D01*
X76950Y532500D02*X79200D01*
X76200Y533250D02*X76950Y532500D01*
X76200Y534750D02*Y533250D01*
Y534750D02*X76950Y535500D01*
X78450D01*
X79200Y534750D01*
X76200Y534000D02*X79200D01*
Y534750D02*Y534000D01*
X81750Y534750D02*Y532500D01*
Y534750D02*X82500Y535500D01*
X83250D01*
X84000Y534750D01*
Y532500D01*
X81000Y535500D02*X81750Y534750D01*
X86550Y538500D02*Y533250D01*
X87300Y532500D01*
X85800Y536250D02*X87300D01*
X94500Y538500D02*Y532500D01*
X93750D02*X94500Y533250D01*
X92250Y532500D02*X93750D01*
X91500Y533250D02*X92250Y532500D01*
X91500Y534750D02*Y533250D01*
Y534750D02*X92250Y535500D01*
X93750D01*
X94500Y534750D01*
X97050D02*Y532500D01*
Y534750D02*X97800Y535500D01*
X99300D01*
X96300D02*X97050Y534750D01*
G54D86*X101100Y537000D02*Y536850D01*
G54D85*Y534750D02*Y532500D01*
X102600Y538500D02*Y533250D01*
X103350Y532500D01*
X104850Y538500D02*Y533250D01*
X105600Y532500D01*
X110550D02*X112800D01*
X113550Y533250D01*
X112800Y534000D02*X113550Y533250D01*
X110550Y534000D02*X112800D01*
X109800Y534750D02*X110550Y534000D01*
X109800Y534750D02*X110550Y535500D01*
X112800D01*
X113550Y534750D01*
X109800Y533250D02*X110550Y532500D01*
G54D86*X115350Y537000D02*Y536850D01*
G54D85*Y534750D02*Y532500D01*
X116850Y535500D02*X119850D01*
X116850Y532500D02*X119850Y535500D01*
X116850Y532500D02*X119850D01*
X122400D02*X124650D01*
X121650Y533250D02*X122400Y532500D01*
X121650Y534750D02*Y533250D01*
Y534750D02*X122400Y535500D01*
X123900D01*
X124650Y534750D01*
X121650Y534000D02*X124650D01*
Y534750D02*Y534000D01*
X127200Y532500D02*X129450D01*
X130200Y533250D01*
X129450Y534000D02*X130200Y533250D01*
X127200Y534000D02*X129450D01*
X126450Y534750D02*X127200Y534000D01*
X126450Y534750D02*X127200Y535500D01*
X129450D01*
X130200Y534750D01*
X126450Y533250D02*X127200Y532500D01*
X134700Y535500D02*Y533250D01*
X135450Y532500D01*
X136950D01*
X137700Y533250D01*
Y535500D02*Y533250D01*
X140250Y532500D02*X142500D01*
X143250Y533250D01*
X142500Y534000D02*X143250Y533250D01*
X140250Y534000D02*X142500D01*
X139500Y534750D02*X140250Y534000D01*
X139500Y534750D02*X140250Y535500D01*
X142500D01*
X143250Y534750D01*
X139500Y533250D02*X140250Y532500D01*
X145800D02*X148050D01*
X145050Y533250D02*X145800Y532500D01*
X145050Y534750D02*Y533250D01*
Y534750D02*X145800Y535500D01*
X147300D01*
X148050Y534750D01*
X145050Y534000D02*X148050D01*
Y534750D02*Y534000D01*
X152850Y538500D02*Y532500D01*
X152100D02*X152850Y533250D01*
X150600Y532500D02*X152100D01*
X149850Y533250D02*X150600Y532500D01*
X149850Y534750D02*Y533250D01*
Y534750D02*X150600Y535500D01*
X152100D01*
X152850Y534750D01*
G54D86*X157350Y537000D02*Y536850D01*
G54D85*Y534750D02*Y532500D01*
X159600Y534750D02*Y532500D01*
Y534750D02*X160350Y535500D01*
X161100D01*
X161850Y534750D01*
Y532500D01*
X158850Y535500D02*X159600Y534750D01*
X167100Y538500D02*Y533250D01*
X167850Y532500D01*
X166350Y536250D02*X167850D01*
X169350Y538500D02*Y532500D01*
Y534750D02*X170100Y535500D01*
X171600D01*
X172350Y534750D01*
Y532500D01*
G54D86*X174150Y537000D02*Y536850D01*
G54D85*Y534750D02*Y532500D01*
X176400D02*X178650D01*
X179400Y533250D01*
X178650Y534000D02*X179400Y533250D01*
X176400Y534000D02*X178650D01*
X175650Y534750D02*X176400Y534000D01*
X175650Y534750D02*X176400Y535500D01*
X178650D01*
X179400Y534750D01*
X175650Y533250D02*X176400Y532500D01*
X183900Y538500D02*Y533250D01*
X184650Y532500D01*
X188400Y535500D02*X189150Y534750D01*
X186900Y535500D02*X188400D01*
X186150Y534750D02*X186900Y535500D01*
X186150Y534750D02*Y533250D01*
X186900Y532500D01*
X189150Y535500D02*Y533250D01*
X189900Y532500D01*
X186900D02*X188400D01*
X189150Y533250D01*
X191700Y535500D02*Y533250D01*
X192450Y532500D01*
X194700Y535500D02*Y531000D01*
X193950Y530250D02*X194700Y531000D01*
X192450Y530250D02*X193950D01*
X191700Y531000D02*X192450Y530250D01*
Y532500D02*X193950D01*
X194700Y533250D01*
X196500Y534750D02*Y533250D01*
Y534750D02*X197250Y535500D01*
X198750D01*
X199500Y534750D01*
Y533250D01*
X198750Y532500D02*X199500Y533250D01*
X197250Y532500D02*X198750D01*
X196500Y533250D02*X197250Y532500D01*
X201300Y535500D02*Y533250D01*
X202050Y532500D01*
X203550D01*
X204300Y533250D01*
Y535500D02*Y533250D01*
X206850Y538500D02*Y533250D01*
X207600Y532500D01*
X206100Y536250D02*X207600D01*
X209100Y531000D02*X210600Y532500D01*
X215100Y538500D02*X218100D01*
X215100D02*Y535500D01*
X215850Y536250D01*
X217350D01*
X218100Y535500D01*
Y533250D01*
X217350Y532500D02*X218100Y533250D01*
X215850Y532500D02*X217350D01*
X215100Y533250D02*X215850Y532500D01*
X219900Y533250D02*X220650Y532500D01*
X219900Y537750D02*Y533250D01*
Y537750D02*X220650Y538500D01*
X222150D01*
X222900Y537750D01*
Y533250D01*
X222150Y532500D02*X222900Y533250D01*
X220650Y532500D02*X222150D01*
X219900Y534000D02*X222900Y537000D01*
X224700Y534750D02*X227700Y538500D01*
X224700Y534750D02*X228450D01*
X227700Y538500D02*Y532500D01*
X232950Y538500D02*Y532500D01*
Y534750D02*X233700Y535500D01*
X235200D01*
X235950Y534750D01*
Y532500D01*
X237750Y534750D02*Y533250D01*
Y534750D02*X238500Y535500D01*
X240000D01*
X240750Y534750D01*
Y533250D01*
X240000Y532500D02*X240750Y533250D01*
X238500Y532500D02*X240000D01*
X237750Y533250D02*X238500Y532500D01*
X242550Y538500D02*Y533250D01*
X243300Y532500D01*
X245550D02*X247800D01*
X244800Y533250D02*X245550Y532500D01*
X244800Y534750D02*Y533250D01*
Y534750D02*X245550Y535500D01*
X247050D01*
X247800Y534750D01*
X244800Y534000D02*X247800D01*
Y534750D02*Y534000D01*
X250350Y532500D02*X252600D01*
X253350Y533250D01*
X252600Y534000D02*X253350Y533250D01*
X250350Y534000D02*X252600D01*
X249600Y534750D02*X250350Y534000D01*
X249600Y534750D02*X250350Y535500D01*
X252600D01*
X253350Y534750D01*
X249600Y533250D02*X250350Y532500D01*
X258600Y538500D02*Y533250D01*
X259350Y532500D01*
X257850Y536250D02*X259350D01*
X260850Y534750D02*Y533250D01*
Y534750D02*X261600Y535500D01*
X263100D01*
X263850Y534750D01*
Y533250D01*
X263100Y532500D02*X263850Y533250D01*
X261600Y532500D02*X263100D01*
X260850Y533250D02*X261600Y532500D01*
X266400Y538500D02*Y533250D01*
X267150Y532500D01*
X265650Y536250D02*X267150D01*
X270900Y535500D02*X271650Y534750D01*
X269400Y535500D02*X270900D01*
X268650Y534750D02*X269400Y535500D01*
X268650Y534750D02*Y533250D01*
X269400Y532500D01*
X271650Y535500D02*Y533250D01*
X272400Y532500D01*
X269400D02*X270900D01*
X271650Y533250D01*
X274200Y538500D02*Y533250D01*
X274950Y532500D01*
G54D87*X60000Y405000D02*Y430000D01*
X270000D02*Y405000D01*
X60000Y430000D02*X270000D01*
X60000Y370000D02*Y395000D01*
X270000D02*Y370000D01*
X60000Y405000D02*X100000D01*
Y395000D02*X60000D01*
X120000Y405000D02*X210000D01*
Y395000D02*X120000D01*
X270000Y405000D02*X230000D01*
Y395000D02*X270000D01*
X60000Y335000D02*Y360000D01*
X270000D02*Y335000D01*
X60000Y370000D02*X100000D01*
Y360000D02*X60000D01*
X120000Y370000D02*X210000D01*
Y360000D02*X120000D01*
X270000Y370000D02*X230000D01*
Y360000D02*X270000D01*
X60000Y300000D02*Y325000D01*
X270000D02*Y300000D01*
X60000Y335000D02*X100000D01*
Y325000D02*X60000D01*
X120000Y335000D02*X210000D01*
Y325000D02*X120000D01*
X270000Y335000D02*X230000D01*
Y325000D02*X270000D01*
X60000Y265000D02*Y290000D01*
X270000D02*Y265000D01*
X60000Y300000D02*X100000D01*
Y290000D02*X60000D01*
X120000Y300000D02*X210000D01*
Y290000D02*X120000D01*
X270000Y300000D02*X230000D01*
Y290000D02*X270000D01*
X60000Y230000D02*Y255000D01*
X270000D02*Y230000D01*
X60000Y265000D02*X100000D01*
Y255000D02*X60000D01*
X120000Y265000D02*X210000D01*
Y255000D02*X120000D01*
X270000Y265000D02*X230000D01*
Y255000D02*X270000D01*
X60000Y195000D02*Y220000D01*
X270000D02*Y195000D01*
X60000Y230000D02*X100000D01*
Y220000D02*X60000D01*
X120000Y230000D02*X210000D01*
Y220000D02*X120000D01*
X270000Y230000D02*X230000D01*
Y220000D02*X270000D01*
X60000Y160000D02*Y185000D01*
X270000D02*Y160000D01*
X60000Y195000D02*X100000D01*
Y185000D02*X60000D01*
X120000Y195000D02*X210000D01*
Y185000D02*X120000D01*
X270000Y195000D02*X230000D01*
Y185000D02*X270000D01*
X60000Y125000D02*Y150000D01*
X270000D02*Y125000D01*
X60000Y160000D02*X100000D01*
Y150000D02*X60000D01*
X120000Y160000D02*X210000D01*
Y150000D02*X120000D01*
X270000Y160000D02*X230000D01*
Y150000D02*X270000D01*
X60000Y90000D02*Y115000D01*
X270000D02*Y90000D01*
X60000Y125000D02*X100000D01*
Y115000D02*X60000D01*
X120000Y125000D02*X210000D01*
Y115000D02*X120000D01*
X270000Y125000D02*X230000D01*
Y115000D02*X270000D01*
X60000Y55000D02*Y80000D01*
X270000D02*Y55000D01*
X60000Y90000D02*X100000D01*
Y80000D02*X60000D01*
X120000Y90000D02*X210000D01*
Y80000D02*X120000D01*
X270000Y90000D02*X230000D01*
Y80000D02*X270000D01*
X60000Y20000D02*Y45000D01*
X270000D02*Y20000D01*
X60000Y55000D02*X100000D01*
Y45000D02*X60000D01*
X120000Y55000D02*X210000D01*
Y45000D02*X120000D01*
X270000Y55000D02*X230000D01*
Y45000D02*X270000D01*
X60000Y20000D02*X270000D01*
X105000Y400000D02*G75*G03X100000Y405000I-5000J0D01*G01*
X105000Y400000D02*G75*G02X100000Y395000I-5000J0D01*G01*
X115000Y400000D02*G75*G02X120000Y405000I5000J0D01*G01*
X115000Y400000D02*G75*G03X120000Y395000I5000J0D01*G01*
X215000Y400000D02*G75*G03X210000Y405000I-5000J0D01*G01*
X215000Y400000D02*G75*G02X210000Y395000I-5000J0D01*G01*
X225000Y400000D02*G75*G02X230000Y405000I5000J0D01*G01*
X225000Y400000D02*G75*G03X230000Y395000I5000J0D01*G01*
X105000Y365000D02*G75*G03X100000Y370000I-5000J0D01*G01*
X105000Y365000D02*G75*G02X100000Y360000I-5000J0D01*G01*
X115000Y365000D02*G75*G02X120000Y370000I5000J0D01*G01*
X115000Y365000D02*G75*G03X120000Y360000I5000J0D01*G01*
X215000Y365000D02*G75*G03X210000Y370000I-5000J0D01*G01*
X215000Y365000D02*G75*G02X210000Y360000I-5000J0D01*G01*
X225000Y365000D02*G75*G02X230000Y370000I5000J0D01*G01*
X225000Y365000D02*G75*G03X230000Y360000I5000J0D01*G01*
X105000Y330000D02*G75*G03X100000Y335000I-5000J0D01*G01*
X105000Y330000D02*G75*G02X100000Y325000I-5000J0D01*G01*
X115000Y330000D02*G75*G02X120000Y335000I5000J0D01*G01*
X115000Y330000D02*G75*G03X120000Y325000I5000J0D01*G01*
X215000Y330000D02*G75*G03X210000Y335000I-5000J0D01*G01*
X215000Y330000D02*G75*G02X210000Y325000I-5000J0D01*G01*
X225000Y330000D02*G75*G02X230000Y335000I5000J0D01*G01*
X225000Y330000D02*G75*G03X230000Y325000I5000J0D01*G01*
X105000Y295000D02*G75*G03X100000Y300000I-5000J0D01*G01*
X105000Y295000D02*G75*G02X100000Y290000I-5000J0D01*G01*
X115000Y295000D02*G75*G02X120000Y300000I5000J0D01*G01*
X115000Y295000D02*G75*G03X120000Y290000I5000J0D01*G01*
X215000Y295000D02*G75*G03X210000Y300000I-5000J0D01*G01*
X215000Y295000D02*G75*G02X210000Y290000I-5000J0D01*G01*
X225000Y295000D02*G75*G02X230000Y300000I5000J0D01*G01*
X225000Y295000D02*G75*G03X230000Y290000I5000J0D01*G01*
X105000Y260000D02*G75*G03X100000Y265000I-5000J0D01*G01*
X105000Y260000D02*G75*G02X100000Y255000I-5000J0D01*G01*
X115000Y260000D02*G75*G02X120000Y265000I5000J0D01*G01*
X115000Y260000D02*G75*G03X120000Y255000I5000J0D01*G01*
X215000Y260000D02*G75*G03X210000Y265000I-5000J0D01*G01*
X215000Y260000D02*G75*G02X210000Y255000I-5000J0D01*G01*
X225000Y260000D02*G75*G02X230000Y265000I5000J0D01*G01*
X225000Y260000D02*G75*G03X230000Y255000I5000J0D01*G01*
X105000Y225000D02*G75*G03X100000Y230000I-5000J0D01*G01*
X105000Y225000D02*G75*G02X100000Y220000I-5000J0D01*G01*
X115000Y225000D02*G75*G02X120000Y230000I5000J0D01*G01*
X115000Y225000D02*G75*G03X120000Y220000I5000J0D01*G01*
X215000Y225000D02*G75*G03X210000Y230000I-5000J0D01*G01*
X215000Y225000D02*G75*G02X210000Y220000I-5000J0D01*G01*
X225000Y225000D02*G75*G02X230000Y230000I5000J0D01*G01*
X225000Y225000D02*G75*G03X230000Y220000I5000J0D01*G01*
X105000Y190000D02*G75*G03X100000Y195000I-5000J0D01*G01*
X105000Y190000D02*G75*G02X100000Y185000I-5000J0D01*G01*
X115000Y190000D02*G75*G02X120000Y195000I5000J0D01*G01*
X115000Y190000D02*G75*G03X120000Y185000I5000J0D01*G01*
X215000Y190000D02*G75*G03X210000Y195000I-5000J0D01*G01*
X215000Y190000D02*G75*G02X210000Y185000I-5000J0D01*G01*
X225000Y190000D02*G75*G02X230000Y195000I5000J0D01*G01*
X225000Y190000D02*G75*G03X230000Y185000I5000J0D01*G01*
X105000Y155000D02*G75*G03X100000Y160000I-5000J0D01*G01*
X105000Y155000D02*G75*G02X100000Y150000I-5000J0D01*G01*
X115000Y155000D02*G75*G02X120000Y160000I5000J0D01*G01*
X115000Y155000D02*G75*G03X120000Y150000I5000J0D01*G01*
X215000Y155000D02*G75*G03X210000Y160000I-5000J0D01*G01*
X215000Y155000D02*G75*G02X210000Y150000I-5000J0D01*G01*
X225000Y155000D02*G75*G02X230000Y160000I5000J0D01*G01*
X225000Y155000D02*G75*G03X230000Y150000I5000J0D01*G01*
X105000Y120000D02*G75*G03X100000Y125000I-5000J0D01*G01*
X105000Y120000D02*G75*G02X100000Y115000I-5000J0D01*G01*
X115000Y120000D02*G75*G02X120000Y125000I5000J0D01*G01*
X115000Y120000D02*G75*G03X120000Y115000I5000J0D01*G01*
X215000Y120000D02*G75*G03X210000Y125000I-5000J0D01*G01*
X215000Y120000D02*G75*G02X210000Y115000I-5000J0D01*G01*
X225000Y120000D02*G75*G02X230000Y125000I5000J0D01*G01*
X225000Y120000D02*G75*G03X230000Y115000I5000J0D01*G01*
X105000Y85000D02*G75*G03X100000Y90000I-5000J0D01*G01*
X105000Y85000D02*G75*G02X100000Y80000I-5000J0D01*G01*
X115000Y85000D02*G75*G02X120000Y90000I5000J0D01*G01*
X115000Y85000D02*G75*G03X120000Y80000I5000J0D01*G01*
X215000Y85000D02*G75*G03X210000Y90000I-5000J0D01*G01*
X215000Y85000D02*G75*G02X210000Y80000I-5000J0D01*G01*
X225000Y85000D02*G75*G02X230000Y90000I5000J0D01*G01*
X225000Y85000D02*G75*G03X230000Y80000I5000J0D01*G01*
X105000Y50000D02*G75*G03X100000Y55000I-5000J0D01*G01*
X105000Y50000D02*G75*G02X100000Y45000I-5000J0D01*G01*
X115000Y50000D02*G75*G02X120000Y55000I5000J0D01*G01*
X115000Y50000D02*G75*G03X120000Y45000I5000J0D01*G01*
X215000Y50000D02*G75*G03X210000Y55000I-5000J0D01*G01*
X215000Y50000D02*G75*G02X210000Y45000I-5000J0D01*G01*
X225000Y50000D02*G75*G02X230000Y55000I5000J0D01*G01*
X225000Y50000D02*G75*G03X230000Y45000I5000J0D01*G01*
G54D88*X31860Y54000D02*X39300D01*
X31860D02*X35580Y56790D01*
X31860Y59580D01*
X39300D01*
Y65532D02*Y62742D01*
X38370Y61812D02*X39300Y62742D01*
X36510Y61812D02*X38370D01*
X36510D02*X35580Y62742D01*
Y64602D02*Y62742D01*
Y64602D02*X36510Y65532D01*
X37440D02*Y61812D01*
X36510Y65532D02*X37440D01*
X31860Y68694D02*X38370D01*
X39300Y69624D01*
X34650D02*Y67764D01*
X35580Y74274D02*X36510Y75204D01*
X35580Y74274D02*Y72414D01*
X36510Y71484D02*X35580Y72414D01*
X36510Y71484D02*X38370D01*
X39300Y72414D01*
X35580Y75204D02*X38370D01*
X39300Y76134D01*
Y74274D02*Y72414D01*
Y74274D02*X38370Y75204D01*
X31860Y78366D02*X38370D01*
X39300Y79296D01*
X36510Y85434D02*X42090D01*
X35580Y84504D02*X36510Y85434D01*
X35580Y86364D01*
Y88224D02*Y86364D01*
Y88224D02*X36510Y89154D01*
X38370D01*
X39300Y88224D02*X38370Y89154D01*
X39300Y88224D02*Y86364D01*
X38370Y85434D02*X39300Y86364D01*
X35580Y94176D02*X36510Y95106D01*
X35580Y94176D02*Y92316D01*
X36510Y91386D02*X35580Y92316D01*
X36510Y91386D02*X38370D01*
X39300Y92316D01*
X35580Y95106D02*X38370D01*
X39300Y96036D01*
Y94176D02*Y92316D01*
Y94176D02*X38370Y95106D01*
X31860Y101988D02*X39300D01*
Y101058D02*X38370Y101988D01*
X39300Y101058D02*Y99198D01*
X38370Y98268D02*X39300Y99198D01*
X36510Y98268D02*X38370D01*
X36510D02*X35580Y99198D01*
Y101058D02*Y99198D01*
Y101058D02*X36510Y101988D01*
X39300Y107940D02*Y105150D01*
Y107940D02*X38370Y108870D01*
X37440Y107940D02*X38370Y108870D01*
X37440Y107940D02*Y105150D01*
X36510Y104220D02*X37440Y105150D01*
X36510Y104220D02*X35580Y105150D01*
Y107940D02*Y105150D01*
Y107940D02*X36510Y108870D01*
X38370Y104220D02*X39300Y105150D01*
X36510Y114450D02*X38370D01*
X36510D02*X35580Y115380D01*
Y117240D02*Y115380D01*
Y117240D02*X36510Y118170D01*
X38370D01*
X39300Y117240D02*X38370Y118170D01*
X39300Y117240D02*Y115380D01*
X38370Y114450D02*X39300Y115380D01*
X36510Y121332D02*X39300D01*
X36510D02*X35580Y122262D01*
Y123192D02*Y122262D01*
Y123192D02*X36510Y124122D01*
X39300D01*
X35580Y120402D02*X36510Y121332D01*
X31860Y130632D02*X38370D01*
X39300Y131562D01*
X34650D02*Y129702D01*
X31860Y133422D02*X39300D01*
X36510D02*X35580Y134352D01*
Y136212D02*Y134352D01*
Y136212D02*X36510Y137142D01*
X39300D01*
G54D89*X33720Y139374D02*X33906D01*
G54D88*X36510D02*X39300D01*
Y144954D02*Y142164D01*
Y144954D02*X38370Y145884D01*
X37440Y144954D02*X38370Y145884D01*
X37440Y144954D02*Y142164D01*
X36510Y141234D02*X37440Y142164D01*
X36510Y141234D02*X35580Y142164D01*
Y144954D02*Y142164D01*
Y144954D02*X36510Y145884D01*
X38370Y141234D02*X39300Y142164D01*
Y155184D02*Y152394D01*
Y155184D02*X38370Y156114D01*
X37440Y155184D02*X38370Y156114D01*
X37440Y155184D02*Y152394D01*
X36510Y151464D02*X37440Y152394D01*
X36510Y151464D02*X35580Y152394D01*
Y155184D02*Y152394D01*
Y155184D02*X36510Y156114D01*
X38370Y151464D02*X39300Y152394D01*
G54D89*X33720Y158346D02*X33906D01*
G54D88*X36510D02*X39300D01*
X31860Y163926D02*X39300D01*
Y162996D02*X38370Y163926D01*
X39300Y162996D02*Y161136D01*
X38370Y160206D02*X39300Y161136D01*
X36510Y160206D02*X38370D01*
X36510D02*X35580Y161136D01*
Y162996D02*Y161136D01*
Y162996D02*X36510Y163926D01*
X39300Y169878D02*Y167088D01*
X38370Y166158D02*X39300Y167088D01*
X36510Y166158D02*X38370D01*
X36510D02*X35580Y167088D01*
Y168948D02*Y167088D01*
Y168948D02*X36510Y169878D01*
X37440D02*Y166158D01*
X36510Y169878D02*X37440D01*
X39300Y179178D02*Y176388D01*
Y179178D02*X38370Y180108D01*
X37440Y179178D02*X38370Y180108D01*
X37440Y179178D02*Y176388D01*
X36510Y175458D02*X37440Y176388D01*
X36510Y175458D02*X35580Y176388D01*
Y179178D02*Y176388D01*
Y179178D02*X36510Y180108D01*
X38370Y175458D02*X39300Y176388D01*
X31860Y182340D02*X39300D01*
X36510D02*X35580Y183270D01*
Y185130D02*Y183270D01*
Y185130D02*X36510Y186060D01*
X39300D01*
X36510Y188292D02*X38370D01*
X36510D02*X35580Y189222D01*
Y191082D02*Y189222D01*
Y191082D02*X36510Y192012D01*
X38370D01*
X39300Y191082D02*X38370Y192012D01*
X39300Y191082D02*Y189222D01*
X38370Y188292D02*X39300Y189222D01*
X35580Y194244D02*X38370D01*
X39300Y195174D01*
Y197034D02*Y195174D01*
Y197034D02*X38370Y197964D01*
X35580D02*X38370D01*
X31860Y200196D02*X38370D01*
X39300Y201126D01*
X31860Y206706D02*X39300D01*
Y205776D02*X38370Y206706D01*
X39300Y205776D02*Y203916D01*
X38370Y202986D02*X39300Y203916D01*
X36510Y202986D02*X38370D01*
X36510D02*X35580Y203916D01*
Y205776D02*Y203916D01*
Y205776D02*X36510Y206706D01*
X31860Y212286D02*X39300D01*
X38370D02*X39300Y213216D01*
Y215076D02*Y213216D01*
Y215076D02*X38370Y216006D01*
X36510D02*X38370D01*
X35580Y215076D02*X36510Y216006D01*
X35580Y215076D02*Y213216D01*
X36510Y212286D02*X35580Y213216D01*
X39300Y221958D02*Y219168D01*
X38370Y218238D02*X39300Y219168D01*
X36510Y218238D02*X38370D01*
X36510D02*X35580Y219168D01*
Y221028D02*Y219168D01*
Y221028D02*X36510Y221958D01*
X37440D02*Y218238D01*
X36510Y221958D02*X37440D01*
X35580Y231258D02*Y228468D01*
X36510Y227538D02*X35580Y228468D01*
X36510Y227538D02*X38370D01*
X39300Y228468D01*
Y231258D02*Y228468D01*
X36510Y233490D02*X38370D01*
X36510D02*X35580Y234420D01*
Y236280D02*Y234420D01*
Y236280D02*X36510Y237210D01*
X38370D01*
X39300Y236280D02*X38370Y237210D01*
X39300Y236280D02*Y234420D01*
X38370Y233490D02*X39300Y234420D01*
G54D89*X33720Y239442D02*X33906D01*
G54D88*X36510D02*X39300D01*
X36510Y242232D02*X39300D01*
X36510D02*X35580Y243162D01*
Y244092D02*Y243162D01*
Y244092D02*X36510Y245022D01*
X39300D01*
X35580Y241302D02*X36510Y242232D01*
X35580Y250974D02*Y248184D01*
X36510Y247254D02*X35580Y248184D01*
X36510Y247254D02*X38370D01*
X39300Y248184D01*
Y250974D02*Y248184D01*
G54D89*X33720Y253206D02*X33906D01*
G54D88*X36510D02*X39300D01*
X31860Y258786D02*X39300D01*
Y257856D02*X38370Y258786D01*
X39300Y257856D02*Y255996D01*
X38370Y255066D02*X39300Y255996D01*
X36510Y255066D02*X38370D01*
X36510D02*X35580Y255996D01*
Y257856D02*Y255996D01*
Y257856D02*X36510Y258786D01*
X39300Y264738D02*Y261948D01*
X38370Y261018D02*X39300Y261948D01*
X36510Y261018D02*X38370D01*
X36510D02*X35580Y261948D01*
Y263808D02*Y261948D01*
Y263808D02*X36510Y264738D01*
X37440D02*Y261018D01*
X36510Y264738D02*X37440D01*
X36510Y267900D02*X39300D01*
X36510D02*X35580Y268830D01*
Y269760D02*Y268830D01*
Y269760D02*X36510Y270690D01*
X39300D01*
X35580Y266970D02*X36510Y267900D01*
X31860Y273852D02*X38370D01*
X39300Y274782D01*
X34650D02*Y272922D01*
X35580Y279990D02*X38370D01*
X39300Y280920D01*
Y281850D02*Y280920D01*
Y281850D02*X38370Y282780D01*
X35580D02*X38370D01*
X39300Y283710D01*
Y284640D02*Y283710D01*
Y284640D02*X38370Y285570D01*
X35580D02*X38370D01*
G54D89*X33720Y287802D02*X33906D01*
G54D88*X36510D02*X39300D01*
X31860Y290592D02*X38370D01*
X39300Y291522D01*
X34650D02*Y289662D01*
X31860Y293382D02*X39300D01*
X36510D02*X35580Y294312D01*
Y296172D02*Y294312D01*
Y296172D02*X36510Y297102D01*
X39300D01*
X31860Y302682D02*X39300D01*
X38370D02*X39300Y303612D01*
Y305472D02*Y303612D01*
Y305472D02*X38370Y306402D01*
X36510D02*X38370D01*
X35580Y305472D02*X36510Y306402D01*
X35580Y305472D02*Y303612D01*
X36510Y302682D02*X35580Y303612D01*
X36510Y308634D02*X38370D01*
X36510D02*X35580Y309564D01*
Y311424D02*Y309564D01*
Y311424D02*X36510Y312354D01*
X38370D01*
X39300Y311424D02*X38370Y312354D01*
X39300Y311424D02*Y309564D01*
X38370Y308634D02*X39300Y309564D01*
X35580Y317376D02*X36510Y318306D01*
X35580Y317376D02*Y315516D01*
X36510Y314586D02*X35580Y315516D01*
X36510Y314586D02*X38370D01*
X39300Y315516D01*
X35580Y318306D02*X38370D01*
X39300Y319236D01*
Y317376D02*Y315516D01*
Y317376D02*X38370Y318306D01*
X36510Y322398D02*X39300D01*
X36510D02*X35580Y323328D01*
Y325188D02*Y323328D01*
Y321468D02*X36510Y322398D01*
X31860Y331140D02*X39300D01*
Y330210D02*X38370Y331140D01*
X39300Y330210D02*Y328350D01*
X38370Y327420D02*X39300Y328350D01*
X36510Y327420D02*X38370D01*
X36510D02*X35580Y328350D01*
Y330210D02*Y328350D01*
Y330210D02*X36510Y331140D01*
X39300Y340440D02*Y337650D01*
X38370Y336720D02*X39300Y337650D01*
X36510Y336720D02*X38370D01*
X36510D02*X35580Y337650D01*
Y339510D02*Y337650D01*
Y339510D02*X36510Y340440D01*
X37440D02*Y336720D01*
X36510Y340440D02*X37440D01*
X31860Y346392D02*X39300D01*
Y345462D02*X38370Y346392D01*
X39300Y345462D02*Y343602D01*
X38370Y342672D02*X39300Y343602D01*
X36510Y342672D02*X38370D01*
X36510D02*X35580Y343602D01*
Y345462D02*Y343602D01*
Y345462D02*X36510Y346392D01*
X35580Y351414D02*X36510Y352344D01*
X35580Y351414D02*Y349554D01*
X36510Y348624D02*X35580Y349554D01*
X36510Y348624D02*X38370D01*
X39300Y349554D01*
Y351414D02*Y349554D01*
Y351414D02*X38370Y352344D01*
X41160Y348624D02*X42090Y349554D01*
Y351414D02*Y349554D01*
Y351414D02*X41160Y352344D01*
X35580D02*X41160D01*
X39300Y358296D02*Y355506D01*
X38370Y354576D02*X39300Y355506D01*
X36510Y354576D02*X38370D01*
X36510D02*X35580Y355506D01*
Y357366D02*Y355506D01*
Y357366D02*X36510Y358296D01*
X37440D02*Y354576D01*
X36510Y358296D02*X37440D01*
X38370Y363876D02*X39300Y364806D01*
X32790Y363876D02*X31860Y364806D01*
X32790Y363876D02*X38370D01*
X35580Y367038D02*X33720Y368898D01*
X35580Y367038D02*X37440Y368898D01*
X31860Y374850D02*Y371130D01*
X35580D01*
X34650Y372060D01*
Y373920D02*Y372060D01*
Y373920D02*X35580Y374850D01*
X38370D01*
X39300Y373920D02*X38370Y374850D01*
X39300Y373920D02*Y372060D01*
X38370Y371130D02*X39300Y372060D01*
X36510Y378012D02*X39300D01*
X36510D02*X35580Y378942D01*
Y379872D02*Y378942D01*
Y379872D02*X36510Y380802D01*
X39300D01*
X36510D02*X35580Y381732D01*
Y382662D02*Y381732D01*
Y382662D02*X36510Y383592D01*
X39300D01*
X35580Y377082D02*X36510Y378012D01*
G54D89*X33720Y385824D02*X33906D01*
G54D88*X36510D02*X39300D01*
X31860Y387684D02*X38370D01*
X39300Y388614D01*
X31860Y390474D02*X32790Y391404D01*
X38370D01*
X39300Y390474D02*X38370Y391404D01*
X39300Y394566D02*Y393636D01*
X45860Y144930D02*X53300D01*
X45860Y147720D02*Y144000D01*
Y147720D02*X46790Y148650D01*
X48650D01*
X49580Y147720D02*X48650Y148650D01*
X49580Y147720D02*Y144930D01*
X45860Y150882D02*X52370D01*
X53300Y151812D01*
Y157392D02*Y154602D01*
X52370Y153672D02*X53300Y154602D01*
X50510Y153672D02*X52370D01*
X50510D02*X49580Y154602D01*
Y156462D02*Y154602D01*
Y156462D02*X50510Y157392D01*
X51440D02*Y153672D01*
X50510Y157392D02*X51440D01*
X49580Y162414D02*X50510Y163344D01*
X49580Y162414D02*Y160554D01*
X50510Y159624D02*X49580Y160554D01*
X50510Y159624D02*X52370D01*
X53300Y160554D01*
X49580Y163344D02*X52370D01*
X53300Y164274D01*
Y162414D02*Y160554D01*
Y162414D02*X52370Y163344D01*
X53300Y170226D02*Y167436D01*
Y170226D02*X52370Y171156D01*
X51440Y170226D02*X52370Y171156D01*
X51440Y170226D02*Y167436D01*
X50510Y166506D02*X51440Y167436D01*
X50510Y166506D02*X49580Y167436D01*
Y170226D02*Y167436D01*
Y170226D02*X50510Y171156D01*
X52370Y166506D02*X53300Y167436D01*
Y177108D02*Y174318D01*
X52370Y173388D02*X53300Y174318D01*
X50510Y173388D02*X52370D01*
X50510D02*X49580Y174318D01*
Y176178D02*Y174318D01*
Y176178D02*X50510Y177108D01*
X51440D02*Y173388D01*
X50510Y177108D02*X51440D01*
X45860Y186408D02*X53300D01*
Y185478D02*X52370Y186408D01*
X53300Y185478D02*Y183618D01*
X52370Y182688D02*X53300Y183618D01*
X50510Y182688D02*X52370D01*
X50510D02*X49580Y183618D01*
Y185478D02*Y183618D01*
Y185478D02*X50510Y186408D01*
Y188640D02*X52370D01*
X50510D02*X49580Y189570D01*
Y191430D02*Y189570D01*
Y191430D02*X50510Y192360D01*
X52370D01*
X53300Y191430D02*X52370Y192360D01*
X53300Y191430D02*Y189570D01*
X52370Y188640D02*X53300Y189570D01*
X45860Y197940D02*X53300D01*
X45860D02*X53300Y202590D01*
X45860D02*X53300D01*
X46790Y204822D02*X52370D01*
X46790D02*X45860Y205752D01*
Y207612D02*Y205752D01*
Y207612D02*X46790Y208542D01*
X52370D01*
X53300Y207612D02*X52370Y208542D01*
X53300Y207612D02*Y205752D01*
X52370Y204822D02*X53300Y205752D01*
X45860Y214494D02*Y210774D01*
Y212634D02*X53300D01*
X50510Y221004D02*X56090D01*
X49580Y220074D02*X50510Y221004D01*
X49580Y221934D01*
Y223794D02*Y221934D01*
Y223794D02*X50510Y224724D01*
X52370D01*
X53300Y223794D02*X52370Y224724D01*
X53300Y223794D02*Y221934D01*
X52370Y221004D02*X53300Y221934D01*
X49580Y226956D02*X52370D01*
X53300Y227886D01*
Y229746D02*Y227886D01*
Y229746D02*X52370Y230676D01*
X49580D02*X52370D01*
X45860Y232908D02*X52370D01*
X53300Y233838D01*
X45860Y235698D02*X52370D01*
X53300Y236628D01*
X45860Y241836D02*X53300D01*
X52370D02*X53300Y242766D01*
Y244626D02*Y242766D01*
Y244626D02*X52370Y245556D01*
X50510D02*X52370D01*
X49580Y244626D02*X50510Y245556D01*
X49580Y244626D02*Y242766D01*
X50510Y241836D02*X49580Y242766D01*
Y250578D02*X50510Y251508D01*
X49580Y250578D02*Y248718D01*
X50510Y247788D02*X49580Y248718D01*
X50510Y247788D02*X52370D01*
X53300Y248718D01*
X49580Y251508D02*X52370D01*
X53300Y252438D01*
Y250578D02*Y248718D01*
Y250578D02*X52370Y251508D01*
X49580Y258390D02*Y255600D01*
X50510Y254670D02*X49580Y255600D01*
X50510Y254670D02*X52370D01*
X53300Y255600D01*
Y258390D02*Y255600D01*
X45860Y260622D02*X53300D01*
X50510D02*X53300Y263412D01*
X50510Y260622D02*X48650Y262482D01*
X50510Y269922D02*X53300D01*
X50510D02*X49580Y270852D01*
Y271782D02*Y270852D01*
Y271782D02*X50510Y272712D01*
X53300D01*
X50510D02*X49580Y273642D01*
Y274572D02*Y273642D01*
Y274572D02*X50510Y275502D01*
X53300D01*
X49580Y268992D02*X50510Y269922D01*
X53300Y281454D02*Y278664D01*
X52370Y277734D02*X53300Y278664D01*
X50510Y277734D02*X52370D01*
X50510D02*X49580Y278664D01*
Y280524D02*Y278664D01*
Y280524D02*X50510Y281454D01*
X51440D02*Y277734D01*
X50510Y281454D02*X51440D01*
X45860Y284616D02*X52370D01*
X53300Y285546D01*
X48650D02*Y283686D01*
X49580Y290196D02*X50510Y291126D01*
X49580Y290196D02*Y288336D01*
X50510Y287406D02*X49580Y288336D01*
X50510Y287406D02*X52370D01*
X53300Y288336D01*
X49580Y291126D02*X52370D01*
X53300Y292056D01*
Y290196D02*Y288336D01*
Y290196D02*X52370Y291126D01*
X45860Y294288D02*X52370D01*
X53300Y295218D01*
X52370Y297078D02*X53300D01*
X45860D02*X50510D01*
X16360Y91500D02*X23800D01*
X16360D02*X23800Y96150D01*
X16360D02*X23800D01*
X17290Y98382D02*X22870D01*
X17290D02*X16360Y99312D01*
Y101172D02*Y99312D01*
Y101172D02*X17290Y102102D01*
X22870D01*
X23800Y101172D02*X22870Y102102D01*
X23800Y101172D02*Y99312D01*
X22870Y98382D02*X23800Y99312D01*
X16360Y108612D02*X22870D01*
X23800Y109542D01*
X19150D02*Y107682D01*
X20080Y114192D02*X21010Y115122D01*
X20080Y114192D02*Y112332D01*
X21010Y111402D02*X20080Y112332D01*
X21010Y111402D02*X22870D01*
X23800Y112332D01*
X20080Y115122D02*X22870D01*
X23800Y116052D01*
Y114192D02*Y112332D01*
Y114192D02*X22870Y115122D01*
X16360Y118284D02*X23800D01*
X22870D02*X23800Y119214D01*
Y121074D02*Y119214D01*
Y121074D02*X22870Y122004D01*
X21010D02*X22870D01*
X20080Y121074D02*X21010Y122004D01*
X20080Y121074D02*Y119214D01*
X21010Y118284D02*X20080Y119214D01*
X23800Y127956D02*Y125166D01*
Y127956D02*X22870Y128886D01*
X21940Y127956D02*X22870Y128886D01*
X21940Y127956D02*Y125166D01*
X21010Y124236D02*X21940Y125166D01*
X21010Y124236D02*X20080Y125166D01*
Y127956D02*Y125166D01*
Y127956D02*X21010Y128886D01*
X22870Y124236D02*X23800Y125166D01*
X25660Y131118D02*X23800Y132978D01*
Y142278D02*Y139488D01*
Y142278D02*X22870Y143208D01*
X21940Y142278D02*X22870Y143208D01*
X21940Y142278D02*Y139488D01*
X21010Y138558D02*X21940Y139488D01*
X21010Y138558D02*X20080Y139488D01*
Y142278D02*Y139488D01*
Y142278D02*X21010Y143208D01*
X22870Y138558D02*X23800Y139488D01*
X20080Y149160D02*Y146370D01*
X21010Y145440D02*X20080Y146370D01*
X21010Y145440D02*X22870D01*
X23800Y146370D01*
Y149160D02*Y146370D01*
X21010Y151392D02*X22870D01*
X21010D02*X20080Y152322D01*
Y154182D02*Y152322D01*
Y154182D02*X21010Y155112D01*
X22870D01*
X23800Y154182D02*X22870Y155112D01*
X23800Y154182D02*Y152322D01*
X22870Y151392D02*X23800Y152322D01*
X21010Y158274D02*X23800D01*
X21010D02*X20080Y159204D01*
Y161064D02*Y159204D01*
Y157344D02*X21010Y158274D01*
G54D89*X18220Y163296D02*X18406D01*
G54D88*X21010D02*X23800D01*
X21010Y166086D02*X23800D01*
X21010D02*X20080Y167016D01*
Y167946D02*Y167016D01*
Y167946D02*X21010Y168876D01*
X23800D01*
X20080Y165156D02*X21010Y166086D01*
X20080Y173898D02*X21010Y174828D01*
X20080Y173898D02*Y172038D01*
X21010Y171108D02*X20080Y172038D01*
X21010Y171108D02*X22870D01*
X23800Y172038D01*
Y173898D02*Y172038D01*
Y173898D02*X22870Y174828D01*
X25660Y171108D02*X26590Y172038D01*
Y173898D02*Y172038D01*
Y173898D02*X25660Y174828D01*
X20080D02*X25660D01*
Y177060D02*X23800Y178920D01*
X21010Y184500D02*X22870D01*
X21010D02*X20080Y185430D01*
Y187290D02*Y185430D01*
Y187290D02*X21010Y188220D01*
X22870D01*
X23800Y187290D02*X22870Y188220D01*
X23800Y187290D02*Y185430D01*
X22870Y184500D02*X23800Y185430D01*
X21010Y191382D02*X23800D01*
X21010D02*X20080Y192312D01*
Y194172D02*Y192312D01*
Y190452D02*X21010Y191382D01*
X16360Y199752D02*X23800D01*
X22870D02*X23800Y200682D01*
Y202542D02*Y200682D01*
Y202542D02*X22870Y203472D01*
X21010D02*X22870D01*
X20080Y202542D02*X21010Y203472D01*
X20080Y202542D02*Y200682D01*
X21010Y199752D02*X20080Y200682D01*
X21010Y206634D02*X23800D01*
X21010D02*X20080Y207564D01*
Y209424D02*Y207564D01*
Y205704D02*X21010Y206634D01*
X23800Y215376D02*Y212586D01*
X22870Y211656D02*X23800Y212586D01*
X21010Y211656D02*X22870D01*
X21010D02*X20080Y212586D01*
Y214446D02*Y212586D01*
Y214446D02*X21010Y215376D01*
X21940D02*Y211656D01*
X21010Y215376D02*X21940D01*
X20080Y220398D02*X21010Y221328D01*
X20080Y220398D02*Y218538D01*
X21010Y217608D02*X20080Y218538D01*
X21010Y217608D02*X22870D01*
X23800Y218538D01*
X20080Y221328D02*X22870D01*
X23800Y222258D01*
Y220398D02*Y218538D01*
Y220398D02*X22870Y221328D01*
X16360Y224490D02*X23800D01*
X21010D02*X23800Y227280D01*
X21010Y224490D02*X19150Y226350D01*
X20080Y232302D02*X21010Y233232D01*
X20080Y232302D02*Y230442D01*
X21010Y229512D02*X20080Y230442D01*
X21010Y229512D02*X22870D01*
X23800Y230442D01*
X20080Y233232D02*X22870D01*
X23800Y234162D01*
Y232302D02*Y230442D01*
Y232302D02*X22870Y233232D01*
X20080Y236394D02*X22870D01*
X23800Y237324D01*
Y238254D02*Y237324D01*
Y238254D02*X22870Y239184D01*
X20080D02*X22870D01*
X23800Y240114D01*
Y241044D02*Y240114D01*
Y241044D02*X22870Y241974D01*
X20080D02*X22870D01*
X20080Y246996D02*X21010Y247926D01*
X20080Y246996D02*Y245136D01*
X21010Y244206D02*X20080Y245136D01*
X21010Y244206D02*X22870D01*
X23800Y245136D01*
X20080Y247926D02*X22870D01*
X23800Y248856D01*
Y246996D02*Y245136D01*
Y246996D02*X22870Y247926D01*
X20080Y251088D02*X22870D01*
X23800Y252018D01*
X20080Y254808D02*X25660D01*
X26590Y253878D02*X25660Y254808D01*
X26590Y253878D02*Y252018D01*
X25660Y251088D02*X26590Y252018D01*
X23800Y253878D02*Y252018D01*
Y253878D02*X22870Y254808D01*
X21010Y261318D02*X23800D01*
X21010D02*X20080Y262248D01*
Y264108D02*Y262248D01*
Y260388D02*X21010Y261318D01*
X20080Y269130D02*X21010Y270060D01*
X20080Y269130D02*Y267270D01*
X21010Y266340D02*X20080Y267270D01*
X21010Y266340D02*X22870D01*
X23800Y267270D01*
X20080Y270060D02*X22870D01*
X23800Y270990D01*
Y269130D02*Y267270D01*
Y269130D02*X22870Y270060D01*
G54D89*X18220Y273222D02*X18406D01*
G54D88*X21010D02*X23800D01*
X16360Y275082D02*X22870D01*
X23800Y276012D01*
Y281592D02*Y278802D01*
Y281592D02*X22870Y282522D01*
X21940Y281592D02*X22870Y282522D01*
X21940Y281592D02*Y278802D01*
X21010Y277872D02*X21940Y278802D01*
X21010Y277872D02*X20080Y278802D01*
Y281592D02*Y278802D01*
Y281592D02*X21010Y282522D01*
X22870Y277872D02*X23800Y278802D01*
X21010Y288102D02*X22870D01*
X21010D02*X20080Y289032D01*
Y290892D02*Y289032D01*
Y290892D02*X21010Y291822D01*
X22870D01*
X23800Y290892D02*X22870Y291822D01*
X23800Y290892D02*Y289032D01*
X22870Y288102D02*X23800Y289032D01*
X21010Y294984D02*X23800D01*
X21010D02*X20080Y295914D01*
Y296844D02*Y295914D01*
Y296844D02*X21010Y297774D01*
X23800D01*
X20080Y294054D02*X21010Y294984D01*
X16360Y304284D02*X22870D01*
X23800Y305214D01*
X19150D02*Y303354D01*
X16360Y307074D02*X23800D01*
X21010D02*X20080Y308004D01*
Y309864D02*Y308004D01*
Y309864D02*X21010Y310794D01*
X23800D01*
G54D89*X18220Y313026D02*X18406D01*
G54D88*X21010D02*X23800D01*
Y318606D02*Y315816D01*
Y318606D02*X22870Y319536D01*
X21940Y318606D02*X22870Y319536D01*
X21940Y318606D02*Y315816D01*
X21010Y314886D02*X21940Y315816D01*
X21010Y314886D02*X20080Y315816D01*
Y318606D02*Y315816D01*
Y318606D02*X21010Y319536D01*
X22870Y314886D02*X23800Y315816D01*
Y328836D02*Y326046D01*
X22870Y325116D02*X23800Y326046D01*
X21010Y325116D02*X22870D01*
X21010D02*X20080Y326046D01*
Y327906D02*Y326046D01*
Y327906D02*X21010Y328836D01*
X21940D02*Y325116D01*
X21010Y328836D02*X21940D01*
X16360Y334788D02*X23800D01*
Y333858D02*X22870Y334788D01*
X23800Y333858D02*Y331998D01*
X22870Y331068D02*X23800Y331998D01*
X21010Y331068D02*X22870D01*
X21010D02*X20080Y331998D01*
Y333858D02*Y331998D01*
Y333858D02*X21010Y334788D01*
X20080Y339810D02*X21010Y340740D01*
X20080Y339810D02*Y337950D01*
X21010Y337020D02*X20080Y337950D01*
X21010Y337020D02*X22870D01*
X23800Y337950D01*
Y339810D02*Y337950D01*
Y339810D02*X22870Y340740D01*
X25660Y337020D02*X26590Y337950D01*
Y339810D02*Y337950D01*
Y339810D02*X25660Y340740D01*
X20080D02*X25660D01*
X23800Y346692D02*Y343902D01*
X22870Y342972D02*X23800Y343902D01*
X21010Y342972D02*X22870D01*
X21010D02*X20080Y343902D01*
Y345762D02*Y343902D01*
Y345762D02*X21010Y346692D01*
X21940D02*Y342972D01*
X21010Y346692D02*X21940D01*
X23800Y349854D02*Y348924D01*
G54D90*X82000Y443840D02*X85320D01*
X86150Y443010D01*
Y441350D01*
X85320Y440520D02*X86150Y441350D01*
X82830Y440520D02*X85320D01*
X82830Y443840D02*Y437200D01*
X84158Y440520D02*X86150Y437200D01*
X90632Y440520D02*X91462Y439690D01*
X88972Y440520D02*X90632D01*
X88142Y439690D02*X88972Y440520D01*
X88142Y439690D02*Y438030D01*
X88972Y437200D01*
X91462Y440520D02*Y438030D01*
X92292Y437200D01*
X88972D02*X90632D01*
X91462Y438030D01*
G54D91*X94284Y442180D02*Y442014D01*
G54D90*Y439690D02*Y437200D01*
X95944Y443840D02*Y438030D01*
X96774Y437200D01*
X99264D02*X101754D01*
X102584Y438030D01*
X101754Y438860D02*X102584Y438030D01*
X99264Y438860D02*X101754D01*
X98434Y439690D02*X99264Y438860D01*
X98434Y439690D02*X99264Y440520D01*
X101754D01*
X102584Y439690D01*
X98434Y438030D02*X99264Y437200D01*
X107564Y438030D02*X108394Y437200D01*
X107564Y443010D02*Y441350D01*
Y443010D02*X108394Y443840D01*
X107564Y439690D02*X110054Y442180D01*
X108394Y437200D02*X109224D01*
X110884Y438860D01*
X107564Y441350D02*X111714Y437200D01*
X108394Y443840D02*X109224D01*
X110054Y443010D01*
Y442180D01*
X107564Y439690D02*Y438030D01*
X117524Y443840D02*Y438030D01*
X118354Y437200D01*
X116694Y441350D02*X118354D01*
X122504Y440520D02*X123334Y439690D01*
X120844Y440520D02*X122504D01*
X120014Y439690D02*X120844Y440520D01*
X120014Y439690D02*Y438030D01*
X120844Y437200D01*
X123334Y440520D02*Y438030D01*
X124164Y437200D01*
X120844D02*X122504D01*
X123334Y438030D01*
X126156Y443840D02*Y437200D01*
Y438030D02*X126986Y437200D01*
X128646D01*
X129476Y438030D01*
Y439690D02*Y438030D01*
X128646Y440520D02*X129476Y439690D01*
X126986Y440520D02*X128646D01*
X126156Y439690D02*X126986Y440520D01*
X132298Y437200D02*X134788D01*
X135618Y438030D01*
X134788Y438860D02*X135618Y438030D01*
X132298Y438860D02*X134788D01*
X131468Y439690D02*X132298Y438860D01*
X131468Y439690D02*X132298Y440520D01*
X134788D01*
X135618Y439690D01*
X131468Y438030D02*X132298Y437200D01*
X143088Y440520D02*X143918Y439690D01*
X141428Y440520D02*X143088D01*
X140598Y439690D02*X141428Y440520D01*
X140598Y439690D02*Y438030D01*
X141428Y437200D01*
X143918Y440520D02*Y438030D01*
X144748Y437200D01*
X141428D02*X143088D01*
X143918Y438030D01*
X147570Y440520D02*X150060D01*
X146740Y439690D02*X147570Y440520D01*
X146740Y439690D02*Y438030D01*
X147570Y437200D01*
X150060D01*
X152882Y440520D02*X155372D01*
X152052Y439690D02*X152882Y440520D01*
X152052Y439690D02*Y438030D01*
X152882Y437200D01*
X155372D01*
X158194D02*X160684D01*
X157364Y438030D02*X158194Y437200D01*
X157364Y439690D02*Y438030D01*
Y439690D02*X158194Y440520D01*
X159854D01*
X160684Y439690D01*
X157364Y438860D02*X160684D01*
Y439690D02*Y438860D01*
X163506Y439690D02*Y434710D01*
X162676Y440520D02*X163506Y439690D01*
X164336Y440520D01*
X165996D01*
X166826Y439690D01*
Y438030D01*
X165996Y437200D02*X166826Y438030D01*
X164336Y437200D02*X165996D01*
X163506Y438030D02*X164336Y437200D01*
X169648Y443840D02*Y438030D01*
X170478Y437200D01*
X168818Y441350D02*X170478D01*
X174628Y440520D02*X175458Y439690D01*
X172968Y440520D02*X174628D01*
X172138Y439690D02*X172968Y440520D01*
X172138Y439690D02*Y438030D01*
X172968Y437200D01*
X175458Y440520D02*Y438030D01*
X176288Y437200D01*
X172968D02*X174628D01*
X175458Y438030D01*
X178280Y443840D02*Y437200D01*
Y438030D02*X179110Y437200D01*
X180770D01*
X181600Y438030D01*
Y439690D02*Y438030D01*
X180770Y440520D02*X181600Y439690D01*
X179110Y440520D02*X180770D01*
X178280Y439690D02*X179110Y440520D01*
X183592Y443840D02*Y438030D01*
X184422Y437200D01*
X186912D02*X189402D01*
X186082Y438030D02*X186912Y437200D01*
X186082Y439690D02*Y438030D01*
Y439690D02*X186912Y440520D01*
X188572D01*
X189402Y439690D01*
X186082Y438860D02*X189402D01*
Y439690D02*Y438860D01*
X194382Y439690D02*Y438030D01*
Y439690D02*X195212Y440520D01*
X196872D01*
X197702Y439690D01*
Y438030D01*
X196872Y437200D02*X197702Y438030D01*
X195212Y437200D02*X196872D01*
X194382Y438030D02*X195212Y437200D01*
X200524Y439690D02*Y437200D01*
Y439690D02*X201354Y440520D01*
X202184D01*
X203014Y439690D01*
Y437200D01*
X199694Y440520D02*X200524Y439690D01*
X208824Y443840D02*Y438030D01*
X209654Y437200D01*
X207994Y441350D02*X209654D01*
X211314Y443840D02*Y437200D01*
Y439690D02*X212144Y440520D01*
X213804D01*
X214634Y439690D01*
Y437200D01*
G54D91*X216626Y442180D02*Y442014D01*
G54D90*Y439690D02*Y437200D01*
X219116D02*X221606D01*
X222436Y438030D01*
X221606Y438860D02*X222436Y438030D01*
X219116Y438860D02*X221606D01*
X218286Y439690D02*X219116Y438860D01*
X218286Y439690D02*X219116Y440520D01*
X221606D01*
X222436Y439690D01*
X218286Y438030D02*X219116Y437200D01*
X228246D02*X230736D01*
X227416Y438030D02*X228246Y437200D01*
X227416Y439690D02*Y438030D01*
Y439690D02*X228246Y440520D01*
X229906D01*
X230736Y439690D01*
X227416Y438860D02*X230736D01*
Y439690D02*Y438860D01*
X236048Y443840D02*Y437200D01*
X235218D02*X236048Y438030D01*
X233558Y437200D02*X235218D01*
X232728Y438030D02*X233558Y437200D01*
X232728Y439690D02*Y438030D01*
Y439690D02*X233558Y440520D01*
X235218D01*
X236048Y439690D01*
X240530Y440520D02*X241360Y439690D01*
X238870Y440520D02*X240530D01*
X238040Y439690D02*X238870Y440520D01*
X238040Y439690D02*Y438030D01*
X238870Y437200D01*
X240530D01*
X241360Y438030D01*
X238040Y435540D02*X238870Y434710D01*
X240530D01*
X241360Y435540D01*
Y440520D02*Y435540D01*
X244182Y437200D02*X246672D01*
X243352Y438030D02*X244182Y437200D01*
X243352Y439690D02*Y438030D01*
Y439690D02*X244182Y440520D01*
X245842D01*
X246672Y439690D01*
X243352Y438860D02*X246672D01*
Y439690D02*Y438860D01*
X84000Y15340D02*X87320D01*
X88150Y14510D01*
Y12850D01*
X87320Y12020D02*X88150Y12850D01*
X84830Y12020D02*X87320D01*
X84830Y15340D02*Y8700D01*
X86158Y12020D02*X88150Y8700D01*
X92632Y12020D02*X93462Y11190D01*
X90972Y12020D02*X92632D01*
X90142Y11190D02*X90972Y12020D01*
X90142Y11190D02*Y9530D01*
X90972Y8700D01*
X93462Y12020D02*Y9530D01*
X94292Y8700D01*
X90972D02*X92632D01*
X93462Y9530D01*
G54D91*X96284Y13680D02*Y13514D01*
G54D90*Y11190D02*Y8700D01*
X97944Y15340D02*Y9530D01*
X98774Y8700D01*
X101264D02*X103754D01*
X104584Y9530D01*
X103754Y10360D02*X104584Y9530D01*
X101264Y10360D02*X103754D01*
X100434Y11190D02*X101264Y10360D01*
X100434Y11190D02*X101264Y12020D01*
X103754D01*
X104584Y11190D01*
X100434Y9530D02*X101264Y8700D01*
X109564Y9530D02*X110394Y8700D01*
X109564Y14510D02*Y12850D01*
Y14510D02*X110394Y15340D01*
X109564Y11190D02*X112054Y13680D01*
X110394Y8700D02*X111224D01*
X112884Y10360D01*
X109564Y12850D02*X113714Y8700D01*
X110394Y15340D02*X111224D01*
X112054Y14510D01*
Y13680D01*
X109564Y11190D02*Y9530D01*
X119524Y15340D02*Y9530D01*
X120354Y8700D01*
X118694Y12850D02*X120354D01*
X124504Y12020D02*X125334Y11190D01*
X122844Y12020D02*X124504D01*
X122014Y11190D02*X122844Y12020D01*
X122014Y11190D02*Y9530D01*
X122844Y8700D01*
X125334Y12020D02*Y9530D01*
X126164Y8700D01*
X122844D02*X124504D01*
X125334Y9530D01*
X128156Y15340D02*Y8700D01*
Y9530D02*X128986Y8700D01*
X130646D01*
X131476Y9530D01*
Y11190D02*Y9530D01*
X130646Y12020D02*X131476Y11190D01*
X128986Y12020D02*X130646D01*
X128156Y11190D02*X128986Y12020D01*
X134298Y8700D02*X136788D01*
X137618Y9530D01*
X136788Y10360D02*X137618Y9530D01*
X134298Y10360D02*X136788D01*
X133468Y11190D02*X134298Y10360D01*
X133468Y11190D02*X134298Y12020D01*
X136788D01*
X137618Y11190D01*
X133468Y9530D02*X134298Y8700D01*
X145088Y12020D02*X145918Y11190D01*
X143428Y12020D02*X145088D01*
X142598Y11190D02*X143428Y12020D01*
X142598Y11190D02*Y9530D01*
X143428Y8700D01*
X145918Y12020D02*Y9530D01*
X146748Y8700D01*
X143428D02*X145088D01*
X145918Y9530D01*
X149570Y12020D02*X152060D01*
X148740Y11190D02*X149570Y12020D01*
X148740Y11190D02*Y9530D01*
X149570Y8700D01*
X152060D01*
X154882Y12020D02*X157372D01*
X154052Y11190D02*X154882Y12020D01*
X154052Y11190D02*Y9530D01*
X154882Y8700D01*
X157372D01*
X160194D02*X162684D01*
X159364Y9530D02*X160194Y8700D01*
X159364Y11190D02*Y9530D01*
Y11190D02*X160194Y12020D01*
X161854D01*
X162684Y11190D01*
X159364Y10360D02*X162684D01*
Y11190D02*Y10360D01*
X165506Y11190D02*Y6210D01*
X164676Y12020D02*X165506Y11190D01*
X166336Y12020D01*
X167996D01*
X168826Y11190D01*
Y9530D01*
X167996Y8700D02*X168826Y9530D01*
X166336Y8700D02*X167996D01*
X165506Y9530D02*X166336Y8700D01*
X171648Y15340D02*Y9530D01*
X172478Y8700D01*
X170818Y12850D02*X172478D01*
X176628Y12020D02*X177458Y11190D01*
X174968Y12020D02*X176628D01*
X174138Y11190D02*X174968Y12020D01*
X174138Y11190D02*Y9530D01*
X174968Y8700D01*
X177458Y12020D02*Y9530D01*
X178288Y8700D01*
X174968D02*X176628D01*
X177458Y9530D01*
X180280Y15340D02*Y8700D01*
Y9530D02*X181110Y8700D01*
X182770D01*
X183600Y9530D01*
Y11190D02*Y9530D01*
X182770Y12020D02*X183600Y11190D01*
X181110Y12020D02*X182770D01*
X180280Y11190D02*X181110Y12020D01*
X185592Y15340D02*Y9530D01*
X186422Y8700D01*
X188912D02*X191402D01*
X188082Y9530D02*X188912Y8700D01*
X188082Y11190D02*Y9530D01*
Y11190D02*X188912Y12020D01*
X190572D01*
X191402Y11190D01*
X188082Y10360D02*X191402D01*
Y11190D02*Y10360D01*
X196382Y11190D02*Y9530D01*
Y11190D02*X197212Y12020D01*
X198872D01*
X199702Y11190D01*
Y9530D01*
X198872Y8700D02*X199702Y9530D01*
X197212Y8700D02*X198872D01*
X196382Y9530D02*X197212Y8700D01*
X202524Y11190D02*Y8700D01*
Y11190D02*X203354Y12020D01*
X204184D01*
X205014Y11190D01*
Y8700D01*
X201694Y12020D02*X202524Y11190D01*
X210824Y15340D02*Y9530D01*
X211654Y8700D01*
X209994Y12850D02*X211654D01*
X213314Y15340D02*Y8700D01*
Y11190D02*X214144Y12020D01*
X215804D01*
X216634Y11190D01*
Y8700D01*
G54D91*X218626Y13680D02*Y13514D01*
G54D90*Y11190D02*Y8700D01*
X221116D02*X223606D01*
X224436Y9530D01*
X223606Y10360D02*X224436Y9530D01*
X221116Y10360D02*X223606D01*
X220286Y11190D02*X221116Y10360D01*
X220286Y11190D02*X221116Y12020D01*
X223606D01*
X224436Y11190D01*
X220286Y9530D02*X221116Y8700D01*
X230246D02*X232736D01*
X229416Y9530D02*X230246Y8700D01*
X229416Y11190D02*Y9530D01*
Y11190D02*X230246Y12020D01*
X231906D01*
X232736Y11190D01*
X229416Y10360D02*X232736D01*
Y11190D02*Y10360D01*
X238048Y15340D02*Y8700D01*
X237218D02*X238048Y9530D01*
X235558Y8700D02*X237218D01*
X234728Y9530D02*X235558Y8700D01*
X234728Y11190D02*Y9530D01*
Y11190D02*X235558Y12020D01*
X237218D01*
X238048Y11190D01*
X242530Y12020D02*X243360Y11190D01*
X240870Y12020D02*X242530D01*
X240040Y11190D02*X240870Y12020D01*
X240040Y11190D02*Y9530D01*
X240870Y8700D01*
X242530D01*
X243360Y9530D01*
X240040Y7040D02*X240870Y6210D01*
X242530D01*
X243360Y7040D01*
Y12020D02*Y7040D01*
X246182Y8700D02*X248672D01*
X245352Y9530D02*X246182Y8700D01*
X245352Y11190D02*Y9530D01*
Y11190D02*X246182Y12020D01*
X247842D01*
X248672Y11190D01*
X245352Y10360D02*X248672D01*
Y11190D02*Y10360D01*
X277660Y145820D02*Y142500D01*
Y145820D02*X278490Y146650D01*
X280150D01*
X280980Y145820D02*X280150Y146650D01*
X280980Y145820D02*Y143330D01*
X277660D02*X284300D01*
X280980Y144658D02*X284300Y146650D01*
X280980Y151132D02*X281810Y151962D01*
X280980Y151132D02*Y149472D01*
X281810Y148642D02*X280980Y149472D01*
X281810Y148642D02*X283470D01*
X284300Y149472D01*
X280980Y151962D02*X283470D01*
X284300Y152792D01*
Y151132D02*Y149472D01*
Y151132D02*X283470Y151962D01*
G54D91*X279320Y154784D02*X279486D01*
G54D90*X281810D02*X284300D01*
X277660Y156444D02*X283470D01*
X284300Y157274D01*
Y162254D02*Y159764D01*
Y162254D02*X283470Y163084D01*
X282640Y162254D02*X283470Y163084D01*
X282640Y162254D02*Y159764D01*
X281810Y158934D02*X282640Y159764D01*
X281810Y158934D02*X280980Y159764D01*
Y162254D02*Y159764D01*
Y162254D02*X281810Y163084D01*
X283470Y158934D02*X284300Y159764D01*
X283470Y168064D02*X284300Y168894D01*
X278490Y168064D02*X280150D01*
X278490D02*X277660Y168894D01*
X281810Y168064D02*X279320Y170554D01*
X284300Y169724D02*Y168894D01*
Y169724D02*X282640Y171384D01*
X280150Y168064D02*X284300Y172214D01*
X277660Y169724D02*Y168894D01*
Y169724D02*X278490Y170554D01*
X279320D01*
X281810Y168064D02*X283470D01*
X277660Y178024D02*X283470D01*
X284300Y178854D01*
X280150D02*Y177194D01*
X280980Y183004D02*X281810Y183834D01*
X280980Y183004D02*Y181344D01*
X281810Y180514D02*X280980Y181344D01*
X281810Y180514D02*X283470D01*
X284300Y181344D01*
X280980Y183834D02*X283470D01*
X284300Y184664D01*
Y183004D02*Y181344D01*
Y183004D02*X283470Y183834D01*
X277660Y186656D02*X284300D01*
X283470D02*X284300Y187486D01*
Y189146D02*Y187486D01*
Y189146D02*X283470Y189976D01*
X281810D02*X283470D01*
X280980Y189146D02*X281810Y189976D01*
X280980Y189146D02*Y187486D01*
X281810Y186656D02*X280980Y187486D01*
X284300Y195288D02*Y192798D01*
Y195288D02*X283470Y196118D01*
X282640Y195288D02*X283470Y196118D01*
X282640Y195288D02*Y192798D01*
X281810Y191968D02*X282640Y192798D01*
X281810Y191968D02*X280980Y192798D01*
Y195288D02*Y192798D01*
Y195288D02*X281810Y196118D01*
X283470Y191968D02*X284300Y192798D01*
X280980Y203588D02*X281810Y204418D01*
X280980Y203588D02*Y201928D01*
X281810Y201098D02*X280980Y201928D01*
X281810Y201098D02*X283470D01*
X284300Y201928D01*
X280980Y204418D02*X283470D01*
X284300Y205248D01*
Y203588D02*Y201928D01*
Y203588D02*X283470Y204418D01*
X280980Y210560D02*Y208070D01*
X281810Y207240D02*X280980Y208070D01*
X281810Y207240D02*X283470D01*
X284300Y208070D01*
Y210560D02*Y208070D01*
X280980Y215872D02*Y213382D01*
X281810Y212552D02*X280980Y213382D01*
X281810Y212552D02*X283470D01*
X284300Y213382D01*
Y215872D02*Y213382D01*
Y221184D02*Y218694D01*
X283470Y217864D02*X284300Y218694D01*
X281810Y217864D02*X283470D01*
X281810D02*X280980Y218694D01*
Y220354D02*Y218694D01*
Y220354D02*X281810Y221184D01*
X282640D02*Y217864D01*
X281810Y221184D02*X282640D01*
X281810Y224006D02*X286790D01*
X280980Y223176D02*X281810Y224006D01*
X280980Y224836D01*
Y226496D02*Y224836D01*
Y226496D02*X281810Y227326D01*
X283470D01*
X284300Y226496D02*X283470Y227326D01*
X284300Y226496D02*Y224836D01*
X283470Y224006D02*X284300Y224836D01*
X277660Y230148D02*X283470D01*
X284300Y230978D01*
X280150D02*Y229318D01*
X280980Y235128D02*X281810Y235958D01*
X280980Y235128D02*Y233468D01*
X281810Y232638D02*X280980Y233468D01*
X281810Y232638D02*X283470D01*
X284300Y233468D01*
X280980Y235958D02*X283470D01*
X284300Y236788D01*
Y235128D02*Y233468D01*
Y235128D02*X283470Y235958D01*
X277660Y238780D02*X284300D01*
X283470D02*X284300Y239610D01*
Y241270D02*Y239610D01*
Y241270D02*X283470Y242100D01*
X281810D02*X283470D01*
X280980Y241270D02*X281810Y242100D01*
X280980Y241270D02*Y239610D01*
X281810Y238780D02*X280980Y239610D01*
X277660Y244092D02*X283470D01*
X284300Y244922D01*
Y249902D02*Y247412D01*
X283470Y246582D02*X284300Y247412D01*
X281810Y246582D02*X283470D01*
X281810D02*X280980Y247412D01*
Y249072D02*Y247412D01*
Y249072D02*X281810Y249902D01*
X282640D02*Y246582D01*
X281810Y249902D02*X282640D01*
X281810Y254882D02*X283470D01*
X281810D02*X280980Y255712D01*
Y257372D02*Y255712D01*
Y257372D02*X281810Y258202D01*
X283470D01*
X284300Y257372D02*X283470Y258202D01*
X284300Y257372D02*Y255712D01*
X283470Y254882D02*X284300Y255712D01*
X281810Y261024D02*X284300D01*
X281810D02*X280980Y261854D01*
Y262684D02*Y261854D01*
Y262684D02*X281810Y263514D01*
X284300D01*
X280980Y260194D02*X281810Y261024D01*
X277660Y269324D02*X283470D01*
X284300Y270154D01*
X280150D02*Y268494D01*
X277660Y271814D02*X284300D01*
X281810D02*X280980Y272644D01*
Y274304D02*Y272644D01*
Y274304D02*X281810Y275134D01*
X284300D01*
G54D91*X279320Y277126D02*X279486D01*
G54D90*X281810D02*X284300D01*
Y282106D02*Y279616D01*
Y282106D02*X283470Y282936D01*
X282640Y282106D02*X283470Y282936D01*
X282640Y282106D02*Y279616D01*
X281810Y278786D02*X282640Y279616D01*
X281810Y278786D02*X280980Y279616D01*
Y282106D02*Y279616D01*
Y282106D02*X281810Y282936D01*
X283470Y278786D02*X284300Y279616D01*
Y291236D02*Y288746D01*
X283470Y287916D02*X284300Y288746D01*
X281810Y287916D02*X283470D01*
X281810D02*X280980Y288746D01*
Y290406D02*Y288746D01*
Y290406D02*X281810Y291236D01*
X282640D02*Y287916D01*
X281810Y291236D02*X282640D01*
X277660Y296548D02*X284300D01*
Y295718D02*X283470Y296548D01*
X284300Y295718D02*Y294058D01*
X283470Y293228D02*X284300Y294058D01*
X281810Y293228D02*X283470D01*
X281810D02*X280980Y294058D01*
Y295718D02*Y294058D01*
Y295718D02*X281810Y296548D01*
X280980Y301030D02*X281810Y301860D01*
X280980Y301030D02*Y299370D01*
X281810Y298540D02*X280980Y299370D01*
X281810Y298540D02*X283470D01*
X284300Y299370D01*
Y301030D02*Y299370D01*
Y301030D02*X283470Y301860D01*
X285960Y298540D02*X286790Y299370D01*
Y301030D02*Y299370D01*
Y301030D02*X285960Y301860D01*
X280980D02*X285960D01*
X284300Y307172D02*Y304682D01*
X283470Y303852D02*X284300Y304682D01*
X281810Y303852D02*X283470D01*
X281810D02*X280980Y304682D01*
Y306342D02*Y304682D01*
Y306342D02*X281810Y307172D01*
X282640D02*Y303852D01*
X281810Y307172D02*X282640D01*
G54D85*X63675Y-9500D02*X66675D01*
X67425Y-8750D01*
Y-6950D02*Y-8750D01*
X66675Y-6200D02*X67425Y-6950D01*
X64425Y-6200D02*X66675D01*
X64425Y-3500D02*Y-9500D01*
X63675Y-3500D02*X66675D01*
X67425Y-4250D01*
Y-5450D01*
X66675Y-6200D02*X67425Y-5450D01*
X69225Y-7250D02*Y-8750D01*
Y-7250D02*X69975Y-6500D01*
X71475D01*
X72225Y-7250D01*
Y-8750D01*
X71475Y-9500D02*X72225Y-8750D01*
X69975Y-9500D02*X71475D01*
X69225Y-8750D02*X69975Y-9500D01*
X76275Y-6500D02*X77025Y-7250D01*
X74775Y-6500D02*X76275D01*
X74025Y-7250D02*X74775Y-6500D01*
X74025Y-7250D02*Y-8750D01*
X74775Y-9500D01*
X77025Y-6500D02*Y-8750D01*
X77775Y-9500D01*
X74775D02*X76275D01*
X77025Y-8750D01*
X80325Y-7250D02*Y-9500D01*
Y-7250D02*X81075Y-6500D01*
X82575D01*
X79575D02*X80325Y-7250D01*
X87375Y-3500D02*Y-9500D01*
X86625D02*X87375Y-8750D01*
X85125Y-9500D02*X86625D01*
X84375Y-8750D02*X85125Y-9500D01*
X84375Y-7250D02*Y-8750D01*
Y-7250D02*X85125Y-6500D01*
X86625D01*
X87375Y-7250D01*
X91875D02*Y-8750D01*
Y-7250D02*X92625Y-6500D01*
X94125D01*
X94875Y-7250D01*
Y-8750D01*
X94125Y-9500D02*X94875Y-8750D01*
X92625Y-9500D02*X94125D01*
X91875Y-8750D02*X92625Y-9500D01*
X96675Y-6500D02*Y-8750D01*
X97425Y-9500D01*
X98925D01*
X99675Y-8750D01*
Y-6500D02*Y-8750D01*
X102225Y-3500D02*Y-8750D01*
X102975Y-9500D01*
X101475Y-5750D02*X102975D01*
X104475Y-3500D02*Y-8750D01*
X105225Y-9500D01*
G54D86*X106725Y-5000D02*Y-5150D01*
G54D85*Y-7250D02*Y-9500D01*
X108975Y-7250D02*Y-9500D01*
Y-7250D02*X109725Y-6500D01*
X110475D01*
X111225Y-7250D01*
Y-9500D01*
X108225Y-6500D02*X108975Y-7250D01*
X113775Y-9500D02*X116025D01*
X113025Y-8750D02*X113775Y-9500D01*
X113025Y-7250D02*Y-8750D01*
Y-7250D02*X113775Y-6500D01*
X115275D01*
X116025Y-7250D01*
X113025Y-8000D02*X116025D01*
Y-7250D02*Y-8000D01*
G54D86*X120525Y-5000D02*Y-5150D01*
G54D85*Y-7250D02*Y-9500D01*
X122775D02*X125025D01*
X125775Y-8750D01*
X125025Y-8000D02*X125775Y-8750D01*
X122775Y-8000D02*X125025D01*
X122025Y-7250D02*X122775Y-8000D01*
X122025Y-7250D02*X122775Y-6500D01*
X125025D01*
X125775Y-7250D01*
X122025Y-8750D02*X122775Y-9500D01*
X131025Y-3500D02*Y-8750D01*
X131775Y-9500D01*
X130275Y-5750D02*X131775D01*
X133275Y-3500D02*Y-9500D01*
Y-7250D02*X134025Y-6500D01*
X135525D01*
X136275Y-7250D01*
Y-9500D01*
X138825D02*X141075D01*
X138075Y-8750D02*X138825Y-9500D01*
X138075Y-7250D02*Y-8750D01*
Y-7250D02*X138825Y-6500D01*
X140325D01*
X141075Y-7250D01*
X138075Y-8000D02*X141075D01*
Y-7250D02*Y-8000D01*
X146325Y-6500D02*X148575D01*
X145575Y-7250D02*X146325Y-6500D01*
X145575Y-7250D02*Y-8750D01*
X146325Y-9500D01*
X148575D01*
X151125D02*X153375D01*
X150375Y-8750D02*X151125Y-9500D01*
X150375Y-7250D02*Y-8750D01*
Y-7250D02*X151125Y-6500D01*
X152625D01*
X153375Y-7250D01*
X150375Y-8000D02*X153375D01*
Y-7250D02*Y-8000D01*
X155925Y-7250D02*Y-9500D01*
Y-7250D02*X156675Y-6500D01*
X157425D01*
X158175Y-7250D01*
Y-9500D01*
X155175Y-6500D02*X155925Y-7250D01*
X160725Y-3500D02*Y-8750D01*
X161475Y-9500D01*
X159975Y-5750D02*X161475D01*
X163725Y-9500D02*X165975D01*
X162975Y-8750D02*X163725Y-9500D01*
X162975Y-7250D02*Y-8750D01*
Y-7250D02*X163725Y-6500D01*
X165225D01*
X165975Y-7250D01*
X162975Y-8000D02*X165975D01*
Y-7250D02*Y-8000D01*
X168525Y-7250D02*Y-9500D01*
Y-7250D02*X169275Y-6500D01*
X170775D01*
X167775D02*X168525Y-7250D01*
X172575Y-3500D02*Y-8750D01*
X173325Y-9500D01*
G54D86*X174825Y-5000D02*Y-5150D01*
G54D85*Y-7250D02*Y-9500D01*
X177075Y-7250D02*Y-9500D01*
Y-7250D02*X177825Y-6500D01*
X178575D01*
X179325Y-7250D01*
Y-9500D01*
X176325Y-6500D02*X177075Y-7250D01*
X181875Y-9500D02*X184125D01*
X181125Y-8750D02*X181875Y-9500D01*
X181125Y-7250D02*Y-8750D01*
Y-7250D02*X181875Y-6500D01*
X183375D01*
X184125Y-7250D01*
X181125Y-8000D02*X184125D01*
Y-7250D02*Y-8000D01*
X188625Y-7250D02*Y-8750D01*
Y-7250D02*X189375Y-6500D01*
X190875D01*
X191625Y-7250D01*
Y-8750D01*
X190875Y-9500D02*X191625Y-8750D01*
X189375Y-9500D02*X190875D01*
X188625Y-8750D02*X189375Y-9500D01*
X194175Y-4250D02*Y-9500D01*
Y-4250D02*X194925Y-3500D01*
X195675D01*
X193425Y-6500D02*X194925D01*
X200625Y-3500D02*Y-8750D01*
X201375Y-9500D01*
X199875Y-5750D02*X201375D01*
X202875Y-3500D02*Y-9500D01*
Y-7250D02*X203625Y-6500D01*
X205125D01*
X205875Y-7250D01*
Y-9500D01*
G54D86*X207675Y-5000D02*Y-5150D01*
G54D85*Y-7250D02*Y-9500D01*
X209925D02*X212175D01*
X212925Y-8750D01*
X212175Y-8000D02*X212925Y-8750D01*
X209925Y-8000D02*X212175D01*
X209175Y-7250D02*X209925Y-8000D01*
X209175Y-7250D02*X209925Y-6500D01*
X212175D01*
X212925Y-7250D01*
X209175Y-8750D02*X209925Y-9500D01*
X218175Y-7250D02*Y-11750D01*
X217425Y-6500D02*X218175Y-7250D01*
X218925Y-6500D01*
X220425D01*
X221175Y-7250D01*
Y-8750D01*
X220425Y-9500D02*X221175Y-8750D01*
X218925Y-9500D02*X220425D01*
X218175Y-8750D02*X218925Y-9500D01*
X225225Y-6500D02*X225975Y-7250D01*
X223725Y-6500D02*X225225D01*
X222975Y-7250D02*X223725Y-6500D01*
X222975Y-7250D02*Y-8750D01*
X223725Y-9500D01*
X225975Y-6500D02*Y-8750D01*
X226725Y-9500D01*
X223725D02*X225225D01*
X225975Y-8750D01*
X229275Y-3500D02*Y-8750D01*
X230025Y-9500D01*
X228525Y-5750D02*X230025D01*
X231525Y-3500D02*Y-9500D01*
Y-7250D02*X232275Y-6500D01*
X233775D01*
X234525Y-7250D01*
Y-9500D01*
X200750Y478500D02*Y472500D01*
X202700Y478500D02*X203750Y477450D01*
Y473550D01*
X202700Y472500D02*X203750Y473550D01*
X200000Y472500D02*X202700D01*
X200000Y478500D02*X202700D01*
X207800Y475500D02*X208550Y474750D01*
X206300Y475500D02*X207800D01*
X205550Y474750D02*X206300Y475500D01*
X205550Y474750D02*Y473250D01*
X206300Y472500D01*
X208550Y475500D02*Y473250D01*
X209300Y472500D01*
X206300D02*X207800D01*
X208550Y473250D01*
X211850Y478500D02*Y473250D01*
X212600Y472500D01*
X211100Y476250D02*X212600D01*
X214850Y472500D02*X217100D01*
X214100Y473250D02*X214850Y472500D01*
X214100Y474750D02*Y473250D01*
Y474750D02*X214850Y475500D01*
X216350D01*
X217100Y474750D01*
X214100Y474000D02*X217100D01*
Y474750D02*Y474000D01*
X218900Y476250D02*X219650D01*
X218900Y474750D02*X219650D01*
X224150Y478500D02*X227150D01*
X225650D02*Y472500D01*
X228950Y478500D02*Y472500D01*
Y474750D02*X229700Y475500D01*
X231200D01*
X231950Y474750D01*
Y472500D01*
X233750Y475500D02*Y473250D01*
X234500Y472500D01*
X236000D01*
X236750Y473250D01*
Y475500D02*Y473250D01*
X241250Y477300D02*X242450Y478500D01*
Y472500D01*
X241250D02*X243500D01*
X246050D02*X249050Y478500D01*
X245300D02*X249050D01*
X254300D02*Y472500D01*
X256250Y478500D02*X257300Y477450D01*
Y473550D01*
X256250Y472500D02*X257300Y473550D01*
X253550Y472500D02*X256250D01*
X253550Y478500D02*X256250D01*
X259850Y472500D02*X262100D01*
X259100Y473250D02*X259850Y472500D01*
X259100Y474750D02*Y473250D01*
Y474750D02*X259850Y475500D01*
X261350D01*
X262100Y474750D01*
X259100Y474000D02*X262100D01*
Y474750D02*Y474000D01*
X264650Y475500D02*X266900D01*
X263900Y474750D02*X264650Y475500D01*
X263900Y474750D02*Y473250D01*
X264650Y472500D01*
X266900D01*
X271400Y477750D02*X272150Y478500D01*
X274400D01*
X275150Y477750D01*
Y476250D01*
X271400Y472500D02*X275150Y476250D01*
X271400Y472500D02*X275150D01*
X276950Y473250D02*X277700Y472500D01*
X276950Y477750D02*Y473250D01*
Y477750D02*X277700Y478500D01*
X279200D01*
X279950Y477750D01*
Y473250D01*
X279200Y472500D02*X279950Y473250D01*
X277700Y472500D02*X279200D01*
X276950Y474000D02*X279950Y477000D01*
X281750Y477750D02*X282500Y478500D01*
X284750D01*
X285500Y477750D01*
Y476250D01*
X281750Y472500D02*X285500Y476250D01*
X281750Y472500D02*X285500D01*
X287300Y473250D02*X288050Y472500D01*
X287300Y477750D02*Y473250D01*
Y477750D02*X288050Y478500D01*
X289550D01*
X290300Y477750D01*
Y473250D01*
X289550Y472500D02*X290300Y473250D01*
X288050Y472500D02*X289550D01*
X287300Y474000D02*X290300Y477000D01*
X294800Y473250D02*X295550Y472500D01*
X294800Y477750D02*Y473250D01*
Y477750D02*X295550Y478500D01*
X297050D01*
X297800Y477750D01*
Y473250D01*
X297050Y472500D02*X297800Y473250D01*
X295550Y472500D02*X297050D01*
X294800Y474000D02*X297800Y477000D01*
X299600Y477750D02*X300350Y478500D01*
X301850D01*
X302600Y477750D01*
X301850Y472500D02*X302600Y473250D01*
X300350Y472500D02*X301850D01*
X299600Y473250D02*X300350Y472500D01*
Y475800D02*X301850D01*
X302600Y477750D02*Y476550D01*
Y475050D02*Y473250D01*
Y475050D02*X301850Y475800D01*
X302600Y476550D02*X301850Y475800D01*
X304400Y476250D02*X305150D01*
X304400Y474750D02*X305150D01*
X306950D02*X309950Y478500D01*
X306950Y474750D02*X310700D01*
X309950Y478500D02*Y472500D01*
X312500Y477750D02*X313250Y478500D01*
X315500D01*
X316250Y477750D01*
Y476250D01*
X312500Y472500D02*X316250Y476250D01*
X312500Y472500D02*X316250D01*
X318050Y476250D02*X318800D01*
X318050Y474750D02*X318800D01*
X320600D02*X323600Y478500D01*
X320600Y474750D02*X324350D01*
X323600Y478500D02*Y472500D01*
X326150Y474750D02*X329150Y478500D01*
X326150Y474750D02*X329900D01*
X329150Y478500D02*Y472500D01*
X334400Y477000D02*Y472500D01*
Y477000D02*X335450Y478500D01*
X337100D01*
X338150Y477000D01*
Y472500D01*
X334400Y475500D02*X338150D01*
X339950Y478500D02*Y472500D01*
Y478500D02*X342200Y475500D01*
X344450Y478500D01*
Y472500D01*
X351950Y478500D02*X352700Y477750D01*
X349700Y478500D02*X351950D01*
X348950Y477750D02*X349700Y478500D01*
X348950Y477750D02*Y473250D01*
X349700Y472500D01*
X351950D01*
X352700Y473250D01*
Y474750D02*Y473250D01*
X351950Y475500D02*X352700Y474750D01*
X350450Y475500D02*X351950D01*
X354500Y478500D02*Y472500D01*
Y478500D02*X356750Y475500D01*
X359000Y478500D01*
Y472500D01*
X360800Y478500D02*X363800D01*
X362300D02*Y472500D01*
X368300Y478500D02*Y473250D01*
X369050Y472500D01*
X370550D01*
X371300Y473250D01*
Y478500D02*Y473250D01*
X373100Y478500D02*X376100D01*
X374600D02*Y472500D01*
X378950D02*X380900D01*
X377900Y473550D02*X378950Y472500D01*
X377900Y477450D02*Y473550D01*
Y477450D02*X378950Y478500D01*
X380900D01*
X200000Y492000D02*Y487500D01*
Y492000D02*X201050Y493500D01*
X202700D01*
X203750Y492000D01*
Y487500D01*
X200000Y490500D02*X203750D01*
X205550D02*Y488250D01*
X206300Y487500D01*
X207800D01*
X208550Y488250D01*
Y490500D02*Y488250D01*
X211100Y493500D02*Y488250D01*
X211850Y487500D01*
X210350Y491250D02*X211850D01*
X213350Y493500D02*Y487500D01*
Y489750D02*X214100Y490500D01*
X215600D01*
X216350Y489750D01*
Y487500D01*
X218150Y489750D02*Y488250D01*
Y489750D02*X218900Y490500D01*
X220400D01*
X221150Y489750D01*
Y488250D01*
X220400Y487500D02*X221150Y488250D01*
X218900Y487500D02*X220400D01*
X218150Y488250D02*X218900Y487500D01*
X223700Y489750D02*Y487500D01*
Y489750D02*X224450Y490500D01*
X225950D01*
X222950D02*X223700Y489750D01*
X227750Y491250D02*X228500D01*
X227750Y489750D02*X228500D01*
X233000Y493500D02*Y487500D01*
Y493500D02*X235250Y490500D01*
X237500Y493500D01*
Y487500D01*
G54D86*X239300Y492000D02*Y491850D01*
G54D85*Y489750D02*Y487500D01*
X241550Y490500D02*X243800D01*
X240800Y489750D02*X241550Y490500D01*
X240800Y489750D02*Y488250D01*
X241550Y487500D01*
X243800D01*
X245600Y493500D02*Y487500D01*
Y489750D02*X246350Y490500D01*
X247850D01*
X248600Y489750D01*
Y487500D01*
X252650Y490500D02*X253400Y489750D01*
X251150Y490500D02*X252650D01*
X250400Y489750D02*X251150Y490500D01*
X250400Y489750D02*Y488250D01*
X251150Y487500D01*
X253400Y490500D02*Y488250D01*
X254150Y487500D01*
X251150D02*X252650D01*
X253400Y488250D01*
X256700Y487500D02*X258950D01*
X255950Y488250D02*X256700Y487500D01*
X255950Y489750D02*Y488250D01*
Y489750D02*X256700Y490500D01*
X258200D01*
X258950Y489750D01*
X255950Y489000D02*X258950D01*
Y489750D02*Y489000D01*
X260750Y493500D02*Y488250D01*
X261500Y487500D01*
X266450Y493500D02*Y487500D01*
X265700Y493500D02*X268700D01*
X269450Y492750D01*
Y491250D01*
X268700Y490500D02*X269450Y491250D01*
X266450Y490500D02*X268700D01*
X272000Y487500D02*X274250D01*
X271250Y488250D02*X272000Y487500D01*
X271250Y489750D02*Y488250D01*
Y489750D02*X272000Y490500D01*
X273500D01*
X274250Y489750D01*
X271250Y489000D02*X274250D01*
Y489750D02*Y489000D01*
X276800Y493500D02*Y488250D01*
X277550Y487500D01*
X276050Y491250D02*X277550D01*
X279800Y487500D02*X282050D01*
X279050Y488250D02*X279800Y487500D01*
X279050Y489750D02*Y488250D01*
Y489750D02*X279800Y490500D01*
X281300D01*
X282050Y489750D01*
X279050Y489000D02*X282050D01*
Y489750D02*Y489000D01*
X284600Y489750D02*Y487500D01*
Y489750D02*X285350Y490500D01*
X286850D01*
X283850D02*X284600Y489750D01*
X289400Y487500D02*X291650D01*
X292400Y488250D01*
X291650Y489000D02*X292400Y488250D01*
X289400Y489000D02*X291650D01*
X288650Y489750D02*X289400Y489000D01*
X288650Y489750D02*X289400Y490500D01*
X291650D01*
X292400Y489750D01*
X288650Y488250D02*X289400Y487500D01*
X294950D02*X297200D01*
X294200Y488250D02*X294950Y487500D01*
X294200Y489750D02*Y488250D01*
Y489750D02*X294950Y490500D01*
X296450D01*
X297200Y489750D01*
X294200Y489000D02*X297200D01*
Y489750D02*Y489000D01*
X299750Y489750D02*Y487500D01*
Y489750D02*X300500Y490500D01*
X301250D01*
X302000Y489750D01*
Y487500D01*
X299000Y490500D02*X299750Y489750D01*
X200000Y508500D02*X203000D01*
X201500D02*Y502500D01*
G54D86*X204800Y507000D02*Y506850D01*
G54D85*Y504750D02*Y502500D01*
X207050Y508500D02*Y503250D01*
X207800Y502500D01*
X206300Y506250D02*X207800D01*
X209300Y508500D02*Y503250D01*
X210050Y502500D01*
X212300D02*X214550D01*
X211550Y503250D02*X212300Y502500D01*
X211550Y504750D02*Y503250D01*
Y504750D02*X212300Y505500D01*
X213800D01*
X214550Y504750D01*
X211550Y504000D02*X214550D01*
Y504750D02*Y504000D01*
X216350Y506250D02*X217100D01*
X216350Y504750D02*X217100D01*
X221600Y503250D02*X222350Y502500D01*
X221600Y507750D02*X222350Y508500D01*
X221600Y507750D02*Y503250D01*
X224150Y505500D02*Y503250D01*
X224900Y502500D01*
X226400D01*
X227150Y503250D01*
Y505500D02*Y503250D01*
X229700Y504750D02*Y502500D01*
Y504750D02*X230450Y505500D01*
X231200D01*
X231950Y504750D01*
Y502500D01*
X228950Y505500D02*X229700Y504750D01*
X233750Y508500D02*Y502500D01*
Y504750D02*X236000Y502500D01*
X233750Y504750D02*X235250Y506250D01*
X238550Y504750D02*Y502500D01*
Y504750D02*X239300Y505500D01*
X240050D01*
X240800Y504750D01*
Y502500D01*
X237800Y505500D02*X238550Y504750D01*
X242600D02*Y503250D01*
Y504750D02*X243350Y505500D01*
X244850D01*
X245600Y504750D01*
Y503250D01*
X244850Y502500D02*X245600Y503250D01*
X243350Y502500D02*X244850D01*
X242600Y503250D02*X243350Y502500D01*
X247400Y505500D02*Y503250D01*
X248150Y502500D01*
X248900D01*
X249650Y503250D01*
Y505500D02*Y503250D01*
X250400Y502500D01*
X251150D01*
X251900Y503250D01*
Y505500D02*Y503250D01*
X254450Y504750D02*Y502500D01*
Y504750D02*X255200Y505500D01*
X255950D01*
X256700Y504750D01*
Y502500D01*
X253700Y505500D02*X254450Y504750D01*
X258500Y508500D02*X259250Y507750D01*
Y503250D01*
X258500Y502500D02*X259250Y503250D01*
X263750Y505500D02*X266750D01*
X271250Y508500D02*Y502500D01*
Y508500D02*X274250D01*
X271250Y505800D02*X273500D01*
X278300Y505500D02*X279050Y504750D01*
X276800Y505500D02*X278300D01*
X276050Y504750D02*X276800Y505500D01*
X276050Y504750D02*Y503250D01*
X276800Y502500D01*
X279050Y505500D02*Y503250D01*
X279800Y502500D01*
X276800D02*X278300D01*
X279050Y503250D01*
X281600Y508500D02*Y502500D01*
Y503250D02*X282350Y502500D01*
X283850D01*
X284600Y503250D01*
Y504750D02*Y503250D01*
X283850Y505500D02*X284600Y504750D01*
X282350Y505500D02*X283850D01*
X281600Y504750D02*X282350Y505500D01*
X287150Y504750D02*Y502500D01*
Y504750D02*X287900Y505500D01*
X289400D01*
X286400D02*X287150Y504750D01*
G54D86*X291200Y507000D02*Y506850D01*
G54D85*Y504750D02*Y502500D01*
X293450Y505500D02*X295700D01*
X292700Y504750D02*X293450Y505500D01*
X292700Y504750D02*Y503250D01*
X293450Y502500D01*
X295700D01*
X299750Y505500D02*X300500Y504750D01*
X298250Y505500D02*X299750D01*
X297500Y504750D02*X298250Y505500D01*
X297500Y504750D02*Y503250D01*
X298250Y502500D01*
X300500Y505500D02*Y503250D01*
X301250Y502500D01*
X298250D02*X299750D01*
X300500Y503250D01*
X303800Y508500D02*Y503250D01*
X304550Y502500D01*
X303050Y506250D02*X304550D01*
G54D86*X306050Y507000D02*Y506850D01*
G54D85*Y504750D02*Y502500D01*
X307550Y504750D02*Y503250D01*
Y504750D02*X308300Y505500D01*
X309800D01*
X310550Y504750D01*
Y503250D01*
X309800Y502500D02*X310550Y503250D01*
X308300Y502500D02*X309800D01*
X307550Y503250D02*X308300Y502500D01*
X313100Y504750D02*Y502500D01*
Y504750D02*X313850Y505500D01*
X314600D01*
X315350Y504750D01*
Y502500D01*
X312350Y505500D02*X313100Y504750D01*
X320600Y508500D02*Y502500D01*
X322550Y508500D02*X323600Y507450D01*
Y503550D01*
X322550Y502500D02*X323600Y503550D01*
X319850Y502500D02*X322550D01*
X319850Y508500D02*X322550D01*
X326150Y504750D02*Y502500D01*
Y504750D02*X326900Y505500D01*
X328400D01*
X325400D02*X326150Y504750D01*
X332450Y505500D02*X333200Y504750D01*
X330950Y505500D02*X332450D01*
X330200Y504750D02*X330950Y505500D01*
X330200Y504750D02*Y503250D01*
X330950Y502500D01*
X333200Y505500D02*Y503250D01*
X333950Y502500D01*
X330950D02*X332450D01*
X333200Y503250D01*
X335750Y505500D02*Y503250D01*
X336500Y502500D01*
X337250D01*
X338000Y503250D01*
Y505500D02*Y503250D01*
X338750Y502500D01*
X339500D01*
X340250Y503250D01*
Y505500D02*Y503250D01*
G54D86*X342050Y507000D02*Y506850D01*
G54D85*Y504750D02*Y502500D01*
X344300Y504750D02*Y502500D01*
Y504750D02*X345050Y505500D01*
X345800D01*
X346550Y504750D01*
Y502500D01*
X343550Y505500D02*X344300Y504750D01*
X350600Y505500D02*X351350Y504750D01*
X349100Y505500D02*X350600D01*
X348350Y504750D02*X349100Y505500D01*
X348350Y504750D02*Y503250D01*
X349100Y502500D01*
X350600D01*
X351350Y503250D01*
X348350Y501000D02*X349100Y500250D01*
X350600D01*
X351350Y501000D01*
Y505500D02*Y501000D01*
M02*
