G04 start of page 10 for group -4078 idx -4078 *
G04 Title: (unknown), bottomsilk *
G04 Creator: pcb 20140316 *
G04 CreationDate: Thu 17 Dec 2020 03:42:44 AM GMT UTC *
G04 For: railfan *
G04 Format: Gerber/RS-274X *
G04 PCB-Dimensions (mil): 3000.00 4500.00 *
G04 PCB-Coordinate-Origin: lower left *
%MOIN*%
%FSLAX25Y25*%
%LNBOTTOMSILK*%
%ADD72C,0.0080*%
%ADD71C,0.0100*%
G54D71*X269500Y335500D02*X60500D01*
X269500Y359500D02*Y335500D01*
Y324500D02*Y300500D01*
X60500Y324500D02*X269500D01*
Y429500D02*Y405500D01*
X60500Y394500D02*X269500D01*
Y370500D02*X60500D01*
Y359500D02*X269500D01*
X60500Y429500D02*X269500D01*
Y405500D02*X60500D01*
X269500Y394500D02*Y370500D01*
Y300500D02*X60500D01*
Y289500D02*X269500D01*
Y265500D02*X60500D01*
Y254500D02*X269500D01*
Y230500D02*X60500D01*
X269500Y289500D02*Y265500D01*
Y254500D02*Y230500D01*
X60500Y219500D02*X269500D01*
Y195500D02*X60500D01*
X269500Y184500D02*Y160500D01*
Y219500D02*Y195500D01*
X60500Y184500D02*X269500D01*
Y160500D02*X60500D01*
Y149500D02*X269500D01*
Y125500D02*X60500D01*
Y114500D02*X269500D01*
Y90500D02*X60500D01*
Y79500D02*X269500D01*
Y55500D02*X60500D01*
X269500Y149500D02*Y125500D01*
Y114500D02*Y90500D01*
Y79500D02*Y55500D01*
X60500Y44500D02*X269500D01*
Y20500D02*X60500D01*
X269500Y44500D02*Y20500D01*
G54D72*X261800Y386000D02*Y387500D01*
X264000Y385500D02*Y387500D01*
X260000D02*X264000D01*
X260000Y385500D02*Y387500D01*
X262500Y383800D02*X264000D01*
X262500D02*X262000Y383300D01*
Y382800D02*Y383300D01*
Y382800D02*X262500Y382300D01*
X264000D01*
X262000Y384300D02*X262500Y383800D01*
X262000Y379600D02*X262500Y379100D01*
X262000Y379600D02*Y380600D01*
X262500Y381100D02*X262000Y380600D01*
X262500Y381100D02*X263500D01*
X264000Y380600D01*
Y379600D02*Y380600D01*
Y379600D02*X263500Y379100D01*
X265000Y381100D02*X265500Y380600D01*
Y379600D02*Y380600D01*
Y379600D02*X265000Y379100D01*
X262000D02*X265000D01*
X264000Y377400D02*Y377900D01*
X261800Y351000D02*Y352500D01*
X264000Y350500D02*Y352500D01*
X260000D02*X264000D01*
X260000Y350500D02*Y352500D01*
X262500Y348800D02*X264000D01*
X262500D02*X262000Y348300D01*
Y347800D02*Y348300D01*
Y347800D02*X262500Y347300D01*
X264000D01*
X262000Y349300D02*X262500Y348800D01*
X262000Y344600D02*X262500Y344100D01*
X262000Y344600D02*Y345600D01*
X262500Y346100D02*X262000Y345600D01*
X262500Y346100D02*X263500D01*
X264000Y345600D01*
Y344600D02*Y345600D01*
Y344600D02*X263500Y344100D01*
X265000Y346100D02*X265500Y345600D01*
Y344600D02*Y345600D01*
Y344600D02*X265000Y344100D01*
X262000D02*X265000D01*
X264000Y342400D02*Y342900D01*
X261800Y316000D02*Y317500D01*
X264000Y315500D02*Y317500D01*
X260000D02*X264000D01*
X260000Y315500D02*Y317500D01*
X262500Y313800D02*X264000D01*
X262500D02*X262000Y313300D01*
Y312800D02*Y313300D01*
Y312800D02*X262500Y312300D01*
X264000D01*
X262000Y314300D02*X262500Y313800D01*
X262000Y309600D02*X262500Y309100D01*
X262000Y309600D02*Y310600D01*
X262500Y311100D02*X262000Y310600D01*
X262500Y311100D02*X263500D01*
X264000Y310600D01*
Y309600D02*Y310600D01*
Y309600D02*X263500Y309100D01*
X265000Y311100D02*X265500Y310600D01*
Y309600D02*Y310600D01*
Y309600D02*X265000Y309100D01*
X262000D02*X265000D01*
X264000Y307400D02*Y307900D01*
X261800Y281000D02*Y282500D01*
X264000Y280500D02*Y282500D01*
X260000D02*X264000D01*
X260000Y280500D02*Y282500D01*
X262500Y278800D02*X264000D01*
X262500D02*X262000Y278300D01*
Y277800D02*Y278300D01*
Y277800D02*X262500Y277300D01*
X264000D01*
X262000Y279300D02*X262500Y278800D01*
X262000Y274600D02*X262500Y274100D01*
X262000Y274600D02*Y275600D01*
X262500Y276100D02*X262000Y275600D01*
X262500Y276100D02*X263500D01*
X264000Y275600D01*
Y274600D02*Y275600D01*
Y274600D02*X263500Y274100D01*
X265000Y276100D02*X265500Y275600D01*
Y274600D02*Y275600D01*
Y274600D02*X265000Y274100D01*
X262000D02*X265000D01*
X264000Y272400D02*Y272900D01*
X253500Y389000D02*X254000Y388500D01*
X253500Y389000D02*Y390500D01*
X254000Y391000D02*X253500Y390500D01*
X254000Y391000D02*X255000D01*
X255500Y390500D01*
Y389000D02*Y390500D01*
Y389000D02*X256000Y388500D01*
X257000D01*
X257500Y389000D02*X257000Y388500D01*
X257500Y389000D02*Y390500D01*
X257000Y391000D02*X257500Y390500D01*
X255500Y385300D02*Y386800D01*
X256000Y387300D02*X255500Y386800D01*
X256000Y387300D02*X257000D01*
X257500Y386800D01*
Y385300D02*Y386800D01*
X255500Y382600D02*X256000Y382100D01*
X255500Y382600D02*Y383600D01*
X256000Y384100D02*X255500Y383600D01*
X256000Y384100D02*X257000D01*
X257500Y383600D01*
X255500Y382100D02*X257000D01*
X257500Y381600D01*
Y382600D02*Y383600D01*
Y382600D02*X257000Y382100D01*
X253500Y380400D02*X257000D01*
X257500Y379900D01*
Y376900D02*Y378400D01*
X257000Y378900D02*X257500Y378400D01*
X256000Y378900D02*X257000D01*
X256000D02*X255500Y378400D01*
Y377400D02*Y378400D01*
Y377400D02*X256000Y376900D01*
X256500D02*Y378900D01*
X256000Y376900D02*X256500D01*
X253500Y373700D02*X257500D01*
Y374200D02*X257000Y373700D01*
X257500Y374200D02*Y375200D01*
X257000Y375700D02*X257500Y375200D01*
X256000Y375700D02*X257000D01*
X256000D02*X255500Y375200D01*
Y374200D02*Y375200D01*
Y374200D02*X256000Y373700D01*
X253500Y354000D02*X254000Y353500D01*
X253500Y354000D02*Y355500D01*
X254000Y356000D02*X253500Y355500D01*
X254000Y356000D02*X255000D01*
X255500Y355500D01*
Y354000D02*Y355500D01*
Y354000D02*X256000Y353500D01*
X257000D01*
X257500Y354000D02*X257000Y353500D01*
X257500Y354000D02*Y355500D01*
X257000Y356000D02*X257500Y355500D01*
X255500Y350300D02*Y351800D01*
X256000Y352300D02*X255500Y351800D01*
X256000Y352300D02*X257000D01*
X257500Y351800D01*
Y350300D02*Y351800D01*
X255500Y347600D02*X256000Y347100D01*
X255500Y347600D02*Y348600D01*
X256000Y349100D02*X255500Y348600D01*
X256000Y349100D02*X257000D01*
X257500Y348600D01*
X255500Y347100D02*X257000D01*
X257500Y346600D01*
Y347600D02*Y348600D01*
Y347600D02*X257000Y347100D01*
X253500Y345400D02*X257000D01*
X257500Y344900D01*
Y341900D02*Y343400D01*
X257000Y343900D02*X257500Y343400D01*
X256000Y343900D02*X257000D01*
X256000D02*X255500Y343400D01*
Y342400D02*Y343400D01*
Y342400D02*X256000Y341900D01*
X256500D02*Y343900D01*
X256000Y341900D02*X256500D01*
X253500Y338700D02*X257500D01*
Y339200D02*X257000Y338700D01*
X257500Y339200D02*Y340200D01*
X257000Y340700D02*X257500Y340200D01*
X256000Y340700D02*X257000D01*
X256000D02*X255500Y340200D01*
Y339200D02*Y340200D01*
Y339200D02*X256000Y338700D01*
X247000Y352500D02*Y353500D01*
Y353000D02*X251000D01*
Y352500D02*Y353500D01*
X249500Y351300D02*X250500D01*
X249500D02*X249000Y350800D01*
Y349800D02*Y350800D01*
Y349800D02*X249500Y349300D01*
X250500D01*
X251000Y349800D02*X250500Y349300D01*
X251000Y349800D02*Y350800D01*
X250500Y351300D02*X251000Y350800D01*
X249000Y348100D02*X250500D01*
X251000Y347600D01*
Y347100D02*Y347600D01*
Y347100D02*X250500Y346600D01*
X249000D02*X250500D01*
X251000Y346100D01*
Y345600D02*Y346100D01*
Y345600D02*X250500Y345100D01*
X249000D02*X250500D01*
X249000Y342400D02*X249500Y341900D01*
X249000Y342400D02*Y343400D01*
X249500Y343900D02*X249000Y343400D01*
X249500Y343900D02*X250500D01*
X251000Y343400D01*
X249000Y341900D02*X250500D01*
X251000Y341400D01*
Y342400D02*Y343400D01*
Y342400D02*X250500Y341900D01*
X253500Y319000D02*X254000Y318500D01*
X253500Y319000D02*Y320500D01*
X254000Y321000D02*X253500Y320500D01*
X254000Y321000D02*X255000D01*
X255500Y320500D01*
Y319000D02*Y320500D01*
Y319000D02*X256000Y318500D01*
X257000D01*
X257500Y319000D02*X257000Y318500D01*
X257500Y319000D02*Y320500D01*
X257000Y321000D02*X257500Y320500D01*
X255500Y315300D02*Y316800D01*
X256000Y317300D02*X255500Y316800D01*
X256000Y317300D02*X257000D01*
X257500Y316800D01*
Y315300D02*Y316800D01*
X255500Y312600D02*X256000Y312100D01*
X255500Y312600D02*Y313600D01*
X256000Y314100D02*X255500Y313600D01*
X256000Y314100D02*X257000D01*
X257500Y313600D01*
X255500Y312100D02*X257000D01*
X257500Y311600D01*
Y312600D02*Y313600D01*
Y312600D02*X257000Y312100D01*
X253500Y310400D02*X257000D01*
X257500Y309900D01*
Y306900D02*Y308400D01*
X257000Y308900D02*X257500Y308400D01*
X256000Y308900D02*X257000D01*
X256000D02*X255500Y308400D01*
Y307400D02*Y308400D01*
Y307400D02*X256000Y306900D01*
X256500D02*Y308900D01*
X256000Y306900D02*X256500D01*
X253500Y303700D02*X257500D01*
Y304200D02*X257000Y303700D01*
X257500Y304200D02*Y305200D01*
X257000Y305700D02*X257500Y305200D01*
X256000Y305700D02*X257000D01*
X256000D02*X255500Y305200D01*
Y304200D02*Y305200D01*
Y304200D02*X256000Y303700D01*
X247000Y317500D02*Y318500D01*
Y318000D02*X251000D01*
Y317500D02*Y318500D01*
X249500Y316300D02*X250500D01*
X249500D02*X249000Y315800D01*
Y314800D02*Y315800D01*
Y314800D02*X249500Y314300D01*
X250500D01*
X251000Y314800D02*X250500Y314300D01*
X251000Y314800D02*Y315800D01*
X250500Y316300D02*X251000Y315800D01*
X249000Y313100D02*X250500D01*
X251000Y312600D01*
Y312100D02*Y312600D01*
Y312100D02*X250500Y311600D01*
X249000D02*X250500D01*
X251000Y311100D01*
Y310600D02*Y311100D01*
Y310600D02*X250500Y310100D01*
X249000D02*X250500D01*
X249000Y307400D02*X249500Y306900D01*
X249000Y307400D02*Y308400D01*
X249500Y308900D02*X249000Y308400D01*
X249500Y308900D02*X250500D01*
X251000Y308400D01*
X249000Y306900D02*X250500D01*
X251000Y306400D01*
Y307400D02*Y308400D01*
Y307400D02*X250500Y306900D01*
X253500Y284000D02*X254000Y283500D01*
X253500Y284000D02*Y285500D01*
X254000Y286000D02*X253500Y285500D01*
X254000Y286000D02*X255000D01*
X255500Y285500D01*
Y284000D02*Y285500D01*
Y284000D02*X256000Y283500D01*
X257000D01*
X257500Y284000D02*X257000Y283500D01*
X257500Y284000D02*Y285500D01*
X257000Y286000D02*X257500Y285500D01*
X255500Y280300D02*Y281800D01*
X256000Y282300D02*X255500Y281800D01*
X256000Y282300D02*X257000D01*
X257500Y281800D01*
Y280300D02*Y281800D01*
X255500Y277600D02*X256000Y277100D01*
X255500Y277600D02*Y278600D01*
X256000Y279100D02*X255500Y278600D01*
X256000Y279100D02*X257000D01*
X257500Y278600D01*
X255500Y277100D02*X257000D01*
X257500Y276600D01*
Y277600D02*Y278600D01*
Y277600D02*X257000Y277100D01*
X253500Y275400D02*X257000D01*
X257500Y274900D01*
Y271900D02*Y273400D01*
X257000Y273900D02*X257500Y273400D01*
X256000Y273900D02*X257000D01*
X256000D02*X255500Y273400D01*
Y272400D02*Y273400D01*
Y272400D02*X256000Y271900D01*
X256500D02*Y273900D01*
X256000Y271900D02*X256500D01*
X253500Y268700D02*X257500D01*
Y269200D02*X257000Y268700D01*
X257500Y269200D02*Y270200D01*
X257000Y270700D02*X257500Y270200D01*
X256000Y270700D02*X257000D01*
X256000D02*X255500Y270200D01*
Y269200D02*Y270200D01*
Y269200D02*X256000Y268700D01*
X247000Y282500D02*Y283500D01*
Y283000D02*X251000D01*
Y282500D02*Y283500D01*
X249500Y281300D02*X250500D01*
X249500D02*X249000Y280800D01*
Y279800D02*Y280800D01*
Y279800D02*X249500Y279300D01*
X250500D01*
X251000Y279800D02*X250500Y279300D01*
X251000Y279800D02*Y280800D01*
X250500Y281300D02*X251000Y280800D01*
X249000Y278100D02*X250500D01*
X251000Y277600D01*
Y277100D02*Y277600D01*
Y277100D02*X250500Y276600D01*
X249000D02*X250500D01*
X251000Y276100D01*
Y275600D02*Y276100D01*
Y275600D02*X250500Y275100D01*
X249000D02*X250500D01*
X249000Y272400D02*X249500Y271900D01*
X249000Y272400D02*Y273400D01*
X249500Y273900D02*X249000Y273400D01*
X249500Y273900D02*X250500D01*
X251000Y273400D01*
X249000Y271900D02*X250500D01*
X251000Y271400D01*
Y272400D02*Y273400D01*
Y272400D02*X250500Y271900D01*
X227157Y240000D02*X228327D01*
X228957Y240630D02*X228327Y240000D01*
X228957Y240630D02*Y242970D01*
X228327Y243600D01*
X227157D02*X228327D01*
X226077Y240000D02*Y243600D01*
Y241800D02*X224277Y243600D01*
X226077Y241800D02*X224277Y240000D01*
X221397Y243600D02*X223197D01*
X222297Y240000D02*Y243600D01*
X218517Y241800D02*X220317D01*
X216537Y243600D02*X217437D01*
X216987Y240000D02*Y243600D01*
X216537Y240000D02*X217437D01*
X213657Y243600D02*X215457D01*
X213657D02*X213207Y243150D01*
Y242250D02*Y243150D01*
X213657Y241800D02*X213207Y242250D01*
X213657Y241800D02*X215007D01*
Y240000D02*Y243600D01*
X214287Y241800D02*X213207Y240000D01*
X210327Y243600D02*X209877Y243150D01*
X210327Y243600D02*X211677D01*
X212127Y243150D02*X211677Y243600D01*
X212127Y242250D02*Y243150D01*
Y242250D02*X211677Y241800D01*
X210327D02*X211677D01*
X210327D02*X209877Y241350D01*
Y240450D02*Y241350D01*
X210327Y240000D02*X209877Y240450D01*
X210327Y240000D02*X211677D01*
X212127Y240450D02*X211677Y240000D01*
X207447Y241980D02*X208797D01*
X206997Y240000D02*X208797D01*
Y243600D01*
X206997D02*X208797D01*
X205917Y240000D02*Y243600D01*
X203667Y240000D01*
Y243600D01*
X200787D02*X200337Y243150D01*
X200787Y243600D02*X202137D01*
X202587Y243150D02*X202137Y243600D01*
X202587Y242250D02*Y243150D01*
Y242250D02*X202137Y241800D01*
X200787D02*X202137D01*
X200787D02*X200337Y241350D01*
Y240450D02*Y241350D01*
X200787Y240000D02*X200337Y240450D01*
X200787Y240000D02*X202137D01*
X202587Y240450D02*X202137Y240000D01*
X197907Y241980D02*X199257D01*
X197457Y240000D02*X199257D01*
Y243600D01*
X197457D02*X199257D01*
X194757Y241800D02*X193857Y240000D01*
X192957Y241800D02*X193857Y240000D01*
X191877Y241350D02*X190077Y243600D01*
X189627Y241350D02*X191877D01*
X190077Y240000D02*Y243600D01*
X188097Y240000D02*X188547D01*
X187017Y242880D02*X186297Y243600D01*
Y240000D02*Y243600D01*
X185667Y240000D02*X187017D01*
X201500Y233900D02*X201100Y233500D01*
X201500Y236300D02*X201100Y236700D01*
X201500Y233900D02*Y236300D01*
X198540Y233500D02*X199580D01*
X200140Y234060D02*X199580Y233500D01*
X200140Y234060D02*Y236140D01*
X199580Y236700D01*
X198540D02*X199580D01*
X197580D02*X197180Y236300D01*
Y233900D02*Y236300D01*
X197580Y233500D02*X197180Y233900D01*
X196220Y236300D02*X195820Y236700D01*
X194620D02*X195820D01*
X194620D02*X194220Y236300D01*
Y235500D02*Y236300D01*
X196220Y233500D02*X194220Y235500D01*
Y233500D02*X196220D01*
X193260Y233900D02*X192860Y233500D01*
X193260Y233900D02*Y236300D01*
X192860Y236700D01*
X192060D02*X192860D01*
X192060D02*X191660Y236300D01*
Y233900D02*Y236300D01*
X192060Y233500D02*X191660Y233900D01*
X192060Y233500D02*X192860D01*
X193260Y234300D02*X191660Y235900D01*
X190700Y236300D02*X190300Y236700D01*
X189100D02*X190300D01*
X189100D02*X188700Y236300D01*
Y235500D02*Y236300D01*
X190700Y233500D02*X188700Y235500D01*
Y233500D02*X190700D01*
X187740Y233900D02*X187340Y233500D01*
X187740Y233900D02*Y236300D01*
X187340Y236700D01*
X186540D02*X187340D01*
X186540D02*X186140Y236300D01*
Y233900D02*Y236300D01*
X186540Y233500D02*X186140Y233900D01*
X186540Y233500D02*X187340D01*
X187740Y234300D02*X186140Y235900D01*
X226400Y233500D02*X227440D01*
X228000Y234060D02*X227440Y233500D01*
X228000Y234060D02*Y236140D01*
X227440Y236700D01*
X226400D02*X227440D01*
X223840Y233500D02*X224880D01*
X225440Y234060D02*X224880Y233500D01*
X225440Y234060D02*Y236140D01*
X224880Y236700D01*
X223840D02*X224880D01*
X221280Y235100D02*X222880D01*
X218720Y233500D02*X220320D01*
X218720D02*X218320Y233900D01*
Y234860D01*
X218720Y235260D02*X218320Y234860D01*
X218720Y235260D02*X219920D01*
Y233500D02*Y236700D01*
X218720D02*X220320D01*
X218720D02*X218320Y236300D01*
Y235660D02*Y236300D01*
X218720Y235260D02*X218320Y235660D01*
X217360Y236700D02*X216560Y235100D01*
X215760Y236700D01*
X216560Y233500D02*Y235100D01*
X213200D02*X214800D01*
X210640Y236700D02*X210240Y236300D01*
X210640Y236700D02*X211840D01*
X212240Y236300D02*X211840Y236700D01*
X212240Y235500D02*Y236300D01*
Y235500D02*X211840Y235100D01*
X210640D02*X211840D01*
X210640D02*X210240Y234700D01*
Y233900D02*Y234700D01*
X210640Y233500D02*X210240Y233900D01*
X210640Y233500D02*X211840D01*
X212240Y233900D02*X211840Y233500D01*
X209280D02*Y235900D01*
X208720Y236700D01*
X207840D02*X208720D01*
X207840D02*X207280Y235900D01*
Y233500D02*Y235900D01*
Y235100D02*X209280D01*
X223717Y216380D02*X225957D01*
X224837Y211900D02*Y216380D01*
X221813Y211900D02*Y213580D01*
X221253Y214140D01*
X220133D02*X221253D01*
X222373D02*X221813Y213580D01*
X217109Y214140D02*X216549Y213580D01*
X217109Y214140D02*X218229D01*
X218789Y213580D02*X218229Y214140D01*
X218789Y212460D02*Y213580D01*
Y212460D02*X218229Y211900D01*
X216549Y212460D02*Y214140D01*
Y212460D02*X215989Y211900D01*
X217109D02*X218229D01*
X217109D02*X216549Y212460D01*
X214645Y215148D02*Y215260D01*
Y211900D02*Y213580D01*
X212965Y211900D02*Y213580D01*
X212405Y214140D01*
X211845D02*X212405D01*
X211845D02*X211285Y213580D01*
Y211900D02*Y213580D01*
X213525Y214140D02*X212965Y213580D01*
X207701Y216380D02*X207141Y215820D01*
X207701Y216380D02*X209381D01*
X209941Y215820D02*X209381Y216380D01*
X209941Y214700D02*Y215820D01*
Y214700D02*X209381Y214140D01*
X207701D02*X209381D01*
X207701D02*X207141Y213580D01*
Y212460D02*Y213580D01*
X207701Y211900D02*X207141Y212460D01*
X207701Y211900D02*X209381D01*
X209941Y212460D02*X209381Y211900D01*
X205237Y210220D02*Y213580D01*
X205797Y214140D02*X205237Y213580D01*
X204677Y214140D01*
X203557D02*X204677D01*
X203557D02*X202997Y213580D01*
Y212460D02*Y213580D01*
X203557Y211900D02*X202997Y212460D01*
X203557Y211900D02*X204677D01*
X205237Y212460D02*X204677Y211900D01*
X201653Y212460D02*Y213580D01*
X201093Y214140D01*
X199973D02*X201093D01*
X199973D02*X199413Y213580D01*
Y212460D02*Y213580D01*
X199973Y211900D02*X199413Y212460D01*
X199973Y211900D02*X201093D01*
X201653Y212460D02*X201093Y211900D01*
X197509Y212460D02*Y216380D01*
Y212460D02*X196949Y211900D01*
Y214700D02*X198069D01*
X195269Y212460D02*Y216380D01*
Y212460D02*X194709Y211900D01*
Y214700D02*X195829D01*
X191349Y211900D02*X193029D01*
X193589Y212460D02*X193029Y211900D01*
X193589Y212460D02*Y213580D01*
X193029Y214140D01*
X191909D02*X193029D01*
X191909D02*X191349Y213580D01*
Y213020D02*X193589D01*
X191349D02*Y213580D01*
X189445Y211900D02*Y213580D01*
X188885Y214140D01*
X187765D02*X188885D01*
X190005D02*X189445Y213580D01*
X227157Y205000D02*X228327D01*
X228957Y205630D02*X228327Y205000D01*
X228957Y205630D02*Y207970D01*
X228327Y208600D01*
X227157D02*X228327D01*
X226077Y205000D02*Y208600D01*
Y206800D02*X224277Y208600D01*
X226077Y206800D02*X224277Y205000D01*
X221397Y208600D02*X223197D01*
X222297Y205000D02*Y208600D01*
X218517Y206800D02*X220317D01*
X216537Y208600D02*X217437D01*
X216987Y205000D02*Y208600D01*
X216537Y205000D02*X217437D01*
X213657Y208600D02*X215457D01*
X213657D02*X213207Y208150D01*
Y207250D02*Y208150D01*
X213657Y206800D02*X213207Y207250D01*
X213657Y206800D02*X215007D01*
Y205000D02*Y208600D01*
X214287Y206800D02*X213207Y205000D01*
X210327Y208600D02*X209877Y208150D01*
X210327Y208600D02*X211677D01*
X212127Y208150D02*X211677Y208600D01*
X212127Y207250D02*Y208150D01*
Y207250D02*X211677Y206800D01*
X210327D02*X211677D01*
X210327D02*X209877Y206350D01*
Y205450D02*Y206350D01*
X210327Y205000D02*X209877Y205450D01*
X210327Y205000D02*X211677D01*
X212127Y205450D02*X211677Y205000D01*
X207447Y206980D02*X208797D01*
X206997Y205000D02*X208797D01*
Y208600D01*
X206997D02*X208797D01*
X205917Y205000D02*Y208600D01*
X203667Y205000D01*
Y208600D01*
X200787D02*X200337Y208150D01*
X200787Y208600D02*X202137D01*
X202587Y208150D02*X202137Y208600D01*
X202587Y207250D02*Y208150D01*
Y207250D02*X202137Y206800D01*
X200787D02*X202137D01*
X200787D02*X200337Y206350D01*
Y205450D02*Y206350D01*
X200787Y205000D02*X200337Y205450D01*
X200787Y205000D02*X202137D01*
X202587Y205450D02*X202137Y205000D01*
X197907Y206980D02*X199257D01*
X197457Y205000D02*X199257D01*
Y208600D01*
X197457D02*X199257D01*
X194757Y206800D02*X193857Y205000D01*
X192957Y206800D02*X193857Y205000D01*
X191877Y206350D02*X190077Y208600D01*
X189627Y206350D02*X191877D01*
X190077Y205000D02*Y208600D01*
X188097Y205000D02*X188547D01*
X187017Y207880D02*X186297Y208600D01*
Y205000D02*Y208600D01*
X185667Y205000D02*X187017D01*
X201500Y198900D02*X201100Y198500D01*
X201500Y201300D02*X201100Y201700D01*
X201500Y198900D02*Y201300D01*
X198540Y198500D02*X199580D01*
X200140Y199060D02*X199580Y198500D01*
X200140Y199060D02*Y201140D01*
X199580Y201700D01*
X198540D02*X199580D01*
X197580D02*X197180Y201300D01*
Y198900D02*Y201300D01*
X197580Y198500D02*X197180Y198900D01*
X196220Y201300D02*X195820Y201700D01*
X194620D02*X195820D01*
X194620D02*X194220Y201300D01*
Y200500D02*Y201300D01*
X196220Y198500D02*X194220Y200500D01*
Y198500D02*X196220D01*
X193260Y198900D02*X192860Y198500D01*
X193260Y198900D02*Y201300D01*
X192860Y201700D01*
X192060D02*X192860D01*
X192060D02*X191660Y201300D01*
Y198900D02*Y201300D01*
X192060Y198500D02*X191660Y198900D01*
X192060Y198500D02*X192860D01*
X193260Y199300D02*X191660Y200900D01*
X190700Y201300D02*X190300Y201700D01*
X189100D02*X190300D01*
X189100D02*X188700Y201300D01*
Y200500D02*Y201300D01*
X190700Y198500D02*X188700Y200500D01*
Y198500D02*X190700D01*
X187740Y198900D02*X187340Y198500D01*
X187740Y198900D02*Y201300D01*
X187340Y201700D01*
X186540D02*X187340D01*
X186540D02*X186140Y201300D01*
Y198900D02*Y201300D01*
X186540Y198500D02*X186140Y198900D01*
X186540Y198500D02*X187340D01*
X187740Y199300D02*X186140Y200900D01*
X226400Y198500D02*X227440D01*
X228000Y199060D02*X227440Y198500D01*
X228000Y199060D02*Y201140D01*
X227440Y201700D01*
X226400D02*X227440D01*
X223840Y198500D02*X224880D01*
X225440Y199060D02*X224880Y198500D01*
X225440Y199060D02*Y201140D01*
X224880Y201700D01*
X223840D02*X224880D01*
X221280Y200100D02*X222880D01*
X218720Y198500D02*X220320D01*
X218720D02*X218320Y198900D01*
Y199860D01*
X218720Y200260D02*X218320Y199860D01*
X218720Y200260D02*X219920D01*
Y198500D02*Y201700D01*
X218720D02*X220320D01*
X218720D02*X218320Y201300D01*
Y200660D02*Y201300D01*
X218720Y200260D02*X218320Y200660D01*
X217360Y201700D02*X216560Y200100D01*
X215760Y201700D01*
X216560Y198500D02*Y200100D01*
X213200D02*X214800D01*
X210640Y201700D02*X210240Y201300D01*
X210640Y201700D02*X211840D01*
X212240Y201300D02*X211840Y201700D01*
X212240Y200500D02*Y201300D01*
Y200500D02*X211840Y200100D01*
X210640D02*X211840D01*
X210640D02*X210240Y199700D01*
Y198900D02*Y199700D01*
X210640Y198500D02*X210240Y198900D01*
X210640Y198500D02*X211840D01*
X212240Y198900D02*X211840Y198500D01*
X209280D02*Y200900D01*
X208720Y201700D01*
X207840D02*X208720D01*
X207840D02*X207280Y200900D01*
Y198500D02*Y200900D01*
Y200100D02*X209280D01*
X223717Y181380D02*X225957D01*
X224837Y176900D02*Y181380D01*
X221813Y176900D02*Y178580D01*
X221253Y179140D01*
X220133D02*X221253D01*
X222373D02*X221813Y178580D01*
X217109Y179140D02*X216549Y178580D01*
X217109Y179140D02*X218229D01*
X218789Y178580D02*X218229Y179140D01*
X218789Y177460D02*Y178580D01*
Y177460D02*X218229Y176900D01*
X216549Y177460D02*Y179140D01*
Y177460D02*X215989Y176900D01*
X217109D02*X218229D01*
X217109D02*X216549Y177460D01*
X214645Y180148D02*Y180260D01*
Y176900D02*Y178580D01*
X212965Y176900D02*Y178580D01*
X212405Y179140D01*
X211845D02*X212405D01*
X211845D02*X211285Y178580D01*
Y176900D02*Y178580D01*
X213525Y179140D02*X212965Y178580D01*
X207701Y181380D02*X207141Y180820D01*
X207701Y181380D02*X209381D01*
X209941Y180820D02*X209381Y181380D01*
X209941Y179700D02*Y180820D01*
Y179700D02*X209381Y179140D01*
X207701D02*X209381D01*
X207701D02*X207141Y178580D01*
Y177460D02*Y178580D01*
X207701Y176900D02*X207141Y177460D01*
X207701Y176900D02*X209381D01*
X209941Y177460D02*X209381Y176900D01*
X205237Y175220D02*Y178580D01*
X205797Y179140D02*X205237Y178580D01*
X204677Y179140D01*
X203557D02*X204677D01*
X203557D02*X202997Y178580D01*
Y177460D02*Y178580D01*
X203557Y176900D02*X202997Y177460D01*
X203557Y176900D02*X204677D01*
X205237Y177460D02*X204677Y176900D01*
X201653Y177460D02*Y178580D01*
X201093Y179140D01*
X199973D02*X201093D01*
X199973D02*X199413Y178580D01*
Y177460D02*Y178580D01*
X199973Y176900D02*X199413Y177460D01*
X199973Y176900D02*X201093D01*
X201653Y177460D02*X201093Y176900D01*
X197509Y177460D02*Y181380D01*
Y177460D02*X196949Y176900D01*
Y179700D02*X198069D01*
X195269Y177460D02*Y181380D01*
Y177460D02*X194709Y176900D01*
Y179700D02*X195829D01*
X191349Y176900D02*X193029D01*
X193589Y177460D02*X193029Y176900D01*
X193589Y177460D02*Y178580D01*
X193029Y179140D01*
X191909D02*X193029D01*
X191909D02*X191349Y178580D01*
Y178020D02*X193589D01*
X191349D02*Y178580D01*
X189445Y176900D02*Y178580D01*
X188885Y179140D01*
X187765D02*X188885D01*
X190005D02*X189445Y178580D01*
X227157Y170000D02*X228327D01*
X228957Y170630D02*X228327Y170000D01*
X228957Y170630D02*Y172970D01*
X228327Y173600D01*
X227157D02*X228327D01*
X226077Y170000D02*Y173600D01*
Y171800D02*X224277Y173600D01*
X226077Y171800D02*X224277Y170000D01*
X221397Y173600D02*X223197D01*
X222297Y170000D02*Y173600D01*
X218517Y171800D02*X220317D01*
X216537Y173600D02*X217437D01*
X216987Y170000D02*Y173600D01*
X216537Y170000D02*X217437D01*
X213657Y173600D02*X215457D01*
X213657D02*X213207Y173150D01*
Y172250D02*Y173150D01*
X213657Y171800D02*X213207Y172250D01*
X213657Y171800D02*X215007D01*
Y170000D02*Y173600D01*
X214287Y171800D02*X213207Y170000D01*
X210327Y173600D02*X209877Y173150D01*
X210327Y173600D02*X211677D01*
X212127Y173150D02*X211677Y173600D01*
X212127Y172250D02*Y173150D01*
Y172250D02*X211677Y171800D01*
X210327D02*X211677D01*
X210327D02*X209877Y171350D01*
Y170450D02*Y171350D01*
X210327Y170000D02*X209877Y170450D01*
X210327Y170000D02*X211677D01*
X212127Y170450D02*X211677Y170000D01*
X207447Y171980D02*X208797D01*
X206997Y170000D02*X208797D01*
Y173600D01*
X206997D02*X208797D01*
X205917Y170000D02*Y173600D01*
X203667Y170000D01*
Y173600D01*
X200787D02*X200337Y173150D01*
X200787Y173600D02*X202137D01*
X202587Y173150D02*X202137Y173600D01*
X202587Y172250D02*Y173150D01*
Y172250D02*X202137Y171800D01*
X200787D02*X202137D01*
X200787D02*X200337Y171350D01*
Y170450D02*Y171350D01*
X200787Y170000D02*X200337Y170450D01*
X200787Y170000D02*X202137D01*
X202587Y170450D02*X202137Y170000D01*
X197907Y171980D02*X199257D01*
X197457Y170000D02*X199257D01*
Y173600D01*
X197457D02*X199257D01*
X194757Y171800D02*X193857Y170000D01*
X192957Y171800D02*X193857Y170000D01*
X191877Y171350D02*X190077Y173600D01*
X189627Y171350D02*X191877D01*
X190077Y170000D02*Y173600D01*
X188097Y170000D02*X188547D01*
X187017Y172880D02*X186297Y173600D01*
Y170000D02*Y173600D01*
X185667Y170000D02*X187017D01*
X201500Y163900D02*X201100Y163500D01*
X201500Y166300D02*X201100Y166700D01*
X201500Y163900D02*Y166300D01*
X198540Y163500D02*X199580D01*
X200140Y164060D02*X199580Y163500D01*
X200140Y164060D02*Y166140D01*
X199580Y166700D01*
X198540D02*X199580D01*
X197580D02*X197180Y166300D01*
Y163900D02*Y166300D01*
X197580Y163500D02*X197180Y163900D01*
X196220Y166300D02*X195820Y166700D01*
X194620D02*X195820D01*
X194620D02*X194220Y166300D01*
Y165500D02*Y166300D01*
X196220Y163500D02*X194220Y165500D01*
Y163500D02*X196220D01*
X193260Y163900D02*X192860Y163500D01*
X193260Y163900D02*Y166300D01*
X192860Y166700D01*
X192060D02*X192860D01*
X192060D02*X191660Y166300D01*
Y163900D02*Y166300D01*
X192060Y163500D02*X191660Y163900D01*
X192060Y163500D02*X192860D01*
X193260Y164300D02*X191660Y165900D01*
X190700Y166300D02*X190300Y166700D01*
X189100D02*X190300D01*
X189100D02*X188700Y166300D01*
Y165500D02*Y166300D01*
X190700Y163500D02*X188700Y165500D01*
Y163500D02*X190700D01*
X187740Y163900D02*X187340Y163500D01*
X187740Y163900D02*Y166300D01*
X187340Y166700D01*
X186540D02*X187340D01*
X186540D02*X186140Y166300D01*
Y163900D02*Y166300D01*
X186540Y163500D02*X186140Y163900D01*
X186540Y163500D02*X187340D01*
X187740Y164300D02*X186140Y165900D01*
X226400Y163500D02*X227440D01*
X228000Y164060D02*X227440Y163500D01*
X228000Y164060D02*Y166140D01*
X227440Y166700D01*
X226400D02*X227440D01*
X223840Y163500D02*X224880D01*
X225440Y164060D02*X224880Y163500D01*
X225440Y164060D02*Y166140D01*
X224880Y166700D01*
X223840D02*X224880D01*
X221280Y165100D02*X222880D01*
X218720Y163500D02*X220320D01*
X218720D02*X218320Y163900D01*
Y164860D01*
X218720Y165260D02*X218320Y164860D01*
X218720Y165260D02*X219920D01*
Y163500D02*Y166700D01*
X218720D02*X220320D01*
X218720D02*X218320Y166300D01*
Y165660D02*Y166300D01*
X218720Y165260D02*X218320Y165660D01*
X217360Y166700D02*X216560Y165100D01*
X215760Y166700D01*
X216560Y163500D02*Y165100D01*
X213200D02*X214800D01*
X210640Y166700D02*X210240Y166300D01*
X210640Y166700D02*X211840D01*
X212240Y166300D02*X211840Y166700D01*
X212240Y165500D02*Y166300D01*
Y165500D02*X211840Y165100D01*
X210640D02*X211840D01*
X210640D02*X210240Y164700D01*
Y163900D02*Y164700D01*
X210640Y163500D02*X210240Y163900D01*
X210640Y163500D02*X211840D01*
X212240Y163900D02*X211840Y163500D01*
X209280D02*Y165900D01*
X208720Y166700D01*
X207840D02*X208720D01*
X207840D02*X207280Y165900D01*
Y163500D02*Y165900D01*
Y165100D02*X209280D01*
X223717Y146380D02*X225957D01*
X224837Y141900D02*Y146380D01*
X221813Y141900D02*Y143580D01*
X221253Y144140D01*
X220133D02*X221253D01*
X222373D02*X221813Y143580D01*
X217109Y144140D02*X216549Y143580D01*
X217109Y144140D02*X218229D01*
X218789Y143580D02*X218229Y144140D01*
X218789Y142460D02*Y143580D01*
Y142460D02*X218229Y141900D01*
X216549Y142460D02*Y144140D01*
Y142460D02*X215989Y141900D01*
X217109D02*X218229D01*
X217109D02*X216549Y142460D01*
X214645Y145148D02*Y145260D01*
Y141900D02*Y143580D01*
X212965Y141900D02*Y143580D01*
X212405Y144140D01*
X211845D02*X212405D01*
X211845D02*X211285Y143580D01*
Y141900D02*Y143580D01*
X213525Y144140D02*X212965Y143580D01*
X207701Y146380D02*X207141Y145820D01*
X207701Y146380D02*X209381D01*
X209941Y145820D02*X209381Y146380D01*
X209941Y144700D02*Y145820D01*
Y144700D02*X209381Y144140D01*
X207701D02*X209381D01*
X207701D02*X207141Y143580D01*
Y142460D02*Y143580D01*
X207701Y141900D02*X207141Y142460D01*
X207701Y141900D02*X209381D01*
X209941Y142460D02*X209381Y141900D01*
X205237Y140220D02*Y143580D01*
X205797Y144140D02*X205237Y143580D01*
X204677Y144140D01*
X203557D02*X204677D01*
X203557D02*X202997Y143580D01*
Y142460D02*Y143580D01*
X203557Y141900D02*X202997Y142460D01*
X203557Y141900D02*X204677D01*
X205237Y142460D02*X204677Y141900D01*
X201653Y142460D02*Y143580D01*
X201093Y144140D01*
X199973D02*X201093D01*
X199973D02*X199413Y143580D01*
Y142460D02*Y143580D01*
X199973Y141900D02*X199413Y142460D01*
X199973Y141900D02*X201093D01*
X201653Y142460D02*X201093Y141900D01*
X197509Y142460D02*Y146380D01*
Y142460D02*X196949Y141900D01*
Y144700D02*X198069D01*
X195269Y142460D02*Y146380D01*
Y142460D02*X194709Y141900D01*
Y144700D02*X195829D01*
X191349Y141900D02*X193029D01*
X193589Y142460D02*X193029Y141900D01*
X193589Y142460D02*Y143580D01*
X193029Y144140D01*
X191909D02*X193029D01*
X191909D02*X191349Y143580D01*
Y143020D02*X193589D01*
X191349D02*Y143580D01*
X189445Y141900D02*Y143580D01*
X188885Y144140D01*
X187765D02*X188885D01*
X190005D02*X189445Y143580D01*
X227157Y135000D02*X228327D01*
X228957Y135630D02*X228327Y135000D01*
X228957Y135630D02*Y137970D01*
X228327Y138600D01*
X227157D02*X228327D01*
X226077Y135000D02*Y138600D01*
Y136800D02*X224277Y138600D01*
X226077Y136800D02*X224277Y135000D01*
X221397Y138600D02*X223197D01*
X222297Y135000D02*Y138600D01*
X218517Y136800D02*X220317D01*
X216537Y138600D02*X217437D01*
X216987Y135000D02*Y138600D01*
X216537Y135000D02*X217437D01*
X213657Y138600D02*X215457D01*
X213657D02*X213207Y138150D01*
Y137250D02*Y138150D01*
X213657Y136800D02*X213207Y137250D01*
X213657Y136800D02*X215007D01*
Y135000D02*Y138600D01*
X214287Y136800D02*X213207Y135000D01*
X210327Y138600D02*X209877Y138150D01*
X210327Y138600D02*X211677D01*
X212127Y138150D02*X211677Y138600D01*
X212127Y137250D02*Y138150D01*
Y137250D02*X211677Y136800D01*
X210327D02*X211677D01*
X210327D02*X209877Y136350D01*
Y135450D02*Y136350D01*
X210327Y135000D02*X209877Y135450D01*
X210327Y135000D02*X211677D01*
X212127Y135450D02*X211677Y135000D01*
X207447Y136980D02*X208797D01*
X206997Y135000D02*X208797D01*
Y138600D01*
X206997D02*X208797D01*
X205917Y135000D02*Y138600D01*
X203667Y135000D01*
Y138600D01*
X200787D02*X200337Y138150D01*
X200787Y138600D02*X202137D01*
X202587Y138150D02*X202137Y138600D01*
X202587Y137250D02*Y138150D01*
Y137250D02*X202137Y136800D01*
X200787D02*X202137D01*
X200787D02*X200337Y136350D01*
Y135450D02*Y136350D01*
X200787Y135000D02*X200337Y135450D01*
X200787Y135000D02*X202137D01*
X202587Y135450D02*X202137Y135000D01*
X197907Y136980D02*X199257D01*
X197457Y135000D02*X199257D01*
Y138600D01*
X197457D02*X199257D01*
X194757Y136800D02*X193857Y135000D01*
X192957Y136800D02*X193857Y135000D01*
X191877Y136350D02*X190077Y138600D01*
X189627Y136350D02*X191877D01*
X190077Y135000D02*Y138600D01*
X188097Y135000D02*X188547D01*
X187017Y137880D02*X186297Y138600D01*
Y135000D02*Y138600D01*
X185667Y135000D02*X187017D01*
X201500Y128900D02*X201100Y128500D01*
X201500Y131300D02*X201100Y131700D01*
X201500Y128900D02*Y131300D01*
X198540Y128500D02*X199580D01*
X200140Y129060D02*X199580Y128500D01*
X200140Y129060D02*Y131140D01*
X199580Y131700D01*
X198540D02*X199580D01*
X197580D02*X197180Y131300D01*
Y128900D02*Y131300D01*
X197580Y128500D02*X197180Y128900D01*
X196220Y131300D02*X195820Y131700D01*
X194620D02*X195820D01*
X194620D02*X194220Y131300D01*
Y130500D02*Y131300D01*
X196220Y128500D02*X194220Y130500D01*
Y128500D02*X196220D01*
X193260Y128900D02*X192860Y128500D01*
X193260Y128900D02*Y131300D01*
X192860Y131700D01*
X192060D02*X192860D01*
X192060D02*X191660Y131300D01*
Y128900D02*Y131300D01*
X192060Y128500D02*X191660Y128900D01*
X192060Y128500D02*X192860D01*
X193260Y129300D02*X191660Y130900D01*
X190700Y131300D02*X190300Y131700D01*
X189100D02*X190300D01*
X189100D02*X188700Y131300D01*
Y130500D02*Y131300D01*
X190700Y128500D02*X188700Y130500D01*
Y128500D02*X190700D01*
X187740Y128900D02*X187340Y128500D01*
X187740Y128900D02*Y131300D01*
X187340Y131700D01*
X186540D02*X187340D01*
X186540D02*X186140Y131300D01*
Y128900D02*Y131300D01*
X186540Y128500D02*X186140Y128900D01*
X186540Y128500D02*X187340D01*
X187740Y129300D02*X186140Y130900D01*
X226400Y128500D02*X227440D01*
X228000Y129060D02*X227440Y128500D01*
X228000Y129060D02*Y131140D01*
X227440Y131700D01*
X226400D02*X227440D01*
X223840Y128500D02*X224880D01*
X225440Y129060D02*X224880Y128500D01*
X225440Y129060D02*Y131140D01*
X224880Y131700D01*
X223840D02*X224880D01*
X221280Y130100D02*X222880D01*
X218720Y128500D02*X220320D01*
X218720D02*X218320Y128900D01*
Y129860D01*
X218720Y130260D02*X218320Y129860D01*
X218720Y130260D02*X219920D01*
Y128500D02*Y131700D01*
X218720D02*X220320D01*
X218720D02*X218320Y131300D01*
Y130660D02*Y131300D01*
X218720Y130260D02*X218320Y130660D01*
X217360Y131700D02*X216560Y130100D01*
X215760Y131700D01*
X216560Y128500D02*Y130100D01*
X213200D02*X214800D01*
X210640Y131700D02*X210240Y131300D01*
X210640Y131700D02*X211840D01*
X212240Y131300D02*X211840Y131700D01*
X212240Y130500D02*Y131300D01*
Y130500D02*X211840Y130100D01*
X210640D02*X211840D01*
X210640D02*X210240Y129700D01*
Y128900D02*Y129700D01*
X210640Y128500D02*X210240Y128900D01*
X210640Y128500D02*X211840D01*
X212240Y128900D02*X211840Y128500D01*
X209280D02*Y130900D01*
X208720Y131700D01*
X207840D02*X208720D01*
X207840D02*X207280Y130900D01*
Y128500D02*Y130900D01*
Y130100D02*X209280D01*
X223717Y111380D02*X225957D01*
X224837Y106900D02*Y111380D01*
X221813Y106900D02*Y108580D01*
X221253Y109140D01*
X220133D02*X221253D01*
X222373D02*X221813Y108580D01*
X217109Y109140D02*X216549Y108580D01*
X217109Y109140D02*X218229D01*
X218789Y108580D02*X218229Y109140D01*
X218789Y107460D02*Y108580D01*
Y107460D02*X218229Y106900D01*
X216549Y107460D02*Y109140D01*
Y107460D02*X215989Y106900D01*
X217109D02*X218229D01*
X217109D02*X216549Y107460D01*
X214645Y110148D02*Y110260D01*
Y106900D02*Y108580D01*
X212965Y106900D02*Y108580D01*
X212405Y109140D01*
X211845D02*X212405D01*
X211845D02*X211285Y108580D01*
Y106900D02*Y108580D01*
X213525Y109140D02*X212965Y108580D01*
X207701Y111380D02*X207141Y110820D01*
X207701Y111380D02*X209381D01*
X209941Y110820D02*X209381Y111380D01*
X209941Y109700D02*Y110820D01*
Y109700D02*X209381Y109140D01*
X207701D02*X209381D01*
X207701D02*X207141Y108580D01*
Y107460D02*Y108580D01*
X207701Y106900D02*X207141Y107460D01*
X207701Y106900D02*X209381D01*
X209941Y107460D02*X209381Y106900D01*
X205237Y105220D02*Y108580D01*
X205797Y109140D02*X205237Y108580D01*
X204677Y109140D01*
X203557D02*X204677D01*
X203557D02*X202997Y108580D01*
Y107460D02*Y108580D01*
X203557Y106900D02*X202997Y107460D01*
X203557Y106900D02*X204677D01*
X205237Y107460D02*X204677Y106900D01*
X201653Y107460D02*Y108580D01*
X201093Y109140D01*
X199973D02*X201093D01*
X199973D02*X199413Y108580D01*
Y107460D02*Y108580D01*
X199973Y106900D02*X199413Y107460D01*
X199973Y106900D02*X201093D01*
X201653Y107460D02*X201093Y106900D01*
X197509Y107460D02*Y111380D01*
Y107460D02*X196949Y106900D01*
Y109700D02*X198069D01*
X195269Y107460D02*Y111380D01*
Y107460D02*X194709Y106900D01*
Y109700D02*X195829D01*
X191349Y106900D02*X193029D01*
X193589Y107460D02*X193029Y106900D01*
X193589Y107460D02*Y108580D01*
X193029Y109140D01*
X191909D02*X193029D01*
X191909D02*X191349Y108580D01*
Y108020D02*X193589D01*
X191349D02*Y108580D01*
X189445Y106900D02*Y108580D01*
X188885Y109140D01*
X187765D02*X188885D01*
X190005D02*X189445Y108580D01*
X227157Y100000D02*X228327D01*
X228957Y100630D02*X228327Y100000D01*
X228957Y100630D02*Y102970D01*
X228327Y103600D01*
X227157D02*X228327D01*
X226077Y100000D02*Y103600D01*
Y101800D02*X224277Y103600D01*
X226077Y101800D02*X224277Y100000D01*
X221397Y103600D02*X223197D01*
X222297Y100000D02*Y103600D01*
X218517Y101800D02*X220317D01*
X216537Y103600D02*X217437D01*
X216987Y100000D02*Y103600D01*
X216537Y100000D02*X217437D01*
X213657Y103600D02*X215457D01*
X213657D02*X213207Y103150D01*
Y102250D02*Y103150D01*
X213657Y101800D02*X213207Y102250D01*
X213657Y101800D02*X215007D01*
Y100000D02*Y103600D01*
X214287Y101800D02*X213207Y100000D01*
X210327Y103600D02*X209877Y103150D01*
X210327Y103600D02*X211677D01*
X212127Y103150D02*X211677Y103600D01*
X212127Y102250D02*Y103150D01*
Y102250D02*X211677Y101800D01*
X210327D02*X211677D01*
X210327D02*X209877Y101350D01*
Y100450D02*Y101350D01*
X210327Y100000D02*X209877Y100450D01*
X210327Y100000D02*X211677D01*
X212127Y100450D02*X211677Y100000D01*
X207447Y101980D02*X208797D01*
X206997Y100000D02*X208797D01*
Y103600D01*
X206997D02*X208797D01*
X205917Y100000D02*Y103600D01*
X203667Y100000D01*
Y103600D01*
X200787D02*X200337Y103150D01*
X200787Y103600D02*X202137D01*
X202587Y103150D02*X202137Y103600D01*
X202587Y102250D02*Y103150D01*
Y102250D02*X202137Y101800D01*
X200787D02*X202137D01*
X200787D02*X200337Y101350D01*
Y100450D02*Y101350D01*
X200787Y100000D02*X200337Y100450D01*
X200787Y100000D02*X202137D01*
X202587Y100450D02*X202137Y100000D01*
X197907Y101980D02*X199257D01*
X197457Y100000D02*X199257D01*
Y103600D01*
X197457D02*X199257D01*
X194757Y101800D02*X193857Y100000D01*
X192957Y101800D02*X193857Y100000D01*
X191877Y101350D02*X190077Y103600D01*
X189627Y101350D02*X191877D01*
X190077Y100000D02*Y103600D01*
X188097Y100000D02*X188547D01*
X187017Y102880D02*X186297Y103600D01*
Y100000D02*Y103600D01*
X185667Y100000D02*X187017D01*
X201500Y93900D02*X201100Y93500D01*
X201500Y96300D02*X201100Y96700D01*
X201500Y93900D02*Y96300D01*
X198540Y93500D02*X199580D01*
X200140Y94060D02*X199580Y93500D01*
X200140Y94060D02*Y96140D01*
X199580Y96700D01*
X198540D02*X199580D01*
X197580D02*X197180Y96300D01*
Y93900D02*Y96300D01*
X197580Y93500D02*X197180Y93900D01*
X196220Y96300D02*X195820Y96700D01*
X194620D02*X195820D01*
X194620D02*X194220Y96300D01*
Y95500D02*Y96300D01*
X196220Y93500D02*X194220Y95500D01*
Y93500D02*X196220D01*
X193260Y93900D02*X192860Y93500D01*
X193260Y93900D02*Y96300D01*
X192860Y96700D01*
X192060D02*X192860D01*
X192060D02*X191660Y96300D01*
Y93900D02*Y96300D01*
X192060Y93500D02*X191660Y93900D01*
X192060Y93500D02*X192860D01*
X193260Y94300D02*X191660Y95900D01*
X190700Y96300D02*X190300Y96700D01*
X189100D02*X190300D01*
X189100D02*X188700Y96300D01*
Y95500D02*Y96300D01*
X190700Y93500D02*X188700Y95500D01*
Y93500D02*X190700D01*
X187740Y93900D02*X187340Y93500D01*
X187740Y93900D02*Y96300D01*
X187340Y96700D01*
X186540D02*X187340D01*
X186540D02*X186140Y96300D01*
Y93900D02*Y96300D01*
X186540Y93500D02*X186140Y93900D01*
X186540Y93500D02*X187340D01*
X187740Y94300D02*X186140Y95900D01*
X226400Y93500D02*X227440D01*
X228000Y94060D02*X227440Y93500D01*
X228000Y94060D02*Y96140D01*
X227440Y96700D01*
X226400D02*X227440D01*
X223840Y93500D02*X224880D01*
X225440Y94060D02*X224880Y93500D01*
X225440Y94060D02*Y96140D01*
X224880Y96700D01*
X223840D02*X224880D01*
X221280Y95100D02*X222880D01*
X218720Y93500D02*X220320D01*
X218720D02*X218320Y93900D01*
Y94860D01*
X218720Y95260D02*X218320Y94860D01*
X218720Y95260D02*X219920D01*
Y93500D02*Y96700D01*
X218720D02*X220320D01*
X218720D02*X218320Y96300D01*
Y95660D02*Y96300D01*
X218720Y95260D02*X218320Y95660D01*
X217360Y96700D02*X216560Y95100D01*
X215760Y96700D01*
X216560Y93500D02*Y95100D01*
X213200D02*X214800D01*
X210640Y96700D02*X210240Y96300D01*
X210640Y96700D02*X211840D01*
X212240Y96300D02*X211840Y96700D01*
X212240Y95500D02*Y96300D01*
Y95500D02*X211840Y95100D01*
X210640D02*X211840D01*
X210640D02*X210240Y94700D01*
Y93900D02*Y94700D01*
X210640Y93500D02*X210240Y93900D01*
X210640Y93500D02*X211840D01*
X212240Y93900D02*X211840Y93500D01*
X209280D02*Y95900D01*
X208720Y96700D01*
X207840D02*X208720D01*
X207840D02*X207280Y95900D01*
Y93500D02*Y95900D01*
Y95100D02*X209280D01*
X223717Y76380D02*X225957D01*
X224837Y71900D02*Y76380D01*
X221813Y71900D02*Y73580D01*
X221253Y74140D01*
X220133D02*X221253D01*
X222373D02*X221813Y73580D01*
X217109Y74140D02*X216549Y73580D01*
X217109Y74140D02*X218229D01*
X218789Y73580D02*X218229Y74140D01*
X218789Y72460D02*Y73580D01*
Y72460D02*X218229Y71900D01*
X216549Y72460D02*Y74140D01*
Y72460D02*X215989Y71900D01*
X217109D02*X218229D01*
X217109D02*X216549Y72460D01*
X214645Y75148D02*Y75260D01*
Y71900D02*Y73580D01*
X212965Y71900D02*Y73580D01*
X212405Y74140D01*
X211845D02*X212405D01*
X211845D02*X211285Y73580D01*
Y71900D02*Y73580D01*
X213525Y74140D02*X212965Y73580D01*
X207701Y76380D02*X207141Y75820D01*
X207701Y76380D02*X209381D01*
X209941Y75820D02*X209381Y76380D01*
X209941Y74700D02*Y75820D01*
Y74700D02*X209381Y74140D01*
X207701D02*X209381D01*
X207701D02*X207141Y73580D01*
Y72460D02*Y73580D01*
X207701Y71900D02*X207141Y72460D01*
X207701Y71900D02*X209381D01*
X209941Y72460D02*X209381Y71900D01*
X205237Y70220D02*Y73580D01*
X205797Y74140D02*X205237Y73580D01*
X204677Y74140D01*
X203557D02*X204677D01*
X203557D02*X202997Y73580D01*
Y72460D02*Y73580D01*
X203557Y71900D02*X202997Y72460D01*
X203557Y71900D02*X204677D01*
X205237Y72460D02*X204677Y71900D01*
X201653Y72460D02*Y73580D01*
X201093Y74140D01*
X199973D02*X201093D01*
X199973D02*X199413Y73580D01*
Y72460D02*Y73580D01*
X199973Y71900D02*X199413Y72460D01*
X199973Y71900D02*X201093D01*
X201653Y72460D02*X201093Y71900D01*
X197509Y72460D02*Y76380D01*
Y72460D02*X196949Y71900D01*
Y74700D02*X198069D01*
X195269Y72460D02*Y76380D01*
Y72460D02*X194709Y71900D01*
Y74700D02*X195829D01*
X191349Y71900D02*X193029D01*
X193589Y72460D02*X193029Y71900D01*
X193589Y72460D02*Y73580D01*
X193029Y74140D01*
X191909D02*X193029D01*
X191909D02*X191349Y73580D01*
Y73020D02*X193589D01*
X191349D02*Y73580D01*
X189445Y71900D02*Y73580D01*
X188885Y74140D01*
X187765D02*X188885D01*
X190005D02*X189445Y73580D01*
X227157Y65000D02*X228327D01*
X228957Y65630D02*X228327Y65000D01*
X228957Y65630D02*Y67970D01*
X228327Y68600D01*
X227157D02*X228327D01*
X226077Y65000D02*Y68600D01*
Y66800D02*X224277Y68600D01*
X226077Y66800D02*X224277Y65000D01*
X221397Y68600D02*X223197D01*
X222297Y65000D02*Y68600D01*
X218517Y66800D02*X220317D01*
X216537Y68600D02*X217437D01*
X216987Y65000D02*Y68600D01*
X216537Y65000D02*X217437D01*
X213657Y68600D02*X215457D01*
X213657D02*X213207Y68150D01*
Y67250D02*Y68150D01*
X213657Y66800D02*X213207Y67250D01*
X213657Y66800D02*X215007D01*
Y65000D02*Y68600D01*
X214287Y66800D02*X213207Y65000D01*
X210327Y68600D02*X209877Y68150D01*
X210327Y68600D02*X211677D01*
X212127Y68150D02*X211677Y68600D01*
X212127Y67250D02*Y68150D01*
Y67250D02*X211677Y66800D01*
X210327D02*X211677D01*
X210327D02*X209877Y66350D01*
Y65450D02*Y66350D01*
X210327Y65000D02*X209877Y65450D01*
X210327Y65000D02*X211677D01*
X212127Y65450D02*X211677Y65000D01*
X207447Y66980D02*X208797D01*
X206997Y65000D02*X208797D01*
Y68600D01*
X206997D02*X208797D01*
X205917Y65000D02*Y68600D01*
X203667Y65000D01*
Y68600D01*
X200787D02*X200337Y68150D01*
X200787Y68600D02*X202137D01*
X202587Y68150D02*X202137Y68600D01*
X202587Y67250D02*Y68150D01*
Y67250D02*X202137Y66800D01*
X200787D02*X202137D01*
X200787D02*X200337Y66350D01*
Y65450D02*Y66350D01*
X200787Y65000D02*X200337Y65450D01*
X200787Y65000D02*X202137D01*
X202587Y65450D02*X202137Y65000D01*
X197907Y66980D02*X199257D01*
X197457Y65000D02*X199257D01*
Y68600D01*
X197457D02*X199257D01*
X194757Y66800D02*X193857Y65000D01*
X192957Y66800D02*X193857Y65000D01*
X191877Y66350D02*X190077Y68600D01*
X189627Y66350D02*X191877D01*
X190077Y65000D02*Y68600D01*
X188097Y65000D02*X188547D01*
X187017Y67880D02*X186297Y68600D01*
Y65000D02*Y68600D01*
X185667Y65000D02*X187017D01*
X201500Y58900D02*X201100Y58500D01*
X201500Y61300D02*X201100Y61700D01*
X201500Y58900D02*Y61300D01*
X198540Y58500D02*X199580D01*
X200140Y59060D02*X199580Y58500D01*
X200140Y59060D02*Y61140D01*
X199580Y61700D01*
X198540D02*X199580D01*
X197580D02*X197180Y61300D01*
Y58900D02*Y61300D01*
X197580Y58500D02*X197180Y58900D01*
X196220Y61300D02*X195820Y61700D01*
X194620D02*X195820D01*
X194620D02*X194220Y61300D01*
Y60500D02*Y61300D01*
X196220Y58500D02*X194220Y60500D01*
Y58500D02*X196220D01*
X193260Y58900D02*X192860Y58500D01*
X193260Y58900D02*Y61300D01*
X192860Y61700D01*
X192060D02*X192860D01*
X192060D02*X191660Y61300D01*
Y58900D02*Y61300D01*
X192060Y58500D02*X191660Y58900D01*
X192060Y58500D02*X192860D01*
X193260Y59300D02*X191660Y60900D01*
X190700Y61300D02*X190300Y61700D01*
X189100D02*X190300D01*
X189100D02*X188700Y61300D01*
Y60500D02*Y61300D01*
X190700Y58500D02*X188700Y60500D01*
Y58500D02*X190700D01*
X187740Y58900D02*X187340Y58500D01*
X187740Y58900D02*Y61300D01*
X187340Y61700D01*
X186540D02*X187340D01*
X186540D02*X186140Y61300D01*
Y58900D02*Y61300D01*
X186540Y58500D02*X186140Y58900D01*
X186540Y58500D02*X187340D01*
X187740Y59300D02*X186140Y60900D01*
X226400Y58500D02*X227440D01*
X228000Y59060D02*X227440Y58500D01*
X228000Y59060D02*Y61140D01*
X227440Y61700D01*
X226400D02*X227440D01*
X223840Y58500D02*X224880D01*
X225440Y59060D02*X224880Y58500D01*
X225440Y59060D02*Y61140D01*
X224880Y61700D01*
X223840D02*X224880D01*
X221280Y60100D02*X222880D01*
X218720Y58500D02*X220320D01*
X218720D02*X218320Y58900D01*
Y59860D01*
X218720Y60260D02*X218320Y59860D01*
X218720Y60260D02*X219920D01*
Y58500D02*Y61700D01*
X218720D02*X220320D01*
X218720D02*X218320Y61300D01*
Y60660D02*Y61300D01*
X218720Y60260D02*X218320Y60660D01*
X217360Y61700D02*X216560Y60100D01*
X215760Y61700D01*
X216560Y58500D02*Y60100D01*
X213200D02*X214800D01*
X210640Y61700D02*X210240Y61300D01*
X210640Y61700D02*X211840D01*
X212240Y61300D02*X211840Y61700D01*
X212240Y60500D02*Y61300D01*
Y60500D02*X211840Y60100D01*
X210640D02*X211840D01*
X210640D02*X210240Y59700D01*
Y58900D02*Y59700D01*
X210640Y58500D02*X210240Y58900D01*
X210640Y58500D02*X211840D01*
X212240Y58900D02*X211840Y58500D01*
X209280D02*Y60900D01*
X208720Y61700D01*
X207840D02*X208720D01*
X207840D02*X207280Y60900D01*
Y58500D02*Y60900D01*
Y60100D02*X209280D01*
X223717Y41380D02*X225957D01*
X224837Y36900D02*Y41380D01*
X221813Y36900D02*Y38580D01*
X221253Y39140D01*
X220133D02*X221253D01*
X222373D02*X221813Y38580D01*
X217109Y39140D02*X216549Y38580D01*
X217109Y39140D02*X218229D01*
X218789Y38580D02*X218229Y39140D01*
X218789Y37460D02*Y38580D01*
Y37460D02*X218229Y36900D01*
X216549Y37460D02*Y39140D01*
Y37460D02*X215989Y36900D01*
X217109D02*X218229D01*
X217109D02*X216549Y37460D01*
X214645Y40148D02*Y40260D01*
Y36900D02*Y38580D01*
X212965Y36900D02*Y38580D01*
X212405Y39140D01*
X211845D02*X212405D01*
X211845D02*X211285Y38580D01*
Y36900D02*Y38580D01*
X213525Y39140D02*X212965Y38580D01*
X207701Y41380D02*X207141Y40820D01*
X207701Y41380D02*X209381D01*
X209941Y40820D02*X209381Y41380D01*
X209941Y39700D02*Y40820D01*
Y39700D02*X209381Y39140D01*
X207701D02*X209381D01*
X207701D02*X207141Y38580D01*
Y37460D02*Y38580D01*
X207701Y36900D02*X207141Y37460D01*
X207701Y36900D02*X209381D01*
X209941Y37460D02*X209381Y36900D01*
X205237Y35220D02*Y38580D01*
X205797Y39140D02*X205237Y38580D01*
X204677Y39140D01*
X203557D02*X204677D01*
X203557D02*X202997Y38580D01*
Y37460D02*Y38580D01*
X203557Y36900D02*X202997Y37460D01*
X203557Y36900D02*X204677D01*
X205237Y37460D02*X204677Y36900D01*
X201653Y37460D02*Y38580D01*
X201093Y39140D01*
X199973D02*X201093D01*
X199973D02*X199413Y38580D01*
Y37460D02*Y38580D01*
X199973Y36900D02*X199413Y37460D01*
X199973Y36900D02*X201093D01*
X201653Y37460D02*X201093Y36900D01*
X197509Y37460D02*Y41380D01*
Y37460D02*X196949Y36900D01*
Y39700D02*X198069D01*
X195269Y37460D02*Y41380D01*
Y37460D02*X194709Y36900D01*
Y39700D02*X195829D01*
X191349Y36900D02*X193029D01*
X193589Y37460D02*X193029Y36900D01*
X193589Y37460D02*Y38580D01*
X193029Y39140D01*
X191909D02*X193029D01*
X191909D02*X191349Y38580D01*
Y38020D02*X193589D01*
X191349D02*Y38580D01*
X189445Y36900D02*Y38580D01*
X188885Y39140D01*
X187765D02*X188885D01*
X190005D02*X189445Y38580D01*
X227157Y30000D02*X228327D01*
X228957Y30630D02*X228327Y30000D01*
X228957Y30630D02*Y32970D01*
X228327Y33600D01*
X227157D02*X228327D01*
X226077Y30000D02*Y33600D01*
Y31800D02*X224277Y33600D01*
X226077Y31800D02*X224277Y30000D01*
X221397Y33600D02*X223197D01*
X222297Y30000D02*Y33600D01*
X218517Y31800D02*X220317D01*
X216537Y33600D02*X217437D01*
X216987Y30000D02*Y33600D01*
X216537Y30000D02*X217437D01*
X213657Y33600D02*X215457D01*
X213657D02*X213207Y33150D01*
Y32250D02*Y33150D01*
X213657Y31800D02*X213207Y32250D01*
X213657Y31800D02*X215007D01*
Y30000D02*Y33600D01*
X214287Y31800D02*X213207Y30000D01*
X210327Y33600D02*X209877Y33150D01*
X210327Y33600D02*X211677D01*
X212127Y33150D02*X211677Y33600D01*
X212127Y32250D02*Y33150D01*
Y32250D02*X211677Y31800D01*
X210327D02*X211677D01*
X210327D02*X209877Y31350D01*
Y30450D02*Y31350D01*
X210327Y30000D02*X209877Y30450D01*
X210327Y30000D02*X211677D01*
X212127Y30450D02*X211677Y30000D01*
X207447Y31980D02*X208797D01*
X206997Y30000D02*X208797D01*
Y33600D01*
X206997D02*X208797D01*
X205917Y30000D02*Y33600D01*
X203667Y30000D01*
Y33600D01*
X200787D02*X200337Y33150D01*
X200787Y33600D02*X202137D01*
X202587Y33150D02*X202137Y33600D01*
X202587Y32250D02*Y33150D01*
Y32250D02*X202137Y31800D01*
X200787D02*X202137D01*
X200787D02*X200337Y31350D01*
Y30450D02*Y31350D01*
X200787Y30000D02*X200337Y30450D01*
X200787Y30000D02*X202137D01*
X202587Y30450D02*X202137Y30000D01*
X197907Y31980D02*X199257D01*
X197457Y30000D02*X199257D01*
Y33600D01*
X197457D02*X199257D01*
X194757Y31800D02*X193857Y30000D01*
X192957Y31800D02*X193857Y30000D01*
X191877Y31350D02*X190077Y33600D01*
X189627Y31350D02*X191877D01*
X190077Y30000D02*Y33600D01*
X188097Y30000D02*X188547D01*
X187017Y32880D02*X186297Y33600D01*
Y30000D02*Y33600D01*
X185667Y30000D02*X187017D01*
X201500Y23900D02*X201100Y23500D01*
X201500Y26300D02*X201100Y26700D01*
X201500Y23900D02*Y26300D01*
X198540Y23500D02*X199580D01*
X200140Y24060D02*X199580Y23500D01*
X200140Y24060D02*Y26140D01*
X199580Y26700D01*
X198540D02*X199580D01*
X197580D02*X197180Y26300D01*
Y23900D02*Y26300D01*
X197580Y23500D02*X197180Y23900D01*
X196220Y26300D02*X195820Y26700D01*
X194620D02*X195820D01*
X194620D02*X194220Y26300D01*
Y25500D02*Y26300D01*
X196220Y23500D02*X194220Y25500D01*
Y23500D02*X196220D01*
X193260Y23900D02*X192860Y23500D01*
X193260Y23900D02*Y26300D01*
X192860Y26700D01*
X192060D02*X192860D01*
X192060D02*X191660Y26300D01*
Y23900D02*Y26300D01*
X192060Y23500D02*X191660Y23900D01*
X192060Y23500D02*X192860D01*
X193260Y24300D02*X191660Y25900D01*
X190700Y26300D02*X190300Y26700D01*
X189100D02*X190300D01*
X189100D02*X188700Y26300D01*
Y25500D02*Y26300D01*
X190700Y23500D02*X188700Y25500D01*
Y23500D02*X190700D01*
X187740Y23900D02*X187340Y23500D01*
X187740Y23900D02*Y26300D01*
X187340Y26700D01*
X186540D02*X187340D01*
X186540D02*X186140Y26300D01*
Y23900D02*Y26300D01*
X186540Y23500D02*X186140Y23900D01*
X186540Y23500D02*X187340D01*
X187740Y24300D02*X186140Y25900D01*
X226400Y23500D02*X227440D01*
X228000Y24060D02*X227440Y23500D01*
X228000Y24060D02*Y26140D01*
X227440Y26700D01*
X226400D02*X227440D01*
X223840Y23500D02*X224880D01*
X225440Y24060D02*X224880Y23500D01*
X225440Y24060D02*Y26140D01*
X224880Y26700D01*
X223840D02*X224880D01*
X221280Y25100D02*X222880D01*
X218720Y23500D02*X220320D01*
X218720D02*X218320Y23900D01*
Y24860D01*
X218720Y25260D02*X218320Y24860D01*
X218720Y25260D02*X219920D01*
Y23500D02*Y26700D01*
X218720D02*X220320D01*
X218720D02*X218320Y26300D01*
Y25660D02*Y26300D01*
X218720Y25260D02*X218320Y25660D01*
X217360Y26700D02*X216560Y25100D01*
X215760Y26700D01*
X216560Y23500D02*Y25100D01*
X213200D02*X214800D01*
X210640Y26700D02*X210240Y26300D01*
X210640Y26700D02*X211840D01*
X212240Y26300D02*X211840Y26700D01*
X212240Y25500D02*Y26300D01*
Y25500D02*X211840Y25100D01*
X210640D02*X211840D01*
X210640D02*X210240Y24700D01*
Y23900D02*Y24700D01*
X210640Y23500D02*X210240Y23900D01*
X210640Y23500D02*X211840D01*
X212240Y23900D02*X211840Y23500D01*
X209280D02*Y25900D01*
X208720Y26700D01*
X207840D02*X208720D01*
X207840D02*X207280Y25900D01*
Y23500D02*Y25900D01*
Y25100D02*X209280D01*
X261800Y246000D02*Y247500D01*
X264000Y245500D02*Y247500D01*
X260000D02*X264000D01*
X260000Y245500D02*Y247500D01*
X262500Y243800D02*X264000D01*
X262500D02*X262000Y243300D01*
Y242800D02*Y243300D01*
Y242800D02*X262500Y242300D01*
X264000D01*
X262000Y244300D02*X262500Y243800D01*
X262000Y239600D02*X262500Y239100D01*
X262000Y239600D02*Y240600D01*
X262500Y241100D02*X262000Y240600D01*
X262500Y241100D02*X263500D01*
X264000Y240600D01*
Y239600D02*Y240600D01*
Y239600D02*X263500Y239100D01*
X265000Y241100D02*X265500Y240600D01*
Y239600D02*Y240600D01*
Y239600D02*X265000Y239100D01*
X262000D02*X265000D01*
X264000Y237400D02*Y237900D01*
X261800Y211000D02*Y212500D01*
X264000Y210500D02*Y212500D01*
X260000D02*X264000D01*
X260000Y210500D02*Y212500D01*
X262500Y208800D02*X264000D01*
X262500D02*X262000Y208300D01*
Y207800D02*Y208300D01*
Y207800D02*X262500Y207300D01*
X264000D01*
X262000Y209300D02*X262500Y208800D01*
X262000Y204600D02*X262500Y204100D01*
X262000Y204600D02*Y205600D01*
X262500Y206100D02*X262000Y205600D01*
X262500Y206100D02*X263500D01*
X264000Y205600D01*
Y204600D02*Y205600D01*
Y204600D02*X263500Y204100D01*
X265000Y206100D02*X265500Y205600D01*
Y204600D02*Y205600D01*
Y204600D02*X265000Y204100D01*
X262000D02*X265000D01*
X264000Y202400D02*Y202900D01*
X261800Y176000D02*Y177500D01*
X264000Y175500D02*Y177500D01*
X260000D02*X264000D01*
X260000Y175500D02*Y177500D01*
X262500Y173800D02*X264000D01*
X262500D02*X262000Y173300D01*
Y172800D02*Y173300D01*
Y172800D02*X262500Y172300D01*
X264000D01*
X262000Y174300D02*X262500Y173800D01*
X262000Y169600D02*X262500Y169100D01*
X262000Y169600D02*Y170600D01*
X262500Y171100D02*X262000Y170600D01*
X262500Y171100D02*X263500D01*
X264000Y170600D01*
Y169600D02*Y170600D01*
Y169600D02*X263500Y169100D01*
X265000Y171100D02*X265500Y170600D01*
Y169600D02*Y170600D01*
Y169600D02*X265000Y169100D01*
X262000D02*X265000D01*
X264000Y167400D02*Y167900D01*
X253500Y249000D02*X254000Y248500D01*
X253500Y249000D02*Y250500D01*
X254000Y251000D02*X253500Y250500D01*
X254000Y251000D02*X255000D01*
X255500Y250500D01*
Y249000D02*Y250500D01*
Y249000D02*X256000Y248500D01*
X257000D01*
X257500Y249000D02*X257000Y248500D01*
X257500Y249000D02*Y250500D01*
X257000Y251000D02*X257500Y250500D01*
X255500Y245300D02*Y246800D01*
X256000Y247300D02*X255500Y246800D01*
X256000Y247300D02*X257000D01*
X257500Y246800D01*
Y245300D02*Y246800D01*
X255500Y242600D02*X256000Y242100D01*
X255500Y242600D02*Y243600D01*
X256000Y244100D02*X255500Y243600D01*
X256000Y244100D02*X257000D01*
X257500Y243600D01*
X255500Y242100D02*X257000D01*
X257500Y241600D01*
Y242600D02*Y243600D01*
Y242600D02*X257000Y242100D01*
X253500Y240400D02*X257000D01*
X257500Y239900D01*
Y236900D02*Y238400D01*
X257000Y238900D02*X257500Y238400D01*
X256000Y238900D02*X257000D01*
X256000D02*X255500Y238400D01*
Y237400D02*Y238400D01*
Y237400D02*X256000Y236900D01*
X256500D02*Y238900D01*
X256000Y236900D02*X256500D01*
X253500Y233700D02*X257500D01*
Y234200D02*X257000Y233700D01*
X257500Y234200D02*Y235200D01*
X257000Y235700D02*X257500Y235200D01*
X256000Y235700D02*X257000D01*
X256000D02*X255500Y235200D01*
Y234200D02*Y235200D01*
Y234200D02*X256000Y233700D01*
X253500Y214000D02*X254000Y213500D01*
X253500Y214000D02*Y215500D01*
X254000Y216000D02*X253500Y215500D01*
X254000Y216000D02*X255000D01*
X255500Y215500D01*
Y214000D02*Y215500D01*
Y214000D02*X256000Y213500D01*
X257000D01*
X257500Y214000D02*X257000Y213500D01*
X257500Y214000D02*Y215500D01*
X257000Y216000D02*X257500Y215500D01*
X255500Y210300D02*Y211800D01*
X256000Y212300D02*X255500Y211800D01*
X256000Y212300D02*X257000D01*
X257500Y211800D01*
Y210300D02*Y211800D01*
X255500Y207600D02*X256000Y207100D01*
X255500Y207600D02*Y208600D01*
X256000Y209100D02*X255500Y208600D01*
X256000Y209100D02*X257000D01*
X257500Y208600D01*
X255500Y207100D02*X257000D01*
X257500Y206600D01*
Y207600D02*Y208600D01*
Y207600D02*X257000Y207100D01*
X253500Y205400D02*X257000D01*
X257500Y204900D01*
Y201900D02*Y203400D01*
X257000Y203900D02*X257500Y203400D01*
X256000Y203900D02*X257000D01*
X256000D02*X255500Y203400D01*
Y202400D02*Y203400D01*
Y202400D02*X256000Y201900D01*
X256500D02*Y203900D01*
X256000Y201900D02*X256500D01*
X253500Y198700D02*X257500D01*
Y199200D02*X257000Y198700D01*
X257500Y199200D02*Y200200D01*
X257000Y200700D02*X257500Y200200D01*
X256000Y200700D02*X257000D01*
X256000D02*X255500Y200200D01*
Y199200D02*Y200200D01*
Y199200D02*X256000Y198700D01*
X253500Y179000D02*X254000Y178500D01*
X253500Y179000D02*Y180500D01*
X254000Y181000D02*X253500Y180500D01*
X254000Y181000D02*X255000D01*
X255500Y180500D01*
Y179000D02*Y180500D01*
Y179000D02*X256000Y178500D01*
X257000D01*
X257500Y179000D02*X257000Y178500D01*
X257500Y179000D02*Y180500D01*
X257000Y181000D02*X257500Y180500D01*
X255500Y175300D02*Y176800D01*
X256000Y177300D02*X255500Y176800D01*
X256000Y177300D02*X257000D01*
X257500Y176800D01*
Y175300D02*Y176800D01*
X255500Y172600D02*X256000Y172100D01*
X255500Y172600D02*Y173600D01*
X256000Y174100D02*X255500Y173600D01*
X256000Y174100D02*X257000D01*
X257500Y173600D01*
X255500Y172100D02*X257000D01*
X257500Y171600D01*
Y172600D02*Y173600D01*
Y172600D02*X257000Y172100D01*
X253500Y170400D02*X257000D01*
X257500Y169900D01*
Y166900D02*Y168400D01*
X257000Y168900D02*X257500Y168400D01*
X256000Y168900D02*X257000D01*
X256000D02*X255500Y168400D01*
Y167400D02*Y168400D01*
Y167400D02*X256000Y166900D01*
X256500D02*Y168900D01*
X256000Y166900D02*X256500D01*
X253500Y163700D02*X257500D01*
Y164200D02*X257000Y163700D01*
X257500Y164200D02*Y165200D01*
X257000Y165700D02*X257500Y165200D01*
X256000Y165700D02*X257000D01*
X256000D02*X255500Y165200D01*
Y164200D02*Y165200D01*
Y164200D02*X256000Y163700D01*
X253500Y144000D02*X254000Y143500D01*
X253500Y144000D02*Y145500D01*
X254000Y146000D02*X253500Y145500D01*
X254000Y146000D02*X255000D01*
X255500Y145500D01*
Y144000D02*Y145500D01*
Y144000D02*X256000Y143500D01*
X257000D01*
X257500Y144000D02*X257000Y143500D01*
X257500Y144000D02*Y145500D01*
X257000Y146000D02*X257500Y145500D01*
X255500Y140300D02*Y141800D01*
X256000Y142300D02*X255500Y141800D01*
X256000Y142300D02*X257000D01*
X257500Y141800D01*
Y140300D02*Y141800D01*
X255500Y137600D02*X256000Y137100D01*
X255500Y137600D02*Y138600D01*
X256000Y139100D02*X255500Y138600D01*
X256000Y139100D02*X257000D01*
X257500Y138600D01*
X255500Y137100D02*X257000D01*
X257500Y136600D01*
Y137600D02*Y138600D01*
Y137600D02*X257000Y137100D01*
X253500Y135400D02*X257000D01*
X257500Y134900D01*
Y131900D02*Y133400D01*
X257000Y133900D02*X257500Y133400D01*
X256000Y133900D02*X257000D01*
X256000D02*X255500Y133400D01*
Y132400D02*Y133400D01*
Y132400D02*X256000Y131900D01*
X256500D02*Y133900D01*
X256000Y131900D02*X256500D01*
X253500Y128700D02*X257500D01*
Y129200D02*X257000Y128700D01*
X257500Y129200D02*Y130200D01*
X257000Y130700D02*X257500Y130200D01*
X256000Y130700D02*X257000D01*
X256000D02*X255500Y130200D01*
Y129200D02*Y130200D01*
Y129200D02*X256000Y128700D01*
X253500Y109000D02*X254000Y108500D01*
X253500Y109000D02*Y110500D01*
X254000Y111000D02*X253500Y110500D01*
X254000Y111000D02*X255000D01*
X255500Y110500D01*
Y109000D02*Y110500D01*
Y109000D02*X256000Y108500D01*
X257000D01*
X257500Y109000D02*X257000Y108500D01*
X257500Y109000D02*Y110500D01*
X257000Y111000D02*X257500Y110500D01*
X255500Y105300D02*Y106800D01*
X256000Y107300D02*X255500Y106800D01*
X256000Y107300D02*X257000D01*
X257500Y106800D01*
Y105300D02*Y106800D01*
X255500Y102600D02*X256000Y102100D01*
X255500Y102600D02*Y103600D01*
X256000Y104100D02*X255500Y103600D01*
X256000Y104100D02*X257000D01*
X257500Y103600D01*
X255500Y102100D02*X257000D01*
X257500Y101600D01*
Y102600D02*Y103600D01*
Y102600D02*X257000Y102100D01*
X253500Y100400D02*X257000D01*
X257500Y99900D01*
Y96900D02*Y98400D01*
X257000Y98900D02*X257500Y98400D01*
X256000Y98900D02*X257000D01*
X256000D02*X255500Y98400D01*
Y97400D02*Y98400D01*
Y97400D02*X256000Y96900D01*
X256500D02*Y98900D01*
X256000Y96900D02*X256500D01*
X253500Y93700D02*X257500D01*
Y94200D02*X257000Y93700D01*
X257500Y94200D02*Y95200D01*
X257000Y95700D02*X257500Y95200D01*
X256000Y95700D02*X257000D01*
X256000D02*X255500Y95200D01*
Y94200D02*Y95200D01*
Y94200D02*X256000Y93700D01*
X253500Y74000D02*X254000Y73500D01*
X253500Y74000D02*Y75500D01*
X254000Y76000D02*X253500Y75500D01*
X254000Y76000D02*X255000D01*
X255500Y75500D01*
Y74000D02*Y75500D01*
Y74000D02*X256000Y73500D01*
X257000D01*
X257500Y74000D02*X257000Y73500D01*
X257500Y74000D02*Y75500D01*
X257000Y76000D02*X257500Y75500D01*
X255500Y70300D02*Y71800D01*
X256000Y72300D02*X255500Y71800D01*
X256000Y72300D02*X257000D01*
X257500Y71800D01*
Y70300D02*Y71800D01*
X255500Y67600D02*X256000Y67100D01*
X255500Y67600D02*Y68600D01*
X256000Y69100D02*X255500Y68600D01*
X256000Y69100D02*X257000D01*
X257500Y68600D01*
X255500Y67100D02*X257000D01*
X257500Y66600D01*
Y67600D02*Y68600D01*
Y67600D02*X257000Y67100D01*
X253500Y65400D02*X257000D01*
X257500Y64900D01*
Y61900D02*Y63400D01*
X257000Y63900D02*X257500Y63400D01*
X256000Y63900D02*X257000D01*
X256000D02*X255500Y63400D01*
Y62400D02*Y63400D01*
Y62400D02*X256000Y61900D01*
X256500D02*Y63900D01*
X256000Y61900D02*X256500D01*
X253500Y58700D02*X257500D01*
Y59200D02*X257000Y58700D01*
X257500Y59200D02*Y60200D01*
X257000Y60700D02*X257500Y60200D01*
X256000Y60700D02*X257000D01*
X256000D02*X255500Y60200D01*
Y59200D02*Y60200D01*
Y59200D02*X256000Y58700D01*
X247000Y247500D02*Y248500D01*
Y248000D02*X251000D01*
Y247500D02*Y248500D01*
X249500Y246300D02*X250500D01*
X249500D02*X249000Y245800D01*
Y244800D02*Y245800D01*
Y244800D02*X249500Y244300D01*
X250500D01*
X251000Y244800D02*X250500Y244300D01*
X251000Y244800D02*Y245800D01*
X250500Y246300D02*X251000Y245800D01*
X249000Y243100D02*X250500D01*
X251000Y242600D01*
Y242100D02*Y242600D01*
Y242100D02*X250500Y241600D01*
X249000D02*X250500D01*
X251000Y241100D01*
Y240600D02*Y241100D01*
Y240600D02*X250500Y240100D01*
X249000D02*X250500D01*
X249000Y237400D02*X249500Y236900D01*
X249000Y237400D02*Y238400D01*
X249500Y238900D02*X249000Y238400D01*
X249500Y238900D02*X250500D01*
X251000Y238400D01*
X249000Y236900D02*X250500D01*
X251000Y236400D01*
Y237400D02*Y238400D01*
Y237400D02*X250500Y236900D01*
X247000Y212500D02*Y213500D01*
Y213000D02*X251000D01*
Y212500D02*Y213500D01*
X249500Y211300D02*X250500D01*
X249500D02*X249000Y210800D01*
Y209800D02*Y210800D01*
Y209800D02*X249500Y209300D01*
X250500D01*
X251000Y209800D02*X250500Y209300D01*
X251000Y209800D02*Y210800D01*
X250500Y211300D02*X251000Y210800D01*
X249000Y208100D02*X250500D01*
X251000Y207600D01*
Y207100D02*Y207600D01*
Y207100D02*X250500Y206600D01*
X249000D02*X250500D01*
X251000Y206100D01*
Y205600D02*Y206100D01*
Y205600D02*X250500Y205100D01*
X249000D02*X250500D01*
X249000Y202400D02*X249500Y201900D01*
X249000Y202400D02*Y203400D01*
X249500Y203900D02*X249000Y203400D01*
X249500Y203900D02*X250500D01*
X251000Y203400D01*
X249000Y201900D02*X250500D01*
X251000Y201400D01*
Y202400D02*Y203400D01*
Y202400D02*X250500Y201900D01*
X247000Y177500D02*Y178500D01*
Y178000D02*X251000D01*
Y177500D02*Y178500D01*
X249500Y176300D02*X250500D01*
X249500D02*X249000Y175800D01*
Y174800D02*Y175800D01*
Y174800D02*X249500Y174300D01*
X250500D01*
X251000Y174800D02*X250500Y174300D01*
X251000Y174800D02*Y175800D01*
X250500Y176300D02*X251000Y175800D01*
X249000Y173100D02*X250500D01*
X251000Y172600D01*
Y172100D02*Y172600D01*
Y172100D02*X250500Y171600D01*
X249000D02*X250500D01*
X251000Y171100D01*
Y170600D02*Y171100D01*
Y170600D02*X250500Y170100D01*
X249000D02*X250500D01*
X249000Y167400D02*X249500Y166900D01*
X249000Y167400D02*Y168400D01*
X249500Y168900D02*X249000Y168400D01*
X249500Y168900D02*X250500D01*
X251000Y168400D01*
X249000Y166900D02*X250500D01*
X251000Y166400D01*
Y167400D02*Y168400D01*
Y167400D02*X250500Y166900D01*
X247000Y142500D02*Y143500D01*
Y143000D02*X251000D01*
Y142500D02*Y143500D01*
X249500Y141300D02*X250500D01*
X249500D02*X249000Y140800D01*
Y139800D02*Y140800D01*
Y139800D02*X249500Y139300D01*
X250500D01*
X251000Y139800D02*X250500Y139300D01*
X251000Y139800D02*Y140800D01*
X250500Y141300D02*X251000Y140800D01*
X249000Y138100D02*X250500D01*
X251000Y137600D01*
Y137100D02*Y137600D01*
Y137100D02*X250500Y136600D01*
X249000D02*X250500D01*
X251000Y136100D01*
Y135600D02*Y136100D01*
Y135600D02*X250500Y135100D01*
X249000D02*X250500D01*
X249000Y132400D02*X249500Y131900D01*
X249000Y132400D02*Y133400D01*
X249500Y133900D02*X249000Y133400D01*
X249500Y133900D02*X250500D01*
X251000Y133400D01*
X249000Y131900D02*X250500D01*
X251000Y131400D01*
Y132400D02*Y133400D01*
Y132400D02*X250500Y131900D01*
X247000Y107500D02*Y108500D01*
Y108000D02*X251000D01*
Y107500D02*Y108500D01*
X249500Y106300D02*X250500D01*
X249500D02*X249000Y105800D01*
Y104800D02*Y105800D01*
Y104800D02*X249500Y104300D01*
X250500D01*
X251000Y104800D02*X250500Y104300D01*
X251000Y104800D02*Y105800D01*
X250500Y106300D02*X251000Y105800D01*
X249000Y103100D02*X250500D01*
X251000Y102600D01*
Y102100D02*Y102600D01*
Y102100D02*X250500Y101600D01*
X249000D02*X250500D01*
X251000Y101100D01*
Y100600D02*Y101100D01*
Y100600D02*X250500Y100100D01*
X249000D02*X250500D01*
X249000Y97400D02*X249500Y96900D01*
X249000Y97400D02*Y98400D01*
X249500Y98900D02*X249000Y98400D01*
X249500Y98900D02*X250500D01*
X251000Y98400D01*
X249000Y96900D02*X250500D01*
X251000Y96400D01*
Y97400D02*Y98400D01*
Y97400D02*X250500Y96900D01*
X247000Y72500D02*Y73500D01*
Y73000D02*X251000D01*
Y72500D02*Y73500D01*
X249500Y71300D02*X250500D01*
X249500D02*X249000Y70800D01*
Y69800D02*Y70800D01*
Y69800D02*X249500Y69300D01*
X250500D01*
X251000Y69800D02*X250500Y69300D01*
X251000Y69800D02*Y70800D01*
X250500Y71300D02*X251000Y70800D01*
X249000Y68100D02*X250500D01*
X251000Y67600D01*
Y67100D02*Y67600D01*
Y67100D02*X250500Y66600D01*
X249000D02*X250500D01*
X251000Y66100D01*
Y65600D02*Y66100D01*
Y65600D02*X250500Y65100D01*
X249000D02*X250500D01*
X249000Y62400D02*X249500Y61900D01*
X249000Y62400D02*Y63400D01*
X249500Y63900D02*X249000Y63400D01*
X249500Y63900D02*X250500D01*
X251000Y63400D01*
X249000Y61900D02*X250500D01*
X251000Y61400D01*
Y62400D02*Y63400D01*
Y62400D02*X250500Y61900D01*
X261800Y141000D02*Y142500D01*
X264000Y140500D02*Y142500D01*
X260000D02*X264000D01*
X260000Y140500D02*Y142500D01*
X262500Y138800D02*X264000D01*
X262500D02*X262000Y138300D01*
Y137800D02*Y138300D01*
Y137800D02*X262500Y137300D01*
X264000D01*
X262000Y139300D02*X262500Y138800D01*
X262000Y134600D02*X262500Y134100D01*
X262000Y134600D02*Y135600D01*
X262500Y136100D02*X262000Y135600D01*
X262500Y136100D02*X263500D01*
X264000Y135600D01*
Y134600D02*Y135600D01*
Y134600D02*X263500Y134100D01*
X265000Y136100D02*X265500Y135600D01*
Y134600D02*Y135600D01*
Y134600D02*X265000Y134100D01*
X262000D02*X265000D01*
X264000Y132400D02*Y132900D01*
X261800Y106000D02*Y107500D01*
X264000Y105500D02*Y107500D01*
X260000D02*X264000D01*
X260000Y105500D02*Y107500D01*
X262500Y103800D02*X264000D01*
X262500D02*X262000Y103300D01*
Y102800D02*Y103300D01*
Y102800D02*X262500Y102300D01*
X264000D01*
X262000Y104300D02*X262500Y103800D01*
X262000Y99600D02*X262500Y99100D01*
X262000Y99600D02*Y100600D01*
X262500Y101100D02*X262000Y100600D01*
X262500Y101100D02*X263500D01*
X264000Y100600D01*
Y99600D02*Y100600D01*
Y99600D02*X263500Y99100D01*
X265000Y101100D02*X265500Y100600D01*
Y99600D02*Y100600D01*
Y99600D02*X265000Y99100D01*
X262000D02*X265000D01*
X264000Y97400D02*Y97900D01*
X261800Y71000D02*Y72500D01*
X264000Y70500D02*Y72500D01*
X260000D02*X264000D01*
X260000Y70500D02*Y72500D01*
X262500Y68800D02*X264000D01*
X262500D02*X262000Y68300D01*
Y67800D02*Y68300D01*
Y67800D02*X262500Y67300D01*
X264000D01*
X262000Y69300D02*X262500Y68800D01*
X262000Y64600D02*X262500Y64100D01*
X262000Y64600D02*Y65600D01*
X262500Y66100D02*X262000Y65600D01*
X262500Y66100D02*X263500D01*
X264000Y65600D01*
Y64600D02*Y65600D01*
Y64600D02*X263500Y64100D01*
X265000Y66100D02*X265500Y65600D01*
Y64600D02*Y65600D01*
Y64600D02*X265000Y64100D01*
X262000D02*X265000D01*
X264000Y62400D02*Y62900D01*
X261800Y36000D02*Y37500D01*
X264000Y35500D02*Y37500D01*
X260000D02*X264000D01*
X260000Y35500D02*Y37500D01*
X262500Y33800D02*X264000D01*
X262500D02*X262000Y33300D01*
Y32800D02*Y33300D01*
Y32800D02*X262500Y32300D01*
X264000D01*
X262000Y34300D02*X262500Y33800D01*
X262000Y29600D02*X262500Y29100D01*
X262000Y29600D02*Y30600D01*
X262500Y31100D02*X262000Y30600D01*
X262500Y31100D02*X263500D01*
X264000Y30600D01*
Y29600D02*Y30600D01*
Y29600D02*X263500Y29100D01*
X265000Y31100D02*X265500Y30600D01*
Y29600D02*Y30600D01*
Y29600D02*X265000Y29100D01*
X262000D02*X265000D01*
X264000Y27400D02*Y27900D01*
X253500Y39000D02*X254000Y38500D01*
X253500Y39000D02*Y40500D01*
X254000Y41000D02*X253500Y40500D01*
X254000Y41000D02*X255000D01*
X255500Y40500D01*
Y39000D02*Y40500D01*
Y39000D02*X256000Y38500D01*
X257000D01*
X257500Y39000D02*X257000Y38500D01*
X257500Y39000D02*Y40500D01*
X257000Y41000D02*X257500Y40500D01*
X255500Y35300D02*Y36800D01*
X256000Y37300D02*X255500Y36800D01*
X256000Y37300D02*X257000D01*
X257500Y36800D01*
Y35300D02*Y36800D01*
X255500Y32600D02*X256000Y32100D01*
X255500Y32600D02*Y33600D01*
X256000Y34100D02*X255500Y33600D01*
X256000Y34100D02*X257000D01*
X257500Y33600D01*
X255500Y32100D02*X257000D01*
X257500Y31600D01*
Y32600D02*Y33600D01*
Y32600D02*X257000Y32100D01*
X253500Y30400D02*X257000D01*
X257500Y29900D01*
Y26900D02*Y28400D01*
X257000Y28900D02*X257500Y28400D01*
X256000Y28900D02*X257000D01*
X256000D02*X255500Y28400D01*
Y27400D02*Y28400D01*
Y27400D02*X256000Y26900D01*
X256500D02*Y28900D01*
X256000Y26900D02*X256500D01*
X253500Y23700D02*X257500D01*
Y24200D02*X257000Y23700D01*
X257500Y24200D02*Y25200D01*
X257000Y25700D02*X257500Y25200D01*
X256000Y25700D02*X257000D01*
X256000D02*X255500Y25200D01*
Y24200D02*Y25200D01*
Y24200D02*X256000Y23700D01*
X247000Y37500D02*Y38500D01*
Y38000D02*X251000D01*
Y37500D02*Y38500D01*
X249500Y36300D02*X250500D01*
X249500D02*X249000Y35800D01*
Y34800D02*Y35800D01*
Y34800D02*X249500Y34300D01*
X250500D01*
X251000Y34800D02*X250500Y34300D01*
X251000Y34800D02*Y35800D01*
X250500Y36300D02*X251000Y35800D01*
X249000Y33100D02*X250500D01*
X251000Y32600D01*
Y32100D02*Y32600D01*
Y32100D02*X250500Y31600D01*
X249000D02*X250500D01*
X251000Y31100D01*
Y30600D02*Y31100D01*
Y30600D02*X250500Y30100D01*
X249000D02*X250500D01*
X249000Y27400D02*X249500Y26900D01*
X249000Y27400D02*Y28400D01*
X249500Y28900D02*X249000Y28400D01*
X249500Y28900D02*X250500D01*
X251000Y28400D01*
X249000Y26900D02*X250500D01*
X251000Y26400D01*
Y27400D02*Y28400D01*
Y27400D02*X250500Y26900D01*
X126957Y426631D02*Y426720D01*
Y424050D02*Y425385D01*
X124732Y425830D02*X124287Y425385D01*
X124732Y425830D02*X125622D01*
X126067Y425385D02*X125622Y425830D01*
X126067Y424495D02*Y425385D01*
Y424495D02*X125622Y424050D01*
X124287Y424495D02*Y425830D01*
Y424495D02*X123842Y424050D01*
X124732D02*X125622D01*
X124732D02*X124287Y424495D01*
X120994Y424050D02*X122329D01*
X120994D02*X120549Y424495D01*
X120994Y424940D02*X120549Y424495D01*
X120994Y424940D02*X122329D01*
X122774Y425385D02*X122329Y424940D01*
X122774Y425385D02*X122329Y425830D01*
X120994D02*X122329D01*
X120994D02*X120549Y425385D01*
X122774Y424495D02*X122329Y424050D01*
X117701Y425830D02*X119036D01*
X119481Y425385D02*X119036Y425830D01*
X119481Y424495D02*Y425385D01*
Y424495D02*X119036Y424050D01*
X117701D02*X119036D01*
X115298Y425830D02*X114853Y425385D01*
X115298Y425830D02*X116188D01*
X116633Y425385D02*X116188Y425830D01*
X116633Y424495D02*Y425385D01*
Y424495D02*X116188Y424050D01*
X114853Y424495D02*Y425830D01*
Y424495D02*X114408Y424050D01*
X115298D02*X116188D01*
X115298D02*X114853Y424495D01*
X113340D02*Y427610D01*
Y424495D02*X112895Y424050D01*
X110225D02*X111560D01*
X112005Y424495D02*X111560Y424050D01*
X112005Y424495D02*Y425385D01*
X111560Y425830D01*
X110670D02*X111560D01*
X110670D02*X110225Y425385D01*
Y424940D02*X112005D01*
X110225D02*Y425385D01*
X107377Y424050D02*Y427610D01*
X107822Y424050D02*X107377Y424495D01*
X107822Y424050D02*X108712D01*
X109157Y424495D02*X108712Y424050D01*
X109157Y424495D02*Y425385D01*
X108712Y425830D01*
X107822D02*X108712D01*
X107822D02*X107377Y425385D01*
X105864Y424050D02*X106309D01*
X103016Y425830D02*X104351D01*
X104796Y425385D02*X104351Y425830D01*
X104796Y424495D02*Y425385D01*
Y424495D02*X104351Y424050D01*
X103016D02*X104351D01*
X101948Y424495D02*Y425385D01*
X101503Y425830D01*
X100613D02*X101503D01*
X100613D02*X100168Y425385D01*
Y424495D02*Y425385D01*
X100613Y424050D02*X100168Y424495D01*
X100613Y424050D02*X101503D01*
X101948Y424495D02*X101503Y424050D01*
X98655D02*Y425385D01*
X98210Y425830D01*
X97765D02*X98210D01*
X97765D02*X97320Y425385D01*
Y424050D02*Y425385D01*
X96875Y425830D01*
X96430D02*X96875D01*
X96430D02*X95985Y425385D01*
Y424050D02*Y425385D01*
X99100Y425830D02*X98655Y425385D01*
X126957Y391631D02*Y391720D01*
Y389050D02*Y390385D01*
X124732Y390830D02*X124287Y390385D01*
X124732Y390830D02*X125622D01*
X126067Y390385D02*X125622Y390830D01*
X126067Y389495D02*Y390385D01*
Y389495D02*X125622Y389050D01*
X124287Y389495D02*Y390830D01*
Y389495D02*X123842Y389050D01*
X124732D02*X125622D01*
X124732D02*X124287Y389495D01*
X120994Y389050D02*X122329D01*
X120994D02*X120549Y389495D01*
X120994Y389940D02*X120549Y389495D01*
X120994Y389940D02*X122329D01*
X122774Y390385D02*X122329Y389940D01*
X122774Y390385D02*X122329Y390830D01*
X120994D02*X122329D01*
X120994D02*X120549Y390385D01*
X122774Y389495D02*X122329Y389050D01*
X117701Y390830D02*X119036D01*
X119481Y390385D02*X119036Y390830D01*
X119481Y389495D02*Y390385D01*
Y389495D02*X119036Y389050D01*
X117701D02*X119036D01*
X115298Y390830D02*X114853Y390385D01*
X115298Y390830D02*X116188D01*
X116633Y390385D02*X116188Y390830D01*
X116633Y389495D02*Y390385D01*
Y389495D02*X116188Y389050D01*
X114853Y389495D02*Y390830D01*
Y389495D02*X114408Y389050D01*
X115298D02*X116188D01*
X115298D02*X114853Y389495D01*
X113340D02*Y392610D01*
Y389495D02*X112895Y389050D01*
X110225D02*X111560D01*
X112005Y389495D02*X111560Y389050D01*
X112005Y389495D02*Y390385D01*
X111560Y390830D01*
X110670D02*X111560D01*
X110670D02*X110225Y390385D01*
Y389940D02*X112005D01*
X110225D02*Y390385D01*
X107377Y389050D02*Y392610D01*
X107822Y389050D02*X107377Y389495D01*
X107822Y389050D02*X108712D01*
X109157Y389495D02*X108712Y389050D01*
X109157Y389495D02*Y390385D01*
X108712Y390830D01*
X107822D02*X108712D01*
X107822D02*X107377Y390385D01*
X105864Y389050D02*X106309D01*
X103016Y390830D02*X104351D01*
X104796Y390385D02*X104351Y390830D01*
X104796Y389495D02*Y390385D01*
Y389495D02*X104351Y389050D01*
X103016D02*X104351D01*
X101948Y389495D02*Y390385D01*
X101503Y390830D01*
X100613D02*X101503D01*
X100613D02*X100168Y390385D01*
Y389495D02*Y390385D01*
X100613Y389050D02*X100168Y389495D01*
X100613Y389050D02*X101503D01*
X101948Y389495D02*X101503Y389050D01*
X98655D02*Y390385D01*
X98210Y390830D01*
X97765D02*X98210D01*
X97765D02*X97320Y390385D01*
Y389050D02*Y390385D01*
X96875Y390830D01*
X96430D02*X96875D01*
X96430D02*X95985Y390385D01*
Y389050D02*Y390385D01*
X99100Y390830D02*X98655Y390385D01*
X126957Y356631D02*Y356720D01*
Y354050D02*Y355385D01*
X124732Y355830D02*X124287Y355385D01*
X124732Y355830D02*X125622D01*
X126067Y355385D02*X125622Y355830D01*
X126067Y354495D02*Y355385D01*
Y354495D02*X125622Y354050D01*
X124287Y354495D02*Y355830D01*
Y354495D02*X123842Y354050D01*
X124732D02*X125622D01*
X124732D02*X124287Y354495D01*
X120994Y354050D02*X122329D01*
X120994D02*X120549Y354495D01*
X120994Y354940D02*X120549Y354495D01*
X120994Y354940D02*X122329D01*
X122774Y355385D02*X122329Y354940D01*
X122774Y355385D02*X122329Y355830D01*
X120994D02*X122329D01*
X120994D02*X120549Y355385D01*
X122774Y354495D02*X122329Y354050D01*
X117701Y355830D02*X119036D01*
X119481Y355385D02*X119036Y355830D01*
X119481Y354495D02*Y355385D01*
Y354495D02*X119036Y354050D01*
X117701D02*X119036D01*
X115298Y355830D02*X114853Y355385D01*
X115298Y355830D02*X116188D01*
X116633Y355385D02*X116188Y355830D01*
X116633Y354495D02*Y355385D01*
Y354495D02*X116188Y354050D01*
X114853Y354495D02*Y355830D01*
Y354495D02*X114408Y354050D01*
X115298D02*X116188D01*
X115298D02*X114853Y354495D01*
X113340D02*Y357610D01*
Y354495D02*X112895Y354050D01*
X110225D02*X111560D01*
X112005Y354495D02*X111560Y354050D01*
X112005Y354495D02*Y355385D01*
X111560Y355830D01*
X110670D02*X111560D01*
X110670D02*X110225Y355385D01*
Y354940D02*X112005D01*
X110225D02*Y355385D01*
X107377Y354050D02*Y357610D01*
X107822Y354050D02*X107377Y354495D01*
X107822Y354050D02*X108712D01*
X109157Y354495D02*X108712Y354050D01*
X109157Y354495D02*Y355385D01*
X108712Y355830D01*
X107822D02*X108712D01*
X107822D02*X107377Y355385D01*
X105864Y354050D02*X106309D01*
X103016Y355830D02*X104351D01*
X104796Y355385D02*X104351Y355830D01*
X104796Y354495D02*Y355385D01*
Y354495D02*X104351Y354050D01*
X103016D02*X104351D01*
X101948Y354495D02*Y355385D01*
X101503Y355830D01*
X100613D02*X101503D01*
X100613D02*X100168Y355385D01*
Y354495D02*Y355385D01*
X100613Y354050D02*X100168Y354495D01*
X100613Y354050D02*X101503D01*
X101948Y354495D02*X101503Y354050D01*
X98655D02*Y355385D01*
X98210Y355830D01*
X97765D02*X98210D01*
X97765D02*X97320Y355385D01*
Y354050D02*Y355385D01*
X96875Y355830D01*
X96430D02*X96875D01*
X96430D02*X95985Y355385D01*
Y354050D02*Y355385D01*
X99100Y355830D02*X98655Y355385D01*
X126957Y321631D02*Y321720D01*
Y319050D02*Y320385D01*
X124732Y320830D02*X124287Y320385D01*
X124732Y320830D02*X125622D01*
X126067Y320385D02*X125622Y320830D01*
X126067Y319495D02*Y320385D01*
Y319495D02*X125622Y319050D01*
X124287Y319495D02*Y320830D01*
Y319495D02*X123842Y319050D01*
X124732D02*X125622D01*
X124732D02*X124287Y319495D01*
X120994Y319050D02*X122329D01*
X120994D02*X120549Y319495D01*
X120994Y319940D02*X120549Y319495D01*
X120994Y319940D02*X122329D01*
X122774Y320385D02*X122329Y319940D01*
X122774Y320385D02*X122329Y320830D01*
X120994D02*X122329D01*
X120994D02*X120549Y320385D01*
X122774Y319495D02*X122329Y319050D01*
X117701Y320830D02*X119036D01*
X119481Y320385D02*X119036Y320830D01*
X119481Y319495D02*Y320385D01*
Y319495D02*X119036Y319050D01*
X117701D02*X119036D01*
X115298Y320830D02*X114853Y320385D01*
X115298Y320830D02*X116188D01*
X116633Y320385D02*X116188Y320830D01*
X116633Y319495D02*Y320385D01*
Y319495D02*X116188Y319050D01*
X114853Y319495D02*Y320830D01*
Y319495D02*X114408Y319050D01*
X115298D02*X116188D01*
X115298D02*X114853Y319495D01*
X113340D02*Y322610D01*
Y319495D02*X112895Y319050D01*
X110225D02*X111560D01*
X112005Y319495D02*X111560Y319050D01*
X112005Y319495D02*Y320385D01*
X111560Y320830D01*
X110670D02*X111560D01*
X110670D02*X110225Y320385D01*
Y319940D02*X112005D01*
X110225D02*Y320385D01*
X107377Y319050D02*Y322610D01*
X107822Y319050D02*X107377Y319495D01*
X107822Y319050D02*X108712D01*
X109157Y319495D02*X108712Y319050D01*
X109157Y319495D02*Y320385D01*
X108712Y320830D01*
X107822D02*X108712D01*
X107822D02*X107377Y320385D01*
X105864Y319050D02*X106309D01*
X103016Y320830D02*X104351D01*
X104796Y320385D02*X104351Y320830D01*
X104796Y319495D02*Y320385D01*
Y319495D02*X104351Y319050D01*
X103016D02*X104351D01*
X101948Y319495D02*Y320385D01*
X101503Y320830D01*
X100613D02*X101503D01*
X100613D02*X100168Y320385D01*
Y319495D02*Y320385D01*
X100613Y319050D02*X100168Y319495D01*
X100613Y319050D02*X101503D01*
X101948Y319495D02*X101503Y319050D01*
X98655D02*Y320385D01*
X98210Y320830D01*
X97765D02*X98210D01*
X97765D02*X97320Y320385D01*
Y319050D02*Y320385D01*
X96875Y320830D01*
X96430D02*X96875D01*
X96430D02*X95985Y320385D01*
Y319050D02*Y320385D01*
X99100Y320830D02*X98655Y320385D01*
X126957Y286631D02*Y286720D01*
Y284050D02*Y285385D01*
X124732Y285830D02*X124287Y285385D01*
X124732Y285830D02*X125622D01*
X126067Y285385D02*X125622Y285830D01*
X126067Y284495D02*Y285385D01*
Y284495D02*X125622Y284050D01*
X124287Y284495D02*Y285830D01*
Y284495D02*X123842Y284050D01*
X124732D02*X125622D01*
X124732D02*X124287Y284495D01*
X120994Y284050D02*X122329D01*
X120994D02*X120549Y284495D01*
X120994Y284940D02*X120549Y284495D01*
X120994Y284940D02*X122329D01*
X122774Y285385D02*X122329Y284940D01*
X122774Y285385D02*X122329Y285830D01*
X120994D02*X122329D01*
X120994D02*X120549Y285385D01*
X122774Y284495D02*X122329Y284050D01*
X117701Y285830D02*X119036D01*
X119481Y285385D02*X119036Y285830D01*
X119481Y284495D02*Y285385D01*
Y284495D02*X119036Y284050D01*
X117701D02*X119036D01*
X115298Y285830D02*X114853Y285385D01*
X115298Y285830D02*X116188D01*
X116633Y285385D02*X116188Y285830D01*
X116633Y284495D02*Y285385D01*
Y284495D02*X116188Y284050D01*
X114853Y284495D02*Y285830D01*
Y284495D02*X114408Y284050D01*
X115298D02*X116188D01*
X115298D02*X114853Y284495D01*
X113340D02*Y287610D01*
Y284495D02*X112895Y284050D01*
X110225D02*X111560D01*
X112005Y284495D02*X111560Y284050D01*
X112005Y284495D02*Y285385D01*
X111560Y285830D01*
X110670D02*X111560D01*
X110670D02*X110225Y285385D01*
Y284940D02*X112005D01*
X110225D02*Y285385D01*
X107377Y284050D02*Y287610D01*
X107822Y284050D02*X107377Y284495D01*
X107822Y284050D02*X108712D01*
X109157Y284495D02*X108712Y284050D01*
X109157Y284495D02*Y285385D01*
X108712Y285830D01*
X107822D02*X108712D01*
X107822D02*X107377Y285385D01*
X105864Y284050D02*X106309D01*
X103016Y285830D02*X104351D01*
X104796Y285385D02*X104351Y285830D01*
X104796Y284495D02*Y285385D01*
Y284495D02*X104351Y284050D01*
X103016D02*X104351D01*
X101948Y284495D02*Y285385D01*
X101503Y285830D01*
X100613D02*X101503D01*
X100613D02*X100168Y285385D01*
Y284495D02*Y285385D01*
X100613Y284050D02*X100168Y284495D01*
X100613Y284050D02*X101503D01*
X101948Y284495D02*X101503Y284050D01*
X98655D02*Y285385D01*
X98210Y285830D01*
X97765D02*X98210D01*
X97765D02*X97320Y285385D01*
Y284050D02*Y285385D01*
X96875Y285830D01*
X96430D02*X96875D01*
X96430D02*X95985Y285385D01*
Y284050D02*Y285385D01*
X99100Y285830D02*X98655Y285385D01*
X126957Y251631D02*Y251720D01*
Y249050D02*Y250385D01*
X124732Y250830D02*X124287Y250385D01*
X124732Y250830D02*X125622D01*
X126067Y250385D02*X125622Y250830D01*
X126067Y249495D02*Y250385D01*
Y249495D02*X125622Y249050D01*
X124287Y249495D02*Y250830D01*
Y249495D02*X123842Y249050D01*
X124732D02*X125622D01*
X124732D02*X124287Y249495D01*
X120994Y249050D02*X122329D01*
X120994D02*X120549Y249495D01*
X120994Y249940D02*X120549Y249495D01*
X120994Y249940D02*X122329D01*
X122774Y250385D02*X122329Y249940D01*
X122774Y250385D02*X122329Y250830D01*
X120994D02*X122329D01*
X120994D02*X120549Y250385D01*
X122774Y249495D02*X122329Y249050D01*
X117701Y250830D02*X119036D01*
X119481Y250385D02*X119036Y250830D01*
X119481Y249495D02*Y250385D01*
Y249495D02*X119036Y249050D01*
X117701D02*X119036D01*
X115298Y250830D02*X114853Y250385D01*
X115298Y250830D02*X116188D01*
X116633Y250385D02*X116188Y250830D01*
X116633Y249495D02*Y250385D01*
Y249495D02*X116188Y249050D01*
X114853Y249495D02*Y250830D01*
Y249495D02*X114408Y249050D01*
X115298D02*X116188D01*
X115298D02*X114853Y249495D01*
X113340D02*Y252610D01*
Y249495D02*X112895Y249050D01*
X110225D02*X111560D01*
X112005Y249495D02*X111560Y249050D01*
X112005Y249495D02*Y250385D01*
X111560Y250830D01*
X110670D02*X111560D01*
X110670D02*X110225Y250385D01*
Y249940D02*X112005D01*
X110225D02*Y250385D01*
X107377Y249050D02*Y252610D01*
X107822Y249050D02*X107377Y249495D01*
X107822Y249050D02*X108712D01*
X109157Y249495D02*X108712Y249050D01*
X109157Y249495D02*Y250385D01*
X108712Y250830D01*
X107822D02*X108712D01*
X107822D02*X107377Y250385D01*
X105864Y249050D02*X106309D01*
X103016Y250830D02*X104351D01*
X104796Y250385D02*X104351Y250830D01*
X104796Y249495D02*Y250385D01*
Y249495D02*X104351Y249050D01*
X103016D02*X104351D01*
X101948Y249495D02*Y250385D01*
X101503Y250830D01*
X100613D02*X101503D01*
X100613D02*X100168Y250385D01*
Y249495D02*Y250385D01*
X100613Y249050D02*X100168Y249495D01*
X100613Y249050D02*X101503D01*
X101948Y249495D02*X101503Y249050D01*
X98655D02*Y250385D01*
X98210Y250830D01*
X97765D02*X98210D01*
X97765D02*X97320Y250385D01*
Y249050D02*Y250385D01*
X96875Y250830D01*
X96430D02*X96875D01*
X96430D02*X95985Y250385D01*
Y249050D02*Y250385D01*
X99100Y250830D02*X98655Y250385D01*
X126957Y216631D02*Y216720D01*
Y214050D02*Y215385D01*
X124732Y215830D02*X124287Y215385D01*
X124732Y215830D02*X125622D01*
X126067Y215385D02*X125622Y215830D01*
X126067Y214495D02*Y215385D01*
Y214495D02*X125622Y214050D01*
X124287Y214495D02*Y215830D01*
Y214495D02*X123842Y214050D01*
X124732D02*X125622D01*
X124732D02*X124287Y214495D01*
X120994Y214050D02*X122329D01*
X120994D02*X120549Y214495D01*
X120994Y214940D02*X120549Y214495D01*
X120994Y214940D02*X122329D01*
X122774Y215385D02*X122329Y214940D01*
X122774Y215385D02*X122329Y215830D01*
X120994D02*X122329D01*
X120994D02*X120549Y215385D01*
X122774Y214495D02*X122329Y214050D01*
X117701Y215830D02*X119036D01*
X119481Y215385D02*X119036Y215830D01*
X119481Y214495D02*Y215385D01*
Y214495D02*X119036Y214050D01*
X117701D02*X119036D01*
X115298Y215830D02*X114853Y215385D01*
X115298Y215830D02*X116188D01*
X116633Y215385D02*X116188Y215830D01*
X116633Y214495D02*Y215385D01*
Y214495D02*X116188Y214050D01*
X114853Y214495D02*Y215830D01*
Y214495D02*X114408Y214050D01*
X115298D02*X116188D01*
X115298D02*X114853Y214495D01*
X113340D02*Y217610D01*
Y214495D02*X112895Y214050D01*
X110225D02*X111560D01*
X112005Y214495D02*X111560Y214050D01*
X112005Y214495D02*Y215385D01*
X111560Y215830D01*
X110670D02*X111560D01*
X110670D02*X110225Y215385D01*
Y214940D02*X112005D01*
X110225D02*Y215385D01*
X107377Y214050D02*Y217610D01*
X107822Y214050D02*X107377Y214495D01*
X107822Y214050D02*X108712D01*
X109157Y214495D02*X108712Y214050D01*
X109157Y214495D02*Y215385D01*
X108712Y215830D01*
X107822D02*X108712D01*
X107822D02*X107377Y215385D01*
X105864Y214050D02*X106309D01*
X103016Y215830D02*X104351D01*
X104796Y215385D02*X104351Y215830D01*
X104796Y214495D02*Y215385D01*
Y214495D02*X104351Y214050D01*
X103016D02*X104351D01*
X101948Y214495D02*Y215385D01*
X101503Y215830D01*
X100613D02*X101503D01*
X100613D02*X100168Y215385D01*
Y214495D02*Y215385D01*
X100613Y214050D02*X100168Y214495D01*
X100613Y214050D02*X101503D01*
X101948Y214495D02*X101503Y214050D01*
X98655D02*Y215385D01*
X98210Y215830D01*
X97765D02*X98210D01*
X97765D02*X97320Y215385D01*
Y214050D02*Y215385D01*
X96875Y215830D01*
X96430D02*X96875D01*
X96430D02*X95985Y215385D01*
Y214050D02*Y215385D01*
X99100Y215830D02*X98655Y215385D01*
X126957Y181631D02*Y181720D01*
Y179050D02*Y180385D01*
X124732Y180830D02*X124287Y180385D01*
X124732Y180830D02*X125622D01*
X126067Y180385D02*X125622Y180830D01*
X126067Y179495D02*Y180385D01*
Y179495D02*X125622Y179050D01*
X124287Y179495D02*Y180830D01*
Y179495D02*X123842Y179050D01*
X124732D02*X125622D01*
X124732D02*X124287Y179495D01*
X120994Y179050D02*X122329D01*
X120994D02*X120549Y179495D01*
X120994Y179940D02*X120549Y179495D01*
X120994Y179940D02*X122329D01*
X122774Y180385D02*X122329Y179940D01*
X122774Y180385D02*X122329Y180830D01*
X120994D02*X122329D01*
X120994D02*X120549Y180385D01*
X122774Y179495D02*X122329Y179050D01*
X117701Y180830D02*X119036D01*
X119481Y180385D02*X119036Y180830D01*
X119481Y179495D02*Y180385D01*
Y179495D02*X119036Y179050D01*
X117701D02*X119036D01*
X115298Y180830D02*X114853Y180385D01*
X115298Y180830D02*X116188D01*
X116633Y180385D02*X116188Y180830D01*
X116633Y179495D02*Y180385D01*
Y179495D02*X116188Y179050D01*
X114853Y179495D02*Y180830D01*
Y179495D02*X114408Y179050D01*
X115298D02*X116188D01*
X115298D02*X114853Y179495D01*
X113340D02*Y182610D01*
Y179495D02*X112895Y179050D01*
X110225D02*X111560D01*
X112005Y179495D02*X111560Y179050D01*
X112005Y179495D02*Y180385D01*
X111560Y180830D01*
X110670D02*X111560D01*
X110670D02*X110225Y180385D01*
Y179940D02*X112005D01*
X110225D02*Y180385D01*
X107377Y179050D02*Y182610D01*
X107822Y179050D02*X107377Y179495D01*
X107822Y179050D02*X108712D01*
X109157Y179495D02*X108712Y179050D01*
X109157Y179495D02*Y180385D01*
X108712Y180830D01*
X107822D02*X108712D01*
X107822D02*X107377Y180385D01*
X105864Y179050D02*X106309D01*
X103016Y180830D02*X104351D01*
X104796Y180385D02*X104351Y180830D01*
X104796Y179495D02*Y180385D01*
Y179495D02*X104351Y179050D01*
X103016D02*X104351D01*
X101948Y179495D02*Y180385D01*
X101503Y180830D01*
X100613D02*X101503D01*
X100613D02*X100168Y180385D01*
Y179495D02*Y180385D01*
X100613Y179050D02*X100168Y179495D01*
X100613Y179050D02*X101503D01*
X101948Y179495D02*X101503Y179050D01*
X98655D02*Y180385D01*
X98210Y180830D01*
X97765D02*X98210D01*
X97765D02*X97320Y180385D01*
Y179050D02*Y180385D01*
X96875Y180830D01*
X96430D02*X96875D01*
X96430D02*X95985Y180385D01*
Y179050D02*Y180385D01*
X99100Y180830D02*X98655Y180385D01*
X126957Y146631D02*Y146720D01*
Y144050D02*Y145385D01*
X124732Y145830D02*X124287Y145385D01*
X124732Y145830D02*X125622D01*
X126067Y145385D02*X125622Y145830D01*
X126067Y144495D02*Y145385D01*
Y144495D02*X125622Y144050D01*
X124287Y144495D02*Y145830D01*
Y144495D02*X123842Y144050D01*
X124732D02*X125622D01*
X124732D02*X124287Y144495D01*
X120994Y144050D02*X122329D01*
X120994D02*X120549Y144495D01*
X120994Y144940D02*X120549Y144495D01*
X120994Y144940D02*X122329D01*
X122774Y145385D02*X122329Y144940D01*
X122774Y145385D02*X122329Y145830D01*
X120994D02*X122329D01*
X120994D02*X120549Y145385D01*
X122774Y144495D02*X122329Y144050D01*
X117701Y145830D02*X119036D01*
X119481Y145385D02*X119036Y145830D01*
X119481Y144495D02*Y145385D01*
Y144495D02*X119036Y144050D01*
X117701D02*X119036D01*
X115298Y145830D02*X114853Y145385D01*
X115298Y145830D02*X116188D01*
X116633Y145385D02*X116188Y145830D01*
X116633Y144495D02*Y145385D01*
Y144495D02*X116188Y144050D01*
X114853Y144495D02*Y145830D01*
Y144495D02*X114408Y144050D01*
X115298D02*X116188D01*
X115298D02*X114853Y144495D01*
X113340D02*Y147610D01*
Y144495D02*X112895Y144050D01*
X110225D02*X111560D01*
X112005Y144495D02*X111560Y144050D01*
X112005Y144495D02*Y145385D01*
X111560Y145830D01*
X110670D02*X111560D01*
X110670D02*X110225Y145385D01*
Y144940D02*X112005D01*
X110225D02*Y145385D01*
X107377Y144050D02*Y147610D01*
X107822Y144050D02*X107377Y144495D01*
X107822Y144050D02*X108712D01*
X109157Y144495D02*X108712Y144050D01*
X109157Y144495D02*Y145385D01*
X108712Y145830D01*
X107822D02*X108712D01*
X107822D02*X107377Y145385D01*
X105864Y144050D02*X106309D01*
X103016Y145830D02*X104351D01*
X104796Y145385D02*X104351Y145830D01*
X104796Y144495D02*Y145385D01*
Y144495D02*X104351Y144050D01*
X103016D02*X104351D01*
X101948Y144495D02*Y145385D01*
X101503Y145830D01*
X100613D02*X101503D01*
X100613D02*X100168Y145385D01*
Y144495D02*Y145385D01*
X100613Y144050D02*X100168Y144495D01*
X100613Y144050D02*X101503D01*
X101948Y144495D02*X101503Y144050D01*
X98655D02*Y145385D01*
X98210Y145830D01*
X97765D02*X98210D01*
X97765D02*X97320Y145385D01*
Y144050D02*Y145385D01*
X96875Y145830D01*
X96430D02*X96875D01*
X96430D02*X95985Y145385D01*
Y144050D02*Y145385D01*
X99100Y145830D02*X98655Y145385D01*
X126957Y111631D02*Y111720D01*
Y109050D02*Y110385D01*
X124732Y110830D02*X124287Y110385D01*
X124732Y110830D02*X125622D01*
X126067Y110385D02*X125622Y110830D01*
X126067Y109495D02*Y110385D01*
Y109495D02*X125622Y109050D01*
X124287Y109495D02*Y110830D01*
Y109495D02*X123842Y109050D01*
X124732D02*X125622D01*
X124732D02*X124287Y109495D01*
X120994Y109050D02*X122329D01*
X120994D02*X120549Y109495D01*
X120994Y109940D02*X120549Y109495D01*
X120994Y109940D02*X122329D01*
X122774Y110385D02*X122329Y109940D01*
X122774Y110385D02*X122329Y110830D01*
X120994D02*X122329D01*
X120994D02*X120549Y110385D01*
X122774Y109495D02*X122329Y109050D01*
X117701Y110830D02*X119036D01*
X119481Y110385D02*X119036Y110830D01*
X119481Y109495D02*Y110385D01*
Y109495D02*X119036Y109050D01*
X117701D02*X119036D01*
X115298Y110830D02*X114853Y110385D01*
X115298Y110830D02*X116188D01*
X116633Y110385D02*X116188Y110830D01*
X116633Y109495D02*Y110385D01*
Y109495D02*X116188Y109050D01*
X114853Y109495D02*Y110830D01*
Y109495D02*X114408Y109050D01*
X115298D02*X116188D01*
X115298D02*X114853Y109495D01*
X113340D02*Y112610D01*
Y109495D02*X112895Y109050D01*
X110225D02*X111560D01*
X112005Y109495D02*X111560Y109050D01*
X112005Y109495D02*Y110385D01*
X111560Y110830D01*
X110670D02*X111560D01*
X110670D02*X110225Y110385D01*
Y109940D02*X112005D01*
X110225D02*Y110385D01*
X107377Y109050D02*Y112610D01*
X107822Y109050D02*X107377Y109495D01*
X107822Y109050D02*X108712D01*
X109157Y109495D02*X108712Y109050D01*
X109157Y109495D02*Y110385D01*
X108712Y110830D01*
X107822D02*X108712D01*
X107822D02*X107377Y110385D01*
X105864Y109050D02*X106309D01*
X103016Y110830D02*X104351D01*
X104796Y110385D02*X104351Y110830D01*
X104796Y109495D02*Y110385D01*
Y109495D02*X104351Y109050D01*
X103016D02*X104351D01*
X101948Y109495D02*Y110385D01*
X101503Y110830D01*
X100613D02*X101503D01*
X100613D02*X100168Y110385D01*
Y109495D02*Y110385D01*
X100613Y109050D02*X100168Y109495D01*
X100613Y109050D02*X101503D01*
X101948Y109495D02*X101503Y109050D01*
X98655D02*Y110385D01*
X98210Y110830D01*
X97765D02*X98210D01*
X97765D02*X97320Y110385D01*
Y109050D02*Y110385D01*
X96875Y110830D01*
X96430D02*X96875D01*
X96430D02*X95985Y110385D01*
Y109050D02*Y110385D01*
X99100Y110830D02*X98655Y110385D01*
X126957Y76631D02*Y76720D01*
Y74050D02*Y75385D01*
X124732Y75830D02*X124287Y75385D01*
X124732Y75830D02*X125622D01*
X126067Y75385D02*X125622Y75830D01*
X126067Y74495D02*Y75385D01*
Y74495D02*X125622Y74050D01*
X124287Y74495D02*Y75830D01*
Y74495D02*X123842Y74050D01*
X124732D02*X125622D01*
X124732D02*X124287Y74495D01*
X120994Y74050D02*X122329D01*
X120994D02*X120549Y74495D01*
X120994Y74940D02*X120549Y74495D01*
X120994Y74940D02*X122329D01*
X122774Y75385D02*X122329Y74940D01*
X122774Y75385D02*X122329Y75830D01*
X120994D02*X122329D01*
X120994D02*X120549Y75385D01*
X122774Y74495D02*X122329Y74050D01*
X117701Y75830D02*X119036D01*
X119481Y75385D02*X119036Y75830D01*
X119481Y74495D02*Y75385D01*
Y74495D02*X119036Y74050D01*
X117701D02*X119036D01*
X115298Y75830D02*X114853Y75385D01*
X115298Y75830D02*X116188D01*
X116633Y75385D02*X116188Y75830D01*
X116633Y74495D02*Y75385D01*
Y74495D02*X116188Y74050D01*
X114853Y74495D02*Y75830D01*
Y74495D02*X114408Y74050D01*
X115298D02*X116188D01*
X115298D02*X114853Y74495D01*
X113340D02*Y77610D01*
Y74495D02*X112895Y74050D01*
X110225D02*X111560D01*
X112005Y74495D02*X111560Y74050D01*
X112005Y74495D02*Y75385D01*
X111560Y75830D01*
X110670D02*X111560D01*
X110670D02*X110225Y75385D01*
Y74940D02*X112005D01*
X110225D02*Y75385D01*
X107377Y74050D02*Y77610D01*
X107822Y74050D02*X107377Y74495D01*
X107822Y74050D02*X108712D01*
X109157Y74495D02*X108712Y74050D01*
X109157Y74495D02*Y75385D01*
X108712Y75830D01*
X107822D02*X108712D01*
X107822D02*X107377Y75385D01*
X105864Y74050D02*X106309D01*
X103016Y75830D02*X104351D01*
X104796Y75385D02*X104351Y75830D01*
X104796Y74495D02*Y75385D01*
Y74495D02*X104351Y74050D01*
X103016D02*X104351D01*
X101948Y74495D02*Y75385D01*
X101503Y75830D01*
X100613D02*X101503D01*
X100613D02*X100168Y75385D01*
Y74495D02*Y75385D01*
X100613Y74050D02*X100168Y74495D01*
X100613Y74050D02*X101503D01*
X101948Y74495D02*X101503Y74050D01*
X98655D02*Y75385D01*
X98210Y75830D01*
X97765D02*X98210D01*
X97765D02*X97320Y75385D01*
Y74050D02*Y75385D01*
X96875Y75830D01*
X96430D02*X96875D01*
X96430D02*X95985Y75385D01*
Y74050D02*Y75385D01*
X99100Y75830D02*X98655Y75385D01*
X126957Y41631D02*Y41720D01*
Y39050D02*Y40385D01*
X124732Y40830D02*X124287Y40385D01*
X124732Y40830D02*X125622D01*
X126067Y40385D02*X125622Y40830D01*
X126067Y39495D02*Y40385D01*
Y39495D02*X125622Y39050D01*
X124287Y39495D02*Y40830D01*
Y39495D02*X123842Y39050D01*
X124732D02*X125622D01*
X124732D02*X124287Y39495D01*
X120994Y39050D02*X122329D01*
X120994D02*X120549Y39495D01*
X120994Y39940D02*X120549Y39495D01*
X120994Y39940D02*X122329D01*
X122774Y40385D02*X122329Y39940D01*
X122774Y40385D02*X122329Y40830D01*
X120994D02*X122329D01*
X120994D02*X120549Y40385D01*
X122774Y39495D02*X122329Y39050D01*
X117701Y40830D02*X119036D01*
X119481Y40385D02*X119036Y40830D01*
X119481Y39495D02*Y40385D01*
Y39495D02*X119036Y39050D01*
X117701D02*X119036D01*
X115298Y40830D02*X114853Y40385D01*
X115298Y40830D02*X116188D01*
X116633Y40385D02*X116188Y40830D01*
X116633Y39495D02*Y40385D01*
Y39495D02*X116188Y39050D01*
X114853Y39495D02*Y40830D01*
Y39495D02*X114408Y39050D01*
X115298D02*X116188D01*
X115298D02*X114853Y39495D01*
X113340D02*Y42610D01*
Y39495D02*X112895Y39050D01*
X110225D02*X111560D01*
X112005Y39495D02*X111560Y39050D01*
X112005Y39495D02*Y40385D01*
X111560Y40830D01*
X110670D02*X111560D01*
X110670D02*X110225Y40385D01*
Y39940D02*X112005D01*
X110225D02*Y40385D01*
X107377Y39050D02*Y42610D01*
X107822Y39050D02*X107377Y39495D01*
X107822Y39050D02*X108712D01*
X109157Y39495D02*X108712Y39050D01*
X109157Y39495D02*Y40385D01*
X108712Y40830D01*
X107822D02*X108712D01*
X107822D02*X107377Y40385D01*
X105864Y39050D02*X106309D01*
X103016Y40830D02*X104351D01*
X104796Y40385D02*X104351Y40830D01*
X104796Y39495D02*Y40385D01*
Y39495D02*X104351Y39050D01*
X103016D02*X104351D01*
X101948Y39495D02*Y40385D01*
X101503Y40830D01*
X100613D02*X101503D01*
X100613D02*X100168Y40385D01*
Y39495D02*Y40385D01*
X100613Y39050D02*X100168Y39495D01*
X100613Y39050D02*X101503D01*
X101948Y39495D02*X101503Y39050D01*
X98655D02*Y40385D01*
X98210Y40830D01*
X97765D02*X98210D01*
X97765D02*X97320Y40385D01*
Y39050D02*Y40385D01*
X96875Y40830D01*
X96430D02*X96875D01*
X96430D02*X95985Y40385D01*
Y39050D02*Y40385D01*
X99100Y40830D02*X98655Y40385D01*
X223717Y426380D02*X225957D01*
X224837Y421900D02*Y426380D01*
X221813Y421900D02*Y423580D01*
X221253Y424140D01*
X220133D02*X221253D01*
X222373D02*X221813Y423580D01*
X217109Y424140D02*X216549Y423580D01*
X217109Y424140D02*X218229D01*
X218789Y423580D02*X218229Y424140D01*
X218789Y422460D02*Y423580D01*
Y422460D02*X218229Y421900D01*
X216549Y422460D02*Y424140D01*
Y422460D02*X215989Y421900D01*
X217109D02*X218229D01*
X217109D02*X216549Y422460D01*
X214645Y425148D02*Y425260D01*
Y421900D02*Y423580D01*
X212965Y421900D02*Y423580D01*
X212405Y424140D01*
X211845D02*X212405D01*
X211845D02*X211285Y423580D01*
Y421900D02*Y423580D01*
X213525Y424140D02*X212965Y423580D01*
X207701Y426380D02*X207141Y425820D01*
X207701Y426380D02*X209381D01*
X209941Y425820D02*X209381Y426380D01*
X209941Y424700D02*Y425820D01*
Y424700D02*X209381Y424140D01*
X207701D02*X209381D01*
X207701D02*X207141Y423580D01*
Y422460D02*Y423580D01*
X207701Y421900D02*X207141Y422460D01*
X207701Y421900D02*X209381D01*
X209941Y422460D02*X209381Y421900D01*
X205237Y420220D02*Y423580D01*
X205797Y424140D02*X205237Y423580D01*
X204677Y424140D01*
X203557D02*X204677D01*
X203557D02*X202997Y423580D01*
Y422460D02*Y423580D01*
X203557Y421900D02*X202997Y422460D01*
X203557Y421900D02*X204677D01*
X205237Y422460D02*X204677Y421900D01*
X201653Y422460D02*Y423580D01*
X201093Y424140D01*
X199973D02*X201093D01*
X199973D02*X199413Y423580D01*
Y422460D02*Y423580D01*
X199973Y421900D02*X199413Y422460D01*
X199973Y421900D02*X201093D01*
X201653Y422460D02*X201093Y421900D01*
X197509Y422460D02*Y426380D01*
Y422460D02*X196949Y421900D01*
Y424700D02*X198069D01*
X195269Y422460D02*Y426380D01*
Y422460D02*X194709Y421900D01*
Y424700D02*X195829D01*
X191349Y421900D02*X193029D01*
X193589Y422460D02*X193029Y421900D01*
X193589Y422460D02*Y423580D01*
X193029Y424140D01*
X191909D02*X193029D01*
X191909D02*X191349Y423580D01*
Y423020D02*X193589D01*
X191349D02*Y423580D01*
X189445Y421900D02*Y423580D01*
X188885Y424140D01*
X187765D02*X188885D01*
X190005D02*X189445Y423580D01*
X227157Y415000D02*X228327D01*
X228957Y415630D02*X228327Y415000D01*
X228957Y415630D02*Y417970D01*
X228327Y418600D01*
X227157D02*X228327D01*
X226077Y415000D02*Y418600D01*
Y416800D02*X224277Y418600D01*
X226077Y416800D02*X224277Y415000D01*
X221397Y418600D02*X223197D01*
X222297Y415000D02*Y418600D01*
X218517Y416800D02*X220317D01*
X216537Y418600D02*X217437D01*
X216987Y415000D02*Y418600D01*
X216537Y415000D02*X217437D01*
X213657Y418600D02*X215457D01*
X213657D02*X213207Y418150D01*
Y417250D02*Y418150D01*
X213657Y416800D02*X213207Y417250D01*
X213657Y416800D02*X215007D01*
Y415000D02*Y418600D01*
X214287Y416800D02*X213207Y415000D01*
X210327Y418600D02*X209877Y418150D01*
X210327Y418600D02*X211677D01*
X212127Y418150D02*X211677Y418600D01*
X212127Y417250D02*Y418150D01*
Y417250D02*X211677Y416800D01*
X210327D02*X211677D01*
X210327D02*X209877Y416350D01*
Y415450D02*Y416350D01*
X210327Y415000D02*X209877Y415450D01*
X210327Y415000D02*X211677D01*
X212127Y415450D02*X211677Y415000D01*
X207447Y416980D02*X208797D01*
X206997Y415000D02*X208797D01*
Y418600D01*
X206997D02*X208797D01*
X205917Y415000D02*Y418600D01*
X203667Y415000D01*
Y418600D01*
X200787D02*X200337Y418150D01*
X200787Y418600D02*X202137D01*
X202587Y418150D02*X202137Y418600D01*
X202587Y417250D02*Y418150D01*
Y417250D02*X202137Y416800D01*
X200787D02*X202137D01*
X200787D02*X200337Y416350D01*
Y415450D02*Y416350D01*
X200787Y415000D02*X200337Y415450D01*
X200787Y415000D02*X202137D01*
X202587Y415450D02*X202137Y415000D01*
X197907Y416980D02*X199257D01*
X197457Y415000D02*X199257D01*
Y418600D01*
X197457D02*X199257D01*
X194757Y416800D02*X193857Y415000D01*
X192957Y416800D02*X193857Y415000D01*
X191877Y416350D02*X190077Y418600D01*
X189627Y416350D02*X191877D01*
X190077Y415000D02*Y418600D01*
X188097Y415000D02*X188547D01*
X187017Y417880D02*X186297Y418600D01*
Y415000D02*Y418600D01*
X185667Y415000D02*X187017D01*
X201500Y408900D02*X201100Y408500D01*
X201500Y411300D02*X201100Y411700D01*
X201500Y408900D02*Y411300D01*
X198540Y408500D02*X199580D01*
X200140Y409060D02*X199580Y408500D01*
X200140Y409060D02*Y411140D01*
X199580Y411700D01*
X198540D02*X199580D01*
X197580D02*X197180Y411300D01*
Y408900D02*Y411300D01*
X197580Y408500D02*X197180Y408900D01*
X196220Y411300D02*X195820Y411700D01*
X194620D02*X195820D01*
X194620D02*X194220Y411300D01*
Y410500D02*Y411300D01*
X196220Y408500D02*X194220Y410500D01*
Y408500D02*X196220D01*
X193260Y408900D02*X192860Y408500D01*
X193260Y408900D02*Y411300D01*
X192860Y411700D01*
X192060D02*X192860D01*
X192060D02*X191660Y411300D01*
Y408900D02*Y411300D01*
X192060Y408500D02*X191660Y408900D01*
X192060Y408500D02*X192860D01*
X193260Y409300D02*X191660Y410900D01*
X190700Y411300D02*X190300Y411700D01*
X189100D02*X190300D01*
X189100D02*X188700Y411300D01*
Y410500D02*Y411300D01*
X190700Y408500D02*X188700Y410500D01*
Y408500D02*X190700D01*
X187740Y408900D02*X187340Y408500D01*
X187740Y408900D02*Y411300D01*
X187340Y411700D01*
X186540D02*X187340D01*
X186540D02*X186140Y411300D01*
Y408900D02*Y411300D01*
X186540Y408500D02*X186140Y408900D01*
X186540Y408500D02*X187340D01*
X187740Y409300D02*X186140Y410900D01*
X226400Y408500D02*X227440D01*
X228000Y409060D02*X227440Y408500D01*
X228000Y409060D02*Y411140D01*
X227440Y411700D01*
X226400D02*X227440D01*
X223840Y408500D02*X224880D01*
X225440Y409060D02*X224880Y408500D01*
X225440Y409060D02*Y411140D01*
X224880Y411700D01*
X223840D02*X224880D01*
X221280Y410100D02*X222880D01*
X218720Y408500D02*X220320D01*
X218720D02*X218320Y408900D01*
Y409860D01*
X218720Y410260D02*X218320Y409860D01*
X218720Y410260D02*X219920D01*
Y408500D02*Y411700D01*
X218720D02*X220320D01*
X218720D02*X218320Y411300D01*
Y410660D02*Y411300D01*
X218720Y410260D02*X218320Y410660D01*
X217360Y411700D02*X216560Y410100D01*
X215760Y411700D01*
X216560Y408500D02*Y410100D01*
X213200D02*X214800D01*
X210640Y411700D02*X210240Y411300D01*
X210640Y411700D02*X211840D01*
X212240Y411300D02*X211840Y411700D01*
X212240Y410500D02*Y411300D01*
Y410500D02*X211840Y410100D01*
X210640D02*X211840D01*
X210640D02*X210240Y409700D01*
Y408900D02*Y409700D01*
X210640Y408500D02*X210240Y408900D01*
X210640Y408500D02*X211840D01*
X212240Y408900D02*X211840Y408500D01*
X209280D02*Y410900D01*
X208720Y411700D01*
X207840D02*X208720D01*
X207840D02*X207280Y410900D01*
Y408500D02*Y410900D01*
Y410100D02*X209280D01*
X261800Y421000D02*Y422500D01*
X264000Y420500D02*Y422500D01*
X260000D02*X264000D01*
X260000Y420500D02*Y422500D01*
X262500Y418800D02*X264000D01*
X262500D02*X262000Y418300D01*
Y417800D02*Y418300D01*
Y417800D02*X262500Y417300D01*
X264000D01*
X262000Y419300D02*X262500Y418800D01*
X262000Y414600D02*X262500Y414100D01*
X262000Y414600D02*Y415600D01*
X262500Y416100D02*X262000Y415600D01*
X262500Y416100D02*X263500D01*
X264000Y415600D01*
Y414600D02*Y415600D01*
Y414600D02*X263500Y414100D01*
X265000Y416100D02*X265500Y415600D01*
Y414600D02*Y415600D01*
Y414600D02*X265000Y414100D01*
X262000D02*X265000D01*
X264000Y412400D02*Y412900D01*
X253500Y424000D02*X254000Y423500D01*
X253500Y424000D02*Y425500D01*
X254000Y426000D02*X253500Y425500D01*
X254000Y426000D02*X255000D01*
X255500Y425500D01*
Y424000D02*Y425500D01*
Y424000D02*X256000Y423500D01*
X257000D01*
X257500Y424000D02*X257000Y423500D01*
X257500Y424000D02*Y425500D01*
X257000Y426000D02*X257500Y425500D01*
X255500Y420300D02*Y421800D01*
X256000Y422300D02*X255500Y421800D01*
X256000Y422300D02*X257000D01*
X257500Y421800D01*
Y420300D02*Y421800D01*
X255500Y417600D02*X256000Y417100D01*
X255500Y417600D02*Y418600D01*
X256000Y419100D02*X255500Y418600D01*
X256000Y419100D02*X257000D01*
X257500Y418600D01*
X255500Y417100D02*X257000D01*
X257500Y416600D01*
Y417600D02*Y418600D01*
Y417600D02*X257000Y417100D01*
X253500Y415400D02*X257000D01*
X257500Y414900D01*
Y411900D02*Y413400D01*
X257000Y413900D02*X257500Y413400D01*
X256000Y413900D02*X257000D01*
X256000D02*X255500Y413400D01*
Y412400D02*Y413400D01*
Y412400D02*X256000Y411900D01*
X256500D02*Y413900D01*
X256000Y411900D02*X256500D01*
X253500Y408700D02*X257500D01*
Y409200D02*X257000Y408700D01*
X257500Y409200D02*Y410200D01*
X257000Y410700D02*X257500Y410200D01*
X256000Y410700D02*X257000D01*
X256000D02*X255500Y410200D01*
Y409200D02*Y410200D01*
Y409200D02*X256000Y408700D01*
X247000Y422500D02*Y423500D01*
Y423000D02*X251000D01*
Y422500D02*Y423500D01*
X249500Y421300D02*X250500D01*
X249500D02*X249000Y420800D01*
Y419800D02*Y420800D01*
Y419800D02*X249500Y419300D01*
X250500D01*
X251000Y419800D02*X250500Y419300D01*
X251000Y419800D02*Y420800D01*
X250500Y421300D02*X251000Y420800D01*
X249000Y418100D02*X250500D01*
X251000Y417600D01*
Y417100D02*Y417600D01*
Y417100D02*X250500Y416600D01*
X249000D02*X250500D01*
X251000Y416100D01*
Y415600D02*Y416100D01*
Y415600D02*X250500Y415100D01*
X249000D02*X250500D01*
X249000Y412400D02*X249500Y411900D01*
X249000Y412400D02*Y413400D01*
X249500Y413900D02*X249000Y413400D01*
X249500Y413900D02*X250500D01*
X251000Y413400D01*
X249000Y411900D02*X250500D01*
X251000Y411400D01*
Y412400D02*Y413400D01*
Y412400D02*X250500Y411900D01*
X247000Y387500D02*Y388500D01*
Y388000D02*X251000D01*
Y387500D02*Y388500D01*
X249500Y386300D02*X250500D01*
X249500D02*X249000Y385800D01*
Y384800D02*Y385800D01*
Y384800D02*X249500Y384300D01*
X250500D01*
X251000Y384800D02*X250500Y384300D01*
X251000Y384800D02*Y385800D01*
X250500Y386300D02*X251000Y385800D01*
X249000Y383100D02*X250500D01*
X251000Y382600D01*
Y382100D02*Y382600D01*
Y382100D02*X250500Y381600D01*
X249000D02*X250500D01*
X251000Y381100D01*
Y380600D02*Y381100D01*
Y380600D02*X250500Y380100D01*
X249000D02*X250500D01*
X249000Y377400D02*X249500Y376900D01*
X249000Y377400D02*Y378400D01*
X249500Y378900D02*X249000Y378400D01*
X249500Y378900D02*X250500D01*
X251000Y378400D01*
X249000Y376900D02*X250500D01*
X251000Y376400D01*
Y377400D02*Y378400D01*
Y377400D02*X250500Y376900D01*
X226400Y373500D02*X227440D01*
X228000Y374060D02*X227440Y373500D01*
X228000Y374060D02*Y376140D01*
X227440Y376700D01*
X226400D02*X227440D01*
X223840Y373500D02*X224880D01*
X225440Y374060D02*X224880Y373500D01*
X225440Y374060D02*Y376140D01*
X224880Y376700D01*
X223840D02*X224880D01*
X221280Y375100D02*X222880D01*
X218720Y373500D02*X220320D01*
X218720D02*X218320Y373900D01*
Y374860D01*
X218720Y375260D02*X218320Y374860D01*
X218720Y375260D02*X219920D01*
Y373500D02*Y376700D01*
X218720D02*X220320D01*
X218720D02*X218320Y376300D01*
Y375660D02*Y376300D01*
X218720Y375260D02*X218320Y375660D01*
X217360Y376700D02*X216560Y375100D01*
X215760Y376700D01*
X216560Y373500D02*Y375100D01*
X213200D02*X214800D01*
X210640Y376700D02*X210240Y376300D01*
X210640Y376700D02*X211840D01*
X212240Y376300D02*X211840Y376700D01*
X212240Y375500D02*Y376300D01*
Y375500D02*X211840Y375100D01*
X210640D02*X211840D01*
X210640D02*X210240Y374700D01*
Y373900D02*Y374700D01*
X210640Y373500D02*X210240Y373900D01*
X210640Y373500D02*X211840D01*
X212240Y373900D02*X211840Y373500D01*
X209280D02*Y375900D01*
X208720Y376700D01*
X207840D02*X208720D01*
X207840D02*X207280Y375900D01*
Y373500D02*Y375900D01*
Y375100D02*X209280D01*
X223717Y391380D02*X225957D01*
X224837Y386900D02*Y391380D01*
X221813Y386900D02*Y388580D01*
X221253Y389140D01*
X220133D02*X221253D01*
X222373D02*X221813Y388580D01*
X217109Y389140D02*X216549Y388580D01*
X217109Y389140D02*X218229D01*
X218789Y388580D02*X218229Y389140D01*
X218789Y387460D02*Y388580D01*
Y387460D02*X218229Y386900D01*
X216549Y387460D02*Y389140D01*
Y387460D02*X215989Y386900D01*
X217109D02*X218229D01*
X217109D02*X216549Y387460D01*
X214645Y390148D02*Y390260D01*
Y386900D02*Y388580D01*
X212965Y386900D02*Y388580D01*
X212405Y389140D01*
X211845D02*X212405D01*
X211845D02*X211285Y388580D01*
Y386900D02*Y388580D01*
X213525Y389140D02*X212965Y388580D01*
X207701Y391380D02*X207141Y390820D01*
X207701Y391380D02*X209381D01*
X209941Y390820D02*X209381Y391380D01*
X209941Y389700D02*Y390820D01*
Y389700D02*X209381Y389140D01*
X207701D02*X209381D01*
X207701D02*X207141Y388580D01*
Y387460D02*Y388580D01*
X207701Y386900D02*X207141Y387460D01*
X207701Y386900D02*X209381D01*
X209941Y387460D02*X209381Y386900D01*
X205237Y385220D02*Y388580D01*
X205797Y389140D02*X205237Y388580D01*
X204677Y389140D01*
X203557D02*X204677D01*
X203557D02*X202997Y388580D01*
Y387460D02*Y388580D01*
X203557Y386900D02*X202997Y387460D01*
X203557Y386900D02*X204677D01*
X205237Y387460D02*X204677Y386900D01*
X201653Y387460D02*Y388580D01*
X201093Y389140D01*
X199973D02*X201093D01*
X199973D02*X199413Y388580D01*
Y387460D02*Y388580D01*
X199973Y386900D02*X199413Y387460D01*
X199973Y386900D02*X201093D01*
X201653Y387460D02*X201093Y386900D01*
X197509Y387460D02*Y391380D01*
Y387460D02*X196949Y386900D01*
Y389700D02*X198069D01*
X195269Y387460D02*Y391380D01*
Y387460D02*X194709Y386900D01*
Y389700D02*X195829D01*
X191349Y386900D02*X193029D01*
X193589Y387460D02*X193029Y386900D01*
X193589Y387460D02*Y388580D01*
X193029Y389140D01*
X191909D02*X193029D01*
X191909D02*X191349Y388580D01*
Y388020D02*X193589D01*
X191349D02*Y388580D01*
X189445Y386900D02*Y388580D01*
X188885Y389140D01*
X187765D02*X188885D01*
X190005D02*X189445Y388580D01*
X227157Y380000D02*X228327D01*
X228957Y380630D02*X228327Y380000D01*
X228957Y380630D02*Y382970D01*
X228327Y383600D01*
X227157D02*X228327D01*
X226077Y380000D02*Y383600D01*
Y381800D02*X224277Y383600D01*
X226077Y381800D02*X224277Y380000D01*
X221397Y383600D02*X223197D01*
X222297Y380000D02*Y383600D01*
X218517Y381800D02*X220317D01*
X216537Y383600D02*X217437D01*
X216987Y380000D02*Y383600D01*
X216537Y380000D02*X217437D01*
X213657Y383600D02*X215457D01*
X213657D02*X213207Y383150D01*
Y382250D02*Y383150D01*
X213657Y381800D02*X213207Y382250D01*
X213657Y381800D02*X215007D01*
Y380000D02*Y383600D01*
X214287Y381800D02*X213207Y380000D01*
X210327Y383600D02*X209877Y383150D01*
X210327Y383600D02*X211677D01*
X212127Y383150D02*X211677Y383600D01*
X212127Y382250D02*Y383150D01*
Y382250D02*X211677Y381800D01*
X210327D02*X211677D01*
X210327D02*X209877Y381350D01*
Y380450D02*Y381350D01*
X210327Y380000D02*X209877Y380450D01*
X210327Y380000D02*X211677D01*
X212127Y380450D02*X211677Y380000D01*
X207447Y381980D02*X208797D01*
X206997Y380000D02*X208797D01*
Y383600D01*
X206997D02*X208797D01*
X205917Y380000D02*Y383600D01*
X203667Y380000D01*
Y383600D01*
X200787D02*X200337Y383150D01*
X200787Y383600D02*X202137D01*
X202587Y383150D02*X202137Y383600D01*
X202587Y382250D02*Y383150D01*
Y382250D02*X202137Y381800D01*
X200787D02*X202137D01*
X200787D02*X200337Y381350D01*
Y380450D02*Y381350D01*
X200787Y380000D02*X200337Y380450D01*
X200787Y380000D02*X202137D01*
X202587Y380450D02*X202137Y380000D01*
X197907Y381980D02*X199257D01*
X197457Y380000D02*X199257D01*
Y383600D01*
X197457D02*X199257D01*
X194757Y381800D02*X193857Y380000D01*
X192957Y381800D02*X193857Y380000D01*
X191877Y381350D02*X190077Y383600D01*
X189627Y381350D02*X191877D01*
X190077Y380000D02*Y383600D01*
X188097Y380000D02*X188547D01*
X187017Y382880D02*X186297Y383600D01*
Y380000D02*Y383600D01*
X185667Y380000D02*X187017D01*
X201500Y373900D02*X201100Y373500D01*
X201500Y376300D02*X201100Y376700D01*
X201500Y373900D02*Y376300D01*
X198540Y373500D02*X199580D01*
X200140Y374060D02*X199580Y373500D01*
X200140Y374060D02*Y376140D01*
X199580Y376700D01*
X198540D02*X199580D01*
X197580D02*X197180Y376300D01*
Y373900D02*Y376300D01*
X197580Y373500D02*X197180Y373900D01*
X196220Y376300D02*X195820Y376700D01*
X194620D02*X195820D01*
X194620D02*X194220Y376300D01*
Y375500D02*Y376300D01*
X196220Y373500D02*X194220Y375500D01*
Y373500D02*X196220D01*
X193260Y373900D02*X192860Y373500D01*
X193260Y373900D02*Y376300D01*
X192860Y376700D01*
X192060D02*X192860D01*
X192060D02*X191660Y376300D01*
Y373900D02*Y376300D01*
X192060Y373500D02*X191660Y373900D01*
X192060Y373500D02*X192860D01*
X193260Y374300D02*X191660Y375900D01*
X190700Y376300D02*X190300Y376700D01*
X189100D02*X190300D01*
X189100D02*X188700Y376300D01*
Y375500D02*Y376300D01*
X190700Y373500D02*X188700Y375500D01*
Y373500D02*X190700D01*
X187740Y373900D02*X187340Y373500D01*
X187740Y373900D02*Y376300D01*
X187340Y376700D01*
X186540D02*X187340D01*
X186540D02*X186140Y376300D01*
Y373900D02*Y376300D01*
X186540Y373500D02*X186140Y373900D01*
X186540Y373500D02*X187340D01*
X187740Y374300D02*X186140Y375900D01*
X223717Y356380D02*X225957D01*
X224837Y351900D02*Y356380D01*
X221813Y351900D02*Y353580D01*
X221253Y354140D01*
X220133D02*X221253D01*
X222373D02*X221813Y353580D01*
X217109Y354140D02*X216549Y353580D01*
X217109Y354140D02*X218229D01*
X218789Y353580D02*X218229Y354140D01*
X218789Y352460D02*Y353580D01*
Y352460D02*X218229Y351900D01*
X216549Y352460D02*Y354140D01*
Y352460D02*X215989Y351900D01*
X217109D02*X218229D01*
X217109D02*X216549Y352460D01*
X214645Y355148D02*Y355260D01*
Y351900D02*Y353580D01*
X212965Y351900D02*Y353580D01*
X212405Y354140D01*
X211845D02*X212405D01*
X211845D02*X211285Y353580D01*
Y351900D02*Y353580D01*
X213525Y354140D02*X212965Y353580D01*
X207701Y356380D02*X207141Y355820D01*
X207701Y356380D02*X209381D01*
X209941Y355820D02*X209381Y356380D01*
X209941Y354700D02*Y355820D01*
Y354700D02*X209381Y354140D01*
X207701D02*X209381D01*
X207701D02*X207141Y353580D01*
Y352460D02*Y353580D01*
X207701Y351900D02*X207141Y352460D01*
X207701Y351900D02*X209381D01*
X209941Y352460D02*X209381Y351900D01*
X205237Y350220D02*Y353580D01*
X205797Y354140D02*X205237Y353580D01*
X204677Y354140D01*
X203557D02*X204677D01*
X203557D02*X202997Y353580D01*
Y352460D02*Y353580D01*
X203557Y351900D02*X202997Y352460D01*
X203557Y351900D02*X204677D01*
X205237Y352460D02*X204677Y351900D01*
X201653Y352460D02*Y353580D01*
X201093Y354140D01*
X199973D02*X201093D01*
X199973D02*X199413Y353580D01*
Y352460D02*Y353580D01*
X199973Y351900D02*X199413Y352460D01*
X199973Y351900D02*X201093D01*
X201653Y352460D02*X201093Y351900D01*
X197509Y352460D02*Y356380D01*
Y352460D02*X196949Y351900D01*
Y354700D02*X198069D01*
X195269Y352460D02*Y356380D01*
Y352460D02*X194709Y351900D01*
Y354700D02*X195829D01*
X191349Y351900D02*X193029D01*
X193589Y352460D02*X193029Y351900D01*
X193589Y352460D02*Y353580D01*
X193029Y354140D01*
X191909D02*X193029D01*
X191909D02*X191349Y353580D01*
Y353020D02*X193589D01*
X191349D02*Y353580D01*
X189445Y351900D02*Y353580D01*
X188885Y354140D01*
X187765D02*X188885D01*
X190005D02*X189445Y353580D01*
X227157Y345000D02*X228327D01*
X228957Y345630D02*X228327Y345000D01*
X228957Y345630D02*Y347970D01*
X228327Y348600D01*
X227157D02*X228327D01*
X226077Y345000D02*Y348600D01*
Y346800D02*X224277Y348600D01*
X226077Y346800D02*X224277Y345000D01*
X221397Y348600D02*X223197D01*
X222297Y345000D02*Y348600D01*
X218517Y346800D02*X220317D01*
X216537Y348600D02*X217437D01*
X216987Y345000D02*Y348600D01*
X216537Y345000D02*X217437D01*
X213657Y348600D02*X215457D01*
X213657D02*X213207Y348150D01*
Y347250D02*Y348150D01*
X213657Y346800D02*X213207Y347250D01*
X213657Y346800D02*X215007D01*
Y345000D02*Y348600D01*
X214287Y346800D02*X213207Y345000D01*
X210327Y348600D02*X209877Y348150D01*
X210327Y348600D02*X211677D01*
X212127Y348150D02*X211677Y348600D01*
X212127Y347250D02*Y348150D01*
Y347250D02*X211677Y346800D01*
X210327D02*X211677D01*
X210327D02*X209877Y346350D01*
Y345450D02*Y346350D01*
X210327Y345000D02*X209877Y345450D01*
X210327Y345000D02*X211677D01*
X212127Y345450D02*X211677Y345000D01*
X207447Y346980D02*X208797D01*
X206997Y345000D02*X208797D01*
Y348600D01*
X206997D02*X208797D01*
X205917Y345000D02*Y348600D01*
X203667Y345000D01*
Y348600D01*
X200787D02*X200337Y348150D01*
X200787Y348600D02*X202137D01*
X202587Y348150D02*X202137Y348600D01*
X202587Y347250D02*Y348150D01*
Y347250D02*X202137Y346800D01*
X200787D02*X202137D01*
X200787D02*X200337Y346350D01*
Y345450D02*Y346350D01*
X200787Y345000D02*X200337Y345450D01*
X200787Y345000D02*X202137D01*
X202587Y345450D02*X202137Y345000D01*
X197907Y346980D02*X199257D01*
X197457Y345000D02*X199257D01*
Y348600D01*
X197457D02*X199257D01*
X194757Y346800D02*X193857Y345000D01*
X192957Y346800D02*X193857Y345000D01*
X191877Y346350D02*X190077Y348600D01*
X189627Y346350D02*X191877D01*
X190077Y345000D02*Y348600D01*
X188097Y345000D02*X188547D01*
X187017Y347880D02*X186297Y348600D01*
Y345000D02*Y348600D01*
X185667Y345000D02*X187017D01*
X201500Y338900D02*X201100Y338500D01*
X201500Y341300D02*X201100Y341700D01*
X201500Y338900D02*Y341300D01*
X198540Y338500D02*X199580D01*
X200140Y339060D02*X199580Y338500D01*
X200140Y339060D02*Y341140D01*
X199580Y341700D01*
X198540D02*X199580D01*
X197580D02*X197180Y341300D01*
Y338900D02*Y341300D01*
X197580Y338500D02*X197180Y338900D01*
X196220Y341300D02*X195820Y341700D01*
X194620D02*X195820D01*
X194620D02*X194220Y341300D01*
Y340500D02*Y341300D01*
X196220Y338500D02*X194220Y340500D01*
Y338500D02*X196220D01*
X193260Y338900D02*X192860Y338500D01*
X193260Y338900D02*Y341300D01*
X192860Y341700D01*
X192060D02*X192860D01*
X192060D02*X191660Y341300D01*
Y338900D02*Y341300D01*
X192060Y338500D02*X191660Y338900D01*
X192060Y338500D02*X192860D01*
X193260Y339300D02*X191660Y340900D01*
X190700Y341300D02*X190300Y341700D01*
X189100D02*X190300D01*
X189100D02*X188700Y341300D01*
Y340500D02*Y341300D01*
X190700Y338500D02*X188700Y340500D01*
Y338500D02*X190700D01*
X187740Y338900D02*X187340Y338500D01*
X187740Y338900D02*Y341300D01*
X187340Y341700D01*
X186540D02*X187340D01*
X186540D02*X186140Y341300D01*
Y338900D02*Y341300D01*
X186540Y338500D02*X186140Y338900D01*
X186540Y338500D02*X187340D01*
X187740Y339300D02*X186140Y340900D01*
X226400Y338500D02*X227440D01*
X228000Y339060D02*X227440Y338500D01*
X228000Y339060D02*Y341140D01*
X227440Y341700D01*
X226400D02*X227440D01*
X223840Y338500D02*X224880D01*
X225440Y339060D02*X224880Y338500D01*
X225440Y339060D02*Y341140D01*
X224880Y341700D01*
X223840D02*X224880D01*
X221280Y340100D02*X222880D01*
X218720Y338500D02*X220320D01*
X218720D02*X218320Y338900D01*
Y339860D01*
X218720Y340260D02*X218320Y339860D01*
X218720Y340260D02*X219920D01*
Y338500D02*Y341700D01*
X218720D02*X220320D01*
X218720D02*X218320Y341300D01*
Y340660D02*Y341300D01*
X218720Y340260D02*X218320Y340660D01*
X217360Y341700D02*X216560Y340100D01*
X215760Y341700D01*
X216560Y338500D02*Y340100D01*
X213200D02*X214800D01*
X210640Y341700D02*X210240Y341300D01*
X210640Y341700D02*X211840D01*
X212240Y341300D02*X211840Y341700D01*
X212240Y340500D02*Y341300D01*
Y340500D02*X211840Y340100D01*
X210640D02*X211840D01*
X210640D02*X210240Y339700D01*
Y338900D02*Y339700D01*
X210640Y338500D02*X210240Y338900D01*
X210640Y338500D02*X211840D01*
X212240Y338900D02*X211840Y338500D01*
X209280D02*Y340900D01*
X208720Y341700D01*
X207840D02*X208720D01*
X207840D02*X207280Y340900D01*
Y338500D02*Y340900D01*
Y340100D02*X209280D01*
X223717Y321380D02*X225957D01*
X224837Y316900D02*Y321380D01*
X221813Y316900D02*Y318580D01*
X221253Y319140D01*
X220133D02*X221253D01*
X222373D02*X221813Y318580D01*
X217109Y319140D02*X216549Y318580D01*
X217109Y319140D02*X218229D01*
X218789Y318580D02*X218229Y319140D01*
X218789Y317460D02*Y318580D01*
Y317460D02*X218229Y316900D01*
X216549Y317460D02*Y319140D01*
Y317460D02*X215989Y316900D01*
X217109D02*X218229D01*
X217109D02*X216549Y317460D01*
X214645Y320148D02*Y320260D01*
Y316900D02*Y318580D01*
X212965Y316900D02*Y318580D01*
X212405Y319140D01*
X211845D02*X212405D01*
X211845D02*X211285Y318580D01*
Y316900D02*Y318580D01*
X213525Y319140D02*X212965Y318580D01*
X207701Y321380D02*X207141Y320820D01*
X207701Y321380D02*X209381D01*
X209941Y320820D02*X209381Y321380D01*
X209941Y319700D02*Y320820D01*
Y319700D02*X209381Y319140D01*
X207701D02*X209381D01*
X207701D02*X207141Y318580D01*
Y317460D02*Y318580D01*
X207701Y316900D02*X207141Y317460D01*
X207701Y316900D02*X209381D01*
X209941Y317460D02*X209381Y316900D01*
X205237Y315220D02*Y318580D01*
X205797Y319140D02*X205237Y318580D01*
X204677Y319140D01*
X203557D02*X204677D01*
X203557D02*X202997Y318580D01*
Y317460D02*Y318580D01*
X203557Y316900D02*X202997Y317460D01*
X203557Y316900D02*X204677D01*
X205237Y317460D02*X204677Y316900D01*
X201653Y317460D02*Y318580D01*
X201093Y319140D01*
X199973D02*X201093D01*
X199973D02*X199413Y318580D01*
Y317460D02*Y318580D01*
X199973Y316900D02*X199413Y317460D01*
X199973Y316900D02*X201093D01*
X201653Y317460D02*X201093Y316900D01*
X197509Y317460D02*Y321380D01*
Y317460D02*X196949Y316900D01*
Y319700D02*X198069D01*
X195269Y317460D02*Y321380D01*
Y317460D02*X194709Y316900D01*
Y319700D02*X195829D01*
X191349Y316900D02*X193029D01*
X193589Y317460D02*X193029Y316900D01*
X193589Y317460D02*Y318580D01*
X193029Y319140D01*
X191909D02*X193029D01*
X191909D02*X191349Y318580D01*
Y318020D02*X193589D01*
X191349D02*Y318580D01*
X189445Y316900D02*Y318580D01*
X188885Y319140D01*
X187765D02*X188885D01*
X190005D02*X189445Y318580D01*
X227157Y310000D02*X228327D01*
X228957Y310630D02*X228327Y310000D01*
X228957Y310630D02*Y312970D01*
X228327Y313600D01*
X227157D02*X228327D01*
X226077Y310000D02*Y313600D01*
Y311800D02*X224277Y313600D01*
X226077Y311800D02*X224277Y310000D01*
X221397Y313600D02*X223197D01*
X222297Y310000D02*Y313600D01*
X218517Y311800D02*X220317D01*
X216537Y313600D02*X217437D01*
X216987Y310000D02*Y313600D01*
X216537Y310000D02*X217437D01*
X213657Y313600D02*X215457D01*
X213657D02*X213207Y313150D01*
Y312250D02*Y313150D01*
X213657Y311800D02*X213207Y312250D01*
X213657Y311800D02*X215007D01*
Y310000D02*Y313600D01*
X214287Y311800D02*X213207Y310000D01*
X210327Y313600D02*X209877Y313150D01*
X210327Y313600D02*X211677D01*
X212127Y313150D02*X211677Y313600D01*
X212127Y312250D02*Y313150D01*
Y312250D02*X211677Y311800D01*
X210327D02*X211677D01*
X210327D02*X209877Y311350D01*
Y310450D02*Y311350D01*
X210327Y310000D02*X209877Y310450D01*
X210327Y310000D02*X211677D01*
X212127Y310450D02*X211677Y310000D01*
X207447Y311980D02*X208797D01*
X206997Y310000D02*X208797D01*
Y313600D01*
X206997D02*X208797D01*
X205917Y310000D02*Y313600D01*
X203667Y310000D01*
Y313600D01*
X200787D02*X200337Y313150D01*
X200787Y313600D02*X202137D01*
X202587Y313150D02*X202137Y313600D01*
X202587Y312250D02*Y313150D01*
Y312250D02*X202137Y311800D01*
X200787D02*X202137D01*
X200787D02*X200337Y311350D01*
Y310450D02*Y311350D01*
X200787Y310000D02*X200337Y310450D01*
X200787Y310000D02*X202137D01*
X202587Y310450D02*X202137Y310000D01*
X197907Y311980D02*X199257D01*
X197457Y310000D02*X199257D01*
Y313600D01*
X197457D02*X199257D01*
X194757Y311800D02*X193857Y310000D01*
X192957Y311800D02*X193857Y310000D01*
X191877Y311350D02*X190077Y313600D01*
X189627Y311350D02*X191877D01*
X190077Y310000D02*Y313600D01*
X188097Y310000D02*X188547D01*
X187017Y312880D02*X186297Y313600D01*
Y310000D02*Y313600D01*
X185667Y310000D02*X187017D01*
X201500Y303900D02*X201100Y303500D01*
X201500Y306300D02*X201100Y306700D01*
X201500Y303900D02*Y306300D01*
X198540Y303500D02*X199580D01*
X200140Y304060D02*X199580Y303500D01*
X200140Y304060D02*Y306140D01*
X199580Y306700D01*
X198540D02*X199580D01*
X197580D02*X197180Y306300D01*
Y303900D02*Y306300D01*
X197580Y303500D02*X197180Y303900D01*
X196220Y306300D02*X195820Y306700D01*
X194620D02*X195820D01*
X194620D02*X194220Y306300D01*
Y305500D02*Y306300D01*
X196220Y303500D02*X194220Y305500D01*
Y303500D02*X196220D01*
X193260Y303900D02*X192860Y303500D01*
X193260Y303900D02*Y306300D01*
X192860Y306700D01*
X192060D02*X192860D01*
X192060D02*X191660Y306300D01*
Y303900D02*Y306300D01*
X192060Y303500D02*X191660Y303900D01*
X192060Y303500D02*X192860D01*
X193260Y304300D02*X191660Y305900D01*
X190700Y306300D02*X190300Y306700D01*
X189100D02*X190300D01*
X189100D02*X188700Y306300D01*
Y305500D02*Y306300D01*
X190700Y303500D02*X188700Y305500D01*
Y303500D02*X190700D01*
X187740Y303900D02*X187340Y303500D01*
X187740Y303900D02*Y306300D01*
X187340Y306700D01*
X186540D02*X187340D01*
X186540D02*X186140Y306300D01*
Y303900D02*Y306300D01*
X186540Y303500D02*X186140Y303900D01*
X186540Y303500D02*X187340D01*
X187740Y304300D02*X186140Y305900D01*
X226400Y303500D02*X227440D01*
X228000Y304060D02*X227440Y303500D01*
X228000Y304060D02*Y306140D01*
X227440Y306700D01*
X226400D02*X227440D01*
X223840Y303500D02*X224880D01*
X225440Y304060D02*X224880Y303500D01*
X225440Y304060D02*Y306140D01*
X224880Y306700D01*
X223840D02*X224880D01*
X221280Y305100D02*X222880D01*
X218720Y303500D02*X220320D01*
X218720D02*X218320Y303900D01*
Y304860D01*
X218720Y305260D02*X218320Y304860D01*
X218720Y305260D02*X219920D01*
Y303500D02*Y306700D01*
X218720D02*X220320D01*
X218720D02*X218320Y306300D01*
Y305660D02*Y306300D01*
X218720Y305260D02*X218320Y305660D01*
X217360Y306700D02*X216560Y305100D01*
X215760Y306700D01*
X216560Y303500D02*Y305100D01*
X213200D02*X214800D01*
X210640Y306700D02*X210240Y306300D01*
X210640Y306700D02*X211840D01*
X212240Y306300D02*X211840Y306700D01*
X212240Y305500D02*Y306300D01*
Y305500D02*X211840Y305100D01*
X210640D02*X211840D01*
X210640D02*X210240Y304700D01*
Y303900D02*Y304700D01*
X210640Y303500D02*X210240Y303900D01*
X210640Y303500D02*X211840D01*
X212240Y303900D02*X211840Y303500D01*
X209280D02*Y305900D01*
X208720Y306700D01*
X207840D02*X208720D01*
X207840D02*X207280Y305900D01*
Y303500D02*Y305900D01*
Y305100D02*X209280D01*
X223717Y286380D02*X225957D01*
X224837Y281900D02*Y286380D01*
X221813Y281900D02*Y283580D01*
X221253Y284140D01*
X220133D02*X221253D01*
X222373D02*X221813Y283580D01*
X217109Y284140D02*X216549Y283580D01*
X217109Y284140D02*X218229D01*
X218789Y283580D02*X218229Y284140D01*
X218789Y282460D02*Y283580D01*
Y282460D02*X218229Y281900D01*
X216549Y282460D02*Y284140D01*
Y282460D02*X215989Y281900D01*
X217109D02*X218229D01*
X217109D02*X216549Y282460D01*
X214645Y285148D02*Y285260D01*
Y281900D02*Y283580D01*
X212965Y281900D02*Y283580D01*
X212405Y284140D01*
X211845D02*X212405D01*
X211845D02*X211285Y283580D01*
Y281900D02*Y283580D01*
X213525Y284140D02*X212965Y283580D01*
X207701Y286380D02*X207141Y285820D01*
X207701Y286380D02*X209381D01*
X209941Y285820D02*X209381Y286380D01*
X209941Y284700D02*Y285820D01*
Y284700D02*X209381Y284140D01*
X207701D02*X209381D01*
X207701D02*X207141Y283580D01*
Y282460D02*Y283580D01*
X207701Y281900D02*X207141Y282460D01*
X207701Y281900D02*X209381D01*
X209941Y282460D02*X209381Y281900D01*
X205237Y280220D02*Y283580D01*
X205797Y284140D02*X205237Y283580D01*
X204677Y284140D01*
X203557D02*X204677D01*
X203557D02*X202997Y283580D01*
Y282460D02*Y283580D01*
X203557Y281900D02*X202997Y282460D01*
X203557Y281900D02*X204677D01*
X205237Y282460D02*X204677Y281900D01*
X201653Y282460D02*Y283580D01*
X201093Y284140D01*
X199973D02*X201093D01*
X199973D02*X199413Y283580D01*
Y282460D02*Y283580D01*
X199973Y281900D02*X199413Y282460D01*
X199973Y281900D02*X201093D01*
X201653Y282460D02*X201093Y281900D01*
X197509Y282460D02*Y286380D01*
Y282460D02*X196949Y281900D01*
Y284700D02*X198069D01*
X195269Y282460D02*Y286380D01*
Y282460D02*X194709Y281900D01*
Y284700D02*X195829D01*
X191349Y281900D02*X193029D01*
X193589Y282460D02*X193029Y281900D01*
X193589Y282460D02*Y283580D01*
X193029Y284140D01*
X191909D02*X193029D01*
X191909D02*X191349Y283580D01*
Y283020D02*X193589D01*
X191349D02*Y283580D01*
X189445Y281900D02*Y283580D01*
X188885Y284140D01*
X187765D02*X188885D01*
X190005D02*X189445Y283580D01*
X227157Y275000D02*X228327D01*
X228957Y275630D02*X228327Y275000D01*
X228957Y275630D02*Y277970D01*
X228327Y278600D01*
X227157D02*X228327D01*
X226077Y275000D02*Y278600D01*
Y276800D02*X224277Y278600D01*
X226077Y276800D02*X224277Y275000D01*
X221397Y278600D02*X223197D01*
X222297Y275000D02*Y278600D01*
X218517Y276800D02*X220317D01*
X216537Y278600D02*X217437D01*
X216987Y275000D02*Y278600D01*
X216537Y275000D02*X217437D01*
X213657Y278600D02*X215457D01*
X213657D02*X213207Y278150D01*
Y277250D02*Y278150D01*
X213657Y276800D02*X213207Y277250D01*
X213657Y276800D02*X215007D01*
Y275000D02*Y278600D01*
X214287Y276800D02*X213207Y275000D01*
X210327Y278600D02*X209877Y278150D01*
X210327Y278600D02*X211677D01*
X212127Y278150D02*X211677Y278600D01*
X212127Y277250D02*Y278150D01*
Y277250D02*X211677Y276800D01*
X210327D02*X211677D01*
X210327D02*X209877Y276350D01*
Y275450D02*Y276350D01*
X210327Y275000D02*X209877Y275450D01*
X210327Y275000D02*X211677D01*
X212127Y275450D02*X211677Y275000D01*
X207447Y276980D02*X208797D01*
X206997Y275000D02*X208797D01*
Y278600D01*
X206997D02*X208797D01*
X205917Y275000D02*Y278600D01*
X203667Y275000D01*
Y278600D01*
X200787D02*X200337Y278150D01*
X200787Y278600D02*X202137D01*
X202587Y278150D02*X202137Y278600D01*
X202587Y277250D02*Y278150D01*
Y277250D02*X202137Y276800D01*
X200787D02*X202137D01*
X200787D02*X200337Y276350D01*
Y275450D02*Y276350D01*
X200787Y275000D02*X200337Y275450D01*
X200787Y275000D02*X202137D01*
X202587Y275450D02*X202137Y275000D01*
X197907Y276980D02*X199257D01*
X197457Y275000D02*X199257D01*
Y278600D01*
X197457D02*X199257D01*
X194757Y276800D02*X193857Y275000D01*
X192957Y276800D02*X193857Y275000D01*
X191877Y276350D02*X190077Y278600D01*
X189627Y276350D02*X191877D01*
X190077Y275000D02*Y278600D01*
X188097Y275000D02*X188547D01*
X187017Y277880D02*X186297Y278600D01*
Y275000D02*Y278600D01*
X185667Y275000D02*X187017D01*
X201500Y268900D02*X201100Y268500D01*
X201500Y271300D02*X201100Y271700D01*
X201500Y268900D02*Y271300D01*
X198540Y268500D02*X199580D01*
X200140Y269060D02*X199580Y268500D01*
X200140Y269060D02*Y271140D01*
X199580Y271700D01*
X198540D02*X199580D01*
X197580D02*X197180Y271300D01*
Y268900D02*Y271300D01*
X197580Y268500D02*X197180Y268900D01*
X196220Y271300D02*X195820Y271700D01*
X194620D02*X195820D01*
X194620D02*X194220Y271300D01*
Y270500D02*Y271300D01*
X196220Y268500D02*X194220Y270500D01*
Y268500D02*X196220D01*
X193260Y268900D02*X192860Y268500D01*
X193260Y268900D02*Y271300D01*
X192860Y271700D01*
X192060D02*X192860D01*
X192060D02*X191660Y271300D01*
Y268900D02*Y271300D01*
X192060Y268500D02*X191660Y268900D01*
X192060Y268500D02*X192860D01*
X193260Y269300D02*X191660Y270900D01*
X190700Y271300D02*X190300Y271700D01*
X189100D02*X190300D01*
X189100D02*X188700Y271300D01*
Y270500D02*Y271300D01*
X190700Y268500D02*X188700Y270500D01*
Y268500D02*X190700D01*
X187740Y268900D02*X187340Y268500D01*
X187740Y268900D02*Y271300D01*
X187340Y271700D01*
X186540D02*X187340D01*
X186540D02*X186140Y271300D01*
Y268900D02*Y271300D01*
X186540Y268500D02*X186140Y268900D01*
X186540Y268500D02*X187340D01*
X187740Y269300D02*X186140Y270900D01*
X226400Y268500D02*X227440D01*
X228000Y269060D02*X227440Y268500D01*
X228000Y269060D02*Y271140D01*
X227440Y271700D01*
X226400D02*X227440D01*
X223840Y268500D02*X224880D01*
X225440Y269060D02*X224880Y268500D01*
X225440Y269060D02*Y271140D01*
X224880Y271700D01*
X223840D02*X224880D01*
X221280Y270100D02*X222880D01*
X218720Y268500D02*X220320D01*
X218720D02*X218320Y268900D01*
Y269860D01*
X218720Y270260D02*X218320Y269860D01*
X218720Y270260D02*X219920D01*
Y268500D02*Y271700D01*
X218720D02*X220320D01*
X218720D02*X218320Y271300D01*
Y270660D02*Y271300D01*
X218720Y270260D02*X218320Y270660D01*
X217360Y271700D02*X216560Y270100D01*
X215760Y271700D01*
X216560Y268500D02*Y270100D01*
X213200D02*X214800D01*
X210640Y271700D02*X210240Y271300D01*
X210640Y271700D02*X211840D01*
X212240Y271300D02*X211840Y271700D01*
X212240Y270500D02*Y271300D01*
Y270500D02*X211840Y270100D01*
X210640D02*X211840D01*
X210640D02*X210240Y269700D01*
Y268900D02*Y269700D01*
X210640Y268500D02*X210240Y268900D01*
X210640Y268500D02*X211840D01*
X212240Y268900D02*X211840Y268500D01*
X209280D02*Y270900D01*
X208720Y271700D01*
X207840D02*X208720D01*
X207840D02*X207280Y270900D01*
Y268500D02*Y270900D01*
Y270100D02*X209280D01*
X223717Y251380D02*X225957D01*
X224837Y246900D02*Y251380D01*
X221813Y246900D02*Y248580D01*
X221253Y249140D01*
X220133D02*X221253D01*
X222373D02*X221813Y248580D01*
X217109Y249140D02*X216549Y248580D01*
X217109Y249140D02*X218229D01*
X218789Y248580D02*X218229Y249140D01*
X218789Y247460D02*Y248580D01*
Y247460D02*X218229Y246900D01*
X216549Y247460D02*Y249140D01*
Y247460D02*X215989Y246900D01*
X217109D02*X218229D01*
X217109D02*X216549Y247460D01*
X214645Y250148D02*Y250260D01*
Y246900D02*Y248580D01*
X212965Y246900D02*Y248580D01*
X212405Y249140D01*
X211845D02*X212405D01*
X211845D02*X211285Y248580D01*
Y246900D02*Y248580D01*
X213525Y249140D02*X212965Y248580D01*
X207701Y251380D02*X207141Y250820D01*
X207701Y251380D02*X209381D01*
X209941Y250820D02*X209381Y251380D01*
X209941Y249700D02*Y250820D01*
Y249700D02*X209381Y249140D01*
X207701D02*X209381D01*
X207701D02*X207141Y248580D01*
Y247460D02*Y248580D01*
X207701Y246900D02*X207141Y247460D01*
X207701Y246900D02*X209381D01*
X209941Y247460D02*X209381Y246900D01*
X205237Y245220D02*Y248580D01*
X205797Y249140D02*X205237Y248580D01*
X204677Y249140D01*
X203557D02*X204677D01*
X203557D02*X202997Y248580D01*
Y247460D02*Y248580D01*
X203557Y246900D02*X202997Y247460D01*
X203557Y246900D02*X204677D01*
X205237Y247460D02*X204677Y246900D01*
X201653Y247460D02*Y248580D01*
X201093Y249140D01*
X199973D02*X201093D01*
X199973D02*X199413Y248580D01*
Y247460D02*Y248580D01*
X199973Y246900D02*X199413Y247460D01*
X199973Y246900D02*X201093D01*
X201653Y247460D02*X201093Y246900D01*
X197509Y247460D02*Y251380D01*
Y247460D02*X196949Y246900D01*
Y249700D02*X198069D01*
X195269Y247460D02*Y251380D01*
Y247460D02*X194709Y246900D01*
Y249700D02*X195829D01*
X191349Y246900D02*X193029D01*
X193589Y247460D02*X193029Y246900D01*
X193589Y247460D02*Y248580D01*
X193029Y249140D01*
X191909D02*X193029D01*
X191909D02*X191349Y248580D01*
Y248020D02*X193589D01*
X191349D02*Y248580D01*
X189445Y246900D02*Y248580D01*
X188885Y249140D01*
X187765D02*X188885D01*
X190005D02*X189445Y248580D01*
X92538Y348762D02*X93338D01*
X92538Y345262D02*Y348762D01*
X93038Y344762D02*X92538Y345262D01*
X93038Y344762D02*X93538D01*
X94038Y345262D02*X93538Y344762D01*
X94038Y345262D02*Y345762D01*
X90838Y344762D02*Y348762D01*
X89338D02*X91338D01*
X89338D02*X88838Y348262D01*
Y347262D02*Y348262D01*
X89338Y346762D02*X88838Y347262D01*
X89338Y346762D02*X90838D01*
X87638Y347962D02*X86838Y348762D01*
Y344762D02*Y348762D01*
X86138Y344762D02*X87638D01*
X92538Y313762D02*X93338D01*
X92538Y310262D02*Y313762D01*
X93038Y309762D02*X92538Y310262D01*
X93038Y309762D02*X93538D01*
X94038Y310262D02*X93538Y309762D01*
X94038Y310262D02*Y310762D01*
X90838Y309762D02*Y313762D01*
X89338D02*X91338D01*
X89338D02*X88838Y313262D01*
Y312262D02*Y313262D01*
X89338Y311762D02*X88838Y312262D01*
X89338Y311762D02*X90838D01*
X87638Y312962D02*X86838Y313762D01*
Y309762D02*Y313762D01*
X86138Y309762D02*X87638D01*
X92538Y278762D02*X93338D01*
X92538Y275262D02*Y278762D01*
X93038Y274762D02*X92538Y275262D01*
X93038Y274762D02*X93538D01*
X94038Y275262D02*X93538Y274762D01*
X94038Y275262D02*Y275762D01*
X90838Y274762D02*Y278762D01*
X89338D02*X91338D01*
X89338D02*X88838Y278262D01*
Y277262D02*Y278262D01*
X89338Y276762D02*X88838Y277262D01*
X89338Y276762D02*X90838D01*
X87638Y277962D02*X86838Y278762D01*
Y274762D02*Y278762D01*
X86138Y274762D02*X87638D01*
X92538Y243762D02*X93338D01*
X92538Y240262D02*Y243762D01*
X93038Y239762D02*X92538Y240262D01*
X93038Y239762D02*X93538D01*
X94038Y240262D02*X93538Y239762D01*
X94038Y240262D02*Y240762D01*
X90838Y239762D02*Y243762D01*
X89338D02*X91338D01*
X89338D02*X88838Y243262D01*
Y242262D02*Y243262D01*
X89338Y241762D02*X88838Y242262D01*
X89338Y241762D02*X90838D01*
X87638Y242962D02*X86838Y243762D01*
Y239762D02*Y243762D01*
X86138Y239762D02*X87638D01*
X92538Y418762D02*X93338D01*
X92538Y415262D02*Y418762D01*
X93038Y414762D02*X92538Y415262D01*
X93038Y414762D02*X93538D01*
X94038Y415262D02*X93538Y414762D01*
X94038Y415262D02*Y415762D01*
X90838Y414762D02*Y418762D01*
X89338D02*X91338D01*
X89338D02*X88838Y418262D01*
Y417262D02*Y418262D01*
X89338Y416762D02*X88838Y417262D01*
X89338Y416762D02*X90838D01*
X87638Y417962D02*X86838Y418762D01*
Y414762D02*Y418762D01*
X86138Y414762D02*X87638D01*
X92538Y383762D02*X93338D01*
X92538Y380262D02*Y383762D01*
X93038Y379762D02*X92538Y380262D01*
X93038Y379762D02*X93538D01*
X94038Y380262D02*X93538Y379762D01*
X94038Y380262D02*Y380762D01*
X90838Y379762D02*Y383762D01*
X89338D02*X91338D01*
X89338D02*X88838Y383262D01*
Y382262D02*Y383262D01*
X89338Y381762D02*X88838Y382262D01*
X89338Y381762D02*X90838D01*
X87638Y382962D02*X86838Y383762D01*
Y379762D02*Y383762D01*
X86138Y379762D02*X87638D01*
X92538Y173762D02*X93338D01*
X92538Y170262D02*Y173762D01*
X93038Y169762D02*X92538Y170262D01*
X93038Y169762D02*X93538D01*
X94038Y170262D02*X93538Y169762D01*
X94038Y170262D02*Y170762D01*
X90838Y169762D02*Y173762D01*
X89338D02*X91338D01*
X89338D02*X88838Y173262D01*
Y172262D02*Y173262D01*
X89338Y171762D02*X88838Y172262D01*
X89338Y171762D02*X90838D01*
X87638Y172962D02*X86838Y173762D01*
Y169762D02*Y173762D01*
X86138Y169762D02*X87638D01*
X92538Y208762D02*X93338D01*
X92538Y205262D02*Y208762D01*
X93038Y204762D02*X92538Y205262D01*
X93038Y204762D02*X93538D01*
X94038Y205262D02*X93538Y204762D01*
X94038Y205262D02*Y205762D01*
X90838Y204762D02*Y208762D01*
X89338D02*X91338D01*
X89338D02*X88838Y208262D01*
Y207262D02*Y208262D01*
X89338Y206762D02*X88838Y207262D01*
X89338Y206762D02*X90838D01*
X87638Y207962D02*X86838Y208762D01*
Y204762D02*Y208762D01*
X86138Y204762D02*X87638D01*
X92538Y138762D02*X93338D01*
X92538Y135262D02*Y138762D01*
X93038Y134762D02*X92538Y135262D01*
X93038Y134762D02*X93538D01*
X94038Y135262D02*X93538Y134762D01*
X94038Y135262D02*Y135762D01*
X90838Y134762D02*Y138762D01*
X89338D02*X91338D01*
X89338D02*X88838Y138262D01*
Y137262D02*Y138262D01*
X89338Y136762D02*X88838Y137262D01*
X89338Y136762D02*X90838D01*
X87638Y137962D02*X86838Y138762D01*
Y134762D02*Y138762D01*
X86138Y134762D02*X87638D01*
X92538Y103762D02*X93338D01*
X92538Y100262D02*Y103762D01*
X93038Y99762D02*X92538Y100262D01*
X93038Y99762D02*X93538D01*
X94038Y100262D02*X93538Y99762D01*
X94038Y100262D02*Y100762D01*
X90838Y99762D02*Y103762D01*
X89338D02*X91338D01*
X89338D02*X88838Y103262D01*
Y102262D02*Y103262D01*
X89338Y101762D02*X88838Y102262D01*
X89338Y101762D02*X90838D01*
X87638Y102962D02*X86838Y103762D01*
Y99762D02*Y103762D01*
X86138Y99762D02*X87638D01*
X92538Y68762D02*X93338D01*
X92538Y65262D02*Y68762D01*
X93038Y64762D02*X92538Y65262D01*
X93038Y64762D02*X93538D01*
X94038Y65262D02*X93538Y64762D01*
X94038Y65262D02*Y65762D01*
X90838Y64762D02*Y68762D01*
X89338D02*X91338D01*
X89338D02*X88838Y68262D01*
Y67262D02*Y68262D01*
X89338Y66762D02*X88838Y67262D01*
X89338Y66762D02*X90838D01*
X87638Y67962D02*X86838Y68762D01*
Y64762D02*Y68762D01*
X86138Y64762D02*X87638D01*
X92538Y33762D02*X93338D01*
X92538Y30262D02*Y33762D01*
X93038Y29762D02*X92538Y30262D01*
X93038Y29762D02*X93538D01*
X94038Y30262D02*X93538Y29762D01*
X94038Y30262D02*Y30762D01*
X90838Y29762D02*Y33762D01*
X89338D02*X91338D01*
X89338D02*X88838Y33262D01*
Y32262D02*Y33262D01*
X89338Y31762D02*X88838Y32262D01*
X89338Y31762D02*X90838D01*
X87638Y32962D02*X86838Y33762D01*
Y29762D02*Y33762D01*
X86138Y29762D02*X87638D01*
M02*
