G04 start of page 3 for group 1 idx 1 *
G04 Title: (unknown), bottom *
G04 Creator: pcb 4.0.2 *
G04 CreationDate: Thu Jun 22 03:03:35 2023 UTC *
G04 For: railfan *
G04 Format: Gerber/RS-274X *
G04 PCB-Dimensions (mil): 3000.00 5500.00 *
G04 PCB-Coordinate-Origin: lower left *
%MOIN*%
%FSLAX25Y25*%
%LNBOTTOM*%
%ADD34C,0.0390*%
%ADD33C,0.0140*%
%ADD32C,0.0120*%
%ADD31C,0.0300*%
%ADD30C,0.0240*%
%ADD29C,0.0600*%
%ADD28C,0.0310*%
%ADD27C,0.0250*%
%ADD26C,0.0200*%
%ADD25C,0.0080*%
%ADD24C,0.0100*%
%ADD23C,0.0001*%
G54D23*G36*
X182000Y443000D02*Y431000D01*
X169900D01*
Y434803D01*
X170060Y434940D01*
X170285Y435203D01*
X170466Y435498D01*
X170599Y435818D01*
X170680Y436155D01*
X170700Y436500D01*
X170680Y436845D01*
X170599Y437182D01*
X170466Y437502D01*
X170285Y437797D01*
X170060Y438060D01*
X169797Y438285D01*
X169502Y438466D01*
X169182Y438599D01*
X169000Y438642D01*
Y443000D01*
X182000D01*
G37*
G36*
X170000D02*X268000D01*
Y422000D01*
X245621D01*
X246519Y422898D01*
X246564Y422936D01*
X246717Y423115D01*
X246717Y423116D01*
X246841Y423317D01*
X246931Y423535D01*
X246986Y423765D01*
X247005Y424000D01*
X247000Y424059D01*
Y432441D01*
X247005Y432500D01*
X246986Y432735D01*
X246931Y432965D01*
X246841Y433183D01*
X246717Y433384D01*
X246564Y433564D01*
X246519Y433602D01*
X245102Y435019D01*
X245064Y435064D01*
X244884Y435217D01*
X244683Y435341D01*
X244465Y435431D01*
X244235Y435486D01*
X244000Y435505D01*
X243941Y435500D01*
X242059D01*
X242000Y435505D01*
X241765Y435486D01*
X241535Y435431D01*
X241317Y435341D01*
X241116Y435217D01*
X241115Y435217D01*
X240936Y435064D01*
X240898Y435019D01*
X239579Y433701D01*
X239500Y433707D01*
X239155Y433680D01*
X238818Y433599D01*
X238498Y433466D01*
X238203Y433285D01*
X237940Y433060D01*
X237715Y432797D01*
X237534Y432502D01*
X237401Y432182D01*
X237320Y431845D01*
X237293Y431500D01*
X237320Y431155D01*
X237401Y430818D01*
X237534Y430498D01*
X237715Y430203D01*
X237940Y429940D01*
X238203Y429715D01*
X238498Y429534D01*
X238818Y429401D01*
X239155Y429320D01*
X239500Y429293D01*
X239845Y429320D01*
X240182Y429401D01*
X240502Y429534D01*
X240797Y429715D01*
X241060Y429940D01*
X241250Y430162D01*
X241440Y429940D01*
X241600Y429803D01*
Y426080D01*
X241420Y425900D01*
X170580D01*
X170000Y426480D01*
Y434888D01*
X170060Y434940D01*
X170285Y435203D01*
X170466Y435498D01*
X170599Y435818D01*
X170680Y436155D01*
X170700Y436500D01*
X170680Y436845D01*
X170599Y437182D01*
X170466Y437502D01*
X170285Y437797D01*
X170060Y438060D01*
X170000Y438112D01*
Y443000D01*
G37*
G36*
Y408000D02*X268000D01*
Y387000D01*
X245621D01*
X246519Y387898D01*
X246564Y387936D01*
X246717Y388115D01*
X246717Y388116D01*
X246841Y388317D01*
X246931Y388535D01*
X246986Y388765D01*
X247005Y389000D01*
X247000Y389059D01*
Y397441D01*
X247005Y397500D01*
X246986Y397735D01*
X246931Y397965D01*
X246841Y398183D01*
X246717Y398384D01*
X246564Y398564D01*
X246519Y398602D01*
X245102Y400019D01*
X245064Y400064D01*
X244884Y400217D01*
X244683Y400341D01*
X244465Y400431D01*
X244235Y400486D01*
X244000Y400505D01*
X243941Y400500D01*
X242059D01*
X242000Y400505D01*
X241765Y400486D01*
X241535Y400431D01*
X241317Y400341D01*
X241116Y400217D01*
X241115Y400217D01*
X240936Y400064D01*
X240898Y400019D01*
X239579Y398701D01*
X239500Y398707D01*
X239155Y398680D01*
X238818Y398599D01*
X238498Y398466D01*
X238203Y398285D01*
X237940Y398060D01*
X237715Y397797D01*
X237534Y397502D01*
X237401Y397182D01*
X237320Y396845D01*
X237293Y396500D01*
X237320Y396155D01*
X237401Y395818D01*
X237534Y395498D01*
X237715Y395203D01*
X237940Y394940D01*
X238203Y394715D01*
X238498Y394534D01*
X238818Y394401D01*
X239155Y394320D01*
X239500Y394293D01*
X239845Y394320D01*
X240182Y394401D01*
X240502Y394534D01*
X240797Y394715D01*
X241060Y394940D01*
X241250Y395162D01*
X241440Y394940D01*
X241600Y394803D01*
Y391080D01*
X241420Y390900D01*
X170580D01*
X170000Y391480D01*
Y399888D01*
X170060Y399940D01*
X170285Y400203D01*
X170466Y400498D01*
X170599Y400818D01*
X170680Y401155D01*
X170700Y401500D01*
X170680Y401845D01*
X170599Y402182D01*
X170466Y402502D01*
X170285Y402797D01*
X170060Y403060D01*
X170000Y403112D01*
Y408000D01*
G37*
G36*
Y373000D02*X268000D01*
Y352000D01*
X245621D01*
X246519Y352898D01*
X246564Y352936D01*
X246717Y353115D01*
X246717Y353116D01*
X246841Y353317D01*
X246931Y353535D01*
X246986Y353765D01*
X247005Y354000D01*
X247000Y354059D01*
Y362441D01*
X247005Y362500D01*
X246986Y362735D01*
X246931Y362965D01*
X246841Y363183D01*
X246717Y363384D01*
X246564Y363564D01*
X246519Y363602D01*
X245102Y365019D01*
X245064Y365064D01*
X244884Y365217D01*
X244683Y365341D01*
X244465Y365431D01*
X244235Y365486D01*
X244000Y365505D01*
X243941Y365500D01*
X242059D01*
X242000Y365505D01*
X241765Y365486D01*
X241535Y365431D01*
X241317Y365341D01*
X241116Y365217D01*
X241115Y365217D01*
X240936Y365064D01*
X240898Y365019D01*
X239579Y363701D01*
X239500Y363707D01*
X239155Y363680D01*
X238818Y363599D01*
X238498Y363466D01*
X238203Y363285D01*
X237940Y363060D01*
X237715Y362797D01*
X237534Y362502D01*
X237401Y362182D01*
X237320Y361845D01*
X237293Y361500D01*
X237320Y361155D01*
X237401Y360818D01*
X237534Y360498D01*
X237715Y360203D01*
X237940Y359940D01*
X238203Y359715D01*
X238498Y359534D01*
X238818Y359401D01*
X239155Y359320D01*
X239500Y359293D01*
X239845Y359320D01*
X240182Y359401D01*
X240502Y359534D01*
X240797Y359715D01*
X241060Y359940D01*
X241250Y360162D01*
X241440Y359940D01*
X241600Y359803D01*
Y356080D01*
X241420Y355900D01*
X170580D01*
X170000Y356480D01*
Y364888D01*
X170060Y364940D01*
X170285Y365203D01*
X170466Y365498D01*
X170599Y365818D01*
X170680Y366155D01*
X170700Y366500D01*
X170680Y366845D01*
X170599Y367182D01*
X170466Y367502D01*
X170285Y367797D01*
X170060Y368060D01*
X170000Y368112D01*
Y373000D01*
G37*
G36*
Y338000D02*X268000D01*
Y317000D01*
X245621D01*
X246519Y317898D01*
X246564Y317936D01*
X246717Y318115D01*
X246717Y318116D01*
X246841Y318317D01*
X246931Y318535D01*
X246986Y318765D01*
X247005Y319000D01*
X247000Y319059D01*
Y327441D01*
X247005Y327500D01*
X246986Y327735D01*
X246931Y327965D01*
X246841Y328183D01*
X246717Y328384D01*
X246564Y328564D01*
X246519Y328602D01*
X245102Y330019D01*
X245064Y330064D01*
X244884Y330217D01*
X244683Y330341D01*
X244465Y330431D01*
X244235Y330486D01*
X244000Y330505D01*
X243941Y330500D01*
X242059D01*
X242000Y330505D01*
X241765Y330486D01*
X241535Y330431D01*
X241317Y330341D01*
X241116Y330217D01*
X241115Y330217D01*
X240936Y330064D01*
X240898Y330019D01*
X239579Y328701D01*
X239500Y328707D01*
X239155Y328680D01*
X238818Y328599D01*
X238498Y328466D01*
X238203Y328285D01*
X237940Y328060D01*
X237715Y327797D01*
X237534Y327502D01*
X237401Y327182D01*
X237320Y326845D01*
X237293Y326500D01*
X237320Y326155D01*
X237401Y325818D01*
X237534Y325498D01*
X237715Y325203D01*
X237940Y324940D01*
X238203Y324715D01*
X238498Y324534D01*
X238818Y324401D01*
X239155Y324320D01*
X239500Y324293D01*
X239845Y324320D01*
X240182Y324401D01*
X240502Y324534D01*
X240797Y324715D01*
X241060Y324940D01*
X241250Y325162D01*
X241440Y324940D01*
X241600Y324803D01*
Y321080D01*
X241420Y320900D01*
X170580D01*
X170000Y321480D01*
Y329888D01*
X170060Y329940D01*
X170285Y330203D01*
X170466Y330498D01*
X170599Y330818D01*
X170680Y331155D01*
X170700Y331500D01*
X170680Y331845D01*
X170599Y332182D01*
X170466Y332502D01*
X170285Y332797D01*
X170060Y333060D01*
X170000Y333112D01*
Y338000D01*
G37*
G36*
Y303000D02*X268000D01*
Y282000D01*
X245621D01*
X246519Y282898D01*
X246564Y282936D01*
X246717Y283115D01*
X246717Y283116D01*
X246841Y283317D01*
X246931Y283535D01*
X246986Y283765D01*
X247005Y284000D01*
X247000Y284059D01*
Y292441D01*
X247005Y292500D01*
X246986Y292735D01*
X246931Y292965D01*
X246841Y293183D01*
X246717Y293384D01*
X246564Y293564D01*
X246519Y293602D01*
X245102Y295019D01*
X245064Y295064D01*
X244884Y295217D01*
X244683Y295341D01*
X244465Y295431D01*
X244235Y295486D01*
X244000Y295505D01*
X243941Y295500D01*
X242059D01*
X242000Y295505D01*
X241765Y295486D01*
X241535Y295431D01*
X241317Y295341D01*
X241116Y295217D01*
X241115Y295217D01*
X240936Y295064D01*
X240898Y295019D01*
X239579Y293701D01*
X239500Y293707D01*
X239155Y293680D01*
X238818Y293599D01*
X238498Y293466D01*
X238203Y293285D01*
X237940Y293060D01*
X237715Y292797D01*
X237534Y292502D01*
X237401Y292182D01*
X237320Y291845D01*
X237293Y291500D01*
X237320Y291155D01*
X237401Y290818D01*
X237534Y290498D01*
X237715Y290203D01*
X237940Y289940D01*
X238203Y289715D01*
X238498Y289534D01*
X238818Y289401D01*
X239155Y289320D01*
X239500Y289293D01*
X239845Y289320D01*
X240182Y289401D01*
X240502Y289534D01*
X240797Y289715D01*
X241060Y289940D01*
X241250Y290162D01*
X241440Y289940D01*
X241600Y289803D01*
Y286080D01*
X241420Y285900D01*
X170580D01*
X170000Y286480D01*
Y294888D01*
X170060Y294940D01*
X170285Y295203D01*
X170466Y295498D01*
X170599Y295818D01*
X170680Y296155D01*
X170700Y296500D01*
X170680Y296845D01*
X170599Y297182D01*
X170466Y297502D01*
X170285Y297797D01*
X170060Y298060D01*
X170000Y298112D01*
Y303000D01*
G37*
G36*
Y268000D02*X268000D01*
Y247000D01*
X245621D01*
X246519Y247898D01*
X246564Y247936D01*
X246717Y248115D01*
X246717Y248116D01*
X246841Y248317D01*
X246931Y248535D01*
X246986Y248765D01*
X247005Y249000D01*
X247000Y249059D01*
Y257441D01*
X247005Y257500D01*
X246986Y257735D01*
X246931Y257965D01*
X246841Y258183D01*
X246717Y258384D01*
X246564Y258564D01*
X246519Y258602D01*
X245102Y260019D01*
X245064Y260064D01*
X244884Y260217D01*
X244683Y260341D01*
X244465Y260431D01*
X244235Y260486D01*
X244000Y260505D01*
X243941Y260500D01*
X242059D01*
X242000Y260505D01*
X241765Y260486D01*
X241535Y260431D01*
X241317Y260341D01*
X241116Y260217D01*
X241115Y260217D01*
X240936Y260064D01*
X240898Y260019D01*
X239579Y258701D01*
X239500Y258707D01*
X239155Y258680D01*
X238818Y258599D01*
X238498Y258466D01*
X238203Y258285D01*
X237940Y258060D01*
X237715Y257797D01*
X237534Y257502D01*
X237401Y257182D01*
X237320Y256845D01*
X237293Y256500D01*
X237320Y256155D01*
X237401Y255818D01*
X237534Y255498D01*
X237715Y255203D01*
X237940Y254940D01*
X238203Y254715D01*
X238498Y254534D01*
X238818Y254401D01*
X239155Y254320D01*
X239500Y254293D01*
X239845Y254320D01*
X240182Y254401D01*
X240502Y254534D01*
X240797Y254715D01*
X241060Y254940D01*
X241250Y255162D01*
X241440Y254940D01*
X241600Y254803D01*
Y251080D01*
X241420Y250900D01*
X170580D01*
X170000Y251480D01*
Y259888D01*
X170060Y259940D01*
X170285Y260203D01*
X170466Y260498D01*
X170599Y260818D01*
X170680Y261155D01*
X170700Y261500D01*
X170680Y261845D01*
X170599Y262182D01*
X170466Y262502D01*
X170285Y262797D01*
X170060Y263060D01*
X170000Y263112D01*
Y268000D01*
G37*
G36*
Y233000D02*X268000D01*
Y212000D01*
X245621D01*
X246519Y212898D01*
X246564Y212936D01*
X246717Y213115D01*
X246717Y213116D01*
X246841Y213317D01*
X246931Y213535D01*
X246986Y213765D01*
X247005Y214000D01*
X247000Y214059D01*
Y222441D01*
X247005Y222500D01*
X246986Y222735D01*
X246931Y222965D01*
X246841Y223183D01*
X246717Y223384D01*
X246564Y223564D01*
X246519Y223602D01*
X245102Y225019D01*
X245064Y225064D01*
X244884Y225217D01*
X244683Y225341D01*
X244465Y225431D01*
X244235Y225486D01*
X244000Y225505D01*
X243941Y225500D01*
X242059D01*
X242000Y225505D01*
X241765Y225486D01*
X241535Y225431D01*
X241317Y225341D01*
X241116Y225217D01*
X241115Y225217D01*
X240936Y225064D01*
X240898Y225019D01*
X239579Y223701D01*
X239500Y223707D01*
X239155Y223680D01*
X238818Y223599D01*
X238498Y223466D01*
X238203Y223285D01*
X237940Y223060D01*
X237715Y222797D01*
X237534Y222502D01*
X237401Y222182D01*
X237320Y221845D01*
X237293Y221500D01*
X237320Y221155D01*
X237401Y220818D01*
X237534Y220498D01*
X237715Y220203D01*
X237940Y219940D01*
X238203Y219715D01*
X238498Y219534D01*
X238818Y219401D01*
X239155Y219320D01*
X239500Y219293D01*
X239845Y219320D01*
X240182Y219401D01*
X240502Y219534D01*
X240797Y219715D01*
X241060Y219940D01*
X241250Y220162D01*
X241440Y219940D01*
X241600Y219803D01*
Y216080D01*
X241420Y215900D01*
X170580D01*
X170000Y216480D01*
Y224888D01*
X170060Y224940D01*
X170285Y225203D01*
X170466Y225498D01*
X170599Y225818D01*
X170680Y226155D01*
X170700Y226500D01*
X170680Y226845D01*
X170599Y227182D01*
X170466Y227502D01*
X170285Y227797D01*
X170060Y228060D01*
X170000Y228112D01*
Y233000D01*
G37*
G36*
Y198000D02*X268000D01*
Y177000D01*
X245621D01*
X246519Y177898D01*
X246564Y177936D01*
X246717Y178115D01*
X246717Y178116D01*
X246841Y178317D01*
X246931Y178535D01*
X246986Y178765D01*
X247005Y179000D01*
X247000Y179059D01*
Y187441D01*
X247005Y187500D01*
X246986Y187735D01*
X246931Y187965D01*
X246841Y188183D01*
X246717Y188384D01*
X246564Y188564D01*
X246519Y188602D01*
X245102Y190019D01*
X245064Y190064D01*
X244884Y190217D01*
X244683Y190341D01*
X244465Y190431D01*
X244235Y190486D01*
X244000Y190505D01*
X243941Y190500D01*
X242059D01*
X242000Y190505D01*
X241765Y190486D01*
X241535Y190431D01*
X241317Y190341D01*
X241116Y190217D01*
X241115Y190217D01*
X240936Y190064D01*
X240898Y190019D01*
X239579Y188701D01*
X239500Y188707D01*
X239155Y188680D01*
X238818Y188599D01*
X238498Y188466D01*
X238203Y188285D01*
X237940Y188060D01*
X237715Y187797D01*
X237534Y187502D01*
X237401Y187182D01*
X237320Y186845D01*
X237293Y186500D01*
X237320Y186155D01*
X237401Y185818D01*
X237534Y185498D01*
X237715Y185203D01*
X237940Y184940D01*
X238203Y184715D01*
X238498Y184534D01*
X238818Y184401D01*
X239155Y184320D01*
X239500Y184293D01*
X239845Y184320D01*
X240182Y184401D01*
X240502Y184534D01*
X240797Y184715D01*
X241060Y184940D01*
X241250Y185162D01*
X241440Y184940D01*
X241600Y184803D01*
Y181080D01*
X241420Y180900D01*
X170580D01*
X170000Y181480D01*
Y189888D01*
X170060Y189940D01*
X170285Y190203D01*
X170466Y190498D01*
X170599Y190818D01*
X170680Y191155D01*
X170700Y191500D01*
X170680Y191845D01*
X170599Y192182D01*
X170466Y192502D01*
X170285Y192797D01*
X170060Y193060D01*
X170000Y193112D01*
Y198000D01*
G37*
G36*
Y163000D02*X268000D01*
Y142000D01*
X245621D01*
X246519Y142898D01*
X246564Y142936D01*
X246717Y143115D01*
X246717Y143116D01*
X246841Y143317D01*
X246931Y143535D01*
X246986Y143765D01*
X247005Y144000D01*
X247000Y144059D01*
Y152441D01*
X247005Y152500D01*
X246986Y152735D01*
X246931Y152965D01*
X246841Y153183D01*
X246717Y153384D01*
X246564Y153564D01*
X246519Y153602D01*
X245102Y155019D01*
X245064Y155064D01*
X244884Y155217D01*
X244683Y155341D01*
X244465Y155431D01*
X244235Y155486D01*
X244000Y155505D01*
X243941Y155500D01*
X242059D01*
X242000Y155505D01*
X241765Y155486D01*
X241535Y155431D01*
X241317Y155341D01*
X241116Y155217D01*
X241115Y155217D01*
X240936Y155064D01*
X240898Y155019D01*
X239579Y153701D01*
X239500Y153707D01*
X239155Y153680D01*
X238818Y153599D01*
X238498Y153466D01*
X238203Y153285D01*
X237940Y153060D01*
X237715Y152797D01*
X237534Y152502D01*
X237401Y152182D01*
X237320Y151845D01*
X237293Y151500D01*
X237320Y151155D01*
X237401Y150818D01*
X237534Y150498D01*
X237715Y150203D01*
X237940Y149940D01*
X238203Y149715D01*
X238498Y149534D01*
X238818Y149401D01*
X239155Y149320D01*
X239500Y149293D01*
X239845Y149320D01*
X240182Y149401D01*
X240502Y149534D01*
X240797Y149715D01*
X241060Y149940D01*
X241250Y150162D01*
X241440Y149940D01*
X241600Y149803D01*
Y146080D01*
X241420Y145900D01*
X170580D01*
X170000Y146480D01*
Y154888D01*
X170060Y154940D01*
X170285Y155203D01*
X170466Y155498D01*
X170599Y155818D01*
X170680Y156155D01*
X170700Y156500D01*
X170680Y156845D01*
X170599Y157182D01*
X170466Y157502D01*
X170285Y157797D01*
X170060Y158060D01*
X170000Y158112D01*
Y163000D01*
G37*
G36*
Y128000D02*X268000D01*
Y107000D01*
X245621D01*
X246519Y107898D01*
X246564Y107936D01*
X246717Y108115D01*
X246717Y108116D01*
X246841Y108317D01*
X246931Y108535D01*
X246986Y108765D01*
X247005Y109000D01*
X247000Y109059D01*
Y117441D01*
X247005Y117500D01*
X246986Y117735D01*
X246931Y117965D01*
X246841Y118183D01*
X246717Y118384D01*
X246564Y118564D01*
X246519Y118602D01*
X245102Y120019D01*
X245064Y120064D01*
X244884Y120217D01*
X244683Y120341D01*
X244465Y120431D01*
X244235Y120486D01*
X244000Y120505D01*
X243941Y120500D01*
X242059D01*
X242000Y120505D01*
X241765Y120486D01*
X241535Y120431D01*
X241317Y120341D01*
X241116Y120217D01*
X241115Y120217D01*
X240936Y120064D01*
X240898Y120019D01*
X239579Y118701D01*
X239500Y118707D01*
X239155Y118680D01*
X238818Y118599D01*
X238498Y118466D01*
X238203Y118285D01*
X237940Y118060D01*
X237715Y117797D01*
X237534Y117502D01*
X237401Y117182D01*
X237320Y116845D01*
X237293Y116500D01*
X237320Y116155D01*
X237401Y115818D01*
X237534Y115498D01*
X237715Y115203D01*
X237940Y114940D01*
X238203Y114715D01*
X238498Y114534D01*
X238818Y114401D01*
X239155Y114320D01*
X239500Y114293D01*
X239845Y114320D01*
X240182Y114401D01*
X240502Y114534D01*
X240797Y114715D01*
X241060Y114940D01*
X241250Y115162D01*
X241440Y114940D01*
X241600Y114803D01*
Y111080D01*
X241420Y110900D01*
X170580D01*
X170000Y111480D01*
Y119888D01*
X170060Y119940D01*
X170285Y120203D01*
X170466Y120498D01*
X170599Y120818D01*
X170680Y121155D01*
X170700Y121500D01*
X170680Y121845D01*
X170599Y122182D01*
X170466Y122502D01*
X170285Y122797D01*
X170060Y123060D01*
X170000Y123112D01*
Y128000D01*
G37*
G36*
Y93000D02*X268000D01*
Y72000D01*
X245621D01*
X246519Y72898D01*
X246564Y72936D01*
X246717Y73115D01*
X246717Y73116D01*
X246841Y73317D01*
X246931Y73535D01*
X246986Y73765D01*
X247005Y74000D01*
X247000Y74059D01*
Y82441D01*
X247005Y82500D01*
X246986Y82735D01*
X246931Y82965D01*
X246841Y83183D01*
X246717Y83384D01*
X246564Y83564D01*
X246519Y83602D01*
X245102Y85019D01*
X245064Y85064D01*
X244884Y85217D01*
X244683Y85341D01*
X244465Y85431D01*
X244235Y85486D01*
X244000Y85505D01*
X243941Y85500D01*
X242059D01*
X242000Y85505D01*
X241765Y85486D01*
X241535Y85431D01*
X241317Y85341D01*
X241116Y85217D01*
X241115Y85217D01*
X240936Y85064D01*
X240898Y85019D01*
X239579Y83701D01*
X239500Y83707D01*
X239155Y83680D01*
X238818Y83599D01*
X238498Y83466D01*
X238203Y83285D01*
X237940Y83060D01*
X237715Y82797D01*
X237534Y82502D01*
X237401Y82182D01*
X237320Y81845D01*
X237293Y81500D01*
X237320Y81155D01*
X237401Y80818D01*
X237534Y80498D01*
X237715Y80203D01*
X237940Y79940D01*
X238203Y79715D01*
X238498Y79534D01*
X238818Y79401D01*
X239155Y79320D01*
X239500Y79293D01*
X239845Y79320D01*
X240182Y79401D01*
X240502Y79534D01*
X240797Y79715D01*
X241060Y79940D01*
X241250Y80162D01*
X241440Y79940D01*
X241600Y79803D01*
Y76080D01*
X241420Y75900D01*
X170580D01*
X170000Y76480D01*
Y84888D01*
X170060Y84940D01*
X170285Y85203D01*
X170466Y85498D01*
X170599Y85818D01*
X170680Y86155D01*
X170700Y86500D01*
X170680Y86845D01*
X170599Y87182D01*
X170466Y87502D01*
X170285Y87797D01*
X170060Y88060D01*
X170000Y88112D01*
Y93000D01*
G37*
G36*
X159000Y387000D02*Y390379D01*
X159121Y390500D01*
X163000D01*
Y387000D01*
X159000D01*
G37*
G36*
X182000Y408000D02*Y396000D01*
X169900D01*
Y399803D01*
X170060Y399940D01*
X170285Y400203D01*
X170466Y400498D01*
X170599Y400818D01*
X170680Y401155D01*
X170700Y401500D01*
X170680Y401845D01*
X170599Y402182D01*
X170466Y402502D01*
X170285Y402797D01*
X170060Y403060D01*
X169797Y403285D01*
X169502Y403466D01*
X169182Y403599D01*
X169000Y403642D01*
Y408000D01*
X182000D01*
G37*
G36*
X128000D02*X182000D01*
Y404000D01*
X154507D01*
X154273Y404273D01*
X153974Y404529D01*
X153638Y404734D01*
X153275Y404885D01*
X152892Y404977D01*
X152500Y405008D01*
X152108Y404977D01*
X151725Y404885D01*
X151399Y404750D01*
X150088D01*
X150000Y404757D01*
X149647Y404729D01*
X149303Y404646D01*
X148975Y404511D01*
X148673Y404326D01*
X148673Y404326D01*
X148404Y404096D01*
X148347Y404029D01*
X148318Y404000D01*
X146323D01*
X146179Y404123D01*
X145911Y404288D01*
X145620Y404408D01*
X145314Y404481D01*
X145000Y404506D01*
X144686Y404481D01*
X144380Y404408D01*
X144089Y404288D01*
X143821Y404123D01*
X143677Y404000D01*
X134066D01*
X133843Y404137D01*
X133414Y404314D01*
X132963Y404423D01*
X132500Y404459D01*
X132037Y404423D01*
X131586Y404314D01*
X131157Y404137D01*
X130934Y404000D01*
X128000D01*
Y408000D01*
G37*
G36*
X159000Y352000D02*Y355379D01*
X159121Y355500D01*
X163000D01*
Y352000D01*
X159000D01*
G37*
G36*
X182000Y373000D02*Y361000D01*
X169900D01*
Y364803D01*
X170060Y364940D01*
X170285Y365203D01*
X170466Y365498D01*
X170599Y365818D01*
X170680Y366155D01*
X170700Y366500D01*
X170680Y366845D01*
X170599Y367182D01*
X170466Y367502D01*
X170285Y367797D01*
X170060Y368060D01*
X169797Y368285D01*
X169502Y368466D01*
X169182Y368599D01*
X169000Y368642D01*
Y373000D01*
X182000D01*
G37*
G36*
X128000D02*X182000D01*
Y369000D01*
X154507D01*
X154273Y369273D01*
X153974Y369529D01*
X153638Y369734D01*
X153275Y369885D01*
X152892Y369977D01*
X152500Y370008D01*
X152108Y369977D01*
X151725Y369885D01*
X151399Y369750D01*
X150088D01*
X150000Y369757D01*
X149647Y369729D01*
X149303Y369646D01*
X148975Y369511D01*
X148673Y369326D01*
X148673Y369326D01*
X148404Y369096D01*
X148347Y369029D01*
X148318Y369000D01*
X146323D01*
X146179Y369123D01*
X145911Y369288D01*
X145620Y369408D01*
X145314Y369481D01*
X145000Y369506D01*
X144686Y369481D01*
X144380Y369408D01*
X144089Y369288D01*
X143821Y369123D01*
X143677Y369000D01*
X134066D01*
X133843Y369137D01*
X133414Y369314D01*
X132963Y369423D01*
X132500Y369459D01*
X132037Y369423D01*
X131586Y369314D01*
X131157Y369137D01*
X130934Y369000D01*
X128000D01*
Y373000D01*
G37*
G36*
X182000Y338000D02*Y326000D01*
X169900D01*
Y329803D01*
X170060Y329940D01*
X170285Y330203D01*
X170466Y330498D01*
X170599Y330818D01*
X170680Y331155D01*
X170700Y331500D01*
X170680Y331845D01*
X170599Y332182D01*
X170466Y332502D01*
X170285Y332797D01*
X170060Y333060D01*
X169797Y333285D01*
X169502Y333466D01*
X169182Y333599D01*
X169000Y333642D01*
Y338000D01*
X182000D01*
G37*
G36*
X128000D02*X182000D01*
Y334000D01*
X154507D01*
X154273Y334273D01*
X153974Y334529D01*
X153638Y334734D01*
X153275Y334885D01*
X152892Y334977D01*
X152500Y335008D01*
X152108Y334977D01*
X151725Y334885D01*
X151399Y334750D01*
X150088D01*
X150000Y334757D01*
X149647Y334729D01*
X149303Y334646D01*
X148975Y334511D01*
X148673Y334326D01*
X148673Y334326D01*
X148404Y334096D01*
X148347Y334029D01*
X148318Y334000D01*
X146323D01*
X146179Y334123D01*
X145911Y334288D01*
X145620Y334408D01*
X145314Y334481D01*
X145000Y334506D01*
X144686Y334481D01*
X144380Y334408D01*
X144089Y334288D01*
X143821Y334123D01*
X143677Y334000D01*
X134066D01*
X133843Y334137D01*
X133414Y334314D01*
X132963Y334423D01*
X132500Y334459D01*
X132037Y334423D01*
X131586Y334314D01*
X131157Y334137D01*
X130934Y334000D01*
X128000D01*
Y338000D01*
G37*
G36*
Y233000D02*X182000D01*
Y229000D01*
X154507D01*
X154273Y229273D01*
X153974Y229529D01*
X153638Y229734D01*
X153275Y229885D01*
X152892Y229977D01*
X152500Y230008D01*
X152108Y229977D01*
X151725Y229885D01*
X151399Y229750D01*
X150088D01*
X150000Y229757D01*
X149647Y229729D01*
X149303Y229646D01*
X148975Y229511D01*
X148673Y229326D01*
X148673Y229326D01*
X148404Y229096D01*
X148347Y229029D01*
X148318Y229000D01*
X146323D01*
X146179Y229123D01*
X145911Y229288D01*
X145620Y229408D01*
X145314Y229481D01*
X145000Y229506D01*
X144686Y229481D01*
X144380Y229408D01*
X144089Y229288D01*
X143821Y229123D01*
X143677Y229000D01*
X134066D01*
X133843Y229137D01*
X133414Y229314D01*
X132963Y229423D01*
X132500Y229459D01*
X132037Y229423D01*
X131586Y229314D01*
X131157Y229137D01*
X130934Y229000D01*
X128000D01*
Y233000D01*
G37*
G36*
Y198000D02*X182000D01*
Y194000D01*
X154507D01*
X154273Y194273D01*
X153974Y194529D01*
X153638Y194734D01*
X153275Y194885D01*
X152892Y194977D01*
X152500Y195008D01*
X152108Y194977D01*
X151725Y194885D01*
X151399Y194750D01*
X150088D01*
X150000Y194757D01*
X149647Y194729D01*
X149303Y194646D01*
X148975Y194511D01*
X148673Y194326D01*
X148673Y194326D01*
X148404Y194096D01*
X148347Y194029D01*
X148318Y194000D01*
X146323D01*
X146179Y194123D01*
X145911Y194288D01*
X145620Y194408D01*
X145314Y194481D01*
X145000Y194506D01*
X144686Y194481D01*
X144380Y194408D01*
X144089Y194288D01*
X143821Y194123D01*
X143677Y194000D01*
X134066D01*
X133843Y194137D01*
X133414Y194314D01*
X132963Y194423D01*
X132500Y194459D01*
X132037Y194423D01*
X131586Y194314D01*
X131157Y194137D01*
X130934Y194000D01*
X128000D01*
Y198000D01*
G37*
G36*
Y163000D02*X182000D01*
Y159000D01*
X154507D01*
X154273Y159273D01*
X153974Y159529D01*
X153638Y159734D01*
X153275Y159885D01*
X152892Y159977D01*
X152500Y160008D01*
X152108Y159977D01*
X151725Y159885D01*
X151399Y159750D01*
X150088D01*
X150000Y159757D01*
X149647Y159729D01*
X149303Y159646D01*
X148975Y159511D01*
X148673Y159326D01*
X148673Y159326D01*
X148404Y159096D01*
X148347Y159029D01*
X148318Y159000D01*
X146323D01*
X146179Y159123D01*
X145911Y159288D01*
X145620Y159408D01*
X145314Y159481D01*
X145000Y159506D01*
X144686Y159481D01*
X144380Y159408D01*
X144089Y159288D01*
X143821Y159123D01*
X143677Y159000D01*
X134066D01*
X133843Y159137D01*
X133414Y159314D01*
X132963Y159423D01*
X132500Y159459D01*
X132037Y159423D01*
X131586Y159314D01*
X131157Y159137D01*
X130934Y159000D01*
X128000D01*
Y163000D01*
G37*
G36*
Y128000D02*X182000D01*
Y124000D01*
X154507D01*
X154273Y124273D01*
X153974Y124529D01*
X153638Y124734D01*
X153275Y124885D01*
X152892Y124977D01*
X152500Y125008D01*
X152108Y124977D01*
X151725Y124885D01*
X151399Y124750D01*
X150088D01*
X150000Y124757D01*
X149647Y124729D01*
X149303Y124646D01*
X148975Y124511D01*
X148673Y124326D01*
X148673Y124326D01*
X148404Y124096D01*
X148347Y124029D01*
X148318Y124000D01*
X146323D01*
X146179Y124123D01*
X145911Y124288D01*
X145620Y124408D01*
X145314Y124481D01*
X145000Y124506D01*
X144686Y124481D01*
X144380Y124408D01*
X144089Y124288D01*
X143821Y124123D01*
X143677Y124000D01*
X134066D01*
X133843Y124137D01*
X133414Y124314D01*
X132963Y124423D01*
X132500Y124459D01*
X132037Y124423D01*
X131586Y124314D01*
X131157Y124137D01*
X130934Y124000D01*
X128000D01*
Y128000D01*
G37*
G36*
Y93000D02*X182000D01*
Y89000D01*
X154507D01*
X154273Y89273D01*
X153974Y89529D01*
X153638Y89734D01*
X153275Y89885D01*
X152892Y89977D01*
X152500Y90008D01*
X152108Y89977D01*
X151725Y89885D01*
X151399Y89750D01*
X150088D01*
X150000Y89757D01*
X149647Y89729D01*
X149303Y89646D01*
X148975Y89511D01*
X148673Y89326D01*
X148673Y89326D01*
X148404Y89096D01*
X148347Y89029D01*
X148318Y89000D01*
X146323D01*
X146179Y89123D01*
X145911Y89288D01*
X145620Y89408D01*
X145314Y89481D01*
X145000Y89506D01*
X144686Y89481D01*
X144380Y89408D01*
X144089Y89288D01*
X143821Y89123D01*
X143677Y89000D01*
X134066D01*
X133843Y89137D01*
X133414Y89314D01*
X132963Y89423D01*
X132500Y89459D01*
X132037Y89423D01*
X131586Y89314D01*
X131157Y89137D01*
X130934Y89000D01*
X128000D01*
Y93000D01*
G37*
G36*
X61000Y467000D02*X65493D01*
X65471Y466974D01*
X65266Y466638D01*
X65115Y466275D01*
X65023Y465892D01*
X64992Y465500D01*
X65023Y465108D01*
X65115Y464725D01*
X65266Y464362D01*
X65471Y464026D01*
X65727Y463727D01*
X66026Y463471D01*
X66362Y463266D01*
X66725Y463115D01*
X67108Y463023D01*
X67500Y462992D01*
X67892Y463023D01*
X67977Y463043D01*
X68000Y463020D01*
Y462500D01*
X61000D01*
Y467000D01*
G37*
G36*
Y468000D02*Y478000D01*
X66000D01*
Y476507D01*
X65727Y476273D01*
X65471Y475974D01*
X65266Y475638D01*
X65115Y475275D01*
X65023Y474892D01*
X64992Y474500D01*
X65023Y474108D01*
X65115Y473725D01*
X65266Y473362D01*
X65471Y473026D01*
X65727Y472727D01*
X66000Y472493D01*
Y471507D01*
X65727Y471273D01*
X65471Y470974D01*
X65266Y470638D01*
X65115Y470275D01*
X65023Y469892D01*
X64992Y469500D01*
X65023Y469108D01*
X65115Y468725D01*
X65266Y468362D01*
X65471Y468026D01*
X65493Y468000D01*
X61000D01*
G37*
G36*
Y461500D02*X69520D01*
X72000Y459020D01*
Y457000D01*
X61000D01*
Y461500D01*
G37*
G36*
X77000Y469000D02*X95003D01*
X95009Y466743D01*
X95046Y466590D01*
X95083Y466500D01*
X95046Y466410D01*
X95009Y466257D01*
X95000Y466100D01*
X95008Y463359D01*
X94988Y463100D01*
X95037Y462472D01*
X95184Y461860D01*
X95425Y461278D01*
X95754Y460742D01*
X96046Y460400D01*
X77000D01*
Y469000D01*
G37*
G36*
X81000Y466000D02*Y472250D01*
X87412D01*
X87500Y472243D01*
X87853Y472271D01*
X87853Y472271D01*
X88197Y472354D01*
X88525Y472489D01*
X88827Y472674D01*
X89096Y472904D01*
X89153Y472971D01*
X89932Y473750D01*
X91500D01*
X91853Y473771D01*
X92197Y473854D01*
X92525Y473989D01*
X92827Y474174D01*
X93096Y474404D01*
X93326Y474673D01*
X93511Y474975D01*
X93646Y475303D01*
X93729Y475647D01*
X93757Y476000D01*
X93729Y476353D01*
X93646Y476697D01*
X93511Y477025D01*
X93326Y477327D01*
X93096Y477596D01*
X92827Y477826D01*
X92542Y478000D01*
X99000D01*
Y473912D01*
X98372Y473863D01*
X97760Y473716D01*
X97178Y473475D01*
X96642Y473146D01*
X96163Y472737D01*
X95754Y472258D01*
X95425Y471722D01*
X95184Y471140D01*
X95037Y470528D01*
X94988Y469900D01*
X95000Y469737D01*
X95009Y466743D01*
X95046Y466590D01*
X95083Y466500D01*
X95046Y466410D01*
X95009Y466257D01*
X95000Y466100D01*
X95000Y466000D01*
X81000D01*
G37*
G36*
X83500Y472250D02*Y465500D01*
X77000D01*
Y472250D01*
X83500D01*
G37*
G36*
X103500Y478000D02*Y473000D01*
X101529D01*
X101358Y473146D01*
X100822Y473475D01*
X100240Y473716D01*
X99628Y473863D01*
X99000Y473912D01*
X98372Y473863D01*
X97760Y473716D01*
X97178Y473475D01*
X96642Y473146D01*
X96471Y473000D01*
X95500D01*
Y478000D01*
X103500D01*
G37*
G36*
X109500Y474500D02*Y467467D01*
X109498Y467466D01*
X109203Y467285D01*
X108940Y467060D01*
X108888Y467000D01*
X108612D01*
X108560Y467060D01*
X108297Y467285D01*
X108002Y467466D01*
X107682Y467599D01*
X107345Y467680D01*
X107000Y467707D01*
X106655Y467680D01*
X106318Y467599D01*
X105998Y467466D01*
X105703Y467285D01*
X105440Y467060D01*
X105388Y467000D01*
X103000D01*
X102992Y469758D01*
X103000Y469900D01*
X102991Y470057D01*
Y470057D01*
X102991Y470057D01*
X102963Y470528D01*
X102816Y471140D01*
X102575Y471722D01*
X102246Y472258D01*
X101837Y472737D01*
X101358Y473146D01*
X100822Y473475D01*
X100240Y473716D01*
X99628Y473863D01*
X99000Y473912D01*
X98372Y473863D01*
X97760Y473716D01*
X97178Y473475D01*
X96642Y473146D01*
X96163Y472737D01*
X95754Y472258D01*
X95425Y471722D01*
X95184Y471140D01*
X95037Y470528D01*
X94988Y469900D01*
X95000Y469737D01*
X95009Y467000D01*
X93000D01*
Y474322D01*
X93096Y474404D01*
X93178Y474500D01*
X109500D01*
G37*
G36*
X103500Y467000D02*X94500D01*
Y474500D01*
X103500D01*
Y467000D01*
G37*
G36*
X101000Y478000D02*X131500D01*
Y474279D01*
X131157Y474137D01*
X130761Y473894D01*
X130408Y473592D01*
X130106Y473239D01*
X129863Y472843D01*
X129686Y472414D01*
X129577Y471963D01*
X129541Y471500D01*
X129577Y471037D01*
X129686Y470586D01*
X129863Y470157D01*
X130106Y469761D01*
X130329Y469500D01*
X102992D01*
X102992Y469758D01*
X103000Y469900D01*
X102991Y470057D01*
Y470057D01*
X102991Y470057D01*
X102963Y470528D01*
X102816Y471140D01*
X102575Y471722D01*
X102246Y472258D01*
X101837Y472737D01*
X101358Y473146D01*
X101000Y473366D01*
Y478000D01*
G37*
G36*
X61000Y433000D02*Y443000D01*
X66000D01*
Y441507D01*
X65727Y441273D01*
X65471Y440974D01*
X65266Y440638D01*
X65115Y440275D01*
X65023Y439892D01*
X64992Y439500D01*
X65023Y439108D01*
X65115Y438725D01*
X65266Y438362D01*
X65471Y438026D01*
X65727Y437727D01*
X66000Y437493D01*
Y436507D01*
X65727Y436273D01*
X65471Y435974D01*
X65266Y435638D01*
X65115Y435275D01*
X65023Y434892D01*
X64992Y434500D01*
X65023Y434108D01*
X65115Y433725D01*
X65266Y433362D01*
X65471Y433026D01*
X65493Y433000D01*
X61000D01*
G37*
G36*
X128000Y443000D02*X182000D01*
Y439000D01*
X154507D01*
X154273Y439273D01*
X153974Y439529D01*
X153638Y439734D01*
X153275Y439885D01*
X152892Y439977D01*
X152500Y440008D01*
X152108Y439977D01*
X151725Y439885D01*
X151399Y439750D01*
X150088D01*
X150000Y439757D01*
X149647Y439729D01*
X149303Y439646D01*
X148975Y439511D01*
X148673Y439326D01*
X148673Y439326D01*
X148404Y439096D01*
X148347Y439029D01*
X148318Y439000D01*
X146323D01*
X146179Y439123D01*
X145911Y439288D01*
X145620Y439408D01*
X145314Y439481D01*
X145000Y439506D01*
X144686Y439481D01*
X144380Y439408D01*
X144089Y439288D01*
X143821Y439123D01*
X143677Y439000D01*
X134066D01*
X133843Y439137D01*
X133414Y439314D01*
X132963Y439423D01*
X132500Y439459D01*
X132037Y439423D01*
X131586Y439314D01*
X131157Y439137D01*
X130934Y439000D01*
X128000D01*
Y443000D01*
G37*
G36*
X103500D02*Y438000D01*
X101529D01*
X101358Y438146D01*
X100822Y438475D01*
X100240Y438716D01*
X99628Y438863D01*
X99000Y438912D01*
X98372Y438863D01*
X97760Y438716D01*
X97178Y438475D01*
X96642Y438146D01*
X96471Y438000D01*
X95500D01*
Y443000D01*
X103500D01*
G37*
G36*
X101000D02*X131500D01*
Y439279D01*
X131157Y439137D01*
X130761Y438894D01*
X130408Y438592D01*
X130106Y438239D01*
X129863Y437843D01*
X129686Y437414D01*
X129577Y436963D01*
X129541Y436500D01*
X129577Y436037D01*
X129686Y435586D01*
X129863Y435157D01*
X130106Y434761D01*
X130329Y434500D01*
X102992D01*
X102992Y434758D01*
X103000Y434900D01*
X102991Y435057D01*
Y435057D01*
X102991Y435057D01*
X102963Y435528D01*
X102816Y436140D01*
X102575Y436722D01*
X102246Y437258D01*
X101837Y437737D01*
X101358Y438146D01*
X101000Y438366D01*
Y443000D01*
G37*
G36*
X109500Y439500D02*Y432467D01*
X109498Y432466D01*
X109203Y432285D01*
X108940Y432060D01*
X108888Y432000D01*
X108612D01*
X108560Y432060D01*
X108297Y432285D01*
X108002Y432466D01*
X107682Y432599D01*
X107345Y432680D01*
X107000Y432707D01*
X106655Y432680D01*
X106318Y432599D01*
X105998Y432466D01*
X105703Y432285D01*
X105440Y432060D01*
X105388Y432000D01*
X103000D01*
X102992Y434758D01*
X103000Y434900D01*
X102991Y435057D01*
Y435057D01*
X102991Y435057D01*
X102963Y435528D01*
X102816Y436140D01*
X102575Y436722D01*
X102246Y437258D01*
X101837Y437737D01*
X101358Y438146D01*
X100822Y438475D01*
X100240Y438716D01*
X99628Y438863D01*
X99000Y438912D01*
X98372Y438863D01*
X97760Y438716D01*
X97178Y438475D01*
X96642Y438146D01*
X96163Y437737D01*
X95754Y437258D01*
X95425Y436722D01*
X95184Y436140D01*
X95037Y435528D01*
X94988Y434900D01*
X95000Y434737D01*
X95009Y432000D01*
X93000D01*
Y439322D01*
X93096Y439404D01*
X93178Y439500D01*
X109500D01*
G37*
G36*
X103500Y432000D02*X94500D01*
Y439500D01*
X103500D01*
Y432000D01*
G37*
G36*
X159000Y457000D02*Y460379D01*
X159121Y460500D01*
X163000D01*
Y457000D01*
X159000D01*
G37*
G36*
X182000Y478000D02*Y466000D01*
X169900D01*
Y469803D01*
X170060Y469940D01*
X170285Y470203D01*
X170466Y470498D01*
X170599Y470818D01*
X170680Y471155D01*
X170700Y471500D01*
X170680Y471845D01*
X170599Y472182D01*
X170466Y472502D01*
X170285Y472797D01*
X170060Y473060D01*
X169797Y473285D01*
X169502Y473466D01*
X169182Y473599D01*
X169000Y473642D01*
Y478000D01*
X182000D01*
G37*
G36*
X170000D02*X268000D01*
Y457000D01*
X245621D01*
X246519Y457898D01*
X246564Y457936D01*
X246717Y458115D01*
X246717Y458116D01*
X246841Y458317D01*
X246931Y458535D01*
X246986Y458765D01*
X247005Y459000D01*
X247000Y459059D01*
Y467441D01*
X247005Y467500D01*
X246986Y467735D01*
X246931Y467965D01*
X246841Y468183D01*
X246717Y468384D01*
X246564Y468564D01*
X246519Y468602D01*
X245102Y470019D01*
X245064Y470064D01*
X244884Y470217D01*
X244683Y470341D01*
X244465Y470431D01*
X244235Y470486D01*
X244000Y470505D01*
X243941Y470500D01*
X242059D01*
X242000Y470505D01*
X241765Y470486D01*
X241535Y470431D01*
X241317Y470341D01*
X241116Y470217D01*
X241115Y470217D01*
X240936Y470064D01*
X240898Y470019D01*
X239579Y468701D01*
X239500Y468707D01*
X239155Y468680D01*
X238818Y468599D01*
X238498Y468466D01*
X238203Y468285D01*
X237940Y468060D01*
X237715Y467797D01*
X237534Y467502D01*
X237401Y467182D01*
X237320Y466845D01*
X237293Y466500D01*
X237320Y466155D01*
X237401Y465818D01*
X237534Y465498D01*
X237715Y465203D01*
X237940Y464940D01*
X238203Y464715D01*
X238498Y464534D01*
X238818Y464401D01*
X239155Y464320D01*
X239500Y464293D01*
X239845Y464320D01*
X240182Y464401D01*
X240502Y464534D01*
X240797Y464715D01*
X241060Y464940D01*
X241250Y465162D01*
X241440Y464940D01*
X241600Y464803D01*
Y461080D01*
X241420Y460900D01*
X170580D01*
X170000Y461480D01*
Y469888D01*
X170060Y469940D01*
X170285Y470203D01*
X170466Y470498D01*
X170599Y470818D01*
X170680Y471155D01*
X170700Y471500D01*
X170680Y471845D01*
X170599Y472182D01*
X170466Y472502D01*
X170285Y472797D01*
X170060Y473060D01*
X170000Y473112D01*
Y478000D01*
G37*
G36*
X128000D02*X182000D01*
Y474000D01*
X154507D01*
X154273Y474273D01*
X153974Y474529D01*
X153638Y474734D01*
X153275Y474885D01*
X152892Y474977D01*
X152500Y475008D01*
X152108Y474977D01*
X151725Y474885D01*
X151399Y474750D01*
X150088D01*
X150000Y474757D01*
X149647Y474729D01*
X149303Y474646D01*
X148975Y474511D01*
X148673Y474326D01*
X148673Y474326D01*
X148404Y474096D01*
X148347Y474029D01*
X148318Y474000D01*
X146323D01*
X146179Y474123D01*
X145911Y474288D01*
X145620Y474408D01*
X145314Y474481D01*
X145000Y474506D01*
X144686Y474481D01*
X144380Y474408D01*
X144089Y474288D01*
X143821Y474123D01*
X143677Y474000D01*
X134066D01*
X133843Y474137D01*
X133414Y474314D01*
X132963Y474423D01*
X132500Y474459D01*
X132037Y474423D01*
X131586Y474314D01*
X131157Y474137D01*
X130934Y474000D01*
X128000D01*
Y478000D01*
G37*
G36*
X61000Y432000D02*X65493D01*
X65471Y431974D01*
X65266Y431638D01*
X65115Y431275D01*
X65023Y430892D01*
X64992Y430500D01*
X65023Y430108D01*
X65115Y429725D01*
X65266Y429362D01*
X65471Y429026D01*
X65727Y428727D01*
X66026Y428471D01*
X66362Y428266D01*
X66725Y428115D01*
X67108Y428023D01*
X67500Y427992D01*
X67892Y428023D01*
X67977Y428043D01*
X68000Y428020D01*
Y427500D01*
X61000D01*
Y432000D01*
G37*
G36*
X77000Y434000D02*X95003D01*
X95009Y431743D01*
X95046Y431590D01*
X95083Y431500D01*
X95046Y431410D01*
X95009Y431257D01*
X95000Y431100D01*
X95008Y428359D01*
X94988Y428100D01*
X95037Y427472D01*
X95184Y426860D01*
X95425Y426278D01*
X95754Y425742D01*
X96046Y425400D01*
X77000D01*
Y434000D01*
G37*
G36*
X81000Y431000D02*Y437250D01*
X87412D01*
X87500Y437243D01*
X87853Y437271D01*
X87853Y437271D01*
X88197Y437354D01*
X88525Y437489D01*
X88827Y437674D01*
X89096Y437904D01*
X89153Y437971D01*
X89932Y438750D01*
X91500D01*
X91853Y438771D01*
X92197Y438854D01*
X92525Y438989D01*
X92827Y439174D01*
X93096Y439404D01*
X93326Y439673D01*
X93511Y439975D01*
X93646Y440303D01*
X93729Y440647D01*
X93757Y441000D01*
X93729Y441353D01*
X93646Y441697D01*
X93511Y442025D01*
X93326Y442327D01*
X93096Y442596D01*
X92827Y442826D01*
X92542Y443000D01*
X99000D01*
Y438912D01*
X98372Y438863D01*
X97760Y438716D01*
X97178Y438475D01*
X96642Y438146D01*
X96163Y437737D01*
X95754Y437258D01*
X95425Y436722D01*
X95184Y436140D01*
X95037Y435528D01*
X94988Y434900D01*
X95000Y434737D01*
X95009Y431743D01*
X95046Y431590D01*
X95083Y431500D01*
X95046Y431410D01*
X95009Y431257D01*
X95000Y431100D01*
X95000Y431000D01*
X81000D01*
G37*
G36*
X83500Y437250D02*Y430500D01*
X77000D01*
Y437250D01*
X83500D01*
G37*
G36*
X61000Y426500D02*X69520D01*
X72000Y424020D01*
Y422000D01*
X61000D01*
Y426500D01*
G37*
G36*
X159000Y422000D02*Y425379D01*
X159121Y425500D01*
X163000D01*
Y422000D01*
X159000D01*
G37*
G36*
X77000Y399000D02*X95003D01*
X95009Y396743D01*
X95046Y396590D01*
X95083Y396500D01*
X95046Y396410D01*
X95009Y396257D01*
X95000Y396100D01*
X95008Y393359D01*
X94988Y393100D01*
X95037Y392472D01*
X95184Y391860D01*
X95425Y391278D01*
X95754Y390742D01*
X96046Y390400D01*
X77000D01*
Y399000D01*
G37*
G36*
X81000Y396000D02*Y402250D01*
X87412D01*
X87500Y402243D01*
X87853Y402271D01*
X87853Y402271D01*
X88197Y402354D01*
X88525Y402489D01*
X88827Y402674D01*
X89096Y402904D01*
X89153Y402971D01*
X89932Y403750D01*
X91500D01*
X91853Y403771D01*
X92197Y403854D01*
X92525Y403989D01*
X92827Y404174D01*
X93096Y404404D01*
X93326Y404673D01*
X93511Y404975D01*
X93646Y405303D01*
X93729Y405647D01*
X93757Y406000D01*
X93729Y406353D01*
X93646Y406697D01*
X93511Y407025D01*
X93326Y407327D01*
X93096Y407596D01*
X92827Y407826D01*
X92542Y408000D01*
X99000D01*
Y403912D01*
X98372Y403863D01*
X97760Y403716D01*
X97178Y403475D01*
X96642Y403146D01*
X96163Y402737D01*
X95754Y402258D01*
X95425Y401722D01*
X95184Y401140D01*
X95037Y400528D01*
X94988Y399900D01*
X95000Y399737D01*
X95009Y396743D01*
X95046Y396590D01*
X95083Y396500D01*
X95046Y396410D01*
X95009Y396257D01*
X95000Y396100D01*
X95000Y396000D01*
X81000D01*
G37*
G36*
X103500Y408000D02*Y403000D01*
X101529D01*
X101358Y403146D01*
X100822Y403475D01*
X100240Y403716D01*
X99628Y403863D01*
X99000Y403912D01*
X98372Y403863D01*
X97760Y403716D01*
X97178Y403475D01*
X96642Y403146D01*
X96471Y403000D01*
X95500D01*
Y408000D01*
X103500D01*
G37*
G36*
X83500Y402250D02*Y395500D01*
X77000D01*
Y402250D01*
X83500D01*
G37*
G36*
X101000Y408000D02*X131500D01*
Y404279D01*
X131157Y404137D01*
X130761Y403894D01*
X130408Y403592D01*
X130106Y403239D01*
X129863Y402843D01*
X129686Y402414D01*
X129577Y401963D01*
X129541Y401500D01*
X129577Y401037D01*
X129686Y400586D01*
X129863Y400157D01*
X130106Y399761D01*
X130329Y399500D01*
X102992D01*
X102992Y399758D01*
X103000Y399900D01*
X102991Y400057D01*
Y400057D01*
X102991Y400057D01*
X102963Y400528D01*
X102816Y401140D01*
X102575Y401722D01*
X102246Y402258D01*
X101837Y402737D01*
X101358Y403146D01*
X101000Y403366D01*
Y408000D01*
G37*
G36*
X109500Y404500D02*Y397467D01*
X109498Y397466D01*
X109203Y397285D01*
X108940Y397060D01*
X108888Y397000D01*
X108612D01*
X108560Y397060D01*
X108297Y397285D01*
X108002Y397466D01*
X107682Y397599D01*
X107345Y397680D01*
X107000Y397707D01*
X106655Y397680D01*
X106318Y397599D01*
X105998Y397466D01*
X105703Y397285D01*
X105440Y397060D01*
X105388Y397000D01*
X103000D01*
X102992Y399758D01*
X103000Y399900D01*
X102991Y400057D01*
Y400057D01*
X102991Y400057D01*
X102963Y400528D01*
X102816Y401140D01*
X102575Y401722D01*
X102246Y402258D01*
X101837Y402737D01*
X101358Y403146D01*
X100822Y403475D01*
X100240Y403716D01*
X99628Y403863D01*
X99000Y403912D01*
X98372Y403863D01*
X97760Y403716D01*
X97178Y403475D01*
X96642Y403146D01*
X96163Y402737D01*
X95754Y402258D01*
X95425Y401722D01*
X95184Y401140D01*
X95037Y400528D01*
X94988Y399900D01*
X95000Y399737D01*
X95009Y397000D01*
X93000D01*
Y404322D01*
X93096Y404404D01*
X93178Y404500D01*
X109500D01*
G37*
G36*
X103500Y397000D02*X94500D01*
Y404500D01*
X103500D01*
Y397000D01*
G37*
G36*
X61000D02*X65493D01*
X65471Y396974D01*
X65266Y396638D01*
X65115Y396275D01*
X65023Y395892D01*
X64992Y395500D01*
X65023Y395108D01*
X65115Y394725D01*
X65266Y394362D01*
X65471Y394026D01*
X65727Y393727D01*
X66026Y393471D01*
X66362Y393266D01*
X66725Y393115D01*
X67108Y393023D01*
X67500Y392992D01*
X67892Y393023D01*
X67977Y393043D01*
X68000Y393020D01*
Y392500D01*
X61000D01*
Y397000D01*
G37*
G36*
Y398000D02*Y408000D01*
X66000D01*
Y406507D01*
X65727Y406273D01*
X65471Y405974D01*
X65266Y405638D01*
X65115Y405275D01*
X65023Y404892D01*
X64992Y404500D01*
X65023Y404108D01*
X65115Y403725D01*
X65266Y403362D01*
X65471Y403026D01*
X65727Y402727D01*
X66000Y402493D01*
Y401507D01*
X65727Y401273D01*
X65471Y400974D01*
X65266Y400638D01*
X65115Y400275D01*
X65023Y399892D01*
X64992Y399500D01*
X65023Y399108D01*
X65115Y398725D01*
X65266Y398362D01*
X65471Y398026D01*
X65493Y398000D01*
X61000D01*
G37*
G36*
Y391500D02*X69520D01*
X72000Y389020D01*
Y387000D01*
X61000D01*
Y391500D01*
G37*
G36*
X103500Y362000D02*X94500D01*
Y369500D01*
X103500D01*
Y362000D01*
G37*
G36*
X77000Y364000D02*X95003D01*
X95009Y361743D01*
X95046Y361590D01*
X95083Y361500D01*
X95046Y361410D01*
X95009Y361257D01*
X95000Y361100D01*
X95008Y358359D01*
X94988Y358100D01*
X95037Y357472D01*
X95184Y356860D01*
X95425Y356278D01*
X95754Y355742D01*
X96046Y355400D01*
X77000D01*
Y364000D01*
G37*
G36*
X81000Y361000D02*Y367250D01*
X87412D01*
X87500Y367243D01*
X87853Y367271D01*
X87853Y367271D01*
X88197Y367354D01*
X88525Y367489D01*
X88827Y367674D01*
X89096Y367904D01*
X89153Y367971D01*
X89932Y368750D01*
X91500D01*
X91853Y368771D01*
X92197Y368854D01*
X92525Y368989D01*
X92827Y369174D01*
X93096Y369404D01*
X93326Y369673D01*
X93511Y369975D01*
X93646Y370303D01*
X93729Y370647D01*
X93757Y371000D01*
X93729Y371353D01*
X93646Y371697D01*
X93511Y372025D01*
X93326Y372327D01*
X93096Y372596D01*
X92827Y372826D01*
X92542Y373000D01*
X99000D01*
Y368912D01*
X98372Y368863D01*
X97760Y368716D01*
X97178Y368475D01*
X96642Y368146D01*
X96163Y367737D01*
X95754Y367258D01*
X95425Y366722D01*
X95184Y366140D01*
X95037Y365528D01*
X94988Y364900D01*
X95000Y364737D01*
X95009Y361743D01*
X95046Y361590D01*
X95083Y361500D01*
X95046Y361410D01*
X95009Y361257D01*
X95000Y361100D01*
X95000Y361000D01*
X81000D01*
G37*
G36*
X103500Y373000D02*Y368000D01*
X101529D01*
X101358Y368146D01*
X100822Y368475D01*
X100240Y368716D01*
X99628Y368863D01*
X99000Y368912D01*
X98372Y368863D01*
X97760Y368716D01*
X97178Y368475D01*
X96642Y368146D01*
X96471Y368000D01*
X95500D01*
Y373000D01*
X103500D01*
G37*
G36*
X83500Y367250D02*Y360500D01*
X77000D01*
Y367250D01*
X83500D01*
G37*
G36*
X101000Y373000D02*X131500D01*
Y369279D01*
X131157Y369137D01*
X130761Y368894D01*
X130408Y368592D01*
X130106Y368239D01*
X129863Y367843D01*
X129686Y367414D01*
X129577Y366963D01*
X129541Y366500D01*
X129577Y366037D01*
X129686Y365586D01*
X129863Y365157D01*
X130106Y364761D01*
X130329Y364500D01*
X102992D01*
X102992Y364758D01*
X103000Y364900D01*
X102991Y365057D01*
Y365057D01*
X102991Y365057D01*
X102963Y365528D01*
X102816Y366140D01*
X102575Y366722D01*
X102246Y367258D01*
X101837Y367737D01*
X101358Y368146D01*
X101000Y368366D01*
Y373000D01*
G37*
G36*
X109500Y369500D02*Y362467D01*
X109498Y362466D01*
X109203Y362285D01*
X108940Y362060D01*
X108888Y362000D01*
X108612D01*
X108560Y362060D01*
X108297Y362285D01*
X108002Y362466D01*
X107682Y362599D01*
X107345Y362680D01*
X107000Y362707D01*
X106655Y362680D01*
X106318Y362599D01*
X105998Y362466D01*
X105703Y362285D01*
X105440Y362060D01*
X105388Y362000D01*
X103000D01*
X102992Y364758D01*
X103000Y364900D01*
X102991Y365057D01*
Y365057D01*
X102991Y365057D01*
X102963Y365528D01*
X102816Y366140D01*
X102575Y366722D01*
X102246Y367258D01*
X101837Y367737D01*
X101358Y368146D01*
X100822Y368475D01*
X100240Y368716D01*
X99628Y368863D01*
X99000Y368912D01*
X98372Y368863D01*
X97760Y368716D01*
X97178Y368475D01*
X96642Y368146D01*
X96163Y367737D01*
X95754Y367258D01*
X95425Y366722D01*
X95184Y366140D01*
X95037Y365528D01*
X94988Y364900D01*
X95000Y364737D01*
X95009Y362000D01*
X93000D01*
Y369322D01*
X93096Y369404D01*
X93178Y369500D01*
X109500D01*
G37*
G36*
X81000Y326000D02*Y332250D01*
X87412D01*
X87500Y332243D01*
X87853Y332271D01*
X87853Y332271D01*
X88197Y332354D01*
X88525Y332489D01*
X88827Y332674D01*
X89096Y332904D01*
X89153Y332971D01*
X89932Y333750D01*
X91500D01*
X91853Y333771D01*
X92197Y333854D01*
X92525Y333989D01*
X92827Y334174D01*
X93096Y334404D01*
X93326Y334673D01*
X93511Y334975D01*
X93646Y335303D01*
X93729Y335647D01*
X93757Y336000D01*
X93729Y336353D01*
X93646Y336697D01*
X93511Y337025D01*
X93326Y337327D01*
X93096Y337596D01*
X92827Y337826D01*
X92542Y338000D01*
X99000D01*
Y333912D01*
X98372Y333863D01*
X97760Y333716D01*
X97178Y333475D01*
X96642Y333146D01*
X96163Y332737D01*
X95754Y332258D01*
X95425Y331722D01*
X95184Y331140D01*
X95037Y330528D01*
X94988Y329900D01*
X95000Y329737D01*
X95009Y326743D01*
X95046Y326590D01*
X95083Y326500D01*
X95046Y326410D01*
X95009Y326257D01*
X95000Y326100D01*
X95000Y326000D01*
X81000D01*
G37*
G36*
X103500Y338000D02*Y333000D01*
X101529D01*
X101358Y333146D01*
X100822Y333475D01*
X100240Y333716D01*
X99628Y333863D01*
X99000Y333912D01*
X98372Y333863D01*
X97760Y333716D01*
X97178Y333475D01*
X96642Y333146D01*
X96471Y333000D01*
X95500D01*
Y338000D01*
X103500D01*
G37*
G36*
X83500Y332250D02*Y325500D01*
X77000D01*
Y332250D01*
X83500D01*
G37*
G36*
X101000Y338000D02*X131500D01*
Y334279D01*
X131157Y334137D01*
X130761Y333894D01*
X130408Y333592D01*
X130106Y333239D01*
X129863Y332843D01*
X129686Y332414D01*
X129577Y331963D01*
X129541Y331500D01*
X129577Y331037D01*
X129686Y330586D01*
X129863Y330157D01*
X130106Y329761D01*
X130329Y329500D01*
X102992D01*
X102992Y329758D01*
X103000Y329900D01*
X102991Y330057D01*
Y330057D01*
X102991Y330057D01*
X102963Y330528D01*
X102816Y331140D01*
X102575Y331722D01*
X102246Y332258D01*
X101837Y332737D01*
X101358Y333146D01*
X101000Y333366D01*
Y338000D01*
G37*
G36*
X109500Y334500D02*Y327467D01*
X109498Y327466D01*
X109203Y327285D01*
X108940Y327060D01*
X108888Y327000D01*
X108612D01*
X108560Y327060D01*
X108297Y327285D01*
X108002Y327466D01*
X107682Y327599D01*
X107345Y327680D01*
X107000Y327707D01*
X106655Y327680D01*
X106318Y327599D01*
X105998Y327466D01*
X105703Y327285D01*
X105440Y327060D01*
X105388Y327000D01*
X103000D01*
X102992Y329758D01*
X103000Y329900D01*
X102991Y330057D01*
Y330057D01*
X102991Y330057D01*
X102963Y330528D01*
X102816Y331140D01*
X102575Y331722D01*
X102246Y332258D01*
X101837Y332737D01*
X101358Y333146D01*
X100822Y333475D01*
X100240Y333716D01*
X99628Y333863D01*
X99000Y333912D01*
X98372Y333863D01*
X97760Y333716D01*
X97178Y333475D01*
X96642Y333146D01*
X96163Y332737D01*
X95754Y332258D01*
X95425Y331722D01*
X95184Y331140D01*
X95037Y330528D01*
X94988Y329900D01*
X95000Y329737D01*
X95009Y327000D01*
X93000D01*
Y334322D01*
X93096Y334404D01*
X93178Y334500D01*
X109500D01*
G37*
G36*
X103500Y327000D02*X94500D01*
Y334500D01*
X103500D01*
Y327000D01*
G37*
G36*
X61000Y362000D02*X65493D01*
X65471Y361974D01*
X65266Y361638D01*
X65115Y361275D01*
X65023Y360892D01*
X64992Y360500D01*
X65023Y360108D01*
X65115Y359725D01*
X65266Y359362D01*
X65471Y359026D01*
X65727Y358727D01*
X66026Y358471D01*
X66362Y358266D01*
X66725Y358115D01*
X67108Y358023D01*
X67500Y357992D01*
X67892Y358023D01*
X67977Y358043D01*
X68000Y358020D01*
Y357500D01*
X61000D01*
Y362000D01*
G37*
G36*
Y363000D02*Y373000D01*
X66000D01*
Y371507D01*
X65727Y371273D01*
X65471Y370974D01*
X65266Y370638D01*
X65115Y370275D01*
X65023Y369892D01*
X64992Y369500D01*
X65023Y369108D01*
X65115Y368725D01*
X65266Y368362D01*
X65471Y368026D01*
X65727Y367727D01*
X66000Y367493D01*
Y366507D01*
X65727Y366273D01*
X65471Y365974D01*
X65266Y365638D01*
X65115Y365275D01*
X65023Y364892D01*
X64992Y364500D01*
X65023Y364108D01*
X65115Y363725D01*
X65266Y363362D01*
X65471Y363026D01*
X65493Y363000D01*
X61000D01*
G37*
G36*
Y356500D02*X69520D01*
X72000Y354020D01*
Y352000D01*
X61000D01*
Y356500D01*
G37*
G36*
Y327000D02*X65493D01*
X65471Y326974D01*
X65266Y326638D01*
X65115Y326275D01*
X65023Y325892D01*
X64992Y325500D01*
X65023Y325108D01*
X65115Y324725D01*
X65266Y324362D01*
X65471Y324026D01*
X65727Y323727D01*
X66026Y323471D01*
X66362Y323266D01*
X66725Y323115D01*
X67108Y323023D01*
X67500Y322992D01*
X67892Y323023D01*
X67977Y323043D01*
X68000Y323020D01*
Y322500D01*
X61000D01*
Y327000D01*
G37*
G36*
Y328000D02*Y338000D01*
X66000D01*
Y336507D01*
X65727Y336273D01*
X65471Y335974D01*
X65266Y335638D01*
X65115Y335275D01*
X65023Y334892D01*
X64992Y334500D01*
X65023Y334108D01*
X65115Y333725D01*
X65266Y333362D01*
X65471Y333026D01*
X65727Y332727D01*
X66000Y332493D01*
Y331507D01*
X65727Y331273D01*
X65471Y330974D01*
X65266Y330638D01*
X65115Y330275D01*
X65023Y329892D01*
X64992Y329500D01*
X65023Y329108D01*
X65115Y328725D01*
X65266Y328362D01*
X65471Y328026D01*
X65493Y328000D01*
X61000D01*
G37*
G36*
Y321500D02*X69520D01*
X72000Y319020D01*
Y317000D01*
X61000D01*
Y321500D01*
G37*
G36*
X77000Y329000D02*X95003D01*
X95009Y326743D01*
X95046Y326590D01*
X95083Y326500D01*
X95046Y326410D01*
X95009Y326257D01*
X95000Y326100D01*
X95008Y323359D01*
X94988Y323100D01*
X95037Y322472D01*
X95184Y321860D01*
X95425Y321278D01*
X95754Y320742D01*
X96046Y320400D01*
X77000D01*
Y329000D01*
G37*
G36*
X159000Y317000D02*Y320379D01*
X159121Y320500D01*
X163000D01*
Y317000D01*
X159000D01*
G37*
G36*
Y282000D02*Y285379D01*
X159121Y285500D01*
X163000D01*
Y282000D01*
X159000D01*
G37*
G36*
Y247000D02*Y250379D01*
X159121Y250500D01*
X163000D01*
Y247000D01*
X159000D01*
G37*
G36*
Y177000D02*Y180379D01*
X159121Y180500D01*
X163000D01*
Y177000D01*
X159000D01*
G37*
G36*
Y142000D02*Y145379D01*
X159121Y145500D01*
X163000D01*
Y142000D01*
X159000D01*
G37*
G36*
X81000Y291000D02*Y297250D01*
X87412D01*
X87500Y297243D01*
X87853Y297271D01*
X87853Y297271D01*
X88197Y297354D01*
X88525Y297489D01*
X88827Y297674D01*
X89096Y297904D01*
X89153Y297971D01*
X89932Y298750D01*
X91500D01*
X91853Y298771D01*
X92197Y298854D01*
X92525Y298989D01*
X92827Y299174D01*
X93096Y299404D01*
X93326Y299673D01*
X93511Y299975D01*
X93646Y300303D01*
X93729Y300647D01*
X93757Y301000D01*
X93729Y301353D01*
X93646Y301697D01*
X93511Y302025D01*
X93326Y302327D01*
X93096Y302596D01*
X92827Y302826D01*
X92542Y303000D01*
X99000D01*
Y298912D01*
X98372Y298863D01*
X97760Y298716D01*
X97178Y298475D01*
X96642Y298146D01*
X96163Y297737D01*
X95754Y297258D01*
X95425Y296722D01*
X95184Y296140D01*
X95037Y295528D01*
X94988Y294900D01*
X95000Y294737D01*
X95009Y291743D01*
X95046Y291590D01*
X95083Y291500D01*
X95046Y291410D01*
X95009Y291257D01*
X95000Y291100D01*
X95000Y291000D01*
X81000D01*
G37*
G36*
X101000Y303000D02*X131500D01*
Y299279D01*
X131157Y299137D01*
X130761Y298894D01*
X130408Y298592D01*
X130106Y298239D01*
X129863Y297843D01*
X129686Y297414D01*
X129577Y296963D01*
X129541Y296500D01*
X129577Y296037D01*
X129686Y295586D01*
X129863Y295157D01*
X130106Y294761D01*
X130329Y294500D01*
X102992D01*
X102992Y294758D01*
X103000Y294900D01*
X102991Y295057D01*
Y295057D01*
X102991Y295057D01*
X102963Y295528D01*
X102816Y296140D01*
X102575Y296722D01*
X102246Y297258D01*
X101837Y297737D01*
X101358Y298146D01*
X101000Y298366D01*
Y303000D01*
G37*
G36*
X109500Y299500D02*Y292467D01*
X109498Y292466D01*
X109203Y292285D01*
X108940Y292060D01*
X108888Y292000D01*
X108612D01*
X108560Y292060D01*
X108297Y292285D01*
X108002Y292466D01*
X107682Y292599D01*
X107345Y292680D01*
X107000Y292707D01*
X106655Y292680D01*
X106318Y292599D01*
X105998Y292466D01*
X105703Y292285D01*
X105440Y292060D01*
X105388Y292000D01*
X103000D01*
X102992Y294758D01*
X103000Y294900D01*
X102991Y295057D01*
Y295057D01*
X102991Y295057D01*
X102963Y295528D01*
X102816Y296140D01*
X102575Y296722D01*
X102246Y297258D01*
X101837Y297737D01*
X101358Y298146D01*
X100822Y298475D01*
X100240Y298716D01*
X99628Y298863D01*
X99000Y298912D01*
X98372Y298863D01*
X97760Y298716D01*
X97178Y298475D01*
X96642Y298146D01*
X96163Y297737D01*
X95754Y297258D01*
X95425Y296722D01*
X95184Y296140D01*
X95037Y295528D01*
X94988Y294900D01*
X95000Y294737D01*
X95009Y292000D01*
X93000D01*
Y299322D01*
X93096Y299404D01*
X93178Y299500D01*
X109500D01*
G37*
G36*
X182000Y303000D02*Y291000D01*
X169900D01*
Y294803D01*
X170060Y294940D01*
X170285Y295203D01*
X170466Y295498D01*
X170599Y295818D01*
X170680Y296155D01*
X170700Y296500D01*
X170680Y296845D01*
X170599Y297182D01*
X170466Y297502D01*
X170285Y297797D01*
X170060Y298060D01*
X169797Y298285D01*
X169502Y298466D01*
X169182Y298599D01*
X169000Y298642D01*
Y303000D01*
X182000D01*
G37*
G36*
Y268000D02*Y256000D01*
X169900D01*
Y259803D01*
X170060Y259940D01*
X170285Y260203D01*
X170466Y260498D01*
X170599Y260818D01*
X170680Y261155D01*
X170700Y261500D01*
X170680Y261845D01*
X170599Y262182D01*
X170466Y262502D01*
X170285Y262797D01*
X170060Y263060D01*
X169797Y263285D01*
X169502Y263466D01*
X169182Y263599D01*
X169000Y263642D01*
Y268000D01*
X182000D01*
G37*
G36*
Y233000D02*Y221000D01*
X169900D01*
Y224803D01*
X170060Y224940D01*
X170285Y225203D01*
X170466Y225498D01*
X170599Y225818D01*
X170680Y226155D01*
X170700Y226500D01*
X170680Y226845D01*
X170599Y227182D01*
X170466Y227502D01*
X170285Y227797D01*
X170060Y228060D01*
X169797Y228285D01*
X169502Y228466D01*
X169182Y228599D01*
X169000Y228642D01*
Y233000D01*
X182000D01*
G37*
G36*
X128000Y303000D02*X182000D01*
Y299000D01*
X154507D01*
X154273Y299273D01*
X153974Y299529D01*
X153638Y299734D01*
X153275Y299885D01*
X152892Y299977D01*
X152500Y300008D01*
X152108Y299977D01*
X151725Y299885D01*
X151399Y299750D01*
X150088D01*
X150000Y299757D01*
X149647Y299729D01*
X149303Y299646D01*
X148975Y299511D01*
X148673Y299326D01*
X148673Y299326D01*
X148404Y299096D01*
X148347Y299029D01*
X148318Y299000D01*
X146323D01*
X146179Y299123D01*
X145911Y299288D01*
X145620Y299408D01*
X145314Y299481D01*
X145000Y299506D01*
X144686Y299481D01*
X144380Y299408D01*
X144089Y299288D01*
X143821Y299123D01*
X143677Y299000D01*
X134066D01*
X133843Y299137D01*
X133414Y299314D01*
X132963Y299423D01*
X132500Y299459D01*
X132037Y299423D01*
X131586Y299314D01*
X131157Y299137D01*
X130934Y299000D01*
X128000D01*
Y303000D01*
G37*
G36*
Y268000D02*X182000D01*
Y264000D01*
X154507D01*
X154273Y264273D01*
X153974Y264529D01*
X153638Y264734D01*
X153275Y264885D01*
X152892Y264977D01*
X152500Y265008D01*
X152108Y264977D01*
X151725Y264885D01*
X151399Y264750D01*
X150088D01*
X150000Y264757D01*
X149647Y264729D01*
X149303Y264646D01*
X148975Y264511D01*
X148673Y264326D01*
X148673Y264326D01*
X148404Y264096D01*
X148347Y264029D01*
X148318Y264000D01*
X146323D01*
X146179Y264123D01*
X145911Y264288D01*
X145620Y264408D01*
X145314Y264481D01*
X145000Y264506D01*
X144686Y264481D01*
X144380Y264408D01*
X144089Y264288D01*
X143821Y264123D01*
X143677Y264000D01*
X134066D01*
X133843Y264137D01*
X133414Y264314D01*
X132963Y264423D01*
X132500Y264459D01*
X132037Y264423D01*
X131586Y264314D01*
X131157Y264137D01*
X130934Y264000D01*
X128000D01*
Y268000D01*
G37*
G36*
X61000Y292000D02*X65493D01*
X65471Y291974D01*
X65266Y291638D01*
X65115Y291275D01*
X65023Y290892D01*
X64992Y290500D01*
X65023Y290108D01*
X65115Y289725D01*
X65266Y289362D01*
X65471Y289026D01*
X65727Y288727D01*
X66026Y288471D01*
X66362Y288266D01*
X66725Y288115D01*
X67108Y288023D01*
X67500Y287992D01*
X67892Y288023D01*
X67977Y288043D01*
X68000Y288020D01*
Y287500D01*
X61000D01*
Y292000D01*
G37*
G36*
Y293000D02*Y303000D01*
X66000D01*
Y301507D01*
X65727Y301273D01*
X65471Y300974D01*
X65266Y300638D01*
X65115Y300275D01*
X65023Y299892D01*
X64992Y299500D01*
X65023Y299108D01*
X65115Y298725D01*
X65266Y298362D01*
X65471Y298026D01*
X65727Y297727D01*
X66000Y297493D01*
Y296507D01*
X65727Y296273D01*
X65471Y295974D01*
X65266Y295638D01*
X65115Y295275D01*
X65023Y294892D01*
X64992Y294500D01*
X65023Y294108D01*
X65115Y293725D01*
X65266Y293362D01*
X65471Y293026D01*
X65493Y293000D01*
X61000D01*
G37*
G36*
Y286500D02*X69520D01*
X72000Y284020D01*
Y282000D01*
X61000D01*
Y286500D01*
G37*
G36*
Y222000D02*X65493D01*
X65471Y221974D01*
X65266Y221638D01*
X65115Y221275D01*
X65023Y220892D01*
X64992Y220500D01*
X65023Y220108D01*
X65115Y219725D01*
X65266Y219362D01*
X65471Y219026D01*
X65727Y218727D01*
X66026Y218471D01*
X66362Y218266D01*
X66725Y218115D01*
X67108Y218023D01*
X67500Y217992D01*
X67892Y218023D01*
X67977Y218043D01*
X68000Y218020D01*
Y217500D01*
X61000D01*
Y222000D01*
G37*
G36*
Y223000D02*Y233000D01*
X66000D01*
Y231507D01*
X65727Y231273D01*
X65471Y230974D01*
X65266Y230638D01*
X65115Y230275D01*
X65023Y229892D01*
X64992Y229500D01*
X65023Y229108D01*
X65115Y228725D01*
X65266Y228362D01*
X65471Y228026D01*
X65727Y227727D01*
X66000Y227493D01*
Y226507D01*
X65727Y226273D01*
X65471Y225974D01*
X65266Y225638D01*
X65115Y225275D01*
X65023Y224892D01*
X64992Y224500D01*
X65023Y224108D01*
X65115Y223725D01*
X65266Y223362D01*
X65471Y223026D01*
X65493Y223000D01*
X61000D01*
G37*
G36*
Y216500D02*X69520D01*
X72000Y214020D01*
Y212000D01*
X61000D01*
Y216500D01*
G37*
G36*
X77000Y294000D02*X95003D01*
X95009Y291743D01*
X95046Y291590D01*
X95083Y291500D01*
X95046Y291410D01*
X95009Y291257D01*
X95000Y291100D01*
X95008Y288359D01*
X94988Y288100D01*
X95037Y287472D01*
X95184Y286860D01*
X95425Y286278D01*
X95754Y285742D01*
X96046Y285400D01*
X77000D01*
Y294000D01*
G37*
G36*
X103500Y303000D02*Y298000D01*
X101529D01*
X101358Y298146D01*
X100822Y298475D01*
X100240Y298716D01*
X99628Y298863D01*
X99000Y298912D01*
X98372Y298863D01*
X97760Y298716D01*
X97178Y298475D01*
X96642Y298146D01*
X96471Y298000D01*
X95500D01*
Y303000D01*
X103500D01*
G37*
G36*
X83500Y297250D02*Y290500D01*
X77000D01*
Y297250D01*
X83500D01*
G37*
G36*
X103500Y292000D02*X94500D01*
Y299500D01*
X103500D01*
Y292000D01*
G37*
G36*
X61000Y257000D02*X65493D01*
X65471Y256974D01*
X65266Y256638D01*
X65115Y256275D01*
X65023Y255892D01*
X64992Y255500D01*
X65023Y255108D01*
X65115Y254725D01*
X65266Y254362D01*
X65471Y254026D01*
X65727Y253727D01*
X66026Y253471D01*
X66362Y253266D01*
X66725Y253115D01*
X67108Y253023D01*
X67500Y252992D01*
X67892Y253023D01*
X67977Y253043D01*
X68000Y253020D01*
Y252500D01*
X61000D01*
Y257000D01*
G37*
G36*
Y258000D02*Y268000D01*
X66000D01*
Y266507D01*
X65727Y266273D01*
X65471Y265974D01*
X65266Y265638D01*
X65115Y265275D01*
X65023Y264892D01*
X64992Y264500D01*
X65023Y264108D01*
X65115Y263725D01*
X65266Y263362D01*
X65471Y263026D01*
X65727Y262727D01*
X66000Y262493D01*
Y261507D01*
X65727Y261273D01*
X65471Y260974D01*
X65266Y260638D01*
X65115Y260275D01*
X65023Y259892D01*
X64992Y259500D01*
X65023Y259108D01*
X65115Y258725D01*
X65266Y258362D01*
X65471Y258026D01*
X65493Y258000D01*
X61000D01*
G37*
G36*
Y251500D02*X69520D01*
X72000Y249020D01*
Y247000D01*
X61000D01*
Y251500D01*
G37*
G36*
X77000Y259000D02*X95003D01*
X95009Y256743D01*
X95046Y256590D01*
X95083Y256500D01*
X95046Y256410D01*
X95009Y256257D01*
X95000Y256100D01*
X95008Y253359D01*
X94988Y253100D01*
X95037Y252472D01*
X95184Y251860D01*
X95425Y251278D01*
X95754Y250742D01*
X96046Y250400D01*
X77000D01*
Y259000D01*
G37*
G36*
X103500Y257000D02*X94500D01*
Y264500D01*
X103500D01*
Y257000D01*
G37*
G36*
X77000Y224000D02*X95003D01*
X95009Y221743D01*
X95046Y221590D01*
X95083Y221500D01*
X95046Y221410D01*
X95009Y221257D01*
X95000Y221100D01*
X95008Y218359D01*
X94988Y218100D01*
X95037Y217472D01*
X95184Y216860D01*
X95425Y216278D01*
X95754Y215742D01*
X96046Y215400D01*
X77000D01*
Y224000D01*
G37*
G36*
X81000Y221000D02*Y227250D01*
X87412D01*
X87500Y227243D01*
X87853Y227271D01*
X87853Y227271D01*
X88197Y227354D01*
X88525Y227489D01*
X88827Y227674D01*
X89096Y227904D01*
X89153Y227971D01*
X89932Y228750D01*
X91500D01*
X91853Y228771D01*
X92197Y228854D01*
X92525Y228989D01*
X92827Y229174D01*
X93096Y229404D01*
X93326Y229673D01*
X93511Y229975D01*
X93646Y230303D01*
X93729Y230647D01*
X93757Y231000D01*
X93729Y231353D01*
X93646Y231697D01*
X93511Y232025D01*
X93326Y232327D01*
X93096Y232596D01*
X92827Y232826D01*
X92542Y233000D01*
X99000D01*
Y228912D01*
X98372Y228863D01*
X97760Y228716D01*
X97178Y228475D01*
X96642Y228146D01*
X96163Y227737D01*
X95754Y227258D01*
X95425Y226722D01*
X95184Y226140D01*
X95037Y225528D01*
X94988Y224900D01*
X95000Y224737D01*
X95009Y221743D01*
X95046Y221590D01*
X95083Y221500D01*
X95046Y221410D01*
X95009Y221257D01*
X95000Y221100D01*
X95000Y221000D01*
X81000D01*
G37*
G36*
Y256000D02*Y262250D01*
X87412D01*
X87500Y262243D01*
X87853Y262271D01*
X87853Y262271D01*
X88197Y262354D01*
X88525Y262489D01*
X88827Y262674D01*
X89096Y262904D01*
X89153Y262971D01*
X89932Y263750D01*
X91500D01*
X91853Y263771D01*
X92197Y263854D01*
X92525Y263989D01*
X92827Y264174D01*
X93096Y264404D01*
X93326Y264673D01*
X93511Y264975D01*
X93646Y265303D01*
X93729Y265647D01*
X93757Y266000D01*
X93729Y266353D01*
X93646Y266697D01*
X93511Y267025D01*
X93326Y267327D01*
X93096Y267596D01*
X92827Y267826D01*
X92542Y268000D01*
X99000D01*
Y263912D01*
X98372Y263863D01*
X97760Y263716D01*
X97178Y263475D01*
X96642Y263146D01*
X96163Y262737D01*
X95754Y262258D01*
X95425Y261722D01*
X95184Y261140D01*
X95037Y260528D01*
X94988Y259900D01*
X95000Y259737D01*
X95009Y256743D01*
X95046Y256590D01*
X95083Y256500D01*
X95046Y256410D01*
X95009Y256257D01*
X95000Y256100D01*
X95000Y256000D01*
X81000D01*
G37*
G36*
X103500Y268000D02*Y263000D01*
X101529D01*
X101358Y263146D01*
X100822Y263475D01*
X100240Y263716D01*
X99628Y263863D01*
X99000Y263912D01*
X98372Y263863D01*
X97760Y263716D01*
X97178Y263475D01*
X96642Y263146D01*
X96471Y263000D01*
X95500D01*
Y268000D01*
X103500D01*
G37*
G36*
X83500Y262250D02*Y255500D01*
X77000D01*
Y262250D01*
X83500D01*
G37*
G36*
X101000Y268000D02*X131500D01*
Y264279D01*
X131157Y264137D01*
X130761Y263894D01*
X130408Y263592D01*
X130106Y263239D01*
X129863Y262843D01*
X129686Y262414D01*
X129577Y261963D01*
X129541Y261500D01*
X129577Y261037D01*
X129686Y260586D01*
X129863Y260157D01*
X130106Y259761D01*
X130329Y259500D01*
X102992D01*
X102992Y259758D01*
X103000Y259900D01*
X102991Y260057D01*
Y260057D01*
X102991Y260057D01*
X102963Y260528D01*
X102816Y261140D01*
X102575Y261722D01*
X102246Y262258D01*
X101837Y262737D01*
X101358Y263146D01*
X101000Y263366D01*
Y268000D01*
G37*
G36*
X109500Y264500D02*Y257467D01*
X109498Y257466D01*
X109203Y257285D01*
X108940Y257060D01*
X108888Y257000D01*
X108612D01*
X108560Y257060D01*
X108297Y257285D01*
X108002Y257466D01*
X107682Y257599D01*
X107345Y257680D01*
X107000Y257707D01*
X106655Y257680D01*
X106318Y257599D01*
X105998Y257466D01*
X105703Y257285D01*
X105440Y257060D01*
X105388Y257000D01*
X103000D01*
X102992Y259758D01*
X103000Y259900D01*
X102991Y260057D01*
Y260057D01*
X102991Y260057D01*
X102963Y260528D01*
X102816Y261140D01*
X102575Y261722D01*
X102246Y262258D01*
X101837Y262737D01*
X101358Y263146D01*
X100822Y263475D01*
X100240Y263716D01*
X99628Y263863D01*
X99000Y263912D01*
X98372Y263863D01*
X97760Y263716D01*
X97178Y263475D01*
X96642Y263146D01*
X96163Y262737D01*
X95754Y262258D01*
X95425Y261722D01*
X95184Y261140D01*
X95037Y260528D01*
X94988Y259900D01*
X95000Y259737D01*
X95009Y257000D01*
X93000D01*
Y264322D01*
X93096Y264404D01*
X93178Y264500D01*
X109500D01*
G37*
G36*
X159000Y212000D02*Y215379D01*
X159121Y215500D01*
X163000D01*
Y212000D01*
X159000D01*
G37*
G36*
X101000Y233000D02*X131500D01*
Y229279D01*
X131157Y229137D01*
X130761Y228894D01*
X130408Y228592D01*
X130106Y228239D01*
X129863Y227843D01*
X129686Y227414D01*
X129577Y226963D01*
X129541Y226500D01*
X129577Y226037D01*
X129686Y225586D01*
X129863Y225157D01*
X130106Y224761D01*
X130329Y224500D01*
X102992D01*
X102992Y224758D01*
X103000Y224900D01*
X102991Y225057D01*
Y225057D01*
X102991Y225057D01*
X102963Y225528D01*
X102816Y226140D01*
X102575Y226722D01*
X102246Y227258D01*
X101837Y227737D01*
X101358Y228146D01*
X101000Y228366D01*
Y233000D01*
G37*
G36*
X103500D02*Y228000D01*
X101529D01*
X101358Y228146D01*
X100822Y228475D01*
X100240Y228716D01*
X99628Y228863D01*
X99000Y228912D01*
X98372Y228863D01*
X97760Y228716D01*
X97178Y228475D01*
X96642Y228146D01*
X96471Y228000D01*
X95500D01*
Y233000D01*
X103500D01*
G37*
G36*
X83500Y227250D02*Y220500D01*
X77000D01*
Y227250D01*
X83500D01*
G37*
G36*
X109500Y229500D02*Y222467D01*
X109498Y222466D01*
X109203Y222285D01*
X108940Y222060D01*
X108888Y222000D01*
X108612D01*
X108560Y222060D01*
X108297Y222285D01*
X108002Y222466D01*
X107682Y222599D01*
X107345Y222680D01*
X107000Y222707D01*
X106655Y222680D01*
X106318Y222599D01*
X105998Y222466D01*
X105703Y222285D01*
X105440Y222060D01*
X105388Y222000D01*
X103000D01*
X102992Y224758D01*
X103000Y224900D01*
X102991Y225057D01*
Y225057D01*
X102991Y225057D01*
X102963Y225528D01*
X102816Y226140D01*
X102575Y226722D01*
X102246Y227258D01*
X101837Y227737D01*
X101358Y228146D01*
X100822Y228475D01*
X100240Y228716D01*
X99628Y228863D01*
X99000Y228912D01*
X98372Y228863D01*
X97760Y228716D01*
X97178Y228475D01*
X96642Y228146D01*
X96163Y227737D01*
X95754Y227258D01*
X95425Y226722D01*
X95184Y226140D01*
X95037Y225528D01*
X94988Y224900D01*
X95000Y224737D01*
X95009Y222000D01*
X93000D01*
Y229322D01*
X93096Y229404D01*
X93178Y229500D01*
X109500D01*
G37*
G36*
X103500Y222000D02*X94500D01*
Y229500D01*
X103500D01*
Y222000D01*
G37*
G36*
X81000Y186000D02*Y192250D01*
X87412D01*
X87500Y192243D01*
X87853Y192271D01*
X87853Y192271D01*
X88197Y192354D01*
X88525Y192489D01*
X88827Y192674D01*
X89096Y192904D01*
X89153Y192971D01*
X89932Y193750D01*
X91500D01*
X91853Y193771D01*
X92197Y193854D01*
X92525Y193989D01*
X92827Y194174D01*
X93096Y194404D01*
X93326Y194673D01*
X93511Y194975D01*
X93646Y195303D01*
X93729Y195647D01*
X93757Y196000D01*
X93729Y196353D01*
X93646Y196697D01*
X93511Y197025D01*
X93326Y197327D01*
X93096Y197596D01*
X92827Y197826D01*
X92542Y198000D01*
X99000D01*
Y193912D01*
X98372Y193863D01*
X97760Y193716D01*
X97178Y193475D01*
X96642Y193146D01*
X96163Y192737D01*
X95754Y192258D01*
X95425Y191722D01*
X95184Y191140D01*
X95037Y190528D01*
X94988Y189900D01*
X95000Y189737D01*
X95009Y186743D01*
X95046Y186590D01*
X95083Y186500D01*
X95046Y186410D01*
X95009Y186257D01*
X95000Y186100D01*
X95000Y186000D01*
X81000D01*
G37*
G36*
X182000Y198000D02*Y186000D01*
X169900D01*
Y189803D01*
X170060Y189940D01*
X170285Y190203D01*
X170466Y190498D01*
X170599Y190818D01*
X170680Y191155D01*
X170700Y191500D01*
X170680Y191845D01*
X170599Y192182D01*
X170466Y192502D01*
X170285Y192797D01*
X170060Y193060D01*
X169797Y193285D01*
X169502Y193466D01*
X169182Y193599D01*
X169000Y193642D01*
Y198000D01*
X182000D01*
G37*
G36*
Y163000D02*Y151000D01*
X169900D01*
Y154803D01*
X170060Y154940D01*
X170285Y155203D01*
X170466Y155498D01*
X170599Y155818D01*
X170680Y156155D01*
X170700Y156500D01*
X170680Y156845D01*
X170599Y157182D01*
X170466Y157502D01*
X170285Y157797D01*
X170060Y158060D01*
X169797Y158285D01*
X169502Y158466D01*
X169182Y158599D01*
X169000Y158642D01*
Y163000D01*
X182000D01*
G37*
G36*
X103500Y198000D02*Y193000D01*
X101529D01*
X101358Y193146D01*
X100822Y193475D01*
X100240Y193716D01*
X99628Y193863D01*
X99000Y193912D01*
X98372Y193863D01*
X97760Y193716D01*
X97178Y193475D01*
X96642Y193146D01*
X96471Y193000D01*
X95500D01*
Y198000D01*
X103500D01*
G37*
G36*
X101000D02*X131500D01*
Y194279D01*
X131157Y194137D01*
X130761Y193894D01*
X130408Y193592D01*
X130106Y193239D01*
X129863Y192843D01*
X129686Y192414D01*
X129577Y191963D01*
X129541Y191500D01*
X129577Y191037D01*
X129686Y190586D01*
X129863Y190157D01*
X130106Y189761D01*
X130329Y189500D01*
X102992D01*
X102992Y189758D01*
X103000Y189900D01*
X102991Y190057D01*
Y190057D01*
X102991Y190057D01*
X102963Y190528D01*
X102816Y191140D01*
X102575Y191722D01*
X102246Y192258D01*
X101837Y192737D01*
X101358Y193146D01*
X101000Y193366D01*
Y198000D01*
G37*
G36*
X109500Y194500D02*Y187467D01*
X109498Y187466D01*
X109203Y187285D01*
X108940Y187060D01*
X108888Y187000D01*
X108612D01*
X108560Y187060D01*
X108297Y187285D01*
X108002Y187466D01*
X107682Y187599D01*
X107345Y187680D01*
X107000Y187707D01*
X106655Y187680D01*
X106318Y187599D01*
X105998Y187466D01*
X105703Y187285D01*
X105440Y187060D01*
X105388Y187000D01*
X103000D01*
X102992Y189758D01*
X103000Y189900D01*
X102991Y190057D01*
Y190057D01*
X102991Y190057D01*
X102963Y190528D01*
X102816Y191140D01*
X102575Y191722D01*
X102246Y192258D01*
X101837Y192737D01*
X101358Y193146D01*
X100822Y193475D01*
X100240Y193716D01*
X99628Y193863D01*
X99000Y193912D01*
X98372Y193863D01*
X97760Y193716D01*
X97178Y193475D01*
X96642Y193146D01*
X96163Y192737D01*
X95754Y192258D01*
X95425Y191722D01*
X95184Y191140D01*
X95037Y190528D01*
X94988Y189900D01*
X95000Y189737D01*
X95009Y187000D01*
X93000D01*
Y194322D01*
X93096Y194404D01*
X93178Y194500D01*
X109500D01*
G37*
G36*
X103500Y187000D02*X94500D01*
Y194500D01*
X103500D01*
Y187000D01*
G37*
G36*
X81000Y151000D02*Y157250D01*
X87412D01*
X87500Y157243D01*
X87853Y157271D01*
X87853Y157271D01*
X88197Y157354D01*
X88525Y157489D01*
X88827Y157674D01*
X89096Y157904D01*
X89153Y157971D01*
X89932Y158750D01*
X91500D01*
X91853Y158771D01*
X92197Y158854D01*
X92525Y158989D01*
X92827Y159174D01*
X93096Y159404D01*
X93326Y159673D01*
X93511Y159975D01*
X93646Y160303D01*
X93729Y160647D01*
X93757Y161000D01*
X93729Y161353D01*
X93646Y161697D01*
X93511Y162025D01*
X93326Y162327D01*
X93096Y162596D01*
X92827Y162826D01*
X92542Y163000D01*
X99000D01*
Y158912D01*
X98372Y158863D01*
X97760Y158716D01*
X97178Y158475D01*
X96642Y158146D01*
X96163Y157737D01*
X95754Y157258D01*
X95425Y156722D01*
X95184Y156140D01*
X95037Y155528D01*
X94988Y154900D01*
X95000Y154737D01*
X95009Y151743D01*
X95046Y151590D01*
X95083Y151500D01*
X95046Y151410D01*
X95009Y151257D01*
X95000Y151100D01*
X95000Y151000D01*
X81000D01*
G37*
G36*
X103500Y163000D02*Y158000D01*
X101529D01*
X101358Y158146D01*
X100822Y158475D01*
X100240Y158716D01*
X99628Y158863D01*
X99000Y158912D01*
X98372Y158863D01*
X97760Y158716D01*
X97178Y158475D01*
X96642Y158146D01*
X96471Y158000D01*
X95500D01*
Y163000D01*
X103500D01*
G37*
G36*
X101000D02*X131500D01*
Y159279D01*
X131157Y159137D01*
X130761Y158894D01*
X130408Y158592D01*
X130106Y158239D01*
X129863Y157843D01*
X129686Y157414D01*
X129577Y156963D01*
X129541Y156500D01*
X129577Y156037D01*
X129686Y155586D01*
X129863Y155157D01*
X130106Y154761D01*
X130329Y154500D01*
X102992D01*
X102992Y154758D01*
X103000Y154900D01*
X102991Y155057D01*
Y155057D01*
X102991Y155057D01*
X102963Y155528D01*
X102816Y156140D01*
X102575Y156722D01*
X102246Y157258D01*
X101837Y157737D01*
X101358Y158146D01*
X101000Y158366D01*
Y163000D01*
G37*
G36*
X61000Y187000D02*X65493D01*
X65471Y186974D01*
X65266Y186638D01*
X65115Y186275D01*
X65023Y185892D01*
X64992Y185500D01*
X65023Y185108D01*
X65115Y184725D01*
X65266Y184362D01*
X65471Y184026D01*
X65727Y183727D01*
X66026Y183471D01*
X66362Y183266D01*
X66725Y183115D01*
X67108Y183023D01*
X67500Y182992D01*
X67892Y183023D01*
X67977Y183043D01*
X68000Y183020D01*
Y182500D01*
X61000D01*
Y187000D01*
G37*
G36*
Y181500D02*X69520D01*
X72000Y179020D01*
Y177000D01*
X61000D01*
Y181500D01*
G37*
G36*
X77000Y189000D02*X95003D01*
X95009Y186743D01*
X95046Y186590D01*
X95083Y186500D01*
X95046Y186410D01*
X95009Y186257D01*
X95000Y186100D01*
X95008Y183359D01*
X94988Y183100D01*
X95037Y182472D01*
X95184Y181860D01*
X95425Y181278D01*
X95754Y180742D01*
X96046Y180400D01*
X77000D01*
Y189000D01*
G37*
G36*
X83500Y192250D02*Y185500D01*
X77000D01*
Y192250D01*
X83500D01*
G37*
G36*
X77000Y154000D02*X95003D01*
X95009Y151743D01*
X95046Y151590D01*
X95083Y151500D01*
X95046Y151410D01*
X95009Y151257D01*
X95000Y151100D01*
X95008Y148359D01*
X94988Y148100D01*
X95037Y147472D01*
X95184Y146860D01*
X95425Y146278D01*
X95754Y145742D01*
X96046Y145400D01*
X77000D01*
Y154000D01*
G37*
G36*
X83500Y157250D02*Y150500D01*
X77000D01*
Y157250D01*
X83500D01*
G37*
G36*
X61000Y188000D02*Y198000D01*
X66000D01*
Y196507D01*
X65727Y196273D01*
X65471Y195974D01*
X65266Y195638D01*
X65115Y195275D01*
X65023Y194892D01*
X64992Y194500D01*
X65023Y194108D01*
X65115Y193725D01*
X65266Y193362D01*
X65471Y193026D01*
X65727Y192727D01*
X66000Y192493D01*
Y191507D01*
X65727Y191273D01*
X65471Y190974D01*
X65266Y190638D01*
X65115Y190275D01*
X65023Y189892D01*
X64992Y189500D01*
X65023Y189108D01*
X65115Y188725D01*
X65266Y188362D01*
X65471Y188026D01*
X65493Y188000D01*
X61000D01*
G37*
G36*
Y153000D02*Y163000D01*
X66000D01*
Y161507D01*
X65727Y161273D01*
X65471Y160974D01*
X65266Y160638D01*
X65115Y160275D01*
X65023Y159892D01*
X64992Y159500D01*
X65023Y159108D01*
X65115Y158725D01*
X65266Y158362D01*
X65471Y158026D01*
X65727Y157727D01*
X66000Y157493D01*
Y156507D01*
X65727Y156273D01*
X65471Y155974D01*
X65266Y155638D01*
X65115Y155275D01*
X65023Y154892D01*
X64992Y154500D01*
X65023Y154108D01*
X65115Y153725D01*
X65266Y153362D01*
X65471Y153026D01*
X65493Y153000D01*
X61000D01*
G37*
G36*
Y152000D02*X65493D01*
X65471Y151974D01*
X65266Y151638D01*
X65115Y151275D01*
X65023Y150892D01*
X64992Y150500D01*
X65023Y150108D01*
X65115Y149725D01*
X65266Y149362D01*
X65471Y149026D01*
X65727Y148727D01*
X66026Y148471D01*
X66362Y148266D01*
X66725Y148115D01*
X67108Y148023D01*
X67500Y147992D01*
X67892Y148023D01*
X67977Y148043D01*
X68000Y148020D01*
Y147500D01*
X61000D01*
Y152000D01*
G37*
G36*
Y146500D02*X69520D01*
X72000Y144020D01*
Y142000D01*
X61000D01*
Y146500D01*
G37*
G36*
Y117000D02*X65493D01*
X65471Y116974D01*
X65266Y116638D01*
X65115Y116275D01*
X65023Y115892D01*
X64992Y115500D01*
X65023Y115108D01*
X65115Y114725D01*
X65266Y114362D01*
X65471Y114026D01*
X65727Y113727D01*
X66026Y113471D01*
X66362Y113266D01*
X66725Y113115D01*
X67108Y113023D01*
X67500Y112992D01*
X67892Y113023D01*
X67977Y113043D01*
X68000Y113020D01*
Y112500D01*
X61000D01*
Y117000D01*
G37*
G36*
Y118000D02*Y128000D01*
X66000D01*
Y126507D01*
X65727Y126273D01*
X65471Y125974D01*
X65266Y125638D01*
X65115Y125275D01*
X65023Y124892D01*
X64992Y124500D01*
X65023Y124108D01*
X65115Y123725D01*
X65266Y123362D01*
X65471Y123026D01*
X65727Y122727D01*
X66000Y122493D01*
Y121507D01*
X65727Y121273D01*
X65471Y120974D01*
X65266Y120638D01*
X65115Y120275D01*
X65023Y119892D01*
X64992Y119500D01*
X65023Y119108D01*
X65115Y118725D01*
X65266Y118362D01*
X65471Y118026D01*
X65493Y118000D01*
X61000D01*
G37*
G36*
Y111500D02*X69520D01*
X72000Y109020D01*
Y107000D01*
X61000D01*
Y111500D01*
G37*
G36*
X77000Y119000D02*X95003D01*
X95009Y116743D01*
X95046Y116590D01*
X95083Y116500D01*
X95046Y116410D01*
X95009Y116257D01*
X95000Y116100D01*
X95008Y113359D01*
X94988Y113100D01*
X95037Y112472D01*
X95184Y111860D01*
X95425Y111278D01*
X95754Y110742D01*
X96046Y110400D01*
X77000D01*
Y119000D01*
G37*
G36*
X83500Y122250D02*Y115500D01*
X77000D01*
Y122250D01*
X83500D01*
G37*
G36*
X61000Y82000D02*X65493D01*
X65471Y81974D01*
X65266Y81638D01*
X65115Y81275D01*
X65023Y80892D01*
X64992Y80500D01*
X65023Y80108D01*
X65115Y79725D01*
X65266Y79362D01*
X65471Y79026D01*
X65727Y78727D01*
X66026Y78471D01*
X66362Y78266D01*
X66725Y78115D01*
X67108Y78023D01*
X67500Y77992D01*
X67892Y78023D01*
X67977Y78043D01*
X68000Y78020D01*
Y77500D01*
X61000D01*
Y82000D01*
G37*
G36*
Y83000D02*Y93000D01*
X66000D01*
Y91507D01*
X65727Y91273D01*
X65471Y90974D01*
X65266Y90638D01*
X65115Y90275D01*
X65023Y89892D01*
X64992Y89500D01*
X65023Y89108D01*
X65115Y88725D01*
X65266Y88362D01*
X65471Y88026D01*
X65727Y87727D01*
X66000Y87493D01*
Y86507D01*
X65727Y86273D01*
X65471Y85974D01*
X65266Y85638D01*
X65115Y85275D01*
X65023Y84892D01*
X64992Y84500D01*
X65023Y84108D01*
X65115Y83725D01*
X65266Y83362D01*
X65471Y83026D01*
X65493Y83000D01*
X61000D01*
G37*
G36*
Y76500D02*X69520D01*
X72000Y74020D01*
Y72000D01*
X61000D01*
Y76500D01*
G37*
G36*
X77000Y84000D02*X95003D01*
X95009Y81743D01*
X95046Y81590D01*
X95083Y81500D01*
X95046Y81410D01*
X95009Y81257D01*
X95000Y81100D01*
X95008Y78359D01*
X94988Y78100D01*
X95037Y77472D01*
X95184Y76860D01*
X95425Y76278D01*
X95754Y75742D01*
X96046Y75400D01*
X77000D01*
Y84000D01*
G37*
G36*
X83500Y87250D02*Y80500D01*
X77000D01*
Y87250D01*
X83500D01*
G37*
G36*
X109500Y159500D02*Y152467D01*
X109498Y152466D01*
X109203Y152285D01*
X108940Y152060D01*
X108888Y152000D01*
X108612D01*
X108560Y152060D01*
X108297Y152285D01*
X108002Y152466D01*
X107682Y152599D01*
X107345Y152680D01*
X107000Y152707D01*
X106655Y152680D01*
X106318Y152599D01*
X105998Y152466D01*
X105703Y152285D01*
X105440Y152060D01*
X105388Y152000D01*
X103000D01*
X102992Y154758D01*
X103000Y154900D01*
X102991Y155057D01*
Y155057D01*
X102991Y155057D01*
X102963Y155528D01*
X102816Y156140D01*
X102575Y156722D01*
X102246Y157258D01*
X101837Y157737D01*
X101358Y158146D01*
X100822Y158475D01*
X100240Y158716D01*
X99628Y158863D01*
X99000Y158912D01*
X98372Y158863D01*
X97760Y158716D01*
X97178Y158475D01*
X96642Y158146D01*
X96163Y157737D01*
X95754Y157258D01*
X95425Y156722D01*
X95184Y156140D01*
X95037Y155528D01*
X94988Y154900D01*
X95000Y154737D01*
X95009Y152000D01*
X93000D01*
Y159322D01*
X93096Y159404D01*
X93178Y159500D01*
X109500D01*
G37*
G36*
X103500Y152000D02*X94500D01*
Y159500D01*
X103500D01*
Y152000D01*
G37*
G36*
X159000Y107000D02*Y110379D01*
X159121Y110500D01*
X163000D01*
Y107000D01*
X159000D01*
G37*
G36*
X182000Y128000D02*Y116000D01*
X169900D01*
Y119803D01*
X170060Y119940D01*
X170285Y120203D01*
X170466Y120498D01*
X170599Y120818D01*
X170680Y121155D01*
X170700Y121500D01*
X170680Y121845D01*
X170599Y122182D01*
X170466Y122502D01*
X170285Y122797D01*
X170060Y123060D01*
X169797Y123285D01*
X169502Y123466D01*
X169182Y123599D01*
X169000Y123642D01*
Y128000D01*
X182000D01*
G37*
G36*
X81000Y116000D02*Y122250D01*
X87412D01*
X87500Y122243D01*
X87853Y122271D01*
X87853Y122271D01*
X88197Y122354D01*
X88525Y122489D01*
X88827Y122674D01*
X89096Y122904D01*
X89153Y122971D01*
X89932Y123750D01*
X91500D01*
X91853Y123771D01*
X92197Y123854D01*
X92525Y123989D01*
X92827Y124174D01*
X93096Y124404D01*
X93326Y124673D01*
X93511Y124975D01*
X93646Y125303D01*
X93729Y125647D01*
X93757Y126000D01*
X93729Y126353D01*
X93646Y126697D01*
X93511Y127025D01*
X93326Y127327D01*
X93096Y127596D01*
X92827Y127826D01*
X92542Y128000D01*
X99000D01*
Y123912D01*
X98372Y123863D01*
X97760Y123716D01*
X97178Y123475D01*
X96642Y123146D01*
X96163Y122737D01*
X95754Y122258D01*
X95425Y121722D01*
X95184Y121140D01*
X95037Y120528D01*
X94988Y119900D01*
X95000Y119737D01*
X95009Y116743D01*
X95046Y116590D01*
X95083Y116500D01*
X95046Y116410D01*
X95009Y116257D01*
X95000Y116100D01*
X95000Y116000D01*
X81000D01*
G37*
G36*
X103500Y128000D02*Y123000D01*
X101529D01*
X101358Y123146D01*
X100822Y123475D01*
X100240Y123716D01*
X99628Y123863D01*
X99000Y123912D01*
X98372Y123863D01*
X97760Y123716D01*
X97178Y123475D01*
X96642Y123146D01*
X96471Y123000D01*
X95500D01*
Y128000D01*
X103500D01*
G37*
G36*
X101000D02*X131500D01*
Y124279D01*
X131157Y124137D01*
X130761Y123894D01*
X130408Y123592D01*
X130106Y123239D01*
X129863Y122843D01*
X129686Y122414D01*
X129577Y121963D01*
X129541Y121500D01*
X129577Y121037D01*
X129686Y120586D01*
X129863Y120157D01*
X130106Y119761D01*
X130329Y119500D01*
X102992D01*
X102992Y119758D01*
X103000Y119900D01*
X102991Y120057D01*
Y120057D01*
X102991Y120057D01*
X102963Y120528D01*
X102816Y121140D01*
X102575Y121722D01*
X102246Y122258D01*
X101837Y122737D01*
X101358Y123146D01*
X101000Y123366D01*
Y128000D01*
G37*
G36*
X109500Y124500D02*Y117467D01*
X109498Y117466D01*
X109203Y117285D01*
X108940Y117060D01*
X108888Y117000D01*
X108612D01*
X108560Y117060D01*
X108297Y117285D01*
X108002Y117466D01*
X107682Y117599D01*
X107345Y117680D01*
X107000Y117707D01*
X106655Y117680D01*
X106318Y117599D01*
X105998Y117466D01*
X105703Y117285D01*
X105440Y117060D01*
X105388Y117000D01*
X103000D01*
X102992Y119758D01*
X103000Y119900D01*
X102991Y120057D01*
Y120057D01*
X102991Y120057D01*
X102963Y120528D01*
X102816Y121140D01*
X102575Y121722D01*
X102246Y122258D01*
X101837Y122737D01*
X101358Y123146D01*
X100822Y123475D01*
X100240Y123716D01*
X99628Y123863D01*
X99000Y123912D01*
X98372Y123863D01*
X97760Y123716D01*
X97178Y123475D01*
X96642Y123146D01*
X96163Y122737D01*
X95754Y122258D01*
X95425Y121722D01*
X95184Y121140D01*
X95037Y120528D01*
X94988Y119900D01*
X95000Y119737D01*
X95009Y117000D01*
X93000D01*
Y124322D01*
X93096Y124404D01*
X93178Y124500D01*
X109500D01*
G37*
G36*
X103500Y117000D02*X94500D01*
Y124500D01*
X103500D01*
Y117000D01*
G37*
G36*
X159000Y72000D02*Y75379D01*
X159121Y75500D01*
X163000D01*
Y72000D01*
X159000D01*
G37*
G36*
X81000Y81000D02*Y87250D01*
X87412D01*
X87500Y87243D01*
X87853Y87271D01*
X87853Y87271D01*
X88197Y87354D01*
X88525Y87489D01*
X88827Y87674D01*
X89096Y87904D01*
X89153Y87971D01*
X89932Y88750D01*
X91500D01*
X91853Y88771D01*
X92197Y88854D01*
X92525Y88989D01*
X92827Y89174D01*
X93096Y89404D01*
X93326Y89673D01*
X93511Y89975D01*
X93646Y90303D01*
X93729Y90647D01*
X93757Y91000D01*
X93729Y91353D01*
X93646Y91697D01*
X93511Y92025D01*
X93326Y92327D01*
X93096Y92596D01*
X92827Y92826D01*
X92542Y93000D01*
X99000D01*
Y88912D01*
X98372Y88863D01*
X97760Y88716D01*
X97178Y88475D01*
X96642Y88146D01*
X96163Y87737D01*
X95754Y87258D01*
X95425Y86722D01*
X95184Y86140D01*
X95037Y85528D01*
X94988Y84900D01*
X95000Y84737D01*
X95009Y81743D01*
X95046Y81590D01*
X95083Y81500D01*
X95046Y81410D01*
X95009Y81257D01*
X95000Y81100D01*
X95000Y81000D01*
X81000D01*
G37*
G36*
X103500Y93000D02*Y88000D01*
X101529D01*
X101358Y88146D01*
X100822Y88475D01*
X100240Y88716D01*
X99628Y88863D01*
X99000Y88912D01*
X98372Y88863D01*
X97760Y88716D01*
X97178Y88475D01*
X96642Y88146D01*
X96471Y88000D01*
X95500D01*
Y93000D01*
X103500D01*
G37*
G36*
X101000D02*X131500D01*
Y89279D01*
X131157Y89137D01*
X130761Y88894D01*
X130408Y88592D01*
X130106Y88239D01*
X129863Y87843D01*
X129686Y87414D01*
X129577Y86963D01*
X129541Y86500D01*
X129577Y86037D01*
X129686Y85586D01*
X129863Y85157D01*
X130106Y84761D01*
X130329Y84500D01*
X102992D01*
X102992Y84758D01*
X103000Y84900D01*
X102991Y85057D01*
Y85057D01*
X102991Y85057D01*
X102963Y85528D01*
X102816Y86140D01*
X102575Y86722D01*
X102246Y87258D01*
X101837Y87737D01*
X101358Y88146D01*
X101000Y88366D01*
Y93000D01*
G37*
G36*
X109500Y89500D02*Y82467D01*
X109498Y82466D01*
X109203Y82285D01*
X108940Y82060D01*
X108888Y82000D01*
X108612D01*
X108560Y82060D01*
X108297Y82285D01*
X108002Y82466D01*
X107682Y82599D01*
X107345Y82680D01*
X107000Y82707D01*
X106655Y82680D01*
X106318Y82599D01*
X105998Y82466D01*
X105703Y82285D01*
X105440Y82060D01*
X105388Y82000D01*
X103000D01*
X102992Y84758D01*
X103000Y84900D01*
X102991Y85057D01*
Y85057D01*
X102991Y85057D01*
X102963Y85528D01*
X102816Y86140D01*
X102575Y86722D01*
X102246Y87258D01*
X101837Y87737D01*
X101358Y88146D01*
X100822Y88475D01*
X100240Y88716D01*
X99628Y88863D01*
X99000Y88912D01*
X98372Y88863D01*
X97760Y88716D01*
X97178Y88475D01*
X96642Y88146D01*
X96163Y87737D01*
X95754Y87258D01*
X95425Y86722D01*
X95184Y86140D01*
X95037Y85528D01*
X94988Y84900D01*
X95000Y84737D01*
X95009Y82000D01*
X93000D01*
Y89322D01*
X93096Y89404D01*
X93178Y89500D01*
X109500D01*
G37*
G36*
X103500Y82000D02*X94500D01*
Y89500D01*
X103500D01*
Y82000D01*
G37*
G36*
X182000Y93000D02*Y81000D01*
X169900D01*
Y84803D01*
X170060Y84940D01*
X170285Y85203D01*
X170466Y85498D01*
X170599Y85818D01*
X170680Y86155D01*
X170700Y86500D01*
X170680Y86845D01*
X170599Y87182D01*
X170466Y87502D01*
X170285Y87797D01*
X170060Y88060D01*
X169797Y88285D01*
X169502Y88466D01*
X169182Y88599D01*
X169000Y88642D01*
Y93000D01*
X182000D01*
G37*
G54D24*X145000Y459000D02*X146500Y457500D01*
X229500D01*
X148500Y461000D02*X157500D01*
G54D25*X148500D02*X147500Y465000D01*
G54D24*X157500Y461000D02*X161000Y464500D01*
G54D25*X168500Y471500D02*Y461000D01*
X170000Y459500D01*
G54D24*X161000Y464500D02*Y467000D01*
G54D26*X157000Y466500D02*Y476500D01*
G54D27*X152500Y472500D02*X150000D01*
X147500Y470000D01*
G54D25*X170000Y459500D02*X242000D01*
G54D24*X229500Y457500D02*X244000D01*
G54D25*X242000Y459500D02*X243000Y460500D01*
Y466500D01*
G54D24*X244000Y457500D02*X245500Y459000D01*
Y467500D01*
X244000Y469000D01*
X242000D01*
X239500Y466500D01*
X146500Y422500D02*X229500D01*
G54D25*X170000Y424500D02*X242000D01*
G54D24*X229500Y422500D02*X244000D01*
G54D25*X242000Y424500D02*X243000Y425500D01*
Y431500D01*
G54D24*X244000Y422500D02*X245500Y424000D01*
Y432500D01*
X244000Y434000D01*
X242000D01*
G54D25*X243000Y390500D02*Y396500D01*
G54D24*X245500Y389000D02*Y397500D01*
X244000Y399000D01*
X242000D01*
X239500Y396500D01*
X242000Y434000D02*X239500Y431500D01*
G54D25*X148500Y391000D02*X147500Y395000D01*
G54D24*X146500Y387500D02*X229500D01*
G54D25*X170000Y389500D02*X242000D01*
G54D24*X229500Y387500D02*X244000D01*
G54D25*X242000Y389500D02*X243000Y390500D01*
G54D24*X244000Y387500D02*X245500Y389000D01*
G54D27*X152500Y402500D02*X150000D01*
X147500Y400000D01*
G54D24*X146500Y352500D02*X229500D01*
X244000D01*
X245500Y354000D01*
G54D25*X168500Y366500D02*Y356000D01*
G54D27*X152500Y367500D02*X150000D01*
X147500Y365000D01*
G54D25*X148500Y356000D02*X147500Y360000D01*
X170000Y354500D02*X242000D01*
X243000Y355500D01*
Y361500D01*
G54D24*X245500Y354000D02*Y362500D01*
X244000Y364000D01*
X242000D01*
X239500Y361500D01*
G54D25*X170000Y319500D02*X242000D01*
G54D24*X229500Y317500D02*X244000D01*
G54D25*X242000Y319500D02*X243000Y320500D01*
X168500Y356000D02*X170000Y354500D01*
X168500Y331500D02*Y321000D01*
G54D27*X152500Y332500D02*X150000D01*
X147500Y330000D01*
G54D25*X148500Y321000D02*X147500Y325000D01*
G54D24*X146500Y317500D02*X229500D01*
G54D25*X168500Y321000D02*X170000Y319500D01*
X168500Y296500D02*Y286000D01*
X170000Y284500D01*
G54D27*X152500Y297500D02*X150000D01*
X147500Y295000D01*
G54D25*X148500Y286000D02*X147500Y290000D01*
X243000Y320500D02*Y326500D01*
G54D24*X245500Y319000D02*Y327500D01*
X244000Y329000D01*
X242000D01*
X239500Y326500D01*
X244000Y317500D02*X245500Y319000D01*
G54D25*X243000Y285500D02*Y291500D01*
G54D24*X245500Y284000D02*Y292500D01*
X244000Y294000D01*
X242000D01*
X239500Y291500D01*
X244000Y282500D02*X245500Y284000D01*
X146500Y282500D02*X229500D01*
G54D25*X170000Y284500D02*X242000D01*
G54D24*X229500Y282500D02*X244000D01*
G54D25*X242000Y284500D02*X243000Y285500D01*
G54D24*X146500Y247500D02*X229500D01*
G54D25*X168500Y261500D02*Y251000D01*
X170000Y249500D01*
X242000D01*
X148500Y251000D02*X147500Y255000D01*
G54D24*X242000Y259000D02*X239500Y256500D01*
X229500Y247500D02*X244000D01*
G54D25*X242000Y249500D02*X243000Y250500D01*
G54D24*X244000Y247500D02*X245500Y249000D01*
G54D25*X243000Y250500D02*Y256500D01*
G54D24*X245500Y249000D02*Y257500D01*
X244000Y259000D01*
X242000D01*
X229500Y212500D02*X244000D01*
G54D25*X242000Y214500D02*X243000Y215500D01*
Y221500D01*
G54D24*X244000Y212500D02*X245500Y214000D01*
Y222500D01*
X244000Y224000D01*
X242000D01*
X146500Y212500D02*X229500D01*
G54D25*X170000Y214500D02*X242000D01*
G54D24*Y224000D02*X239500Y221500D01*
G54D25*X148500Y216000D02*X147500Y220000D01*
X168500Y226500D02*Y216000D01*
X170000Y214500D01*
G54D27*X152500Y227500D02*X150000D01*
X147500Y225000D01*
G54D24*X146500Y177500D02*X229500D01*
X244000D01*
X245500Y179000D01*
G54D25*X168500Y191500D02*Y181000D01*
G54D27*X152500Y192500D02*X150000D01*
X147500Y190000D01*
G54D25*X148500Y181000D02*X147500Y185000D01*
X170000Y179500D02*X242000D01*
X243000Y180500D01*
Y186500D01*
G54D24*X245500Y179000D02*Y187500D01*
X244000Y189000D01*
X242000D01*
X239500Y186500D01*
G54D25*X170000Y144500D02*X242000D01*
G54D24*X229500Y142500D02*X244000D01*
G54D25*X242000Y144500D02*X243000Y145500D01*
X168500Y181000D02*X170000Y179500D01*
X168500Y156500D02*Y146000D01*
G54D27*X152500Y157500D02*X150000D01*
X147500Y155000D01*
G54D25*X148500Y146000D02*X147500Y150000D01*
G54D24*X146500Y142500D02*X229500D01*
G54D25*X168500Y146000D02*X170000Y144500D01*
X168500Y121500D02*Y111000D01*
X170000Y109500D01*
G54D27*X152500Y122500D02*X150000D01*
X147500Y120000D01*
G54D25*X148500Y111000D02*X147500Y115000D01*
X243000Y145500D02*Y151500D01*
G54D24*X245500Y144000D02*Y152500D01*
X244000Y154000D01*
X242000D01*
X239500Y151500D01*
X244000Y142500D02*X245500Y144000D01*
G54D25*X243000Y110500D02*Y116500D01*
G54D24*X245500Y109000D02*Y117500D01*
X244000Y119000D01*
X242000D01*
X239500Y116500D01*
X244000Y107500D02*X245500Y109000D01*
X146500Y107500D02*X229500D01*
G54D25*X170000Y109500D02*X242000D01*
G54D24*X229500Y107500D02*X244000D01*
G54D25*X242000Y109500D02*X243000Y110500D01*
G54D24*X146500Y72500D02*X229500D01*
G54D25*X168500Y86500D02*Y76000D01*
X170000Y74500D01*
X242000D01*
X148500Y76000D02*X147500Y80000D01*
G54D24*X229500Y72500D02*X244000D01*
G54D25*X242000Y74500D02*X243000Y75500D01*
G54D24*X244000Y72500D02*X245500Y74000D01*
G54D25*X243000Y75500D02*Y81500D01*
G54D24*X245500Y74000D02*Y82500D01*
X244000Y84000D01*
X242000D01*
X239500Y81500D01*
G54D27*X152500Y87500D02*X150000D01*
X147500Y85000D01*
G54D25*X137500Y465000D02*X136000Y466500D01*
G54D26*X137500Y470000D02*X136500Y477000D01*
G54D25*X145000Y472500D02*X142500Y470000D01*
X141000Y459000D02*X119500D01*
X138500Y460500D02*X120500D01*
X119500Y459000D02*X117000Y461500D01*
X120500Y460500D02*X117000Y464000D01*
Y461500D02*X114000D01*
X136000Y466500D02*X113000D01*
Y464000D02*X117000D01*
X141000Y459000D02*X142500Y460500D01*
X138500D02*X140000Y462000D01*
G54D24*X145000D02*Y459000D01*
G54D25*X142500Y460500D02*Y465000D01*
X115500Y457500D02*X69500D01*
X74000Y459000D02*X111500D01*
X67500Y465500D02*X74000Y459000D01*
G54D27*X67500Y469500D02*X77000D01*
X67500Y474500D02*X87500D01*
X89000Y476000D01*
X91500D01*
G54D25*X111500Y459000D02*X114000Y461500D01*
X113000Y466500D02*X112000Y465500D01*
X110500D01*
X109500Y463000D02*X112000D01*
X113000Y464000D01*
X106500Y462500D02*X104000Y465000D01*
X99000D01*
X107000Y465500D02*X109500Y463000D01*
G54D24*X145000Y424000D02*X146500Y422500D01*
X148500Y426000D02*X157500D01*
X161000Y429500D01*
Y432000D01*
G54D25*X168500Y436500D02*Y426000D01*
X170000Y424500D01*
G54D26*X157000Y431500D02*Y441500D01*
G54D27*X152500Y437500D02*X150000D01*
X147500Y435000D01*
G54D25*X145000Y437500D02*X142500Y435000D01*
X148500Y426000D02*X147500Y430000D01*
X142500Y425500D02*Y430000D01*
X137500D02*X136000Y431500D01*
X141000Y424000D02*X142500Y425500D01*
X138500D02*X140000Y427000D01*
G54D24*X145000D02*Y424000D01*
G54D26*X137500Y435000D02*X136500Y442000D01*
G54D25*X141000Y424000D02*X119500D01*
X138500Y425500D02*X120500D01*
X136000Y431500D02*X113000D01*
Y429000D02*X117000D01*
X138500Y390500D02*X140000Y392000D01*
G54D24*X148500Y391000D02*X157500D01*
X145000Y392000D02*Y389000D01*
X146500Y387500D01*
X157500Y391000D02*X161000Y394500D01*
Y397000D01*
G54D26*X157000Y396500D02*Y406500D01*
G54D25*X168500Y401500D02*Y391000D01*
X170000Y389500D01*
X142500Y390500D02*Y395000D01*
X137500D02*X136000Y396500D01*
G54D26*X137500Y400000D02*X136500Y407000D01*
G54D25*X141000Y389000D02*X142500Y390500D01*
X145000Y402500D02*X142500Y400000D01*
X141000Y389000D02*X119500D01*
X138500Y390500D02*X120500D01*
X136000Y396500D02*X113000D01*
X119500Y389000D02*X117000Y391500D01*
X114000D01*
X120500Y390500D02*X117000Y394000D01*
X113000D02*X117000D01*
X119500Y424000D02*X117000Y426500D01*
X114000D01*
X120500Y425500D02*X117000Y429000D01*
X115500Y422500D02*X69500D01*
X74000Y424000D02*X111500D01*
X67500Y430500D02*X74000Y424000D01*
G54D27*X67500Y434500D02*X77000D01*
X67500Y439500D02*X87500D01*
X89000Y441000D01*
X91500D01*
G54D25*X111500Y424000D02*X114000Y426500D01*
X113000Y431500D02*X112000Y430500D01*
X110500D01*
X109500Y428000D02*X112000D01*
X113000Y429000D01*
X106500Y427500D02*X104000Y430000D01*
X99000D01*
X107000Y430500D02*X109500Y428000D01*
X115500Y387500D02*X69500D01*
X74000Y389000D02*X111500D01*
X67500Y395500D02*X74000Y389000D01*
G54D27*X67500Y399500D02*X77000D01*
X67500Y404500D02*X87500D01*
X89000Y406000D01*
X91500D01*
G54D25*X111500Y389000D02*X114000Y391500D01*
X113000Y396500D02*X112000Y395500D01*
X110500D01*
X109500Y393000D02*X112000D01*
X113000Y394000D01*
X106500Y392500D02*X104000Y395000D01*
X99000D01*
X107000Y395500D02*X109500Y393000D01*
X137500Y360000D02*X136000Y361500D01*
X141000Y354000D02*X142500Y355500D01*
X138500D02*X140000Y357000D01*
G54D24*X145000D02*Y354000D01*
G54D25*Y367500D02*X142500Y365000D01*
Y355500D02*Y360000D01*
G54D24*X145000Y354000D02*X146500Y352500D01*
X148500Y356000D02*X157500D01*
X161000Y359500D01*
Y362000D01*
G54D26*X157000Y361500D02*Y371500D01*
X137500Y365000D02*X136500Y372000D01*
G54D25*X141000Y354000D02*X119500D01*
X138500Y355500D02*X120500D01*
X136000Y361500D02*X113000D01*
X119500Y354000D02*X117000Y356500D01*
X114000D01*
X120500Y355500D02*X117000Y359000D01*
X113000D02*X117000D01*
X115500Y352500D02*X69500D01*
X74000Y354000D02*X111500D01*
X67500Y360500D02*X74000Y354000D01*
G54D27*X67500Y364500D02*X77000D01*
X67500Y369500D02*X87500D01*
X89000Y371000D01*
X91500D01*
G54D25*X111500Y354000D02*X114000Y356500D01*
X113000Y361500D02*X112000Y360500D01*
X110500D01*
X109500Y358000D02*X112000D01*
X113000Y359000D01*
X106500Y357500D02*X104000Y360000D01*
X99000D01*
X107000Y360500D02*X109500Y358000D01*
X119500Y319000D02*X117000Y321500D01*
X114000D01*
X120500Y320500D02*X117000Y324000D01*
X115500Y317500D02*X69500D01*
X74000Y319000D02*X111500D01*
X67500Y325500D02*X74000Y319000D01*
G54D27*X67500Y329500D02*X77000D01*
X67500Y334500D02*X87500D01*
X89000Y336000D01*
X91500D01*
G54D25*X111500Y319000D02*X114000Y321500D01*
X113000Y326500D02*X112000Y325500D01*
X110500D01*
X109500Y323000D02*X112000D01*
X113000Y324000D01*
X106500Y322500D02*X104000Y325000D01*
X99000D01*
X107000Y325500D02*X109500Y323000D01*
X137500Y325000D02*X136000Y326500D01*
X141000Y319000D02*X142500Y320500D01*
X138500D02*X140000Y322000D01*
G54D24*X145000D02*Y319000D01*
G54D25*X142500Y320500D02*Y325000D01*
G54D24*X145000Y319000D02*X146500Y317500D01*
X148500Y321000D02*X157500D01*
X161000Y324500D01*
Y327000D01*
G54D26*X157000Y326500D02*Y336500D01*
G54D25*X145000Y332500D02*X142500Y330000D01*
G54D26*X137500D02*X136500Y337000D01*
G54D25*X141000Y319000D02*X119500D01*
X138500Y320500D02*X120500D01*
X136000Y326500D02*X113000D01*
Y324000D02*X117000D01*
X137500Y290000D02*X136000Y291500D01*
X141000Y284000D02*X142500Y285500D01*
X138500D02*X140000Y287000D01*
G54D24*X145000D02*Y284000D01*
G54D25*X142500Y285500D02*Y290000D01*
G54D24*X145000Y284000D02*X146500Y282500D01*
X148500Y286000D02*X157500D01*
X161000Y289500D01*
Y292000D01*
G54D26*X157000Y291500D02*Y301500D01*
G54D25*X145000Y297500D02*X142500Y295000D01*
X119500Y284000D02*X117000Y286500D01*
X114000D01*
X120500Y285500D02*X117000Y289000D01*
G54D26*X137500Y295000D02*X136500Y302000D01*
G54D25*X141000Y284000D02*X119500D01*
X138500Y285500D02*X120500D01*
X136000Y291500D02*X113000D01*
X115500Y282500D02*X69500D01*
X74000Y284000D02*X111500D01*
X67500Y290500D02*X74000Y284000D01*
G54D27*X67500Y294500D02*X77000D01*
X67500Y299500D02*X87500D01*
X89000Y301000D01*
X91500D01*
G54D25*X111500Y284000D02*X114000Y286500D01*
X113000Y291500D02*X112000Y290500D01*
X110500D01*
X109500Y288000D02*X112000D01*
X113000Y289000D01*
X106500Y287500D02*X104000Y290000D01*
X99000D01*
X107000Y290500D02*X109500Y288000D01*
X113000Y289000D02*X117000D01*
X115500Y247500D02*X69500D01*
X74000Y249000D02*X111500D01*
X67500Y255500D02*X74000Y249000D01*
G54D27*X67500Y259500D02*X77000D01*
X67500Y264500D02*X87500D01*
X89000Y266000D01*
X91500D01*
G54D25*X107000Y255500D02*X109500Y253000D01*
X119500Y249000D02*X117000Y251500D01*
X114000D01*
X120500Y250500D02*X117000Y254000D01*
X111500Y249000D02*X114000Y251500D01*
X106500Y252500D02*X104000Y255000D01*
X99000D01*
X113000Y256500D02*X112000Y255500D01*
X110500D01*
X109500Y253000D02*X112000D01*
X113000Y254000D01*
X137500Y255000D02*X136000Y256500D01*
X141000Y249000D02*X142500Y250500D01*
X138500D02*X140000Y252000D01*
G54D24*X145000D02*Y249000D01*
G54D25*X142500Y250500D02*Y255000D01*
G54D24*X145000Y249000D02*X146500Y247500D01*
X148500Y251000D02*X157500D01*
X161000Y254500D01*
Y257000D01*
G54D26*X157000Y256500D02*Y266500D01*
G54D27*X152500Y262500D02*X150000D01*
X147500Y260000D01*
G54D25*X145000Y262500D02*X142500Y260000D01*
G54D26*X137500D02*X136500Y267000D01*
G54D25*X141000Y249000D02*X119500D01*
X138500Y250500D02*X120500D01*
X136000Y256500D02*X113000D01*
Y254000D02*X117000D01*
X137500Y220000D02*X136000Y221500D01*
X141000Y214000D02*X142500Y215500D01*
X138500D02*X140000Y217000D01*
G54D24*X145000D02*Y214000D01*
G54D25*X142500Y215500D02*Y220000D01*
G54D24*X145000Y214000D02*X146500Y212500D01*
X148500Y216000D02*X157500D01*
X161000Y219500D01*
Y222000D01*
G54D26*X157000Y221500D02*Y231500D01*
G54D25*X145000Y227500D02*X142500Y225000D01*
X119500Y214000D02*X117000Y216500D01*
X114000D01*
G54D26*X137500Y225000D02*X136500Y232000D01*
G54D25*X141000Y214000D02*X119500D01*
X138500Y215500D02*X120500D01*
X136000Y221500D02*X113000D01*
X115500Y212500D02*X69500D01*
X74000Y214000D02*X111500D01*
X67500Y220500D02*X74000Y214000D01*
G54D27*X67500Y224500D02*X77000D01*
X67500Y229500D02*X87500D01*
G54D25*X120500Y215500D02*X117000Y219000D01*
X113000D02*X117000D01*
G54D27*X87500Y229500D02*X89000Y231000D01*
X91500D01*
G54D25*X111500Y214000D02*X114000Y216500D01*
X113000Y221500D02*X112000Y220500D01*
X110500D01*
X109500Y218000D02*X112000D01*
X113000Y219000D01*
X106500Y217500D02*X104000Y220000D01*
X99000D01*
X107000Y220500D02*X109500Y218000D01*
X115500Y177500D02*X69500D01*
X74000Y179000D02*X111500D01*
X67500Y185500D02*X74000Y179000D01*
G54D27*X67500Y189500D02*X77000D01*
X67500Y194500D02*X87500D01*
G54D25*X120500Y180500D02*X117000Y184000D01*
X113000D02*X117000D01*
G54D27*X87500Y194500D02*X89000Y196000D01*
X91500D01*
G54D25*X111500Y179000D02*X114000Y181500D01*
X113000Y186500D02*X112000Y185500D01*
X110500D01*
X109500Y183000D02*X112000D01*
X113000Y184000D01*
X106500Y182500D02*X104000Y185000D01*
X99000D01*
X107000Y185500D02*X109500Y183000D01*
X137500Y185000D02*X136000Y186500D01*
X141000Y179000D02*X142500Y180500D01*
X138500D02*X140000Y182000D01*
G54D24*X145000D02*Y179000D01*
G54D25*X142500Y180500D02*Y185000D01*
G54D24*X145000Y179000D02*X146500Y177500D01*
X148500Y181000D02*X157500D01*
X161000Y184500D01*
Y187000D01*
G54D26*X157000Y186500D02*Y196500D01*
G54D25*X145000Y192500D02*X142500Y190000D01*
X119500Y179000D02*X117000Y181500D01*
X114000D01*
G54D26*X137500Y190000D02*X136500Y197000D01*
G54D25*X141000Y179000D02*X119500D01*
X138500Y180500D02*X120500D01*
X136000Y186500D02*X113000D01*
X137500Y150000D02*X136000Y151500D01*
X141000Y144000D02*X142500Y145500D01*
X138500D02*X140000Y147000D01*
G54D24*X145000D02*Y144000D01*
G54D25*X142500Y145500D02*Y150000D01*
G54D24*X145000Y144000D02*X146500Y142500D01*
X148500Y146000D02*X157500D01*
X161000Y149500D01*
Y152000D01*
G54D26*X157000Y151500D02*Y161500D01*
G54D25*X145000Y157500D02*X142500Y155000D01*
G54D26*X137500D02*X136500Y162000D01*
G54D25*X141000Y144000D02*X119500D01*
X138500Y145500D02*X120500D01*
X136000Y151500D02*X113000D01*
X115500Y142500D02*X69500D01*
X74000Y144000D02*X111500D01*
X67500Y150500D02*X74000Y144000D01*
G54D27*X67500Y154500D02*X77000D01*
X67500Y159500D02*X87500D01*
X89000Y161000D01*
X91500D01*
G54D25*X107000Y150500D02*X109500Y148000D01*
X119500Y144000D02*X117000Y146500D01*
X114000D01*
X120500Y145500D02*X117000Y149000D01*
X111500Y144000D02*X114000Y146500D01*
X106500Y147500D02*X104000Y150000D01*
X99000D01*
X113000Y151500D02*X112000Y150500D01*
X110500D01*
X113000Y149000D02*X117000D01*
X109500Y148000D02*X112000D01*
X113000Y149000D01*
X115500Y107500D02*X69500D01*
X74000Y109000D02*X111500D01*
X67500Y115500D02*X74000Y109000D01*
G54D27*X67500Y119500D02*X77000D01*
X67500Y124500D02*X87500D01*
X89000Y126000D01*
X91500D01*
G54D25*X112000Y113000D02*X113000Y114000D01*
X119500Y109000D02*X117000Y111500D01*
X120500Y110500D02*X117000Y114000D01*
Y111500D02*X114000D01*
X111500Y109000D02*X114000Y111500D01*
X113000Y116500D02*X112000Y115500D01*
X110500D01*
X109500Y113000D02*X112000D01*
X106500Y112500D02*X104000Y115000D01*
X99000D01*
X107000Y115500D02*X109500Y113000D01*
X115500Y72500D02*X69500D01*
X74000Y74000D02*X111500D01*
X67500Y80500D02*X74000Y74000D01*
G54D27*X67500Y84500D02*X77000D01*
X67500Y89500D02*X87500D01*
X89000Y91000D01*
X91500D01*
G54D25*X111500Y74000D02*X114000Y76500D01*
X113000Y81500D02*X112000Y80500D01*
X110500D01*
X109500Y78000D02*X112000D01*
X113000Y79000D01*
X106500Y77500D02*X104000Y80000D01*
X99000D01*
X107000Y80500D02*X109500Y78000D01*
X113000Y79000D02*X117000D01*
X137500Y115000D02*X136000Y116500D01*
X141000Y109000D02*X142500Y110500D01*
X138500D02*X140000Y112000D01*
G54D24*X145000D02*Y109000D01*
G54D25*X142500Y110500D02*Y115000D01*
G54D24*X145000Y109000D02*X146500Y107500D01*
X148500Y111000D02*X157500D01*
X161000Y114500D01*
Y117000D01*
G54D26*X157000Y116500D02*Y126500D01*
G54D25*X145000Y122500D02*X142500Y120000D01*
G54D26*X137500D02*X136500Y127000D01*
G54D25*X141000Y109000D02*X119500D01*
X138500Y110500D02*X120500D01*
X136000Y116500D02*X113000D01*
Y114000D02*X117000D01*
X137500Y80000D02*X136000Y81500D01*
X141000Y74000D02*X142500Y75500D01*
X138500D02*X140000Y77000D01*
G54D24*X145000D02*Y74000D01*
G54D25*X142500Y75500D02*Y80000D01*
G54D24*X145000Y74000D02*X146500Y72500D01*
X148500Y76000D02*X157500D01*
X161000Y79500D01*
Y82000D01*
G54D26*X157000Y81500D02*Y91500D01*
G54D25*X145000Y87500D02*X142500Y85000D01*
X119500Y74000D02*X117000Y76500D01*
X114000D01*
X120500Y75500D02*X117000Y79000D01*
G54D26*X137500Y85000D02*X136500Y92000D01*
G54D25*X141000Y74000D02*X119500D01*
X138500Y75500D02*X120500D01*
X136000Y81500D02*X113000D01*
G54D28*X147500Y430000D03*
Y435000D03*
X142500Y430000D03*
Y435000D03*
X137500Y430000D03*
Y435000D03*
X147500Y395000D03*
Y400000D03*
X142500Y395000D03*
Y400000D03*
X137500Y395000D03*
Y400000D03*
G54D23*G36*
X60002Y466418D02*Y463582D01*
X64754D01*
Y466418D01*
X60002D01*
G37*
G36*
Y461418D02*Y458582D01*
X64754D01*
Y461418D01*
X60002D01*
G37*
G36*
Y476418D02*Y473582D01*
X64754D01*
Y476418D01*
X60002D01*
G37*
G36*
Y471418D02*Y468582D01*
X64754D01*
Y471418D01*
X60002D01*
G37*
G54D29*X99000Y469900D03*
G54D23*G36*
X96000D02*Y466900D01*
X102000D01*
Y469900D01*
X96000D01*
G37*
G54D29*X99000Y463100D03*
G54D23*G36*
X96000Y466100D02*Y463100D01*
X102000D01*
Y466100D01*
X96000D01*
G37*
G36*
X60002Y426418D02*Y423582D01*
X64754D01*
Y426418D01*
X60002D01*
G37*
G36*
Y431418D02*Y428582D01*
X64754D01*
Y431418D01*
X60002D01*
G37*
G36*
Y441418D02*Y438582D01*
X64754D01*
Y441418D01*
X60002D01*
G37*
G36*
Y436418D02*Y433582D01*
X64754D01*
Y436418D01*
X60002D01*
G37*
G54D29*X99000Y434900D03*
G54D23*G36*
X96000D02*Y431900D01*
X102000D01*
Y434900D01*
X96000D01*
G37*
G54D29*X99000Y428100D03*
G54D23*G36*
X96000Y431100D02*Y428100D01*
X102000D01*
Y431100D01*
X96000D01*
G37*
G54D28*X147500Y465000D03*
Y470000D03*
X142500Y465000D03*
Y470000D03*
X137500Y465000D03*
Y470000D03*
G54D23*G36*
X60002Y391418D02*Y388582D01*
X64754D01*
Y391418D01*
X60002D01*
G37*
G36*
Y396418D02*Y393582D01*
X64754D01*
Y396418D01*
X60002D01*
G37*
G36*
Y406418D02*Y403582D01*
X64754D01*
Y406418D01*
X60002D01*
G37*
G36*
Y401418D02*Y398582D01*
X64754D01*
Y401418D01*
X60002D01*
G37*
G54D29*X99000Y399900D03*
G54D23*G36*
X96000D02*Y396900D01*
X102000D01*
Y399900D01*
X96000D01*
G37*
G54D29*X99000Y393100D03*
G54D23*G36*
X96000Y396100D02*Y393100D01*
X102000D01*
Y396100D01*
X96000D01*
G37*
G36*
X60002Y356418D02*Y353582D01*
X64754D01*
Y356418D01*
X60002D01*
G37*
G36*
Y361418D02*Y358582D01*
X64754D01*
Y361418D01*
X60002D01*
G37*
G36*
Y371418D02*Y368582D01*
X64754D01*
Y371418D01*
X60002D01*
G37*
G36*
Y366418D02*Y363582D01*
X64754D01*
Y366418D01*
X60002D01*
G37*
G54D29*X99000Y364900D03*
G54D23*G36*
X96000D02*Y361900D01*
X102000D01*
Y364900D01*
X96000D01*
G37*
G54D29*X99000Y358100D03*
G54D23*G36*
X96000Y361100D02*Y358100D01*
X102000D01*
Y361100D01*
X96000D01*
G37*
G36*
X60002Y321418D02*Y318582D01*
X64754D01*
Y321418D01*
X60002D01*
G37*
G36*
Y326418D02*Y323582D01*
X64754D01*
Y326418D01*
X60002D01*
G37*
G36*
Y336418D02*Y333582D01*
X64754D01*
Y336418D01*
X60002D01*
G37*
G36*
Y331418D02*Y328582D01*
X64754D01*
Y331418D01*
X60002D01*
G37*
G54D29*X99000Y329900D03*
G54D23*G36*
X96000D02*Y326900D01*
X102000D01*
Y329900D01*
X96000D01*
G37*
G54D29*X99000Y323100D03*
G54D23*G36*
X96000Y326100D02*Y323100D01*
X102000D01*
Y326100D01*
X96000D01*
G37*
G36*
X60002Y286418D02*Y283582D01*
X64754D01*
Y286418D01*
X60002D01*
G37*
G36*
Y291418D02*Y288582D01*
X64754D01*
Y291418D01*
X60002D01*
G37*
G36*
Y301418D02*Y298582D01*
X64754D01*
Y301418D01*
X60002D01*
G37*
G36*
Y296418D02*Y293582D01*
X64754D01*
Y296418D01*
X60002D01*
G37*
G54D29*X99000Y294900D03*
G54D23*G36*
X96000D02*Y291900D01*
X102000D01*
Y294900D01*
X96000D01*
G37*
G54D29*X99000Y288100D03*
G54D23*G36*
X96000Y291100D02*Y288100D01*
X102000D01*
Y291100D01*
X96000D01*
G37*
G54D28*X147500Y325000D03*
Y330000D03*
X142500Y325000D03*
Y330000D03*
X137500Y325000D03*
Y330000D03*
X147500Y290000D03*
Y295000D03*
X142500Y290000D03*
Y295000D03*
X137500Y290000D03*
Y295000D03*
X147500Y255000D03*
Y260000D03*
X142500Y255000D03*
Y260000D03*
X137500Y255000D03*
Y260000D03*
G54D23*G36*
X60002Y251418D02*Y248582D01*
X64754D01*
Y251418D01*
X60002D01*
G37*
G36*
Y256418D02*Y253582D01*
X64754D01*
Y256418D01*
X60002D01*
G37*
G36*
Y266418D02*Y263582D01*
X64754D01*
Y266418D01*
X60002D01*
G37*
G36*
Y261418D02*Y258582D01*
X64754D01*
Y261418D01*
X60002D01*
G37*
G54D29*X99000Y259900D03*
G54D23*G36*
X96000D02*Y256900D01*
X102000D01*
Y259900D01*
X96000D01*
G37*
G54D29*X99000Y253100D03*
G54D23*G36*
X96000Y256100D02*Y253100D01*
X102000D01*
Y256100D01*
X96000D01*
G37*
G36*
X60002Y216418D02*Y213582D01*
X64754D01*
Y216418D01*
X60002D01*
G37*
G36*
Y221418D02*Y218582D01*
X64754D01*
Y221418D01*
X60002D01*
G37*
G36*
Y231418D02*Y228582D01*
X64754D01*
Y231418D01*
X60002D01*
G37*
G36*
Y226418D02*Y223582D01*
X64754D01*
Y226418D01*
X60002D01*
G37*
G54D29*X99000Y224900D03*
G54D23*G36*
X96000D02*Y221900D01*
X102000D01*
Y224900D01*
X96000D01*
G37*
G54D29*X99000Y218100D03*
G54D23*G36*
X96000Y221100D02*Y218100D01*
X102000D01*
Y221100D01*
X96000D01*
G37*
G36*
X60002Y181418D02*Y178582D01*
X64754D01*
Y181418D01*
X60002D01*
G37*
G36*
Y186418D02*Y183582D01*
X64754D01*
Y186418D01*
X60002D01*
G37*
G36*
Y196418D02*Y193582D01*
X64754D01*
Y196418D01*
X60002D01*
G37*
G36*
Y191418D02*Y188582D01*
X64754D01*
Y191418D01*
X60002D01*
G37*
G54D29*X99000Y189900D03*
G54D23*G36*
X96000D02*Y186900D01*
X102000D01*
Y189900D01*
X96000D01*
G37*
G54D29*X99000Y183100D03*
G54D23*G36*
X96000Y186100D02*Y183100D01*
X102000D01*
Y186100D01*
X96000D01*
G37*
G36*
X60002Y146418D02*Y143582D01*
X64754D01*
Y146418D01*
X60002D01*
G37*
G36*
Y151418D02*Y148582D01*
X64754D01*
Y151418D01*
X60002D01*
G37*
G36*
Y161418D02*Y158582D01*
X64754D01*
Y161418D01*
X60002D01*
G37*
G36*
Y156418D02*Y153582D01*
X64754D01*
Y156418D01*
X60002D01*
G37*
G54D29*X99000Y154900D03*
G54D23*G36*
X96000D02*Y151900D01*
X102000D01*
Y154900D01*
X96000D01*
G37*
G54D29*X99000Y148100D03*
G54D23*G36*
X96000Y151100D02*Y148100D01*
X102000D01*
Y151100D01*
X96000D01*
G37*
G36*
X60002Y111418D02*Y108582D01*
X64754D01*
Y111418D01*
X60002D01*
G37*
G36*
Y116418D02*Y113582D01*
X64754D01*
Y116418D01*
X60002D01*
G37*
G36*
Y126418D02*Y123582D01*
X64754D01*
Y126418D01*
X60002D01*
G37*
G36*
Y121418D02*Y118582D01*
X64754D01*
Y121418D01*
X60002D01*
G37*
G36*
Y76418D02*Y73582D01*
X64754D01*
Y76418D01*
X60002D01*
G37*
G36*
Y81418D02*Y78582D01*
X64754D01*
Y81418D01*
X60002D01*
G37*
G36*
Y91418D02*Y88582D01*
X64754D01*
Y91418D01*
X60002D01*
G37*
G36*
Y86418D02*Y83582D01*
X64754D01*
Y86418D01*
X60002D01*
G37*
G54D29*X99000Y84900D03*
G54D23*G36*
X96000D02*Y81900D01*
X102000D01*
Y84900D01*
X96000D01*
G37*
G54D29*X99000Y78100D03*
G54D23*G36*
X96000Y81100D02*Y78100D01*
X102000D01*
Y81100D01*
X96000D01*
G37*
G54D28*X147500Y115000D03*
Y120000D03*
X142500Y115000D03*
Y120000D03*
G54D29*X99000Y119900D03*
G54D23*G36*
X96000D02*Y116900D01*
X102000D01*
Y119900D01*
X96000D01*
G37*
G54D29*X99000Y113100D03*
G54D23*G36*
X96000Y116100D02*Y113100D01*
X102000D01*
Y116100D01*
X96000D01*
G37*
G54D28*X137500Y115000D03*
Y120000D03*
X147500Y80000D03*
Y85000D03*
X142500Y80000D03*
Y85000D03*
X137500Y80000D03*
Y85000D03*
X147500Y360000D03*
X142500D03*
X137500D03*
X147500Y365000D03*
X142500D03*
X137500D03*
X147500Y220000D03*
Y225000D03*
X142500Y220000D03*
X137500D03*
X142500Y225000D03*
X137500D03*
X147500Y185000D03*
Y190000D03*
X142500Y185000D03*
Y190000D03*
X137500Y185000D03*
Y190000D03*
X147500Y150000D03*
Y155000D03*
X142500Y150000D03*
X137500D03*
X142500Y155000D03*
X137500D03*
G54D30*X115500Y282500D03*
X114000Y286500D03*
X106500Y287500D03*
X107000Y290500D03*
X110500D03*
X115500Y247500D03*
X114000Y251500D03*
X106500Y252500D03*
X107000Y255500D03*
X110500D03*
X115500Y212500D03*
X114000Y216500D03*
X115500Y177500D03*
X114000Y181500D03*
X115500Y142500D03*
X114000Y146500D03*
X106500Y147500D03*
X107000Y150500D03*
X110500D03*
X106500Y182500D03*
X107000Y185500D03*
X110500D03*
X114000Y111500D03*
X115500Y72500D03*
X114000Y76500D03*
X106500Y112500D03*
X107000Y115500D03*
X110500D03*
X106500Y77500D03*
X107000Y80500D03*
X110500D03*
X106500Y217500D03*
X107000Y220500D03*
X110500D03*
X115500Y107500D03*
G54D31*X145000Y252000D03*
X148500Y251000D03*
X157000Y256500D03*
X152500Y262500D03*
G54D30*X145000D03*
G54D31*X140000Y252000D03*
X161000Y248500D03*
Y257000D03*
X175500Y258000D03*
X171500D03*
X179500D03*
G54D30*X168500Y261500D03*
X255500Y251594D03*
X243000Y256500D03*
X239500D03*
X258500Y251594D03*
G54D31*X145000Y217000D03*
X148500Y216000D03*
X157000Y221500D03*
X152500Y227500D03*
G54D30*X145000D03*
G54D31*X140000Y217000D03*
X161000Y213500D03*
Y222000D03*
X175500Y223000D03*
X171500D03*
X179500D03*
G54D30*X168500Y226500D03*
X94000Y287000D03*
Y252000D03*
X89000Y231000D03*
X94000Y217000D03*
X91500Y231000D03*
G54D31*X67500Y264500D03*
Y255500D03*
Y259500D03*
G54D30*X77500Y257500D03*
X89000Y266000D03*
X91500D03*
G54D31*X67500Y229500D03*
Y220500D03*
Y224500D03*
G54D30*X77500Y222500D03*
G54D31*X67500Y194500D03*
Y185500D03*
Y189500D03*
G54D30*X77500Y187500D03*
Y152500D03*
X89000Y196000D03*
X94000Y182000D03*
X91500Y196000D03*
G54D31*X67500Y159500D03*
Y150500D03*
Y154500D03*
Y124500D03*
Y115500D03*
G54D30*X77500Y117500D03*
G54D31*X67500Y119500D03*
G54D30*X89000Y161000D03*
X94000Y147000D03*
X91500Y161000D03*
X89000Y126000D03*
X91500D03*
X94000Y112000D03*
Y77000D03*
G54D31*X67500Y89500D03*
Y80500D03*
Y84500D03*
G54D30*X77500Y82500D03*
X89000Y91000D03*
X91500D03*
X255500Y216594D03*
X243000Y221500D03*
X239500D03*
X258500Y216594D03*
Y181594D03*
X239500Y186500D03*
X255500Y181594D03*
Y146594D03*
X258500D03*
X243000Y186500D03*
Y151500D03*
X239500D03*
X243000Y116500D03*
X239500D03*
X255500Y111594D03*
X258500D03*
X255500Y76594D03*
X258500D03*
X243000Y81500D03*
X239500D03*
G54D31*X145000Y182000D03*
X140000D03*
X148500Y181000D03*
X161000Y178500D03*
Y187000D03*
X157000Y186500D03*
X152500Y192500D03*
G54D30*X145000D03*
Y157500D03*
G54D31*X175500Y188000D03*
X179500D03*
G54D30*X168500Y191500D03*
G54D31*X171500Y188000D03*
X175500Y153000D03*
G54D30*X168500Y156500D03*
G54D31*X171500Y153000D03*
X157000Y151500D03*
X161000Y108500D03*
Y117000D03*
X157000Y116500D03*
X152500Y157500D03*
Y122500D03*
X140000Y147000D03*
X145000D03*
X148500Y146000D03*
X145000Y112000D03*
X148500Y111000D03*
G54D30*X145000Y122500D03*
G54D31*X161000Y143500D03*
Y152000D03*
X179500Y153000D03*
G54D30*X168500Y121500D03*
G54D31*X175500Y118000D03*
X179500D03*
X171500D03*
X175500Y83000D03*
X179500D03*
X171500D03*
G54D30*X168500Y86500D03*
G54D31*X140000Y112000D03*
X145000Y77000D03*
X148500Y76000D03*
G54D30*X145000Y87500D03*
G54D31*X161000Y73500D03*
Y82000D03*
X157000Y81500D03*
X152500Y87500D03*
X140000Y77000D03*
G54D30*X115500Y457500D03*
X114000Y461500D03*
X94000Y462000D03*
X106500Y462500D03*
X107000Y465500D03*
X110500D03*
X115500Y422500D03*
X114000Y426500D03*
X106500Y427500D03*
X107000Y430500D03*
X110500D03*
X94000Y427000D03*
X89000Y476000D03*
X91500D03*
G54D31*X67500Y474500D03*
Y465500D03*
Y469500D03*
G54D30*X77500Y467500D03*
G54D31*X67500Y439500D03*
G54D30*X89000Y441000D03*
X91500D03*
G54D31*X67500Y430500D03*
Y404500D03*
Y395500D03*
Y399500D03*
Y434500D03*
G54D30*X77500Y432500D03*
Y397500D03*
X89000Y406000D03*
X94000Y392000D03*
X91500Y406000D03*
G54D31*X145000Y462000D03*
X140000D03*
X148500Y461000D03*
X152500Y472500D03*
G54D30*X145000D03*
G54D31*X161000Y458500D03*
Y467000D03*
X157000Y466500D03*
X175500Y468000D03*
X179500D03*
G54D30*X168500Y471500D03*
G54D31*X171500Y468000D03*
G54D30*X255500Y461594D03*
X243000Y466500D03*
X239500D03*
X258500Y461594D03*
G54D31*X145000Y427000D03*
X148500Y426000D03*
X157000Y431500D03*
X152500Y437500D03*
G54D30*X145000D03*
G54D31*X140000Y427000D03*
X161000Y423500D03*
Y432000D03*
X175500Y433000D03*
X171500D03*
X179500D03*
G54D30*X168500Y436500D03*
X255500Y426594D03*
X243000Y431500D03*
X239500D03*
X258500Y426594D03*
G54D31*X145000Y392000D03*
X148500Y391000D03*
X161000Y388500D03*
Y397000D03*
X157000Y396500D03*
X140000Y392000D03*
X152500Y402500D03*
G54D30*X145000D03*
X168500Y401500D03*
G54D31*X171500Y398000D03*
X175500D03*
Y363000D03*
X179500D03*
X145000Y357000D03*
X148500Y356000D03*
X152500Y367500D03*
G54D30*X145000D03*
G54D31*X161000Y353500D03*
Y362000D03*
X157000Y361500D03*
G54D30*X168500Y366500D03*
G54D31*X171500Y363000D03*
X140000Y357000D03*
X179500Y328000D03*
G54D30*X168500Y331500D03*
G54D31*X145000Y322000D03*
X148500Y321000D03*
X157000Y326500D03*
X152500Y332500D03*
G54D30*X145000D03*
G54D31*X161000Y318500D03*
Y327000D03*
X175500Y328000D03*
X171500D03*
X140000Y322000D03*
G54D30*X115500Y352500D03*
X114000Y356500D03*
X106500Y357500D03*
X107000Y360500D03*
X115500Y387500D03*
X114000Y391500D03*
X106500Y392500D03*
X107000Y395500D03*
X110500D03*
Y360500D03*
Y325500D03*
X115500Y317500D03*
X114000Y321500D03*
X106500Y322500D03*
X107000Y325500D03*
G54D31*X67500Y369500D03*
Y360500D03*
Y364500D03*
G54D30*X77500Y362500D03*
Y327500D03*
X89000Y371000D03*
X94000Y357000D03*
X91500Y371000D03*
G54D31*X67500Y334500D03*
Y325500D03*
Y329500D03*
Y299500D03*
Y290500D03*
G54D30*X77500Y292500D03*
G54D31*X67500Y294500D03*
G54D30*X89000Y336000D03*
X94000Y322000D03*
X91500Y336000D03*
X89000Y301000D03*
X91500D03*
G54D31*X179500Y398000D03*
G54D30*X255500Y391594D03*
X258500D03*
X243000Y396500D03*
X239500D03*
X255500Y356594D03*
Y286594D03*
X258500D03*
Y356594D03*
X243000Y361500D03*
Y291500D03*
X239500D03*
Y361500D03*
X255500Y321594D03*
X258500D03*
X243000Y326500D03*
X239500D03*
G54D31*X145000Y287000D03*
X148500Y286000D03*
G54D30*X145000Y297500D03*
G54D31*X175500Y293000D03*
G54D30*X168500Y296500D03*
G54D31*X171500Y293000D03*
X179500D03*
X161000Y283500D03*
Y292000D03*
X157000Y291500D03*
X152500Y297500D03*
X140000Y287000D03*
G54D28*G54D32*G54D28*G54D32*G54D28*G54D32*G54D28*G54D32*G54D28*G54D32*G54D28*G54D32*G54D28*G54D32*G54D33*G54D32*G54D33*G54D32*G54D33*G54D32*G54D33*G54D32*G54D33*G54D32*G54D33*G54D32*G54D33*G54D32*G54D33*G54D32*G54D33*G54D32*G54D33*G54D32*G54D33*G54D32*G54D33*G54D32*G54D33*G54D32*G54D33*G54D32*G54D33*G54D32*G54D33*G54D32*G54D33*G54D32*G54D33*G54D28*G54D32*G54D28*G54D32*G54D33*G54D32*G54D33*G54D32*G54D33*G54D32*G54D33*G54D32*G54D33*G54D32*G54D33*G54D32*G54D33*G54D32*G54D33*G54D32*G54D33*G54D32*G54D33*G54D32*G54D33*G54D32*G54D33*G54D32*G54D33*G54D32*G54D33*G54D28*G54D32*G54D28*G54D32*G54D28*G54D32*G54D28*G54D32*G54D33*G54D32*G54D33*G54D32*G54D33*G54D32*G54D33*G54D32*G54D33*G54D32*G54D33*G54D32*G54D33*G54D34*M02*
