G04 start of page 8 for group -4062 idx -4062 *
G04 Title: (unknown), soldermask *
G04 Creator: pcb 4.0.2 *
G04 CreationDate: Thu Jun 22 03:03:35 2023 UTC *
G04 For: railfan *
G04 Format: Gerber/RS-274X *
G04 PCB-Dimensions (mil): 3000.00 5500.00 *
G04 PCB-Coordinate-Origin: lower left *
%MOIN*%
%FSLAX25Y25*%
%LNBOTTOMMASK*%
%ADD48C,0.0600*%
%ADD47C,0.0001*%
%ADD46C,0.0370*%
%ADD45C,0.0490*%
G54D45*X152500Y362500D03*
Y327500D03*
Y292500D03*
Y257500D03*
X132500Y366500D03*
Y358500D03*
Y331500D03*
Y323500D03*
Y296500D03*
Y288500D03*
Y261500D03*
Y253500D03*
X152500Y432500D03*
X132500Y436500D03*
Y428500D03*
X152500Y397500D03*
X132500Y401500D03*
X152500Y467500D03*
X132500Y471500D03*
Y463500D03*
Y393500D03*
X152500Y222500D03*
Y187500D03*
Y152500D03*
Y117500D03*
X132500Y226500D03*
Y218500D03*
Y191500D03*
Y183500D03*
Y156500D03*
Y148500D03*
Y121500D03*
Y113500D03*
X152500Y82500D03*
X132500Y86500D03*
Y78500D03*
G54D46*X147500Y430000D03*
Y435000D03*
X142500Y430000D03*
Y435000D03*
X137500Y430000D03*
Y435000D03*
X147500Y395000D03*
Y400000D03*
X142500Y395000D03*
Y400000D03*
X137500Y395000D03*
Y400000D03*
G54D47*G36*
X59702Y466718D02*Y463282D01*
X65054D01*
Y466718D01*
X59702D01*
G37*
G36*
Y461718D02*Y458282D01*
X65054D01*
Y461718D01*
X59702D01*
G37*
G36*
Y476718D02*Y473282D01*
X65054D01*
Y476718D01*
X59702D01*
G37*
G36*
Y471718D02*Y468282D01*
X65054D01*
Y471718D01*
X59702D01*
G37*
G54D48*X99000Y469900D03*
G54D47*G36*
X96000D02*Y466900D01*
X102000D01*
Y469900D01*
X96000D01*
G37*
G54D48*X99000Y463100D03*
G54D47*G36*
X96000Y466100D02*Y463100D01*
X102000D01*
Y466100D01*
X96000D01*
G37*
G36*
X59702Y426718D02*Y423282D01*
X65054D01*
Y426718D01*
X59702D01*
G37*
G36*
Y431718D02*Y428282D01*
X65054D01*
Y431718D01*
X59702D01*
G37*
G36*
Y441718D02*Y438282D01*
X65054D01*
Y441718D01*
X59702D01*
G37*
G36*
Y436718D02*Y433282D01*
X65054D01*
Y436718D01*
X59702D01*
G37*
G54D48*X99000Y434900D03*
G54D47*G36*
X96000D02*Y431900D01*
X102000D01*
Y434900D01*
X96000D01*
G37*
G54D48*X99000Y428100D03*
G54D47*G36*
X96000Y431100D02*Y428100D01*
X102000D01*
Y431100D01*
X96000D01*
G37*
G54D46*X147500Y465000D03*
Y470000D03*
X142500Y465000D03*
Y470000D03*
X137500Y465000D03*
Y470000D03*
G54D47*G36*
X59702Y391718D02*Y388282D01*
X65054D01*
Y391718D01*
X59702D01*
G37*
G36*
Y396718D02*Y393282D01*
X65054D01*
Y396718D01*
X59702D01*
G37*
G36*
Y406718D02*Y403282D01*
X65054D01*
Y406718D01*
X59702D01*
G37*
G36*
Y401718D02*Y398282D01*
X65054D01*
Y401718D01*
X59702D01*
G37*
G54D48*X99000Y399900D03*
G54D47*G36*
X96000D02*Y396900D01*
X102000D01*
Y399900D01*
X96000D01*
G37*
G54D48*X99000Y393100D03*
G54D47*G36*
X96000Y396100D02*Y393100D01*
X102000D01*
Y396100D01*
X96000D01*
G37*
G36*
X59702Y356718D02*Y353282D01*
X65054D01*
Y356718D01*
X59702D01*
G37*
G36*
Y361718D02*Y358282D01*
X65054D01*
Y361718D01*
X59702D01*
G37*
G36*
Y371718D02*Y368282D01*
X65054D01*
Y371718D01*
X59702D01*
G37*
G36*
Y366718D02*Y363282D01*
X65054D01*
Y366718D01*
X59702D01*
G37*
G54D48*X99000Y364900D03*
G54D47*G36*
X96000D02*Y361900D01*
X102000D01*
Y364900D01*
X96000D01*
G37*
G54D48*X99000Y358100D03*
G54D47*G36*
X96000Y361100D02*Y358100D01*
X102000D01*
Y361100D01*
X96000D01*
G37*
G36*
X59702Y321718D02*Y318282D01*
X65054D01*
Y321718D01*
X59702D01*
G37*
G36*
Y326718D02*Y323282D01*
X65054D01*
Y326718D01*
X59702D01*
G37*
G36*
Y336718D02*Y333282D01*
X65054D01*
Y336718D01*
X59702D01*
G37*
G36*
Y331718D02*Y328282D01*
X65054D01*
Y331718D01*
X59702D01*
G37*
G54D48*X99000Y329900D03*
G54D47*G36*
X96000D02*Y326900D01*
X102000D01*
Y329900D01*
X96000D01*
G37*
G54D48*X99000Y323100D03*
G54D47*G36*
X96000Y326100D02*Y323100D01*
X102000D01*
Y326100D01*
X96000D01*
G37*
G36*
X59702Y286718D02*Y283282D01*
X65054D01*
Y286718D01*
X59702D01*
G37*
G36*
Y291718D02*Y288282D01*
X65054D01*
Y291718D01*
X59702D01*
G37*
G36*
Y301718D02*Y298282D01*
X65054D01*
Y301718D01*
X59702D01*
G37*
G36*
Y296718D02*Y293282D01*
X65054D01*
Y296718D01*
X59702D01*
G37*
G54D48*X99000Y294900D03*
G54D47*G36*
X96000D02*Y291900D01*
X102000D01*
Y294900D01*
X96000D01*
G37*
G54D48*X99000Y288100D03*
G54D47*G36*
X96000Y291100D02*Y288100D01*
X102000D01*
Y291100D01*
X96000D01*
G37*
G54D46*X147500Y325000D03*
Y330000D03*
X142500Y325000D03*
Y330000D03*
X137500Y325000D03*
Y330000D03*
X147500Y290000D03*
Y295000D03*
X142500Y290000D03*
Y295000D03*
X137500Y290000D03*
Y295000D03*
X147500Y255000D03*
Y260000D03*
X142500Y255000D03*
Y260000D03*
X137500Y255000D03*
Y260000D03*
G54D47*G36*
X59702Y251718D02*Y248282D01*
X65054D01*
Y251718D01*
X59702D01*
G37*
G36*
Y256718D02*Y253282D01*
X65054D01*
Y256718D01*
X59702D01*
G37*
G36*
Y266718D02*Y263282D01*
X65054D01*
Y266718D01*
X59702D01*
G37*
G36*
Y261718D02*Y258282D01*
X65054D01*
Y261718D01*
X59702D01*
G37*
G54D48*X99000Y259900D03*
G54D47*G36*
X96000D02*Y256900D01*
X102000D01*
Y259900D01*
X96000D01*
G37*
G54D48*X99000Y253100D03*
G54D47*G36*
X96000Y256100D02*Y253100D01*
X102000D01*
Y256100D01*
X96000D01*
G37*
G36*
X59702Y216718D02*Y213282D01*
X65054D01*
Y216718D01*
X59702D01*
G37*
G36*
Y221718D02*Y218282D01*
X65054D01*
Y221718D01*
X59702D01*
G37*
G36*
Y231718D02*Y228282D01*
X65054D01*
Y231718D01*
X59702D01*
G37*
G36*
Y226718D02*Y223282D01*
X65054D01*
Y226718D01*
X59702D01*
G37*
G54D48*X99000Y224900D03*
G54D47*G36*
X96000D02*Y221900D01*
X102000D01*
Y224900D01*
X96000D01*
G37*
G54D48*X99000Y218100D03*
G54D47*G36*
X96000Y221100D02*Y218100D01*
X102000D01*
Y221100D01*
X96000D01*
G37*
G36*
X59702Y181718D02*Y178282D01*
X65054D01*
Y181718D01*
X59702D01*
G37*
G36*
Y186718D02*Y183282D01*
X65054D01*
Y186718D01*
X59702D01*
G37*
G36*
Y196718D02*Y193282D01*
X65054D01*
Y196718D01*
X59702D01*
G37*
G36*
Y191718D02*Y188282D01*
X65054D01*
Y191718D01*
X59702D01*
G37*
G54D48*X99000Y189900D03*
G54D47*G36*
X96000D02*Y186900D01*
X102000D01*
Y189900D01*
X96000D01*
G37*
G54D48*X99000Y183100D03*
G54D47*G36*
X96000Y186100D02*Y183100D01*
X102000D01*
Y186100D01*
X96000D01*
G37*
G36*
X59702Y146718D02*Y143282D01*
X65054D01*
Y146718D01*
X59702D01*
G37*
G36*
Y151718D02*Y148282D01*
X65054D01*
Y151718D01*
X59702D01*
G37*
G36*
Y161718D02*Y158282D01*
X65054D01*
Y161718D01*
X59702D01*
G37*
G36*
Y156718D02*Y153282D01*
X65054D01*
Y156718D01*
X59702D01*
G37*
G54D48*X99000Y154900D03*
G54D47*G36*
X96000D02*Y151900D01*
X102000D01*
Y154900D01*
X96000D01*
G37*
G54D48*X99000Y148100D03*
G54D47*G36*
X96000Y151100D02*Y148100D01*
X102000D01*
Y151100D01*
X96000D01*
G37*
G36*
X59702Y111718D02*Y108282D01*
X65054D01*
Y111718D01*
X59702D01*
G37*
G36*
Y116718D02*Y113282D01*
X65054D01*
Y116718D01*
X59702D01*
G37*
G36*
Y126718D02*Y123282D01*
X65054D01*
Y126718D01*
X59702D01*
G37*
G36*
Y121718D02*Y118282D01*
X65054D01*
Y121718D01*
X59702D01*
G37*
G36*
Y76718D02*Y73282D01*
X65054D01*
Y76718D01*
X59702D01*
G37*
G36*
Y81718D02*Y78282D01*
X65054D01*
Y81718D01*
X59702D01*
G37*
G36*
Y91718D02*Y88282D01*
X65054D01*
Y91718D01*
X59702D01*
G37*
G36*
Y86718D02*Y83282D01*
X65054D01*
Y86718D01*
X59702D01*
G37*
G54D48*X99000Y84900D03*
G54D47*G36*
X96000D02*Y81900D01*
X102000D01*
Y84900D01*
X96000D01*
G37*
G54D48*X99000Y78100D03*
G54D47*G36*
X96000Y81100D02*Y78100D01*
X102000D01*
Y81100D01*
X96000D01*
G37*
G54D46*X147500Y115000D03*
Y120000D03*
X142500Y115000D03*
Y120000D03*
G54D48*X99000Y119900D03*
G54D47*G36*
X96000D02*Y116900D01*
X102000D01*
Y119900D01*
X96000D01*
G37*
G54D48*X99000Y113100D03*
G54D47*G36*
X96000Y116100D02*Y113100D01*
X102000D01*
Y116100D01*
X96000D01*
G37*
G54D46*X137500Y115000D03*
Y120000D03*
X147500Y80000D03*
Y85000D03*
X142500Y80000D03*
Y85000D03*
X137500Y80000D03*
Y85000D03*
X147500Y360000D03*
X142500D03*
X137500D03*
X147500Y365000D03*
X142500D03*
X137500D03*
X147500Y220000D03*
Y225000D03*
X142500Y220000D03*
X137500D03*
X142500Y225000D03*
X137500D03*
X147500Y185000D03*
Y190000D03*
X142500Y185000D03*
Y190000D03*
X137500Y185000D03*
Y190000D03*
X147500Y150000D03*
Y155000D03*
X142500Y150000D03*
X137500D03*
X142500Y155000D03*
X137500D03*
M02*
