G04 start of page 10 for group -4078 idx -4078 *
G04 Title: (unknown), bottomsilk *
G04 Creator: pcb 20110918 *
G04 CreationDate: Sun 23 Feb 2014 04:32:08 AM GMT UTC *
G04 For: ndholmes *
G04 Format: Gerber/RS-274X *
G04 PCB-Dimensions: 25000 261000 *
G04 PCB-Coordinate-Origin: lower left *
%MOIN*%
%FSLAX25Y25*%
%LNBOTTOMSILK*%
%ADD55C,0.0100*%
G54D55*X22300Y41700D02*Y43000D01*
X21600Y43700D02*X22300Y43000D01*
X19000Y43700D02*X21600D01*
X19000D02*X18300Y43000D01*
Y41700D02*Y43000D01*
X22300Y38500D02*Y39800D01*
X21600Y40500D02*X22300Y39800D01*
X19000Y40500D02*X21600D01*
X19000D02*X18300Y39800D01*
Y38500D02*Y39800D01*
X20300Y35300D02*Y37300D01*
X22300Y32100D02*Y34100D01*
Y32100D02*X21800Y31600D01*
X20600D02*X21800D01*
X20100Y32100D02*X20600Y31600D01*
X20100Y32100D02*Y33600D01*
X18300D02*X22300D01*
X18300Y32100D02*Y34100D01*
Y32100D02*X18800Y31600D01*
X19600D01*
X20100Y32100D02*X19600Y31600D01*
X18300Y30400D02*X20300Y29400D01*
X18300Y28400D01*
X20300Y29400D02*X22300D01*
X20300Y25200D02*Y27200D01*
X18300Y22000D02*X18800Y21500D01*
X18300Y22000D02*Y23500D01*
X18800Y24000D02*X18300Y23500D01*
X18800Y24000D02*X19800D01*
X20300Y23500D01*
Y22000D02*Y23500D01*
Y22000D02*X20800Y21500D01*
X21800D01*
X22300Y22000D02*X21800Y21500D01*
X22300Y22000D02*Y23500D01*
X21800Y24000D02*X22300Y23500D01*
X19300Y20300D02*X22300D01*
X19300D02*X18300Y19600D01*
Y18500D02*Y19600D01*
Y18500D02*X19300Y17800D01*
X22300D01*
X20300D02*Y20300D01*
X15100Y34500D02*X15600Y34000D01*
X12100Y34500D02*X11600Y34000D01*
X12100Y34500D02*X15100D01*
X13600Y30800D02*Y32300D01*
X14100Y32800D02*X13600Y32300D01*
X14100Y32800D02*X15100D01*
X15600Y32300D01*
Y30800D02*Y32300D01*
X11600Y29600D02*X12100Y29100D01*
X15100D01*
X15600Y29600D02*X15100Y29100D01*
X12100Y27900D02*X11600Y27400D01*
Y25900D02*Y27400D01*
Y25900D02*X12100Y25400D01*
X13100D01*
X15600Y27900D02*X13100Y25400D01*
X15600D02*Y27900D01*
X15100Y24200D02*X15600Y23700D01*
X12100Y24200D02*X15100D01*
X12100D02*X11600Y23700D01*
Y22700D02*Y23700D01*
Y22700D02*X12100Y22200D01*
X15100D01*
X15600Y22700D02*X15100Y22200D01*
X15600Y22700D02*Y23700D01*
X14600Y24200D02*X12600Y22200D01*
X12400Y21000D02*X11600Y20200D01*
X15600D01*
Y19500D02*Y21000D01*
X14100Y18300D02*X11600Y16300D01*
X14100Y15800D02*Y18300D01*
X11600Y16300D02*X15600D01*
X16800Y12800D02*X18800D01*
X17800Y11800D02*Y13800D01*
X22200Y212600D02*Y213900D01*
X21500Y214600D02*X22200Y213900D01*
X18900Y214600D02*X21500D01*
X18900D02*X18200Y213900D01*
Y212600D02*Y213900D01*
Y211400D02*X22200D01*
X20200D02*X18200Y209400D01*
X20200Y211400D02*X22200Y209400D01*
X18200Y206200D02*Y208200D01*
Y207200D02*X22200D01*
X20200Y203000D02*Y205000D01*
X18200Y200800D02*Y201800D01*
Y201300D02*X22200D01*
Y200800D02*Y201800D01*
X18200Y197600D02*Y199600D01*
Y197600D02*X18700Y197100D01*
X19700D01*
X20200Y197600D02*X19700Y197100D01*
X20200Y197600D02*Y199100D01*
X18200D02*X22200D01*
X20200Y198300D02*X22200Y197100D01*
X18200Y193900D02*X18700Y193400D01*
X18200Y193900D02*Y195400D01*
X18700Y195900D02*X18200Y195400D01*
X18700Y195900D02*X19700D01*
X20200Y195400D01*
Y193900D02*Y195400D01*
Y193900D02*X20700Y193400D01*
X21700D01*
X22200Y193900D02*X21700Y193400D01*
X22200Y193900D02*Y195400D01*
X21700Y195900D02*X22200Y195400D01*
X20000Y190700D02*Y192200D01*
X22200Y190200D02*Y192200D01*
X18200D02*X22200D01*
X18200Y190200D02*Y192200D01*
Y189000D02*X22200D01*
X18200D02*X22200Y186500D01*
X18200D02*X22200D01*
X18200Y183300D02*X18700Y182800D01*
X18200Y183300D02*Y184800D01*
X18700Y185300D02*X18200Y184800D01*
X18700Y185300D02*X19700D01*
X20200Y184800D01*
Y183300D02*Y184800D01*
Y183300D02*X20700Y182800D01*
X21700D01*
X22200Y183300D02*X21700Y182800D01*
X22200Y183300D02*Y184800D01*
X21700Y185300D02*X22200Y184800D01*
X20000Y180100D02*Y181600D01*
X22200Y179600D02*Y181600D01*
X18200D02*X22200D01*
X18200Y179600D02*Y181600D01*
X20200Y176600D02*X22200Y175600D01*
X20200Y174600D02*X22200Y175600D01*
X19000Y173400D02*X18200Y172600D01*
X22200D01*
Y171900D02*Y173400D01*
Y170200D02*Y170700D01*
X21700Y169000D02*X22200Y168500D01*
X18700Y169000D02*X21700D01*
X18700D02*X18200Y168500D01*
Y167500D02*Y168500D01*
Y167500D02*X18700Y167000D01*
X21700D01*
X22200Y167500D02*X21700Y167000D01*
X22200Y167500D02*Y168500D01*
X21200Y169000D02*X19200Y167000D01*
X4000Y203200D02*Y204200D01*
Y203700D02*X8000D01*
Y203200D02*Y204200D01*
X6500Y202000D02*X7500D01*
X6500D02*X6000Y201500D01*
Y200500D02*Y201500D01*
Y200500D02*X6500Y200000D01*
X7500D01*
X8000Y200500D02*X7500Y200000D01*
X8000Y200500D02*Y201500D01*
X7500Y202000D02*X8000Y201500D01*
X6000Y198800D02*X7500D01*
X8000Y198300D01*
Y197800D02*Y198300D01*
Y197800D02*X7500Y197300D01*
X6000D02*X7500D01*
X8000Y196800D01*
Y196300D02*Y196800D01*
Y196300D02*X7500Y195800D01*
X6000D02*X7500D01*
X6000Y193100D02*X6500Y192600D01*
X6000Y193100D02*Y194100D01*
X6500Y194600D02*X6000Y194100D01*
X6500Y194600D02*X7500D01*
X8000Y194100D01*
X6000Y192600D02*X7500D01*
X8000Y192100D01*
Y193100D02*Y194100D01*
Y193100D02*X7500Y192600D01*
X4000Y187100D02*X4500Y186600D01*
X4000Y187100D02*Y188600D01*
X4500Y189100D02*X4000Y188600D01*
X4500Y189100D02*X5500D01*
X6000Y188600D01*
Y187100D02*Y188600D01*
Y187100D02*X6500Y186600D01*
X7500D01*
X8000Y187100D02*X7500Y186600D01*
X8000Y187100D02*Y188600D01*
X7500Y189100D02*X8000Y188600D01*
X6000Y183400D02*Y184900D01*
X6500Y185400D02*X6000Y184900D01*
X6500Y185400D02*X7500D01*
X8000Y184900D01*
Y183400D02*Y184900D01*
X6000Y180700D02*X6500Y180200D01*
X6000Y180700D02*Y181700D01*
X6500Y182200D02*X6000Y181700D01*
X6500Y182200D02*X7500D01*
X8000Y181700D01*
X6000Y180200D02*X7500D01*
X8000Y179700D01*
Y180700D02*Y181700D01*
Y180700D02*X7500Y180200D01*
X4000Y178500D02*X7500D01*
X8000Y178000D01*
Y175000D02*Y176500D01*
X7500Y177000D02*X8000Y176500D01*
X6500Y177000D02*X7500D01*
X6500D02*X6000Y176500D01*
Y175500D02*Y176500D01*
Y175500D02*X6500Y175000D01*
X7000D02*Y177000D01*
X6500Y175000D02*X7000D01*
X4000Y171800D02*X8000D01*
Y172300D02*X7500Y171800D01*
X8000Y172300D02*Y173300D01*
X7500Y173800D02*X8000Y173300D01*
X6500Y173800D02*X7500D01*
X6500D02*X6000Y173300D01*
Y172300D02*Y173300D01*
Y172300D02*X6500Y171800D01*
X5800Y167300D02*Y168800D01*
X8000Y166800D02*Y168800D01*
X4000D02*X8000D01*
X4000Y166800D02*Y168800D01*
X6500Y165100D02*X8000D01*
X6500D02*X6000Y164600D01*
Y164100D02*Y164600D01*
Y164100D02*X6500Y163600D01*
X8000D01*
X6000Y165600D02*X6500Y165100D01*
X6000Y160900D02*X6500Y160400D01*
X6000Y160900D02*Y161900D01*
X6500Y162400D02*X6000Y161900D01*
X6500Y162400D02*X7500D01*
X8000Y161900D01*
Y160900D02*Y161900D01*
Y160900D02*X7500Y160400D01*
X9000Y162400D02*X9500Y161900D01*
Y160900D02*Y161900D01*
Y160900D02*X9000Y160400D01*
X6000D02*X9000D01*
X20800Y249600D02*X22800D01*
X21800Y248600D02*Y250600D01*
X15400Y152200D02*X17400D01*
X16400Y151200D02*Y153200D01*
X18600Y150200D02*X19600Y154200D01*
X20600Y150200D01*
X15800Y128200D02*X16300Y128700D01*
X14300Y128200D02*X15800D01*
X13800Y128700D02*X14300Y128200D01*
X13800Y128700D02*Y131700D01*
X14300Y132200D01*
X15800D01*
X16300Y131700D01*
Y130700D02*Y131700D01*
X15800Y130200D02*X16300Y130700D01*
X14800Y130200D02*X15800D01*
X17500Y128200D02*Y132200D01*
Y128200D02*X20000Y132200D01*
Y128200D02*Y132200D01*
X21700Y128200D02*Y132200D01*
X23000Y128200D02*X23700Y128900D01*
Y131500D01*
X23000Y132200D02*X23700Y131500D01*
X21200Y132200D02*X23000D01*
X21200Y128200D02*X23000D01*
X2200Y69800D02*Y72800D01*
Y69800D02*X2700Y69300D01*
X3700D01*
X4200Y69800D01*
Y72800D01*
X3700Y73300D02*X4200Y72800D01*
X2700Y73300D02*X3700D01*
X2200Y72800D02*X2700Y73300D01*
X7400Y69300D02*X7900Y69800D01*
X5900Y69300D02*X7400D01*
X5400Y69800D02*X5900Y69300D01*
X5400Y69800D02*Y70800D01*
X5900Y71300D01*
X7400D01*
X7900Y71800D01*
Y72800D01*
X7400Y73300D02*X7900Y72800D01*
X5900Y73300D02*X7400D01*
X5400Y72800D02*X5900Y73300D01*
X1800Y38300D02*Y41300D01*
Y38300D02*X2300Y37800D01*
X3300D01*
X3800Y38300D01*
Y41300D01*
X3300Y41800D02*X3800Y41300D01*
X2300Y41800D02*X3300D01*
X1800Y41300D02*X2300Y41800D01*
X5500Y37800D02*Y41800D01*
X6800Y37800D02*X7500Y38500D01*
Y41100D01*
X6800Y41800D02*X7500Y41100D01*
X5000Y41800D02*X6800D01*
X5000Y37800D02*X6800D01*
X11054Y2202D02*X15778D01*
X11054Y9682D02*X15778D01*
X8533Y249200D02*X13257D01*
X8533Y258240D02*X13257D01*
M02*
