G04 start of page 9 for group -4079 idx -4079 *
G04 Title: (unknown), topsilk *
G04 Creator: pcb 20110918 *
G04 CreationDate: Sun 23 Feb 2014 04:32:08 AM GMT UTC *
G04 For: ndholmes *
G04 Format: Gerber/RS-274X *
G04 PCB-Dimensions: 25000 261000 *
G04 PCB-Coordinate-Origin: lower left *
%MOIN*%
%FSLAX25Y25*%
%LNTOPSILK*%
%ADD54C,0.0200*%
%ADD53C,0.0100*%
G54D53*X24500Y500D02*X500D01*
Y260500D02*X24500D01*
Y500D02*Y260500D01*
X500Y500D02*Y260500D01*
X1300Y249600D02*X3300D01*
X2300Y250600D02*Y248600D01*
X22900Y47500D02*X23400D01*
X7700Y72900D02*Y62900D01*
X17700D01*
Y72900D01*
X7700D01*
X6755Y55793D02*Y55007D01*
X1245Y55793D02*Y55007D01*
X14989Y61020D02*X17501D01*
Y48784D01*
X16501Y47784D01*
X14989D02*X16501D01*
X14989Y61020D02*Y47784D01*
X8200Y142700D02*Y132700D01*
X18200D01*
Y142700D01*
X8200D01*
X1245Y135093D02*Y134307D01*
X6755Y135093D02*Y134307D01*
X1245Y115493D02*Y114707D01*
X6755Y115493D02*Y114707D01*
X6676Y35478D02*Y34692D01*
X1166Y35478D02*Y34692D01*
X7800Y45000D02*Y35000D01*
X17800D01*
Y45000D01*
X7800D01*
X2600Y26700D02*X24000D01*
X2600D02*Y500D01*
X24000D01*
Y26700D02*Y500D01*
X15306Y33734D02*X16092D01*
X15306Y28224D02*X16092D01*
X11612Y130766D02*X22588D01*
X11612D02*Y99634D01*
X22588D01*
Y130766D02*Y117700D01*
Y112700D02*Y99634D01*
Y117700D02*G75*G03X22588Y112700I0J-2500D01*G01*
X6755Y227050D02*Y226264D01*
X1245Y227050D02*Y226264D01*
X8543Y249300D02*X13267D01*
X8543Y258340D02*X13267D01*
X6755Y241864D02*Y241078D01*
X1245Y241864D02*Y241078D01*
X9073Y211100D02*X22973D01*
Y223900D02*Y211100D01*
X9073Y223900D02*X22973D01*
X9073D02*Y211100D01*
G54D54*X1000Y191700D02*Y183100D01*
G54D53*X3400Y181900D01*
X19200D01*
Y192900D01*
X3400D01*
X1000Y191700D01*
X6882Y208993D02*Y208207D01*
X1372Y208993D02*Y208207D01*
X9400Y208786D02*Y194886D01*
X21200D01*
Y208786D02*Y194886D01*
X9400Y208786D02*X21200D01*
X12700Y179700D02*Y165800D01*
X900Y179700D02*X12700D01*
X900D02*Y165800D01*
X12700D01*
X14445Y174250D02*Y173464D01*
X19955Y174250D02*Y173464D01*
G54D54*X18700Y153373D02*Y144773D01*
G54D53*Y153373D02*X16300Y154573D01*
X500D02*X16300D01*
X500D02*Y143573D01*
X16300D01*
X18700Y144773D01*
X13200Y165400D02*Y155400D01*
X23200D01*
Y165400D01*
X13200D01*
X11394Y231100D02*Y230500D01*
Y239147D02*Y232653D01*
X23206Y239147D02*Y232653D01*
M02*
