G04 start of page 12 for group -3984 idx -3984 *
G04 Title: (unknown), fab *
G04 Creator: pcb 20140316 *
G04 CreationDate: Thu 20 Aug 2020 03:00:16 AM GMT UTC *
G04 For: railfan *
G04 Format: Gerber/RS-274X *
G04 PCB-Dimensions (mil): 2000.00 1200.00 *
G04 PCB-Coordinate-Origin: lower left *
%MOIN*%
%FSLAX25Y25*%
%LNFAB*%
%ADD72C,0.0100*%
%ADD71C,0.0075*%
%ADD70C,0.0060*%
%ADD69R,0.0080X0.0080*%
G54D69*X16200Y103000D02*G75*G03X17800Y103000I800J0D01*G01*
G75*G03X16200Y103000I-800J0D01*G01*
Y17000D02*G75*G03X17800Y17000I800J0D01*G01*
G75*G03X16200Y17000I-800J0D01*G01*
X182200D02*G75*G03X183800Y17000I800J0D01*G01*
G75*G03X182200Y17000I-800J0D01*G01*
Y103000D02*G75*G03X183800Y103000I800J0D01*G01*
G75*G03X182200Y103000I-800J0D01*G01*
X14200Y131250D02*G75*G03X15800Y131250I800J0D01*G01*
G75*G03X14200Y131250I-800J0D01*G01*
G54D70*X135000Y133500D02*X136500Y130500D01*
X138000Y133500D01*
X136500Y130500D02*Y127500D01*
X139800Y130800D02*X142050D01*
X139800Y127500D02*X142800D01*
X139800Y133500D02*Y127500D01*
Y133500D02*X142800D01*
X147600D02*X148350Y132750D01*
X145350Y133500D02*X147600D01*
X144600Y132750D02*X145350Y133500D01*
X144600Y132750D02*Y131250D01*
X145350Y130500D01*
X147600D01*
X148350Y129750D01*
Y128250D01*
X147600Y127500D02*X148350Y128250D01*
X145350Y127500D02*X147600D01*
X144600Y128250D02*X145350Y127500D01*
X98000Y129750D02*X101000Y133500D01*
X98000Y129750D02*X101750D01*
X101000Y133500D02*Y127500D01*
X45000Y128250D02*X45750Y127500D01*
X45000Y132750D02*Y128250D01*
Y132750D02*X45750Y133500D01*
X47250D01*
X48000Y132750D01*
Y128250D01*
X47250Y127500D02*X48000Y128250D01*
X45750Y127500D02*X47250D01*
X45000Y129000D02*X48000Y132000D01*
X49800Y127500D02*X50550D01*
X52350Y132300D02*X53550Y133500D01*
Y127500D01*
X52350D02*X54600D01*
X56400Y132750D02*X57150Y133500D01*
X59400D01*
X60150Y132750D01*
Y131250D01*
X56400Y127500D02*X60150Y131250D01*
X56400Y127500D02*X60150D01*
X62700D02*X64950Y130500D01*
Y132750D02*Y130500D01*
X64200Y133500D02*X64950Y132750D01*
X62700Y133500D02*X64200D01*
X61950Y132750D02*X62700Y133500D01*
X61950Y132750D02*Y131250D01*
X62700Y130500D01*
X64950D01*
X144800Y61200D02*X147200Y58800D01*
X144800D02*X147200Y61200D01*
X13800Y147450D02*X16200Y145050D01*
X13800D02*X16200Y147450D01*
X135000Y148500D02*X136500Y145500D01*
X138000Y148500D01*
X136500Y145500D02*Y142500D01*
X139800Y145800D02*X142050D01*
X139800Y142500D02*X142800D01*
X139800Y148500D02*Y142500D01*
Y148500D02*X142800D01*
X147600D02*X148350Y147750D01*
X145350Y148500D02*X147600D01*
X144600Y147750D02*X145350Y148500D01*
X144600Y147750D02*Y146250D01*
X145350Y145500D01*
X147600D01*
X148350Y144750D01*
Y143250D01*
X147600Y142500D02*X148350Y143250D01*
X145350Y142500D02*X147600D01*
X144600Y143250D02*X145350Y142500D01*
X98000Y147300D02*X99200Y148500D01*
Y142500D01*
X98000D02*X100250D01*
X45000Y143250D02*X45750Y142500D01*
X45000Y147750D02*Y143250D01*
Y147750D02*X45750Y148500D01*
X47250D01*
X48000Y147750D01*
Y143250D01*
X47250Y142500D02*X48000Y143250D01*
X45750Y142500D02*X47250D01*
X45000Y144000D02*X48000Y147000D01*
X49800Y142500D02*X50550D01*
X52350Y147300D02*X53550Y148500D01*
Y142500D01*
X52350D02*X54600D01*
X56400Y147750D02*X57150Y148500D01*
X59400D01*
X60150Y147750D01*
Y146250D01*
X56400Y142500D02*X60150Y146250D01*
X56400Y142500D02*X60150D01*
X61950Y148500D02*X64950D01*
X61950D02*Y145500D01*
X62700Y146250D01*
X64200D01*
X64950Y145500D01*
Y143250D01*
X64200Y142500D02*X64950Y143250D01*
X62700Y142500D02*X64200D01*
X61950Y143250D02*X62700Y142500D01*
X170000Y61600D02*Y58400D01*
X168400Y60000D02*X171600D01*
X158000Y80600D02*Y77400D01*
X156400Y79000D02*X159600D01*
X15000Y162850D02*Y159650D01*
X13400Y161250D02*X16600D01*
X135000Y163500D02*X136500Y160500D01*
X138000Y163500D01*
X136500Y160500D02*Y157500D01*
X139800Y160800D02*X142050D01*
X139800Y157500D02*X142800D01*
X139800Y163500D02*Y157500D01*
Y163500D02*X142800D01*
X147600D02*X148350Y162750D01*
X145350Y163500D02*X147600D01*
X144600Y162750D02*X145350Y163500D01*
X144600Y162750D02*Y161250D01*
X145350Y160500D01*
X147600D01*
X148350Y159750D01*
Y158250D01*
X147600Y157500D02*X148350Y158250D01*
X145350Y157500D02*X147600D01*
X144600Y158250D02*X145350Y157500D01*
X98000Y162750D02*X98750Y163500D01*
X101000D01*
X101750Y162750D01*
Y161250D01*
X98000Y157500D02*X101750Y161250D01*
X98000Y157500D02*X101750D01*
X45000Y158250D02*X45750Y157500D01*
X45000Y162750D02*Y158250D01*
Y162750D02*X45750Y163500D01*
X47250D01*
X48000Y162750D01*
Y158250D01*
X47250Y157500D02*X48000Y158250D01*
X45750Y157500D02*X47250D01*
X45000Y159000D02*X48000Y162000D01*
X49800Y157500D02*X50550D01*
X52350Y162300D02*X53550Y163500D01*
Y157500D01*
X52350D02*X54600D01*
X56400Y162300D02*X57600Y163500D01*
Y157500D01*
X56400D02*X58650D01*
X60450Y158250D02*X61200Y157500D01*
X60450Y162750D02*Y158250D01*
Y162750D02*X61200Y163500D01*
X62700D01*
X63450Y162750D01*
Y158250D01*
X62700Y157500D02*X63450Y158250D01*
X61200Y157500D02*X62700D01*
X60450Y159000D02*X63450Y162000D01*
X26500Y65906D02*Y64306D01*
Y65906D02*X27887Y66706D01*
X26500Y65906D02*X25113Y66706D01*
X145000Y109500D02*Y107900D01*
Y109500D02*X146387Y110300D01*
X145000Y109500D02*X143613Y110300D01*
X130000Y109500D02*Y107900D01*
Y109500D02*X131387Y110300D01*
X130000Y109500D02*X128613Y110300D01*
X110900Y30000D02*Y28400D01*
Y30000D02*X112287Y30800D01*
X110900Y30000D02*X109513Y30800D01*
X110900Y90000D02*Y88400D01*
Y90000D02*X112287Y90800D01*
X110900Y90000D02*X109513Y90800D01*
X15000Y176250D02*Y174650D01*
Y176250D02*X16387Y177050D01*
X15000Y176250D02*X13613Y177050D01*
X135000Y178500D02*X136500Y175500D01*
X138000Y178500D01*
X136500Y175500D02*Y172500D01*
X139800Y175800D02*X142050D01*
X139800Y172500D02*X142800D01*
X139800Y178500D02*Y172500D01*
Y178500D02*X142800D01*
X147600D02*X148350Y177750D01*
X145350Y178500D02*X147600D01*
X144600Y177750D02*X145350Y178500D01*
X144600Y177750D02*Y176250D01*
X145350Y175500D01*
X147600D01*
X148350Y174750D01*
Y173250D01*
X147600Y172500D02*X148350Y173250D01*
X145350Y172500D02*X147600D01*
X144600Y173250D02*X145350Y172500D01*
X98000Y178500D02*X101000D01*
X98000D02*Y175500D01*
X98750Y176250D01*
X100250D01*
X101000Y175500D01*
Y173250D01*
X100250Y172500D02*X101000Y173250D01*
X98750Y172500D02*X100250D01*
X98000Y173250D02*X98750Y172500D01*
X45000Y173250D02*X45750Y172500D01*
X45000Y177750D02*Y173250D01*
Y177750D02*X45750Y178500D01*
X47250D01*
X48000Y177750D01*
Y173250D01*
X47250Y172500D02*X48000Y173250D01*
X45750Y172500D02*X47250D01*
X45000Y174000D02*X48000Y177000D01*
X49800Y172500D02*X50550D01*
X52350Y173250D02*X53100Y172500D01*
X52350Y177750D02*Y173250D01*
Y177750D02*X53100Y178500D01*
X54600D01*
X55350Y177750D01*
Y173250D01*
X54600Y172500D02*X55350Y173250D01*
X53100Y172500D02*X54600D01*
X52350Y174000D02*X55350Y177000D01*
X57150Y177750D02*X57900Y178500D01*
X60150D01*
X60900Y177750D01*
Y176250D01*
X57150Y172500D02*X60900Y176250D01*
X57150Y172500D02*X60900D01*
X62700Y173250D02*X63450Y172500D01*
X62700Y177750D02*Y173250D01*
Y177750D02*X63450Y178500D01*
X64950D01*
X65700Y177750D01*
Y173250D01*
X64950Y172500D02*X65700Y173250D01*
X63450Y172500D02*X64950D01*
X62700Y174000D02*X65700Y177000D01*
X3000Y193500D02*X3750Y192750D01*
X750Y193500D02*X3000D01*
X0Y192750D02*X750Y193500D01*
X0Y192750D02*Y191250D01*
X750Y190500D01*
X3000D01*
X3750Y189750D01*
Y188250D01*
X3000Y187500D02*X3750Y188250D01*
X750Y187500D02*X3000D01*
X0Y188250D02*X750Y187500D01*
X5550Y190500D02*Y188250D01*
X6300Y187500D01*
X8550Y190500D02*Y186000D01*
X7800Y185250D02*X8550Y186000D01*
X6300Y185250D02*X7800D01*
X5550Y186000D02*X6300Y185250D01*
Y187500D02*X7800D01*
X8550Y188250D01*
X11100Y189750D02*Y187500D01*
Y189750D02*X11850Y190500D01*
X12600D01*
X13350Y189750D01*
Y187500D01*
Y189750D02*X14100Y190500D01*
X14850D01*
X15600Y189750D01*
Y187500D01*
X10350Y190500D02*X11100Y189750D01*
X17400Y193500D02*Y187500D01*
Y188250D02*X18150Y187500D01*
X19650D01*
X20400Y188250D01*
Y189750D02*Y188250D01*
X19650Y190500D02*X20400Y189750D01*
X18150Y190500D02*X19650D01*
X17400Y189750D02*X18150Y190500D01*
X22200Y189750D02*Y188250D01*
Y189750D02*X22950Y190500D01*
X24450D01*
X25200Y189750D01*
Y188250D01*
X24450Y187500D02*X25200Y188250D01*
X22950Y187500D02*X24450D01*
X22200Y188250D02*X22950Y187500D01*
X27000Y193500D02*Y188250D01*
X27750Y187500D01*
X0Y184250D02*X29250D01*
X41750Y193500D02*Y187500D01*
X43700Y193500D02*X44750Y192450D01*
Y188550D01*
X43700Y187500D02*X44750Y188550D01*
X41000Y187500D02*X43700D01*
X41000Y193500D02*X43700D01*
G54D71*X46550Y192000D02*Y191850D01*
G54D70*Y189750D02*Y187500D01*
X50300Y190500D02*X51050Y189750D01*
X48800Y190500D02*X50300D01*
X48050Y189750D02*X48800Y190500D01*
X48050Y189750D02*Y188250D01*
X48800Y187500D01*
X51050Y190500D02*Y188250D01*
X51800Y187500D01*
X48800D02*X50300D01*
X51050Y188250D01*
X54350Y189750D02*Y187500D01*
Y189750D02*X55100Y190500D01*
X55850D01*
X56600Y189750D01*
Y187500D01*
Y189750D02*X57350Y190500D01*
X58100D01*
X58850Y189750D01*
Y187500D01*
X53600Y190500D02*X54350Y189750D01*
X60650Y187500D02*X61400D01*
X65900Y188250D02*X66650Y187500D01*
X65900Y192750D02*X66650Y193500D01*
X65900Y192750D02*Y188250D01*
X68450Y193500D02*X69950D01*
X69200D02*Y187500D01*
X68450D02*X69950D01*
X72500Y189750D02*Y187500D01*
Y189750D02*X73250Y190500D01*
X74000D01*
X74750Y189750D01*
Y187500D01*
X71750Y190500D02*X72500Y189750D01*
X77300Y190500D02*X79550D01*
X76550Y189750D02*X77300Y190500D01*
X76550Y189750D02*Y188250D01*
X77300Y187500D01*
X79550D01*
X81350Y193500D02*Y187500D01*
Y189750D02*X82100Y190500D01*
X83600D01*
X84350Y189750D01*
Y187500D01*
X86150Y193500D02*X86900Y192750D01*
Y188250D01*
X86150Y187500D02*X86900Y188250D01*
X41000Y184250D02*X88700D01*
X96050Y187500D02*X98000D01*
X95000Y188550D02*X96050Y187500D01*
X95000Y192450D02*Y188550D01*
Y192450D02*X96050Y193500D01*
X98000D01*
X99800Y189750D02*Y188250D01*
Y189750D02*X100550Y190500D01*
X102050D01*
X102800Y189750D01*
Y188250D01*
X102050Y187500D02*X102800Y188250D01*
X100550Y187500D02*X102050D01*
X99800Y188250D02*X100550Y187500D01*
X104600Y190500D02*Y188250D01*
X105350Y187500D01*
X106850D01*
X107600Y188250D01*
Y190500D02*Y188250D01*
X110150Y189750D02*Y187500D01*
Y189750D02*X110900Y190500D01*
X111650D01*
X112400Y189750D01*
Y187500D01*
X109400Y190500D02*X110150Y189750D01*
X114950Y193500D02*Y188250D01*
X115700Y187500D01*
X114200Y191250D02*X115700D01*
X95000Y184250D02*X117200D01*
X130750Y193500D02*Y187500D01*
X130000Y193500D02*X133000D01*
X133750Y192750D01*
Y191250D01*
X133000Y190500D02*X133750Y191250D01*
X130750Y190500D02*X133000D01*
X135550Y193500D02*Y188250D01*
X136300Y187500D01*
X140050Y190500D02*X140800Y189750D01*
X138550Y190500D02*X140050D01*
X137800Y189750D02*X138550Y190500D01*
X137800Y189750D02*Y188250D01*
X138550Y187500D01*
X140800Y190500D02*Y188250D01*
X141550Y187500D01*
X138550D02*X140050D01*
X140800Y188250D01*
X144100Y193500D02*Y188250D01*
X144850Y187500D01*
X143350Y191250D02*X144850D01*
X147100Y187500D02*X149350D01*
X146350Y188250D02*X147100Y187500D01*
X146350Y189750D02*Y188250D01*
Y189750D02*X147100Y190500D01*
X148600D01*
X149350Y189750D01*
X146350Y189000D02*X149350D01*
Y189750D02*Y189000D01*
X154150Y193500D02*Y187500D01*
X153400D02*X154150Y188250D01*
X151900Y187500D02*X153400D01*
X151150Y188250D02*X151900Y187500D01*
X151150Y189750D02*Y188250D01*
Y189750D02*X151900Y190500D01*
X153400D01*
X154150Y189750D01*
X157450Y190500D02*Y189750D01*
Y188250D02*Y187500D01*
X155950Y192750D02*Y192000D01*
Y192750D02*X156700Y193500D01*
X158200D01*
X158950Y192750D01*
Y192000D01*
X157450Y190500D02*X158950Y192000D01*
X130000Y184250D02*X160750D01*
X0Y208500D02*X3000D01*
X1500D02*Y202500D01*
X4800Y208500D02*Y202500D01*
Y204750D02*X5550Y205500D01*
X7050D01*
X7800Y204750D01*
Y202500D01*
X10350D02*X12600D01*
X9600Y203250D02*X10350Y202500D01*
X9600Y204750D02*Y203250D01*
Y204750D02*X10350Y205500D01*
X11850D01*
X12600Y204750D01*
X9600Y204000D02*X12600D01*
Y204750D02*Y204000D01*
X15150Y204750D02*Y202500D01*
Y204750D02*X15900Y205500D01*
X17400D01*
X14400D02*X15150Y204750D01*
X19950Y202500D02*X22200D01*
X19200Y203250D02*X19950Y202500D01*
X19200Y204750D02*Y203250D01*
Y204750D02*X19950Y205500D01*
X21450D01*
X22200Y204750D01*
X19200Y204000D02*X22200D01*
Y204750D02*Y204000D01*
X28950Y205500D02*X29700Y204750D01*
X27450Y205500D02*X28950D01*
X26700Y204750D02*X27450Y205500D01*
X26700Y204750D02*Y203250D01*
X27450Y202500D01*
X29700Y205500D02*Y203250D01*
X30450Y202500D01*
X27450D02*X28950D01*
X29700Y203250D01*
X33000Y204750D02*Y202500D01*
Y204750D02*X33750Y205500D01*
X35250D01*
X32250D02*X33000Y204750D01*
X37800Y202500D02*X40050D01*
X37050Y203250D02*X37800Y202500D01*
X37050Y204750D02*Y203250D01*
Y204750D02*X37800Y205500D01*
X39300D01*
X40050Y204750D01*
X37050Y204000D02*X40050D01*
Y204750D02*Y204000D01*
X44550Y204750D02*X47550Y208500D01*
X44550Y204750D02*X48300D01*
X47550Y208500D02*Y202500D01*
X55800Y208500D02*Y202500D01*
X55050D02*X55800Y203250D01*
X53550Y202500D02*X55050D01*
X52800Y203250D02*X53550Y202500D01*
X52800Y204750D02*Y203250D01*
Y204750D02*X53550Y205500D01*
X55050D01*
X55800Y204750D01*
G54D71*X57600Y207000D02*Y206850D01*
G54D70*Y204750D02*Y202500D01*
X59850Y207750D02*Y202500D01*
Y207750D02*X60600Y208500D01*
X61350D01*
X59100Y205500D02*X60600D01*
X63600Y207750D02*Y202500D01*
Y207750D02*X64350Y208500D01*
X65100D01*
X62850Y205500D02*X64350D01*
X67350Y202500D02*X69600D01*
X66600Y203250D02*X67350Y202500D01*
X66600Y204750D02*Y203250D01*
Y204750D02*X67350Y205500D01*
X68850D01*
X69600Y204750D01*
X66600Y204000D02*X69600D01*
Y204750D02*Y204000D01*
X72150Y204750D02*Y202500D01*
Y204750D02*X72900Y205500D01*
X74400D01*
X71400D02*X72150Y204750D01*
X76950Y202500D02*X79200D01*
X76200Y203250D02*X76950Y202500D01*
X76200Y204750D02*Y203250D01*
Y204750D02*X76950Y205500D01*
X78450D01*
X79200Y204750D01*
X76200Y204000D02*X79200D01*
Y204750D02*Y204000D01*
X81750Y204750D02*Y202500D01*
Y204750D02*X82500Y205500D01*
X83250D01*
X84000Y204750D01*
Y202500D01*
X81000Y205500D02*X81750Y204750D01*
X86550Y208500D02*Y203250D01*
X87300Y202500D01*
X85800Y206250D02*X87300D01*
X94500Y208500D02*Y202500D01*
X93750D02*X94500Y203250D01*
X92250Y202500D02*X93750D01*
X91500Y203250D02*X92250Y202500D01*
X91500Y204750D02*Y203250D01*
Y204750D02*X92250Y205500D01*
X93750D01*
X94500Y204750D01*
X97050D02*Y202500D01*
Y204750D02*X97800Y205500D01*
X99300D01*
X96300D02*X97050Y204750D01*
G54D71*X101100Y207000D02*Y206850D01*
G54D70*Y204750D02*Y202500D01*
X102600Y208500D02*Y203250D01*
X103350Y202500D01*
X104850Y208500D02*Y203250D01*
X105600Y202500D01*
X110550D02*X112800D01*
X113550Y203250D01*
X112800Y204000D02*X113550Y203250D01*
X110550Y204000D02*X112800D01*
X109800Y204750D02*X110550Y204000D01*
X109800Y204750D02*X110550Y205500D01*
X112800D01*
X113550Y204750D01*
X109800Y203250D02*X110550Y202500D01*
G54D71*X115350Y207000D02*Y206850D01*
G54D70*Y204750D02*Y202500D01*
X116850Y205500D02*X119850D01*
X116850Y202500D02*X119850Y205500D01*
X116850Y202500D02*X119850D01*
X122400D02*X124650D01*
X121650Y203250D02*X122400Y202500D01*
X121650Y204750D02*Y203250D01*
Y204750D02*X122400Y205500D01*
X123900D01*
X124650Y204750D01*
X121650Y204000D02*X124650D01*
Y204750D02*Y204000D01*
X127200Y202500D02*X129450D01*
X130200Y203250D01*
X129450Y204000D02*X130200Y203250D01*
X127200Y204000D02*X129450D01*
X126450Y204750D02*X127200Y204000D01*
X126450Y204750D02*X127200Y205500D01*
X129450D01*
X130200Y204750D01*
X126450Y203250D02*X127200Y202500D01*
X134700Y205500D02*Y203250D01*
X135450Y202500D01*
X136950D01*
X137700Y203250D01*
Y205500D02*Y203250D01*
X140250Y202500D02*X142500D01*
X143250Y203250D01*
X142500Y204000D02*X143250Y203250D01*
X140250Y204000D02*X142500D01*
X139500Y204750D02*X140250Y204000D01*
X139500Y204750D02*X140250Y205500D01*
X142500D01*
X143250Y204750D01*
X139500Y203250D02*X140250Y202500D01*
X145800D02*X148050D01*
X145050Y203250D02*X145800Y202500D01*
X145050Y204750D02*Y203250D01*
Y204750D02*X145800Y205500D01*
X147300D01*
X148050Y204750D01*
X145050Y204000D02*X148050D01*
Y204750D02*Y204000D01*
X152850Y208500D02*Y202500D01*
X152100D02*X152850Y203250D01*
X150600Y202500D02*X152100D01*
X149850Y203250D02*X150600Y202500D01*
X149850Y204750D02*Y203250D01*
Y204750D02*X150600Y205500D01*
X152100D01*
X152850Y204750D01*
G54D71*X157350Y207000D02*Y206850D01*
G54D70*Y204750D02*Y202500D01*
X159600Y204750D02*Y202500D01*
Y204750D02*X160350Y205500D01*
X161100D01*
X161850Y204750D01*
Y202500D01*
X158850Y205500D02*X159600Y204750D01*
X167100Y208500D02*Y203250D01*
X167850Y202500D01*
X166350Y206250D02*X167850D01*
X169350Y208500D02*Y202500D01*
Y204750D02*X170100Y205500D01*
X171600D01*
X172350Y204750D01*
Y202500D01*
G54D71*X174150Y207000D02*Y206850D01*
G54D70*Y204750D02*Y202500D01*
X176400D02*X178650D01*
X179400Y203250D01*
X178650Y204000D02*X179400Y203250D01*
X176400Y204000D02*X178650D01*
X175650Y204750D02*X176400Y204000D01*
X175650Y204750D02*X176400Y205500D01*
X178650D01*
X179400Y204750D01*
X175650Y203250D02*X176400Y202500D01*
X183900Y208500D02*Y203250D01*
X184650Y202500D01*
X188400Y205500D02*X189150Y204750D01*
X186900Y205500D02*X188400D01*
X186150Y204750D02*X186900Y205500D01*
X186150Y204750D02*Y203250D01*
X186900Y202500D01*
X189150Y205500D02*Y203250D01*
X189900Y202500D01*
X186900D02*X188400D01*
X189150Y203250D01*
X191700Y205500D02*Y203250D01*
X192450Y202500D01*
X194700Y205500D02*Y201000D01*
X193950Y200250D02*X194700Y201000D01*
X192450Y200250D02*X193950D01*
X191700Y201000D02*X192450Y200250D01*
Y202500D02*X193950D01*
X194700Y203250D01*
X196500Y204750D02*Y203250D01*
Y204750D02*X197250Y205500D01*
X198750D01*
X199500Y204750D01*
Y203250D01*
X198750Y202500D02*X199500Y203250D01*
X197250Y202500D02*X198750D01*
X196500Y203250D02*X197250Y202500D01*
X201300Y205500D02*Y203250D01*
X202050Y202500D01*
X203550D01*
X204300Y203250D01*
Y205500D02*Y203250D01*
X206850Y208500D02*Y203250D01*
X207600Y202500D01*
X206100Y206250D02*X207600D01*
X209100Y201000D02*X210600Y202500D01*
X215100Y207300D02*X216300Y208500D01*
Y202500D01*
X215100D02*X217350D01*
X219150Y207750D02*X219900Y208500D01*
X222150D01*
X222900Y207750D01*
Y206250D01*
X219150Y202500D02*X222900Y206250D01*
X219150Y202500D02*X222900D01*
X227400Y208500D02*Y202500D01*
Y204750D02*X228150Y205500D01*
X229650D01*
X230400Y204750D01*
Y202500D01*
X232200Y204750D02*Y203250D01*
Y204750D02*X232950Y205500D01*
X234450D01*
X235200Y204750D01*
Y203250D01*
X234450Y202500D02*X235200Y203250D01*
X232950Y202500D02*X234450D01*
X232200Y203250D02*X232950Y202500D01*
X237000Y208500D02*Y203250D01*
X237750Y202500D01*
X240000D02*X242250D01*
X239250Y203250D02*X240000Y202500D01*
X239250Y204750D02*Y203250D01*
Y204750D02*X240000Y205500D01*
X241500D01*
X242250Y204750D01*
X239250Y204000D02*X242250D01*
Y204750D02*Y204000D01*
X244800Y202500D02*X247050D01*
X247800Y203250D01*
X247050Y204000D02*X247800Y203250D01*
X244800Y204000D02*X247050D01*
X244050Y204750D02*X244800Y204000D01*
X244050Y204750D02*X244800Y205500D01*
X247050D01*
X247800Y204750D01*
X244050Y203250D02*X244800Y202500D01*
X253050Y208500D02*Y203250D01*
X253800Y202500D01*
X252300Y206250D02*X253800D01*
X255300Y204750D02*Y203250D01*
Y204750D02*X256050Y205500D01*
X257550D01*
X258300Y204750D01*
Y203250D01*
X257550Y202500D02*X258300Y203250D01*
X256050Y202500D02*X257550D01*
X255300Y203250D02*X256050Y202500D01*
X260850Y208500D02*Y203250D01*
X261600Y202500D01*
X260100Y206250D02*X261600D01*
X265350Y205500D02*X266100Y204750D01*
X263850Y205500D02*X265350D01*
X263100Y204750D02*X263850Y205500D01*
X263100Y204750D02*Y203250D01*
X263850Y202500D01*
X266100Y205500D02*Y203250D01*
X266850Y202500D01*
X263850D02*X265350D01*
X266100Y203250D01*
X268650Y208500D02*Y203250D01*
X269400Y202500D01*
G54D72*X0Y120000D02*X200000D01*
X0D02*Y0D01*
X200000Y120000D02*Y0D01*
X0D02*X200000D01*
G54D70*Y133500D02*Y127500D01*
Y133500D02*X202250Y130500D01*
X204500Y133500D01*
Y127500D01*
X208550Y130500D02*X209300Y129750D01*
X207050Y130500D02*X208550D01*
X206300Y129750D02*X207050Y130500D01*
X206300Y129750D02*Y128250D01*
X207050Y127500D01*
X209300Y130500D02*Y128250D01*
X210050Y127500D01*
X207050D02*X208550D01*
X209300Y128250D01*
X211850Y130500D02*X214850Y127500D01*
X211850D02*X214850Y130500D01*
G54D71*X216650Y132000D02*Y131850D01*
G54D70*Y129750D02*Y127500D01*
X218900Y129750D02*Y127500D01*
Y129750D02*X219650Y130500D01*
X220400D01*
X221150Y129750D01*
Y127500D01*
Y129750D02*X221900Y130500D01*
X222650D01*
X223400Y129750D01*
Y127500D01*
X218150Y130500D02*X218900Y129750D01*
X225200Y130500D02*Y128250D01*
X225950Y127500D01*
X227450D01*
X228200Y128250D01*
Y130500D02*Y128250D01*
X230750Y129750D02*Y127500D01*
Y129750D02*X231500Y130500D01*
X232250D01*
X233000Y129750D01*
Y127500D01*
Y129750D02*X233750Y130500D01*
X234500D01*
X235250Y129750D01*
Y127500D01*
X230000Y130500D02*X230750Y129750D01*
X240500Y133500D02*Y127500D01*
X242450Y133500D02*X243500Y132450D01*
Y128550D01*
X242450Y127500D02*X243500Y128550D01*
X239750Y127500D02*X242450D01*
X239750Y133500D02*X242450D01*
G54D71*X245300Y132000D02*Y131850D01*
G54D70*Y129750D02*Y127500D01*
X247550Y129750D02*Y127500D01*
Y129750D02*X248300Y130500D01*
X249050D01*
X249800Y129750D01*
Y127500D01*
Y129750D02*X250550Y130500D01*
X251300D01*
X252050Y129750D01*
Y127500D01*
X246800Y130500D02*X247550Y129750D01*
X254600Y127500D02*X256850D01*
X253850Y128250D02*X254600Y127500D01*
X253850Y129750D02*Y128250D01*
Y129750D02*X254600Y130500D01*
X256100D01*
X256850Y129750D01*
X253850Y129000D02*X256850D01*
Y129750D02*Y129000D01*
X259400Y129750D02*Y127500D01*
Y129750D02*X260150Y130500D01*
X260900D01*
X261650Y129750D01*
Y127500D01*
X258650Y130500D02*X259400Y129750D01*
X264200Y127500D02*X266450D01*
X267200Y128250D01*
X266450Y129000D02*X267200Y128250D01*
X264200Y129000D02*X266450D01*
X263450Y129750D02*X264200Y129000D01*
X263450Y129750D02*X264200Y130500D01*
X266450D01*
X267200Y129750D01*
X263450Y128250D02*X264200Y127500D01*
G54D71*X269000Y132000D02*Y131850D01*
G54D70*Y129750D02*Y127500D01*
X270500Y129750D02*Y128250D01*
Y129750D02*X271250Y130500D01*
X272750D01*
X273500Y129750D01*
Y128250D01*
X272750Y127500D02*X273500Y128250D01*
X271250Y127500D02*X272750D01*
X270500Y128250D02*X271250Y127500D01*
X276050Y129750D02*Y127500D01*
Y129750D02*X276800Y130500D01*
X277550D01*
X278300Y129750D01*
Y127500D01*
X275300Y130500D02*X276050Y129750D01*
X280850Y127500D02*X283100D01*
X283850Y128250D01*
X283100Y129000D02*X283850Y128250D01*
X280850Y129000D02*X283100D01*
X280100Y129750D02*X280850Y129000D01*
X280100Y129750D02*X280850Y130500D01*
X283100D01*
X283850Y129750D01*
X280100Y128250D02*X280850Y127500D01*
X285650Y131250D02*X286400D01*
X285650Y129750D02*X286400D01*
X290900Y132750D02*X291650Y133500D01*
X293900D01*
X294650Y132750D01*
Y131250D01*
X290900Y127500D02*X294650Y131250D01*
X290900Y127500D02*X294650D01*
X296450Y128250D02*X297200Y127500D01*
X296450Y132750D02*Y128250D01*
Y132750D02*X297200Y133500D01*
X298700D01*
X299450Y132750D01*
Y128250D01*
X298700Y127500D02*X299450Y128250D01*
X297200Y127500D02*X298700D01*
X296450Y129000D02*X299450Y132000D01*
X301250Y128250D02*X302000Y127500D01*
X301250Y132750D02*Y128250D01*
Y132750D02*X302000Y133500D01*
X303500D01*
X304250Y132750D01*
Y128250D01*
X303500Y127500D02*X304250Y128250D01*
X302000Y127500D02*X303500D01*
X301250Y129000D02*X304250Y132000D01*
X306050Y128250D02*X306800Y127500D01*
X306050Y132750D02*Y128250D01*
Y132750D02*X306800Y133500D01*
X308300D01*
X309050Y132750D01*
Y128250D01*
X308300Y127500D02*X309050Y128250D01*
X306800Y127500D02*X308300D01*
X306050Y129000D02*X309050Y132000D01*
X310850Y127500D02*X311600D01*
X313400Y128250D02*X314150Y127500D01*
X313400Y132750D02*Y128250D01*
Y132750D02*X314150Y133500D01*
X315650D01*
X316400Y132750D01*
Y128250D01*
X315650Y127500D02*X316400Y128250D01*
X314150Y127500D02*X315650D01*
X313400Y129000D02*X316400Y132000D01*
X318200Y128250D02*X318950Y127500D01*
X318200Y132750D02*Y128250D01*
Y132750D02*X318950Y133500D01*
X320450D01*
X321200Y132750D01*
Y128250D01*
X320450Y127500D02*X321200Y128250D01*
X318950Y127500D02*X320450D01*
X318200Y129000D02*X321200Y132000D01*
X323000Y128250D02*X323750Y127500D01*
X323000Y132750D02*Y128250D01*
Y132750D02*X323750Y133500D01*
X325250D01*
X326000Y132750D01*
Y128250D01*
X325250Y127500D02*X326000Y128250D01*
X323750Y127500D02*X325250D01*
X323000Y129000D02*X326000Y132000D01*
X327800Y128250D02*X328550Y127500D01*
X327800Y132750D02*Y128250D01*
Y132750D02*X328550Y133500D01*
X330050D01*
X330800Y132750D01*
Y128250D01*
X330050Y127500D02*X330800Y128250D01*
X328550Y127500D02*X330050D01*
X327800Y129000D02*X330800Y132000D01*
X332600Y128250D02*X333350Y127500D01*
X332600Y132750D02*Y128250D01*
Y132750D02*X333350Y133500D01*
X334850D01*
X335600Y132750D01*
Y128250D01*
X334850Y127500D02*X335600Y128250D01*
X333350Y127500D02*X334850D01*
X332600Y129000D02*X335600Y132000D01*
X337400Y128250D02*X338150Y127500D01*
X337400Y132750D02*Y128250D01*
Y132750D02*X338150Y133500D01*
X339650D01*
X340400Y132750D01*
Y128250D01*
X339650Y127500D02*X340400Y128250D01*
X338150Y127500D02*X339650D01*
X337400Y129000D02*X340400Y132000D01*
X345650Y129750D02*Y127500D01*
Y129750D02*X346400Y130500D01*
X347150D01*
X347900Y129750D01*
Y127500D01*
Y129750D02*X348650Y130500D01*
X349400D01*
X350150Y129750D01*
Y127500D01*
X344900Y130500D02*X345650Y129750D01*
G54D71*X351950Y132000D02*Y131850D01*
G54D70*Y129750D02*Y127500D01*
X353450Y133500D02*Y128250D01*
X354200Y127500D01*
X356450D02*X358700D01*
X359450Y128250D01*
X358700Y129000D02*X359450Y128250D01*
X356450Y129000D02*X358700D01*
X355700Y129750D02*X356450Y129000D01*
X355700Y129750D02*X356450Y130500D01*
X358700D01*
X359450Y129750D01*
X355700Y128250D02*X356450Y127500D01*
X363950Y130500D02*Y128250D01*
X364700Y127500D01*
X365450D01*
X366200Y128250D01*
Y130500D02*Y128250D01*
X366950Y127500D01*
X367700D01*
X368450Y128250D01*
Y130500D02*Y128250D01*
G54D71*X370250Y132000D02*Y131850D01*
G54D70*Y129750D02*Y127500D01*
X374750Y133500D02*Y127500D01*
X374000D02*X374750Y128250D01*
X372500Y127500D02*X374000D01*
X371750Y128250D02*X372500Y127500D01*
X371750Y129750D02*Y128250D01*
Y129750D02*X372500Y130500D01*
X374000D01*
X374750Y129750D01*
X377300Y127500D02*X379550D01*
X376550Y128250D02*X377300Y127500D01*
X376550Y129750D02*Y128250D01*
Y129750D02*X377300Y130500D01*
X378800D01*
X379550Y129750D01*
X376550Y129000D02*X379550D01*
Y129750D02*Y129000D01*
X381350Y126000D02*X382850Y127500D01*
X387350Y132300D02*X388550Y133500D01*
Y127500D01*
X387350D02*X389600D01*
X391400Y132750D02*X392150Y133500D01*
X394400D01*
X395150Y132750D01*
Y131250D01*
X391400Y127500D02*X395150Y131250D01*
X391400Y127500D02*X395150D01*
X396950Y128250D02*X397700Y127500D01*
X396950Y132750D02*Y128250D01*
Y132750D02*X397700Y133500D01*
X399200D01*
X399950Y132750D01*
Y128250D01*
X399200Y127500D02*X399950Y128250D01*
X397700Y127500D02*X399200D01*
X396950Y129000D02*X399950Y132000D01*
X401750Y128250D02*X402500Y127500D01*
X401750Y132750D02*Y128250D01*
Y132750D02*X402500Y133500D01*
X404000D01*
X404750Y132750D01*
Y128250D01*
X404000Y127500D02*X404750Y128250D01*
X402500Y127500D02*X404000D01*
X401750Y129000D02*X404750Y132000D01*
X406550Y127500D02*X407300D01*
X409100Y128250D02*X409850Y127500D01*
X409100Y132750D02*Y128250D01*
Y132750D02*X409850Y133500D01*
X411350D01*
X412100Y132750D01*
Y128250D01*
X411350Y127500D02*X412100Y128250D01*
X409850Y127500D02*X411350D01*
X409100Y129000D02*X412100Y132000D01*
X413900Y128250D02*X414650Y127500D01*
X413900Y132750D02*Y128250D01*
Y132750D02*X414650Y133500D01*
X416150D01*
X416900Y132750D01*
Y128250D01*
X416150Y127500D02*X416900Y128250D01*
X414650Y127500D02*X416150D01*
X413900Y129000D02*X416900Y132000D01*
X418700Y128250D02*X419450Y127500D01*
X418700Y132750D02*Y128250D01*
Y132750D02*X419450Y133500D01*
X420950D01*
X421700Y132750D01*
Y128250D01*
X420950Y127500D02*X421700Y128250D01*
X419450Y127500D02*X420950D01*
X418700Y129000D02*X421700Y132000D01*
X423500Y128250D02*X424250Y127500D01*
X423500Y132750D02*Y128250D01*
Y132750D02*X424250Y133500D01*
X425750D01*
X426500Y132750D01*
Y128250D01*
X425750Y127500D02*X426500Y128250D01*
X424250Y127500D02*X425750D01*
X423500Y129000D02*X426500Y132000D01*
X428300Y128250D02*X429050Y127500D01*
X428300Y132750D02*Y128250D01*
Y132750D02*X429050Y133500D01*
X430550D01*
X431300Y132750D01*
Y128250D01*
X430550Y127500D02*X431300Y128250D01*
X429050Y127500D02*X430550D01*
X428300Y129000D02*X431300Y132000D01*
X433100Y128250D02*X433850Y127500D01*
X433100Y132750D02*Y128250D01*
Y132750D02*X433850Y133500D01*
X435350D01*
X436100Y132750D01*
Y128250D01*
X435350Y127500D02*X436100Y128250D01*
X433850Y127500D02*X435350D01*
X433100Y129000D02*X436100Y132000D01*
X441350Y129750D02*Y127500D01*
Y129750D02*X442100Y130500D01*
X442850D01*
X443600Y129750D01*
Y127500D01*
Y129750D02*X444350Y130500D01*
X445100D01*
X445850Y129750D01*
Y127500D01*
X440600Y130500D02*X441350Y129750D01*
G54D71*X447650Y132000D02*Y131850D01*
G54D70*Y129750D02*Y127500D01*
X449150Y133500D02*Y128250D01*
X449900Y127500D01*
X452150D02*X454400D01*
X455150Y128250D01*
X454400Y129000D02*X455150Y128250D01*
X452150Y129000D02*X454400D01*
X451400Y129750D02*X452150Y129000D01*
X451400Y129750D02*X452150Y130500D01*
X454400D01*
X455150Y129750D01*
X451400Y128250D02*X452150Y127500D01*
X459650Y133500D02*Y127500D01*
Y129750D02*X460400Y130500D01*
X461900D01*
X462650Y129750D01*
Y127500D01*
G54D71*X464450Y132000D02*Y131850D01*
G54D70*Y129750D02*Y127500D01*
X468200Y130500D02*X468950Y129750D01*
X466700Y130500D02*X468200D01*
X465950Y129750D02*X466700Y130500D01*
X465950Y129750D02*Y128250D01*
X466700Y127500D01*
X468200D01*
X468950Y128250D01*
X465950Y126000D02*X466700Y125250D01*
X468200D01*
X468950Y126000D01*
Y130500D02*Y126000D01*
X470750Y133500D02*Y127500D01*
Y129750D02*X471500Y130500D01*
X473000D01*
X473750Y129750D01*
Y127500D01*
X0Y-9500D02*X3000D01*
X3750Y-8750D01*
Y-6950D02*Y-8750D01*
X3000Y-6200D02*X3750Y-6950D01*
X750Y-6200D02*X3000D01*
X750Y-3500D02*Y-9500D01*
X0Y-3500D02*X3000D01*
X3750Y-4250D01*
Y-5450D01*
X3000Y-6200D02*X3750Y-5450D01*
X5550Y-7250D02*Y-8750D01*
Y-7250D02*X6300Y-6500D01*
X7800D01*
X8550Y-7250D01*
Y-8750D01*
X7800Y-9500D02*X8550Y-8750D01*
X6300Y-9500D02*X7800D01*
X5550Y-8750D02*X6300Y-9500D01*
X12600Y-6500D02*X13350Y-7250D01*
X11100Y-6500D02*X12600D01*
X10350Y-7250D02*X11100Y-6500D01*
X10350Y-7250D02*Y-8750D01*
X11100Y-9500D01*
X13350Y-6500D02*Y-8750D01*
X14100Y-9500D01*
X11100D02*X12600D01*
X13350Y-8750D01*
X16650Y-7250D02*Y-9500D01*
Y-7250D02*X17400Y-6500D01*
X18900D01*
X15900D02*X16650Y-7250D01*
X23700Y-3500D02*Y-9500D01*
X22950D02*X23700Y-8750D01*
X21450Y-9500D02*X22950D01*
X20700Y-8750D02*X21450Y-9500D01*
X20700Y-7250D02*Y-8750D01*
Y-7250D02*X21450Y-6500D01*
X22950D01*
X23700Y-7250D01*
X28200D02*Y-8750D01*
Y-7250D02*X28950Y-6500D01*
X30450D01*
X31200Y-7250D01*
Y-8750D01*
X30450Y-9500D02*X31200Y-8750D01*
X28950Y-9500D02*X30450D01*
X28200Y-8750D02*X28950Y-9500D01*
X33000Y-6500D02*Y-8750D01*
X33750Y-9500D01*
X35250D01*
X36000Y-8750D01*
Y-6500D02*Y-8750D01*
X38550Y-3500D02*Y-8750D01*
X39300Y-9500D01*
X37800Y-5750D02*X39300D01*
X40800Y-3500D02*Y-8750D01*
X41550Y-9500D01*
G54D71*X43050Y-5000D02*Y-5150D01*
G54D70*Y-7250D02*Y-9500D01*
X45300Y-7250D02*Y-9500D01*
Y-7250D02*X46050Y-6500D01*
X46800D01*
X47550Y-7250D01*
Y-9500D01*
X44550Y-6500D02*X45300Y-7250D01*
X50100Y-9500D02*X52350D01*
X49350Y-8750D02*X50100Y-9500D01*
X49350Y-7250D02*Y-8750D01*
Y-7250D02*X50100Y-6500D01*
X51600D01*
X52350Y-7250D01*
X49350Y-8000D02*X52350D01*
Y-7250D02*Y-8000D01*
G54D71*X56850Y-5000D02*Y-5150D01*
G54D70*Y-7250D02*Y-9500D01*
X59100D02*X61350D01*
X62100Y-8750D01*
X61350Y-8000D02*X62100Y-8750D01*
X59100Y-8000D02*X61350D01*
X58350Y-7250D02*X59100Y-8000D01*
X58350Y-7250D02*X59100Y-6500D01*
X61350D01*
X62100Y-7250D01*
X58350Y-8750D02*X59100Y-9500D01*
X67350Y-3500D02*Y-8750D01*
X68100Y-9500D01*
X66600Y-5750D02*X68100D01*
X69600Y-3500D02*Y-9500D01*
Y-7250D02*X70350Y-6500D01*
X71850D01*
X72600Y-7250D01*
Y-9500D01*
X75150D02*X77400D01*
X74400Y-8750D02*X75150Y-9500D01*
X74400Y-7250D02*Y-8750D01*
Y-7250D02*X75150Y-6500D01*
X76650D01*
X77400Y-7250D01*
X74400Y-8000D02*X77400D01*
Y-7250D02*Y-8000D01*
X82650Y-6500D02*X84900D01*
X81900Y-7250D02*X82650Y-6500D01*
X81900Y-7250D02*Y-8750D01*
X82650Y-9500D01*
X84900D01*
X87450D02*X89700D01*
X86700Y-8750D02*X87450Y-9500D01*
X86700Y-7250D02*Y-8750D01*
Y-7250D02*X87450Y-6500D01*
X88950D01*
X89700Y-7250D01*
X86700Y-8000D02*X89700D01*
Y-7250D02*Y-8000D01*
X92250Y-7250D02*Y-9500D01*
Y-7250D02*X93000Y-6500D01*
X93750D01*
X94500Y-7250D01*
Y-9500D01*
X91500Y-6500D02*X92250Y-7250D01*
X97050Y-3500D02*Y-8750D01*
X97800Y-9500D01*
X96300Y-5750D02*X97800D01*
X100050Y-9500D02*X102300D01*
X99300Y-8750D02*X100050Y-9500D01*
X99300Y-7250D02*Y-8750D01*
Y-7250D02*X100050Y-6500D01*
X101550D01*
X102300Y-7250D01*
X99300Y-8000D02*X102300D01*
Y-7250D02*Y-8000D01*
X104850Y-7250D02*Y-9500D01*
Y-7250D02*X105600Y-6500D01*
X107100D01*
X104100D02*X104850Y-7250D01*
X108900Y-3500D02*Y-8750D01*
X109650Y-9500D01*
G54D71*X111150Y-5000D02*Y-5150D01*
G54D70*Y-7250D02*Y-9500D01*
X113400Y-7250D02*Y-9500D01*
Y-7250D02*X114150Y-6500D01*
X114900D01*
X115650Y-7250D01*
Y-9500D01*
X112650Y-6500D02*X113400Y-7250D01*
X118200Y-9500D02*X120450D01*
X117450Y-8750D02*X118200Y-9500D01*
X117450Y-7250D02*Y-8750D01*
Y-7250D02*X118200Y-6500D01*
X119700D01*
X120450Y-7250D01*
X117450Y-8000D02*X120450D01*
Y-7250D02*Y-8000D01*
X124950Y-7250D02*Y-8750D01*
Y-7250D02*X125700Y-6500D01*
X127200D01*
X127950Y-7250D01*
Y-8750D01*
X127200Y-9500D02*X127950Y-8750D01*
X125700Y-9500D02*X127200D01*
X124950Y-8750D02*X125700Y-9500D01*
X130500Y-4250D02*Y-9500D01*
Y-4250D02*X131250Y-3500D01*
X132000D01*
X129750Y-6500D02*X131250D01*
X136950Y-3500D02*Y-8750D01*
X137700Y-9500D01*
X136200Y-5750D02*X137700D01*
X139200Y-3500D02*Y-9500D01*
Y-7250D02*X139950Y-6500D01*
X141450D01*
X142200Y-7250D01*
Y-9500D01*
G54D71*X144000Y-5000D02*Y-5150D01*
G54D70*Y-7250D02*Y-9500D01*
X146250D02*X148500D01*
X149250Y-8750D01*
X148500Y-8000D02*X149250Y-8750D01*
X146250Y-8000D02*X148500D01*
X145500Y-7250D02*X146250Y-8000D01*
X145500Y-7250D02*X146250Y-6500D01*
X148500D01*
X149250Y-7250D01*
X145500Y-8750D02*X146250Y-9500D01*
X153750Y-8750D02*X154500Y-9500D01*
X153750Y-7550D02*Y-8750D01*
Y-7550D02*X154800Y-6500D01*
X155700D01*
X156750Y-7550D01*
Y-8750D01*
X156000Y-9500D02*X156750Y-8750D01*
X154500Y-9500D02*X156000D01*
X153750Y-5450D02*X154800Y-6500D01*
X153750Y-4250D02*Y-5450D01*
Y-4250D02*X154500Y-3500D01*
X156000D01*
X156750Y-4250D01*
Y-5450D01*
X155700Y-6500D02*X156750Y-5450D01*
X158550Y-9500D02*X159300D01*
X161100Y-8750D02*X161850Y-9500D01*
X161100Y-4250D02*Y-8750D01*
Y-4250D02*X161850Y-3500D01*
X163350D01*
X164100Y-4250D01*
Y-8750D01*
X163350Y-9500D02*X164100Y-8750D01*
X161850Y-9500D02*X163350D01*
X161100Y-8000D02*X164100Y-5000D01*
X165900Y-8750D02*X166650Y-9500D01*
X165900Y-4250D02*Y-8750D01*
Y-4250D02*X166650Y-3500D01*
X168150D01*
X168900Y-4250D01*
Y-8750D01*
X168150Y-9500D02*X168900Y-8750D01*
X166650Y-9500D02*X168150D01*
X165900Y-8000D02*X168900Y-5000D01*
X170700Y-8750D02*X171450Y-9500D01*
X170700Y-4250D02*Y-8750D01*
Y-4250D02*X171450Y-3500D01*
X172950D01*
X173700Y-4250D01*
Y-8750D01*
X172950Y-9500D02*X173700Y-8750D01*
X171450Y-9500D02*X172950D01*
X170700Y-8000D02*X173700Y-5000D01*
X175500Y-8750D02*X176250Y-9500D01*
X175500Y-4250D02*Y-8750D01*
Y-4250D02*X176250Y-3500D01*
X177750D01*
X178500Y-4250D01*
Y-8750D01*
X177750Y-9500D02*X178500Y-8750D01*
X176250Y-9500D02*X177750D01*
X175500Y-8000D02*X178500Y-5000D01*
X180300Y-8750D02*X181050Y-9500D01*
X180300Y-4250D02*Y-8750D01*
Y-4250D02*X181050Y-3500D01*
X182550D01*
X183300Y-4250D01*
Y-8750D01*
X182550Y-9500D02*X183300Y-8750D01*
X181050Y-9500D02*X182550D01*
X180300Y-8000D02*X183300Y-5000D01*
X185100Y-8750D02*X185850Y-9500D01*
X185100Y-4250D02*Y-8750D01*
Y-4250D02*X185850Y-3500D01*
X187350D01*
X188100Y-4250D01*
Y-8750D01*
X187350Y-9500D02*X188100Y-8750D01*
X185850Y-9500D02*X187350D01*
X185100Y-8000D02*X188100Y-5000D01*
X193350Y-7250D02*Y-9500D01*
Y-7250D02*X194100Y-6500D01*
X194850D01*
X195600Y-7250D01*
Y-9500D01*
Y-7250D02*X196350Y-6500D01*
X197100D01*
X197850Y-7250D01*
Y-9500D01*
X192600Y-6500D02*X193350Y-7250D01*
G54D71*X199650Y-5000D02*Y-5150D01*
G54D70*Y-7250D02*Y-9500D01*
X201150Y-3500D02*Y-8750D01*
X201900Y-9500D01*
X206850Y-7250D02*Y-9500D01*
Y-7250D02*X207600Y-6500D01*
X209100D01*
X206100D02*X206850Y-7250D01*
X211650Y-9500D02*X213900D01*
X210900Y-8750D02*X211650Y-9500D01*
X210900Y-7250D02*Y-8750D01*
Y-7250D02*X211650Y-6500D01*
X213150D01*
X213900Y-7250D01*
X210900Y-8000D02*X213900D01*
Y-7250D02*Y-8000D01*
X216450Y-6500D02*X218700D01*
X215700Y-7250D02*X216450Y-6500D01*
X215700Y-7250D02*Y-8750D01*
X216450Y-9500D01*
X218700D01*
X221250Y-3500D02*Y-8750D01*
X222000Y-9500D01*
X220500Y-5750D02*X222000D01*
X225750Y-6500D02*X226500Y-7250D01*
X224250Y-6500D02*X225750D01*
X223500Y-7250D02*X224250Y-6500D01*
X223500Y-7250D02*Y-8750D01*
X224250Y-9500D01*
X226500Y-6500D02*Y-8750D01*
X227250Y-9500D01*
X224250D02*X225750D01*
X226500Y-8750D01*
X229800Y-7250D02*Y-9500D01*
Y-7250D02*X230550Y-6500D01*
X231300D01*
X232050Y-7250D01*
Y-9500D01*
X229050Y-6500D02*X229800Y-7250D01*
X236100Y-6500D02*X236850Y-7250D01*
X234600Y-6500D02*X236100D01*
X233850Y-7250D02*X234600Y-6500D01*
X233850Y-7250D02*Y-8750D01*
X234600Y-9500D01*
X236100D01*
X236850Y-8750D01*
X233850Y-11000D02*X234600Y-11750D01*
X236100D01*
X236850Y-11000D01*
Y-6500D02*Y-11000D01*
X238650Y-3500D02*Y-8750D01*
X239400Y-9500D01*
X241650D02*X243900D01*
X240900Y-8750D02*X241650Y-9500D01*
X240900Y-7250D02*Y-8750D01*
Y-7250D02*X241650Y-6500D01*
X243150D01*
X243900Y-7250D01*
X240900Y-8000D02*X243900D01*
Y-7250D02*Y-8000D01*
X248400Y-6500D02*X251400D01*
X255900Y-8750D02*X256650Y-9500D01*
X255900Y-4250D02*Y-8750D01*
Y-4250D02*X256650Y-3500D01*
X258150D01*
X258900Y-4250D01*
Y-8750D01*
X258150Y-9500D02*X258900Y-8750D01*
X256650Y-9500D02*X258150D01*
X255900Y-8000D02*X258900Y-5000D01*
X260700Y-11000D02*X262200Y-9500D01*
X264000Y-8750D02*X264750Y-9500D01*
X264000Y-4250D02*Y-8750D01*
Y-4250D02*X264750Y-3500D01*
X266250D01*
X267000Y-4250D01*
Y-8750D01*
X266250Y-9500D02*X267000Y-8750D01*
X264750Y-9500D02*X266250D01*
X264000Y-8000D02*X267000Y-5000D01*
X272250Y-3500D02*Y-8750D01*
X273000Y-9500D01*
X271500Y-5750D02*X273000D01*
X274500Y-7250D02*Y-8750D01*
Y-7250D02*X275250Y-6500D01*
X276750D01*
X277500Y-7250D01*
Y-8750D01*
X276750Y-9500D02*X277500Y-8750D01*
X275250Y-9500D02*X276750D01*
X274500Y-8750D02*X275250Y-9500D01*
X282000Y-4250D02*X282750Y-3500D01*
X285000D01*
X285750Y-4250D01*
Y-5750D01*
X282000Y-9500D02*X285750Y-5750D01*
X282000Y-9500D02*X285750D01*
X287550Y-8750D02*X288300Y-9500D01*
X287550Y-4250D02*Y-8750D01*
Y-4250D02*X288300Y-3500D01*
X289800D01*
X290550Y-4250D01*
Y-8750D01*
X289800Y-9500D02*X290550Y-8750D01*
X288300Y-9500D02*X289800D01*
X287550Y-8000D02*X290550Y-5000D01*
X292350Y-8750D02*X293100Y-9500D01*
X292350Y-4250D02*Y-8750D01*
Y-4250D02*X293100Y-3500D01*
X294600D01*
X295350Y-4250D01*
Y-8750D01*
X294600Y-9500D02*X295350Y-8750D01*
X293100Y-9500D02*X294600D01*
X292350Y-8000D02*X295350Y-5000D01*
X297150Y-8750D02*X297900Y-9500D01*
X297150Y-4250D02*Y-8750D01*
Y-4250D02*X297900Y-3500D01*
X299400D01*
X300150Y-4250D01*
Y-8750D01*
X299400Y-9500D02*X300150Y-8750D01*
X297900Y-9500D02*X299400D01*
X297150Y-8000D02*X300150Y-5000D01*
X301950Y-9500D02*X302700D01*
X304500Y-8750D02*X305250Y-9500D01*
X304500Y-4250D02*Y-8750D01*
Y-4250D02*X305250Y-3500D01*
X306750D01*
X307500Y-4250D01*
Y-8750D01*
X306750Y-9500D02*X307500Y-8750D01*
X305250Y-9500D02*X306750D01*
X304500Y-8000D02*X307500Y-5000D01*
X309300Y-8750D02*X310050Y-9500D01*
X309300Y-4250D02*Y-8750D01*
Y-4250D02*X310050Y-3500D01*
X311550D01*
X312300Y-4250D01*
Y-8750D01*
X311550Y-9500D02*X312300Y-8750D01*
X310050Y-9500D02*X311550D01*
X309300Y-8000D02*X312300Y-5000D01*
X314100Y-8750D02*X314850Y-9500D01*
X314100Y-4250D02*Y-8750D01*
Y-4250D02*X314850Y-3500D01*
X316350D01*
X317100Y-4250D01*
Y-8750D01*
X316350Y-9500D02*X317100Y-8750D01*
X314850Y-9500D02*X316350D01*
X314100Y-8000D02*X317100Y-5000D01*
X318900Y-8750D02*X319650Y-9500D01*
X318900Y-4250D02*Y-8750D01*
Y-4250D02*X319650Y-3500D01*
X321150D01*
X321900Y-4250D01*
Y-8750D01*
X321150Y-9500D02*X321900Y-8750D01*
X319650Y-9500D02*X321150D01*
X318900Y-8000D02*X321900Y-5000D01*
X323700Y-8750D02*X324450Y-9500D01*
X323700Y-4250D02*Y-8750D01*
Y-4250D02*X324450Y-3500D01*
X325950D01*
X326700Y-4250D01*
Y-8750D01*
X325950Y-9500D02*X326700Y-8750D01*
X324450Y-9500D02*X325950D01*
X323700Y-8000D02*X326700Y-5000D01*
X328500Y-8750D02*X329250Y-9500D01*
X328500Y-4250D02*Y-8750D01*
Y-4250D02*X329250Y-3500D01*
X330750D01*
X331500Y-4250D01*
Y-8750D01*
X330750Y-9500D02*X331500Y-8750D01*
X329250Y-9500D02*X330750D01*
X328500Y-8000D02*X331500Y-5000D01*
X333300Y-11000D02*X334800Y-9500D01*
X336600Y-4700D02*X337800Y-3500D01*
Y-9500D01*
X336600D02*X338850D01*
X340650Y-4250D02*X341400Y-3500D01*
X343650D01*
X344400Y-4250D01*
Y-5750D01*
X340650Y-9500D02*X344400Y-5750D01*
X340650Y-9500D02*X344400D01*
X346200Y-8750D02*X346950Y-9500D01*
X346200Y-4250D02*Y-8750D01*
Y-4250D02*X346950Y-3500D01*
X348450D01*
X349200Y-4250D01*
Y-8750D01*
X348450Y-9500D02*X349200Y-8750D01*
X346950Y-9500D02*X348450D01*
X346200Y-8000D02*X349200Y-5000D01*
X351000Y-8750D02*X351750Y-9500D01*
X351000Y-4250D02*Y-8750D01*
Y-4250D02*X351750Y-3500D01*
X353250D01*
X354000Y-4250D01*
Y-8750D01*
X353250Y-9500D02*X354000Y-8750D01*
X351750Y-9500D02*X353250D01*
X351000Y-8000D02*X354000Y-5000D01*
X355800Y-9500D02*X356550D01*
X358350Y-8750D02*X359100Y-9500D01*
X358350Y-4250D02*Y-8750D01*
Y-4250D02*X359100Y-3500D01*
X360600D01*
X361350Y-4250D01*
Y-8750D01*
X360600Y-9500D02*X361350Y-8750D01*
X359100Y-9500D02*X360600D01*
X358350Y-8000D02*X361350Y-5000D01*
X363150Y-8750D02*X363900Y-9500D01*
X363150Y-4250D02*Y-8750D01*
Y-4250D02*X363900Y-3500D01*
X365400D01*
X366150Y-4250D01*
Y-8750D01*
X365400Y-9500D02*X366150Y-8750D01*
X363900Y-9500D02*X365400D01*
X363150Y-8000D02*X366150Y-5000D01*
X367950Y-8750D02*X368700Y-9500D01*
X367950Y-4250D02*Y-8750D01*
Y-4250D02*X368700Y-3500D01*
X370200D01*
X370950Y-4250D01*
Y-8750D01*
X370200Y-9500D02*X370950Y-8750D01*
X368700Y-9500D02*X370200D01*
X367950Y-8000D02*X370950Y-5000D01*
X372750Y-8750D02*X373500Y-9500D01*
X372750Y-4250D02*Y-8750D01*
Y-4250D02*X373500Y-3500D01*
X375000D01*
X375750Y-4250D01*
Y-8750D01*
X375000Y-9500D02*X375750Y-8750D01*
X373500Y-9500D02*X375000D01*
X372750Y-8000D02*X375750Y-5000D01*
X377550Y-8750D02*X378300Y-9500D01*
X377550Y-4250D02*Y-8750D01*
Y-4250D02*X378300Y-3500D01*
X379800D01*
X380550Y-4250D01*
Y-8750D01*
X379800Y-9500D02*X380550Y-8750D01*
X378300Y-9500D02*X379800D01*
X377550Y-8000D02*X380550Y-5000D01*
X382350Y-8750D02*X383100Y-9500D01*
X382350Y-4250D02*Y-8750D01*
Y-4250D02*X383100Y-3500D01*
X384600D01*
X385350Y-4250D01*
Y-8750D01*
X384600Y-9500D02*X385350Y-8750D01*
X383100Y-9500D02*X384600D01*
X382350Y-8000D02*X385350Y-5000D01*
X390600Y-7250D02*Y-9500D01*
Y-7250D02*X391350Y-6500D01*
X392100D01*
X392850Y-7250D01*
Y-9500D01*
Y-7250D02*X393600Y-6500D01*
X394350D01*
X395100Y-7250D01*
Y-9500D01*
X389850Y-6500D02*X390600Y-7250D01*
G54D71*X396900Y-5000D02*Y-5150D01*
G54D70*Y-7250D02*Y-9500D01*
X398400Y-3500D02*Y-8750D01*
X399150Y-9500D01*
X401400D02*X403650D01*
X404400Y-8750D01*
X403650Y-8000D02*X404400Y-8750D01*
X401400Y-8000D02*X403650D01*
X400650Y-7250D02*X401400Y-8000D01*
X400650Y-7250D02*X401400Y-6500D01*
X403650D01*
X404400Y-7250D01*
X400650Y-8750D02*X401400Y-9500D01*
X200750Y148500D02*Y142500D01*
X202700Y148500D02*X203750Y147450D01*
Y143550D01*
X202700Y142500D02*X203750Y143550D01*
X200000Y142500D02*X202700D01*
X200000Y148500D02*X202700D01*
X207800Y145500D02*X208550Y144750D01*
X206300Y145500D02*X207800D01*
X205550Y144750D02*X206300Y145500D01*
X205550Y144750D02*Y143250D01*
X206300Y142500D01*
X208550Y145500D02*Y143250D01*
X209300Y142500D01*
X206300D02*X207800D01*
X208550Y143250D01*
X211850Y148500D02*Y143250D01*
X212600Y142500D01*
X211100Y146250D02*X212600D01*
X214850Y142500D02*X217100D01*
X214100Y143250D02*X214850Y142500D01*
X214100Y144750D02*Y143250D01*
Y144750D02*X214850Y145500D01*
X216350D01*
X217100Y144750D01*
X214100Y144000D02*X217100D01*
Y144750D02*Y144000D01*
X218900Y146250D02*X219650D01*
X218900Y144750D02*X219650D01*
X224150Y148500D02*X227150D01*
X225650D02*Y142500D01*
X228950Y148500D02*Y142500D01*
Y144750D02*X229700Y145500D01*
X231200D01*
X231950Y144750D01*
Y142500D01*
X233750Y145500D02*Y143250D01*
X234500Y142500D01*
X236000D01*
X236750Y143250D01*
Y145500D02*Y143250D01*
X241250Y147750D02*X242000Y148500D01*
X244250D01*
X245000Y147750D01*
Y146250D01*
X241250Y142500D02*X245000Y146250D01*
X241250Y142500D02*X245000D01*
X246800Y143250D02*X247550Y142500D01*
X246800Y147750D02*Y143250D01*
Y147750D02*X247550Y148500D01*
X249050D01*
X249800Y147750D01*
Y143250D01*
X249050Y142500D02*X249800Y143250D01*
X247550Y142500D02*X249050D01*
X246800Y144000D02*X249800Y147000D01*
X254300D02*Y142500D01*
Y147000D02*X255350Y148500D01*
X257000D01*
X258050Y147000D01*
Y142500D01*
X254300Y145500D02*X258050D01*
X259850D02*Y143250D01*
X260600Y142500D01*
X262100D01*
X262850Y143250D01*
Y145500D02*Y143250D01*
X266900Y145500D02*X267650Y144750D01*
X265400Y145500D02*X266900D01*
X264650Y144750D02*X265400Y145500D01*
X264650Y144750D02*Y143250D01*
X265400Y142500D01*
X266900D01*
X267650Y143250D01*
X264650Y141000D02*X265400Y140250D01*
X266900D01*
X267650Y141000D01*
Y145500D02*Y141000D01*
X272150Y147750D02*X272900Y148500D01*
X275150D01*
X275900Y147750D01*
Y146250D01*
X272150Y142500D02*X275900Y146250D01*
X272150Y142500D02*X275900D01*
X277700Y143250D02*X278450Y142500D01*
X277700Y147750D02*Y143250D01*
Y147750D02*X278450Y148500D01*
X279950D01*
X280700Y147750D01*
Y143250D01*
X279950Y142500D02*X280700Y143250D01*
X278450Y142500D02*X279950D01*
X277700Y144000D02*X280700Y147000D01*
X282500Y147750D02*X283250Y148500D01*
X285500D01*
X286250Y147750D01*
Y146250D01*
X282500Y142500D02*X286250Y146250D01*
X282500Y142500D02*X286250D01*
X288050Y143250D02*X288800Y142500D01*
X288050Y147750D02*Y143250D01*
Y147750D02*X288800Y148500D01*
X290300D01*
X291050Y147750D01*
Y143250D01*
X290300Y142500D02*X291050Y143250D01*
X288800Y142500D02*X290300D01*
X288050Y144000D02*X291050Y147000D01*
X295550Y143250D02*X296300Y142500D01*
X295550Y147750D02*Y143250D01*
Y147750D02*X296300Y148500D01*
X297800D01*
X298550Y147750D01*
Y143250D01*
X297800Y142500D02*X298550Y143250D01*
X296300Y142500D02*X297800D01*
X295550Y144000D02*X298550Y147000D01*
X300350Y147750D02*X301100Y148500D01*
X302600D01*
X303350Y147750D01*
X302600Y142500D02*X303350Y143250D01*
X301100Y142500D02*X302600D01*
X300350Y143250D02*X301100Y142500D01*
Y145800D02*X302600D01*
X303350Y147750D02*Y146550D01*
Y145050D02*Y143250D01*
Y145050D02*X302600Y145800D01*
X303350Y146550D02*X302600Y145800D01*
X305150Y146250D02*X305900D01*
X305150Y144750D02*X305900D01*
X307700Y143250D02*X308450Y142500D01*
X307700Y147750D02*Y143250D01*
Y147750D02*X308450Y148500D01*
X309950D01*
X310700Y147750D01*
Y143250D01*
X309950Y142500D02*X310700Y143250D01*
X308450Y142500D02*X309950D01*
X307700Y144000D02*X310700Y147000D01*
X312500Y143250D02*X313250Y142500D01*
X312500Y147750D02*Y143250D01*
Y147750D02*X313250Y148500D01*
X314750D01*
X315500Y147750D01*
Y143250D01*
X314750Y142500D02*X315500Y143250D01*
X313250Y142500D02*X314750D01*
X312500Y144000D02*X315500Y147000D01*
X317300Y146250D02*X318050D01*
X317300Y144750D02*X318050D01*
X319850Y147300D02*X321050Y148500D01*
Y142500D01*
X319850D02*X322100D01*
X326150Y148500D02*X326900Y147750D01*
X324650Y148500D02*X326150D01*
X323900Y147750D02*X324650Y148500D01*
X323900Y147750D02*Y143250D01*
X324650Y142500D01*
X326150Y145800D02*X326900Y145050D01*
X323900Y145800D02*X326150D01*
X324650Y142500D02*X326150D01*
X326900Y143250D01*
Y145050D02*Y143250D01*
X331400Y147000D02*Y142500D01*
Y147000D02*X332450Y148500D01*
X334100D01*
X335150Y147000D01*
Y142500D01*
X331400Y145500D02*X335150D01*
X336950Y148500D02*Y142500D01*
Y148500D02*X339200Y145500D01*
X341450Y148500D01*
Y142500D01*
X348950Y148500D02*X349700Y147750D01*
X346700Y148500D02*X348950D01*
X345950Y147750D02*X346700Y148500D01*
X345950Y147750D02*Y143250D01*
X346700Y142500D01*
X348950D01*
X349700Y143250D01*
Y144750D02*Y143250D01*
X348950Y145500D02*X349700Y144750D01*
X347450Y145500D02*X348950D01*
X351500Y148500D02*Y142500D01*
Y148500D02*X353750Y145500D01*
X356000Y148500D01*
Y142500D01*
X357800Y148500D02*X360800D01*
X359300D02*Y142500D01*
X365300Y148500D02*Y143250D01*
X366050Y142500D01*
X367550D01*
X368300Y143250D01*
Y148500D02*Y143250D01*
X370100Y148500D02*X373100D01*
X371600D02*Y142500D01*
X375950D02*X377900D01*
X374900Y143550D02*X375950Y142500D01*
X374900Y147450D02*Y143550D01*
Y147450D02*X375950Y148500D01*
X377900D01*
X200000Y162000D02*Y157500D01*
Y162000D02*X201050Y163500D01*
X202700D01*
X203750Y162000D01*
Y157500D01*
X200000Y160500D02*X203750D01*
X205550D02*Y158250D01*
X206300Y157500D01*
X207800D01*
X208550Y158250D01*
Y160500D02*Y158250D01*
X211100Y163500D02*Y158250D01*
X211850Y157500D01*
X210350Y161250D02*X211850D01*
X213350Y163500D02*Y157500D01*
Y159750D02*X214100Y160500D01*
X215600D01*
X216350Y159750D01*
Y157500D01*
X218150Y159750D02*Y158250D01*
Y159750D02*X218900Y160500D01*
X220400D01*
X221150Y159750D01*
Y158250D01*
X220400Y157500D02*X221150Y158250D01*
X218900Y157500D02*X220400D01*
X218150Y158250D02*X218900Y157500D01*
X223700Y159750D02*Y157500D01*
Y159750D02*X224450Y160500D01*
X225950D01*
X222950D02*X223700Y159750D01*
X227750Y161250D02*X228500D01*
X227750Y159750D02*X228500D01*
X233000Y163500D02*Y157500D01*
Y163500D02*X235250Y160500D01*
X237500Y163500D01*
Y157500D01*
G54D71*X239300Y162000D02*Y161850D01*
G54D70*Y159750D02*Y157500D01*
X241550Y160500D02*X243800D01*
X240800Y159750D02*X241550Y160500D01*
X240800Y159750D02*Y158250D01*
X241550Y157500D01*
X243800D01*
X245600Y163500D02*Y157500D01*
Y159750D02*X246350Y160500D01*
X247850D01*
X248600Y159750D01*
Y157500D01*
X252650Y160500D02*X253400Y159750D01*
X251150Y160500D02*X252650D01*
X250400Y159750D02*X251150Y160500D01*
X250400Y159750D02*Y158250D01*
X251150Y157500D01*
X253400Y160500D02*Y158250D01*
X254150Y157500D01*
X251150D02*X252650D01*
X253400Y158250D01*
X256700Y157500D02*X258950D01*
X255950Y158250D02*X256700Y157500D01*
X255950Y159750D02*Y158250D01*
Y159750D02*X256700Y160500D01*
X258200D01*
X258950Y159750D01*
X255950Y159000D02*X258950D01*
Y159750D02*Y159000D01*
X260750Y163500D02*Y158250D01*
X261500Y157500D01*
X266450Y163500D02*Y157500D01*
X265700Y163500D02*X268700D01*
X269450Y162750D01*
Y161250D01*
X268700Y160500D02*X269450Y161250D01*
X266450Y160500D02*X268700D01*
X272000Y157500D02*X274250D01*
X271250Y158250D02*X272000Y157500D01*
X271250Y159750D02*Y158250D01*
Y159750D02*X272000Y160500D01*
X273500D01*
X274250Y159750D01*
X271250Y159000D02*X274250D01*
Y159750D02*Y159000D01*
X276800Y163500D02*Y158250D01*
X277550Y157500D01*
X276050Y161250D02*X277550D01*
X279800Y157500D02*X282050D01*
X279050Y158250D02*X279800Y157500D01*
X279050Y159750D02*Y158250D01*
Y159750D02*X279800Y160500D01*
X281300D01*
X282050Y159750D01*
X279050Y159000D02*X282050D01*
Y159750D02*Y159000D01*
X284600Y159750D02*Y157500D01*
Y159750D02*X285350Y160500D01*
X286850D01*
X283850D02*X284600Y159750D01*
X289400Y157500D02*X291650D01*
X292400Y158250D01*
X291650Y159000D02*X292400Y158250D01*
X289400Y159000D02*X291650D01*
X288650Y159750D02*X289400Y159000D01*
X288650Y159750D02*X289400Y160500D01*
X291650D01*
X292400Y159750D01*
X288650Y158250D02*X289400Y157500D01*
X294950D02*X297200D01*
X294200Y158250D02*X294950Y157500D01*
X294200Y159750D02*Y158250D01*
Y159750D02*X294950Y160500D01*
X296450D01*
X297200Y159750D01*
X294200Y159000D02*X297200D01*
Y159750D02*Y159000D01*
X299750Y159750D02*Y157500D01*
Y159750D02*X300500Y160500D01*
X301250D01*
X302000Y159750D01*
Y157500D01*
X299000Y160500D02*X299750Y159750D01*
X200000Y178500D02*X203000D01*
X201500D02*Y172500D01*
G54D71*X204800Y177000D02*Y176850D01*
G54D70*Y174750D02*Y172500D01*
X207050Y178500D02*Y173250D01*
X207800Y172500D01*
X206300Y176250D02*X207800D01*
X209300Y178500D02*Y173250D01*
X210050Y172500D01*
X212300D02*X214550D01*
X211550Y173250D02*X212300Y172500D01*
X211550Y174750D02*Y173250D01*
Y174750D02*X212300Y175500D01*
X213800D01*
X214550Y174750D01*
X211550Y174000D02*X214550D01*
Y174750D02*Y174000D01*
X216350Y176250D02*X217100D01*
X216350Y174750D02*X217100D01*
X221600Y173250D02*X222350Y172500D01*
X221600Y177750D02*X222350Y178500D01*
X221600Y177750D02*Y173250D01*
X224150Y175500D02*Y173250D01*
X224900Y172500D01*
X226400D01*
X227150Y173250D01*
Y175500D02*Y173250D01*
X229700Y174750D02*Y172500D01*
Y174750D02*X230450Y175500D01*
X231200D01*
X231950Y174750D01*
Y172500D01*
X228950Y175500D02*X229700Y174750D01*
X233750Y178500D02*Y172500D01*
Y174750D02*X236000Y172500D01*
X233750Y174750D02*X235250Y176250D01*
X238550Y174750D02*Y172500D01*
Y174750D02*X239300Y175500D01*
X240050D01*
X240800Y174750D01*
Y172500D01*
X237800Y175500D02*X238550Y174750D01*
X242600D02*Y173250D01*
Y174750D02*X243350Y175500D01*
X244850D01*
X245600Y174750D01*
Y173250D01*
X244850Y172500D02*X245600Y173250D01*
X243350Y172500D02*X244850D01*
X242600Y173250D02*X243350Y172500D01*
X247400Y175500D02*Y173250D01*
X248150Y172500D01*
X248900D01*
X249650Y173250D01*
Y175500D02*Y173250D01*
X250400Y172500D01*
X251150D01*
X251900Y173250D01*
Y175500D02*Y173250D01*
X254450Y174750D02*Y172500D01*
Y174750D02*X255200Y175500D01*
X255950D01*
X256700Y174750D01*
Y172500D01*
X253700Y175500D02*X254450Y174750D01*
X258500Y178500D02*X259250Y177750D01*
Y173250D01*
X258500Y172500D02*X259250Y173250D01*
X263750Y175500D02*X266750D01*
X271250Y178500D02*Y172500D01*
Y178500D02*X274250D01*
X271250Y175800D02*X273500D01*
X278300Y175500D02*X279050Y174750D01*
X276800Y175500D02*X278300D01*
X276050Y174750D02*X276800Y175500D01*
X276050Y174750D02*Y173250D01*
X276800Y172500D01*
X279050Y175500D02*Y173250D01*
X279800Y172500D01*
X276800D02*X278300D01*
X279050Y173250D01*
X281600Y178500D02*Y172500D01*
Y173250D02*X282350Y172500D01*
X283850D01*
X284600Y173250D01*
Y174750D02*Y173250D01*
X283850Y175500D02*X284600Y174750D01*
X282350Y175500D02*X283850D01*
X281600Y174750D02*X282350Y175500D01*
X287150Y174750D02*Y172500D01*
Y174750D02*X287900Y175500D01*
X289400D01*
X286400D02*X287150Y174750D01*
G54D71*X291200Y177000D02*Y176850D01*
G54D70*Y174750D02*Y172500D01*
X293450Y175500D02*X295700D01*
X292700Y174750D02*X293450Y175500D01*
X292700Y174750D02*Y173250D01*
X293450Y172500D01*
X295700D01*
X299750Y175500D02*X300500Y174750D01*
X298250Y175500D02*X299750D01*
X297500Y174750D02*X298250Y175500D01*
X297500Y174750D02*Y173250D01*
X298250Y172500D01*
X300500Y175500D02*Y173250D01*
X301250Y172500D01*
X298250D02*X299750D01*
X300500Y173250D01*
X303800Y178500D02*Y173250D01*
X304550Y172500D01*
X303050Y176250D02*X304550D01*
G54D71*X306050Y177000D02*Y176850D01*
G54D70*Y174750D02*Y172500D01*
X307550Y174750D02*Y173250D01*
Y174750D02*X308300Y175500D01*
X309800D01*
X310550Y174750D01*
Y173250D01*
X309800Y172500D02*X310550Y173250D01*
X308300Y172500D02*X309800D01*
X307550Y173250D02*X308300Y172500D01*
X313100Y174750D02*Y172500D01*
Y174750D02*X313850Y175500D01*
X314600D01*
X315350Y174750D01*
Y172500D01*
X312350Y175500D02*X313100Y174750D01*
X320600Y178500D02*Y172500D01*
X322550Y178500D02*X323600Y177450D01*
Y173550D01*
X322550Y172500D02*X323600Y173550D01*
X319850Y172500D02*X322550D01*
X319850Y178500D02*X322550D01*
X326150Y174750D02*Y172500D01*
Y174750D02*X326900Y175500D01*
X328400D01*
X325400D02*X326150Y174750D01*
X332450Y175500D02*X333200Y174750D01*
X330950Y175500D02*X332450D01*
X330200Y174750D02*X330950Y175500D01*
X330200Y174750D02*Y173250D01*
X330950Y172500D01*
X333200Y175500D02*Y173250D01*
X333950Y172500D01*
X330950D02*X332450D01*
X333200Y173250D01*
X335750Y175500D02*Y173250D01*
X336500Y172500D01*
X337250D01*
X338000Y173250D01*
Y175500D02*Y173250D01*
X338750Y172500D01*
X339500D01*
X340250Y173250D01*
Y175500D02*Y173250D01*
G54D71*X342050Y177000D02*Y176850D01*
G54D70*Y174750D02*Y172500D01*
X344300Y174750D02*Y172500D01*
Y174750D02*X345050Y175500D01*
X345800D01*
X346550Y174750D01*
Y172500D01*
X343550Y175500D02*X344300Y174750D01*
X350600Y175500D02*X351350Y174750D01*
X349100Y175500D02*X350600D01*
X348350Y174750D02*X349100Y175500D01*
X348350Y174750D02*Y173250D01*
X349100Y172500D01*
X350600D01*
X351350Y173250D01*
X348350Y171000D02*X349100Y170250D01*
X350600D01*
X351350Y171000D01*
Y175500D02*Y171000D01*
M02*
