G04 start of page 3 for group 1 idx 1 *
G04 Title: (unknown), bottom *
G04 Creator: pcb 20140316 *
G04 CreationDate: Thu 20 Aug 2020 03:00:16 AM GMT UTC *
G04 For: railfan *
G04 Format: Gerber/RS-274X *
G04 PCB-Dimensions (mil): 2000.00 1200.00 *
G04 PCB-Coordinate-Origin: lower left *
%MOIN*%
%FSLAX25Y25*%
%LNBOTTOM*%
%ADD37C,0.1100*%
%ADD36C,0.1250*%
%ADD35C,0.1285*%
%ADD34C,0.0200*%
%ADD33C,0.0400*%
%ADD32C,0.1500*%
%ADD31C,0.1750*%
%ADD30C,0.2937*%
%ADD29C,0.0001*%
G54D29*G36*
X170004Y8191D02*X170272Y7753D01*
X171876Y5876D01*
X173753Y4272D01*
X175858Y2982D01*
X178138Y2038D01*
X178295Y2000D01*
X170004D01*
Y8191D01*
G37*
G36*
X177155Y62245D02*X177319Y61638D01*
X177435Y60988D01*
X177493Y60330D01*
Y59670D01*
X177435Y59012D01*
X177319Y58362D01*
X177155Y57755D01*
Y62245D01*
G37*
G36*
Y88445D02*X178138Y88038D01*
X180539Y87461D01*
X183000Y87268D01*
X185461Y87461D01*
X187862Y88038D01*
X190142Y88982D01*
X192247Y90272D01*
X194124Y91876D01*
X195728Y93753D01*
X197018Y95858D01*
X197962Y98138D01*
X198000Y98295D01*
Y21705D01*
X197962Y21862D01*
X197018Y24142D01*
X195728Y26247D01*
X194124Y28124D01*
X192247Y29728D01*
X190142Y31018D01*
X187862Y31962D01*
X185461Y32539D01*
X183000Y32732D01*
X180539Y32539D01*
X178138Y31962D01*
X177155Y31555D01*
Y55396D01*
X177530Y56039D01*
X177849Y56716D01*
X178107Y57419D01*
X178303Y58142D01*
X178434Y58879D01*
X178500Y59626D01*
Y60374D01*
X178434Y61121D01*
X178303Y61858D01*
X178107Y62581D01*
X177849Y63284D01*
X177530Y63961D01*
X177155Y64604D01*
Y88445D01*
G37*
G36*
X170004Y94191D02*X170272Y93753D01*
X171876Y91876D01*
X173753Y90272D01*
X175858Y88982D01*
X177155Y88445D01*
Y64604D01*
X177152Y64608D01*
X176719Y65219D01*
X176666Y65279D01*
X176604Y65328D01*
X176534Y65368D01*
X176460Y65396D01*
X176381Y65412D01*
X176302Y65416D01*
X176222Y65407D01*
X176145Y65386D01*
X176073Y65353D01*
X176006Y65309D01*
X175947Y65256D01*
X175897Y65193D01*
X175857Y65124D01*
X175829Y65049D01*
X175813Y64971D01*
X175809Y64891D01*
X175818Y64812D01*
X175839Y64735D01*
X175872Y64662D01*
X175917Y64596D01*
X176305Y64062D01*
X176638Y63492D01*
X176919Y62895D01*
X177147Y62275D01*
X177155Y62245D01*
Y57755D01*
X177147Y57725D01*
X176919Y57105D01*
X176638Y56508D01*
X176305Y55938D01*
X175923Y55399D01*
X175879Y55334D01*
X175846Y55263D01*
X175825Y55187D01*
X175817Y55109D01*
X175820Y55030D01*
X175836Y54953D01*
X175864Y54879D01*
X175903Y54811D01*
X175952Y54749D01*
X176010Y54696D01*
X176076Y54653D01*
X176148Y54621D01*
X176224Y54600D01*
X176302Y54591D01*
X176381Y54595D01*
X176458Y54611D01*
X176531Y54639D01*
X176600Y54678D01*
X176661Y54727D01*
X176713Y54786D01*
X177152Y55392D01*
X177155Y55396D01*
Y31555D01*
X175858Y31018D01*
X173753Y29728D01*
X171876Y28124D01*
X170272Y26247D01*
X170004Y25809D01*
Y51500D01*
X170374D01*
X171120Y51566D01*
X171858Y51697D01*
X172581Y51893D01*
X173284Y52151D01*
X173961Y52470D01*
X174608Y52848D01*
X175219Y53281D01*
X175279Y53334D01*
X175328Y53396D01*
X175368Y53466D01*
X175396Y53540D01*
X175412Y53619D01*
X175416Y53698D01*
X175407Y53778D01*
X175386Y53855D01*
X175353Y53927D01*
X175309Y53994D01*
X175256Y54053D01*
X175193Y54103D01*
X175124Y54143D01*
X175049Y54171D01*
X174971Y54187D01*
X174891Y54191D01*
X174812Y54182D01*
X174735Y54161D01*
X174662Y54128D01*
X174596Y54083D01*
X174062Y53695D01*
X173492Y53362D01*
X172895Y53081D01*
X172275Y52853D01*
X171638Y52681D01*
X170988Y52565D01*
X170330Y52507D01*
X170004D01*
Y67493D01*
X170330D01*
X170988Y67435D01*
X171638Y67319D01*
X172275Y67147D01*
X172895Y66919D01*
X173492Y66638D01*
X174062Y66305D01*
X174601Y65923D01*
X174666Y65879D01*
X174737Y65846D01*
X174813Y65825D01*
X174891Y65817D01*
X174970Y65820D01*
X175047Y65836D01*
X175121Y65864D01*
X175189Y65903D01*
X175251Y65952D01*
X175304Y66010D01*
X175347Y66076D01*
X175379Y66148D01*
X175400Y66224D01*
X175409Y66302D01*
X175405Y66381D01*
X175389Y66458D01*
X175361Y66531D01*
X175322Y66600D01*
X175273Y66661D01*
X175214Y66713D01*
X174608Y67152D01*
X173961Y67530D01*
X173284Y67849D01*
X172581Y68107D01*
X171858Y68303D01*
X171120Y68434D01*
X170374Y68500D01*
X170004D01*
Y94191D01*
G37*
G36*
Y118000D02*X178295D01*
X178138Y117962D01*
X175858Y117018D01*
X173753Y115728D01*
X171876Y114124D01*
X170272Y112247D01*
X170004Y111809D01*
Y118000D01*
G37*
G36*
X165155Y81245D02*X165319Y80638D01*
X165435Y79988D01*
X165493Y79330D01*
Y78670D01*
X165435Y78012D01*
X165319Y77362D01*
X165155Y76755D01*
Y81245D01*
G37*
G36*
Y53020D02*X165392Y52848D01*
X166039Y52470D01*
X166716Y52151D01*
X167419Y51893D01*
X168142Y51697D01*
X168879Y51566D01*
X169626Y51500D01*
X170004D01*
Y25809D01*
X168982Y24142D01*
X168038Y21862D01*
X167461Y19461D01*
X167268Y17000D01*
X167461Y14539D01*
X168038Y12138D01*
X168982Y9858D01*
X170004Y8191D01*
Y2000D01*
X165155D01*
Y53020D01*
G37*
G36*
Y65815D02*X165188Y65818D01*
X165265Y65839D01*
X165338Y65872D01*
X165404Y65917D01*
X165938Y66305D01*
X166508Y66638D01*
X167105Y66919D01*
X167725Y67147D01*
X168362Y67319D01*
X169012Y67435D01*
X169670Y67493D01*
X170004D01*
Y52507D01*
X169670D01*
X169012Y52565D01*
X168362Y52681D01*
X167725Y52853D01*
X167105Y53081D01*
X166508Y53362D01*
X165938Y53695D01*
X165399Y54077D01*
X165334Y54121D01*
X165263Y54154D01*
X165187Y54175D01*
X165155Y54178D01*
Y65815D01*
G37*
G36*
Y118000D02*X170004D01*
Y111809D01*
X168982Y110142D01*
X168038Y107862D01*
X167461Y105461D01*
X167268Y103000D01*
X167461Y100539D01*
X168038Y98138D01*
X168982Y95858D01*
X170004Y94191D01*
Y68500D01*
X169626D01*
X168879Y68434D01*
X168142Y68303D01*
X167419Y68107D01*
X166716Y67849D01*
X166039Y67530D01*
X165392Y67152D01*
X165155Y66984D01*
Y74396D01*
X165530Y75039D01*
X165849Y75716D01*
X166107Y76419D01*
X166303Y77142D01*
X166434Y77880D01*
X166500Y78626D01*
Y79374D01*
X166434Y80121D01*
X166303Y80858D01*
X166107Y81581D01*
X165849Y82284D01*
X165530Y82961D01*
X165155Y83604D01*
Y118000D01*
G37*
G36*
X162845D02*X165155D01*
Y83604D01*
X165152Y83608D01*
X164719Y84219D01*
X164666Y84279D01*
X164604Y84328D01*
X164534Y84368D01*
X164460Y84396D01*
X164381Y84412D01*
X164302Y84416D01*
X164222Y84407D01*
X164145Y84386D01*
X164073Y84353D01*
X164006Y84309D01*
X163947Y84256D01*
X163897Y84193D01*
X163857Y84124D01*
X163829Y84049D01*
X163813Y83971D01*
X163809Y83891D01*
X163818Y83812D01*
X163839Y83735D01*
X163872Y83662D01*
X163917Y83596D01*
X164305Y83062D01*
X164638Y82492D01*
X164919Y81895D01*
X165147Y81275D01*
X165155Y81245D01*
Y76755D01*
X165147Y76725D01*
X164919Y76105D01*
X164638Y75508D01*
X164305Y74938D01*
X163923Y74399D01*
X163879Y74334D01*
X163846Y74263D01*
X163825Y74187D01*
X163817Y74109D01*
X163820Y74030D01*
X163836Y73953D01*
X163864Y73879D01*
X163903Y73811D01*
X163952Y73749D01*
X164010Y73696D01*
X164076Y73653D01*
X164148Y73621D01*
X164224Y73600D01*
X164302Y73591D01*
X164381Y73595D01*
X164458Y73611D01*
X164531Y73639D01*
X164600Y73678D01*
X164661Y73727D01*
X164713Y73786D01*
X165152Y74392D01*
X165155Y74396D01*
Y66984D01*
X164781Y66719D01*
X164721Y66666D01*
X164672Y66604D01*
X164632Y66534D01*
X164604Y66460D01*
X164588Y66381D01*
X164584Y66302D01*
X164593Y66222D01*
X164614Y66145D01*
X164647Y66073D01*
X164691Y66006D01*
X164744Y65947D01*
X164807Y65897D01*
X164876Y65857D01*
X164951Y65829D01*
X165029Y65813D01*
X165109Y65809D01*
X165155Y65815D01*
Y54178D01*
X165109Y54183D01*
X165030Y54180D01*
X164953Y54164D01*
X164879Y54136D01*
X164811Y54097D01*
X164749Y54048D01*
X164696Y53990D01*
X164653Y53924D01*
X164621Y53852D01*
X164600Y53776D01*
X164591Y53698D01*
X164595Y53619D01*
X164611Y53542D01*
X164639Y53469D01*
X164678Y53400D01*
X164727Y53339D01*
X164786Y53287D01*
X165155Y53020D01*
Y2000D01*
X162845D01*
Y55396D01*
X162848Y55392D01*
X163281Y54781D01*
X163334Y54721D01*
X163396Y54672D01*
X163466Y54632D01*
X163540Y54604D01*
X163619Y54588D01*
X163698Y54584D01*
X163778Y54593D01*
X163855Y54614D01*
X163927Y54647D01*
X163994Y54691D01*
X164053Y54744D01*
X164103Y54807D01*
X164143Y54876D01*
X164171Y54951D01*
X164187Y55029D01*
X164191Y55109D01*
X164182Y55188D01*
X164161Y55265D01*
X164128Y55338D01*
X164083Y55404D01*
X163695Y55938D01*
X163362Y56508D01*
X163081Y57105D01*
X162853Y57725D01*
X162845Y57755D01*
Y62245D01*
X162853Y62275D01*
X163081Y62895D01*
X163362Y63492D01*
X163695Y64062D01*
X164077Y64601D01*
X164121Y64666D01*
X164154Y64737D01*
X164175Y64813D01*
X164183Y64891D01*
X164180Y64970D01*
X164164Y65047D01*
X164136Y65121D01*
X164097Y65189D01*
X164048Y65251D01*
X163990Y65304D01*
X163924Y65347D01*
X163852Y65379D01*
X163776Y65400D01*
X163698Y65409D01*
X163619Y65405D01*
X163542Y65389D01*
X163469Y65361D01*
X163400Y65322D01*
X163339Y65273D01*
X163287Y65214D01*
X162848Y64608D01*
X162845Y64604D01*
Y72016D01*
X163219Y72281D01*
X163279Y72334D01*
X163328Y72396D01*
X163368Y72466D01*
X163396Y72540D01*
X163412Y72619D01*
X163416Y72698D01*
X163407Y72778D01*
X163386Y72855D01*
X163353Y72927D01*
X163309Y72994D01*
X163256Y73053D01*
X163193Y73103D01*
X163124Y73143D01*
X163049Y73171D01*
X162971Y73187D01*
X162891Y73191D01*
X162845Y73186D01*
Y84822D01*
X162891Y84817D01*
X162970Y84820D01*
X163047Y84836D01*
X163121Y84864D01*
X163189Y84903D01*
X163251Y84952D01*
X163304Y85010D01*
X163347Y85076D01*
X163379Y85148D01*
X163400Y85224D01*
X163409Y85302D01*
X163405Y85381D01*
X163389Y85458D01*
X163361Y85531D01*
X163322Y85600D01*
X163273Y85661D01*
X163214Y85713D01*
X162845Y85980D01*
Y118000D01*
G37*
G36*
Y57755D02*X162681Y58362D01*
X162565Y59012D01*
X162507Y59670D01*
Y60330D01*
X162565Y60988D01*
X162681Y61638D01*
X162845Y62245D01*
Y57755D01*
G37*
G36*
X150845Y118000D02*X162845D01*
Y85980D01*
X162608Y86152D01*
X161961Y86530D01*
X161284Y86849D01*
X160581Y87107D01*
X159858Y87303D01*
X159120Y87434D01*
X158374Y87500D01*
X157626D01*
X156879Y87434D01*
X156142Y87303D01*
X155419Y87107D01*
X154716Y86849D01*
X154039Y86530D01*
X153392Y86152D01*
X152781Y85719D01*
X152721Y85666D01*
X152672Y85604D01*
X152632Y85534D01*
X152604Y85460D01*
X152588Y85381D01*
X152584Y85302D01*
X152593Y85222D01*
X152614Y85145D01*
X152647Y85073D01*
X152691Y85006D01*
X152744Y84947D01*
X152807Y84897D01*
X152876Y84857D01*
X152951Y84829D01*
X153029Y84813D01*
X153109Y84809D01*
X153188Y84818D01*
X153265Y84839D01*
X153338Y84872D01*
X153404Y84917D01*
X153938Y85305D01*
X154508Y85638D01*
X155105Y85919D01*
X155725Y86147D01*
X156362Y86319D01*
X157012Y86435D01*
X157670Y86493D01*
X158330D01*
X158988Y86435D01*
X159638Y86319D01*
X160275Y86147D01*
X160895Y85919D01*
X161492Y85638D01*
X162062Y85305D01*
X162601Y84923D01*
X162666Y84879D01*
X162737Y84846D01*
X162813Y84825D01*
X162845Y84822D01*
Y73186D01*
X162812Y73182D01*
X162735Y73161D01*
X162662Y73128D01*
X162596Y73083D01*
X162062Y72695D01*
X161492Y72362D01*
X160895Y72081D01*
X160275Y71853D01*
X159638Y71681D01*
X158988Y71565D01*
X158330Y71507D01*
X157670D01*
X157012Y71565D01*
X156362Y71681D01*
X155725Y71853D01*
X155105Y72081D01*
X154508Y72362D01*
X153938Y72695D01*
X153399Y73077D01*
X153334Y73121D01*
X153263Y73154D01*
X153187Y73175D01*
X153109Y73183D01*
X153030Y73180D01*
X152953Y73164D01*
X152879Y73136D01*
X152811Y73097D01*
X152749Y73048D01*
X152696Y72990D01*
X152653Y72924D01*
X152621Y72852D01*
X152600Y72776D01*
X152591Y72698D01*
X152595Y72619D01*
X152611Y72542D01*
X152639Y72469D01*
X152678Y72400D01*
X152727Y72339D01*
X152786Y72287D01*
X153392Y71848D01*
X154039Y71470D01*
X154716Y71151D01*
X155419Y70893D01*
X156142Y70697D01*
X156879Y70566D01*
X157626Y70500D01*
X158374D01*
X159120Y70566D01*
X159858Y70697D01*
X160581Y70893D01*
X161284Y71151D01*
X161961Y71470D01*
X162608Y71848D01*
X162845Y72016D01*
Y64604D01*
X162470Y63961D01*
X162151Y63284D01*
X161893Y62581D01*
X161697Y61858D01*
X161566Y61121D01*
X161500Y60374D01*
Y59626D01*
X161566Y58879D01*
X161697Y58142D01*
X161893Y57419D01*
X162151Y56716D01*
X162470Y56039D01*
X162845Y55396D01*
Y2000D01*
X150845D01*
Y51534D01*
X151749Y52088D01*
X152916Y53084D01*
X153912Y54251D01*
X154714Y55560D01*
X155301Y56978D01*
X155660Y58470D01*
X155750Y60000D01*
X155660Y61530D01*
X155301Y63022D01*
X154714Y64440D01*
X153912Y65749D01*
X152916Y66916D01*
X151749Y67912D01*
X150845Y68466D01*
Y74396D01*
X150848Y74392D01*
X151281Y73781D01*
X151334Y73721D01*
X151396Y73672D01*
X151466Y73632D01*
X151540Y73604D01*
X151619Y73588D01*
X151698Y73584D01*
X151778Y73593D01*
X151855Y73614D01*
X151927Y73647D01*
X151994Y73691D01*
X152053Y73744D01*
X152103Y73807D01*
X152143Y73876D01*
X152171Y73951D01*
X152187Y74029D01*
X152191Y74109D01*
X152182Y74188D01*
X152161Y74265D01*
X152128Y74338D01*
X152083Y74404D01*
X151695Y74938D01*
X151362Y75508D01*
X151081Y76105D01*
X150853Y76725D01*
X150845Y76755D01*
Y81245D01*
X150853Y81275D01*
X151081Y81895D01*
X151362Y82492D01*
X151695Y83062D01*
X152077Y83601D01*
X152121Y83666D01*
X152154Y83737D01*
X152175Y83813D01*
X152183Y83891D01*
X152180Y83970D01*
X152164Y84047D01*
X152136Y84121D01*
X152097Y84189D01*
X152048Y84251D01*
X151990Y84304D01*
X151924Y84347D01*
X151852Y84379D01*
X151776Y84400D01*
X151698Y84409D01*
X151619Y84405D01*
X151542Y84389D01*
X151469Y84361D01*
X151400Y84322D01*
X151339Y84273D01*
X151287Y84214D01*
X150848Y83608D01*
X150845Y83604D01*
Y118000D01*
G37*
G36*
Y76755D02*X150681Y77362D01*
X150565Y78012D01*
X150507Y78670D01*
Y79330D01*
X150565Y79988D01*
X150681Y80638D01*
X150845Y81245D01*
Y76755D01*
G37*
G36*
Y2000D02*X145985D01*
Y50221D01*
X146000Y50220D01*
X147530Y50340D01*
X149022Y50699D01*
X150440Y51286D01*
X150845Y51534D01*
Y2000D01*
G37*
G36*
X145985Y118000D02*X150845D01*
Y83604D01*
X150470Y82961D01*
X150151Y82284D01*
X149893Y81581D01*
X149697Y80858D01*
X149566Y80121D01*
X149500Y79374D01*
Y78626D01*
X149566Y77880D01*
X149697Y77142D01*
X149893Y76419D01*
X150151Y75716D01*
X150470Y75039D01*
X150845Y74396D01*
Y68466D01*
X150440Y68714D01*
X149022Y69301D01*
X147530Y69660D01*
X146000Y69780D01*
X145985Y69779D01*
Y118000D01*
G37*
G36*
X21705D02*X145985D01*
Y69779D01*
X144470Y69660D01*
X142978Y69301D01*
X141560Y68714D01*
X140251Y67912D01*
X139084Y66916D01*
X138088Y65749D01*
X137286Y64440D01*
X136699Y63022D01*
X136340Y61530D01*
X136220Y60000D01*
X136340Y58470D01*
X136699Y56978D01*
X137286Y55560D01*
X138088Y54251D01*
X139084Y53084D01*
X140251Y52088D01*
X141560Y51286D01*
X142978Y50699D01*
X144470Y50340D01*
X145985Y50221D01*
Y2000D01*
X21705D01*
X21862Y2038D01*
X24142Y2982D01*
X26247Y4272D01*
X28124Y5876D01*
X29728Y7753D01*
X31018Y9858D01*
X31962Y12138D01*
X32539Y14539D01*
X32684Y17000D01*
X32539Y19461D01*
X31962Y21862D01*
X31018Y24142D01*
X29728Y26247D01*
X28124Y28124D01*
X26247Y29728D01*
X24142Y31018D01*
X21862Y31962D01*
X19461Y32539D01*
X17000Y32732D01*
X14539Y32539D01*
X12138Y31962D01*
X9858Y31018D01*
X7753Y29728D01*
X5876Y28124D01*
X4272Y26247D01*
X2982Y24142D01*
X2038Y21862D01*
X2000Y21705D01*
Y98295D01*
X2038Y98138D01*
X2982Y95858D01*
X4272Y93753D01*
X5876Y91876D01*
X7753Y90272D01*
X9858Y88982D01*
X12138Y88038D01*
X14539Y87461D01*
X17000Y87268D01*
X19461Y87461D01*
X21862Y88038D01*
X24142Y88982D01*
X26247Y90272D01*
X28124Y91876D01*
X29728Y93753D01*
X31018Y95858D01*
X31962Y98138D01*
X32539Y100539D01*
X32684Y103000D01*
X32539Y105461D01*
X31962Y107862D01*
X31018Y110142D01*
X29728Y112247D01*
X28124Y114124D01*
X26247Y115728D01*
X24142Y117018D01*
X21862Y117962D01*
X21705Y118000D01*
G37*
G54D30*X183000Y17000D03*
Y103000D03*
G54D31*X146000Y60000D03*
G54D32*X170000D03*
X158000Y79000D03*
G54D30*X17000Y103000D03*
Y17000D03*
G54D33*X26500Y65906D03*
X145000Y109500D03*
X130000D03*
X110900Y30000D03*
Y90000D03*
G54D34*G54D35*G54D36*G54D37*G54D35*M02*
