G04 start of page 8 for group -4079 idx -4079 *
G04 Title: (unknown), topsilk *
G04 Creator: pcb 20140316 *
G04 CreationDate: Thu 20 Aug 2020 03:00:16 AM GMT UTC *
G04 For: railfan *
G04 Format: Gerber/RS-274X *
G04 PCB-Dimensions (mil): 2000.00 1200.00 *
G04 PCB-Coordinate-Origin: lower left *
%MOIN*%
%FSLAX25Y25*%
%LNTOPSILK*%
%ADD59C,0.0080*%
%ADD58C,0.0100*%
G54D58*X80543Y70000D02*X82543D01*
X81543Y71000D02*Y69000D01*
X80543Y50000D02*X82543D01*
X81543Y51000D02*Y49000D01*
G54D59*X55500Y99660D02*X56280Y98100D01*
X57060Y99660D02*X56280Y98100D01*
X57996Y99270D02*X59556Y101220D01*
X57996Y99270D02*X59946D01*
X59556Y101220D02*Y98100D01*
X44000Y108220D02*X45560D01*
X44780D02*Y105100D01*
X46496Y106816D02*X47666D01*
X46496Y105100D02*X48056D01*
X46496Y108220D02*Y105100D01*
Y108220D02*X48056D01*
X50552D02*X50942Y107830D01*
X49382Y108220D02*X50552D01*
X48992Y107830D02*X49382Y108220D01*
X48992Y107830D02*Y107050D01*
X49382Y106660D01*
X50552D01*
X50942Y106270D01*
Y105490D01*
X50552Y105100D02*X50942Y105490D01*
X49382Y105100D02*X50552D01*
X48992Y105490D02*X49382Y105100D01*
X51878Y108220D02*X53438D01*
X52658D02*Y105100D01*
X54374Y106660D02*X55934D01*
X56870Y108220D02*X57650D01*
X57260D02*Y105100D01*
X56870D02*X57650D01*
X58586Y108220D02*X60146D01*
X60536Y107830D01*
Y107050D01*
X60146Y106660D02*X60536Y107050D01*
X58976Y106660D02*X60146D01*
X58976Y108220D02*Y105100D01*
X59600Y106660D02*X60536Y105100D01*
X63032Y108220D02*X63422Y107830D01*
X61862Y108220D02*X63032D01*
X61472Y107830D02*X61862Y108220D01*
X61472Y107830D02*Y107050D01*
X61862Y106660D01*
X63032D01*
X63422Y106270D01*
Y105490D01*
X63032Y105100D02*X63422Y105490D01*
X61862Y105100D02*X63032D01*
X61472Y105490D02*X61862Y105100D01*
X64358Y106816D02*X65528D01*
X64358Y105100D02*X65918D01*
X64358Y108220D02*Y105100D01*
Y108220D02*X65918D01*
X66854D02*Y105100D01*
Y108220D02*X68804Y105100D01*
Y108220D02*Y105100D01*
X71300Y108220D02*X71690Y107830D01*
X70130Y108220D02*X71300D01*
X69740Y107830D02*X70130Y108220D01*
X69740Y107830D02*Y107050D01*
X70130Y106660D01*
X71300D01*
X71690Y106270D01*
Y105490D01*
X71300Y105100D02*X71690Y105490D01*
X70130Y105100D02*X71300D01*
X69740Y105490D02*X70130Y105100D01*
X72626Y106816D02*X73796D01*
X72626Y105100D02*X74186D01*
X72626Y108220D02*Y105100D01*
Y108220D02*X74186D01*
G54D58*X170000Y77000D02*X199500D01*
Y43000D01*
X143500D02*X199500D01*
X143500Y48000D02*Y43000D01*
Y77000D02*X147500D01*
X143500D02*Y72000D01*
X199500Y77000D02*Y43000D01*
X199000Y77000D02*Y43000D01*
X198500Y77000D02*Y43000D01*
X198000Y77000D02*Y43000D01*
X197500Y77000D02*Y43000D01*
X197000Y77000D02*Y43000D01*
X196500Y77000D02*Y43000D01*
X196000Y77000D02*Y43000D01*
X186500Y77000D02*Y43000D01*
X187000Y77000D02*Y43000D01*
X187500Y77000D02*Y43000D01*
X188000Y77000D02*Y43000D01*
X188500Y77000D02*Y43000D01*
X189000Y77000D02*Y43000D01*
X189500Y77000D02*Y43000D01*
X190000Y77000D02*Y43000D01*
X149245Y98393D02*Y97607D01*
X154755Y98393D02*Y97607D01*
X50150Y67245D02*X50936D01*
X50150Y72755D02*X50936D01*
X71650Y67245D02*X72436D01*
X71650Y72755D02*X72436D01*
X50150Y47245D02*X50936D01*
X50150Y52755D02*X50936D01*
X71650Y47245D02*X72436D01*
X71650Y52755D02*X72436D01*
X90200Y41800D02*Y18200D01*
X113800Y41800D02*Y18200D01*
X90200Y41800D02*X113800D01*
X90200Y18200D02*X113800D01*
X93150Y40325D02*Y19675D01*
X110850Y40325D02*Y19675D01*
Y38850D02*X104950D01*
X93150D02*X99050D01*
X104950Y40325D02*X99050Y38850D01*
X95100Y30000D02*G75*G03X95100Y30000I6900J0D01*G01*
G75*G03X108900Y30000I6900J0D01*G01*
X128250Y106150D02*Y95520D01*
X146750Y106150D02*Y95520D01*
X128250Y106150D02*X131500D01*
X146750D02*X143500D01*
X128250Y95520D02*X128429D01*
X146571D02*X146750D01*
X120245Y98393D02*Y97607D01*
X125755Y98393D02*Y97607D01*
X90200Y101800D02*Y78200D01*
X113800Y101800D02*Y78200D01*
X90200Y101800D02*X113800D01*
X90200Y78200D02*X113800D01*
X93150Y100325D02*Y79675D01*
X110850Y100325D02*Y79675D01*
Y98850D02*X104950D01*
X93150D02*X99050D01*
X104950Y100325D02*X99050Y98850D01*
X95100Y90000D02*G75*G03X95100Y90000I6900J0D01*G01*
G75*G03X108900Y90000I6900J0D01*G01*
G54D59*X83500Y27000D02*X84000Y27500D01*
X83500Y27000D02*Y25500D01*
X84000Y25000D02*X83500Y25500D01*
X84000Y25000D02*X85000D01*
X85500Y25500D01*
Y27000D02*Y25500D01*
Y27000D02*X86000Y27500D01*
X87000D01*
X87500Y27000D02*X87000Y27500D01*
X87500Y27000D02*Y25500D01*
X87000Y25000D02*X87500Y25500D01*
X83500Y28700D02*X85500D01*
X87500Y29200D01*
X85500Y30200D01*
X87500Y31200D01*
X85500Y31700D01*
X83500D02*X85500D01*
X84300Y32900D02*X83500Y33700D01*
X87500D01*
Y34400D02*Y32900D01*
X83500Y87000D02*X84000Y87500D01*
X83500Y87000D02*Y85500D01*
X84000Y85000D02*X83500Y85500D01*
X84000Y85000D02*X85000D01*
X85500Y85500D01*
Y87000D02*Y85500D01*
Y87000D02*X86000Y87500D01*
X87000D01*
X87500Y87000D02*X87000Y87500D01*
X87500Y87000D02*Y85500D01*
X87000Y85000D02*X87500Y85500D01*
X83500Y88700D02*X85500D01*
X87500Y89200D01*
X85500Y90200D01*
X87500Y91200D01*
X85500Y91700D01*
X83500D02*X85500D01*
X84000Y92900D02*X83500Y93400D01*
Y94900D02*Y93400D01*
Y94900D02*X84000Y95400D01*
X85000D01*
X87500Y92900D02*X85000Y95400D01*
X87500D02*Y92900D01*
M02*
