G04 start of page 6 for group -4063 idx -4063 *
G04 Title: (unknown), componentmask *
G04 Creator: pcb 4.0.2 *
G04 CreationDate: Thu Oct 28 15:19:50 2021 UTC *
G04 For: ndholmes *
G04 Format: Gerber/RS-274X *
G04 PCB-Dimensions (mil): 4900.00 1150.00 *
G04 PCB-Coordinate-Origin: lower left *
%MOIN*%
%FSLAX25Y25*%
%LNTOPMASK*%
%ADD24C,0.0001*%
%ADD23C,0.0787*%
G54D23*X16000Y99000D03*
X466000Y22500D03*
Y92500D03*
G54D24*G36*
X185054Y91226D02*Y87790D01*
X188490D01*
Y91226D01*
X185054D01*
G37*
G36*
Y97210D02*Y93774D01*
X188490D01*
Y97210D01*
X185054D01*
G37*
G36*
X188874Y91226D02*Y87790D01*
X192308D01*
Y91226D01*
X188874D01*
G37*
G36*
X192692D02*Y87790D01*
X196126D01*
Y91226D01*
X192692D01*
G37*
G36*
Y97210D02*Y93774D01*
X196126D01*
Y97210D01*
X192692D01*
G37*
G36*
X188874D02*Y93774D01*
X192308D01*
Y97210D01*
X188874D01*
G37*
G36*
X196510Y91226D02*Y87790D01*
X199946D01*
Y91226D01*
X196510D01*
G37*
G36*
Y97210D02*Y93774D01*
X199946D01*
Y97210D01*
X196510D01*
G37*
G36*
X220054Y91226D02*Y87790D01*
X223490D01*
Y91226D01*
X220054D01*
G37*
G36*
X223874D02*Y87790D01*
X227308D01*
Y91226D01*
X223874D01*
G37*
G36*
X220054Y97210D02*Y93774D01*
X223490D01*
Y97210D01*
X220054D01*
G37*
G36*
X227692Y91226D02*Y87790D01*
X231126D01*
Y91226D01*
X227692D01*
G37*
G36*
X231510D02*Y87790D01*
X234946D01*
Y91226D01*
X231510D01*
G37*
G36*
X223874Y97210D02*Y93774D01*
X227308D01*
Y97210D01*
X223874D01*
G37*
G36*
X231510D02*Y93774D01*
X234946D01*
Y97210D01*
X231510D01*
G37*
G36*
X227692D02*Y93774D01*
X231126D01*
Y97210D01*
X227692D01*
G37*
G36*
X255054Y91226D02*Y87790D01*
X258490D01*
Y91226D01*
X255054D01*
G37*
G36*
Y97210D02*Y93774D01*
X258490D01*
Y97210D01*
X255054D01*
G37*
G36*
X258874Y91226D02*Y87790D01*
X262308D01*
Y91226D01*
X258874D01*
G37*
G36*
X262692D02*Y87790D01*
X266126D01*
Y91226D01*
X262692D01*
G37*
G36*
Y97210D02*Y93774D01*
X266126D01*
Y97210D01*
X262692D01*
G37*
G36*
X258874D02*Y93774D01*
X262308D01*
Y97210D01*
X258874D01*
G37*
G36*
X266510Y91226D02*Y87790D01*
X269946D01*
Y91226D01*
X266510D01*
G37*
G36*
Y97210D02*Y93774D01*
X269946D01*
Y97210D01*
X266510D01*
G37*
G36*
X290054Y91226D02*Y87790D01*
X293490D01*
Y91226D01*
X290054D01*
G37*
G36*
X293874D02*Y87790D01*
X297308D01*
Y91226D01*
X293874D01*
G37*
G36*
X290054Y97210D02*Y93774D01*
X293490D01*
Y97210D01*
X290054D01*
G37*
G36*
X297692Y91226D02*Y87790D01*
X301126D01*
Y91226D01*
X297692D01*
G37*
G36*
X301510D02*Y87790D01*
X304946D01*
Y91226D01*
X301510D01*
G37*
G36*
X293874Y97210D02*Y93774D01*
X297308D01*
Y97210D01*
X293874D01*
G37*
G36*
X301510D02*Y93774D01*
X304946D01*
Y97210D01*
X301510D01*
G37*
G36*
X297692D02*Y93774D01*
X301126D01*
Y97210D01*
X297692D01*
G37*
G36*
X325054Y91226D02*Y87790D01*
X328490D01*
Y91226D01*
X325054D01*
G37*
G36*
Y97210D02*Y93774D01*
X328490D01*
Y97210D01*
X325054D01*
G37*
G36*
X328874Y91226D02*Y87790D01*
X332308D01*
Y91226D01*
X328874D01*
G37*
G36*
X332692D02*Y87790D01*
X336126D01*
Y91226D01*
X332692D01*
G37*
G36*
Y97210D02*Y93774D01*
X336126D01*
Y97210D01*
X332692D01*
G37*
G36*
X328874D02*Y93774D01*
X332308D01*
Y97210D01*
X328874D01*
G37*
G36*
X336510Y91226D02*Y87790D01*
X339946D01*
Y91226D01*
X336510D01*
G37*
G36*
Y97210D02*Y93774D01*
X339946D01*
Y97210D01*
X336510D01*
G37*
G36*
X360054Y91226D02*Y87790D01*
X363490D01*
Y91226D01*
X360054D01*
G37*
G36*
X363874D02*Y87790D01*
X367308D01*
Y91226D01*
X363874D01*
G37*
G36*
X360054Y97210D02*Y93774D01*
X363490D01*
Y97210D01*
X360054D01*
G37*
G36*
X367692Y91226D02*Y87790D01*
X371126D01*
Y91226D01*
X367692D01*
G37*
G36*
X371510D02*Y87790D01*
X374946D01*
Y91226D01*
X371510D01*
G37*
G36*
X363874Y97210D02*Y93774D01*
X367308D01*
Y97210D01*
X363874D01*
G37*
G36*
X371510D02*Y93774D01*
X374946D01*
Y97210D01*
X371510D01*
G37*
G36*
X367692D02*Y93774D01*
X371126D01*
Y97210D01*
X367692D01*
G37*
G36*
X395054Y91226D02*Y87790D01*
X398490D01*
Y91226D01*
X395054D01*
G37*
G36*
Y97210D02*Y93774D01*
X398490D01*
Y97210D01*
X395054D01*
G37*
G36*
X398874Y91226D02*Y87790D01*
X402308D01*
Y91226D01*
X398874D01*
G37*
G36*
X402692D02*Y87790D01*
X406126D01*
Y91226D01*
X402692D01*
G37*
G36*
Y97210D02*Y93774D01*
X406126D01*
Y97210D01*
X402692D01*
G37*
G36*
X398874D02*Y93774D01*
X402308D01*
Y97210D01*
X398874D01*
G37*
G36*
X406510Y91226D02*Y87790D01*
X409946D01*
Y91226D01*
X406510D01*
G37*
G36*
Y97210D02*Y93774D01*
X409946D01*
Y97210D01*
X406510D01*
G37*
G36*
X430054Y91226D02*Y87790D01*
X433490D01*
Y91226D01*
X430054D01*
G37*
G36*
X433873D02*Y87790D01*
X437308D01*
Y91226D01*
X433873D01*
G37*
G36*
X430054Y97210D02*Y93774D01*
X433490D01*
Y97210D01*
X430054D01*
G37*
G36*
X437692Y91226D02*Y87790D01*
X441127D01*
Y91226D01*
X437692D01*
G37*
G36*
X441510D02*Y87790D01*
X444946D01*
Y91226D01*
X441510D01*
G37*
G36*
X433873Y97210D02*Y93774D01*
X437308D01*
Y97210D01*
X433873D01*
G37*
G36*
X441510D02*Y93774D01*
X444946D01*
Y97210D01*
X441510D01*
G37*
G36*
X437692D02*Y93774D01*
X441127D01*
Y97210D01*
X437692D01*
G37*
G36*
X115054Y91226D02*Y87790D01*
X118490D01*
Y91226D01*
X115054D01*
G37*
G36*
Y97210D02*Y93774D01*
X118490D01*
Y97210D01*
X115054D01*
G37*
G36*
X118873Y91226D02*Y87790D01*
X122308D01*
Y91226D01*
X118873D01*
G37*
G36*
X122692D02*Y87790D01*
X126127D01*
Y91226D01*
X122692D01*
G37*
G36*
Y97210D02*Y93774D01*
X126127D01*
Y97210D01*
X122692D01*
G37*
G36*
X118873D02*Y93774D01*
X122308D01*
Y97210D01*
X118873D01*
G37*
G36*
X126510Y91226D02*Y87790D01*
X129946D01*
Y91226D01*
X126510D01*
G37*
G36*
Y97210D02*Y93774D01*
X129946D01*
Y97210D01*
X126510D01*
G37*
G36*
X150054Y91226D02*Y87790D01*
X153490D01*
Y91226D01*
X150054D01*
G37*
G36*
X153874D02*Y87790D01*
X157308D01*
Y91226D01*
X153874D01*
G37*
G36*
X150054Y97210D02*Y93774D01*
X153490D01*
Y97210D01*
X150054D01*
G37*
G36*
X157692Y91226D02*Y87790D01*
X161126D01*
Y91226D01*
X157692D01*
G37*
G36*
X161510D02*Y87790D01*
X164946D01*
Y91226D01*
X161510D01*
G37*
G36*
X153874Y97210D02*Y93774D01*
X157308D01*
Y97210D01*
X153874D01*
G37*
G36*
X161510D02*Y93774D01*
X164946D01*
Y97210D01*
X161510D01*
G37*
G36*
X157692D02*Y93774D01*
X161126D01*
Y97210D01*
X157692D01*
G37*
G36*
X45054D02*Y93774D01*
X48490D01*
Y97210D01*
X45054D01*
G37*
G36*
X56510D02*Y93774D01*
X59946D01*
Y97210D01*
X56510D01*
G37*
G36*
X52692D02*Y93774D01*
X56126D01*
Y97210D01*
X52692D01*
G37*
G36*
Y91226D02*Y87790D01*
X56126D01*
Y91226D01*
X52692D01*
G37*
G36*
X56510D02*Y87790D01*
X59946D01*
Y91226D01*
X56510D01*
G37*
G36*
X48874Y97210D02*Y93774D01*
X52308D01*
Y97210D01*
X48874D01*
G37*
G36*
X45054Y91226D02*Y87790D01*
X48490D01*
Y91226D01*
X45054D01*
G37*
G36*
X48874D02*Y87790D01*
X52308D01*
Y91226D01*
X48874D01*
G37*
G36*
X45054Y56226D02*Y52790D01*
X48490D01*
Y56226D01*
X45054D01*
G37*
G36*
X48874D02*Y52790D01*
X52308D01*
Y56226D01*
X48874D01*
G37*
G36*
X45054Y62210D02*Y58774D01*
X48490D01*
Y62210D01*
X45054D01*
G37*
G36*
X52692Y56226D02*Y52790D01*
X56126D01*
Y56226D01*
X52692D01*
G37*
G36*
X56510D02*Y52790D01*
X59946D01*
Y56226D01*
X56510D01*
G37*
G36*
X48874Y62210D02*Y58774D01*
X52308D01*
Y62210D01*
X48874D01*
G37*
G36*
X56510D02*Y58774D01*
X59946D01*
Y62210D01*
X56510D01*
G37*
G36*
X52692D02*Y58774D01*
X56126D01*
Y62210D01*
X52692D01*
G37*
G36*
X45054Y21226D02*Y17790D01*
X48490D01*
Y21226D01*
X45054D01*
G37*
G36*
Y27210D02*Y23774D01*
X48490D01*
Y27210D01*
X45054D01*
G37*
G36*
X48874Y21226D02*Y17790D01*
X52308D01*
Y21226D01*
X48874D01*
G37*
G36*
Y27210D02*Y23774D01*
X52308D01*
Y27210D01*
X48874D01*
G37*
G36*
X52692Y21226D02*Y17790D01*
X56126D01*
Y21226D01*
X52692D01*
G37*
G36*
X56510D02*Y17790D01*
X59946D01*
Y21226D01*
X56510D01*
G37*
G36*
Y27210D02*Y23774D01*
X59946D01*
Y27210D01*
X56510D01*
G37*
G36*
X52692D02*Y23774D01*
X56126D01*
Y27210D01*
X52692D01*
G37*
G36*
X80054Y91226D02*Y87790D01*
X83490D01*
Y91226D01*
X80054D01*
G37*
G36*
X83874D02*Y87790D01*
X87308D01*
Y91226D01*
X83874D01*
G37*
G36*
X80054Y97210D02*Y93774D01*
X83490D01*
Y97210D01*
X80054D01*
G37*
G36*
X87692Y91226D02*Y87790D01*
X91126D01*
Y91226D01*
X87692D01*
G37*
G36*
X91510D02*Y87790D01*
X94946D01*
Y91226D01*
X91510D01*
G37*
G36*
X83874Y97210D02*Y93774D01*
X87308D01*
Y97210D01*
X83874D01*
G37*
G36*
X91510D02*Y93774D01*
X94946D01*
Y97210D01*
X91510D01*
G37*
G36*
X87692D02*Y93774D01*
X91126D01*
Y97210D01*
X87692D01*
G37*
G36*
X80054Y56226D02*Y52790D01*
X83490D01*
Y56226D01*
X80054D01*
G37*
G36*
Y62210D02*Y58774D01*
X83490D01*
Y62210D01*
X80054D01*
G37*
G36*
X83874Y56226D02*Y52790D01*
X87308D01*
Y56226D01*
X83874D01*
G37*
G36*
X87692D02*Y52790D01*
X91126D01*
Y56226D01*
X87692D01*
G37*
G36*
Y62210D02*Y58774D01*
X91126D01*
Y62210D01*
X87692D01*
G37*
G36*
X83874D02*Y58774D01*
X87308D01*
Y62210D01*
X83874D01*
G37*
G36*
X91510Y56226D02*Y52790D01*
X94946D01*
Y56226D01*
X91510D01*
G37*
G36*
Y62210D02*Y58774D01*
X94946D01*
Y62210D01*
X91510D01*
G37*
G36*
X80054Y21226D02*Y17790D01*
X83490D01*
Y21226D01*
X80054D01*
G37*
G36*
X83874D02*Y17790D01*
X87308D01*
Y21226D01*
X83874D01*
G37*
G36*
X80054Y27210D02*Y23774D01*
X83490D01*
Y27210D01*
X80054D01*
G37*
G36*
X87692Y21226D02*Y17790D01*
X91126D01*
Y21226D01*
X87692D01*
G37*
G36*
X91510D02*Y17790D01*
X94946D01*
Y21226D01*
X91510D01*
G37*
G36*
X83874Y27210D02*Y23774D01*
X87308D01*
Y27210D01*
X83874D01*
G37*
G36*
X91510D02*Y23774D01*
X94946D01*
Y27210D01*
X91510D01*
G37*
G36*
X87692D02*Y23774D01*
X91126D01*
Y27210D01*
X87692D01*
G37*
G36*
X115054Y56226D02*Y52790D01*
X118490D01*
Y56226D01*
X115054D01*
G37*
G36*
X118873D02*Y52790D01*
X122308D01*
Y56226D01*
X118873D01*
G37*
G36*
X115054Y62210D02*Y58774D01*
X118490D01*
Y62210D01*
X115054D01*
G37*
G36*
X122692Y56226D02*Y52790D01*
X126127D01*
Y56226D01*
X122692D01*
G37*
G36*
X126510D02*Y52790D01*
X129946D01*
Y56226D01*
X126510D01*
G37*
G36*
X118873Y62210D02*Y58774D01*
X122308D01*
Y62210D01*
X118873D01*
G37*
G36*
X126510D02*Y58774D01*
X129946D01*
Y62210D01*
X126510D01*
G37*
G36*
X122692D02*Y58774D01*
X126127D01*
Y62210D01*
X122692D01*
G37*
G36*
X115054Y21226D02*Y17790D01*
X118490D01*
Y21226D01*
X115054D01*
G37*
G36*
Y27210D02*Y23774D01*
X118490D01*
Y27210D01*
X115054D01*
G37*
G36*
X118873Y21226D02*Y17790D01*
X122308D01*
Y21226D01*
X118873D01*
G37*
G36*
Y27210D02*Y23774D01*
X122308D01*
Y27210D01*
X118873D01*
G37*
G36*
X122692Y21226D02*Y17790D01*
X126127D01*
Y21226D01*
X122692D01*
G37*
G36*
X126510D02*Y17790D01*
X129946D01*
Y21226D01*
X126510D01*
G37*
G36*
Y27210D02*Y23774D01*
X129946D01*
Y27210D01*
X126510D01*
G37*
G36*
X122692D02*Y23774D01*
X126127D01*
Y27210D01*
X122692D01*
G37*
G36*
X150054Y56226D02*Y52790D01*
X153490D01*
Y56226D01*
X150054D01*
G37*
G36*
Y62210D02*Y58774D01*
X153490D01*
Y62210D01*
X150054D01*
G37*
G36*
X153874Y56226D02*Y52790D01*
X157308D01*
Y56226D01*
X153874D01*
G37*
G36*
X157692D02*Y52790D01*
X161126D01*
Y56226D01*
X157692D01*
G37*
G36*
Y62210D02*Y58774D01*
X161126D01*
Y62210D01*
X157692D01*
G37*
G36*
X153874D02*Y58774D01*
X157308D01*
Y62210D01*
X153874D01*
G37*
G36*
X161510Y56226D02*Y52790D01*
X164946D01*
Y56226D01*
X161510D01*
G37*
G36*
Y62210D02*Y58774D01*
X164946D01*
Y62210D01*
X161510D01*
G37*
G36*
X150054Y21226D02*Y17790D01*
X153490D01*
Y21226D01*
X150054D01*
G37*
G36*
X153874D02*Y17790D01*
X157308D01*
Y21226D01*
X153874D01*
G37*
G36*
X150054Y27210D02*Y23774D01*
X153490D01*
Y27210D01*
X150054D01*
G37*
G36*
X157692Y21226D02*Y17790D01*
X161126D01*
Y21226D01*
X157692D01*
G37*
G36*
X161510D02*Y17790D01*
X164946D01*
Y21226D01*
X161510D01*
G37*
G36*
X153874Y27210D02*Y23774D01*
X157308D01*
Y27210D01*
X153874D01*
G37*
G36*
X161510D02*Y23774D01*
X164946D01*
Y27210D01*
X161510D01*
G37*
G36*
X157692D02*Y23774D01*
X161126D01*
Y27210D01*
X157692D01*
G37*
G36*
X185054Y21226D02*Y17790D01*
X188490D01*
Y21226D01*
X185054D01*
G37*
G36*
Y27210D02*Y23774D01*
X188490D01*
Y27210D01*
X185054D01*
G37*
G36*
X188874Y21226D02*Y17790D01*
X192308D01*
Y21226D01*
X188874D01*
G37*
G36*
X192692D02*Y17790D01*
X196126D01*
Y21226D01*
X192692D01*
G37*
G36*
Y27210D02*Y23774D01*
X196126D01*
Y27210D01*
X192692D01*
G37*
G36*
X188874D02*Y23774D01*
X192308D01*
Y27210D01*
X188874D01*
G37*
G36*
X196510Y21226D02*Y17790D01*
X199946D01*
Y21226D01*
X196510D01*
G37*
G36*
Y27210D02*Y23774D01*
X199946D01*
Y27210D01*
X196510D01*
G37*
G36*
X185054Y56226D02*Y52790D01*
X188490D01*
Y56226D01*
X185054D01*
G37*
G36*
X188874D02*Y52790D01*
X192308D01*
Y56226D01*
X188874D01*
G37*
G36*
X185054Y62210D02*Y58774D01*
X188490D01*
Y62210D01*
X185054D01*
G37*
G36*
X192692Y56226D02*Y52790D01*
X196126D01*
Y56226D01*
X192692D01*
G37*
G36*
X196510D02*Y52790D01*
X199946D01*
Y56226D01*
X196510D01*
G37*
G36*
X188874Y62210D02*Y58774D01*
X192308D01*
Y62210D01*
X188874D01*
G37*
G36*
X196510D02*Y58774D01*
X199946D01*
Y62210D01*
X196510D01*
G37*
G36*
X192692D02*Y58774D01*
X196126D01*
Y62210D01*
X192692D01*
G37*
G36*
X220054Y56226D02*Y52790D01*
X223490D01*
Y56226D01*
X220054D01*
G37*
G36*
Y62210D02*Y58774D01*
X223490D01*
Y62210D01*
X220054D01*
G37*
G36*
X223874Y56226D02*Y52790D01*
X227308D01*
Y56226D01*
X223874D01*
G37*
G36*
X227692D02*Y52790D01*
X231126D01*
Y56226D01*
X227692D01*
G37*
G36*
Y62210D02*Y58774D01*
X231126D01*
Y62210D01*
X227692D01*
G37*
G36*
X223874D02*Y58774D01*
X227308D01*
Y62210D01*
X223874D01*
G37*
G36*
X231510Y56226D02*Y52790D01*
X234946D01*
Y56226D01*
X231510D01*
G37*
G36*
Y62210D02*Y58774D01*
X234946D01*
Y62210D01*
X231510D01*
G37*
G36*
X255054Y56226D02*Y52790D01*
X258490D01*
Y56226D01*
X255054D01*
G37*
G36*
X258874D02*Y52790D01*
X262308D01*
Y56226D01*
X258874D01*
G37*
G36*
X255054Y62210D02*Y58774D01*
X258490D01*
Y62210D01*
X255054D01*
G37*
G36*
X262692Y56226D02*Y52790D01*
X266126D01*
Y56226D01*
X262692D01*
G37*
G36*
X266510D02*Y52790D01*
X269946D01*
Y56226D01*
X266510D01*
G37*
G36*
X258874Y62210D02*Y58774D01*
X262308D01*
Y62210D01*
X258874D01*
G37*
G36*
X266510D02*Y58774D01*
X269946D01*
Y62210D01*
X266510D01*
G37*
G36*
X262692D02*Y58774D01*
X266126D01*
Y62210D01*
X262692D01*
G37*
G36*
X290054Y56226D02*Y52790D01*
X293490D01*
Y56226D01*
X290054D01*
G37*
G36*
Y62210D02*Y58774D01*
X293490D01*
Y62210D01*
X290054D01*
G37*
G36*
X293874Y56226D02*Y52790D01*
X297308D01*
Y56226D01*
X293874D01*
G37*
G36*
X297692D02*Y52790D01*
X301126D01*
Y56226D01*
X297692D01*
G37*
G36*
Y62210D02*Y58774D01*
X301126D01*
Y62210D01*
X297692D01*
G37*
G36*
X293874D02*Y58774D01*
X297308D01*
Y62210D01*
X293874D01*
G37*
G36*
X301510Y56226D02*Y52790D01*
X304946D01*
Y56226D01*
X301510D01*
G37*
G36*
Y62210D02*Y58774D01*
X304946D01*
Y62210D01*
X301510D01*
G37*
G36*
X325054Y56226D02*Y52790D01*
X328490D01*
Y56226D01*
X325054D01*
G37*
G36*
X328874D02*Y52790D01*
X332308D01*
Y56226D01*
X328874D01*
G37*
G36*
X325054Y62210D02*Y58774D01*
X328490D01*
Y62210D01*
X325054D01*
G37*
G36*
X332692Y56226D02*Y52790D01*
X336126D01*
Y56226D01*
X332692D01*
G37*
G36*
X336510D02*Y52790D01*
X339946D01*
Y56226D01*
X336510D01*
G37*
G36*
X328874Y62210D02*Y58774D01*
X332308D01*
Y62210D01*
X328874D01*
G37*
G36*
X336510D02*Y58774D01*
X339946D01*
Y62210D01*
X336510D01*
G37*
G36*
X332692D02*Y58774D01*
X336126D01*
Y62210D01*
X332692D01*
G37*
G36*
X360054Y56226D02*Y52790D01*
X363490D01*
Y56226D01*
X360054D01*
G37*
G36*
Y62210D02*Y58774D01*
X363490D01*
Y62210D01*
X360054D01*
G37*
G36*
X363874Y56226D02*Y52790D01*
X367308D01*
Y56226D01*
X363874D01*
G37*
G36*
X367692D02*Y52790D01*
X371126D01*
Y56226D01*
X367692D01*
G37*
G36*
Y62210D02*Y58774D01*
X371126D01*
Y62210D01*
X367692D01*
G37*
G36*
X363874D02*Y58774D01*
X367308D01*
Y62210D01*
X363874D01*
G37*
G36*
X371510Y56226D02*Y52790D01*
X374946D01*
Y56226D01*
X371510D01*
G37*
G36*
Y62210D02*Y58774D01*
X374946D01*
Y62210D01*
X371510D01*
G37*
G36*
X395054Y56226D02*Y52790D01*
X398490D01*
Y56226D01*
X395054D01*
G37*
G36*
X398874D02*Y52790D01*
X402308D01*
Y56226D01*
X398874D01*
G37*
G36*
X395054Y62210D02*Y58774D01*
X398490D01*
Y62210D01*
X395054D01*
G37*
G36*
X402692Y56226D02*Y52790D01*
X406126D01*
Y56226D01*
X402692D01*
G37*
G36*
X406510D02*Y52790D01*
X409946D01*
Y56226D01*
X406510D01*
G37*
G36*
X398874Y62210D02*Y58774D01*
X402308D01*
Y62210D01*
X398874D01*
G37*
G36*
X406510D02*Y58774D01*
X409946D01*
Y62210D01*
X406510D01*
G37*
G36*
X402692D02*Y58774D01*
X406126D01*
Y62210D01*
X402692D01*
G37*
G36*
X430054Y56226D02*Y52790D01*
X433490D01*
Y56226D01*
X430054D01*
G37*
G36*
Y62210D02*Y58774D01*
X433490D01*
Y62210D01*
X430054D01*
G37*
G36*
X433873Y56226D02*Y52790D01*
X437308D01*
Y56226D01*
X433873D01*
G37*
G36*
X437692D02*Y52790D01*
X441127D01*
Y56226D01*
X437692D01*
G37*
G36*
Y62210D02*Y58774D01*
X441127D01*
Y62210D01*
X437692D01*
G37*
G36*
X433873D02*Y58774D01*
X437308D01*
Y62210D01*
X433873D01*
G37*
G36*
X441510Y56226D02*Y52790D01*
X444946D01*
Y56226D01*
X441510D01*
G37*
G36*
Y62210D02*Y58774D01*
X444946D01*
Y62210D01*
X441510D01*
G37*
G36*
X220054Y21226D02*Y17790D01*
X223490D01*
Y21226D01*
X220054D01*
G37*
G36*
X223874D02*Y17790D01*
X227308D01*
Y21226D01*
X223874D01*
G37*
G36*
X220054Y27210D02*Y23774D01*
X223490D01*
Y27210D01*
X220054D01*
G37*
G36*
X227692Y21226D02*Y17790D01*
X231126D01*
Y21226D01*
X227692D01*
G37*
G36*
X231510D02*Y17790D01*
X234946D01*
Y21226D01*
X231510D01*
G37*
G36*
X223874Y27210D02*Y23774D01*
X227308D01*
Y27210D01*
X223874D01*
G37*
G36*
X231510D02*Y23774D01*
X234946D01*
Y27210D01*
X231510D01*
G37*
G36*
X227692D02*Y23774D01*
X231126D01*
Y27210D01*
X227692D01*
G37*
G36*
X255054Y21226D02*Y17790D01*
X258490D01*
Y21226D01*
X255054D01*
G37*
G36*
Y27210D02*Y23774D01*
X258490D01*
Y27210D01*
X255054D01*
G37*
G36*
X258874Y21226D02*Y17790D01*
X262308D01*
Y21226D01*
X258874D01*
G37*
G36*
X262692D02*Y17790D01*
X266126D01*
Y21226D01*
X262692D01*
G37*
G36*
Y27210D02*Y23774D01*
X266126D01*
Y27210D01*
X262692D01*
G37*
G36*
X258874D02*Y23774D01*
X262308D01*
Y27210D01*
X258874D01*
G37*
G36*
X266510Y21226D02*Y17790D01*
X269946D01*
Y21226D01*
X266510D01*
G37*
G36*
Y27210D02*Y23774D01*
X269946D01*
Y27210D01*
X266510D01*
G37*
G36*
X290054Y21226D02*Y17790D01*
X293490D01*
Y21226D01*
X290054D01*
G37*
G36*
X293874D02*Y17790D01*
X297308D01*
Y21226D01*
X293874D01*
G37*
G36*
X290054Y27210D02*Y23774D01*
X293490D01*
Y27210D01*
X290054D01*
G37*
G36*
X297692Y21226D02*Y17790D01*
X301126D01*
Y21226D01*
X297692D01*
G37*
G36*
X301510D02*Y17790D01*
X304946D01*
Y21226D01*
X301510D01*
G37*
G36*
X293874Y27210D02*Y23774D01*
X297308D01*
Y27210D01*
X293874D01*
G37*
G36*
X301510D02*Y23774D01*
X304946D01*
Y27210D01*
X301510D01*
G37*
G36*
X297692D02*Y23774D01*
X301126D01*
Y27210D01*
X297692D01*
G37*
G36*
X325054Y21226D02*Y17790D01*
X328490D01*
Y21226D01*
X325054D01*
G37*
G36*
Y27210D02*Y23774D01*
X328490D01*
Y27210D01*
X325054D01*
G37*
G36*
X328874Y21226D02*Y17790D01*
X332308D01*
Y21226D01*
X328874D01*
G37*
G36*
X332692D02*Y17790D01*
X336126D01*
Y21226D01*
X332692D01*
G37*
G36*
Y27210D02*Y23774D01*
X336126D01*
Y27210D01*
X332692D01*
G37*
G36*
X328874D02*Y23774D01*
X332308D01*
Y27210D01*
X328874D01*
G37*
G36*
X336510Y21226D02*Y17790D01*
X339946D01*
Y21226D01*
X336510D01*
G37*
G36*
Y27210D02*Y23774D01*
X339946D01*
Y27210D01*
X336510D01*
G37*
G36*
X360054Y21226D02*Y17790D01*
X363490D01*
Y21226D01*
X360054D01*
G37*
G36*
X363874D02*Y17790D01*
X367308D01*
Y21226D01*
X363874D01*
G37*
G36*
X360054Y27210D02*Y23774D01*
X363490D01*
Y27210D01*
X360054D01*
G37*
G36*
X367692Y21226D02*Y17790D01*
X371126D01*
Y21226D01*
X367692D01*
G37*
G36*
X371510D02*Y17790D01*
X374946D01*
Y21226D01*
X371510D01*
G37*
G36*
X363874Y27210D02*Y23774D01*
X367308D01*
Y27210D01*
X363874D01*
G37*
G36*
X371510D02*Y23774D01*
X374946D01*
Y27210D01*
X371510D01*
G37*
G36*
X367692D02*Y23774D01*
X371126D01*
Y27210D01*
X367692D01*
G37*
G36*
X395054Y21226D02*Y17790D01*
X398490D01*
Y21226D01*
X395054D01*
G37*
G36*
Y27210D02*Y23774D01*
X398490D01*
Y27210D01*
X395054D01*
G37*
G36*
X398874Y21226D02*Y17790D01*
X402308D01*
Y21226D01*
X398874D01*
G37*
G36*
X402692D02*Y17790D01*
X406126D01*
Y21226D01*
X402692D01*
G37*
G36*
Y27210D02*Y23774D01*
X406126D01*
Y27210D01*
X402692D01*
G37*
G36*
X398874D02*Y23774D01*
X402308D01*
Y27210D01*
X398874D01*
G37*
G36*
X406510Y21226D02*Y17790D01*
X409946D01*
Y21226D01*
X406510D01*
G37*
G36*
Y27210D02*Y23774D01*
X409946D01*
Y27210D01*
X406510D01*
G37*
G36*
X430054Y21226D02*Y17790D01*
X433490D01*
Y21226D01*
X430054D01*
G37*
G36*
X433873D02*Y17790D01*
X437308D01*
Y21226D01*
X433873D01*
G37*
G36*
X430054Y27210D02*Y23774D01*
X433490D01*
Y27210D01*
X430054D01*
G37*
G36*
X437692Y21226D02*Y17790D01*
X441127D01*
Y21226D01*
X437692D01*
G37*
G36*
X441510D02*Y17790D01*
X444946D01*
Y21226D01*
X441510D01*
G37*
G36*
X433873Y27210D02*Y23774D01*
X437308D01*
Y27210D01*
X433873D01*
G37*
G36*
X441510D02*Y23774D01*
X444946D01*
Y27210D01*
X441510D01*
G37*
G36*
X437692D02*Y23774D01*
X441127D01*
Y27210D01*
X437692D01*
G37*
M02*
