G04 start of page 2 for group 0 idx 0 *
G04 Title: (unknown), top *
G04 Creator: pcb 4.0.2 *
G04 CreationDate: Mon Jan 22 00:33:22 2024 UTC *
G04 For: railfan *
G04 Format: Gerber/RS-274X *
G04 PCB-Dimensions (mil): 3000.00 5500.00 *
G04 PCB-Coordinate-Origin: lower left *
%MOIN*%
%FSLAX25Y25*%
%LNTOP*%
%ADD18C,0.0310*%
%ADD17C,0.0140*%
%ADD16C,0.0400*%
%ADD15C,0.0300*%
%ADD14C,0.0394*%
%ADD13C,0.0200*%
%ADD12C,0.0100*%
%ADD11C,0.0001*%
G54D11*G36*
X61000Y76500D02*X98000D01*
Y71500D01*
X61000D01*
Y76500D01*
G37*
G36*
X99000Y86000D02*X110000D01*
Y71500D01*
X99000D01*
Y86000D01*
G37*
G36*
X140000Y96000D02*Y69000D01*
X132500D01*
Y96000D01*
X140000D01*
G37*
G36*
X80000Y57500D02*X120000D01*
Y51500D01*
X80000D01*
Y57500D01*
G37*
G36*
X62500Y48500D02*X138000D01*
Y32500D01*
X62500D01*
Y48500D01*
G37*
G36*
X61000Y93500D02*X98000D01*
Y88500D01*
X61000D01*
Y93500D01*
G37*
G36*
Y87500D02*X88500D01*
Y83000D01*
X61000D01*
Y87500D01*
G37*
G36*
Y82000D02*X72000D01*
Y77500D01*
X61000D01*
Y82000D01*
G37*
G36*
X93000Y93000D02*X109500D01*
Y88000D01*
X93000D01*
Y93000D01*
G37*
G36*
X91500Y93500D02*X108000D01*
Y88500D01*
X91500D01*
Y93500D01*
G37*
G36*
X92000D02*X98000D01*
Y79500D01*
X92000D01*
Y93500D01*
G37*
G36*
X96500D02*X113500D01*
Y87000D01*
X96500D01*
Y93500D01*
G37*
G36*
X61000Y111500D02*X98000D01*
Y106500D01*
X61000D01*
Y111500D01*
G37*
G36*
Y128500D02*X98000D01*
Y123500D01*
X61000D01*
Y128500D01*
G37*
G36*
X92000D02*X98000D01*
Y114500D01*
X92000D01*
Y128500D01*
G37*
G36*
X61000Y122500D02*X88500D01*
Y118000D01*
X61000D01*
Y122500D01*
G37*
G36*
Y117000D02*X72000D01*
Y112500D01*
X61000D01*
Y117000D01*
G37*
G36*
X99000Y121000D02*X110000D01*
Y106500D01*
X99000D01*
Y121000D01*
G37*
G36*
X140000Y131000D02*Y104000D01*
X132500D01*
Y131000D01*
X140000D01*
G37*
G36*
X96500Y163500D02*X113500D01*
Y157000D01*
X96500D01*
Y163500D01*
G37*
G36*
X99000Y156000D02*X110000D01*
Y141500D01*
X99000D01*
Y156000D01*
G37*
G36*
X140000Y166000D02*Y139000D01*
X132500D01*
Y166000D01*
X140000D01*
G37*
G36*
X62500Y501500D02*Y517500D01*
X138000D01*
Y501500D01*
X62500D01*
G37*
G36*
X80000Y492500D02*Y498500D01*
X138000D01*
Y492500D01*
X80000D01*
G37*
G36*
X93000Y478000D02*X109500D01*
Y473000D01*
X93000D01*
Y478000D01*
G37*
G36*
X96500Y478500D02*X113500D01*
Y472000D01*
X96500D01*
Y478500D01*
G37*
G36*
X140000Y481000D02*Y454000D01*
X132500D01*
Y481000D01*
X140000D01*
G37*
G36*
X61000Y478500D02*X98000D01*
Y473500D01*
X61000D01*
Y478500D01*
G37*
G36*
X91500D02*X108000D01*
Y473500D01*
X91500D01*
Y478500D01*
G37*
G36*
X92000D02*X98000D01*
Y464500D01*
X92000D01*
Y478500D01*
G37*
G36*
X61000Y472500D02*X88500D01*
Y468000D01*
X61000D01*
Y472500D01*
G37*
G36*
Y467000D02*X72000D01*
Y462500D01*
X61000D01*
Y467000D01*
G37*
G36*
Y461500D02*X98000D01*
Y456500D01*
X61000D01*
Y461500D01*
G37*
G36*
X99000Y471000D02*X110000D01*
Y456500D01*
X99000D01*
Y471000D01*
G37*
G36*
X93000Y128000D02*X109500D01*
Y123000D01*
X93000D01*
Y128000D01*
G37*
G36*
X91500Y128500D02*X108000D01*
Y123500D01*
X91500D01*
Y128500D01*
G37*
G36*
X96500D02*X113500D01*
Y122000D01*
X96500D01*
Y128500D01*
G37*
G36*
X93000Y163000D02*X109500D01*
Y158000D01*
X93000D01*
Y163000D01*
G37*
G36*
X61000Y163500D02*X98000D01*
Y158500D01*
X61000D01*
Y163500D01*
G37*
G36*
X91500D02*X108000D01*
Y158500D01*
X91500D01*
Y163500D01*
G37*
G36*
X92000D02*X98000D01*
Y149500D01*
X92000D01*
Y163500D01*
G37*
G36*
X61000Y157500D02*X88500D01*
Y153000D01*
X61000D01*
Y157500D01*
G37*
G36*
Y152000D02*X72000D01*
Y147500D01*
X61000D01*
Y152000D01*
G37*
G36*
Y146500D02*X98000D01*
Y141500D01*
X61000D01*
Y146500D01*
G37*
G36*
Y198500D02*X98000D01*
Y193500D01*
X61000D01*
Y198500D01*
G37*
G36*
X91500D02*X108000D01*
Y193500D01*
X91500D01*
Y198500D01*
G37*
G36*
X61000Y192500D02*X88500D01*
Y188000D01*
X61000D01*
Y192500D01*
G37*
G36*
Y187000D02*X72000D01*
Y182500D01*
X61000D01*
Y187000D01*
G37*
G36*
Y181500D02*X98000D01*
Y176500D01*
X61000D01*
Y181500D01*
G37*
G36*
X93000Y198000D02*X109500D01*
Y193000D01*
X93000D01*
Y198000D01*
G37*
G36*
X96500Y198500D02*X113500D01*
Y192000D01*
X96500D01*
Y198500D01*
G37*
G36*
X99000Y191000D02*X110000D01*
Y176500D01*
X99000D01*
Y191000D01*
G37*
G36*
X61000Y233500D02*X98000D01*
Y228500D01*
X61000D01*
Y233500D01*
G37*
G36*
Y227500D02*X88500D01*
Y223000D01*
X61000D01*
Y227500D01*
G37*
G36*
Y222000D02*X72000D01*
Y217500D01*
X61000D01*
Y222000D01*
G37*
G36*
Y216500D02*X98000D01*
Y211500D01*
X61000D01*
Y216500D01*
G37*
G36*
X91500Y233500D02*X108000D01*
Y228500D01*
X91500D01*
Y233500D01*
G37*
G36*
X61000Y251500D02*X98000D01*
Y246500D01*
X61000D01*
Y251500D01*
G37*
G36*
X92000Y198500D02*X98000D01*
Y184500D01*
X92000D01*
Y198500D01*
G37*
G36*
X140000Y201000D02*Y174000D01*
X132500D01*
Y201000D01*
X140000D01*
G37*
G36*
X93000Y233000D02*X109500D01*
Y228000D01*
X93000D01*
Y233000D01*
G37*
G36*
X92000Y233500D02*X98000D01*
Y219500D01*
X92000D01*
Y233500D01*
G37*
G36*
X96500D02*X113500D01*
Y227000D01*
X96500D01*
Y233500D01*
G37*
G36*
X99000Y226000D02*X110000D01*
Y211500D01*
X99000D01*
Y226000D01*
G37*
G36*
X140000Y236000D02*Y209000D01*
X132500D01*
Y236000D01*
X140000D01*
G37*
G36*
X93000Y268000D02*X109500D01*
Y263000D01*
X93000D01*
Y268000D01*
G37*
G36*
X91500Y268500D02*X108000D01*
Y263500D01*
X91500D01*
Y268500D01*
G37*
G36*
X92000D02*X98000D01*
Y254500D01*
X92000D01*
Y268500D01*
G37*
G36*
X96500D02*X113500D01*
Y262000D01*
X96500D01*
Y268500D01*
G37*
G36*
X61000D02*X98000D01*
Y263500D01*
X61000D01*
Y268500D01*
G37*
G36*
Y262500D02*X88500D01*
Y258000D01*
X61000D01*
Y262500D01*
G37*
G36*
Y257000D02*X72000D01*
Y252500D01*
X61000D01*
Y257000D01*
G37*
G36*
X99000Y261000D02*X110000D01*
Y246500D01*
X99000D01*
Y261000D01*
G37*
G36*
X61000Y292000D02*X72000D01*
Y287500D01*
X61000D01*
Y292000D01*
G37*
G36*
Y286500D02*X98000D01*
Y281500D01*
X61000D01*
Y286500D01*
G37*
G36*
Y303500D02*X98000D01*
Y298500D01*
X61000D01*
Y303500D01*
G37*
G36*
X91500D02*X108000D01*
Y298500D01*
X91500D01*
Y303500D01*
G37*
G36*
X92000D02*X98000D01*
Y289500D01*
X92000D01*
Y303500D01*
G37*
G36*
X61000Y297500D02*X88500D01*
Y293000D01*
X61000D01*
Y297500D01*
G37*
G36*
X96500Y303500D02*X113500D01*
Y297000D01*
X96500D01*
Y303500D01*
G37*
G36*
X61000Y321500D02*X98000D01*
Y316500D01*
X61000D01*
Y321500D01*
G37*
G36*
Y338500D02*X98000D01*
Y333500D01*
X61000D01*
Y338500D01*
G37*
G36*
X91500D02*X108000D01*
Y333500D01*
X91500D01*
Y338500D01*
G37*
G36*
X92000D02*X98000D01*
Y324500D01*
X92000D01*
Y338500D01*
G37*
G36*
X61000Y332500D02*X88500D01*
Y328000D01*
X61000D01*
Y332500D01*
G37*
G36*
Y327000D02*X72000D01*
Y322500D01*
X61000D01*
Y327000D01*
G37*
G36*
X96500Y338500D02*X113500D01*
Y332000D01*
X96500D01*
Y338500D01*
G37*
G36*
X61000Y362000D02*X72000D01*
Y357500D01*
X61000D01*
Y362000D01*
G37*
G36*
Y356500D02*X98000D01*
Y351500D01*
X61000D01*
Y356500D01*
G37*
G36*
Y373500D02*X98000D01*
Y368500D01*
X61000D01*
Y373500D01*
G37*
G36*
X91500D02*X108000D01*
Y368500D01*
X91500D01*
Y373500D01*
G37*
G36*
X92000D02*X98000D01*
Y359500D01*
X92000D01*
Y373500D01*
G37*
G36*
X61000Y367500D02*X88500D01*
Y363000D01*
X61000D01*
Y367500D01*
G37*
G36*
X96500Y373500D02*X113500D01*
Y367000D01*
X96500D01*
Y373500D01*
G37*
G36*
X61000Y391500D02*X98000D01*
Y386500D01*
X61000D01*
Y391500D01*
G37*
G36*
X140000Y271000D02*Y244000D01*
X132500D01*
Y271000D01*
X140000D01*
G37*
G36*
Y306000D02*Y279000D01*
X132500D01*
Y306000D01*
X140000D01*
G37*
G36*
Y341000D02*Y314000D01*
X132500D01*
Y341000D01*
X140000D01*
G37*
G36*
Y376000D02*Y349000D01*
X132500D01*
Y376000D01*
X140000D01*
G37*
G36*
X93000Y303000D02*X109500D01*
Y298000D01*
X93000D01*
Y303000D01*
G37*
G36*
Y338000D02*X109500D01*
Y333000D01*
X93000D01*
Y338000D01*
G37*
G36*
X99000Y331000D02*X110000D01*
Y316500D01*
X99000D01*
Y331000D01*
G37*
G36*
Y296000D02*X110000D01*
Y281500D01*
X99000D01*
Y296000D01*
G37*
G36*
X93000Y373000D02*X109500D01*
Y368000D01*
X93000D01*
Y373000D01*
G37*
G36*
X99000Y366000D02*X110000D01*
Y351500D01*
X99000D01*
Y366000D01*
G37*
G36*
X93000Y408000D02*X109500D01*
Y403000D01*
X93000D01*
Y408000D01*
G37*
G36*
X99000Y401000D02*X110000D01*
Y386500D01*
X99000D01*
Y401000D01*
G37*
G36*
X140000Y411000D02*Y384000D01*
X132500D01*
Y411000D01*
X140000D01*
G37*
G36*
Y446000D02*Y419000D01*
X132500D01*
Y446000D01*
X140000D01*
G37*
G36*
X93000Y443000D02*X109500D01*
Y438000D01*
X93000D01*
Y443000D01*
G37*
G36*
X99000Y436000D02*X110000D01*
Y421500D01*
X99000D01*
Y436000D01*
G37*
G36*
X61000Y408500D02*X98000D01*
Y403500D01*
X61000D01*
Y408500D01*
G37*
G36*
X91500D02*X108000D01*
Y403500D01*
X91500D01*
Y408500D01*
G37*
G36*
X92000D02*X98000D01*
Y394500D01*
X92000D01*
Y408500D01*
G37*
G36*
X61000Y402500D02*X88500D01*
Y398000D01*
X61000D01*
Y402500D01*
G37*
G36*
Y397000D02*X72000D01*
Y392500D01*
X61000D01*
Y397000D01*
G37*
G36*
X96500Y408500D02*X113500D01*
Y402000D01*
X96500D01*
Y408500D01*
G37*
G36*
X61000Y443500D02*X98000D01*
Y438500D01*
X61000D01*
Y443500D01*
G37*
G36*
X91500D02*X108000D01*
Y438500D01*
X91500D01*
Y443500D01*
G37*
G36*
X92000D02*X98000D01*
Y429500D01*
X92000D01*
Y443500D01*
G37*
G36*
X61000Y437500D02*X88500D01*
Y433000D01*
X61000D01*
Y437500D01*
G37*
G36*
Y432000D02*X72000D01*
Y427500D01*
X61000D01*
Y432000D01*
G37*
G36*
Y426500D02*X98000D01*
Y421500D01*
X61000D01*
Y426500D01*
G37*
G36*
X96500Y443500D02*X113500D01*
Y437000D01*
X96500D01*
Y443500D01*
G37*
G54D12*X127500Y194000D02*X121000D01*
X127500Y187500D02*X125531Y189469D01*
X121000D01*
G54D13*X115500Y190000D02*X111500Y194000D01*
G54D12*X127500Y181000D02*Y187500D01*
Y216000D02*Y222500D01*
G54D13*X121000Y185531D02*X116969D01*
X115500Y187000D01*
Y190000D01*
X121000Y181594D02*X106500D01*
G54D12*X127500Y229000D02*X121000D01*
X127500Y222500D02*X125531Y224469D01*
X121000D01*
G54D13*Y220531D02*X116969D01*
X115500Y222000D01*
Y225000D01*
X111500Y229000D01*
X121000Y216594D02*X106500D01*
X121000Y251594D02*X106500D01*
G54D12*X127500Y264000D02*X121000D01*
G54D13*Y255531D02*X116969D01*
X115500Y257000D01*
Y260000D01*
G54D12*X127500Y257500D02*X125531Y259469D01*
X121000D01*
G54D13*X115500Y260000D02*X111500Y264000D01*
G54D12*X127500Y251000D02*Y257500D01*
Y124000D02*X121000D01*
G54D13*Y115531D02*X116969D01*
G54D12*X127500Y111000D02*Y117500D01*
X125531Y119469D01*
X121000D01*
G54D13*Y111594D02*X106500D01*
X116969Y115531D02*X115500Y117000D01*
Y120000D01*
X111500Y124000D01*
G54D12*X127500Y89000D02*X121000D01*
X127500Y76000D02*Y82500D01*
X125531Y84469D01*
X121000D01*
G54D13*Y80531D02*X116969D01*
X115500Y82000D01*
Y85000D01*
X111500Y89000D01*
X121000Y76594D02*X106500D01*
X121000Y150531D02*X116969D01*
X115500Y152000D01*
Y155000D01*
X111500Y159000D01*
G54D12*X127500D02*X121000D01*
X127500Y146000D02*Y152500D01*
X125531Y154469D01*
X121000D01*
G54D13*Y146594D02*X106500D01*
X121000Y290531D02*X116969D01*
X115500Y292000D01*
Y295000D01*
X111500Y299000D01*
G54D12*X127500D02*X121000D01*
X127500Y286000D02*Y292500D01*
X125531Y294469D01*
X121000D01*
G54D13*Y286594D02*X106500D01*
G54D12*X127500Y334000D02*X121000D01*
X127500Y327500D02*X125531Y329469D01*
X121000D01*
G54D13*X115500Y330000D02*X111500Y334000D01*
G54D12*X127500Y321000D02*Y327500D01*
Y356000D02*Y362500D01*
G54D13*X121000Y325531D02*X116969D01*
X115500Y327000D01*
Y330000D01*
X121000Y321594D02*X106500D01*
G54D12*X127500Y369000D02*X121000D01*
X127500Y362500D02*X125531Y364469D01*
X121000D01*
G54D13*Y360531D02*X116969D01*
X115500Y362000D01*
Y365000D01*
X111500Y369000D01*
X121000Y356594D02*X106500D01*
X121000Y391594D02*X106500D01*
G54D12*X127500Y404000D02*X121000D01*
G54D13*Y395531D02*X116969D01*
X115500Y397000D01*
Y400000D01*
G54D12*X127500Y397500D02*X125531Y399469D01*
X121000D01*
G54D13*X115500Y400000D02*X111500Y404000D01*
G54D12*X127500Y391000D02*Y397500D01*
G54D13*X121000Y430531D02*X116969D01*
X115500Y432000D01*
Y435000D01*
X111500Y439000D01*
G54D12*X127500D02*X121000D01*
X127500Y426000D02*Y432500D01*
X125531Y434469D01*
X121000D01*
G54D13*Y426594D02*X106500D01*
G54D12*X127500Y474000D02*X121000D01*
X127500Y467500D02*X125531Y469469D01*
X121000D01*
G54D13*X115500Y470000D02*X111500Y474000D01*
G54D12*X127500Y461000D02*Y467500D01*
G54D13*X121000Y465531D02*X116969D01*
X115500Y467000D01*
Y470000D01*
X121000Y461594D02*X106500D01*
G54D14*X70000Y495000D03*
G54D11*G36*
X82548Y463016D02*Y457898D01*
X88452D01*
Y463016D01*
X82548D01*
G37*
G36*
Y470102D02*Y464984D01*
X88452D01*
Y470102D01*
X82548D01*
G37*
G36*
X92048Y463016D02*Y457898D01*
X97952D01*
Y463016D01*
X92048D01*
G37*
G36*
Y470102D02*Y464984D01*
X97952D01*
Y470102D01*
X92048D01*
G37*
G36*
X104048Y477602D02*Y472484D01*
X109952D01*
Y477602D01*
X104048D01*
G37*
G36*
Y470516D02*Y465398D01*
X109952D01*
Y470516D01*
X104048D01*
G37*
G36*
X117949Y462775D02*Y460413D01*
X124051D01*
Y462775D01*
X117949D01*
G37*
G36*
Y466712D02*Y464350D01*
X124051D01*
Y466712D01*
X117949D01*
G37*
G36*
Y470650D02*Y468288D01*
X124051D01*
Y470650D01*
X117949D01*
G37*
G36*
Y474587D02*Y472225D01*
X124051D01*
Y474587D01*
X117949D01*
G37*
G36*
X132713Y458838D02*Y454114D01*
X139799D01*
Y458838D01*
X132713D01*
G37*
G36*
Y480886D02*Y476162D01*
X139799D01*
Y480886D01*
X132713D01*
G37*
G36*
X92048Y78016D02*Y72898D01*
X97952D01*
Y78016D01*
X92048D01*
G37*
G36*
Y85102D02*Y79984D01*
X97952D01*
Y85102D01*
X92048D01*
G37*
G36*
X104048Y92602D02*Y87484D01*
X109952D01*
Y92602D01*
X104048D01*
G37*
G36*
Y85516D02*Y80398D01*
X109952D01*
Y85516D01*
X104048D01*
G37*
G36*
X117949Y77775D02*Y75413D01*
X124051D01*
Y77775D01*
X117949D01*
G37*
G36*
Y81712D02*Y79350D01*
X124051D01*
Y81712D01*
X117949D01*
G37*
G36*
Y85650D02*Y83288D01*
X124051D01*
Y85650D01*
X117949D01*
G37*
G36*
Y89587D02*Y87225D01*
X124051D01*
Y89587D01*
X117949D01*
G37*
G36*
X132713Y73838D02*Y69114D01*
X139799D01*
Y73838D01*
X132713D01*
G37*
G36*
Y95886D02*Y91162D01*
X139799D01*
Y95886D01*
X132713D01*
G37*
G54D14*X130000Y55000D03*
G54D11*G36*
X60202Y86418D02*Y83582D01*
X64754D01*
Y86418D01*
X60202D01*
G37*
G36*
Y91418D02*Y88582D01*
X64754D01*
Y91418D01*
X60202D01*
G37*
G36*
Y76418D02*Y73582D01*
X64754D01*
Y76418D01*
X60202D01*
G37*
G36*
Y81418D02*Y78582D01*
X64754D01*
Y81418D01*
X60202D01*
G37*
G36*
X82548Y78016D02*Y72898D01*
X88452D01*
Y78016D01*
X82548D01*
G37*
G36*
Y85102D02*Y79984D01*
X88452D01*
Y85102D01*
X82548D01*
G37*
G54D14*X70000Y55000D03*
G54D11*G36*
X60202Y111418D02*Y108582D01*
X64754D01*
Y111418D01*
X60202D01*
G37*
G36*
Y116418D02*Y113582D01*
X64754D01*
Y116418D01*
X60202D01*
G37*
G36*
Y121418D02*Y118582D01*
X64754D01*
Y121418D01*
X60202D01*
G37*
G36*
Y126418D02*Y123582D01*
X64754D01*
Y126418D01*
X60202D01*
G37*
G36*
X82548Y113016D02*Y107898D01*
X88452D01*
Y113016D01*
X82548D01*
G37*
G36*
Y120102D02*Y114984D01*
X88452D01*
Y120102D01*
X82548D01*
G37*
G36*
X92048Y113016D02*Y107898D01*
X97952D01*
Y113016D01*
X92048D01*
G37*
G36*
Y120102D02*Y114984D01*
X97952D01*
Y120102D01*
X92048D01*
G37*
G36*
X104048Y127602D02*Y122484D01*
X109952D01*
Y127602D01*
X104048D01*
G37*
G36*
Y120516D02*Y115398D01*
X109952D01*
Y120516D01*
X104048D01*
G37*
G36*
X117949Y112775D02*Y110413D01*
X124051D01*
Y112775D01*
X117949D01*
G37*
G36*
Y116712D02*Y114350D01*
X124051D01*
Y116712D01*
X117949D01*
G37*
G36*
Y120650D02*Y118288D01*
X124051D01*
Y120650D01*
X117949D01*
G37*
G36*
Y124587D02*Y122225D01*
X124051D01*
Y124587D01*
X117949D01*
G37*
G36*
X132713Y108838D02*Y104114D01*
X139799D01*
Y108838D01*
X132713D01*
G37*
G36*
Y130886D02*Y126162D01*
X139799D01*
Y130886D01*
X132713D01*
G37*
G36*
X117949Y147775D02*Y145413D01*
X124051D01*
Y147775D01*
X117949D01*
G37*
G36*
X132713Y143838D02*Y139114D01*
X139799D01*
Y143838D01*
X132713D01*
G37*
G36*
X117949Y151712D02*Y149350D01*
X124051D01*
Y151712D01*
X117949D01*
G37*
G36*
Y155650D02*Y153288D01*
X124051D01*
Y155650D01*
X117949D01*
G37*
G36*
Y159587D02*Y157225D01*
X124051D01*
Y159587D01*
X117949D01*
G37*
G36*
X132713Y165886D02*Y161162D01*
X139799D01*
Y165886D01*
X132713D01*
G37*
G36*
X117949Y182775D02*Y180413D01*
X124051D01*
Y182775D01*
X117949D01*
G37*
G36*
X132713Y178838D02*Y174114D01*
X139799D01*
Y178838D01*
X132713D01*
G37*
G36*
X60202Y146418D02*Y143582D01*
X64754D01*
Y146418D01*
X60202D01*
G37*
G36*
Y151418D02*Y148582D01*
X64754D01*
Y151418D01*
X60202D01*
G37*
G36*
Y156418D02*Y153582D01*
X64754D01*
Y156418D01*
X60202D01*
G37*
G36*
Y161418D02*Y158582D01*
X64754D01*
Y161418D01*
X60202D01*
G37*
G36*
X82548Y148016D02*Y142898D01*
X88452D01*
Y148016D01*
X82548D01*
G37*
G36*
Y155102D02*Y149984D01*
X88452D01*
Y155102D01*
X82548D01*
G37*
G36*
X92048Y148016D02*Y142898D01*
X97952D01*
Y148016D01*
X92048D01*
G37*
G36*
Y155102D02*Y149984D01*
X97952D01*
Y155102D01*
X92048D01*
G37*
G36*
X104048Y162602D02*Y157484D01*
X109952D01*
Y162602D01*
X104048D01*
G37*
G36*
Y155516D02*Y150398D01*
X109952D01*
Y155516D01*
X104048D01*
G37*
G36*
X60202Y181418D02*Y178582D01*
X64754D01*
Y181418D01*
X60202D01*
G37*
G36*
X82548Y183016D02*Y177898D01*
X88452D01*
Y183016D01*
X82548D01*
G37*
G36*
X92048D02*Y177898D01*
X97952D01*
Y183016D01*
X92048D01*
G37*
G36*
X60202Y186418D02*Y183582D01*
X64754D01*
Y186418D01*
X60202D01*
G37*
G36*
X82548Y190102D02*Y184984D01*
X88452D01*
Y190102D01*
X82548D01*
G37*
G36*
X92048D02*Y184984D01*
X97952D01*
Y190102D01*
X92048D01*
G37*
G36*
X104048Y190516D02*Y185398D01*
X109952D01*
Y190516D01*
X104048D01*
G37*
G36*
X60202Y191418D02*Y188582D01*
X64754D01*
Y191418D01*
X60202D01*
G37*
G36*
Y196418D02*Y193582D01*
X64754D01*
Y196418D01*
X60202D01*
G37*
G36*
X104048Y197602D02*Y192484D01*
X109952D01*
Y197602D01*
X104048D01*
G37*
G36*
X117949Y186712D02*Y184350D01*
X124051D01*
Y186712D01*
X117949D01*
G37*
G36*
Y217775D02*Y215413D01*
X124051D01*
Y217775D01*
X117949D01*
G37*
G36*
Y190650D02*Y188288D01*
X124051D01*
Y190650D01*
X117949D01*
G37*
G36*
Y194587D02*Y192225D01*
X124051D01*
Y194587D01*
X117949D01*
G37*
G36*
X132713Y200886D02*Y196162D01*
X139799D01*
Y200886D01*
X132713D01*
G37*
G36*
Y213838D02*Y209114D01*
X139799D01*
Y213838D01*
X132713D01*
G37*
G36*
Y235886D02*Y231162D01*
X139799D01*
Y235886D01*
X132713D01*
G37*
G36*
X117949Y221712D02*Y219350D01*
X124051D01*
Y221712D01*
X117949D01*
G37*
G36*
Y225650D02*Y223288D01*
X124051D01*
Y225650D01*
X117949D01*
G37*
G36*
Y229587D02*Y227225D01*
X124051D01*
Y229587D01*
X117949D01*
G37*
G36*
Y252775D02*Y250413D01*
X124051D01*
Y252775D01*
X117949D01*
G37*
G36*
Y256712D02*Y254350D01*
X124051D01*
Y256712D01*
X117949D01*
G37*
G36*
Y260650D02*Y258288D01*
X124051D01*
Y260650D01*
X117949D01*
G37*
G36*
Y264587D02*Y262225D01*
X124051D01*
Y264587D01*
X117949D01*
G37*
G36*
X132713Y248838D02*Y244114D01*
X139799D01*
Y248838D01*
X132713D01*
G37*
G36*
Y270886D02*Y266162D01*
X139799D01*
Y270886D01*
X132713D01*
G37*
G36*
Y283838D02*Y279114D01*
X139799D01*
Y283838D01*
X132713D01*
G37*
G36*
X60202Y216418D02*Y213582D01*
X64754D01*
Y216418D01*
X60202D01*
G37*
G36*
X82548Y218016D02*Y212898D01*
X88452D01*
Y218016D01*
X82548D01*
G37*
G36*
X92048D02*Y212898D01*
X97952D01*
Y218016D01*
X92048D01*
G37*
G36*
X60202Y221418D02*Y218582D01*
X64754D01*
Y221418D01*
X60202D01*
G37*
G36*
X82548Y225102D02*Y219984D01*
X88452D01*
Y225102D01*
X82548D01*
G37*
G36*
X92048D02*Y219984D01*
X97952D01*
Y225102D01*
X92048D01*
G37*
G36*
X104048Y225516D02*Y220398D01*
X109952D01*
Y225516D01*
X104048D01*
G37*
G36*
Y232602D02*Y227484D01*
X109952D01*
Y232602D01*
X104048D01*
G37*
G36*
X82548Y253016D02*Y247898D01*
X88452D01*
Y253016D01*
X82548D01*
G37*
G36*
X92048D02*Y247898D01*
X97952D01*
Y253016D01*
X92048D01*
G37*
G36*
Y260102D02*Y254984D01*
X97952D01*
Y260102D01*
X92048D01*
G37*
G36*
X104048Y267602D02*Y262484D01*
X109952D01*
Y267602D01*
X104048D01*
G37*
G36*
Y260516D02*Y255398D01*
X109952D01*
Y260516D01*
X104048D01*
G37*
G36*
X60202Y226418D02*Y223582D01*
X64754D01*
Y226418D01*
X60202D01*
G37*
G36*
Y231418D02*Y228582D01*
X64754D01*
Y231418D01*
X60202D01*
G37*
G36*
Y261418D02*Y258582D01*
X64754D01*
Y261418D01*
X60202D01*
G37*
G36*
X82548Y260102D02*Y254984D01*
X88452D01*
Y260102D01*
X82548D01*
G37*
G36*
X60202Y266418D02*Y263582D01*
X64754D01*
Y266418D01*
X60202D01*
G37*
G36*
Y251418D02*Y248582D01*
X64754D01*
Y251418D01*
X60202D01*
G37*
G36*
Y256418D02*Y253582D01*
X64754D01*
Y256418D01*
X60202D01*
G37*
G36*
Y286418D02*Y283582D01*
X64754D01*
Y286418D01*
X60202D01*
G37*
G36*
Y291418D02*Y288582D01*
X64754D01*
Y291418D01*
X60202D01*
G37*
G36*
Y296418D02*Y293582D01*
X64754D01*
Y296418D01*
X60202D01*
G37*
G36*
Y301418D02*Y298582D01*
X64754D01*
Y301418D01*
X60202D01*
G37*
G36*
Y321418D02*Y318582D01*
X64754D01*
Y321418D01*
X60202D01*
G37*
G36*
Y326418D02*Y323582D01*
X64754D01*
Y326418D01*
X60202D01*
G37*
G36*
Y331418D02*Y328582D01*
X64754D01*
Y331418D01*
X60202D01*
G37*
G36*
Y336418D02*Y333582D01*
X64754D01*
Y336418D01*
X60202D01*
G37*
G36*
Y426418D02*Y423582D01*
X64754D01*
Y426418D01*
X60202D01*
G37*
G36*
Y431418D02*Y428582D01*
X64754D01*
Y431418D01*
X60202D01*
G37*
G36*
Y436418D02*Y433582D01*
X64754D01*
Y436418D01*
X60202D01*
G37*
G36*
Y441418D02*Y438582D01*
X64754D01*
Y441418D01*
X60202D01*
G37*
G36*
Y461418D02*Y458582D01*
X64754D01*
Y461418D01*
X60202D01*
G37*
G36*
Y466418D02*Y463582D01*
X64754D01*
Y466418D01*
X60202D01*
G37*
G36*
Y471418D02*Y468582D01*
X64754D01*
Y471418D01*
X60202D01*
G37*
G36*
Y476418D02*Y473582D01*
X64754D01*
Y476418D01*
X60202D01*
G37*
G36*
X82548Y288016D02*Y282898D01*
X88452D01*
Y288016D01*
X82548D01*
G37*
G36*
Y295102D02*Y289984D01*
X88452D01*
Y295102D01*
X82548D01*
G37*
G36*
X92048Y288016D02*Y282898D01*
X97952D01*
Y288016D01*
X92048D01*
G37*
G36*
Y295102D02*Y289984D01*
X97952D01*
Y295102D01*
X92048D01*
G37*
G36*
X104048Y302602D02*Y297484D01*
X109952D01*
Y302602D01*
X104048D01*
G37*
G36*
Y295516D02*Y290398D01*
X109952D01*
Y295516D01*
X104048D01*
G37*
G36*
X117949Y287775D02*Y285413D01*
X124051D01*
Y287775D01*
X117949D01*
G37*
G36*
Y291712D02*Y289350D01*
X124051D01*
Y291712D01*
X117949D01*
G37*
G36*
Y295650D02*Y293288D01*
X124051D01*
Y295650D01*
X117949D01*
G37*
G36*
Y299587D02*Y297225D01*
X124051D01*
Y299587D01*
X117949D01*
G37*
G36*
X132713Y305886D02*Y301162D01*
X139799D01*
Y305886D01*
X132713D01*
G37*
G36*
Y318838D02*Y314114D01*
X139799D01*
Y318838D01*
X132713D01*
G37*
G36*
Y340886D02*Y336162D01*
X139799D01*
Y340886D01*
X132713D01*
G37*
G36*
Y353838D02*Y349114D01*
X139799D01*
Y353838D01*
X132713D01*
G37*
G36*
X82548Y323016D02*Y317898D01*
X88452D01*
Y323016D01*
X82548D01*
G37*
G36*
X92048D02*Y317898D01*
X97952D01*
Y323016D01*
X92048D01*
G37*
G36*
X117949Y322775D02*Y320413D01*
X124051D01*
Y322775D01*
X117949D01*
G37*
G36*
Y326712D02*Y324350D01*
X124051D01*
Y326712D01*
X117949D01*
G37*
G36*
Y330650D02*Y328288D01*
X124051D01*
Y330650D01*
X117949D01*
G37*
G36*
Y334587D02*Y332225D01*
X124051D01*
Y334587D01*
X117949D01*
G37*
G36*
X82548Y330102D02*Y324984D01*
X88452D01*
Y330102D01*
X82548D01*
G37*
G36*
X92048D02*Y324984D01*
X97952D01*
Y330102D01*
X92048D01*
G37*
G36*
X104048Y337602D02*Y332484D01*
X109952D01*
Y337602D01*
X104048D01*
G37*
G36*
Y330516D02*Y325398D01*
X109952D01*
Y330516D01*
X104048D01*
G37*
G36*
X60202Y356418D02*Y353582D01*
X64754D01*
Y356418D01*
X60202D01*
G37*
G36*
Y361418D02*Y358582D01*
X64754D01*
Y361418D01*
X60202D01*
G37*
G36*
Y366418D02*Y363582D01*
X64754D01*
Y366418D01*
X60202D01*
G37*
G36*
Y371418D02*Y368582D01*
X64754D01*
Y371418D01*
X60202D01*
G37*
G36*
Y391418D02*Y388582D01*
X64754D01*
Y391418D01*
X60202D01*
G37*
G36*
Y396418D02*Y393582D01*
X64754D01*
Y396418D01*
X60202D01*
G37*
G36*
Y401418D02*Y398582D01*
X64754D01*
Y401418D01*
X60202D01*
G37*
G36*
Y406418D02*Y403582D01*
X64754D01*
Y406418D01*
X60202D01*
G37*
G36*
X82548Y358016D02*Y352898D01*
X88452D01*
Y358016D01*
X82548D01*
G37*
G36*
Y365102D02*Y359984D01*
X88452D01*
Y365102D01*
X82548D01*
G37*
G36*
X92048Y358016D02*Y352898D01*
X97952D01*
Y358016D01*
X92048D01*
G37*
G36*
Y365102D02*Y359984D01*
X97952D01*
Y365102D01*
X92048D01*
G37*
G36*
X104048Y365516D02*Y360398D01*
X109952D01*
Y365516D01*
X104048D01*
G37*
G36*
Y372602D02*Y367484D01*
X109952D01*
Y372602D01*
X104048D01*
G37*
G36*
X132713Y375886D02*Y371162D01*
X139799D01*
Y375886D01*
X132713D01*
G37*
G36*
X117949Y357775D02*Y355413D01*
X124051D01*
Y357775D01*
X117949D01*
G37*
G36*
Y361712D02*Y359350D01*
X124051D01*
Y361712D01*
X117949D01*
G37*
G36*
Y365650D02*Y363288D01*
X124051D01*
Y365650D01*
X117949D01*
G37*
G36*
Y369587D02*Y367225D01*
X124051D01*
Y369587D01*
X117949D01*
G37*
G36*
Y392775D02*Y390413D01*
X124051D01*
Y392775D01*
X117949D01*
G37*
G36*
Y396712D02*Y394350D01*
X124051D01*
Y396712D01*
X117949D01*
G37*
G36*
Y400650D02*Y398288D01*
X124051D01*
Y400650D01*
X117949D01*
G37*
G36*
X132713Y388838D02*Y384114D01*
X139799D01*
Y388838D01*
X132713D01*
G37*
G36*
X117949Y404587D02*Y402225D01*
X124051D01*
Y404587D01*
X117949D01*
G37*
G36*
X132713Y410886D02*Y406162D01*
X139799D01*
Y410886D01*
X132713D01*
G37*
G36*
X117949Y427775D02*Y425413D01*
X124051D01*
Y427775D01*
X117949D01*
G37*
G36*
X132713Y423838D02*Y419114D01*
X139799D01*
Y423838D01*
X132713D01*
G37*
G36*
X117949Y431712D02*Y429350D01*
X124051D01*
Y431712D01*
X117949D01*
G37*
G36*
Y435650D02*Y433288D01*
X124051D01*
Y435650D01*
X117949D01*
G37*
G36*
Y439587D02*Y437225D01*
X124051D01*
Y439587D01*
X117949D01*
G37*
G36*
X132713Y445886D02*Y441162D01*
X139799D01*
Y445886D01*
X132713D01*
G37*
G36*
X82548Y393016D02*Y387898D01*
X88452D01*
Y393016D01*
X82548D01*
G37*
G36*
Y400102D02*Y394984D01*
X88452D01*
Y400102D01*
X82548D01*
G37*
G36*
X92048Y393016D02*Y387898D01*
X97952D01*
Y393016D01*
X92048D01*
G37*
G36*
Y400102D02*Y394984D01*
X97952D01*
Y400102D01*
X92048D01*
G37*
G36*
X104048Y407602D02*Y402484D01*
X109952D01*
Y407602D01*
X104048D01*
G37*
G36*
Y400516D02*Y395398D01*
X109952D01*
Y400516D01*
X104048D01*
G37*
G36*
X82548Y428016D02*Y422898D01*
X88452D01*
Y428016D01*
X82548D01*
G37*
G36*
Y435102D02*Y429984D01*
X88452D01*
Y435102D01*
X82548D01*
G37*
G36*
X92048Y428016D02*Y422898D01*
X97952D01*
Y428016D01*
X92048D01*
G37*
G36*
Y435102D02*Y429984D01*
X97952D01*
Y435102D01*
X92048D01*
G37*
G36*
X104048Y442602D02*Y437484D01*
X109952D01*
Y442602D01*
X104048D01*
G37*
G36*
Y435516D02*Y430398D01*
X109952D01*
Y435516D01*
X104048D01*
G37*
G54D15*X79900Y155300D03*
Y225300D03*
Y260300D03*
X69800Y149700D03*
Y219700D03*
Y254700D03*
X76200Y155300D03*
Y225300D03*
Y260300D03*
Y295300D03*
Y330300D03*
Y365300D03*
X79900Y190300D03*
X69800Y184700D03*
X76200Y190300D03*
X101500Y223500D03*
Y219500D03*
Y258500D03*
Y254500D03*
Y83500D03*
Y79500D03*
X79900Y85300D03*
X69800Y79700D03*
X76200Y85300D03*
X79900Y120300D03*
X69800Y114700D03*
X76200Y120300D03*
G54D16*X127500Y89000D03*
Y76000D03*
Y124000D03*
Y111000D03*
G54D15*X101500Y118500D03*
Y114500D03*
Y153500D03*
Y149500D03*
Y188500D03*
Y184500D03*
G54D16*X127500Y159000D03*
Y146000D03*
Y194000D03*
Y181000D03*
Y229000D03*
Y216000D03*
Y264000D03*
Y251000D03*
Y369000D03*
Y356000D03*
Y404000D03*
Y391000D03*
Y439000D03*
Y426000D03*
Y474000D03*
Y461000D03*
Y299000D03*
Y286000D03*
Y334000D03*
Y321000D03*
G54D15*X101500Y293500D03*
Y289500D03*
Y328500D03*
Y324500D03*
Y363500D03*
Y359500D03*
X79900Y295300D03*
Y330300D03*
Y365300D03*
Y400300D03*
X76200D03*
X79900Y435300D03*
X76200D03*
X79900Y470300D03*
X76200D03*
X69800Y289700D03*
Y324700D03*
Y359700D03*
Y394700D03*
Y429700D03*
Y464700D03*
X101500Y398500D03*
Y394500D03*
Y429500D03*
Y433500D03*
Y468500D03*
Y464500D03*
G54D17*G54D18*G54D17*G54D18*G54D17*G54D18*G54D17*G54D18*G54D13*G54D18*G54D17*G54D18*G54D17*G54D13*G54D18*G54D13*G54D18*G54D13*G54D17*G54D18*G54D17*G54D18*G54D17*G54D18*G54D17*G54D18*G54D17*G54D18*G54D17*G54D18*G54D17*G54D18*G54D17*M02*
