M48
INCH
T30C0.020
T29C0.014
%
T29
X006980Y046470
X006980Y042970
X006980Y039470
X006980Y035970
X006980Y032470
X006980Y028970
X006980Y025470
X006980Y021970
X006980Y018470
X006980Y014970
X006980Y011470
X006980Y007970
X007620Y047030
X007620Y043530
X007620Y040030
X007620Y036530
X007620Y033030
X007620Y029530
X007620Y026030
X007620Y022530
X007620Y019030
X007620Y015530
X007620Y012030
X007620Y008530
X007990Y047030
X007990Y043530
X007990Y040030
X007990Y036530
X007990Y033030
X007990Y029530
X007990Y026030
X007990Y022530
X007990Y019030
X007990Y015530
X007990Y012030
X007990Y008530
X010150Y046850
X010150Y046450
X010150Y043350
X010150Y042950
X010150Y039850
X010150Y039450
X010150Y036350
X010150Y035950
X010150Y032850
X010150Y032450
X010150Y029350
X010150Y028950
X010150Y025850
X010150Y025450
X010150Y022350
X010150Y021950
X010150Y018850
X010150Y018450
X010150Y015350
X010150Y014950
X010150Y011850
X010150Y011450
X010150Y008350
X010150Y007950
T30
X012750Y047400
X012750Y046100
X012750Y043900
X012750Y042600
X012750Y040400
X012750Y039100
X012750Y036900
X012750Y035600
X012750Y033400
X012750Y032100
X012750Y029900
X012750Y028600
X012750Y026400
X012750Y025100
X012750Y022900
X012750Y021600
X012750Y019400
X012750Y018100
X012750Y015900
X012750Y014600
X012750Y012400
X012750Y011100
X012750Y008900
X012750Y007600
M30
