G04 start of page 9 for group -4079 idx -4079 *
G04 Title: (unknown), topsilk *
G04 Creator: pcb 4.0.2 *
G04 CreationDate: Mon Jan 22 00:33:22 2024 UTC *
G04 For: railfan *
G04 Format: Gerber/RS-274X *
G04 PCB-Dimensions (mil): 3000.00 5500.00 *
G04 PCB-Coordinate-Origin: lower left *
%MOIN*%
%FSLAX25Y25*%
%LNTOPSILK*%
%ADD36C,0.0100*%
%ADD35C,0.0080*%
G54D35*X61000Y94500D02*X131500D01*
Y70500D02*X61000D01*
X62500Y50000D02*X138000D01*
X131500Y105500D02*X61000D01*
Y129500D02*X131500D01*
X61000Y164500D02*X131500D01*
Y140500D02*X61000D01*
Y199500D02*X131500D01*
Y210500D02*X61000D01*
X131500Y175500D02*X61000D01*
X62500Y500000D02*X138000D01*
X61000Y479500D02*X131500D01*
X61000Y234500D02*X131500D01*
X61000Y269500D02*X131500D01*
Y245500D02*X61000D01*
Y304500D02*X131500D01*
Y280500D02*X61000D01*
Y339500D02*X131500D01*
Y315500D02*X61000D01*
Y374500D02*X131500D01*
Y350500D02*X61000D01*
Y409500D02*X131500D01*
Y385500D02*X61000D01*
Y444500D02*X131500D01*
Y420500D02*X61000D01*
X131500Y455500D02*X61000D01*
X113500Y151240D02*X114260Y148200D01*
X115020Y151240D01*
X115040Y146230D02*X115425Y145845D01*
X113885Y146230D02*X115040D01*
X113500Y145845D02*X113885Y146230D01*
X113500Y145845D02*Y143535D01*
X113885Y143150D01*
X115040D01*
X115425Y143535D01*
Y144305D02*Y143535D01*
X115040Y144690D02*X115425Y144305D01*
X114270Y144690D02*X115040D01*
X113885Y156730D02*Y153650D01*
X114886Y156730D02*X115425Y156191D01*
Y154189D01*
X114886Y153650D02*X115425Y154189D01*
X113500Y153650D02*X114886D01*
X113500Y156730D02*X114886D01*
X114039Y158650D02*X115040D01*
X113500Y159189D02*X114039Y158650D01*
X113500Y161191D02*Y159189D01*
Y161191D02*X114039Y161730D01*
X115040D01*
X113500Y186240D02*X114260Y183200D01*
X115020Y186240D01*
X115040Y181230D02*X115425Y180845D01*
X113885Y181230D02*X115040D01*
X113500Y180845D02*X113885Y181230D01*
X113500Y180845D02*Y178535D01*
X113885Y178150D01*
X115040D01*
X115425Y178535D01*
Y179305D02*Y178535D01*
X115040Y179690D02*X115425Y179305D01*
X114270Y179690D02*X115040D01*
X113885Y191730D02*Y188650D01*
X114886Y191730D02*X115425Y191191D01*
Y189189D01*
X114886Y188650D02*X115425Y189189D01*
X113500Y188650D02*X114886D01*
X113500Y191730D02*X114886D01*
X114039Y193650D02*X115040D01*
X113500Y194189D02*X114039Y193650D01*
X113500Y196191D02*Y194189D01*
Y196191D02*X114039Y196730D01*
X115040D01*
X113500Y221240D02*X114260Y218200D01*
X115020Y221240D01*
X113885Y226730D02*Y223650D01*
X114886Y226730D02*X115425Y226191D01*
Y224189D01*
X114886Y223650D02*X115425Y224189D01*
X113500Y223650D02*X114886D01*
X113500Y226730D02*X114886D01*
X115040Y216230D02*X115425Y215845D01*
X113885Y216230D02*X115040D01*
X113500Y215845D02*X113885Y216230D01*
X113500Y215845D02*Y213535D01*
X113885Y213150D01*
X115040D01*
X115425Y213535D01*
Y214305D02*Y213535D01*
X115040Y214690D02*X115425Y214305D01*
X114270Y214690D02*X115040D01*
X113500Y116240D02*X114260Y113200D01*
X115020Y116240D01*
X113885Y121730D02*Y118650D01*
X114886Y121730D02*X115425Y121191D01*
Y119189D01*
X114886Y118650D02*X115425Y119189D01*
X113500Y118650D02*X114886D01*
X113500Y121730D02*X114886D01*
X114039Y123650D02*X115040D01*
X113500Y124189D02*X114039Y123650D01*
X113500Y126191D02*Y124189D01*
Y126191D02*X114039Y126730D01*
X115040D01*
X113500Y81240D02*X114260Y78200D01*
X115020Y81240D01*
X113885Y86730D02*Y83650D01*
X114886Y86730D02*X115425Y86191D01*
Y84189D01*
X114886Y83650D02*X115425Y84189D01*
X113500Y83650D02*X114886D01*
X113500Y86730D02*X114886D01*
X114039Y88650D02*X115040D01*
X113500Y89189D02*X114039Y88650D01*
X113500Y91191D02*Y89189D01*
Y91191D02*X114039Y91730D01*
X115040D01*
Y76230D02*X115425Y75845D01*
X113885Y76230D02*X115040D01*
X113500Y75845D02*X113885Y76230D01*
X113500Y75845D02*Y73535D01*
X113885Y73150D01*
X115040D01*
X115425Y73535D01*
Y74305D02*Y73535D01*
X115040Y74690D02*X115425Y74305D01*
X114270Y74690D02*X115040D01*
Y111230D02*X115425Y110845D01*
X113885Y111230D02*X115040D01*
X113500Y110845D02*X113885Y111230D01*
X113500Y110845D02*Y108535D01*
X113885Y108150D01*
X115040D01*
X115425Y108535D01*
Y109305D02*Y108535D01*
X115040Y109690D02*X115425Y109305D01*
X114270Y109690D02*X115040D01*
X114039Y228650D02*X115040D01*
X113500Y229189D02*X114039Y228650D01*
X113500Y231191D02*Y229189D01*
Y231191D02*X114039Y231730D01*
X115040D01*
X113500Y256240D02*X114260Y253200D01*
X115020Y256240D01*
X113885Y261730D02*Y258650D01*
X114886Y261730D02*X115425Y261191D01*
Y259189D01*
X114886Y258650D02*X115425Y259189D01*
X113500Y258650D02*X114886D01*
X113500Y261730D02*X114886D01*
X114039Y263650D02*X115040D01*
X113500Y264189D02*X114039Y263650D01*
X113500Y266191D02*Y264189D01*
Y266191D02*X114039Y266730D01*
X115040D01*
Y251230D02*X115425Y250845D01*
X113885Y251230D02*X115040D01*
X113500Y250845D02*X113885Y251230D01*
X113500Y250845D02*Y248535D01*
X113885Y248150D01*
X115040D01*
X115425Y248535D01*
Y249305D02*Y248535D01*
X115040Y249690D02*X115425Y249305D01*
X114270Y249690D02*X115040D01*
X113500Y291240D02*X114260Y288200D01*
X115020Y291240D01*
X113885Y296730D02*Y293650D01*
X114886Y296730D02*X115425Y296191D01*
Y294189D01*
X114886Y293650D02*X115425Y294189D01*
X113500Y293650D02*X114886D01*
X113500Y296730D02*X114886D01*
X114039Y298650D02*X115040D01*
X113500Y299189D02*X114039Y298650D01*
X113500Y301191D02*Y299189D01*
Y301191D02*X114039Y301730D01*
X115040D01*
Y286230D02*X115425Y285845D01*
X113885Y286230D02*X115040D01*
X113500Y285845D02*X113885Y286230D01*
X113500Y285845D02*Y283535D01*
X113885Y283150D01*
X115040D01*
X115425Y283535D01*
Y284305D02*Y283535D01*
X115040Y284690D02*X115425Y284305D01*
X114270Y284690D02*X115040D01*
X113500Y326240D02*X114260Y323200D01*
X115020Y326240D01*
X115040Y321230D02*X115425Y320845D01*
X113885Y321230D02*X115040D01*
X113500Y320845D02*X113885Y321230D01*
X113500Y320845D02*Y318535D01*
X113885Y318150D01*
X115040D01*
X115425Y318535D01*
Y319305D02*Y318535D01*
X115040Y319690D02*X115425Y319305D01*
X114270Y319690D02*X115040D01*
X113885Y331730D02*Y328650D01*
X114886Y331730D02*X115425Y331191D01*
Y329189D01*
X114886Y328650D02*X115425Y329189D01*
X113500Y328650D02*X114886D01*
X113500Y331730D02*X114886D01*
X114039Y333650D02*X115040D01*
X113500Y334189D02*X114039Y333650D01*
X113500Y336191D02*Y334189D01*
Y336191D02*X114039Y336730D01*
X115040D01*
Y356230D02*X115425Y355845D01*
X113885Y356230D02*X115040D01*
X113500Y355845D02*X113885Y356230D01*
X113500Y355845D02*Y353535D01*
X113885Y353150D01*
X115040D01*
X115425Y353535D01*
Y354305D02*Y353535D01*
X115040Y354690D02*X115425Y354305D01*
X114270Y354690D02*X115040D01*
X113500Y361240D02*X114260Y358200D01*
X115020Y361240D01*
X113885Y366730D02*Y363650D01*
X114886Y366730D02*X115425Y366191D01*
Y364189D01*
X114886Y363650D02*X115425Y364189D01*
X113500Y363650D02*X114886D01*
X113500Y366730D02*X114886D01*
X114039Y368650D02*X115040D01*
X113500Y369189D02*X114039Y368650D01*
X113500Y371191D02*Y369189D01*
Y371191D02*X114039Y371730D01*
X115040D01*
X113500Y396240D02*X114260Y393200D01*
X115020Y396240D01*
X115040Y391230D02*X115425Y390845D01*
X113885Y391230D02*X115040D01*
X113500Y390845D02*X113885Y391230D01*
X113500Y390845D02*Y388535D01*
X113885Y388150D01*
X115040D01*
X115425Y388535D01*
Y389305D02*Y388535D01*
X115040Y389690D02*X115425Y389305D01*
X114270Y389690D02*X115040D01*
X113885Y401730D02*Y398650D01*
X114886Y401730D02*X115425Y401191D01*
Y399189D01*
X114886Y398650D02*X115425Y399189D01*
X113500Y398650D02*X114886D01*
X113500Y401730D02*X114886D01*
X114039Y403650D02*X115040D01*
X113500Y404189D02*X114039Y403650D01*
X113500Y406191D02*Y404189D01*
Y406191D02*X114039Y406730D01*
X115040D01*
X113500Y431240D02*X114260Y428200D01*
X115020Y431240D01*
X113885Y436730D02*Y433650D01*
X114886Y436730D02*X115425Y436191D01*
Y434189D01*
X114886Y433650D02*X115425Y434189D01*
X113500Y433650D02*X114886D01*
X113500Y436730D02*X114886D01*
X114039Y438650D02*X115040D01*
X113500Y439189D02*X114039Y438650D01*
X113500Y441191D02*Y439189D01*
Y441191D02*X114039Y441730D01*
X115040D01*
Y426230D02*X115425Y425845D01*
X113885Y426230D02*X115040D01*
X113500Y425845D02*X113885Y426230D01*
X113500Y425845D02*Y423535D01*
X113885Y423150D01*
X115040D01*
X115425Y423535D01*
Y424305D02*Y423535D01*
X115040Y424690D02*X115425Y424305D01*
X114270Y424690D02*X115040D01*
X113500Y466240D02*X114260Y463200D01*
X115020Y466240D01*
X113885Y471730D02*Y468650D01*
X114886Y471730D02*X115425Y471191D01*
Y469189D01*
X114886Y468650D02*X115425Y469189D01*
X113500Y468650D02*X114886D01*
X113500Y471730D02*X114886D01*
X114039Y473650D02*X115040D01*
X113500Y474189D02*X114039Y473650D01*
X113500Y476191D02*Y474189D01*
Y476191D02*X114039Y476730D01*
X115040D01*
Y461230D02*X115425Y460845D01*
X113885Y461230D02*X115040D01*
X113500Y460845D02*X113885Y461230D01*
X113500Y460845D02*Y458535D01*
X113885Y458150D01*
X115040D01*
X115425Y458535D01*
Y459305D02*Y458535D01*
X115040Y459690D02*X115425Y459305D01*
X114270Y459690D02*X115040D01*
G54D36*X67837Y352732D02*G75*G03X67837Y352732I-500J0D01*G01*
X82745Y359393D02*Y358607D01*
X88255Y359393D02*Y358607D01*
X82745Y394393D02*Y393607D01*
X88255Y394393D02*Y393607D01*
X82745Y429393D02*Y428607D01*
X88255Y429393D02*Y428607D01*
X82745Y464393D02*Y463607D01*
X88255Y464393D02*Y463607D01*
X92245Y359393D02*Y358607D01*
X97755Y359393D02*Y358607D01*
X92245Y394393D02*Y393607D01*
X97755Y394393D02*Y393607D01*
X92245Y429393D02*Y428607D01*
X97755Y429393D02*Y428607D01*
X92245Y464393D02*Y463607D01*
X97755Y464393D02*Y463607D01*
X109755Y366893D02*Y366107D01*
X104245Y366893D02*Y366107D01*
X109755Y401893D02*Y401107D01*
X104245Y401893D02*Y401107D01*
X109755Y436893D02*Y436107D01*
X104245Y436893D02*Y436107D01*
X109755Y471893D02*Y471107D01*
X104245Y471893D02*Y471107D01*
X67837Y387732D02*G75*G03X67837Y387732I-500J0D01*G01*
Y422732D02*G75*G03X67837Y422732I-500J0D01*G01*
Y457732D02*G75*G03X67837Y457732I-500J0D01*G01*
X109755Y86893D02*Y86107D01*
X104245Y86893D02*Y86107D01*
X67837Y72732D02*G75*G03X67837Y72732I-500J0D01*G01*
X82745Y79393D02*Y78607D01*
X88255Y79393D02*Y78607D01*
X92245Y79393D02*Y78607D01*
X97755Y79393D02*Y78607D01*
X67837Y107732D02*G75*G03X67837Y107732I-500J0D01*G01*
Y142732D02*G75*G03X67837Y142732I-500J0D01*G01*
Y177732D02*G75*G03X67837Y177732I-500J0D01*G01*
Y212732D02*G75*G03X67837Y212732I-500J0D01*G01*
Y247732D02*G75*G03X67837Y247732I-500J0D01*G01*
Y317732D02*G75*G03X67837Y317732I-500J0D01*G01*
X82745Y114393D02*Y113607D01*
X88255Y114393D02*Y113607D01*
X82745Y149393D02*Y148607D01*
X88255Y149393D02*Y148607D01*
X82745Y219393D02*Y218607D01*
X88255Y219393D02*Y218607D01*
X82745Y254393D02*Y253607D01*
X88255Y254393D02*Y253607D01*
X82745Y289393D02*Y288607D01*
X88255Y289393D02*Y288607D01*
X82745Y324393D02*Y323607D01*
X88255Y324393D02*Y323607D01*
X92245Y114393D02*Y113607D01*
X97755Y114393D02*Y113607D01*
X109755Y121893D02*Y121107D01*
X104245Y121893D02*Y121107D01*
X92245Y149393D02*Y148607D01*
X97755Y149393D02*Y148607D01*
X109755Y156893D02*Y156107D01*
X104245Y156893D02*Y156107D01*
X82745Y184393D02*Y183607D01*
X88255Y184393D02*Y183607D01*
X92245Y184393D02*Y183607D01*
X97755Y184393D02*Y183607D01*
X109755Y191893D02*Y191107D01*
X104245Y191893D02*Y191107D01*
X92245Y219393D02*Y218607D01*
X97755Y219393D02*Y218607D01*
X109755Y226893D02*Y226107D01*
X104245Y226893D02*Y226107D01*
X92245Y254393D02*Y253607D01*
X97755Y254393D02*Y253607D01*
X109755Y261893D02*Y261107D01*
X104245Y261893D02*Y261107D01*
X67837Y282732D02*G75*G03X67837Y282732I-500J0D01*G01*
X92245Y289393D02*Y288607D01*
X97755Y289393D02*Y288607D01*
X109755Y296893D02*Y296107D01*
X104245Y296893D02*Y296107D01*
X92245Y324393D02*Y323607D01*
X97755Y324393D02*Y323607D01*
X109755Y331893D02*Y331107D01*
X104245Y331893D02*Y331107D01*
G54D35*X107250Y74960D02*Y73621D01*
X106529Y72900D02*X107250Y73621D01*
X103851Y72900D02*X106529D01*
X103851D02*X103130Y73621D01*
Y74960D02*Y73621D01*
X103954Y76196D02*X103130Y77020D01*
X107250D01*
Y77741D02*Y76196D01*
X132000Y82500D02*Y81700D01*
Y82500D02*X135500D01*
X136000Y82000D02*X135500Y82500D01*
X136000Y82000D02*Y81500D01*
X135500Y81000D02*X136000Y81500D01*
X135000Y81000D02*X135500D01*
X132800Y83700D02*X132000Y84500D01*
X136000D01*
Y85200D02*Y83700D01*
X87357Y89343D02*Y88043D01*
X86657Y87343D02*X87357Y88043D01*
X84057Y87343D02*X86657D01*
X84057D02*X83357Y88043D01*
Y89343D02*Y88043D01*
X83857Y90543D02*X83357Y91043D01*
Y92543D02*Y91043D01*
Y92543D02*X83857Y93043D01*
X84857D01*
X87357Y90543D02*X84857Y93043D01*
X87357D02*Y90543D01*
X93000Y89500D02*Y87500D01*
Y89500D02*X93500Y90000D01*
X94500D01*
X95000Y89500D02*X94500Y90000D01*
X95000Y89500D02*Y88000D01*
X93000D02*X97000D01*
X95000Y88800D02*X97000Y90000D01*
X93800Y91200D02*X93000Y92000D01*
X97000D01*
Y92700D02*Y91200D01*
X93000Y124500D02*Y122500D01*
Y124500D02*X93500Y125000D01*
X94500D01*
X95000Y124500D02*X94500Y125000D01*
X95000Y124500D02*Y123000D01*
X93000D02*X97000D01*
X95000Y123800D02*X97000Y125000D01*
X93800Y126200D02*X93000Y127000D01*
X97000D01*
Y127700D02*Y126200D01*
X107250Y109960D02*Y108621D01*
X106529Y107900D02*X107250Y108621D01*
X103851Y107900D02*X106529D01*
X103851D02*X103130Y108621D01*
Y109960D02*Y108621D01*
X103954Y111196D02*X103130Y112020D01*
X107250D01*
Y112741D02*Y111196D01*
X132000Y117500D02*Y116700D01*
Y117500D02*X135500D01*
X136000Y117000D02*X135500Y117500D01*
X136000Y117000D02*Y116500D01*
X135500Y116000D02*X136000Y116500D01*
X135000Y116000D02*X135500D01*
X132800Y118700D02*X132000Y119500D01*
X136000D01*
Y120200D02*Y118700D01*
X87357Y124343D02*Y123043D01*
X86657Y122343D02*X87357Y123043D01*
X84057Y122343D02*X86657D01*
X84057D02*X83357Y123043D01*
Y124343D02*Y123043D01*
X83857Y125543D02*X83357Y126043D01*
Y127543D02*Y126043D01*
Y127543D02*X83857Y128043D01*
X84857D01*
X87357Y125543D02*X84857Y128043D01*
X87357D02*Y125543D01*
Y159343D02*Y158043D01*
X86657Y157343D02*X87357Y158043D01*
X84057Y157343D02*X86657D01*
X84057D02*X83357Y158043D01*
Y159343D02*Y158043D01*
X83857Y160543D02*X83357Y161043D01*
Y162543D02*Y161043D01*
Y162543D02*X83857Y163043D01*
X84857D01*
X87357Y160543D02*X84857Y163043D01*
X87357D02*Y160543D01*
X93000Y159500D02*Y157500D01*
Y159500D02*X93500Y160000D01*
X94500D01*
X95000Y159500D02*X94500Y160000D01*
X95000Y159500D02*Y158000D01*
X93000D02*X97000D01*
X95000Y158800D02*X97000Y160000D01*
X93800Y161200D02*X93000Y162000D01*
X97000D01*
Y162700D02*Y161200D01*
X107250Y144960D02*Y143621D01*
X106529Y142900D02*X107250Y143621D01*
X103851Y142900D02*X106529D01*
X103851D02*X103130Y143621D01*
Y144960D02*Y143621D01*
X103954Y146196D02*X103130Y147020D01*
X107250D01*
Y147741D02*Y146196D01*
X132000Y152500D02*Y151700D01*
Y152500D02*X135500D01*
X136000Y152000D02*X135500Y152500D01*
X136000Y152000D02*Y151500D01*
X135500Y151000D02*X136000Y151500D01*
X135000Y151000D02*X135500D01*
X132800Y153700D02*X132000Y154500D01*
X136000D01*
Y155200D02*Y153700D01*
X132000Y187500D02*Y186700D01*
Y187500D02*X135500D01*
X136000Y187000D02*X135500Y187500D01*
X136000Y187000D02*Y186500D01*
X135500Y186000D02*X136000Y186500D01*
X135000Y186000D02*X135500D01*
X132800Y188700D02*X132000Y189500D01*
X136000D01*
Y190200D02*Y188700D01*
X87357Y194343D02*Y193043D01*
X86657Y192343D02*X87357Y193043D01*
X84057Y192343D02*X86657D01*
X84057D02*X83357Y193043D01*
Y194343D02*Y193043D01*
X83857Y195543D02*X83357Y196043D01*
Y197543D02*Y196043D01*
Y197543D02*X83857Y198043D01*
X84857D01*
X87357Y195543D02*X84857Y198043D01*
X87357D02*Y195543D01*
X93000Y194500D02*Y192500D01*
Y194500D02*X93500Y195000D01*
X94500D01*
X95000Y194500D02*X94500Y195000D01*
X95000Y194500D02*Y193000D01*
X93000D02*X97000D01*
X95000Y193800D02*X97000Y195000D01*
X93800Y196200D02*X93000Y197000D01*
X97000D01*
Y197700D02*Y196200D01*
X107250Y179960D02*Y178621D01*
X106529Y177900D02*X107250Y178621D01*
X103851Y177900D02*X106529D01*
X103851D02*X103130Y178621D01*
Y179960D02*Y178621D01*
X103954Y181196D02*X103130Y182020D01*
X107250D01*
Y182741D02*Y181196D01*
Y214960D02*Y213621D01*
X106529Y212900D02*X107250Y213621D01*
X103851Y212900D02*X106529D01*
X103851D02*X103130Y213621D01*
Y214960D02*Y213621D01*
X103954Y216196D02*X103130Y217020D01*
X107250D01*
Y217741D02*Y216196D01*
X87357Y229343D02*Y228043D01*
X86657Y227343D02*X87357Y228043D01*
X84057Y227343D02*X86657D01*
X84057D02*X83357Y228043D01*
Y229343D02*Y228043D01*
X83857Y230543D02*X83357Y231043D01*
Y232543D02*Y231043D01*
Y232543D02*X83857Y233043D01*
X84857D01*
X87357Y230543D02*X84857Y233043D01*
X87357D02*Y230543D01*
X107250Y249960D02*Y248621D01*
X106529Y247900D02*X107250Y248621D01*
X103851Y247900D02*X106529D01*
X103851D02*X103130Y248621D01*
Y249960D02*Y248621D01*
X103954Y251196D02*X103130Y252020D01*
X107250D01*
Y252741D02*Y251196D01*
X132000Y257500D02*Y256700D01*
Y257500D02*X135500D01*
X136000Y257000D02*X135500Y257500D01*
X136000Y257000D02*Y256500D01*
X135500Y256000D02*X136000Y256500D01*
X135000Y256000D02*X135500D01*
X132800Y258700D02*X132000Y259500D01*
X136000D01*
Y260200D02*Y258700D01*
X93000Y229500D02*Y227500D01*
Y229500D02*X93500Y230000D01*
X94500D01*
X95000Y229500D02*X94500Y230000D01*
X95000Y229500D02*Y228000D01*
X93000D02*X97000D01*
X95000Y228800D02*X97000Y230000D01*
X93800Y231200D02*X93000Y232000D01*
X97000D01*
Y232700D02*Y231200D01*
X132000Y222500D02*Y221700D01*
Y222500D02*X135500D01*
X136000Y222000D02*X135500Y222500D01*
X136000Y222000D02*Y221500D01*
X135500Y221000D02*X136000Y221500D01*
X135000Y221000D02*X135500D01*
X132800Y223700D02*X132000Y224500D01*
X136000D01*
Y225200D02*Y223700D01*
X87357Y264343D02*Y263043D01*
X86657Y262343D02*X87357Y263043D01*
X84057Y262343D02*X86657D01*
X84057D02*X83357Y263043D01*
Y264343D02*Y263043D01*
X83857Y265543D02*X83357Y266043D01*
Y267543D02*Y266043D01*
Y267543D02*X83857Y268043D01*
X84857D01*
X87357Y265543D02*X84857Y268043D01*
X87357D02*Y265543D01*
X93000Y264500D02*Y262500D01*
Y264500D02*X93500Y265000D01*
X94500D01*
X95000Y264500D02*X94500Y265000D01*
X95000Y264500D02*Y263000D01*
X93000D02*X97000D01*
X95000Y263800D02*X97000Y265000D01*
X93800Y266200D02*X93000Y267000D01*
X97000D01*
Y267700D02*Y266200D01*
X107250Y284960D02*Y283621D01*
X106529Y282900D02*X107250Y283621D01*
X103851Y282900D02*X106529D01*
X103851D02*X103130Y283621D01*
Y284960D02*Y283621D01*
X103954Y286196D02*X103130Y287020D01*
X107250D01*
Y287741D02*Y286196D01*
X132000Y292500D02*Y291700D01*
Y292500D02*X135500D01*
X136000Y292000D02*X135500Y292500D01*
X136000Y292000D02*Y291500D01*
X135500Y291000D02*X136000Y291500D01*
X135000Y291000D02*X135500D01*
X132800Y293700D02*X132000Y294500D01*
X136000D01*
Y295200D02*Y293700D01*
X87357Y299343D02*Y298043D01*
X86657Y297343D02*X87357Y298043D01*
X84057Y297343D02*X86657D01*
X84057D02*X83357Y298043D01*
Y299343D02*Y298043D01*
X83857Y300543D02*X83357Y301043D01*
Y302543D02*Y301043D01*
Y302543D02*X83857Y303043D01*
X84857D01*
X87357Y300543D02*X84857Y303043D01*
X87357D02*Y300543D01*
X93000Y299500D02*Y297500D01*
Y299500D02*X93500Y300000D01*
X94500D01*
X95000Y299500D02*X94500Y300000D01*
X95000Y299500D02*Y298000D01*
X93000D02*X97000D01*
X95000Y298800D02*X97000Y300000D01*
X93800Y301200D02*X93000Y302000D01*
X97000D01*
Y302700D02*Y301200D01*
X87357Y334343D02*Y333043D01*
X86657Y332343D02*X87357Y333043D01*
X84057Y332343D02*X86657D01*
X84057D02*X83357Y333043D01*
Y334343D02*Y333043D01*
X83857Y335543D02*X83357Y336043D01*
Y337543D02*Y336043D01*
Y337543D02*X83857Y338043D01*
X84857D01*
X87357Y335543D02*X84857Y338043D01*
X87357D02*Y335543D01*
X93000Y334500D02*Y332500D01*
Y334500D02*X93500Y335000D01*
X94500D01*
X95000Y334500D02*X94500Y335000D01*
X95000Y334500D02*Y333000D01*
X93000D02*X97000D01*
X95000Y333800D02*X97000Y335000D01*
X93800Y336200D02*X93000Y337000D01*
X97000D01*
Y337700D02*Y336200D01*
X107250Y319960D02*Y318621D01*
X106529Y317900D02*X107250Y318621D01*
X103851Y317900D02*X106529D01*
X103851D02*X103130Y318621D01*
Y319960D02*Y318621D01*
X103954Y321196D02*X103130Y322020D01*
X107250D01*
Y322741D02*Y321196D01*
Y354960D02*Y353621D01*
X106529Y352900D02*X107250Y353621D01*
X103851Y352900D02*X106529D01*
X103851D02*X103130Y353621D01*
Y354960D02*Y353621D01*
X103954Y356196D02*X103130Y357020D01*
X107250D01*
Y357741D02*Y356196D01*
X132000Y327500D02*Y326700D01*
Y327500D02*X135500D01*
X136000Y327000D02*X135500Y327500D01*
X136000Y327000D02*Y326500D01*
X135500Y326000D02*X136000Y326500D01*
X135000Y326000D02*X135500D01*
X132800Y328700D02*X132000Y329500D01*
X136000D01*
Y330200D02*Y328700D01*
X132000Y362500D02*Y361700D01*
Y362500D02*X135500D01*
X136000Y362000D02*X135500Y362500D01*
X136000Y362000D02*Y361500D01*
X135500Y361000D02*X136000Y361500D01*
X135000Y361000D02*X135500D01*
X132800Y363700D02*X132000Y364500D01*
X136000D01*
Y365200D02*Y363700D01*
X87357Y369343D02*Y368043D01*
X86657Y367343D02*X87357Y368043D01*
X84057Y367343D02*X86657D01*
X84057D02*X83357Y368043D01*
Y369343D02*Y368043D01*
X83857Y370543D02*X83357Y371043D01*
Y372543D02*Y371043D01*
Y372543D02*X83857Y373043D01*
X84857D01*
X87357Y370543D02*X84857Y373043D01*
X87357D02*Y370543D01*
X93000Y369500D02*Y367500D01*
Y369500D02*X93500Y370000D01*
X94500D01*
X95000Y369500D02*X94500Y370000D01*
X95000Y369500D02*Y368000D01*
X93000D02*X97000D01*
X95000Y368800D02*X97000Y370000D01*
X93800Y371200D02*X93000Y372000D01*
X97000D01*
Y372700D02*Y371200D01*
X87357Y404343D02*Y403043D01*
X86657Y402343D02*X87357Y403043D01*
X84057Y402343D02*X86657D01*
X84057D02*X83357Y403043D01*
Y404343D02*Y403043D01*
X83857Y405543D02*X83357Y406043D01*
Y407543D02*Y406043D01*
Y407543D02*X83857Y408043D01*
X84857D01*
X87357Y405543D02*X84857Y408043D01*
X87357D02*Y405543D01*
X93000Y404500D02*Y402500D01*
Y404500D02*X93500Y405000D01*
X94500D01*
X95000Y404500D02*X94500Y405000D01*
X95000Y404500D02*Y403000D01*
X93000D02*X97000D01*
X95000Y403800D02*X97000Y405000D01*
X93800Y406200D02*X93000Y407000D01*
X97000D01*
Y407700D02*Y406200D01*
X107250Y389960D02*Y388621D01*
X106529Y387900D02*X107250Y388621D01*
X103851Y387900D02*X106529D01*
X103851D02*X103130Y388621D01*
Y389960D02*Y388621D01*
X103954Y391196D02*X103130Y392020D01*
X107250D01*
Y392741D02*Y391196D01*
Y424960D02*Y423621D01*
X106529Y422900D02*X107250Y423621D01*
X103851Y422900D02*X106529D01*
X103851D02*X103130Y423621D01*
Y424960D02*Y423621D01*
X103954Y426196D02*X103130Y427020D01*
X107250D01*
Y427741D02*Y426196D01*
X132000Y397500D02*Y396700D01*
Y397500D02*X135500D01*
X136000Y397000D02*X135500Y397500D01*
X136000Y397000D02*Y396500D01*
X135500Y396000D02*X136000Y396500D01*
X135000Y396000D02*X135500D01*
X132800Y398700D02*X132000Y399500D01*
X136000D01*
Y400200D02*Y398700D01*
X132000Y432500D02*Y431700D01*
Y432500D02*X135500D01*
X136000Y432000D02*X135500Y432500D01*
X136000Y432000D02*Y431500D01*
X135500Y431000D02*X136000Y431500D01*
X135000Y431000D02*X135500D01*
X132800Y433700D02*X132000Y434500D01*
X136000D01*
Y435200D02*Y433700D01*
X87357Y439343D02*Y438043D01*
X86657Y437343D02*X87357Y438043D01*
X84057Y437343D02*X86657D01*
X84057D02*X83357Y438043D01*
Y439343D02*Y438043D01*
X83857Y440543D02*X83357Y441043D01*
Y442543D02*Y441043D01*
Y442543D02*X83857Y443043D01*
X84857D01*
X87357Y440543D02*X84857Y443043D01*
X87357D02*Y440543D01*
X93000Y439500D02*Y437500D01*
Y439500D02*X93500Y440000D01*
X94500D01*
X95000Y439500D02*X94500Y440000D01*
X95000Y439500D02*Y438000D01*
X93000D02*X97000D01*
X95000Y438800D02*X97000Y440000D01*
X93800Y441200D02*X93000Y442000D01*
X97000D01*
Y442700D02*Y441200D01*
X87357Y474343D02*Y473043D01*
X86657Y472343D02*X87357Y473043D01*
X84057Y472343D02*X86657D01*
X84057D02*X83357Y473043D01*
Y474343D02*Y473043D01*
X83857Y475543D02*X83357Y476043D01*
Y477543D02*Y476043D01*
Y477543D02*X83857Y478043D01*
X84857D01*
X87357Y475543D02*X84857Y478043D01*
X87357D02*Y475543D01*
X93000Y474500D02*Y472500D01*
Y474500D02*X93500Y475000D01*
X94500D01*
X95000Y474500D02*X94500Y475000D01*
X95000Y474500D02*Y473000D01*
X93000D02*X97000D01*
X95000Y473800D02*X97000Y475000D01*
X93800Y476200D02*X93000Y477000D01*
X97000D01*
Y477700D02*Y476200D01*
X107250Y459960D02*Y458621D01*
X106529Y457900D02*X107250Y458621D01*
X103851Y457900D02*X106529D01*
X103851D02*X103130Y458621D01*
Y459960D02*Y458621D01*
X103954Y461196D02*X103130Y462020D01*
X107250D01*
Y462741D02*Y461196D01*
X132000Y467500D02*Y466700D01*
Y467500D02*X135500D01*
X136000Y467000D02*X135500Y467500D01*
X136000Y467000D02*Y466500D01*
X135500Y466000D02*X136000Y466500D01*
X135000Y466000D02*X135500D01*
X132800Y468700D02*X132000Y469500D01*
X136000D01*
Y470200D02*Y468700D01*
M02*
