G04 start of page 11 for group -4015 idx -4015 *
G04 Title: (unknown), toppaste *
G04 Creator: pcb 4.0.2 *
G04 CreationDate: Mon Jan 22 00:33:22 2024 UTC *
G04 For: railfan *
G04 Format: Gerber/RS-274X *
G04 PCB-Dimensions (mil): 3000.00 5500.00 *
G04 PCB-Coordinate-Origin: lower left *
%MOIN*%
%FSLAX25Y25*%
%LNTOPPASTE*%
%ADD38C,0.0001*%
G54D38*G36*
X82548Y78016D02*Y72898D01*
X88452D01*
Y78016D01*
X82548D01*
G37*
G36*
Y85102D02*Y79984D01*
X88452D01*
Y85102D01*
X82548D01*
G37*
G36*
X92048Y78016D02*Y72898D01*
X97952D01*
Y78016D01*
X92048D01*
G37*
G36*
Y85102D02*Y79984D01*
X97952D01*
Y85102D01*
X92048D01*
G37*
G36*
X104048Y92602D02*Y87484D01*
X109952D01*
Y92602D01*
X104048D01*
G37*
G36*
Y85516D02*Y80398D01*
X109952D01*
Y85516D01*
X104048D01*
G37*
G36*
X117949Y77775D02*Y75413D01*
X124051D01*
Y77775D01*
X117949D01*
G37*
G36*
Y81712D02*Y79350D01*
X124051D01*
Y81712D01*
X117949D01*
G37*
G36*
Y85650D02*Y83288D01*
X124051D01*
Y85650D01*
X117949D01*
G37*
G36*
Y89587D02*Y87225D01*
X124051D01*
Y89587D01*
X117949D01*
G37*
G36*
X132713Y73838D02*Y69114D01*
X139799D01*
Y73838D01*
X132713D01*
G37*
G36*
Y95886D02*Y91162D01*
X139799D01*
Y95886D01*
X132713D01*
G37*
G36*
X82548Y113016D02*Y107898D01*
X88452D01*
Y113016D01*
X82548D01*
G37*
G36*
Y120102D02*Y114984D01*
X88452D01*
Y120102D01*
X82548D01*
G37*
G36*
X92048Y113016D02*Y107898D01*
X97952D01*
Y113016D01*
X92048D01*
G37*
G36*
Y120102D02*Y114984D01*
X97952D01*
Y120102D01*
X92048D01*
G37*
G36*
X104048Y127602D02*Y122484D01*
X109952D01*
Y127602D01*
X104048D01*
G37*
G36*
Y120516D02*Y115398D01*
X109952D01*
Y120516D01*
X104048D01*
G37*
G36*
X117949Y112775D02*Y110413D01*
X124051D01*
Y112775D01*
X117949D01*
G37*
G36*
Y116712D02*Y114350D01*
X124051D01*
Y116712D01*
X117949D01*
G37*
G36*
Y120650D02*Y118288D01*
X124051D01*
Y120650D01*
X117949D01*
G37*
G36*
Y124587D02*Y122225D01*
X124051D01*
Y124587D01*
X117949D01*
G37*
G36*
X132713Y108838D02*Y104114D01*
X139799D01*
Y108838D01*
X132713D01*
G37*
G36*
Y130886D02*Y126162D01*
X139799D01*
Y130886D01*
X132713D01*
G37*
G36*
X82548Y148016D02*Y142898D01*
X88452D01*
Y148016D01*
X82548D01*
G37*
G36*
Y155102D02*Y149984D01*
X88452D01*
Y155102D01*
X82548D01*
G37*
G36*
X92048Y148016D02*Y142898D01*
X97952D01*
Y148016D01*
X92048D01*
G37*
G36*
Y155102D02*Y149984D01*
X97952D01*
Y155102D01*
X92048D01*
G37*
G36*
X104048Y162602D02*Y157484D01*
X109952D01*
Y162602D01*
X104048D01*
G37*
G36*
Y155516D02*Y150398D01*
X109952D01*
Y155516D01*
X104048D01*
G37*
G36*
X117949Y147775D02*Y145413D01*
X124051D01*
Y147775D01*
X117949D01*
G37*
G36*
Y151712D02*Y149350D01*
X124051D01*
Y151712D01*
X117949D01*
G37*
G36*
Y155650D02*Y153288D01*
X124051D01*
Y155650D01*
X117949D01*
G37*
G36*
Y159587D02*Y157225D01*
X124051D01*
Y159587D01*
X117949D01*
G37*
G36*
X132713Y143838D02*Y139114D01*
X139799D01*
Y143838D01*
X132713D01*
G37*
G36*
Y165886D02*Y161162D01*
X139799D01*
Y165886D01*
X132713D01*
G37*
G36*
X82548Y183016D02*Y177898D01*
X88452D01*
Y183016D01*
X82548D01*
G37*
G36*
Y190102D02*Y184984D01*
X88452D01*
Y190102D01*
X82548D01*
G37*
G36*
X92048Y183016D02*Y177898D01*
X97952D01*
Y183016D01*
X92048D01*
G37*
G36*
Y190102D02*Y184984D01*
X97952D01*
Y190102D01*
X92048D01*
G37*
G36*
X104048Y197602D02*Y192484D01*
X109952D01*
Y197602D01*
X104048D01*
G37*
G36*
Y190516D02*Y185398D01*
X109952D01*
Y190516D01*
X104048D01*
G37*
G36*
X117949Y182775D02*Y180413D01*
X124051D01*
Y182775D01*
X117949D01*
G37*
G36*
Y186712D02*Y184350D01*
X124051D01*
Y186712D01*
X117949D01*
G37*
G36*
Y190650D02*Y188288D01*
X124051D01*
Y190650D01*
X117949D01*
G37*
G36*
Y194587D02*Y192225D01*
X124051D01*
Y194587D01*
X117949D01*
G37*
G36*
X132713Y178838D02*Y174114D01*
X139799D01*
Y178838D01*
X132713D01*
G37*
G36*
Y200886D02*Y196162D01*
X139799D01*
Y200886D01*
X132713D01*
G37*
G36*
X82548Y218016D02*Y212898D01*
X88452D01*
Y218016D01*
X82548D01*
G37*
G36*
Y225102D02*Y219984D01*
X88452D01*
Y225102D01*
X82548D01*
G37*
G36*
X92048Y218016D02*Y212898D01*
X97952D01*
Y218016D01*
X92048D01*
G37*
G36*
Y225102D02*Y219984D01*
X97952D01*
Y225102D01*
X92048D01*
G37*
G36*
X104048Y232602D02*Y227484D01*
X109952D01*
Y232602D01*
X104048D01*
G37*
G36*
Y225516D02*Y220398D01*
X109952D01*
Y225516D01*
X104048D01*
G37*
G36*
X117949Y217775D02*Y215413D01*
X124051D01*
Y217775D01*
X117949D01*
G37*
G36*
Y221712D02*Y219350D01*
X124051D01*
Y221712D01*
X117949D01*
G37*
G36*
Y225650D02*Y223288D01*
X124051D01*
Y225650D01*
X117949D01*
G37*
G36*
Y229587D02*Y227225D01*
X124051D01*
Y229587D01*
X117949D01*
G37*
G36*
X132713Y213838D02*Y209114D01*
X139799D01*
Y213838D01*
X132713D01*
G37*
G36*
Y235886D02*Y231162D01*
X139799D01*
Y235886D01*
X132713D01*
G37*
G36*
X82548Y253016D02*Y247898D01*
X88452D01*
Y253016D01*
X82548D01*
G37*
G36*
Y260102D02*Y254984D01*
X88452D01*
Y260102D01*
X82548D01*
G37*
G36*
X92048Y253016D02*Y247898D01*
X97952D01*
Y253016D01*
X92048D01*
G37*
G36*
Y260102D02*Y254984D01*
X97952D01*
Y260102D01*
X92048D01*
G37*
G36*
X104048Y267602D02*Y262484D01*
X109952D01*
Y267602D01*
X104048D01*
G37*
G36*
Y260516D02*Y255398D01*
X109952D01*
Y260516D01*
X104048D01*
G37*
G36*
X117949Y252775D02*Y250413D01*
X124051D01*
Y252775D01*
X117949D01*
G37*
G36*
Y256712D02*Y254350D01*
X124051D01*
Y256712D01*
X117949D01*
G37*
G36*
Y260650D02*Y258288D01*
X124051D01*
Y260650D01*
X117949D01*
G37*
G36*
Y264587D02*Y262225D01*
X124051D01*
Y264587D01*
X117949D01*
G37*
G36*
X132713Y248838D02*Y244114D01*
X139799D01*
Y248838D01*
X132713D01*
G37*
G36*
Y270886D02*Y266162D01*
X139799D01*
Y270886D01*
X132713D01*
G37*
G36*
X82548Y288016D02*Y282898D01*
X88452D01*
Y288016D01*
X82548D01*
G37*
G36*
Y295102D02*Y289984D01*
X88452D01*
Y295102D01*
X82548D01*
G37*
G36*
X92048Y288016D02*Y282898D01*
X97952D01*
Y288016D01*
X92048D01*
G37*
G36*
Y295102D02*Y289984D01*
X97952D01*
Y295102D01*
X92048D01*
G37*
G36*
X104048Y302602D02*Y297484D01*
X109952D01*
Y302602D01*
X104048D01*
G37*
G36*
Y295516D02*Y290398D01*
X109952D01*
Y295516D01*
X104048D01*
G37*
G36*
X117949Y287775D02*Y285413D01*
X124051D01*
Y287775D01*
X117949D01*
G37*
G36*
Y291712D02*Y289350D01*
X124051D01*
Y291712D01*
X117949D01*
G37*
G36*
Y295650D02*Y293288D01*
X124051D01*
Y295650D01*
X117949D01*
G37*
G36*
Y299587D02*Y297225D01*
X124051D01*
Y299587D01*
X117949D01*
G37*
G36*
X132713Y283838D02*Y279114D01*
X139799D01*
Y283838D01*
X132713D01*
G37*
G36*
Y305886D02*Y301162D01*
X139799D01*
Y305886D01*
X132713D01*
G37*
G36*
X82548Y323016D02*Y317898D01*
X88452D01*
Y323016D01*
X82548D01*
G37*
G36*
Y330102D02*Y324984D01*
X88452D01*
Y330102D01*
X82548D01*
G37*
G36*
X92048Y323016D02*Y317898D01*
X97952D01*
Y323016D01*
X92048D01*
G37*
G36*
Y330102D02*Y324984D01*
X97952D01*
Y330102D01*
X92048D01*
G37*
G36*
X104048Y337602D02*Y332484D01*
X109952D01*
Y337602D01*
X104048D01*
G37*
G36*
Y330516D02*Y325398D01*
X109952D01*
Y330516D01*
X104048D01*
G37*
G36*
X117949Y322775D02*Y320413D01*
X124051D01*
Y322775D01*
X117949D01*
G37*
G36*
Y326712D02*Y324350D01*
X124051D01*
Y326712D01*
X117949D01*
G37*
G36*
Y330650D02*Y328288D01*
X124051D01*
Y330650D01*
X117949D01*
G37*
G36*
Y334587D02*Y332225D01*
X124051D01*
Y334587D01*
X117949D01*
G37*
G36*
X132713Y318838D02*Y314114D01*
X139799D01*
Y318838D01*
X132713D01*
G37*
G36*
Y340886D02*Y336162D01*
X139799D01*
Y340886D01*
X132713D01*
G37*
G36*
X82548Y358016D02*Y352898D01*
X88452D01*
Y358016D01*
X82548D01*
G37*
G36*
Y365102D02*Y359984D01*
X88452D01*
Y365102D01*
X82548D01*
G37*
G36*
X92048Y358016D02*Y352898D01*
X97952D01*
Y358016D01*
X92048D01*
G37*
G36*
Y365102D02*Y359984D01*
X97952D01*
Y365102D01*
X92048D01*
G37*
G36*
X104048Y372602D02*Y367484D01*
X109952D01*
Y372602D01*
X104048D01*
G37*
G36*
Y365516D02*Y360398D01*
X109952D01*
Y365516D01*
X104048D01*
G37*
G36*
X117949Y357775D02*Y355413D01*
X124051D01*
Y357775D01*
X117949D01*
G37*
G36*
Y361712D02*Y359350D01*
X124051D01*
Y361712D01*
X117949D01*
G37*
G36*
Y365650D02*Y363288D01*
X124051D01*
Y365650D01*
X117949D01*
G37*
G36*
Y369587D02*Y367225D01*
X124051D01*
Y369587D01*
X117949D01*
G37*
G36*
X132713Y353838D02*Y349114D01*
X139799D01*
Y353838D01*
X132713D01*
G37*
G36*
Y375886D02*Y371162D01*
X139799D01*
Y375886D01*
X132713D01*
G37*
G36*
X82548Y393016D02*Y387898D01*
X88452D01*
Y393016D01*
X82548D01*
G37*
G36*
Y400102D02*Y394984D01*
X88452D01*
Y400102D01*
X82548D01*
G37*
G36*
X92048Y393016D02*Y387898D01*
X97952D01*
Y393016D01*
X92048D01*
G37*
G36*
Y400102D02*Y394984D01*
X97952D01*
Y400102D01*
X92048D01*
G37*
G36*
X104048Y407602D02*Y402484D01*
X109952D01*
Y407602D01*
X104048D01*
G37*
G36*
Y400516D02*Y395398D01*
X109952D01*
Y400516D01*
X104048D01*
G37*
G36*
X117949Y392775D02*Y390413D01*
X124051D01*
Y392775D01*
X117949D01*
G37*
G36*
Y396712D02*Y394350D01*
X124051D01*
Y396712D01*
X117949D01*
G37*
G36*
Y400650D02*Y398288D01*
X124051D01*
Y400650D01*
X117949D01*
G37*
G36*
Y404587D02*Y402225D01*
X124051D01*
Y404587D01*
X117949D01*
G37*
G36*
X132713Y388838D02*Y384114D01*
X139799D01*
Y388838D01*
X132713D01*
G37*
G36*
Y410886D02*Y406162D01*
X139799D01*
Y410886D01*
X132713D01*
G37*
G36*
X82548Y428016D02*Y422898D01*
X88452D01*
Y428016D01*
X82548D01*
G37*
G36*
Y435102D02*Y429984D01*
X88452D01*
Y435102D01*
X82548D01*
G37*
G36*
X92048Y428016D02*Y422898D01*
X97952D01*
Y428016D01*
X92048D01*
G37*
G36*
Y435102D02*Y429984D01*
X97952D01*
Y435102D01*
X92048D01*
G37*
G36*
X104048Y442602D02*Y437484D01*
X109952D01*
Y442602D01*
X104048D01*
G37*
G36*
Y435516D02*Y430398D01*
X109952D01*
Y435516D01*
X104048D01*
G37*
G36*
X117949Y427775D02*Y425413D01*
X124051D01*
Y427775D01*
X117949D01*
G37*
G36*
Y431712D02*Y429350D01*
X124051D01*
Y431712D01*
X117949D01*
G37*
G36*
Y435650D02*Y433288D01*
X124051D01*
Y435650D01*
X117949D01*
G37*
G36*
Y439587D02*Y437225D01*
X124051D01*
Y439587D01*
X117949D01*
G37*
G36*
X132713Y423838D02*Y419114D01*
X139799D01*
Y423838D01*
X132713D01*
G37*
G36*
Y445886D02*Y441162D01*
X139799D01*
Y445886D01*
X132713D01*
G37*
G36*
X82548Y463016D02*Y457898D01*
X88452D01*
Y463016D01*
X82548D01*
G37*
G36*
Y470102D02*Y464984D01*
X88452D01*
Y470102D01*
X82548D01*
G37*
G36*
X92048Y463016D02*Y457898D01*
X97952D01*
Y463016D01*
X92048D01*
G37*
G36*
Y470102D02*Y464984D01*
X97952D01*
Y470102D01*
X92048D01*
G37*
G36*
X104048Y477602D02*Y472484D01*
X109952D01*
Y477602D01*
X104048D01*
G37*
G36*
Y470516D02*Y465398D01*
X109952D01*
Y470516D01*
X104048D01*
G37*
G36*
X117949Y462775D02*Y460413D01*
X124051D01*
Y462775D01*
X117949D01*
G37*
G36*
Y466712D02*Y464350D01*
X124051D01*
Y466712D01*
X117949D01*
G37*
G36*
Y470650D02*Y468288D01*
X124051D01*
Y470650D01*
X117949D01*
G37*
G36*
Y474587D02*Y472225D01*
X124051D01*
Y474587D01*
X117949D01*
G37*
G36*
X132713Y458838D02*Y454114D01*
X139799D01*
Y458838D01*
X132713D01*
G37*
G36*
Y480886D02*Y476162D01*
X139799D01*
Y480886D01*
X132713D01*
G37*
M02*
