M48
INCH
T31C0.031
%
T31
X009500Y048900
X009500Y048100
X009500Y045400
X009500Y044600
X009500Y041900
X009500Y041100
X009500Y038400
X009500Y037600
X009500Y034900
X009500Y034100
X009500Y031400
X009500Y030600
X009500Y027900
X009500Y027100
X009500Y024400
X009500Y023600
X009500Y020900
X009500Y020100
X009500Y017400
X009500Y016600
X009500Y013900
X009500Y013100
X009500Y010400
X009500Y009600
X009500Y006900
X009500Y006100
X010000Y048900
X010000Y048100
X010000Y045400
X010000Y044600
X010000Y041900
X010000Y041100
X010000Y038400
X010000Y037600
X010000Y034900
X010000Y034100
X010000Y031400
X010000Y030600
X010000Y027900
X010000Y027100
X010000Y024400
X010000Y023600
X010000Y020900
X010000Y020100
X010000Y017400
X010000Y016600
X010000Y013900
X010000Y013100
X010000Y010400
X010000Y009600
X010000Y006900
X010000Y006100
X010500Y048900
X010500Y048100
X010500Y045400
X010500Y044600
X010500Y041900
X010500Y041100
X010500Y038400
X010500Y037600
X010500Y034900
X010500Y034100
X010500Y031400
X010500Y030600
X010500Y027900
X010500Y027100
X010500Y024400
X010500Y023600
X010500Y020900
X010500Y020100
X010500Y017400
X010500Y016600
X010500Y013900
X010500Y013100
X010500Y010400
X010500Y009600
X010500Y006900
X010500Y006100
M30
