G04 start of page 8 for group -4079 idx -4079 *
G04 Title: (unknown), topsilk *
G04 Creator: pcb 20140316 *
G04 CreationDate: Mon 02 Nov 2015 05:29:46 PM GMT UTC *
G04 For: ndholmes *
G04 Format: Gerber/RS-274X *
G04 PCB-Dimensions (mil): 1000.00 250.00 *
G04 PCB-Coordinate-Origin: lower left *
%MOIN*%
%FSLAX25Y25*%
%LNTOPSILK*%
%ADD36C,0.0100*%
%ADD35C,0.0080*%
G54D35*X70500Y4500D02*X75000D01*
X73500Y6000D01*
X75000Y4500D02*X73500Y3000D01*
X99500Y24500D02*Y500D01*
X94500D01*
X96500Y24500D02*X99500D01*
X1000D02*X97500D01*
Y500D02*X1000D01*
G54D36*X7837Y2732D02*G75*G03X7837Y2732I-500J0D01*G01*
X22745Y9393D02*Y8607D01*
X28255Y9393D02*Y8607D01*
X32245Y9393D02*Y8607D01*
X37755Y9393D02*Y8607D01*
X49755Y16893D02*Y16107D01*
X44245Y16893D02*Y16107D01*
G54D35*X27357Y19343D02*Y18043D01*
X26657Y17343D02*X27357Y18043D01*
X24057Y17343D02*X26657D01*
X24057D02*X23357Y18043D01*
Y19343D02*Y18043D01*
X23857Y20543D02*X23357Y21043D01*
Y22543D02*Y21043D01*
Y22543D02*X23857Y23043D01*
X24857D01*
X27357Y20543D02*X24857Y23043D01*
X27357D02*Y20543D01*
X33000Y19500D02*Y17500D01*
Y19500D02*X33500Y20000D01*
X34500D01*
X35000Y19500D02*X34500Y20000D01*
X35000Y19500D02*Y18000D01*
X33000D02*X37000D01*
X35000Y18800D02*X37000Y20000D01*
X33800Y21200D02*X33000Y22000D01*
X37000D01*
Y22700D02*Y21200D01*
X49250Y5460D02*Y4121D01*
X48529Y3400D02*X49250Y4121D01*
X45851Y3400D02*X48529D01*
X45851D02*X45130Y4121D01*
Y5460D02*Y4121D01*
X45954Y6696D02*X45130Y7520D01*
X49250D01*
Y8241D02*Y6696D01*
M02*
