G04 start of page 2 for group 0 idx 0 *
G04 Title: (unknown), top *
G04 Creator: pcb 20140316 *
G04 CreationDate: Mon 02 Nov 2015 05:29:46 PM GMT UTC *
G04 For: ndholmes *
G04 Format: Gerber/RS-274X *
G04 PCB-Dimensions (mil): 1000.00 250.00 *
G04 PCB-Coordinate-Origin: lower left *
%MOIN*%
%FSLAX25Y25*%
%LNTOP*%
%ADD17C,0.0330*%
%ADD16C,0.0140*%
%ADD15C,0.0300*%
%ADD14R,0.0512X0.0512*%
%ADD13R,0.0284X0.0284*%
%ADD12C,0.0700*%
%ADD11C,0.0001*%
G54D11*G36*
X1000Y23500D02*X38000D01*
Y18500D01*
X1000D01*
Y23500D01*
G37*
G36*
Y17500D02*X28500D01*
Y13000D01*
X1000D01*
Y17500D01*
G37*
G36*
Y12000D02*X12000D01*
Y7500D01*
X1000D01*
Y12000D01*
G37*
G36*
X33000Y23000D02*X49500D01*
Y18000D01*
X33000D01*
Y23000D01*
G37*
G36*
X31500Y23500D02*X48000D01*
Y18500D01*
X31500D01*
Y23500D01*
G37*
G36*
X32000D02*X38000D01*
Y9500D01*
X32000D01*
Y23500D01*
G37*
G36*
X36500D02*X53500D01*
Y17000D01*
X36500D01*
Y23500D01*
G37*
G36*
X1000Y6500D02*X38000D01*
Y1500D01*
X1000D01*
Y6500D01*
G37*
G36*
X39000Y16000D02*X50000D01*
Y1500D01*
X39000D01*
Y16000D01*
G37*
G36*
X92502Y23500D02*X97000D01*
Y15100D01*
X96987Y15401D01*
X96933Y15800D01*
X96844Y16191D01*
X96721Y16574D01*
X96564Y16944D01*
X96374Y17298D01*
X96329Y17363D01*
X96274Y17420D01*
X96210Y17468D01*
X96140Y17504D01*
X96065Y17530D01*
X95987Y17544D01*
X95908Y17545D01*
X95829Y17533D01*
X95754Y17510D01*
X95683Y17475D01*
X95618Y17429D01*
X95561Y17374D01*
X95513Y17311D01*
X95476Y17241D01*
X95451Y17166D01*
X95437Y17088D01*
X95436Y17008D01*
X95448Y16930D01*
X95471Y16854D01*
X95507Y16784D01*
X95657Y16510D01*
X95779Y16223D01*
X95875Y15926D01*
X95944Y15621D01*
X95986Y15312D01*
X96000Y15000D01*
X95986Y14688D01*
X95944Y14379D01*
X95875Y14074D01*
X95779Y13777D01*
X95657Y13490D01*
X95510Y13214D01*
X95474Y13145D01*
X95451Y13069D01*
X95440Y12991D01*
X95441Y12913D01*
X95454Y12835D01*
X95480Y12761D01*
X95516Y12691D01*
X95564Y12628D01*
X95620Y12573D01*
X95684Y12528D01*
X95755Y12493D01*
X95830Y12470D01*
X95908Y12459D01*
X95987Y12460D01*
X96064Y12473D01*
X96139Y12499D01*
X96208Y12535D01*
X96271Y12583D01*
X96326Y12639D01*
X96370Y12704D01*
X96564Y13056D01*
X96721Y13426D01*
X96844Y13809D01*
X96933Y14200D01*
X96987Y14599D01*
X97000Y14900D01*
Y1500D01*
X96991Y8657D01*
X96954Y8810D01*
X96894Y8955D01*
X96812Y9090D01*
X96709Y9209D01*
X96590Y9312D01*
X96455Y9394D01*
X96310Y9454D01*
X96157Y9491D01*
X96000Y9500D01*
X92502Y9495D01*
Y10496D01*
X92901Y10513D01*
X93300Y10567D01*
X93691Y10656D01*
X94074Y10779D01*
X94444Y10936D01*
X94798Y11126D01*
X94863Y11171D01*
X94920Y11226D01*
X94968Y11290D01*
X95004Y11360D01*
X95030Y11435D01*
X95044Y11513D01*
X95045Y11592D01*
X95033Y11671D01*
X95010Y11746D01*
X94975Y11817D01*
X94929Y11882D01*
X94874Y11939D01*
X94811Y11987D01*
X94741Y12024D01*
X94666Y12049D01*
X94588Y12063D01*
X94508Y12064D01*
X94430Y12052D01*
X94354Y12029D01*
X94284Y11993D01*
X94010Y11843D01*
X93723Y11721D01*
X93426Y11625D01*
X93121Y11556D01*
X92812Y11514D01*
X92502Y11500D01*
Y18500D01*
X92812Y18486D01*
X93121Y18444D01*
X93426Y18375D01*
X93723Y18279D01*
X94010Y18157D01*
X94286Y18010D01*
X94355Y17974D01*
X94431Y17951D01*
X94509Y17940D01*
X94587Y17941D01*
X94665Y17954D01*
X94739Y17980D01*
X94809Y18016D01*
X94872Y18064D01*
X94927Y18120D01*
X94972Y18184D01*
X95007Y18255D01*
X95030Y18330D01*
X95041Y18408D01*
X95040Y18487D01*
X95027Y18564D01*
X95001Y18639D01*
X94965Y18708D01*
X94917Y18771D01*
X94861Y18826D01*
X94796Y18870D01*
X94444Y19064D01*
X94074Y19221D01*
X93691Y19344D01*
X93300Y19433D01*
X92901Y19487D01*
X92502Y19504D01*
Y23500D01*
G37*
G36*
X88780D02*X92502D01*
Y19504D01*
X92500Y19504D01*
X92099Y19487D01*
X91700Y19433D01*
X91309Y19344D01*
X90926Y19221D01*
X90556Y19064D01*
X90202Y18874D01*
X90137Y18829D01*
X90080Y18774D01*
X90032Y18710D01*
X89996Y18640D01*
X89970Y18565D01*
X89956Y18487D01*
X89955Y18408D01*
X89967Y18329D01*
X89990Y18254D01*
X90025Y18183D01*
X90071Y18118D01*
X90126Y18061D01*
X90189Y18013D01*
X90259Y17976D01*
X90334Y17951D01*
X90412Y17937D01*
X90492Y17936D01*
X90570Y17948D01*
X90646Y17971D01*
X90716Y18007D01*
X90990Y18157D01*
X91277Y18279D01*
X91574Y18375D01*
X91879Y18444D01*
X92188Y18486D01*
X92500Y18500D01*
X92502Y18500D01*
Y11500D01*
X92500Y11500D01*
X92188Y11514D01*
X91879Y11556D01*
X91574Y11625D01*
X91277Y11721D01*
X90990Y11843D01*
X90714Y11990D01*
X90645Y12026D01*
X90569Y12049D01*
X90491Y12060D01*
X90413Y12059D01*
X90335Y12046D01*
X90261Y12020D01*
X90191Y11984D01*
X90128Y11936D01*
X90073Y11880D01*
X90028Y11816D01*
X89993Y11745D01*
X89970Y11670D01*
X89959Y11592D01*
X89960Y11513D01*
X89973Y11436D01*
X89999Y11361D01*
X90035Y11292D01*
X90083Y11229D01*
X90139Y11174D01*
X90204Y11130D01*
X90556Y10936D01*
X90926Y10779D01*
X91309Y10656D01*
X91700Y10567D01*
X92099Y10513D01*
X92500Y10496D01*
X92502Y10496D01*
Y9495D01*
X88843Y9491D01*
X88780Y9476D01*
Y12540D01*
X88790Y12532D01*
X88860Y12496D01*
X88935Y12470D01*
X89013Y12456D01*
X89092Y12455D01*
X89171Y12467D01*
X89246Y12490D01*
X89317Y12525D01*
X89382Y12571D01*
X89439Y12626D01*
X89487Y12689D01*
X89524Y12759D01*
X89549Y12834D01*
X89563Y12912D01*
X89564Y12992D01*
X89552Y13070D01*
X89529Y13146D01*
X89493Y13216D01*
X89343Y13490D01*
X89221Y13777D01*
X89125Y14074D01*
X89056Y14379D01*
X89014Y14688D01*
X89000Y15000D01*
X89014Y15312D01*
X89056Y15621D01*
X89125Y15926D01*
X89221Y16223D01*
X89343Y16510D01*
X89490Y16786D01*
X89526Y16855D01*
X89549Y16931D01*
X89560Y17009D01*
X89559Y17087D01*
X89546Y17165D01*
X89520Y17239D01*
X89484Y17309D01*
X89436Y17372D01*
X89380Y17427D01*
X89316Y17472D01*
X89245Y17507D01*
X89170Y17530D01*
X89092Y17541D01*
X89013Y17540D01*
X88936Y17527D01*
X88861Y17501D01*
X88792Y17465D01*
X88780Y17456D01*
Y23500D01*
G37*
G36*
X82493Y15487D02*X82500Y15486D01*
X83206Y15542D01*
X83895Y15707D01*
X84549Y15978D01*
X85153Y16348D01*
X85692Y16808D01*
X86152Y17347D01*
X86522Y17951D01*
X86793Y18605D01*
X86958Y19294D01*
X87000Y20000D01*
X86958Y20706D01*
X86793Y21395D01*
X86522Y22049D01*
X86152Y22653D01*
X85692Y23192D01*
X85331Y23500D01*
X88780D01*
Y17456D01*
X88729Y17417D01*
X88674Y17361D01*
X88630Y17296D01*
X88436Y16944D01*
X88279Y16574D01*
X88156Y16191D01*
X88067Y15800D01*
X88013Y15401D01*
X87996Y15000D01*
X88013Y14599D01*
X88067Y14200D01*
X88156Y13809D01*
X88279Y13426D01*
X88436Y13056D01*
X88626Y12702D01*
X88671Y12637D01*
X88726Y12580D01*
X88780Y12540D01*
Y9476D01*
X88690Y9454D01*
X88545Y9394D01*
X88410Y9312D01*
X88291Y9209D01*
X88188Y9090D01*
X88106Y8955D01*
X88046Y8810D01*
X88009Y8657D01*
X88000Y8500D01*
X88009Y1500D01*
X82493D01*
Y5487D01*
X82500Y5486D01*
X83206Y5542D01*
X83895Y5707D01*
X84549Y5978D01*
X85153Y6348D01*
X85692Y6808D01*
X86152Y7347D01*
X86522Y7951D01*
X86793Y8605D01*
X86958Y9294D01*
X87000Y10000D01*
X86958Y10706D01*
X86793Y11395D01*
X86522Y12049D01*
X86152Y12653D01*
X85692Y13192D01*
X85153Y13652D01*
X84549Y14022D01*
X83895Y14293D01*
X83206Y14458D01*
X82500Y14514D01*
X82493Y14513D01*
Y15487D01*
G37*
G36*
X51000Y23500D02*X79669D01*
X79308Y23192D01*
X78848Y22653D01*
X78478Y22049D01*
X78207Y21395D01*
X78042Y20706D01*
X77986Y20000D01*
X78042Y19294D01*
X78207Y18605D01*
X78478Y17951D01*
X78848Y17347D01*
X79308Y16808D01*
X79847Y16348D01*
X80451Y15978D01*
X81105Y15707D01*
X81794Y15542D01*
X82493Y15487D01*
Y14513D01*
X81794Y14458D01*
X81105Y14293D01*
X80451Y14022D01*
X79847Y13652D01*
X79308Y13192D01*
X78848Y12653D01*
X78478Y12049D01*
X78207Y11395D01*
X78042Y10706D01*
X77986Y10000D01*
X78042Y9294D01*
X78207Y8605D01*
X78478Y7951D01*
X78848Y7347D01*
X79308Y6808D01*
X79847Y6348D01*
X80451Y5978D01*
X81105Y5707D01*
X81794Y5542D01*
X82493Y5487D01*
Y1500D01*
X51000D01*
Y23500D01*
G37*
G36*
X96220D02*X98500D01*
Y1500D01*
X97000D01*
X96991Y8657D01*
X96954Y8810D01*
X96894Y8955D01*
X96812Y9090D01*
X96709Y9209D01*
X96590Y9312D01*
X96455Y9394D01*
X96310Y9454D01*
X96220Y9476D01*
Y12544D01*
X96271Y12583D01*
X96326Y12639D01*
X96370Y12704D01*
X96564Y13056D01*
X96721Y13426D01*
X96844Y13809D01*
X96933Y14200D01*
X96987Y14599D01*
X97004Y15000D01*
X96987Y15401D01*
X96933Y15800D01*
X96844Y16191D01*
X96721Y16574D01*
X96564Y16944D01*
X96374Y17298D01*
X96329Y17363D01*
X96274Y17420D01*
X96220Y17460D01*
Y23500D01*
G37*
G36*
X90500D02*X96220D01*
Y17460D01*
X96210Y17468D01*
X96140Y17504D01*
X96065Y17530D01*
X95987Y17544D01*
X95908Y17545D01*
X95829Y17533D01*
X95754Y17510D01*
X95683Y17475D01*
X95618Y17429D01*
X95561Y17374D01*
X95513Y17311D01*
X95476Y17241D01*
X95451Y17166D01*
X95437Y17088D01*
X95436Y17008D01*
X95448Y16930D01*
X95471Y16854D01*
X95507Y16784D01*
X95657Y16510D01*
X95779Y16223D01*
X95875Y15926D01*
X95944Y15621D01*
X95986Y15312D01*
X96000Y15000D01*
X95986Y14688D01*
X95944Y14379D01*
X95875Y14074D01*
X95779Y13777D01*
X95657Y13490D01*
X95510Y13214D01*
X95474Y13145D01*
X95451Y13069D01*
X95440Y12991D01*
X95441Y12913D01*
X95454Y12835D01*
X95480Y12761D01*
X95516Y12691D01*
X95564Y12628D01*
X95620Y12573D01*
X95684Y12528D01*
X95755Y12493D01*
X95830Y12470D01*
X95908Y12459D01*
X95987Y12460D01*
X96064Y12473D01*
X96139Y12499D01*
X96208Y12535D01*
X96220Y12544D01*
Y9476D01*
X96157Y9491D01*
X96000Y9500D01*
X90500Y9493D01*
Y10967D01*
X90556Y10936D01*
X90926Y10779D01*
X91309Y10656D01*
X91700Y10567D01*
X92099Y10513D01*
X92500Y10496D01*
X92901Y10513D01*
X93300Y10567D01*
X93691Y10656D01*
X94074Y10779D01*
X94444Y10936D01*
X94798Y11126D01*
X94863Y11171D01*
X94920Y11226D01*
X94968Y11290D01*
X95004Y11360D01*
X95030Y11435D01*
X95044Y11513D01*
X95045Y11592D01*
X95033Y11671D01*
X95010Y11746D01*
X94975Y11817D01*
X94929Y11882D01*
X94874Y11939D01*
X94811Y11987D01*
X94741Y12024D01*
X94666Y12049D01*
X94588Y12063D01*
X94508Y12064D01*
X94430Y12052D01*
X94354Y12029D01*
X94284Y11993D01*
X94010Y11843D01*
X93723Y11721D01*
X93426Y11625D01*
X93121Y11556D01*
X92812Y11514D01*
X92500Y11500D01*
X92188Y11514D01*
X91879Y11556D01*
X91574Y11625D01*
X91277Y11721D01*
X90990Y11843D01*
X90714Y11990D01*
X90645Y12026D01*
X90569Y12049D01*
X90500Y12059D01*
Y17937D01*
X90570Y17948D01*
X90646Y17971D01*
X90716Y18007D01*
X90990Y18157D01*
X91277Y18279D01*
X91574Y18375D01*
X91879Y18444D01*
X92188Y18486D01*
X92500Y18500D01*
X92812Y18486D01*
X93121Y18444D01*
X93426Y18375D01*
X93723Y18279D01*
X94010Y18157D01*
X94286Y18010D01*
X94355Y17974D01*
X94431Y17951D01*
X94509Y17940D01*
X94587Y17941D01*
X94665Y17954D01*
X94739Y17980D01*
X94809Y18016D01*
X94872Y18064D01*
X94927Y18120D01*
X94972Y18184D01*
X95007Y18255D01*
X95030Y18330D01*
X95041Y18408D01*
X95040Y18487D01*
X95027Y18564D01*
X95001Y18639D01*
X94965Y18708D01*
X94917Y18771D01*
X94861Y18826D01*
X94796Y18870D01*
X94444Y19064D01*
X94074Y19221D01*
X93691Y19344D01*
X93300Y19433D01*
X92901Y19487D01*
X92500Y19504D01*
X92099Y19487D01*
X91700Y19433D01*
X91309Y19344D01*
X90926Y19221D01*
X90556Y19064D01*
X90500Y19033D01*
Y23500D01*
G37*
G36*
X89000Y8500D02*Y1500D01*
X96000D01*
Y8500D01*
X89000D01*
G37*
G54D12*X82500Y10000D03*
X92500Y15000D03*
X82500Y20000D03*
G54D13*X1419Y15000D02*X3337D01*
X1419Y20000D02*X3337D01*
X1419Y5000D02*X3337D01*
X1419Y10000D02*X3337D01*
G54D14*X25107Y5457D02*X25893D01*
X25107Y12543D02*X25893D01*
X34607Y5457D02*X35393D01*
X34607Y12543D02*X35393D01*
X46607Y20043D02*X47393D01*
X46607Y12957D02*X47393D01*
G54D15*X41500Y13500D03*
Y9500D03*
X19900Y15300D03*
X16200D03*
X9800Y9700D03*
G54D16*G54D17*M02*
