G04 start of page 3 for group 1 idx 1 *
G04 Title: (unknown), bottom *
G04 Creator: pcb 4.0.2 *
G04 CreationDate: Thu Oct 28 15:19:50 2021 UTC *
G04 For: ndholmes *
G04 Format: Gerber/RS-274X *
G04 PCB-Dimensions (mil): 4900.00 1150.00 *
G04 PCB-Coordinate-Origin: lower left *
%MOIN*%
%FSLAX25Y25*%
%LNBOTTOM*%
%ADD20C,0.0130*%
%ADD19C,0.0270*%
%ADD18C,0.0001*%
%ADD17C,0.0394*%
%ADD16C,0.0250*%
G54D16*X198500Y84500D02*X200000Y86000D01*
Y87900D02*Y86000D01*
X194500Y84500D02*X195000Y85000D01*
Y87900D02*Y85000D01*
X190500Y84500D02*X190000Y85000D01*
Y87900D02*Y85000D01*
X229500Y84500D02*X230000Y85000D01*
X225500Y84500D02*X225000Y85000D01*
Y87900D02*Y85000D01*
X221500Y84500D02*X220000Y86000D01*
Y87900D02*Y86000D01*
X186500Y100500D02*X185000Y99000D01*
Y97100D01*
X190500Y100500D02*X190000Y100000D01*
X194500Y100500D02*X195000Y100000D01*
Y97100D01*
X198500Y100500D02*X200000Y99000D01*
Y97100D01*
X190000Y100000D02*Y97100D01*
X233500Y84500D02*X235000Y86000D01*
Y87900D02*Y86000D01*
X230000Y87900D02*Y85000D01*
X256500Y84500D02*X255000Y86000D01*
Y87900D02*Y86000D01*
X221500Y100500D02*X220000Y99000D01*
Y97100D01*
X225500Y100500D02*X225000Y100000D01*
Y97100D01*
X229500Y100500D02*X230000Y100000D01*
Y97100D01*
X233500Y100500D02*X235000Y99000D01*
Y97100D01*
X268500Y84500D02*X270000Y86000D01*
Y87900D02*Y86000D01*
X264500Y84500D02*X265000Y85000D01*
Y87900D02*Y85000D01*
X260500Y84500D02*X260000Y85000D01*
Y87900D02*Y85000D01*
X299500Y84500D02*X300000Y85000D01*
X295500Y84500D02*X295000Y85000D01*
Y87900D02*Y85000D01*
X291500Y84500D02*X290000Y86000D01*
Y87900D02*Y86000D01*
X256500Y100500D02*X255000Y99000D01*
Y97100D01*
X260500Y100500D02*X260000Y100000D01*
X264500Y100500D02*X265000Y100000D01*
Y97100D01*
X268500Y100500D02*X270000Y99000D01*
Y97100D01*
X260000Y100000D02*Y97100D01*
X303500Y84500D02*X305000Y86000D01*
Y87900D02*Y86000D01*
X300000Y87900D02*Y85000D01*
X326500Y84500D02*X325000Y86000D01*
Y87900D02*Y86000D01*
X291500Y100500D02*X290000Y99000D01*
Y97100D01*
X295500Y100500D02*X295000Y100000D01*
Y97100D01*
X299500Y100500D02*X300000Y100000D01*
Y97100D01*
X303500Y100500D02*X305000Y99000D01*
Y97100D01*
X338500Y84500D02*X340000Y86000D01*
Y87900D02*Y86000D01*
X334500Y84500D02*X335000Y85000D01*
Y87900D02*Y85000D01*
X330500Y84500D02*X330000Y85000D01*
Y87900D02*Y85000D01*
X369500Y84500D02*X370000Y85000D01*
X365500Y84500D02*X365000Y85000D01*
Y87900D02*Y85000D01*
X361500Y84500D02*X360000Y86000D01*
Y87900D02*Y86000D01*
X326500Y100500D02*X325000Y99000D01*
Y97100D01*
X330500Y100500D02*X330000Y100000D01*
X334500Y100500D02*X335000Y100000D01*
Y97100D01*
X338500Y100500D02*X340000Y99000D01*
Y97100D01*
X330000Y100000D02*Y97100D01*
X373500Y84500D02*X375000Y86000D01*
Y87900D02*Y86000D01*
X370000Y87900D02*Y85000D01*
X396500Y84500D02*X395000Y86000D01*
Y87900D02*Y86000D01*
X361500Y100500D02*X360000Y99000D01*
Y97100D01*
X365500Y100500D02*X365000Y100000D01*
Y97100D01*
X369500Y100500D02*X370000Y100000D01*
Y97100D01*
X373500Y100500D02*X375000Y99000D01*
Y97100D01*
X408500Y84500D02*X410000Y86000D01*
Y87900D02*Y86000D01*
X404500Y84500D02*X405000Y85000D01*
Y87900D02*Y85000D01*
X400500Y84500D02*X400000Y85000D01*
Y87900D02*Y85000D01*
X443500Y84500D02*X445000Y86000D01*
Y87900D02*Y86000D01*
X439500Y84500D02*X440000Y85000D01*
Y87900D02*Y85000D01*
X435500Y84500D02*X435000Y85000D01*
Y87900D02*Y85000D01*
X431500Y84500D02*X430000Y86000D01*
Y87900D02*Y86000D01*
X396500Y100500D02*X395000Y99000D01*
Y97100D01*
X400500Y100500D02*X400000Y100000D01*
X404500Y100500D02*X405000Y100000D01*
Y97100D01*
X408500Y100500D02*X410000Y99000D01*
Y97100D01*
X400000Y100000D02*Y97100D01*
X431500Y100500D02*X430000Y99000D01*
Y97100D01*
X435500Y100500D02*X435000Y100000D01*
Y97100D01*
X439500Y100500D02*X440000Y100000D01*
Y97100D01*
X443500Y100500D02*X445000Y99000D01*
Y97100D01*
X128500Y84500D02*X130000Y86000D01*
Y87900D02*Y86000D01*
X124500Y84500D02*X125000Y85000D01*
Y87900D02*Y85000D01*
X120500Y84500D02*X120000Y85000D01*
Y87900D02*Y85000D01*
X116500Y84500D02*X115000Y86000D01*
Y87900D02*Y86000D01*
X159500Y84500D02*X160000Y85000D01*
X155500Y84500D02*X155000Y85000D01*
Y87900D02*Y85000D01*
X151500Y84500D02*X150000Y86000D01*
Y87900D02*Y86000D01*
X116500Y100500D02*X115000Y99000D01*
Y97100D01*
X120500Y100500D02*X120000Y100000D01*
X124500Y100500D02*X125000Y100000D01*
Y97100D01*
X128500Y100500D02*X130000Y99000D01*
Y97100D01*
X120000Y100000D02*Y97100D01*
X163500Y84500D02*X165000Y86000D01*
Y87900D02*Y86000D01*
X160000Y87900D02*Y85000D01*
X186500Y84500D02*X185000Y86000D01*
Y87900D02*Y86000D01*
X151500Y100500D02*X150000Y99000D01*
Y97100D01*
X155500Y100500D02*X155000Y100000D01*
Y97100D01*
X159500Y100500D02*X160000Y100000D01*
Y97100D01*
X163500Y100500D02*X165000Y99000D01*
Y97100D01*
X93500Y84500D02*X95000Y86000D01*
Y87900D02*Y86000D01*
X89500Y84500D02*X90000Y85000D01*
Y87900D02*Y85000D01*
X85500Y84500D02*X85000Y85000D01*
Y87900D02*Y85000D01*
X81500Y84500D02*X80000Y86000D01*
Y87900D02*Y86000D01*
X50500Y84500D02*X50000Y85000D01*
Y87900D02*Y85000D01*
X46500Y84500D02*X45000Y86000D01*
Y87900D02*Y86000D01*
X58500Y84500D02*X60000Y86000D01*
Y87900D02*Y86000D01*
X54500Y84500D02*X55000Y85000D01*
Y87900D02*Y85000D01*
X46500Y100500D02*X45000Y99000D01*
Y97100D01*
X50500Y100500D02*X50000Y100000D01*
X54500Y100500D02*X55000Y100000D01*
Y97100D01*
X58500Y100500D02*X60000Y99000D01*
Y97100D01*
X50000Y100000D02*Y97100D01*
X81500Y100500D02*X80000Y99000D01*
Y97100D01*
X85500Y100500D02*X85000Y100000D01*
Y97100D01*
X89500Y100500D02*X90000Y100000D01*
Y97100D01*
X93500Y100500D02*X95000Y99000D01*
Y97100D01*
X58500Y49500D02*X60000Y51000D01*
Y52900D02*Y51000D01*
X54500Y49500D02*X55000Y50000D01*
Y52900D02*Y50000D01*
X50500Y49500D02*X50000Y50000D01*
Y52900D02*Y50000D01*
X46500Y49500D02*X45000Y51000D01*
Y52900D02*Y51000D01*
X46500Y65500D02*X45000Y64000D01*
Y62100D01*
X50500Y65500D02*X50000Y65000D01*
Y62100D01*
X54500Y65500D02*X55000Y65000D01*
Y62100D01*
X58500Y65500D02*X60000Y64000D01*
Y62100D01*
X58500Y14500D02*X60000Y16000D01*
Y17900D02*Y16000D01*
X54500Y14500D02*X55000Y15000D01*
Y17900D02*Y15000D01*
X50500Y14500D02*X50000Y15000D01*
Y17900D02*Y15000D01*
X46500Y14500D02*X45000Y16000D01*
Y17900D02*Y16000D01*
X46500Y30500D02*X45000Y29000D01*
Y27100D01*
X50500Y30500D02*X50000Y30000D01*
X54500Y30500D02*X55000Y30000D01*
Y27100D01*
X58500Y30500D02*X60000Y29000D01*
Y27100D01*
X50000Y30000D02*Y27100D01*
X93500Y49500D02*X95000Y51000D01*
Y52900D02*Y51000D01*
X89500Y49500D02*X90000Y50000D01*
Y52900D02*Y50000D01*
X85500Y49500D02*X85000Y50000D01*
Y52900D02*Y50000D01*
X81500Y49500D02*X80000Y51000D01*
Y52900D02*Y51000D01*
X124500Y49500D02*X125000Y50000D01*
X120500Y49500D02*X120000Y50000D01*
Y52900D02*Y50000D01*
X116500Y49500D02*X115000Y51000D01*
Y52900D02*Y51000D01*
X81500Y65500D02*X80000Y64000D01*
Y62100D01*
X85500Y65500D02*X85000Y65000D01*
X89500Y65500D02*X90000Y65000D01*
Y62100D01*
X93500Y65500D02*X95000Y64000D01*
Y62100D01*
X85000Y65000D02*Y62100D01*
X93500Y14500D02*X95000Y16000D01*
Y17900D02*Y16000D01*
X89500Y14500D02*X90000Y15000D01*
Y17900D02*Y15000D01*
X85500Y14500D02*X85000Y15000D01*
Y17900D02*Y15000D01*
X81500Y14500D02*X80000Y16000D01*
Y17900D02*Y16000D01*
X81500Y30500D02*X80000Y29000D01*
Y27100D01*
X85500Y30500D02*X85000Y30000D01*
Y27100D01*
X89500Y30500D02*X90000Y30000D01*
Y27100D01*
X93500Y30500D02*X95000Y29000D01*
Y27100D01*
X198500Y49500D02*X200000Y51000D01*
Y52900D02*Y51000D01*
X195000Y52900D02*Y50000D01*
X221500Y49500D02*X220000Y51000D01*
Y52900D02*Y51000D01*
X186500Y65500D02*X185000Y64000D01*
Y62100D01*
X190500Y65500D02*X190000Y65000D01*
Y62100D01*
X194500Y65500D02*X195000Y65000D01*
Y62100D01*
X198500Y65500D02*X200000Y64000D01*
Y62100D01*
X233500Y49500D02*X235000Y51000D01*
Y52900D02*Y51000D01*
X229500Y49500D02*X230000Y50000D01*
Y52900D02*Y50000D01*
X225500Y49500D02*X225000Y50000D01*
Y52900D02*Y50000D01*
X264500Y49500D02*X265000Y50000D01*
X260500Y49500D02*X260000Y50000D01*
Y52900D02*Y50000D01*
X256500Y49500D02*X255000Y51000D01*
Y52900D02*Y51000D01*
X221500Y65500D02*X220000Y64000D01*
Y62100D01*
X225500Y65500D02*X225000Y65000D01*
X229500Y65500D02*X230000Y65000D01*
Y62100D01*
X233500Y65500D02*X235000Y64000D01*
Y62100D01*
X225000Y65000D02*Y62100D01*
X268500Y49500D02*X270000Y51000D01*
Y52900D02*Y51000D01*
X265000Y52900D02*Y50000D01*
X291500Y49500D02*X290000Y51000D01*
Y52900D02*Y51000D01*
X256500Y65500D02*X255000Y64000D01*
Y62100D01*
X260500Y65500D02*X260000Y65000D01*
Y62100D01*
X264500Y65500D02*X265000Y65000D01*
Y62100D01*
X268500Y65500D02*X270000Y64000D01*
Y62100D01*
X303500Y49500D02*X305000Y51000D01*
Y52900D02*Y51000D01*
X299500Y49500D02*X300000Y50000D01*
Y52900D02*Y50000D01*
X295500Y49500D02*X295000Y50000D01*
Y52900D02*Y50000D01*
X334500Y49500D02*X335000Y50000D01*
X330500Y49500D02*X330000Y50000D01*
Y52900D02*Y50000D01*
X326500Y49500D02*X325000Y51000D01*
Y52900D02*Y51000D01*
X291500Y65500D02*X290000Y64000D01*
Y62100D01*
X295500Y65500D02*X295000Y65000D01*
X299500Y65500D02*X300000Y65000D01*
Y62100D01*
X303500Y65500D02*X305000Y64000D01*
Y62100D01*
X295000Y65000D02*Y62100D01*
X338500Y49500D02*X340000Y51000D01*
Y52900D02*Y51000D01*
X335000Y52900D02*Y50000D01*
X361500Y49500D02*X360000Y51000D01*
Y52900D02*Y51000D01*
X326500Y65500D02*X325000Y64000D01*
Y62100D01*
X330500Y65500D02*X330000Y65000D01*
Y62100D01*
X334500Y65500D02*X335000Y65000D01*
Y62100D01*
X338500Y65500D02*X340000Y64000D01*
Y62100D01*
X373500Y49500D02*X375000Y51000D01*
Y52900D02*Y51000D01*
X369500Y49500D02*X370000Y50000D01*
Y52900D02*Y50000D01*
X365500Y49500D02*X365000Y50000D01*
Y52900D02*Y50000D01*
X404500Y49500D02*X405000Y50000D01*
X400500Y49500D02*X400000Y50000D01*
Y52900D02*Y50000D01*
X396500Y49500D02*X395000Y51000D01*
Y52900D02*Y51000D01*
X361500Y65500D02*X360000Y64000D01*
Y62100D01*
X365500Y65500D02*X365000Y65000D01*
X369500Y65500D02*X370000Y65000D01*
Y62100D01*
X373500Y65500D02*X375000Y64000D01*
Y62100D01*
X365000Y65000D02*Y62100D01*
X408500Y49500D02*X410000Y51000D01*
Y52900D02*Y51000D01*
X405000Y52900D02*Y50000D01*
X443500Y49500D02*X445000Y51000D01*
Y52900D02*Y51000D01*
X439500Y49500D02*X440000Y50000D01*
Y52900D02*Y50000D01*
X435500Y49500D02*X435000Y50000D01*
Y52900D02*Y50000D01*
X431500Y49500D02*X430000Y51000D01*
Y52900D02*Y51000D01*
X396500Y65500D02*X395000Y64000D01*
Y62100D01*
X400500Y65500D02*X400000Y65000D01*
Y62100D01*
X404500Y65500D02*X405000Y65000D01*
Y62100D01*
X408500Y65500D02*X410000Y64000D01*
Y62100D01*
X431500Y65500D02*X430000Y64000D01*
Y62100D01*
X435500Y65500D02*X435000Y65000D01*
X439500Y65500D02*X440000Y65000D01*
Y62100D01*
X443500Y65500D02*X445000Y64000D01*
Y62100D01*
X435000Y65000D02*Y62100D01*
X128500Y49500D02*X130000Y51000D01*
Y52900D02*Y51000D01*
X125000Y52900D02*Y50000D01*
X151500Y49500D02*X150000Y51000D01*
Y52900D02*Y51000D01*
X116500Y65500D02*X115000Y64000D01*
Y62100D01*
X120500Y65500D02*X120000Y65000D01*
Y62100D01*
X124500Y65500D02*X125000Y65000D01*
Y62100D01*
X128500Y65500D02*X130000Y64000D01*
Y62100D01*
X163500Y49500D02*X165000Y51000D01*
Y52900D02*Y51000D01*
X159500Y49500D02*X160000Y50000D01*
Y52900D02*Y50000D01*
X155500Y49500D02*X155000Y50000D01*
Y52900D02*Y50000D01*
X194500Y49500D02*X195000Y50000D01*
X190500Y49500D02*X190000Y50000D01*
Y52900D02*Y50000D01*
X186500Y49500D02*X185000Y51000D01*
Y52900D02*Y51000D01*
X151500Y65500D02*X150000Y64000D01*
Y62100D01*
X155500Y65500D02*X155000Y65000D01*
X159500Y65500D02*X160000Y65000D01*
Y62100D01*
X163500Y65500D02*X165000Y64000D01*
Y62100D01*
X155000Y65000D02*Y62100D01*
X128500Y14500D02*X130000Y16000D01*
Y17900D02*Y16000D01*
X124500Y14500D02*X125000Y15000D01*
Y17900D02*Y15000D01*
X120500Y14500D02*X120000Y15000D01*
Y17900D02*Y15000D01*
X116500Y14500D02*X115000Y16000D01*
Y17900D02*Y16000D01*
X159500Y14500D02*X160000Y15000D01*
X155500Y14500D02*X155000Y15000D01*
Y17900D02*Y15000D01*
X151500Y14500D02*X150000Y16000D01*
Y17900D02*Y16000D01*
X116500Y30500D02*X115000Y29000D01*
Y27100D01*
X120500Y30500D02*X120000Y30000D01*
X124500Y30500D02*X125000Y30000D01*
Y27100D01*
X128500Y30500D02*X130000Y29000D01*
Y27100D01*
X120000Y30000D02*Y27100D01*
X163500Y14500D02*X165000Y16000D01*
Y17900D02*Y16000D01*
X160000Y17900D02*Y15000D01*
X186500Y14500D02*X185000Y16000D01*
Y17900D02*Y16000D01*
X151500Y30500D02*X150000Y29000D01*
Y27100D01*
X155500Y30500D02*X155000Y30000D01*
Y27100D01*
X159500Y30500D02*X160000Y30000D01*
Y27100D01*
X163500Y30500D02*X165000Y29000D01*
Y27100D01*
X198500Y14500D02*X200000Y16000D01*
Y17900D02*Y16000D01*
X194500Y14500D02*X195000Y15000D01*
Y17900D02*Y15000D01*
X190500Y14500D02*X190000Y15000D01*
Y17900D02*Y15000D01*
X229500Y14500D02*X230000Y15000D01*
X225500Y14500D02*X225000Y15000D01*
Y17900D02*Y15000D01*
X221500Y14500D02*X220000Y16000D01*
Y17900D02*Y16000D01*
X186500Y30500D02*X185000Y29000D01*
Y27100D01*
X190500Y30500D02*X190000Y30000D01*
X194500Y30500D02*X195000Y30000D01*
Y27100D01*
X198500Y30500D02*X200000Y29000D01*
Y27100D01*
X190000Y30000D02*Y27100D01*
X233500Y14500D02*X235000Y16000D01*
Y17900D02*Y16000D01*
X230000Y17900D02*Y15000D01*
X256500Y14500D02*X255000Y16000D01*
Y17900D02*Y16000D01*
X221500Y30500D02*X220000Y29000D01*
Y27100D01*
X225500Y30500D02*X225000Y30000D01*
Y27100D01*
X229500Y30500D02*X230000Y30000D01*
Y27100D01*
X233500Y30500D02*X235000Y29000D01*
Y27100D01*
X268500Y14500D02*X270000Y16000D01*
Y17900D02*Y16000D01*
X264500Y14500D02*X265000Y15000D01*
Y17900D02*Y15000D01*
X260500Y14500D02*X260000Y15000D01*
Y17900D02*Y15000D01*
X299500Y14500D02*X300000Y15000D01*
X295500Y14500D02*X295000Y15000D01*
Y17900D02*Y15000D01*
X291500Y14500D02*X290000Y16000D01*
Y17900D02*Y16000D01*
X256500Y30500D02*X255000Y29000D01*
Y27100D01*
X260500Y30500D02*X260000Y30000D01*
X264500Y30500D02*X265000Y30000D01*
Y27100D01*
X268500Y30500D02*X270000Y29000D01*
Y27100D01*
X260000Y30000D02*Y27100D01*
X303500Y14500D02*X305000Y16000D01*
Y17900D02*Y16000D01*
X300000Y17900D02*Y15000D01*
X326500Y14500D02*X325000Y16000D01*
Y17900D02*Y16000D01*
X291500Y30500D02*X290000Y29000D01*
Y27100D01*
X295500Y30500D02*X295000Y30000D01*
Y27100D01*
X299500Y30500D02*X300000Y30000D01*
Y27100D01*
X303500Y30500D02*X305000Y29000D01*
Y27100D01*
X338500Y14500D02*X340000Y16000D01*
Y17900D02*Y16000D01*
X334500Y14500D02*X335000Y15000D01*
Y17900D02*Y15000D01*
X330500Y14500D02*X330000Y15000D01*
Y17900D02*Y15000D01*
X369500Y14500D02*X370000Y15000D01*
X365500Y14500D02*X365000Y15000D01*
Y17900D02*Y15000D01*
X361500Y14500D02*X360000Y16000D01*
Y17900D02*Y16000D01*
X326500Y30500D02*X325000Y29000D01*
Y27100D01*
X330500Y30500D02*X330000Y30000D01*
X334500Y30500D02*X335000Y30000D01*
Y27100D01*
X338500Y30500D02*X340000Y29000D01*
Y27100D01*
X330000Y30000D02*Y27100D01*
X373500Y14500D02*X375000Y16000D01*
Y17900D02*Y16000D01*
X370000Y17900D02*Y15000D01*
X396500Y14500D02*X395000Y16000D01*
Y17900D02*Y16000D01*
X361500Y30500D02*X360000Y29000D01*
Y27100D01*
X365500Y30500D02*X365000Y30000D01*
Y27100D01*
X369500Y30500D02*X370000Y30000D01*
Y27100D01*
X373500Y30500D02*X375000Y29000D01*
Y27100D01*
X408500Y14500D02*X410000Y16000D01*
Y17900D02*Y16000D01*
X404500Y14500D02*X405000Y15000D01*
Y17900D02*Y15000D01*
X400500Y14500D02*X400000Y15000D01*
Y17900D02*Y15000D01*
X443500Y14500D02*X445000Y16000D01*
Y17900D02*Y16000D01*
X439500Y14500D02*X440000Y15000D01*
Y17900D02*Y15000D01*
X435500Y14500D02*X435000Y15000D01*
Y17900D02*Y15000D01*
X431500Y14500D02*X430000Y16000D01*
Y17900D02*Y16000D01*
X396500Y30500D02*X395000Y29000D01*
Y27100D01*
X400500Y30500D02*X400000Y30000D01*
X404500Y30500D02*X405000Y30000D01*
Y27100D01*
X408500Y30500D02*X410000Y29000D01*
Y27100D01*
X400000Y30000D02*Y27100D01*
X431500Y30500D02*X430000Y29000D01*
Y27100D01*
X435500Y30500D02*X435000Y30000D01*
Y27100D01*
X439500Y30500D02*X440000Y30000D01*
Y27100D01*
X443500Y30500D02*X445000Y29000D01*
Y27100D01*
G54D17*X16000Y99000D03*
X466000Y22500D03*
Y92500D03*
G54D18*G36*
X186418Y99118D02*X183582D01*
Y95082D01*
X186418D01*
Y99118D01*
G37*
G36*
X191418D02*X188582D01*
Y95082D01*
X191418D01*
Y99118D01*
G37*
G36*
X196418D02*X193582D01*
Y95082D01*
X196418D01*
Y99118D01*
G37*
G36*
X201418Y89918D02*X198582D01*
Y85882D01*
X201418D01*
Y89918D01*
G37*
G36*
Y99118D02*X198582D01*
Y95082D01*
X201418D01*
Y99118D01*
G37*
G36*
X196418Y89918D02*X193582D01*
Y85882D01*
X196418D01*
Y89918D01*
G37*
G36*
X191418D02*X188582D01*
Y85882D01*
X191418D01*
Y89918D01*
G37*
G36*
X186418D02*X183582D01*
Y85882D01*
X186418D01*
Y89918D01*
G37*
G36*
X221418Y99118D02*X218582D01*
Y95082D01*
X221418D01*
Y99118D01*
G37*
G36*
X226418D02*X223582D01*
Y95082D01*
X226418D01*
Y99118D01*
G37*
G36*
Y89918D02*X223582D01*
Y85882D01*
X226418D01*
Y89918D01*
G37*
G36*
X221418D02*X218582D01*
Y85882D01*
X221418D01*
Y89918D01*
G37*
G36*
X236418D02*X233582D01*
Y85882D01*
X236418D01*
Y89918D01*
G37*
G36*
X231418D02*X228582D01*
Y85882D01*
X231418D01*
Y89918D01*
G37*
G36*
Y99118D02*X228582D01*
Y95082D01*
X231418D01*
Y99118D01*
G37*
G36*
X236418D02*X233582D01*
Y95082D01*
X236418D01*
Y99118D01*
G37*
G36*
X256418D02*X253582D01*
Y95082D01*
X256418D01*
Y99118D01*
G37*
G36*
X261418D02*X258582D01*
Y95082D01*
X261418D01*
Y99118D01*
G37*
G36*
X266418D02*X263582D01*
Y95082D01*
X266418D01*
Y99118D01*
G37*
G36*
X271418Y89918D02*X268582D01*
Y85882D01*
X271418D01*
Y89918D01*
G37*
G36*
Y99118D02*X268582D01*
Y95082D01*
X271418D01*
Y99118D01*
G37*
G36*
X266418Y89918D02*X263582D01*
Y85882D01*
X266418D01*
Y89918D01*
G37*
G36*
X261418D02*X258582D01*
Y85882D01*
X261418D01*
Y89918D01*
G37*
G36*
X256418D02*X253582D01*
Y85882D01*
X256418D01*
Y89918D01*
G37*
G36*
X291418Y99118D02*X288582D01*
Y95082D01*
X291418D01*
Y99118D01*
G37*
G36*
X296418D02*X293582D01*
Y95082D01*
X296418D01*
Y99118D01*
G37*
G36*
Y89918D02*X293582D01*
Y85882D01*
X296418D01*
Y89918D01*
G37*
G36*
X291418D02*X288582D01*
Y85882D01*
X291418D01*
Y89918D01*
G37*
G36*
X306418D02*X303582D01*
Y85882D01*
X306418D01*
Y89918D01*
G37*
G36*
X301418D02*X298582D01*
Y85882D01*
X301418D01*
Y89918D01*
G37*
G36*
Y99118D02*X298582D01*
Y95082D01*
X301418D01*
Y99118D01*
G37*
G36*
X306418D02*X303582D01*
Y95082D01*
X306418D01*
Y99118D01*
G37*
G36*
X326418D02*X323582D01*
Y95082D01*
X326418D01*
Y99118D01*
G37*
G36*
X331418D02*X328582D01*
Y95082D01*
X331418D01*
Y99118D01*
G37*
G36*
X336418D02*X333582D01*
Y95082D01*
X336418D01*
Y99118D01*
G37*
G36*
X341418Y89918D02*X338582D01*
Y85882D01*
X341418D01*
Y89918D01*
G37*
G36*
Y99118D02*X338582D01*
Y95082D01*
X341418D01*
Y99118D01*
G37*
G36*
X336418Y89918D02*X333582D01*
Y85882D01*
X336418D01*
Y89918D01*
G37*
G36*
X331418D02*X328582D01*
Y85882D01*
X331418D01*
Y89918D01*
G37*
G36*
X326418D02*X323582D01*
Y85882D01*
X326418D01*
Y89918D01*
G37*
G36*
X361418Y99118D02*X358582D01*
Y95082D01*
X361418D01*
Y99118D01*
G37*
G36*
X366418D02*X363582D01*
Y95082D01*
X366418D01*
Y99118D01*
G37*
G36*
Y89918D02*X363582D01*
Y85882D01*
X366418D01*
Y89918D01*
G37*
G36*
X361418D02*X358582D01*
Y85882D01*
X361418D01*
Y89918D01*
G37*
G36*
X376418D02*X373582D01*
Y85882D01*
X376418D01*
Y89918D01*
G37*
G36*
X371418D02*X368582D01*
Y85882D01*
X371418D01*
Y89918D01*
G37*
G36*
Y99118D02*X368582D01*
Y95082D01*
X371418D01*
Y99118D01*
G37*
G36*
X376418D02*X373582D01*
Y95082D01*
X376418D01*
Y99118D01*
G37*
G36*
X396418D02*X393582D01*
Y95082D01*
X396418D01*
Y99118D01*
G37*
G36*
X401418D02*X398582D01*
Y95082D01*
X401418D01*
Y99118D01*
G37*
G36*
X406418D02*X403582D01*
Y95082D01*
X406418D01*
Y99118D01*
G37*
G36*
X411418Y89918D02*X408582D01*
Y85882D01*
X411418D01*
Y89918D01*
G37*
G36*
Y99118D02*X408582D01*
Y95082D01*
X411418D01*
Y99118D01*
G37*
G36*
X406418Y89918D02*X403582D01*
Y85882D01*
X406418D01*
Y89918D01*
G37*
G36*
X401418D02*X398582D01*
Y85882D01*
X401418D01*
Y89918D01*
G37*
G36*
X396418D02*X393582D01*
Y85882D01*
X396418D01*
Y89918D01*
G37*
G36*
X431418Y99118D02*X428582D01*
Y95082D01*
X431418D01*
Y99118D01*
G37*
G36*
X436418D02*X433582D01*
Y95082D01*
X436418D01*
Y99118D01*
G37*
G36*
Y89918D02*X433582D01*
Y85882D01*
X436418D01*
Y89918D01*
G37*
G36*
X431418D02*X428582D01*
Y85882D01*
X431418D01*
Y89918D01*
G37*
G36*
X446418D02*X443582D01*
Y85882D01*
X446418D01*
Y89918D01*
G37*
G36*
X441418D02*X438582D01*
Y85882D01*
X441418D01*
Y89918D01*
G37*
G36*
Y99118D02*X438582D01*
Y95082D01*
X441418D01*
Y99118D01*
G37*
G36*
X446418D02*X443582D01*
Y95082D01*
X446418D01*
Y99118D01*
G37*
G36*
X116418D02*X113582D01*
Y95082D01*
X116418D01*
Y99118D01*
G37*
G36*
X121418D02*X118582D01*
Y95082D01*
X121418D01*
Y99118D01*
G37*
G36*
X126418D02*X123582D01*
Y95082D01*
X126418D01*
Y99118D01*
G37*
G36*
X131418Y89918D02*X128582D01*
Y85882D01*
X131418D01*
Y89918D01*
G37*
G36*
Y99118D02*X128582D01*
Y95082D01*
X131418D01*
Y99118D01*
G37*
G36*
X126418Y89918D02*X123582D01*
Y85882D01*
X126418D01*
Y89918D01*
G37*
G36*
X121418D02*X118582D01*
Y85882D01*
X121418D01*
Y89918D01*
G37*
G36*
X116418D02*X113582D01*
Y85882D01*
X116418D01*
Y89918D01*
G37*
G36*
X151418Y99118D02*X148582D01*
Y95082D01*
X151418D01*
Y99118D01*
G37*
G36*
X156418D02*X153582D01*
Y95082D01*
X156418D01*
Y99118D01*
G37*
G36*
Y89918D02*X153582D01*
Y85882D01*
X156418D01*
Y89918D01*
G37*
G36*
X151418D02*X148582D01*
Y85882D01*
X151418D01*
Y89918D01*
G37*
G36*
X166418D02*X163582D01*
Y85882D01*
X166418D01*
Y89918D01*
G37*
G36*
X161418D02*X158582D01*
Y85882D01*
X161418D01*
Y89918D01*
G37*
G36*
Y99118D02*X158582D01*
Y95082D01*
X161418D01*
Y99118D01*
G37*
G36*
X166418D02*X163582D01*
Y95082D01*
X166418D01*
Y99118D01*
G37*
G36*
X46418D02*X43582D01*
Y95082D01*
X46418D01*
Y99118D01*
G37*
G36*
X51417D02*X48582D01*
Y95082D01*
X51417D01*
Y99118D01*
G37*
G36*
X56417D02*X53583D01*
Y95082D01*
X56417D01*
Y99118D01*
G37*
G36*
X61417D02*X58583D01*
Y95082D01*
X61417D01*
Y99118D01*
G37*
G36*
Y89918D02*X58583D01*
Y85882D01*
X61417D01*
Y89918D01*
G37*
G36*
X56417D02*X53583D01*
Y85882D01*
X56417D01*
Y89918D01*
G37*
G36*
X51417D02*X48582D01*
Y85882D01*
X51417D01*
Y89918D01*
G37*
G36*
X46418D02*X43582D01*
Y85882D01*
X46418D01*
Y89918D01*
G37*
G36*
Y64117D02*X43582D01*
Y60083D01*
X46418D01*
Y64117D01*
G37*
G36*
X51417D02*X48582D01*
Y60083D01*
X51417D01*
Y64117D01*
G37*
G36*
Y54917D02*X48582D01*
Y50882D01*
X51417D01*
Y54917D01*
G37*
G36*
X46418D02*X43582D01*
Y50882D01*
X46418D01*
Y54917D01*
G37*
G36*
X61417D02*X58583D01*
Y50882D01*
X61417D01*
Y54917D01*
G37*
G36*
X56417D02*X53583D01*
Y50882D01*
X56417D01*
Y54917D01*
G37*
G36*
Y64117D02*X53583D01*
Y60083D01*
X56417D01*
Y64117D01*
G37*
G36*
X61417D02*X58583D01*
Y60083D01*
X61417D01*
Y64117D01*
G37*
G36*
X46418Y19918D02*X43582D01*
Y15882D01*
X46418D01*
Y19918D01*
G37*
G36*
Y29118D02*X43582D01*
Y25082D01*
X46418D01*
Y29118D01*
G37*
G36*
X51417Y19918D02*X48582D01*
Y15882D01*
X51417D01*
Y19918D01*
G37*
G36*
Y29118D02*X48582D01*
Y25082D01*
X51417D01*
Y29118D01*
G37*
G36*
X61417Y19918D02*X58583D01*
Y15882D01*
X61417D01*
Y19918D01*
G37*
G36*
X56417D02*X53583D01*
Y15882D01*
X56417D01*
Y19918D01*
G37*
G36*
Y29118D02*X53583D01*
Y25082D01*
X56417D01*
Y29118D01*
G37*
G36*
X61417D02*X58583D01*
Y25082D01*
X61417D01*
Y29118D01*
G37*
G36*
X81418Y99118D02*X78582D01*
Y95082D01*
X81418D01*
Y99118D01*
G37*
G36*
X86418D02*X83582D01*
Y95082D01*
X86418D01*
Y99118D01*
G37*
G36*
Y89918D02*X83582D01*
Y85882D01*
X86418D01*
Y89918D01*
G37*
G36*
X81418D02*X78582D01*
Y85882D01*
X81418D01*
Y89918D01*
G37*
G36*
X96418D02*X93582D01*
Y85882D01*
X96418D01*
Y89918D01*
G37*
G36*
X91418D02*X88582D01*
Y85882D01*
X91418D01*
Y89918D01*
G37*
G36*
Y99118D02*X88582D01*
Y95082D01*
X91418D01*
Y99118D01*
G37*
G36*
X96418D02*X93582D01*
Y95082D01*
X96418D01*
Y99118D01*
G37*
G36*
X81418Y64117D02*X78582D01*
Y60083D01*
X81418D01*
Y64117D01*
G37*
G36*
X86418D02*X83582D01*
Y60083D01*
X86418D01*
Y64117D01*
G37*
G36*
X91418D02*X88582D01*
Y60083D01*
X91418D01*
Y64117D01*
G37*
G36*
X96418Y54917D02*X93582D01*
Y50882D01*
X96418D01*
Y54917D01*
G37*
G36*
Y64117D02*X93582D01*
Y60083D01*
X96418D01*
Y64117D01*
G37*
G36*
X91418Y54917D02*X88582D01*
Y50882D01*
X91418D01*
Y54917D01*
G37*
G36*
X86418D02*X83582D01*
Y50882D01*
X86418D01*
Y54917D01*
G37*
G36*
X81418D02*X78582D01*
Y50882D01*
X81418D01*
Y54917D01*
G37*
G36*
Y29118D02*X78582D01*
Y25082D01*
X81418D01*
Y29118D01*
G37*
G36*
X86418D02*X83582D01*
Y25082D01*
X86418D01*
Y29118D01*
G37*
G36*
Y19918D02*X83582D01*
Y15882D01*
X86418D01*
Y19918D01*
G37*
G36*
X81418D02*X78582D01*
Y15882D01*
X81418D01*
Y19918D01*
G37*
G36*
X96418D02*X93582D01*
Y15882D01*
X96418D01*
Y19918D01*
G37*
G36*
X91418D02*X88582D01*
Y15882D01*
X91418D01*
Y19918D01*
G37*
G36*
Y29118D02*X88582D01*
Y25082D01*
X91418D01*
Y29118D01*
G37*
G36*
X96418D02*X93582D01*
Y25082D01*
X96418D01*
Y29118D01*
G37*
G36*
X116418Y64117D02*X113582D01*
Y60083D01*
X116418D01*
Y64117D01*
G37*
G36*
X121418D02*X118582D01*
Y60083D01*
X121418D01*
Y64117D01*
G37*
G36*
Y54917D02*X118582D01*
Y50882D01*
X121418D01*
Y54917D01*
G37*
G36*
X116418D02*X113582D01*
Y50882D01*
X116418D01*
Y54917D01*
G37*
G36*
X131418D02*X128582D01*
Y50882D01*
X131418D01*
Y54917D01*
G37*
G36*
X126418D02*X123582D01*
Y50882D01*
X126418D01*
Y54917D01*
G37*
G36*
Y64117D02*X123582D01*
Y60083D01*
X126418D01*
Y64117D01*
G37*
G36*
X131418D02*X128582D01*
Y60083D01*
X131418D01*
Y64117D01*
G37*
G36*
X116418Y19918D02*X113582D01*
Y15882D01*
X116418D01*
Y19918D01*
G37*
G36*
Y29118D02*X113582D01*
Y25082D01*
X116418D01*
Y29118D01*
G37*
G36*
X121418Y19918D02*X118582D01*
Y15882D01*
X121418D01*
Y19918D01*
G37*
G36*
Y29118D02*X118582D01*
Y25082D01*
X121418D01*
Y29118D01*
G37*
G36*
X131418Y19918D02*X128582D01*
Y15882D01*
X131418D01*
Y19918D01*
G37*
G36*
X126418D02*X123582D01*
Y15882D01*
X126418D01*
Y19918D01*
G37*
G36*
Y29118D02*X123582D01*
Y25082D01*
X126418D01*
Y29118D01*
G37*
G36*
X131418D02*X128582D01*
Y25082D01*
X131418D01*
Y29118D01*
G37*
G36*
X151418Y64117D02*X148582D01*
Y60083D01*
X151418D01*
Y64117D01*
G37*
G36*
X156418D02*X153582D01*
Y60083D01*
X156418D01*
Y64117D01*
G37*
G36*
X161418D02*X158582D01*
Y60083D01*
X161418D01*
Y64117D01*
G37*
G36*
X166418Y54917D02*X163582D01*
Y50882D01*
X166418D01*
Y54917D01*
G37*
G36*
Y64117D02*X163582D01*
Y60083D01*
X166418D01*
Y64117D01*
G37*
G36*
X161418Y54917D02*X158582D01*
Y50882D01*
X161418D01*
Y54917D01*
G37*
G36*
X156418D02*X153582D01*
Y50882D01*
X156418D01*
Y54917D01*
G37*
G36*
X151418D02*X148582D01*
Y50882D01*
X151418D01*
Y54917D01*
G37*
G36*
Y29118D02*X148582D01*
Y25082D01*
X151418D01*
Y29118D01*
G37*
G36*
X156418D02*X153582D01*
Y25082D01*
X156418D01*
Y29118D01*
G37*
G36*
Y19918D02*X153582D01*
Y15882D01*
X156418D01*
Y19918D01*
G37*
G36*
X151418D02*X148582D01*
Y15882D01*
X151418D01*
Y19918D01*
G37*
G36*
X166418D02*X163582D01*
Y15882D01*
X166418D01*
Y19918D01*
G37*
G36*
X161418D02*X158582D01*
Y15882D01*
X161418D01*
Y19918D01*
G37*
G36*
Y29118D02*X158582D01*
Y25082D01*
X161418D01*
Y29118D01*
G37*
G36*
X166418D02*X163582D01*
Y25082D01*
X166418D01*
Y29118D01*
G37*
G36*
X186418D02*X183582D01*
Y25082D01*
X186418D01*
Y29118D01*
G37*
G36*
X191418D02*X188582D01*
Y25082D01*
X191418D01*
Y29118D01*
G37*
G36*
X196418D02*X193582D01*
Y25082D01*
X196418D01*
Y29118D01*
G37*
G36*
X201418Y19918D02*X198582D01*
Y15882D01*
X201418D01*
Y19918D01*
G37*
G36*
Y29118D02*X198582D01*
Y25082D01*
X201418D01*
Y29118D01*
G37*
G36*
X196418Y19918D02*X193582D01*
Y15882D01*
X196418D01*
Y19918D01*
G37*
G36*
X191418D02*X188582D01*
Y15882D01*
X191418D01*
Y19918D01*
G37*
G36*
X186418D02*X183582D01*
Y15882D01*
X186418D01*
Y19918D01*
G37*
G36*
Y64117D02*X183582D01*
Y60083D01*
X186418D01*
Y64117D01*
G37*
G36*
X191418D02*X188582D01*
Y60083D01*
X191418D01*
Y64117D01*
G37*
G36*
Y54917D02*X188582D01*
Y50882D01*
X191418D01*
Y54917D01*
G37*
G36*
X186418D02*X183582D01*
Y50882D01*
X186418D01*
Y54917D01*
G37*
G36*
X201418D02*X198582D01*
Y50882D01*
X201418D01*
Y54917D01*
G37*
G36*
X196418D02*X193582D01*
Y50882D01*
X196418D01*
Y54917D01*
G37*
G36*
Y64117D02*X193582D01*
Y60083D01*
X196418D01*
Y64117D01*
G37*
G36*
X201418D02*X198582D01*
Y60083D01*
X201418D01*
Y64117D01*
G37*
G36*
X221418D02*X218582D01*
Y60083D01*
X221418D01*
Y64117D01*
G37*
G36*
X226418D02*X223582D01*
Y60083D01*
X226418D01*
Y64117D01*
G37*
G36*
X231418D02*X228582D01*
Y60083D01*
X231418D01*
Y64117D01*
G37*
G36*
X236418Y54917D02*X233582D01*
Y50882D01*
X236418D01*
Y54917D01*
G37*
G36*
Y64117D02*X233582D01*
Y60083D01*
X236418D01*
Y64117D01*
G37*
G36*
X231418Y54917D02*X228582D01*
Y50882D01*
X231418D01*
Y54917D01*
G37*
G36*
X226418D02*X223582D01*
Y50882D01*
X226418D01*
Y54917D01*
G37*
G36*
X221418D02*X218582D01*
Y50882D01*
X221418D01*
Y54917D01*
G37*
G36*
X256418Y64117D02*X253582D01*
Y60083D01*
X256418D01*
Y64117D01*
G37*
G36*
X261418D02*X258582D01*
Y60083D01*
X261418D01*
Y64117D01*
G37*
G36*
Y54917D02*X258582D01*
Y50882D01*
X261418D01*
Y54917D01*
G37*
G36*
X256418D02*X253582D01*
Y50882D01*
X256418D01*
Y54917D01*
G37*
G36*
X271418D02*X268582D01*
Y50882D01*
X271418D01*
Y54917D01*
G37*
G36*
X266418D02*X263582D01*
Y50882D01*
X266418D01*
Y54917D01*
G37*
G36*
Y64117D02*X263582D01*
Y60083D01*
X266418D01*
Y64117D01*
G37*
G36*
X271418D02*X268582D01*
Y60083D01*
X271418D01*
Y64117D01*
G37*
G36*
X291418D02*X288582D01*
Y60083D01*
X291418D01*
Y64117D01*
G37*
G36*
X296418D02*X293582D01*
Y60083D01*
X296418D01*
Y64117D01*
G37*
G36*
X301418D02*X298582D01*
Y60083D01*
X301418D01*
Y64117D01*
G37*
G36*
X306418Y54917D02*X303582D01*
Y50882D01*
X306418D01*
Y54917D01*
G37*
G36*
Y64117D02*X303582D01*
Y60083D01*
X306418D01*
Y64117D01*
G37*
G36*
X301418Y54917D02*X298582D01*
Y50882D01*
X301418D01*
Y54917D01*
G37*
G36*
X296418D02*X293582D01*
Y50882D01*
X296418D01*
Y54917D01*
G37*
G36*
X291418D02*X288582D01*
Y50882D01*
X291418D01*
Y54917D01*
G37*
G36*
X326418Y64117D02*X323582D01*
Y60083D01*
X326418D01*
Y64117D01*
G37*
G36*
X331418D02*X328582D01*
Y60083D01*
X331418D01*
Y64117D01*
G37*
G36*
Y54917D02*X328582D01*
Y50882D01*
X331418D01*
Y54917D01*
G37*
G36*
X326418D02*X323582D01*
Y50882D01*
X326418D01*
Y54917D01*
G37*
G36*
X341418D02*X338582D01*
Y50882D01*
X341418D01*
Y54917D01*
G37*
G36*
X336418D02*X333582D01*
Y50882D01*
X336418D01*
Y54917D01*
G37*
G36*
Y64117D02*X333582D01*
Y60083D01*
X336418D01*
Y64117D01*
G37*
G36*
X341418D02*X338582D01*
Y60083D01*
X341418D01*
Y64117D01*
G37*
G36*
X361418D02*X358582D01*
Y60083D01*
X361418D01*
Y64117D01*
G37*
G36*
X366418D02*X363582D01*
Y60083D01*
X366418D01*
Y64117D01*
G37*
G36*
X371418D02*X368582D01*
Y60083D01*
X371418D01*
Y64117D01*
G37*
G36*
X376418Y54917D02*X373582D01*
Y50882D01*
X376418D01*
Y54917D01*
G37*
G36*
Y64117D02*X373582D01*
Y60083D01*
X376418D01*
Y64117D01*
G37*
G36*
X371418Y54917D02*X368582D01*
Y50882D01*
X371418D01*
Y54917D01*
G37*
G36*
X366418D02*X363582D01*
Y50882D01*
X366418D01*
Y54917D01*
G37*
G36*
X361418D02*X358582D01*
Y50882D01*
X361418D01*
Y54917D01*
G37*
G36*
X396418Y64117D02*X393582D01*
Y60083D01*
X396418D01*
Y64117D01*
G37*
G36*
X401418D02*X398582D01*
Y60083D01*
X401418D01*
Y64117D01*
G37*
G36*
Y54917D02*X398582D01*
Y50882D01*
X401418D01*
Y54917D01*
G37*
G36*
X396418D02*X393582D01*
Y50882D01*
X396418D01*
Y54917D01*
G37*
G36*
X411418D02*X408582D01*
Y50882D01*
X411418D01*
Y54917D01*
G37*
G36*
X406418D02*X403582D01*
Y50882D01*
X406418D01*
Y54917D01*
G37*
G36*
Y64117D02*X403582D01*
Y60083D01*
X406418D01*
Y64117D01*
G37*
G36*
X411418D02*X408582D01*
Y60083D01*
X411418D01*
Y64117D01*
G37*
G36*
X431418D02*X428582D01*
Y60083D01*
X431418D01*
Y64117D01*
G37*
G36*
X436418D02*X433582D01*
Y60083D01*
X436418D01*
Y64117D01*
G37*
G36*
X441418D02*X438582D01*
Y60083D01*
X441418D01*
Y64117D01*
G37*
G36*
X446418Y54917D02*X443582D01*
Y50882D01*
X446418D01*
Y54917D01*
G37*
G36*
Y64117D02*X443582D01*
Y60083D01*
X446418D01*
Y64117D01*
G37*
G36*
X441418Y54917D02*X438582D01*
Y50882D01*
X441418D01*
Y54917D01*
G37*
G36*
X436418D02*X433582D01*
Y50882D01*
X436418D01*
Y54917D01*
G37*
G36*
X431418D02*X428582D01*
Y50882D01*
X431418D01*
Y54917D01*
G37*
G36*
X221418Y29118D02*X218582D01*
Y25082D01*
X221418D01*
Y29118D01*
G37*
G36*
X226418D02*X223582D01*
Y25082D01*
X226418D01*
Y29118D01*
G37*
G36*
Y19918D02*X223582D01*
Y15882D01*
X226418D01*
Y19918D01*
G37*
G36*
X221418D02*X218582D01*
Y15882D01*
X221418D01*
Y19918D01*
G37*
G36*
X236418D02*X233582D01*
Y15882D01*
X236418D01*
Y19918D01*
G37*
G36*
X231418D02*X228582D01*
Y15882D01*
X231418D01*
Y19918D01*
G37*
G36*
Y29118D02*X228582D01*
Y25082D01*
X231418D01*
Y29118D01*
G37*
G36*
X236418D02*X233582D01*
Y25082D01*
X236418D01*
Y29118D01*
G37*
G36*
X256418D02*X253582D01*
Y25082D01*
X256418D01*
Y29118D01*
G37*
G36*
X261418D02*X258582D01*
Y25082D01*
X261418D01*
Y29118D01*
G37*
G36*
X266418D02*X263582D01*
Y25082D01*
X266418D01*
Y29118D01*
G37*
G36*
X271418Y19918D02*X268582D01*
Y15882D01*
X271418D01*
Y19918D01*
G37*
G36*
Y29118D02*X268582D01*
Y25082D01*
X271418D01*
Y29118D01*
G37*
G36*
X266418Y19918D02*X263582D01*
Y15882D01*
X266418D01*
Y19918D01*
G37*
G36*
X261418D02*X258582D01*
Y15882D01*
X261418D01*
Y19918D01*
G37*
G36*
X256418D02*X253582D01*
Y15882D01*
X256418D01*
Y19918D01*
G37*
G36*
X291418Y29118D02*X288582D01*
Y25082D01*
X291418D01*
Y29118D01*
G37*
G36*
X296418D02*X293582D01*
Y25082D01*
X296418D01*
Y29118D01*
G37*
G36*
Y19918D02*X293582D01*
Y15882D01*
X296418D01*
Y19918D01*
G37*
G36*
X291418D02*X288582D01*
Y15882D01*
X291418D01*
Y19918D01*
G37*
G36*
X306418D02*X303582D01*
Y15882D01*
X306418D01*
Y19918D01*
G37*
G36*
X301418D02*X298582D01*
Y15882D01*
X301418D01*
Y19918D01*
G37*
G36*
Y29118D02*X298582D01*
Y25082D01*
X301418D01*
Y29118D01*
G37*
G36*
X306418D02*X303582D01*
Y25082D01*
X306418D01*
Y29118D01*
G37*
G36*
X326418D02*X323582D01*
Y25082D01*
X326418D01*
Y29118D01*
G37*
G36*
X331418D02*X328582D01*
Y25082D01*
X331418D01*
Y29118D01*
G37*
G36*
X336418D02*X333582D01*
Y25082D01*
X336418D01*
Y29118D01*
G37*
G36*
X341418Y19918D02*X338582D01*
Y15882D01*
X341418D01*
Y19918D01*
G37*
G36*
Y29118D02*X338582D01*
Y25082D01*
X341418D01*
Y29118D01*
G37*
G36*
X336418Y19918D02*X333582D01*
Y15882D01*
X336418D01*
Y19918D01*
G37*
G36*
X331418D02*X328582D01*
Y15882D01*
X331418D01*
Y19918D01*
G37*
G36*
X326418D02*X323582D01*
Y15882D01*
X326418D01*
Y19918D01*
G37*
G36*
X361418Y29118D02*X358582D01*
Y25082D01*
X361418D01*
Y29118D01*
G37*
G36*
X366418D02*X363582D01*
Y25082D01*
X366418D01*
Y29118D01*
G37*
G36*
Y19918D02*X363582D01*
Y15882D01*
X366418D01*
Y19918D01*
G37*
G36*
X361418D02*X358582D01*
Y15882D01*
X361418D01*
Y19918D01*
G37*
G36*
X376418D02*X373582D01*
Y15882D01*
X376418D01*
Y19918D01*
G37*
G36*
X371418D02*X368582D01*
Y15882D01*
X371418D01*
Y19918D01*
G37*
G36*
Y29118D02*X368582D01*
Y25082D01*
X371418D01*
Y29118D01*
G37*
G36*
X376418D02*X373582D01*
Y25082D01*
X376418D01*
Y29118D01*
G37*
G36*
X396418D02*X393582D01*
Y25082D01*
X396418D01*
Y29118D01*
G37*
G36*
X401418D02*X398582D01*
Y25082D01*
X401418D01*
Y29118D01*
G37*
G36*
X406418D02*X403582D01*
Y25082D01*
X406418D01*
Y29118D01*
G37*
G36*
X411418Y19918D02*X408582D01*
Y15882D01*
X411418D01*
Y19918D01*
G37*
G36*
Y29118D02*X408582D01*
Y25082D01*
X411418D01*
Y29118D01*
G37*
G36*
X406418Y19918D02*X403582D01*
Y15882D01*
X406418D01*
Y19918D01*
G37*
G36*
X401418D02*X398582D01*
Y15882D01*
X401418D01*
Y19918D01*
G37*
G36*
X396418D02*X393582D01*
Y15882D01*
X396418D01*
Y19918D01*
G37*
G36*
X431418Y29118D02*X428582D01*
Y25082D01*
X431418D01*
Y29118D01*
G37*
G36*
X436418D02*X433582D01*
Y25082D01*
X436418D01*
Y29118D01*
G37*
G36*
Y19918D02*X433582D01*
Y15882D01*
X436418D01*
Y19918D01*
G37*
G36*
X431418D02*X428582D01*
Y15882D01*
X431418D01*
Y19918D01*
G37*
G36*
X446418D02*X443582D01*
Y15882D01*
X446418D01*
Y19918D01*
G37*
G36*
X441418D02*X438582D01*
Y15882D01*
X441418D01*
Y19918D01*
G37*
G36*
Y29118D02*X438582D01*
Y25082D01*
X441418D01*
Y29118D01*
G37*
G36*
X446418D02*X443582D01*
Y25082D01*
X446418D01*
Y29118D01*
G37*
G54D19*X163500Y84500D03*
X186500D03*
X190500D03*
X194500D03*
X198500D03*
X186500Y100500D03*
X190500D03*
X194500D03*
X198500D03*
X221500D03*
X225500D03*
X229500D03*
X233500D03*
X256500D03*
X260500D03*
X221500Y84500D03*
X225500D03*
X229500D03*
X233500D03*
X256500D03*
X260500D03*
X264500D03*
X268500D03*
X264500Y100500D03*
X268500D03*
X291500D03*
X295500D03*
X299500D03*
X303500D03*
X326500D03*
X330500D03*
X334500D03*
X338500D03*
X291500Y84500D03*
X295500D03*
X299500D03*
X303500D03*
X326500D03*
X330500D03*
X334500D03*
X338500D03*
X361500D03*
X365500D03*
X369500D03*
X373500D03*
X361500Y100500D03*
X365500D03*
X369500D03*
X373500D03*
X396500D03*
X400500D03*
X404500D03*
X408500D03*
X431500D03*
X435500D03*
X439500D03*
X443500D03*
X396500Y84500D03*
X400500D03*
X404500D03*
X408500D03*
X431500D03*
X435500D03*
X439500D03*
X443500D03*
X58500D03*
X85500Y100500D03*
Y84500D03*
X89500D03*
X93500D03*
X89500Y100500D03*
X93500D03*
X46500Y84500D03*
X50500D03*
X54500D03*
X46500Y100500D03*
X50500D03*
X54500D03*
X58500D03*
X46500Y65500D03*
Y49500D03*
Y30500D03*
Y14500D03*
X50500Y30500D03*
Y14500D03*
X54500D03*
X58500D03*
X54500Y30500D03*
X58500D03*
X81500Y100500D03*
Y84500D03*
X50500Y65500D03*
Y49500D03*
X54500D03*
X58500D03*
X54500Y65500D03*
X58500D03*
X85500D03*
X89500D03*
X93500D03*
X81500D03*
Y49500D03*
X85500D03*
X89500D03*
X93500D03*
X81500Y30500D03*
Y14500D03*
X85500D03*
X89500D03*
X93500D03*
X85500Y30500D03*
X89500D03*
X93500D03*
X116500Y100500D03*
X120500D03*
X124500D03*
X128500D03*
X151500D03*
X155500D03*
X159500D03*
X163500D03*
X116500Y84500D03*
X120500D03*
X124500D03*
X128500D03*
X151500D03*
X155500D03*
X159500D03*
X116500Y65500D03*
X120500D03*
X124500D03*
X128500D03*
X116500Y49500D03*
X120500D03*
X124500D03*
X151500Y65500D03*
Y49500D03*
X128500D03*
X155500Y65500D03*
Y49500D03*
X159500D03*
X163500D03*
X159500Y65500D03*
X163500D03*
X186500D03*
X190500D03*
X194500D03*
X198500D03*
X221500D03*
X225500D03*
X229500D03*
X233500D03*
X186500Y49500D03*
X190500D03*
X194500D03*
X198500D03*
X221500D03*
X225500D03*
X229500D03*
X233500D03*
X256500D03*
X260500D03*
X264500D03*
X268500D03*
X256500Y65500D03*
X260500D03*
X264500D03*
X268500D03*
X291500D03*
X295500D03*
X299500D03*
X303500D03*
X326500D03*
X330500D03*
X291500Y49500D03*
X295500D03*
X299500D03*
X303500D03*
X326500D03*
X330500D03*
X334500D03*
X338500D03*
X334500Y65500D03*
X338500D03*
X361500D03*
X365500D03*
X369500D03*
X373500D03*
X396500D03*
X400500D03*
X404500D03*
X408500D03*
X361500Y49500D03*
X365500D03*
X369500D03*
X373500D03*
X396500D03*
X400500D03*
X404500D03*
X408500D03*
X431500D03*
X435500D03*
X439500D03*
X443500D03*
X431500Y65500D03*
X435500D03*
X439500D03*
X443500D03*
X116500Y30500D03*
X120500D03*
X124500D03*
X128500D03*
X116500Y14500D03*
X120500D03*
X124500D03*
X128500D03*
X151500Y30500D03*
X155500D03*
X159500D03*
X163500D03*
X186500D03*
X190500D03*
X194500D03*
X198500D03*
X151500Y14500D03*
X155500D03*
X159500D03*
X163500D03*
X186500D03*
X190500D03*
X194500D03*
X198500D03*
X221500D03*
X225500D03*
X229500D03*
X233500D03*
X221500Y30500D03*
X225500D03*
X229500D03*
X233500D03*
X256500D03*
X260500D03*
X264500D03*
X268500D03*
X291500D03*
X295500D03*
X299500D03*
X303500D03*
X256500Y14500D03*
X260500D03*
X264500D03*
X268500D03*
X291500D03*
X295500D03*
X299500D03*
X303500D03*
X326500Y30500D03*
X330500D03*
X334500D03*
X338500D03*
X326500Y14500D03*
X330500D03*
X334500D03*
X338500D03*
X361500Y30500D03*
Y14500D03*
X365500D03*
X369500D03*
X373500D03*
X365500Y30500D03*
X369500D03*
X373500D03*
X396500D03*
X400500D03*
X404500D03*
X408500D03*
X396500Y14500D03*
X400500D03*
X404500D03*
X408500D03*
X431500D03*
X435500D03*
X439500D03*
X443500D03*
X431500Y30500D03*
X435500D03*
X439500D03*
X443500D03*
G54D20*M02*
