G04 start of page 7 for group -4062 idx -4062 *
G04 Title: (unknown), soldermask *
G04 Creator: pcb 4.0.2 *
G04 CreationDate: Thu Oct 28 15:19:50 2021 UTC *
G04 For: ndholmes *
G04 Format: Gerber/RS-274X *
G04 PCB-Dimensions (mil): 4900.00 1150.00 *
G04 PCB-Coordinate-Origin: lower left *
%MOIN*%
%FSLAX25Y25*%
%LNBOTTOMMASK*%
%ADD26C,0.0001*%
%ADD25C,0.0787*%
G54D25*X16000Y99000D03*
X466000Y22500D03*
Y92500D03*
G54D26*G36*
X186718Y99418D02*X183282D01*
Y94782D01*
X186718D01*
Y99418D01*
G37*
G36*
X191718D02*X188282D01*
Y94782D01*
X191718D01*
Y99418D01*
G37*
G36*
X196718D02*X193282D01*
Y94782D01*
X196718D01*
Y99418D01*
G37*
G36*
X201718Y90218D02*X198282D01*
Y85582D01*
X201718D01*
Y90218D01*
G37*
G36*
Y99418D02*X198282D01*
Y94782D01*
X201718D01*
Y99418D01*
G37*
G36*
X196718Y90218D02*X193282D01*
Y85582D01*
X196718D01*
Y90218D01*
G37*
G36*
X191718D02*X188282D01*
Y85582D01*
X191718D01*
Y90218D01*
G37*
G36*
X186718D02*X183282D01*
Y85582D01*
X186718D01*
Y90218D01*
G37*
G36*
X221718Y99418D02*X218282D01*
Y94782D01*
X221718D01*
Y99418D01*
G37*
G36*
X226718D02*X223282D01*
Y94782D01*
X226718D01*
Y99418D01*
G37*
G36*
Y90218D02*X223282D01*
Y85582D01*
X226718D01*
Y90218D01*
G37*
G36*
X221718D02*X218282D01*
Y85582D01*
X221718D01*
Y90218D01*
G37*
G36*
X236718D02*X233282D01*
Y85582D01*
X236718D01*
Y90218D01*
G37*
G36*
X231718D02*X228282D01*
Y85582D01*
X231718D01*
Y90218D01*
G37*
G36*
Y99418D02*X228282D01*
Y94782D01*
X231718D01*
Y99418D01*
G37*
G36*
X236718D02*X233282D01*
Y94782D01*
X236718D01*
Y99418D01*
G37*
G36*
X256718D02*X253282D01*
Y94782D01*
X256718D01*
Y99418D01*
G37*
G36*
X261718D02*X258282D01*
Y94782D01*
X261718D01*
Y99418D01*
G37*
G36*
X266718D02*X263282D01*
Y94782D01*
X266718D01*
Y99418D01*
G37*
G36*
X271718Y90218D02*X268282D01*
Y85582D01*
X271718D01*
Y90218D01*
G37*
G36*
Y99418D02*X268282D01*
Y94782D01*
X271718D01*
Y99418D01*
G37*
G36*
X266718Y90218D02*X263282D01*
Y85582D01*
X266718D01*
Y90218D01*
G37*
G36*
X261718D02*X258282D01*
Y85582D01*
X261718D01*
Y90218D01*
G37*
G36*
X256718D02*X253282D01*
Y85582D01*
X256718D01*
Y90218D01*
G37*
G36*
X291718Y99418D02*X288282D01*
Y94782D01*
X291718D01*
Y99418D01*
G37*
G36*
X296718D02*X293282D01*
Y94782D01*
X296718D01*
Y99418D01*
G37*
G36*
Y90218D02*X293282D01*
Y85582D01*
X296718D01*
Y90218D01*
G37*
G36*
X291718D02*X288282D01*
Y85582D01*
X291718D01*
Y90218D01*
G37*
G36*
X306718D02*X303282D01*
Y85582D01*
X306718D01*
Y90218D01*
G37*
G36*
X301718D02*X298282D01*
Y85582D01*
X301718D01*
Y90218D01*
G37*
G36*
Y99418D02*X298282D01*
Y94782D01*
X301718D01*
Y99418D01*
G37*
G36*
X306718D02*X303282D01*
Y94782D01*
X306718D01*
Y99418D01*
G37*
G36*
X326718D02*X323282D01*
Y94782D01*
X326718D01*
Y99418D01*
G37*
G36*
X331718D02*X328282D01*
Y94782D01*
X331718D01*
Y99418D01*
G37*
G36*
X336718D02*X333282D01*
Y94782D01*
X336718D01*
Y99418D01*
G37*
G36*
X341718Y90218D02*X338282D01*
Y85582D01*
X341718D01*
Y90218D01*
G37*
G36*
Y99418D02*X338282D01*
Y94782D01*
X341718D01*
Y99418D01*
G37*
G36*
X336718Y90218D02*X333282D01*
Y85582D01*
X336718D01*
Y90218D01*
G37*
G36*
X331718D02*X328282D01*
Y85582D01*
X331718D01*
Y90218D01*
G37*
G36*
X326718D02*X323282D01*
Y85582D01*
X326718D01*
Y90218D01*
G37*
G36*
X361718Y99418D02*X358282D01*
Y94782D01*
X361718D01*
Y99418D01*
G37*
G36*
X366718D02*X363282D01*
Y94782D01*
X366718D01*
Y99418D01*
G37*
G36*
Y90218D02*X363282D01*
Y85582D01*
X366718D01*
Y90218D01*
G37*
G36*
X361718D02*X358282D01*
Y85582D01*
X361718D01*
Y90218D01*
G37*
G36*
X376718D02*X373282D01*
Y85582D01*
X376718D01*
Y90218D01*
G37*
G36*
X371718D02*X368282D01*
Y85582D01*
X371718D01*
Y90218D01*
G37*
G36*
Y99418D02*X368282D01*
Y94782D01*
X371718D01*
Y99418D01*
G37*
G36*
X376718D02*X373282D01*
Y94782D01*
X376718D01*
Y99418D01*
G37*
G36*
X396718D02*X393282D01*
Y94782D01*
X396718D01*
Y99418D01*
G37*
G36*
X401718D02*X398282D01*
Y94782D01*
X401718D01*
Y99418D01*
G37*
G36*
X406718D02*X403282D01*
Y94782D01*
X406718D01*
Y99418D01*
G37*
G36*
X411718Y90218D02*X408282D01*
Y85582D01*
X411718D01*
Y90218D01*
G37*
G36*
Y99418D02*X408282D01*
Y94782D01*
X411718D01*
Y99418D01*
G37*
G36*
X406718Y90218D02*X403282D01*
Y85582D01*
X406718D01*
Y90218D01*
G37*
G36*
X401718D02*X398282D01*
Y85582D01*
X401718D01*
Y90218D01*
G37*
G36*
X396718D02*X393282D01*
Y85582D01*
X396718D01*
Y90218D01*
G37*
G36*
X431718Y99418D02*X428282D01*
Y94782D01*
X431718D01*
Y99418D01*
G37*
G36*
X436718D02*X433282D01*
Y94782D01*
X436718D01*
Y99418D01*
G37*
G36*
Y90218D02*X433282D01*
Y85582D01*
X436718D01*
Y90218D01*
G37*
G36*
X431718D02*X428282D01*
Y85582D01*
X431718D01*
Y90218D01*
G37*
G36*
X446718D02*X443282D01*
Y85582D01*
X446718D01*
Y90218D01*
G37*
G36*
X441718D02*X438282D01*
Y85582D01*
X441718D01*
Y90218D01*
G37*
G36*
Y99418D02*X438282D01*
Y94782D01*
X441718D01*
Y99418D01*
G37*
G36*
X446718D02*X443282D01*
Y94782D01*
X446718D01*
Y99418D01*
G37*
G36*
X116718D02*X113282D01*
Y94782D01*
X116718D01*
Y99418D01*
G37*
G36*
X121718D02*X118282D01*
Y94782D01*
X121718D01*
Y99418D01*
G37*
G36*
X126718D02*X123282D01*
Y94782D01*
X126718D01*
Y99418D01*
G37*
G36*
X131718Y90218D02*X128282D01*
Y85582D01*
X131718D01*
Y90218D01*
G37*
G36*
Y99418D02*X128282D01*
Y94782D01*
X131718D01*
Y99418D01*
G37*
G36*
X126718Y90218D02*X123282D01*
Y85582D01*
X126718D01*
Y90218D01*
G37*
G36*
X121718D02*X118282D01*
Y85582D01*
X121718D01*
Y90218D01*
G37*
G36*
X116718D02*X113282D01*
Y85582D01*
X116718D01*
Y90218D01*
G37*
G36*
X151718Y99418D02*X148282D01*
Y94782D01*
X151718D01*
Y99418D01*
G37*
G36*
X156718D02*X153282D01*
Y94782D01*
X156718D01*
Y99418D01*
G37*
G36*
Y90218D02*X153282D01*
Y85582D01*
X156718D01*
Y90218D01*
G37*
G36*
X151718D02*X148282D01*
Y85582D01*
X151718D01*
Y90218D01*
G37*
G36*
X166718D02*X163282D01*
Y85582D01*
X166718D01*
Y90218D01*
G37*
G36*
X161718D02*X158282D01*
Y85582D01*
X161718D01*
Y90218D01*
G37*
G36*
Y99418D02*X158282D01*
Y94782D01*
X161718D01*
Y99418D01*
G37*
G36*
X166718D02*X163282D01*
Y94782D01*
X166718D01*
Y99418D01*
G37*
G36*
X46718D02*X43282D01*
Y94782D01*
X46718D01*
Y99418D01*
G37*
G36*
X51717D02*X48282D01*
Y94782D01*
X51717D01*
Y99418D01*
G37*
G36*
X56717D02*X53283D01*
Y94782D01*
X56717D01*
Y99418D01*
G37*
G36*
X61717D02*X58283D01*
Y94782D01*
X61717D01*
Y99418D01*
G37*
G36*
Y90218D02*X58283D01*
Y85582D01*
X61717D01*
Y90218D01*
G37*
G36*
X56717D02*X53283D01*
Y85582D01*
X56717D01*
Y90218D01*
G37*
G36*
X51717D02*X48282D01*
Y85582D01*
X51717D01*
Y90218D01*
G37*
G36*
X46718D02*X43282D01*
Y85582D01*
X46718D01*
Y90218D01*
G37*
G36*
Y64417D02*X43282D01*
Y59783D01*
X46718D01*
Y64417D01*
G37*
G36*
X51717D02*X48282D01*
Y59783D01*
X51717D01*
Y64417D01*
G37*
G36*
Y55217D02*X48282D01*
Y50582D01*
X51717D01*
Y55217D01*
G37*
G36*
X46718D02*X43282D01*
Y50582D01*
X46718D01*
Y55217D01*
G37*
G36*
X61717D02*X58283D01*
Y50582D01*
X61717D01*
Y55217D01*
G37*
G36*
X56717D02*X53283D01*
Y50582D01*
X56717D01*
Y55217D01*
G37*
G36*
Y64417D02*X53283D01*
Y59783D01*
X56717D01*
Y64417D01*
G37*
G36*
X61717D02*X58283D01*
Y59783D01*
X61717D01*
Y64417D01*
G37*
G36*
X46718Y20218D02*X43282D01*
Y15582D01*
X46718D01*
Y20218D01*
G37*
G36*
Y29418D02*X43282D01*
Y24782D01*
X46718D01*
Y29418D01*
G37*
G36*
X51717Y20218D02*X48282D01*
Y15582D01*
X51717D01*
Y20218D01*
G37*
G36*
Y29418D02*X48282D01*
Y24782D01*
X51717D01*
Y29418D01*
G37*
G36*
X61717Y20218D02*X58283D01*
Y15582D01*
X61717D01*
Y20218D01*
G37*
G36*
X56717D02*X53283D01*
Y15582D01*
X56717D01*
Y20218D01*
G37*
G36*
Y29418D02*X53283D01*
Y24782D01*
X56717D01*
Y29418D01*
G37*
G36*
X61717D02*X58283D01*
Y24782D01*
X61717D01*
Y29418D01*
G37*
G36*
X81718Y99418D02*X78282D01*
Y94782D01*
X81718D01*
Y99418D01*
G37*
G36*
X86718D02*X83282D01*
Y94782D01*
X86718D01*
Y99418D01*
G37*
G36*
Y90218D02*X83282D01*
Y85582D01*
X86718D01*
Y90218D01*
G37*
G36*
X81718D02*X78282D01*
Y85582D01*
X81718D01*
Y90218D01*
G37*
G36*
X96718D02*X93282D01*
Y85582D01*
X96718D01*
Y90218D01*
G37*
G36*
X91718D02*X88282D01*
Y85582D01*
X91718D01*
Y90218D01*
G37*
G36*
Y99418D02*X88282D01*
Y94782D01*
X91718D01*
Y99418D01*
G37*
G36*
X96718D02*X93282D01*
Y94782D01*
X96718D01*
Y99418D01*
G37*
G36*
X81718Y64417D02*X78282D01*
Y59783D01*
X81718D01*
Y64417D01*
G37*
G36*
X86718D02*X83282D01*
Y59783D01*
X86718D01*
Y64417D01*
G37*
G36*
X91718D02*X88282D01*
Y59783D01*
X91718D01*
Y64417D01*
G37*
G36*
X96718Y55217D02*X93282D01*
Y50582D01*
X96718D01*
Y55217D01*
G37*
G36*
Y64417D02*X93282D01*
Y59783D01*
X96718D01*
Y64417D01*
G37*
G36*
X91718Y55217D02*X88282D01*
Y50582D01*
X91718D01*
Y55217D01*
G37*
G36*
X86718D02*X83282D01*
Y50582D01*
X86718D01*
Y55217D01*
G37*
G36*
X81718D02*X78282D01*
Y50582D01*
X81718D01*
Y55217D01*
G37*
G36*
Y29418D02*X78282D01*
Y24782D01*
X81718D01*
Y29418D01*
G37*
G36*
X86718D02*X83282D01*
Y24782D01*
X86718D01*
Y29418D01*
G37*
G36*
Y20218D02*X83282D01*
Y15582D01*
X86718D01*
Y20218D01*
G37*
G36*
X81718D02*X78282D01*
Y15582D01*
X81718D01*
Y20218D01*
G37*
G36*
X96718D02*X93282D01*
Y15582D01*
X96718D01*
Y20218D01*
G37*
G36*
X91718D02*X88282D01*
Y15582D01*
X91718D01*
Y20218D01*
G37*
G36*
Y29418D02*X88282D01*
Y24782D01*
X91718D01*
Y29418D01*
G37*
G36*
X96718D02*X93282D01*
Y24782D01*
X96718D01*
Y29418D01*
G37*
G36*
X116718Y64417D02*X113282D01*
Y59783D01*
X116718D01*
Y64417D01*
G37*
G36*
X121718D02*X118282D01*
Y59783D01*
X121718D01*
Y64417D01*
G37*
G36*
Y55217D02*X118282D01*
Y50582D01*
X121718D01*
Y55217D01*
G37*
G36*
X116718D02*X113282D01*
Y50582D01*
X116718D01*
Y55217D01*
G37*
G36*
X131718D02*X128282D01*
Y50582D01*
X131718D01*
Y55217D01*
G37*
G36*
X126718D02*X123282D01*
Y50582D01*
X126718D01*
Y55217D01*
G37*
G36*
Y64417D02*X123282D01*
Y59783D01*
X126718D01*
Y64417D01*
G37*
G36*
X131718D02*X128282D01*
Y59783D01*
X131718D01*
Y64417D01*
G37*
G36*
X116718Y20218D02*X113282D01*
Y15582D01*
X116718D01*
Y20218D01*
G37*
G36*
Y29418D02*X113282D01*
Y24782D01*
X116718D01*
Y29418D01*
G37*
G36*
X121718Y20218D02*X118282D01*
Y15582D01*
X121718D01*
Y20218D01*
G37*
G36*
Y29418D02*X118282D01*
Y24782D01*
X121718D01*
Y29418D01*
G37*
G36*
X131718Y20218D02*X128282D01*
Y15582D01*
X131718D01*
Y20218D01*
G37*
G36*
X126718D02*X123282D01*
Y15582D01*
X126718D01*
Y20218D01*
G37*
G36*
Y29418D02*X123282D01*
Y24782D01*
X126718D01*
Y29418D01*
G37*
G36*
X131718D02*X128282D01*
Y24782D01*
X131718D01*
Y29418D01*
G37*
G36*
X151718Y64417D02*X148282D01*
Y59783D01*
X151718D01*
Y64417D01*
G37*
G36*
X156718D02*X153282D01*
Y59783D01*
X156718D01*
Y64417D01*
G37*
G36*
X161718D02*X158282D01*
Y59783D01*
X161718D01*
Y64417D01*
G37*
G36*
X166718Y55217D02*X163282D01*
Y50582D01*
X166718D01*
Y55217D01*
G37*
G36*
Y64417D02*X163282D01*
Y59783D01*
X166718D01*
Y64417D01*
G37*
G36*
X161718Y55217D02*X158282D01*
Y50582D01*
X161718D01*
Y55217D01*
G37*
G36*
X156718D02*X153282D01*
Y50582D01*
X156718D01*
Y55217D01*
G37*
G36*
X151718D02*X148282D01*
Y50582D01*
X151718D01*
Y55217D01*
G37*
G36*
Y29418D02*X148282D01*
Y24782D01*
X151718D01*
Y29418D01*
G37*
G36*
X156718D02*X153282D01*
Y24782D01*
X156718D01*
Y29418D01*
G37*
G36*
Y20218D02*X153282D01*
Y15582D01*
X156718D01*
Y20218D01*
G37*
G36*
X151718D02*X148282D01*
Y15582D01*
X151718D01*
Y20218D01*
G37*
G36*
X166718D02*X163282D01*
Y15582D01*
X166718D01*
Y20218D01*
G37*
G36*
X161718D02*X158282D01*
Y15582D01*
X161718D01*
Y20218D01*
G37*
G36*
Y29418D02*X158282D01*
Y24782D01*
X161718D01*
Y29418D01*
G37*
G36*
X166718D02*X163282D01*
Y24782D01*
X166718D01*
Y29418D01*
G37*
G36*
X186718D02*X183282D01*
Y24782D01*
X186718D01*
Y29418D01*
G37*
G36*
X191718D02*X188282D01*
Y24782D01*
X191718D01*
Y29418D01*
G37*
G36*
X196718D02*X193282D01*
Y24782D01*
X196718D01*
Y29418D01*
G37*
G36*
X201718Y20218D02*X198282D01*
Y15582D01*
X201718D01*
Y20218D01*
G37*
G36*
Y29418D02*X198282D01*
Y24782D01*
X201718D01*
Y29418D01*
G37*
G36*
X196718Y20218D02*X193282D01*
Y15582D01*
X196718D01*
Y20218D01*
G37*
G36*
X191718D02*X188282D01*
Y15582D01*
X191718D01*
Y20218D01*
G37*
G36*
X186718D02*X183282D01*
Y15582D01*
X186718D01*
Y20218D01*
G37*
G36*
Y64417D02*X183282D01*
Y59783D01*
X186718D01*
Y64417D01*
G37*
G36*
X191718D02*X188282D01*
Y59783D01*
X191718D01*
Y64417D01*
G37*
G36*
Y55217D02*X188282D01*
Y50582D01*
X191718D01*
Y55217D01*
G37*
G36*
X186718D02*X183282D01*
Y50582D01*
X186718D01*
Y55217D01*
G37*
G36*
X201718D02*X198282D01*
Y50582D01*
X201718D01*
Y55217D01*
G37*
G36*
X196718D02*X193282D01*
Y50582D01*
X196718D01*
Y55217D01*
G37*
G36*
Y64417D02*X193282D01*
Y59783D01*
X196718D01*
Y64417D01*
G37*
G36*
X201718D02*X198282D01*
Y59783D01*
X201718D01*
Y64417D01*
G37*
G36*
X221718D02*X218282D01*
Y59783D01*
X221718D01*
Y64417D01*
G37*
G36*
X226718D02*X223282D01*
Y59783D01*
X226718D01*
Y64417D01*
G37*
G36*
X231718D02*X228282D01*
Y59783D01*
X231718D01*
Y64417D01*
G37*
G36*
X236718Y55217D02*X233282D01*
Y50582D01*
X236718D01*
Y55217D01*
G37*
G36*
Y64417D02*X233282D01*
Y59783D01*
X236718D01*
Y64417D01*
G37*
G36*
X231718Y55217D02*X228282D01*
Y50582D01*
X231718D01*
Y55217D01*
G37*
G36*
X226718D02*X223282D01*
Y50582D01*
X226718D01*
Y55217D01*
G37*
G36*
X221718D02*X218282D01*
Y50582D01*
X221718D01*
Y55217D01*
G37*
G36*
X256718Y64417D02*X253282D01*
Y59783D01*
X256718D01*
Y64417D01*
G37*
G36*
X261718D02*X258282D01*
Y59783D01*
X261718D01*
Y64417D01*
G37*
G36*
Y55217D02*X258282D01*
Y50582D01*
X261718D01*
Y55217D01*
G37*
G36*
X256718D02*X253282D01*
Y50582D01*
X256718D01*
Y55217D01*
G37*
G36*
X271718D02*X268282D01*
Y50582D01*
X271718D01*
Y55217D01*
G37*
G36*
X266718D02*X263282D01*
Y50582D01*
X266718D01*
Y55217D01*
G37*
G36*
Y64417D02*X263282D01*
Y59783D01*
X266718D01*
Y64417D01*
G37*
G36*
X271718D02*X268282D01*
Y59783D01*
X271718D01*
Y64417D01*
G37*
G36*
X291718D02*X288282D01*
Y59783D01*
X291718D01*
Y64417D01*
G37*
G36*
X296718D02*X293282D01*
Y59783D01*
X296718D01*
Y64417D01*
G37*
G36*
X301718D02*X298282D01*
Y59783D01*
X301718D01*
Y64417D01*
G37*
G36*
X306718Y55217D02*X303282D01*
Y50582D01*
X306718D01*
Y55217D01*
G37*
G36*
Y64417D02*X303282D01*
Y59783D01*
X306718D01*
Y64417D01*
G37*
G36*
X301718Y55217D02*X298282D01*
Y50582D01*
X301718D01*
Y55217D01*
G37*
G36*
X296718D02*X293282D01*
Y50582D01*
X296718D01*
Y55217D01*
G37*
G36*
X291718D02*X288282D01*
Y50582D01*
X291718D01*
Y55217D01*
G37*
G36*
X326718Y64417D02*X323282D01*
Y59783D01*
X326718D01*
Y64417D01*
G37*
G36*
X331718D02*X328282D01*
Y59783D01*
X331718D01*
Y64417D01*
G37*
G36*
Y55217D02*X328282D01*
Y50582D01*
X331718D01*
Y55217D01*
G37*
G36*
X326718D02*X323282D01*
Y50582D01*
X326718D01*
Y55217D01*
G37*
G36*
X341718D02*X338282D01*
Y50582D01*
X341718D01*
Y55217D01*
G37*
G36*
X336718D02*X333282D01*
Y50582D01*
X336718D01*
Y55217D01*
G37*
G36*
Y64417D02*X333282D01*
Y59783D01*
X336718D01*
Y64417D01*
G37*
G36*
X341718D02*X338282D01*
Y59783D01*
X341718D01*
Y64417D01*
G37*
G36*
X361718D02*X358282D01*
Y59783D01*
X361718D01*
Y64417D01*
G37*
G36*
X366718D02*X363282D01*
Y59783D01*
X366718D01*
Y64417D01*
G37*
G36*
X371718D02*X368282D01*
Y59783D01*
X371718D01*
Y64417D01*
G37*
G36*
X376718Y55217D02*X373282D01*
Y50582D01*
X376718D01*
Y55217D01*
G37*
G36*
Y64417D02*X373282D01*
Y59783D01*
X376718D01*
Y64417D01*
G37*
G36*
X371718Y55217D02*X368282D01*
Y50582D01*
X371718D01*
Y55217D01*
G37*
G36*
X366718D02*X363282D01*
Y50582D01*
X366718D01*
Y55217D01*
G37*
G36*
X361718D02*X358282D01*
Y50582D01*
X361718D01*
Y55217D01*
G37*
G36*
X396718Y64417D02*X393282D01*
Y59783D01*
X396718D01*
Y64417D01*
G37*
G36*
X401718D02*X398282D01*
Y59783D01*
X401718D01*
Y64417D01*
G37*
G36*
Y55217D02*X398282D01*
Y50582D01*
X401718D01*
Y55217D01*
G37*
G36*
X396718D02*X393282D01*
Y50582D01*
X396718D01*
Y55217D01*
G37*
G36*
X411718D02*X408282D01*
Y50582D01*
X411718D01*
Y55217D01*
G37*
G36*
X406718D02*X403282D01*
Y50582D01*
X406718D01*
Y55217D01*
G37*
G36*
Y64417D02*X403282D01*
Y59783D01*
X406718D01*
Y64417D01*
G37*
G36*
X411718D02*X408282D01*
Y59783D01*
X411718D01*
Y64417D01*
G37*
G36*
X431718D02*X428282D01*
Y59783D01*
X431718D01*
Y64417D01*
G37*
G36*
X436718D02*X433282D01*
Y59783D01*
X436718D01*
Y64417D01*
G37*
G36*
X441718D02*X438282D01*
Y59783D01*
X441718D01*
Y64417D01*
G37*
G36*
X446718Y55217D02*X443282D01*
Y50582D01*
X446718D01*
Y55217D01*
G37*
G36*
Y64417D02*X443282D01*
Y59783D01*
X446718D01*
Y64417D01*
G37*
G36*
X441718Y55217D02*X438282D01*
Y50582D01*
X441718D01*
Y55217D01*
G37*
G36*
X436718D02*X433282D01*
Y50582D01*
X436718D01*
Y55217D01*
G37*
G36*
X431718D02*X428282D01*
Y50582D01*
X431718D01*
Y55217D01*
G37*
G36*
X221718Y29418D02*X218282D01*
Y24782D01*
X221718D01*
Y29418D01*
G37*
G36*
X226718D02*X223282D01*
Y24782D01*
X226718D01*
Y29418D01*
G37*
G36*
Y20218D02*X223282D01*
Y15582D01*
X226718D01*
Y20218D01*
G37*
G36*
X221718D02*X218282D01*
Y15582D01*
X221718D01*
Y20218D01*
G37*
G36*
X236718D02*X233282D01*
Y15582D01*
X236718D01*
Y20218D01*
G37*
G36*
X231718D02*X228282D01*
Y15582D01*
X231718D01*
Y20218D01*
G37*
G36*
Y29418D02*X228282D01*
Y24782D01*
X231718D01*
Y29418D01*
G37*
G36*
X236718D02*X233282D01*
Y24782D01*
X236718D01*
Y29418D01*
G37*
G36*
X256718D02*X253282D01*
Y24782D01*
X256718D01*
Y29418D01*
G37*
G36*
X261718D02*X258282D01*
Y24782D01*
X261718D01*
Y29418D01*
G37*
G36*
X266718D02*X263282D01*
Y24782D01*
X266718D01*
Y29418D01*
G37*
G36*
X271718Y20218D02*X268282D01*
Y15582D01*
X271718D01*
Y20218D01*
G37*
G36*
Y29418D02*X268282D01*
Y24782D01*
X271718D01*
Y29418D01*
G37*
G36*
X266718Y20218D02*X263282D01*
Y15582D01*
X266718D01*
Y20218D01*
G37*
G36*
X261718D02*X258282D01*
Y15582D01*
X261718D01*
Y20218D01*
G37*
G36*
X256718D02*X253282D01*
Y15582D01*
X256718D01*
Y20218D01*
G37*
G36*
X291718Y29418D02*X288282D01*
Y24782D01*
X291718D01*
Y29418D01*
G37*
G36*
X296718D02*X293282D01*
Y24782D01*
X296718D01*
Y29418D01*
G37*
G36*
Y20218D02*X293282D01*
Y15582D01*
X296718D01*
Y20218D01*
G37*
G36*
X291718D02*X288282D01*
Y15582D01*
X291718D01*
Y20218D01*
G37*
G36*
X306718D02*X303282D01*
Y15582D01*
X306718D01*
Y20218D01*
G37*
G36*
X301718D02*X298282D01*
Y15582D01*
X301718D01*
Y20218D01*
G37*
G36*
Y29418D02*X298282D01*
Y24782D01*
X301718D01*
Y29418D01*
G37*
G36*
X306718D02*X303282D01*
Y24782D01*
X306718D01*
Y29418D01*
G37*
G36*
X326718D02*X323282D01*
Y24782D01*
X326718D01*
Y29418D01*
G37*
G36*
X331718D02*X328282D01*
Y24782D01*
X331718D01*
Y29418D01*
G37*
G36*
X336718D02*X333282D01*
Y24782D01*
X336718D01*
Y29418D01*
G37*
G36*
X341718Y20218D02*X338282D01*
Y15582D01*
X341718D01*
Y20218D01*
G37*
G36*
Y29418D02*X338282D01*
Y24782D01*
X341718D01*
Y29418D01*
G37*
G36*
X336718Y20218D02*X333282D01*
Y15582D01*
X336718D01*
Y20218D01*
G37*
G36*
X331718D02*X328282D01*
Y15582D01*
X331718D01*
Y20218D01*
G37*
G36*
X326718D02*X323282D01*
Y15582D01*
X326718D01*
Y20218D01*
G37*
G36*
X361718Y29418D02*X358282D01*
Y24782D01*
X361718D01*
Y29418D01*
G37*
G36*
X366718D02*X363282D01*
Y24782D01*
X366718D01*
Y29418D01*
G37*
G36*
Y20218D02*X363282D01*
Y15582D01*
X366718D01*
Y20218D01*
G37*
G36*
X361718D02*X358282D01*
Y15582D01*
X361718D01*
Y20218D01*
G37*
G36*
X376718D02*X373282D01*
Y15582D01*
X376718D01*
Y20218D01*
G37*
G36*
X371718D02*X368282D01*
Y15582D01*
X371718D01*
Y20218D01*
G37*
G36*
Y29418D02*X368282D01*
Y24782D01*
X371718D01*
Y29418D01*
G37*
G36*
X376718D02*X373282D01*
Y24782D01*
X376718D01*
Y29418D01*
G37*
G36*
X396718D02*X393282D01*
Y24782D01*
X396718D01*
Y29418D01*
G37*
G36*
X401718D02*X398282D01*
Y24782D01*
X401718D01*
Y29418D01*
G37*
G36*
X406718D02*X403282D01*
Y24782D01*
X406718D01*
Y29418D01*
G37*
G36*
X411718Y20218D02*X408282D01*
Y15582D01*
X411718D01*
Y20218D01*
G37*
G36*
Y29418D02*X408282D01*
Y24782D01*
X411718D01*
Y29418D01*
G37*
G36*
X406718Y20218D02*X403282D01*
Y15582D01*
X406718D01*
Y20218D01*
G37*
G36*
X401718D02*X398282D01*
Y15582D01*
X401718D01*
Y20218D01*
G37*
G36*
X396718D02*X393282D01*
Y15582D01*
X396718D01*
Y20218D01*
G37*
G36*
X431718Y29418D02*X428282D01*
Y24782D01*
X431718D01*
Y29418D01*
G37*
G36*
X436718D02*X433282D01*
Y24782D01*
X436718D01*
Y29418D01*
G37*
G36*
Y20218D02*X433282D01*
Y15582D01*
X436718D01*
Y20218D01*
G37*
G36*
X431718D02*X428282D01*
Y15582D01*
X431718D01*
Y20218D01*
G37*
G36*
X446718D02*X443282D01*
Y15582D01*
X446718D01*
Y20218D01*
G37*
G36*
X441718D02*X438282D01*
Y15582D01*
X441718D01*
Y20218D01*
G37*
G36*
Y29418D02*X438282D01*
Y24782D01*
X441718D01*
Y29418D01*
G37*
G36*
X446718D02*X443282D01*
Y24782D01*
X446718D01*
Y29418D01*
G37*
M02*
