G04 start of page 4 for group 2 idx 2 *
G04 Title: (unknown), outline *
G04 Creator: pcb 4.0.2 *
G04 CreationDate: Thu Oct 28 15:19:50 2021 UTC *
G04 For: ndholmes *
G04 Format: Gerber/RS-274X *
G04 PCB-Dimensions (mil): 4900.00 1150.00 *
G04 PCB-Coordinate-Origin: lower left *
%MOIN*%
%FSLAX25Y25*%
%LNOUTLINE*%
%ADD21C,0.0100*%
G54D21*X180000Y98000D02*X187000Y105000D01*
X198000D01*
X205000Y98000D01*
X215000D01*
X222000Y105000D01*
X233000D01*
X240000Y98000D01*
X250000D01*
X257000Y105000D01*
X268000D02*X275000Y98000D01*
X285000D01*
X292000Y105000D01*
X257000D02*X268000D01*
X292000D02*X303000D01*
X327000D02*X338000D01*
X362000D02*X373000D01*
X303000D02*X310000Y98000D01*
X320000D01*
X327000Y105000D01*
X338000D02*X345000Y98000D01*
X355000D01*
Y87000D02*X345000D01*
X338000Y80000D01*
X327000D01*
X320000Y87000D01*
X310000D01*
X303000Y80000D01*
X292000D01*
X285000Y87000D01*
X275000D01*
X268000Y80000D01*
X257000D01*
X250000Y87000D01*
X240000D01*
X233000Y80000D01*
X82000Y105000D02*X93000D01*
X117000D02*X128000D01*
X152000D02*X163000D01*
X93000D02*X100000Y98000D01*
X110000D01*
X117000Y105000D01*
X128000D02*X135000Y98000D01*
X145000D01*
X152000Y105000D01*
X163000D02*X170000Y98000D01*
X180000D01*
X233000Y80000D02*X222000D01*
X198000D02*X187000D01*
X163000D02*X152000D01*
X222000D02*X215000Y87000D01*
X205000D01*
X198000Y80000D01*
X187000D02*X180000Y87000D01*
X170000D01*
X163000Y80000D01*
X152000D02*X145000Y87000D01*
X135000D01*
X128000Y80000D01*
X117000D01*
X110000Y87000D01*
X100000D01*
X93000Y80000D01*
X82000D01*
X75000Y98000D02*X82000Y105000D01*
Y80000D02*X75000Y87000D01*
Y63000D02*X82000Y70000D01*
X93000D01*
X100000Y63000D01*
X110000D01*
X117000Y70000D01*
X128000D01*
X135000Y63000D01*
X145000D01*
X152000Y70000D01*
X163000D01*
X170000Y63000D01*
X233000Y45000D02*X222000D01*
X198000D02*X187000D01*
X163000D02*X152000D01*
X128000D02*X117000D01*
X93000D02*X82000D01*
X222000D02*X215000Y52000D01*
X205000D01*
X198000Y45000D01*
X187000D02*X180000Y52000D01*
X170000D01*
X163000Y45000D01*
X152000D02*X145000Y52000D01*
X135000D01*
X128000Y45000D01*
X117000D02*X110000Y52000D01*
X100000D01*
X93000Y45000D01*
X82000D02*X75000Y52000D01*
X170000Y63000D02*X180000D01*
X187000Y70000D01*
X198000D01*
X205000Y63000D01*
X215000D01*
X222000Y70000D01*
X233000D01*
X240000Y63000D01*
X250000D01*
X257000Y70000D01*
X268000D01*
X275000Y63000D01*
X285000D01*
X310000D02*X320000D01*
X327000Y70000D01*
X338000D01*
X345000Y63000D01*
X355000D01*
Y52000D02*X345000D01*
X338000Y45000D01*
X355000Y63000D02*X362000Y70000D01*
X373000D01*
X380000Y63000D01*
Y52000D02*X373000Y45000D01*
X362000D01*
X355000Y52000D01*
X338000Y45000D02*X327000D01*
X320000Y52000D01*
X310000D01*
X303000Y45000D01*
X285000Y63000D02*X292000Y70000D01*
X303000D01*
X310000Y63000D01*
X303000Y45000D02*X292000D01*
X285000Y52000D01*
X275000D01*
X268000Y45000D01*
X257000D01*
X250000Y52000D01*
X240000D01*
X233000Y45000D01*
X380000Y63000D02*X390000D01*
X415000D02*X425000D01*
X390000D02*X397000Y70000D01*
X415000Y63000D02*X408000Y70000D01*
X397000D01*
X390000Y52000D02*X380000D01*
X390000D02*X397000Y45000D01*
X408000D02*X397000D01*
X425000Y52000D02*X415000D01*
X408000Y45000D01*
X450000Y52000D02*X443000Y45000D01*
X425000Y52000D02*X432000Y45000D01*
X443000D01*
X450000Y63000D02*X443000Y70000D01*
X425000Y63000D02*X432000Y70000D01*
X443000D01*
X47000Y105000D02*X58000D01*
X65000Y98000D01*
Y87000D02*X58000Y80000D01*
X65000Y98000D02*X75000D01*
Y87000D02*X65000D01*
X40000Y98000D02*X47000Y105000D01*
X58000Y80000D02*X47000D01*
X40000Y87000D01*
X30000Y98000D02*X40000D01*
X30000Y105000D02*Y98000D01*
X10000Y105000D02*X30000D01*
Y87000D02*X40000D01*
Y63000D02*X47000Y70000D01*
X30000Y87000D02*Y63000D01*
X40000D01*
X10000Y105000D02*Y10000D01*
X65000Y28000D02*X75000D01*
X82000Y35000D01*
X93000D01*
X110000Y17000D02*X100000D01*
X93000Y10000D01*
X82000D01*
X75000Y17000D01*
X93000Y35000D02*X100000Y28000D01*
X110000D01*
X117000Y35000D01*
X128000D01*
X135000Y28000D01*
X145000D01*
X152000Y35000D01*
Y10000D02*X145000Y17000D01*
X135000D01*
X128000Y10000D01*
X117000D01*
X110000Y17000D01*
X47000Y70000D02*X58000D01*
X65000Y63000D01*
Y52000D02*X58000Y45000D01*
X47000D01*
X65000Y63000D02*X75000D01*
Y52000D02*X65000D01*
X40000Y28000D02*X47000Y35000D01*
Y10000D02*X40000Y17000D01*
X47000Y35000D02*X58000D01*
X65000Y28000D01*
Y17000D02*X58000Y10000D01*
X47000D01*
X75000Y17000D02*X65000D01*
X10000Y10000D02*X30000D01*
Y17000D02*Y10000D01*
Y17000D02*X40000D01*
X47000Y45000D02*X40000Y52000D01*
X30000D02*X40000D01*
X30000D02*Y28000D01*
X40000D01*
X152000Y35000D02*X163000D01*
X187000D02*X198000D01*
X222000D02*X233000D01*
X163000D02*X170000Y28000D01*
X180000D01*
X187000Y35000D01*
X198000D02*X205000Y28000D01*
X215000D01*
X222000Y35000D01*
X233000D02*X240000Y28000D01*
X250000D01*
X257000Y35000D01*
X268000D01*
X275000Y28000D01*
X285000D01*
X292000Y35000D01*
X303000D01*
X310000Y28000D01*
X320000D01*
X327000Y35000D02*X338000D01*
X362000D02*X373000D01*
X338000D02*X345000Y28000D01*
X355000D01*
X362000Y35000D01*
X373000D02*X380000Y28000D01*
Y17000D02*X373000Y10000D01*
X362000D01*
X355000Y17000D01*
X345000D01*
X320000Y28000D02*X327000Y35000D01*
X345000Y17000D02*X338000Y10000D01*
X327000D01*
X320000Y17000D01*
X310000D01*
X303000Y10000D01*
X292000D01*
X285000Y17000D01*
X275000D01*
X268000Y10000D01*
X257000D01*
X250000Y17000D01*
X240000D01*
X233000Y10000D01*
X222000D01*
X215000Y17000D01*
X205000D01*
X198000Y10000D01*
X187000D01*
X180000Y17000D01*
X170000D01*
X163000Y10000D01*
X152000D01*
X380000Y28000D02*X390000D01*
X415000D02*X425000D01*
X390000D02*X397000Y35000D01*
X415000Y28000D02*X408000Y35000D01*
X397000D01*
X390000Y17000D02*X380000D01*
X390000D02*X397000Y10000D01*
X408000D02*X397000D01*
X425000Y17000D02*X415000D01*
X408000Y10000D01*
X450000Y17000D02*X443000Y10000D01*
X425000Y17000D02*X432000Y10000D01*
X443000D01*
X450000Y28000D02*X443000Y35000D01*
X425000Y28000D02*X432000Y35000D01*
X443000D01*
X355000Y98000D02*X362000Y105000D01*
X373000D02*X380000Y98000D01*
Y87000D02*X373000Y80000D01*
X362000D01*
X355000Y87000D01*
X380000Y98000D02*X390000D01*
Y87000D02*X380000D01*
X390000Y98000D02*X397000Y105000D01*
X390000Y87000D02*X397000Y80000D01*
X415000Y98000D02*X425000D01*
Y87000D02*X415000D01*
Y98000D02*X408000Y105000D01*
X397000D01*
X415000Y87000D02*X408000Y80000D01*
X450000Y87000D02*X443000Y80000D01*
X425000Y87000D02*X432000Y80000D01*
X443000D01*
X408000D02*X397000D01*
X450000Y98000D02*X443000Y105000D01*
X425000Y98000D02*X432000Y105000D01*
X443000D01*
X450000Y98000D02*X460000D01*
Y105000D02*Y98000D01*
Y105000D02*X480000D01*
X450000Y87000D02*X460000D01*
X480000Y105000D02*Y10000D01*
X460000Y87000D02*Y63000D01*
X450000D02*X460000D01*
X450000Y52000D02*X460000D01*
Y28000D01*
X450000D02*X460000D01*
Y10000D02*X480000D01*
X460000Y17000D02*Y10000D01*
X450000Y17000D02*X460000D01*
M02*
