M48
INCH
T22C0.013
%
T22
X004650Y010050
X004650Y008450
X004650Y006550
X004650Y004950
X004650Y003050
X004650Y001450
X005050Y010050
X005050Y008450
X005050Y006550
X005050Y004950
X005050Y003050
X005050Y001450
X005450Y010050
X005450Y008450
X005450Y006550
X005450Y004950
X005450Y003050
X005450Y001450
X005850Y010050
X005850Y008450
X005850Y006550
X005850Y004950
X005850Y003050
X005850Y001450
X008150Y010050
X008150Y008450
X008150Y006550
X008150Y004950
X008150Y003050
X008150Y001450
X008550Y010050
X008550Y008450
X008550Y006550
X008550Y004950
X008550Y003050
X008550Y001450
X008950Y010050
X008950Y008450
X008950Y006550
X008950Y004950
X008950Y003050
X008950Y001450
X009350Y010050
X009350Y008450
X009350Y006550
X009350Y004950
X009350Y003050
X009350Y001450
X011650Y010050
X011650Y008450
X011650Y006550
X011650Y004950
X011650Y003050
X011650Y001450
X012050Y010050
X012050Y008450
X012050Y006550
X012050Y004950
X012050Y003050
X012050Y001450
X012450Y010050
X012450Y008450
X012450Y006550
X012450Y004950
X012450Y003050
X012450Y001450
X012850Y010050
X012850Y008450
X012850Y006550
X012850Y004950
X012850Y003050
X012850Y001450
X015150Y010050
X015150Y008450
X015150Y006550
X015150Y004950
X015150Y003050
X015150Y001450
X015550Y010050
X015550Y008450
X015550Y006550
X015550Y004950
X015550Y003050
X015550Y001450
X015950Y010050
X015950Y008450
X015950Y006550
X015950Y004950
X015950Y003050
X015950Y001450
X016350Y010050
X016350Y008450
X016350Y006550
X016350Y004950
X016350Y003050
X016350Y001450
X018650Y010050
X018650Y008450
X018650Y006550
X018650Y004950
X018650Y003050
X018650Y001450
X019050Y010050
X019050Y008450
X019050Y006550
X019050Y004950
X019050Y003050
X019050Y001450
X019450Y010050
X019450Y008450
X019450Y006550
X019450Y004950
X019450Y003050
X019450Y001450
X019850Y010050
X019850Y008450
X019850Y006550
X019850Y004950
X019850Y003050
X019850Y001450
X022150Y010050
X022150Y008450
X022150Y006550
X022150Y004950
X022150Y003050
X022150Y001450
X022550Y010050
X022550Y008450
X022550Y006550
X022550Y004950
X022550Y003050
X022550Y001450
X022950Y010050
X022950Y008450
X022950Y006550
X022950Y004950
X022950Y003050
X022950Y001450
X023350Y010050
X023350Y008450
X023350Y006550
X023350Y004950
X023350Y003050
X023350Y001450
X025650Y010050
X025650Y008450
X025650Y006550
X025650Y004950
X025650Y003050
X025650Y001450
X026050Y010050
X026050Y008450
X026050Y006550
X026050Y004950
X026050Y003050
X026050Y001450
X026450Y010050
X026450Y008450
X026450Y006550
X026450Y004950
X026450Y003050
X026450Y001450
X026850Y010050
X026850Y008450
X026850Y006550
X026850Y004950
X026850Y003050
X026850Y001450
X029150Y010050
X029150Y008450
X029150Y006550
X029150Y004950
X029150Y003050
X029150Y001450
X029550Y010050
X029550Y008450
X029550Y006550
X029550Y004950
X029550Y003050
X029550Y001450
X029950Y010050
X029950Y008450
X029950Y006550
X029950Y004950
X029950Y003050
X029950Y001450
X030350Y010050
X030350Y008450
X030350Y006550
X030350Y004950
X030350Y003050
X030350Y001450
X032650Y010050
X032650Y008450
X032650Y006550
X032650Y004950
X032650Y003050
X032650Y001450
X033050Y010050
X033050Y008450
X033050Y006550
X033050Y004950
X033050Y003050
X033050Y001450
X033450Y010050
X033450Y008450
X033450Y006550
X033450Y004950
X033450Y003050
X033450Y001450
X033850Y010050
X033850Y008450
X033850Y006550
X033850Y004950
X033850Y003050
X033850Y001450
X036150Y010050
X036150Y008450
X036150Y006550
X036150Y004950
X036150Y003050
X036150Y001450
X036550Y010050
X036550Y008450
X036550Y006550
X036550Y004950
X036550Y003050
X036550Y001450
X036950Y010050
X036950Y008450
X036950Y006550
X036950Y004950
X036950Y003050
X036950Y001450
X037350Y010050
X037350Y008450
X037350Y006550
X037350Y004950
X037350Y003050
X037350Y001450
X039650Y010050
X039650Y008450
X039650Y006550
X039650Y004950
X039650Y003050
X039650Y001450
X040050Y010050
X040050Y008450
X040050Y006550
X040050Y004950
X040050Y003050
X040050Y001450
X040450Y010050
X040450Y008450
X040450Y006550
X040450Y004950
X040450Y003050
X040450Y001450
X040850Y010050
X040850Y008450
X040850Y006550
X040850Y004950
X040850Y003050
X040850Y001450
X043150Y010050
X043150Y008450
X043150Y006550
X043150Y004950
X043150Y003050
X043150Y001450
X043550Y010050
X043550Y008450
X043550Y006550
X043550Y004950
X043550Y003050
X043550Y001450
X043950Y010050
X043950Y008450
X043950Y006550
X043950Y004950
X043950Y003050
X043950Y001450
X044350Y010050
X044350Y008450
X044350Y006550
X044350Y004950
X044350Y003050
X044350Y001450
M30
