G04 #@! TF.GenerationSoftware,KiCad,Pcbnew,9.0.9-9.0.9~ubuntu24.04.1*
G04 #@! TF.CreationDate,2026-08-23T16:48:32-06:00*
G04 #@! TF.ProjectId,ckt-irsense-split,636b742d-6972-4736-956e-73652d73706c,rev?*
G04 #@! TF.SameCoordinates,Original*
G04 #@! TF.FileFunction,Copper,L2,Bot*
G04 #@! TF.FilePolarity,Positive*
%FSLAX46Y46*%
G04 Gerber Fmt 4.6, Leading zero omitted, Abs format (unit mm)*
G04 Created by KiCad (PCBNEW 9.0.9-9.0.9~ubuntu24.04.1) date 2026-08-23 16:48:32*
%MOMM*%
%LPD*%
G01*
G04 APERTURE LIST*
G04 #@! TA.AperFunction,ComponentPad*
%ADD10C,6.400000*%
G04 #@! TD*
G04 #@! TA.AperFunction,ViaPad*
%ADD11C,0.609600*%
G04 #@! TD*
G04 #@! TA.AperFunction,Conductor*
%ADD12C,0.457200*%
G04 #@! TD*
G04 APERTURE END LIST*
D10*
X71882000Y-29718000D03*
X71882000Y-46482000D03*
X29718000Y-46482000D03*
X29718000Y-29718000D03*
D11*
X35560000Y-43180000D03*
X56388000Y-26924000D03*
X35560000Y-44196000D03*
X40132000Y-37924500D03*
X45212000Y-26924000D03*
X37150000Y-37912000D03*
X47752000Y-26924000D03*
X36068000Y-37912000D03*
X64770000Y-26924000D03*
X36068000Y-46228000D03*
X36830000Y-26924000D03*
X35560000Y-45212000D03*
X39370000Y-26924000D03*
X38608000Y-45212000D03*
X38608000Y-43180000D03*
X37084000Y-46228000D03*
X53848000Y-26924000D03*
X62230000Y-26924000D03*
X38100000Y-46228000D03*
X38608000Y-44196000D03*
X37846000Y-29210000D03*
X41656000Y-31496000D03*
X42164000Y-30734000D03*
X36576000Y-29210000D03*
D12*
X37846000Y-29210000D02*
X39370000Y-29210000D01*
X39370000Y-29210000D02*
X41656000Y-31496000D01*
X39878000Y-28448000D02*
X37338000Y-28448000D01*
X37338000Y-28448000D02*
X36576000Y-29210000D01*
X42164000Y-30734000D02*
X39878000Y-28448000D01*
G04 #@! TA.AperFunction,Conductor*
G36*
X70501157Y-25927685D02*
G01*
X70546912Y-25980489D01*
X70556856Y-26049647D01*
X70527831Y-26113203D01*
X70481571Y-26146561D01*
X70240132Y-26246568D01*
X70240127Y-26246570D01*
X69907792Y-26424207D01*
X69907774Y-26424218D01*
X69594448Y-26633576D01*
X69594434Y-26633586D01*
X69303123Y-26872658D01*
X69036658Y-27139123D01*
X68797586Y-27430434D01*
X68797576Y-27430448D01*
X68588218Y-27743774D01*
X68588207Y-27743792D01*
X68410570Y-28076127D01*
X68410568Y-28076132D01*
X68266352Y-28424299D01*
X68156955Y-28784934D01*
X68156952Y-28784945D01*
X68083437Y-29154536D01*
X68046500Y-29529577D01*
X68046500Y-29906422D01*
X68083437Y-30281463D01*
X68156952Y-30651054D01*
X68156955Y-30651065D01*
X68266352Y-31011700D01*
X68410568Y-31359867D01*
X68410570Y-31359872D01*
X68588207Y-31692207D01*
X68588218Y-31692225D01*
X68797576Y-32005551D01*
X68797586Y-32005565D01*
X69036658Y-32296876D01*
X69303123Y-32563341D01*
X69303128Y-32563345D01*
X69303129Y-32563346D01*
X69594440Y-32802418D01*
X69907781Y-33011786D01*
X69907790Y-33011791D01*
X69907792Y-33011792D01*
X70240127Y-33189429D01*
X70240129Y-33189429D01*
X70240135Y-33189433D01*
X70588301Y-33333648D01*
X70948925Y-33443042D01*
X70948931Y-33443043D01*
X70948934Y-33443044D01*
X70948945Y-33443047D01*
X71318536Y-33516562D01*
X71693574Y-33553500D01*
X71693577Y-33553500D01*
X72070423Y-33553500D01*
X72070426Y-33553500D01*
X72445464Y-33516562D01*
X72517413Y-33502250D01*
X72815054Y-33443047D01*
X72815065Y-33443044D01*
X72815065Y-33443043D01*
X72815075Y-33443042D01*
X73175699Y-33333648D01*
X73523865Y-33189433D01*
X73856219Y-33011786D01*
X74169560Y-32802418D01*
X74460871Y-32563346D01*
X74727346Y-32296871D01*
X74966418Y-32005560D01*
X75175786Y-31692219D01*
X75353433Y-31359865D01*
X75453439Y-31118426D01*
X75497280Y-31064025D01*
X75563574Y-31041960D01*
X75631273Y-31059239D01*
X75678884Y-31110376D01*
X75692000Y-31165881D01*
X75692000Y-45034118D01*
X75672315Y-45101157D01*
X75619511Y-45146912D01*
X75550353Y-45156856D01*
X75486797Y-45127831D01*
X75453439Y-45081571D01*
X75433783Y-45034118D01*
X75353433Y-44840135D01*
X75175786Y-44507781D01*
X74966418Y-44194440D01*
X74727346Y-43903129D01*
X74727345Y-43903128D01*
X74727341Y-43903123D01*
X74460876Y-43636658D01*
X74169565Y-43397586D01*
X74169564Y-43397585D01*
X74169560Y-43397582D01*
X73856219Y-43188214D01*
X73856214Y-43188211D01*
X73856207Y-43188207D01*
X73523872Y-43010570D01*
X73523867Y-43010568D01*
X73175700Y-42866352D01*
X72815065Y-42756955D01*
X72815054Y-42756952D01*
X72445463Y-42683437D01*
X72163001Y-42655617D01*
X72070426Y-42646500D01*
X71693574Y-42646500D01*
X71608036Y-42654924D01*
X71318536Y-42683437D01*
X70948945Y-42756952D01*
X70948934Y-42756955D01*
X70588299Y-42866352D01*
X70240132Y-43010568D01*
X70240127Y-43010570D01*
X69907792Y-43188207D01*
X69907774Y-43188218D01*
X69594448Y-43397576D01*
X69594434Y-43397586D01*
X69303123Y-43636658D01*
X69036658Y-43903123D01*
X68797586Y-44194434D01*
X68797576Y-44194448D01*
X68588218Y-44507774D01*
X68588207Y-44507792D01*
X68410570Y-44840127D01*
X68410568Y-44840132D01*
X68266352Y-45188299D01*
X68156955Y-45548934D01*
X68156952Y-45548945D01*
X68083437Y-45918536D01*
X68046500Y-46293577D01*
X68046500Y-46670422D01*
X68083437Y-47045463D01*
X68156952Y-47415054D01*
X68156955Y-47415065D01*
X68266352Y-47775700D01*
X68410568Y-48123867D01*
X68410570Y-48123872D01*
X68588207Y-48456207D01*
X68588218Y-48456225D01*
X68797576Y-48769551D01*
X68797586Y-48769565D01*
X69036658Y-49060876D01*
X69303123Y-49327341D01*
X69303128Y-49327345D01*
X69303129Y-49327346D01*
X69594440Y-49566418D01*
X69907781Y-49775786D01*
X69907790Y-49775791D01*
X69907792Y-49775792D01*
X70240127Y-49953429D01*
X70240129Y-49953429D01*
X70240135Y-49953433D01*
X70481571Y-50053439D01*
X70535974Y-50097280D01*
X70558039Y-50163574D01*
X70540760Y-50231274D01*
X70489622Y-50278884D01*
X70434118Y-50292000D01*
X31165882Y-50292000D01*
X31098843Y-50272315D01*
X31053088Y-50219511D01*
X31043144Y-50150353D01*
X31072169Y-50086797D01*
X31118429Y-50053439D01*
X31359865Y-49953433D01*
X31692219Y-49775786D01*
X32005560Y-49566418D01*
X32296871Y-49327346D01*
X32563346Y-49060871D01*
X32802418Y-48769560D01*
X33011786Y-48456219D01*
X33189433Y-48123865D01*
X33333648Y-47775699D01*
X33443042Y-47415075D01*
X33443044Y-47415065D01*
X33443047Y-47415054D01*
X33516562Y-47045463D01*
X33553500Y-46670422D01*
X33553500Y-46293577D01*
X33516562Y-45918536D01*
X33443047Y-45548945D01*
X33443044Y-45548934D01*
X33443043Y-45548931D01*
X33443042Y-45548925D01*
X33333648Y-45188301D01*
X33189433Y-44840135D01*
X33011786Y-44507781D01*
X32802418Y-44194440D01*
X32563346Y-43903129D01*
X32563345Y-43903128D01*
X32563341Y-43903123D01*
X32296876Y-43636658D01*
X32005565Y-43397586D01*
X32005564Y-43397585D01*
X32005560Y-43397582D01*
X31692219Y-43188214D01*
X31692214Y-43188211D01*
X31692207Y-43188207D01*
X31359872Y-43010570D01*
X31359867Y-43010568D01*
X31011700Y-42866352D01*
X30651065Y-42756955D01*
X30651054Y-42756952D01*
X30281463Y-42683437D01*
X29999001Y-42655617D01*
X29906426Y-42646500D01*
X29529574Y-42646500D01*
X29444036Y-42654924D01*
X29154536Y-42683437D01*
X28784945Y-42756952D01*
X28784934Y-42756955D01*
X28424299Y-42866352D01*
X28076132Y-43010568D01*
X28076127Y-43010570D01*
X27743792Y-43188207D01*
X27743774Y-43188218D01*
X27430448Y-43397576D01*
X27430434Y-43397586D01*
X27139123Y-43636658D01*
X26872658Y-43903123D01*
X26633586Y-44194434D01*
X26633576Y-44194448D01*
X26424218Y-44507774D01*
X26424207Y-44507792D01*
X26246570Y-44840127D01*
X26246568Y-44840132D01*
X26146561Y-45081571D01*
X26102720Y-45135974D01*
X26036426Y-45158039D01*
X25968726Y-45140760D01*
X25921116Y-45089622D01*
X25908000Y-45034118D01*
X25908000Y-31165881D01*
X25927685Y-31098842D01*
X25980489Y-31053087D01*
X26049647Y-31043143D01*
X26113203Y-31072168D01*
X26146560Y-31118426D01*
X26245571Y-31357460D01*
X26246568Y-31359867D01*
X26246570Y-31359872D01*
X26424207Y-31692207D01*
X26424218Y-31692225D01*
X26633576Y-32005551D01*
X26633586Y-32005565D01*
X26872658Y-32296876D01*
X27139123Y-32563341D01*
X27139128Y-32563345D01*
X27139129Y-32563346D01*
X27430440Y-32802418D01*
X27743781Y-33011786D01*
X27743790Y-33011791D01*
X27743792Y-33011792D01*
X28076127Y-33189429D01*
X28076129Y-33189429D01*
X28076135Y-33189433D01*
X28424301Y-33333648D01*
X28784925Y-33443042D01*
X28784931Y-33443043D01*
X28784934Y-33443044D01*
X28784945Y-33443047D01*
X29154536Y-33516562D01*
X29529574Y-33553500D01*
X29529577Y-33553500D01*
X29906423Y-33553500D01*
X29906426Y-33553500D01*
X30281464Y-33516562D01*
X30353413Y-33502250D01*
X30651054Y-33443047D01*
X30651065Y-33443044D01*
X30651065Y-33443043D01*
X30651075Y-33443042D01*
X31011699Y-33333648D01*
X31359865Y-33189433D01*
X31692219Y-33011786D01*
X32005560Y-32802418D01*
X32296871Y-32563346D01*
X32563346Y-32296871D01*
X32802418Y-32005560D01*
X33011786Y-31692219D01*
X33189433Y-31359865D01*
X33333648Y-31011699D01*
X33443042Y-30651075D01*
X33443044Y-30651065D01*
X33443047Y-30651054D01*
X33516562Y-30281463D01*
X33553500Y-29906422D01*
X33553500Y-29529577D01*
X33543287Y-29425885D01*
X33516562Y-29154536D01*
X33516557Y-29154514D01*
X33516142Y-29152421D01*
X33516142Y-29152420D01*
X33512949Y-29136367D01*
X36016700Y-29136367D01*
X36016700Y-29283633D01*
X36035102Y-29352308D01*
X36054817Y-29425885D01*
X36106572Y-29515526D01*
X36128449Y-29553418D01*
X36232582Y-29657551D01*
X36294155Y-29693100D01*
X36360114Y-29731182D01*
X36360115Y-29731182D01*
X36360118Y-29731184D01*
X36502367Y-29769300D01*
X36502370Y-29769300D01*
X36649630Y-29769300D01*
X36649633Y-29769300D01*
X36791882Y-29731184D01*
X36919418Y-29657551D01*
X37023551Y-29553418D01*
X37097184Y-29425882D01*
X37097184Y-29425881D01*
X37101248Y-29418843D01*
X37102829Y-29419755D01*
X37140261Y-29373289D01*
X37206552Y-29351213D01*
X37274254Y-29368480D01*
X37321873Y-29419609D01*
X37324448Y-29425246D01*
X37377900Y-29517827D01*
X37398449Y-29553418D01*
X37502582Y-29657551D01*
X37564155Y-29693100D01*
X37630114Y-29731182D01*
X37630115Y-29731182D01*
X37630118Y-29731184D01*
X37772367Y-29769300D01*
X37772370Y-29769300D01*
X37919630Y-29769300D01*
X37919633Y-29769300D01*
X38061882Y-29731184D01*
X38099071Y-29709712D01*
X38161071Y-29693100D01*
X39118531Y-29693100D01*
X39185570Y-29712785D01*
X39206212Y-29729419D01*
X41091607Y-31614814D01*
X41123700Y-31670400D01*
X41134814Y-31711878D01*
X41134817Y-31711885D01*
X41186572Y-31801526D01*
X41208449Y-31839418D01*
X41312582Y-31943551D01*
X41402226Y-31995307D01*
X41440114Y-32017182D01*
X41440115Y-32017182D01*
X41440118Y-32017184D01*
X41582367Y-32055300D01*
X41582370Y-32055300D01*
X41729630Y-32055300D01*
X41729633Y-32055300D01*
X41871882Y-32017184D01*
X41999418Y-31943551D01*
X42103551Y-31839418D01*
X42177184Y-31711882D01*
X42215300Y-31569633D01*
X42215300Y-31422367D01*
X42215299Y-31422366D01*
X42214239Y-31414310D01*
X42216941Y-31413954D01*
X42218283Y-31357460D01*
X42257441Y-31299595D01*
X42304298Y-31275436D01*
X42379882Y-31255184D01*
X42507418Y-31181551D01*
X42611551Y-31077418D01*
X42685184Y-30949882D01*
X42723300Y-30807633D01*
X42723300Y-30660367D01*
X42685184Y-30518118D01*
X42611551Y-30390582D01*
X42507418Y-30286449D01*
X42469526Y-30264572D01*
X42379885Y-30212817D01*
X42379878Y-30212814D01*
X42338400Y-30201700D01*
X42282814Y-30169607D01*
X40174633Y-28061426D01*
X40174631Y-28061424D01*
X40119550Y-28029623D01*
X40064471Y-27997822D01*
X40003035Y-27981361D01*
X39941601Y-27964900D01*
X37274399Y-27964900D01*
X37151528Y-27997822D01*
X37041369Y-28061424D01*
X37041366Y-28061426D01*
X36951422Y-28151371D01*
X36457184Y-28645607D01*
X36401599Y-28677700D01*
X36360119Y-28688815D01*
X36360114Y-28688817D01*
X36232585Y-28762447D01*
X36232579Y-28762451D01*
X36128451Y-28866579D01*
X36128447Y-28866585D01*
X36054817Y-28994114D01*
X36054816Y-28994118D01*
X36016700Y-29136367D01*
X33512949Y-29136367D01*
X33443047Y-28784945D01*
X33443044Y-28784934D01*
X33443043Y-28784931D01*
X33443042Y-28784925D01*
X33333648Y-28424301D01*
X33189433Y-28076135D01*
X33011786Y-27743781D01*
X32802418Y-27430440D01*
X32563346Y-27139129D01*
X32563345Y-27139128D01*
X32563341Y-27139123D01*
X32296876Y-26872658D01*
X32005565Y-26633586D01*
X32005564Y-26633585D01*
X32005560Y-26633582D01*
X31692219Y-26424214D01*
X31692214Y-26424211D01*
X31692207Y-26424207D01*
X31359872Y-26246570D01*
X31359867Y-26246568D01*
X31118429Y-26146561D01*
X31064026Y-26102720D01*
X31041961Y-26036426D01*
X31059240Y-25968726D01*
X31110378Y-25921116D01*
X31165882Y-25908000D01*
X70434118Y-25908000D01*
X70501157Y-25927685D01*
G37*
G04 #@! TD.AperFunction*
M02*
