G04 #@! TF.GenerationSoftware,KiCad,Pcbnew,9.0.9-9.0.9~ubuntu24.04.1*
G04 #@! TF.CreationDate,2026-08-23T16:48:32-06:00*
G04 #@! TF.ProjectId,ckt-irsense-split,636b742d-6972-4736-956e-73652d73706c,rev?*
G04 #@! TF.SameCoordinates,Original*
G04 #@! TF.FileFunction,Copper,L1,Top*
G04 #@! TF.FilePolarity,Positive*
%FSLAX46Y46*%
G04 Gerber Fmt 4.6, Leading zero omitted, Abs format (unit mm)*
G04 Created by KiCad (PCBNEW 9.0.9-9.0.9~ubuntu24.04.1) date 2026-08-23 16:48:32*
%MOMM*%
%LPD*%
G01*
G04 APERTURE LIST*
G04 #@! TA.AperFunction,SMDPad,CuDef*
%ADD10R,1.900000X1.400000*%
G04 #@! TD*
G04 #@! TA.AperFunction,SMDPad,CuDef*
%ADD11R,0.640000X2.000000*%
G04 #@! TD*
G04 #@! TA.AperFunction,ComponentPad*
%ADD12C,6.400000*%
G04 #@! TD*
G04 #@! TA.AperFunction,SMDPad,CuDef*
%ADD13R,0.550000X1.300000*%
G04 #@! TD*
G04 #@! TA.AperFunction,ViaPad*
%ADD14C,0.609600*%
G04 #@! TD*
G04 #@! TA.AperFunction,Conductor*
%ADD15C,0.457200*%
G04 #@! TD*
G04 APERTURE END LIST*
G04 #@! TA.AperFunction,SMDPad,CuDef*
G36*
G01*
X67465000Y-41206000D02*
X67465000Y-42106000D01*
G75*
G02*
X67215000Y-42356000I-250000J0D01*
G01*
X66690000Y-42356000D01*
G75*
G02*
X66440000Y-42106000I0J250000D01*
G01*
X66440000Y-41206000D01*
G75*
G02*
X66690000Y-40956000I250000J0D01*
G01*
X67215000Y-40956000D01*
G75*
G02*
X67465000Y-41206000I0J-250000D01*
G01*
G37*
G04 #@! TD.AperFunction*
G04 #@! TA.AperFunction,SMDPad,CuDef*
G36*
G01*
X65640000Y-41206000D02*
X65640000Y-42106000D01*
G75*
G02*
X65390000Y-42356000I-250000J0D01*
G01*
X64865000Y-42356000D01*
G75*
G02*
X64615000Y-42106000I0J250000D01*
G01*
X64615000Y-41206000D01*
G75*
G02*
X64865000Y-40956000I250000J0D01*
G01*
X65390000Y-40956000D01*
G75*
G02*
X65640000Y-41206000I0J-250000D01*
G01*
G37*
G04 #@! TD.AperFunction*
D10*
X30988000Y-40004000D03*
X30988000Y-36704000D03*
D11*
X54610000Y-48108000D03*
X57150000Y-48108000D03*
X57150000Y-41808000D03*
X54610000Y-41808000D03*
D10*
X45212000Y-39498000D03*
X45212000Y-42798000D03*
D12*
X71882000Y-29718000D03*
G04 #@! TA.AperFunction,SMDPad,CuDef*
G36*
G01*
X49883000Y-42106000D02*
X49883000Y-41206000D01*
G75*
G02*
X50133000Y-40956000I250000J0D01*
G01*
X50658000Y-40956000D01*
G75*
G02*
X50908000Y-41206000I0J-250000D01*
G01*
X50908000Y-42106000D01*
G75*
G02*
X50658000Y-42356000I-250000J0D01*
G01*
X50133000Y-42356000D01*
G75*
G02*
X49883000Y-42106000I0J250000D01*
G01*
G37*
G04 #@! TD.AperFunction*
G04 #@! TA.AperFunction,SMDPad,CuDef*
G36*
G01*
X51708000Y-42106000D02*
X51708000Y-41206000D01*
G75*
G02*
X51958000Y-40956000I250000J0D01*
G01*
X52483000Y-40956000D01*
G75*
G02*
X52733000Y-41206000I0J-250000D01*
G01*
X52733000Y-42106000D01*
G75*
G02*
X52483000Y-42356000I-250000J0D01*
G01*
X51958000Y-42356000D01*
G75*
G02*
X51708000Y-42106000I0J250000D01*
G01*
G37*
G04 #@! TD.AperFunction*
G04 #@! TA.AperFunction,SMDPad,CuDef*
G36*
G01*
X50804500Y-44508000D02*
X50804500Y-45408000D01*
G75*
G02*
X50554500Y-45658000I-250000J0D01*
G01*
X50029500Y-45658000D01*
G75*
G02*
X49779500Y-45408000I0J250000D01*
G01*
X49779500Y-44508000D01*
G75*
G02*
X50029500Y-44258000I250000J0D01*
G01*
X50554500Y-44258000D01*
G75*
G02*
X50804500Y-44508000I0J-250000D01*
G01*
G37*
G04 #@! TD.AperFunction*
G04 #@! TA.AperFunction,SMDPad,CuDef*
G36*
G01*
X48979500Y-44508000D02*
X48979500Y-45408000D01*
G75*
G02*
X48729500Y-45658000I-250000J0D01*
G01*
X48204500Y-45658000D01*
G75*
G02*
X47954500Y-45408000I0J250000D01*
G01*
X47954500Y-44508000D01*
G75*
G02*
X48204500Y-44258000I250000J0D01*
G01*
X48729500Y-44258000D01*
G75*
G02*
X48979500Y-44508000I0J-250000D01*
G01*
G37*
G04 #@! TD.AperFunction*
D11*
X60198000Y-48108000D03*
X62738000Y-48108000D03*
X62738000Y-41808000D03*
X60198000Y-41808000D03*
G04 #@! TA.AperFunction,SMDPad,CuDef*
G36*
G01*
X48282000Y-30077000D02*
X48282000Y-31327000D01*
G75*
G02*
X48132000Y-31477000I-150000J0D01*
G01*
X47832000Y-31477000D01*
G75*
G02*
X47682000Y-31327000I0J150000D01*
G01*
X47682000Y-30077000D01*
G75*
G02*
X47832000Y-29927000I150000J0D01*
G01*
X48132000Y-29927000D01*
G75*
G02*
X48282000Y-30077000I0J-150000D01*
G01*
G37*
G04 #@! TD.AperFunction*
G04 #@! TA.AperFunction,SMDPad,CuDef*
G36*
G01*
X47282000Y-30077000D02*
X47282000Y-31327000D01*
G75*
G02*
X47132000Y-31477000I-150000J0D01*
G01*
X46832000Y-31477000D01*
G75*
G02*
X46682000Y-31327000I0J150000D01*
G01*
X46682000Y-30077000D01*
G75*
G02*
X46832000Y-29927000I150000J0D01*
G01*
X47132000Y-29927000D01*
G75*
G02*
X47282000Y-30077000I0J-150000D01*
G01*
G37*
G04 #@! TD.AperFunction*
G04 #@! TA.AperFunction,SMDPad,CuDef*
G36*
G01*
X46282000Y-30077000D02*
X46282000Y-31327000D01*
G75*
G02*
X46132000Y-31477000I-150000J0D01*
G01*
X45832000Y-31477000D01*
G75*
G02*
X45682000Y-31327000I0J150000D01*
G01*
X45682000Y-30077000D01*
G75*
G02*
X45832000Y-29927000I150000J0D01*
G01*
X46132000Y-29927000D01*
G75*
G02*
X46282000Y-30077000I0J-150000D01*
G01*
G37*
G04 #@! TD.AperFunction*
G04 #@! TA.AperFunction,SMDPad,CuDef*
G36*
G01*
X45282000Y-30077000D02*
X45282000Y-31327000D01*
G75*
G02*
X45132000Y-31477000I-150000J0D01*
G01*
X44832000Y-31477000D01*
G75*
G02*
X44682000Y-31327000I0J150000D01*
G01*
X44682000Y-30077000D01*
G75*
G02*
X44832000Y-29927000I150000J0D01*
G01*
X45132000Y-29927000D01*
G75*
G02*
X45282000Y-30077000I0J-150000D01*
G01*
G37*
G04 #@! TD.AperFunction*
G04 #@! TA.AperFunction,SMDPad,CuDef*
G36*
G01*
X49882000Y-26177000D02*
X49882000Y-27477000D01*
G75*
G02*
X49632000Y-27727000I-250000J0D01*
G01*
X48932000Y-27727000D01*
G75*
G02*
X48682000Y-27477000I0J250000D01*
G01*
X48682000Y-26177000D01*
G75*
G02*
X48932000Y-25927000I250000J0D01*
G01*
X49632000Y-25927000D01*
G75*
G02*
X49882000Y-26177000I0J-250000D01*
G01*
G37*
G04 #@! TD.AperFunction*
G04 #@! TA.AperFunction,SMDPad,CuDef*
G36*
G01*
X44282000Y-26177000D02*
X44282000Y-27477000D01*
G75*
G02*
X44032000Y-27727000I-250000J0D01*
G01*
X43332000Y-27727000D01*
G75*
G02*
X43082000Y-27477000I0J250000D01*
G01*
X43082000Y-26177000D01*
G75*
G02*
X43332000Y-25927000I250000J0D01*
G01*
X44032000Y-25927000D01*
G75*
G02*
X44282000Y-26177000I0J-250000D01*
G01*
G37*
G04 #@! TD.AperFunction*
G04 #@! TA.AperFunction,SMDPad,CuDef*
G36*
G01*
X34511000Y-40312000D02*
X33561000Y-40312000D01*
G75*
G02*
X33311000Y-40062000I0J250000D01*
G01*
X33311000Y-39562000D01*
G75*
G02*
X33561000Y-39312000I250000J0D01*
G01*
X34511000Y-39312000D01*
G75*
G02*
X34761000Y-39562000I0J-250000D01*
G01*
X34761000Y-40062000D01*
G75*
G02*
X34511000Y-40312000I-250000J0D01*
G01*
G37*
G04 #@! TD.AperFunction*
G04 #@! TA.AperFunction,SMDPad,CuDef*
G36*
G01*
X34511000Y-38412000D02*
X33561000Y-38412000D01*
G75*
G02*
X33311000Y-38162000I0J250000D01*
G01*
X33311000Y-37662000D01*
G75*
G02*
X33561000Y-37412000I250000J0D01*
G01*
X34511000Y-37412000D01*
G75*
G02*
X34761000Y-37662000I0J-250000D01*
G01*
X34761000Y-38162000D01*
G75*
G02*
X34511000Y-38412000I-250000J0D01*
G01*
G37*
G04 #@! TD.AperFunction*
G04 #@! TA.AperFunction,SMDPad,CuDef*
G36*
G01*
X56918000Y-30077000D02*
X56918000Y-31327000D01*
G75*
G02*
X56768000Y-31477000I-150000J0D01*
G01*
X56468000Y-31477000D01*
G75*
G02*
X56318000Y-31327000I0J150000D01*
G01*
X56318000Y-30077000D01*
G75*
G02*
X56468000Y-29927000I150000J0D01*
G01*
X56768000Y-29927000D01*
G75*
G02*
X56918000Y-30077000I0J-150000D01*
G01*
G37*
G04 #@! TD.AperFunction*
G04 #@! TA.AperFunction,SMDPad,CuDef*
G36*
G01*
X55918000Y-30077000D02*
X55918000Y-31327000D01*
G75*
G02*
X55768000Y-31477000I-150000J0D01*
G01*
X55468000Y-31477000D01*
G75*
G02*
X55318000Y-31327000I0J150000D01*
G01*
X55318000Y-30077000D01*
G75*
G02*
X55468000Y-29927000I150000J0D01*
G01*
X55768000Y-29927000D01*
G75*
G02*
X55918000Y-30077000I0J-150000D01*
G01*
G37*
G04 #@! TD.AperFunction*
G04 #@! TA.AperFunction,SMDPad,CuDef*
G36*
G01*
X54918000Y-30077000D02*
X54918000Y-31327000D01*
G75*
G02*
X54768000Y-31477000I-150000J0D01*
G01*
X54468000Y-31477000D01*
G75*
G02*
X54318000Y-31327000I0J150000D01*
G01*
X54318000Y-30077000D01*
G75*
G02*
X54468000Y-29927000I150000J0D01*
G01*
X54768000Y-29927000D01*
G75*
G02*
X54918000Y-30077000I0J-150000D01*
G01*
G37*
G04 #@! TD.AperFunction*
G04 #@! TA.AperFunction,SMDPad,CuDef*
G36*
G01*
X53918000Y-30077000D02*
X53918000Y-31327000D01*
G75*
G02*
X53768000Y-31477000I-150000J0D01*
G01*
X53468000Y-31477000D01*
G75*
G02*
X53318000Y-31327000I0J150000D01*
G01*
X53318000Y-30077000D01*
G75*
G02*
X53468000Y-29927000I150000J0D01*
G01*
X53768000Y-29927000D01*
G75*
G02*
X53918000Y-30077000I0J-150000D01*
G01*
G37*
G04 #@! TD.AperFunction*
G04 #@! TA.AperFunction,SMDPad,CuDef*
G36*
G01*
X58518000Y-26177000D02*
X58518000Y-27477000D01*
G75*
G02*
X58268000Y-27727000I-250000J0D01*
G01*
X57568000Y-27727000D01*
G75*
G02*
X57318000Y-27477000I0J250000D01*
G01*
X57318000Y-26177000D01*
G75*
G02*
X57568000Y-25927000I250000J0D01*
G01*
X58268000Y-25927000D01*
G75*
G02*
X58518000Y-26177000I0J-250000D01*
G01*
G37*
G04 #@! TD.AperFunction*
G04 #@! TA.AperFunction,SMDPad,CuDef*
G36*
G01*
X52918000Y-26177000D02*
X52918000Y-27477000D01*
G75*
G02*
X52668000Y-27727000I-250000J0D01*
G01*
X51968000Y-27727000D01*
G75*
G02*
X51718000Y-27477000I0J250000D01*
G01*
X51718000Y-26177000D01*
G75*
G02*
X51968000Y-25927000I250000J0D01*
G01*
X52668000Y-25927000D01*
G75*
G02*
X52918000Y-26177000I0J-250000D01*
G01*
G37*
G04 #@! TD.AperFunction*
G04 #@! TA.AperFunction,SMDPad,CuDef*
G36*
G01*
X41453750Y-37437000D02*
X42366250Y-37437000D01*
G75*
G02*
X42610000Y-37680750I0J-243750D01*
G01*
X42610000Y-38168250D01*
G75*
G02*
X42366250Y-38412000I-243750J0D01*
G01*
X41453750Y-38412000D01*
G75*
G02*
X41210000Y-38168250I0J243750D01*
G01*
X41210000Y-37680750D01*
G75*
G02*
X41453750Y-37437000I243750J0D01*
G01*
G37*
G04 #@! TD.AperFunction*
G04 #@! TA.AperFunction,SMDPad,CuDef*
G36*
G01*
X41453750Y-39312000D02*
X42366250Y-39312000D01*
G75*
G02*
X42610000Y-39555750I0J-243750D01*
G01*
X42610000Y-40043250D01*
G75*
G02*
X42366250Y-40287000I-243750J0D01*
G01*
X41453750Y-40287000D01*
G75*
G02*
X41210000Y-40043250I0J243750D01*
G01*
X41210000Y-39555750D01*
G75*
G02*
X41453750Y-39312000I243750J0D01*
G01*
G37*
G04 #@! TD.AperFunction*
G04 #@! TA.AperFunction,SMDPad,CuDef*
G36*
G01*
X41460000Y-42517000D02*
X42360000Y-42517000D01*
G75*
G02*
X42610000Y-42767000I0J-250000D01*
G01*
X42610000Y-43292000D01*
G75*
G02*
X42360000Y-43542000I-250000J0D01*
G01*
X41460000Y-43542000D01*
G75*
G02*
X41210000Y-43292000I0J250000D01*
G01*
X41210000Y-42767000D01*
G75*
G02*
X41460000Y-42517000I250000J0D01*
G01*
G37*
G04 #@! TD.AperFunction*
G04 #@! TA.AperFunction,SMDPad,CuDef*
G36*
G01*
X41460000Y-44342000D02*
X42360000Y-44342000D01*
G75*
G02*
X42610000Y-44592000I0J-250000D01*
G01*
X42610000Y-45117000D01*
G75*
G02*
X42360000Y-45367000I-250000J0D01*
G01*
X41460000Y-45367000D01*
G75*
G02*
X41210000Y-45117000I0J250000D01*
G01*
X41210000Y-44592000D01*
G75*
G02*
X41460000Y-44342000I250000J0D01*
G01*
G37*
G04 #@! TD.AperFunction*
D12*
X71882000Y-46482000D03*
G04 #@! TA.AperFunction,SMDPad,CuDef*
G36*
G01*
X64615000Y-39572250D02*
X64615000Y-38659750D01*
G75*
G02*
X64858750Y-38416000I243750J0D01*
G01*
X65346250Y-38416000D01*
G75*
G02*
X65590000Y-38659750I0J-243750D01*
G01*
X65590000Y-39572250D01*
G75*
G02*
X65346250Y-39816000I-243750J0D01*
G01*
X64858750Y-39816000D01*
G75*
G02*
X64615000Y-39572250I0J243750D01*
G01*
G37*
G04 #@! TD.AperFunction*
G04 #@! TA.AperFunction,SMDPad,CuDef*
G36*
G01*
X66490000Y-39572250D02*
X66490000Y-38659750D01*
G75*
G02*
X66733750Y-38416000I243750J0D01*
G01*
X67221250Y-38416000D01*
G75*
G02*
X67465000Y-38659750I0J-243750D01*
G01*
X67465000Y-39572250D01*
G75*
G02*
X67221250Y-39816000I-243750J0D01*
G01*
X66733750Y-39816000D01*
G75*
G02*
X66490000Y-39572250I0J243750D01*
G01*
G37*
G04 #@! TD.AperFunction*
G04 #@! TA.AperFunction,SMDPad,CuDef*
G36*
G01*
X64615000Y-37026000D02*
X64615000Y-36126000D01*
G75*
G02*
X64865000Y-35876000I250000J0D01*
G01*
X65390000Y-35876000D01*
G75*
G02*
X65640000Y-36126000I0J-250000D01*
G01*
X65640000Y-37026000D01*
G75*
G02*
X65390000Y-37276000I-250000J0D01*
G01*
X64865000Y-37276000D01*
G75*
G02*
X64615000Y-37026000I0J250000D01*
G01*
G37*
G04 #@! TD.AperFunction*
G04 #@! TA.AperFunction,SMDPad,CuDef*
G36*
G01*
X66440000Y-37026000D02*
X66440000Y-36126000D01*
G75*
G02*
X66690000Y-35876000I250000J0D01*
G01*
X67215000Y-35876000D01*
G75*
G02*
X67465000Y-36126000I0J-250000D01*
G01*
X67465000Y-37026000D01*
G75*
G02*
X67215000Y-37276000I-250000J0D01*
G01*
X66690000Y-37276000D01*
G75*
G02*
X66440000Y-37026000I0J250000D01*
G01*
G37*
G04 #@! TD.AperFunction*
G04 #@! TA.AperFunction,SMDPad,CuDef*
G36*
G01*
X65300000Y-30077000D02*
X65300000Y-31327000D01*
G75*
G02*
X65150000Y-31477000I-150000J0D01*
G01*
X64850000Y-31477000D01*
G75*
G02*
X64700000Y-31327000I0J150000D01*
G01*
X64700000Y-30077000D01*
G75*
G02*
X64850000Y-29927000I150000J0D01*
G01*
X65150000Y-29927000D01*
G75*
G02*
X65300000Y-30077000I0J-150000D01*
G01*
G37*
G04 #@! TD.AperFunction*
G04 #@! TA.AperFunction,SMDPad,CuDef*
G36*
G01*
X64300000Y-30077000D02*
X64300000Y-31327000D01*
G75*
G02*
X64150000Y-31477000I-150000J0D01*
G01*
X63850000Y-31477000D01*
G75*
G02*
X63700000Y-31327000I0J150000D01*
G01*
X63700000Y-30077000D01*
G75*
G02*
X63850000Y-29927000I150000J0D01*
G01*
X64150000Y-29927000D01*
G75*
G02*
X64300000Y-30077000I0J-150000D01*
G01*
G37*
G04 #@! TD.AperFunction*
G04 #@! TA.AperFunction,SMDPad,CuDef*
G36*
G01*
X63300000Y-30077000D02*
X63300000Y-31327000D01*
G75*
G02*
X63150000Y-31477000I-150000J0D01*
G01*
X62850000Y-31477000D01*
G75*
G02*
X62700000Y-31327000I0J150000D01*
G01*
X62700000Y-30077000D01*
G75*
G02*
X62850000Y-29927000I150000J0D01*
G01*
X63150000Y-29927000D01*
G75*
G02*
X63300000Y-30077000I0J-150000D01*
G01*
G37*
G04 #@! TD.AperFunction*
G04 #@! TA.AperFunction,SMDPad,CuDef*
G36*
G01*
X62300000Y-30077000D02*
X62300000Y-31327000D01*
G75*
G02*
X62150000Y-31477000I-150000J0D01*
G01*
X61850000Y-31477000D01*
G75*
G02*
X61700000Y-31327000I0J150000D01*
G01*
X61700000Y-30077000D01*
G75*
G02*
X61850000Y-29927000I150000J0D01*
G01*
X62150000Y-29927000D01*
G75*
G02*
X62300000Y-30077000I0J-150000D01*
G01*
G37*
G04 #@! TD.AperFunction*
G04 #@! TA.AperFunction,SMDPad,CuDef*
G36*
G01*
X66900000Y-26177000D02*
X66900000Y-27477000D01*
G75*
G02*
X66650000Y-27727000I-250000J0D01*
G01*
X65950000Y-27727000D01*
G75*
G02*
X65700000Y-27477000I0J250000D01*
G01*
X65700000Y-26177000D01*
G75*
G02*
X65950000Y-25927000I250000J0D01*
G01*
X66650000Y-25927000D01*
G75*
G02*
X66900000Y-26177000I0J-250000D01*
G01*
G37*
G04 #@! TD.AperFunction*
G04 #@! TA.AperFunction,SMDPad,CuDef*
G36*
G01*
X61300000Y-26177000D02*
X61300000Y-27477000D01*
G75*
G02*
X61050000Y-27727000I-250000J0D01*
G01*
X60350000Y-27727000D01*
G75*
G02*
X60100000Y-27477000I0J250000D01*
G01*
X60100000Y-26177000D01*
G75*
G02*
X60350000Y-25927000I250000J0D01*
G01*
X61050000Y-25927000D01*
G75*
G02*
X61300000Y-26177000I0J-250000D01*
G01*
G37*
G04 #@! TD.AperFunction*
D13*
X38584000Y-41530000D03*
G04 #@! TA.AperFunction,SMDPad,CuDef*
G36*
X36159000Y-45480000D02*
G01*
X36159000Y-42880000D01*
X36684000Y-42355000D01*
X36684000Y-40880000D01*
X37484000Y-40880000D01*
X37484000Y-42355000D01*
X38009000Y-42880000D01*
X38009000Y-45480000D01*
X36159000Y-45480000D01*
G37*
G04 #@! TD.AperFunction*
X35584000Y-41530000D03*
G04 #@! TA.AperFunction,SMDPad,CuDef*
G36*
G01*
X57836000Y-37305000D02*
X57836000Y-36995000D01*
G75*
G02*
X57991000Y-36840000I155000J0D01*
G01*
X58381000Y-36840000D01*
G75*
G02*
X58536000Y-36995000I0J-155000D01*
G01*
X58536000Y-37305000D01*
G75*
G02*
X58381000Y-37460000I-155000J0D01*
G01*
X57991000Y-37460000D01*
G75*
G02*
X57836000Y-37305000I0J155000D01*
G01*
G37*
G04 #@! TD.AperFunction*
G04 #@! TA.AperFunction,SMDPad,CuDef*
G36*
G01*
X57836000Y-38255000D02*
X57836000Y-37945000D01*
G75*
G02*
X57991000Y-37790000I155000J0D01*
G01*
X58381000Y-37790000D01*
G75*
G02*
X58536000Y-37945000I0J-155000D01*
G01*
X58536000Y-38255000D01*
G75*
G02*
X58381000Y-38410000I-155000J0D01*
G01*
X57991000Y-38410000D01*
G75*
G02*
X57836000Y-38255000I0J155000D01*
G01*
G37*
G04 #@! TD.AperFunction*
G04 #@! TA.AperFunction,SMDPad,CuDef*
G36*
G01*
X57836000Y-39205000D02*
X57836000Y-38895000D01*
G75*
G02*
X57991000Y-38740000I155000J0D01*
G01*
X58381000Y-38740000D01*
G75*
G02*
X58536000Y-38895000I0J-155000D01*
G01*
X58536000Y-39205000D01*
G75*
G02*
X58381000Y-39360000I-155000J0D01*
G01*
X57991000Y-39360000D01*
G75*
G02*
X57836000Y-39205000I0J155000D01*
G01*
G37*
G04 #@! TD.AperFunction*
G04 #@! TA.AperFunction,SMDPad,CuDef*
G36*
G01*
X60336000Y-39205000D02*
X60336000Y-38895000D01*
G75*
G02*
X60491000Y-38740000I155000J0D01*
G01*
X60881000Y-38740000D01*
G75*
G02*
X61036000Y-38895000I0J-155000D01*
G01*
X61036000Y-39205000D01*
G75*
G02*
X60881000Y-39360000I-155000J0D01*
G01*
X60491000Y-39360000D01*
G75*
G02*
X60336000Y-39205000I0J155000D01*
G01*
G37*
G04 #@! TD.AperFunction*
G04 #@! TA.AperFunction,SMDPad,CuDef*
G36*
G01*
X60336000Y-38255000D02*
X60336000Y-37945000D01*
G75*
G02*
X60491000Y-37790000I155000J0D01*
G01*
X60881000Y-37790000D01*
G75*
G02*
X61036000Y-37945000I0J-155000D01*
G01*
X61036000Y-38255000D01*
G75*
G02*
X60881000Y-38410000I-155000J0D01*
G01*
X60491000Y-38410000D01*
G75*
G02*
X60336000Y-38255000I0J155000D01*
G01*
G37*
G04 #@! TD.AperFunction*
G04 #@! TA.AperFunction,SMDPad,CuDef*
G36*
G01*
X60336000Y-37305000D02*
X60336000Y-36995000D01*
G75*
G02*
X60491000Y-36840000I155000J0D01*
G01*
X60881000Y-36840000D01*
G75*
G02*
X61036000Y-36995000I0J-155000D01*
G01*
X61036000Y-37305000D01*
G75*
G02*
X60881000Y-37460000I-155000J0D01*
G01*
X60491000Y-37460000D01*
G75*
G02*
X60336000Y-37305000I0J155000D01*
G01*
G37*
G04 #@! TD.AperFunction*
G04 #@! TA.AperFunction,SMDPad,CuDef*
G36*
G01*
X49883000Y-37026000D02*
X49883000Y-36126000D01*
G75*
G02*
X50133000Y-35876000I250000J0D01*
G01*
X50658000Y-35876000D01*
G75*
G02*
X50908000Y-36126000I0J-250000D01*
G01*
X50908000Y-37026000D01*
G75*
G02*
X50658000Y-37276000I-250000J0D01*
G01*
X50133000Y-37276000D01*
G75*
G02*
X49883000Y-37026000I0J250000D01*
G01*
G37*
G04 #@! TD.AperFunction*
G04 #@! TA.AperFunction,SMDPad,CuDef*
G36*
G01*
X51708000Y-37026000D02*
X51708000Y-36126000D01*
G75*
G02*
X51958000Y-35876000I250000J0D01*
G01*
X52483000Y-35876000D01*
G75*
G02*
X52733000Y-36126000I0J-250000D01*
G01*
X52733000Y-37026000D01*
G75*
G02*
X52483000Y-37276000I-250000J0D01*
G01*
X51958000Y-37276000D01*
G75*
G02*
X51708000Y-37026000I0J250000D01*
G01*
G37*
G04 #@! TD.AperFunction*
D12*
X29718000Y-46482000D03*
G04 #@! TA.AperFunction,SMDPad,CuDef*
G36*
G01*
X39900000Y-30077000D02*
X39900000Y-31327000D01*
G75*
G02*
X39750000Y-31477000I-150000J0D01*
G01*
X39450000Y-31477000D01*
G75*
G02*
X39300000Y-31327000I0J150000D01*
G01*
X39300000Y-30077000D01*
G75*
G02*
X39450000Y-29927000I150000J0D01*
G01*
X39750000Y-29927000D01*
G75*
G02*
X39900000Y-30077000I0J-150000D01*
G01*
G37*
G04 #@! TD.AperFunction*
G04 #@! TA.AperFunction,SMDPad,CuDef*
G36*
G01*
X38900000Y-30077000D02*
X38900000Y-31327000D01*
G75*
G02*
X38750000Y-31477000I-150000J0D01*
G01*
X38450000Y-31477000D01*
G75*
G02*
X38300000Y-31327000I0J150000D01*
G01*
X38300000Y-30077000D01*
G75*
G02*
X38450000Y-29927000I150000J0D01*
G01*
X38750000Y-29927000D01*
G75*
G02*
X38900000Y-30077000I0J-150000D01*
G01*
G37*
G04 #@! TD.AperFunction*
G04 #@! TA.AperFunction,SMDPad,CuDef*
G36*
G01*
X37900000Y-30077000D02*
X37900000Y-31327000D01*
G75*
G02*
X37750000Y-31477000I-150000J0D01*
G01*
X37450000Y-31477000D01*
G75*
G02*
X37300000Y-31327000I0J150000D01*
G01*
X37300000Y-30077000D01*
G75*
G02*
X37450000Y-29927000I150000J0D01*
G01*
X37750000Y-29927000D01*
G75*
G02*
X37900000Y-30077000I0J-150000D01*
G01*
G37*
G04 #@! TD.AperFunction*
G04 #@! TA.AperFunction,SMDPad,CuDef*
G36*
G01*
X36900000Y-30077000D02*
X36900000Y-31327000D01*
G75*
G02*
X36750000Y-31477000I-150000J0D01*
G01*
X36450000Y-31477000D01*
G75*
G02*
X36300000Y-31327000I0J150000D01*
G01*
X36300000Y-30077000D01*
G75*
G02*
X36450000Y-29927000I150000J0D01*
G01*
X36750000Y-29927000D01*
G75*
G02*
X36900000Y-30077000I0J-150000D01*
G01*
G37*
G04 #@! TD.AperFunction*
G04 #@! TA.AperFunction,SMDPad,CuDef*
G36*
G01*
X41500000Y-26177000D02*
X41500000Y-27477000D01*
G75*
G02*
X41250000Y-27727000I-250000J0D01*
G01*
X40550000Y-27727000D01*
G75*
G02*
X40300000Y-27477000I0J250000D01*
G01*
X40300000Y-26177000D01*
G75*
G02*
X40550000Y-25927000I250000J0D01*
G01*
X41250000Y-25927000D01*
G75*
G02*
X41500000Y-26177000I0J-250000D01*
G01*
G37*
G04 #@! TD.AperFunction*
G04 #@! TA.AperFunction,SMDPad,CuDef*
G36*
G01*
X35900000Y-26177000D02*
X35900000Y-27477000D01*
G75*
G02*
X35650000Y-27727000I-250000J0D01*
G01*
X34950000Y-27727000D01*
G75*
G02*
X34700000Y-27477000I0J250000D01*
G01*
X34700000Y-26177000D01*
G75*
G02*
X34950000Y-25927000I250000J0D01*
G01*
X35650000Y-25927000D01*
G75*
G02*
X35900000Y-26177000I0J-250000D01*
G01*
G37*
G04 #@! TD.AperFunction*
X29718000Y-29718000D03*
G04 #@! TA.AperFunction,SMDPad,CuDef*
G36*
G01*
X49883000Y-39572250D02*
X49883000Y-38659750D01*
G75*
G02*
X50126750Y-38416000I243750J0D01*
G01*
X50614250Y-38416000D01*
G75*
G02*
X50858000Y-38659750I0J-243750D01*
G01*
X50858000Y-39572250D01*
G75*
G02*
X50614250Y-39816000I-243750J0D01*
G01*
X50126750Y-39816000D01*
G75*
G02*
X49883000Y-39572250I0J243750D01*
G01*
G37*
G04 #@! TD.AperFunction*
G04 #@! TA.AperFunction,SMDPad,CuDef*
G36*
G01*
X51758000Y-39572250D02*
X51758000Y-38659750D01*
G75*
G02*
X52001750Y-38416000I243750J0D01*
G01*
X52489250Y-38416000D01*
G75*
G02*
X52733000Y-38659750I0J-243750D01*
G01*
X52733000Y-39572250D01*
G75*
G02*
X52489250Y-39816000I-243750J0D01*
G01*
X52001750Y-39816000D01*
G75*
G02*
X51758000Y-39572250I0J243750D01*
G01*
G37*
G04 #@! TD.AperFunction*
G04 #@! TA.AperFunction,SMDPad,CuDef*
G36*
G01*
X50804500Y-46794000D02*
X50804500Y-47694000D01*
G75*
G02*
X50554500Y-47944000I-250000J0D01*
G01*
X50029500Y-47944000D01*
G75*
G02*
X49779500Y-47694000I0J250000D01*
G01*
X49779500Y-46794000D01*
G75*
G02*
X50029500Y-46544000I250000J0D01*
G01*
X50554500Y-46544000D01*
G75*
G02*
X50804500Y-46794000I0J-250000D01*
G01*
G37*
G04 #@! TD.AperFunction*
G04 #@! TA.AperFunction,SMDPad,CuDef*
G36*
G01*
X48979500Y-46794000D02*
X48979500Y-47694000D01*
G75*
G02*
X48729500Y-47944000I-250000J0D01*
G01*
X48204500Y-47944000D01*
G75*
G02*
X47954500Y-47694000I0J250000D01*
G01*
X47954500Y-46794000D01*
G75*
G02*
X48204500Y-46544000I250000J0D01*
G01*
X48729500Y-46544000D01*
G75*
G02*
X48979500Y-46794000I0J-250000D01*
G01*
G37*
G04 #@! TD.AperFunction*
G04 #@! TA.AperFunction,SMDPad,CuDef*
G36*
G01*
X39550000Y-38895000D02*
X39550000Y-39845000D01*
G75*
G02*
X39300000Y-40095000I-250000J0D01*
G01*
X38800000Y-40095000D01*
G75*
G02*
X38550000Y-39845000I0J250000D01*
G01*
X38550000Y-38895000D01*
G75*
G02*
X38800000Y-38645000I250000J0D01*
G01*
X39300000Y-38645000D01*
G75*
G02*
X39550000Y-38895000I0J-250000D01*
G01*
G37*
G04 #@! TD.AperFunction*
G04 #@! TA.AperFunction,SMDPad,CuDef*
G36*
G01*
X37650000Y-38895000D02*
X37650000Y-39845000D01*
G75*
G02*
X37400000Y-40095000I-250000J0D01*
G01*
X36900000Y-40095000D01*
G75*
G02*
X36650000Y-39845000I0J250000D01*
G01*
X36650000Y-38895000D01*
G75*
G02*
X36900000Y-38645000I250000J0D01*
G01*
X37400000Y-38645000D01*
G75*
G02*
X37650000Y-38895000I0J-250000D01*
G01*
G37*
G04 #@! TD.AperFunction*
D14*
X35560000Y-43180000D03*
X56388000Y-26924000D03*
X35560000Y-44196000D03*
X40132000Y-37924500D03*
X45212000Y-26924000D03*
X37150000Y-37912000D03*
X47752000Y-26924000D03*
X36068000Y-37912000D03*
X64770000Y-26924000D03*
X36068000Y-46228000D03*
X36830000Y-26924000D03*
X35560000Y-45212000D03*
X39370000Y-26924000D03*
X38608000Y-45212000D03*
X38608000Y-43180000D03*
X37084000Y-46228000D03*
X53848000Y-26924000D03*
X62230000Y-26924000D03*
X38100000Y-46228000D03*
X38608000Y-44196000D03*
X37846000Y-29210000D03*
X41656000Y-31496000D03*
X42164000Y-30734000D03*
X36576000Y-29210000D03*
D15*
X30988000Y-40004000D02*
X35178000Y-40004000D01*
X35178000Y-40004000D02*
X35584000Y-40410000D01*
X35584000Y-40410000D02*
X35584000Y-41530000D01*
X36080500Y-37924500D02*
X36068000Y-37912000D01*
X47982000Y-30702000D02*
X47982000Y-27710000D01*
X36068000Y-37912000D02*
X37150000Y-37912000D01*
X39600000Y-30702000D02*
X39600000Y-27710000D01*
X39600000Y-27710000D02*
X39624000Y-27686000D01*
X37084000Y-41617500D02*
X37084000Y-39436000D01*
X37084000Y-39436000D02*
X37150000Y-39370000D01*
X34036000Y-37912000D02*
X36068000Y-37912000D01*
X41910000Y-37924500D02*
X40132000Y-37924500D01*
X40132000Y-37924500D02*
X36080500Y-37924500D01*
X47982000Y-27710000D02*
X48006000Y-27686000D01*
X37150000Y-37912000D02*
X37150000Y-39370000D01*
X60198000Y-49276000D02*
X59690000Y-49784000D01*
X40790500Y-44854500D02*
X41910000Y-44854500D01*
X38584000Y-40664000D02*
X39050000Y-40198000D01*
X43838500Y-44854500D02*
X48768000Y-49784000D01*
X38584000Y-41530000D02*
X39752000Y-41530000D01*
X54610000Y-49784000D02*
X54610000Y-48108000D01*
X39050000Y-40198000D02*
X39050000Y-39370000D01*
X59690000Y-49784000D02*
X54610000Y-49784000D01*
X38584000Y-41530000D02*
X38584000Y-40664000D01*
X39752000Y-41530000D02*
X40386000Y-42164000D01*
X41910000Y-44854500D02*
X43838500Y-44854500D01*
X40386000Y-44450000D02*
X40790500Y-44854500D01*
X60198000Y-48108000D02*
X60198000Y-49276000D01*
X48768000Y-49784000D02*
X59690000Y-49784000D01*
X40386000Y-42164000D02*
X40386000Y-44450000D01*
X40640000Y-32004000D02*
X40640000Y-29718000D01*
X41148000Y-29210000D02*
X46736000Y-29210000D01*
X46736000Y-29210000D02*
X46990000Y-29464000D01*
X30988000Y-36704000D02*
X30988000Y-35306000D01*
X40132000Y-32512000D02*
X40640000Y-32004000D01*
X40640000Y-29718000D02*
X41148000Y-29210000D01*
X38600000Y-32504000D02*
X38608000Y-32512000D01*
X46990000Y-29464000D02*
X46982000Y-29472000D01*
X38600000Y-30702000D02*
X38600000Y-32504000D01*
X38608000Y-32512000D02*
X39116000Y-32512000D01*
X33782000Y-32512000D02*
X39116000Y-32512000D01*
X39116000Y-32512000D02*
X40132000Y-32512000D01*
X46982000Y-29472000D02*
X46982000Y-30702000D01*
X30988000Y-35306000D02*
X33782000Y-32512000D01*
X45212000Y-32258000D02*
X45212000Y-39498000D01*
X37600000Y-30702000D02*
X37600000Y-29456000D01*
X45720000Y-32258000D02*
X45982000Y-31996000D01*
X45982000Y-31996000D02*
X45982000Y-30702000D01*
X41656000Y-31496000D02*
X43434000Y-31496000D01*
X44196000Y-32258000D02*
X44958000Y-32258000D01*
X37600000Y-29456000D02*
X37846000Y-29210000D01*
X43434000Y-31496000D02*
X44196000Y-32258000D01*
X44958000Y-32258000D02*
X45720000Y-32258000D01*
X48467000Y-44958000D02*
X45974000Y-44958000D01*
X48467000Y-47244000D02*
X48467000Y-44958000D01*
X45974000Y-44958000D02*
X45212000Y-44196000D01*
X45212000Y-44196000D02*
X45212000Y-42798000D01*
X41910000Y-43029500D02*
X41910000Y-39799500D01*
X52245500Y-39116000D02*
X52245500Y-36601000D01*
X55118000Y-38100000D02*
X54102000Y-39116000D01*
X50395500Y-41298500D02*
X52245500Y-39448500D01*
X54102000Y-39116000D02*
X52245500Y-39116000D01*
X58186000Y-38100000D02*
X55118000Y-38100000D01*
X50395500Y-41656000D02*
X50395500Y-41298500D01*
X52245500Y-36601000D02*
X52220500Y-36576000D01*
X52245500Y-39448500D02*
X52245500Y-39116000D01*
X50395500Y-35456500D02*
X51054000Y-34798000D01*
X50370500Y-39116000D02*
X50370500Y-36601000D01*
X51054000Y-34798000D02*
X58186000Y-34798000D01*
X58186000Y-31516000D02*
X57372000Y-30702000D01*
X57372000Y-30702000D02*
X56618000Y-30702000D01*
X58186000Y-34798000D02*
X58186000Y-31516000D01*
X50395500Y-36576000D02*
X50395500Y-35456500D01*
X58186000Y-37150000D02*
X58186000Y-34798000D01*
X50370500Y-36601000D02*
X50395500Y-36576000D01*
X65127500Y-39091000D02*
X65102500Y-39116000D01*
X65036500Y-39050000D02*
X65102500Y-39116000D01*
X60686000Y-39050000D02*
X65036500Y-39050000D01*
X65102500Y-38608000D02*
X65102500Y-39116000D01*
X65000000Y-36448500D02*
X65127500Y-36576000D01*
X65000000Y-30702000D02*
X65000000Y-36448500D01*
X65127500Y-36576000D02*
X65127500Y-39091000D01*
X59690000Y-38608000D02*
X59690000Y-39624000D01*
X59690000Y-39624000D02*
X60445400Y-40379400D01*
X60198000Y-38100000D02*
X59690000Y-38608000D01*
X60445400Y-40379400D02*
X66705100Y-40379400D01*
X60686000Y-38100000D02*
X60198000Y-38100000D01*
X66952500Y-41656000D02*
X66952500Y-40132000D01*
X66952500Y-40132000D02*
X66952500Y-36576000D01*
X66705100Y-40379400D02*
X66952500Y-40132000D01*
X44950000Y-30734000D02*
X44982000Y-30702000D01*
X42164000Y-30734000D02*
X44950000Y-30734000D01*
X36600000Y-30702000D02*
X36600000Y-29234000D01*
X60686000Y-37150000D02*
X60686000Y-30206000D01*
X54618000Y-29710000D02*
X54618000Y-30702000D01*
X60686000Y-30206000D02*
X59690000Y-29210000D01*
X59690000Y-29210000D02*
X55118000Y-29210000D01*
X55118000Y-29210000D02*
X54618000Y-29710000D01*
X48260000Y-33782000D02*
X48260000Y-43180000D01*
X48768000Y-43688000D02*
X54102000Y-43688000D01*
X55118000Y-33020000D02*
X49022000Y-33020000D01*
X54610000Y-43180000D02*
X54610000Y-41808000D01*
X55618000Y-30702000D02*
X55618000Y-32520000D01*
X49022000Y-33020000D02*
X48260000Y-33782000D01*
X55618000Y-32520000D02*
X55118000Y-33020000D01*
X48260000Y-43180000D02*
X48768000Y-43688000D01*
X54102000Y-43688000D02*
X54610000Y-43180000D01*
X66040000Y-33528000D02*
X66040000Y-29718000D01*
X64516000Y-29210000D02*
X64000000Y-29726000D01*
X67310000Y-43688000D02*
X68326000Y-42672000D01*
X66040000Y-29718000D02*
X65532000Y-29210000D01*
X60198000Y-41808000D02*
X60198000Y-43180000D01*
X68326000Y-42672000D02*
X68326000Y-35814000D01*
X60198000Y-43180000D02*
X60706000Y-43688000D01*
X60706000Y-43688000D02*
X67310000Y-43688000D01*
X68326000Y-35814000D02*
X66040000Y-33528000D01*
X65532000Y-29210000D02*
X64516000Y-29210000D01*
X64000000Y-29726000D02*
X64000000Y-30702000D01*
X67564000Y-44704000D02*
X69342000Y-42926000D01*
X66802000Y-33020000D02*
X66802000Y-29210000D01*
X58674000Y-43688000D02*
X59690000Y-44704000D01*
X69342000Y-42926000D02*
X69342000Y-35560000D01*
X58186000Y-40152000D02*
X58674000Y-40640000D01*
X58674000Y-40640000D02*
X58674000Y-43688000D01*
X59690000Y-44704000D02*
X67564000Y-44704000D01*
X64008000Y-28448000D02*
X63000000Y-29456000D01*
X63000000Y-29456000D02*
X63000000Y-30702000D01*
X58186000Y-39050000D02*
X58186000Y-40152000D01*
X69342000Y-35560000D02*
X66802000Y-33020000D01*
X66802000Y-29210000D02*
X66040000Y-28448000D01*
X66040000Y-28448000D02*
X64008000Y-28448000D01*
X56642000Y-46228000D02*
X57150000Y-46736000D01*
X52324000Y-46228000D02*
X56642000Y-46228000D01*
X51308000Y-47244000D02*
X52324000Y-46228000D01*
X57150000Y-46736000D02*
X57150000Y-48108000D01*
X50292000Y-47244000D02*
X51308000Y-47244000D01*
X52220500Y-41656000D02*
X52220500Y-41505500D01*
X56896000Y-40132000D02*
X57150000Y-40386000D01*
X53594000Y-40132000D02*
X56896000Y-40132000D01*
X57150000Y-40386000D02*
X57150000Y-41808000D01*
X52220500Y-41505500D02*
X53594000Y-40132000D01*
X57404000Y-44958000D02*
X58674000Y-46228000D01*
X62738000Y-46736000D02*
X62738000Y-48108000D01*
X58674000Y-46228000D02*
X62230000Y-46228000D01*
X62230000Y-46228000D02*
X62738000Y-46736000D01*
X50292000Y-44958000D02*
X57404000Y-44958000D01*
X65127500Y-41656000D02*
X62890000Y-41656000D01*
X62890000Y-41656000D02*
X62738000Y-41808000D01*
G04 #@! TA.AperFunction,Conductor*
G36*
X67761039Y-25927685D02*
G01*
X67806794Y-25980489D01*
X67818000Y-26032000D01*
X67818000Y-28324000D01*
X67798315Y-28391039D01*
X67745511Y-28436794D01*
X67694000Y-28448000D01*
X66774568Y-28448000D01*
X66707529Y-28428315D01*
X66686889Y-28411683D01*
X66336631Y-28061424D01*
X66281550Y-28029623D01*
X66226471Y-27997822D01*
X66165035Y-27981361D01*
X66103601Y-27964900D01*
X64071601Y-27964900D01*
X63944399Y-27964900D01*
X63821528Y-27997822D01*
X63711369Y-28061424D01*
X63711366Y-28061426D01*
X63361112Y-28411681D01*
X63299789Y-28445166D01*
X63273431Y-28448000D01*
X33906000Y-28448000D01*
X33838961Y-28428315D01*
X33793206Y-28375511D01*
X33782000Y-28324000D01*
X33782000Y-26032000D01*
X33801685Y-25964961D01*
X33854489Y-25919206D01*
X33906000Y-25908000D01*
X67694000Y-25908000D01*
X67761039Y-25927685D01*
G37*
G04 #@! TD.AperFunction*
G04 #@! TA.AperFunction,Conductor*
G36*
X34997540Y-41675685D02*
G01*
X35043295Y-41728489D01*
X35054500Y-41779998D01*
X35054501Y-42205066D01*
X35065924Y-42262500D01*
X35069266Y-42279301D01*
X35125515Y-42363484D01*
X35159234Y-42386014D01*
X35209699Y-42419734D01*
X35209702Y-42419734D01*
X35209703Y-42419735D01*
X35234666Y-42424700D01*
X35283933Y-42434500D01*
X35884066Y-42434499D01*
X35958301Y-42419734D01*
X36042484Y-42363484D01*
X36098734Y-42279301D01*
X36113500Y-42205067D01*
X36113500Y-41780000D01*
X36133185Y-41712961D01*
X36185989Y-41667206D01*
X36237500Y-41656000D01*
X37930501Y-41656000D01*
X37997540Y-41675685D01*
X38043295Y-41728489D01*
X38054500Y-41779998D01*
X38054501Y-42205066D01*
X38065924Y-42262500D01*
X38069266Y-42279301D01*
X38125515Y-42363484D01*
X38159234Y-42386014D01*
X38209699Y-42419734D01*
X38209702Y-42419734D01*
X38209703Y-42419735D01*
X38234666Y-42424700D01*
X38283933Y-42434500D01*
X38884066Y-42434499D01*
X38958301Y-42419734D01*
X39042484Y-42363484D01*
X39098734Y-42279301D01*
X39113500Y-42205067D01*
X39113500Y-42137100D01*
X39133185Y-42070061D01*
X39185989Y-42024306D01*
X39237500Y-42013100D01*
X39500531Y-42013100D01*
X39567570Y-42032785D01*
X39588212Y-42049419D01*
X39866581Y-42327788D01*
X39900066Y-42389111D01*
X39902900Y-42415469D01*
X39902900Y-44513600D01*
X39935822Y-44636471D01*
X39967623Y-44691550D01*
X39999424Y-44746631D01*
X40493869Y-45241076D01*
X40604030Y-45304678D01*
X40726899Y-45337600D01*
X40854100Y-45337600D01*
X40932871Y-45337600D01*
X40999910Y-45357285D01*
X41032139Y-45387291D01*
X41099595Y-45477404D01*
X41147934Y-45513589D01*
X41215733Y-45564342D01*
X41351658Y-45615040D01*
X41411745Y-45621500D01*
X42408254Y-45621499D01*
X42468342Y-45615040D01*
X42604267Y-45564342D01*
X42720404Y-45477404D01*
X42732845Y-45460785D01*
X42787861Y-45387291D01*
X42843794Y-45345419D01*
X42887129Y-45337600D01*
X43587031Y-45337600D01*
X43654070Y-45357285D01*
X43674712Y-45373919D01*
X45715868Y-47415075D01*
X46445681Y-48144887D01*
X46479166Y-48206210D01*
X46482000Y-48232568D01*
X46482000Y-50168000D01*
X46462315Y-50235039D01*
X46409511Y-50280794D01*
X46358000Y-50292000D01*
X31165882Y-50292000D01*
X31098843Y-50272315D01*
X31053088Y-50219511D01*
X31043144Y-50150353D01*
X31072169Y-50086797D01*
X31118429Y-50053439D01*
X31359865Y-49953433D01*
X31692219Y-49775786D01*
X32005560Y-49566418D01*
X32296871Y-49327346D01*
X32563346Y-49060871D01*
X32802418Y-48769560D01*
X33011786Y-48456219D01*
X33189433Y-48123865D01*
X33333648Y-47775699D01*
X33443042Y-47415075D01*
X33443044Y-47415065D01*
X33443047Y-47415054D01*
X33516562Y-47045463D01*
X33553500Y-46670422D01*
X33553500Y-46293577D01*
X33516562Y-45918536D01*
X33443047Y-45548945D01*
X33443044Y-45548934D01*
X33443043Y-45548931D01*
X33443042Y-45548925D01*
X33333648Y-45188301D01*
X33189433Y-44840135D01*
X33011786Y-44507781D01*
X32802418Y-44194440D01*
X32563346Y-43903129D01*
X32563345Y-43903128D01*
X32563341Y-43903123D01*
X32296876Y-43636658D01*
X32005565Y-43397586D01*
X32005564Y-43397585D01*
X32005560Y-43397582D01*
X31692219Y-43188214D01*
X31692214Y-43188211D01*
X31692207Y-43188207D01*
X31359872Y-43010570D01*
X31359867Y-43010568D01*
X31011700Y-42866352D01*
X30651065Y-42756955D01*
X30651054Y-42756952D01*
X30281463Y-42683437D01*
X29999001Y-42655617D01*
X29906426Y-42646500D01*
X29529574Y-42646500D01*
X29444036Y-42654924D01*
X29154536Y-42683437D01*
X28784945Y-42756952D01*
X28784934Y-42756955D01*
X28424299Y-42866352D01*
X28076132Y-43010568D01*
X28076127Y-43010570D01*
X27743792Y-43188207D01*
X27743774Y-43188218D01*
X27430448Y-43397576D01*
X27430434Y-43397586D01*
X27139123Y-43636658D01*
X26872658Y-43903123D01*
X26633586Y-44194434D01*
X26633576Y-44194448D01*
X26424218Y-44507774D01*
X26424207Y-44507792D01*
X26246570Y-44840127D01*
X26246568Y-44840132D01*
X26146561Y-45081571D01*
X26102720Y-45135974D01*
X26036426Y-45158039D01*
X25968726Y-45140760D01*
X25921116Y-45089622D01*
X25908000Y-45034118D01*
X25908000Y-41780000D01*
X25927685Y-41712961D01*
X25980489Y-41667206D01*
X26032000Y-41656000D01*
X34930501Y-41656000D01*
X34997540Y-41675685D01*
G37*
G04 #@! TD.AperFunction*
M02*
