G04 #@! TF.GenerationSoftware,KiCad,Pcbnew,9.0.9-9.0.9~ubuntu24.04.1*
G04 #@! TF.CreationDate,2026-08-23T16:48:32-06:00*
G04 #@! TF.ProjectId,ckt-irsense-split,636b742d-6972-4736-956e-73652d73706c,rev?*
G04 #@! TF.SameCoordinates,Original*
G04 #@! TF.FileFunction,Legend,Top*
G04 #@! TF.FilePolarity,Positive*
%FSLAX46Y46*%
G04 Gerber Fmt 4.6, Leading zero omitted, Abs format (unit mm)*
G04 Created by KiCad (PCBNEW 9.0.9-9.0.9~ubuntu24.04.1) date 2026-08-23 16:48:32*
%MOMM*%
%LPD*%
G01*
G04 APERTURE LIST*
%ADD10C,0.150000*%
%ADD11C,0.203200*%
%ADD12C,0.120000*%
G04 APERTURE END LIST*
D10*
X43370667Y-37538819D02*
X43370667Y-36538819D01*
X43370667Y-36538819D02*
X43751619Y-36538819D01*
X43751619Y-36538819D02*
X43846857Y-36586438D01*
X43846857Y-36586438D02*
X43894476Y-36634057D01*
X43894476Y-36634057D02*
X43942095Y-36729295D01*
X43942095Y-36729295D02*
X43942095Y-36872152D01*
X43942095Y-36872152D02*
X43894476Y-36967390D01*
X43894476Y-36967390D02*
X43846857Y-37015009D01*
X43846857Y-37015009D02*
X43751619Y-37062628D01*
X43751619Y-37062628D02*
X43370667Y-37062628D01*
X44275429Y-36538819D02*
X44513524Y-37538819D01*
X44513524Y-37538819D02*
X44704000Y-36824533D01*
X44704000Y-36824533D02*
X44894476Y-37538819D01*
X44894476Y-37538819D02*
X45132572Y-36538819D01*
X46084952Y-37538819D02*
X45751619Y-37062628D01*
X45513524Y-37538819D02*
X45513524Y-36538819D01*
X45513524Y-36538819D02*
X45894476Y-36538819D01*
X45894476Y-36538819D02*
X45989714Y-36586438D01*
X45989714Y-36586438D02*
X46037333Y-36634057D01*
X46037333Y-36634057D02*
X46084952Y-36729295D01*
X46084952Y-36729295D02*
X46084952Y-36872152D01*
X46084952Y-36872152D02*
X46037333Y-36967390D01*
X46037333Y-36967390D02*
X45989714Y-37015009D01*
X45989714Y-37015009D02*
X45894476Y-37062628D01*
X45894476Y-37062628D02*
X45513524Y-37062628D01*
D11*
X53714952Y-35476861D02*
X53666571Y-35428480D01*
X53666571Y-35428480D02*
X53569809Y-35283337D01*
X53569809Y-35283337D02*
X53521428Y-35186575D01*
X53521428Y-35186575D02*
X53473047Y-35041433D01*
X53473047Y-35041433D02*
X53424666Y-34799528D01*
X53424666Y-34799528D02*
X53424666Y-34606004D01*
X53424666Y-34606004D02*
X53473047Y-34364099D01*
X53473047Y-34364099D02*
X53521428Y-34218956D01*
X53521428Y-34218956D02*
X53569809Y-34122194D01*
X53569809Y-34122194D02*
X53666571Y-33977052D01*
X53666571Y-33977052D02*
X53714952Y-33928671D01*
X54101999Y-35089813D02*
X54101999Y-34073813D01*
X54537428Y-35041433D02*
X54682571Y-35089813D01*
X54682571Y-35089813D02*
X54924476Y-35089813D01*
X54924476Y-35089813D02*
X55021238Y-35041433D01*
X55021238Y-35041433D02*
X55069619Y-34993052D01*
X55069619Y-34993052D02*
X55118000Y-34896290D01*
X55118000Y-34896290D02*
X55118000Y-34799528D01*
X55118000Y-34799528D02*
X55069619Y-34702766D01*
X55069619Y-34702766D02*
X55021238Y-34654385D01*
X55021238Y-34654385D02*
X54924476Y-34606004D01*
X54924476Y-34606004D02*
X54730952Y-34557623D01*
X54730952Y-34557623D02*
X54634190Y-34509242D01*
X54634190Y-34509242D02*
X54585809Y-34460861D01*
X54585809Y-34460861D02*
X54537428Y-34364099D01*
X54537428Y-34364099D02*
X54537428Y-34267337D01*
X54537428Y-34267337D02*
X54585809Y-34170575D01*
X54585809Y-34170575D02*
X54634190Y-34122194D01*
X54634190Y-34122194D02*
X54730952Y-34073813D01*
X54730952Y-34073813D02*
X54972857Y-34073813D01*
X54972857Y-34073813D02*
X55118000Y-34122194D01*
X55746952Y-34073813D02*
X55940476Y-34073813D01*
X55940476Y-34073813D02*
X56037238Y-34122194D01*
X56037238Y-34122194D02*
X56134000Y-34218956D01*
X56134000Y-34218956D02*
X56182381Y-34412480D01*
X56182381Y-34412480D02*
X56182381Y-34751147D01*
X56182381Y-34751147D02*
X56134000Y-34944671D01*
X56134000Y-34944671D02*
X56037238Y-35041433D01*
X56037238Y-35041433D02*
X55940476Y-35089813D01*
X55940476Y-35089813D02*
X55746952Y-35089813D01*
X55746952Y-35089813D02*
X55650190Y-35041433D01*
X55650190Y-35041433D02*
X55553428Y-34944671D01*
X55553428Y-34944671D02*
X55505047Y-34751147D01*
X55505047Y-34751147D02*
X55505047Y-34412480D01*
X55505047Y-34412480D02*
X55553428Y-34218956D01*
X55553428Y-34218956D02*
X55650190Y-34122194D01*
X55650190Y-34122194D02*
X55746952Y-34073813D01*
X56521047Y-35476861D02*
X56569428Y-35428480D01*
X56569428Y-35428480D02*
X56666190Y-35283337D01*
X56666190Y-35283337D02*
X56714571Y-35186575D01*
X56714571Y-35186575D02*
X56762952Y-35041433D01*
X56762952Y-35041433D02*
X56811333Y-34799528D01*
X56811333Y-34799528D02*
X56811333Y-34606004D01*
X56811333Y-34606004D02*
X56762952Y-34364099D01*
X56762952Y-34364099D02*
X56714571Y-34218956D01*
X56714571Y-34218956D02*
X56666190Y-34122194D01*
X56666190Y-34122194D02*
X56569428Y-33977052D01*
X56569428Y-33977052D02*
X56521047Y-33928671D01*
X62096952Y-35476861D02*
X62048571Y-35428480D01*
X62048571Y-35428480D02*
X61951809Y-35283337D01*
X61951809Y-35283337D02*
X61903428Y-35186575D01*
X61903428Y-35186575D02*
X61855047Y-35041433D01*
X61855047Y-35041433D02*
X61806666Y-34799528D01*
X61806666Y-34799528D02*
X61806666Y-34606004D01*
X61806666Y-34606004D02*
X61855047Y-34364099D01*
X61855047Y-34364099D02*
X61903428Y-34218956D01*
X61903428Y-34218956D02*
X61951809Y-34122194D01*
X61951809Y-34122194D02*
X62048571Y-33977052D01*
X62048571Y-33977052D02*
X62096952Y-33928671D01*
X62483999Y-35089813D02*
X62483999Y-34073813D01*
X62919428Y-35041433D02*
X63064571Y-35089813D01*
X63064571Y-35089813D02*
X63306476Y-35089813D01*
X63306476Y-35089813D02*
X63403238Y-35041433D01*
X63403238Y-35041433D02*
X63451619Y-34993052D01*
X63451619Y-34993052D02*
X63500000Y-34896290D01*
X63500000Y-34896290D02*
X63500000Y-34799528D01*
X63500000Y-34799528D02*
X63451619Y-34702766D01*
X63451619Y-34702766D02*
X63403238Y-34654385D01*
X63403238Y-34654385D02*
X63306476Y-34606004D01*
X63306476Y-34606004D02*
X63112952Y-34557623D01*
X63112952Y-34557623D02*
X63016190Y-34509242D01*
X63016190Y-34509242D02*
X62967809Y-34460861D01*
X62967809Y-34460861D02*
X62919428Y-34364099D01*
X62919428Y-34364099D02*
X62919428Y-34267337D01*
X62919428Y-34267337D02*
X62967809Y-34170575D01*
X62967809Y-34170575D02*
X63016190Y-34122194D01*
X63016190Y-34122194D02*
X63112952Y-34073813D01*
X63112952Y-34073813D02*
X63354857Y-34073813D01*
X63354857Y-34073813D02*
X63500000Y-34122194D01*
X64128952Y-34073813D02*
X64322476Y-34073813D01*
X64322476Y-34073813D02*
X64419238Y-34122194D01*
X64419238Y-34122194D02*
X64516000Y-34218956D01*
X64516000Y-34218956D02*
X64564381Y-34412480D01*
X64564381Y-34412480D02*
X64564381Y-34751147D01*
X64564381Y-34751147D02*
X64516000Y-34944671D01*
X64516000Y-34944671D02*
X64419238Y-35041433D01*
X64419238Y-35041433D02*
X64322476Y-35089813D01*
X64322476Y-35089813D02*
X64128952Y-35089813D01*
X64128952Y-35089813D02*
X64032190Y-35041433D01*
X64032190Y-35041433D02*
X63935428Y-34944671D01*
X63935428Y-34944671D02*
X63887047Y-34751147D01*
X63887047Y-34751147D02*
X63887047Y-34412480D01*
X63887047Y-34412480D02*
X63935428Y-34218956D01*
X63935428Y-34218956D02*
X64032190Y-34122194D01*
X64032190Y-34122194D02*
X64128952Y-34073813D01*
X64903047Y-35476861D02*
X64951428Y-35428480D01*
X64951428Y-35428480D02*
X65048190Y-35283337D01*
X65048190Y-35283337D02*
X65096571Y-35186575D01*
X65096571Y-35186575D02*
X65144952Y-35041433D01*
X65144952Y-35041433D02*
X65193333Y-34799528D01*
X65193333Y-34799528D02*
X65193333Y-34606004D01*
X65193333Y-34606004D02*
X65144952Y-34364099D01*
X65144952Y-34364099D02*
X65096571Y-34218956D01*
X65096571Y-34218956D02*
X65048190Y-34122194D01*
X65048190Y-34122194D02*
X64951428Y-33977052D01*
X64951428Y-33977052D02*
X64903047Y-33928671D01*
X35741428Y-32180909D02*
X35983333Y-32180909D01*
X35983333Y-32180909D02*
X36104285Y-32241385D01*
X36104285Y-32241385D02*
X36225238Y-32362337D01*
X36225238Y-32362337D02*
X36285714Y-32604242D01*
X36285714Y-32604242D02*
X36285714Y-33027575D01*
X36285714Y-33027575D02*
X36225238Y-33269480D01*
X36225238Y-33269480D02*
X36104285Y-33390433D01*
X36104285Y-33390433D02*
X35983333Y-33450909D01*
X35983333Y-33450909D02*
X35741428Y-33450909D01*
X35741428Y-33450909D02*
X35620476Y-33390433D01*
X35620476Y-33390433D02*
X35499523Y-33269480D01*
X35499523Y-33269480D02*
X35439047Y-33027575D01*
X35439047Y-33027575D02*
X35439047Y-32604242D01*
X35439047Y-32604242D02*
X35499523Y-32362337D01*
X35499523Y-32362337D02*
X35620476Y-32241385D01*
X35620476Y-32241385D02*
X35741428Y-32180909D01*
X36829999Y-32180909D02*
X36829999Y-33209004D01*
X36829999Y-33209004D02*
X36890476Y-33329956D01*
X36890476Y-33329956D02*
X36950952Y-33390433D01*
X36950952Y-33390433D02*
X37071904Y-33450909D01*
X37071904Y-33450909D02*
X37313809Y-33450909D01*
X37313809Y-33450909D02*
X37434761Y-33390433D01*
X37434761Y-33390433D02*
X37495238Y-33329956D01*
X37495238Y-33329956D02*
X37555714Y-33209004D01*
X37555714Y-33209004D02*
X37555714Y-32180909D01*
X37979047Y-32180909D02*
X38704761Y-32180909D01*
X38341904Y-33450909D02*
X38341904Y-32180909D01*
X40760952Y-33450909D02*
X40035237Y-33450909D01*
X40398094Y-33450909D02*
X40398094Y-32180909D01*
X40398094Y-32180909D02*
X40277142Y-32362337D01*
X40277142Y-32362337D02*
X40156190Y-32483290D01*
X40156190Y-32483290D02*
X40035237Y-32543766D01*
X42974380Y-33390433D02*
X43155809Y-33450909D01*
X43155809Y-33450909D02*
X43458190Y-33450909D01*
X43458190Y-33450909D02*
X43579142Y-33390433D01*
X43579142Y-33390433D02*
X43639618Y-33329956D01*
X43639618Y-33329956D02*
X43700095Y-33209004D01*
X43700095Y-33209004D02*
X43700095Y-33088052D01*
X43700095Y-33088052D02*
X43639618Y-32967099D01*
X43639618Y-32967099D02*
X43579142Y-32906623D01*
X43579142Y-32906623D02*
X43458190Y-32846147D01*
X43458190Y-32846147D02*
X43216285Y-32785671D01*
X43216285Y-32785671D02*
X43095333Y-32725194D01*
X43095333Y-32725194D02*
X43034856Y-32664718D01*
X43034856Y-32664718D02*
X42974380Y-32543766D01*
X42974380Y-32543766D02*
X42974380Y-32422813D01*
X42974380Y-32422813D02*
X43034856Y-32301861D01*
X43034856Y-32301861D02*
X43095333Y-32241385D01*
X43095333Y-32241385D02*
X43216285Y-32180909D01*
X43216285Y-32180909D02*
X43518666Y-32180909D01*
X43518666Y-32180909D02*
X43700095Y-32241385D01*
X44244380Y-32785671D02*
X44667714Y-32785671D01*
X44849142Y-33450909D02*
X44244380Y-33450909D01*
X44244380Y-33450909D02*
X44244380Y-32180909D01*
X44244380Y-32180909D02*
X44849142Y-32180909D01*
X45393428Y-33450909D02*
X45393428Y-32180909D01*
X45393428Y-32180909D02*
X46119143Y-33450909D01*
X46119143Y-33450909D02*
X46119143Y-32180909D01*
X46663428Y-33390433D02*
X46844857Y-33450909D01*
X46844857Y-33450909D02*
X47147238Y-33450909D01*
X47147238Y-33450909D02*
X47268190Y-33390433D01*
X47268190Y-33390433D02*
X47328666Y-33329956D01*
X47328666Y-33329956D02*
X47389143Y-33209004D01*
X47389143Y-33209004D02*
X47389143Y-33088052D01*
X47389143Y-33088052D02*
X47328666Y-32967099D01*
X47328666Y-32967099D02*
X47268190Y-32906623D01*
X47268190Y-32906623D02*
X47147238Y-32846147D01*
X47147238Y-32846147D02*
X46905333Y-32785671D01*
X46905333Y-32785671D02*
X46784381Y-32725194D01*
X46784381Y-32725194D02*
X46723904Y-32664718D01*
X46723904Y-32664718D02*
X46663428Y-32543766D01*
X46663428Y-32543766D02*
X46663428Y-32422813D01*
X46663428Y-32422813D02*
X46723904Y-32301861D01*
X46723904Y-32301861D02*
X46784381Y-32241385D01*
X46784381Y-32241385D02*
X46905333Y-32180909D01*
X46905333Y-32180909D02*
X47207714Y-32180909D01*
X47207714Y-32180909D02*
X47389143Y-32241385D01*
X48175333Y-32180909D02*
X48417238Y-32180909D01*
X48417238Y-32180909D02*
X48538190Y-32241385D01*
X48538190Y-32241385D02*
X48659143Y-32362337D01*
X48659143Y-32362337D02*
X48719619Y-32604242D01*
X48719619Y-32604242D02*
X48719619Y-33027575D01*
X48719619Y-33027575D02*
X48659143Y-33269480D01*
X48659143Y-33269480D02*
X48538190Y-33390433D01*
X48538190Y-33390433D02*
X48417238Y-33450909D01*
X48417238Y-33450909D02*
X48175333Y-33450909D01*
X48175333Y-33450909D02*
X48054381Y-33390433D01*
X48054381Y-33390433D02*
X47933428Y-33269480D01*
X47933428Y-33269480D02*
X47872952Y-33027575D01*
X47872952Y-33027575D02*
X47872952Y-32604242D01*
X47872952Y-32604242D02*
X47933428Y-32362337D01*
X47933428Y-32362337D02*
X48054381Y-32241385D01*
X48054381Y-32241385D02*
X48175333Y-32180909D01*
X49989619Y-33450909D02*
X49566285Y-32846147D01*
X49263904Y-33450909D02*
X49263904Y-32180909D01*
X49263904Y-32180909D02*
X49747714Y-32180909D01*
X49747714Y-32180909D02*
X49868666Y-32241385D01*
X49868666Y-32241385D02*
X49929143Y-32301861D01*
X49929143Y-32301861D02*
X49989619Y-32422813D01*
X49989619Y-32422813D02*
X49989619Y-32604242D01*
X49989619Y-32604242D02*
X49929143Y-32725194D01*
X49929143Y-32725194D02*
X49868666Y-32785671D01*
X49868666Y-32785671D02*
X49747714Y-32846147D01*
X49747714Y-32846147D02*
X49263904Y-32846147D01*
X45816761Y-35495538D02*
X45816761Y-34225538D01*
X46421523Y-35495538D02*
X46421523Y-34225538D01*
X46421523Y-34225538D02*
X47147238Y-35495538D01*
X47147238Y-35495538D02*
X47147238Y-34225538D01*
X52759428Y-32180909D02*
X53001333Y-32180909D01*
X53001333Y-32180909D02*
X53122285Y-32241385D01*
X53122285Y-32241385D02*
X53243238Y-32362337D01*
X53243238Y-32362337D02*
X53303714Y-32604242D01*
X53303714Y-32604242D02*
X53303714Y-33027575D01*
X53303714Y-33027575D02*
X53243238Y-33269480D01*
X53243238Y-33269480D02*
X53122285Y-33390433D01*
X53122285Y-33390433D02*
X53001333Y-33450909D01*
X53001333Y-33450909D02*
X52759428Y-33450909D01*
X52759428Y-33450909D02*
X52638476Y-33390433D01*
X52638476Y-33390433D02*
X52517523Y-33269480D01*
X52517523Y-33269480D02*
X52457047Y-33027575D01*
X52457047Y-33027575D02*
X52457047Y-32604242D01*
X52457047Y-32604242D02*
X52517523Y-32362337D01*
X52517523Y-32362337D02*
X52638476Y-32241385D01*
X52638476Y-32241385D02*
X52759428Y-32180909D01*
X53847999Y-32180909D02*
X53847999Y-33209004D01*
X53847999Y-33209004D02*
X53908476Y-33329956D01*
X53908476Y-33329956D02*
X53968952Y-33390433D01*
X53968952Y-33390433D02*
X54089904Y-33450909D01*
X54089904Y-33450909D02*
X54331809Y-33450909D01*
X54331809Y-33450909D02*
X54452761Y-33390433D01*
X54452761Y-33390433D02*
X54513238Y-33329956D01*
X54513238Y-33329956D02*
X54573714Y-33209004D01*
X54573714Y-33209004D02*
X54573714Y-32180909D01*
X54997047Y-32180909D02*
X55722761Y-32180909D01*
X55359904Y-33450909D02*
X55359904Y-32180909D01*
X57053237Y-32301861D02*
X57113713Y-32241385D01*
X57113713Y-32241385D02*
X57234666Y-32180909D01*
X57234666Y-32180909D02*
X57537047Y-32180909D01*
X57537047Y-32180909D02*
X57657999Y-32241385D01*
X57657999Y-32241385D02*
X57718475Y-32301861D01*
X57718475Y-32301861D02*
X57778952Y-32422813D01*
X57778952Y-32422813D02*
X57778952Y-32543766D01*
X57778952Y-32543766D02*
X57718475Y-32725194D01*
X57718475Y-32725194D02*
X56992761Y-33450909D01*
X56992761Y-33450909D02*
X57778952Y-33450909D01*
X61141428Y-32180909D02*
X61383333Y-32180909D01*
X61383333Y-32180909D02*
X61504285Y-32241385D01*
X61504285Y-32241385D02*
X61625238Y-32362337D01*
X61625238Y-32362337D02*
X61685714Y-32604242D01*
X61685714Y-32604242D02*
X61685714Y-33027575D01*
X61685714Y-33027575D02*
X61625238Y-33269480D01*
X61625238Y-33269480D02*
X61504285Y-33390433D01*
X61504285Y-33390433D02*
X61383333Y-33450909D01*
X61383333Y-33450909D02*
X61141428Y-33450909D01*
X61141428Y-33450909D02*
X61020476Y-33390433D01*
X61020476Y-33390433D02*
X60899523Y-33269480D01*
X60899523Y-33269480D02*
X60839047Y-33027575D01*
X60839047Y-33027575D02*
X60839047Y-32604242D01*
X60839047Y-32604242D02*
X60899523Y-32362337D01*
X60899523Y-32362337D02*
X61020476Y-32241385D01*
X61020476Y-32241385D02*
X61141428Y-32180909D01*
X62229999Y-32180909D02*
X62229999Y-33209004D01*
X62229999Y-33209004D02*
X62290476Y-33329956D01*
X62290476Y-33329956D02*
X62350952Y-33390433D01*
X62350952Y-33390433D02*
X62471904Y-33450909D01*
X62471904Y-33450909D02*
X62713809Y-33450909D01*
X62713809Y-33450909D02*
X62834761Y-33390433D01*
X62834761Y-33390433D02*
X62895238Y-33329956D01*
X62895238Y-33329956D02*
X62955714Y-33209004D01*
X62955714Y-33209004D02*
X62955714Y-32180909D01*
X63379047Y-32180909D02*
X64104761Y-32180909D01*
X63741904Y-33450909D02*
X63741904Y-32180909D01*
X65374761Y-32180909D02*
X66160952Y-32180909D01*
X66160952Y-32180909D02*
X65737618Y-32664718D01*
X65737618Y-32664718D02*
X65919047Y-32664718D01*
X65919047Y-32664718D02*
X66039999Y-32725194D01*
X66039999Y-32725194D02*
X66100475Y-32785671D01*
X66100475Y-32785671D02*
X66160952Y-32906623D01*
X66160952Y-32906623D02*
X66160952Y-33209004D01*
X66160952Y-33209004D02*
X66100475Y-33329956D01*
X66100475Y-33329956D02*
X66039999Y-33390433D01*
X66039999Y-33390433D02*
X65919047Y-33450909D01*
X65919047Y-33450909D02*
X65556190Y-33450909D01*
X65556190Y-33450909D02*
X65435237Y-33390433D01*
X65435237Y-33390433D02*
X65374761Y-33329956D01*
X53340000Y-48173474D02*
X53340000Y-48657284D01*
X52856190Y-48463760D02*
X53340000Y-48657284D01*
X53340000Y-48657284D02*
X53823809Y-48463760D01*
X53049714Y-49044332D02*
X53340000Y-48657284D01*
X53340000Y-48657284D02*
X53630285Y-49044332D01*
X58928000Y-48173474D02*
X58928000Y-48657284D01*
X58444190Y-48463760D02*
X58928000Y-48657284D01*
X58928000Y-48657284D02*
X59411809Y-48463760D01*
X58637714Y-49044332D02*
X58928000Y-48657284D01*
X58928000Y-48657284D02*
X59218285Y-49044332D01*
D10*
X68667333Y-42110819D02*
X68334000Y-41634628D01*
X68095905Y-42110819D02*
X68095905Y-41110819D01*
X68095905Y-41110819D02*
X68476857Y-41110819D01*
X68476857Y-41110819D02*
X68572095Y-41158438D01*
X68572095Y-41158438D02*
X68619714Y-41206057D01*
X68619714Y-41206057D02*
X68667333Y-41301295D01*
X68667333Y-41301295D02*
X68667333Y-41444152D01*
X68667333Y-41444152D02*
X68619714Y-41539390D01*
X68619714Y-41539390D02*
X68572095Y-41587009D01*
X68572095Y-41587009D02*
X68476857Y-41634628D01*
X68476857Y-41634628D02*
X68095905Y-41634628D01*
X69524476Y-41110819D02*
X69334000Y-41110819D01*
X69334000Y-41110819D02*
X69238762Y-41158438D01*
X69238762Y-41158438D02*
X69191143Y-41206057D01*
X69191143Y-41206057D02*
X69095905Y-41348914D01*
X69095905Y-41348914D02*
X69048286Y-41539390D01*
X69048286Y-41539390D02*
X69048286Y-41920342D01*
X69048286Y-41920342D02*
X69095905Y-42015580D01*
X69095905Y-42015580D02*
X69143524Y-42063200D01*
X69143524Y-42063200D02*
X69238762Y-42110819D01*
X69238762Y-42110819D02*
X69429238Y-42110819D01*
X69429238Y-42110819D02*
X69524476Y-42063200D01*
X69524476Y-42063200D02*
X69572095Y-42015580D01*
X69572095Y-42015580D02*
X69619714Y-41920342D01*
X69619714Y-41920342D02*
X69619714Y-41682247D01*
X69619714Y-41682247D02*
X69572095Y-41587009D01*
X69572095Y-41587009D02*
X69524476Y-41539390D01*
X69524476Y-41539390D02*
X69429238Y-41491771D01*
X69429238Y-41491771D02*
X69238762Y-41491771D01*
X69238762Y-41491771D02*
X69143524Y-41539390D01*
X69143524Y-41539390D02*
X69095905Y-41587009D01*
X69095905Y-41587009D02*
X69048286Y-41682247D01*
X27455905Y-38808819D02*
X27455905Y-37808819D01*
X27455905Y-37808819D02*
X27694000Y-37808819D01*
X27694000Y-37808819D02*
X27836857Y-37856438D01*
X27836857Y-37856438D02*
X27932095Y-37951676D01*
X27932095Y-37951676D02*
X27979714Y-38046914D01*
X27979714Y-38046914D02*
X28027333Y-38237390D01*
X28027333Y-38237390D02*
X28027333Y-38380247D01*
X28027333Y-38380247D02*
X27979714Y-38570723D01*
X27979714Y-38570723D02*
X27932095Y-38665961D01*
X27932095Y-38665961D02*
X27836857Y-38761200D01*
X27836857Y-38761200D02*
X27694000Y-38808819D01*
X27694000Y-38808819D02*
X27455905Y-38808819D01*
X28979714Y-38808819D02*
X28408286Y-38808819D01*
X28694000Y-38808819D02*
X28694000Y-37808819D01*
X28694000Y-37808819D02*
X28598762Y-37951676D01*
X28598762Y-37951676D02*
X28503524Y-38046914D01*
X28503524Y-38046914D02*
X28408286Y-38094533D01*
X51816095Y-44412819D02*
X51816095Y-45222342D01*
X51816095Y-45222342D02*
X51863714Y-45317580D01*
X51863714Y-45317580D02*
X51911333Y-45365200D01*
X51911333Y-45365200D02*
X52006571Y-45412819D01*
X52006571Y-45412819D02*
X52197047Y-45412819D01*
X52197047Y-45412819D02*
X52292285Y-45365200D01*
X52292285Y-45365200D02*
X52339904Y-45317580D01*
X52339904Y-45317580D02*
X52387523Y-45222342D01*
X52387523Y-45222342D02*
X52387523Y-44412819D01*
X52816095Y-44508057D02*
X52863714Y-44460438D01*
X52863714Y-44460438D02*
X52958952Y-44412819D01*
X52958952Y-44412819D02*
X53197047Y-44412819D01*
X53197047Y-44412819D02*
X53292285Y-44460438D01*
X53292285Y-44460438D02*
X53339904Y-44508057D01*
X53339904Y-44508057D02*
X53387523Y-44603295D01*
X53387523Y-44603295D02*
X53387523Y-44698533D01*
X53387523Y-44698533D02*
X53339904Y-44841390D01*
X53339904Y-44841390D02*
X52768476Y-45412819D01*
X52768476Y-45412819D02*
X53387523Y-45412819D01*
X43457905Y-44904819D02*
X43457905Y-43904819D01*
X43457905Y-43904819D02*
X43696000Y-43904819D01*
X43696000Y-43904819D02*
X43838857Y-43952438D01*
X43838857Y-43952438D02*
X43934095Y-44047676D01*
X43934095Y-44047676D02*
X43981714Y-44142914D01*
X43981714Y-44142914D02*
X44029333Y-44333390D01*
X44029333Y-44333390D02*
X44029333Y-44476247D01*
X44029333Y-44476247D02*
X43981714Y-44666723D01*
X43981714Y-44666723D02*
X43934095Y-44761961D01*
X43934095Y-44761961D02*
X43838857Y-44857200D01*
X43838857Y-44857200D02*
X43696000Y-44904819D01*
X43696000Y-44904819D02*
X43457905Y-44904819D01*
X44410286Y-44000057D02*
X44457905Y-43952438D01*
X44457905Y-43952438D02*
X44553143Y-43904819D01*
X44553143Y-43904819D02*
X44791238Y-43904819D01*
X44791238Y-43904819D02*
X44886476Y-43952438D01*
X44886476Y-43952438D02*
X44934095Y-44000057D01*
X44934095Y-44000057D02*
X44981714Y-44095295D01*
X44981714Y-44095295D02*
X44981714Y-44190533D01*
X44981714Y-44190533D02*
X44934095Y-44333390D01*
X44934095Y-44333390D02*
X44362667Y-44904819D01*
X44362667Y-44904819D02*
X44981714Y-44904819D01*
X48243833Y-42110819D02*
X47910500Y-41634628D01*
X47672405Y-42110819D02*
X47672405Y-41110819D01*
X47672405Y-41110819D02*
X48053357Y-41110819D01*
X48053357Y-41110819D02*
X48148595Y-41158438D01*
X48148595Y-41158438D02*
X48196214Y-41206057D01*
X48196214Y-41206057D02*
X48243833Y-41301295D01*
X48243833Y-41301295D02*
X48243833Y-41444152D01*
X48243833Y-41444152D02*
X48196214Y-41539390D01*
X48196214Y-41539390D02*
X48148595Y-41587009D01*
X48148595Y-41587009D02*
X48053357Y-41634628D01*
X48053357Y-41634628D02*
X47672405Y-41634628D01*
X48577167Y-41110819D02*
X49196214Y-41110819D01*
X49196214Y-41110819D02*
X48862881Y-41491771D01*
X48862881Y-41491771D02*
X49005738Y-41491771D01*
X49005738Y-41491771D02*
X49100976Y-41539390D01*
X49100976Y-41539390D02*
X49148595Y-41587009D01*
X49148595Y-41587009D02*
X49196214Y-41682247D01*
X49196214Y-41682247D02*
X49196214Y-41920342D01*
X49196214Y-41920342D02*
X49148595Y-42015580D01*
X49148595Y-42015580D02*
X49100976Y-42063200D01*
X49100976Y-42063200D02*
X49005738Y-42110819D01*
X49005738Y-42110819D02*
X48720024Y-42110819D01*
X48720024Y-42110819D02*
X48624786Y-42063200D01*
X48624786Y-42063200D02*
X48577167Y-42015580D01*
X46061333Y-45412819D02*
X45728000Y-44936628D01*
X45489905Y-45412819D02*
X45489905Y-44412819D01*
X45489905Y-44412819D02*
X45870857Y-44412819D01*
X45870857Y-44412819D02*
X45966095Y-44460438D01*
X45966095Y-44460438D02*
X46013714Y-44508057D01*
X46013714Y-44508057D02*
X46061333Y-44603295D01*
X46061333Y-44603295D02*
X46061333Y-44746152D01*
X46061333Y-44746152D02*
X46013714Y-44841390D01*
X46013714Y-44841390D02*
X45966095Y-44889009D01*
X45966095Y-44889009D02*
X45870857Y-44936628D01*
X45870857Y-44936628D02*
X45489905Y-44936628D01*
X46966095Y-44412819D02*
X46489905Y-44412819D01*
X46489905Y-44412819D02*
X46442286Y-44889009D01*
X46442286Y-44889009D02*
X46489905Y-44841390D01*
X46489905Y-44841390D02*
X46585143Y-44793771D01*
X46585143Y-44793771D02*
X46823238Y-44793771D01*
X46823238Y-44793771D02*
X46918476Y-44841390D01*
X46918476Y-44841390D02*
X46966095Y-44889009D01*
X46966095Y-44889009D02*
X47013714Y-44984247D01*
X47013714Y-44984247D02*
X47013714Y-45222342D01*
X47013714Y-45222342D02*
X46966095Y-45317580D01*
X46966095Y-45317580D02*
X46918476Y-45365200D01*
X46918476Y-45365200D02*
X46823238Y-45412819D01*
X46823238Y-45412819D02*
X46585143Y-45412819D01*
X46585143Y-45412819D02*
X46489905Y-45365200D01*
X46489905Y-45365200D02*
X46442286Y-45317580D01*
X64008095Y-44412819D02*
X64008095Y-45222342D01*
X64008095Y-45222342D02*
X64055714Y-45317580D01*
X64055714Y-45317580D02*
X64103333Y-45365200D01*
X64103333Y-45365200D02*
X64198571Y-45412819D01*
X64198571Y-45412819D02*
X64389047Y-45412819D01*
X64389047Y-45412819D02*
X64484285Y-45365200D01*
X64484285Y-45365200D02*
X64531904Y-45317580D01*
X64531904Y-45317580D02*
X64579523Y-45222342D01*
X64579523Y-45222342D02*
X64579523Y-44412819D01*
X64960476Y-44412819D02*
X65579523Y-44412819D01*
X65579523Y-44412819D02*
X65246190Y-44793771D01*
X65246190Y-44793771D02*
X65389047Y-44793771D01*
X65389047Y-44793771D02*
X65484285Y-44841390D01*
X65484285Y-44841390D02*
X65531904Y-44889009D01*
X65531904Y-44889009D02*
X65579523Y-44984247D01*
X65579523Y-44984247D02*
X65579523Y-45222342D01*
X65579523Y-45222342D02*
X65531904Y-45317580D01*
X65531904Y-45317580D02*
X65484285Y-45365200D01*
X65484285Y-45365200D02*
X65389047Y-45412819D01*
X65389047Y-45412819D02*
X65103333Y-45412819D01*
X65103333Y-45412819D02*
X65008095Y-45365200D01*
X65008095Y-45365200D02*
X64960476Y-45317580D01*
X41830666Y-28664819D02*
X41830666Y-29379104D01*
X41830666Y-29379104D02*
X41783047Y-29521961D01*
X41783047Y-29521961D02*
X41687809Y-29617200D01*
X41687809Y-29617200D02*
X41544952Y-29664819D01*
X41544952Y-29664819D02*
X41449714Y-29664819D01*
X42259238Y-28760057D02*
X42306857Y-28712438D01*
X42306857Y-28712438D02*
X42402095Y-28664819D01*
X42402095Y-28664819D02*
X42640190Y-28664819D01*
X42640190Y-28664819D02*
X42735428Y-28712438D01*
X42735428Y-28712438D02*
X42783047Y-28760057D01*
X42783047Y-28760057D02*
X42830666Y-28855295D01*
X42830666Y-28855295D02*
X42830666Y-28950533D01*
X42830666Y-28950533D02*
X42783047Y-29093390D01*
X42783047Y-29093390D02*
X42211619Y-29664819D01*
X42211619Y-29664819D02*
X42830666Y-29664819D01*
X33615333Y-41761580D02*
X33567714Y-41809200D01*
X33567714Y-41809200D02*
X33424857Y-41856819D01*
X33424857Y-41856819D02*
X33329619Y-41856819D01*
X33329619Y-41856819D02*
X33186762Y-41809200D01*
X33186762Y-41809200D02*
X33091524Y-41713961D01*
X33091524Y-41713961D02*
X33043905Y-41618723D01*
X33043905Y-41618723D02*
X32996286Y-41428247D01*
X32996286Y-41428247D02*
X32996286Y-41285390D01*
X32996286Y-41285390D02*
X33043905Y-41094914D01*
X33043905Y-41094914D02*
X33091524Y-40999676D01*
X33091524Y-40999676D02*
X33186762Y-40904438D01*
X33186762Y-40904438D02*
X33329619Y-40856819D01*
X33329619Y-40856819D02*
X33424857Y-40856819D01*
X33424857Y-40856819D02*
X33567714Y-40904438D01*
X33567714Y-40904438D02*
X33615333Y-40952057D01*
X34567714Y-41856819D02*
X33996286Y-41856819D01*
X34282000Y-41856819D02*
X34282000Y-40856819D01*
X34282000Y-40856819D02*
X34186762Y-40999676D01*
X34186762Y-40999676D02*
X34091524Y-41094914D01*
X34091524Y-41094914D02*
X33996286Y-41142533D01*
X50720666Y-28664819D02*
X50720666Y-29379104D01*
X50720666Y-29379104D02*
X50673047Y-29521961D01*
X50673047Y-29521961D02*
X50577809Y-29617200D01*
X50577809Y-29617200D02*
X50434952Y-29664819D01*
X50434952Y-29664819D02*
X50339714Y-29664819D01*
X51101619Y-28664819D02*
X51720666Y-28664819D01*
X51720666Y-28664819D02*
X51387333Y-29045771D01*
X51387333Y-29045771D02*
X51530190Y-29045771D01*
X51530190Y-29045771D02*
X51625428Y-29093390D01*
X51625428Y-29093390D02*
X51673047Y-29141009D01*
X51673047Y-29141009D02*
X51720666Y-29236247D01*
X51720666Y-29236247D02*
X51720666Y-29474342D01*
X51720666Y-29474342D02*
X51673047Y-29569580D01*
X51673047Y-29569580D02*
X51625428Y-29617200D01*
X51625428Y-29617200D02*
X51530190Y-29664819D01*
X51530190Y-29664819D02*
X51244476Y-29664819D01*
X51244476Y-29664819D02*
X51149238Y-29617200D01*
X51149238Y-29617200D02*
X51101619Y-29569580D01*
X41171905Y-41856819D02*
X41171905Y-40856819D01*
X41171905Y-40856819D02*
X41410000Y-40856819D01*
X41410000Y-40856819D02*
X41552857Y-40904438D01*
X41552857Y-40904438D02*
X41648095Y-40999676D01*
X41648095Y-40999676D02*
X41695714Y-41094914D01*
X41695714Y-41094914D02*
X41743333Y-41285390D01*
X41743333Y-41285390D02*
X41743333Y-41428247D01*
X41743333Y-41428247D02*
X41695714Y-41618723D01*
X41695714Y-41618723D02*
X41648095Y-41713961D01*
X41648095Y-41713961D02*
X41552857Y-41809200D01*
X41552857Y-41809200D02*
X41410000Y-41856819D01*
X41410000Y-41856819D02*
X41171905Y-41856819D01*
X42076667Y-40856819D02*
X42695714Y-40856819D01*
X42695714Y-40856819D02*
X42362381Y-41237771D01*
X42362381Y-41237771D02*
X42505238Y-41237771D01*
X42505238Y-41237771D02*
X42600476Y-41285390D01*
X42600476Y-41285390D02*
X42648095Y-41333009D01*
X42648095Y-41333009D02*
X42695714Y-41428247D01*
X42695714Y-41428247D02*
X42695714Y-41666342D01*
X42695714Y-41666342D02*
X42648095Y-41761580D01*
X42648095Y-41761580D02*
X42600476Y-41809200D01*
X42600476Y-41809200D02*
X42505238Y-41856819D01*
X42505238Y-41856819D02*
X42219524Y-41856819D01*
X42219524Y-41856819D02*
X42124286Y-41809200D01*
X42124286Y-41809200D02*
X42076667Y-41761580D01*
X41743333Y-46682819D02*
X41410000Y-46206628D01*
X41171905Y-46682819D02*
X41171905Y-45682819D01*
X41171905Y-45682819D02*
X41552857Y-45682819D01*
X41552857Y-45682819D02*
X41648095Y-45730438D01*
X41648095Y-45730438D02*
X41695714Y-45778057D01*
X41695714Y-45778057D02*
X41743333Y-45873295D01*
X41743333Y-45873295D02*
X41743333Y-46016152D01*
X41743333Y-46016152D02*
X41695714Y-46111390D01*
X41695714Y-46111390D02*
X41648095Y-46159009D01*
X41648095Y-46159009D02*
X41552857Y-46206628D01*
X41552857Y-46206628D02*
X41171905Y-46206628D01*
X42695714Y-46682819D02*
X42124286Y-46682819D01*
X42410000Y-46682819D02*
X42410000Y-45682819D01*
X42410000Y-45682819D02*
X42314762Y-45825676D01*
X42314762Y-45825676D02*
X42219524Y-45920914D01*
X42219524Y-45920914D02*
X42124286Y-45968533D01*
X68095905Y-39570819D02*
X68095905Y-38570819D01*
X68095905Y-38570819D02*
X68334000Y-38570819D01*
X68334000Y-38570819D02*
X68476857Y-38618438D01*
X68476857Y-38618438D02*
X68572095Y-38713676D01*
X68572095Y-38713676D02*
X68619714Y-38808914D01*
X68619714Y-38808914D02*
X68667333Y-38999390D01*
X68667333Y-38999390D02*
X68667333Y-39142247D01*
X68667333Y-39142247D02*
X68619714Y-39332723D01*
X68619714Y-39332723D02*
X68572095Y-39427961D01*
X68572095Y-39427961D02*
X68476857Y-39523200D01*
X68476857Y-39523200D02*
X68334000Y-39570819D01*
X68334000Y-39570819D02*
X68095905Y-39570819D01*
X69572095Y-38570819D02*
X69095905Y-38570819D01*
X69095905Y-38570819D02*
X69048286Y-39047009D01*
X69048286Y-39047009D02*
X69095905Y-38999390D01*
X69095905Y-38999390D02*
X69191143Y-38951771D01*
X69191143Y-38951771D02*
X69429238Y-38951771D01*
X69429238Y-38951771D02*
X69524476Y-38999390D01*
X69524476Y-38999390D02*
X69572095Y-39047009D01*
X69572095Y-39047009D02*
X69619714Y-39142247D01*
X69619714Y-39142247D02*
X69619714Y-39380342D01*
X69619714Y-39380342D02*
X69572095Y-39475580D01*
X69572095Y-39475580D02*
X69524476Y-39523200D01*
X69524476Y-39523200D02*
X69429238Y-39570819D01*
X69429238Y-39570819D02*
X69191143Y-39570819D01*
X69191143Y-39570819D02*
X69095905Y-39523200D01*
X69095905Y-39523200D02*
X69048286Y-39475580D01*
X68667333Y-37030819D02*
X68334000Y-36554628D01*
X68095905Y-37030819D02*
X68095905Y-36030819D01*
X68095905Y-36030819D02*
X68476857Y-36030819D01*
X68476857Y-36030819D02*
X68572095Y-36078438D01*
X68572095Y-36078438D02*
X68619714Y-36126057D01*
X68619714Y-36126057D02*
X68667333Y-36221295D01*
X68667333Y-36221295D02*
X68667333Y-36364152D01*
X68667333Y-36364152D02*
X68619714Y-36459390D01*
X68619714Y-36459390D02*
X68572095Y-36507009D01*
X68572095Y-36507009D02*
X68476857Y-36554628D01*
X68476857Y-36554628D02*
X68095905Y-36554628D01*
X69000667Y-36030819D02*
X69667333Y-36030819D01*
X69667333Y-36030819D02*
X69238762Y-37030819D01*
X59102666Y-28664819D02*
X59102666Y-29379104D01*
X59102666Y-29379104D02*
X59055047Y-29521961D01*
X59055047Y-29521961D02*
X58959809Y-29617200D01*
X58959809Y-29617200D02*
X58816952Y-29664819D01*
X58816952Y-29664819D02*
X58721714Y-29664819D01*
X60007428Y-28998152D02*
X60007428Y-29664819D01*
X59769333Y-28617200D02*
X59531238Y-29331485D01*
X59531238Y-29331485D02*
X60150285Y-29331485D01*
X32766095Y-42634819D02*
X32766095Y-43444342D01*
X32766095Y-43444342D02*
X32813714Y-43539580D01*
X32813714Y-43539580D02*
X32861333Y-43587200D01*
X32861333Y-43587200D02*
X32956571Y-43634819D01*
X32956571Y-43634819D02*
X33147047Y-43634819D01*
X33147047Y-43634819D02*
X33242285Y-43587200D01*
X33242285Y-43587200D02*
X33289904Y-43539580D01*
X33289904Y-43539580D02*
X33337523Y-43444342D01*
X33337523Y-43444342D02*
X33337523Y-42634819D01*
X34337523Y-43634819D02*
X33766095Y-43634819D01*
X34051809Y-43634819D02*
X34051809Y-42634819D01*
X34051809Y-42634819D02*
X33956571Y-42777676D01*
X33956571Y-42777676D02*
X33861333Y-42872914D01*
X33861333Y-42872914D02*
X33766095Y-42920533D01*
X56292761Y-38650057D02*
X56197523Y-38602438D01*
X56197523Y-38602438D02*
X56102285Y-38507200D01*
X56102285Y-38507200D02*
X55959428Y-38364342D01*
X55959428Y-38364342D02*
X55864190Y-38316723D01*
X55864190Y-38316723D02*
X55768952Y-38316723D01*
X55816571Y-38554819D02*
X55721333Y-38507200D01*
X55721333Y-38507200D02*
X55626095Y-38411961D01*
X55626095Y-38411961D02*
X55578476Y-38221485D01*
X55578476Y-38221485D02*
X55578476Y-37888152D01*
X55578476Y-37888152D02*
X55626095Y-37697676D01*
X55626095Y-37697676D02*
X55721333Y-37602438D01*
X55721333Y-37602438D02*
X55816571Y-37554819D01*
X55816571Y-37554819D02*
X56007047Y-37554819D01*
X56007047Y-37554819D02*
X56102285Y-37602438D01*
X56102285Y-37602438D02*
X56197523Y-37697676D01*
X56197523Y-37697676D02*
X56245142Y-37888152D01*
X56245142Y-37888152D02*
X56245142Y-38221485D01*
X56245142Y-38221485D02*
X56197523Y-38411961D01*
X56197523Y-38411961D02*
X56102285Y-38507200D01*
X56102285Y-38507200D02*
X56007047Y-38554819D01*
X56007047Y-38554819D02*
X55816571Y-38554819D01*
X57197523Y-38554819D02*
X56626095Y-38554819D01*
X56911809Y-38554819D02*
X56911809Y-37554819D01*
X56911809Y-37554819D02*
X56816571Y-37697676D01*
X56816571Y-37697676D02*
X56721333Y-37792914D01*
X56721333Y-37792914D02*
X56626095Y-37840533D01*
X48243833Y-37030819D02*
X47910500Y-36554628D01*
X47672405Y-37030819D02*
X47672405Y-36030819D01*
X47672405Y-36030819D02*
X48053357Y-36030819D01*
X48053357Y-36030819D02*
X48148595Y-36078438D01*
X48148595Y-36078438D02*
X48196214Y-36126057D01*
X48196214Y-36126057D02*
X48243833Y-36221295D01*
X48243833Y-36221295D02*
X48243833Y-36364152D01*
X48243833Y-36364152D02*
X48196214Y-36459390D01*
X48196214Y-36459390D02*
X48148595Y-36507009D01*
X48148595Y-36507009D02*
X48053357Y-36554628D01*
X48053357Y-36554628D02*
X47672405Y-36554628D01*
X49100976Y-36364152D02*
X49100976Y-37030819D01*
X48862881Y-35983200D02*
X48624786Y-36697485D01*
X48624786Y-36697485D02*
X49243833Y-36697485D01*
X33194666Y-26124819D02*
X33194666Y-26839104D01*
X33194666Y-26839104D02*
X33147047Y-26981961D01*
X33147047Y-26981961D02*
X33051809Y-27077200D01*
X33051809Y-27077200D02*
X32908952Y-27124819D01*
X32908952Y-27124819D02*
X32813714Y-27124819D01*
X34194666Y-27124819D02*
X33623238Y-27124819D01*
X33908952Y-27124819D02*
X33908952Y-26124819D01*
X33908952Y-26124819D02*
X33813714Y-26267676D01*
X33813714Y-26267676D02*
X33718476Y-26362914D01*
X33718476Y-26362914D02*
X33623238Y-26410533D01*
X47521905Y-39570819D02*
X47521905Y-38570819D01*
X47521905Y-38570819D02*
X47760000Y-38570819D01*
X47760000Y-38570819D02*
X47902857Y-38618438D01*
X47902857Y-38618438D02*
X47998095Y-38713676D01*
X47998095Y-38713676D02*
X48045714Y-38808914D01*
X48045714Y-38808914D02*
X48093333Y-38999390D01*
X48093333Y-38999390D02*
X48093333Y-39142247D01*
X48093333Y-39142247D02*
X48045714Y-39332723D01*
X48045714Y-39332723D02*
X47998095Y-39427961D01*
X47998095Y-39427961D02*
X47902857Y-39523200D01*
X47902857Y-39523200D02*
X47760000Y-39570819D01*
X47760000Y-39570819D02*
X47521905Y-39570819D01*
X48950476Y-38904152D02*
X48950476Y-39570819D01*
X48712381Y-38523200D02*
X48474286Y-39237485D01*
X48474286Y-39237485D02*
X49093333Y-39237485D01*
X46061333Y-47698819D02*
X45728000Y-47222628D01*
X45489905Y-47698819D02*
X45489905Y-46698819D01*
X45489905Y-46698819D02*
X45870857Y-46698819D01*
X45870857Y-46698819D02*
X45966095Y-46746438D01*
X45966095Y-46746438D02*
X46013714Y-46794057D01*
X46013714Y-46794057D02*
X46061333Y-46889295D01*
X46061333Y-46889295D02*
X46061333Y-47032152D01*
X46061333Y-47032152D02*
X46013714Y-47127390D01*
X46013714Y-47127390D02*
X45966095Y-47175009D01*
X45966095Y-47175009D02*
X45870857Y-47222628D01*
X45870857Y-47222628D02*
X45489905Y-47222628D01*
X46442286Y-46794057D02*
X46489905Y-46746438D01*
X46489905Y-46746438D02*
X46585143Y-46698819D01*
X46585143Y-46698819D02*
X46823238Y-46698819D01*
X46823238Y-46698819D02*
X46918476Y-46746438D01*
X46918476Y-46746438D02*
X46966095Y-46794057D01*
X46966095Y-46794057D02*
X47013714Y-46889295D01*
X47013714Y-46889295D02*
X47013714Y-46984533D01*
X47013714Y-46984533D02*
X46966095Y-47127390D01*
X46966095Y-47127390D02*
X46394667Y-47698819D01*
X46394667Y-47698819D02*
X47013714Y-47698819D01*
X38441333Y-38205580D02*
X38393714Y-38253200D01*
X38393714Y-38253200D02*
X38250857Y-38300819D01*
X38250857Y-38300819D02*
X38155619Y-38300819D01*
X38155619Y-38300819D02*
X38012762Y-38253200D01*
X38012762Y-38253200D02*
X37917524Y-38157961D01*
X37917524Y-38157961D02*
X37869905Y-38062723D01*
X37869905Y-38062723D02*
X37822286Y-37872247D01*
X37822286Y-37872247D02*
X37822286Y-37729390D01*
X37822286Y-37729390D02*
X37869905Y-37538914D01*
X37869905Y-37538914D02*
X37917524Y-37443676D01*
X37917524Y-37443676D02*
X38012762Y-37348438D01*
X38012762Y-37348438D02*
X38155619Y-37300819D01*
X38155619Y-37300819D02*
X38250857Y-37300819D01*
X38250857Y-37300819D02*
X38393714Y-37348438D01*
X38393714Y-37348438D02*
X38441333Y-37396057D01*
X38822286Y-37396057D02*
X38869905Y-37348438D01*
X38869905Y-37348438D02*
X38965143Y-37300819D01*
X38965143Y-37300819D02*
X39203238Y-37300819D01*
X39203238Y-37300819D02*
X39298476Y-37348438D01*
X39298476Y-37348438D02*
X39346095Y-37396057D01*
X39346095Y-37396057D02*
X39393714Y-37491295D01*
X39393714Y-37491295D02*
X39393714Y-37586533D01*
X39393714Y-37586533D02*
X39346095Y-37729390D01*
X39346095Y-37729390D02*
X38774667Y-38300819D01*
X38774667Y-38300819D02*
X39393714Y-38300819D01*
D12*
X66267064Y-40921000D02*
X65812936Y-40921000D01*
X66267064Y-42391000D02*
X65812936Y-42391000D01*
X29591000Y-40459300D02*
X29591000Y-41125500D01*
X29591000Y-40608800D02*
X29591000Y-36708800D01*
X29591000Y-41122600D02*
X32334200Y-41122600D01*
X32334200Y-40608800D02*
X32334200Y-36708800D01*
X32334200Y-41122600D02*
X32334200Y-40411400D01*
X53880000Y-42558000D02*
X54030000Y-42558000D01*
X53880000Y-47358000D02*
X53880000Y-42558000D01*
X54030000Y-47358000D02*
X53880000Y-47358000D01*
X57730000Y-42558000D02*
X57880000Y-42558000D01*
X57880000Y-42558000D02*
X57880000Y-47358000D01*
X57880000Y-47358000D02*
X57730000Y-47358000D01*
X54030000Y-47808000D02*
X53700000Y-48048000D01*
X53700000Y-47568000D01*
X54030000Y-47808000D01*
G36*
X54030000Y-47808000D02*
G01*
X53700000Y-48048000D01*
X53700000Y-47568000D01*
X54030000Y-47808000D01*
G37*
X43865800Y-38379400D02*
X43865800Y-39090600D01*
X43865800Y-38893200D02*
X43865800Y-42793200D01*
X46609000Y-38379400D02*
X43865800Y-38379400D01*
X46609000Y-38893200D02*
X46609000Y-42793200D01*
X46609000Y-39042700D02*
X46609000Y-38376500D01*
X51080936Y-40921000D02*
X51535064Y-40921000D01*
X51080936Y-42391000D02*
X51535064Y-42391000D01*
X49606564Y-44223000D02*
X49152436Y-44223000D01*
X49606564Y-45693000D02*
X49152436Y-45693000D01*
X59468000Y-42558000D02*
X59618000Y-42558000D01*
X59468000Y-47358000D02*
X59468000Y-42558000D01*
X59618000Y-47358000D02*
X59468000Y-47358000D01*
X63318000Y-42558000D02*
X63468000Y-42558000D01*
X63468000Y-42558000D02*
X63468000Y-47358000D01*
X63468000Y-47358000D02*
X63318000Y-47358000D01*
X59618000Y-47808000D02*
X59288000Y-48048000D01*
X59288000Y-47568000D01*
X59618000Y-47808000D01*
G36*
X59618000Y-47808000D02*
G01*
X59288000Y-48048000D01*
X59288000Y-47568000D01*
X59618000Y-47808000D01*
G37*
X43372000Y-27987000D02*
X43372000Y-30487000D01*
X43372000Y-30487000D02*
X44422000Y-30487000D01*
X48422000Y-26017000D02*
X44542000Y-26017000D01*
X48542000Y-30487000D02*
X48542000Y-31477000D01*
X49592000Y-27987000D02*
X49592000Y-30487000D01*
X49592000Y-30487000D02*
X48542000Y-30487000D01*
X33301000Y-39123252D02*
X33301000Y-38600748D01*
X34771000Y-39123252D02*
X34771000Y-38600748D01*
X52008000Y-27987000D02*
X52008000Y-30487000D01*
X52008000Y-30487000D02*
X53058000Y-30487000D01*
X57058000Y-26017000D02*
X53178000Y-26017000D01*
X57178000Y-30487000D02*
X57178000Y-31477000D01*
X58228000Y-27987000D02*
X58228000Y-30487000D01*
X58228000Y-30487000D02*
X57178000Y-30487000D01*
X40950000Y-37177000D02*
X40950000Y-39862000D01*
X42870000Y-37177000D02*
X40950000Y-37177000D01*
X42870000Y-39862000D02*
X42870000Y-37177000D01*
X41175000Y-43714936D02*
X41175000Y-44169064D01*
X42645000Y-43714936D02*
X42645000Y-44169064D01*
X64355000Y-38156000D02*
X64355000Y-40076000D01*
X64355000Y-40076000D02*
X67040000Y-40076000D01*
X67040000Y-38156000D02*
X64355000Y-38156000D01*
X65812936Y-35841000D02*
X66267064Y-35841000D01*
X65812936Y-37311000D02*
X66267064Y-37311000D01*
X60390000Y-27987000D02*
X60390000Y-30487000D01*
X60390000Y-30487000D02*
X61440000Y-30487000D01*
X65440000Y-26017000D02*
X61560000Y-26017000D01*
X65560000Y-30487000D02*
X65560000Y-31477000D01*
X66610000Y-27987000D02*
X66610000Y-30487000D01*
X66610000Y-30487000D02*
X65560000Y-30487000D01*
X34724000Y-42120000D02*
X34954000Y-42120000D01*
X34724000Y-44840000D02*
X34724000Y-42120000D01*
X34724000Y-44840000D02*
X35974000Y-44840000D01*
X39214000Y-40980000D02*
X39214000Y-42120000D01*
X39444000Y-42120000D02*
X39214000Y-42120000D01*
X39444000Y-42120000D02*
X39444000Y-44840000D01*
X39444000Y-44840000D02*
X38194000Y-44840000D01*
X59436000Y-36540000D02*
X57636000Y-36540000D01*
X59436000Y-36540000D02*
X60236000Y-36540000D01*
X59436000Y-39660000D02*
X58636000Y-39660000D01*
X59436000Y-39660000D02*
X60236000Y-39660000D01*
X51080936Y-35841000D02*
X51535064Y-35841000D01*
X51080936Y-37311000D02*
X51535064Y-37311000D01*
X34990000Y-27987000D02*
X34990000Y-30487000D01*
X34990000Y-30487000D02*
X36040000Y-30487000D01*
X40040000Y-26017000D02*
X36160000Y-26017000D01*
X40160000Y-30487000D02*
X40160000Y-31477000D01*
X41210000Y-27987000D02*
X41210000Y-30487000D01*
X41210000Y-30487000D02*
X40160000Y-30487000D01*
X49623000Y-38156000D02*
X49623000Y-40076000D01*
X49623000Y-40076000D02*
X52308000Y-40076000D01*
X52308000Y-38156000D02*
X49623000Y-38156000D01*
X49606564Y-46509000D02*
X49152436Y-46509000D01*
X49606564Y-47979000D02*
X49152436Y-47979000D01*
X38361252Y-38635000D02*
X37838748Y-38635000D01*
X38361252Y-40105000D02*
X37838748Y-40105000D01*
M02*
