G04 start of page 4 for group 2 idx 2 *
G04 Title: (unknown), outline *
G04 Creator: pcb 4.0.2 *
G04 CreationDate: Mon Jul 24 21:31:33 2023 UTC *
G04 For: railfan *
G04 Format: Gerber/RS-274X *
G04 PCB-Dimensions (mil): 3000.00 5500.00 *
G04 PCB-Coordinate-Origin: lower left *
%MOIN*%
%FSLAX25Y25*%
%LNOUTLINE*%
%ADD37C,0.0093*%
%ADD36C,0.0074*%
%ADD35C,0.0100*%
G54D35*X262000Y95000D02*X120000D01*
Y105000D02*X262500D01*
X262000Y130000D02*X120000D01*
Y140000D02*X262000D01*
Y130000D01*
Y105000D02*Y95000D01*
Y165000D02*X120000D01*
Y175000D02*X262000D01*
Y200000D02*X120000D01*
Y210000D02*X262000D01*
Y200000D01*
Y175000D02*Y165000D01*
Y70000D02*X120000D01*
Y60000D02*X262000D01*
X60000Y30000D02*X270500D01*
X262000Y70000D02*Y60000D01*
X100000Y95000D02*X60000D01*
Y105000D02*X100000D01*
X60000Y70000D02*Y95000D01*
X100000Y70000D02*X60000D01*
X100000Y130000D02*X60000D01*
Y140000D02*X100000D01*
X60000Y105000D02*Y130000D01*
Y140000D02*Y165000D01*
X100000Y60000D02*X60000D01*
Y30000D01*
X100000Y165000D02*X60000D01*
Y175000D02*X100000D01*
Y200000D02*X60000D01*
Y175000D02*Y200000D01*
Y210000D02*X100000D01*
Y235000D02*X60000D01*
Y210000D02*Y235000D01*
Y245000D02*X100000D01*
Y270000D02*X60000D01*
Y280000D02*X100000D01*
X60000Y245000D02*Y270000D01*
X262000Y235000D02*X120000D01*
Y245000D02*X262000D01*
Y270000D02*X120000D01*
Y280000D02*X262000D01*
Y305000D02*X120000D01*
Y315000D02*X262000D01*
Y305000D01*
Y280000D02*Y270000D01*
X270500Y520000D02*Y30000D01*
X262000Y245000D02*Y235000D01*
X100000Y305000D02*X60000D01*
Y315000D02*X100000D01*
Y340000D02*X60000D01*
Y315000D02*Y340000D01*
Y280000D02*Y305000D01*
Y385000D02*Y410000D01*
Y455000D02*Y480000D01*
Y490000D02*Y520000D01*
Y350000D02*X100000D01*
Y375000D02*X60000D01*
Y385000D02*X100000D01*
X60000Y350000D02*Y375000D01*
X100000Y410000D02*X60000D01*
Y420000D02*X100000D01*
Y445000D02*X60000D01*
Y455000D02*X100000D01*
X60000Y420000D02*Y445000D01*
X100000Y480000D02*X60000D01*
X100000Y490000D02*X60000D01*
X262000Y340000D02*X120000D01*
Y350000D02*X262000D01*
Y375000D02*X120000D01*
Y385000D02*X262000D01*
Y375000D01*
Y350000D02*Y340000D01*
Y410000D02*X120000D01*
Y420000D02*X262000D01*
Y445000D02*X120000D01*
Y455000D02*X262000D01*
Y445000D01*
Y420000D02*Y410000D01*
Y480000D02*X120000D01*
Y490000D02*X262000D01*
X60000Y520000D02*X270500D01*
X262000Y490000D02*Y480000D01*
X115000Y170000D02*G75*G03X120000Y165000I5000J0D01*G01*
X115000Y170000D02*G75*G02X120000Y175000I5000J0D01*G01*
X115000Y205000D02*G75*G03X120000Y200000I5000J0D01*G01*
X115000Y205000D02*G75*G02X120000Y210000I5000J0D01*G01*
X105000Y170000D02*G75*G03X100000Y175000I-5000J0D01*G01*
X105000Y205000D02*G75*G02X100000Y200000I-5000J0D01*G01*
X105000Y205000D02*G75*G03X100000Y210000I-5000J0D01*G01*
X105000Y240000D02*G75*G02X100000Y235000I-5000J0D01*G01*
X105000Y240000D02*G75*G03X100000Y245000I-5000J0D01*G01*
X115000Y135000D02*G75*G03X120000Y130000I5000J0D01*G01*
X115000Y135000D02*G75*G02X120000Y140000I5000J0D01*G01*
X105000Y135000D02*G75*G02X100000Y130000I-5000J0D01*G01*
X105000Y135000D02*G75*G03X100000Y140000I-5000J0D01*G01*
X115000Y100000D02*G75*G03X120000Y95000I5000J0D01*G01*
X115000Y100000D02*G75*G02X120000Y105000I5000J0D01*G01*
X105000Y100000D02*G75*G02X100000Y95000I-5000J0D01*G01*
X105000Y100000D02*G75*G03X100000Y105000I-5000J0D01*G01*
X105000Y170000D02*G75*G02X100000Y165000I-5000J0D01*G01*
X115000Y65000D02*G75*G02X120000Y70000I5000J0D01*G01*
X115000Y65000D02*G75*G03X120000Y60000I5000J0D01*G01*
X105000Y65000D02*G75*G03X100000Y70000I-5000J0D01*G01*
X105000Y65000D02*G75*G02X100000Y60000I-5000J0D01*G01*
X115000Y240000D02*G75*G03X120000Y235000I5000J0D01*G01*
X115000Y240000D02*G75*G02X120000Y245000I5000J0D01*G01*
X115000Y275000D02*G75*G03X120000Y270000I5000J0D01*G01*
X115000Y275000D02*G75*G02X120000Y280000I5000J0D01*G01*
X105000Y275000D02*G75*G02X100000Y270000I-5000J0D01*G01*
X105000Y275000D02*G75*G03X100000Y280000I-5000J0D01*G01*
X105000Y310000D02*G75*G02X100000Y305000I-5000J0D01*G01*
X105000Y310000D02*G75*G03X100000Y315000I-5000J0D01*G01*
X115000Y310000D02*G75*G03X120000Y305000I5000J0D01*G01*
X115000Y310000D02*G75*G02X120000Y315000I5000J0D01*G01*
X115000Y345000D02*G75*G03X120000Y340000I5000J0D01*G01*
X115000Y345000D02*G75*G02X120000Y350000I5000J0D01*G01*
X115000Y380000D02*G75*G03X120000Y375000I5000J0D01*G01*
X115000Y380000D02*G75*G02X120000Y385000I5000J0D01*G01*
X105000Y345000D02*G75*G02X100000Y340000I-5000J0D01*G01*
X105000Y345000D02*G75*G03X100000Y350000I-5000J0D01*G01*
X105000Y380000D02*G75*G02X100000Y375000I-5000J0D01*G01*
X105000Y380000D02*G75*G03X100000Y385000I-5000J0D01*G01*
X105000Y415000D02*G75*G02X100000Y410000I-5000J0D01*G01*
X105000Y415000D02*G75*G03X100000Y420000I-5000J0D01*G01*
X115000Y415000D02*G75*G03X120000Y410000I5000J0D01*G01*
X115000Y415000D02*G75*G02X120000Y420000I5000J0D01*G01*
X115000Y450000D02*G75*G03X120000Y445000I5000J0D01*G01*
X115000Y450000D02*G75*G02X120000Y455000I5000J0D01*G01*
X105000Y450000D02*G75*G02X100000Y445000I-5000J0D01*G01*
X105000Y450000D02*G75*G03X100000Y455000I-5000J0D01*G01*
X115000Y485000D02*G75*G03X120000Y480000I5000J0D01*G01*
X115000Y485000D02*G75*G02X120000Y490000I5000J0D01*G01*
X105000Y485000D02*G75*G02X100000Y480000I-5000J0D01*G01*
X105000Y485000D02*G75*G03X100000Y490000I-5000J0D01*G01*
G54D36*X16360Y141500D02*X23800D01*
X16360D02*X23800Y146150D01*
X16360D02*X23800D01*
X17290Y148382D02*X22870D01*
X17290D02*X16360Y149312D01*
Y151172D02*Y149312D01*
Y151172D02*X17290Y152102D01*
X22870D01*
X23800Y151172D02*X22870Y152102D01*
X23800Y151172D02*Y149312D01*
X22870Y148382D02*X23800Y149312D01*
X16360Y158612D02*X22870D01*
X23800Y159542D01*
X19150D02*Y157682D01*
X20080Y164192D02*X21010Y165122D01*
X20080Y164192D02*Y162332D01*
X21010Y161402D02*X20080Y162332D01*
X21010Y161402D02*X22870D01*
X23800Y162332D01*
X20080Y165122D02*X22870D01*
X23800Y166052D01*
Y164192D02*Y162332D01*
Y164192D02*X22870Y165122D01*
X16360Y168284D02*X23800D01*
X22870D02*X23800Y169214D01*
Y171074D02*Y169214D01*
Y171074D02*X22870Y172004D01*
X21010D02*X22870D01*
X20080Y171074D02*X21010Y172004D01*
X20080Y171074D02*Y169214D01*
X21010Y168284D02*X20080Y169214D01*
X23800Y177956D02*Y175166D01*
Y177956D02*X22870Y178886D01*
X21940Y177956D02*X22870Y178886D01*
X21940Y177956D02*Y175166D01*
X21010Y174236D02*X21940Y175166D01*
X21010Y174236D02*X20080Y175166D01*
Y177956D02*Y175166D01*
Y177956D02*X21010Y178886D01*
X22870Y174236D02*X23800Y175166D01*
X25660Y181118D02*X23800Y182978D01*
Y192278D02*Y189488D01*
Y192278D02*X22870Y193208D01*
X21940Y192278D02*X22870Y193208D01*
X21940Y192278D02*Y189488D01*
X21010Y188558D02*X21940Y189488D01*
X21010Y188558D02*X20080Y189488D01*
Y192278D02*Y189488D01*
Y192278D02*X21010Y193208D01*
X22870Y188558D02*X23800Y189488D01*
X20080Y199160D02*Y196370D01*
X21010Y195440D02*X20080Y196370D01*
X21010Y195440D02*X22870D01*
X23800Y196370D01*
Y199160D02*Y196370D01*
X21010Y201392D02*X22870D01*
X21010D02*X20080Y202322D01*
Y204182D02*Y202322D01*
Y204182D02*X21010Y205112D01*
X22870D01*
X23800Y204182D02*X22870Y205112D01*
X23800Y204182D02*Y202322D01*
X22870Y201392D02*X23800Y202322D01*
X21010Y208274D02*X23800D01*
X21010D02*X20080Y209204D01*
Y211064D02*Y209204D01*
Y207344D02*X21010Y208274D01*
G54D37*X18220Y213296D02*X18406D01*
G54D36*X21010D02*X23800D01*
X21010Y216086D02*X23800D01*
X21010D02*X20080Y217016D01*
Y217946D02*Y217016D01*
Y217946D02*X21010Y218876D01*
X23800D01*
X20080Y215156D02*X21010Y216086D01*
X20080Y223898D02*X21010Y224828D01*
X20080Y223898D02*Y222038D01*
X21010Y221108D02*X20080Y222038D01*
X21010Y221108D02*X22870D01*
X23800Y222038D01*
Y223898D02*Y222038D01*
Y223898D02*X22870Y224828D01*
X25660Y221108D02*X26590Y222038D01*
Y223898D02*Y222038D01*
Y223898D02*X25660Y224828D01*
X20080D02*X25660D01*
Y227060D02*X23800Y228920D01*
X21010Y234500D02*X22870D01*
X21010D02*X20080Y235430D01*
Y237290D02*Y235430D01*
Y237290D02*X21010Y238220D01*
X22870D01*
X23800Y237290D02*X22870Y238220D01*
X23800Y237290D02*Y235430D01*
X22870Y234500D02*X23800Y235430D01*
X21010Y241382D02*X23800D01*
X21010D02*X20080Y242312D01*
Y244172D02*Y242312D01*
Y240452D02*X21010Y241382D01*
X16360Y249752D02*X23800D01*
X22870D02*X23800Y250682D01*
Y252542D02*Y250682D01*
Y252542D02*X22870Y253472D01*
X21010D02*X22870D01*
X20080Y252542D02*X21010Y253472D01*
X20080Y252542D02*Y250682D01*
X21010Y249752D02*X20080Y250682D01*
X21010Y256634D02*X23800D01*
X21010D02*X20080Y257564D01*
Y259424D02*Y257564D01*
Y255704D02*X21010Y256634D01*
X23800Y265376D02*Y262586D01*
X22870Y261656D02*X23800Y262586D01*
X21010Y261656D02*X22870D01*
X21010D02*X20080Y262586D01*
Y264446D02*Y262586D01*
Y264446D02*X21010Y265376D01*
X21940D02*Y261656D01*
X21010Y265376D02*X21940D01*
X20080Y270398D02*X21010Y271328D01*
X20080Y270398D02*Y268538D01*
X21010Y267608D02*X20080Y268538D01*
X21010Y267608D02*X22870D01*
X23800Y268538D01*
X20080Y271328D02*X22870D01*
X23800Y272258D01*
Y270398D02*Y268538D01*
Y270398D02*X22870Y271328D01*
X16360Y274490D02*X23800D01*
X21010D02*X23800Y277280D01*
X21010Y274490D02*X19150Y276350D01*
X20080Y282302D02*X21010Y283232D01*
X20080Y282302D02*Y280442D01*
X21010Y279512D02*X20080Y280442D01*
X21010Y279512D02*X22870D01*
X23800Y280442D01*
X20080Y283232D02*X22870D01*
X23800Y284162D01*
Y282302D02*Y280442D01*
Y282302D02*X22870Y283232D01*
X20080Y286394D02*X22870D01*
X23800Y287324D01*
Y288254D02*Y287324D01*
Y288254D02*X22870Y289184D01*
X20080D02*X22870D01*
X23800Y290114D01*
Y291044D02*Y290114D01*
Y291044D02*X22870Y291974D01*
X20080D02*X22870D01*
X20080Y296996D02*X21010Y297926D01*
X20080Y296996D02*Y295136D01*
X21010Y294206D02*X20080Y295136D01*
X21010Y294206D02*X22870D01*
X23800Y295136D01*
X20080Y297926D02*X22870D01*
X23800Y298856D01*
Y296996D02*Y295136D01*
Y296996D02*X22870Y297926D01*
X20080Y301088D02*X22870D01*
X23800Y302018D01*
X20080Y304808D02*X25660D01*
X26590Y303878D02*X25660Y304808D01*
X26590Y303878D02*Y302018D01*
X25660Y301088D02*X26590Y302018D01*
X23800Y303878D02*Y302018D01*
Y303878D02*X22870Y304808D01*
X21010Y311318D02*X23800D01*
X21010D02*X20080Y312248D01*
Y314108D02*Y312248D01*
Y310388D02*X21010Y311318D01*
X20080Y319130D02*X21010Y320060D01*
X20080Y319130D02*Y317270D01*
X21010Y316340D02*X20080Y317270D01*
X21010Y316340D02*X22870D01*
X23800Y317270D01*
X20080Y320060D02*X22870D01*
X23800Y320990D01*
Y319130D02*Y317270D01*
Y319130D02*X22870Y320060D01*
G54D37*X18220Y323222D02*X18406D01*
G54D36*X21010D02*X23800D01*
X16360Y325082D02*X22870D01*
X23800Y326012D01*
Y331592D02*Y328802D01*
Y331592D02*X22870Y332522D01*
X21940Y331592D02*X22870Y332522D01*
X21940Y331592D02*Y328802D01*
X21010Y327872D02*X21940Y328802D01*
X21010Y327872D02*X20080Y328802D01*
Y331592D02*Y328802D01*
Y331592D02*X21010Y332522D01*
X22870Y327872D02*X23800Y328802D01*
X21010Y338102D02*X22870D01*
X21010D02*X20080Y339032D01*
Y340892D02*Y339032D01*
Y340892D02*X21010Y341822D01*
X22870D01*
X23800Y340892D02*X22870Y341822D01*
X23800Y340892D02*Y339032D01*
X22870Y338102D02*X23800Y339032D01*
X21010Y344984D02*X23800D01*
X21010D02*X20080Y345914D01*
Y346844D02*Y345914D01*
Y346844D02*X21010Y347774D01*
X23800D01*
X20080Y344054D02*X21010Y344984D01*
X16360Y354284D02*X22870D01*
X23800Y355214D01*
X19150D02*Y353354D01*
X16360Y357074D02*X23800D01*
X21010D02*X20080Y358004D01*
Y359864D02*Y358004D01*
Y359864D02*X21010Y360794D01*
X23800D01*
G54D37*X18220Y363026D02*X18406D01*
G54D36*X21010D02*X23800D01*
Y368606D02*Y365816D01*
Y368606D02*X22870Y369536D01*
X21940Y368606D02*X22870Y369536D01*
X21940Y368606D02*Y365816D01*
X21010Y364886D02*X21940Y365816D01*
X21010Y364886D02*X20080Y365816D01*
Y368606D02*Y365816D01*
Y368606D02*X21010Y369536D01*
X22870Y364886D02*X23800Y365816D01*
Y378836D02*Y376046D01*
X22870Y375116D02*X23800Y376046D01*
X21010Y375116D02*X22870D01*
X21010D02*X20080Y376046D01*
Y377906D02*Y376046D01*
Y377906D02*X21010Y378836D01*
X21940D02*Y375116D01*
X21010Y378836D02*X21940D01*
X16360Y384788D02*X23800D01*
Y383858D02*X22870Y384788D01*
X23800Y383858D02*Y381998D01*
X22870Y381068D02*X23800Y381998D01*
X21010Y381068D02*X22870D01*
X21010D02*X20080Y381998D01*
Y383858D02*Y381998D01*
Y383858D02*X21010Y384788D01*
X20080Y389810D02*X21010Y390740D01*
X20080Y389810D02*Y387950D01*
X21010Y387020D02*X20080Y387950D01*
X21010Y387020D02*X22870D01*
X23800Y387950D01*
Y389810D02*Y387950D01*
Y389810D02*X22870Y390740D01*
X25660Y387020D02*X26590Y387950D01*
Y389810D02*Y387950D01*
Y389810D02*X25660Y390740D01*
X20080D02*X25660D01*
X23800Y396692D02*Y393902D01*
X22870Y392972D02*X23800Y393902D01*
X21010Y392972D02*X22870D01*
X21010D02*X20080Y393902D01*
Y395762D02*Y393902D01*
Y395762D02*X21010Y396692D01*
X21940D02*Y392972D01*
X21010Y396692D02*X21940D01*
X23800Y399854D02*Y398924D01*
X45860Y194930D02*X53300D01*
X45860Y197720D02*Y194000D01*
Y197720D02*X46790Y198650D01*
X48650D01*
X49580Y197720D02*X48650Y198650D01*
X49580Y197720D02*Y194930D01*
X45860Y200882D02*X52370D01*
X53300Y201812D01*
Y207392D02*Y204602D01*
X52370Y203672D02*X53300Y204602D01*
X50510Y203672D02*X52370D01*
X50510D02*X49580Y204602D01*
Y206462D02*Y204602D01*
Y206462D02*X50510Y207392D01*
X51440D02*Y203672D01*
X50510Y207392D02*X51440D01*
X49580Y212414D02*X50510Y213344D01*
X49580Y212414D02*Y210554D01*
X50510Y209624D02*X49580Y210554D01*
X50510Y209624D02*X52370D01*
X53300Y210554D01*
X49580Y213344D02*X52370D01*
X53300Y214274D01*
Y212414D02*Y210554D01*
Y212414D02*X52370Y213344D01*
X53300Y220226D02*Y217436D01*
Y220226D02*X52370Y221156D01*
X51440Y220226D02*X52370Y221156D01*
X51440Y220226D02*Y217436D01*
X50510Y216506D02*X51440Y217436D01*
X50510Y216506D02*X49580Y217436D01*
Y220226D02*Y217436D01*
Y220226D02*X50510Y221156D01*
X52370Y216506D02*X53300Y217436D01*
Y227108D02*Y224318D01*
X52370Y223388D02*X53300Y224318D01*
X50510Y223388D02*X52370D01*
X50510D02*X49580Y224318D01*
Y226178D02*Y224318D01*
Y226178D02*X50510Y227108D01*
X51440D02*Y223388D01*
X50510Y227108D02*X51440D01*
X45860Y236408D02*X53300D01*
Y235478D02*X52370Y236408D01*
X53300Y235478D02*Y233618D01*
X52370Y232688D02*X53300Y233618D01*
X50510Y232688D02*X52370D01*
X50510D02*X49580Y233618D01*
Y235478D02*Y233618D01*
Y235478D02*X50510Y236408D01*
Y238640D02*X52370D01*
X50510D02*X49580Y239570D01*
Y241430D02*Y239570D01*
Y241430D02*X50510Y242360D01*
X52370D01*
X53300Y241430D02*X52370Y242360D01*
X53300Y241430D02*Y239570D01*
X52370Y238640D02*X53300Y239570D01*
X45860Y247940D02*X53300D01*
X45860D02*X53300Y252590D01*
X45860D02*X53300D01*
X46790Y254822D02*X52370D01*
X46790D02*X45860Y255752D01*
Y257612D02*Y255752D01*
Y257612D02*X46790Y258542D01*
X52370D01*
X53300Y257612D02*X52370Y258542D01*
X53300Y257612D02*Y255752D01*
X52370Y254822D02*X53300Y255752D01*
X45860Y264494D02*Y260774D01*
Y262634D02*X53300D01*
X50510Y271004D02*X56090D01*
X49580Y270074D02*X50510Y271004D01*
X49580Y271934D01*
Y273794D02*Y271934D01*
Y273794D02*X50510Y274724D01*
X52370D01*
X53300Y273794D02*X52370Y274724D01*
X53300Y273794D02*Y271934D01*
X52370Y271004D02*X53300Y271934D01*
X49580Y276956D02*X52370D01*
X53300Y277886D01*
Y279746D02*Y277886D01*
Y279746D02*X52370Y280676D01*
X49580D02*X52370D01*
X45860Y282908D02*X52370D01*
X53300Y283838D01*
X45860Y285698D02*X52370D01*
X53300Y286628D01*
X45860Y291836D02*X53300D01*
X52370D02*X53300Y292766D01*
Y294626D02*Y292766D01*
Y294626D02*X52370Y295556D01*
X50510D02*X52370D01*
X49580Y294626D02*X50510Y295556D01*
X49580Y294626D02*Y292766D01*
X50510Y291836D02*X49580Y292766D01*
Y300578D02*X50510Y301508D01*
X49580Y300578D02*Y298718D01*
X50510Y297788D02*X49580Y298718D01*
X50510Y297788D02*X52370D01*
X53300Y298718D01*
X49580Y301508D02*X52370D01*
X53300Y302438D01*
Y300578D02*Y298718D01*
Y300578D02*X52370Y301508D01*
X49580Y308390D02*Y305600D01*
X50510Y304670D02*X49580Y305600D01*
X50510Y304670D02*X52370D01*
X53300Y305600D01*
Y308390D02*Y305600D01*
X45860Y310622D02*X53300D01*
X50510D02*X53300Y313412D01*
X50510Y310622D02*X48650Y312482D01*
X50510Y319922D02*X53300D01*
X50510D02*X49580Y320852D01*
Y321782D02*Y320852D01*
Y321782D02*X50510Y322712D01*
X53300D01*
X50510D02*X49580Y323642D01*
Y324572D02*Y323642D01*
Y324572D02*X50510Y325502D01*
X53300D01*
X49580Y318992D02*X50510Y319922D01*
X53300Y331454D02*Y328664D01*
X52370Y327734D02*X53300Y328664D01*
X50510Y327734D02*X52370D01*
X50510D02*X49580Y328664D01*
Y330524D02*Y328664D01*
Y330524D02*X50510Y331454D01*
X51440D02*Y327734D01*
X50510Y331454D02*X51440D01*
X45860Y334616D02*X52370D01*
X53300Y335546D01*
X48650D02*Y333686D01*
X49580Y340196D02*X50510Y341126D01*
X49580Y340196D02*Y338336D01*
X50510Y337406D02*X49580Y338336D01*
X50510Y337406D02*X52370D01*
X53300Y338336D01*
X49580Y341126D02*X52370D01*
X53300Y342056D01*
Y340196D02*Y338336D01*
Y340196D02*X52370Y341126D01*
X45860Y344288D02*X52370D01*
X53300Y345218D01*
X52370Y347078D02*X53300D01*
X45860D02*X50510D01*
X31860Y104000D02*X39300D01*
X31860D02*X35580Y106790D01*
X31860Y109580D01*
X39300D01*
Y115532D02*Y112742D01*
X38370Y111812D02*X39300Y112742D01*
X36510Y111812D02*X38370D01*
X36510D02*X35580Y112742D01*
Y114602D02*Y112742D01*
Y114602D02*X36510Y115532D01*
X37440D02*Y111812D01*
X36510Y115532D02*X37440D01*
X31860Y118694D02*X38370D01*
X39300Y119624D01*
X34650D02*Y117764D01*
X35580Y124274D02*X36510Y125204D01*
X35580Y124274D02*Y122414D01*
X36510Y121484D02*X35580Y122414D01*
X36510Y121484D02*X38370D01*
X39300Y122414D01*
X35580Y125204D02*X38370D01*
X39300Y126134D01*
Y124274D02*Y122414D01*
Y124274D02*X38370Y125204D01*
X31860Y128366D02*X38370D01*
X39300Y129296D01*
X36510Y135434D02*X42090D01*
X35580Y134504D02*X36510Y135434D01*
X35580Y136364D01*
Y138224D02*Y136364D01*
Y138224D02*X36510Y139154D01*
X38370D01*
X39300Y138224D02*X38370Y139154D01*
X39300Y138224D02*Y136364D01*
X38370Y135434D02*X39300Y136364D01*
X35580Y144176D02*X36510Y145106D01*
X35580Y144176D02*Y142316D01*
X36510Y141386D02*X35580Y142316D01*
X36510Y141386D02*X38370D01*
X39300Y142316D01*
X35580Y145106D02*X38370D01*
X39300Y146036D01*
Y144176D02*Y142316D01*
Y144176D02*X38370Y145106D01*
X31860Y151988D02*X39300D01*
Y151058D02*X38370Y151988D01*
X39300Y151058D02*Y149198D01*
X38370Y148268D02*X39300Y149198D01*
X36510Y148268D02*X38370D01*
X36510D02*X35580Y149198D01*
Y151058D02*Y149198D01*
Y151058D02*X36510Y151988D01*
X39300Y157940D02*Y155150D01*
Y157940D02*X38370Y158870D01*
X37440Y157940D02*X38370Y158870D01*
X37440Y157940D02*Y155150D01*
X36510Y154220D02*X37440Y155150D01*
X36510Y154220D02*X35580Y155150D01*
Y157940D02*Y155150D01*
Y157940D02*X36510Y158870D01*
X38370Y154220D02*X39300Y155150D01*
X36510Y164450D02*X38370D01*
X36510D02*X35580Y165380D01*
Y167240D02*Y165380D01*
Y167240D02*X36510Y168170D01*
X38370D01*
X39300Y167240D02*X38370Y168170D01*
X39300Y167240D02*Y165380D01*
X38370Y164450D02*X39300Y165380D01*
X36510Y171332D02*X39300D01*
X36510D02*X35580Y172262D01*
Y173192D02*Y172262D01*
Y173192D02*X36510Y174122D01*
X39300D01*
X35580Y170402D02*X36510Y171332D01*
X31860Y180632D02*X38370D01*
X39300Y181562D01*
X34650D02*Y179702D01*
X31860Y183422D02*X39300D01*
X36510D02*X35580Y184352D01*
Y186212D02*Y184352D01*
Y186212D02*X36510Y187142D01*
X39300D01*
G54D37*X33720Y189374D02*X33906D01*
G54D36*X36510D02*X39300D01*
Y194954D02*Y192164D01*
Y194954D02*X38370Y195884D01*
X37440Y194954D02*X38370Y195884D01*
X37440Y194954D02*Y192164D01*
X36510Y191234D02*X37440Y192164D01*
X36510Y191234D02*X35580Y192164D01*
Y194954D02*Y192164D01*
Y194954D02*X36510Y195884D01*
X38370Y191234D02*X39300Y192164D01*
Y205184D02*Y202394D01*
Y205184D02*X38370Y206114D01*
X37440Y205184D02*X38370Y206114D01*
X37440Y205184D02*Y202394D01*
X36510Y201464D02*X37440Y202394D01*
X36510Y201464D02*X35580Y202394D01*
Y205184D02*Y202394D01*
Y205184D02*X36510Y206114D01*
X38370Y201464D02*X39300Y202394D01*
G54D37*X33720Y208346D02*X33906D01*
G54D36*X36510D02*X39300D01*
X31860Y213926D02*X39300D01*
Y212996D02*X38370Y213926D01*
X39300Y212996D02*Y211136D01*
X38370Y210206D02*X39300Y211136D01*
X36510Y210206D02*X38370D01*
X36510D02*X35580Y211136D01*
Y212996D02*Y211136D01*
Y212996D02*X36510Y213926D01*
X39300Y219878D02*Y217088D01*
X38370Y216158D02*X39300Y217088D01*
X36510Y216158D02*X38370D01*
X36510D02*X35580Y217088D01*
Y218948D02*Y217088D01*
Y218948D02*X36510Y219878D01*
X37440D02*Y216158D01*
X36510Y219878D02*X37440D01*
X39300Y229178D02*Y226388D01*
Y229178D02*X38370Y230108D01*
X37440Y229178D02*X38370Y230108D01*
X37440Y229178D02*Y226388D01*
X36510Y225458D02*X37440Y226388D01*
X36510Y225458D02*X35580Y226388D01*
Y229178D02*Y226388D01*
Y229178D02*X36510Y230108D01*
X38370Y225458D02*X39300Y226388D01*
X31860Y232340D02*X39300D01*
X36510D02*X35580Y233270D01*
Y235130D02*Y233270D01*
Y235130D02*X36510Y236060D01*
X39300D01*
X36510Y238292D02*X38370D01*
X36510D02*X35580Y239222D01*
Y241082D02*Y239222D01*
Y241082D02*X36510Y242012D01*
X38370D01*
X39300Y241082D02*X38370Y242012D01*
X39300Y241082D02*Y239222D01*
X38370Y238292D02*X39300Y239222D01*
X35580Y244244D02*X38370D01*
X39300Y245174D01*
Y247034D02*Y245174D01*
Y247034D02*X38370Y247964D01*
X35580D02*X38370D01*
X31860Y250196D02*X38370D01*
X39300Y251126D01*
X31860Y256706D02*X39300D01*
Y255776D02*X38370Y256706D01*
X39300Y255776D02*Y253916D01*
X38370Y252986D02*X39300Y253916D01*
X36510Y252986D02*X38370D01*
X36510D02*X35580Y253916D01*
Y255776D02*Y253916D01*
Y255776D02*X36510Y256706D01*
X31860Y262286D02*X39300D01*
X38370D02*X39300Y263216D01*
Y265076D02*Y263216D01*
Y265076D02*X38370Y266006D01*
X36510D02*X38370D01*
X35580Y265076D02*X36510Y266006D01*
X35580Y265076D02*Y263216D01*
X36510Y262286D02*X35580Y263216D01*
X39300Y271958D02*Y269168D01*
X38370Y268238D02*X39300Y269168D01*
X36510Y268238D02*X38370D01*
X36510D02*X35580Y269168D01*
Y271028D02*Y269168D01*
Y271028D02*X36510Y271958D01*
X37440D02*Y268238D01*
X36510Y271958D02*X37440D01*
X35580Y281258D02*Y278468D01*
X36510Y277538D02*X35580Y278468D01*
X36510Y277538D02*X38370D01*
X39300Y278468D01*
Y281258D02*Y278468D01*
X36510Y283490D02*X38370D01*
X36510D02*X35580Y284420D01*
Y286280D02*Y284420D01*
Y286280D02*X36510Y287210D01*
X38370D01*
X39300Y286280D02*X38370Y287210D01*
X39300Y286280D02*Y284420D01*
X38370Y283490D02*X39300Y284420D01*
G54D37*X33720Y289442D02*X33906D01*
G54D36*X36510D02*X39300D01*
X36510Y292232D02*X39300D01*
X36510D02*X35580Y293162D01*
Y294092D02*Y293162D01*
Y294092D02*X36510Y295022D01*
X39300D01*
X35580Y291302D02*X36510Y292232D01*
X35580Y300974D02*Y298184D01*
X36510Y297254D02*X35580Y298184D01*
X36510Y297254D02*X38370D01*
X39300Y298184D01*
Y300974D02*Y298184D01*
G54D37*X33720Y303206D02*X33906D01*
G54D36*X36510D02*X39300D01*
X31860Y308786D02*X39300D01*
Y307856D02*X38370Y308786D01*
X39300Y307856D02*Y305996D01*
X38370Y305066D02*X39300Y305996D01*
X36510Y305066D02*X38370D01*
X36510D02*X35580Y305996D01*
Y307856D02*Y305996D01*
Y307856D02*X36510Y308786D01*
X39300Y314738D02*Y311948D01*
X38370Y311018D02*X39300Y311948D01*
X36510Y311018D02*X38370D01*
X36510D02*X35580Y311948D01*
Y313808D02*Y311948D01*
Y313808D02*X36510Y314738D01*
X37440D02*Y311018D01*
X36510Y314738D02*X37440D01*
X36510Y317900D02*X39300D01*
X36510D02*X35580Y318830D01*
Y319760D02*Y318830D01*
Y319760D02*X36510Y320690D01*
X39300D01*
X35580Y316970D02*X36510Y317900D01*
X31860Y323852D02*X38370D01*
X39300Y324782D01*
X34650D02*Y322922D01*
X35580Y329990D02*X38370D01*
X39300Y330920D01*
Y331850D02*Y330920D01*
Y331850D02*X38370Y332780D01*
X35580D02*X38370D01*
X39300Y333710D01*
Y334640D02*Y333710D01*
Y334640D02*X38370Y335570D01*
X35580D02*X38370D01*
G54D37*X33720Y337802D02*X33906D01*
G54D36*X36510D02*X39300D01*
X31860Y340592D02*X38370D01*
X39300Y341522D01*
X34650D02*Y339662D01*
X31860Y343382D02*X39300D01*
X36510D02*X35580Y344312D01*
Y346172D02*Y344312D01*
Y346172D02*X36510Y347102D01*
X39300D01*
X31860Y352682D02*X39300D01*
X38370D02*X39300Y353612D01*
Y355472D02*Y353612D01*
Y355472D02*X38370Y356402D01*
X36510D02*X38370D01*
X35580Y355472D02*X36510Y356402D01*
X35580Y355472D02*Y353612D01*
X36510Y352682D02*X35580Y353612D01*
X36510Y358634D02*X38370D01*
X36510D02*X35580Y359564D01*
Y361424D02*Y359564D01*
Y361424D02*X36510Y362354D01*
X38370D01*
X39300Y361424D02*X38370Y362354D01*
X39300Y361424D02*Y359564D01*
X38370Y358634D02*X39300Y359564D01*
X35580Y367376D02*X36510Y368306D01*
X35580Y367376D02*Y365516D01*
X36510Y364586D02*X35580Y365516D01*
X36510Y364586D02*X38370D01*
X39300Y365516D01*
X35580Y368306D02*X38370D01*
X39300Y369236D01*
Y367376D02*Y365516D01*
Y367376D02*X38370Y368306D01*
X36510Y372398D02*X39300D01*
X36510D02*X35580Y373328D01*
Y375188D02*Y373328D01*
Y371468D02*X36510Y372398D01*
X31860Y381140D02*X39300D01*
Y380210D02*X38370Y381140D01*
X39300Y380210D02*Y378350D01*
X38370Y377420D02*X39300Y378350D01*
X36510Y377420D02*X38370D01*
X36510D02*X35580Y378350D01*
Y380210D02*Y378350D01*
Y380210D02*X36510Y381140D01*
X39300Y390440D02*Y387650D01*
X38370Y386720D02*X39300Y387650D01*
X36510Y386720D02*X38370D01*
X36510D02*X35580Y387650D01*
Y389510D02*Y387650D01*
Y389510D02*X36510Y390440D01*
X37440D02*Y386720D01*
X36510Y390440D02*X37440D01*
X31860Y396392D02*X39300D01*
Y395462D02*X38370Y396392D01*
X39300Y395462D02*Y393602D01*
X38370Y392672D02*X39300Y393602D01*
X36510Y392672D02*X38370D01*
X36510D02*X35580Y393602D01*
Y395462D02*Y393602D01*
Y395462D02*X36510Y396392D01*
X35580Y401414D02*X36510Y402344D01*
X35580Y401414D02*Y399554D01*
X36510Y398624D02*X35580Y399554D01*
X36510Y398624D02*X38370D01*
X39300Y399554D01*
Y401414D02*Y399554D01*
Y401414D02*X38370Y402344D01*
X41160Y398624D02*X42090Y399554D01*
Y401414D02*Y399554D01*
Y401414D02*X41160Y402344D01*
X35580D02*X41160D01*
X39300Y408296D02*Y405506D01*
X38370Y404576D02*X39300Y405506D01*
X36510Y404576D02*X38370D01*
X36510D02*X35580Y405506D01*
Y407366D02*Y405506D01*
Y407366D02*X36510Y408296D01*
X37440D02*Y404576D01*
X36510Y408296D02*X37440D01*
X38370Y413876D02*X39300Y414806D01*
X32790Y413876D02*X31860Y414806D01*
X32790Y413876D02*X38370D01*
X35580Y417038D02*X33720Y418898D01*
X35580Y417038D02*X37440Y418898D01*
X31860Y424850D02*Y421130D01*
X35580D01*
X34650Y422060D01*
Y423920D02*Y422060D01*
Y423920D02*X35580Y424850D01*
X38370D01*
X39300Y423920D02*X38370Y424850D01*
X39300Y423920D02*Y422060D01*
X38370Y421130D02*X39300Y422060D01*
X36510Y428012D02*X39300D01*
X36510D02*X35580Y428942D01*
Y429872D02*Y428942D01*
Y429872D02*X36510Y430802D01*
X39300D01*
X36510D02*X35580Y431732D01*
Y432662D02*Y431732D01*
Y432662D02*X36510Y433592D01*
X39300D01*
X35580Y427082D02*X36510Y428012D01*
G54D37*X33720Y435824D02*X33906D01*
G54D36*X36510D02*X39300D01*
X31860Y437684D02*X38370D01*
X39300Y438614D01*
X31860Y440474D02*X32790Y441404D01*
X38370D01*
X39300Y440474D02*X38370Y441404D01*
X39300Y444566D02*Y443636D01*
X277860Y164720D02*Y161000D01*
Y162860D02*X285300D01*
X281580Y169742D02*X282510Y170672D01*
X281580Y169742D02*Y167882D01*
X282510Y166952D02*X281580Y167882D01*
X282510Y166952D02*X284370D01*
X285300Y167882D01*
X281580Y170672D02*X284370D01*
X285300Y171602D01*
Y169742D02*Y167882D01*
Y169742D02*X284370Y170672D01*
X277860Y173834D02*X285300D01*
X284370D02*X285300Y174764D01*
Y176624D02*Y174764D01*
Y176624D02*X284370Y177554D01*
X282510D02*X284370D01*
X281580Y176624D02*X282510Y177554D01*
X281580Y176624D02*Y174764D01*
X282510Y173834D02*X281580Y174764D01*
X285300Y183506D02*Y180716D01*
Y183506D02*X284370Y184436D01*
X283440Y183506D02*X284370Y184436D01*
X283440Y183506D02*Y180716D01*
X282510Y179786D02*X283440Y180716D01*
X282510Y179786D02*X281580Y180716D01*
Y183506D02*Y180716D01*
Y183506D02*X282510Y184436D01*
X284370Y179786D02*X285300Y180716D01*
Y193736D02*Y190946D01*
Y193736D02*X284370Y194666D01*
X283440Y193736D02*X284370Y194666D01*
X283440Y193736D02*Y190946D01*
X282510Y190016D02*X283440Y190946D01*
X282510Y190016D02*X281580Y190946D01*
Y193736D02*Y190946D01*
Y193736D02*X282510Y194666D01*
X284370Y190016D02*X285300Y190946D01*
X277860Y196898D02*X285300D01*
X282510D02*X281580Y197828D01*
Y199688D02*Y197828D01*
Y199688D02*X282510Y200618D01*
X285300D01*
X282510Y202850D02*X284370D01*
X282510D02*X281580Y203780D01*
Y205640D02*Y203780D01*
Y205640D02*X282510Y206570D01*
X284370D01*
X285300Y205640D02*X284370Y206570D01*
X285300Y205640D02*Y203780D01*
X284370Y202850D02*X285300Y203780D01*
X281580Y208802D02*X284370D01*
X285300Y209732D01*
Y211592D02*Y209732D01*
Y211592D02*X284370Y212522D01*
X281580D02*X284370D01*
X277860Y214754D02*X284370D01*
X285300Y215684D01*
X277860Y221264D02*X285300D01*
Y220334D02*X284370Y221264D01*
X285300Y220334D02*Y218474D01*
X284370Y217544D02*X285300Y218474D01*
X282510Y217544D02*X284370D01*
X282510D02*X281580Y218474D01*
Y220334D02*Y218474D01*
Y220334D02*X282510Y221264D01*
X277860Y226844D02*X285300D01*
X284370D02*X285300Y227774D01*
Y229634D02*Y227774D01*
Y229634D02*X284370Y230564D01*
X282510D02*X284370D01*
X281580Y229634D02*X282510Y230564D01*
X281580Y229634D02*Y227774D01*
X282510Y226844D02*X281580Y227774D01*
X285300Y236516D02*Y233726D01*
X284370Y232796D02*X285300Y233726D01*
X282510Y232796D02*X284370D01*
X282510D02*X281580Y233726D01*
Y235586D02*Y233726D01*
Y235586D02*X282510Y236516D01*
X283440D02*Y232796D01*
X282510Y236516D02*X283440D01*
X285300Y245816D02*Y243026D01*
Y245816D02*X284370Y246746D01*
X283440Y245816D02*X284370Y246746D01*
X283440Y245816D02*Y243026D01*
X282510Y242096D02*X283440Y243026D01*
X282510Y242096D02*X281580Y243026D01*
Y245816D02*Y243026D01*
Y245816D02*X282510Y246746D01*
X284370Y242096D02*X285300Y243026D01*
X282510Y248978D02*X284370D01*
X282510D02*X281580Y249908D01*
Y251768D02*Y249908D01*
Y251768D02*X282510Y252698D01*
X284370D01*
X285300Y251768D02*X284370Y252698D01*
X285300Y251768D02*Y249908D01*
X284370Y248978D02*X285300Y249908D01*
X277860Y254930D02*X284370D01*
X285300Y255860D01*
G54D37*X279720Y257720D02*X279906D01*
G54D36*X282510D02*X285300D01*
X277860Y263300D02*X285300D01*
Y262370D02*X284370Y263300D01*
X285300Y262370D02*Y260510D01*
X284370Y259580D02*X285300Y260510D01*
X282510Y259580D02*X284370D01*
X282510D02*X281580Y260510D01*
Y262370D02*Y260510D01*
Y262370D02*X282510Y263300D01*
Y268880D02*X284370D01*
X282510D02*X281580Y269810D01*
Y271670D02*Y269810D01*
Y271670D02*X282510Y272600D01*
X284370D01*
X285300Y271670D02*X284370Y272600D01*
X285300Y271670D02*Y269810D01*
X284370Y268880D02*X285300Y269810D01*
X282510Y275762D02*X285300D01*
X282510D02*X281580Y276692D01*
Y277622D02*Y276692D01*
Y277622D02*X282510Y278552D01*
X285300D01*
X281580Y274832D02*X282510Y275762D01*
X277860Y285062D02*X284370D01*
X285300Y285992D01*
X280650D02*Y284132D01*
X277860Y287852D02*X285300D01*
X282510D02*X281580Y288782D01*
Y290642D02*Y288782D01*
Y290642D02*X282510Y291572D01*
X285300D01*
G54D37*X279720Y293804D02*X279906D01*
G54D36*X282510D02*X285300D01*
Y299384D02*Y296594D01*
Y299384D02*X284370Y300314D01*
X283440Y299384D02*X284370Y300314D01*
X283440Y299384D02*Y296594D01*
X282510Y295664D02*X283440Y296594D01*
X282510Y295664D02*X281580Y296594D01*
Y299384D02*Y296594D01*
Y299384D02*X282510Y300314D01*
X284370Y295664D02*X285300Y296594D01*
Y309614D02*Y306824D01*
X284370Y305894D02*X285300Y306824D01*
X282510Y305894D02*X284370D01*
X282510D02*X281580Y306824D01*
Y308684D02*Y306824D01*
Y308684D02*X282510Y309614D01*
X283440D02*Y305894D01*
X282510Y309614D02*X283440D01*
X277860Y315566D02*X285300D01*
Y314636D02*X284370Y315566D01*
X285300Y314636D02*Y312776D01*
X284370Y311846D02*X285300Y312776D01*
X282510Y311846D02*X284370D01*
X282510D02*X281580Y312776D01*
Y314636D02*Y312776D01*
Y314636D02*X282510Y315566D01*
X281580Y320588D02*X282510Y321518D01*
X281580Y320588D02*Y318728D01*
X282510Y317798D02*X281580Y318728D01*
X282510Y317798D02*X284370D01*
X285300Y318728D01*
Y320588D02*Y318728D01*
Y320588D02*X284370Y321518D01*
X287160Y317798D02*X288090Y318728D01*
Y320588D02*Y318728D01*
Y320588D02*X287160Y321518D01*
X281580D02*X287160D01*
X285300Y327470D02*Y324680D01*
X284370Y323750D02*X285300Y324680D01*
X282510Y323750D02*X284370D01*
X282510D02*X281580Y324680D01*
Y326540D02*Y324680D01*
Y326540D02*X282510Y327470D01*
X283440D02*Y323750D01*
X282510Y327470D02*X283440D01*
X285300Y330632D02*Y329702D01*
X277860Y339560D02*X285300D01*
X277860D02*X285300Y344210D01*
X277860D02*X285300D01*
X282510Y346442D02*X284370D01*
X282510D02*X281580Y347372D01*
Y349232D02*Y347372D01*
Y349232D02*X282510Y350162D01*
X284370D01*
X285300Y349232D02*X284370Y350162D01*
X285300Y349232D02*Y347372D01*
X284370Y346442D02*X285300Y347372D01*
X277860Y355742D02*X285300D01*
X282510D02*X281580Y356672D01*
Y358532D02*Y356672D01*
Y358532D02*X282510Y359462D01*
X285300D01*
X282510Y361694D02*X284370D01*
X282510D02*X281580Y362624D01*
Y364484D02*Y362624D01*
Y364484D02*X282510Y365414D01*
X284370D01*
X285300Y364484D02*X284370Y365414D01*
X285300Y364484D02*Y362624D01*
X284370Y361694D02*X285300Y362624D01*
X277860Y367646D02*X284370D01*
X285300Y368576D01*
Y374156D02*Y371366D01*
X284370Y370436D02*X285300Y371366D01*
X282510Y370436D02*X284370D01*
X282510D02*X281580Y371366D01*
Y373226D02*Y371366D01*
Y373226D02*X282510Y374156D01*
X283440D02*Y370436D01*
X282510Y374156D02*X283440D01*
X285300Y380108D02*Y377318D01*
Y380108D02*X284370Y381038D01*
X283440Y380108D02*X284370Y381038D01*
X283440Y380108D02*Y377318D01*
X282510Y376388D02*X283440Y377318D01*
X282510Y376388D02*X281580Y377318D01*
Y380108D02*Y377318D01*
Y380108D02*X282510Y381038D01*
X284370Y376388D02*X285300Y377318D01*
Y384200D02*Y383270D01*
M02*
