G04 start of page 8 for group -4062 idx -4062 *
G04 Title: (unknown), soldermask *
G04 Creator: pcb 20140316 *
G04 CreationDate: Thu 20 Aug 2020 02:40:32 AM GMT UTC *
G04 For: railfan *
G04 Format: Gerber/RS-274X *
G04 PCB-Dimensions (mil): 2400.00 4300.00 *
G04 PCB-Coordinate-Origin: lower left *
%MOIN*%
%FSLAX25Y25*%
%LNBOTTOMMASK*%
%ADD61C,0.0370*%
%ADD60R,0.0300X0.0300*%
%ADD59C,0.0600*%
%ADD58C,0.0490*%
G54D58*X109000Y302500D03*
Y267500D03*
Y232500D03*
Y197500D03*
X89000Y306500D03*
Y298500D03*
Y271500D03*
Y263500D03*
Y236500D03*
Y228500D03*
Y201500D03*
Y193500D03*
X109000Y372500D03*
X89000Y376500D03*
Y368500D03*
X109000Y337500D03*
X89000Y341500D03*
X109000Y407500D03*
X89000Y411500D03*
Y403500D03*
Y333500D03*
X109000Y162500D03*
Y127500D03*
Y92500D03*
Y57500D03*
X89000Y166500D03*
Y158500D03*
Y131500D03*
Y123500D03*
Y96500D03*
Y88500D03*
Y61500D03*
Y53500D03*
X109000Y22500D03*
X89000Y26500D03*
Y18500D03*
G54D59*X56500Y409900D03*
G54D60*X55000Y408400D02*X58000D01*
G54D59*X56500Y403100D03*
G54D60*X55000Y404600D02*X58000D01*
G54D61*X104000Y405000D03*
Y410000D03*
X99000Y405000D03*
Y410000D03*
X94000Y405000D03*
Y410000D03*
X104000Y370000D03*
Y375000D03*
X99000D03*
X94000D03*
X99000Y370000D03*
X94000D03*
G54D59*X56500Y374900D03*
G54D60*X55000Y373400D02*X58000D01*
G54D59*X56500Y368100D03*
G54D60*X55000Y369600D02*X58000D01*
G54D59*X56500Y333100D03*
G54D60*X55000Y334600D02*X58000D01*
G54D59*X56500Y339900D03*
G54D60*X55000Y338400D02*X58000D01*
G54D59*X56500Y304900D03*
G54D60*X55000Y303400D02*X58000D01*
X55000Y299600D02*X58000D01*
G54D59*X56500Y298100D03*
Y269900D03*
G54D60*X55000Y268400D02*X58000D01*
X55000Y264600D02*X58000D01*
G54D59*X56500Y263100D03*
G54D61*X104000Y335000D03*
Y340000D03*
X99000Y335000D03*
Y340000D03*
X94000Y335000D03*
Y340000D03*
X104000Y300000D03*
Y305000D03*
X99000D03*
X94000D03*
X99000Y300000D03*
X94000D03*
X104000Y265000D03*
Y270000D03*
X99000D03*
X94000D03*
X99000Y265000D03*
X94000D03*
G54D59*X56500Y234900D03*
G54D60*X55000Y233400D02*X58000D01*
X55000Y229600D02*X58000D01*
G54D59*X56500Y228100D03*
Y199900D03*
G54D60*X55000Y198400D02*X58000D01*
X55000Y194600D02*X58000D01*
G54D59*X56500Y193100D03*
G54D61*X104000Y230000D03*
Y235000D03*
X99000D03*
X94000D03*
X99000Y230000D03*
X94000D03*
X104000Y195000D03*
Y200000D03*
X99000D03*
X94000D03*
X99000Y195000D03*
X94000D03*
X104000Y160000D03*
Y165000D03*
X99000D03*
X94000D03*
X99000Y160000D03*
X94000D03*
X104000Y125000D03*
Y130000D03*
X99000D03*
X94000D03*
X99000Y125000D03*
X94000D03*
X104000Y90000D03*
Y95000D03*
X99000D03*
X94000D03*
X99000Y90000D03*
X94000D03*
X104000Y55000D03*
Y60000D03*
X99000D03*
X94000D03*
X99000Y55000D03*
X94000D03*
X104000Y20000D03*
Y25000D03*
X99000D03*
X94000D03*
X99000Y20000D03*
X94000D03*
G54D59*X56500Y164900D03*
G54D60*X55000Y163400D02*X58000D01*
X55000Y159600D02*X58000D01*
G54D59*X56500Y158100D03*
Y129900D03*
G54D60*X55000Y128400D02*X58000D01*
X55000Y124600D02*X58000D01*
G54D59*X56500Y123100D03*
Y94900D03*
G54D60*X55000Y93400D02*X58000D01*
X55000Y89600D02*X58000D01*
G54D59*X56500Y88100D03*
Y59900D03*
G54D60*X55000Y58400D02*X58000D01*
X55000Y54600D02*X58000D01*
G54D59*X56500Y53100D03*
Y24900D03*
G54D60*X55000Y23400D02*X58000D01*
X55000Y19600D02*X58000D01*
G54D59*X56500Y18100D03*
M02*
