G04 start of page 10 for group -4078 idx -4078 *
G04 Title: (unknown), bottomsilk *
G04 Creator: pcb 20140316 *
G04 CreationDate: Thu 20 Aug 2020 02:40:32 AM GMT UTC *
G04 For: railfan *
G04 Format: Gerber/RS-274X *
G04 PCB-Dimensions (mil): 2400.00 4300.00 *
G04 PCB-Coordinate-Origin: lower left *
%MOIN*%
%FSLAX25Y25*%
%LNBOTTOMSILK*%
%ADD65C,0.0080*%
%ADD64C,0.0100*%
G54D64*X10500Y419500D02*X227000D01*
Y395500D02*X10500D01*
Y419500D02*Y395500D01*
Y384500D02*X227000D01*
Y360500D02*X10500D01*
Y384500D02*Y360500D01*
Y349500D02*X227000D01*
Y419500D02*Y395500D01*
Y384500D02*Y360500D01*
Y349500D02*Y325500D01*
X10500D01*
Y314500D02*X227000D01*
X10500D02*Y290500D01*
Y349500D02*Y325500D01*
X227000Y290500D02*X10500D01*
X227000Y314500D02*Y290500D01*
X10500Y279500D02*X227000D01*
Y255500D02*X10500D01*
X227000Y279500D02*Y255500D01*
X10500Y279500D02*Y255500D01*
Y244500D02*X227000D01*
Y220500D02*X10500D01*
Y244500D02*Y220500D01*
Y209500D02*X227000D01*
Y185500D02*X10500D01*
Y209500D02*Y185500D01*
X227000Y244500D02*Y220500D01*
Y209500D02*Y185500D01*
X10500Y174500D02*X227000D01*
Y150500D02*X10500D01*
Y174500D02*Y150500D01*
Y139500D02*X227000D01*
Y115500D02*X10500D01*
Y139500D02*Y115500D01*
X227000Y174500D02*Y150500D01*
Y139500D02*Y115500D01*
Y104500D02*Y80500D01*
Y34500D02*Y10500D01*
X10500Y104500D02*X227000D01*
Y69500D02*Y45500D01*
Y80500D02*X10500D01*
Y104500D02*Y80500D01*
Y69500D02*X227000D01*
Y45500D02*X10500D01*
Y69500D02*Y45500D01*
Y34500D02*X227000D01*
X10500D02*Y10500D01*
X227000D02*X10500D01*
G54D65*X219300Y376000D02*Y377500D01*
X221500Y375500D02*Y377500D01*
X217500D02*X221500D01*
X217500Y375500D02*Y377500D01*
X220000Y373800D02*X221500D01*
X220000D02*X219500Y373300D01*
Y372800D02*Y373300D01*
Y372800D02*X220000Y372300D01*
X221500D01*
X219500Y374300D02*X220000Y373800D01*
X219500Y369600D02*X220000Y369100D01*
X219500Y369600D02*Y370600D01*
X220000Y371100D02*X219500Y370600D01*
X220000Y371100D02*X221000D01*
X221500Y370600D01*
Y369600D02*Y370600D01*
Y369600D02*X221000Y369100D01*
X222500Y371100D02*X223000Y370600D01*
Y369600D02*Y370600D01*
Y369600D02*X222500Y369100D01*
X219500D02*X222500D01*
X221500Y367400D02*Y367900D01*
X219300Y341000D02*Y342500D01*
X221500Y340500D02*Y342500D01*
X217500D02*X221500D01*
X217500Y340500D02*Y342500D01*
X220000Y338800D02*X221500D01*
X220000D02*X219500Y338300D01*
Y337800D02*Y338300D01*
Y337800D02*X220000Y337300D01*
X221500D01*
X219500Y339300D02*X220000Y338800D01*
X219500Y334600D02*X220000Y334100D01*
X219500Y334600D02*Y335600D01*
X220000Y336100D02*X219500Y335600D01*
X220000Y336100D02*X221000D01*
X221500Y335600D01*
Y334600D02*Y335600D01*
Y334600D02*X221000Y334100D01*
X222500Y336100D02*X223000Y335600D01*
Y334600D02*Y335600D01*
Y334600D02*X222500Y334100D01*
X219500D02*X222500D01*
X221500Y332400D02*Y332900D01*
X219300Y306000D02*Y307500D01*
X221500Y305500D02*Y307500D01*
X217500D02*X221500D01*
X217500Y305500D02*Y307500D01*
X220000Y303800D02*X221500D01*
X220000D02*X219500Y303300D01*
Y302800D02*Y303300D01*
Y302800D02*X220000Y302300D01*
X221500D01*
X219500Y304300D02*X220000Y303800D01*
X219500Y299600D02*X220000Y299100D01*
X219500Y299600D02*Y300600D01*
X220000Y301100D02*X219500Y300600D01*
X220000Y301100D02*X221000D01*
X221500Y300600D01*
Y299600D02*Y300600D01*
Y299600D02*X221000Y299100D01*
X222500Y301100D02*X223000Y300600D01*
Y299600D02*Y300600D01*
Y299600D02*X222500Y299100D01*
X219500D02*X222500D01*
X221500Y297400D02*Y297900D01*
X219300Y271000D02*Y272500D01*
X221500Y270500D02*Y272500D01*
X217500D02*X221500D01*
X217500Y270500D02*Y272500D01*
X220000Y268800D02*X221500D01*
X220000D02*X219500Y268300D01*
Y267800D02*Y268300D01*
Y267800D02*X220000Y267300D01*
X221500D01*
X219500Y269300D02*X220000Y268800D01*
X219500Y264600D02*X220000Y264100D01*
X219500Y264600D02*Y265600D01*
X220000Y266100D02*X219500Y265600D01*
X220000Y266100D02*X221000D01*
X221500Y265600D01*
Y264600D02*Y265600D01*
Y264600D02*X221000Y264100D01*
X222500Y266100D02*X223000Y265600D01*
Y264600D02*Y265600D01*
Y264600D02*X222500Y264100D01*
X219500D02*X222500D01*
X221500Y262400D02*Y262900D01*
X211000Y379000D02*X211500Y378500D01*
X211000Y379000D02*Y380500D01*
X211500Y381000D02*X211000Y380500D01*
X211500Y381000D02*X212500D01*
X213000Y380500D01*
Y379000D02*Y380500D01*
Y379000D02*X213500Y378500D01*
X214500D01*
X215000Y379000D02*X214500Y378500D01*
X215000Y379000D02*Y380500D01*
X214500Y381000D02*X215000Y380500D01*
X213000Y375300D02*Y376800D01*
X213500Y377300D02*X213000Y376800D01*
X213500Y377300D02*X214500D01*
X215000Y376800D01*
Y375300D02*Y376800D01*
X213000Y372600D02*X213500Y372100D01*
X213000Y372600D02*Y373600D01*
X213500Y374100D02*X213000Y373600D01*
X213500Y374100D02*X214500D01*
X215000Y373600D01*
X213000Y372100D02*X214500D01*
X215000Y371600D01*
Y372600D02*Y373600D01*
Y372600D02*X214500Y372100D01*
X211000Y370400D02*X214500D01*
X215000Y369900D01*
Y366900D02*Y368400D01*
X214500Y368900D02*X215000Y368400D01*
X213500Y368900D02*X214500D01*
X213500D02*X213000Y368400D01*
Y367400D02*Y368400D01*
Y367400D02*X213500Y366900D01*
X214000D02*Y368900D01*
X213500Y366900D02*X214000D01*
X211000Y363700D02*X215000D01*
Y364200D02*X214500Y363700D01*
X215000Y364200D02*Y365200D01*
X214500Y365700D02*X215000Y365200D01*
X213500Y365700D02*X214500D01*
X213500D02*X213000Y365200D01*
Y364200D02*Y365200D01*
Y364200D02*X213500Y363700D01*
X211000Y344000D02*X211500Y343500D01*
X211000Y344000D02*Y345500D01*
X211500Y346000D02*X211000Y345500D01*
X211500Y346000D02*X212500D01*
X213000Y345500D01*
Y344000D02*Y345500D01*
Y344000D02*X213500Y343500D01*
X214500D01*
X215000Y344000D02*X214500Y343500D01*
X215000Y344000D02*Y345500D01*
X214500Y346000D02*X215000Y345500D01*
X213000Y340300D02*Y341800D01*
X213500Y342300D02*X213000Y341800D01*
X213500Y342300D02*X214500D01*
X215000Y341800D01*
Y340300D02*Y341800D01*
X213000Y337600D02*X213500Y337100D01*
X213000Y337600D02*Y338600D01*
X213500Y339100D02*X213000Y338600D01*
X213500Y339100D02*X214500D01*
X215000Y338600D01*
X213000Y337100D02*X214500D01*
X215000Y336600D01*
Y337600D02*Y338600D01*
Y337600D02*X214500Y337100D01*
X211000Y335400D02*X214500D01*
X215000Y334900D01*
Y331900D02*Y333400D01*
X214500Y333900D02*X215000Y333400D01*
X213500Y333900D02*X214500D01*
X213500D02*X213000Y333400D01*
Y332400D02*Y333400D01*
Y332400D02*X213500Y331900D01*
X214000D02*Y333900D01*
X213500Y331900D02*X214000D01*
X211000Y328700D02*X215000D01*
Y329200D02*X214500Y328700D01*
X215000Y329200D02*Y330200D01*
X214500Y330700D02*X215000Y330200D01*
X213500Y330700D02*X214500D01*
X213500D02*X213000Y330200D01*
Y329200D02*Y330200D01*
Y329200D02*X213500Y328700D01*
X204500Y342500D02*Y343500D01*
Y343000D02*X208500D01*
Y342500D02*Y343500D01*
X207000Y341300D02*X208000D01*
X207000D02*X206500Y340800D01*
Y339800D02*Y340800D01*
Y339800D02*X207000Y339300D01*
X208000D01*
X208500Y339800D02*X208000Y339300D01*
X208500Y339800D02*Y340800D01*
X208000Y341300D02*X208500Y340800D01*
X206500Y338100D02*X208000D01*
X208500Y337600D01*
Y337100D02*Y337600D01*
Y337100D02*X208000Y336600D01*
X206500D02*X208000D01*
X208500Y336100D01*
Y335600D02*Y336100D01*
Y335600D02*X208000Y335100D01*
X206500D02*X208000D01*
X206500Y332400D02*X207000Y331900D01*
X206500Y332400D02*Y333400D01*
X207000Y333900D02*X206500Y333400D01*
X207000Y333900D02*X208000D01*
X208500Y333400D01*
X206500Y331900D02*X208000D01*
X208500Y331400D01*
Y332400D02*Y333400D01*
Y332400D02*X208000Y331900D01*
X211000Y309000D02*X211500Y308500D01*
X211000Y309000D02*Y310500D01*
X211500Y311000D02*X211000Y310500D01*
X211500Y311000D02*X212500D01*
X213000Y310500D01*
Y309000D02*Y310500D01*
Y309000D02*X213500Y308500D01*
X214500D01*
X215000Y309000D02*X214500Y308500D01*
X215000Y309000D02*Y310500D01*
X214500Y311000D02*X215000Y310500D01*
X213000Y305300D02*Y306800D01*
X213500Y307300D02*X213000Y306800D01*
X213500Y307300D02*X214500D01*
X215000Y306800D01*
Y305300D02*Y306800D01*
X213000Y302600D02*X213500Y302100D01*
X213000Y302600D02*Y303600D01*
X213500Y304100D02*X213000Y303600D01*
X213500Y304100D02*X214500D01*
X215000Y303600D01*
X213000Y302100D02*X214500D01*
X215000Y301600D01*
Y302600D02*Y303600D01*
Y302600D02*X214500Y302100D01*
X211000Y300400D02*X214500D01*
X215000Y299900D01*
Y296900D02*Y298400D01*
X214500Y298900D02*X215000Y298400D01*
X213500Y298900D02*X214500D01*
X213500D02*X213000Y298400D01*
Y297400D02*Y298400D01*
Y297400D02*X213500Y296900D01*
X214000D02*Y298900D01*
X213500Y296900D02*X214000D01*
X211000Y293700D02*X215000D01*
Y294200D02*X214500Y293700D01*
X215000Y294200D02*Y295200D01*
X214500Y295700D02*X215000Y295200D01*
X213500Y295700D02*X214500D01*
X213500D02*X213000Y295200D01*
Y294200D02*Y295200D01*
Y294200D02*X213500Y293700D01*
X204500Y307500D02*Y308500D01*
Y308000D02*X208500D01*
Y307500D02*Y308500D01*
X207000Y306300D02*X208000D01*
X207000D02*X206500Y305800D01*
Y304800D02*Y305800D01*
Y304800D02*X207000Y304300D01*
X208000D01*
X208500Y304800D02*X208000Y304300D01*
X208500Y304800D02*Y305800D01*
X208000Y306300D02*X208500Y305800D01*
X206500Y303100D02*X208000D01*
X208500Y302600D01*
Y302100D02*Y302600D01*
Y302100D02*X208000Y301600D01*
X206500D02*X208000D01*
X208500Y301100D01*
Y300600D02*Y301100D01*
Y300600D02*X208000Y300100D01*
X206500D02*X208000D01*
X206500Y297400D02*X207000Y296900D01*
X206500Y297400D02*Y298400D01*
X207000Y298900D02*X206500Y298400D01*
X207000Y298900D02*X208000D01*
X208500Y298400D01*
X206500Y296900D02*X208000D01*
X208500Y296400D01*
Y297400D02*Y298400D01*
Y297400D02*X208000Y296900D01*
X211000Y274000D02*X211500Y273500D01*
X211000Y274000D02*Y275500D01*
X211500Y276000D02*X211000Y275500D01*
X211500Y276000D02*X212500D01*
X213000Y275500D01*
Y274000D02*Y275500D01*
Y274000D02*X213500Y273500D01*
X214500D01*
X215000Y274000D02*X214500Y273500D01*
X215000Y274000D02*Y275500D01*
X214500Y276000D02*X215000Y275500D01*
X213000Y270300D02*Y271800D01*
X213500Y272300D02*X213000Y271800D01*
X213500Y272300D02*X214500D01*
X215000Y271800D01*
Y270300D02*Y271800D01*
X213000Y267600D02*X213500Y267100D01*
X213000Y267600D02*Y268600D01*
X213500Y269100D02*X213000Y268600D01*
X213500Y269100D02*X214500D01*
X215000Y268600D01*
X213000Y267100D02*X214500D01*
X215000Y266600D01*
Y267600D02*Y268600D01*
Y267600D02*X214500Y267100D01*
X211000Y265400D02*X214500D01*
X215000Y264900D01*
Y261900D02*Y263400D01*
X214500Y263900D02*X215000Y263400D01*
X213500Y263900D02*X214500D01*
X213500D02*X213000Y263400D01*
Y262400D02*Y263400D01*
Y262400D02*X213500Y261900D01*
X214000D02*Y263900D01*
X213500Y261900D02*X214000D01*
X211000Y258700D02*X215000D01*
Y259200D02*X214500Y258700D01*
X215000Y259200D02*Y260200D01*
X214500Y260700D02*X215000Y260200D01*
X213500Y260700D02*X214500D01*
X213500D02*X213000Y260200D01*
Y259200D02*Y260200D01*
Y259200D02*X213500Y258700D01*
X204500Y272500D02*Y273500D01*
Y273000D02*X208500D01*
Y272500D02*Y273500D01*
X207000Y271300D02*X208000D01*
X207000D02*X206500Y270800D01*
Y269800D02*Y270800D01*
Y269800D02*X207000Y269300D01*
X208000D01*
X208500Y269800D02*X208000Y269300D01*
X208500Y269800D02*Y270800D01*
X208000Y271300D02*X208500Y270800D01*
X206500Y268100D02*X208000D01*
X208500Y267600D01*
Y267100D02*Y267600D01*
Y267100D02*X208000Y266600D01*
X206500D02*X208000D01*
X208500Y266100D01*
Y265600D02*Y266100D01*
Y265600D02*X208000Y265100D01*
X206500D02*X208000D01*
X206500Y262400D02*X207000Y261900D01*
X206500Y262400D02*Y263400D01*
X207000Y263900D02*X206500Y263400D01*
X207000Y263900D02*X208000D01*
X208500Y263400D01*
X206500Y261900D02*X208000D01*
X208500Y261400D01*
Y262400D02*Y263400D01*
Y262400D02*X208000Y261900D01*
X191200Y230000D02*X192370D01*
X193000Y230630D02*X192370Y230000D01*
X193000Y230630D02*Y232970D01*
X192370Y233600D01*
X191200D02*X192370D01*
X190120Y230000D02*Y233600D01*
Y231800D02*X188320Y233600D01*
X190120Y231800D02*X188320Y230000D01*
X185440Y233600D02*X187240D01*
X186340Y230000D02*Y233600D01*
X182560Y231800D02*X184360D01*
X180580Y233600D02*X181480D01*
X181030Y230000D02*Y233600D01*
X180580Y230000D02*X181480D01*
X177700Y233600D02*X179500D01*
X177700D02*X177250Y233150D01*
Y232250D02*Y233150D01*
X177700Y231800D02*X177250Y232250D01*
X177700Y231800D02*X179050D01*
Y230000D02*Y233600D01*
X178330Y231800D02*X177250Y230000D01*
X174370Y233600D02*X173920Y233150D01*
X174370Y233600D02*X175720D01*
X176170Y233150D02*X175720Y233600D01*
X176170Y232250D02*Y233150D01*
Y232250D02*X175720Y231800D01*
X174370D02*X175720D01*
X174370D02*X173920Y231350D01*
Y230450D02*Y231350D01*
X174370Y230000D02*X173920Y230450D01*
X174370Y230000D02*X175720D01*
X176170Y230450D02*X175720Y230000D01*
X171490Y231980D02*X172840D01*
X171040Y230000D02*X172840D01*
Y233600D01*
X171040D02*X172840D01*
X169960Y230000D02*Y233600D01*
X167710Y230000D01*
Y233600D01*
X164830D02*X164380Y233150D01*
X164830Y233600D02*X166180D01*
X166630Y233150D02*X166180Y233600D01*
X166630Y232250D02*Y233150D01*
Y232250D02*X166180Y231800D01*
X164830D02*X166180D01*
X164830D02*X164380Y231350D01*
Y230450D02*Y231350D01*
X164830Y230000D02*X164380Y230450D01*
X164830Y230000D02*X166180D01*
X166630Y230450D02*X166180Y230000D01*
X161950Y231980D02*X163300D01*
X161500Y230000D02*X163300D01*
Y233600D01*
X161500D02*X163300D01*
X158620Y231800D02*X160420D01*
X155740Y233600D02*X157540D01*
X155740D02*X155290Y233150D01*
Y232250D02*Y233150D01*
X155740Y231800D02*X155290Y232250D01*
X155740Y231800D02*X157090D01*
Y230000D02*Y233600D01*
X156370Y231800D02*X155290Y230000D01*
X154210D02*Y232700D01*
X153580Y233600D01*
X152590D02*X153580D01*
X152590D02*X151960Y232700D01*
Y230000D02*Y232700D01*
Y231800D02*X154210D01*
X149260D02*X148360Y230000D01*
X147460Y231800D02*X148360Y230000D01*
X146380Y231350D02*X144580Y233600D01*
X144130Y231350D02*X146380D01*
X144580Y230000D02*Y233600D01*
X142600Y230000D02*X143050D01*
X141520Y232880D02*X140800Y233600D01*
Y230000D02*Y233600D01*
X140170Y230000D02*X141520D01*
X159000Y223900D02*X158600Y223500D01*
X159000Y226300D02*X158600Y226700D01*
X159000Y223900D02*Y226300D01*
X156040Y223500D02*X157080D01*
X157640Y224060D02*X157080Y223500D01*
X157640Y224060D02*Y226140D01*
X157080Y226700D01*
X156040D02*X157080D01*
X155080D02*X154680Y226300D01*
Y223900D02*Y226300D01*
X155080Y223500D02*X154680Y223900D01*
X153720Y226300D02*X153320Y226700D01*
X152120D02*X153320D01*
X152120D02*X151720Y226300D01*
Y225500D02*Y226300D01*
X153720Y223500D02*X151720Y225500D01*
Y223500D02*X153720D01*
X150760Y223900D02*X150360Y223500D01*
X150760Y223900D02*Y226300D01*
X150360Y226700D01*
X149560D02*X150360D01*
X149560D02*X149160Y226300D01*
Y223900D02*Y226300D01*
X149560Y223500D02*X149160Y223900D01*
X149560Y223500D02*X150360D01*
X150760Y224300D02*X149160Y225900D01*
X148200Y226300D02*X147800Y226700D01*
X146600D02*X147800D01*
X146600D02*X146200Y226300D01*
Y225500D02*Y226300D01*
X148200Y223500D02*X146200Y225500D01*
Y223500D02*X148200D01*
X145240Y223900D02*X144840Y223500D01*
X145240Y223900D02*Y226300D01*
X144840Y226700D01*
X144040D02*X144840D01*
X144040D02*X143640Y226300D01*
Y223900D02*Y226300D01*
X144040Y223500D02*X143640Y223900D01*
X144040Y223500D02*X144840D01*
X145240Y224300D02*X143640Y225900D01*
X183900Y223500D02*X184940D01*
X185500Y224060D02*X184940Y223500D01*
X185500Y224060D02*Y226140D01*
X184940Y226700D01*
X183900D02*X184940D01*
X181340Y223500D02*X182380D01*
X182940Y224060D02*X182380Y223500D01*
X182940Y224060D02*Y226140D01*
X182380Y226700D01*
X181340D02*X182380D01*
X178780Y225100D02*X180380D01*
X176220Y223500D02*X177820D01*
X176220D02*X175820Y223900D01*
Y224860D01*
X176220Y225260D02*X175820Y224860D01*
X176220Y225260D02*X177420D01*
Y223500D02*Y226700D01*
X176220D02*X177820D01*
X176220D02*X175820Y226300D01*
Y225660D02*Y226300D01*
X176220Y225260D02*X175820Y225660D01*
X174860Y226700D02*X174060Y225100D01*
X173260Y226700D01*
X174060Y223500D02*Y225100D01*
X170700D02*X172300D01*
X168140Y226700D02*X167740Y226300D01*
X168140Y226700D02*X169340D01*
X169740Y226300D02*X169340Y226700D01*
X169740Y225500D02*Y226300D01*
Y225500D02*X169340Y225100D01*
X168140D02*X169340D01*
X168140D02*X167740Y224700D01*
Y223900D02*Y224700D01*
X168140Y223500D02*X167740Y223900D01*
X168140Y223500D02*X169340D01*
X169740Y223900D02*X169340Y223500D01*
X166780D02*Y225900D01*
X166220Y226700D01*
X165340D02*X166220D01*
X165340D02*X164780Y225900D01*
Y223500D02*Y225900D01*
Y225100D02*X166780D01*
X181217Y206380D02*X183457D01*
X182337Y201900D02*Y206380D01*
X179313Y201900D02*Y203580D01*
X178753Y204140D01*
X177633D02*X178753D01*
X179873D02*X179313Y203580D01*
X174609Y204140D02*X174049Y203580D01*
X174609Y204140D02*X175729D01*
X176289Y203580D02*X175729Y204140D01*
X176289Y202460D02*Y203580D01*
Y202460D02*X175729Y201900D01*
X174049Y202460D02*Y204140D01*
Y202460D02*X173489Y201900D01*
X174609D02*X175729D01*
X174609D02*X174049Y202460D01*
X172145Y205148D02*Y205260D01*
Y201900D02*Y203580D01*
X170465Y201900D02*Y203580D01*
X169905Y204140D01*
X169345D02*X169905D01*
X169345D02*X168785Y203580D01*
Y201900D02*Y203580D01*
X171025Y204140D02*X170465Y203580D01*
X165201Y206380D02*X164641Y205820D01*
X165201Y206380D02*X166881D01*
X167441Y205820D02*X166881Y206380D01*
X167441Y204700D02*Y205820D01*
Y204700D02*X166881Y204140D01*
X165201D02*X166881D01*
X165201D02*X164641Y203580D01*
Y202460D02*Y203580D01*
X165201Y201900D02*X164641Y202460D01*
X165201Y201900D02*X166881D01*
X167441Y202460D02*X166881Y201900D01*
X162737Y200220D02*Y203580D01*
X163297Y204140D02*X162737Y203580D01*
X162177Y204140D01*
X161057D02*X162177D01*
X161057D02*X160497Y203580D01*
Y202460D02*Y203580D01*
X161057Y201900D02*X160497Y202460D01*
X161057Y201900D02*X162177D01*
X162737Y202460D02*X162177Y201900D01*
X159153Y202460D02*Y203580D01*
X158593Y204140D01*
X157473D02*X158593D01*
X157473D02*X156913Y203580D01*
Y202460D02*Y203580D01*
X157473Y201900D02*X156913Y202460D01*
X157473Y201900D02*X158593D01*
X159153Y202460D02*X158593Y201900D01*
X155009Y202460D02*Y206380D01*
Y202460D02*X154449Y201900D01*
Y204700D02*X155569D01*
X152769Y202460D02*Y206380D01*
Y202460D02*X152209Y201900D01*
Y204700D02*X153329D01*
X148849Y201900D02*X150529D01*
X151089Y202460D02*X150529Y201900D01*
X151089Y202460D02*Y203580D01*
X150529Y204140D01*
X149409D02*X150529D01*
X149409D02*X148849Y203580D01*
Y203020D02*X151089D01*
X148849D02*Y203580D01*
X146945Y201900D02*Y203580D01*
X146385Y204140D01*
X145265D02*X146385D01*
X147505D02*X146945Y203580D01*
X191200Y195000D02*X192370D01*
X193000Y195630D02*X192370Y195000D01*
X193000Y195630D02*Y197970D01*
X192370Y198600D01*
X191200D02*X192370D01*
X190120Y195000D02*Y198600D01*
Y196800D02*X188320Y198600D01*
X190120Y196800D02*X188320Y195000D01*
X185440Y198600D02*X187240D01*
X186340Y195000D02*Y198600D01*
X182560Y196800D02*X184360D01*
X180580Y198600D02*X181480D01*
X181030Y195000D02*Y198600D01*
X180580Y195000D02*X181480D01*
X177700Y198600D02*X179500D01*
X177700D02*X177250Y198150D01*
Y197250D02*Y198150D01*
X177700Y196800D02*X177250Y197250D01*
X177700Y196800D02*X179050D01*
Y195000D02*Y198600D01*
X178330Y196800D02*X177250Y195000D01*
X174370Y198600D02*X173920Y198150D01*
X174370Y198600D02*X175720D01*
X176170Y198150D02*X175720Y198600D01*
X176170Y197250D02*Y198150D01*
Y197250D02*X175720Y196800D01*
X174370D02*X175720D01*
X174370D02*X173920Y196350D01*
Y195450D02*Y196350D01*
X174370Y195000D02*X173920Y195450D01*
X174370Y195000D02*X175720D01*
X176170Y195450D02*X175720Y195000D01*
X171490Y196980D02*X172840D01*
X171040Y195000D02*X172840D01*
Y198600D01*
X171040D02*X172840D01*
X169960Y195000D02*Y198600D01*
X167710Y195000D01*
Y198600D01*
X164830D02*X164380Y198150D01*
X164830Y198600D02*X166180D01*
X166630Y198150D02*X166180Y198600D01*
X166630Y197250D02*Y198150D01*
Y197250D02*X166180Y196800D01*
X164830D02*X166180D01*
X164830D02*X164380Y196350D01*
Y195450D02*Y196350D01*
X164830Y195000D02*X164380Y195450D01*
X164830Y195000D02*X166180D01*
X166630Y195450D02*X166180Y195000D01*
X161950Y196980D02*X163300D01*
X161500Y195000D02*X163300D01*
Y198600D01*
X161500D02*X163300D01*
X158620Y196800D02*X160420D01*
X155740Y198600D02*X157540D01*
X155740D02*X155290Y198150D01*
Y197250D02*Y198150D01*
X155740Y196800D02*X155290Y197250D01*
X155740Y196800D02*X157090D01*
Y195000D02*Y198600D01*
X156370Y196800D02*X155290Y195000D01*
X154210D02*Y197700D01*
X153580Y198600D01*
X152590D02*X153580D01*
X152590D02*X151960Y197700D01*
Y195000D02*Y197700D01*
Y196800D02*X154210D01*
X149260D02*X148360Y195000D01*
X147460Y196800D02*X148360Y195000D01*
X146380Y196350D02*X144580Y198600D01*
X144130Y196350D02*X146380D01*
X144580Y195000D02*Y198600D01*
X142600Y195000D02*X143050D01*
X141520Y197880D02*X140800Y198600D01*
Y195000D02*Y198600D01*
X140170Y195000D02*X141520D01*
X159000Y188900D02*X158600Y188500D01*
X159000Y191300D02*X158600Y191700D01*
X159000Y188900D02*Y191300D01*
X156040Y188500D02*X157080D01*
X157640Y189060D02*X157080Y188500D01*
X157640Y189060D02*Y191140D01*
X157080Y191700D01*
X156040D02*X157080D01*
X155080D02*X154680Y191300D01*
Y188900D02*Y191300D01*
X155080Y188500D02*X154680Y188900D01*
X153720Y191300D02*X153320Y191700D01*
X152120D02*X153320D01*
X152120D02*X151720Y191300D01*
Y190500D02*Y191300D01*
X153720Y188500D02*X151720Y190500D01*
Y188500D02*X153720D01*
X150760Y188900D02*X150360Y188500D01*
X150760Y188900D02*Y191300D01*
X150360Y191700D01*
X149560D02*X150360D01*
X149560D02*X149160Y191300D01*
Y188900D02*Y191300D01*
X149560Y188500D02*X149160Y188900D01*
X149560Y188500D02*X150360D01*
X150760Y189300D02*X149160Y190900D01*
X148200Y191300D02*X147800Y191700D01*
X146600D02*X147800D01*
X146600D02*X146200Y191300D01*
Y190500D02*Y191300D01*
X148200Y188500D02*X146200Y190500D01*
Y188500D02*X148200D01*
X145240Y188900D02*X144840Y188500D01*
X145240Y188900D02*Y191300D01*
X144840Y191700D01*
X144040D02*X144840D01*
X144040D02*X143640Y191300D01*
Y188900D02*Y191300D01*
X144040Y188500D02*X143640Y188900D01*
X144040Y188500D02*X144840D01*
X145240Y189300D02*X143640Y190900D01*
X183900Y188500D02*X184940D01*
X185500Y189060D02*X184940Y188500D01*
X185500Y189060D02*Y191140D01*
X184940Y191700D01*
X183900D02*X184940D01*
X181340Y188500D02*X182380D01*
X182940Y189060D02*X182380Y188500D01*
X182940Y189060D02*Y191140D01*
X182380Y191700D01*
X181340D02*X182380D01*
X178780Y190100D02*X180380D01*
X176220Y188500D02*X177820D01*
X176220D02*X175820Y188900D01*
Y189860D01*
X176220Y190260D02*X175820Y189860D01*
X176220Y190260D02*X177420D01*
Y188500D02*Y191700D01*
X176220D02*X177820D01*
X176220D02*X175820Y191300D01*
Y190660D02*Y191300D01*
X176220Y190260D02*X175820Y190660D01*
X174860Y191700D02*X174060Y190100D01*
X173260Y191700D01*
X174060Y188500D02*Y190100D01*
X170700D02*X172300D01*
X168140Y191700D02*X167740Y191300D01*
X168140Y191700D02*X169340D01*
X169740Y191300D02*X169340Y191700D01*
X169740Y190500D02*Y191300D01*
Y190500D02*X169340Y190100D01*
X168140D02*X169340D01*
X168140D02*X167740Y189700D01*
Y188900D02*Y189700D01*
X168140Y188500D02*X167740Y188900D01*
X168140Y188500D02*X169340D01*
X169740Y188900D02*X169340Y188500D01*
X166780D02*Y190900D01*
X166220Y191700D01*
X165340D02*X166220D01*
X165340D02*X164780Y190900D01*
Y188500D02*Y190900D01*
Y190100D02*X166780D01*
X181217Y171380D02*X183457D01*
X182337Y166900D02*Y171380D01*
X179313Y166900D02*Y168580D01*
X178753Y169140D01*
X177633D02*X178753D01*
X179873D02*X179313Y168580D01*
X174609Y169140D02*X174049Y168580D01*
X174609Y169140D02*X175729D01*
X176289Y168580D02*X175729Y169140D01*
X176289Y167460D02*Y168580D01*
Y167460D02*X175729Y166900D01*
X174049Y167460D02*Y169140D01*
Y167460D02*X173489Y166900D01*
X174609D02*X175729D01*
X174609D02*X174049Y167460D01*
X172145Y170148D02*Y170260D01*
Y166900D02*Y168580D01*
X170465Y166900D02*Y168580D01*
X169905Y169140D01*
X169345D02*X169905D01*
X169345D02*X168785Y168580D01*
Y166900D02*Y168580D01*
X171025Y169140D02*X170465Y168580D01*
X165201Y171380D02*X164641Y170820D01*
X165201Y171380D02*X166881D01*
X167441Y170820D02*X166881Y171380D01*
X167441Y169700D02*Y170820D01*
Y169700D02*X166881Y169140D01*
X165201D02*X166881D01*
X165201D02*X164641Y168580D01*
Y167460D02*Y168580D01*
X165201Y166900D02*X164641Y167460D01*
X165201Y166900D02*X166881D01*
X167441Y167460D02*X166881Y166900D01*
X162737Y165220D02*Y168580D01*
X163297Y169140D02*X162737Y168580D01*
X162177Y169140D01*
X161057D02*X162177D01*
X161057D02*X160497Y168580D01*
Y167460D02*Y168580D01*
X161057Y166900D02*X160497Y167460D01*
X161057Y166900D02*X162177D01*
X162737Y167460D02*X162177Y166900D01*
X159153Y167460D02*Y168580D01*
X158593Y169140D01*
X157473D02*X158593D01*
X157473D02*X156913Y168580D01*
Y167460D02*Y168580D01*
X157473Y166900D02*X156913Y167460D01*
X157473Y166900D02*X158593D01*
X159153Y167460D02*X158593Y166900D01*
X155009Y167460D02*Y171380D01*
Y167460D02*X154449Y166900D01*
Y169700D02*X155569D01*
X152769Y167460D02*Y171380D01*
Y167460D02*X152209Y166900D01*
Y169700D02*X153329D01*
X148849Y166900D02*X150529D01*
X151089Y167460D02*X150529Y166900D01*
X151089Y167460D02*Y168580D01*
X150529Y169140D01*
X149409D02*X150529D01*
X149409D02*X148849Y168580D01*
Y168020D02*X151089D01*
X148849D02*Y168580D01*
X146945Y166900D02*Y168580D01*
X146385Y169140D01*
X145265D02*X146385D01*
X147505D02*X146945Y168580D01*
X191200Y160000D02*X192370D01*
X193000Y160630D02*X192370Y160000D01*
X193000Y160630D02*Y162970D01*
X192370Y163600D01*
X191200D02*X192370D01*
X190120Y160000D02*Y163600D01*
Y161800D02*X188320Y163600D01*
X190120Y161800D02*X188320Y160000D01*
X185440Y163600D02*X187240D01*
X186340Y160000D02*Y163600D01*
X182560Y161800D02*X184360D01*
X180580Y163600D02*X181480D01*
X181030Y160000D02*Y163600D01*
X180580Y160000D02*X181480D01*
X177700Y163600D02*X179500D01*
X177700D02*X177250Y163150D01*
Y162250D02*Y163150D01*
X177700Y161800D02*X177250Y162250D01*
X177700Y161800D02*X179050D01*
Y160000D02*Y163600D01*
X178330Y161800D02*X177250Y160000D01*
X174370Y163600D02*X173920Y163150D01*
X174370Y163600D02*X175720D01*
X176170Y163150D02*X175720Y163600D01*
X176170Y162250D02*Y163150D01*
Y162250D02*X175720Y161800D01*
X174370D02*X175720D01*
X174370D02*X173920Y161350D01*
Y160450D02*Y161350D01*
X174370Y160000D02*X173920Y160450D01*
X174370Y160000D02*X175720D01*
X176170Y160450D02*X175720Y160000D01*
X171490Y161980D02*X172840D01*
X171040Y160000D02*X172840D01*
Y163600D01*
X171040D02*X172840D01*
X169960Y160000D02*Y163600D01*
X167710Y160000D01*
Y163600D01*
X164830D02*X164380Y163150D01*
X164830Y163600D02*X166180D01*
X166630Y163150D02*X166180Y163600D01*
X166630Y162250D02*Y163150D01*
Y162250D02*X166180Y161800D01*
X164830D02*X166180D01*
X164830D02*X164380Y161350D01*
Y160450D02*Y161350D01*
X164830Y160000D02*X164380Y160450D01*
X164830Y160000D02*X166180D01*
X166630Y160450D02*X166180Y160000D01*
X161950Y161980D02*X163300D01*
X161500Y160000D02*X163300D01*
Y163600D01*
X161500D02*X163300D01*
X158620Y161800D02*X160420D01*
X155740Y163600D02*X157540D01*
X155740D02*X155290Y163150D01*
Y162250D02*Y163150D01*
X155740Y161800D02*X155290Y162250D01*
X155740Y161800D02*X157090D01*
Y160000D02*Y163600D01*
X156370Y161800D02*X155290Y160000D01*
X154210D02*Y162700D01*
X153580Y163600D01*
X152590D02*X153580D01*
X152590D02*X151960Y162700D01*
Y160000D02*Y162700D01*
Y161800D02*X154210D01*
X149260D02*X148360Y160000D01*
X147460Y161800D02*X148360Y160000D01*
X146380Y161350D02*X144580Y163600D01*
X144130Y161350D02*X146380D01*
X144580Y160000D02*Y163600D01*
X142600Y160000D02*X143050D01*
X141520Y162880D02*X140800Y163600D01*
Y160000D02*Y163600D01*
X140170Y160000D02*X141520D01*
X159000Y153900D02*X158600Y153500D01*
X159000Y156300D02*X158600Y156700D01*
X159000Y153900D02*Y156300D01*
X156040Y153500D02*X157080D01*
X157640Y154060D02*X157080Y153500D01*
X157640Y154060D02*Y156140D01*
X157080Y156700D01*
X156040D02*X157080D01*
X155080D02*X154680Y156300D01*
Y153900D02*Y156300D01*
X155080Y153500D02*X154680Y153900D01*
X153720Y156300D02*X153320Y156700D01*
X152120D02*X153320D01*
X152120D02*X151720Y156300D01*
Y155500D02*Y156300D01*
X153720Y153500D02*X151720Y155500D01*
Y153500D02*X153720D01*
X150760Y153900D02*X150360Y153500D01*
X150760Y153900D02*Y156300D01*
X150360Y156700D01*
X149560D02*X150360D01*
X149560D02*X149160Y156300D01*
Y153900D02*Y156300D01*
X149560Y153500D02*X149160Y153900D01*
X149560Y153500D02*X150360D01*
X150760Y154300D02*X149160Y155900D01*
X148200Y156300D02*X147800Y156700D01*
X146600D02*X147800D01*
X146600D02*X146200Y156300D01*
Y155500D02*Y156300D01*
X148200Y153500D02*X146200Y155500D01*
Y153500D02*X148200D01*
X145240Y153900D02*X144840Y153500D01*
X145240Y153900D02*Y156300D01*
X144840Y156700D01*
X144040D02*X144840D01*
X144040D02*X143640Y156300D01*
Y153900D02*Y156300D01*
X144040Y153500D02*X143640Y153900D01*
X144040Y153500D02*X144840D01*
X145240Y154300D02*X143640Y155900D01*
X183900Y153500D02*X184940D01*
X185500Y154060D02*X184940Y153500D01*
X185500Y154060D02*Y156140D01*
X184940Y156700D01*
X183900D02*X184940D01*
X181340Y153500D02*X182380D01*
X182940Y154060D02*X182380Y153500D01*
X182940Y154060D02*Y156140D01*
X182380Y156700D01*
X181340D02*X182380D01*
X178780Y155100D02*X180380D01*
X176220Y153500D02*X177820D01*
X176220D02*X175820Y153900D01*
Y154860D01*
X176220Y155260D02*X175820Y154860D01*
X176220Y155260D02*X177420D01*
Y153500D02*Y156700D01*
X176220D02*X177820D01*
X176220D02*X175820Y156300D01*
Y155660D02*Y156300D01*
X176220Y155260D02*X175820Y155660D01*
X174860Y156700D02*X174060Y155100D01*
X173260Y156700D01*
X174060Y153500D02*Y155100D01*
X170700D02*X172300D01*
X168140Y156700D02*X167740Y156300D01*
X168140Y156700D02*X169340D01*
X169740Y156300D02*X169340Y156700D01*
X169740Y155500D02*Y156300D01*
Y155500D02*X169340Y155100D01*
X168140D02*X169340D01*
X168140D02*X167740Y154700D01*
Y153900D02*Y154700D01*
X168140Y153500D02*X167740Y153900D01*
X168140Y153500D02*X169340D01*
X169740Y153900D02*X169340Y153500D01*
X166780D02*Y155900D01*
X166220Y156700D01*
X165340D02*X166220D01*
X165340D02*X164780Y155900D01*
Y153500D02*Y155900D01*
Y155100D02*X166780D01*
X181217Y136380D02*X183457D01*
X182337Y131900D02*Y136380D01*
X179313Y131900D02*Y133580D01*
X178753Y134140D01*
X177633D02*X178753D01*
X179873D02*X179313Y133580D01*
X174609Y134140D02*X174049Y133580D01*
X174609Y134140D02*X175729D01*
X176289Y133580D02*X175729Y134140D01*
X176289Y132460D02*Y133580D01*
Y132460D02*X175729Y131900D01*
X174049Y132460D02*Y134140D01*
Y132460D02*X173489Y131900D01*
X174609D02*X175729D01*
X174609D02*X174049Y132460D01*
X172145Y135148D02*Y135260D01*
Y131900D02*Y133580D01*
X170465Y131900D02*Y133580D01*
X169905Y134140D01*
X169345D02*X169905D01*
X169345D02*X168785Y133580D01*
Y131900D02*Y133580D01*
X171025Y134140D02*X170465Y133580D01*
X165201Y136380D02*X164641Y135820D01*
X165201Y136380D02*X166881D01*
X167441Y135820D02*X166881Y136380D01*
X167441Y134700D02*Y135820D01*
Y134700D02*X166881Y134140D01*
X165201D02*X166881D01*
X165201D02*X164641Y133580D01*
Y132460D02*Y133580D01*
X165201Y131900D02*X164641Y132460D01*
X165201Y131900D02*X166881D01*
X167441Y132460D02*X166881Y131900D01*
X162737Y130220D02*Y133580D01*
X163297Y134140D02*X162737Y133580D01*
X162177Y134140D01*
X161057D02*X162177D01*
X161057D02*X160497Y133580D01*
Y132460D02*Y133580D01*
X161057Y131900D02*X160497Y132460D01*
X161057Y131900D02*X162177D01*
X162737Y132460D02*X162177Y131900D01*
X159153Y132460D02*Y133580D01*
X158593Y134140D01*
X157473D02*X158593D01*
X157473D02*X156913Y133580D01*
Y132460D02*Y133580D01*
X157473Y131900D02*X156913Y132460D01*
X157473Y131900D02*X158593D01*
X159153Y132460D02*X158593Y131900D01*
X155009Y132460D02*Y136380D01*
Y132460D02*X154449Y131900D01*
Y134700D02*X155569D01*
X152769Y132460D02*Y136380D01*
Y132460D02*X152209Y131900D01*
Y134700D02*X153329D01*
X148849Y131900D02*X150529D01*
X151089Y132460D02*X150529Y131900D01*
X151089Y132460D02*Y133580D01*
X150529Y134140D01*
X149409D02*X150529D01*
X149409D02*X148849Y133580D01*
Y133020D02*X151089D01*
X148849D02*Y133580D01*
X146945Y131900D02*Y133580D01*
X146385Y134140D01*
X145265D02*X146385D01*
X147505D02*X146945Y133580D01*
X191200Y125000D02*X192370D01*
X193000Y125630D02*X192370Y125000D01*
X193000Y125630D02*Y127970D01*
X192370Y128600D01*
X191200D02*X192370D01*
X190120Y125000D02*Y128600D01*
Y126800D02*X188320Y128600D01*
X190120Y126800D02*X188320Y125000D01*
X185440Y128600D02*X187240D01*
X186340Y125000D02*Y128600D01*
X182560Y126800D02*X184360D01*
X180580Y128600D02*X181480D01*
X181030Y125000D02*Y128600D01*
X180580Y125000D02*X181480D01*
X177700Y128600D02*X179500D01*
X177700D02*X177250Y128150D01*
Y127250D02*Y128150D01*
X177700Y126800D02*X177250Y127250D01*
X177700Y126800D02*X179050D01*
Y125000D02*Y128600D01*
X178330Y126800D02*X177250Y125000D01*
X174370Y128600D02*X173920Y128150D01*
X174370Y128600D02*X175720D01*
X176170Y128150D02*X175720Y128600D01*
X176170Y127250D02*Y128150D01*
Y127250D02*X175720Y126800D01*
X174370D02*X175720D01*
X174370D02*X173920Y126350D01*
Y125450D02*Y126350D01*
X174370Y125000D02*X173920Y125450D01*
X174370Y125000D02*X175720D01*
X176170Y125450D02*X175720Y125000D01*
X171490Y126980D02*X172840D01*
X171040Y125000D02*X172840D01*
Y128600D01*
X171040D02*X172840D01*
X169960Y125000D02*Y128600D01*
X167710Y125000D01*
Y128600D01*
X164830D02*X164380Y128150D01*
X164830Y128600D02*X166180D01*
X166630Y128150D02*X166180Y128600D01*
X166630Y127250D02*Y128150D01*
Y127250D02*X166180Y126800D01*
X164830D02*X166180D01*
X164830D02*X164380Y126350D01*
Y125450D02*Y126350D01*
X164830Y125000D02*X164380Y125450D01*
X164830Y125000D02*X166180D01*
X166630Y125450D02*X166180Y125000D01*
X161950Y126980D02*X163300D01*
X161500Y125000D02*X163300D01*
Y128600D01*
X161500D02*X163300D01*
X158620Y126800D02*X160420D01*
X155740Y128600D02*X157540D01*
X155740D02*X155290Y128150D01*
Y127250D02*Y128150D01*
X155740Y126800D02*X155290Y127250D01*
X155740Y126800D02*X157090D01*
Y125000D02*Y128600D01*
X156370Y126800D02*X155290Y125000D01*
X154210D02*Y127700D01*
X153580Y128600D01*
X152590D02*X153580D01*
X152590D02*X151960Y127700D01*
Y125000D02*Y127700D01*
Y126800D02*X154210D01*
X149260D02*X148360Y125000D01*
X147460Y126800D02*X148360Y125000D01*
X146380Y126350D02*X144580Y128600D01*
X144130Y126350D02*X146380D01*
X144580Y125000D02*Y128600D01*
X142600Y125000D02*X143050D01*
X141520Y127880D02*X140800Y128600D01*
Y125000D02*Y128600D01*
X140170Y125000D02*X141520D01*
X159000Y118900D02*X158600Y118500D01*
X159000Y121300D02*X158600Y121700D01*
X159000Y118900D02*Y121300D01*
X156040Y118500D02*X157080D01*
X157640Y119060D02*X157080Y118500D01*
X157640Y119060D02*Y121140D01*
X157080Y121700D01*
X156040D02*X157080D01*
X155080D02*X154680Y121300D01*
Y118900D02*Y121300D01*
X155080Y118500D02*X154680Y118900D01*
X153720Y121300D02*X153320Y121700D01*
X152120D02*X153320D01*
X152120D02*X151720Y121300D01*
Y120500D02*Y121300D01*
X153720Y118500D02*X151720Y120500D01*
Y118500D02*X153720D01*
X150760Y118900D02*X150360Y118500D01*
X150760Y118900D02*Y121300D01*
X150360Y121700D01*
X149560D02*X150360D01*
X149560D02*X149160Y121300D01*
Y118900D02*Y121300D01*
X149560Y118500D02*X149160Y118900D01*
X149560Y118500D02*X150360D01*
X150760Y119300D02*X149160Y120900D01*
X148200Y121300D02*X147800Y121700D01*
X146600D02*X147800D01*
X146600D02*X146200Y121300D01*
Y120500D02*Y121300D01*
X148200Y118500D02*X146200Y120500D01*
Y118500D02*X148200D01*
X145240Y118900D02*X144840Y118500D01*
X145240Y118900D02*Y121300D01*
X144840Y121700D01*
X144040D02*X144840D01*
X144040D02*X143640Y121300D01*
Y118900D02*Y121300D01*
X144040Y118500D02*X143640Y118900D01*
X144040Y118500D02*X144840D01*
X145240Y119300D02*X143640Y120900D01*
X183900Y118500D02*X184940D01*
X185500Y119060D02*X184940Y118500D01*
X185500Y119060D02*Y121140D01*
X184940Y121700D01*
X183900D02*X184940D01*
X181340Y118500D02*X182380D01*
X182940Y119060D02*X182380Y118500D01*
X182940Y119060D02*Y121140D01*
X182380Y121700D01*
X181340D02*X182380D01*
X178780Y120100D02*X180380D01*
X176220Y118500D02*X177820D01*
X176220D02*X175820Y118900D01*
Y119860D01*
X176220Y120260D02*X175820Y119860D01*
X176220Y120260D02*X177420D01*
Y118500D02*Y121700D01*
X176220D02*X177820D01*
X176220D02*X175820Y121300D01*
Y120660D02*Y121300D01*
X176220Y120260D02*X175820Y120660D01*
X174860Y121700D02*X174060Y120100D01*
X173260Y121700D01*
X174060Y118500D02*Y120100D01*
X170700D02*X172300D01*
X168140Y121700D02*X167740Y121300D01*
X168140Y121700D02*X169340D01*
X169740Y121300D02*X169340Y121700D01*
X169740Y120500D02*Y121300D01*
Y120500D02*X169340Y120100D01*
X168140D02*X169340D01*
X168140D02*X167740Y119700D01*
Y118900D02*Y119700D01*
X168140Y118500D02*X167740Y118900D01*
X168140Y118500D02*X169340D01*
X169740Y118900D02*X169340Y118500D01*
X166780D02*Y120900D01*
X166220Y121700D01*
X165340D02*X166220D01*
X165340D02*X164780Y120900D01*
Y118500D02*Y120900D01*
Y120100D02*X166780D01*
X181217Y101380D02*X183457D01*
X182337Y96900D02*Y101380D01*
X179313Y96900D02*Y98580D01*
X178753Y99140D01*
X177633D02*X178753D01*
X179873D02*X179313Y98580D01*
X174609Y99140D02*X174049Y98580D01*
X174609Y99140D02*X175729D01*
X176289Y98580D02*X175729Y99140D01*
X176289Y97460D02*Y98580D01*
Y97460D02*X175729Y96900D01*
X174049Y97460D02*Y99140D01*
Y97460D02*X173489Y96900D01*
X174609D02*X175729D01*
X174609D02*X174049Y97460D01*
X172145Y100148D02*Y100260D01*
Y96900D02*Y98580D01*
X170465Y96900D02*Y98580D01*
X169905Y99140D01*
X169345D02*X169905D01*
X169345D02*X168785Y98580D01*
Y96900D02*Y98580D01*
X171025Y99140D02*X170465Y98580D01*
X165201Y101380D02*X164641Y100820D01*
X165201Y101380D02*X166881D01*
X167441Y100820D02*X166881Y101380D01*
X167441Y99700D02*Y100820D01*
Y99700D02*X166881Y99140D01*
X165201D02*X166881D01*
X165201D02*X164641Y98580D01*
Y97460D02*Y98580D01*
X165201Y96900D02*X164641Y97460D01*
X165201Y96900D02*X166881D01*
X167441Y97460D02*X166881Y96900D01*
X162737Y95220D02*Y98580D01*
X163297Y99140D02*X162737Y98580D01*
X162177Y99140D01*
X161057D02*X162177D01*
X161057D02*X160497Y98580D01*
Y97460D02*Y98580D01*
X161057Y96900D02*X160497Y97460D01*
X161057Y96900D02*X162177D01*
X162737Y97460D02*X162177Y96900D01*
X159153Y97460D02*Y98580D01*
X158593Y99140D01*
X157473D02*X158593D01*
X157473D02*X156913Y98580D01*
Y97460D02*Y98580D01*
X157473Y96900D02*X156913Y97460D01*
X157473Y96900D02*X158593D01*
X159153Y97460D02*X158593Y96900D01*
X155009Y97460D02*Y101380D01*
Y97460D02*X154449Y96900D01*
Y99700D02*X155569D01*
X152769Y97460D02*Y101380D01*
Y97460D02*X152209Y96900D01*
Y99700D02*X153329D01*
X148849Y96900D02*X150529D01*
X151089Y97460D02*X150529Y96900D01*
X151089Y97460D02*Y98580D01*
X150529Y99140D01*
X149409D02*X150529D01*
X149409D02*X148849Y98580D01*
Y98020D02*X151089D01*
X148849D02*Y98580D01*
X146945Y96900D02*Y98580D01*
X146385Y99140D01*
X145265D02*X146385D01*
X147505D02*X146945Y98580D01*
X191200Y90000D02*X192370D01*
X193000Y90630D02*X192370Y90000D01*
X193000Y90630D02*Y92970D01*
X192370Y93600D01*
X191200D02*X192370D01*
X190120Y90000D02*Y93600D01*
Y91800D02*X188320Y93600D01*
X190120Y91800D02*X188320Y90000D01*
X185440Y93600D02*X187240D01*
X186340Y90000D02*Y93600D01*
X182560Y91800D02*X184360D01*
X180580Y93600D02*X181480D01*
X181030Y90000D02*Y93600D01*
X180580Y90000D02*X181480D01*
X177700Y93600D02*X179500D01*
X177700D02*X177250Y93150D01*
Y92250D02*Y93150D01*
X177700Y91800D02*X177250Y92250D01*
X177700Y91800D02*X179050D01*
Y90000D02*Y93600D01*
X178330Y91800D02*X177250Y90000D01*
X174370Y93600D02*X173920Y93150D01*
X174370Y93600D02*X175720D01*
X176170Y93150D02*X175720Y93600D01*
X176170Y92250D02*Y93150D01*
Y92250D02*X175720Y91800D01*
X174370D02*X175720D01*
X174370D02*X173920Y91350D01*
Y90450D02*Y91350D01*
X174370Y90000D02*X173920Y90450D01*
X174370Y90000D02*X175720D01*
X176170Y90450D02*X175720Y90000D01*
X171490Y91980D02*X172840D01*
X171040Y90000D02*X172840D01*
Y93600D01*
X171040D02*X172840D01*
X169960Y90000D02*Y93600D01*
X167710Y90000D01*
Y93600D01*
X164830D02*X164380Y93150D01*
X164830Y93600D02*X166180D01*
X166630Y93150D02*X166180Y93600D01*
X166630Y92250D02*Y93150D01*
Y92250D02*X166180Y91800D01*
X164830D02*X166180D01*
X164830D02*X164380Y91350D01*
Y90450D02*Y91350D01*
X164830Y90000D02*X164380Y90450D01*
X164830Y90000D02*X166180D01*
X166630Y90450D02*X166180Y90000D01*
X161950Y91980D02*X163300D01*
X161500Y90000D02*X163300D01*
Y93600D01*
X161500D02*X163300D01*
X158620Y91800D02*X160420D01*
X155740Y93600D02*X157540D01*
X155740D02*X155290Y93150D01*
Y92250D02*Y93150D01*
X155740Y91800D02*X155290Y92250D01*
X155740Y91800D02*X157090D01*
Y90000D02*Y93600D01*
X156370Y91800D02*X155290Y90000D01*
X154210D02*Y92700D01*
X153580Y93600D01*
X152590D02*X153580D01*
X152590D02*X151960Y92700D01*
Y90000D02*Y92700D01*
Y91800D02*X154210D01*
X149260D02*X148360Y90000D01*
X147460Y91800D02*X148360Y90000D01*
X146380Y91350D02*X144580Y93600D01*
X144130Y91350D02*X146380D01*
X144580Y90000D02*Y93600D01*
X142600Y90000D02*X143050D01*
X141520Y92880D02*X140800Y93600D01*
Y90000D02*Y93600D01*
X140170Y90000D02*X141520D01*
X159000Y83900D02*X158600Y83500D01*
X159000Y86300D02*X158600Y86700D01*
X159000Y83900D02*Y86300D01*
X156040Y83500D02*X157080D01*
X157640Y84060D02*X157080Y83500D01*
X157640Y84060D02*Y86140D01*
X157080Y86700D01*
X156040D02*X157080D01*
X155080D02*X154680Y86300D01*
Y83900D02*Y86300D01*
X155080Y83500D02*X154680Y83900D01*
X153720Y86300D02*X153320Y86700D01*
X152120D02*X153320D01*
X152120D02*X151720Y86300D01*
Y85500D02*Y86300D01*
X153720Y83500D02*X151720Y85500D01*
Y83500D02*X153720D01*
X150760Y83900D02*X150360Y83500D01*
X150760Y83900D02*Y86300D01*
X150360Y86700D01*
X149560D02*X150360D01*
X149560D02*X149160Y86300D01*
Y83900D02*Y86300D01*
X149560Y83500D02*X149160Y83900D01*
X149560Y83500D02*X150360D01*
X150760Y84300D02*X149160Y85900D01*
X148200Y86300D02*X147800Y86700D01*
X146600D02*X147800D01*
X146600D02*X146200Y86300D01*
Y85500D02*Y86300D01*
X148200Y83500D02*X146200Y85500D01*
Y83500D02*X148200D01*
X145240Y83900D02*X144840Y83500D01*
X145240Y83900D02*Y86300D01*
X144840Y86700D01*
X144040D02*X144840D01*
X144040D02*X143640Y86300D01*
Y83900D02*Y86300D01*
X144040Y83500D02*X143640Y83900D01*
X144040Y83500D02*X144840D01*
X145240Y84300D02*X143640Y85900D01*
X183900Y83500D02*X184940D01*
X185500Y84060D02*X184940Y83500D01*
X185500Y84060D02*Y86140D01*
X184940Y86700D01*
X183900D02*X184940D01*
X181340Y83500D02*X182380D01*
X182940Y84060D02*X182380Y83500D01*
X182940Y84060D02*Y86140D01*
X182380Y86700D01*
X181340D02*X182380D01*
X178780Y85100D02*X180380D01*
X176220Y83500D02*X177820D01*
X176220D02*X175820Y83900D01*
Y84860D01*
X176220Y85260D02*X175820Y84860D01*
X176220Y85260D02*X177420D01*
Y83500D02*Y86700D01*
X176220D02*X177820D01*
X176220D02*X175820Y86300D01*
Y85660D02*Y86300D01*
X176220Y85260D02*X175820Y85660D01*
X174860Y86700D02*X174060Y85100D01*
X173260Y86700D01*
X174060Y83500D02*Y85100D01*
X170700D02*X172300D01*
X168140Y86700D02*X167740Y86300D01*
X168140Y86700D02*X169340D01*
X169740Y86300D02*X169340Y86700D01*
X169740Y85500D02*Y86300D01*
Y85500D02*X169340Y85100D01*
X168140D02*X169340D01*
X168140D02*X167740Y84700D01*
Y83900D02*Y84700D01*
X168140Y83500D02*X167740Y83900D01*
X168140Y83500D02*X169340D01*
X169740Y83900D02*X169340Y83500D01*
X166780D02*Y85900D01*
X166220Y86700D01*
X165340D02*X166220D01*
X165340D02*X164780Y85900D01*
Y83500D02*Y85900D01*
Y85100D02*X166780D01*
X181217Y66380D02*X183457D01*
X182337Y61900D02*Y66380D01*
X179313Y61900D02*Y63580D01*
X178753Y64140D01*
X177633D02*X178753D01*
X179873D02*X179313Y63580D01*
X174609Y64140D02*X174049Y63580D01*
X174609Y64140D02*X175729D01*
X176289Y63580D02*X175729Y64140D01*
X176289Y62460D02*Y63580D01*
Y62460D02*X175729Y61900D01*
X174049Y62460D02*Y64140D01*
Y62460D02*X173489Y61900D01*
X174609D02*X175729D01*
X174609D02*X174049Y62460D01*
X172145Y65148D02*Y65260D01*
Y61900D02*Y63580D01*
X170465Y61900D02*Y63580D01*
X169905Y64140D01*
X169345D02*X169905D01*
X169345D02*X168785Y63580D01*
Y61900D02*Y63580D01*
X171025Y64140D02*X170465Y63580D01*
X165201Y66380D02*X164641Y65820D01*
X165201Y66380D02*X166881D01*
X167441Y65820D02*X166881Y66380D01*
X167441Y64700D02*Y65820D01*
Y64700D02*X166881Y64140D01*
X165201D02*X166881D01*
X165201D02*X164641Y63580D01*
Y62460D02*Y63580D01*
X165201Y61900D02*X164641Y62460D01*
X165201Y61900D02*X166881D01*
X167441Y62460D02*X166881Y61900D01*
X162737Y60220D02*Y63580D01*
X163297Y64140D02*X162737Y63580D01*
X162177Y64140D01*
X161057D02*X162177D01*
X161057D02*X160497Y63580D01*
Y62460D02*Y63580D01*
X161057Y61900D02*X160497Y62460D01*
X161057Y61900D02*X162177D01*
X162737Y62460D02*X162177Y61900D01*
X159153Y62460D02*Y63580D01*
X158593Y64140D01*
X157473D02*X158593D01*
X157473D02*X156913Y63580D01*
Y62460D02*Y63580D01*
X157473Y61900D02*X156913Y62460D01*
X157473Y61900D02*X158593D01*
X159153Y62460D02*X158593Y61900D01*
X155009Y62460D02*Y66380D01*
Y62460D02*X154449Y61900D01*
Y64700D02*X155569D01*
X152769Y62460D02*Y66380D01*
Y62460D02*X152209Y61900D01*
Y64700D02*X153329D01*
X148849Y61900D02*X150529D01*
X151089Y62460D02*X150529Y61900D01*
X151089Y62460D02*Y63580D01*
X150529Y64140D01*
X149409D02*X150529D01*
X149409D02*X148849Y63580D01*
Y63020D02*X151089D01*
X148849D02*Y63580D01*
X146945Y61900D02*Y63580D01*
X146385Y64140D01*
X145265D02*X146385D01*
X147505D02*X146945Y63580D01*
X191200Y55000D02*X192370D01*
X193000Y55630D02*X192370Y55000D01*
X193000Y55630D02*Y57970D01*
X192370Y58600D01*
X191200D02*X192370D01*
X190120Y55000D02*Y58600D01*
Y56800D02*X188320Y58600D01*
X190120Y56800D02*X188320Y55000D01*
X185440Y58600D02*X187240D01*
X186340Y55000D02*Y58600D01*
X182560Y56800D02*X184360D01*
X180580Y58600D02*X181480D01*
X181030Y55000D02*Y58600D01*
X180580Y55000D02*X181480D01*
X177700Y58600D02*X179500D01*
X177700D02*X177250Y58150D01*
Y57250D02*Y58150D01*
X177700Y56800D02*X177250Y57250D01*
X177700Y56800D02*X179050D01*
Y55000D02*Y58600D01*
X178330Y56800D02*X177250Y55000D01*
X174370Y58600D02*X173920Y58150D01*
X174370Y58600D02*X175720D01*
X176170Y58150D02*X175720Y58600D01*
X176170Y57250D02*Y58150D01*
Y57250D02*X175720Y56800D01*
X174370D02*X175720D01*
X174370D02*X173920Y56350D01*
Y55450D02*Y56350D01*
X174370Y55000D02*X173920Y55450D01*
X174370Y55000D02*X175720D01*
X176170Y55450D02*X175720Y55000D01*
X171490Y56980D02*X172840D01*
X171040Y55000D02*X172840D01*
Y58600D01*
X171040D02*X172840D01*
X169960Y55000D02*Y58600D01*
X167710Y55000D01*
Y58600D01*
X164830D02*X164380Y58150D01*
X164830Y58600D02*X166180D01*
X166630Y58150D02*X166180Y58600D01*
X166630Y57250D02*Y58150D01*
Y57250D02*X166180Y56800D01*
X164830D02*X166180D01*
X164830D02*X164380Y56350D01*
Y55450D02*Y56350D01*
X164830Y55000D02*X164380Y55450D01*
X164830Y55000D02*X166180D01*
X166630Y55450D02*X166180Y55000D01*
X161950Y56980D02*X163300D01*
X161500Y55000D02*X163300D01*
Y58600D01*
X161500D02*X163300D01*
X158620Y56800D02*X160420D01*
X155740Y58600D02*X157540D01*
X155740D02*X155290Y58150D01*
Y57250D02*Y58150D01*
X155740Y56800D02*X155290Y57250D01*
X155740Y56800D02*X157090D01*
Y55000D02*Y58600D01*
X156370Y56800D02*X155290Y55000D01*
X154210D02*Y57700D01*
X153580Y58600D01*
X152590D02*X153580D01*
X152590D02*X151960Y57700D01*
Y55000D02*Y57700D01*
Y56800D02*X154210D01*
X149260D02*X148360Y55000D01*
X147460Y56800D02*X148360Y55000D01*
X146380Y56350D02*X144580Y58600D01*
X144130Y56350D02*X146380D01*
X144580Y55000D02*Y58600D01*
X142600Y55000D02*X143050D01*
X141520Y57880D02*X140800Y58600D01*
Y55000D02*Y58600D01*
X140170Y55000D02*X141520D01*
X159000Y48900D02*X158600Y48500D01*
X159000Y51300D02*X158600Y51700D01*
X159000Y48900D02*Y51300D01*
X156040Y48500D02*X157080D01*
X157640Y49060D02*X157080Y48500D01*
X157640Y49060D02*Y51140D01*
X157080Y51700D01*
X156040D02*X157080D01*
X155080D02*X154680Y51300D01*
Y48900D02*Y51300D01*
X155080Y48500D02*X154680Y48900D01*
X153720Y51300D02*X153320Y51700D01*
X152120D02*X153320D01*
X152120D02*X151720Y51300D01*
Y50500D02*Y51300D01*
X153720Y48500D02*X151720Y50500D01*
Y48500D02*X153720D01*
X150760Y48900D02*X150360Y48500D01*
X150760Y48900D02*Y51300D01*
X150360Y51700D01*
X149560D02*X150360D01*
X149560D02*X149160Y51300D01*
Y48900D02*Y51300D01*
X149560Y48500D02*X149160Y48900D01*
X149560Y48500D02*X150360D01*
X150760Y49300D02*X149160Y50900D01*
X148200Y51300D02*X147800Y51700D01*
X146600D02*X147800D01*
X146600D02*X146200Y51300D01*
Y50500D02*Y51300D01*
X148200Y48500D02*X146200Y50500D01*
Y48500D02*X148200D01*
X145240Y48900D02*X144840Y48500D01*
X145240Y48900D02*Y51300D01*
X144840Y51700D01*
X144040D02*X144840D01*
X144040D02*X143640Y51300D01*
Y48900D02*Y51300D01*
X144040Y48500D02*X143640Y48900D01*
X144040Y48500D02*X144840D01*
X145240Y49300D02*X143640Y50900D01*
X183900Y48500D02*X184940D01*
X185500Y49060D02*X184940Y48500D01*
X185500Y49060D02*Y51140D01*
X184940Y51700D01*
X183900D02*X184940D01*
X181340Y48500D02*X182380D01*
X182940Y49060D02*X182380Y48500D01*
X182940Y49060D02*Y51140D01*
X182380Y51700D01*
X181340D02*X182380D01*
X178780Y50100D02*X180380D01*
X176220Y48500D02*X177820D01*
X176220D02*X175820Y48900D01*
Y49860D01*
X176220Y50260D02*X175820Y49860D01*
X176220Y50260D02*X177420D01*
Y48500D02*Y51700D01*
X176220D02*X177820D01*
X176220D02*X175820Y51300D01*
Y50660D02*Y51300D01*
X176220Y50260D02*X175820Y50660D01*
X174860Y51700D02*X174060Y50100D01*
X173260Y51700D01*
X174060Y48500D02*Y50100D01*
X170700D02*X172300D01*
X168140Y51700D02*X167740Y51300D01*
X168140Y51700D02*X169340D01*
X169740Y51300D02*X169340Y51700D01*
X169740Y50500D02*Y51300D01*
Y50500D02*X169340Y50100D01*
X168140D02*X169340D01*
X168140D02*X167740Y49700D01*
Y48900D02*Y49700D01*
X168140Y48500D02*X167740Y48900D01*
X168140Y48500D02*X169340D01*
X169740Y48900D02*X169340Y48500D01*
X166780D02*Y50900D01*
X166220Y51700D01*
X165340D02*X166220D01*
X165340D02*X164780Y50900D01*
Y48500D02*Y50900D01*
Y50100D02*X166780D01*
X181217Y31380D02*X183457D01*
X182337Y26900D02*Y31380D01*
X179313Y26900D02*Y28580D01*
X178753Y29140D01*
X177633D02*X178753D01*
X179873D02*X179313Y28580D01*
X174609Y29140D02*X174049Y28580D01*
X174609Y29140D02*X175729D01*
X176289Y28580D02*X175729Y29140D01*
X176289Y27460D02*Y28580D01*
Y27460D02*X175729Y26900D01*
X174049Y27460D02*Y29140D01*
Y27460D02*X173489Y26900D01*
X174609D02*X175729D01*
X174609D02*X174049Y27460D01*
X172145Y30148D02*Y30260D01*
Y26900D02*Y28580D01*
X170465Y26900D02*Y28580D01*
X169905Y29140D01*
X169345D02*X169905D01*
X169345D02*X168785Y28580D01*
Y26900D02*Y28580D01*
X171025Y29140D02*X170465Y28580D01*
X165201Y31380D02*X164641Y30820D01*
X165201Y31380D02*X166881D01*
X167441Y30820D02*X166881Y31380D01*
X167441Y29700D02*Y30820D01*
Y29700D02*X166881Y29140D01*
X165201D02*X166881D01*
X165201D02*X164641Y28580D01*
Y27460D02*Y28580D01*
X165201Y26900D02*X164641Y27460D01*
X165201Y26900D02*X166881D01*
X167441Y27460D02*X166881Y26900D01*
X162737Y25220D02*Y28580D01*
X163297Y29140D02*X162737Y28580D01*
X162177Y29140D01*
X161057D02*X162177D01*
X161057D02*X160497Y28580D01*
Y27460D02*Y28580D01*
X161057Y26900D02*X160497Y27460D01*
X161057Y26900D02*X162177D01*
X162737Y27460D02*X162177Y26900D01*
X159153Y27460D02*Y28580D01*
X158593Y29140D01*
X157473D02*X158593D01*
X157473D02*X156913Y28580D01*
Y27460D02*Y28580D01*
X157473Y26900D02*X156913Y27460D01*
X157473Y26900D02*X158593D01*
X159153Y27460D02*X158593Y26900D01*
X155009Y27460D02*Y31380D01*
Y27460D02*X154449Y26900D01*
Y29700D02*X155569D01*
X152769Y27460D02*Y31380D01*
Y27460D02*X152209Y26900D01*
Y29700D02*X153329D01*
X148849Y26900D02*X150529D01*
X151089Y27460D02*X150529Y26900D01*
X151089Y27460D02*Y28580D01*
X150529Y29140D01*
X149409D02*X150529D01*
X149409D02*X148849Y28580D01*
Y28020D02*X151089D01*
X148849D02*Y28580D01*
X146945Y26900D02*Y28580D01*
X146385Y29140D01*
X145265D02*X146385D01*
X147505D02*X146945Y28580D01*
X191200Y20000D02*X192370D01*
X193000Y20630D02*X192370Y20000D01*
X193000Y20630D02*Y22970D01*
X192370Y23600D01*
X191200D02*X192370D01*
X190120Y20000D02*Y23600D01*
Y21800D02*X188320Y23600D01*
X190120Y21800D02*X188320Y20000D01*
X185440Y23600D02*X187240D01*
X186340Y20000D02*Y23600D01*
X182560Y21800D02*X184360D01*
X180580Y23600D02*X181480D01*
X181030Y20000D02*Y23600D01*
X180580Y20000D02*X181480D01*
X177700Y23600D02*X179500D01*
X177700D02*X177250Y23150D01*
Y22250D02*Y23150D01*
X177700Y21800D02*X177250Y22250D01*
X177700Y21800D02*X179050D01*
Y20000D02*Y23600D01*
X178330Y21800D02*X177250Y20000D01*
X174370Y23600D02*X173920Y23150D01*
X174370Y23600D02*X175720D01*
X176170Y23150D02*X175720Y23600D01*
X176170Y22250D02*Y23150D01*
Y22250D02*X175720Y21800D01*
X174370D02*X175720D01*
X174370D02*X173920Y21350D01*
Y20450D02*Y21350D01*
X174370Y20000D02*X173920Y20450D01*
X174370Y20000D02*X175720D01*
X176170Y20450D02*X175720Y20000D01*
X171490Y21980D02*X172840D01*
X171040Y20000D02*X172840D01*
Y23600D01*
X171040D02*X172840D01*
X169960Y20000D02*Y23600D01*
X167710Y20000D01*
Y23600D01*
X164830D02*X164380Y23150D01*
X164830Y23600D02*X166180D01*
X166630Y23150D02*X166180Y23600D01*
X166630Y22250D02*Y23150D01*
Y22250D02*X166180Y21800D01*
X164830D02*X166180D01*
X164830D02*X164380Y21350D01*
Y20450D02*Y21350D01*
X164830Y20000D02*X164380Y20450D01*
X164830Y20000D02*X166180D01*
X166630Y20450D02*X166180Y20000D01*
X161950Y21980D02*X163300D01*
X161500Y20000D02*X163300D01*
Y23600D01*
X161500D02*X163300D01*
X158620Y21800D02*X160420D01*
X155740Y23600D02*X157540D01*
X155740D02*X155290Y23150D01*
Y22250D02*Y23150D01*
X155740Y21800D02*X155290Y22250D01*
X155740Y21800D02*X157090D01*
Y20000D02*Y23600D01*
X156370Y21800D02*X155290Y20000D01*
X154210D02*Y22700D01*
X153580Y23600D01*
X152590D02*X153580D01*
X152590D02*X151960Y22700D01*
Y20000D02*Y22700D01*
Y21800D02*X154210D01*
X149260D02*X148360Y20000D01*
X147460Y21800D02*X148360Y20000D01*
X146380Y21350D02*X144580Y23600D01*
X144130Y21350D02*X146380D01*
X144580Y20000D02*Y23600D01*
X142600Y20000D02*X143050D01*
X141520Y22880D02*X140800Y23600D01*
Y20000D02*Y23600D01*
X140170Y20000D02*X141520D01*
X159000Y13900D02*X158600Y13500D01*
X159000Y16300D02*X158600Y16700D01*
X159000Y13900D02*Y16300D01*
X156040Y13500D02*X157080D01*
X157640Y14060D02*X157080Y13500D01*
X157640Y14060D02*Y16140D01*
X157080Y16700D01*
X156040D02*X157080D01*
X155080D02*X154680Y16300D01*
Y13900D02*Y16300D01*
X155080Y13500D02*X154680Y13900D01*
X153720Y16300D02*X153320Y16700D01*
X152120D02*X153320D01*
X152120D02*X151720Y16300D01*
Y15500D02*Y16300D01*
X153720Y13500D02*X151720Y15500D01*
Y13500D02*X153720D01*
X150760Y13900D02*X150360Y13500D01*
X150760Y13900D02*Y16300D01*
X150360Y16700D01*
X149560D02*X150360D01*
X149560D02*X149160Y16300D01*
Y13900D02*Y16300D01*
X149560Y13500D02*X149160Y13900D01*
X149560Y13500D02*X150360D01*
X150760Y14300D02*X149160Y15900D01*
X148200Y16300D02*X147800Y16700D01*
X146600D02*X147800D01*
X146600D02*X146200Y16300D01*
Y15500D02*Y16300D01*
X148200Y13500D02*X146200Y15500D01*
Y13500D02*X148200D01*
X145240Y13900D02*X144840Y13500D01*
X145240Y13900D02*Y16300D01*
X144840Y16700D01*
X144040D02*X144840D01*
X144040D02*X143640Y16300D01*
Y13900D02*Y16300D01*
X144040Y13500D02*X143640Y13900D01*
X144040Y13500D02*X144840D01*
X145240Y14300D02*X143640Y15900D01*
X183900Y13500D02*X184940D01*
X185500Y14060D02*X184940Y13500D01*
X185500Y14060D02*Y16140D01*
X184940Y16700D01*
X183900D02*X184940D01*
X181340Y13500D02*X182380D01*
X182940Y14060D02*X182380Y13500D01*
X182940Y14060D02*Y16140D01*
X182380Y16700D01*
X181340D02*X182380D01*
X178780Y15100D02*X180380D01*
X176220Y13500D02*X177820D01*
X176220D02*X175820Y13900D01*
Y14860D01*
X176220Y15260D02*X175820Y14860D01*
X176220Y15260D02*X177420D01*
Y13500D02*Y16700D01*
X176220D02*X177820D01*
X176220D02*X175820Y16300D01*
Y15660D02*Y16300D01*
X176220Y15260D02*X175820Y15660D01*
X174860Y16700D02*X174060Y15100D01*
X173260Y16700D01*
X174060Y13500D02*Y15100D01*
X170700D02*X172300D01*
X168140Y16700D02*X167740Y16300D01*
X168140Y16700D02*X169340D01*
X169740Y16300D02*X169340Y16700D01*
X169740Y15500D02*Y16300D01*
Y15500D02*X169340Y15100D01*
X168140D02*X169340D01*
X168140D02*X167740Y14700D01*
Y13900D02*Y14700D01*
X168140Y13500D02*X167740Y13900D01*
X168140Y13500D02*X169340D01*
X169740Y13900D02*X169340Y13500D01*
X166780D02*Y15900D01*
X166220Y16700D01*
X165340D02*X166220D01*
X165340D02*X164780Y15900D01*
Y13500D02*Y15900D01*
Y15100D02*X166780D01*
X219300Y236000D02*Y237500D01*
X221500Y235500D02*Y237500D01*
X217500D02*X221500D01*
X217500Y235500D02*Y237500D01*
X220000Y233800D02*X221500D01*
X220000D02*X219500Y233300D01*
Y232800D02*Y233300D01*
Y232800D02*X220000Y232300D01*
X221500D01*
X219500Y234300D02*X220000Y233800D01*
X219500Y229600D02*X220000Y229100D01*
X219500Y229600D02*Y230600D01*
X220000Y231100D02*X219500Y230600D01*
X220000Y231100D02*X221000D01*
X221500Y230600D01*
Y229600D02*Y230600D01*
Y229600D02*X221000Y229100D01*
X222500Y231100D02*X223000Y230600D01*
Y229600D02*Y230600D01*
Y229600D02*X222500Y229100D01*
X219500D02*X222500D01*
X221500Y227400D02*Y227900D01*
X219300Y201000D02*Y202500D01*
X221500Y200500D02*Y202500D01*
X217500D02*X221500D01*
X217500Y200500D02*Y202500D01*
X220000Y198800D02*X221500D01*
X220000D02*X219500Y198300D01*
Y197800D02*Y198300D01*
Y197800D02*X220000Y197300D01*
X221500D01*
X219500Y199300D02*X220000Y198800D01*
X219500Y194600D02*X220000Y194100D01*
X219500Y194600D02*Y195600D01*
X220000Y196100D02*X219500Y195600D01*
X220000Y196100D02*X221000D01*
X221500Y195600D01*
Y194600D02*Y195600D01*
Y194600D02*X221000Y194100D01*
X222500Y196100D02*X223000Y195600D01*
Y194600D02*Y195600D01*
Y194600D02*X222500Y194100D01*
X219500D02*X222500D01*
X221500Y192400D02*Y192900D01*
X219300Y166000D02*Y167500D01*
X221500Y165500D02*Y167500D01*
X217500D02*X221500D01*
X217500Y165500D02*Y167500D01*
X220000Y163800D02*X221500D01*
X220000D02*X219500Y163300D01*
Y162800D02*Y163300D01*
Y162800D02*X220000Y162300D01*
X221500D01*
X219500Y164300D02*X220000Y163800D01*
X219500Y159600D02*X220000Y159100D01*
X219500Y159600D02*Y160600D01*
X220000Y161100D02*X219500Y160600D01*
X220000Y161100D02*X221000D01*
X221500Y160600D01*
Y159600D02*Y160600D01*
Y159600D02*X221000Y159100D01*
X222500Y161100D02*X223000Y160600D01*
Y159600D02*Y160600D01*
Y159600D02*X222500Y159100D01*
X219500D02*X222500D01*
X221500Y157400D02*Y157900D01*
X211000Y239000D02*X211500Y238500D01*
X211000Y239000D02*Y240500D01*
X211500Y241000D02*X211000Y240500D01*
X211500Y241000D02*X212500D01*
X213000Y240500D01*
Y239000D02*Y240500D01*
Y239000D02*X213500Y238500D01*
X214500D01*
X215000Y239000D02*X214500Y238500D01*
X215000Y239000D02*Y240500D01*
X214500Y241000D02*X215000Y240500D01*
X213000Y235300D02*Y236800D01*
X213500Y237300D02*X213000Y236800D01*
X213500Y237300D02*X214500D01*
X215000Y236800D01*
Y235300D02*Y236800D01*
X213000Y232600D02*X213500Y232100D01*
X213000Y232600D02*Y233600D01*
X213500Y234100D02*X213000Y233600D01*
X213500Y234100D02*X214500D01*
X215000Y233600D01*
X213000Y232100D02*X214500D01*
X215000Y231600D01*
Y232600D02*Y233600D01*
Y232600D02*X214500Y232100D01*
X211000Y230400D02*X214500D01*
X215000Y229900D01*
Y226900D02*Y228400D01*
X214500Y228900D02*X215000Y228400D01*
X213500Y228900D02*X214500D01*
X213500D02*X213000Y228400D01*
Y227400D02*Y228400D01*
Y227400D02*X213500Y226900D01*
X214000D02*Y228900D01*
X213500Y226900D02*X214000D01*
X211000Y223700D02*X215000D01*
Y224200D02*X214500Y223700D01*
X215000Y224200D02*Y225200D01*
X214500Y225700D02*X215000Y225200D01*
X213500Y225700D02*X214500D01*
X213500D02*X213000Y225200D01*
Y224200D02*Y225200D01*
Y224200D02*X213500Y223700D01*
X211000Y204000D02*X211500Y203500D01*
X211000Y204000D02*Y205500D01*
X211500Y206000D02*X211000Y205500D01*
X211500Y206000D02*X212500D01*
X213000Y205500D01*
Y204000D02*Y205500D01*
Y204000D02*X213500Y203500D01*
X214500D01*
X215000Y204000D02*X214500Y203500D01*
X215000Y204000D02*Y205500D01*
X214500Y206000D02*X215000Y205500D01*
X213000Y200300D02*Y201800D01*
X213500Y202300D02*X213000Y201800D01*
X213500Y202300D02*X214500D01*
X215000Y201800D01*
Y200300D02*Y201800D01*
X213000Y197600D02*X213500Y197100D01*
X213000Y197600D02*Y198600D01*
X213500Y199100D02*X213000Y198600D01*
X213500Y199100D02*X214500D01*
X215000Y198600D01*
X213000Y197100D02*X214500D01*
X215000Y196600D01*
Y197600D02*Y198600D01*
Y197600D02*X214500Y197100D01*
X211000Y195400D02*X214500D01*
X215000Y194900D01*
Y191900D02*Y193400D01*
X214500Y193900D02*X215000Y193400D01*
X213500Y193900D02*X214500D01*
X213500D02*X213000Y193400D01*
Y192400D02*Y193400D01*
Y192400D02*X213500Y191900D01*
X214000D02*Y193900D01*
X213500Y191900D02*X214000D01*
X211000Y188700D02*X215000D01*
Y189200D02*X214500Y188700D01*
X215000Y189200D02*Y190200D01*
X214500Y190700D02*X215000Y190200D01*
X213500Y190700D02*X214500D01*
X213500D02*X213000Y190200D01*
Y189200D02*Y190200D01*
Y189200D02*X213500Y188700D01*
X211000Y169000D02*X211500Y168500D01*
X211000Y169000D02*Y170500D01*
X211500Y171000D02*X211000Y170500D01*
X211500Y171000D02*X212500D01*
X213000Y170500D01*
Y169000D02*Y170500D01*
Y169000D02*X213500Y168500D01*
X214500D01*
X215000Y169000D02*X214500Y168500D01*
X215000Y169000D02*Y170500D01*
X214500Y171000D02*X215000Y170500D01*
X213000Y165300D02*Y166800D01*
X213500Y167300D02*X213000Y166800D01*
X213500Y167300D02*X214500D01*
X215000Y166800D01*
Y165300D02*Y166800D01*
X213000Y162600D02*X213500Y162100D01*
X213000Y162600D02*Y163600D01*
X213500Y164100D02*X213000Y163600D01*
X213500Y164100D02*X214500D01*
X215000Y163600D01*
X213000Y162100D02*X214500D01*
X215000Y161600D01*
Y162600D02*Y163600D01*
Y162600D02*X214500Y162100D01*
X211000Y160400D02*X214500D01*
X215000Y159900D01*
Y156900D02*Y158400D01*
X214500Y158900D02*X215000Y158400D01*
X213500Y158900D02*X214500D01*
X213500D02*X213000Y158400D01*
Y157400D02*Y158400D01*
Y157400D02*X213500Y156900D01*
X214000D02*Y158900D01*
X213500Y156900D02*X214000D01*
X211000Y153700D02*X215000D01*
Y154200D02*X214500Y153700D01*
X215000Y154200D02*Y155200D01*
X214500Y155700D02*X215000Y155200D01*
X213500Y155700D02*X214500D01*
X213500D02*X213000Y155200D01*
Y154200D02*Y155200D01*
Y154200D02*X213500Y153700D01*
X211000Y134000D02*X211500Y133500D01*
X211000Y134000D02*Y135500D01*
X211500Y136000D02*X211000Y135500D01*
X211500Y136000D02*X212500D01*
X213000Y135500D01*
Y134000D02*Y135500D01*
Y134000D02*X213500Y133500D01*
X214500D01*
X215000Y134000D02*X214500Y133500D01*
X215000Y134000D02*Y135500D01*
X214500Y136000D02*X215000Y135500D01*
X213000Y130300D02*Y131800D01*
X213500Y132300D02*X213000Y131800D01*
X213500Y132300D02*X214500D01*
X215000Y131800D01*
Y130300D02*Y131800D01*
X213000Y127600D02*X213500Y127100D01*
X213000Y127600D02*Y128600D01*
X213500Y129100D02*X213000Y128600D01*
X213500Y129100D02*X214500D01*
X215000Y128600D01*
X213000Y127100D02*X214500D01*
X215000Y126600D01*
Y127600D02*Y128600D01*
Y127600D02*X214500Y127100D01*
X211000Y125400D02*X214500D01*
X215000Y124900D01*
Y121900D02*Y123400D01*
X214500Y123900D02*X215000Y123400D01*
X213500Y123900D02*X214500D01*
X213500D02*X213000Y123400D01*
Y122400D02*Y123400D01*
Y122400D02*X213500Y121900D01*
X214000D02*Y123900D01*
X213500Y121900D02*X214000D01*
X211000Y118700D02*X215000D01*
Y119200D02*X214500Y118700D01*
X215000Y119200D02*Y120200D01*
X214500Y120700D02*X215000Y120200D01*
X213500Y120700D02*X214500D01*
X213500D02*X213000Y120200D01*
Y119200D02*Y120200D01*
Y119200D02*X213500Y118700D01*
X211000Y99000D02*X211500Y98500D01*
X211000Y99000D02*Y100500D01*
X211500Y101000D02*X211000Y100500D01*
X211500Y101000D02*X212500D01*
X213000Y100500D01*
Y99000D02*Y100500D01*
Y99000D02*X213500Y98500D01*
X214500D01*
X215000Y99000D02*X214500Y98500D01*
X215000Y99000D02*Y100500D01*
X214500Y101000D02*X215000Y100500D01*
X213000Y95300D02*Y96800D01*
X213500Y97300D02*X213000Y96800D01*
X213500Y97300D02*X214500D01*
X215000Y96800D01*
Y95300D02*Y96800D01*
X213000Y92600D02*X213500Y92100D01*
X213000Y92600D02*Y93600D01*
X213500Y94100D02*X213000Y93600D01*
X213500Y94100D02*X214500D01*
X215000Y93600D01*
X213000Y92100D02*X214500D01*
X215000Y91600D01*
Y92600D02*Y93600D01*
Y92600D02*X214500Y92100D01*
X211000Y90400D02*X214500D01*
X215000Y89900D01*
Y86900D02*Y88400D01*
X214500Y88900D02*X215000Y88400D01*
X213500Y88900D02*X214500D01*
X213500D02*X213000Y88400D01*
Y87400D02*Y88400D01*
Y87400D02*X213500Y86900D01*
X214000D02*Y88900D01*
X213500Y86900D02*X214000D01*
X211000Y83700D02*X215000D01*
Y84200D02*X214500Y83700D01*
X215000Y84200D02*Y85200D01*
X214500Y85700D02*X215000Y85200D01*
X213500Y85700D02*X214500D01*
X213500D02*X213000Y85200D01*
Y84200D02*Y85200D01*
Y84200D02*X213500Y83700D01*
X211000Y64000D02*X211500Y63500D01*
X211000Y64000D02*Y65500D01*
X211500Y66000D02*X211000Y65500D01*
X211500Y66000D02*X212500D01*
X213000Y65500D01*
Y64000D02*Y65500D01*
Y64000D02*X213500Y63500D01*
X214500D01*
X215000Y64000D02*X214500Y63500D01*
X215000Y64000D02*Y65500D01*
X214500Y66000D02*X215000Y65500D01*
X213000Y60300D02*Y61800D01*
X213500Y62300D02*X213000Y61800D01*
X213500Y62300D02*X214500D01*
X215000Y61800D01*
Y60300D02*Y61800D01*
X213000Y57600D02*X213500Y57100D01*
X213000Y57600D02*Y58600D01*
X213500Y59100D02*X213000Y58600D01*
X213500Y59100D02*X214500D01*
X215000Y58600D01*
X213000Y57100D02*X214500D01*
X215000Y56600D01*
Y57600D02*Y58600D01*
Y57600D02*X214500Y57100D01*
X211000Y55400D02*X214500D01*
X215000Y54900D01*
Y51900D02*Y53400D01*
X214500Y53900D02*X215000Y53400D01*
X213500Y53900D02*X214500D01*
X213500D02*X213000Y53400D01*
Y52400D02*Y53400D01*
Y52400D02*X213500Y51900D01*
X214000D02*Y53900D01*
X213500Y51900D02*X214000D01*
X211000Y48700D02*X215000D01*
Y49200D02*X214500Y48700D01*
X215000Y49200D02*Y50200D01*
X214500Y50700D02*X215000Y50200D01*
X213500Y50700D02*X214500D01*
X213500D02*X213000Y50200D01*
Y49200D02*Y50200D01*
Y49200D02*X213500Y48700D01*
X204500Y237500D02*Y238500D01*
Y238000D02*X208500D01*
Y237500D02*Y238500D01*
X207000Y236300D02*X208000D01*
X207000D02*X206500Y235800D01*
Y234800D02*Y235800D01*
Y234800D02*X207000Y234300D01*
X208000D01*
X208500Y234800D02*X208000Y234300D01*
X208500Y234800D02*Y235800D01*
X208000Y236300D02*X208500Y235800D01*
X206500Y233100D02*X208000D01*
X208500Y232600D01*
Y232100D02*Y232600D01*
Y232100D02*X208000Y231600D01*
X206500D02*X208000D01*
X208500Y231100D01*
Y230600D02*Y231100D01*
Y230600D02*X208000Y230100D01*
X206500D02*X208000D01*
X206500Y227400D02*X207000Y226900D01*
X206500Y227400D02*Y228400D01*
X207000Y228900D02*X206500Y228400D01*
X207000Y228900D02*X208000D01*
X208500Y228400D01*
X206500Y226900D02*X208000D01*
X208500Y226400D01*
Y227400D02*Y228400D01*
Y227400D02*X208000Y226900D01*
X204500Y202500D02*Y203500D01*
Y203000D02*X208500D01*
Y202500D02*Y203500D01*
X207000Y201300D02*X208000D01*
X207000D02*X206500Y200800D01*
Y199800D02*Y200800D01*
Y199800D02*X207000Y199300D01*
X208000D01*
X208500Y199800D02*X208000Y199300D01*
X208500Y199800D02*Y200800D01*
X208000Y201300D02*X208500Y200800D01*
X206500Y198100D02*X208000D01*
X208500Y197600D01*
Y197100D02*Y197600D01*
Y197100D02*X208000Y196600D01*
X206500D02*X208000D01*
X208500Y196100D01*
Y195600D02*Y196100D01*
Y195600D02*X208000Y195100D01*
X206500D02*X208000D01*
X206500Y192400D02*X207000Y191900D01*
X206500Y192400D02*Y193400D01*
X207000Y193900D02*X206500Y193400D01*
X207000Y193900D02*X208000D01*
X208500Y193400D01*
X206500Y191900D02*X208000D01*
X208500Y191400D01*
Y192400D02*Y193400D01*
Y192400D02*X208000Y191900D01*
X204500Y167500D02*Y168500D01*
Y168000D02*X208500D01*
Y167500D02*Y168500D01*
X207000Y166300D02*X208000D01*
X207000D02*X206500Y165800D01*
Y164800D02*Y165800D01*
Y164800D02*X207000Y164300D01*
X208000D01*
X208500Y164800D02*X208000Y164300D01*
X208500Y164800D02*Y165800D01*
X208000Y166300D02*X208500Y165800D01*
X206500Y163100D02*X208000D01*
X208500Y162600D01*
Y162100D02*Y162600D01*
Y162100D02*X208000Y161600D01*
X206500D02*X208000D01*
X208500Y161100D01*
Y160600D02*Y161100D01*
Y160600D02*X208000Y160100D01*
X206500D02*X208000D01*
X206500Y157400D02*X207000Y156900D01*
X206500Y157400D02*Y158400D01*
X207000Y158900D02*X206500Y158400D01*
X207000Y158900D02*X208000D01*
X208500Y158400D01*
X206500Y156900D02*X208000D01*
X208500Y156400D01*
Y157400D02*Y158400D01*
Y157400D02*X208000Y156900D01*
X204500Y132500D02*Y133500D01*
Y133000D02*X208500D01*
Y132500D02*Y133500D01*
X207000Y131300D02*X208000D01*
X207000D02*X206500Y130800D01*
Y129800D02*Y130800D01*
Y129800D02*X207000Y129300D01*
X208000D01*
X208500Y129800D02*X208000Y129300D01*
X208500Y129800D02*Y130800D01*
X208000Y131300D02*X208500Y130800D01*
X206500Y128100D02*X208000D01*
X208500Y127600D01*
Y127100D02*Y127600D01*
Y127100D02*X208000Y126600D01*
X206500D02*X208000D01*
X208500Y126100D01*
Y125600D02*Y126100D01*
Y125600D02*X208000Y125100D01*
X206500D02*X208000D01*
X206500Y122400D02*X207000Y121900D01*
X206500Y122400D02*Y123400D01*
X207000Y123900D02*X206500Y123400D01*
X207000Y123900D02*X208000D01*
X208500Y123400D01*
X206500Y121900D02*X208000D01*
X208500Y121400D01*
Y122400D02*Y123400D01*
Y122400D02*X208000Y121900D01*
X204500Y97500D02*Y98500D01*
Y98000D02*X208500D01*
Y97500D02*Y98500D01*
X207000Y96300D02*X208000D01*
X207000D02*X206500Y95800D01*
Y94800D02*Y95800D01*
Y94800D02*X207000Y94300D01*
X208000D01*
X208500Y94800D02*X208000Y94300D01*
X208500Y94800D02*Y95800D01*
X208000Y96300D02*X208500Y95800D01*
X206500Y93100D02*X208000D01*
X208500Y92600D01*
Y92100D02*Y92600D01*
Y92100D02*X208000Y91600D01*
X206500D02*X208000D01*
X208500Y91100D01*
Y90600D02*Y91100D01*
Y90600D02*X208000Y90100D01*
X206500D02*X208000D01*
X206500Y87400D02*X207000Y86900D01*
X206500Y87400D02*Y88400D01*
X207000Y88900D02*X206500Y88400D01*
X207000Y88900D02*X208000D01*
X208500Y88400D01*
X206500Y86900D02*X208000D01*
X208500Y86400D01*
Y87400D02*Y88400D01*
Y87400D02*X208000Y86900D01*
X204500Y62500D02*Y63500D01*
Y63000D02*X208500D01*
Y62500D02*Y63500D01*
X207000Y61300D02*X208000D01*
X207000D02*X206500Y60800D01*
Y59800D02*Y60800D01*
Y59800D02*X207000Y59300D01*
X208000D01*
X208500Y59800D02*X208000Y59300D01*
X208500Y59800D02*Y60800D01*
X208000Y61300D02*X208500Y60800D01*
X206500Y58100D02*X208000D01*
X208500Y57600D01*
Y57100D02*Y57600D01*
Y57100D02*X208000Y56600D01*
X206500D02*X208000D01*
X208500Y56100D01*
Y55600D02*Y56100D01*
Y55600D02*X208000Y55100D01*
X206500D02*X208000D01*
X206500Y52400D02*X207000Y51900D01*
X206500Y52400D02*Y53400D01*
X207000Y53900D02*X206500Y53400D01*
X207000Y53900D02*X208000D01*
X208500Y53400D01*
X206500Y51900D02*X208000D01*
X208500Y51400D01*
Y52400D02*Y53400D01*
Y52400D02*X208000Y51900D01*
X219300Y131000D02*Y132500D01*
X221500Y130500D02*Y132500D01*
X217500D02*X221500D01*
X217500Y130500D02*Y132500D01*
X220000Y128800D02*X221500D01*
X220000D02*X219500Y128300D01*
Y127800D02*Y128300D01*
Y127800D02*X220000Y127300D01*
X221500D01*
X219500Y129300D02*X220000Y128800D01*
X219500Y124600D02*X220000Y124100D01*
X219500Y124600D02*Y125600D01*
X220000Y126100D02*X219500Y125600D01*
X220000Y126100D02*X221000D01*
X221500Y125600D01*
Y124600D02*Y125600D01*
Y124600D02*X221000Y124100D01*
X222500Y126100D02*X223000Y125600D01*
Y124600D02*Y125600D01*
Y124600D02*X222500Y124100D01*
X219500D02*X222500D01*
X221500Y122400D02*Y122900D01*
X219300Y96000D02*Y97500D01*
X221500Y95500D02*Y97500D01*
X217500D02*X221500D01*
X217500Y95500D02*Y97500D01*
X220000Y93800D02*X221500D01*
X220000D02*X219500Y93300D01*
Y92800D02*Y93300D01*
Y92800D02*X220000Y92300D01*
X221500D01*
X219500Y94300D02*X220000Y93800D01*
X219500Y89600D02*X220000Y89100D01*
X219500Y89600D02*Y90600D01*
X220000Y91100D02*X219500Y90600D01*
X220000Y91100D02*X221000D01*
X221500Y90600D01*
Y89600D02*Y90600D01*
Y89600D02*X221000Y89100D01*
X222500Y91100D02*X223000Y90600D01*
Y89600D02*Y90600D01*
Y89600D02*X222500Y89100D01*
X219500D02*X222500D01*
X221500Y87400D02*Y87900D01*
X219300Y61000D02*Y62500D01*
X221500Y60500D02*Y62500D01*
X217500D02*X221500D01*
X217500Y60500D02*Y62500D01*
X220000Y58800D02*X221500D01*
X220000D02*X219500Y58300D01*
Y57800D02*Y58300D01*
Y57800D02*X220000Y57300D01*
X221500D01*
X219500Y59300D02*X220000Y58800D01*
X219500Y54600D02*X220000Y54100D01*
X219500Y54600D02*Y55600D01*
X220000Y56100D02*X219500Y55600D01*
X220000Y56100D02*X221000D01*
X221500Y55600D01*
Y54600D02*Y55600D01*
Y54600D02*X221000Y54100D01*
X222500Y56100D02*X223000Y55600D01*
Y54600D02*Y55600D01*
Y54600D02*X222500Y54100D01*
X219500D02*X222500D01*
X221500Y52400D02*Y52900D01*
X219300Y26000D02*Y27500D01*
X221500Y25500D02*Y27500D01*
X217500D02*X221500D01*
X217500Y25500D02*Y27500D01*
X220000Y23800D02*X221500D01*
X220000D02*X219500Y23300D01*
Y22800D02*Y23300D01*
Y22800D02*X220000Y22300D01*
X221500D01*
X219500Y24300D02*X220000Y23800D01*
X219500Y19600D02*X220000Y19100D01*
X219500Y19600D02*Y20600D01*
X220000Y21100D02*X219500Y20600D01*
X220000Y21100D02*X221000D01*
X221500Y20600D01*
Y19600D02*Y20600D01*
Y19600D02*X221000Y19100D01*
X222500Y21100D02*X223000Y20600D01*
Y19600D02*Y20600D01*
Y19600D02*X222500Y19100D01*
X219500D02*X222500D01*
X221500Y17400D02*Y17900D01*
X211000Y29000D02*X211500Y28500D01*
X211000Y29000D02*Y30500D01*
X211500Y31000D02*X211000Y30500D01*
X211500Y31000D02*X212500D01*
X213000Y30500D01*
Y29000D02*Y30500D01*
Y29000D02*X213500Y28500D01*
X214500D01*
X215000Y29000D02*X214500Y28500D01*
X215000Y29000D02*Y30500D01*
X214500Y31000D02*X215000Y30500D01*
X213000Y25300D02*Y26800D01*
X213500Y27300D02*X213000Y26800D01*
X213500Y27300D02*X214500D01*
X215000Y26800D01*
Y25300D02*Y26800D01*
X213000Y22600D02*X213500Y22100D01*
X213000Y22600D02*Y23600D01*
X213500Y24100D02*X213000Y23600D01*
X213500Y24100D02*X214500D01*
X215000Y23600D01*
X213000Y22100D02*X214500D01*
X215000Y21600D01*
Y22600D02*Y23600D01*
Y22600D02*X214500Y22100D01*
X211000Y20400D02*X214500D01*
X215000Y19900D01*
Y16900D02*Y18400D01*
X214500Y18900D02*X215000Y18400D01*
X213500Y18900D02*X214500D01*
X213500D02*X213000Y18400D01*
Y17400D02*Y18400D01*
Y17400D02*X213500Y16900D01*
X214000D02*Y18900D01*
X213500Y16900D02*X214000D01*
X211000Y13700D02*X215000D01*
Y14200D02*X214500Y13700D01*
X215000Y14200D02*Y15200D01*
X214500Y15700D02*X215000Y15200D01*
X213500Y15700D02*X214500D01*
X213500D02*X213000Y15200D01*
Y14200D02*Y15200D01*
Y14200D02*X213500Y13700D01*
X204500Y27500D02*Y28500D01*
Y28000D02*X208500D01*
Y27500D02*Y28500D01*
X207000Y26300D02*X208000D01*
X207000D02*X206500Y25800D01*
Y24800D02*Y25800D01*
Y24800D02*X207000Y24300D01*
X208000D01*
X208500Y24800D02*X208000Y24300D01*
X208500Y24800D02*Y25800D01*
X208000Y26300D02*X208500Y25800D01*
X206500Y23100D02*X208000D01*
X208500Y22600D01*
Y22100D02*Y22600D01*
Y22100D02*X208000Y21600D01*
X206500D02*X208000D01*
X208500Y21100D01*
Y20600D02*Y21100D01*
Y20600D02*X208000Y20100D01*
X206500D02*X208000D01*
X206500Y17400D02*X207000Y16900D01*
X206500Y17400D02*Y18400D01*
X207000Y18900D02*X206500Y18400D01*
X207000Y18900D02*X208000D01*
X208500Y18400D01*
X206500Y16900D02*X208000D01*
X208500Y16400D01*
Y17400D02*Y18400D01*
Y17400D02*X208000Y16900D01*
X84457Y416631D02*Y416720D01*
Y414050D02*Y415385D01*
X82232Y415830D02*X81787Y415385D01*
X82232Y415830D02*X83122D01*
X83567Y415385D02*X83122Y415830D01*
X83567Y414495D02*Y415385D01*
Y414495D02*X83122Y414050D01*
X81787Y414495D02*Y415830D01*
Y414495D02*X81342Y414050D01*
X82232D02*X83122D01*
X82232D02*X81787Y414495D01*
X78494Y414050D02*X79829D01*
X78494D02*X78049Y414495D01*
X78494Y414940D02*X78049Y414495D01*
X78494Y414940D02*X79829D01*
X80274Y415385D02*X79829Y414940D01*
X80274Y415385D02*X79829Y415830D01*
X78494D02*X79829D01*
X78494D02*X78049Y415385D01*
X80274Y414495D02*X79829Y414050D01*
X75201Y415830D02*X76536D01*
X76981Y415385D02*X76536Y415830D01*
X76981Y414495D02*Y415385D01*
Y414495D02*X76536Y414050D01*
X75201D02*X76536D01*
X72798Y415830D02*X72353Y415385D01*
X72798Y415830D02*X73688D01*
X74133Y415385D02*X73688Y415830D01*
X74133Y414495D02*Y415385D01*
Y414495D02*X73688Y414050D01*
X72353Y414495D02*Y415830D01*
Y414495D02*X71908Y414050D01*
X72798D02*X73688D01*
X72798D02*X72353Y414495D01*
X70840D02*Y417610D01*
Y414495D02*X70395Y414050D01*
X67725D02*X69060D01*
X69505Y414495D02*X69060Y414050D01*
X69505Y414495D02*Y415385D01*
X69060Y415830D01*
X68170D02*X69060D01*
X68170D02*X67725Y415385D01*
Y414940D02*X69505D01*
X67725D02*Y415385D01*
X64877Y414050D02*Y417610D01*
X65322Y414050D02*X64877Y414495D01*
X65322Y414050D02*X66212D01*
X66657Y414495D02*X66212Y414050D01*
X66657Y414495D02*Y415385D01*
X66212Y415830D01*
X65322D02*X66212D01*
X65322D02*X64877Y415385D01*
X63364Y414050D02*X63809D01*
X60516Y415830D02*X61851D01*
X62296Y415385D02*X61851Y415830D01*
X62296Y414495D02*Y415385D01*
Y414495D02*X61851Y414050D01*
X60516D02*X61851D01*
X59448Y414495D02*Y415385D01*
X59003Y415830D01*
X58113D02*X59003D01*
X58113D02*X57668Y415385D01*
Y414495D02*Y415385D01*
X58113Y414050D02*X57668Y414495D01*
X58113Y414050D02*X59003D01*
X59448Y414495D02*X59003Y414050D01*
X56155D02*Y415385D01*
X55710Y415830D01*
X55265D02*X55710D01*
X55265D02*X54820Y415385D01*
Y414050D02*Y415385D01*
X54375Y415830D01*
X53930D02*X54375D01*
X53930D02*X53485Y415385D01*
Y414050D02*Y415385D01*
X56600Y415830D02*X56155Y415385D01*
X84457Y381631D02*Y381720D01*
Y379050D02*Y380385D01*
X82232Y380830D02*X81787Y380385D01*
X82232Y380830D02*X83122D01*
X83567Y380385D02*X83122Y380830D01*
X83567Y379495D02*Y380385D01*
Y379495D02*X83122Y379050D01*
X81787Y379495D02*Y380830D01*
Y379495D02*X81342Y379050D01*
X82232D02*X83122D01*
X82232D02*X81787Y379495D01*
X78494Y379050D02*X79829D01*
X78494D02*X78049Y379495D01*
X78494Y379940D02*X78049Y379495D01*
X78494Y379940D02*X79829D01*
X80274Y380385D02*X79829Y379940D01*
X80274Y380385D02*X79829Y380830D01*
X78494D02*X79829D01*
X78494D02*X78049Y380385D01*
X80274Y379495D02*X79829Y379050D01*
X75201Y380830D02*X76536D01*
X76981Y380385D02*X76536Y380830D01*
X76981Y379495D02*Y380385D01*
Y379495D02*X76536Y379050D01*
X75201D02*X76536D01*
X72798Y380830D02*X72353Y380385D01*
X72798Y380830D02*X73688D01*
X74133Y380385D02*X73688Y380830D01*
X74133Y379495D02*Y380385D01*
Y379495D02*X73688Y379050D01*
X72353Y379495D02*Y380830D01*
Y379495D02*X71908Y379050D01*
X72798D02*X73688D01*
X72798D02*X72353Y379495D01*
X70840D02*Y382610D01*
Y379495D02*X70395Y379050D01*
X67725D02*X69060D01*
X69505Y379495D02*X69060Y379050D01*
X69505Y379495D02*Y380385D01*
X69060Y380830D01*
X68170D02*X69060D01*
X68170D02*X67725Y380385D01*
Y379940D02*X69505D01*
X67725D02*Y380385D01*
X64877Y379050D02*Y382610D01*
X65322Y379050D02*X64877Y379495D01*
X65322Y379050D02*X66212D01*
X66657Y379495D02*X66212Y379050D01*
X66657Y379495D02*Y380385D01*
X66212Y380830D01*
X65322D02*X66212D01*
X65322D02*X64877Y380385D01*
X63364Y379050D02*X63809D01*
X60516Y380830D02*X61851D01*
X62296Y380385D02*X61851Y380830D01*
X62296Y379495D02*Y380385D01*
Y379495D02*X61851Y379050D01*
X60516D02*X61851D01*
X59448Y379495D02*Y380385D01*
X59003Y380830D01*
X58113D02*X59003D01*
X58113D02*X57668Y380385D01*
Y379495D02*Y380385D01*
X58113Y379050D02*X57668Y379495D01*
X58113Y379050D02*X59003D01*
X59448Y379495D02*X59003Y379050D01*
X56155D02*Y380385D01*
X55710Y380830D01*
X55265D02*X55710D01*
X55265D02*X54820Y380385D01*
Y379050D02*Y380385D01*
X54375Y380830D01*
X53930D02*X54375D01*
X53930D02*X53485Y380385D01*
Y379050D02*Y380385D01*
X56600Y380830D02*X56155Y380385D01*
X84457Y346631D02*Y346720D01*
Y344050D02*Y345385D01*
X82232Y345830D02*X81787Y345385D01*
X82232Y345830D02*X83122D01*
X83567Y345385D02*X83122Y345830D01*
X83567Y344495D02*Y345385D01*
Y344495D02*X83122Y344050D01*
X81787Y344495D02*Y345830D01*
Y344495D02*X81342Y344050D01*
X82232D02*X83122D01*
X82232D02*X81787Y344495D01*
X78494Y344050D02*X79829D01*
X78494D02*X78049Y344495D01*
X78494Y344940D02*X78049Y344495D01*
X78494Y344940D02*X79829D01*
X80274Y345385D02*X79829Y344940D01*
X80274Y345385D02*X79829Y345830D01*
X78494D02*X79829D01*
X78494D02*X78049Y345385D01*
X80274Y344495D02*X79829Y344050D01*
X75201Y345830D02*X76536D01*
X76981Y345385D02*X76536Y345830D01*
X76981Y344495D02*Y345385D01*
Y344495D02*X76536Y344050D01*
X75201D02*X76536D01*
X72798Y345830D02*X72353Y345385D01*
X72798Y345830D02*X73688D01*
X74133Y345385D02*X73688Y345830D01*
X74133Y344495D02*Y345385D01*
Y344495D02*X73688Y344050D01*
X72353Y344495D02*Y345830D01*
Y344495D02*X71908Y344050D01*
X72798D02*X73688D01*
X72798D02*X72353Y344495D01*
X70840D02*Y347610D01*
Y344495D02*X70395Y344050D01*
X67725D02*X69060D01*
X69505Y344495D02*X69060Y344050D01*
X69505Y344495D02*Y345385D01*
X69060Y345830D01*
X68170D02*X69060D01*
X68170D02*X67725Y345385D01*
Y344940D02*X69505D01*
X67725D02*Y345385D01*
X64877Y344050D02*Y347610D01*
X65322Y344050D02*X64877Y344495D01*
X65322Y344050D02*X66212D01*
X66657Y344495D02*X66212Y344050D01*
X66657Y344495D02*Y345385D01*
X66212Y345830D01*
X65322D02*X66212D01*
X65322D02*X64877Y345385D01*
X63364Y344050D02*X63809D01*
X60516Y345830D02*X61851D01*
X62296Y345385D02*X61851Y345830D01*
X62296Y344495D02*Y345385D01*
Y344495D02*X61851Y344050D01*
X60516D02*X61851D01*
X59448Y344495D02*Y345385D01*
X59003Y345830D01*
X58113D02*X59003D01*
X58113D02*X57668Y345385D01*
Y344495D02*Y345385D01*
X58113Y344050D02*X57668Y344495D01*
X58113Y344050D02*X59003D01*
X59448Y344495D02*X59003Y344050D01*
X56155D02*Y345385D01*
X55710Y345830D01*
X55265D02*X55710D01*
X55265D02*X54820Y345385D01*
Y344050D02*Y345385D01*
X54375Y345830D01*
X53930D02*X54375D01*
X53930D02*X53485Y345385D01*
Y344050D02*Y345385D01*
X56600Y345830D02*X56155Y345385D01*
X84457Y311631D02*Y311720D01*
Y309050D02*Y310385D01*
X82232Y310830D02*X81787Y310385D01*
X82232Y310830D02*X83122D01*
X83567Y310385D02*X83122Y310830D01*
X83567Y309495D02*Y310385D01*
Y309495D02*X83122Y309050D01*
X81787Y309495D02*Y310830D01*
Y309495D02*X81342Y309050D01*
X82232D02*X83122D01*
X82232D02*X81787Y309495D01*
X78494Y309050D02*X79829D01*
X78494D02*X78049Y309495D01*
X78494Y309940D02*X78049Y309495D01*
X78494Y309940D02*X79829D01*
X80274Y310385D02*X79829Y309940D01*
X80274Y310385D02*X79829Y310830D01*
X78494D02*X79829D01*
X78494D02*X78049Y310385D01*
X80274Y309495D02*X79829Y309050D01*
X75201Y310830D02*X76536D01*
X76981Y310385D02*X76536Y310830D01*
X76981Y309495D02*Y310385D01*
Y309495D02*X76536Y309050D01*
X75201D02*X76536D01*
X72798Y310830D02*X72353Y310385D01*
X72798Y310830D02*X73688D01*
X74133Y310385D02*X73688Y310830D01*
X74133Y309495D02*Y310385D01*
Y309495D02*X73688Y309050D01*
X72353Y309495D02*Y310830D01*
Y309495D02*X71908Y309050D01*
X72798D02*X73688D01*
X72798D02*X72353Y309495D01*
X70840D02*Y312610D01*
Y309495D02*X70395Y309050D01*
X67725D02*X69060D01*
X69505Y309495D02*X69060Y309050D01*
X69505Y309495D02*Y310385D01*
X69060Y310830D01*
X68170D02*X69060D01*
X68170D02*X67725Y310385D01*
Y309940D02*X69505D01*
X67725D02*Y310385D01*
X64877Y309050D02*Y312610D01*
X65322Y309050D02*X64877Y309495D01*
X65322Y309050D02*X66212D01*
X66657Y309495D02*X66212Y309050D01*
X66657Y309495D02*Y310385D01*
X66212Y310830D01*
X65322D02*X66212D01*
X65322D02*X64877Y310385D01*
X63364Y309050D02*X63809D01*
X60516Y310830D02*X61851D01*
X62296Y310385D02*X61851Y310830D01*
X62296Y309495D02*Y310385D01*
Y309495D02*X61851Y309050D01*
X60516D02*X61851D01*
X59448Y309495D02*Y310385D01*
X59003Y310830D01*
X58113D02*X59003D01*
X58113D02*X57668Y310385D01*
Y309495D02*Y310385D01*
X58113Y309050D02*X57668Y309495D01*
X58113Y309050D02*X59003D01*
X59448Y309495D02*X59003Y309050D01*
X56155D02*Y310385D01*
X55710Y310830D01*
X55265D02*X55710D01*
X55265D02*X54820Y310385D01*
Y309050D02*Y310385D01*
X54375Y310830D01*
X53930D02*X54375D01*
X53930D02*X53485Y310385D01*
Y309050D02*Y310385D01*
X56600Y310830D02*X56155Y310385D01*
X84457Y276631D02*Y276720D01*
Y274050D02*Y275385D01*
X82232Y275830D02*X81787Y275385D01*
X82232Y275830D02*X83122D01*
X83567Y275385D02*X83122Y275830D01*
X83567Y274495D02*Y275385D01*
Y274495D02*X83122Y274050D01*
X81787Y274495D02*Y275830D01*
Y274495D02*X81342Y274050D01*
X82232D02*X83122D01*
X82232D02*X81787Y274495D01*
X78494Y274050D02*X79829D01*
X78494D02*X78049Y274495D01*
X78494Y274940D02*X78049Y274495D01*
X78494Y274940D02*X79829D01*
X80274Y275385D02*X79829Y274940D01*
X80274Y275385D02*X79829Y275830D01*
X78494D02*X79829D01*
X78494D02*X78049Y275385D01*
X80274Y274495D02*X79829Y274050D01*
X75201Y275830D02*X76536D01*
X76981Y275385D02*X76536Y275830D01*
X76981Y274495D02*Y275385D01*
Y274495D02*X76536Y274050D01*
X75201D02*X76536D01*
X72798Y275830D02*X72353Y275385D01*
X72798Y275830D02*X73688D01*
X74133Y275385D02*X73688Y275830D01*
X74133Y274495D02*Y275385D01*
Y274495D02*X73688Y274050D01*
X72353Y274495D02*Y275830D01*
Y274495D02*X71908Y274050D01*
X72798D02*X73688D01*
X72798D02*X72353Y274495D01*
X70840D02*Y277610D01*
Y274495D02*X70395Y274050D01*
X67725D02*X69060D01*
X69505Y274495D02*X69060Y274050D01*
X69505Y274495D02*Y275385D01*
X69060Y275830D01*
X68170D02*X69060D01*
X68170D02*X67725Y275385D01*
Y274940D02*X69505D01*
X67725D02*Y275385D01*
X64877Y274050D02*Y277610D01*
X65322Y274050D02*X64877Y274495D01*
X65322Y274050D02*X66212D01*
X66657Y274495D02*X66212Y274050D01*
X66657Y274495D02*Y275385D01*
X66212Y275830D01*
X65322D02*X66212D01*
X65322D02*X64877Y275385D01*
X63364Y274050D02*X63809D01*
X60516Y275830D02*X61851D01*
X62296Y275385D02*X61851Y275830D01*
X62296Y274495D02*Y275385D01*
Y274495D02*X61851Y274050D01*
X60516D02*X61851D01*
X59448Y274495D02*Y275385D01*
X59003Y275830D01*
X58113D02*X59003D01*
X58113D02*X57668Y275385D01*
Y274495D02*Y275385D01*
X58113Y274050D02*X57668Y274495D01*
X58113Y274050D02*X59003D01*
X59448Y274495D02*X59003Y274050D01*
X56155D02*Y275385D01*
X55710Y275830D01*
X55265D02*X55710D01*
X55265D02*X54820Y275385D01*
Y274050D02*Y275385D01*
X54375Y275830D01*
X53930D02*X54375D01*
X53930D02*X53485Y275385D01*
Y274050D02*Y275385D01*
X56600Y275830D02*X56155Y275385D01*
X84457Y241631D02*Y241720D01*
Y239050D02*Y240385D01*
X82232Y240830D02*X81787Y240385D01*
X82232Y240830D02*X83122D01*
X83567Y240385D02*X83122Y240830D01*
X83567Y239495D02*Y240385D01*
Y239495D02*X83122Y239050D01*
X81787Y239495D02*Y240830D01*
Y239495D02*X81342Y239050D01*
X82232D02*X83122D01*
X82232D02*X81787Y239495D01*
X78494Y239050D02*X79829D01*
X78494D02*X78049Y239495D01*
X78494Y239940D02*X78049Y239495D01*
X78494Y239940D02*X79829D01*
X80274Y240385D02*X79829Y239940D01*
X80274Y240385D02*X79829Y240830D01*
X78494D02*X79829D01*
X78494D02*X78049Y240385D01*
X80274Y239495D02*X79829Y239050D01*
X75201Y240830D02*X76536D01*
X76981Y240385D02*X76536Y240830D01*
X76981Y239495D02*Y240385D01*
Y239495D02*X76536Y239050D01*
X75201D02*X76536D01*
X72798Y240830D02*X72353Y240385D01*
X72798Y240830D02*X73688D01*
X74133Y240385D02*X73688Y240830D01*
X74133Y239495D02*Y240385D01*
Y239495D02*X73688Y239050D01*
X72353Y239495D02*Y240830D01*
Y239495D02*X71908Y239050D01*
X72798D02*X73688D01*
X72798D02*X72353Y239495D01*
X70840D02*Y242610D01*
Y239495D02*X70395Y239050D01*
X67725D02*X69060D01*
X69505Y239495D02*X69060Y239050D01*
X69505Y239495D02*Y240385D01*
X69060Y240830D01*
X68170D02*X69060D01*
X68170D02*X67725Y240385D01*
Y239940D02*X69505D01*
X67725D02*Y240385D01*
X64877Y239050D02*Y242610D01*
X65322Y239050D02*X64877Y239495D01*
X65322Y239050D02*X66212D01*
X66657Y239495D02*X66212Y239050D01*
X66657Y239495D02*Y240385D01*
X66212Y240830D01*
X65322D02*X66212D01*
X65322D02*X64877Y240385D01*
X63364Y239050D02*X63809D01*
X60516Y240830D02*X61851D01*
X62296Y240385D02*X61851Y240830D01*
X62296Y239495D02*Y240385D01*
Y239495D02*X61851Y239050D01*
X60516D02*X61851D01*
X59448Y239495D02*Y240385D01*
X59003Y240830D01*
X58113D02*X59003D01*
X58113D02*X57668Y240385D01*
Y239495D02*Y240385D01*
X58113Y239050D02*X57668Y239495D01*
X58113Y239050D02*X59003D01*
X59448Y239495D02*X59003Y239050D01*
X56155D02*Y240385D01*
X55710Y240830D01*
X55265D02*X55710D01*
X55265D02*X54820Y240385D01*
Y239050D02*Y240385D01*
X54375Y240830D01*
X53930D02*X54375D01*
X53930D02*X53485Y240385D01*
Y239050D02*Y240385D01*
X56600Y240830D02*X56155Y240385D01*
X84457Y206631D02*Y206720D01*
Y204050D02*Y205385D01*
X82232Y205830D02*X81787Y205385D01*
X82232Y205830D02*X83122D01*
X83567Y205385D02*X83122Y205830D01*
X83567Y204495D02*Y205385D01*
Y204495D02*X83122Y204050D01*
X81787Y204495D02*Y205830D01*
Y204495D02*X81342Y204050D01*
X82232D02*X83122D01*
X82232D02*X81787Y204495D01*
X78494Y204050D02*X79829D01*
X78494D02*X78049Y204495D01*
X78494Y204940D02*X78049Y204495D01*
X78494Y204940D02*X79829D01*
X80274Y205385D02*X79829Y204940D01*
X80274Y205385D02*X79829Y205830D01*
X78494D02*X79829D01*
X78494D02*X78049Y205385D01*
X80274Y204495D02*X79829Y204050D01*
X75201Y205830D02*X76536D01*
X76981Y205385D02*X76536Y205830D01*
X76981Y204495D02*Y205385D01*
Y204495D02*X76536Y204050D01*
X75201D02*X76536D01*
X72798Y205830D02*X72353Y205385D01*
X72798Y205830D02*X73688D01*
X74133Y205385D02*X73688Y205830D01*
X74133Y204495D02*Y205385D01*
Y204495D02*X73688Y204050D01*
X72353Y204495D02*Y205830D01*
Y204495D02*X71908Y204050D01*
X72798D02*X73688D01*
X72798D02*X72353Y204495D01*
X70840D02*Y207610D01*
Y204495D02*X70395Y204050D01*
X67725D02*X69060D01*
X69505Y204495D02*X69060Y204050D01*
X69505Y204495D02*Y205385D01*
X69060Y205830D01*
X68170D02*X69060D01*
X68170D02*X67725Y205385D01*
Y204940D02*X69505D01*
X67725D02*Y205385D01*
X64877Y204050D02*Y207610D01*
X65322Y204050D02*X64877Y204495D01*
X65322Y204050D02*X66212D01*
X66657Y204495D02*X66212Y204050D01*
X66657Y204495D02*Y205385D01*
X66212Y205830D01*
X65322D02*X66212D01*
X65322D02*X64877Y205385D01*
X63364Y204050D02*X63809D01*
X60516Y205830D02*X61851D01*
X62296Y205385D02*X61851Y205830D01*
X62296Y204495D02*Y205385D01*
Y204495D02*X61851Y204050D01*
X60516D02*X61851D01*
X59448Y204495D02*Y205385D01*
X59003Y205830D01*
X58113D02*X59003D01*
X58113D02*X57668Y205385D01*
Y204495D02*Y205385D01*
X58113Y204050D02*X57668Y204495D01*
X58113Y204050D02*X59003D01*
X59448Y204495D02*X59003Y204050D01*
X56155D02*Y205385D01*
X55710Y205830D01*
X55265D02*X55710D01*
X55265D02*X54820Y205385D01*
Y204050D02*Y205385D01*
X54375Y205830D01*
X53930D02*X54375D01*
X53930D02*X53485Y205385D01*
Y204050D02*Y205385D01*
X56600Y205830D02*X56155Y205385D01*
X84457Y171631D02*Y171720D01*
Y169050D02*Y170385D01*
X82232Y170830D02*X81787Y170385D01*
X82232Y170830D02*X83122D01*
X83567Y170385D02*X83122Y170830D01*
X83567Y169495D02*Y170385D01*
Y169495D02*X83122Y169050D01*
X81787Y169495D02*Y170830D01*
Y169495D02*X81342Y169050D01*
X82232D02*X83122D01*
X82232D02*X81787Y169495D01*
X78494Y169050D02*X79829D01*
X78494D02*X78049Y169495D01*
X78494Y169940D02*X78049Y169495D01*
X78494Y169940D02*X79829D01*
X80274Y170385D02*X79829Y169940D01*
X80274Y170385D02*X79829Y170830D01*
X78494D02*X79829D01*
X78494D02*X78049Y170385D01*
X80274Y169495D02*X79829Y169050D01*
X75201Y170830D02*X76536D01*
X76981Y170385D02*X76536Y170830D01*
X76981Y169495D02*Y170385D01*
Y169495D02*X76536Y169050D01*
X75201D02*X76536D01*
X72798Y170830D02*X72353Y170385D01*
X72798Y170830D02*X73688D01*
X74133Y170385D02*X73688Y170830D01*
X74133Y169495D02*Y170385D01*
Y169495D02*X73688Y169050D01*
X72353Y169495D02*Y170830D01*
Y169495D02*X71908Y169050D01*
X72798D02*X73688D01*
X72798D02*X72353Y169495D01*
X70840D02*Y172610D01*
Y169495D02*X70395Y169050D01*
X67725D02*X69060D01*
X69505Y169495D02*X69060Y169050D01*
X69505Y169495D02*Y170385D01*
X69060Y170830D01*
X68170D02*X69060D01*
X68170D02*X67725Y170385D01*
Y169940D02*X69505D01*
X67725D02*Y170385D01*
X64877Y169050D02*Y172610D01*
X65322Y169050D02*X64877Y169495D01*
X65322Y169050D02*X66212D01*
X66657Y169495D02*X66212Y169050D01*
X66657Y169495D02*Y170385D01*
X66212Y170830D01*
X65322D02*X66212D01*
X65322D02*X64877Y170385D01*
X63364Y169050D02*X63809D01*
X60516Y170830D02*X61851D01*
X62296Y170385D02*X61851Y170830D01*
X62296Y169495D02*Y170385D01*
Y169495D02*X61851Y169050D01*
X60516D02*X61851D01*
X59448Y169495D02*Y170385D01*
X59003Y170830D01*
X58113D02*X59003D01*
X58113D02*X57668Y170385D01*
Y169495D02*Y170385D01*
X58113Y169050D02*X57668Y169495D01*
X58113Y169050D02*X59003D01*
X59448Y169495D02*X59003Y169050D01*
X56155D02*Y170385D01*
X55710Y170830D01*
X55265D02*X55710D01*
X55265D02*X54820Y170385D01*
Y169050D02*Y170385D01*
X54375Y170830D01*
X53930D02*X54375D01*
X53930D02*X53485Y170385D01*
Y169050D02*Y170385D01*
X56600Y170830D02*X56155Y170385D01*
X84457Y136631D02*Y136720D01*
Y134050D02*Y135385D01*
X82232Y135830D02*X81787Y135385D01*
X82232Y135830D02*X83122D01*
X83567Y135385D02*X83122Y135830D01*
X83567Y134495D02*Y135385D01*
Y134495D02*X83122Y134050D01*
X81787Y134495D02*Y135830D01*
Y134495D02*X81342Y134050D01*
X82232D02*X83122D01*
X82232D02*X81787Y134495D01*
X78494Y134050D02*X79829D01*
X78494D02*X78049Y134495D01*
X78494Y134940D02*X78049Y134495D01*
X78494Y134940D02*X79829D01*
X80274Y135385D02*X79829Y134940D01*
X80274Y135385D02*X79829Y135830D01*
X78494D02*X79829D01*
X78494D02*X78049Y135385D01*
X80274Y134495D02*X79829Y134050D01*
X75201Y135830D02*X76536D01*
X76981Y135385D02*X76536Y135830D01*
X76981Y134495D02*Y135385D01*
Y134495D02*X76536Y134050D01*
X75201D02*X76536D01*
X72798Y135830D02*X72353Y135385D01*
X72798Y135830D02*X73688D01*
X74133Y135385D02*X73688Y135830D01*
X74133Y134495D02*Y135385D01*
Y134495D02*X73688Y134050D01*
X72353Y134495D02*Y135830D01*
Y134495D02*X71908Y134050D01*
X72798D02*X73688D01*
X72798D02*X72353Y134495D01*
X70840D02*Y137610D01*
Y134495D02*X70395Y134050D01*
X67725D02*X69060D01*
X69505Y134495D02*X69060Y134050D01*
X69505Y134495D02*Y135385D01*
X69060Y135830D01*
X68170D02*X69060D01*
X68170D02*X67725Y135385D01*
Y134940D02*X69505D01*
X67725D02*Y135385D01*
X64877Y134050D02*Y137610D01*
X65322Y134050D02*X64877Y134495D01*
X65322Y134050D02*X66212D01*
X66657Y134495D02*X66212Y134050D01*
X66657Y134495D02*Y135385D01*
X66212Y135830D01*
X65322D02*X66212D01*
X65322D02*X64877Y135385D01*
X63364Y134050D02*X63809D01*
X60516Y135830D02*X61851D01*
X62296Y135385D02*X61851Y135830D01*
X62296Y134495D02*Y135385D01*
Y134495D02*X61851Y134050D01*
X60516D02*X61851D01*
X59448Y134495D02*Y135385D01*
X59003Y135830D01*
X58113D02*X59003D01*
X58113D02*X57668Y135385D01*
Y134495D02*Y135385D01*
X58113Y134050D02*X57668Y134495D01*
X58113Y134050D02*X59003D01*
X59448Y134495D02*X59003Y134050D01*
X56155D02*Y135385D01*
X55710Y135830D01*
X55265D02*X55710D01*
X55265D02*X54820Y135385D01*
Y134050D02*Y135385D01*
X54375Y135830D01*
X53930D02*X54375D01*
X53930D02*X53485Y135385D01*
Y134050D02*Y135385D01*
X56600Y135830D02*X56155Y135385D01*
X84457Y101631D02*Y101720D01*
Y99050D02*Y100385D01*
X82232Y100830D02*X81787Y100385D01*
X82232Y100830D02*X83122D01*
X83567Y100385D02*X83122Y100830D01*
X83567Y99495D02*Y100385D01*
Y99495D02*X83122Y99050D01*
X81787Y99495D02*Y100830D01*
Y99495D02*X81342Y99050D01*
X82232D02*X83122D01*
X82232D02*X81787Y99495D01*
X78494Y99050D02*X79829D01*
X78494D02*X78049Y99495D01*
X78494Y99940D02*X78049Y99495D01*
X78494Y99940D02*X79829D01*
X80274Y100385D02*X79829Y99940D01*
X80274Y100385D02*X79829Y100830D01*
X78494D02*X79829D01*
X78494D02*X78049Y100385D01*
X80274Y99495D02*X79829Y99050D01*
X75201Y100830D02*X76536D01*
X76981Y100385D02*X76536Y100830D01*
X76981Y99495D02*Y100385D01*
Y99495D02*X76536Y99050D01*
X75201D02*X76536D01*
X72798Y100830D02*X72353Y100385D01*
X72798Y100830D02*X73688D01*
X74133Y100385D02*X73688Y100830D01*
X74133Y99495D02*Y100385D01*
Y99495D02*X73688Y99050D01*
X72353Y99495D02*Y100830D01*
Y99495D02*X71908Y99050D01*
X72798D02*X73688D01*
X72798D02*X72353Y99495D01*
X70840D02*Y102610D01*
Y99495D02*X70395Y99050D01*
X67725D02*X69060D01*
X69505Y99495D02*X69060Y99050D01*
X69505Y99495D02*Y100385D01*
X69060Y100830D01*
X68170D02*X69060D01*
X68170D02*X67725Y100385D01*
Y99940D02*X69505D01*
X67725D02*Y100385D01*
X64877Y99050D02*Y102610D01*
X65322Y99050D02*X64877Y99495D01*
X65322Y99050D02*X66212D01*
X66657Y99495D02*X66212Y99050D01*
X66657Y99495D02*Y100385D01*
X66212Y100830D01*
X65322D02*X66212D01*
X65322D02*X64877Y100385D01*
X63364Y99050D02*X63809D01*
X60516Y100830D02*X61851D01*
X62296Y100385D02*X61851Y100830D01*
X62296Y99495D02*Y100385D01*
Y99495D02*X61851Y99050D01*
X60516D02*X61851D01*
X59448Y99495D02*Y100385D01*
X59003Y100830D01*
X58113D02*X59003D01*
X58113D02*X57668Y100385D01*
Y99495D02*Y100385D01*
X58113Y99050D02*X57668Y99495D01*
X58113Y99050D02*X59003D01*
X59448Y99495D02*X59003Y99050D01*
X56155D02*Y100385D01*
X55710Y100830D01*
X55265D02*X55710D01*
X55265D02*X54820Y100385D01*
Y99050D02*Y100385D01*
X54375Y100830D01*
X53930D02*X54375D01*
X53930D02*X53485Y100385D01*
Y99050D02*Y100385D01*
X56600Y100830D02*X56155Y100385D01*
X84457Y66631D02*Y66720D01*
Y64050D02*Y65385D01*
X82232Y65830D02*X81787Y65385D01*
X82232Y65830D02*X83122D01*
X83567Y65385D02*X83122Y65830D01*
X83567Y64495D02*Y65385D01*
Y64495D02*X83122Y64050D01*
X81787Y64495D02*Y65830D01*
Y64495D02*X81342Y64050D01*
X82232D02*X83122D01*
X82232D02*X81787Y64495D01*
X78494Y64050D02*X79829D01*
X78494D02*X78049Y64495D01*
X78494Y64940D02*X78049Y64495D01*
X78494Y64940D02*X79829D01*
X80274Y65385D02*X79829Y64940D01*
X80274Y65385D02*X79829Y65830D01*
X78494D02*X79829D01*
X78494D02*X78049Y65385D01*
X80274Y64495D02*X79829Y64050D01*
X75201Y65830D02*X76536D01*
X76981Y65385D02*X76536Y65830D01*
X76981Y64495D02*Y65385D01*
Y64495D02*X76536Y64050D01*
X75201D02*X76536D01*
X72798Y65830D02*X72353Y65385D01*
X72798Y65830D02*X73688D01*
X74133Y65385D02*X73688Y65830D01*
X74133Y64495D02*Y65385D01*
Y64495D02*X73688Y64050D01*
X72353Y64495D02*Y65830D01*
Y64495D02*X71908Y64050D01*
X72798D02*X73688D01*
X72798D02*X72353Y64495D01*
X70840D02*Y67610D01*
Y64495D02*X70395Y64050D01*
X67725D02*X69060D01*
X69505Y64495D02*X69060Y64050D01*
X69505Y64495D02*Y65385D01*
X69060Y65830D01*
X68170D02*X69060D01*
X68170D02*X67725Y65385D01*
Y64940D02*X69505D01*
X67725D02*Y65385D01*
X64877Y64050D02*Y67610D01*
X65322Y64050D02*X64877Y64495D01*
X65322Y64050D02*X66212D01*
X66657Y64495D02*X66212Y64050D01*
X66657Y64495D02*Y65385D01*
X66212Y65830D01*
X65322D02*X66212D01*
X65322D02*X64877Y65385D01*
X63364Y64050D02*X63809D01*
X60516Y65830D02*X61851D01*
X62296Y65385D02*X61851Y65830D01*
X62296Y64495D02*Y65385D01*
Y64495D02*X61851Y64050D01*
X60516D02*X61851D01*
X59448Y64495D02*Y65385D01*
X59003Y65830D01*
X58113D02*X59003D01*
X58113D02*X57668Y65385D01*
Y64495D02*Y65385D01*
X58113Y64050D02*X57668Y64495D01*
X58113Y64050D02*X59003D01*
X59448Y64495D02*X59003Y64050D01*
X56155D02*Y65385D01*
X55710Y65830D01*
X55265D02*X55710D01*
X55265D02*X54820Y65385D01*
Y64050D02*Y65385D01*
X54375Y65830D01*
X53930D02*X54375D01*
X53930D02*X53485Y65385D01*
Y64050D02*Y65385D01*
X56600Y65830D02*X56155Y65385D01*
X84457Y31631D02*Y31720D01*
Y29050D02*Y30385D01*
X82232Y30830D02*X81787Y30385D01*
X82232Y30830D02*X83122D01*
X83567Y30385D02*X83122Y30830D01*
X83567Y29495D02*Y30385D01*
Y29495D02*X83122Y29050D01*
X81787Y29495D02*Y30830D01*
Y29495D02*X81342Y29050D01*
X82232D02*X83122D01*
X82232D02*X81787Y29495D01*
X78494Y29050D02*X79829D01*
X78494D02*X78049Y29495D01*
X78494Y29940D02*X78049Y29495D01*
X78494Y29940D02*X79829D01*
X80274Y30385D02*X79829Y29940D01*
X80274Y30385D02*X79829Y30830D01*
X78494D02*X79829D01*
X78494D02*X78049Y30385D01*
X80274Y29495D02*X79829Y29050D01*
X75201Y30830D02*X76536D01*
X76981Y30385D02*X76536Y30830D01*
X76981Y29495D02*Y30385D01*
Y29495D02*X76536Y29050D01*
X75201D02*X76536D01*
X72798Y30830D02*X72353Y30385D01*
X72798Y30830D02*X73688D01*
X74133Y30385D02*X73688Y30830D01*
X74133Y29495D02*Y30385D01*
Y29495D02*X73688Y29050D01*
X72353Y29495D02*Y30830D01*
Y29495D02*X71908Y29050D01*
X72798D02*X73688D01*
X72798D02*X72353Y29495D01*
X70840D02*Y32610D01*
Y29495D02*X70395Y29050D01*
X67725D02*X69060D01*
X69505Y29495D02*X69060Y29050D01*
X69505Y29495D02*Y30385D01*
X69060Y30830D01*
X68170D02*X69060D01*
X68170D02*X67725Y30385D01*
Y29940D02*X69505D01*
X67725D02*Y30385D01*
X64877Y29050D02*Y32610D01*
X65322Y29050D02*X64877Y29495D01*
X65322Y29050D02*X66212D01*
X66657Y29495D02*X66212Y29050D01*
X66657Y29495D02*Y30385D01*
X66212Y30830D01*
X65322D02*X66212D01*
X65322D02*X64877Y30385D01*
X63364Y29050D02*X63809D01*
X60516Y30830D02*X61851D01*
X62296Y30385D02*X61851Y30830D01*
X62296Y29495D02*Y30385D01*
Y29495D02*X61851Y29050D01*
X60516D02*X61851D01*
X59448Y29495D02*Y30385D01*
X59003Y30830D01*
X58113D02*X59003D01*
X58113D02*X57668Y30385D01*
Y29495D02*Y30385D01*
X58113Y29050D02*X57668Y29495D01*
X58113Y29050D02*X59003D01*
X59448Y29495D02*X59003Y29050D01*
X56155D02*Y30385D01*
X55710Y30830D01*
X55265D02*X55710D01*
X55265D02*X54820Y30385D01*
Y29050D02*Y30385D01*
X54375Y30830D01*
X53930D02*X54375D01*
X53930D02*X53485Y30385D01*
Y29050D02*Y30385D01*
X56600Y30830D02*X56155Y30385D01*
X181217Y416380D02*X183457D01*
X182337Y411900D02*Y416380D01*
X179313Y411900D02*Y413580D01*
X178753Y414140D01*
X177633D02*X178753D01*
X179873D02*X179313Y413580D01*
X174609Y414140D02*X174049Y413580D01*
X174609Y414140D02*X175729D01*
X176289Y413580D02*X175729Y414140D01*
X176289Y412460D02*Y413580D01*
Y412460D02*X175729Y411900D01*
X174049Y412460D02*Y414140D01*
Y412460D02*X173489Y411900D01*
X174609D02*X175729D01*
X174609D02*X174049Y412460D01*
X172145Y415148D02*Y415260D01*
Y411900D02*Y413580D01*
X170465Y411900D02*Y413580D01*
X169905Y414140D01*
X169345D02*X169905D01*
X169345D02*X168785Y413580D01*
Y411900D02*Y413580D01*
X171025Y414140D02*X170465Y413580D01*
X165201Y416380D02*X164641Y415820D01*
X165201Y416380D02*X166881D01*
X167441Y415820D02*X166881Y416380D01*
X167441Y414700D02*Y415820D01*
Y414700D02*X166881Y414140D01*
X165201D02*X166881D01*
X165201D02*X164641Y413580D01*
Y412460D02*Y413580D01*
X165201Y411900D02*X164641Y412460D01*
X165201Y411900D02*X166881D01*
X167441Y412460D02*X166881Y411900D01*
X162737Y410220D02*Y413580D01*
X163297Y414140D02*X162737Y413580D01*
X162177Y414140D01*
X161057D02*X162177D01*
X161057D02*X160497Y413580D01*
Y412460D02*Y413580D01*
X161057Y411900D02*X160497Y412460D01*
X161057Y411900D02*X162177D01*
X162737Y412460D02*X162177Y411900D01*
X159153Y412460D02*Y413580D01*
X158593Y414140D01*
X157473D02*X158593D01*
X157473D02*X156913Y413580D01*
Y412460D02*Y413580D01*
X157473Y411900D02*X156913Y412460D01*
X157473Y411900D02*X158593D01*
X159153Y412460D02*X158593Y411900D01*
X155009Y412460D02*Y416380D01*
Y412460D02*X154449Y411900D01*
Y414700D02*X155569D01*
X152769Y412460D02*Y416380D01*
Y412460D02*X152209Y411900D01*
Y414700D02*X153329D01*
X148849Y411900D02*X150529D01*
X151089Y412460D02*X150529Y411900D01*
X151089Y412460D02*Y413580D01*
X150529Y414140D01*
X149409D02*X150529D01*
X149409D02*X148849Y413580D01*
Y413020D02*X151089D01*
X148849D02*Y413580D01*
X146945Y411900D02*Y413580D01*
X146385Y414140D01*
X145265D02*X146385D01*
X147505D02*X146945Y413580D01*
X191200Y405000D02*X192370D01*
X193000Y405630D02*X192370Y405000D01*
X193000Y405630D02*Y407970D01*
X192370Y408600D01*
X191200D02*X192370D01*
X190120Y405000D02*Y408600D01*
Y406800D02*X188320Y408600D01*
X190120Y406800D02*X188320Y405000D01*
X185440Y408600D02*X187240D01*
X186340Y405000D02*Y408600D01*
X182560Y406800D02*X184360D01*
X180580Y408600D02*X181480D01*
X181030Y405000D02*Y408600D01*
X180580Y405000D02*X181480D01*
X177700Y408600D02*X179500D01*
X177700D02*X177250Y408150D01*
Y407250D02*Y408150D01*
X177700Y406800D02*X177250Y407250D01*
X177700Y406800D02*X179050D01*
Y405000D02*Y408600D01*
X178330Y406800D02*X177250Y405000D01*
X174370Y408600D02*X173920Y408150D01*
X174370Y408600D02*X175720D01*
X176170Y408150D02*X175720Y408600D01*
X176170Y407250D02*Y408150D01*
Y407250D02*X175720Y406800D01*
X174370D02*X175720D01*
X174370D02*X173920Y406350D01*
Y405450D02*Y406350D01*
X174370Y405000D02*X173920Y405450D01*
X174370Y405000D02*X175720D01*
X176170Y405450D02*X175720Y405000D01*
X171490Y406980D02*X172840D01*
X171040Y405000D02*X172840D01*
Y408600D01*
X171040D02*X172840D01*
X169960Y405000D02*Y408600D01*
X167710Y405000D01*
Y408600D01*
X164830D02*X164380Y408150D01*
X164830Y408600D02*X166180D01*
X166630Y408150D02*X166180Y408600D01*
X166630Y407250D02*Y408150D01*
Y407250D02*X166180Y406800D01*
X164830D02*X166180D01*
X164830D02*X164380Y406350D01*
Y405450D02*Y406350D01*
X164830Y405000D02*X164380Y405450D01*
X164830Y405000D02*X166180D01*
X166630Y405450D02*X166180Y405000D01*
X161950Y406980D02*X163300D01*
X161500Y405000D02*X163300D01*
Y408600D01*
X161500D02*X163300D01*
X158620Y406800D02*X160420D01*
X155740Y408600D02*X157540D01*
X155740D02*X155290Y408150D01*
Y407250D02*Y408150D01*
X155740Y406800D02*X155290Y407250D01*
X155740Y406800D02*X157090D01*
Y405000D02*Y408600D01*
X156370Y406800D02*X155290Y405000D01*
X154210D02*Y407700D01*
X153580Y408600D01*
X152590D02*X153580D01*
X152590D02*X151960Y407700D01*
Y405000D02*Y407700D01*
Y406800D02*X154210D01*
X149260D02*X148360Y405000D01*
X147460Y406800D02*X148360Y405000D01*
X146380Y406350D02*X144580Y408600D01*
X144130Y406350D02*X146380D01*
X144580Y405000D02*Y408600D01*
X142600Y405000D02*X143050D01*
X141520Y407880D02*X140800Y408600D01*
Y405000D02*Y408600D01*
X140170Y405000D02*X141520D01*
X159000Y398900D02*X158600Y398500D01*
X159000Y401300D02*X158600Y401700D01*
X159000Y398900D02*Y401300D01*
X156040Y398500D02*X157080D01*
X157640Y399060D02*X157080Y398500D01*
X157640Y399060D02*Y401140D01*
X157080Y401700D01*
X156040D02*X157080D01*
X155080D02*X154680Y401300D01*
Y398900D02*Y401300D01*
X155080Y398500D02*X154680Y398900D01*
X153720Y401300D02*X153320Y401700D01*
X152120D02*X153320D01*
X152120D02*X151720Y401300D01*
Y400500D02*Y401300D01*
X153720Y398500D02*X151720Y400500D01*
Y398500D02*X153720D01*
X150760Y398900D02*X150360Y398500D01*
X150760Y398900D02*Y401300D01*
X150360Y401700D01*
X149560D02*X150360D01*
X149560D02*X149160Y401300D01*
Y398900D02*Y401300D01*
X149560Y398500D02*X149160Y398900D01*
X149560Y398500D02*X150360D01*
X150760Y399300D02*X149160Y400900D01*
X148200Y401300D02*X147800Y401700D01*
X146600D02*X147800D01*
X146600D02*X146200Y401300D01*
Y400500D02*Y401300D01*
X148200Y398500D02*X146200Y400500D01*
Y398500D02*X148200D01*
X145240Y398900D02*X144840Y398500D01*
X145240Y398900D02*Y401300D01*
X144840Y401700D01*
X144040D02*X144840D01*
X144040D02*X143640Y401300D01*
Y398900D02*Y401300D01*
X144040Y398500D02*X143640Y398900D01*
X144040Y398500D02*X144840D01*
X145240Y399300D02*X143640Y400900D01*
X183900Y398500D02*X184940D01*
X185500Y399060D02*X184940Y398500D01*
X185500Y399060D02*Y401140D01*
X184940Y401700D01*
X183900D02*X184940D01*
X181340Y398500D02*X182380D01*
X182940Y399060D02*X182380Y398500D01*
X182940Y399060D02*Y401140D01*
X182380Y401700D01*
X181340D02*X182380D01*
X178780Y400100D02*X180380D01*
X176220Y398500D02*X177820D01*
X176220D02*X175820Y398900D01*
Y399860D01*
X176220Y400260D02*X175820Y399860D01*
X176220Y400260D02*X177420D01*
Y398500D02*Y401700D01*
X176220D02*X177820D01*
X176220D02*X175820Y401300D01*
Y400660D02*Y401300D01*
X176220Y400260D02*X175820Y400660D01*
X174860Y401700D02*X174060Y400100D01*
X173260Y401700D01*
X174060Y398500D02*Y400100D01*
X170700D02*X172300D01*
X168140Y401700D02*X167740Y401300D01*
X168140Y401700D02*X169340D01*
X169740Y401300D02*X169340Y401700D01*
X169740Y400500D02*Y401300D01*
Y400500D02*X169340Y400100D01*
X168140D02*X169340D01*
X168140D02*X167740Y399700D01*
Y398900D02*Y399700D01*
X168140Y398500D02*X167740Y398900D01*
X168140Y398500D02*X169340D01*
X169740Y398900D02*X169340Y398500D01*
X166780D02*Y400900D01*
X166220Y401700D01*
X165340D02*X166220D01*
X165340D02*X164780Y400900D01*
Y398500D02*Y400900D01*
Y400100D02*X166780D01*
X219300Y411000D02*Y412500D01*
X221500Y410500D02*Y412500D01*
X217500D02*X221500D01*
X217500Y410500D02*Y412500D01*
X220000Y408800D02*X221500D01*
X220000D02*X219500Y408300D01*
Y407800D02*Y408300D01*
Y407800D02*X220000Y407300D01*
X221500D01*
X219500Y409300D02*X220000Y408800D01*
X219500Y404600D02*X220000Y404100D01*
X219500Y404600D02*Y405600D01*
X220000Y406100D02*X219500Y405600D01*
X220000Y406100D02*X221000D01*
X221500Y405600D01*
Y404600D02*Y405600D01*
Y404600D02*X221000Y404100D01*
X222500Y406100D02*X223000Y405600D01*
Y404600D02*Y405600D01*
Y404600D02*X222500Y404100D01*
X219500D02*X222500D01*
X221500Y402400D02*Y402900D01*
X211000Y414000D02*X211500Y413500D01*
X211000Y414000D02*Y415500D01*
X211500Y416000D02*X211000Y415500D01*
X211500Y416000D02*X212500D01*
X213000Y415500D01*
Y414000D02*Y415500D01*
Y414000D02*X213500Y413500D01*
X214500D01*
X215000Y414000D02*X214500Y413500D01*
X215000Y414000D02*Y415500D01*
X214500Y416000D02*X215000Y415500D01*
X213000Y410300D02*Y411800D01*
X213500Y412300D02*X213000Y411800D01*
X213500Y412300D02*X214500D01*
X215000Y411800D01*
Y410300D02*Y411800D01*
X213000Y407600D02*X213500Y407100D01*
X213000Y407600D02*Y408600D01*
X213500Y409100D02*X213000Y408600D01*
X213500Y409100D02*X214500D01*
X215000Y408600D01*
X213000Y407100D02*X214500D01*
X215000Y406600D01*
Y407600D02*Y408600D01*
Y407600D02*X214500Y407100D01*
X211000Y405400D02*X214500D01*
X215000Y404900D01*
Y401900D02*Y403400D01*
X214500Y403900D02*X215000Y403400D01*
X213500Y403900D02*X214500D01*
X213500D02*X213000Y403400D01*
Y402400D02*Y403400D01*
Y402400D02*X213500Y401900D01*
X214000D02*Y403900D01*
X213500Y401900D02*X214000D01*
X211000Y398700D02*X215000D01*
Y399200D02*X214500Y398700D01*
X215000Y399200D02*Y400200D01*
X214500Y400700D02*X215000Y400200D01*
X213500Y400700D02*X214500D01*
X213500D02*X213000Y400200D01*
Y399200D02*Y400200D01*
Y399200D02*X213500Y398700D01*
X204500Y412500D02*Y413500D01*
Y413000D02*X208500D01*
Y412500D02*Y413500D01*
X207000Y411300D02*X208000D01*
X207000D02*X206500Y410800D01*
Y409800D02*Y410800D01*
Y409800D02*X207000Y409300D01*
X208000D01*
X208500Y409800D02*X208000Y409300D01*
X208500Y409800D02*Y410800D01*
X208000Y411300D02*X208500Y410800D01*
X206500Y408100D02*X208000D01*
X208500Y407600D01*
Y407100D02*Y407600D01*
Y407100D02*X208000Y406600D01*
X206500D02*X208000D01*
X208500Y406100D01*
Y405600D02*Y406100D01*
Y405600D02*X208000Y405100D01*
X206500D02*X208000D01*
X206500Y402400D02*X207000Y401900D01*
X206500Y402400D02*Y403400D01*
X207000Y403900D02*X206500Y403400D01*
X207000Y403900D02*X208000D01*
X208500Y403400D01*
X206500Y401900D02*X208000D01*
X208500Y401400D01*
Y402400D02*Y403400D01*
Y402400D02*X208000Y401900D01*
X204500Y377500D02*Y378500D01*
Y378000D02*X208500D01*
Y377500D02*Y378500D01*
X207000Y376300D02*X208000D01*
X207000D02*X206500Y375800D01*
Y374800D02*Y375800D01*
Y374800D02*X207000Y374300D01*
X208000D01*
X208500Y374800D02*X208000Y374300D01*
X208500Y374800D02*Y375800D01*
X208000Y376300D02*X208500Y375800D01*
X206500Y373100D02*X208000D01*
X208500Y372600D01*
Y372100D02*Y372600D01*
Y372100D02*X208000Y371600D01*
X206500D02*X208000D01*
X208500Y371100D01*
Y370600D02*Y371100D01*
Y370600D02*X208000Y370100D01*
X206500D02*X208000D01*
X206500Y367400D02*X207000Y366900D01*
X206500Y367400D02*Y368400D01*
X207000Y368900D02*X206500Y368400D01*
X207000Y368900D02*X208000D01*
X208500Y368400D01*
X206500Y366900D02*X208000D01*
X208500Y366400D01*
Y367400D02*Y368400D01*
Y367400D02*X208000Y366900D01*
X183900Y363500D02*X184940D01*
X185500Y364060D02*X184940Y363500D01*
X185500Y364060D02*Y366140D01*
X184940Y366700D01*
X183900D02*X184940D01*
X181340Y363500D02*X182380D01*
X182940Y364060D02*X182380Y363500D01*
X182940Y364060D02*Y366140D01*
X182380Y366700D01*
X181340D02*X182380D01*
X178780Y365100D02*X180380D01*
X176220Y363500D02*X177820D01*
X176220D02*X175820Y363900D01*
Y364860D01*
X176220Y365260D02*X175820Y364860D01*
X176220Y365260D02*X177420D01*
Y363500D02*Y366700D01*
X176220D02*X177820D01*
X176220D02*X175820Y366300D01*
Y365660D02*Y366300D01*
X176220Y365260D02*X175820Y365660D01*
X174860Y366700D02*X174060Y365100D01*
X173260Y366700D01*
X174060Y363500D02*Y365100D01*
X170700D02*X172300D01*
X168140Y366700D02*X167740Y366300D01*
X168140Y366700D02*X169340D01*
X169740Y366300D02*X169340Y366700D01*
X169740Y365500D02*Y366300D01*
Y365500D02*X169340Y365100D01*
X168140D02*X169340D01*
X168140D02*X167740Y364700D01*
Y363900D02*Y364700D01*
X168140Y363500D02*X167740Y363900D01*
X168140Y363500D02*X169340D01*
X169740Y363900D02*X169340Y363500D01*
X166780D02*Y365900D01*
X166220Y366700D01*
X165340D02*X166220D01*
X165340D02*X164780Y365900D01*
Y363500D02*Y365900D01*
Y365100D02*X166780D01*
X181217Y381380D02*X183457D01*
X182337Y376900D02*Y381380D01*
X179313Y376900D02*Y378580D01*
X178753Y379140D01*
X177633D02*X178753D01*
X179873D02*X179313Y378580D01*
X174609Y379140D02*X174049Y378580D01*
X174609Y379140D02*X175729D01*
X176289Y378580D02*X175729Y379140D01*
X176289Y377460D02*Y378580D01*
Y377460D02*X175729Y376900D01*
X174049Y377460D02*Y379140D01*
Y377460D02*X173489Y376900D01*
X174609D02*X175729D01*
X174609D02*X174049Y377460D01*
X172145Y380148D02*Y380260D01*
Y376900D02*Y378580D01*
X170465Y376900D02*Y378580D01*
X169905Y379140D01*
X169345D02*X169905D01*
X169345D02*X168785Y378580D01*
Y376900D02*Y378580D01*
X171025Y379140D02*X170465Y378580D01*
X165201Y381380D02*X164641Y380820D01*
X165201Y381380D02*X166881D01*
X167441Y380820D02*X166881Y381380D01*
X167441Y379700D02*Y380820D01*
Y379700D02*X166881Y379140D01*
X165201D02*X166881D01*
X165201D02*X164641Y378580D01*
Y377460D02*Y378580D01*
X165201Y376900D02*X164641Y377460D01*
X165201Y376900D02*X166881D01*
X167441Y377460D02*X166881Y376900D01*
X162737Y375220D02*Y378580D01*
X163297Y379140D02*X162737Y378580D01*
X162177Y379140D01*
X161057D02*X162177D01*
X161057D02*X160497Y378580D01*
Y377460D02*Y378580D01*
X161057Y376900D02*X160497Y377460D01*
X161057Y376900D02*X162177D01*
X162737Y377460D02*X162177Y376900D01*
X159153Y377460D02*Y378580D01*
X158593Y379140D01*
X157473D02*X158593D01*
X157473D02*X156913Y378580D01*
Y377460D02*Y378580D01*
X157473Y376900D02*X156913Y377460D01*
X157473Y376900D02*X158593D01*
X159153Y377460D02*X158593Y376900D01*
X155009Y377460D02*Y381380D01*
Y377460D02*X154449Y376900D01*
Y379700D02*X155569D01*
X152769Y377460D02*Y381380D01*
Y377460D02*X152209Y376900D01*
Y379700D02*X153329D01*
X148849Y376900D02*X150529D01*
X151089Y377460D02*X150529Y376900D01*
X151089Y377460D02*Y378580D01*
X150529Y379140D01*
X149409D02*X150529D01*
X149409D02*X148849Y378580D01*
Y378020D02*X151089D01*
X148849D02*Y378580D01*
X146945Y376900D02*Y378580D01*
X146385Y379140D01*
X145265D02*X146385D01*
X147505D02*X146945Y378580D01*
X191200Y370000D02*X192370D01*
X193000Y370630D02*X192370Y370000D01*
X193000Y370630D02*Y372970D01*
X192370Y373600D01*
X191200D02*X192370D01*
X190120Y370000D02*Y373600D01*
Y371800D02*X188320Y373600D01*
X190120Y371800D02*X188320Y370000D01*
X185440Y373600D02*X187240D01*
X186340Y370000D02*Y373600D01*
X182560Y371800D02*X184360D01*
X180580Y373600D02*X181480D01*
X181030Y370000D02*Y373600D01*
X180580Y370000D02*X181480D01*
X177700Y373600D02*X179500D01*
X177700D02*X177250Y373150D01*
Y372250D02*Y373150D01*
X177700Y371800D02*X177250Y372250D01*
X177700Y371800D02*X179050D01*
Y370000D02*Y373600D01*
X178330Y371800D02*X177250Y370000D01*
X174370Y373600D02*X173920Y373150D01*
X174370Y373600D02*X175720D01*
X176170Y373150D02*X175720Y373600D01*
X176170Y372250D02*Y373150D01*
Y372250D02*X175720Y371800D01*
X174370D02*X175720D01*
X174370D02*X173920Y371350D01*
Y370450D02*Y371350D01*
X174370Y370000D02*X173920Y370450D01*
X174370Y370000D02*X175720D01*
X176170Y370450D02*X175720Y370000D01*
X171490Y371980D02*X172840D01*
X171040Y370000D02*X172840D01*
Y373600D01*
X171040D02*X172840D01*
X169960Y370000D02*Y373600D01*
X167710Y370000D01*
Y373600D01*
X164830D02*X164380Y373150D01*
X164830Y373600D02*X166180D01*
X166630Y373150D02*X166180Y373600D01*
X166630Y372250D02*Y373150D01*
Y372250D02*X166180Y371800D01*
X164830D02*X166180D01*
X164830D02*X164380Y371350D01*
Y370450D02*Y371350D01*
X164830Y370000D02*X164380Y370450D01*
X164830Y370000D02*X166180D01*
X166630Y370450D02*X166180Y370000D01*
X161950Y371980D02*X163300D01*
X161500Y370000D02*X163300D01*
Y373600D01*
X161500D02*X163300D01*
X158620Y371800D02*X160420D01*
X155740Y373600D02*X157540D01*
X155740D02*X155290Y373150D01*
Y372250D02*Y373150D01*
X155740Y371800D02*X155290Y372250D01*
X155740Y371800D02*X157090D01*
Y370000D02*Y373600D01*
X156370Y371800D02*X155290Y370000D01*
X154210D02*Y372700D01*
X153580Y373600D01*
X152590D02*X153580D01*
X152590D02*X151960Y372700D01*
Y370000D02*Y372700D01*
Y371800D02*X154210D01*
X149260D02*X148360Y370000D01*
X147460Y371800D02*X148360Y370000D01*
X146380Y371350D02*X144580Y373600D01*
X144130Y371350D02*X146380D01*
X144580Y370000D02*Y373600D01*
X142600Y370000D02*X143050D01*
X141520Y372880D02*X140800Y373600D01*
Y370000D02*Y373600D01*
X140170Y370000D02*X141520D01*
X159000Y363900D02*X158600Y363500D01*
X159000Y366300D02*X158600Y366700D01*
X159000Y363900D02*Y366300D01*
X156040Y363500D02*X157080D01*
X157640Y364060D02*X157080Y363500D01*
X157640Y364060D02*Y366140D01*
X157080Y366700D01*
X156040D02*X157080D01*
X155080D02*X154680Y366300D01*
Y363900D02*Y366300D01*
X155080Y363500D02*X154680Y363900D01*
X153720Y366300D02*X153320Y366700D01*
X152120D02*X153320D01*
X152120D02*X151720Y366300D01*
Y365500D02*Y366300D01*
X153720Y363500D02*X151720Y365500D01*
Y363500D02*X153720D01*
X150760Y363900D02*X150360Y363500D01*
X150760Y363900D02*Y366300D01*
X150360Y366700D01*
X149560D02*X150360D01*
X149560D02*X149160Y366300D01*
Y363900D02*Y366300D01*
X149560Y363500D02*X149160Y363900D01*
X149560Y363500D02*X150360D01*
X150760Y364300D02*X149160Y365900D01*
X148200Y366300D02*X147800Y366700D01*
X146600D02*X147800D01*
X146600D02*X146200Y366300D01*
Y365500D02*Y366300D01*
X148200Y363500D02*X146200Y365500D01*
Y363500D02*X148200D01*
X145240Y363900D02*X144840Y363500D01*
X145240Y363900D02*Y366300D01*
X144840Y366700D01*
X144040D02*X144840D01*
X144040D02*X143640Y366300D01*
Y363900D02*Y366300D01*
X144040Y363500D02*X143640Y363900D01*
X144040Y363500D02*X144840D01*
X145240Y364300D02*X143640Y365900D01*
X181217Y346380D02*X183457D01*
X182337Y341900D02*Y346380D01*
X179313Y341900D02*Y343580D01*
X178753Y344140D01*
X177633D02*X178753D01*
X179873D02*X179313Y343580D01*
X174609Y344140D02*X174049Y343580D01*
X174609Y344140D02*X175729D01*
X176289Y343580D02*X175729Y344140D01*
X176289Y342460D02*Y343580D01*
Y342460D02*X175729Y341900D01*
X174049Y342460D02*Y344140D01*
Y342460D02*X173489Y341900D01*
X174609D02*X175729D01*
X174609D02*X174049Y342460D01*
X172145Y345148D02*Y345260D01*
Y341900D02*Y343580D01*
X170465Y341900D02*Y343580D01*
X169905Y344140D01*
X169345D02*X169905D01*
X169345D02*X168785Y343580D01*
Y341900D02*Y343580D01*
X171025Y344140D02*X170465Y343580D01*
X165201Y346380D02*X164641Y345820D01*
X165201Y346380D02*X166881D01*
X167441Y345820D02*X166881Y346380D01*
X167441Y344700D02*Y345820D01*
Y344700D02*X166881Y344140D01*
X165201D02*X166881D01*
X165201D02*X164641Y343580D01*
Y342460D02*Y343580D01*
X165201Y341900D02*X164641Y342460D01*
X165201Y341900D02*X166881D01*
X167441Y342460D02*X166881Y341900D01*
X162737Y340220D02*Y343580D01*
X163297Y344140D02*X162737Y343580D01*
X162177Y344140D01*
X161057D02*X162177D01*
X161057D02*X160497Y343580D01*
Y342460D02*Y343580D01*
X161057Y341900D02*X160497Y342460D01*
X161057Y341900D02*X162177D01*
X162737Y342460D02*X162177Y341900D01*
X159153Y342460D02*Y343580D01*
X158593Y344140D01*
X157473D02*X158593D01*
X157473D02*X156913Y343580D01*
Y342460D02*Y343580D01*
X157473Y341900D02*X156913Y342460D01*
X157473Y341900D02*X158593D01*
X159153Y342460D02*X158593Y341900D01*
X155009Y342460D02*Y346380D01*
Y342460D02*X154449Y341900D01*
Y344700D02*X155569D01*
X152769Y342460D02*Y346380D01*
Y342460D02*X152209Y341900D01*
Y344700D02*X153329D01*
X148849Y341900D02*X150529D01*
X151089Y342460D02*X150529Y341900D01*
X151089Y342460D02*Y343580D01*
X150529Y344140D01*
X149409D02*X150529D01*
X149409D02*X148849Y343580D01*
Y343020D02*X151089D01*
X148849D02*Y343580D01*
X146945Y341900D02*Y343580D01*
X146385Y344140D01*
X145265D02*X146385D01*
X147505D02*X146945Y343580D01*
X191200Y335000D02*X192370D01*
X193000Y335630D02*X192370Y335000D01*
X193000Y335630D02*Y337970D01*
X192370Y338600D01*
X191200D02*X192370D01*
X190120Y335000D02*Y338600D01*
Y336800D02*X188320Y338600D01*
X190120Y336800D02*X188320Y335000D01*
X185440Y338600D02*X187240D01*
X186340Y335000D02*Y338600D01*
X182560Y336800D02*X184360D01*
X180580Y338600D02*X181480D01*
X181030Y335000D02*Y338600D01*
X180580Y335000D02*X181480D01*
X177700Y338600D02*X179500D01*
X177700D02*X177250Y338150D01*
Y337250D02*Y338150D01*
X177700Y336800D02*X177250Y337250D01*
X177700Y336800D02*X179050D01*
Y335000D02*Y338600D01*
X178330Y336800D02*X177250Y335000D01*
X174370Y338600D02*X173920Y338150D01*
X174370Y338600D02*X175720D01*
X176170Y338150D02*X175720Y338600D01*
X176170Y337250D02*Y338150D01*
Y337250D02*X175720Y336800D01*
X174370D02*X175720D01*
X174370D02*X173920Y336350D01*
Y335450D02*Y336350D01*
X174370Y335000D02*X173920Y335450D01*
X174370Y335000D02*X175720D01*
X176170Y335450D02*X175720Y335000D01*
X171490Y336980D02*X172840D01*
X171040Y335000D02*X172840D01*
Y338600D01*
X171040D02*X172840D01*
X169960Y335000D02*Y338600D01*
X167710Y335000D01*
Y338600D01*
X164830D02*X164380Y338150D01*
X164830Y338600D02*X166180D01*
X166630Y338150D02*X166180Y338600D01*
X166630Y337250D02*Y338150D01*
Y337250D02*X166180Y336800D01*
X164830D02*X166180D01*
X164830D02*X164380Y336350D01*
Y335450D02*Y336350D01*
X164830Y335000D02*X164380Y335450D01*
X164830Y335000D02*X166180D01*
X166630Y335450D02*X166180Y335000D01*
X161950Y336980D02*X163300D01*
X161500Y335000D02*X163300D01*
Y338600D01*
X161500D02*X163300D01*
X158620Y336800D02*X160420D01*
X155740Y338600D02*X157540D01*
X155740D02*X155290Y338150D01*
Y337250D02*Y338150D01*
X155740Y336800D02*X155290Y337250D01*
X155740Y336800D02*X157090D01*
Y335000D02*Y338600D01*
X156370Y336800D02*X155290Y335000D01*
X154210D02*Y337700D01*
X153580Y338600D01*
X152590D02*X153580D01*
X152590D02*X151960Y337700D01*
Y335000D02*Y337700D01*
Y336800D02*X154210D01*
X149260D02*X148360Y335000D01*
X147460Y336800D02*X148360Y335000D01*
X146380Y336350D02*X144580Y338600D01*
X144130Y336350D02*X146380D01*
X144580Y335000D02*Y338600D01*
X142600Y335000D02*X143050D01*
X141520Y337880D02*X140800Y338600D01*
Y335000D02*Y338600D01*
X140170Y335000D02*X141520D01*
X159000Y328900D02*X158600Y328500D01*
X159000Y331300D02*X158600Y331700D01*
X159000Y328900D02*Y331300D01*
X156040Y328500D02*X157080D01*
X157640Y329060D02*X157080Y328500D01*
X157640Y329060D02*Y331140D01*
X157080Y331700D01*
X156040D02*X157080D01*
X155080D02*X154680Y331300D01*
Y328900D02*Y331300D01*
X155080Y328500D02*X154680Y328900D01*
X153720Y331300D02*X153320Y331700D01*
X152120D02*X153320D01*
X152120D02*X151720Y331300D01*
Y330500D02*Y331300D01*
X153720Y328500D02*X151720Y330500D01*
Y328500D02*X153720D01*
X150760Y328900D02*X150360Y328500D01*
X150760Y328900D02*Y331300D01*
X150360Y331700D01*
X149560D02*X150360D01*
X149560D02*X149160Y331300D01*
Y328900D02*Y331300D01*
X149560Y328500D02*X149160Y328900D01*
X149560Y328500D02*X150360D01*
X150760Y329300D02*X149160Y330900D01*
X148200Y331300D02*X147800Y331700D01*
X146600D02*X147800D01*
X146600D02*X146200Y331300D01*
Y330500D02*Y331300D01*
X148200Y328500D02*X146200Y330500D01*
Y328500D02*X148200D01*
X145240Y328900D02*X144840Y328500D01*
X145240Y328900D02*Y331300D01*
X144840Y331700D01*
X144040D02*X144840D01*
X144040D02*X143640Y331300D01*
Y328900D02*Y331300D01*
X144040Y328500D02*X143640Y328900D01*
X144040Y328500D02*X144840D01*
X145240Y329300D02*X143640Y330900D01*
X183900Y328500D02*X184940D01*
X185500Y329060D02*X184940Y328500D01*
X185500Y329060D02*Y331140D01*
X184940Y331700D01*
X183900D02*X184940D01*
X181340Y328500D02*X182380D01*
X182940Y329060D02*X182380Y328500D01*
X182940Y329060D02*Y331140D01*
X182380Y331700D01*
X181340D02*X182380D01*
X178780Y330100D02*X180380D01*
X176220Y328500D02*X177820D01*
X176220D02*X175820Y328900D01*
Y329860D01*
X176220Y330260D02*X175820Y329860D01*
X176220Y330260D02*X177420D01*
Y328500D02*Y331700D01*
X176220D02*X177820D01*
X176220D02*X175820Y331300D01*
Y330660D02*Y331300D01*
X176220Y330260D02*X175820Y330660D01*
X174860Y331700D02*X174060Y330100D01*
X173260Y331700D01*
X174060Y328500D02*Y330100D01*
X170700D02*X172300D01*
X168140Y331700D02*X167740Y331300D01*
X168140Y331700D02*X169340D01*
X169740Y331300D02*X169340Y331700D01*
X169740Y330500D02*Y331300D01*
Y330500D02*X169340Y330100D01*
X168140D02*X169340D01*
X168140D02*X167740Y329700D01*
Y328900D02*Y329700D01*
X168140Y328500D02*X167740Y328900D01*
X168140Y328500D02*X169340D01*
X169740Y328900D02*X169340Y328500D01*
X166780D02*Y330900D01*
X166220Y331700D01*
X165340D02*X166220D01*
X165340D02*X164780Y330900D01*
Y328500D02*Y330900D01*
Y330100D02*X166780D01*
X181217Y311380D02*X183457D01*
X182337Y306900D02*Y311380D01*
X179313Y306900D02*Y308580D01*
X178753Y309140D01*
X177633D02*X178753D01*
X179873D02*X179313Y308580D01*
X174609Y309140D02*X174049Y308580D01*
X174609Y309140D02*X175729D01*
X176289Y308580D02*X175729Y309140D01*
X176289Y307460D02*Y308580D01*
Y307460D02*X175729Y306900D01*
X174049Y307460D02*Y309140D01*
Y307460D02*X173489Y306900D01*
X174609D02*X175729D01*
X174609D02*X174049Y307460D01*
X172145Y310148D02*Y310260D01*
Y306900D02*Y308580D01*
X170465Y306900D02*Y308580D01*
X169905Y309140D01*
X169345D02*X169905D01*
X169345D02*X168785Y308580D01*
Y306900D02*Y308580D01*
X171025Y309140D02*X170465Y308580D01*
X165201Y311380D02*X164641Y310820D01*
X165201Y311380D02*X166881D01*
X167441Y310820D02*X166881Y311380D01*
X167441Y309700D02*Y310820D01*
Y309700D02*X166881Y309140D01*
X165201D02*X166881D01*
X165201D02*X164641Y308580D01*
Y307460D02*Y308580D01*
X165201Y306900D02*X164641Y307460D01*
X165201Y306900D02*X166881D01*
X167441Y307460D02*X166881Y306900D01*
X162737Y305220D02*Y308580D01*
X163297Y309140D02*X162737Y308580D01*
X162177Y309140D01*
X161057D02*X162177D01*
X161057D02*X160497Y308580D01*
Y307460D02*Y308580D01*
X161057Y306900D02*X160497Y307460D01*
X161057Y306900D02*X162177D01*
X162737Y307460D02*X162177Y306900D01*
X159153Y307460D02*Y308580D01*
X158593Y309140D01*
X157473D02*X158593D01*
X157473D02*X156913Y308580D01*
Y307460D02*Y308580D01*
X157473Y306900D02*X156913Y307460D01*
X157473Y306900D02*X158593D01*
X159153Y307460D02*X158593Y306900D01*
X155009Y307460D02*Y311380D01*
Y307460D02*X154449Y306900D01*
Y309700D02*X155569D01*
X152769Y307460D02*Y311380D01*
Y307460D02*X152209Y306900D01*
Y309700D02*X153329D01*
X148849Y306900D02*X150529D01*
X151089Y307460D02*X150529Y306900D01*
X151089Y307460D02*Y308580D01*
X150529Y309140D01*
X149409D02*X150529D01*
X149409D02*X148849Y308580D01*
Y308020D02*X151089D01*
X148849D02*Y308580D01*
X146945Y306900D02*Y308580D01*
X146385Y309140D01*
X145265D02*X146385D01*
X147505D02*X146945Y308580D01*
X191200Y300000D02*X192370D01*
X193000Y300630D02*X192370Y300000D01*
X193000Y300630D02*Y302970D01*
X192370Y303600D01*
X191200D02*X192370D01*
X190120Y300000D02*Y303600D01*
Y301800D02*X188320Y303600D01*
X190120Y301800D02*X188320Y300000D01*
X185440Y303600D02*X187240D01*
X186340Y300000D02*Y303600D01*
X182560Y301800D02*X184360D01*
X180580Y303600D02*X181480D01*
X181030Y300000D02*Y303600D01*
X180580Y300000D02*X181480D01*
X177700Y303600D02*X179500D01*
X177700D02*X177250Y303150D01*
Y302250D02*Y303150D01*
X177700Y301800D02*X177250Y302250D01*
X177700Y301800D02*X179050D01*
Y300000D02*Y303600D01*
X178330Y301800D02*X177250Y300000D01*
X174370Y303600D02*X173920Y303150D01*
X174370Y303600D02*X175720D01*
X176170Y303150D02*X175720Y303600D01*
X176170Y302250D02*Y303150D01*
Y302250D02*X175720Y301800D01*
X174370D02*X175720D01*
X174370D02*X173920Y301350D01*
Y300450D02*Y301350D01*
X174370Y300000D02*X173920Y300450D01*
X174370Y300000D02*X175720D01*
X176170Y300450D02*X175720Y300000D01*
X171490Y301980D02*X172840D01*
X171040Y300000D02*X172840D01*
Y303600D01*
X171040D02*X172840D01*
X169960Y300000D02*Y303600D01*
X167710Y300000D01*
Y303600D01*
X164830D02*X164380Y303150D01*
X164830Y303600D02*X166180D01*
X166630Y303150D02*X166180Y303600D01*
X166630Y302250D02*Y303150D01*
Y302250D02*X166180Y301800D01*
X164830D02*X166180D01*
X164830D02*X164380Y301350D01*
Y300450D02*Y301350D01*
X164830Y300000D02*X164380Y300450D01*
X164830Y300000D02*X166180D01*
X166630Y300450D02*X166180Y300000D01*
X161950Y301980D02*X163300D01*
X161500Y300000D02*X163300D01*
Y303600D01*
X161500D02*X163300D01*
X158620Y301800D02*X160420D01*
X155740Y303600D02*X157540D01*
X155740D02*X155290Y303150D01*
Y302250D02*Y303150D01*
X155740Y301800D02*X155290Y302250D01*
X155740Y301800D02*X157090D01*
Y300000D02*Y303600D01*
X156370Y301800D02*X155290Y300000D01*
X154210D02*Y302700D01*
X153580Y303600D01*
X152590D02*X153580D01*
X152590D02*X151960Y302700D01*
Y300000D02*Y302700D01*
Y301800D02*X154210D01*
X149260D02*X148360Y300000D01*
X147460Y301800D02*X148360Y300000D01*
X146380Y301350D02*X144580Y303600D01*
X144130Y301350D02*X146380D01*
X144580Y300000D02*Y303600D01*
X142600Y300000D02*X143050D01*
X141520Y302880D02*X140800Y303600D01*
Y300000D02*Y303600D01*
X140170Y300000D02*X141520D01*
X159000Y293900D02*X158600Y293500D01*
X159000Y296300D02*X158600Y296700D01*
X159000Y293900D02*Y296300D01*
X156040Y293500D02*X157080D01*
X157640Y294060D02*X157080Y293500D01*
X157640Y294060D02*Y296140D01*
X157080Y296700D01*
X156040D02*X157080D01*
X155080D02*X154680Y296300D01*
Y293900D02*Y296300D01*
X155080Y293500D02*X154680Y293900D01*
X153720Y296300D02*X153320Y296700D01*
X152120D02*X153320D01*
X152120D02*X151720Y296300D01*
Y295500D02*Y296300D01*
X153720Y293500D02*X151720Y295500D01*
Y293500D02*X153720D01*
X150760Y293900D02*X150360Y293500D01*
X150760Y293900D02*Y296300D01*
X150360Y296700D01*
X149560D02*X150360D01*
X149560D02*X149160Y296300D01*
Y293900D02*Y296300D01*
X149560Y293500D02*X149160Y293900D01*
X149560Y293500D02*X150360D01*
X150760Y294300D02*X149160Y295900D01*
X148200Y296300D02*X147800Y296700D01*
X146600D02*X147800D01*
X146600D02*X146200Y296300D01*
Y295500D02*Y296300D01*
X148200Y293500D02*X146200Y295500D01*
Y293500D02*X148200D01*
X145240Y293900D02*X144840Y293500D01*
X145240Y293900D02*Y296300D01*
X144840Y296700D01*
X144040D02*X144840D01*
X144040D02*X143640Y296300D01*
Y293900D02*Y296300D01*
X144040Y293500D02*X143640Y293900D01*
X144040Y293500D02*X144840D01*
X145240Y294300D02*X143640Y295900D01*
X183900Y293500D02*X184940D01*
X185500Y294060D02*X184940Y293500D01*
X185500Y294060D02*Y296140D01*
X184940Y296700D01*
X183900D02*X184940D01*
X181340Y293500D02*X182380D01*
X182940Y294060D02*X182380Y293500D01*
X182940Y294060D02*Y296140D01*
X182380Y296700D01*
X181340D02*X182380D01*
X178780Y295100D02*X180380D01*
X176220Y293500D02*X177820D01*
X176220D02*X175820Y293900D01*
Y294860D01*
X176220Y295260D02*X175820Y294860D01*
X176220Y295260D02*X177420D01*
Y293500D02*Y296700D01*
X176220D02*X177820D01*
X176220D02*X175820Y296300D01*
Y295660D02*Y296300D01*
X176220Y295260D02*X175820Y295660D01*
X174860Y296700D02*X174060Y295100D01*
X173260Y296700D01*
X174060Y293500D02*Y295100D01*
X170700D02*X172300D01*
X168140Y296700D02*X167740Y296300D01*
X168140Y296700D02*X169340D01*
X169740Y296300D02*X169340Y296700D01*
X169740Y295500D02*Y296300D01*
Y295500D02*X169340Y295100D01*
X168140D02*X169340D01*
X168140D02*X167740Y294700D01*
Y293900D02*Y294700D01*
X168140Y293500D02*X167740Y293900D01*
X168140Y293500D02*X169340D01*
X169740Y293900D02*X169340Y293500D01*
X166780D02*Y295900D01*
X166220Y296700D01*
X165340D02*X166220D01*
X165340D02*X164780Y295900D01*
Y293500D02*Y295900D01*
Y295100D02*X166780D01*
X181217Y276380D02*X183457D01*
X182337Y271900D02*Y276380D01*
X179313Y271900D02*Y273580D01*
X178753Y274140D01*
X177633D02*X178753D01*
X179873D02*X179313Y273580D01*
X174609Y274140D02*X174049Y273580D01*
X174609Y274140D02*X175729D01*
X176289Y273580D02*X175729Y274140D01*
X176289Y272460D02*Y273580D01*
Y272460D02*X175729Y271900D01*
X174049Y272460D02*Y274140D01*
Y272460D02*X173489Y271900D01*
X174609D02*X175729D01*
X174609D02*X174049Y272460D01*
X172145Y275148D02*Y275260D01*
Y271900D02*Y273580D01*
X170465Y271900D02*Y273580D01*
X169905Y274140D01*
X169345D02*X169905D01*
X169345D02*X168785Y273580D01*
Y271900D02*Y273580D01*
X171025Y274140D02*X170465Y273580D01*
X165201Y276380D02*X164641Y275820D01*
X165201Y276380D02*X166881D01*
X167441Y275820D02*X166881Y276380D01*
X167441Y274700D02*Y275820D01*
Y274700D02*X166881Y274140D01*
X165201D02*X166881D01*
X165201D02*X164641Y273580D01*
Y272460D02*Y273580D01*
X165201Y271900D02*X164641Y272460D01*
X165201Y271900D02*X166881D01*
X167441Y272460D02*X166881Y271900D01*
X162737Y270220D02*Y273580D01*
X163297Y274140D02*X162737Y273580D01*
X162177Y274140D01*
X161057D02*X162177D01*
X161057D02*X160497Y273580D01*
Y272460D02*Y273580D01*
X161057Y271900D02*X160497Y272460D01*
X161057Y271900D02*X162177D01*
X162737Y272460D02*X162177Y271900D01*
X159153Y272460D02*Y273580D01*
X158593Y274140D01*
X157473D02*X158593D01*
X157473D02*X156913Y273580D01*
Y272460D02*Y273580D01*
X157473Y271900D02*X156913Y272460D01*
X157473Y271900D02*X158593D01*
X159153Y272460D02*X158593Y271900D01*
X155009Y272460D02*Y276380D01*
Y272460D02*X154449Y271900D01*
Y274700D02*X155569D01*
X152769Y272460D02*Y276380D01*
Y272460D02*X152209Y271900D01*
Y274700D02*X153329D01*
X148849Y271900D02*X150529D01*
X151089Y272460D02*X150529Y271900D01*
X151089Y272460D02*Y273580D01*
X150529Y274140D01*
X149409D02*X150529D01*
X149409D02*X148849Y273580D01*
Y273020D02*X151089D01*
X148849D02*Y273580D01*
X146945Y271900D02*Y273580D01*
X146385Y274140D01*
X145265D02*X146385D01*
X147505D02*X146945Y273580D01*
X191200Y265000D02*X192370D01*
X193000Y265630D02*X192370Y265000D01*
X193000Y265630D02*Y267970D01*
X192370Y268600D01*
X191200D02*X192370D01*
X190120Y265000D02*Y268600D01*
Y266800D02*X188320Y268600D01*
X190120Y266800D02*X188320Y265000D01*
X185440Y268600D02*X187240D01*
X186340Y265000D02*Y268600D01*
X182560Y266800D02*X184360D01*
X180580Y268600D02*X181480D01*
X181030Y265000D02*Y268600D01*
X180580Y265000D02*X181480D01*
X177700Y268600D02*X179500D01*
X177700D02*X177250Y268150D01*
Y267250D02*Y268150D01*
X177700Y266800D02*X177250Y267250D01*
X177700Y266800D02*X179050D01*
Y265000D02*Y268600D01*
X178330Y266800D02*X177250Y265000D01*
X174370Y268600D02*X173920Y268150D01*
X174370Y268600D02*X175720D01*
X176170Y268150D02*X175720Y268600D01*
X176170Y267250D02*Y268150D01*
Y267250D02*X175720Y266800D01*
X174370D02*X175720D01*
X174370D02*X173920Y266350D01*
Y265450D02*Y266350D01*
X174370Y265000D02*X173920Y265450D01*
X174370Y265000D02*X175720D01*
X176170Y265450D02*X175720Y265000D01*
X171490Y266980D02*X172840D01*
X171040Y265000D02*X172840D01*
Y268600D01*
X171040D02*X172840D01*
X169960Y265000D02*Y268600D01*
X167710Y265000D01*
Y268600D01*
X164830D02*X164380Y268150D01*
X164830Y268600D02*X166180D01*
X166630Y268150D02*X166180Y268600D01*
X166630Y267250D02*Y268150D01*
Y267250D02*X166180Y266800D01*
X164830D02*X166180D01*
X164830D02*X164380Y266350D01*
Y265450D02*Y266350D01*
X164830Y265000D02*X164380Y265450D01*
X164830Y265000D02*X166180D01*
X166630Y265450D02*X166180Y265000D01*
X161950Y266980D02*X163300D01*
X161500Y265000D02*X163300D01*
Y268600D01*
X161500D02*X163300D01*
X158620Y266800D02*X160420D01*
X155740Y268600D02*X157540D01*
X155740D02*X155290Y268150D01*
Y267250D02*Y268150D01*
X155740Y266800D02*X155290Y267250D01*
X155740Y266800D02*X157090D01*
Y265000D02*Y268600D01*
X156370Y266800D02*X155290Y265000D01*
X154210D02*Y267700D01*
X153580Y268600D01*
X152590D02*X153580D01*
X152590D02*X151960Y267700D01*
Y265000D02*Y267700D01*
Y266800D02*X154210D01*
X149260D02*X148360Y265000D01*
X147460Y266800D02*X148360Y265000D01*
X146380Y266350D02*X144580Y268600D01*
X144130Y266350D02*X146380D01*
X144580Y265000D02*Y268600D01*
X142600Y265000D02*X143050D01*
X141520Y267880D02*X140800Y268600D01*
Y265000D02*Y268600D01*
X140170Y265000D02*X141520D01*
X159000Y258900D02*X158600Y258500D01*
X159000Y261300D02*X158600Y261700D01*
X159000Y258900D02*Y261300D01*
X156040Y258500D02*X157080D01*
X157640Y259060D02*X157080Y258500D01*
X157640Y259060D02*Y261140D01*
X157080Y261700D01*
X156040D02*X157080D01*
X155080D02*X154680Y261300D01*
Y258900D02*Y261300D01*
X155080Y258500D02*X154680Y258900D01*
X153720Y261300D02*X153320Y261700D01*
X152120D02*X153320D01*
X152120D02*X151720Y261300D01*
Y260500D02*Y261300D01*
X153720Y258500D02*X151720Y260500D01*
Y258500D02*X153720D01*
X150760Y258900D02*X150360Y258500D01*
X150760Y258900D02*Y261300D01*
X150360Y261700D01*
X149560D02*X150360D01*
X149560D02*X149160Y261300D01*
Y258900D02*Y261300D01*
X149560Y258500D02*X149160Y258900D01*
X149560Y258500D02*X150360D01*
X150760Y259300D02*X149160Y260900D01*
X148200Y261300D02*X147800Y261700D01*
X146600D02*X147800D01*
X146600D02*X146200Y261300D01*
Y260500D02*Y261300D01*
X148200Y258500D02*X146200Y260500D01*
Y258500D02*X148200D01*
X145240Y258900D02*X144840Y258500D01*
X145240Y258900D02*Y261300D01*
X144840Y261700D01*
X144040D02*X144840D01*
X144040D02*X143640Y261300D01*
Y258900D02*Y261300D01*
X144040Y258500D02*X143640Y258900D01*
X144040Y258500D02*X144840D01*
X145240Y259300D02*X143640Y260900D01*
X183900Y258500D02*X184940D01*
X185500Y259060D02*X184940Y258500D01*
X185500Y259060D02*Y261140D01*
X184940Y261700D01*
X183900D02*X184940D01*
X181340Y258500D02*X182380D01*
X182940Y259060D02*X182380Y258500D01*
X182940Y259060D02*Y261140D01*
X182380Y261700D01*
X181340D02*X182380D01*
X178780Y260100D02*X180380D01*
X176220Y258500D02*X177820D01*
X176220D02*X175820Y258900D01*
Y259860D01*
X176220Y260260D02*X175820Y259860D01*
X176220Y260260D02*X177420D01*
Y258500D02*Y261700D01*
X176220D02*X177820D01*
X176220D02*X175820Y261300D01*
Y260660D02*Y261300D01*
X176220Y260260D02*X175820Y260660D01*
X174860Y261700D02*X174060Y260100D01*
X173260Y261700D01*
X174060Y258500D02*Y260100D01*
X170700D02*X172300D01*
X168140Y261700D02*X167740Y261300D01*
X168140Y261700D02*X169340D01*
X169740Y261300D02*X169340Y261700D01*
X169740Y260500D02*Y261300D01*
Y260500D02*X169340Y260100D01*
X168140D02*X169340D01*
X168140D02*X167740Y259700D01*
Y258900D02*Y259700D01*
X168140Y258500D02*X167740Y258900D01*
X168140Y258500D02*X169340D01*
X169740Y258900D02*X169340Y258500D01*
X166780D02*Y260900D01*
X166220Y261700D01*
X165340D02*X166220D01*
X165340D02*X164780Y260900D01*
Y258500D02*Y260900D01*
Y260100D02*X166780D01*
X181217Y241380D02*X183457D01*
X182337Y236900D02*Y241380D01*
X179313Y236900D02*Y238580D01*
X178753Y239140D01*
X177633D02*X178753D01*
X179873D02*X179313Y238580D01*
X174609Y239140D02*X174049Y238580D01*
X174609Y239140D02*X175729D01*
X176289Y238580D02*X175729Y239140D01*
X176289Y237460D02*Y238580D01*
Y237460D02*X175729Y236900D01*
X174049Y237460D02*Y239140D01*
Y237460D02*X173489Y236900D01*
X174609D02*X175729D01*
X174609D02*X174049Y237460D01*
X172145Y240148D02*Y240260D01*
Y236900D02*Y238580D01*
X170465Y236900D02*Y238580D01*
X169905Y239140D01*
X169345D02*X169905D01*
X169345D02*X168785Y238580D01*
Y236900D02*Y238580D01*
X171025Y239140D02*X170465Y238580D01*
X165201Y241380D02*X164641Y240820D01*
X165201Y241380D02*X166881D01*
X167441Y240820D02*X166881Y241380D01*
X167441Y239700D02*Y240820D01*
Y239700D02*X166881Y239140D01*
X165201D02*X166881D01*
X165201D02*X164641Y238580D01*
Y237460D02*Y238580D01*
X165201Y236900D02*X164641Y237460D01*
X165201Y236900D02*X166881D01*
X167441Y237460D02*X166881Y236900D01*
X162737Y235220D02*Y238580D01*
X163297Y239140D02*X162737Y238580D01*
X162177Y239140D01*
X161057D02*X162177D01*
X161057D02*X160497Y238580D01*
Y237460D02*Y238580D01*
X161057Y236900D02*X160497Y237460D01*
X161057Y236900D02*X162177D01*
X162737Y237460D02*X162177Y236900D01*
X159153Y237460D02*Y238580D01*
X158593Y239140D01*
X157473D02*X158593D01*
X157473D02*X156913Y238580D01*
Y237460D02*Y238580D01*
X157473Y236900D02*X156913Y237460D01*
X157473Y236900D02*X158593D01*
X159153Y237460D02*X158593Y236900D01*
X155009Y237460D02*Y241380D01*
Y237460D02*X154449Y236900D01*
Y239700D02*X155569D01*
X152769Y237460D02*Y241380D01*
Y237460D02*X152209Y236900D01*
Y239700D02*X153329D01*
X148849Y236900D02*X150529D01*
X151089Y237460D02*X150529Y236900D01*
X151089Y237460D02*Y238580D01*
X150529Y239140D01*
X149409D02*X150529D01*
X149409D02*X148849Y238580D01*
Y238020D02*X151089D01*
X148849D02*Y238580D01*
X146945Y236900D02*Y238580D01*
X146385Y239140D01*
X145265D02*X146385D01*
X147505D02*X146945Y238580D01*
X50038Y408762D02*X50838D01*
X50038Y405262D02*Y408762D01*
X50538Y404762D02*X50038Y405262D01*
X50538Y404762D02*X51038D01*
X51538Y405262D02*X51038Y404762D01*
X51538Y405262D02*Y405762D01*
X48338Y404762D02*Y408762D01*
X46838D02*X48838D01*
X46838D02*X46338Y408262D01*
Y407262D02*Y408262D01*
X46838Y406762D02*X46338Y407262D01*
X46838Y406762D02*X48338D01*
X45138Y407962D02*X44338Y408762D01*
Y404762D02*Y408762D01*
X43638Y404762D02*X45138D01*
X50038Y373762D02*X50838D01*
X50038Y370262D02*Y373762D01*
X50538Y369762D02*X50038Y370262D01*
X50538Y369762D02*X51038D01*
X51538Y370262D02*X51038Y369762D01*
X51538Y370262D02*Y370762D01*
X48338Y369762D02*Y373762D01*
X46838D02*X48838D01*
X46838D02*X46338Y373262D01*
Y372262D02*Y373262D01*
X46838Y371762D02*X46338Y372262D01*
X46838Y371762D02*X48338D01*
X45138Y372962D02*X44338Y373762D01*
Y369762D02*Y373762D01*
X43638Y369762D02*X45138D01*
X50038Y338762D02*X50838D01*
X50038Y335262D02*Y338762D01*
X50538Y334762D02*X50038Y335262D01*
X50538Y334762D02*X51038D01*
X51538Y335262D02*X51038Y334762D01*
X51538Y335262D02*Y335762D01*
X48338Y334762D02*Y338762D01*
X46838D02*X48838D01*
X46838D02*X46338Y338262D01*
Y337262D02*Y338262D01*
X46838Y336762D02*X46338Y337262D01*
X46838Y336762D02*X48338D01*
X45138Y337962D02*X44338Y338762D01*
Y334762D02*Y338762D01*
X43638Y334762D02*X45138D01*
X50038Y303762D02*X50838D01*
X50038Y300262D02*Y303762D01*
X50538Y299762D02*X50038Y300262D01*
X50538Y299762D02*X51038D01*
X51538Y300262D02*X51038Y299762D01*
X51538Y300262D02*Y300762D01*
X48338Y299762D02*Y303762D01*
X46838D02*X48838D01*
X46838D02*X46338Y303262D01*
Y302262D02*Y303262D01*
X46838Y301762D02*X46338Y302262D01*
X46838Y301762D02*X48338D01*
X45138Y302962D02*X44338Y303762D01*
Y299762D02*Y303762D01*
X43638Y299762D02*X45138D01*
X50038Y268762D02*X50838D01*
X50038Y265262D02*Y268762D01*
X50538Y264762D02*X50038Y265262D01*
X50538Y264762D02*X51038D01*
X51538Y265262D02*X51038Y264762D01*
X51538Y265262D02*Y265762D01*
X48338Y264762D02*Y268762D01*
X46838D02*X48838D01*
X46838D02*X46338Y268262D01*
Y267262D02*Y268262D01*
X46838Y266762D02*X46338Y267262D01*
X46838Y266762D02*X48338D01*
X45138Y267962D02*X44338Y268762D01*
Y264762D02*Y268762D01*
X43638Y264762D02*X45138D01*
X50038Y233762D02*X50838D01*
X50038Y230262D02*Y233762D01*
X50538Y229762D02*X50038Y230262D01*
X50538Y229762D02*X51038D01*
X51538Y230262D02*X51038Y229762D01*
X51538Y230262D02*Y230762D01*
X48338Y229762D02*Y233762D01*
X46838D02*X48838D01*
X46838D02*X46338Y233262D01*
Y232262D02*Y233262D01*
X46838Y231762D02*X46338Y232262D01*
X46838Y231762D02*X48338D01*
X45138Y232962D02*X44338Y233762D01*
Y229762D02*Y233762D01*
X43638Y229762D02*X45138D01*
X50038Y198762D02*X50838D01*
X50038Y195262D02*Y198762D01*
X50538Y194762D02*X50038Y195262D01*
X50538Y194762D02*X51038D01*
X51538Y195262D02*X51038Y194762D01*
X51538Y195262D02*Y195762D01*
X48338Y194762D02*Y198762D01*
X46838D02*X48838D01*
X46838D02*X46338Y198262D01*
Y197262D02*Y198262D01*
X46838Y196762D02*X46338Y197262D01*
X46838Y196762D02*X48338D01*
X45138Y197962D02*X44338Y198762D01*
Y194762D02*Y198762D01*
X43638Y194762D02*X45138D01*
X50038Y163762D02*X50838D01*
X50038Y160262D02*Y163762D01*
X50538Y159762D02*X50038Y160262D01*
X50538Y159762D02*X51038D01*
X51538Y160262D02*X51038Y159762D01*
X51538Y160262D02*Y160762D01*
X48338Y159762D02*Y163762D01*
X46838D02*X48838D01*
X46838D02*X46338Y163262D01*
Y162262D02*Y163262D01*
X46838Y161762D02*X46338Y162262D01*
X46838Y161762D02*X48338D01*
X45138Y162962D02*X44338Y163762D01*
Y159762D02*Y163762D01*
X43638Y159762D02*X45138D01*
X50038Y128762D02*X50838D01*
X50038Y125262D02*Y128762D01*
X50538Y124762D02*X50038Y125262D01*
X50538Y124762D02*X51038D01*
X51538Y125262D02*X51038Y124762D01*
X51538Y125262D02*Y125762D01*
X48338Y124762D02*Y128762D01*
X46838D02*X48838D01*
X46838D02*X46338Y128262D01*
Y127262D02*Y128262D01*
X46838Y126762D02*X46338Y127262D01*
X46838Y126762D02*X48338D01*
X45138Y127962D02*X44338Y128762D01*
Y124762D02*Y128762D01*
X43638Y124762D02*X45138D01*
X50038Y93762D02*X50838D01*
X50038Y90262D02*Y93762D01*
X50538Y89762D02*X50038Y90262D01*
X50538Y89762D02*X51038D01*
X51538Y90262D02*X51038Y89762D01*
X51538Y90262D02*Y90762D01*
X48338Y89762D02*Y93762D01*
X46838D02*X48838D01*
X46838D02*X46338Y93262D01*
Y92262D02*Y93262D01*
X46838Y91762D02*X46338Y92262D01*
X46838Y91762D02*X48338D01*
X45138Y92962D02*X44338Y93762D01*
Y89762D02*Y93762D01*
X43638Y89762D02*X45138D01*
X50038Y58762D02*X50838D01*
X50038Y55262D02*Y58762D01*
X50538Y54762D02*X50038Y55262D01*
X50538Y54762D02*X51038D01*
X51538Y55262D02*X51038Y54762D01*
X51538Y55262D02*Y55762D01*
X48338Y54762D02*Y58762D01*
X46838D02*X48838D01*
X46838D02*X46338Y58262D01*
Y57262D02*Y58262D01*
X46838Y56762D02*X46338Y57262D01*
X46838Y56762D02*X48338D01*
X45138Y57962D02*X44338Y58762D01*
Y54762D02*Y58762D01*
X43638Y54762D02*X45138D01*
X50038Y23762D02*X50838D01*
X50038Y20262D02*Y23762D01*
X50538Y19762D02*X50038Y20262D01*
X50538Y19762D02*X51038D01*
X51538Y20262D02*X51038Y19762D01*
X51538Y20262D02*Y20762D01*
X48338Y19762D02*Y23762D01*
X46838D02*X48838D01*
X46838D02*X46338Y23262D01*
Y22262D02*Y23262D01*
X46838Y21762D02*X46338Y22262D01*
X46838Y21762D02*X48338D01*
X45138Y22962D02*X44338Y23762D01*
Y19762D02*Y23762D01*
X43638Y19762D02*X45138D01*
M02*
