M48
INCH
T46C0.014
T45C0.012
%
T45
X001750Y039850
X001750Y036350
X001750Y032850
X001750Y029350
X001750Y025850
X001750Y022350
X001750Y018850
X001750Y015350
X001750Y011850
X001750Y008350
X001750Y004850
X001750Y001350
X003600Y040750
X003600Y037250
X003600Y033750
X003600Y030250
X003600Y026750
X003600Y023250
X003600Y019750
X003600Y016250
X003600Y012750
X003600Y009250
X003600Y005750
X003600Y002250
X004750Y041600
X004750Y038100
X004750Y034600
X004750Y031100
X004750Y027600
X004750Y024100
X004750Y020600
X004750Y017100
X004750Y013600
X004750Y010100
X004750Y006600
X004750Y003100
X005000Y041600
X005000Y038100
X005000Y034600
X005000Y031100
X005000Y027600
X005000Y024100
X005000Y020600
X005000Y017100
X005000Y013600
X005000Y010100
X005000Y006600
X005000Y003100
X005150Y040200
X005150Y036700
X005150Y033200
X005150Y029700
X005150Y026200
X005150Y022700
X005150Y019200
X005150Y015700
X005150Y012200
X005150Y008700
X005150Y005200
X005150Y001700
X006400Y040250
X006400Y036750
X006400Y033250
X006400Y029750
X006400Y026250
X006400Y022750
X006400Y019250
X006400Y015750
X006400Y012250
X006400Y008750
X006400Y005250
X006400Y001750
X006450Y040550
X006450Y037050
X006450Y033550
X006450Y030050
X006450Y026550
X006450Y023050
X006450Y019550
X006450Y016050
X006450Y012550
X006450Y009050
X006450Y005550
X006450Y002050
X006800Y040550
X006800Y037050
X006800Y033550
X006800Y030050
X006800Y026550
X006800Y023050
X006800Y019550
X006800Y016050
X006800Y012550
X006800Y009050
X006800Y005550
X006800Y002050
X007150Y040150
X007150Y036650
X007150Y033150
X007150Y029650
X007150Y026150
X007150Y022650
X007150Y019150
X007150Y015650
X007150Y012150
X007150Y008650
X007150Y005150
X007150Y001650
X007300Y039750
X007300Y036250
X007300Y032750
X007300Y029250
X007300Y025750
X007300Y022250
X007300Y018750
X007300Y015250
X007300Y011750
X007300Y008250
X007300Y004750
X007300Y001250
X010150Y041250
X010150Y037750
X010150Y034250
X010150Y030750
X010150Y027250
X010150Y023750
X010150Y020250
X010150Y016750
X010150Y013250
X010150Y009750
X010150Y006250
X010150Y002750
X012600Y041150
X012600Y037650
X012600Y034150
X012600Y030650
X012600Y027150
X012600Y023650
X012600Y020150
X012600Y016650
X012600Y013150
X012600Y009650
X012600Y006150
X012600Y002650
X019700Y040650
X019700Y037150
X019700Y033650
X019700Y030150
X019700Y026650
X019700Y023150
X019700Y019650
X019700Y016150
X019700Y012650
X019700Y009150
X019700Y005650
X019700Y002150
X020050Y040650
X020050Y037150
X020050Y033650
X020050Y030150
X020050Y026650
X020050Y023150
X020050Y019650
X020050Y016150
X020050Y012650
X020050Y009150
X020050Y005650
X020050Y002150
X021300Y040159
X021300Y036659
X021300Y033159
X021300Y029659
X021300Y026159
X021300Y022659
X021300Y019159
X021300Y015659
X021300Y012159
X021300Y008659
X021300Y005159
X021300Y001659
X021600Y040159
X021600Y036659
X021600Y033159
X021600Y029659
X021600Y026159
X021600Y022659
X021600Y019159
X021600Y015659
X021600Y012159
X021600Y008659
X021600Y005159
X021600Y001659
T46
X002500Y041450
X002500Y040950
X002500Y040550
X002500Y037950
X002500Y037450
X002500Y037050
X002500Y034450
X002500Y033950
X002500Y033550
X002500Y030950
X002500Y030450
X002500Y030050
X002500Y027450
X002500Y026950
X002500Y026550
X002500Y023950
X002500Y023450
X002500Y023050
X002500Y020450
X002500Y019950
X002500Y019550
X002500Y016950
X002500Y016450
X002500Y016050
X002500Y013450
X002500Y012950
X002500Y012550
X002500Y009950
X002500Y009450
X002500Y009050
X002500Y006450
X002500Y005950
X002500Y005550
X002500Y002950
X002500Y002450
X002500Y002050
X009650Y040200
X009650Y036700
X009650Y033200
X009650Y029700
X009650Y026200
X009650Y022700
X009650Y019200
X009650Y015700
X009650Y012200
X009650Y008700
X009650Y005200
X009650Y001700
X010150Y040200
X010150Y036700
X010150Y033200
X010150Y029700
X010150Y026200
X010150Y022700
X010150Y019200
X010150Y015700
X010150Y012200
X010150Y008700
X010150Y005200
X010150Y001700
X010500Y040100
X010500Y036600
X010500Y033100
X010500Y029600
X010500Y026100
X010500Y022600
X010500Y019100
X010500Y015600
X010500Y012100
X010500Y008600
X010500Y005100
X010500Y001600
X011000Y041250
X011000Y037750
X011000Y034250
X011000Y030750
X011000Y027250
X011000Y023750
X011000Y020250
X011000Y016750
X011000Y013250
X011000Y009750
X011000Y006250
X011000Y002750
X011450Y040650
X011450Y037150
X011450Y033650
X011450Y030150
X011450Y026650
X011450Y023150
X011450Y019650
X011450Y016150
X011450Y012650
X011450Y009150
X011450Y005650
X011450Y002150
X011850Y040700
X011850Y039850
X011850Y037200
X011850Y036350
X011850Y033700
X011850Y032850
X011850Y030200
X011850Y029350
X011850Y026700
X011850Y025850
X011850Y023200
X011850Y022350
X011850Y019700
X011850Y018850
X011850Y016200
X011850Y015350
X011850Y012700
X011850Y011850
X011850Y009200
X011850Y008350
X011850Y005700
X011850Y004850
X011850Y002200
X011850Y001350
X012900Y040800
X012900Y037300
X012900Y033800
X012900Y030300
X012900Y026800
X012900Y023300
X012900Y019800
X012900Y016300
X012900Y012800
X012900Y009300
X012900Y005800
X012900Y002300
X013300Y040800
X013300Y037300
X013300Y033800
X013300Y030300
X013300Y026800
X013300Y023300
X013300Y019800
X013300Y016300
X013300Y012800
X013300Y009300
X013300Y005800
X013300Y002300
X013700Y040800
X013700Y037300
X013700Y033800
X013700Y030300
X013700Y026800
X013700Y023300
X013700Y019800
X013700Y016300
X013700Y012800
X013700Y009300
X013700Y005800
X013700Y002300
M30
