M48
INCH
T48C0.031
T47C0.039
%
T48
X005500Y039400
X005500Y038600
X005500Y035900
X005500Y035100
X005500Y032400
X005500Y031600
X005500Y028900
X005500Y028100
X005500Y025400
X005500Y024600
X005500Y021900
X005500Y021100
X005500Y018400
X005500Y017600
X005500Y014900
X005500Y014100
X005500Y011400
X005500Y010600
X005500Y007900
X005500Y007100
X005500Y004400
X005500Y003600
X006000Y039400
X006000Y038600
X006000Y035900
X006000Y035100
X006000Y032400
X006000Y031600
X006000Y028900
X006000Y028100
X006000Y025400
X006000Y024600
X006000Y021900
X006000Y021100
X006000Y018400
X006000Y017600
X006000Y014900
X006000Y014100
X006000Y011400
X006000Y010600
X006000Y007900
X006000Y007100
X006000Y004400
X006000Y003600
X006500Y039400
X006500Y038600
X006500Y035900
X006500Y035100
X006500Y032400
X006500Y031600
X006500Y028900
X006500Y028100
X006500Y025400
X006500Y024600
X006500Y021900
X006500Y021100
X006500Y018400
X006500Y017600
X006500Y014900
X006500Y014100
X006500Y011400
X006500Y010600
X006500Y007900
X006500Y007100
X006500Y004400
X006500Y003600
X016500Y039400
X016500Y038600
X016500Y035900
X016500Y035100
X016500Y032400
X016500Y031600
X016500Y028900
X016500Y028100
X016500Y025400
X016500Y024600
X016500Y021900
X016500Y021100
X016500Y018400
X016500Y017600
X016500Y014900
X016500Y014100
X016500Y011400
X016500Y010600
X016500Y007900
X016500Y007100
X016500Y004400
X016500Y003600
X017000Y039400
X017000Y038600
X017000Y035900
X017000Y035100
X017000Y032400
X017000Y031600
X017000Y028900
X017000Y028100
X017000Y025400
X017000Y024600
X017000Y021900
X017000Y021100
X017000Y018400
X017000Y017600
X017000Y014900
X017000Y014100
X017000Y011400
X017000Y010600
X017000Y007900
X017000Y007100
X017000Y004400
X017000Y003600
X017500Y039400
X017500Y038600
X017500Y035900
X017500Y035100
X017500Y032400
X017500Y031600
X017500Y028900
X017500Y028100
X017500Y025400
X017500Y024600
X017500Y021900
X017500Y021100
X017500Y018400
X017500Y017600
X017500Y014900
X017500Y014100
X017500Y011400
X017500Y010600
X017500Y007900
X017500Y007100
X017500Y004400
X017500Y003600
T47
X008900Y041150
X008900Y040350
X008900Y037650
X008900Y036850
X008900Y034150
X008900Y033350
X008900Y030650
X008900Y029850
X008900Y027150
X008900Y026350
X008900Y023650
X008900Y022850
X008900Y020150
X008900Y019350
X008900Y016650
X008900Y015850
X008900Y013150
X008900Y012350
X008900Y009650
X008900Y008850
X008900Y006150
X008900Y005350
X008900Y002650
X008900Y001850
X010900Y040750
X010900Y037250
X010900Y033750
X010900Y030250
X010900Y026750
X010900Y023250
X010900Y019750
X010900Y016250
X010900Y012750
X010900Y009250
X010900Y005750
X010900Y002250
M30
