G04 start of page 13 for group -3984 idx -3984 *
G04 Title: (unknown), fab *
G04 Creator: pcb 20140316 *
G04 CreationDate: Thu 20 Aug 2020 02:40:32 AM GMT UTC *
G04 For: railfan *
G04 Format: Gerber/RS-274X *
G04 PCB-Dimensions (mil): 2400.00 4300.00 *
G04 PCB-Coordinate-Origin: lower left *
%MOIN*%
%FSLAX25Y25*%
%LNFAB*%
%ADD80C,0.0100*%
%ADD79C,0.0075*%
%ADD78C,0.0060*%
%ADD77R,0.0080X0.0080*%
G54D77*X108200Y407500D02*G75*G03X109800Y407500I800J0D01*G01*
G75*G03X108200Y407500I-800J0D01*G01*
X88200Y411500D02*G75*G03X89800Y411500I800J0D01*G01*
G75*G03X88200Y411500I-800J0D01*G01*
Y403500D02*G75*G03X89800Y403500I800J0D01*G01*
G75*G03X88200Y403500I-800J0D01*G01*
X108200Y372500D02*G75*G03X109800Y372500I800J0D01*G01*
G75*G03X108200Y372500I-800J0D01*G01*
X88200Y376500D02*G75*G03X89800Y376500I800J0D01*G01*
G75*G03X88200Y376500I-800J0D01*G01*
Y368500D02*G75*G03X89800Y368500I800J0D01*G01*
G75*G03X88200Y368500I-800J0D01*G01*
X108200Y337500D02*G75*G03X109800Y337500I800J0D01*G01*
G75*G03X108200Y337500I-800J0D01*G01*
X88200Y341500D02*G75*G03X89800Y341500I800J0D01*G01*
G75*G03X88200Y341500I-800J0D01*G01*
Y333500D02*G75*G03X89800Y333500I800J0D01*G01*
G75*G03X88200Y333500I-800J0D01*G01*
X108200Y302500D02*G75*G03X109800Y302500I800J0D01*G01*
G75*G03X108200Y302500I-800J0D01*G01*
X88200Y306500D02*G75*G03X89800Y306500I800J0D01*G01*
G75*G03X88200Y306500I-800J0D01*G01*
Y298500D02*G75*G03X89800Y298500I800J0D01*G01*
G75*G03X88200Y298500I-800J0D01*G01*
X108200Y267500D02*G75*G03X109800Y267500I800J0D01*G01*
G75*G03X108200Y267500I-800J0D01*G01*
X88200Y271500D02*G75*G03X89800Y271500I800J0D01*G01*
G75*G03X88200Y271500I-800J0D01*G01*
Y263500D02*G75*G03X89800Y263500I800J0D01*G01*
G75*G03X88200Y263500I-800J0D01*G01*
X108200Y232500D02*G75*G03X109800Y232500I800J0D01*G01*
G75*G03X108200Y232500I-800J0D01*G01*
X88200Y236500D02*G75*G03X89800Y236500I800J0D01*G01*
G75*G03X88200Y236500I-800J0D01*G01*
Y228500D02*G75*G03X89800Y228500I800J0D01*G01*
G75*G03X88200Y228500I-800J0D01*G01*
X108200Y197500D02*G75*G03X109800Y197500I800J0D01*G01*
G75*G03X108200Y197500I-800J0D01*G01*
X88200Y201500D02*G75*G03X89800Y201500I800J0D01*G01*
G75*G03X88200Y201500I-800J0D01*G01*
Y193500D02*G75*G03X89800Y193500I800J0D01*G01*
G75*G03X88200Y193500I-800J0D01*G01*
X108200Y162500D02*G75*G03X109800Y162500I800J0D01*G01*
G75*G03X108200Y162500I-800J0D01*G01*
X88200Y166500D02*G75*G03X89800Y166500I800J0D01*G01*
G75*G03X88200Y166500I-800J0D01*G01*
Y158500D02*G75*G03X89800Y158500I800J0D01*G01*
G75*G03X88200Y158500I-800J0D01*G01*
X108200Y127500D02*G75*G03X109800Y127500I800J0D01*G01*
G75*G03X108200Y127500I-800J0D01*G01*
X88200Y131500D02*G75*G03X89800Y131500I800J0D01*G01*
G75*G03X88200Y131500I-800J0D01*G01*
Y123500D02*G75*G03X89800Y123500I800J0D01*G01*
G75*G03X88200Y123500I-800J0D01*G01*
X108200Y92500D02*G75*G03X109800Y92500I800J0D01*G01*
G75*G03X108200Y92500I-800J0D01*G01*
X88200Y96500D02*G75*G03X89800Y96500I800J0D01*G01*
G75*G03X88200Y96500I-800J0D01*G01*
Y88500D02*G75*G03X89800Y88500I800J0D01*G01*
G75*G03X88200Y88500I-800J0D01*G01*
X108200Y57500D02*G75*G03X109800Y57500I800J0D01*G01*
G75*G03X108200Y57500I-800J0D01*G01*
X88200Y61500D02*G75*G03X89800Y61500I800J0D01*G01*
G75*G03X88200Y61500I-800J0D01*G01*
Y53500D02*G75*G03X89800Y53500I800J0D01*G01*
G75*G03X88200Y53500I-800J0D01*G01*
X108200Y22500D02*G75*G03X109800Y22500I800J0D01*G01*
G75*G03X108200Y22500I-800J0D01*G01*
X88200Y26500D02*G75*G03X89800Y26500I800J0D01*G01*
G75*G03X88200Y26500I-800J0D01*G01*
Y18500D02*G75*G03X89800Y18500I800J0D01*G01*
G75*G03X88200Y18500I-800J0D01*G01*
X14200Y441250D02*G75*G03X15800Y441250I800J0D01*G01*
G75*G03X14200Y441250I-800J0D01*G01*
G54D78*X140000Y443500D02*Y437500D01*
Y443500D02*X143750Y437500D01*
Y443500D02*Y437500D01*
X145550Y442750D02*Y438250D01*
Y442750D02*X146300Y443500D01*
X147800D01*
X148550Y442750D01*
Y438250D01*
X147800Y437500D02*X148550Y438250D01*
X146300Y437500D02*X147800D01*
X145550Y438250D02*X146300Y437500D01*
X98000Y442750D02*X98750Y443500D01*
X100250D01*
X101000Y442750D01*
X100250Y437500D02*X101000Y438250D01*
X98750Y437500D02*X100250D01*
X98000Y438250D02*X98750Y437500D01*
Y440800D02*X100250D01*
X101000Y442750D02*Y441550D01*
Y440050D02*Y438250D01*
Y440050D02*X100250Y440800D01*
X101000Y441550D02*X100250Y440800D01*
X105050Y443500D02*X105800Y442750D01*
X103550Y443500D02*X105050D01*
X102800Y442750D02*X103550Y443500D01*
X102800Y442750D02*Y438250D01*
X103550Y437500D01*
X105050Y440800D02*X105800Y440050D01*
X102800Y440800D02*X105050D01*
X103550Y437500D02*X105050D01*
X105800Y438250D01*
Y440050D02*Y438250D01*
X45000D02*X45750Y437500D01*
X45000Y442750D02*Y438250D01*
Y442750D02*X45750Y443500D01*
X47250D01*
X48000Y442750D01*
Y438250D01*
X47250Y437500D02*X48000Y438250D01*
X45750Y437500D02*X47250D01*
X45000Y439000D02*X48000Y442000D01*
X49800Y437500D02*X50550D01*
X52350Y438250D02*X53100Y437500D01*
X52350Y442750D02*Y438250D01*
Y442750D02*X53100Y443500D01*
X54600D01*
X55350Y442750D01*
Y438250D01*
X54600Y437500D02*X55350Y438250D01*
X53100Y437500D02*X54600D01*
X52350Y439000D02*X55350Y442000D01*
X57150Y442750D02*X57900Y443500D01*
X59400D01*
X60150Y442750D01*
X59400Y437500D02*X60150Y438250D01*
X57900Y437500D02*X59400D01*
X57150Y438250D02*X57900Y437500D01*
Y440800D02*X59400D01*
X60150Y442750D02*Y441550D01*
Y440050D02*Y438250D01*
Y440050D02*X59400Y440800D01*
X60150Y441550D02*X59400Y440800D01*
X62700Y437500D02*X64950Y440500D01*
Y442750D02*Y440500D01*
X64200Y443500D02*X64950Y442750D01*
X62700Y443500D02*X64200D01*
X61950Y442750D02*X62700Y443500D01*
X61950Y442750D02*Y441250D01*
X62700Y440500D01*
X64950D01*
X63800Y387200D02*X66200Y384800D01*
X63800D02*X66200Y387200D01*
X53800D02*X56200Y384800D01*
X53800D02*X56200Y387200D01*
X58800D02*X61200Y384800D01*
X58800D02*X61200Y387200D01*
X63800Y395200D02*X66200Y392800D01*
X63800D02*X66200Y395200D01*
X58800D02*X61200Y392800D01*
X58800D02*X61200Y395200D01*
X53800D02*X56200Y392800D01*
X53800D02*X56200Y395200D01*
X173800Y387200D02*X176200Y384800D01*
X173800D02*X176200Y387200D01*
X163800D02*X166200Y384800D01*
X163800D02*X166200Y387200D01*
X168800D02*X171200Y384800D01*
X168800D02*X171200Y387200D01*
X173800Y395200D02*X176200Y392800D01*
X173800D02*X176200Y395200D01*
X168800D02*X171200Y392800D01*
X168800D02*X171200Y395200D01*
X163800D02*X166200Y392800D01*
X163800D02*X166200Y395200D01*
X63800Y352200D02*X66200Y349800D01*
X63800D02*X66200Y352200D01*
X53800D02*X56200Y349800D01*
X53800D02*X56200Y352200D01*
X58800D02*X61200Y349800D01*
X58800D02*X61200Y352200D01*
X63800Y360200D02*X66200Y357800D01*
X63800D02*X66200Y360200D01*
X58800D02*X61200Y357800D01*
X58800D02*X61200Y360200D01*
X53800D02*X56200Y357800D01*
X53800D02*X56200Y360200D01*
X173800Y352200D02*X176200Y349800D01*
X173800D02*X176200Y352200D01*
X163800D02*X166200Y349800D01*
X163800D02*X166200Y352200D01*
X168800D02*X171200Y349800D01*
X168800D02*X171200Y352200D01*
X173800Y360200D02*X176200Y357800D01*
X173800D02*X176200Y360200D01*
X168800D02*X171200Y357800D01*
X168800D02*X171200Y360200D01*
X163800D02*X166200Y357800D01*
X163800D02*X166200Y360200D01*
X63800Y317200D02*X66200Y314800D01*
X63800D02*X66200Y317200D01*
X53800D02*X56200Y314800D01*
X53800D02*X56200Y317200D01*
X58800D02*X61200Y314800D01*
X58800D02*X61200Y317200D01*
X63800Y325200D02*X66200Y322800D01*
X63800D02*X66200Y325200D01*
X58800D02*X61200Y322800D01*
X58800D02*X61200Y325200D01*
X53800D02*X56200Y322800D01*
X53800D02*X56200Y325200D01*
X173800Y317200D02*X176200Y314800D01*
X173800D02*X176200Y317200D01*
X163800D02*X166200Y314800D01*
X163800D02*X166200Y317200D01*
X168800D02*X171200Y314800D01*
X168800D02*X171200Y317200D01*
X173800Y325200D02*X176200Y322800D01*
X173800D02*X176200Y325200D01*
X168800D02*X171200Y322800D01*
X168800D02*X171200Y325200D01*
X163800D02*X166200Y322800D01*
X163800D02*X166200Y325200D01*
X63800Y282200D02*X66200Y279800D01*
X63800D02*X66200Y282200D01*
X53800D02*X56200Y279800D01*
X53800D02*X56200Y282200D01*
X58800D02*X61200Y279800D01*
X58800D02*X61200Y282200D01*
X63800Y290200D02*X66200Y287800D01*
X63800D02*X66200Y290200D01*
X58800D02*X61200Y287800D01*
X58800D02*X61200Y290200D01*
X53800D02*X56200Y287800D01*
X53800D02*X56200Y290200D01*
X173800Y282200D02*X176200Y279800D01*
X173800D02*X176200Y282200D01*
X163800D02*X166200Y279800D01*
X163800D02*X166200Y282200D01*
X168800D02*X171200Y279800D01*
X168800D02*X171200Y282200D01*
X173800Y290200D02*X176200Y287800D01*
X173800D02*X176200Y290200D01*
X168800D02*X171200Y287800D01*
X168800D02*X171200Y290200D01*
X163800D02*X166200Y287800D01*
X163800D02*X166200Y290200D01*
X63800Y247200D02*X66200Y244800D01*
X63800D02*X66200Y247200D01*
X53800D02*X56200Y244800D01*
X53800D02*X56200Y247200D01*
X58800D02*X61200Y244800D01*
X58800D02*X61200Y247200D01*
X63800Y255200D02*X66200Y252800D01*
X63800D02*X66200Y255200D01*
X58800D02*X61200Y252800D01*
X58800D02*X61200Y255200D01*
X53800D02*X56200Y252800D01*
X53800D02*X56200Y255200D01*
X173800Y247200D02*X176200Y244800D01*
X173800D02*X176200Y247200D01*
X163800D02*X166200Y244800D01*
X163800D02*X166200Y247200D01*
X168800D02*X171200Y244800D01*
X168800D02*X171200Y247200D01*
X173800Y255200D02*X176200Y252800D01*
X173800D02*X176200Y255200D01*
X168800D02*X171200Y252800D01*
X168800D02*X171200Y255200D01*
X163800D02*X166200Y252800D01*
X163800D02*X166200Y255200D01*
X63800Y212200D02*X66200Y209800D01*
X63800D02*X66200Y212200D01*
X53800D02*X56200Y209800D01*
X53800D02*X56200Y212200D01*
X58800D02*X61200Y209800D01*
X58800D02*X61200Y212200D01*
X63800Y220200D02*X66200Y217800D01*
X63800D02*X66200Y220200D01*
X58800D02*X61200Y217800D01*
X58800D02*X61200Y220200D01*
X53800D02*X56200Y217800D01*
X53800D02*X56200Y220200D01*
X173800Y212200D02*X176200Y209800D01*
X173800D02*X176200Y212200D01*
X163800D02*X166200Y209800D01*
X163800D02*X166200Y212200D01*
X168800D02*X171200Y209800D01*
X168800D02*X171200Y212200D01*
X173800Y220200D02*X176200Y217800D01*
X173800D02*X176200Y220200D01*
X168800D02*X171200Y217800D01*
X168800D02*X171200Y220200D01*
X163800D02*X166200Y217800D01*
X163800D02*X166200Y220200D01*
X63800Y177200D02*X66200Y174800D01*
X63800D02*X66200Y177200D01*
X53800D02*X56200Y174800D01*
X53800D02*X56200Y177200D01*
X58800D02*X61200Y174800D01*
X58800D02*X61200Y177200D01*
X63800Y185200D02*X66200Y182800D01*
X63800D02*X66200Y185200D01*
X58800D02*X61200Y182800D01*
X58800D02*X61200Y185200D01*
X53800D02*X56200Y182800D01*
X53800D02*X56200Y185200D01*
X173800Y177200D02*X176200Y174800D01*
X173800D02*X176200Y177200D01*
X163800D02*X166200Y174800D01*
X163800D02*X166200Y177200D01*
X168800D02*X171200Y174800D01*
X168800D02*X171200Y177200D01*
X173800Y185200D02*X176200Y182800D01*
X173800D02*X176200Y185200D01*
X168800D02*X171200Y182800D01*
X168800D02*X171200Y185200D01*
X163800D02*X166200Y182800D01*
X163800D02*X166200Y185200D01*
X63800Y142200D02*X66200Y139800D01*
X63800D02*X66200Y142200D01*
X53800D02*X56200Y139800D01*
X53800D02*X56200Y142200D01*
X58800D02*X61200Y139800D01*
X58800D02*X61200Y142200D01*
X63800Y150200D02*X66200Y147800D01*
X63800D02*X66200Y150200D01*
X58800D02*X61200Y147800D01*
X58800D02*X61200Y150200D01*
X53800D02*X56200Y147800D01*
X53800D02*X56200Y150200D01*
X173800Y142200D02*X176200Y139800D01*
X173800D02*X176200Y142200D01*
X163800D02*X166200Y139800D01*
X163800D02*X166200Y142200D01*
X168800D02*X171200Y139800D01*
X168800D02*X171200Y142200D01*
X173800Y150200D02*X176200Y147800D01*
X173800D02*X176200Y150200D01*
X168800D02*X171200Y147800D01*
X168800D02*X171200Y150200D01*
X163800D02*X166200Y147800D01*
X163800D02*X166200Y150200D01*
X63800Y107200D02*X66200Y104800D01*
X63800D02*X66200Y107200D01*
X53800D02*X56200Y104800D01*
X53800D02*X56200Y107200D01*
X58800D02*X61200Y104800D01*
X58800D02*X61200Y107200D01*
X63800Y115200D02*X66200Y112800D01*
X63800D02*X66200Y115200D01*
X58800D02*X61200Y112800D01*
X58800D02*X61200Y115200D01*
X53800D02*X56200Y112800D01*
X53800D02*X56200Y115200D01*
X173800Y107200D02*X176200Y104800D01*
X173800D02*X176200Y107200D01*
X163800D02*X166200Y104800D01*
X163800D02*X166200Y107200D01*
X168800D02*X171200Y104800D01*
X168800D02*X171200Y107200D01*
X173800Y115200D02*X176200Y112800D01*
X173800D02*X176200Y115200D01*
X168800D02*X171200Y112800D01*
X168800D02*X171200Y115200D01*
X163800D02*X166200Y112800D01*
X163800D02*X166200Y115200D01*
X63800Y72200D02*X66200Y69800D01*
X63800D02*X66200Y72200D01*
X53800D02*X56200Y69800D01*
X53800D02*X56200Y72200D01*
X58800D02*X61200Y69800D01*
X58800D02*X61200Y72200D01*
X63800Y80200D02*X66200Y77800D01*
X63800D02*X66200Y80200D01*
X58800D02*X61200Y77800D01*
X58800D02*X61200Y80200D01*
X53800D02*X56200Y77800D01*
X53800D02*X56200Y80200D01*
X173800Y72200D02*X176200Y69800D01*
X173800D02*X176200Y72200D01*
X163800D02*X166200Y69800D01*
X163800D02*X166200Y72200D01*
X168800D02*X171200Y69800D01*
X168800D02*X171200Y72200D01*
X173800Y80200D02*X176200Y77800D01*
X173800D02*X176200Y80200D01*
X168800D02*X171200Y77800D01*
X168800D02*X171200Y80200D01*
X163800D02*X166200Y77800D01*
X163800D02*X166200Y80200D01*
X63800Y37200D02*X66200Y34800D01*
X63800D02*X66200Y37200D01*
X53800D02*X56200Y34800D01*
X53800D02*X56200Y37200D01*
X58800D02*X61200Y34800D01*
X58800D02*X61200Y37200D01*
X63800Y45200D02*X66200Y42800D01*
X63800D02*X66200Y45200D01*
X58800D02*X61200Y42800D01*
X58800D02*X61200Y45200D01*
X53800D02*X56200Y42800D01*
X53800D02*X56200Y45200D01*
X173800Y37200D02*X176200Y34800D01*
X173800D02*X176200Y37200D01*
X163800D02*X166200Y34800D01*
X163800D02*X166200Y37200D01*
X168800D02*X171200Y34800D01*
X168800D02*X171200Y37200D01*
X173800Y45200D02*X176200Y42800D01*
X173800D02*X176200Y45200D01*
X168800D02*X171200Y42800D01*
X168800D02*X171200Y45200D01*
X163800D02*X166200Y42800D01*
X163800D02*X166200Y45200D01*
X13800Y457450D02*X16200Y455050D01*
X13800D02*X16200Y457450D01*
X140000Y458500D02*Y452500D01*
Y458500D02*X143750Y452500D01*
Y458500D02*Y452500D01*
X145550Y457750D02*Y453250D01*
Y457750D02*X146300Y458500D01*
X147800D01*
X148550Y457750D01*
Y453250D01*
X147800Y452500D02*X148550Y453250D01*
X146300Y452500D02*X147800D01*
X145550Y453250D02*X146300Y452500D01*
X98000Y457300D02*X99200Y458500D01*
Y452500D01*
X98000D02*X100250D01*
X102050Y457750D02*X102800Y458500D01*
X104300D01*
X105050Y457750D01*
X104300Y452500D02*X105050Y453250D01*
X102800Y452500D02*X104300D01*
X102050Y453250D02*X102800Y452500D01*
Y455800D02*X104300D01*
X105050Y457750D02*Y456550D01*
Y455050D02*Y453250D01*
Y455050D02*X104300Y455800D01*
X105050Y456550D02*X104300Y455800D01*
X106850Y457750D02*X107600Y458500D01*
X109850D01*
X110600Y457750D01*
Y456250D01*
X106850Y452500D02*X110600Y456250D01*
X106850Y452500D02*X110600D01*
X45000Y453250D02*X45750Y452500D01*
X45000Y457750D02*Y453250D01*
Y457750D02*X45750Y458500D01*
X47250D01*
X48000Y457750D01*
Y453250D01*
X47250Y452500D02*X48000Y453250D01*
X45750Y452500D02*X47250D01*
X45000Y454000D02*X48000Y457000D01*
X49800Y452500D02*X50550D01*
X52350Y453250D02*X53100Y452500D01*
X52350Y457750D02*Y453250D01*
Y457750D02*X53100Y458500D01*
X54600D01*
X55350Y457750D01*
Y453250D01*
X54600Y452500D02*X55350Y453250D01*
X53100Y452500D02*X54600D01*
X52350Y454000D02*X55350Y457000D01*
X57150Y457750D02*X57900Y458500D01*
X59400D01*
X60150Y457750D01*
X59400Y452500D02*X60150Y453250D01*
X57900Y452500D02*X59400D01*
X57150Y453250D02*X57900Y452500D01*
Y455800D02*X59400D01*
X60150Y457750D02*Y456550D01*
Y455050D02*Y453250D01*
Y455050D02*X59400Y455800D01*
X60150Y456550D02*X59400Y455800D01*
X61950Y457300D02*X63150Y458500D01*
Y452500D01*
X61950D02*X64200D01*
X25000Y416100D02*Y412900D01*
X23400Y414500D02*X26600D01*
X25000Y407100D02*Y403900D01*
X23400Y405500D02*X26600D01*
X25000Y411100D02*Y407900D01*
X23400Y409500D02*X26600D01*
X96500Y403600D02*Y400400D01*
X94900Y402000D02*X98100D01*
X101500Y403600D02*Y400400D01*
X99900Y402000D02*X103100D01*
X105000Y402600D02*Y399400D01*
X103400Y401000D02*X106600D01*
X118500Y400100D02*Y396900D01*
X116900Y398500D02*X120100D01*
X118500Y408600D02*Y405400D01*
X116900Y407000D02*X120100D01*
X114500Y408100D02*Y404900D01*
X112900Y406500D02*X116100D01*
X110000Y414100D02*Y410900D01*
X108400Y412500D02*X111600D01*
X133000Y409600D02*Y406400D01*
X131400Y408000D02*X134600D01*
X137000Y409600D02*Y406400D01*
X135400Y408000D02*X138600D01*
X129000Y409600D02*Y406400D01*
X127400Y408000D02*X130600D01*
X25000Y381100D02*Y377900D01*
X23400Y379500D02*X26600D01*
X25000Y372100D02*Y368900D01*
X23400Y370500D02*X26600D01*
X25000Y376100D02*Y372900D01*
X23400Y374500D02*X26600D01*
X96500Y368600D02*Y365400D01*
X94900Y367000D02*X98100D01*
X101500Y368600D02*Y365400D01*
X99900Y367000D02*X103100D01*
X105000Y367600D02*Y364400D01*
X103400Y366000D02*X106600D01*
X118500Y365100D02*Y361900D01*
X116900Y363500D02*X120100D01*
X118500Y373600D02*Y370400D01*
X116900Y372000D02*X120100D01*
X114500Y373100D02*Y369900D01*
X112900Y371500D02*X116100D01*
X110000Y379100D02*Y375900D01*
X108400Y377500D02*X111600D01*
X133000Y374600D02*Y371400D01*
X131400Y373000D02*X134600D01*
X137000Y374600D02*Y371400D01*
X135400Y373000D02*X138600D01*
X129000Y374600D02*Y371400D01*
X127400Y373000D02*X130600D01*
X25000Y346100D02*Y342900D01*
X23400Y344500D02*X26600D01*
X25000Y337100D02*Y333900D01*
X23400Y335500D02*X26600D01*
X25000Y341100D02*Y337900D01*
X23400Y339500D02*X26600D01*
X96500Y333600D02*Y330400D01*
X94900Y332000D02*X98100D01*
X101500Y333600D02*Y330400D01*
X99900Y332000D02*X103100D01*
X105000Y332600D02*Y329400D01*
X103400Y331000D02*X106600D01*
X118500Y330100D02*Y326900D01*
X116900Y328500D02*X120100D01*
X118500Y338600D02*Y335400D01*
X116900Y337000D02*X120100D01*
X114500Y338100D02*Y334900D01*
X112900Y336500D02*X116100D01*
X110000Y344100D02*Y340900D01*
X108400Y342500D02*X111600D01*
X133000Y339600D02*Y336400D01*
X131400Y338000D02*X134600D01*
X137000Y339600D02*Y336400D01*
X135400Y338000D02*X138600D01*
X129000Y339600D02*Y336400D01*
X127400Y338000D02*X130600D01*
X25000Y311100D02*Y307900D01*
X23400Y309500D02*X26600D01*
X25000Y302100D02*Y298900D01*
X23400Y300500D02*X26600D01*
X25000Y306100D02*Y302900D01*
X23400Y304500D02*X26600D01*
X96500Y298600D02*Y295400D01*
X94900Y297000D02*X98100D01*
X101500Y298600D02*Y295400D01*
X99900Y297000D02*X103100D01*
X105000Y297600D02*Y294400D01*
X103400Y296000D02*X106600D01*
X118500Y295100D02*Y291900D01*
X116900Y293500D02*X120100D01*
X118500Y303600D02*Y300400D01*
X116900Y302000D02*X120100D01*
X114500Y303100D02*Y299900D01*
X112900Y301500D02*X116100D01*
X110000Y309100D02*Y305900D01*
X108400Y307500D02*X111600D01*
X133000Y304600D02*Y301400D01*
X131400Y303000D02*X134600D01*
X137000Y304600D02*Y301400D01*
X135400Y303000D02*X138600D01*
X129000Y304600D02*Y301400D01*
X127400Y303000D02*X130600D01*
X25000Y276100D02*Y272900D01*
X23400Y274500D02*X26600D01*
X25000Y267100D02*Y263900D01*
X23400Y265500D02*X26600D01*
X25000Y271100D02*Y267900D01*
X23400Y269500D02*X26600D01*
X96500Y263600D02*Y260400D01*
X94900Y262000D02*X98100D01*
X101500Y263600D02*Y260400D01*
X99900Y262000D02*X103100D01*
X105000Y262600D02*Y259400D01*
X103400Y261000D02*X106600D01*
X118500Y260100D02*Y256900D01*
X116900Y258500D02*X120100D01*
X118500Y268600D02*Y265400D01*
X116900Y267000D02*X120100D01*
X114500Y268100D02*Y264900D01*
X112900Y266500D02*X116100D01*
X110000Y274100D02*Y270900D01*
X108400Y272500D02*X111600D01*
X133000Y269600D02*Y266400D01*
X131400Y268000D02*X134600D01*
X137000Y269600D02*Y266400D01*
X135400Y268000D02*X138600D01*
X129000Y269600D02*Y266400D01*
X127400Y268000D02*X130600D01*
X25000Y241100D02*Y237900D01*
X23400Y239500D02*X26600D01*
X25000Y232100D02*Y228900D01*
X23400Y230500D02*X26600D01*
X25000Y236100D02*Y232900D01*
X23400Y234500D02*X26600D01*
X96500Y228600D02*Y225400D01*
X94900Y227000D02*X98100D01*
X101500Y228600D02*Y225400D01*
X99900Y227000D02*X103100D01*
X105000Y227600D02*Y224400D01*
X103400Y226000D02*X106600D01*
X118500Y225100D02*Y221900D01*
X116900Y223500D02*X120100D01*
X118500Y233600D02*Y230400D01*
X116900Y232000D02*X120100D01*
X114500Y233100D02*Y229900D01*
X112900Y231500D02*X116100D01*
X110000Y239100D02*Y235900D01*
X108400Y237500D02*X111600D01*
X133000Y234600D02*Y231400D01*
X131400Y233000D02*X134600D01*
X137000Y234600D02*Y231400D01*
X135400Y233000D02*X138600D01*
X129000Y234600D02*Y231400D01*
X127400Y233000D02*X130600D01*
X25000Y206100D02*Y202900D01*
X23400Y204500D02*X26600D01*
X25000Y197100D02*Y193900D01*
X23400Y195500D02*X26600D01*
X25000Y201100D02*Y197900D01*
X23400Y199500D02*X26600D01*
X96500Y193600D02*Y190400D01*
X94900Y192000D02*X98100D01*
X101500Y193600D02*Y190400D01*
X99900Y192000D02*X103100D01*
X105000Y192600D02*Y189400D01*
X103400Y191000D02*X106600D01*
X118500Y190100D02*Y186900D01*
X116900Y188500D02*X120100D01*
X118500Y198600D02*Y195400D01*
X116900Y197000D02*X120100D01*
X114500Y198100D02*Y194900D01*
X112900Y196500D02*X116100D01*
X110000Y204100D02*Y200900D01*
X108400Y202500D02*X111600D01*
X133000Y199600D02*Y196400D01*
X131400Y198000D02*X134600D01*
X137000Y199600D02*Y196400D01*
X135400Y198000D02*X138600D01*
X129000Y199600D02*Y196400D01*
X127400Y198000D02*X130600D01*
X25000Y171100D02*Y167900D01*
X23400Y169500D02*X26600D01*
X25000Y162100D02*Y158900D01*
X23400Y160500D02*X26600D01*
X25000Y166100D02*Y162900D01*
X23400Y164500D02*X26600D01*
X96500Y158600D02*Y155400D01*
X94900Y157000D02*X98100D01*
X101500Y158600D02*Y155400D01*
X99900Y157000D02*X103100D01*
X105000Y157600D02*Y154400D01*
X103400Y156000D02*X106600D01*
X118500Y155100D02*Y151900D01*
X116900Y153500D02*X120100D01*
X118500Y163600D02*Y160400D01*
X116900Y162000D02*X120100D01*
X114500Y163100D02*Y159900D01*
X112900Y161500D02*X116100D01*
X110000Y169100D02*Y165900D01*
X108400Y167500D02*X111600D01*
X133000Y164600D02*Y161400D01*
X131400Y163000D02*X134600D01*
X137000Y164600D02*Y161400D01*
X135400Y163000D02*X138600D01*
X129000Y164600D02*Y161400D01*
X127400Y163000D02*X130600D01*
X25000Y136100D02*Y132900D01*
X23400Y134500D02*X26600D01*
X25000Y127100D02*Y123900D01*
X23400Y125500D02*X26600D01*
X25000Y131100D02*Y127900D01*
X23400Y129500D02*X26600D01*
X96500Y123600D02*Y120400D01*
X94900Y122000D02*X98100D01*
X101500Y123600D02*Y120400D01*
X99900Y122000D02*X103100D01*
X105000Y122600D02*Y119400D01*
X103400Y121000D02*X106600D01*
X118500Y120100D02*Y116900D01*
X116900Y118500D02*X120100D01*
X118500Y128600D02*Y125400D01*
X116900Y127000D02*X120100D01*
X114500Y128100D02*Y124900D01*
X112900Y126500D02*X116100D01*
X110000Y134100D02*Y130900D01*
X108400Y132500D02*X111600D01*
X133000Y129600D02*Y126400D01*
X131400Y128000D02*X134600D01*
X137000Y129600D02*Y126400D01*
X135400Y128000D02*X138600D01*
X129000Y129600D02*Y126400D01*
X127400Y128000D02*X130600D01*
X25000Y101100D02*Y97900D01*
X23400Y99500D02*X26600D01*
X25000Y92100D02*Y88900D01*
X23400Y90500D02*X26600D01*
X25000Y96100D02*Y92900D01*
X23400Y94500D02*X26600D01*
X96500Y88600D02*Y85400D01*
X94900Y87000D02*X98100D01*
X101500Y88600D02*Y85400D01*
X99900Y87000D02*X103100D01*
X105000Y87600D02*Y84400D01*
X103400Y86000D02*X106600D01*
X118500Y85100D02*Y81900D01*
X116900Y83500D02*X120100D01*
X118500Y93600D02*Y90400D01*
X116900Y92000D02*X120100D01*
X114500Y93100D02*Y89900D01*
X112900Y91500D02*X116100D01*
X110000Y99100D02*Y95900D01*
X108400Y97500D02*X111600D01*
X133000Y94600D02*Y91400D01*
X131400Y93000D02*X134600D01*
X137000Y94600D02*Y91400D01*
X135400Y93000D02*X138600D01*
X129000Y94600D02*Y91400D01*
X127400Y93000D02*X130600D01*
X25000Y66100D02*Y62900D01*
X23400Y64500D02*X26600D01*
X25000Y57100D02*Y53900D01*
X23400Y55500D02*X26600D01*
X25000Y61100D02*Y57900D01*
X23400Y59500D02*X26600D01*
X96500Y53600D02*Y50400D01*
X94900Y52000D02*X98100D01*
X101500Y53600D02*Y50400D01*
X99900Y52000D02*X103100D01*
X105000Y52600D02*Y49400D01*
X103400Y51000D02*X106600D01*
X118500Y50100D02*Y46900D01*
X116900Y48500D02*X120100D01*
X118500Y58600D02*Y55400D01*
X116900Y57000D02*X120100D01*
X114500Y58100D02*Y54900D01*
X112900Y56500D02*X116100D01*
X110000Y64100D02*Y60900D01*
X108400Y62500D02*X111600D01*
X133000Y59600D02*Y56400D01*
X131400Y58000D02*X134600D01*
X137000Y59600D02*Y56400D01*
X135400Y58000D02*X138600D01*
X129000Y59600D02*Y56400D01*
X127400Y58000D02*X130600D01*
X25000Y31100D02*Y27900D01*
X23400Y29500D02*X26600D01*
X25000Y22100D02*Y18900D01*
X23400Y20500D02*X26600D01*
X25000Y26100D02*Y22900D01*
X23400Y24500D02*X26600D01*
X96500Y18600D02*Y15400D01*
X94900Y17000D02*X98100D01*
X101500Y18600D02*Y15400D01*
X99900Y17000D02*X103100D01*
X105000Y17600D02*Y14400D01*
X103400Y16000D02*X106600D01*
X118500Y15100D02*Y11900D01*
X116900Y13500D02*X120100D01*
X118500Y23600D02*Y20400D01*
X116900Y22000D02*X120100D01*
X114500Y23100D02*Y19900D01*
X112900Y21500D02*X116100D01*
X110000Y29100D02*Y25900D01*
X108400Y27500D02*X111600D01*
X133000Y24600D02*Y21400D01*
X131400Y23000D02*X134600D01*
X137000Y24600D02*Y21400D01*
X135400Y23000D02*X138600D01*
X129000Y24600D02*Y21400D01*
X127400Y23000D02*X130600D01*
X15000Y472850D02*Y469650D01*
X13400Y471250D02*X16600D01*
X135000Y473500D02*X136500Y470500D01*
X138000Y473500D01*
X136500Y470500D02*Y467500D01*
X139800Y470800D02*X142050D01*
X139800Y467500D02*X142800D01*
X139800Y473500D02*Y467500D01*
Y473500D02*X142800D01*
X147600D02*X148350Y472750D01*
X145350Y473500D02*X147600D01*
X144600Y472750D02*X145350Y473500D01*
X144600Y472750D02*Y471250D01*
X145350Y470500D01*
X147600D01*
X148350Y469750D01*
Y468250D01*
X147600Y467500D02*X148350Y468250D01*
X145350Y467500D02*X147600D01*
X144600Y468250D02*X145350Y467500D01*
X98000Y472300D02*X99200Y473500D01*
Y467500D01*
X98000D02*X100250D01*
X102050Y473500D02*X105050D01*
X102050D02*Y470500D01*
X102800Y471250D01*
X104300D01*
X105050Y470500D01*
Y468250D01*
X104300Y467500D02*X105050Y468250D01*
X102800Y467500D02*X104300D01*
X102050Y468250D02*X102800Y467500D01*
X109100Y473500D02*X109850Y472750D01*
X107600Y473500D02*X109100D01*
X106850Y472750D02*X107600Y473500D01*
X106850Y472750D02*Y468250D01*
X107600Y467500D01*
X109100Y470800D02*X109850Y470050D01*
X106850Y470800D02*X109100D01*
X107600Y467500D02*X109100D01*
X109850Y468250D01*
Y470050D02*Y468250D01*
X45000D02*X45750Y467500D01*
X45000Y472750D02*Y468250D01*
Y472750D02*X45750Y473500D01*
X47250D01*
X48000Y472750D01*
Y468250D01*
X47250Y467500D02*X48000Y468250D01*
X45750Y467500D02*X47250D01*
X45000Y469000D02*X48000Y472000D01*
X49800Y467500D02*X50550D01*
X52350Y468250D02*X53100Y467500D01*
X52350Y472750D02*Y468250D01*
Y472750D02*X53100Y473500D01*
X54600D01*
X55350Y472750D01*
Y468250D01*
X54600Y467500D02*X55350Y468250D01*
X53100Y467500D02*X54600D01*
X52350Y469000D02*X55350Y472000D01*
X57150Y472300D02*X58350Y473500D01*
Y467500D01*
X57150D02*X59400D01*
X61200Y469750D02*X64200Y473500D01*
X61200Y469750D02*X64950D01*
X64200Y473500D02*Y467500D01*
X36000Y407500D02*Y405900D01*
Y407500D02*X37387Y408300D01*
X36000Y407500D02*X34613Y408300D01*
X51500Y402000D02*Y400400D01*
Y402000D02*X52887Y402800D01*
X51500Y402000D02*X50113Y402800D01*
X47500Y416000D02*Y414400D01*
Y416000D02*X48887Y416800D01*
X47500Y416000D02*X46113Y416800D01*
X50000Y416000D02*Y414400D01*
Y416000D02*X51387Y416800D01*
X50000Y416000D02*X48613Y416800D01*
X126000Y411500D02*Y409900D01*
Y411500D02*X127387Y412300D01*
X126000Y411500D02*X124613Y412300D01*
X213000Y401594D02*Y399994D01*
Y401594D02*X214387Y402394D01*
X213000Y401594D02*X211613Y402394D01*
X216000Y401594D02*Y399994D01*
Y401594D02*X217387Y402394D01*
X216000Y401594D02*X214613Y402394D01*
X200500Y406500D02*Y404900D01*
Y406500D02*X201887Y407300D01*
X200500Y406500D02*X199113Y407300D01*
X197000Y406500D02*Y404900D01*
Y406500D02*X198387Y407300D01*
X197000Y406500D02*X195613Y407300D01*
X101500Y412500D02*Y410900D01*
Y412500D02*X102887Y413300D01*
X101500Y412500D02*X100113Y413300D01*
X73000Y397500D02*Y395900D01*
Y397500D02*X74387Y398300D01*
X73000Y397500D02*X71613Y398300D01*
X71500Y401500D02*Y399900D01*
Y401500D02*X72887Y402300D01*
X71500Y401500D02*X70113Y402300D01*
X64000Y402500D02*Y400900D01*
Y402500D02*X65387Y403300D01*
X64000Y402500D02*X62613Y403300D01*
X64500Y405500D02*Y403900D01*
Y405500D02*X65887Y406300D01*
X64500Y405500D02*X63113Y406300D01*
X68000Y405500D02*Y403900D01*
Y405500D02*X69387Y406300D01*
X68000Y405500D02*X66613Y406300D01*
X17500Y398500D02*Y396900D01*
Y398500D02*X18887Y399300D01*
X17500Y398500D02*X16113Y399300D01*
X36000Y372500D02*Y370900D01*
Y372500D02*X37387Y373300D01*
X36000Y372500D02*X34613Y373300D01*
X51500Y367000D02*Y365400D01*
Y367000D02*X52887Y367800D01*
X51500Y367000D02*X50113Y367800D01*
X47500Y381000D02*Y379400D01*
Y381000D02*X48887Y381800D01*
X47500Y381000D02*X46113Y381800D01*
X50000Y381000D02*Y379400D01*
Y381000D02*X51387Y381800D01*
X50000Y381000D02*X48613Y381800D01*
X126000Y376500D02*Y374900D01*
Y376500D02*X127387Y377300D01*
X126000Y376500D02*X124613Y377300D01*
X213000Y366594D02*Y364994D01*
Y366594D02*X214387Y367394D01*
X213000Y366594D02*X211613Y367394D01*
X216000Y366594D02*Y364994D01*
Y366594D02*X217387Y367394D01*
X216000Y366594D02*X214613Y367394D01*
X200500Y371500D02*Y369900D01*
Y371500D02*X201887Y372300D01*
X200500Y371500D02*X199113Y372300D01*
X197000Y371500D02*Y369900D01*
Y371500D02*X198387Y372300D01*
X197000Y371500D02*X195613Y372300D01*
X101500Y377500D02*Y375900D01*
Y377500D02*X102887Y378300D01*
X101500Y377500D02*X100113Y378300D01*
X73000Y362500D02*Y360900D01*
Y362500D02*X74387Y363300D01*
X73000Y362500D02*X71613Y363300D01*
X71500Y366500D02*Y364900D01*
Y366500D02*X72887Y367300D01*
X71500Y366500D02*X70113Y367300D01*
X64000Y367500D02*Y365900D01*
Y367500D02*X65387Y368300D01*
X64000Y367500D02*X62613Y368300D01*
X64500Y370500D02*Y368900D01*
Y370500D02*X65887Y371300D01*
X64500Y370500D02*X63113Y371300D01*
X68000Y370500D02*Y368900D01*
Y370500D02*X69387Y371300D01*
X68000Y370500D02*X66613Y371300D01*
X17500Y363500D02*Y361900D01*
Y363500D02*X18887Y364300D01*
X17500Y363500D02*X16113Y364300D01*
X36000Y337500D02*Y335900D01*
Y337500D02*X37387Y338300D01*
X36000Y337500D02*X34613Y338300D01*
X51500Y332000D02*Y330400D01*
Y332000D02*X52887Y332800D01*
X51500Y332000D02*X50113Y332800D01*
X47500Y346000D02*Y344400D01*
Y346000D02*X48887Y346800D01*
X47500Y346000D02*X46113Y346800D01*
X50000Y346000D02*Y344400D01*
Y346000D02*X51387Y346800D01*
X50000Y346000D02*X48613Y346800D01*
X126000Y341500D02*Y339900D01*
Y341500D02*X127387Y342300D01*
X126000Y341500D02*X124613Y342300D01*
X213000Y331594D02*Y329994D01*
Y331594D02*X214387Y332394D01*
X213000Y331594D02*X211613Y332394D01*
X216000Y331594D02*Y329994D01*
Y331594D02*X217387Y332394D01*
X216000Y331594D02*X214613Y332394D01*
X200500Y336500D02*Y334900D01*
Y336500D02*X201887Y337300D01*
X200500Y336500D02*X199113Y337300D01*
X197000Y336500D02*Y334900D01*
Y336500D02*X198387Y337300D01*
X197000Y336500D02*X195613Y337300D01*
X101500Y342500D02*Y340900D01*
Y342500D02*X102887Y343300D01*
X101500Y342500D02*X100113Y343300D01*
X73000Y327500D02*Y325900D01*
Y327500D02*X74387Y328300D01*
X73000Y327500D02*X71613Y328300D01*
X71500Y331500D02*Y329900D01*
Y331500D02*X72887Y332300D01*
X71500Y331500D02*X70113Y332300D01*
X64000Y332500D02*Y330900D01*
Y332500D02*X65387Y333300D01*
X64000Y332500D02*X62613Y333300D01*
X64500Y335500D02*Y333900D01*
Y335500D02*X65887Y336300D01*
X64500Y335500D02*X63113Y336300D01*
X68000Y335500D02*Y333900D01*
Y335500D02*X69387Y336300D01*
X68000Y335500D02*X66613Y336300D01*
X17500Y328500D02*Y326900D01*
Y328500D02*X18887Y329300D01*
X17500Y328500D02*X16113Y329300D01*
X36000Y302500D02*Y300900D01*
Y302500D02*X37387Y303300D01*
X36000Y302500D02*X34613Y303300D01*
X51500Y297000D02*Y295400D01*
Y297000D02*X52887Y297800D01*
X51500Y297000D02*X50113Y297800D01*
X47500Y311000D02*Y309400D01*
Y311000D02*X48887Y311800D01*
X47500Y311000D02*X46113Y311800D01*
X50000Y311000D02*Y309400D01*
Y311000D02*X51387Y311800D01*
X50000Y311000D02*X48613Y311800D01*
X126000Y306500D02*Y304900D01*
Y306500D02*X127387Y307300D01*
X126000Y306500D02*X124613Y307300D01*
X213000Y296594D02*Y294994D01*
Y296594D02*X214387Y297394D01*
X213000Y296594D02*X211613Y297394D01*
X216000Y296594D02*Y294994D01*
Y296594D02*X217387Y297394D01*
X216000Y296594D02*X214613Y297394D01*
X200500Y301500D02*Y299900D01*
Y301500D02*X201887Y302300D01*
X200500Y301500D02*X199113Y302300D01*
X197000Y301500D02*Y299900D01*
Y301500D02*X198387Y302300D01*
X197000Y301500D02*X195613Y302300D01*
X101500Y307500D02*Y305900D01*
Y307500D02*X102887Y308300D01*
X101500Y307500D02*X100113Y308300D01*
X73000Y292500D02*Y290900D01*
Y292500D02*X74387Y293300D01*
X73000Y292500D02*X71613Y293300D01*
X71500Y296500D02*Y294900D01*
Y296500D02*X72887Y297300D01*
X71500Y296500D02*X70113Y297300D01*
X64000Y297500D02*Y295900D01*
Y297500D02*X65387Y298300D01*
X64000Y297500D02*X62613Y298300D01*
X64500Y300500D02*Y298900D01*
Y300500D02*X65887Y301300D01*
X64500Y300500D02*X63113Y301300D01*
X68000Y300500D02*Y298900D01*
Y300500D02*X69387Y301300D01*
X68000Y300500D02*X66613Y301300D01*
X17500Y293500D02*Y291900D01*
Y293500D02*X18887Y294300D01*
X17500Y293500D02*X16113Y294300D01*
X36000Y267500D02*Y265900D01*
Y267500D02*X37387Y268300D01*
X36000Y267500D02*X34613Y268300D01*
X51500Y262000D02*Y260400D01*
Y262000D02*X52887Y262800D01*
X51500Y262000D02*X50113Y262800D01*
X47500Y276000D02*Y274400D01*
Y276000D02*X48887Y276800D01*
X47500Y276000D02*X46113Y276800D01*
X50000Y276000D02*Y274400D01*
Y276000D02*X51387Y276800D01*
X50000Y276000D02*X48613Y276800D01*
X126000Y271500D02*Y269900D01*
Y271500D02*X127387Y272300D01*
X126000Y271500D02*X124613Y272300D01*
X213000Y261594D02*Y259994D01*
Y261594D02*X214387Y262394D01*
X213000Y261594D02*X211613Y262394D01*
X216000Y261594D02*Y259994D01*
Y261594D02*X217387Y262394D01*
X216000Y261594D02*X214613Y262394D01*
X200500Y266500D02*Y264900D01*
Y266500D02*X201887Y267300D01*
X200500Y266500D02*X199113Y267300D01*
X197000Y266500D02*Y264900D01*
Y266500D02*X198387Y267300D01*
X197000Y266500D02*X195613Y267300D01*
X101500Y272500D02*Y270900D01*
Y272500D02*X102887Y273300D01*
X101500Y272500D02*X100113Y273300D01*
X73000Y257500D02*Y255900D01*
Y257500D02*X74387Y258300D01*
X73000Y257500D02*X71613Y258300D01*
X71500Y261500D02*Y259900D01*
Y261500D02*X72887Y262300D01*
X71500Y261500D02*X70113Y262300D01*
X64000Y262500D02*Y260900D01*
Y262500D02*X65387Y263300D01*
X64000Y262500D02*X62613Y263300D01*
X64500Y265500D02*Y263900D01*
Y265500D02*X65887Y266300D01*
X64500Y265500D02*X63113Y266300D01*
X68000Y265500D02*Y263900D01*
Y265500D02*X69387Y266300D01*
X68000Y265500D02*X66613Y266300D01*
X17500Y258500D02*Y256900D01*
Y258500D02*X18887Y259300D01*
X17500Y258500D02*X16113Y259300D01*
X36000Y232500D02*Y230900D01*
Y232500D02*X37387Y233300D01*
X36000Y232500D02*X34613Y233300D01*
X51500Y227000D02*Y225400D01*
Y227000D02*X52887Y227800D01*
X51500Y227000D02*X50113Y227800D01*
X47500Y241000D02*Y239400D01*
Y241000D02*X48887Y241800D01*
X47500Y241000D02*X46113Y241800D01*
X50000Y241000D02*Y239400D01*
Y241000D02*X51387Y241800D01*
X50000Y241000D02*X48613Y241800D01*
X126000Y236500D02*Y234900D01*
Y236500D02*X127387Y237300D01*
X126000Y236500D02*X124613Y237300D01*
X213000Y226594D02*Y224994D01*
Y226594D02*X214387Y227394D01*
X213000Y226594D02*X211613Y227394D01*
X216000Y226594D02*Y224994D01*
Y226594D02*X217387Y227394D01*
X216000Y226594D02*X214613Y227394D01*
X200500Y231500D02*Y229900D01*
Y231500D02*X201887Y232300D01*
X200500Y231500D02*X199113Y232300D01*
X197000Y231500D02*Y229900D01*
Y231500D02*X198387Y232300D01*
X197000Y231500D02*X195613Y232300D01*
X101500Y237500D02*Y235900D01*
Y237500D02*X102887Y238300D01*
X101500Y237500D02*X100113Y238300D01*
X73000Y222500D02*Y220900D01*
Y222500D02*X74387Y223300D01*
X73000Y222500D02*X71613Y223300D01*
X71500Y226500D02*Y224900D01*
Y226500D02*X72887Y227300D01*
X71500Y226500D02*X70113Y227300D01*
X64000Y227500D02*Y225900D01*
Y227500D02*X65387Y228300D01*
X64000Y227500D02*X62613Y228300D01*
X64500Y230500D02*Y228900D01*
Y230500D02*X65887Y231300D01*
X64500Y230500D02*X63113Y231300D01*
X68000Y230500D02*Y228900D01*
Y230500D02*X69387Y231300D01*
X68000Y230500D02*X66613Y231300D01*
X17500Y223500D02*Y221900D01*
Y223500D02*X18887Y224300D01*
X17500Y223500D02*X16113Y224300D01*
X36000Y197500D02*Y195900D01*
Y197500D02*X37387Y198300D01*
X36000Y197500D02*X34613Y198300D01*
X51500Y192000D02*Y190400D01*
Y192000D02*X52887Y192800D01*
X51500Y192000D02*X50113Y192800D01*
X47500Y206000D02*Y204400D01*
Y206000D02*X48887Y206800D01*
X47500Y206000D02*X46113Y206800D01*
X50000Y206000D02*Y204400D01*
Y206000D02*X51387Y206800D01*
X50000Y206000D02*X48613Y206800D01*
X126000Y201500D02*Y199900D01*
Y201500D02*X127387Y202300D01*
X126000Y201500D02*X124613Y202300D01*
X213000Y191594D02*Y189994D01*
Y191594D02*X214387Y192394D01*
X213000Y191594D02*X211613Y192394D01*
X216000Y191594D02*Y189994D01*
Y191594D02*X217387Y192394D01*
X216000Y191594D02*X214613Y192394D01*
X200500Y196500D02*Y194900D01*
Y196500D02*X201887Y197300D01*
X200500Y196500D02*X199113Y197300D01*
X197000Y196500D02*Y194900D01*
Y196500D02*X198387Y197300D01*
X197000Y196500D02*X195613Y197300D01*
X101500Y202500D02*Y200900D01*
Y202500D02*X102887Y203300D01*
X101500Y202500D02*X100113Y203300D01*
X73000Y187500D02*Y185900D01*
Y187500D02*X74387Y188300D01*
X73000Y187500D02*X71613Y188300D01*
X71500Y191500D02*Y189900D01*
Y191500D02*X72887Y192300D01*
X71500Y191500D02*X70113Y192300D01*
X64000Y192500D02*Y190900D01*
Y192500D02*X65387Y193300D01*
X64000Y192500D02*X62613Y193300D01*
X64500Y195500D02*Y193900D01*
Y195500D02*X65887Y196300D01*
X64500Y195500D02*X63113Y196300D01*
X68000Y195500D02*Y193900D01*
Y195500D02*X69387Y196300D01*
X68000Y195500D02*X66613Y196300D01*
X17500Y188500D02*Y186900D01*
Y188500D02*X18887Y189300D01*
X17500Y188500D02*X16113Y189300D01*
X36000Y162500D02*Y160900D01*
Y162500D02*X37387Y163300D01*
X36000Y162500D02*X34613Y163300D01*
X51500Y157000D02*Y155400D01*
Y157000D02*X52887Y157800D01*
X51500Y157000D02*X50113Y157800D01*
X47500Y171000D02*Y169400D01*
Y171000D02*X48887Y171800D01*
X47500Y171000D02*X46113Y171800D01*
X50000Y171000D02*Y169400D01*
Y171000D02*X51387Y171800D01*
X50000Y171000D02*X48613Y171800D01*
X126000Y166500D02*Y164900D01*
Y166500D02*X127387Y167300D01*
X126000Y166500D02*X124613Y167300D01*
X213000Y156594D02*Y154994D01*
Y156594D02*X214387Y157394D01*
X213000Y156594D02*X211613Y157394D01*
X216000Y156594D02*Y154994D01*
Y156594D02*X217387Y157394D01*
X216000Y156594D02*X214613Y157394D01*
X200500Y161500D02*Y159900D01*
Y161500D02*X201887Y162300D01*
X200500Y161500D02*X199113Y162300D01*
X197000Y161500D02*Y159900D01*
Y161500D02*X198387Y162300D01*
X197000Y161500D02*X195613Y162300D01*
X101500Y167500D02*Y165900D01*
Y167500D02*X102887Y168300D01*
X101500Y167500D02*X100113Y168300D01*
X73000Y152500D02*Y150900D01*
Y152500D02*X74387Y153300D01*
X73000Y152500D02*X71613Y153300D01*
X71500Y156500D02*Y154900D01*
Y156500D02*X72887Y157300D01*
X71500Y156500D02*X70113Y157300D01*
X64000Y157500D02*Y155900D01*
Y157500D02*X65387Y158300D01*
X64000Y157500D02*X62613Y158300D01*
X64500Y160500D02*Y158900D01*
Y160500D02*X65887Y161300D01*
X64500Y160500D02*X63113Y161300D01*
X68000Y160500D02*Y158900D01*
Y160500D02*X69387Y161300D01*
X68000Y160500D02*X66613Y161300D01*
X17500Y153500D02*Y151900D01*
Y153500D02*X18887Y154300D01*
X17500Y153500D02*X16113Y154300D01*
X36000Y127500D02*Y125900D01*
Y127500D02*X37387Y128300D01*
X36000Y127500D02*X34613Y128300D01*
X51500Y122000D02*Y120400D01*
Y122000D02*X52887Y122800D01*
X51500Y122000D02*X50113Y122800D01*
X47500Y136000D02*Y134400D01*
Y136000D02*X48887Y136800D01*
X47500Y136000D02*X46113Y136800D01*
X50000Y136000D02*Y134400D01*
Y136000D02*X51387Y136800D01*
X50000Y136000D02*X48613Y136800D01*
X126000Y131500D02*Y129900D01*
Y131500D02*X127387Y132300D01*
X126000Y131500D02*X124613Y132300D01*
X213000Y121594D02*Y119994D01*
Y121594D02*X214387Y122394D01*
X213000Y121594D02*X211613Y122394D01*
X216000Y121594D02*Y119994D01*
Y121594D02*X217387Y122394D01*
X216000Y121594D02*X214613Y122394D01*
X200500Y126500D02*Y124900D01*
Y126500D02*X201887Y127300D01*
X200500Y126500D02*X199113Y127300D01*
X197000Y126500D02*Y124900D01*
Y126500D02*X198387Y127300D01*
X197000Y126500D02*X195613Y127300D01*
X101500Y132500D02*Y130900D01*
Y132500D02*X102887Y133300D01*
X101500Y132500D02*X100113Y133300D01*
X73000Y117500D02*Y115900D01*
Y117500D02*X74387Y118300D01*
X73000Y117500D02*X71613Y118300D01*
X71500Y121500D02*Y119900D01*
Y121500D02*X72887Y122300D01*
X71500Y121500D02*X70113Y122300D01*
X64000Y122500D02*Y120900D01*
Y122500D02*X65387Y123300D01*
X64000Y122500D02*X62613Y123300D01*
X64500Y125500D02*Y123900D01*
Y125500D02*X65887Y126300D01*
X64500Y125500D02*X63113Y126300D01*
X68000Y125500D02*Y123900D01*
Y125500D02*X69387Y126300D01*
X68000Y125500D02*X66613Y126300D01*
X17500Y118500D02*Y116900D01*
Y118500D02*X18887Y119300D01*
X17500Y118500D02*X16113Y119300D01*
X36000Y92500D02*Y90900D01*
Y92500D02*X37387Y93300D01*
X36000Y92500D02*X34613Y93300D01*
X51500Y87000D02*Y85400D01*
Y87000D02*X52887Y87800D01*
X51500Y87000D02*X50113Y87800D01*
X47500Y101000D02*Y99400D01*
Y101000D02*X48887Y101800D01*
X47500Y101000D02*X46113Y101800D01*
X50000Y101000D02*Y99400D01*
Y101000D02*X51387Y101800D01*
X50000Y101000D02*X48613Y101800D01*
X126000Y96500D02*Y94900D01*
Y96500D02*X127387Y97300D01*
X126000Y96500D02*X124613Y97300D01*
X213000Y86594D02*Y84994D01*
Y86594D02*X214387Y87394D01*
X213000Y86594D02*X211613Y87394D01*
X216000Y86594D02*Y84994D01*
Y86594D02*X217387Y87394D01*
X216000Y86594D02*X214613Y87394D01*
X200500Y91500D02*Y89900D01*
Y91500D02*X201887Y92300D01*
X200500Y91500D02*X199113Y92300D01*
X197000Y91500D02*Y89900D01*
Y91500D02*X198387Y92300D01*
X197000Y91500D02*X195613Y92300D01*
X101500Y97500D02*Y95900D01*
Y97500D02*X102887Y98300D01*
X101500Y97500D02*X100113Y98300D01*
X73000Y82500D02*Y80900D01*
Y82500D02*X74387Y83300D01*
X73000Y82500D02*X71613Y83300D01*
X71500Y86500D02*Y84900D01*
Y86500D02*X72887Y87300D01*
X71500Y86500D02*X70113Y87300D01*
X64000Y87500D02*Y85900D01*
Y87500D02*X65387Y88300D01*
X64000Y87500D02*X62613Y88300D01*
X64500Y90500D02*Y88900D01*
Y90500D02*X65887Y91300D01*
X64500Y90500D02*X63113Y91300D01*
X68000Y90500D02*Y88900D01*
Y90500D02*X69387Y91300D01*
X68000Y90500D02*X66613Y91300D01*
X17500Y83500D02*Y81900D01*
Y83500D02*X18887Y84300D01*
X17500Y83500D02*X16113Y84300D01*
X36000Y57500D02*Y55900D01*
Y57500D02*X37387Y58300D01*
X36000Y57500D02*X34613Y58300D01*
X51500Y52000D02*Y50400D01*
Y52000D02*X52887Y52800D01*
X51500Y52000D02*X50113Y52800D01*
X47500Y66000D02*Y64400D01*
Y66000D02*X48887Y66800D01*
X47500Y66000D02*X46113Y66800D01*
X50000Y66000D02*Y64400D01*
Y66000D02*X51387Y66800D01*
X50000Y66000D02*X48613Y66800D01*
X126000Y61500D02*Y59900D01*
Y61500D02*X127387Y62300D01*
X126000Y61500D02*X124613Y62300D01*
X213000Y51594D02*Y49994D01*
Y51594D02*X214387Y52394D01*
X213000Y51594D02*X211613Y52394D01*
X216000Y51594D02*Y49994D01*
Y51594D02*X217387Y52394D01*
X216000Y51594D02*X214613Y52394D01*
X200500Y56500D02*Y54900D01*
Y56500D02*X201887Y57300D01*
X200500Y56500D02*X199113Y57300D01*
X197000Y56500D02*Y54900D01*
Y56500D02*X198387Y57300D01*
X197000Y56500D02*X195613Y57300D01*
X101500Y62500D02*Y60900D01*
Y62500D02*X102887Y63300D01*
X101500Y62500D02*X100113Y63300D01*
X73000Y47500D02*Y45900D01*
Y47500D02*X74387Y48300D01*
X73000Y47500D02*X71613Y48300D01*
X71500Y51500D02*Y49900D01*
Y51500D02*X72887Y52300D01*
X71500Y51500D02*X70113Y52300D01*
X64000Y52500D02*Y50900D01*
Y52500D02*X65387Y53300D01*
X64000Y52500D02*X62613Y53300D01*
X64500Y55500D02*Y53900D01*
Y55500D02*X65887Y56300D01*
X64500Y55500D02*X63113Y56300D01*
X68000Y55500D02*Y53900D01*
Y55500D02*X69387Y56300D01*
X68000Y55500D02*X66613Y56300D01*
X17500Y48500D02*Y46900D01*
Y48500D02*X18887Y49300D01*
X17500Y48500D02*X16113Y49300D01*
X36000Y22500D02*Y20900D01*
Y22500D02*X37387Y23300D01*
X36000Y22500D02*X34613Y23300D01*
X51500Y17000D02*Y15400D01*
Y17000D02*X52887Y17800D01*
X51500Y17000D02*X50113Y17800D01*
X47500Y31000D02*Y29400D01*
Y31000D02*X48887Y31800D01*
X47500Y31000D02*X46113Y31800D01*
X50000Y31000D02*Y29400D01*
Y31000D02*X51387Y31800D01*
X50000Y31000D02*X48613Y31800D01*
X126000Y26500D02*Y24900D01*
Y26500D02*X127387Y27300D01*
X126000Y26500D02*X124613Y27300D01*
X213000Y16594D02*Y14994D01*
Y16594D02*X214387Y17394D01*
X213000Y16594D02*X211613Y17394D01*
X216000Y16594D02*Y14994D01*
Y16594D02*X217387Y17394D01*
X216000Y16594D02*X214613Y17394D01*
X200500Y21500D02*Y19900D01*
Y21500D02*X201887Y22300D01*
X200500Y21500D02*X199113Y22300D01*
X197000Y21500D02*Y19900D01*
Y21500D02*X198387Y22300D01*
X197000Y21500D02*X195613Y22300D01*
X101500Y27500D02*Y25900D01*
Y27500D02*X102887Y28300D01*
X101500Y27500D02*X100113Y28300D01*
X73000Y12500D02*Y10900D01*
Y12500D02*X74387Y13300D01*
X73000Y12500D02*X71613Y13300D01*
X71500Y16500D02*Y14900D01*
Y16500D02*X72887Y17300D01*
X71500Y16500D02*X70113Y17300D01*
X64000Y17500D02*Y15900D01*
Y17500D02*X65387Y18300D01*
X64000Y17500D02*X62613Y18300D01*
X64500Y20500D02*Y18900D01*
Y20500D02*X65887Y21300D01*
X64500Y20500D02*X63113Y21300D01*
X68000Y20500D02*Y18900D01*
Y20500D02*X69387Y21300D01*
X68000Y20500D02*X66613Y21300D01*
X17500Y13500D02*Y11900D01*
Y13500D02*X18887Y14300D01*
X17500Y13500D02*X16113Y14300D01*
X15000Y486250D02*Y484650D01*
Y486250D02*X16387Y487050D01*
X15000Y486250D02*X13613Y487050D01*
X135000Y488500D02*X136500Y485500D01*
X138000Y488500D01*
X136500Y485500D02*Y482500D01*
X139800Y485800D02*X142050D01*
X139800Y482500D02*X142800D01*
X139800Y488500D02*Y482500D01*
Y488500D02*X142800D01*
X147600D02*X148350Y487750D01*
X145350Y488500D02*X147600D01*
X144600Y487750D02*X145350Y488500D01*
X144600Y487750D02*Y486250D01*
X145350Y485500D01*
X147600D01*
X148350Y484750D01*
Y483250D01*
X147600Y482500D02*X148350Y483250D01*
X145350Y482500D02*X147600D01*
X144600Y483250D02*X145350Y482500D01*
X98000Y487300D02*X99200Y488500D01*
Y482500D01*
X98000D02*X100250D01*
X102800D02*X105050Y485500D01*
Y487750D02*Y485500D01*
X104300Y488500D02*X105050Y487750D01*
X102800Y488500D02*X104300D01*
X102050Y487750D02*X102800Y488500D01*
X102050Y487750D02*Y486250D01*
X102800Y485500D01*
X105050D01*
X106850Y487750D02*X107600Y488500D01*
X109850D01*
X110600Y487750D01*
Y486250D01*
X106850Y482500D02*X110600Y486250D01*
X106850Y482500D02*X110600D01*
X45000Y483250D02*X45750Y482500D01*
X45000Y487750D02*Y483250D01*
Y487750D02*X45750Y488500D01*
X47250D01*
X48000Y487750D01*
Y483250D01*
X47250Y482500D02*X48000Y483250D01*
X45750Y482500D02*X47250D01*
X45000Y484000D02*X48000Y487000D01*
X49800Y482500D02*X50550D01*
X52350Y483250D02*X53100Y482500D01*
X52350Y487750D02*Y483250D01*
Y487750D02*X53100Y488500D01*
X54600D01*
X55350Y487750D01*
Y483250D01*
X54600Y482500D02*X55350Y483250D01*
X53100Y482500D02*X54600D01*
X52350Y484000D02*X55350Y487000D01*
X57150Y487300D02*X58350Y488500D01*
Y482500D01*
X57150D02*X59400D01*
X61200Y487750D02*X61950Y488500D01*
X64200D01*
X64950Y487750D01*
Y486250D01*
X61200Y482500D02*X64950Y486250D01*
X61200Y482500D02*X64950D01*
X3000Y503500D02*X3750Y502750D01*
X750Y503500D02*X3000D01*
X0Y502750D02*X750Y503500D01*
X0Y502750D02*Y501250D01*
X750Y500500D01*
X3000D01*
X3750Y499750D01*
Y498250D01*
X3000Y497500D02*X3750Y498250D01*
X750Y497500D02*X3000D01*
X0Y498250D02*X750Y497500D01*
X5550Y500500D02*Y498250D01*
X6300Y497500D01*
X8550Y500500D02*Y496000D01*
X7800Y495250D02*X8550Y496000D01*
X6300Y495250D02*X7800D01*
X5550Y496000D02*X6300Y495250D01*
Y497500D02*X7800D01*
X8550Y498250D01*
X11100Y499750D02*Y497500D01*
Y499750D02*X11850Y500500D01*
X12600D01*
X13350Y499750D01*
Y497500D01*
Y499750D02*X14100Y500500D01*
X14850D01*
X15600Y499750D01*
Y497500D01*
X10350Y500500D02*X11100Y499750D01*
X17400Y503500D02*Y497500D01*
Y498250D02*X18150Y497500D01*
X19650D01*
X20400Y498250D01*
Y499750D02*Y498250D01*
X19650Y500500D02*X20400Y499750D01*
X18150Y500500D02*X19650D01*
X17400Y499750D02*X18150Y500500D01*
X22200Y499750D02*Y498250D01*
Y499750D02*X22950Y500500D01*
X24450D01*
X25200Y499750D01*
Y498250D01*
X24450Y497500D02*X25200Y498250D01*
X22950Y497500D02*X24450D01*
X22200Y498250D02*X22950Y497500D01*
X27000Y503500D02*Y498250D01*
X27750Y497500D01*
X0Y494250D02*X29250D01*
X41750Y503500D02*Y497500D01*
X43700Y503500D02*X44750Y502450D01*
Y498550D01*
X43700Y497500D02*X44750Y498550D01*
X41000Y497500D02*X43700D01*
X41000Y503500D02*X43700D01*
G54D79*X46550Y502000D02*Y501850D01*
G54D78*Y499750D02*Y497500D01*
X50300Y500500D02*X51050Y499750D01*
X48800Y500500D02*X50300D01*
X48050Y499750D02*X48800Y500500D01*
X48050Y499750D02*Y498250D01*
X48800Y497500D01*
X51050Y500500D02*Y498250D01*
X51800Y497500D01*
X48800D02*X50300D01*
X51050Y498250D01*
X54350Y499750D02*Y497500D01*
Y499750D02*X55100Y500500D01*
X55850D01*
X56600Y499750D01*
Y497500D01*
Y499750D02*X57350Y500500D01*
X58100D01*
X58850Y499750D01*
Y497500D01*
X53600Y500500D02*X54350Y499750D01*
X60650Y497500D02*X61400D01*
X65900Y498250D02*X66650Y497500D01*
X65900Y502750D02*X66650Y503500D01*
X65900Y502750D02*Y498250D01*
X68450Y503500D02*X69950D01*
X69200D02*Y497500D01*
X68450D02*X69950D01*
X72500Y499750D02*Y497500D01*
Y499750D02*X73250Y500500D01*
X74000D01*
X74750Y499750D01*
Y497500D01*
X71750Y500500D02*X72500Y499750D01*
X77300Y500500D02*X79550D01*
X76550Y499750D02*X77300Y500500D01*
X76550Y499750D02*Y498250D01*
X77300Y497500D01*
X79550D01*
X81350Y503500D02*Y497500D01*
Y499750D02*X82100Y500500D01*
X83600D01*
X84350Y499750D01*
Y497500D01*
X86150Y503500D02*X86900Y502750D01*
Y498250D01*
X86150Y497500D02*X86900Y498250D01*
X41000Y494250D02*X88700D01*
X96050Y497500D02*X98000D01*
X95000Y498550D02*X96050Y497500D01*
X95000Y502450D02*Y498550D01*
Y502450D02*X96050Y503500D01*
X98000D01*
X99800Y499750D02*Y498250D01*
Y499750D02*X100550Y500500D01*
X102050D01*
X102800Y499750D01*
Y498250D01*
X102050Y497500D02*X102800Y498250D01*
X100550Y497500D02*X102050D01*
X99800Y498250D02*X100550Y497500D01*
X104600Y500500D02*Y498250D01*
X105350Y497500D01*
X106850D01*
X107600Y498250D01*
Y500500D02*Y498250D01*
X110150Y499750D02*Y497500D01*
Y499750D02*X110900Y500500D01*
X111650D01*
X112400Y499750D01*
Y497500D01*
X109400Y500500D02*X110150Y499750D01*
X114950Y503500D02*Y498250D01*
X115700Y497500D01*
X114200Y501250D02*X115700D01*
X95000Y494250D02*X117200D01*
X130750Y503500D02*Y497500D01*
X130000Y503500D02*X133000D01*
X133750Y502750D01*
Y501250D01*
X133000Y500500D02*X133750Y501250D01*
X130750Y500500D02*X133000D01*
X135550Y503500D02*Y498250D01*
X136300Y497500D01*
X140050Y500500D02*X140800Y499750D01*
X138550Y500500D02*X140050D01*
X137800Y499750D02*X138550Y500500D01*
X137800Y499750D02*Y498250D01*
X138550Y497500D01*
X140800Y500500D02*Y498250D01*
X141550Y497500D01*
X138550D02*X140050D01*
X140800Y498250D01*
X144100Y503500D02*Y498250D01*
X144850Y497500D01*
X143350Y501250D02*X144850D01*
X147100Y497500D02*X149350D01*
X146350Y498250D02*X147100Y497500D01*
X146350Y499750D02*Y498250D01*
Y499750D02*X147100Y500500D01*
X148600D01*
X149350Y499750D01*
X146350Y499000D02*X149350D01*
Y499750D02*Y499000D01*
X154150Y503500D02*Y497500D01*
X153400D02*X154150Y498250D01*
X151900Y497500D02*X153400D01*
X151150Y498250D02*X151900Y497500D01*
X151150Y499750D02*Y498250D01*
Y499750D02*X151900Y500500D01*
X153400D01*
X154150Y499750D01*
X157450Y500500D02*Y499750D01*
Y498250D02*Y497500D01*
X155950Y502750D02*Y502000D01*
Y502750D02*X156700Y503500D01*
X158200D01*
X158950Y502750D01*
Y502000D01*
X157450Y500500D02*X158950Y502000D01*
X130000Y494250D02*X160750D01*
X0Y518500D02*X3000D01*
X1500D02*Y512500D01*
X4800Y518500D02*Y512500D01*
Y514750D02*X5550Y515500D01*
X7050D01*
X7800Y514750D01*
Y512500D01*
X10350D02*X12600D01*
X9600Y513250D02*X10350Y512500D01*
X9600Y514750D02*Y513250D01*
Y514750D02*X10350Y515500D01*
X11850D01*
X12600Y514750D01*
X9600Y514000D02*X12600D01*
Y514750D02*Y514000D01*
X15150Y514750D02*Y512500D01*
Y514750D02*X15900Y515500D01*
X17400D01*
X14400D02*X15150Y514750D01*
X19950Y512500D02*X22200D01*
X19200Y513250D02*X19950Y512500D01*
X19200Y514750D02*Y513250D01*
Y514750D02*X19950Y515500D01*
X21450D01*
X22200Y514750D01*
X19200Y514000D02*X22200D01*
Y514750D02*Y514000D01*
X28950Y515500D02*X29700Y514750D01*
X27450Y515500D02*X28950D01*
X26700Y514750D02*X27450Y515500D01*
X26700Y514750D02*Y513250D01*
X27450Y512500D01*
X29700Y515500D02*Y513250D01*
X30450Y512500D01*
X27450D02*X28950D01*
X29700Y513250D01*
X33000Y514750D02*Y512500D01*
Y514750D02*X33750Y515500D01*
X35250D01*
X32250D02*X33000Y514750D01*
X37800Y512500D02*X40050D01*
X37050Y513250D02*X37800Y512500D01*
X37050Y514750D02*Y513250D01*
Y514750D02*X37800Y515500D01*
X39300D01*
X40050Y514750D01*
X37050Y514000D02*X40050D01*
Y514750D02*Y514000D01*
X44550Y514750D02*X47550Y518500D01*
X44550Y514750D02*X48300D01*
X47550Y518500D02*Y512500D01*
X55800Y518500D02*Y512500D01*
X55050D02*X55800Y513250D01*
X53550Y512500D02*X55050D01*
X52800Y513250D02*X53550Y512500D01*
X52800Y514750D02*Y513250D01*
Y514750D02*X53550Y515500D01*
X55050D01*
X55800Y514750D01*
G54D79*X57600Y517000D02*Y516850D01*
G54D78*Y514750D02*Y512500D01*
X59850Y517750D02*Y512500D01*
Y517750D02*X60600Y518500D01*
X61350D01*
X59100Y515500D02*X60600D01*
X63600Y517750D02*Y512500D01*
Y517750D02*X64350Y518500D01*
X65100D01*
X62850Y515500D02*X64350D01*
X67350Y512500D02*X69600D01*
X66600Y513250D02*X67350Y512500D01*
X66600Y514750D02*Y513250D01*
Y514750D02*X67350Y515500D01*
X68850D01*
X69600Y514750D01*
X66600Y514000D02*X69600D01*
Y514750D02*Y514000D01*
X72150Y514750D02*Y512500D01*
Y514750D02*X72900Y515500D01*
X74400D01*
X71400D02*X72150Y514750D01*
X76950Y512500D02*X79200D01*
X76200Y513250D02*X76950Y512500D01*
X76200Y514750D02*Y513250D01*
Y514750D02*X76950Y515500D01*
X78450D01*
X79200Y514750D01*
X76200Y514000D02*X79200D01*
Y514750D02*Y514000D01*
X81750Y514750D02*Y512500D01*
Y514750D02*X82500Y515500D01*
X83250D01*
X84000Y514750D01*
Y512500D01*
X81000Y515500D02*X81750Y514750D01*
X86550Y518500D02*Y513250D01*
X87300Y512500D01*
X85800Y516250D02*X87300D01*
X94500Y518500D02*Y512500D01*
X93750D02*X94500Y513250D01*
X92250Y512500D02*X93750D01*
X91500Y513250D02*X92250Y512500D01*
X91500Y514750D02*Y513250D01*
Y514750D02*X92250Y515500D01*
X93750D01*
X94500Y514750D01*
X97050D02*Y512500D01*
Y514750D02*X97800Y515500D01*
X99300D01*
X96300D02*X97050Y514750D01*
G54D79*X101100Y517000D02*Y516850D01*
G54D78*Y514750D02*Y512500D01*
X102600Y518500D02*Y513250D01*
X103350Y512500D01*
X104850Y518500D02*Y513250D01*
X105600Y512500D01*
X110550D02*X112800D01*
X113550Y513250D01*
X112800Y514000D02*X113550Y513250D01*
X110550Y514000D02*X112800D01*
X109800Y514750D02*X110550Y514000D01*
X109800Y514750D02*X110550Y515500D01*
X112800D01*
X113550Y514750D01*
X109800Y513250D02*X110550Y512500D01*
G54D79*X115350Y517000D02*Y516850D01*
G54D78*Y514750D02*Y512500D01*
X116850Y515500D02*X119850D01*
X116850Y512500D02*X119850Y515500D01*
X116850Y512500D02*X119850D01*
X122400D02*X124650D01*
X121650Y513250D02*X122400Y512500D01*
X121650Y514750D02*Y513250D01*
Y514750D02*X122400Y515500D01*
X123900D01*
X124650Y514750D01*
X121650Y514000D02*X124650D01*
Y514750D02*Y514000D01*
X127200Y512500D02*X129450D01*
X130200Y513250D01*
X129450Y514000D02*X130200Y513250D01*
X127200Y514000D02*X129450D01*
X126450Y514750D02*X127200Y514000D01*
X126450Y514750D02*X127200Y515500D01*
X129450D01*
X130200Y514750D01*
X126450Y513250D02*X127200Y512500D01*
X134700Y515500D02*Y513250D01*
X135450Y512500D01*
X136950D01*
X137700Y513250D01*
Y515500D02*Y513250D01*
X140250Y512500D02*X142500D01*
X143250Y513250D01*
X142500Y514000D02*X143250Y513250D01*
X140250Y514000D02*X142500D01*
X139500Y514750D02*X140250Y514000D01*
X139500Y514750D02*X140250Y515500D01*
X142500D01*
X143250Y514750D01*
X139500Y513250D02*X140250Y512500D01*
X145800D02*X148050D01*
X145050Y513250D02*X145800Y512500D01*
X145050Y514750D02*Y513250D01*
Y514750D02*X145800Y515500D01*
X147300D01*
X148050Y514750D01*
X145050Y514000D02*X148050D01*
Y514750D02*Y514000D01*
X152850Y518500D02*Y512500D01*
X152100D02*X152850Y513250D01*
X150600Y512500D02*X152100D01*
X149850Y513250D02*X150600Y512500D01*
X149850Y514750D02*Y513250D01*
Y514750D02*X150600Y515500D01*
X152100D01*
X152850Y514750D01*
G54D79*X157350Y517000D02*Y516850D01*
G54D78*Y514750D02*Y512500D01*
X159600Y514750D02*Y512500D01*
Y514750D02*X160350Y515500D01*
X161100D01*
X161850Y514750D01*
Y512500D01*
X158850Y515500D02*X159600Y514750D01*
X167100Y518500D02*Y513250D01*
X167850Y512500D01*
X166350Y516250D02*X167850D01*
X169350Y518500D02*Y512500D01*
Y514750D02*X170100Y515500D01*
X171600D01*
X172350Y514750D01*
Y512500D01*
G54D79*X174150Y517000D02*Y516850D01*
G54D78*Y514750D02*Y512500D01*
X176400D02*X178650D01*
X179400Y513250D01*
X178650Y514000D02*X179400Y513250D01*
X176400Y514000D02*X178650D01*
X175650Y514750D02*X176400Y514000D01*
X175650Y514750D02*X176400Y515500D01*
X178650D01*
X179400Y514750D01*
X175650Y513250D02*X176400Y512500D01*
X183900Y518500D02*Y513250D01*
X184650Y512500D01*
X188400Y515500D02*X189150Y514750D01*
X186900Y515500D02*X188400D01*
X186150Y514750D02*X186900Y515500D01*
X186150Y514750D02*Y513250D01*
X186900Y512500D01*
X189150Y515500D02*Y513250D01*
X189900Y512500D01*
X186900D02*X188400D01*
X189150Y513250D01*
X191700Y515500D02*Y513250D01*
X192450Y512500D01*
X194700Y515500D02*Y511000D01*
X193950Y510250D02*X194700Y511000D01*
X192450Y510250D02*X193950D01*
X191700Y511000D02*X192450Y510250D01*
Y512500D02*X193950D01*
X194700Y513250D01*
X196500Y514750D02*Y513250D01*
Y514750D02*X197250Y515500D01*
X198750D01*
X199500Y514750D01*
Y513250D01*
X198750Y512500D02*X199500Y513250D01*
X197250Y512500D02*X198750D01*
X196500Y513250D02*X197250Y512500D01*
X201300Y515500D02*Y513250D01*
X202050Y512500D01*
X203550D01*
X204300Y513250D01*
Y515500D02*Y513250D01*
X206850Y518500D02*Y513250D01*
X207600Y512500D01*
X206100Y516250D02*X207600D01*
X209100Y511000D02*X210600Y512500D01*
X215100Y518500D02*X218100D01*
X215100D02*Y515500D01*
X215850Y516250D01*
X217350D01*
X218100Y515500D01*
Y513250D01*
X217350Y512500D02*X218100Y513250D01*
X215850Y512500D02*X217350D01*
X215100Y513250D02*X215850Y512500D01*
X219900Y517300D02*X221100Y518500D01*
Y512500D01*
X219900D02*X222150D01*
X226200Y518500D02*X226950Y517750D01*
X224700Y518500D02*X226200D01*
X223950Y517750D02*X224700Y518500D01*
X223950Y517750D02*Y513250D01*
X224700Y512500D01*
X226200Y515800D02*X226950Y515050D01*
X223950Y515800D02*X226200D01*
X224700Y512500D02*X226200D01*
X226950Y513250D01*
Y515050D02*Y513250D01*
X231450Y518500D02*Y512500D01*
Y514750D02*X232200Y515500D01*
X233700D01*
X234450Y514750D01*
Y512500D01*
X236250Y514750D02*Y513250D01*
Y514750D02*X237000Y515500D01*
X238500D01*
X239250Y514750D01*
Y513250D01*
X238500Y512500D02*X239250Y513250D01*
X237000Y512500D02*X238500D01*
X236250Y513250D02*X237000Y512500D01*
X241050Y518500D02*Y513250D01*
X241800Y512500D01*
X244050D02*X246300D01*
X243300Y513250D02*X244050Y512500D01*
X243300Y514750D02*Y513250D01*
Y514750D02*X244050Y515500D01*
X245550D01*
X246300Y514750D01*
X243300Y514000D02*X246300D01*
Y514750D02*Y514000D01*
X248850Y512500D02*X251100D01*
X251850Y513250D01*
X251100Y514000D02*X251850Y513250D01*
X248850Y514000D02*X251100D01*
X248100Y514750D02*X248850Y514000D01*
X248100Y514750D02*X248850Y515500D01*
X251100D01*
X251850Y514750D01*
X248100Y513250D02*X248850Y512500D01*
X257100Y518500D02*Y513250D01*
X257850Y512500D01*
X256350Y516250D02*X257850D01*
X259350Y514750D02*Y513250D01*
Y514750D02*X260100Y515500D01*
X261600D01*
X262350Y514750D01*
Y513250D01*
X261600Y512500D02*X262350Y513250D01*
X260100Y512500D02*X261600D01*
X259350Y513250D02*X260100Y512500D01*
X264900Y518500D02*Y513250D01*
X265650Y512500D01*
X264150Y516250D02*X265650D01*
X269400Y515500D02*X270150Y514750D01*
X267900Y515500D02*X269400D01*
X267150Y514750D02*X267900Y515500D01*
X267150Y514750D02*Y513250D01*
X267900Y512500D01*
X270150Y515500D02*Y513250D01*
X270900Y512500D01*
X267900D02*X269400D01*
X270150Y513250D01*
X272700Y518500D02*Y513250D01*
X273450Y512500D01*
G54D80*X227500Y35000D02*Y10000D01*
Y70000D02*Y45000D01*
Y105000D02*Y80000D01*
Y140000D02*Y115000D01*
Y175000D02*Y150000D01*
Y210000D02*Y185000D01*
Y245000D02*Y220000D01*
Y280000D02*Y255000D01*
Y315000D02*Y290000D01*
Y350000D02*Y325000D01*
Y385000D02*Y360000D01*
Y420000D02*Y395000D01*
X10000Y10000D02*X227500D01*
X180000Y35000D02*X227500D01*
Y45000D02*X180000D01*
X160000Y35000D02*X70000D01*
Y45000D02*X160000D01*
X50000Y35000D02*X10000D01*
Y45000D02*X50000D01*
X10000Y10000D02*Y35000D01*
X180000Y70000D02*X227500D01*
Y80000D02*X180000D01*
X160000Y70000D02*X70000D01*
Y80000D02*X160000D01*
X50000Y70000D02*X10000D01*
Y80000D02*X50000D01*
X10000Y45000D02*Y70000D01*
X180000Y105000D02*X227500D01*
Y115000D02*X180000D01*
X160000Y105000D02*X70000D01*
Y115000D02*X160000D01*
X50000Y105000D02*X10000D01*
Y115000D02*X50000D01*
X10000Y80000D02*Y105000D01*
X180000Y140000D02*X227500D01*
Y150000D02*X180000D01*
X160000Y140000D02*X70000D01*
Y150000D02*X160000D01*
X50000Y140000D02*X10000D01*
Y150000D02*X50000D01*
X10000Y115000D02*Y140000D01*
X180000Y175000D02*X227500D01*
Y185000D02*X180000D01*
X160000Y175000D02*X70000D01*
Y185000D02*X160000D01*
X50000Y175000D02*X10000D01*
Y185000D02*X50000D01*
X10000Y150000D02*Y175000D01*
X180000Y210000D02*X227500D01*
Y220000D02*X180000D01*
X160000Y210000D02*X70000D01*
Y220000D02*X160000D01*
X50000Y210000D02*X10000D01*
Y220000D02*X50000D01*
X10000Y185000D02*Y210000D01*
X180000Y245000D02*X227500D01*
Y255000D02*X180000D01*
X160000Y245000D02*X70000D01*
Y255000D02*X160000D01*
X50000Y245000D02*X10000D01*
Y255000D02*X50000D01*
X10000Y220000D02*Y245000D01*
X180000Y280000D02*X227500D01*
Y290000D02*X180000D01*
X160000Y280000D02*X70000D01*
Y290000D02*X160000D01*
X50000Y280000D02*X10000D01*
Y290000D02*X50000D01*
X10000Y255000D02*Y280000D01*
X180000Y315000D02*X227500D01*
Y325000D02*X180000D01*
X160000Y315000D02*X70000D01*
Y325000D02*X160000D01*
X50000Y315000D02*X10000D01*
Y325000D02*X50000D01*
X10000Y290000D02*Y315000D01*
X180000Y350000D02*X227500D01*
Y360000D02*X180000D01*
X160000Y350000D02*X70000D01*
Y360000D02*X160000D01*
X50000Y350000D02*X10000D01*
Y360000D02*X50000D01*
X10000Y325000D02*Y350000D01*
X180000Y385000D02*X227500D01*
Y395000D02*X180000D01*
X160000Y385000D02*X70000D01*
Y395000D02*X160000D01*
X50000Y385000D02*X10000D01*
Y395000D02*X50000D01*
X10000Y360000D02*Y385000D01*
Y420000D02*X227500D01*
X10000Y395000D02*Y420000D01*
X175000Y40000D02*G75*G03X180000Y35000I5000J0D01*G01*
X175000Y40000D02*G75*G02X180000Y45000I5000J0D01*G01*
X165000Y40000D02*G75*G02X160000Y35000I-5000J0D01*G01*
X165000Y40000D02*G75*G03X160000Y45000I-5000J0D01*G01*
X65000Y40000D02*G75*G03X70000Y35000I5000J0D01*G01*
X65000Y40000D02*G75*G02X70000Y45000I5000J0D01*G01*
X55000Y40000D02*G75*G02X50000Y35000I-5000J0D01*G01*
X55000Y40000D02*G75*G03X50000Y45000I-5000J0D01*G01*
X175000Y75000D02*G75*G03X180000Y70000I5000J0D01*G01*
X175000Y75000D02*G75*G02X180000Y80000I5000J0D01*G01*
X165000Y75000D02*G75*G02X160000Y70000I-5000J0D01*G01*
X165000Y75000D02*G75*G03X160000Y80000I-5000J0D01*G01*
X65000Y75000D02*G75*G03X70000Y70000I5000J0D01*G01*
X65000Y75000D02*G75*G02X70000Y80000I5000J0D01*G01*
X55000Y75000D02*G75*G02X50000Y70000I-5000J0D01*G01*
X55000Y75000D02*G75*G03X50000Y80000I-5000J0D01*G01*
X175000Y110000D02*G75*G03X180000Y105000I5000J0D01*G01*
X175000Y110000D02*G75*G02X180000Y115000I5000J0D01*G01*
X165000Y110000D02*G75*G02X160000Y105000I-5000J0D01*G01*
X165000Y110000D02*G75*G03X160000Y115000I-5000J0D01*G01*
X65000Y110000D02*G75*G03X70000Y105000I5000J0D01*G01*
X65000Y110000D02*G75*G02X70000Y115000I5000J0D01*G01*
X55000Y110000D02*G75*G02X50000Y105000I-5000J0D01*G01*
X55000Y110000D02*G75*G03X50000Y115000I-5000J0D01*G01*
X175000Y145000D02*G75*G03X180000Y140000I5000J0D01*G01*
X175000Y145000D02*G75*G02X180000Y150000I5000J0D01*G01*
X165000Y145000D02*G75*G02X160000Y140000I-5000J0D01*G01*
X165000Y145000D02*G75*G03X160000Y150000I-5000J0D01*G01*
X65000Y145000D02*G75*G03X70000Y140000I5000J0D01*G01*
X65000Y145000D02*G75*G02X70000Y150000I5000J0D01*G01*
X55000Y145000D02*G75*G02X50000Y140000I-5000J0D01*G01*
X55000Y145000D02*G75*G03X50000Y150000I-5000J0D01*G01*
X175000Y180000D02*G75*G03X180000Y175000I5000J0D01*G01*
X175000Y180000D02*G75*G02X180000Y185000I5000J0D01*G01*
X165000Y180000D02*G75*G02X160000Y175000I-5000J0D01*G01*
X165000Y180000D02*G75*G03X160000Y185000I-5000J0D01*G01*
X65000Y180000D02*G75*G03X70000Y175000I5000J0D01*G01*
X65000Y180000D02*G75*G02X70000Y185000I5000J0D01*G01*
X55000Y180000D02*G75*G02X50000Y175000I-5000J0D01*G01*
X55000Y180000D02*G75*G03X50000Y185000I-5000J0D01*G01*
X175000Y215000D02*G75*G03X180000Y210000I5000J0D01*G01*
X175000Y215000D02*G75*G02X180000Y220000I5000J0D01*G01*
X165000Y215000D02*G75*G02X160000Y210000I-5000J0D01*G01*
X165000Y215000D02*G75*G03X160000Y220000I-5000J0D01*G01*
X65000Y215000D02*G75*G03X70000Y210000I5000J0D01*G01*
X65000Y215000D02*G75*G02X70000Y220000I5000J0D01*G01*
X55000Y215000D02*G75*G02X50000Y210000I-5000J0D01*G01*
X55000Y215000D02*G75*G03X50000Y220000I-5000J0D01*G01*
X175000Y250000D02*G75*G03X180000Y245000I5000J0D01*G01*
X175000Y250000D02*G75*G02X180000Y255000I5000J0D01*G01*
X165000Y250000D02*G75*G02X160000Y245000I-5000J0D01*G01*
X165000Y250000D02*G75*G03X160000Y255000I-5000J0D01*G01*
X65000Y250000D02*G75*G03X70000Y245000I5000J0D01*G01*
X65000Y250000D02*G75*G02X70000Y255000I5000J0D01*G01*
X55000Y250000D02*G75*G02X50000Y245000I-5000J0D01*G01*
X55000Y250000D02*G75*G03X50000Y255000I-5000J0D01*G01*
X175000Y285000D02*G75*G03X180000Y280000I5000J0D01*G01*
X175000Y285000D02*G75*G02X180000Y290000I5000J0D01*G01*
X165000Y285000D02*G75*G02X160000Y280000I-5000J0D01*G01*
X165000Y285000D02*G75*G03X160000Y290000I-5000J0D01*G01*
X65000Y285000D02*G75*G03X70000Y280000I5000J0D01*G01*
X65000Y285000D02*G75*G02X70000Y290000I5000J0D01*G01*
X55000Y285000D02*G75*G02X50000Y280000I-5000J0D01*G01*
X55000Y285000D02*G75*G03X50000Y290000I-5000J0D01*G01*
X175000Y320000D02*G75*G03X180000Y315000I5000J0D01*G01*
X175000Y320000D02*G75*G02X180000Y325000I5000J0D01*G01*
X165000Y320000D02*G75*G02X160000Y315000I-5000J0D01*G01*
X165000Y320000D02*G75*G03X160000Y325000I-5000J0D01*G01*
X65000Y320000D02*G75*G03X70000Y315000I5000J0D01*G01*
X65000Y320000D02*G75*G02X70000Y325000I5000J0D01*G01*
X55000Y320000D02*G75*G02X50000Y315000I-5000J0D01*G01*
X55000Y320000D02*G75*G03X50000Y325000I-5000J0D01*G01*
X175000Y355000D02*G75*G03X180000Y350000I5000J0D01*G01*
X175000Y355000D02*G75*G02X180000Y360000I5000J0D01*G01*
X165000Y355000D02*G75*G02X160000Y350000I-5000J0D01*G01*
X165000Y355000D02*G75*G03X160000Y360000I-5000J0D01*G01*
X65000Y355000D02*G75*G03X70000Y350000I5000J0D01*G01*
X65000Y355000D02*G75*G02X70000Y360000I5000J0D01*G01*
X55000Y355000D02*G75*G02X50000Y350000I-5000J0D01*G01*
X55000Y355000D02*G75*G03X50000Y360000I-5000J0D01*G01*
X175000Y390000D02*G75*G03X180000Y385000I5000J0D01*G01*
X175000Y390000D02*G75*G02X180000Y395000I5000J0D01*G01*
X165000Y390000D02*G75*G02X160000Y385000I-5000J0D01*G01*
X165000Y390000D02*G75*G03X160000Y395000I-5000J0D01*G01*
X65000Y390000D02*G75*G03X70000Y385000I5000J0D01*G01*
X65000Y390000D02*G75*G02X70000Y395000I5000J0D01*G01*
X55000Y390000D02*G75*G02X50000Y385000I-5000J0D01*G01*
X55000Y390000D02*G75*G03X50000Y395000I-5000J0D01*G01*
G54D78*X33675Y-9500D02*X36675D01*
X37425Y-8750D01*
Y-6950D02*Y-8750D01*
X36675Y-6200D02*X37425Y-6950D01*
X34425Y-6200D02*X36675D01*
X34425Y-3500D02*Y-9500D01*
X33675Y-3500D02*X36675D01*
X37425Y-4250D01*
Y-5450D01*
X36675Y-6200D02*X37425Y-5450D01*
X39225Y-7250D02*Y-8750D01*
Y-7250D02*X39975Y-6500D01*
X41475D01*
X42225Y-7250D01*
Y-8750D01*
X41475Y-9500D02*X42225Y-8750D01*
X39975Y-9500D02*X41475D01*
X39225Y-8750D02*X39975Y-9500D01*
X46275Y-6500D02*X47025Y-7250D01*
X44775Y-6500D02*X46275D01*
X44025Y-7250D02*X44775Y-6500D01*
X44025Y-7250D02*Y-8750D01*
X44775Y-9500D01*
X47025Y-6500D02*Y-8750D01*
X47775Y-9500D01*
X44775D02*X46275D01*
X47025Y-8750D01*
X50325Y-7250D02*Y-9500D01*
Y-7250D02*X51075Y-6500D01*
X52575D01*
X49575D02*X50325Y-7250D01*
X57375Y-3500D02*Y-9500D01*
X56625D02*X57375Y-8750D01*
X55125Y-9500D02*X56625D01*
X54375Y-8750D02*X55125Y-9500D01*
X54375Y-7250D02*Y-8750D01*
Y-7250D02*X55125Y-6500D01*
X56625D01*
X57375Y-7250D01*
X61875D02*Y-8750D01*
Y-7250D02*X62625Y-6500D01*
X64125D01*
X64875Y-7250D01*
Y-8750D01*
X64125Y-9500D02*X64875Y-8750D01*
X62625Y-9500D02*X64125D01*
X61875Y-8750D02*X62625Y-9500D01*
X66675Y-6500D02*Y-8750D01*
X67425Y-9500D01*
X68925D01*
X69675Y-8750D01*
Y-6500D02*Y-8750D01*
X72225Y-3500D02*Y-8750D01*
X72975Y-9500D01*
X71475Y-5750D02*X72975D01*
X74475Y-3500D02*Y-8750D01*
X75225Y-9500D01*
G54D79*X76725Y-5000D02*Y-5150D01*
G54D78*Y-7250D02*Y-9500D01*
X78975Y-7250D02*Y-9500D01*
Y-7250D02*X79725Y-6500D01*
X80475D01*
X81225Y-7250D01*
Y-9500D01*
X78225Y-6500D02*X78975Y-7250D01*
X83775Y-9500D02*X86025D01*
X83025Y-8750D02*X83775Y-9500D01*
X83025Y-7250D02*Y-8750D01*
Y-7250D02*X83775Y-6500D01*
X85275D01*
X86025Y-7250D01*
X83025Y-8000D02*X86025D01*
Y-7250D02*Y-8000D01*
G54D79*X90525Y-5000D02*Y-5150D01*
G54D78*Y-7250D02*Y-9500D01*
X92775D02*X95025D01*
X95775Y-8750D01*
X95025Y-8000D02*X95775Y-8750D01*
X92775Y-8000D02*X95025D01*
X92025Y-7250D02*X92775Y-8000D01*
X92025Y-7250D02*X92775Y-6500D01*
X95025D01*
X95775Y-7250D01*
X92025Y-8750D02*X92775Y-9500D01*
X101025Y-3500D02*Y-8750D01*
X101775Y-9500D01*
X100275Y-5750D02*X101775D01*
X103275Y-3500D02*Y-9500D01*
Y-7250D02*X104025Y-6500D01*
X105525D01*
X106275Y-7250D01*
Y-9500D01*
X108825D02*X111075D01*
X108075Y-8750D02*X108825Y-9500D01*
X108075Y-7250D02*Y-8750D01*
Y-7250D02*X108825Y-6500D01*
X110325D01*
X111075Y-7250D01*
X108075Y-8000D02*X111075D01*
Y-7250D02*Y-8000D01*
X116325Y-6500D02*X118575D01*
X115575Y-7250D02*X116325Y-6500D01*
X115575Y-7250D02*Y-8750D01*
X116325Y-9500D01*
X118575D01*
X121125D02*X123375D01*
X120375Y-8750D02*X121125Y-9500D01*
X120375Y-7250D02*Y-8750D01*
Y-7250D02*X121125Y-6500D01*
X122625D01*
X123375Y-7250D01*
X120375Y-8000D02*X123375D01*
Y-7250D02*Y-8000D01*
X125925Y-7250D02*Y-9500D01*
Y-7250D02*X126675Y-6500D01*
X127425D01*
X128175Y-7250D01*
Y-9500D01*
X125175Y-6500D02*X125925Y-7250D01*
X130725Y-3500D02*Y-8750D01*
X131475Y-9500D01*
X129975Y-5750D02*X131475D01*
X133725Y-9500D02*X135975D01*
X132975Y-8750D02*X133725Y-9500D01*
X132975Y-7250D02*Y-8750D01*
Y-7250D02*X133725Y-6500D01*
X135225D01*
X135975Y-7250D01*
X132975Y-8000D02*X135975D01*
Y-7250D02*Y-8000D01*
X138525Y-7250D02*Y-9500D01*
Y-7250D02*X139275Y-6500D01*
X140775D01*
X137775D02*X138525Y-7250D01*
X142575Y-3500D02*Y-8750D01*
X143325Y-9500D01*
G54D79*X144825Y-5000D02*Y-5150D01*
G54D78*Y-7250D02*Y-9500D01*
X147075Y-7250D02*Y-9500D01*
Y-7250D02*X147825Y-6500D01*
X148575D01*
X149325Y-7250D01*
Y-9500D01*
X146325Y-6500D02*X147075Y-7250D01*
X151875Y-9500D02*X154125D01*
X151125Y-8750D02*X151875Y-9500D01*
X151125Y-7250D02*Y-8750D01*
Y-7250D02*X151875Y-6500D01*
X153375D01*
X154125Y-7250D01*
X151125Y-8000D02*X154125D01*
Y-7250D02*Y-8000D01*
X158625Y-7250D02*Y-8750D01*
Y-7250D02*X159375Y-6500D01*
X160875D01*
X161625Y-7250D01*
Y-8750D01*
X160875Y-9500D02*X161625Y-8750D01*
X159375Y-9500D02*X160875D01*
X158625Y-8750D02*X159375Y-9500D01*
X164175Y-4250D02*Y-9500D01*
Y-4250D02*X164925Y-3500D01*
X165675D01*
X163425Y-6500D02*X164925D01*
X170625Y-3500D02*Y-8750D01*
X171375Y-9500D01*
X169875Y-5750D02*X171375D01*
X172875Y-3500D02*Y-9500D01*
Y-7250D02*X173625Y-6500D01*
X175125D01*
X175875Y-7250D01*
Y-9500D01*
G54D79*X177675Y-5000D02*Y-5150D01*
G54D78*Y-7250D02*Y-9500D01*
X179925D02*X182175D01*
X182925Y-8750D01*
X182175Y-8000D02*X182925Y-8750D01*
X179925Y-8000D02*X182175D01*
X179175Y-7250D02*X179925Y-8000D01*
X179175Y-7250D02*X179925Y-6500D01*
X182175D01*
X182925Y-7250D01*
X179175Y-8750D02*X179925Y-9500D01*
X188175Y-7250D02*Y-11750D01*
X187425Y-6500D02*X188175Y-7250D01*
X188925Y-6500D01*
X190425D01*
X191175Y-7250D01*
Y-8750D01*
X190425Y-9500D02*X191175Y-8750D01*
X188925Y-9500D02*X190425D01*
X188175Y-8750D02*X188925Y-9500D01*
X195225Y-6500D02*X195975Y-7250D01*
X193725Y-6500D02*X195225D01*
X192975Y-7250D02*X193725Y-6500D01*
X192975Y-7250D02*Y-8750D01*
X193725Y-9500D01*
X195975Y-6500D02*Y-8750D01*
X196725Y-9500D01*
X193725D02*X195225D01*
X195975Y-8750D01*
X199275Y-3500D02*Y-8750D01*
X200025Y-9500D01*
X198525Y-5750D02*X200025D01*
X201525Y-3500D02*Y-9500D01*
Y-7250D02*X202275Y-6500D01*
X203775D01*
X204525Y-7250D01*
Y-9500D01*
X200750Y458500D02*Y452500D01*
X202700Y458500D02*X203750Y457450D01*
Y453550D01*
X202700Y452500D02*X203750Y453550D01*
X200000Y452500D02*X202700D01*
X200000Y458500D02*X202700D01*
X207800Y455500D02*X208550Y454750D01*
X206300Y455500D02*X207800D01*
X205550Y454750D02*X206300Y455500D01*
X205550Y454750D02*Y453250D01*
X206300Y452500D01*
X208550Y455500D02*Y453250D01*
X209300Y452500D01*
X206300D02*X207800D01*
X208550Y453250D01*
X211850Y458500D02*Y453250D01*
X212600Y452500D01*
X211100Y456250D02*X212600D01*
X214850Y452500D02*X217100D01*
X214100Y453250D02*X214850Y452500D01*
X214100Y454750D02*Y453250D01*
Y454750D02*X214850Y455500D01*
X216350D01*
X217100Y454750D01*
X214100Y454000D02*X217100D01*
Y454750D02*Y454000D01*
X218900Y456250D02*X219650D01*
X218900Y454750D02*X219650D01*
X224150Y458500D02*X227150D01*
X225650D02*Y452500D01*
X228950Y458500D02*Y452500D01*
Y454750D02*X229700Y455500D01*
X231200D01*
X231950Y454750D01*
Y452500D01*
X233750Y455500D02*Y453250D01*
X234500Y452500D01*
X236000D01*
X236750Y453250D01*
Y455500D02*Y453250D01*
X241250Y457750D02*X242000Y458500D01*
X244250D01*
X245000Y457750D01*
Y456250D01*
X241250Y452500D02*X245000Y456250D01*
X241250Y452500D02*X245000D01*
X246800Y453250D02*X247550Y452500D01*
X246800Y457750D02*Y453250D01*
Y457750D02*X247550Y458500D01*
X249050D01*
X249800Y457750D01*
Y453250D01*
X249050Y452500D02*X249800Y453250D01*
X247550Y452500D02*X249050D01*
X246800Y454000D02*X249800Y457000D01*
X254300D02*Y452500D01*
Y457000D02*X255350Y458500D01*
X257000D01*
X258050Y457000D01*
Y452500D01*
X254300Y455500D02*X258050D01*
X259850D02*Y453250D01*
X260600Y452500D01*
X262100D01*
X262850Y453250D01*
Y455500D02*Y453250D01*
X266900Y455500D02*X267650Y454750D01*
X265400Y455500D02*X266900D01*
X264650Y454750D02*X265400Y455500D01*
X264650Y454750D02*Y453250D01*
X265400Y452500D01*
X266900D01*
X267650Y453250D01*
X264650Y451000D02*X265400Y450250D01*
X266900D01*
X267650Y451000D01*
Y455500D02*Y451000D01*
X272150Y457750D02*X272900Y458500D01*
X275150D01*
X275900Y457750D01*
Y456250D01*
X272150Y452500D02*X275900Y456250D01*
X272150Y452500D02*X275900D01*
X277700Y453250D02*X278450Y452500D01*
X277700Y457750D02*Y453250D01*
Y457750D02*X278450Y458500D01*
X279950D01*
X280700Y457750D01*
Y453250D01*
X279950Y452500D02*X280700Y453250D01*
X278450Y452500D02*X279950D01*
X277700Y454000D02*X280700Y457000D01*
X282500Y457750D02*X283250Y458500D01*
X285500D01*
X286250Y457750D01*
Y456250D01*
X282500Y452500D02*X286250Y456250D01*
X282500Y452500D02*X286250D01*
X288050Y453250D02*X288800Y452500D01*
X288050Y457750D02*Y453250D01*
Y457750D02*X288800Y458500D01*
X290300D01*
X291050Y457750D01*
Y453250D01*
X290300Y452500D02*X291050Y453250D01*
X288800Y452500D02*X290300D01*
X288050Y454000D02*X291050Y457000D01*
X295550Y453250D02*X296300Y452500D01*
X295550Y457750D02*Y453250D01*
Y457750D02*X296300Y458500D01*
X297800D01*
X298550Y457750D01*
Y453250D01*
X297800Y452500D02*X298550Y453250D01*
X296300Y452500D02*X297800D01*
X295550Y454000D02*X298550Y457000D01*
X300350Y457750D02*X301100Y458500D01*
X303350D01*
X304100Y457750D01*
Y456250D01*
X300350Y452500D02*X304100Y456250D01*
X300350Y452500D02*X304100D01*
X305900Y456250D02*X306650D01*
X305900Y454750D02*X306650D01*
X308450D02*X311450Y458500D01*
X308450Y454750D02*X312200D01*
X311450Y458500D02*Y452500D01*
X314000Y453250D02*X314750Y452500D01*
X314000Y457750D02*Y453250D01*
Y457750D02*X314750Y458500D01*
X316250D01*
X317000Y457750D01*
Y453250D01*
X316250Y452500D02*X317000Y453250D01*
X314750Y452500D02*X316250D01*
X314000Y454000D02*X317000Y457000D01*
X318800Y456250D02*X319550D01*
X318800Y454750D02*X319550D01*
X321350Y457750D02*X322100Y458500D01*
X323600D01*
X324350Y457750D01*
X323600Y452500D02*X324350Y453250D01*
X322100Y452500D02*X323600D01*
X321350Y453250D02*X322100Y452500D01*
Y455800D02*X323600D01*
X324350Y457750D02*Y456550D01*
Y455050D02*Y453250D01*
Y455050D02*X323600Y455800D01*
X324350Y456550D02*X323600Y455800D01*
X326150Y457750D02*X326900Y458500D01*
X329150D01*
X329900Y457750D01*
Y456250D01*
X326150Y452500D02*X329900Y456250D01*
X326150Y452500D02*X329900D01*
X334400Y457000D02*Y452500D01*
Y457000D02*X335450Y458500D01*
X337100D01*
X338150Y457000D01*
Y452500D01*
X334400Y455500D02*X338150D01*
X339950Y458500D02*Y452500D01*
Y458500D02*X342200Y455500D01*
X344450Y458500D01*
Y452500D01*
X351950Y458500D02*X352700Y457750D01*
X349700Y458500D02*X351950D01*
X348950Y457750D02*X349700Y458500D01*
X348950Y457750D02*Y453250D01*
X349700Y452500D01*
X351950D01*
X352700Y453250D01*
Y454750D02*Y453250D01*
X351950Y455500D02*X352700Y454750D01*
X350450Y455500D02*X351950D01*
X354500Y458500D02*Y452500D01*
Y458500D02*X356750Y455500D01*
X359000Y458500D01*
Y452500D01*
X360800Y458500D02*X363800D01*
X362300D02*Y452500D01*
X368300Y458500D02*Y453250D01*
X369050Y452500D01*
X370550D01*
X371300Y453250D01*
Y458500D02*Y453250D01*
X373100Y458500D02*X376100D01*
X374600D02*Y452500D01*
X378950D02*X380900D01*
X377900Y453550D02*X378950Y452500D01*
X377900Y457450D02*Y453550D01*
Y457450D02*X378950Y458500D01*
X380900D01*
X200000Y472000D02*Y467500D01*
Y472000D02*X201050Y473500D01*
X202700D01*
X203750Y472000D01*
Y467500D01*
X200000Y470500D02*X203750D01*
X205550D02*Y468250D01*
X206300Y467500D01*
X207800D01*
X208550Y468250D01*
Y470500D02*Y468250D01*
X211100Y473500D02*Y468250D01*
X211850Y467500D01*
X210350Y471250D02*X211850D01*
X213350Y473500D02*Y467500D01*
Y469750D02*X214100Y470500D01*
X215600D01*
X216350Y469750D01*
Y467500D01*
X218150Y469750D02*Y468250D01*
Y469750D02*X218900Y470500D01*
X220400D01*
X221150Y469750D01*
Y468250D01*
X220400Y467500D02*X221150Y468250D01*
X218900Y467500D02*X220400D01*
X218150Y468250D02*X218900Y467500D01*
X223700Y469750D02*Y467500D01*
Y469750D02*X224450Y470500D01*
X225950D01*
X222950D02*X223700Y469750D01*
X227750Y471250D02*X228500D01*
X227750Y469750D02*X228500D01*
X233000Y473500D02*Y467500D01*
Y473500D02*X235250Y470500D01*
X237500Y473500D01*
Y467500D01*
G54D79*X239300Y472000D02*Y471850D01*
G54D78*Y469750D02*Y467500D01*
X241550Y470500D02*X243800D01*
X240800Y469750D02*X241550Y470500D01*
X240800Y469750D02*Y468250D01*
X241550Y467500D01*
X243800D01*
X245600Y473500D02*Y467500D01*
Y469750D02*X246350Y470500D01*
X247850D01*
X248600Y469750D01*
Y467500D01*
X252650Y470500D02*X253400Y469750D01*
X251150Y470500D02*X252650D01*
X250400Y469750D02*X251150Y470500D01*
X250400Y469750D02*Y468250D01*
X251150Y467500D01*
X253400Y470500D02*Y468250D01*
X254150Y467500D01*
X251150D02*X252650D01*
X253400Y468250D01*
X256700Y467500D02*X258950D01*
X255950Y468250D02*X256700Y467500D01*
X255950Y469750D02*Y468250D01*
Y469750D02*X256700Y470500D01*
X258200D01*
X258950Y469750D01*
X255950Y469000D02*X258950D01*
Y469750D02*Y469000D01*
X260750Y473500D02*Y468250D01*
X261500Y467500D01*
X266450Y473500D02*Y467500D01*
X265700Y473500D02*X268700D01*
X269450Y472750D01*
Y471250D01*
X268700Y470500D02*X269450Y471250D01*
X266450Y470500D02*X268700D01*
X272000Y467500D02*X274250D01*
X271250Y468250D02*X272000Y467500D01*
X271250Y469750D02*Y468250D01*
Y469750D02*X272000Y470500D01*
X273500D01*
X274250Y469750D01*
X271250Y469000D02*X274250D01*
Y469750D02*Y469000D01*
X276800Y473500D02*Y468250D01*
X277550Y467500D01*
X276050Y471250D02*X277550D01*
X279800Y467500D02*X282050D01*
X279050Y468250D02*X279800Y467500D01*
X279050Y469750D02*Y468250D01*
Y469750D02*X279800Y470500D01*
X281300D01*
X282050Y469750D01*
X279050Y469000D02*X282050D01*
Y469750D02*Y469000D01*
X284600Y469750D02*Y467500D01*
Y469750D02*X285350Y470500D01*
X286850D01*
X283850D02*X284600Y469750D01*
X289400Y467500D02*X291650D01*
X292400Y468250D01*
X291650Y469000D02*X292400Y468250D01*
X289400Y469000D02*X291650D01*
X288650Y469750D02*X289400Y469000D01*
X288650Y469750D02*X289400Y470500D01*
X291650D01*
X292400Y469750D01*
X288650Y468250D02*X289400Y467500D01*
X294950D02*X297200D01*
X294200Y468250D02*X294950Y467500D01*
X294200Y469750D02*Y468250D01*
Y469750D02*X294950Y470500D01*
X296450D01*
X297200Y469750D01*
X294200Y469000D02*X297200D01*
Y469750D02*Y469000D01*
X299750Y469750D02*Y467500D01*
Y469750D02*X300500Y470500D01*
X301250D01*
X302000Y469750D01*
Y467500D01*
X299000Y470500D02*X299750Y469750D01*
X200000Y488500D02*X203000D01*
X201500D02*Y482500D01*
G54D79*X204800Y487000D02*Y486850D01*
G54D78*Y484750D02*Y482500D01*
X207050Y488500D02*Y483250D01*
X207800Y482500D01*
X206300Y486250D02*X207800D01*
X209300Y488500D02*Y483250D01*
X210050Y482500D01*
X212300D02*X214550D01*
X211550Y483250D02*X212300Y482500D01*
X211550Y484750D02*Y483250D01*
Y484750D02*X212300Y485500D01*
X213800D01*
X214550Y484750D01*
X211550Y484000D02*X214550D01*
Y484750D02*Y484000D01*
X216350Y486250D02*X217100D01*
X216350Y484750D02*X217100D01*
X221600Y483250D02*X222350Y482500D01*
X221600Y487750D02*X222350Y488500D01*
X221600Y487750D02*Y483250D01*
X224150Y485500D02*Y483250D01*
X224900Y482500D01*
X226400D01*
X227150Y483250D01*
Y485500D02*Y483250D01*
X229700Y484750D02*Y482500D01*
Y484750D02*X230450Y485500D01*
X231200D01*
X231950Y484750D01*
Y482500D01*
X228950Y485500D02*X229700Y484750D01*
X233750Y488500D02*Y482500D01*
Y484750D02*X236000Y482500D01*
X233750Y484750D02*X235250Y486250D01*
X238550Y484750D02*Y482500D01*
Y484750D02*X239300Y485500D01*
X240050D01*
X240800Y484750D01*
Y482500D01*
X237800Y485500D02*X238550Y484750D01*
X242600D02*Y483250D01*
Y484750D02*X243350Y485500D01*
X244850D01*
X245600Y484750D01*
Y483250D01*
X244850Y482500D02*X245600Y483250D01*
X243350Y482500D02*X244850D01*
X242600Y483250D02*X243350Y482500D01*
X247400Y485500D02*Y483250D01*
X248150Y482500D01*
X248900D01*
X249650Y483250D01*
Y485500D02*Y483250D01*
X250400Y482500D01*
X251150D01*
X251900Y483250D01*
Y485500D02*Y483250D01*
X254450Y484750D02*Y482500D01*
Y484750D02*X255200Y485500D01*
X255950D01*
X256700Y484750D01*
Y482500D01*
X253700Y485500D02*X254450Y484750D01*
X258500Y488500D02*X259250Y487750D01*
Y483250D01*
X258500Y482500D02*X259250Y483250D01*
X263750Y485500D02*X266750D01*
X271250Y488500D02*Y482500D01*
Y488500D02*X274250D01*
X271250Y485800D02*X273500D01*
X278300Y485500D02*X279050Y484750D01*
X276800Y485500D02*X278300D01*
X276050Y484750D02*X276800Y485500D01*
X276050Y484750D02*Y483250D01*
X276800Y482500D01*
X279050Y485500D02*Y483250D01*
X279800Y482500D01*
X276800D02*X278300D01*
X279050Y483250D01*
X281600Y488500D02*Y482500D01*
Y483250D02*X282350Y482500D01*
X283850D01*
X284600Y483250D01*
Y484750D02*Y483250D01*
X283850Y485500D02*X284600Y484750D01*
X282350Y485500D02*X283850D01*
X281600Y484750D02*X282350Y485500D01*
X287150Y484750D02*Y482500D01*
Y484750D02*X287900Y485500D01*
X289400D01*
X286400D02*X287150Y484750D01*
G54D79*X291200Y487000D02*Y486850D01*
G54D78*Y484750D02*Y482500D01*
X293450Y485500D02*X295700D01*
X292700Y484750D02*X293450Y485500D01*
X292700Y484750D02*Y483250D01*
X293450Y482500D01*
X295700D01*
X299750Y485500D02*X300500Y484750D01*
X298250Y485500D02*X299750D01*
X297500Y484750D02*X298250Y485500D01*
X297500Y484750D02*Y483250D01*
X298250Y482500D01*
X300500Y485500D02*Y483250D01*
X301250Y482500D01*
X298250D02*X299750D01*
X300500Y483250D01*
X303800Y488500D02*Y483250D01*
X304550Y482500D01*
X303050Y486250D02*X304550D01*
G54D79*X306050Y487000D02*Y486850D01*
G54D78*Y484750D02*Y482500D01*
X307550Y484750D02*Y483250D01*
Y484750D02*X308300Y485500D01*
X309800D01*
X310550Y484750D01*
Y483250D01*
X309800Y482500D02*X310550Y483250D01*
X308300Y482500D02*X309800D01*
X307550Y483250D02*X308300Y482500D01*
X313100Y484750D02*Y482500D01*
Y484750D02*X313850Y485500D01*
X314600D01*
X315350Y484750D01*
Y482500D01*
X312350Y485500D02*X313100Y484750D01*
X320600Y488500D02*Y482500D01*
X322550Y488500D02*X323600Y487450D01*
Y483550D01*
X322550Y482500D02*X323600Y483550D01*
X319850Y482500D02*X322550D01*
X319850Y488500D02*X322550D01*
X326150Y484750D02*Y482500D01*
Y484750D02*X326900Y485500D01*
X328400D01*
X325400D02*X326150Y484750D01*
X332450Y485500D02*X333200Y484750D01*
X330950Y485500D02*X332450D01*
X330200Y484750D02*X330950Y485500D01*
X330200Y484750D02*Y483250D01*
X330950Y482500D01*
X333200Y485500D02*Y483250D01*
X333950Y482500D01*
X330950D02*X332450D01*
X333200Y483250D01*
X335750Y485500D02*Y483250D01*
X336500Y482500D01*
X337250D01*
X338000Y483250D01*
Y485500D02*Y483250D01*
X338750Y482500D01*
X339500D01*
X340250Y483250D01*
Y485500D02*Y483250D01*
G54D79*X342050Y487000D02*Y486850D01*
G54D78*Y484750D02*Y482500D01*
X344300Y484750D02*Y482500D01*
Y484750D02*X345050Y485500D01*
X345800D01*
X346550Y484750D01*
Y482500D01*
X343550Y485500D02*X344300Y484750D01*
X350600Y485500D02*X351350Y484750D01*
X349100Y485500D02*X350600D01*
X348350Y484750D02*X349100Y485500D01*
X348350Y484750D02*Y483250D01*
X349100Y482500D01*
X350600D01*
X351350Y483250D01*
X348350Y481000D02*X349100Y480250D01*
X350600D01*
X351350Y481000D01*
Y485500D02*Y481000D01*
M02*
