G04 start of page 9 for group -4063 idx -4063 *
G04 Title: (unknown), componentmask *
G04 Creator: pcb 20110918 *
G04 CreationDate: Sat 22 Mar 2014 07:33:40 PM GMT UTC *
G04 For: railfan *
G04 Format: Gerber/RS-274X *
G04 PCB-Dimensions: 25000 261000 *
G04 PCB-Coordinate-Origin: lower left *
%MOIN*%
%FSLAX25Y25*%
%LNTOPMASK*%
%ADD59R,0.0570X0.0570*%
%ADD58R,0.0336X0.0336*%
%ADD57C,0.0370*%
%ADD56R,0.0190X0.0190*%
%ADD55R,0.0196X0.0196*%
%ADD54R,0.0400X0.0400*%
%ADD53R,0.0572X0.0572*%
%ADD52R,0.0300X0.0300*%
%ADD51R,0.0550X0.0550*%
%ADD50C,0.0490*%
%ADD49C,0.0001*%
G54D49*G36*
X9400Y71200D02*Y64600D01*
X16000D01*
Y71200D01*
X9400D01*
G37*
G54D50*X11621Y75642D03*
X7621Y95642D03*
X15621D03*
G54D49*G36*
X9500Y43300D02*Y36700D01*
X16100D01*
Y43300D01*
X9500D01*
G37*
G36*
X14900Y163700D02*Y157100D01*
X21500D01*
Y163700D01*
X14900D01*
G37*
G36*
X9900Y141000D02*Y134400D01*
X16500D01*
Y141000D01*
X9900D01*
G37*
G54D51*X5600Y189200D02*Y185600D01*
X15600Y189200D02*Y185600D01*
G54D52*X11400Y198586D02*Y196986D01*
Y206786D02*Y205186D01*
X10700Y177600D02*Y176000D01*
X2900Y177600D02*Y176000D01*
Y169400D02*Y167800D01*
X6800Y169400D02*Y167800D01*
X10700Y169400D02*Y167800D01*
G54D53*X16807Y170314D02*X17593D01*
X16807Y177400D02*X17593D01*
G54D54*X19773Y213600D02*X20373D01*
X19773Y221400D02*X20373D01*
X11573Y217500D02*X12173D01*
G54D53*X3607Y230200D02*X4393D01*
X3607Y223114D02*X4393D01*
G54D52*X19200Y198586D02*Y196986D01*
Y206786D02*Y205186D01*
X15300Y206786D02*Y205186D01*
G54D53*X3734Y205057D02*X4520D01*
X3734Y212143D02*X4520D01*
G54D49*G36*
X1748Y257852D02*Y251348D01*
X8252D01*
Y257852D01*
X1748D01*
G37*
G36*
X8855Y254090D02*Y249990D01*
X12955D01*
Y254090D01*
X8855D01*
G37*
G54D53*X3607Y245014D02*X4393D01*
X3607Y237928D02*X4393D01*
G54D49*G36*
X13557Y257852D02*Y251348D01*
X20062D01*
Y257852D01*
X13557D01*
G37*
G54D55*X20253Y232660D02*Y231465D01*
Y240335D02*Y239140D01*
X14347Y232660D02*Y231465D01*
X16316Y232660D02*Y231465D01*
X18284Y232660D02*Y231465D01*
Y240335D02*Y239140D01*
X16316Y240335D02*Y239140D01*
X14347Y240335D02*Y239140D01*
G54D51*X14100Y150873D02*Y147273D01*
X4100Y150873D02*Y147273D01*
G54D53*X3607Y131157D02*X4393D01*
X3607Y138243D02*X4393D01*
X3607Y111557D02*X4393D01*
X3607Y118643D02*X4393D01*
G54D56*X20938Y129117D02*Y124511D01*
Y105889D02*Y101283D01*
X18379Y129117D02*Y124511D01*
Y105889D02*Y101283D01*
X15821Y129117D02*Y124511D01*
Y105889D02*Y101283D01*
X13262Y129117D02*Y124511D01*
Y105889D02*Y101283D01*
G54D57*X14121Y80642D03*
X9121D03*
X14121Y85642D03*
X9121D03*
X14121Y90642D03*
X9121D03*
G54D58*X20379Y50662D02*X21559D01*
X20379Y54402D02*X21559D01*
X20379Y58142D02*X21559D01*
X10931D02*X12111D01*
X10931Y54402D02*X12111D01*
X10931Y50662D02*X12111D01*
G54D53*X3528Y38628D02*X4314D01*
X3528Y31542D02*X4314D01*
X3607Y58943D02*X4393D01*
X3607Y51857D02*X4393D01*
G54D59*X17800Y22800D02*Y20000D01*
X8800Y22800D02*Y20000D01*
G54D53*X12156Y31372D02*Y30586D01*
X19242Y31372D02*Y30586D01*
G54D49*G36*
X9100Y10000D02*Y1600D01*
X17500D01*
Y10000D01*
X9100D01*
G37*
M02*
