G04 start of page 2 for group 0 idx 0 *
G04 Title: (unknown), component *
G04 Creator: pcb 20110918 *
G04 CreationDate: Sat 22 Mar 2014 07:33:40 PM GMT UTC *
G04 For: railfan *
G04 Format: Gerber/RS-274X *
G04 PCB-Dimensions: 25000 261000 *
G04 PCB-Coordinate-Origin: lower left *
%MOIN*%
%FSLAX25Y25*%
%LNTOP*%
%ADD26C,0.0390*%
%ADD25C,0.0380*%
%ADD24C,0.0360*%
%ADD23R,0.0510X0.0510*%
%ADD22R,0.0276X0.0276*%
%ADD21C,0.0310*%
%ADD20R,0.0130X0.0130*%
%ADD19R,0.0137X0.0137*%
%ADD18R,0.0340X0.0340*%
%ADD17R,0.0512X0.0512*%
%ADD16R,0.0240X0.0240*%
%ADD15R,0.0490X0.0490*%
%ADD14C,0.0200*%
%ADD13C,0.0250*%
%ADD12C,0.0100*%
%ADD11C,0.0001*%
G54D11*G36*
X8000Y49000D02*X1000D01*
Y54500D01*
X8000D01*
Y49000D01*
G37*
G36*
X24000Y226721D02*Y222000D01*
X22968D01*
X22965Y223241D01*
X22932Y223379D01*
X22877Y223510D01*
X22803Y223631D01*
X22711Y223738D01*
X22604Y223830D01*
X22483Y223904D01*
X22352Y223959D01*
X22214Y223992D01*
X22073Y224000D01*
X17932Y223992D01*
X17794Y223959D01*
X17663Y223904D01*
X17542Y223830D01*
X17435Y223738D01*
X17343Y223631D01*
X17269Y223510D01*
X17214Y223379D01*
X17181Y223241D01*
X17173Y223100D01*
X17176Y222000D01*
X14800D01*
X14774Y222439D01*
X14671Y222868D01*
X14503Y223275D01*
X14272Y223651D01*
X13986Y223986D01*
X13651Y224272D01*
X13275Y224503D01*
X12868Y224671D01*
X12439Y224774D01*
X12000Y224809D01*
X11561Y224774D01*
X11132Y224671D01*
X10725Y224503D01*
X10349Y224272D01*
X10014Y223986D01*
X9728Y223651D01*
X9497Y223275D01*
X9329Y222868D01*
X9226Y222439D01*
X9191Y222000D01*
X7949D01*
X7943Y225830D01*
X7906Y225983D01*
X7846Y226128D01*
X7764Y226263D01*
X7661Y226382D01*
X7542Y226485D01*
X7500Y226510D01*
Y226804D01*
X7542Y226829D01*
X7661Y226932D01*
X7764Y227051D01*
X7846Y227186D01*
X7906Y227331D01*
X7943Y227484D01*
X7952Y227641D01*
X7950Y228700D01*
X9179D01*
X9798Y228081D01*
X9836Y228036D01*
X10016Y227883D01*
X10217Y227759D01*
X10435Y227669D01*
X10665Y227614D01*
X10900Y227595D01*
X10959Y227600D01*
X15441D01*
X15500Y227595D01*
X15735Y227614D01*
X15735Y227614D01*
X15965Y227669D01*
X16183Y227759D01*
X16384Y227883D01*
X16564Y228036D01*
X16602Y228081D01*
X16837Y228316D01*
X16853Y228251D01*
X16943Y228033D01*
X17067Y227832D01*
X17220Y227652D01*
X17265Y227614D01*
X17898Y226981D01*
X17936Y226936D01*
X18116Y226783D01*
X18317Y226659D01*
X18535Y226569D01*
X18765Y226514D01*
X19000Y226495D01*
X19059Y226500D01*
X19135D01*
X19228Y226349D01*
X19514Y226014D01*
X19849Y225728D01*
X20225Y225497D01*
X20632Y225329D01*
X21061Y225226D01*
X21500Y225191D01*
X21939Y225226D01*
X22368Y225329D01*
X22775Y225497D01*
X23151Y225728D01*
X23486Y226014D01*
X23772Y226349D01*
X24000Y226721D01*
G37*
G36*
X23000Y242000D02*X21127D01*
X21092Y242008D01*
X20936Y242018D01*
X19414Y242008D01*
X19379Y242000D01*
X19158D01*
X19123Y242008D01*
X18966Y242018D01*
X17616Y242009D01*
Y242133D01*
X17620Y242184D01*
X17604Y242388D01*
X17604Y242388D01*
X17556Y242587D01*
X17478Y242776D01*
X17371Y242950D01*
X17238Y243106D01*
X17199Y243139D01*
X11044Y249295D01*
X12812Y249299D01*
X12965Y249336D01*
X13110Y249396D01*
X13245Y249478D01*
X13364Y249581D01*
X13467Y249700D01*
X13549Y249835D01*
X13609Y249980D01*
X13646Y250133D01*
X13655Y250290D01*
X13654Y250668D01*
X13701Y250657D01*
X13857Y250648D01*
X18948Y250655D01*
X18829Y250368D01*
X18726Y249939D01*
X18691Y249500D01*
X18726Y249061D01*
X18829Y248632D01*
X18997Y248225D01*
X19228Y247849D01*
X19514Y247514D01*
X19849Y247228D01*
X20225Y246997D01*
X20632Y246829D01*
X21061Y246726D01*
X21500Y246691D01*
X21939Y246726D01*
X22368Y246829D01*
X22775Y246997D01*
X23000Y247135D01*
Y242000D01*
G37*
G36*
X1000Y248000D02*X5169D01*
X5233Y247945D01*
X5234Y247945D01*
X5342Y247879D01*
X5408Y247838D01*
X5597Y247760D01*
X5796Y247712D01*
X5796Y247712D01*
X6000Y247696D01*
X6051Y247700D01*
X8962D01*
X14662Y242000D01*
X1000D01*
Y248000D01*
G37*
G36*
X8000Y244500D02*X12162D01*
X13000Y243662D01*
Y241464D01*
X12949Y241382D01*
X12901Y241265D01*
X12872Y241143D01*
X12864Y241018D01*
X12872Y238332D01*
X12901Y238210D01*
X12949Y238093D01*
X13000Y238011D01*
Y236000D01*
X8000D01*
Y244500D01*
G37*
G54D12*X20821Y86442D02*Y90242D01*
X11521Y94042D02*Y99642D01*
X14121Y91442D02*X11521Y94042D01*
X14121Y90642D02*Y91442D01*
X20821Y88379D02*Y95200D01*
X15821Y100200D01*
X15021Y80642D02*X20821Y86442D01*
X14121Y80642D02*X15021D01*
X16721Y88242D02*X14121Y85642D01*
X17621Y88242D02*X16721D01*
X11521Y99642D02*X9471Y101692D01*
X8621Y102542D02*X9921Y101242D01*
X8621Y105142D02*Y102542D01*
Y104642D02*Y117621D01*
X11500Y120500D01*
X13262Y103586D02*Y111501D01*
X18379Y103586D02*Y110984D01*
X16521Y112842D01*
X20938Y103586D02*Y114362D01*
X18300Y117000D01*
X19000Y120500D02*X11500D01*
X13262Y111501D02*X11921Y112842D01*
X15821Y103586D02*Y100379D01*
Y100200D02*Y102300D01*
X8121Y84642D02*X9121Y85642D01*
X4821Y84642D02*X8121D01*
X4921Y90642D02*X4621Y90342D01*
X9121Y90642D02*X4921D01*
X5321Y76842D02*X9121Y80642D01*
X1421Y87842D02*Y73342D01*
X3921Y90342D02*X1421Y87842D01*
X4621Y90342D02*X3921D01*
X4000Y111557D02*X8464D01*
X8621Y111400D01*
X4921Y76842D02*X5321D01*
G54D13*X6500Y65900D02*X3700D01*
X2100Y67500D01*
Y73700D01*
X4207Y58142D02*X4021Y58328D01*
X11521Y58142D02*X4207D01*
X11200D02*Y66400D01*
G54D14*X11521Y54402D02*X7500D01*
X4955Y51857D01*
G54D12*X18421Y58142D02*X20969D01*
Y58394D01*
G54D13*Y54402D02*X16245D01*
G54D12*X17421Y59142D02*X18421Y58142D01*
X17421Y61942D02*Y59142D01*
G54D13*X11200Y66400D02*X12700Y67900D01*
G54D12*X17421Y61621D02*Y72579D01*
X16400Y73600D01*
X20200Y46500D02*Y49893D01*
X20969Y50662D01*
X15700Y46600D02*Y45700D01*
X18000Y43400D01*
Y31621D01*
X18942Y30679D01*
X15600Y14100D02*X22000D01*
X11956Y27244D02*X17800Y21400D01*
G54D13*X11521Y50662D02*Y40179D01*
X6500Y46600D02*Y49357D01*
G54D12*X3921Y38628D02*Y44121D01*
X8200Y37700D02*X7200Y38700D01*
X3993D01*
X3921Y38628D01*
Y44121D02*X6500Y46700D01*
X2900Y26300D02*Y30521D01*
X3921Y31542D01*
X8200Y26900D02*Y37700D01*
Y28800D02*Y22000D01*
X8800Y21400D01*
X11956Y30979D02*Y27244D01*
X13300Y5800D02*Y11800D01*
X15600Y14100D01*
X15200Y208700D02*Y206086D01*
X15300Y205986D01*
X19200D02*Y212727D01*
X20073Y213600D01*
X19200Y197786D02*Y195800D01*
X17700Y194300D01*
X22800Y199700D02*Y193700D01*
X10143Y212143D02*X10800Y212800D01*
X11100D01*
X15200Y208700D01*
X16600Y217500D02*Y217927D01*
X20073Y221400D01*
X11400Y202900D02*X12600Y201700D01*
X20800D01*
X22800Y199700D01*
G54D13*X4100Y217800D02*Y223014D01*
X10800Y212800D02*X4784D01*
X4127Y212143D01*
G54D12*X16316Y229916D02*X15500Y229100D01*
X10900D01*
X9800Y230200D01*
X4000D01*
X12000Y222000D02*Y217500D01*
X4127Y205057D02*Y199973D01*
X4000Y195600D02*X7700D01*
X11400Y205986D02*Y202900D01*
X6327Y197800D02*X4127Y200000D01*
Y201500D01*
X7700Y195600D02*X9000Y194300D01*
X15714D01*
X17700D02*X13800D01*
X15257Y197843D02*X15300Y197800D01*
X6327D01*
G54D13*X3900Y195600D02*Y189100D01*
Y190400D02*Y177800D01*
X2900Y176800D01*
X10700Y182100D02*X14900D01*
X15600Y182800D01*
Y187400D01*
Y184200D02*Y179000D01*
X4000Y238014D02*Y230286D01*
G54D12*X4100Y230300D02*X4000Y230200D01*
G54D13*X4100Y223014D02*X4000Y223114D01*
G54D12*X5000Y254600D02*Y250000D01*
X6000Y249000D01*
X16316Y232062D02*Y229916D01*
X18284Y239738D02*Y237784D01*
X17000Y236500D01*
X10500D02*X17000D01*
X14347Y239738D02*X10500D01*
X16316D02*Y242184D01*
X9500Y249000D01*
X6000D01*
X15500Y248500D02*Y254600D01*
X18284Y232062D02*Y228716D01*
X19000Y228000D01*
X21500D01*
X17200Y170314D02*X14986D01*
X12200Y173100D01*
Y175300D01*
X10700Y176800D01*
G54D13*X15600Y179000D02*X17200Y177400D01*
G54D12*X22800Y153100D02*Y194300D01*
Y153900D02*Y147500D01*
G54D14*X10700Y168600D02*Y171300D01*
X9000Y173000D01*
G54D13*X6800Y168900D02*Y163400D01*
Y156700D02*Y165600D01*
G54D14*X2900Y168600D02*Y171400D01*
G54D13*X18400Y160600D02*X10800D01*
X14100Y149073D02*X10700Y152473D01*
Y168600D01*
X5800Y156800D02*X4100Y155100D01*
Y149573D01*
X6800Y156700D02*X5700D01*
X5300Y156300D01*
G54D14*X2900Y171400D02*X4500Y173000D01*
X9000D01*
G54D13*X4100Y149900D02*Y138872D01*
G54D14*X4000Y125500D02*Y131157D01*
Y118643D01*
G54D12*X18400Y124700D02*Y129621D01*
Y127600D02*Y136100D01*
X21300Y139000D01*
X22800Y147500D02*X19300Y144000D01*
X15821Y126814D02*Y130879D01*
X14600Y132100D01*
X10700D01*
X10600Y132000D01*
X20938Y126814D02*Y122438D01*
X19000Y120500D01*
X9000Y125500D02*X13262D01*
G54D11*G36*
X9700Y70900D02*Y64900D01*
X15700D01*
Y70900D01*
X9700D01*
G37*
G36*
X9800Y43000D02*Y37000D01*
X15800D01*
Y43000D01*
X9800D01*
G37*
G36*
X15200Y163400D02*Y157400D01*
X21200D01*
Y163400D01*
X15200D01*
G37*
G36*
X10200Y140700D02*Y134700D01*
X16200D01*
Y140700D01*
X10200D01*
G37*
G54D15*X5600Y189200D02*Y185600D01*
X15600Y189200D02*Y185600D01*
G54D16*X11400Y198586D02*Y196986D01*
Y206786D02*Y205186D01*
X10700Y177600D02*Y176000D01*
X2900Y177600D02*Y176000D01*
Y169400D02*Y167800D01*
X6800Y169400D02*Y167800D01*
X10700Y169400D02*Y167800D01*
G54D17*X16807Y170314D02*X17593D01*
X16807Y177400D02*X17593D01*
G54D18*X19773Y213600D02*X20373D01*
X19773Y221400D02*X20373D01*
X11573Y217500D02*X12173D01*
G54D17*X3607Y230200D02*X4393D01*
X3607Y223114D02*X4393D01*
G54D16*X19200Y198586D02*Y196986D01*
Y206786D02*Y205186D01*
X15300Y206786D02*Y205186D01*
G54D17*X3734Y205057D02*X4520D01*
X3734Y212143D02*X4520D01*
G54D11*G36*
X2048Y257552D02*Y251648D01*
X7953D01*
Y257552D01*
X2048D01*
G37*
G36*
X9155Y253790D02*Y250290D01*
X12655D01*
Y253790D01*
X9155D01*
G37*
G54D17*X3607Y245014D02*X4393D01*
X3607Y237928D02*X4393D01*
G54D11*G36*
X13857Y257552D02*Y251648D01*
X19762D01*
Y257552D01*
X13857D01*
G37*
G54D19*X20253Y232660D02*Y231465D01*
Y240335D02*Y239140D01*
X14347Y232660D02*Y231465D01*
X16316Y232660D02*Y231465D01*
X18284Y232660D02*Y231465D01*
Y240335D02*Y239140D01*
X16316Y240335D02*Y239140D01*
X14347Y240335D02*Y239140D01*
G54D15*X14100Y150873D02*Y147273D01*
X4100Y150873D02*Y147273D01*
G54D17*X3607Y131157D02*X4393D01*
X3607Y138243D02*X4393D01*
X3607Y111557D02*X4393D01*
X3607Y118643D02*X4393D01*
G54D20*X20938Y129117D02*Y124511D01*
Y105889D02*Y101283D01*
X18379Y129117D02*Y124511D01*
Y105889D02*Y101283D01*
X15821Y129117D02*Y124511D01*
Y105889D02*Y101283D01*
X13262Y129117D02*Y124511D01*
Y105889D02*Y101283D01*
G54D21*X14121Y80642D03*
X9121D03*
X14121Y85642D03*
X9121D03*
X14121Y90642D03*
X9121D03*
G54D22*X20379Y50662D02*X21559D01*
X20379Y54402D02*X21559D01*
X20379Y58142D02*X21559D01*
X10931D02*X12111D01*
X10931Y54402D02*X12111D01*
X10931Y50662D02*X12111D01*
G54D17*X3528Y38628D02*X4314D01*
X3528Y31542D02*X4314D01*
X3607Y58943D02*X4393D01*
X3607Y51857D02*X4393D01*
G54D23*X17800Y22800D02*Y20000D01*
X8800Y22800D02*Y20000D01*
G54D17*X12156Y31372D02*Y30586D01*
X19242Y31372D02*Y30586D01*
G54D11*G36*
X9400Y9700D02*Y1900D01*
X17200D01*
Y9700D01*
X9400D01*
G37*
G54D24*X17621Y88242D03*
X4821Y84642D03*
X18300Y83400D03*
X4921Y76842D03*
X6500Y65900D03*
X16400Y73600D03*
X4621Y90342D03*
X2900Y26300D03*
X20200Y46500D03*
X16245Y54402D03*
X6500Y46600D03*
X15700D03*
X22000Y14100D03*
X10700Y182100D03*
X6800Y156700D03*
X4100Y217800D03*
X10800Y212800D03*
X4000Y195600D03*
X15300Y197800D03*
X16600Y217500D03*
X10000Y242500D03*
X15500Y248500D03*
X21500Y249500D03*
X12000Y222000D03*
X16000Y225500D03*
X21500Y228000D03*
X11921Y112842D03*
X16521D03*
X18300Y117000D03*
X9000Y125500D03*
X10600Y132000D03*
X19300Y144000D03*
X21300Y139000D03*
X4000Y125500D03*
G54D14*G54D25*G54D26*G54D25*M02*
