G04 start of page 12 for group -4078 idx -4078 *
G04 Title: (unknown), bottomsilk *
G04 Creator: pcb 20110918 *
G04 CreationDate: Sat 22 Mar 2014 07:33:40 PM GMT UTC *
G04 For: railfan *
G04 Format: Gerber/RS-274X *
G04 PCB-Dimensions: 25000 261000 *
G04 PCB-Coordinate-Origin: lower left *
%MOIN*%
%FSLAX25Y25*%
%LNBOTTOMSILK*%
%ADD65C,0.0100*%
G54D65*X22300Y41700D02*Y43000D01*
X21600Y43700D02*X22300Y43000D01*
X19000Y43700D02*X21600D01*
X19000D02*X18300Y43000D01*
Y41700D02*Y43000D01*
X22300Y38500D02*Y39800D01*
X21600Y40500D02*X22300Y39800D01*
X19000Y40500D02*X21600D01*
X19000D02*X18300Y39800D01*
Y38500D02*Y39800D01*
X20300Y35300D02*Y37300D01*
X22300Y32100D02*Y34100D01*
Y32100D02*X21800Y31600D01*
X20600D02*X21800D01*
X20100Y32100D02*X20600Y31600D01*
X20100Y32100D02*Y33600D01*
X18300D02*X22300D01*
X18300Y32100D02*Y34100D01*
Y32100D02*X18800Y31600D01*
X19600D01*
X20100Y32100D02*X19600Y31600D01*
X18300Y30400D02*X20300Y29400D01*
X18300Y28400D01*
X20300Y29400D02*X22300D01*
X20300Y25200D02*Y27200D01*
X18300Y22000D02*X18800Y21500D01*
X18300Y22000D02*Y23500D01*
X18800Y24000D02*X18300Y23500D01*
X18800Y24000D02*X19800D01*
X20300Y23500D01*
Y22000D02*Y23500D01*
Y22000D02*X20800Y21500D01*
X21800D01*
X22300Y22000D02*X21800Y21500D01*
X22300Y22000D02*Y23500D01*
X21800Y24000D02*X22300Y23500D01*
X19300Y20300D02*X22300D01*
X19300D02*X18300Y19600D01*
Y18500D02*Y19600D01*
Y18500D02*X19300Y17800D01*
X22300D01*
X20300D02*Y20300D01*
X15100Y34500D02*X15600Y34000D01*
X12100Y34500D02*X11600Y34000D01*
X12100Y34500D02*X15100D01*
X13600Y30800D02*Y32300D01*
X14100Y32800D02*X13600Y32300D01*
X14100Y32800D02*X15100D01*
X15600Y32300D01*
Y30800D02*Y32300D01*
X11600Y29600D02*X12100Y29100D01*
X15100D01*
X15600Y29600D02*X15100Y29100D01*
X12100Y27900D02*X11600Y27400D01*
Y25900D02*Y27400D01*
Y25900D02*X12100Y25400D01*
X13100D01*
X15600Y27900D02*X13100Y25400D01*
X15600D02*Y27900D01*
X15100Y24200D02*X15600Y23700D01*
X12100Y24200D02*X15100D01*
X12100D02*X11600Y23700D01*
Y22700D02*Y23700D01*
Y22700D02*X12100Y22200D01*
X15100D01*
X15600Y22700D02*X15100Y22200D01*
X15600Y22700D02*Y23700D01*
X14600Y24200D02*X12600Y22200D01*
X12400Y21000D02*X11600Y20200D01*
X15600D01*
Y19500D02*Y21000D01*
X14100Y18300D02*X11600Y16300D01*
X14100Y15800D02*Y18300D01*
X11600Y16300D02*X15600D01*
X16800Y12800D02*X18800D01*
X17800Y11800D02*Y13800D01*
X22200Y213100D02*Y214400D01*
X21500Y215100D02*X22200Y214400D01*
X18900Y215100D02*X21500D01*
X18900D02*X18200Y214400D01*
Y213100D02*Y214400D01*
Y211900D02*X22200D01*
X20200D02*X18200Y209900D01*
X20200Y211900D02*X22200Y209900D01*
X18200Y206700D02*Y208700D01*
Y207700D02*X22200D01*
X20200Y203500D02*Y205500D01*
X18200Y201300D02*Y202300D01*
Y201800D02*X22200D01*
Y201300D02*Y202300D01*
X18200Y198100D02*Y200100D01*
Y198100D02*X18700Y197600D01*
X19700D01*
X20200Y198100D02*X19700Y197600D01*
X20200Y198100D02*Y199600D01*
X18200D02*X22200D01*
X20200Y198800D02*X22200Y197600D01*
X18200Y194400D02*X18700Y193900D01*
X18200Y194400D02*Y195900D01*
X18700Y196400D02*X18200Y195900D01*
X18700Y196400D02*X19700D01*
X20200Y195900D01*
Y194400D02*Y195900D01*
Y194400D02*X20700Y193900D01*
X21700D01*
X22200Y194400D02*X21700Y193900D01*
X22200Y194400D02*Y195900D01*
X21700Y196400D02*X22200Y195900D01*
X20000Y191200D02*Y192700D01*
X22200Y190700D02*Y192700D01*
X18200D02*X22200D01*
X18200Y190700D02*Y192700D01*
Y189500D02*X22200D01*
X18200D02*X22200Y187000D01*
X18200D02*X22200D01*
X18200Y183800D02*X18700Y183300D01*
X18200Y183800D02*Y185300D01*
X18700Y185800D02*X18200Y185300D01*
X18700Y185800D02*X19700D01*
X20200Y185300D01*
Y183800D02*Y185300D01*
Y183800D02*X20700Y183300D01*
X21700D01*
X22200Y183800D02*X21700Y183300D01*
X22200Y183800D02*Y185300D01*
X21700Y185800D02*X22200Y185300D01*
X20000Y180600D02*Y182100D01*
X22200Y180100D02*Y182100D01*
X18200D02*X22200D01*
X18200Y180100D02*Y182100D01*
X20200Y177100D02*X22200Y176100D01*
X20200Y175100D02*X22200Y176100D01*
X18700Y173900D02*X18200Y173400D01*
Y171900D02*Y173400D01*
Y171900D02*X18700Y171400D01*
X19700D01*
X22200Y173900D02*X19700Y171400D01*
X22200D02*Y173900D01*
Y169700D02*Y170200D01*
X21700Y168500D02*X22200Y168000D01*
X18700Y168500D02*X21700D01*
X18700D02*X18200Y168000D01*
Y167000D02*Y168000D01*
Y167000D02*X18700Y166500D01*
X21700D01*
X22200Y167000D02*X21700Y166500D01*
X22200Y167000D02*Y168000D01*
X21200Y168500D02*X19200Y166500D01*
X21300Y254600D02*X23300D01*
X22300Y253600D02*Y255600D01*
X15400Y152700D02*X17400D01*
X16400Y151700D02*Y153700D01*
X18600Y150700D02*X19600Y154700D01*
X20600Y150700D01*
X15400Y128579D02*X15900Y129079D01*
X13900Y128579D02*X15400D01*
X13400Y129079D02*X13900Y128579D01*
X13400Y129079D02*Y132079D01*
X13900Y132579D01*
X15400D01*
X15900Y132079D01*
Y131079D02*Y132079D01*
X15400Y130579D02*X15900Y131079D01*
X14400Y130579D02*X15400D01*
X17100Y128579D02*Y132579D01*
Y128579D02*X19600Y132579D01*
Y128579D02*Y132579D01*
X21300Y128579D02*Y132579D01*
X22600Y128579D02*X23300Y129279D01*
Y131879D01*
X22600Y132579D02*X23300Y131879D01*
X20800Y132579D02*X22600D01*
X20800Y128579D02*X22600D01*
X17700Y66300D02*Y69300D01*
Y66300D02*X18200Y65800D01*
X19200D01*
X19700Y66300D01*
Y69300D01*
X19200Y69800D02*X19700Y69300D01*
X18200Y69800D02*X19200D01*
X17700Y69300D02*X18200Y69800D01*
X22900Y65800D02*X23400Y66300D01*
X21400Y65800D02*X22900D01*
X20900Y66300D02*X21400Y65800D01*
X20900Y66300D02*Y67300D01*
X21400Y67800D01*
X22900D01*
X23400Y68300D01*
Y69300D01*
X22900Y69800D02*X23400Y69300D01*
X21400Y69800D02*X22900D01*
X20900Y69300D02*X21400Y69800D01*
X1800Y38300D02*Y41300D01*
Y38300D02*X2300Y37800D01*
X3300D01*
X3800Y38300D01*
Y41300D01*
X3300Y41800D02*X3800Y41300D01*
X2300Y41800D02*X3300D01*
X1800Y41300D02*X2300Y41800D01*
X5500Y37800D02*Y41800D01*
X6800Y37800D02*X7500Y38500D01*
Y41100D01*
X6800Y41800D02*X7500Y41100D01*
X5000Y41800D02*X6800D01*
X5000Y37800D02*X6800D01*
X4000Y203200D02*Y204200D01*
Y203700D02*X8000D01*
Y203200D02*Y204200D01*
X6500Y202000D02*X7500D01*
X6500D02*X6000Y201500D01*
Y200500D02*Y201500D01*
Y200500D02*X6500Y200000D01*
X7500D01*
X8000Y200500D02*X7500Y200000D01*
X8000Y200500D02*Y201500D01*
X7500Y202000D02*X8000Y201500D01*
X6000Y198800D02*X7500D01*
X8000Y198300D01*
Y197800D02*Y198300D01*
Y197800D02*X7500Y197300D01*
X6000D02*X7500D01*
X8000Y196800D01*
Y196300D02*Y196800D01*
Y196300D02*X7500Y195800D01*
X6000D02*X7500D01*
X6000Y193100D02*X6500Y192600D01*
X6000Y193100D02*Y194100D01*
X6500Y194600D02*X6000Y194100D01*
X6500Y194600D02*X7500D01*
X8000Y194100D01*
X6000Y192600D02*X7500D01*
X8000Y192100D01*
Y193100D02*Y194100D01*
Y193100D02*X7500Y192600D01*
X4000Y187100D02*X4500Y186600D01*
X4000Y187100D02*Y188600D01*
X4500Y189100D02*X4000Y188600D01*
X4500Y189100D02*X5500D01*
X6000Y188600D01*
Y187100D02*Y188600D01*
Y187100D02*X6500Y186600D01*
X7500D01*
X8000Y187100D02*X7500Y186600D01*
X8000Y187100D02*Y188600D01*
X7500Y189100D02*X8000Y188600D01*
X6000Y183400D02*Y184900D01*
X6500Y185400D02*X6000Y184900D01*
X6500Y185400D02*X7500D01*
X8000Y184900D01*
Y183400D02*Y184900D01*
X6000Y180700D02*X6500Y180200D01*
X6000Y180700D02*Y181700D01*
X6500Y182200D02*X6000Y181700D01*
X6500Y182200D02*X7500D01*
X8000Y181700D01*
X6000Y180200D02*X7500D01*
X8000Y179700D01*
Y180700D02*Y181700D01*
Y180700D02*X7500Y180200D01*
X4000Y178500D02*X7500D01*
X8000Y178000D01*
Y175000D02*Y176500D01*
X7500Y177000D02*X8000Y176500D01*
X6500Y177000D02*X7500D01*
X6500D02*X6000Y176500D01*
Y175500D02*Y176500D01*
Y175500D02*X6500Y175000D01*
X7000D02*Y177000D01*
X6500Y175000D02*X7000D01*
X4000Y171800D02*X8000D01*
Y172300D02*X7500Y171800D01*
X8000Y172300D02*Y173300D01*
X7500Y173800D02*X8000Y173300D01*
X6500Y173800D02*X7500D01*
X6500D02*X6000Y173300D01*
Y172300D02*Y173300D01*
Y172300D02*X6500Y171800D01*
X5800Y167300D02*Y168800D01*
X8000Y166800D02*Y168800D01*
X4000D02*X8000D01*
X4000Y166800D02*Y168800D01*
X6500Y165100D02*X8000D01*
X6500D02*X6000Y164600D01*
Y164100D02*Y164600D01*
Y164100D02*X6500Y163600D01*
X8000D01*
X6000Y165600D02*X6500Y165100D01*
X6000Y160900D02*X6500Y160400D01*
X6000Y160900D02*Y161900D01*
X6500Y162400D02*X6000Y161900D01*
X6500Y162400D02*X7500D01*
X8000Y161900D01*
Y160900D02*Y161900D01*
Y160900D02*X7500Y160400D01*
X9000Y162400D02*X9500Y161900D01*
Y160900D02*Y161900D01*
Y160900D02*X9000Y160400D01*
X6000D02*X9000D01*
X11054Y2202D02*X15778D01*
X11054Y9682D02*X15778D01*
X8533Y249200D02*X13257D01*
X8533Y258240D02*X13257D01*
M02*
