M48
INCH
T47C0.020
T46C0.038
%
T47
X001762Y008824
X000482Y008464
X001830Y008340
X000492Y007684
X000650Y006590
X001640Y007360
X000462Y009034
X000290Y002630
X002020Y004650
X001624Y005440
X000650Y004660
X001570Y004660
X002200Y001410
X001070Y018210
X000680Y015670
X000410Y021780
X001080Y021280
X000400Y019560
X001530Y019780
X001660Y021750
X001000Y024250
X001550Y024850
X002150Y024950
X001200Y022200
X001600Y022550
X002150Y022800
X001192Y011284
X001652Y011284
X001830Y011700
X000900Y012550
X001060Y013200
X001930Y014400
X002130Y013900
X000400Y012550
T46
X001270Y006790
X001280Y004000
X001820Y016040
X001320Y013770
M30
