G04 start of page 3 for group 1 idx 2 *
G04 Title: (unknown), gnd *
G04 Creator: pcb 20110918 *
G04 CreationDate: Sat 22 Mar 2014 07:33:40 PM GMT UTC *
G04 For: railfan *
G04 Format: Gerber/RS-274X *
G04 PCB-Dimensions: 25000 261000 *
G04 PCB-Coordinate-Origin: lower left *
%MOIN*%
%FSLAX25Y25*%
%LNGROUP1*%
%ADD31C,0.0390*%
%ADD30C,0.0380*%
%ADD29C,0.0200*%
%ADD28C,0.0360*%
%ADD27C,0.0001*%
G54D27*G36*
X17956Y141540D02*X18025Y141497D01*
X18432Y141329D01*
X18861Y141226D01*
X19300Y141191D01*
X19580Y141213D01*
X19314Y140986D01*
X19028Y140651D01*
X18797Y140275D01*
X18629Y139868D01*
X18526Y139439D01*
X18491Y139000D01*
X18526Y138561D01*
X18629Y138132D01*
X18797Y137725D01*
X19028Y137349D01*
X19314Y137014D01*
X19649Y136728D01*
X20025Y136497D01*
X20432Y136329D01*
X20861Y136226D01*
X21300Y136191D01*
X21739Y136226D01*
X22168Y136329D01*
X22575Y136497D01*
X22951Y136728D01*
X23286Y137014D01*
X23572Y137349D01*
X23803Y137725D01*
X23971Y138132D01*
X24000Y138252D01*
Y16070D01*
X23986Y16086D01*
X23651Y16372D01*
X23275Y16603D01*
X22868Y16771D01*
X22439Y16874D01*
X22000Y16909D01*
X21561Y16874D01*
X21132Y16771D01*
X20725Y16603D01*
X20349Y16372D01*
X20014Y16086D01*
X19728Y15751D01*
X19497Y15375D01*
X19329Y14968D01*
X19226Y14539D01*
X19191Y14100D01*
X19226Y13661D01*
X19329Y13232D01*
X19497Y12825D01*
X19728Y12449D01*
X20014Y12114D01*
X20349Y11828D01*
X20725Y11597D01*
X21132Y11429D01*
X21561Y11326D01*
X22000Y11291D01*
X22439Y11326D01*
X22868Y11429D01*
X23275Y11597D01*
X23651Y11828D01*
X23986Y12114D01*
X24000Y12130D01*
Y1000D01*
X17956D01*
Y44816D01*
X18214Y44514D01*
X18549Y44228D01*
X18925Y43997D01*
X19332Y43829D01*
X19761Y43726D01*
X20200Y43691D01*
X20639Y43726D01*
X21068Y43829D01*
X21475Y43997D01*
X21851Y44228D01*
X22186Y44514D01*
X22472Y44849D01*
X22703Y45225D01*
X22871Y45632D01*
X22974Y46061D01*
X23000Y46500D01*
X22974Y46939D01*
X22871Y47368D01*
X22703Y47775D01*
X22472Y48151D01*
X22186Y48486D01*
X21851Y48772D01*
X21475Y49003D01*
X21068Y49171D01*
X20639Y49274D01*
X20200Y49309D01*
X19761Y49274D01*
X19332Y49171D01*
X18925Y49003D01*
X18549Y48772D01*
X18214Y48486D01*
X17989Y48223D01*
X17972Y48251D01*
X17956Y48270D01*
Y52181D01*
X18231Y52416D01*
X18517Y52751D01*
X18748Y53127D01*
X18916Y53534D01*
X19019Y53963D01*
X19045Y54402D01*
X19019Y54841D01*
X18916Y55270D01*
X18748Y55677D01*
X18517Y56053D01*
X18231Y56388D01*
X17956Y56623D01*
Y71270D01*
X18051Y71328D01*
X18386Y71614D01*
X18672Y71949D01*
X18903Y72325D01*
X19071Y72732D01*
X19174Y73161D01*
X19200Y73600D01*
X19174Y74039D01*
X19071Y74468D01*
X18903Y74875D01*
X18672Y75251D01*
X18386Y75586D01*
X18051Y75872D01*
X17956Y75930D01*
Y80618D01*
X18300Y80591D01*
X18739Y80626D01*
X19168Y80729D01*
X19575Y80897D01*
X19951Y81128D01*
X20286Y81414D01*
X20572Y81749D01*
X20803Y82125D01*
X20971Y82532D01*
X21074Y82961D01*
X21100Y83400D01*
X21074Y83839D01*
X20971Y84268D01*
X20803Y84675D01*
X20572Y85051D01*
X20286Y85386D01*
X19951Y85672D01*
X19575Y85903D01*
X19318Y86009D01*
X19607Y86256D01*
X19893Y86591D01*
X20124Y86967D01*
X20292Y87374D01*
X20395Y87803D01*
X20421Y88242D01*
X20395Y88681D01*
X20292Y89110D01*
X20124Y89517D01*
X19893Y89893D01*
X19607Y90228D01*
X19272Y90514D01*
X18896Y90745D01*
X18489Y90913D01*
X18060Y91016D01*
X17956Y91024D01*
Y93834D01*
X18015Y93903D01*
X18258Y94299D01*
X18435Y94728D01*
X18544Y95179D01*
X18571Y95642D01*
X18544Y96105D01*
X18435Y96556D01*
X18258Y96985D01*
X18015Y97381D01*
X17956Y97450D01*
Y110438D01*
X18172Y110570D01*
X18507Y110856D01*
X18793Y111191D01*
X19024Y111567D01*
X19192Y111974D01*
X19295Y112403D01*
X19321Y112842D01*
X19295Y113281D01*
X19192Y113710D01*
X19024Y114117D01*
X18929Y114271D01*
X19168Y114329D01*
X19575Y114497D01*
X19951Y114728D01*
X20286Y115014D01*
X20572Y115349D01*
X20803Y115725D01*
X20971Y116132D01*
X21074Y116561D01*
X21100Y117000D01*
X21074Y117439D01*
X20971Y117868D01*
X20803Y118275D01*
X20572Y118651D01*
X20286Y118986D01*
X19951Y119272D01*
X19575Y119503D01*
X19168Y119671D01*
X18739Y119774D01*
X18300Y119809D01*
X17956Y119782D01*
Y141540D01*
G37*
G36*
Y260000D02*X24000D01*
Y250779D01*
X23772Y251151D01*
X23486Y251486D01*
X23151Y251772D01*
X22775Y252003D01*
X22368Y252171D01*
X21939Y252274D01*
X21500Y252309D01*
X21061Y252274D01*
X20632Y252171D01*
X20225Y252003D01*
X19849Y251772D01*
X19514Y251486D01*
X19228Y251151D01*
X18997Y250775D01*
X18829Y250368D01*
X18726Y249939D01*
X18691Y249500D01*
X18726Y249061D01*
X18829Y248632D01*
X18997Y248225D01*
X19228Y247849D01*
X19514Y247514D01*
X19849Y247228D01*
X20225Y246997D01*
X20632Y246829D01*
X21061Y246726D01*
X21500Y246691D01*
X21939Y246726D01*
X22368Y246829D01*
X22775Y246997D01*
X23151Y247228D01*
X23486Y247514D01*
X23772Y247849D01*
X24000Y248221D01*
Y229279D01*
X23772Y229651D01*
X23486Y229986D01*
X23151Y230272D01*
X22775Y230503D01*
X22368Y230671D01*
X21939Y230774D01*
X21500Y230809D01*
X21061Y230774D01*
X20632Y230671D01*
X20225Y230503D01*
X19849Y230272D01*
X19514Y229986D01*
X19228Y229651D01*
X18997Y229275D01*
X18829Y228868D01*
X18726Y228439D01*
X18691Y228000D01*
X18726Y227561D01*
X18829Y227132D01*
X18997Y226725D01*
X19228Y226349D01*
X19514Y226014D01*
X19849Y225728D01*
X20225Y225497D01*
X20632Y225329D01*
X21061Y225226D01*
X21500Y225191D01*
X21939Y225226D01*
X22368Y225329D01*
X22775Y225497D01*
X23151Y225728D01*
X23486Y226014D01*
X23772Y226349D01*
X24000Y226721D01*
Y139748D01*
X23971Y139868D01*
X23803Y140275D01*
X23572Y140651D01*
X23286Y140986D01*
X22951Y141272D01*
X22575Y141503D01*
X22168Y141671D01*
X21739Y141774D01*
X21300Y141809D01*
X21020Y141787D01*
X21286Y142014D01*
X21572Y142349D01*
X21803Y142725D01*
X21971Y143132D01*
X22074Y143561D01*
X22100Y144000D01*
X22074Y144439D01*
X21971Y144868D01*
X21803Y145275D01*
X21572Y145651D01*
X21286Y145986D01*
X20951Y146272D01*
X20575Y146503D01*
X20168Y146671D01*
X19739Y146774D01*
X19300Y146809D01*
X18861Y146774D01*
X18432Y146671D01*
X18025Y146503D01*
X17956Y146460D01*
Y155906D01*
X21435Y155914D01*
X21665Y155969D01*
X21883Y156059D01*
X22084Y156183D01*
X22264Y156336D01*
X22417Y156516D01*
X22541Y156717D01*
X22631Y156935D01*
X22686Y157165D01*
X22700Y157400D01*
X22686Y163635D01*
X22631Y163865D01*
X22541Y164083D01*
X22417Y164284D01*
X22264Y164464D01*
X22084Y164617D01*
X21883Y164741D01*
X21665Y164831D01*
X21435Y164886D01*
X21200Y164900D01*
X17956Y164893D01*
Y196896D01*
X17971Y196932D01*
X18074Y197361D01*
X18100Y197800D01*
X18074Y198239D01*
X17971Y198668D01*
X17956Y198704D01*
Y215047D01*
X18251Y215228D01*
X18586Y215514D01*
X18872Y215849D01*
X19103Y216225D01*
X19271Y216632D01*
X19374Y217061D01*
X19400Y217500D01*
X19374Y217939D01*
X19271Y218368D01*
X19103Y218775D01*
X18872Y219151D01*
X18586Y219486D01*
X18251Y219772D01*
X17956Y219953D01*
Y260000D01*
G37*
G36*
X11996Y35505D02*X16035Y35514D01*
X16265Y35569D01*
X16483Y35659D01*
X16684Y35783D01*
X16864Y35936D01*
X17017Y36116D01*
X17141Y36317D01*
X17231Y36535D01*
X17286Y36765D01*
X17300Y37000D01*
X17286Y43235D01*
X17231Y43465D01*
X17141Y43683D01*
X17017Y43884D01*
X16872Y44055D01*
X16975Y44097D01*
X17351Y44328D01*
X17686Y44614D01*
X17911Y44877D01*
X17928Y44849D01*
X17956Y44816D01*
Y1000D01*
X11996D01*
Y35505D01*
G37*
G36*
Y63405D02*X15935Y63414D01*
X16165Y63469D01*
X16383Y63559D01*
X16584Y63683D01*
X16764Y63836D01*
X16917Y64016D01*
X17041Y64217D01*
X17131Y64435D01*
X17186Y64665D01*
X17200Y64900D01*
X17187Y70909D01*
X17268Y70929D01*
X17675Y71097D01*
X17956Y71270D01*
Y56623D01*
X17896Y56674D01*
X17520Y56905D01*
X17113Y57073D01*
X16684Y57176D01*
X16245Y57211D01*
X15806Y57176D01*
X15377Y57073D01*
X14970Y56905D01*
X14594Y56674D01*
X14259Y56388D01*
X13973Y56053D01*
X13742Y55677D01*
X13574Y55270D01*
X13471Y54841D01*
X13436Y54402D01*
X13471Y53963D01*
X13574Y53534D01*
X13742Y53127D01*
X13973Y52751D01*
X14259Y52416D01*
X14594Y52130D01*
X14970Y51899D01*
X15377Y51731D01*
X15806Y51628D01*
X16245Y51593D01*
X16684Y51628D01*
X17113Y51731D01*
X17520Y51899D01*
X17896Y52130D01*
X17956Y52181D01*
Y48270D01*
X17686Y48586D01*
X17351Y48872D01*
X16975Y49103D01*
X16568Y49271D01*
X16139Y49374D01*
X15700Y49409D01*
X15261Y49374D01*
X14832Y49271D01*
X14425Y49103D01*
X14049Y48872D01*
X13714Y48586D01*
X13428Y48251D01*
X13197Y47875D01*
X13029Y47468D01*
X12926Y47039D01*
X12891Y46600D01*
X12926Y46161D01*
X13029Y45732D01*
X13197Y45325D01*
X13428Y44949D01*
X13714Y44614D01*
X13853Y44496D01*
X11996Y44492D01*
Y63405D01*
G37*
G36*
Y72712D02*X12084Y72719D01*
X12535Y72828D01*
X12964Y73005D01*
X13360Y73248D01*
X13603Y73455D01*
X13626Y73161D01*
X13729Y72732D01*
X13868Y72396D01*
X11996Y72392D01*
Y72712D01*
G37*
G36*
Y110039D02*X12360Y110068D01*
X12789Y110171D01*
X13196Y110339D01*
X13572Y110570D01*
X13907Y110856D01*
X14193Y111191D01*
X14221Y111236D01*
X14249Y111191D01*
X14535Y110856D01*
X14870Y110570D01*
X15246Y110339D01*
X15653Y110171D01*
X16082Y110068D01*
X16521Y110033D01*
X16960Y110068D01*
X17389Y110171D01*
X17796Y110339D01*
X17956Y110438D01*
Y97450D01*
X17713Y97734D01*
X17360Y98036D01*
X16964Y98279D01*
X16535Y98456D01*
X16084Y98565D01*
X15621Y98601D01*
X15158Y98565D01*
X14707Y98456D01*
X14278Y98279D01*
X13882Y98036D01*
X13529Y97734D01*
X13227Y97381D01*
X12984Y96985D01*
X12807Y96556D01*
X12698Y96105D01*
X12662Y95642D01*
X12698Y95179D01*
X12807Y94728D01*
X12984Y94299D01*
X13227Y93903D01*
X13529Y93550D01*
X13882Y93248D01*
X14278Y93005D01*
X14707Y92828D01*
X15158Y92719D01*
X15621Y92683D01*
X16084Y92719D01*
X16535Y92828D01*
X16964Y93005D01*
X17360Y93248D01*
X17713Y93550D01*
X17956Y93834D01*
Y91024D01*
X17621Y91051D01*
X17182Y91016D01*
X16753Y90913D01*
X16346Y90745D01*
X15970Y90514D01*
X15635Y90228D01*
X15349Y89893D01*
X15118Y89517D01*
X14950Y89110D01*
X14847Y88681D01*
X14812Y88242D01*
X14847Y87803D01*
X14950Y87374D01*
X15118Y86967D01*
X15349Y86591D01*
X15635Y86256D01*
X15970Y85970D01*
X16346Y85739D01*
X16603Y85633D01*
X16314Y85386D01*
X16028Y85051D01*
X15797Y84675D01*
X15629Y84268D01*
X15526Y83839D01*
X15491Y83400D01*
X15526Y82961D01*
X15629Y82532D01*
X15797Y82125D01*
X16028Y81749D01*
X16314Y81414D01*
X16649Y81128D01*
X17025Y80897D01*
X17432Y80729D01*
X17861Y80626D01*
X17956Y80618D01*
Y75930D01*
X17675Y76103D01*
X17268Y76271D01*
X16839Y76374D01*
X16400Y76409D01*
X15961Y76374D01*
X15532Y76271D01*
X15125Y76103D01*
X14749Y75872D01*
X14567Y75716D01*
X14544Y76105D01*
X14435Y76556D01*
X14258Y76985D01*
X14015Y77381D01*
X13713Y77734D01*
X13360Y78036D01*
X12964Y78279D01*
X12535Y78456D01*
X12084Y78565D01*
X11996Y78572D01*
Y110039D01*
G37*
G36*
X16950Y142476D02*X17028Y142349D01*
X17314Y142014D01*
X17649Y141728D01*
X17956Y141540D01*
Y119782D01*
X17861Y119774D01*
X17432Y119671D01*
X17025Y119503D01*
X16950Y119457D01*
Y135448D01*
X17068Y135457D01*
X17182Y135485D01*
X17292Y135530D01*
X17392Y135591D01*
X17482Y135668D01*
X17559Y135758D01*
X17620Y135858D01*
X17665Y135968D01*
X17693Y136082D01*
X17700Y136200D01*
Y139200D01*
X17693Y139318D01*
X17665Y139432D01*
X17620Y139542D01*
X17559Y139642D01*
X17482Y139732D01*
X17392Y139809D01*
X17292Y139870D01*
X17182Y139915D01*
X17068Y139943D01*
X16950Y139952D01*
Y142476D01*
G37*
G36*
Y155904D02*X17956Y155906D01*
Y146460D01*
X17649Y146272D01*
X17314Y145986D01*
X17028Y145651D01*
X16950Y145524D01*
Y155904D01*
G37*
G36*
Y195527D02*X16951Y195528D01*
X17286Y195814D01*
X17572Y196149D01*
X17803Y196525D01*
X17956Y196896D01*
Y164893D01*
X16950Y164891D01*
Y195527D01*
G37*
G36*
Y214719D02*X17039Y214726D01*
X17468Y214829D01*
X17875Y214997D01*
X17956Y215047D01*
Y198704D01*
X17803Y199075D01*
X17572Y199451D01*
X17286Y199786D01*
X16951Y200072D01*
X16950Y200073D01*
Y214719D01*
G37*
G36*
Y260000D02*X17956D01*
Y219953D01*
X17875Y220003D01*
X17468Y220171D01*
X17039Y220274D01*
X16950Y220281D01*
Y260000D01*
G37*
G36*
X11996D02*X16950D01*
Y220281D01*
X16600Y220309D01*
X16161Y220274D01*
X15732Y220171D01*
X15325Y220003D01*
X14949Y219772D01*
X14614Y219486D01*
X14328Y219151D01*
X14097Y218775D01*
X13929Y218368D01*
X13826Y217939D01*
X13791Y217500D01*
X13826Y217061D01*
X13929Y216632D01*
X14097Y216225D01*
X14328Y215849D01*
X14614Y215514D01*
X14949Y215228D01*
X15325Y214997D01*
X15732Y214829D01*
X16161Y214726D01*
X16600Y214691D01*
X16950Y214719D01*
Y200073D01*
X16575Y200303D01*
X16168Y200471D01*
X15739Y200574D01*
X15300Y200609D01*
X14861Y200574D01*
X14432Y200471D01*
X14025Y200303D01*
X13649Y200072D01*
X13314Y199786D01*
X13028Y199451D01*
X12797Y199075D01*
X12629Y198668D01*
X12526Y198239D01*
X12491Y197800D01*
X12526Y197361D01*
X12629Y196932D01*
X12797Y196525D01*
X13028Y196149D01*
X13314Y195814D01*
X13649Y195528D01*
X14025Y195297D01*
X14432Y195129D01*
X14861Y195026D01*
X15300Y194991D01*
X15739Y195026D01*
X16168Y195129D01*
X16575Y195297D01*
X16950Y195527D01*
Y164891D01*
X14965Y164886D01*
X14735Y164831D01*
X14517Y164741D01*
X14316Y164617D01*
X14136Y164464D01*
X13983Y164284D01*
X13859Y164083D01*
X13769Y163865D01*
X13714Y163635D01*
X13700Y163400D01*
X13714Y157165D01*
X13769Y156935D01*
X13859Y156717D01*
X13983Y156516D01*
X14136Y156336D01*
X14316Y156183D01*
X14517Y156059D01*
X14735Y155969D01*
X14965Y155914D01*
X15200Y155900D01*
X16950Y155904D01*
Y145524D01*
X16797Y145275D01*
X16629Y144868D01*
X16526Y144439D01*
X16491Y144000D01*
X16526Y143561D01*
X16629Y143132D01*
X16797Y142725D01*
X16950Y142476D01*
Y139952D01*
X16832Y139943D01*
X16718Y139915D01*
X16608Y139870D01*
X16508Y139809D01*
X16418Y139732D01*
X16341Y139642D01*
X16280Y139542D01*
X16235Y139432D01*
X16207Y139318D01*
X16200Y139200D01*
Y136200D01*
X16207Y136082D01*
X16235Y135968D01*
X16280Y135858D01*
X16341Y135758D01*
X16418Y135668D01*
X16508Y135591D01*
X16608Y135530D01*
X16718Y135485D01*
X16832Y135457D01*
X16950Y135448D01*
Y119457D01*
X16649Y119272D01*
X16314Y118986D01*
X16028Y118651D01*
X15797Y118275D01*
X15629Y117868D01*
X15526Y117439D01*
X15491Y117000D01*
X15526Y116561D01*
X15629Y116132D01*
X15797Y115725D01*
X15892Y115571D01*
X15653Y115513D01*
X15246Y115345D01*
X14870Y115114D01*
X14535Y114828D01*
X14249Y114493D01*
X14221Y114448D01*
X14193Y114493D01*
X13907Y114828D01*
X13572Y115114D01*
X13196Y115345D01*
X12789Y115513D01*
X12360Y115616D01*
X11996Y115645D01*
Y129571D01*
X12251Y129728D01*
X12586Y130014D01*
X12872Y130349D01*
X13103Y130725D01*
X13271Y131132D01*
X13374Y131561D01*
X13400Y132000D01*
X13374Y132439D01*
X13271Y132868D01*
X13134Y133200D01*
X14700D01*
X14818Y133207D01*
X14932Y133235D01*
X15042Y133280D01*
X15142Y133341D01*
X15232Y133418D01*
X15309Y133508D01*
X15370Y133608D01*
X15415Y133718D01*
X15443Y133832D01*
X15452Y133950D01*
X15443Y134068D01*
X15415Y134182D01*
X15370Y134292D01*
X15309Y134392D01*
X15232Y134482D01*
X15142Y134559D01*
X15042Y134620D01*
X14932Y134665D01*
X14818Y134693D01*
X14700Y134700D01*
X11996D01*
Y140700D01*
X14700D01*
X14818Y140707D01*
X14932Y140735D01*
X15042Y140780D01*
X15142Y140841D01*
X15232Y140918D01*
X15309Y141008D01*
X15370Y141108D01*
X15415Y141218D01*
X15443Y141332D01*
X15452Y141450D01*
X15443Y141568D01*
X15415Y141682D01*
X15370Y141792D01*
X15309Y141892D01*
X15232Y141982D01*
X15142Y142059D01*
X15042Y142120D01*
X14932Y142165D01*
X14818Y142193D01*
X14700Y142200D01*
X11996D01*
Y219192D01*
X12000Y219191D01*
X12439Y219226D01*
X12868Y219329D01*
X13275Y219497D01*
X13651Y219728D01*
X13986Y220014D01*
X14272Y220349D01*
X14503Y220725D01*
X14671Y221132D01*
X14774Y221561D01*
X14800Y222000D01*
X14774Y222439D01*
X14671Y222868D01*
X14503Y223275D01*
X14272Y223651D01*
X13986Y223986D01*
X13651Y224272D01*
X13275Y224503D01*
X12868Y224671D01*
X12439Y224774D01*
X12000Y224809D01*
X11996Y224808D01*
Y260000D01*
G37*
G36*
X9450Y35541D02*X9565Y35514D01*
X9800Y35500D01*
X11996Y35505D01*
Y1000D01*
X9450D01*
Y35541D01*
G37*
G36*
Y63417D02*X9465Y63414D01*
X9700Y63400D01*
X11996Y63405D01*
Y44492D01*
X9565Y44486D01*
X9450Y44459D01*
Y63417D01*
G37*
G36*
Y73642D02*X9529Y73550D01*
X9882Y73248D01*
X10278Y73005D01*
X10707Y72828D01*
X11158Y72719D01*
X11621Y72683D01*
X11996Y72712D01*
Y72392D01*
X9465Y72386D01*
X9450Y72383D01*
Y73642D01*
G37*
G36*
Y111515D02*X9649Y111191D01*
X9935Y110856D01*
X10270Y110570D01*
X10646Y110339D01*
X11053Y110171D01*
X11482Y110068D01*
X11921Y110033D01*
X11996Y110039D01*
Y78572D01*
X11621Y78601D01*
X11158Y78565D01*
X10707Y78456D01*
X10278Y78279D01*
X9882Y78036D01*
X9529Y77734D01*
X9450Y77642D01*
Y93325D01*
X9713Y93550D01*
X10015Y93903D01*
X10258Y94299D01*
X10435Y94728D01*
X10544Y95179D01*
X10571Y95642D01*
X10544Y96105D01*
X10435Y96556D01*
X10258Y96985D01*
X10015Y97381D01*
X9713Y97734D01*
X9450Y97959D01*
Y111515D01*
G37*
G36*
Y129446D02*X9732Y129329D01*
X10161Y129226D01*
X10600Y129191D01*
X11039Y129226D01*
X11468Y129329D01*
X11875Y129497D01*
X11996Y129571D01*
Y115645D01*
X11921Y115651D01*
X11482Y115616D01*
X11053Y115513D01*
X10646Y115345D01*
X10270Y115114D01*
X9935Y114828D01*
X9649Y114493D01*
X9450Y114169D01*
Y129446D01*
G37*
G36*
Y220840D02*X9497Y220725D01*
X9728Y220349D01*
X10014Y220014D01*
X10349Y219728D01*
X10725Y219497D01*
X11132Y219329D01*
X11561Y219226D01*
X11996Y219192D01*
Y142200D01*
X11700D01*
X11582Y142193D01*
X11468Y142165D01*
X11358Y142120D01*
X11258Y142059D01*
X11168Y141982D01*
X11091Y141892D01*
X11030Y141792D01*
X10985Y141682D01*
X10957Y141568D01*
X10948Y141450D01*
X10957Y141332D01*
X10985Y141218D01*
X11030Y141108D01*
X11091Y141008D01*
X11168Y140918D01*
X11258Y140841D01*
X11358Y140780D01*
X11468Y140735D01*
X11582Y140707D01*
X11700Y140700D01*
X11996D01*
Y134700D01*
X11700D01*
X11582Y134693D01*
X11476Y134668D01*
X11468Y134671D01*
X11039Y134774D01*
X10600Y134809D01*
X10161Y134774D01*
X9732Y134671D01*
X9450Y134554D01*
Y135448D01*
X9568Y135457D01*
X9682Y135485D01*
X9792Y135530D01*
X9892Y135591D01*
X9982Y135668D01*
X10059Y135758D01*
X10120Y135858D01*
X10165Y135968D01*
X10193Y136082D01*
X10200Y136200D01*
Y139200D01*
X10193Y139318D01*
X10165Y139432D01*
X10120Y139542D01*
X10059Y139642D01*
X9982Y139732D01*
X9892Y139809D01*
X9792Y139870D01*
X9682Y139915D01*
X9568Y139943D01*
X9450Y139952D01*
Y220840D01*
G37*
G36*
Y260000D02*X11996D01*
Y224808D01*
X11561Y224774D01*
X11132Y224671D01*
X10725Y224503D01*
X10349Y224272D01*
X10014Y223986D01*
X9728Y223651D01*
X9497Y223275D01*
X9450Y223160D01*
Y260000D01*
G37*
G36*
Y77642D02*X9227Y77381D01*
X8984Y76985D01*
X8807Y76556D01*
X8698Y76105D01*
X8662Y75642D01*
X8698Y75179D01*
X8807Y74728D01*
X8984Y74299D01*
X9227Y73903D01*
X9450Y73642D01*
Y72383D01*
X9235Y72331D01*
X9017Y72241D01*
X8816Y72117D01*
X8636Y71964D01*
X8483Y71784D01*
X8359Y71583D01*
X8269Y71365D01*
X8214Y71135D01*
X8200Y70900D01*
X8214Y64665D01*
X8269Y64435D01*
X8359Y64217D01*
X8483Y64016D01*
X8636Y63836D01*
X8816Y63683D01*
X9017Y63559D01*
X9235Y63469D01*
X9450Y63417D01*
Y44459D01*
X9335Y44431D01*
X9117Y44341D01*
X8916Y44217D01*
X8736Y44064D01*
X8583Y43884D01*
X8459Y43683D01*
X8369Y43465D01*
X8314Y43235D01*
X8300Y43000D01*
X8314Y36765D01*
X8369Y36535D01*
X8459Y36317D01*
X8583Y36116D01*
X8736Y35936D01*
X8916Y35783D01*
X9117Y35659D01*
X9335Y35569D01*
X9450Y35541D01*
Y1000D01*
X4817D01*
Y24255D01*
X4886Y24314D01*
X5172Y24649D01*
X5403Y25025D01*
X5571Y25432D01*
X5674Y25861D01*
X5700Y26300D01*
X5674Y26739D01*
X5571Y27168D01*
X5403Y27575D01*
X5172Y27951D01*
X4886Y28286D01*
X4817Y28345D01*
Y74042D01*
X4921Y74033D01*
X5360Y74068D01*
X5789Y74171D01*
X6196Y74339D01*
X6572Y74570D01*
X6907Y74856D01*
X7193Y75191D01*
X7424Y75567D01*
X7592Y75974D01*
X7695Y76403D01*
X7721Y76842D01*
X7695Y77281D01*
X7592Y77710D01*
X7424Y78117D01*
X7193Y78493D01*
X6907Y78828D01*
X6572Y79114D01*
X6196Y79345D01*
X5789Y79513D01*
X5360Y79616D01*
X4921Y79651D01*
X4817Y79642D01*
Y81834D01*
X4821Y81833D01*
X5260Y81868D01*
X5689Y81971D01*
X6096Y82139D01*
X6472Y82370D01*
X6807Y82656D01*
X7093Y82991D01*
X7324Y83367D01*
X7492Y83774D01*
X7595Y84203D01*
X7621Y84642D01*
X7595Y85081D01*
X7492Y85510D01*
X7324Y85917D01*
X7093Y86293D01*
X6807Y86628D01*
X6472Y86914D01*
X6096Y87145D01*
X5689Y87313D01*
X5260Y87416D01*
X4821Y87451D01*
X4817Y87450D01*
Y87549D01*
X5060Y87568D01*
X5489Y87671D01*
X5896Y87839D01*
X6272Y88070D01*
X6607Y88356D01*
X6893Y88691D01*
X7124Y89067D01*
X7292Y89474D01*
X7395Y89903D01*
X7421Y90342D01*
X7395Y90781D01*
X7292Y91210D01*
X7124Y91617D01*
X6893Y91993D01*
X6607Y92328D01*
X6272Y92614D01*
X5896Y92845D01*
X5489Y93013D01*
X5060Y93116D01*
X4817Y93135D01*
Y94704D01*
X4984Y94299D01*
X5227Y93903D01*
X5529Y93550D01*
X5882Y93248D01*
X6278Y93005D01*
X6707Y92828D01*
X7158Y92719D01*
X7621Y92683D01*
X8084Y92719D01*
X8535Y92828D01*
X8964Y93005D01*
X9360Y93248D01*
X9450Y93325D01*
Y77642D01*
G37*
G36*
X4817Y260000D02*X9450D01*
Y223160D01*
X9329Y222868D01*
X9226Y222439D01*
X9191Y222000D01*
X9226Y221561D01*
X9329Y221132D01*
X9450Y220840D01*
Y139952D01*
X9332Y139943D01*
X9218Y139915D01*
X9108Y139870D01*
X9008Y139809D01*
X8918Y139732D01*
X8841Y139642D01*
X8780Y139542D01*
X8735Y139432D01*
X8707Y139318D01*
X8700Y139200D01*
Y136200D01*
X8707Y136082D01*
X8735Y135968D01*
X8780Y135858D01*
X8841Y135758D01*
X8918Y135668D01*
X9008Y135591D01*
X9108Y135530D01*
X9218Y135485D01*
X9332Y135457D01*
X9450Y135448D01*
Y134554D01*
X9325Y134503D01*
X8949Y134272D01*
X8614Y133986D01*
X8328Y133651D01*
X8097Y133275D01*
X7929Y132868D01*
X7826Y132439D01*
X7791Y132000D01*
X7826Y131561D01*
X7929Y131132D01*
X8097Y130725D01*
X8328Y130349D01*
X8614Y130014D01*
X8949Y129728D01*
X9325Y129497D01*
X9450Y129446D01*
Y114169D01*
X9418Y114117D01*
X9250Y113710D01*
X9147Y113281D01*
X9112Y112842D01*
X9147Y112403D01*
X9250Y111974D01*
X9418Y111567D01*
X9450Y111515D01*
Y97959D01*
X9360Y98036D01*
X8964Y98279D01*
X8535Y98456D01*
X8084Y98565D01*
X7621Y98601D01*
X7158Y98565D01*
X6707Y98456D01*
X6278Y98279D01*
X5882Y98036D01*
X5529Y97734D01*
X5227Y97381D01*
X4984Y96985D01*
X4817Y96580D01*
Y122817D01*
X4868Y122829D01*
X5275Y122997D01*
X5651Y123228D01*
X5986Y123514D01*
X6272Y123849D01*
X6503Y124225D01*
X6671Y124632D01*
X6774Y125061D01*
X6800Y125500D01*
X6774Y125939D01*
X6671Y126368D01*
X6503Y126775D01*
X6272Y127151D01*
X5986Y127486D01*
X5651Y127772D01*
X5275Y128003D01*
X4868Y128171D01*
X4817Y128183D01*
Y192917D01*
X4868Y192929D01*
X5275Y193097D01*
X5651Y193328D01*
X5986Y193614D01*
X6272Y193949D01*
X6503Y194325D01*
X6671Y194732D01*
X6774Y195161D01*
X6800Y195600D01*
X6774Y196039D01*
X6671Y196468D01*
X6503Y196875D01*
X6272Y197251D01*
X5986Y197586D01*
X5651Y197872D01*
X5275Y198103D01*
X4868Y198271D01*
X4817Y198283D01*
Y215093D01*
X4968Y215129D01*
X5375Y215297D01*
X5751Y215528D01*
X6086Y215814D01*
X6372Y216149D01*
X6603Y216525D01*
X6771Y216932D01*
X6874Y217361D01*
X6900Y217800D01*
X6874Y218239D01*
X6771Y218668D01*
X6603Y219075D01*
X6372Y219451D01*
X6086Y219786D01*
X5751Y220072D01*
X5375Y220303D01*
X4968Y220471D01*
X4817Y220507D01*
Y260000D01*
G37*
G36*
Y1000D02*X1000D01*
Y24241D01*
X1249Y24028D01*
X1625Y23797D01*
X2032Y23629D01*
X2461Y23526D01*
X2900Y23491D01*
X3339Y23526D01*
X3768Y23629D01*
X4175Y23797D01*
X4551Y24028D01*
X4817Y24255D01*
Y1000D01*
G37*
G36*
X1000Y260000D02*X4817D01*
Y220507D01*
X4539Y220574D01*
X4100Y220609D01*
X3661Y220574D01*
X3232Y220471D01*
X2825Y220303D01*
X2449Y220072D01*
X2114Y219786D01*
X1828Y219451D01*
X1597Y219075D01*
X1429Y218668D01*
X1326Y218239D01*
X1291Y217800D01*
X1326Y217361D01*
X1429Y216932D01*
X1597Y216525D01*
X1828Y216149D01*
X2114Y215814D01*
X2449Y215528D01*
X2825Y215297D01*
X3232Y215129D01*
X3661Y215026D01*
X4100Y214991D01*
X4539Y215026D01*
X4817Y215093D01*
Y198283D01*
X4439Y198374D01*
X4000Y198409D01*
X3561Y198374D01*
X3132Y198271D01*
X2725Y198103D01*
X2349Y197872D01*
X2014Y197586D01*
X1728Y197251D01*
X1497Y196875D01*
X1329Y196468D01*
X1226Y196039D01*
X1191Y195600D01*
X1226Y195161D01*
X1329Y194732D01*
X1497Y194325D01*
X1728Y193949D01*
X2014Y193614D01*
X2349Y193328D01*
X2725Y193097D01*
X3132Y192929D01*
X3561Y192826D01*
X4000Y192791D01*
X4439Y192826D01*
X4817Y192917D01*
Y128183D01*
X4439Y128274D01*
X4000Y128309D01*
X3561Y128274D01*
X3132Y128171D01*
X2725Y128003D01*
X2349Y127772D01*
X2014Y127486D01*
X1728Y127151D01*
X1497Y126775D01*
X1329Y126368D01*
X1226Y125939D01*
X1191Y125500D01*
X1226Y125061D01*
X1329Y124632D01*
X1497Y124225D01*
X1728Y123849D01*
X2014Y123514D01*
X2349Y123228D01*
X2725Y122997D01*
X3132Y122829D01*
X3561Y122726D01*
X4000Y122691D01*
X4439Y122726D01*
X4817Y122817D01*
Y96580D01*
X4807Y96556D01*
X4698Y96105D01*
X4662Y95642D01*
X4698Y95179D01*
X4807Y94728D01*
X4817Y94704D01*
Y93135D01*
X4621Y93151D01*
X4182Y93116D01*
X3753Y93013D01*
X3346Y92845D01*
X2970Y92614D01*
X2635Y92328D01*
X2349Y91993D01*
X2118Y91617D01*
X1950Y91210D01*
X1847Y90781D01*
X1812Y90342D01*
X1847Y89903D01*
X1950Y89474D01*
X2118Y89067D01*
X2349Y88691D01*
X2635Y88356D01*
X2970Y88070D01*
X3346Y87839D01*
X3753Y87671D01*
X4182Y87568D01*
X4621Y87533D01*
X4817Y87549D01*
Y87450D01*
X4382Y87416D01*
X3953Y87313D01*
X3546Y87145D01*
X3170Y86914D01*
X2835Y86628D01*
X2549Y86293D01*
X2318Y85917D01*
X2150Y85510D01*
X2047Y85081D01*
X2012Y84642D01*
X2047Y84203D01*
X2150Y83774D01*
X2318Y83367D01*
X2549Y82991D01*
X2835Y82656D01*
X3170Y82370D01*
X3546Y82139D01*
X3953Y81971D01*
X4382Y81868D01*
X4817Y81834D01*
Y79642D01*
X4482Y79616D01*
X4053Y79513D01*
X3646Y79345D01*
X3270Y79114D01*
X2935Y78828D01*
X2649Y78493D01*
X2418Y78117D01*
X2250Y77710D01*
X2147Y77281D01*
X2112Y76842D01*
X2147Y76403D01*
X2250Y75974D01*
X2418Y75567D01*
X2649Y75191D01*
X2935Y74856D01*
X3270Y74570D01*
X3646Y74339D01*
X4053Y74171D01*
X4482Y74068D01*
X4817Y74042D01*
Y28345D01*
X4551Y28572D01*
X4175Y28803D01*
X3768Y28971D01*
X3339Y29074D01*
X2900Y29109D01*
X2461Y29074D01*
X2032Y28971D01*
X1625Y28803D01*
X1249Y28572D01*
X1000Y28359D01*
Y260000D01*
G37*
G36*
X9700Y70900D02*Y64900D01*
X15700D01*
Y70900D01*
X9700D01*
G37*
G36*
X9800Y43000D02*Y37000D01*
X15800D01*
Y43000D01*
X9800D01*
G37*
G36*
X15200Y163400D02*Y157400D01*
X21200D01*
Y163400D01*
X15200D01*
G37*
G36*
X10200Y140700D02*Y134700D01*
X16200D01*
Y140700D01*
X10200D01*
G37*
G54D28*X17621Y88242D03*
X4821Y84642D03*
X18300Y83400D03*
X4921Y76842D03*
X6500Y65900D03*
X16400Y73600D03*
X4621Y90342D03*
X2900Y26300D03*
X20200Y46500D03*
X16245Y54402D03*
X6500Y46600D03*
X15700D03*
X22000Y14100D03*
X10700Y182100D03*
X6800Y156700D03*
X4100Y217800D03*
X10800Y212800D03*
X4000Y195600D03*
X15300Y197800D03*
X16600Y217500D03*
X10000Y242500D03*
X15500Y248500D03*
X21500Y249500D03*
X12000Y222000D03*
X16000Y225500D03*
X21500Y228000D03*
X11921Y112842D03*
X16521D03*
X18300Y117000D03*
X9000Y125500D03*
X10600Y132000D03*
X19300Y144000D03*
X21300Y139000D03*
X4000Y125500D03*
G54D29*G54D30*G54D31*G54D30*M02*
