G04 start of page 5 for group 3 idx 1 *
G04 Title: (unknown), solder *
G04 Creator: pcb 20110918 *
G04 CreationDate: Sat 22 Mar 2014 07:33:40 PM GMT UTC *
G04 For: railfan *
G04 Format: Gerber/RS-274X *
G04 PCB-Dimensions: 25000 261000 *
G04 PCB-Coordinate-Origin: lower left *
%MOIN*%
%FSLAX25Y25*%
%LNBOTTOM*%
%ADD44C,0.0390*%
%ADD43C,0.0380*%
%ADD42C,0.0200*%
%ADD41C,0.0360*%
%ADD40R,0.0512X0.0512*%
%ADD39C,0.0001*%
%ADD38C,0.0250*%
%ADD37C,0.0100*%
G54D37*X23421Y112442D02*Y125942D01*
X21621Y119742D02*Y113842D01*
X21600Y114900D02*X21621Y114921D01*
X14321Y127042D02*X21621Y119742D01*
X10600Y132000D02*Y130763D01*
X14982Y126382D01*
X23421Y124900D02*Y125979D01*
X22200Y127200D01*
X18000Y131400D02*X22750Y126650D01*
X18000Y140500D02*Y131400D01*
X15300Y197800D02*X19000D01*
X20900Y199700D01*
Y213200D01*
X16600Y217500D01*
G54D38*X10800Y182200D02*X10700Y182100D01*
G54D37*X12000Y222000D02*X5000Y229000D01*
Y254600D01*
X21500Y228000D02*X23000Y226500D01*
X21500Y249500D02*X16800Y254200D01*
X23000Y226500D02*Y140700D01*
X21300Y139000D01*
X19300Y144000D02*Y141800D01*
X18000Y140500D01*
X19021Y97842D02*Y89642D01*
X21600Y47900D02*Y114900D01*
X19700Y76800D02*Y50700D01*
X23421Y113921D02*Y15521D01*
X16521Y100342D02*X19021Y97842D01*
X16521Y112842D02*Y100342D01*
X11021Y111942D02*X11921Y112842D01*
X11021Y86542D02*Y111942D01*
X9121Y84642D02*X11021Y86542D01*
X4821Y84642D02*X9121D01*
X16400Y73600D02*Y78200D01*
X14200Y80400D01*
X18300Y83400D02*Y78200D01*
X14200Y80400D02*Y84821D01*
X19021Y89642D02*X17621Y88242D01*
X14200Y82900D02*Y84821D01*
X17790Y88410D01*
X18400Y17200D02*Y44700D01*
X20050Y46350D01*
X18300Y78200D02*X19700Y76800D01*
Y50600D02*X15700Y46600D01*
X2900Y26300D02*Y23353D01*
X20200Y46500D02*X21600Y47900D01*
X19700Y50800D02*Y50600D01*
X23421Y15521D02*X22000Y14100D01*
X2900Y24500D02*Y10553D01*
X7511Y5942D01*
X19321D02*Y12079D01*
X18400Y13000D01*
Y18621D01*
G54D39*G36*
X9700Y70900D02*Y64900D01*
X15700D01*
Y70900D01*
X9700D01*
G37*
G36*
X9800Y43000D02*Y37000D01*
X15800D01*
Y43000D01*
X9800D01*
G37*
G36*
X15200Y163400D02*Y157400D01*
X21200D01*
Y163400D01*
X15200D01*
G37*
G36*
X10200Y140700D02*Y134700D01*
X16200D01*
Y140700D01*
X10200D01*
G37*
G36*
X2038Y257452D02*Y251548D01*
X7942D01*
Y257452D01*
X2038D01*
G37*
G36*
X9145Y253690D02*Y250190D01*
X12645D01*
Y253690D01*
X9145D01*
G37*
G36*
X13848Y257452D02*Y251548D01*
X19752D01*
Y257452D01*
X13848D01*
G37*
G54D40*X7511Y7123D02*Y4761D01*
X19321Y7123D02*Y4761D01*
G54D41*X17621Y88242D03*
X4821Y84642D03*
X18300Y83400D03*
X4921Y76842D03*
X6500Y65900D03*
X16400Y73600D03*
X4621Y90342D03*
X2900Y26300D03*
X20200Y46500D03*
X16245Y54402D03*
X6500Y46600D03*
X15700D03*
X22000Y14100D03*
X10700Y182100D03*
X6800Y156700D03*
X4100Y217800D03*
X10800Y212800D03*
X4000Y195600D03*
X15300Y197800D03*
X16600Y217500D03*
X10000Y242500D03*
X15500Y248500D03*
X21500Y249500D03*
X12000Y222000D03*
X16000Y225500D03*
X21500Y228000D03*
X11921Y112842D03*
X16521D03*
X18300Y117000D03*
X9000Y125500D03*
X10600Y132000D03*
X19300Y144000D03*
X21300Y139000D03*
X4000Y125500D03*
G54D42*G54D43*G54D44*G54D43*M02*
