G04 start of page 13 for group -4015 idx -4015 *
G04 Title: (unknown), toppaste *
G04 Creator: pcb 20110918 *
G04 CreationDate: Sat 22 Mar 2014 07:33:40 PM GMT UTC *
G04 For: railfan *
G04 Format: Gerber/RS-274X *
G04 PCB-Dimensions: 25000 261000 *
G04 PCB-Coordinate-Origin: lower left *
%MOIN*%
%FSLAX25Y25*%
%LNTOPPASTE*%
%ADD74R,0.0137X0.0137*%
%ADD73R,0.0130X0.0130*%
%ADD72R,0.0510X0.0510*%
%ADD71R,0.0276X0.0276*%
%ADD70C,0.0001*%
%ADD69R,0.0240X0.0240*%
%ADD68R,0.0490X0.0490*%
%ADD67R,0.0512X0.0512*%
%ADD66R,0.0340X0.0340*%
G54D66*X19773Y213600D02*X20373D01*
X19773Y221400D02*X20373D01*
X11573Y217500D02*X12173D01*
G54D67*X3607Y230200D02*X4393D01*
X3607Y223114D02*X4393D01*
G54D68*X5600Y189200D02*Y185600D01*
X15600Y189200D02*Y185600D01*
G54D67*X3734Y212143D02*X4520D01*
X3734Y205057D02*X4520D01*
G54D69*X11400Y198586D02*Y196986D01*
X19200Y198586D02*Y196986D01*
Y206786D02*Y205186D01*
X15300Y206786D02*Y205186D01*
X11400Y206786D02*Y205186D01*
X10700Y177600D02*Y176000D01*
X2900Y177600D02*Y176000D01*
Y169400D02*Y167800D01*
X6800Y169400D02*Y167800D01*
X10700Y169400D02*Y167800D01*
G54D70*G36*
X13857Y257552D02*Y251648D01*
X19762D01*
Y257552D01*
X13857D01*
G37*
G36*
X2048D02*Y251648D01*
X7953D01*
Y257552D01*
X2048D01*
G37*
G36*
X9155Y253790D02*Y250290D01*
X12655D01*
Y253790D01*
X9155D01*
G37*
G54D67*X16807Y170314D02*X17593D01*
X16807Y177400D02*X17593D01*
X3607Y245014D02*X4393D01*
X3607Y237928D02*X4393D01*
G54D68*X14100Y150873D02*Y147273D01*
X4100Y150873D02*Y147273D01*
G54D67*X3528Y38628D02*X4314D01*
X3528Y31542D02*X4314D01*
X3607Y131157D02*X4393D01*
X3607Y138243D02*X4393D01*
X3607Y111557D02*X4393D01*
X3607Y118643D02*X4393D01*
X3607Y58943D02*X4393D01*
X3607Y51857D02*X4393D01*
G54D71*X20379Y50662D02*X21559D01*
X20379Y54402D02*X21559D01*
X20379Y58142D02*X21559D01*
X10931D02*X12111D01*
X10931Y54402D02*X12111D01*
X10931Y50662D02*X12111D01*
G54D72*X17800Y22800D02*Y20000D01*
G54D70*G36*
X9400Y9700D02*Y1900D01*
X17200D01*
Y9700D01*
X9400D01*
G37*
G54D72*X8800Y22800D02*Y20000D01*
G54D67*X12156Y31372D02*Y30586D01*
X19242Y31372D02*Y30586D01*
G54D73*X20938Y129117D02*Y124511D01*
X18379Y129117D02*Y124511D01*
X15821Y129117D02*Y124511D01*
X13262Y129117D02*Y124511D01*
Y105889D02*Y101283D01*
X15821Y105889D02*Y101283D01*
X18379Y105889D02*Y101283D01*
X20938Y105889D02*Y101283D01*
G54D74*X14347Y232660D02*Y231465D01*
X16316Y232660D02*Y231465D01*
X18284Y232660D02*Y231465D01*
X20253Y232660D02*Y231465D01*
Y240335D02*Y239140D01*
X18284Y240335D02*Y239140D01*
X16316Y240335D02*Y239140D01*
X14347Y240335D02*Y239140D01*
M02*
