M48
INCH
T59C0.015
T58C0.014
T57C0.047
T56C0.128
T55C0.030
T54C0.129
%
T58
X003900Y003450
X003900Y003050
X004450Y003350
X005400Y002650
X005400Y002250
X005400Y001850
X005450Y009450
X005450Y009050
X005850Y010650
X005850Y010250
X005850Y009850
X005850Y009450
X005900Y006800
X006250Y009850
X006250Y009450
X006650Y009850
X006650Y009450
X008800Y008500
X009400Y010300
X009900Y011850
X009900Y010300
X010400Y011850
T59
X003700Y004850
X004000Y005500
X005750Y005250
X010150Y006000
X010550Y002050
X010800Y006500
X010950Y006150
X011100Y006800
X012000Y006009
X012350Y006009
T55
X008300Y007350
X008300Y006350
X008300Y005350
X009300Y007850
X009300Y006850
X009300Y005850
T57
X002367Y006944
X002367Y005566
X002367Y004189
X006156Y002217
X007534Y002217
X008911Y002217
T56
X011800Y008600
X011800Y004600
T54
X001700Y010800
X001700Y001700
X013300Y010800
X013350Y001700
M30
