G04 start of page 7 for group -4063 idx -4063 *
G04 Title: (unknown), componentmask *
G04 Creator: pcb 20140316 *
G04 CreationDate: Fri 27 Apr 2018 02:04:58 AM GMT UTC *
G04 For: petersen *
G04 Format: Gerber/RS-274X *
G04 PCB-Dimensions (mil): 1500.00 1250.00 *
G04 PCB-Coordinate-Origin: lower left *
%MOIN*%
%FSLAX25Y25*%
%LNTOPMASK*%
%ADD78R,0.0532X0.0532*%
%ADD77R,0.0296X0.0296*%
%ADD76R,0.0690X0.0690*%
%ADD75R,0.0530X0.0530*%
%ADD74R,0.0300X0.0300*%
%ADD73R,0.0230X0.0230*%
%ADD72R,0.0227X0.0227*%
%ADD71C,0.0370*%
%ADD70R,0.1005X0.1005*%
%ADD69R,0.0438X0.0438*%
%ADD68R,0.0420X0.0420*%
%ADD67R,0.0572X0.0572*%
%ADD66C,0.0490*%
%ADD65C,0.0860*%
%ADD64C,0.0001*%
%ADD63C,0.1500*%
%ADD62C,0.0760*%
%ADD61C,0.2997*%
G54D61*X133500Y17000D03*
G54D62*X83000Y53500D03*
G54D63*X118000Y46000D03*
G54D64*G36*
X57255Y26473D02*Y17873D01*
X65855D01*
Y26473D01*
X57255D01*
G37*
G54D65*X75335Y22173D03*
X89114D03*
G54D61*X133000Y108000D03*
G54D66*X89000Y110500D03*
X109000Y114500D03*
Y106500D03*
G54D63*X118000Y86000D03*
G54D61*X17000Y17000D03*
Y108000D03*
G54D64*G36*
X19373Y73745D02*Y65145D01*
X27973D01*
Y73745D01*
X19373D01*
G37*
G54D65*X23673Y55665D03*
Y41886D03*
G54D62*X93000Y58500D03*
X83000Y63500D03*
Y73500D03*
X93000Y68500D03*
Y78500D03*
G54D67*X63543Y82893D02*Y82107D01*
X67745Y117405D02*X73255D01*
X67745Y105595D02*X73255D01*
X56457Y82893D02*Y82107D01*
G54D68*X20500Y87100D02*Y85900D01*
X33400Y87100D02*Y85900D01*
G54D67*X41457Y93393D02*Y92607D01*
X48543Y93393D02*Y92607D01*
G54D69*X56906Y117984D02*Y113890D01*
X51000Y117984D02*Y106174D01*
G54D70*Y104440D02*Y102550D01*
G54D64*G36*
X52885Y112429D02*X56149Y109165D01*
X54305Y107321D01*
X51041Y110585D01*
X52885Y112429D01*
G37*
G36*
X45851Y109165D02*X49115Y112429D01*
X50959Y110585D01*
X47695Y107321D01*
X45851Y109165D01*
G37*
G54D69*X45094Y117984D02*Y113890D01*
G54D71*X94000Y108000D03*
X99000D03*
X104000D03*
X94000Y113000D03*
X99000D03*
X104000D03*
G54D72*X47425Y52783D02*Y50913D01*
X44276Y52783D02*Y50913D01*
Y46087D02*Y44217D01*
X47425Y46087D02*Y44217D01*
X50575Y46087D02*Y44217D01*
X53724Y52783D02*Y50913D01*
X50575Y52783D02*Y50913D01*
G54D67*X62607Y52543D02*X63393D01*
X71607D02*X72393D01*
G54D72*X53724Y46087D02*Y44217D01*
G54D67*X62607Y45457D02*X63393D01*
X71607D02*X72393D01*
G54D73*X43583Y74838D02*X48189D01*
X43583Y72279D02*X48189D01*
X43583Y69721D02*X48189D01*
X43583Y67162D02*X48189D01*
X66811D02*X71417D01*
X66811Y69721D02*X71417D01*
X66811Y72279D02*X71417D01*
X66811Y74838D02*X71417D01*
G54D74*X46200Y18500D02*X47800D01*
X46200Y22400D02*X47800D01*
X46200Y26300D02*X47800D01*
X38000D02*X39600D01*
X38000Y22400D02*X39600D01*
X38000Y18500D02*X39600D01*
G54D75*X105599Y14450D02*X105600D01*
X113400D02*X113401D01*
G54D76*X109500Y27250D02*X109501D01*
G54D77*X128130Y60094D02*X131870D01*
X128130Y64031D02*X131870D01*
X128130Y67969D02*X131870D01*
X128130Y71906D02*X131870D01*
G54D78*X144075Y54976D02*X146437D01*
X144075Y77024D02*X146437D01*
M02*
