G04 start of page 3 for group 1 idx 1 *
G04 Title: (unknown), bottom *
G04 Creator: pcb 20140316 *
G04 CreationDate: Fri 27 Apr 2018 02:04:58 AM GMT UTC *
G04 For: petersen *
G04 Format: Gerber/RS-274X *
G04 PCB-Dimensions (mil): 1500.00 1250.00 *
G04 PCB-Coordinate-Origin: lower left *
%MOIN*%
%FSLAX25Y25*%
%LNBOTTOM*%
%ADD52C,0.0390*%
%ADD51C,0.0472*%
%ADD50C,0.1280*%
%ADD49C,0.1285*%
%ADD48C,0.0150*%
%ADD47C,0.0140*%
%ADD46C,0.0300*%
%ADD45C,0.0800*%
%ADD44C,0.1440*%
%ADD43C,0.0700*%
%ADD42C,0.2937*%
%ADD41C,0.0200*%
%ADD40C,0.0080*%
%ADD39C,0.0001*%
G54D39*G36*
X95993Y84513D02*X97201Y85721D01*
X97243Y85757D01*
X97386Y85924D01*
X97386Y85925D01*
X97501Y86112D01*
X97586Y86316D01*
X97600Y86376D01*
Y75080D01*
X97420Y74900D01*
X95993D01*
Y75138D01*
X96192Y75308D01*
X96652Y75847D01*
X97022Y76451D01*
X97293Y77105D01*
X97458Y77794D01*
X97500Y78500D01*
X97458Y79206D01*
X97293Y79895D01*
X97022Y80549D01*
X96652Y81153D01*
X96192Y81692D01*
X95993Y81862D01*
Y84513D01*
G37*
G36*
X117987Y14430D02*X118538Y12138D01*
X119482Y9858D01*
X120772Y7753D01*
X122376Y5876D01*
X124253Y4272D01*
X126358Y2982D01*
X128638Y2038D01*
X128795Y2000D01*
X117987D01*
Y14430D01*
G37*
G36*
Y103348D02*X118038Y103138D01*
X118982Y100858D01*
X120272Y98753D01*
X121876Y96876D01*
X123753Y95272D01*
X125858Y93982D01*
X128138Y93038D01*
X130539Y92461D01*
X133000Y92268D01*
X135461Y92461D01*
X137862Y93038D01*
X140142Y93982D01*
X142247Y95272D01*
X144124Y96876D01*
X145728Y98753D01*
X147018Y100858D01*
X147962Y103138D01*
X148000Y103295D01*
Y22978D01*
X147518Y24142D01*
X146228Y26247D01*
X144624Y28124D01*
X142747Y29728D01*
X140642Y31018D01*
X138362Y31962D01*
X135961Y32539D01*
X133500Y32732D01*
X131039Y32539D01*
X128638Y31962D01*
X126358Y31018D01*
X124253Y29728D01*
X122376Y28124D01*
X120772Y26247D01*
X119482Y24142D01*
X118538Y21862D01*
X117987Y19570D01*
Y37776D01*
X118000Y37775D01*
X119287Y37876D01*
X120542Y38177D01*
X121734Y38671D01*
X122835Y39346D01*
X123816Y40184D01*
X124654Y41165D01*
X125329Y42266D01*
X125823Y43458D01*
X126124Y44713D01*
X126200Y46000D01*
X126124Y47287D01*
X125823Y48542D01*
X125329Y49734D01*
X124654Y50835D01*
X123816Y51816D01*
X122835Y52654D01*
X121734Y53329D01*
X120542Y53823D01*
X119287Y54124D01*
X118000Y54225D01*
X117987Y54224D01*
Y77776D01*
X118000Y77775D01*
X119287Y77876D01*
X120542Y78177D01*
X121734Y78671D01*
X122835Y79346D01*
X123816Y80184D01*
X124654Y81165D01*
X125329Y82266D01*
X125823Y83458D01*
X126124Y84713D01*
X126200Y86000D01*
X126124Y87287D01*
X125823Y88542D01*
X125329Y89734D01*
X124654Y90835D01*
X123816Y91816D01*
X122835Y92654D01*
X121734Y93329D01*
X120542Y93823D01*
X119287Y94124D01*
X118000Y94225D01*
X117987Y94224D01*
Y103348D01*
G37*
G36*
Y123000D02*X128295D01*
X128138Y122962D01*
X125858Y122018D01*
X123753Y120728D01*
X121876Y119124D01*
X120272Y117247D01*
X118982Y115142D01*
X118038Y112862D01*
X117987Y112652D01*
Y123000D01*
G37*
G36*
X108995D02*X117987D01*
Y112652D01*
X117461Y110461D01*
X117268Y108000D01*
X117461Y105539D01*
X117987Y103348D01*
Y94224D01*
X116713Y94124D01*
X115458Y93823D01*
X114266Y93329D01*
X113165Y92654D01*
X112184Y91816D01*
X111346Y90835D01*
X110671Y89734D01*
X110177Y88542D01*
X109876Y87287D01*
X109775Y86000D01*
X109876Y84713D01*
X110177Y83458D01*
X110671Y82266D01*
X111346Y81165D01*
X112184Y80184D01*
X113165Y79346D01*
X114266Y78671D01*
X115458Y78177D01*
X116713Y77876D01*
X117987Y77776D01*
Y54224D01*
X116713Y54124D01*
X115458Y53823D01*
X114266Y53329D01*
X113165Y52654D01*
X112184Y51816D01*
X111346Y50835D01*
X110671Y49734D01*
X110177Y48542D01*
X109876Y47287D01*
X109775Y46000D01*
X109876Y44713D01*
X110177Y43458D01*
X110671Y42266D01*
X111346Y41165D01*
X112184Y40184D01*
X113165Y39346D01*
X114266Y38671D01*
X115458Y38177D01*
X116713Y37876D01*
X117987Y37776D01*
Y19570D01*
X117961Y19461D01*
X117768Y17000D01*
X117961Y14539D01*
X117987Y14430D01*
Y2000D01*
X108995D01*
Y58264D01*
X109179Y58377D01*
X109419Y58581D01*
X109470Y58641D01*
X109848Y59020D01*
X109892Y59023D01*
X110275Y59115D01*
X110638Y59266D01*
X110974Y59471D01*
X111273Y59727D01*
X111529Y60026D01*
X111734Y60362D01*
X111885Y60725D01*
X111977Y61108D01*
X112000Y61500D01*
X111977Y61892D01*
X111885Y62275D01*
X111734Y62638D01*
X111529Y62974D01*
X111273Y63273D01*
X110974Y63529D01*
X110638Y63734D01*
X110275Y63885D01*
X110247Y63892D01*
X110385Y64225D01*
X110477Y64608D01*
X110500Y65000D01*
X110477Y65392D01*
X110435Y65565D01*
X110608Y65523D01*
X111000Y65492D01*
X111392Y65523D01*
X111775Y65615D01*
X112138Y65766D01*
X112474Y65971D01*
X112773Y66227D01*
X113029Y66526D01*
X113234Y66862D01*
X113385Y67225D01*
X113477Y67608D01*
X113500Y68000D01*
X113477Y68392D01*
X113385Y68775D01*
X113234Y69138D01*
X113029Y69474D01*
X112773Y69773D01*
X112474Y70029D01*
X112138Y70234D01*
X111775Y70385D01*
X111392Y70477D01*
X111000Y70508D01*
X110608Y70477D01*
X110225Y70385D01*
X109862Y70234D01*
X109526Y70029D01*
X109227Y69773D01*
X108995Y69502D01*
Y103541D01*
X109000Y103541D01*
X109463Y103577D01*
X109914Y103686D01*
X110343Y103863D01*
X110739Y104106D01*
X111092Y104408D01*
X111394Y104761D01*
X111637Y105157D01*
X111814Y105586D01*
X111923Y106037D01*
X111950Y106500D01*
X111923Y106963D01*
X111814Y107414D01*
X111637Y107843D01*
X111394Y108239D01*
X111092Y108592D01*
X110739Y108894D01*
X110343Y109137D01*
X109914Y109314D01*
X109463Y109423D01*
X109000Y109459D01*
X108995Y109459D01*
Y111541D01*
X109000Y111541D01*
X109463Y111577D01*
X109914Y111686D01*
X110343Y111863D01*
X110739Y112106D01*
X111092Y112408D01*
X111394Y112761D01*
X111637Y113157D01*
X111814Y113586D01*
X111923Y114037D01*
X111950Y114500D01*
X111923Y114963D01*
X111814Y115414D01*
X111637Y115843D01*
X111394Y116239D01*
X111092Y116592D01*
X110739Y116894D01*
X110343Y117137D01*
X109914Y117314D01*
X109463Y117423D01*
X109000Y117459D01*
X108995Y117459D01*
Y123000D01*
G37*
G36*
Y2000D02*X95993D01*
Y52507D01*
X96029Y52549D01*
X98951Y55471D01*
X98993Y55507D01*
X99136Y55674D01*
X99136Y55675D01*
X99251Y55862D01*
X99336Y56066D01*
X99387Y56280D01*
X99404Y56500D01*
X99400Y56555D01*
Y58642D01*
X99471Y58526D01*
X99727Y58227D01*
X100026Y57971D01*
X100362Y57766D01*
X100725Y57615D01*
X101108Y57523D01*
X101500Y57492D01*
X101892Y57523D01*
X102275Y57615D01*
X102638Y57766D01*
X102974Y57971D01*
X103008Y58000D01*
X107922D01*
X108000Y57994D01*
X108314Y58019D01*
X108620Y58092D01*
X108911Y58212D01*
X108995Y58264D01*
Y2000D01*
G37*
G36*
X95993Y123000D02*X108995D01*
Y117459D01*
X108537Y117423D01*
X108086Y117314D01*
X107657Y117137D01*
X107261Y116894D01*
X106908Y116592D01*
X106606Y116239D01*
X106363Y115843D01*
X106186Y115414D01*
X106077Y114963D01*
X106041Y114500D01*
X106077Y114037D01*
X106186Y113586D01*
X106363Y113157D01*
X106606Y112761D01*
X106908Y112408D01*
X107261Y112106D01*
X107657Y111863D01*
X108086Y111686D01*
X108537Y111577D01*
X108995Y111541D01*
Y109459D01*
X108537Y109423D01*
X108086Y109314D01*
X107657Y109137D01*
X107261Y108894D01*
X106908Y108592D01*
X106606Y108239D01*
X106363Y107843D01*
X106186Y107414D01*
X106077Y106963D01*
X106041Y106500D01*
X106077Y106037D01*
X106186Y105586D01*
X106363Y105157D01*
X106606Y104761D01*
X106908Y104408D01*
X107261Y104106D01*
X107657Y103863D01*
X108086Y103686D01*
X108537Y103577D01*
X108995Y103541D01*
Y69502D01*
X108971Y69474D01*
X108926Y69400D01*
X102900D01*
Y102000D01*
X102900Y102000D01*
Y104945D01*
X102904Y105000D01*
X102887Y105220D01*
X102836Y105434D01*
X102751Y105638D01*
X102636Y105825D01*
X102636Y105826D01*
X102493Y105993D01*
X102451Y106029D01*
X100400Y108080D01*
Y116426D01*
X100474Y116471D01*
X100773Y116727D01*
X101029Y117026D01*
X101234Y117362D01*
X101385Y117725D01*
X101477Y118108D01*
X101500Y118500D01*
X101477Y118892D01*
X101385Y119275D01*
X101234Y119638D01*
X101029Y119974D01*
X100773Y120273D01*
X100474Y120529D01*
X100138Y120734D01*
X99775Y120885D01*
X99392Y120977D01*
X99000Y121008D01*
X98608Y120977D01*
X98225Y120885D01*
X97862Y120734D01*
X97526Y120529D01*
X97227Y120273D01*
X96971Y119974D01*
X96766Y119638D01*
X96615Y119275D01*
X96523Y118892D01*
X96492Y118500D01*
X96523Y118108D01*
X96615Y117725D01*
X96766Y117362D01*
X96971Y117026D01*
X97227Y116727D01*
X97526Y116471D01*
X97600Y116426D01*
Y107555D01*
X97596Y107500D01*
X97613Y107280D01*
X97664Y107066D01*
X97749Y106862D01*
X97864Y106675D01*
X97864Y106674D01*
X98007Y106507D01*
X98049Y106471D01*
X99013Y105507D01*
X99000Y105508D01*
X98608Y105477D01*
X98225Y105385D01*
X97862Y105234D01*
X97526Y105029D01*
X97227Y104773D01*
X96971Y104474D01*
X96766Y104138D01*
X96615Y103775D01*
X96523Y103392D01*
X96497Y103056D01*
X96477Y103392D01*
X96385Y103775D01*
X96234Y104138D01*
X96029Y104474D01*
X95993Y104516D01*
Y123000D01*
G37*
G36*
Y74900D02*X95714D01*
X95993Y75138D01*
Y74900D01*
G37*
G36*
X89106Y53415D02*X89971Y52549D01*
X90007Y52507D01*
X90174Y52364D01*
X90175Y52364D01*
X90362Y52249D01*
X90566Y52164D01*
X90780Y52113D01*
X91000Y52096D01*
X91055Y52100D01*
X94945D01*
X95000Y52096D01*
X95220Y52113D01*
X95434Y52164D01*
X95638Y52249D01*
X95825Y52364D01*
X95993Y52507D01*
X95993Y52507D01*
Y2000D01*
X89106D01*
Y16657D01*
X89114Y16656D01*
X89977Y16724D01*
X90819Y16926D01*
X91619Y17257D01*
X92357Y17710D01*
X93015Y18272D01*
X93577Y18930D01*
X94030Y19668D01*
X94361Y20468D01*
X94563Y21310D01*
X94614Y22173D01*
X94563Y23036D01*
X94361Y23878D01*
X94030Y24678D01*
X93577Y25416D01*
X93015Y26074D01*
X92357Y26636D01*
X91619Y27089D01*
X90819Y27420D01*
X89977Y27622D01*
X89114Y27690D01*
X89106Y27689D01*
Y53415D01*
G37*
G36*
X83002Y68986D02*X83706Y69042D01*
X84395Y69207D01*
X85049Y69478D01*
X85653Y69848D01*
X86192Y70308D01*
X86600Y70786D01*
Y66018D01*
X86565Y66030D01*
X86487Y66044D01*
X86408Y66045D01*
X86329Y66033D01*
X86254Y66010D01*
X86183Y65975D01*
X86118Y65929D01*
X86061Y65874D01*
X86013Y65811D01*
X85976Y65741D01*
X85951Y65666D01*
X85937Y65588D01*
X85936Y65508D01*
X85948Y65430D01*
X85971Y65354D01*
X86007Y65284D01*
X86157Y65010D01*
X86279Y64723D01*
X86375Y64426D01*
X86444Y64121D01*
X86486Y63812D01*
X86500Y63500D01*
X86486Y63188D01*
X86444Y62879D01*
X86375Y62574D01*
X86279Y62277D01*
X86157Y61990D01*
X86010Y61714D01*
X85974Y61645D01*
X85951Y61569D01*
X85940Y61491D01*
X85941Y61413D01*
X85954Y61335D01*
X85980Y61261D01*
X86016Y61191D01*
X86064Y61128D01*
X86120Y61073D01*
X86184Y61028D01*
X86255Y60993D01*
X86330Y60970D01*
X86408Y60959D01*
X86487Y60960D01*
X86564Y60973D01*
X86600Y60985D01*
Y56555D01*
X86596Y56500D01*
X86613Y56280D01*
X86664Y56066D01*
X86704Y55971D01*
X86640Y56004D01*
X86565Y56030D01*
X86487Y56044D01*
X86408Y56045D01*
X86329Y56033D01*
X86254Y56010D01*
X86183Y55975D01*
X86118Y55929D01*
X86061Y55874D01*
X86013Y55811D01*
X85976Y55741D01*
X85951Y55666D01*
X85937Y55588D01*
X85936Y55508D01*
X85948Y55430D01*
X85971Y55354D01*
X86007Y55284D01*
X86157Y55010D01*
X86279Y54723D01*
X86375Y54426D01*
X86444Y54121D01*
X86486Y53812D01*
X86500Y53500D01*
X86486Y53188D01*
X86444Y52879D01*
X86375Y52574D01*
X86279Y52277D01*
X86157Y51990D01*
X86010Y51714D01*
X85974Y51645D01*
X85951Y51569D01*
X85940Y51491D01*
X85941Y51413D01*
X85954Y51335D01*
X85980Y51261D01*
X86016Y51191D01*
X86064Y51128D01*
X86120Y51073D01*
X86184Y51028D01*
X86255Y50993D01*
X86330Y50970D01*
X86408Y50959D01*
X86487Y50960D01*
X86564Y50973D01*
X86639Y50999D01*
X86708Y51035D01*
X86771Y51083D01*
X86826Y51139D01*
X86870Y51204D01*
X87064Y51556D01*
X87221Y51926D01*
X87344Y52309D01*
X87433Y52700D01*
X87487Y53099D01*
X87504Y53500D01*
X87487Y53901D01*
X87433Y54300D01*
X87344Y54691D01*
X87221Y55074D01*
X87064Y55444D01*
X87049Y55471D01*
X87049Y55471D01*
X89106Y53415D01*
Y27689D01*
X88251Y27622D01*
X87409Y27420D01*
X86609Y27089D01*
X85871Y26636D01*
X85213Y26074D01*
X84651Y25416D01*
X84198Y24678D01*
X83867Y23878D01*
X83665Y23036D01*
X83597Y22173D01*
X83665Y21310D01*
X83867Y20468D01*
X84198Y19668D01*
X84651Y18930D01*
X85213Y18272D01*
X85871Y17710D01*
X86609Y17257D01*
X87409Y16926D01*
X88251Y16724D01*
X89106Y16657D01*
Y2000D01*
X83002D01*
Y48996D01*
X83401Y49013D01*
X83800Y49067D01*
X84191Y49156D01*
X84574Y49279D01*
X84944Y49436D01*
X85298Y49626D01*
X85363Y49671D01*
X85420Y49726D01*
X85468Y49790D01*
X85504Y49860D01*
X85530Y49935D01*
X85544Y50013D01*
X85545Y50092D01*
X85533Y50171D01*
X85510Y50246D01*
X85475Y50317D01*
X85429Y50382D01*
X85374Y50439D01*
X85311Y50487D01*
X85241Y50524D01*
X85166Y50549D01*
X85088Y50563D01*
X85008Y50564D01*
X84930Y50552D01*
X84854Y50529D01*
X84784Y50493D01*
X84510Y50343D01*
X84223Y50221D01*
X83926Y50125D01*
X83621Y50056D01*
X83312Y50014D01*
X83002Y50000D01*
Y57000D01*
X83312Y56986D01*
X83621Y56944D01*
X83926Y56875D01*
X84223Y56779D01*
X84510Y56657D01*
X84786Y56510D01*
X84855Y56474D01*
X84931Y56451D01*
X85009Y56440D01*
X85087Y56441D01*
X85165Y56454D01*
X85239Y56480D01*
X85309Y56516D01*
X85372Y56564D01*
X85427Y56620D01*
X85472Y56684D01*
X85507Y56755D01*
X85530Y56830D01*
X85541Y56908D01*
X85540Y56987D01*
X85527Y57064D01*
X85501Y57139D01*
X85465Y57208D01*
X85417Y57271D01*
X85361Y57326D01*
X85296Y57370D01*
X84944Y57564D01*
X84574Y57721D01*
X84191Y57844D01*
X83800Y57933D01*
X83401Y57987D01*
X83002Y58004D01*
Y58996D01*
X83401Y59013D01*
X83800Y59067D01*
X84191Y59156D01*
X84574Y59279D01*
X84944Y59436D01*
X85298Y59626D01*
X85363Y59671D01*
X85420Y59726D01*
X85468Y59790D01*
X85504Y59860D01*
X85530Y59935D01*
X85544Y60013D01*
X85545Y60092D01*
X85533Y60171D01*
X85510Y60246D01*
X85475Y60317D01*
X85429Y60382D01*
X85374Y60439D01*
X85311Y60487D01*
X85241Y60524D01*
X85166Y60549D01*
X85088Y60563D01*
X85008Y60564D01*
X84930Y60552D01*
X84854Y60529D01*
X84784Y60493D01*
X84510Y60343D01*
X84223Y60221D01*
X83926Y60125D01*
X83621Y60056D01*
X83312Y60014D01*
X83002Y60000D01*
Y67000D01*
X83312Y66986D01*
X83621Y66944D01*
X83926Y66875D01*
X84223Y66779D01*
X84510Y66657D01*
X84786Y66510D01*
X84855Y66474D01*
X84931Y66451D01*
X85009Y66440D01*
X85087Y66441D01*
X85165Y66454D01*
X85239Y66480D01*
X85309Y66516D01*
X85372Y66564D01*
X85427Y66620D01*
X85472Y66684D01*
X85507Y66755D01*
X85530Y66830D01*
X85541Y66908D01*
X85540Y66987D01*
X85527Y67064D01*
X85501Y67139D01*
X85465Y67208D01*
X85417Y67271D01*
X85361Y67326D01*
X85296Y67370D01*
X84944Y67564D01*
X84574Y67721D01*
X84191Y67844D01*
X83800Y67933D01*
X83401Y67987D01*
X83002Y68004D01*
Y68986D01*
G37*
G36*
X88995Y76422D02*X89348Y75847D01*
X89808Y75308D01*
X90286Y74900D01*
X88995D01*
Y76422D01*
G37*
G36*
Y82706D02*X89138Y82766D01*
X89474Y82971D01*
X89773Y83227D01*
X90029Y83526D01*
X90074Y83600D01*
X94445D01*
X94500Y83596D01*
X94720Y83613D01*
X94934Y83664D01*
X95138Y83749D01*
X95325Y83864D01*
X95493Y84007D01*
X95529Y84049D01*
X95993Y84513D01*
Y81862D01*
X95653Y82152D01*
X95049Y82522D01*
X94395Y82793D01*
X93706Y82958D01*
X93000Y83014D01*
X92294Y82958D01*
X91605Y82793D01*
X90951Y82522D01*
X90347Y82152D01*
X89808Y81692D01*
X89348Y81153D01*
X88995Y80578D01*
Y82706D01*
G37*
G36*
Y123000D02*X95993D01*
Y104516D01*
X95773Y104773D01*
X95474Y105029D01*
X95138Y105234D01*
X94775Y105385D01*
X94392Y105477D01*
X94000Y105508D01*
X93608Y105477D01*
X93225Y105385D01*
X92862Y105234D01*
X92526Y105029D01*
X92227Y104773D01*
X91971Y104474D01*
X91766Y104138D01*
X91615Y103775D01*
X91523Y103392D01*
X91492Y103000D01*
X91523Y102608D01*
X91615Y102225D01*
X91766Y101862D01*
X91971Y101526D01*
X92227Y101227D01*
X92526Y100971D01*
X92862Y100766D01*
X93225Y100615D01*
X93608Y100523D01*
X94000Y100492D01*
X94392Y100523D01*
X94477Y100543D01*
X94850Y100170D01*
Y87330D01*
X93920Y86400D01*
X90074D01*
X90029Y86474D01*
X89773Y86773D01*
X89474Y87029D01*
X89138Y87234D01*
X88995Y87294D01*
Y107541D01*
X89000Y107541D01*
X89463Y107577D01*
X89914Y107686D01*
X90343Y107863D01*
X90739Y108106D01*
X91092Y108408D01*
X91394Y108761D01*
X91637Y109157D01*
X91814Y109586D01*
X91923Y110037D01*
X91950Y110500D01*
X91923Y110963D01*
X91814Y111414D01*
X91637Y111843D01*
X91394Y112239D01*
X91092Y112592D01*
X90739Y112894D01*
X90343Y113137D01*
X89914Y113314D01*
X89463Y113423D01*
X89000Y113459D01*
X88995Y113459D01*
Y123000D01*
G37*
G36*
X83002D02*X88995D01*
Y113459D01*
X88537Y113423D01*
X88086Y113314D01*
X87657Y113137D01*
X87261Y112894D01*
X86908Y112592D01*
X86606Y112239D01*
X86363Y111843D01*
X86186Y111414D01*
X86077Y110963D01*
X86041Y110500D01*
X86077Y110037D01*
X86186Y109586D01*
X86363Y109157D01*
X86606Y108761D01*
X86908Y108408D01*
X87261Y108106D01*
X87657Y107863D01*
X88086Y107686D01*
X88537Y107577D01*
X88995Y107541D01*
Y87294D01*
X88775Y87385D01*
X88392Y87477D01*
X88000Y87508D01*
X87608Y87477D01*
X87225Y87385D01*
X86862Y87234D01*
X86526Y87029D01*
X86227Y86773D01*
X85971Y86474D01*
X85766Y86138D01*
X85615Y85775D01*
X85523Y85392D01*
X85492Y85000D01*
X85523Y84608D01*
X85615Y84225D01*
X85766Y83862D01*
X85971Y83526D01*
X86227Y83227D01*
X86526Y82971D01*
X86862Y82766D01*
X87225Y82615D01*
X87608Y82523D01*
X88000Y82492D01*
X88392Y82523D01*
X88775Y82615D01*
X88995Y82706D01*
Y80578D01*
X88978Y80549D01*
X88707Y79895D01*
X88542Y79206D01*
X88486Y78500D01*
X88542Y77794D01*
X88707Y77105D01*
X88978Y76451D01*
X88995Y76422D01*
Y74900D01*
X88055D01*
X88000Y74904D01*
X87945Y74900D01*
X87291D01*
X87022Y75549D01*
X86652Y76153D01*
X86192Y76692D01*
X85653Y77152D01*
X85049Y77522D01*
X84395Y77793D01*
X83706Y77958D01*
X83002Y78014D01*
Y123000D01*
G37*
G36*
X79280Y70959D02*X79348Y70847D01*
X79808Y70308D01*
X80347Y69848D01*
X80951Y69478D01*
X81605Y69207D01*
X82294Y69042D01*
X83000Y68986D01*
X83002Y68986D01*
Y68004D01*
X83000Y68004D01*
X82599Y67987D01*
X82200Y67933D01*
X81809Y67844D01*
X81426Y67721D01*
X81056Y67564D01*
X80702Y67374D01*
X80637Y67329D01*
X80580Y67274D01*
X80532Y67210D01*
X80496Y67140D01*
X80470Y67065D01*
X80456Y66987D01*
X80455Y66908D01*
X80467Y66829D01*
X80490Y66754D01*
X80525Y66683D01*
X80571Y66618D01*
X80626Y66561D01*
X80689Y66513D01*
X80759Y66476D01*
X80834Y66451D01*
X80912Y66437D01*
X80992Y66436D01*
X81070Y66448D01*
X81146Y66471D01*
X81216Y66507D01*
X81490Y66657D01*
X81777Y66779D01*
X82074Y66875D01*
X82379Y66944D01*
X82688Y66986D01*
X83000Y67000D01*
X83002Y67000D01*
Y60000D01*
X83000Y60000D01*
X82688Y60014D01*
X82379Y60056D01*
X82074Y60125D01*
X81777Y60221D01*
X81490Y60343D01*
X81214Y60490D01*
X81145Y60526D01*
X81069Y60549D01*
X80991Y60560D01*
X80913Y60559D01*
X80835Y60546D01*
X80761Y60520D01*
X80691Y60484D01*
X80628Y60436D01*
X80573Y60380D01*
X80528Y60316D01*
X80493Y60245D01*
X80470Y60170D01*
X80459Y60092D01*
X80460Y60013D01*
X80473Y59936D01*
X80499Y59861D01*
X80535Y59792D01*
X80583Y59729D01*
X80639Y59674D01*
X80704Y59630D01*
X81056Y59436D01*
X81426Y59279D01*
X81809Y59156D01*
X82200Y59067D01*
X82599Y59013D01*
X83000Y58996D01*
X83002Y58996D01*
Y58004D01*
X83000Y58004D01*
X82599Y57987D01*
X82200Y57933D01*
X81809Y57844D01*
X81426Y57721D01*
X81056Y57564D01*
X80702Y57374D01*
X80637Y57329D01*
X80580Y57274D01*
X80532Y57210D01*
X80496Y57140D01*
X80470Y57065D01*
X80456Y56987D01*
X80455Y56908D01*
X80467Y56829D01*
X80490Y56754D01*
X80525Y56683D01*
X80571Y56618D01*
X80626Y56561D01*
X80689Y56513D01*
X80759Y56476D01*
X80834Y56451D01*
X80912Y56437D01*
X80992Y56436D01*
X81070Y56448D01*
X81146Y56471D01*
X81216Y56507D01*
X81490Y56657D01*
X81777Y56779D01*
X82074Y56875D01*
X82379Y56944D01*
X82688Y56986D01*
X83000Y57000D01*
X83002Y57000D01*
Y50000D01*
X83000Y50000D01*
X82688Y50014D01*
X82379Y50056D01*
X82074Y50125D01*
X81777Y50221D01*
X81490Y50343D01*
X81214Y50490D01*
X81145Y50526D01*
X81069Y50549D01*
X80991Y50560D01*
X80913Y50559D01*
X80835Y50546D01*
X80761Y50520D01*
X80691Y50484D01*
X80628Y50436D01*
X80573Y50380D01*
X80528Y50316D01*
X80493Y50245D01*
X80470Y50170D01*
X80459Y50092D01*
X80460Y50013D01*
X80473Y49936D01*
X80499Y49861D01*
X80535Y49792D01*
X80583Y49729D01*
X80639Y49674D01*
X80704Y49630D01*
X81056Y49436D01*
X81426Y49279D01*
X81809Y49156D01*
X82200Y49067D01*
X82599Y49013D01*
X83000Y48996D01*
X83002Y48996D01*
Y2000D01*
X79280D01*
Y18323D01*
X79798Y18930D01*
X80251Y19668D01*
X80582Y20468D01*
X80784Y21310D01*
X80835Y22173D01*
X80784Y23036D01*
X80582Y23878D01*
X80251Y24678D01*
X79798Y25416D01*
X79280Y26023D01*
Y51040D01*
X79290Y51032D01*
X79360Y50996D01*
X79435Y50970D01*
X79513Y50956D01*
X79592Y50955D01*
X79671Y50967D01*
X79746Y50990D01*
X79817Y51025D01*
X79882Y51071D01*
X79939Y51126D01*
X79987Y51189D01*
X80024Y51259D01*
X80049Y51334D01*
X80063Y51412D01*
X80064Y51492D01*
X80052Y51570D01*
X80029Y51646D01*
X79993Y51716D01*
X79843Y51990D01*
X79721Y52277D01*
X79625Y52574D01*
X79556Y52879D01*
X79514Y53188D01*
X79500Y53500D01*
X79514Y53812D01*
X79556Y54121D01*
X79625Y54426D01*
X79721Y54723D01*
X79843Y55010D01*
X79990Y55286D01*
X80026Y55355D01*
X80049Y55431D01*
X80060Y55509D01*
X80059Y55587D01*
X80046Y55665D01*
X80020Y55739D01*
X79984Y55809D01*
X79936Y55872D01*
X79880Y55927D01*
X79816Y55972D01*
X79745Y56007D01*
X79670Y56030D01*
X79592Y56041D01*
X79513Y56040D01*
X79436Y56027D01*
X79361Y56001D01*
X79292Y55965D01*
X79280Y55956D01*
Y61040D01*
X79290Y61032D01*
X79360Y60996D01*
X79435Y60970D01*
X79513Y60956D01*
X79592Y60955D01*
X79671Y60967D01*
X79746Y60990D01*
X79817Y61025D01*
X79882Y61071D01*
X79939Y61126D01*
X79987Y61189D01*
X80024Y61259D01*
X80049Y61334D01*
X80063Y61412D01*
X80064Y61492D01*
X80052Y61570D01*
X80029Y61646D01*
X79993Y61716D01*
X79843Y61990D01*
X79721Y62277D01*
X79625Y62574D01*
X79556Y62879D01*
X79514Y63188D01*
X79500Y63500D01*
X79514Y63812D01*
X79556Y64121D01*
X79625Y64426D01*
X79721Y64723D01*
X79843Y65010D01*
X79990Y65286D01*
X80026Y65355D01*
X80049Y65431D01*
X80060Y65509D01*
X80059Y65587D01*
X80046Y65665D01*
X80020Y65739D01*
X79984Y65809D01*
X79936Y65872D01*
X79880Y65927D01*
X79816Y65972D01*
X79745Y66007D01*
X79670Y66030D01*
X79592Y66041D01*
X79513Y66040D01*
X79436Y66027D01*
X79361Y66001D01*
X79292Y65965D01*
X79280Y65956D01*
Y70959D01*
G37*
G36*
Y123000D02*X83002D01*
Y78014D01*
X83000Y78014D01*
X82294Y77958D01*
X81605Y77793D01*
X80951Y77522D01*
X80347Y77152D01*
X79808Y76692D01*
X79348Y76153D01*
X79280Y76041D01*
Y123000D01*
G37*
G36*
X66305D02*X79280D01*
Y76041D01*
X78978Y75549D01*
X78707Y74895D01*
X78542Y74206D01*
X78486Y73500D01*
X78542Y72794D01*
X78707Y72105D01*
X78978Y71451D01*
X79280Y70959D01*
Y65956D01*
X79229Y65917D01*
X79174Y65861D01*
X79130Y65796D01*
X78936Y65444D01*
X78779Y65074D01*
X78656Y64691D01*
X78567Y64300D01*
X78513Y63901D01*
X78496Y63500D01*
X78513Y63099D01*
X78567Y62700D01*
X78656Y62309D01*
X78779Y61926D01*
X78936Y61556D01*
X79126Y61202D01*
X79171Y61137D01*
X79226Y61080D01*
X79280Y61040D01*
Y55956D01*
X79229Y55917D01*
X79174Y55861D01*
X79130Y55796D01*
X78936Y55444D01*
X78779Y55074D01*
X78656Y54691D01*
X78567Y54300D01*
X78513Y53901D01*
X78496Y53500D01*
X78513Y53099D01*
X78567Y52700D01*
X78656Y52309D01*
X78779Y51926D01*
X78936Y51556D01*
X79126Y51202D01*
X79171Y51137D01*
X79226Y51080D01*
X79280Y51040D01*
Y26023D01*
X79236Y26074D01*
X78578Y26636D01*
X77840Y27089D01*
X77040Y27420D01*
X76198Y27622D01*
X75335Y27690D01*
X74472Y27622D01*
X73630Y27420D01*
X72830Y27089D01*
X72092Y26636D01*
X71434Y26074D01*
X70872Y25416D01*
X70419Y24678D01*
X70088Y23878D01*
X69886Y23036D01*
X69818Y22173D01*
X69886Y21310D01*
X70088Y20468D01*
X70419Y19668D01*
X70872Y18930D01*
X71434Y18272D01*
X72092Y17710D01*
X72830Y17257D01*
X73630Y16926D01*
X74472Y16724D01*
X75335Y16656D01*
X76198Y16724D01*
X77040Y16926D01*
X77840Y17257D01*
X78578Y17710D01*
X79236Y18272D01*
X79280Y18323D01*
Y2000D01*
X66305D01*
Y18921D01*
X66423Y18930D01*
X66537Y18958D01*
X66647Y19003D01*
X66747Y19064D01*
X66837Y19141D01*
X66914Y19231D01*
X66975Y19331D01*
X67020Y19441D01*
X67048Y19555D01*
X67055Y19673D01*
Y24673D01*
X67048Y24791D01*
X67020Y24905D01*
X66975Y25015D01*
X66914Y25115D01*
X66837Y25205D01*
X66747Y25282D01*
X66647Y25343D01*
X66537Y25388D01*
X66423Y25416D01*
X66305Y25425D01*
Y123000D01*
G37*
G36*
X61555D02*X66305D01*
Y25425D01*
X66187Y25416D01*
X66073Y25388D01*
X65963Y25343D01*
X65863Y25282D01*
X65773Y25205D01*
X65696Y25115D01*
X65635Y25015D01*
X65590Y24905D01*
X65562Y24791D01*
X65555Y24673D01*
Y19673D01*
X65562Y19555D01*
X65590Y19441D01*
X65635Y19331D01*
X65696Y19231D01*
X65773Y19141D01*
X65863Y19064D01*
X65963Y19003D01*
X66073Y18958D01*
X66187Y18930D01*
X66305Y18921D01*
Y2000D01*
X61555D01*
Y16673D01*
X64055D01*
X64173Y16680D01*
X64287Y16708D01*
X64397Y16753D01*
X64497Y16814D01*
X64587Y16891D01*
X64664Y16981D01*
X64725Y17081D01*
X64770Y17191D01*
X64798Y17305D01*
X64807Y17423D01*
X64798Y17541D01*
X64770Y17655D01*
X64725Y17765D01*
X64664Y17865D01*
X64587Y17955D01*
X64497Y18032D01*
X64397Y18093D01*
X64287Y18138D01*
X64173Y18166D01*
X64055Y18173D01*
X61555D01*
Y26173D01*
X64055D01*
X64173Y26180D01*
X64287Y26208D01*
X64397Y26253D01*
X64497Y26314D01*
X64587Y26391D01*
X64664Y26481D01*
X64725Y26581D01*
X64770Y26691D01*
X64798Y26805D01*
X64807Y26923D01*
X64798Y27041D01*
X64770Y27155D01*
X64725Y27265D01*
X64664Y27365D01*
X64587Y27455D01*
X64497Y27532D01*
X64397Y27593D01*
X64287Y27638D01*
X64173Y27666D01*
X64055Y27673D01*
X61555D01*
Y123000D01*
G37*
G36*
X56805D02*X61555D01*
Y27673D01*
X59055D01*
X58937Y27666D01*
X58823Y27638D01*
X58713Y27593D01*
X58613Y27532D01*
X58523Y27455D01*
X58446Y27365D01*
X58385Y27265D01*
X58340Y27155D01*
X58312Y27041D01*
X58303Y26923D01*
X58312Y26805D01*
X58340Y26691D01*
X58385Y26581D01*
X58446Y26481D01*
X58523Y26391D01*
X58613Y26314D01*
X58713Y26253D01*
X58823Y26208D01*
X58937Y26180D01*
X59055Y26173D01*
X61555D01*
Y18173D01*
X59055D01*
X58937Y18166D01*
X58823Y18138D01*
X58713Y18093D01*
X58613Y18032D01*
X58523Y17955D01*
X58446Y17865D01*
X58385Y17765D01*
X58340Y17655D01*
X58312Y17541D01*
X58303Y17423D01*
X58312Y17305D01*
X58340Y17191D01*
X58385Y17081D01*
X58446Y16981D01*
X58523Y16891D01*
X58613Y16814D01*
X58713Y16753D01*
X58823Y16708D01*
X58937Y16680D01*
X59055Y16673D01*
X61555D01*
Y2000D01*
X56805D01*
Y18921D01*
X56923Y18930D01*
X57037Y18958D01*
X57147Y19003D01*
X57247Y19064D01*
X57337Y19141D01*
X57414Y19231D01*
X57475Y19331D01*
X57520Y19441D01*
X57548Y19555D01*
X57555Y19673D01*
Y24673D01*
X57548Y24791D01*
X57520Y24905D01*
X57475Y25015D01*
X57414Y25115D01*
X57337Y25205D01*
X57247Y25282D01*
X57147Y25343D01*
X57037Y25388D01*
X56923Y25416D01*
X56805Y25425D01*
Y50096D01*
X57108Y50023D01*
X57500Y49992D01*
X57892Y50023D01*
X58275Y50115D01*
X58638Y50266D01*
X58974Y50471D01*
X59273Y50727D01*
X59529Y51026D01*
X59734Y51362D01*
X59885Y51725D01*
X59977Y52108D01*
X60000Y52500D01*
X59977Y52892D01*
X59885Y53275D01*
X59734Y53638D01*
X59529Y53974D01*
X59273Y54273D01*
X58974Y54529D01*
X58638Y54734D01*
X58275Y54885D01*
X58038Y54942D01*
X57029Y55951D01*
X56993Y55993D01*
X56826Y56136D01*
X56825Y56136D01*
X56805Y56149D01*
Y66600D01*
X56926D01*
X56971Y66526D01*
X57227Y66227D01*
X57526Y65971D01*
X57862Y65766D01*
X58225Y65615D01*
X58608Y65523D01*
X59000Y65492D01*
X59392Y65523D01*
X59775Y65615D01*
X60138Y65766D01*
X60474Y65971D01*
X60773Y66227D01*
X61029Y66526D01*
X61234Y66862D01*
X61385Y67225D01*
X61477Y67608D01*
X61500Y68000D01*
X61477Y68392D01*
X61385Y68775D01*
X61234Y69138D01*
X61029Y69474D01*
X60773Y69773D01*
X60474Y70029D01*
X60138Y70234D01*
X59775Y70385D01*
X59392Y70477D01*
X59000Y70508D01*
X58608Y70477D01*
X58225Y70385D01*
X57862Y70234D01*
X57526Y70029D01*
X57227Y69773D01*
X56971Y69474D01*
X56926Y69400D01*
X56805D01*
Y123000D01*
G37*
G36*
Y56149D02*X56638Y56251D01*
X56434Y56336D01*
X56220Y56387D01*
X56000Y56404D01*
X55945Y56400D01*
X42074D01*
X42029Y56474D01*
X41773Y56773D01*
X41474Y57029D01*
X41138Y57234D01*
X40775Y57385D01*
X40392Y57477D01*
X40000Y57508D01*
X39828Y57494D01*
Y66600D01*
X56805D01*
Y56149D01*
G37*
G36*
Y2000D02*X39828D01*
Y39692D01*
X43100Y36420D01*
Y35574D01*
X43026Y35529D01*
X42727Y35273D01*
X42471Y34974D01*
X42266Y34638D01*
X42115Y34275D01*
X42023Y33892D01*
X41992Y33500D01*
X42023Y33108D01*
X42115Y32725D01*
X42266Y32362D01*
X42471Y32026D01*
X42727Y31727D01*
X43026Y31471D01*
X43362Y31266D01*
X43725Y31115D01*
X44108Y31023D01*
X44500Y30992D01*
X44892Y31023D01*
X45275Y31115D01*
X45638Y31266D01*
X45974Y31471D01*
X46273Y31727D01*
X46529Y32026D01*
X46734Y32362D01*
X46885Y32725D01*
X46977Y33108D01*
X47000Y33500D01*
X46977Y33892D01*
X46885Y34275D01*
X46734Y34638D01*
X46529Y34974D01*
X46273Y35273D01*
X45974Y35529D01*
X45900Y35574D01*
Y36945D01*
X45904Y37000D01*
X45887Y37220D01*
X45836Y37434D01*
X45751Y37638D01*
X45636Y37825D01*
X45493Y37993D01*
X45451Y38029D01*
X41400Y42080D01*
Y49945D01*
X41404Y50000D01*
X41387Y50220D01*
X41336Y50434D01*
X41251Y50638D01*
X41136Y50825D01*
X41136Y50826D01*
X40993Y50993D01*
X40951Y51029D01*
X39828Y52152D01*
Y52506D01*
X40000Y52492D01*
X40392Y52523D01*
X40775Y52615D01*
X41138Y52766D01*
X41474Y52971D01*
X41773Y53227D01*
X42029Y53526D01*
X42074Y53600D01*
X55250D01*
X55115Y53275D01*
X55023Y52892D01*
X54992Y52500D01*
X55023Y52108D01*
X55115Y51725D01*
X55266Y51362D01*
X55471Y51026D01*
X55727Y50727D01*
X56026Y50471D01*
X56362Y50266D01*
X56725Y50115D01*
X56805Y50096D01*
Y25425D01*
X56687Y25416D01*
X56573Y25388D01*
X56463Y25343D01*
X56363Y25282D01*
X56273Y25205D01*
X56196Y25115D01*
X56135Y25015D01*
X56090Y24905D01*
X56062Y24791D01*
X56055Y24673D01*
Y19673D01*
X56062Y19555D01*
X56090Y19441D01*
X56135Y19331D01*
X56196Y19231D01*
X56273Y19141D01*
X56363Y19064D01*
X56463Y19003D01*
X56573Y18958D01*
X56687Y18930D01*
X56805Y18921D01*
Y2000D01*
G37*
G36*
X39828Y123000D02*X56805D01*
Y69400D01*
X39828D01*
Y123000D01*
G37*
G36*
Y57494D02*X39608Y57477D01*
X39225Y57385D01*
X38862Y57234D01*
X38526Y57029D01*
X38400Y56921D01*
Y65420D01*
X39580Y66600D01*
X39828D01*
Y57494D01*
G37*
G36*
Y52152D02*X39409Y52571D01*
X39608Y52523D01*
X39828Y52506D01*
Y52152D01*
G37*
G36*
X23673Y36369D02*X24536Y36437D01*
X25378Y36639D01*
X26178Y36970D01*
X26916Y37423D01*
X27574Y37985D01*
X28136Y38643D01*
X28589Y39381D01*
X28920Y40181D01*
X28993Y40486D01*
X34831D01*
X34886Y40482D01*
X35105Y40499D01*
X35106Y40499D01*
X35320Y40550D01*
X35524Y40635D01*
X35524Y40635D01*
X35524Y40635D01*
X35540Y40645D01*
X35711Y40750D01*
X35879Y40893D01*
X35915Y40935D01*
X37440Y42460D01*
X37496Y42474D01*
X37729Y42570D01*
X37943Y42702D01*
X38135Y42865D01*
X38298Y43057D01*
X38430Y43271D01*
X38526Y43504D01*
X38585Y43749D01*
X38600Y44000D01*
Y46579D01*
X38600Y46579D01*
Y41555D01*
X38596Y41500D01*
X38613Y41280D01*
X38664Y41066D01*
X38749Y40862D01*
X38864Y40675D01*
X38864Y40674D01*
X39007Y40507D01*
X39049Y40471D01*
X39828Y39692D01*
Y2000D01*
X23673D01*
Y2788D01*
X24142Y2982D01*
X26247Y4272D01*
X28124Y5876D01*
X29728Y7753D01*
X31018Y9858D01*
X31962Y12138D01*
X32539Y14539D01*
X32684Y17000D01*
X32539Y19461D01*
X31962Y21862D01*
X31018Y24142D01*
X29728Y26247D01*
X28124Y28124D01*
X26247Y29728D01*
X24142Y31018D01*
X23673Y31212D01*
Y36369D01*
G37*
G36*
X28166Y123000D02*X39828D01*
Y69400D01*
X39055D01*
X39000Y69404D01*
X38780Y69387D01*
X38566Y69336D01*
X38362Y69251D01*
X38175Y69136D01*
X38174Y69136D01*
X38007Y68993D01*
X37971Y68951D01*
X36049Y67029D01*
X36007Y66993D01*
X35864Y66825D01*
X35749Y66638D01*
X35664Y66434D01*
X35613Y66220D01*
X35596Y66000D01*
X35600Y65945D01*
Y53055D01*
X35596Y53000D01*
X35613Y52780D01*
X35664Y52566D01*
X35749Y52362D01*
X35864Y52175D01*
X35864Y52174D01*
X36007Y52007D01*
X36049Y51971D01*
X37013Y51007D01*
X37000Y51008D01*
X36608Y50977D01*
X36225Y50885D01*
X35862Y50734D01*
X35526Y50529D01*
X35227Y50273D01*
X34971Y49974D01*
X34766Y49638D01*
X34615Y49275D01*
X34523Y48892D01*
X34492Y48500D01*
X34523Y48108D01*
X34615Y47725D01*
X34766Y47362D01*
X34971Y47026D01*
X35227Y46727D01*
X35400Y46579D01*
Y44380D01*
X34306Y43286D01*
X28993D01*
X28920Y43591D01*
X28589Y44391D01*
X28166Y45081D01*
Y52810D01*
X28251Y52846D01*
X28352Y52908D01*
X28442Y52984D01*
X28518Y53074D01*
X28578Y53176D01*
X28795Y53645D01*
X28962Y54134D01*
X29082Y54637D01*
X29155Y55149D01*
X29179Y55665D01*
X29155Y56181D01*
X29082Y56693D01*
X28962Y57196D01*
X28795Y57685D01*
X28583Y58157D01*
X28522Y58258D01*
X28445Y58349D01*
X28355Y58426D01*
X28253Y58488D01*
X28166Y58525D01*
Y64025D01*
X28356Y64104D01*
X28557Y64228D01*
X28737Y64381D01*
X28890Y64561D01*
X29014Y64762D01*
X29104Y64980D01*
X29159Y65210D01*
X29173Y65445D01*
X29159Y73680D01*
X29104Y73910D01*
X29014Y74128D01*
X28890Y74329D01*
X28737Y74509D01*
X28557Y74662D01*
X28356Y74786D01*
X28166Y74865D01*
Y96924D01*
X29728Y98753D01*
X31018Y100858D01*
X31962Y103138D01*
X32539Y105539D01*
X32684Y108000D01*
X32539Y110461D01*
X31962Y112862D01*
X31018Y115142D01*
X29728Y117247D01*
X28166Y119076D01*
Y123000D01*
G37*
G36*
Y74865D02*X28138Y74876D01*
X27908Y74931D01*
X27673Y74945D01*
X23673Y74938D01*
Y93788D01*
X24142Y93982D01*
X26247Y95272D01*
X28124Y96876D01*
X28166Y96924D01*
Y74865D01*
G37*
G36*
Y45081D02*X28136Y45129D01*
X27574Y45787D01*
X26916Y46349D01*
X26178Y46802D01*
X25378Y47133D01*
X24536Y47335D01*
X23673Y47403D01*
Y50159D01*
X24189Y50183D01*
X24701Y50256D01*
X25204Y50376D01*
X25693Y50543D01*
X26165Y50755D01*
X26266Y50816D01*
X26357Y50893D01*
X26434Y50983D01*
X26496Y51085D01*
X26542Y51194D01*
X26570Y51310D01*
X26579Y51428D01*
X26570Y51546D01*
X26543Y51662D01*
X26497Y51772D01*
X26435Y51873D01*
X26359Y51963D01*
X26268Y52041D01*
X26167Y52103D01*
X26058Y52149D01*
X25942Y52176D01*
X25824Y52186D01*
X25705Y52177D01*
X25590Y52149D01*
X25481Y52102D01*
X25141Y51944D01*
X24785Y51823D01*
X24420Y51735D01*
X24048Y51683D01*
X23673Y51665D01*
Y59665D01*
X24048Y59647D01*
X24420Y59595D01*
X24785Y59507D01*
X25141Y59386D01*
X25483Y59232D01*
X25591Y59185D01*
X25706Y59158D01*
X25824Y59148D01*
X25941Y59158D01*
X26056Y59186D01*
X26165Y59231D01*
X26266Y59293D01*
X26355Y59370D01*
X26432Y59460D01*
X26493Y59560D01*
X26538Y59669D01*
X26566Y59784D01*
X26575Y59902D01*
X26565Y60020D01*
X26538Y60134D01*
X26492Y60243D01*
X26430Y60344D01*
X26354Y60434D01*
X26264Y60510D01*
X26162Y60570D01*
X25693Y60787D01*
X25204Y60954D01*
X24701Y61074D01*
X24189Y61147D01*
X23673Y61171D01*
Y63952D01*
X27908Y63959D01*
X28138Y64014D01*
X28166Y64025D01*
Y58525D01*
X28144Y58534D01*
X28028Y58562D01*
X27910Y58571D01*
X27792Y58562D01*
X27676Y58535D01*
X27566Y58489D01*
X27465Y58427D01*
X27375Y58351D01*
X27297Y58260D01*
X27235Y58159D01*
X27189Y58050D01*
X27162Y57934D01*
X27152Y57816D01*
X27161Y57697D01*
X27189Y57582D01*
X27236Y57473D01*
X27394Y57133D01*
X27515Y56777D01*
X27603Y56412D01*
X27655Y56040D01*
X27673Y55665D01*
X27655Y55290D01*
X27603Y54918D01*
X27515Y54553D01*
X27394Y54197D01*
X27240Y53855D01*
X27193Y53747D01*
X27166Y53632D01*
X27156Y53514D01*
X27166Y53397D01*
X27194Y53282D01*
X27239Y53173D01*
X27301Y53072D01*
X27378Y52983D01*
X27468Y52906D01*
X27568Y52845D01*
X27677Y52800D01*
X27792Y52772D01*
X27910Y52763D01*
X28028Y52773D01*
X28142Y52800D01*
X28166Y52810D01*
Y45081D01*
G37*
G36*
X23673Y123000D02*X28166D01*
Y119076D01*
X28124Y119124D01*
X26247Y120728D01*
X24142Y122018D01*
X23673Y122212D01*
Y123000D01*
G37*
G36*
Y2000D02*X21705D01*
X21862Y2038D01*
X23673Y2788D01*
Y2000D01*
G37*
G36*
X19180Y92439D02*X19461Y92461D01*
X21862Y93038D01*
X23673Y93788D01*
Y74938D01*
X19438Y74931D01*
X19208Y74876D01*
X19180Y74865D01*
Y92439D01*
G37*
G36*
Y38691D02*X19210Y38643D01*
X19772Y37985D01*
X20430Y37423D01*
X21168Y36970D01*
X21968Y36639D01*
X22810Y36437D01*
X23673Y36369D01*
Y31212D01*
X21862Y31962D01*
X19461Y32539D01*
X19180Y32561D01*
Y38691D01*
G37*
G36*
X23673Y47403D02*X22810Y47335D01*
X21968Y47133D01*
X21168Y46802D01*
X20430Y46349D01*
X19772Y45787D01*
X19210Y45129D01*
X19180Y45081D01*
Y52805D01*
X19202Y52796D01*
X19318Y52768D01*
X19436Y52759D01*
X19554Y52768D01*
X19670Y52795D01*
X19780Y52841D01*
X19881Y52903D01*
X19971Y52979D01*
X20049Y53070D01*
X20111Y53171D01*
X20157Y53280D01*
X20184Y53396D01*
X20194Y53514D01*
X20185Y53633D01*
X20157Y53748D01*
X20110Y53857D01*
X19952Y54197D01*
X19831Y54553D01*
X19743Y54918D01*
X19691Y55290D01*
X19673Y55665D01*
X19691Y56040D01*
X19743Y56412D01*
X19831Y56777D01*
X19952Y57133D01*
X20106Y57475D01*
X20153Y57583D01*
X20180Y57698D01*
X20190Y57816D01*
X20180Y57933D01*
X20152Y58048D01*
X20107Y58157D01*
X20045Y58258D01*
X19968Y58347D01*
X19878Y58424D01*
X19778Y58485D01*
X19669Y58530D01*
X19554Y58558D01*
X19436Y58567D01*
X19318Y58557D01*
X19204Y58530D01*
X19180Y58520D01*
Y64025D01*
X19208Y64014D01*
X19438Y63959D01*
X19673Y63945D01*
X23673Y63952D01*
Y61171D01*
X23673D01*
X23157Y61147D01*
X22645Y61074D01*
X22142Y60954D01*
X21653Y60787D01*
X21181Y60575D01*
X21080Y60514D01*
X20989Y60437D01*
X20912Y60347D01*
X20850Y60245D01*
X20804Y60136D01*
X20776Y60020D01*
X20767Y59902D01*
X20776Y59784D01*
X20803Y59668D01*
X20849Y59558D01*
X20911Y59457D01*
X20987Y59367D01*
X21078Y59289D01*
X21179Y59227D01*
X21288Y59181D01*
X21404Y59154D01*
X21522Y59144D01*
X21641Y59153D01*
X21756Y59181D01*
X21865Y59228D01*
X22205Y59386D01*
X22561Y59507D01*
X22926Y59595D01*
X23298Y59647D01*
X23673Y59665D01*
Y51665D01*
X23298Y51683D01*
X22926Y51735D01*
X22561Y51823D01*
X22205Y51944D01*
X21863Y52098D01*
X21755Y52145D01*
X21640Y52172D01*
X21522Y52182D01*
X21405Y52172D01*
X21290Y52144D01*
X21181Y52099D01*
X21080Y52037D01*
X20991Y51960D01*
X20914Y51870D01*
X20853Y51770D01*
X20808Y51661D01*
X20780Y51546D01*
X20771Y51428D01*
X20781Y51310D01*
X20808Y51196D01*
X20854Y51087D01*
X20916Y50986D01*
X20992Y50896D01*
X21082Y50820D01*
X21184Y50760D01*
X21653Y50543D01*
X22142Y50376D01*
X22645Y50256D01*
X23157Y50183D01*
X23673Y50159D01*
X23673D01*
Y47403D01*
G37*
G36*
X19180Y45081D02*X18757Y44391D01*
X18426Y43591D01*
X18224Y42749D01*
X18156Y41886D01*
X18224Y41023D01*
X18426Y40181D01*
X18757Y39381D01*
X19180Y38691D01*
Y32561D01*
X17000Y32732D01*
X14539Y32539D01*
X12138Y31962D01*
X9858Y31018D01*
X7753Y29728D01*
X5876Y28124D01*
X4272Y26247D01*
X2982Y24142D01*
X2038Y21862D01*
X2000Y21705D01*
Y103295D01*
X2038Y103138D01*
X2982Y100858D01*
X4272Y98753D01*
X5876Y96876D01*
X7753Y95272D01*
X9858Y93982D01*
X12138Y93038D01*
X14539Y92461D01*
X17000Y92268D01*
X19180Y92439D01*
Y74865D01*
X18990Y74786D01*
X18789Y74662D01*
X18609Y74509D01*
X18456Y74329D01*
X18332Y74128D01*
X18242Y73910D01*
X18187Y73680D01*
X18173Y73445D01*
X18187Y65210D01*
X18242Y64980D01*
X18332Y64762D01*
X18456Y64561D01*
X18609Y64381D01*
X18789Y64228D01*
X18990Y64104D01*
X19180Y64025D01*
Y58520D01*
X19095Y58484D01*
X18994Y58422D01*
X18904Y58346D01*
X18828Y58256D01*
X18768Y58154D01*
X18551Y57685D01*
X18384Y57196D01*
X18264Y56693D01*
X18191Y56181D01*
X18167Y55665D01*
X18191Y55149D01*
X18264Y54637D01*
X18384Y54134D01*
X18551Y53645D01*
X18763Y53173D01*
X18824Y53072D01*
X18901Y52981D01*
X18991Y52904D01*
X19093Y52842D01*
X19180Y52805D01*
Y45081D01*
G37*
G36*
X21705Y123000D02*X23673D01*
Y122212D01*
X21862Y122962D01*
X21705Y123000D01*
G37*
G54D40*X99000Y118500D02*Y107500D01*
X101500Y105000D01*
Y100500D01*
X94000Y103000D02*X96000Y101000D01*
X96250Y100750D02*X95250Y101750D01*
X83000Y73500D02*X98000D01*
X99000Y74500D01*
X88000Y85000D02*X94500D01*
X100500Y66000D02*X93000Y58500D01*
X88000Y73500D02*Y56500D01*
X91000Y53500D01*
X95000D01*
X98000Y56500D01*
Y60500D01*
X99000Y74500D02*Y103000D01*
X96000Y86500D02*X94500Y85000D01*
X95500Y86000D02*X96250Y86750D01*
Y100750D01*
X101500Y102000D02*Y67000D01*
X99250Y64750D01*
X98000Y60500D02*X102500Y65000D01*
X101500Y68000D02*X111000D01*
X102500Y65000D02*X108000D01*
G54D41*Y60000D02*X109500Y61500D01*
X101500Y60000D02*X108000D01*
G54D40*X23673Y41886D02*X33886D01*
X37000Y48500D02*Y44000D01*
X35000Y42000D01*
X32386Y41886D02*X34886D01*
X36500Y43500D01*
X40000Y41500D02*X44500Y37000D01*
Y33500D02*Y37000D01*
X43500Y38000D01*
X40000Y41500D02*X42250Y39250D01*
X59000Y68000D02*X39000D01*
X37000Y66000D01*
Y53000D01*
X40000Y50000D01*
Y41500D01*
Y55000D02*X56000D01*
X57500Y52500D02*Y53500D01*
X56000Y55000D01*
X54000D01*
G54D42*X133500Y17000D03*
G54D43*X83000Y53500D03*
G54D44*X118000Y46000D03*
G54D39*G36*
X57555Y26173D02*Y18173D01*
X65555D01*
Y26173D01*
X57555D01*
G37*
G54D45*X75335Y22173D03*
X89114D03*
G54D42*X133000Y108000D03*
G54D44*X118000Y86000D03*
G54D42*X17000Y17000D03*
Y108000D03*
G54D39*G36*
X19673Y73445D02*Y65445D01*
X27673D01*
Y73445D01*
X19673D01*
G37*
G54D45*X23673Y55665D03*
Y41886D03*
G54D43*X93000Y58500D03*
X83000Y63500D03*
Y73500D03*
X93000Y68500D03*
Y78500D03*
G54D46*X104000Y118500D03*
X99000Y103000D03*
X94000D03*
X99000Y118500D03*
X66500Y98500D03*
Y94500D03*
X88000Y85000D03*
X58500Y106500D03*
Y102500D03*
Y98500D03*
X62500D03*
Y94500D03*
X58500D03*
X54500D03*
Y90500D03*
X54000Y18500D03*
Y22500D03*
Y26500D03*
X59000Y68000D03*
X40000Y55000D03*
X57500Y52500D03*
X39000Y34500D03*
X44500Y33500D03*
X37000Y48500D03*
X39000Y30500D03*
X105500Y20500D03*
X111000Y68000D03*
X108000Y65000D03*
X101500Y60000D03*
X109500Y61500D03*
X120000Y60094D03*
X123500D03*
G54D47*G54D48*G54D47*G54D48*G54D47*G54D48*G54D49*G54D46*G54D50*G54D51*G54D49*G54D52*G54D50*G54D49*G54D51*G54D46*M02*
