G04 start of page 2 for group 0 idx 0 *
G04 Title: (unknown), top *
G04 Creator: pcb 20140316 *
G04 CreationDate: Fri 27 Apr 2018 02:04:58 AM GMT UTC *
G04 For: petersen *
G04 Format: Gerber/RS-274X *
G04 PCB-Dimensions (mil): 1500.00 1250.00 *
G04 PCB-Coordinate-Origin: lower left *
%MOIN*%
%FSLAX25Y25*%
%LNTOP*%
%ADD38C,0.0390*%
%ADD37C,0.0472*%
%ADD36C,0.1280*%
%ADD35C,0.1285*%
%ADD34C,0.0150*%
%ADD33C,0.0140*%
%ADD32R,0.0472X0.0472*%
%ADD31R,0.0236X0.0236*%
%ADD30R,0.0630X0.0630*%
%ADD29R,0.0470X0.0470*%
%ADD28R,0.0240X0.0240*%
%ADD27R,0.0130X0.0130*%
%ADD26R,0.0167X0.0167*%
%ADD25C,0.0310*%
%ADD24R,0.0945X0.0945*%
%ADD23R,0.0378X0.0378*%
%ADD22R,0.0360X0.0360*%
%ADD21R,0.0512X0.0512*%
%ADD20C,0.0800*%
%ADD19C,0.1440*%
%ADD18C,0.0700*%
%ADD17C,0.2937*%
%ADD16C,0.0200*%
%ADD15C,0.0300*%
%ADD14C,0.0250*%
%ADD13C,0.0080*%
%ADD12C,0.0400*%
%ADD11C,0.0001*%
G54D11*G36*
X28166Y63500D02*X34500D01*
Y58480D01*
X30049Y54029D01*
X30007Y53993D01*
X29864Y53825D01*
X29749Y53638D01*
X29664Y53434D01*
X29613Y53220D01*
X29596Y53000D01*
X29600Y52945D01*
Y47500D01*
X28166D01*
Y52810D01*
X28251Y52846D01*
X28352Y52908D01*
X28442Y52984D01*
X28518Y53074D01*
X28578Y53176D01*
X28795Y53645D01*
X28962Y54134D01*
X29082Y54637D01*
X29155Y55149D01*
X29179Y55665D01*
X29155Y56181D01*
X29082Y56693D01*
X28962Y57196D01*
X28795Y57685D01*
X28583Y58157D01*
X28522Y58258D01*
X28445Y58349D01*
X28355Y58426D01*
X28253Y58488D01*
X28166Y58525D01*
Y63500D01*
G37*
G36*
X23675D02*X28166D01*
Y58525D01*
X28144Y58534D01*
X28028Y58562D01*
X27910Y58571D01*
X27792Y58562D01*
X27676Y58535D01*
X27566Y58489D01*
X27465Y58427D01*
X27375Y58351D01*
X27297Y58260D01*
X27235Y58159D01*
X27189Y58050D01*
X27162Y57934D01*
X27152Y57816D01*
X27161Y57697D01*
X27189Y57582D01*
X27236Y57473D01*
X27394Y57133D01*
X27515Y56777D01*
X27603Y56412D01*
X27655Y56040D01*
X27673Y55665D01*
X27655Y55290D01*
X27603Y54918D01*
X27515Y54553D01*
X27394Y54197D01*
X27240Y53855D01*
X27193Y53747D01*
X27166Y53632D01*
X27156Y53514D01*
X27166Y53397D01*
X27194Y53282D01*
X27239Y53173D01*
X27301Y53072D01*
X27378Y52983D01*
X27468Y52906D01*
X27568Y52845D01*
X27677Y52800D01*
X27792Y52772D01*
X27910Y52763D01*
X28028Y52773D01*
X28142Y52800D01*
X28166Y52810D01*
Y47500D01*
X23675D01*
Y50159D01*
X24189Y50183D01*
X24701Y50256D01*
X25204Y50376D01*
X25693Y50543D01*
X26165Y50755D01*
X26266Y50816D01*
X26357Y50893D01*
X26434Y50983D01*
X26496Y51085D01*
X26542Y51194D01*
X26570Y51310D01*
X26579Y51428D01*
X26570Y51546D01*
X26543Y51662D01*
X26497Y51772D01*
X26435Y51873D01*
X26359Y51963D01*
X26268Y52041D01*
X26167Y52103D01*
X26058Y52149D01*
X25942Y52176D01*
X25824Y52186D01*
X25705Y52177D01*
X25590Y52149D01*
X25481Y52102D01*
X25141Y51944D01*
X24785Y51823D01*
X24420Y51735D01*
X24048Y51683D01*
X23675Y51665D01*
Y59665D01*
X24048Y59647D01*
X24420Y59595D01*
X24785Y59507D01*
X25141Y59386D01*
X25483Y59232D01*
X25591Y59185D01*
X25706Y59158D01*
X25824Y59148D01*
X25941Y59158D01*
X26056Y59186D01*
X26165Y59231D01*
X26266Y59293D01*
X26355Y59370D01*
X26432Y59460D01*
X26493Y59560D01*
X26538Y59669D01*
X26566Y59784D01*
X26575Y59902D01*
X26565Y60020D01*
X26538Y60134D01*
X26492Y60243D01*
X26430Y60344D01*
X26354Y60434D01*
X26264Y60510D01*
X26162Y60570D01*
X25693Y60787D01*
X25204Y60954D01*
X24701Y61074D01*
X24189Y61147D01*
X23675Y61171D01*
Y63500D01*
G37*
G36*
X19180D02*X23675D01*
Y61171D01*
X23673Y61171D01*
X23157Y61147D01*
X22645Y61074D01*
X22142Y60954D01*
X21653Y60787D01*
X21181Y60575D01*
X21080Y60514D01*
X20989Y60437D01*
X20912Y60347D01*
X20850Y60245D01*
X20804Y60136D01*
X20776Y60020D01*
X20767Y59902D01*
X20776Y59784D01*
X20803Y59668D01*
X20849Y59558D01*
X20911Y59457D01*
X20987Y59367D01*
X21078Y59289D01*
X21179Y59227D01*
X21288Y59181D01*
X21404Y59154D01*
X21522Y59144D01*
X21641Y59153D01*
X21756Y59181D01*
X21865Y59228D01*
X22205Y59386D01*
X22561Y59507D01*
X22926Y59595D01*
X23298Y59647D01*
X23673Y59665D01*
X23675Y59665D01*
Y51665D01*
X23673Y51665D01*
X23298Y51683D01*
X22926Y51735D01*
X22561Y51823D01*
X22205Y51944D01*
X21863Y52098D01*
X21755Y52145D01*
X21640Y52172D01*
X21522Y52182D01*
X21405Y52172D01*
X21290Y52144D01*
X21181Y52099D01*
X21080Y52037D01*
X20991Y51960D01*
X20914Y51870D01*
X20853Y51770D01*
X20808Y51661D01*
X20780Y51546D01*
X20771Y51428D01*
X20781Y51310D01*
X20808Y51196D01*
X20854Y51087D01*
X20916Y50986D01*
X20992Y50896D01*
X21082Y50820D01*
X21184Y50760D01*
X21653Y50543D01*
X22142Y50376D01*
X22645Y50256D01*
X23157Y50183D01*
X23673Y50159D01*
X23675Y50159D01*
Y47500D01*
X19180D01*
Y52805D01*
X19202Y52796D01*
X19318Y52768D01*
X19436Y52759D01*
X19554Y52768D01*
X19670Y52795D01*
X19780Y52841D01*
X19881Y52903D01*
X19971Y52979D01*
X20049Y53070D01*
X20111Y53171D01*
X20157Y53280D01*
X20184Y53396D01*
X20194Y53514D01*
X20185Y53633D01*
X20157Y53748D01*
X20110Y53857D01*
X19952Y54197D01*
X19831Y54553D01*
X19743Y54918D01*
X19691Y55290D01*
X19673Y55665D01*
X19691Y56040D01*
X19743Y56412D01*
X19831Y56777D01*
X19952Y57133D01*
X20106Y57475D01*
X20153Y57583D01*
X20180Y57698D01*
X20190Y57816D01*
X20180Y57933D01*
X20152Y58048D01*
X20107Y58157D01*
X20045Y58258D01*
X19968Y58347D01*
X19878Y58424D01*
X19778Y58485D01*
X19669Y58530D01*
X19554Y58558D01*
X19436Y58567D01*
X19318Y58557D01*
X19204Y58530D01*
X19180Y58520D01*
Y63500D01*
G37*
G36*
X10500D02*X19180D01*
Y58520D01*
X19095Y58484D01*
X18994Y58422D01*
X18904Y58346D01*
X18828Y58256D01*
X18768Y58154D01*
X18551Y57685D01*
X18384Y57196D01*
X18264Y56693D01*
X18191Y56181D01*
X18167Y55665D01*
X18191Y55149D01*
X18264Y54637D01*
X18384Y54134D01*
X18551Y53645D01*
X18763Y53173D01*
X18824Y53072D01*
X18901Y52981D01*
X18991Y52904D01*
X19093Y52842D01*
X19180Y52805D01*
Y47500D01*
X10500D01*
Y63500D01*
G37*
G36*
X43000Y19500D02*X53000D01*
Y12000D01*
X43000D01*
Y19500D01*
G37*
G36*
X48118Y106838D02*X48119Y104127D01*
X48156Y103974D01*
X48216Y103829D01*
X48298Y103694D01*
X48401Y103575D01*
X48520Y103472D01*
X48655Y103390D01*
X48800Y103330D01*
X48953Y103293D01*
X49110Y103284D01*
X53047Y103293D01*
X53200Y103330D01*
X53345Y103390D01*
X53480Y103472D01*
X53599Y103575D01*
X53702Y103694D01*
X53784Y103829D01*
X53844Y103974D01*
X53881Y104127D01*
X53890Y104284D01*
X53887Y109000D01*
X76000D01*
Y98000D01*
X46500D01*
Y107534D01*
X47105Y106934D01*
X47240Y106851D01*
X47385Y106791D01*
X47538Y106754D01*
X47695Y106742D01*
X47852Y106754D01*
X48005Y106791D01*
X48118Y106838D01*
G37*
G36*
X41833Y75488D02*X41844Y74016D01*
X41884Y73848D01*
X41950Y73688D01*
X42029Y73558D01*
X41950Y73429D01*
X41884Y73269D01*
X41844Y73101D01*
X41833Y72929D01*
X41844Y71457D01*
X41884Y71289D01*
X41950Y71129D01*
X42029Y71000D01*
X41950Y70871D01*
X41884Y70711D01*
X41844Y70543D01*
X41833Y70371D01*
X41844Y68899D01*
X41884Y68731D01*
X41950Y68571D01*
X42041Y68423D01*
X42153Y68291D01*
X42285Y68179D01*
X42433Y68088D01*
X42593Y68022D01*
X42761Y67982D01*
X42933Y67972D01*
X48600Y67981D01*
Y63080D01*
X46920Y61400D01*
X40500D01*
X40500Y61400D01*
X38055D01*
X38000Y61404D01*
X37780Y61387D01*
X37566Y61336D01*
X37362Y61251D01*
X37175Y61136D01*
X37174Y61136D01*
X37007Y60993D01*
X36971Y60951D01*
X30049Y54029D01*
X30007Y53993D01*
X29864Y53825D01*
X29749Y53638D01*
X29664Y53434D01*
X29613Y53220D01*
X29596Y53000D01*
X29600Y52945D01*
Y47500D01*
X29500D01*
Y84500D01*
X30608D01*
X30609Y83943D01*
X30646Y83790D01*
X30706Y83645D01*
X30788Y83510D01*
X30891Y83391D01*
X31010Y83288D01*
X31145Y83206D01*
X31290Y83146D01*
X31443Y83109D01*
X31600Y83100D01*
X35357Y83109D01*
X35510Y83146D01*
X35655Y83206D01*
X35790Y83288D01*
X35909Y83391D01*
X36003Y83500D01*
X39382D01*
X39500Y83491D01*
X39970Y83528D01*
X39971Y83528D01*
X40430Y83638D01*
X40866Y83819D01*
X41269Y84065D01*
X41628Y84372D01*
X41705Y84462D01*
X41743Y84500D01*
X51500D01*
Y75318D01*
X51029Y75789D01*
X50993Y75831D01*
X50825Y75974D01*
X50638Y76089D01*
X50434Y76174D01*
X50220Y76225D01*
X50000Y76242D01*
X49945Y76238D01*
X49644D01*
X49619Y76268D01*
X49487Y76380D01*
X49339Y76471D01*
X49179Y76537D01*
X49011Y76577D01*
X48838Y76588D01*
X42761Y76577D01*
X42593Y76537D01*
X42433Y76471D01*
X42285Y76380D01*
X42153Y76268D01*
X42041Y76136D01*
X41950Y75988D01*
X41884Y75828D01*
X41844Y75660D01*
X41833Y75488D01*
G37*
G36*
X56520Y72000D02*X54392D01*
X54387Y72058D01*
X54336Y72272D01*
X54251Y72476D01*
X54136Y72663D01*
X54136Y72664D01*
X53993Y72831D01*
X53951Y72867D01*
X51029Y75789D01*
X50993Y75831D01*
X50825Y75974D01*
X50638Y76089D01*
X50434Y76174D01*
X50220Y76225D01*
X50000Y76242D01*
X49945Y76238D01*
X49644D01*
X49619Y76268D01*
X49487Y76380D01*
X49339Y76471D01*
X49179Y76537D01*
X49011Y76577D01*
X48838Y76588D01*
X46500Y76584D01*
Y89500D01*
X65500D01*
Y86451D01*
X60827Y86443D01*
X60674Y86406D01*
X60529Y86346D01*
X60394Y86264D01*
X60275Y86161D01*
X60172Y86042D01*
X60090Y85907D01*
X60030Y85762D01*
X59993Y85609D01*
X59984Y85452D01*
X59993Y79391D01*
X60030Y79238D01*
X60090Y79093D01*
X60172Y78958D01*
X60275Y78839D01*
X60394Y78736D01*
X60529Y78654D01*
X60674Y78594D01*
X60827Y78557D01*
X60984Y78548D01*
X65500Y78556D01*
Y73679D01*
X58834D01*
X58779Y73683D01*
X58559Y73666D01*
X58345Y73615D01*
X58141Y73530D01*
X57954Y73415D01*
X57953Y73415D01*
X57786Y73272D01*
X57750Y73230D01*
X56520Y72000D01*
G37*
G36*
X46500Y97500D02*X76000D01*
Y86500D01*
X46500D01*
Y97500D01*
G37*
G36*
Y99500D02*X76000D01*
Y88500D01*
X46500D01*
Y99500D01*
G37*
G36*
X66305Y30500D02*X68000D01*
Y12500D01*
X66305D01*
Y18921D01*
X66423Y18930D01*
X66537Y18958D01*
X66647Y19003D01*
X66747Y19064D01*
X66837Y19141D01*
X66914Y19231D01*
X66975Y19331D01*
X67020Y19441D01*
X67048Y19555D01*
X67055Y19673D01*
Y24673D01*
X67048Y24791D01*
X67020Y24905D01*
X66975Y25015D01*
X66914Y25115D01*
X66837Y25205D01*
X66747Y25282D01*
X66647Y25343D01*
X66537Y25388D01*
X66423Y25416D01*
X66305Y25425D01*
Y30500D01*
G37*
G36*
X61555D02*X66305D01*
Y25425D01*
X66187Y25416D01*
X66073Y25388D01*
X65963Y25343D01*
X65863Y25282D01*
X65773Y25205D01*
X65696Y25115D01*
X65635Y25015D01*
X65590Y24905D01*
X65562Y24791D01*
X65555Y24673D01*
Y19673D01*
X65562Y19555D01*
X65590Y19441D01*
X65635Y19331D01*
X65696Y19231D01*
X65773Y19141D01*
X65863Y19064D01*
X65963Y19003D01*
X66073Y18958D01*
X66187Y18930D01*
X66305Y18921D01*
Y12500D01*
X61555D01*
Y16673D01*
X64055D01*
X64173Y16680D01*
X64287Y16708D01*
X64397Y16753D01*
X64497Y16814D01*
X64587Y16891D01*
X64664Y16981D01*
X64725Y17081D01*
X64770Y17191D01*
X64798Y17305D01*
X64807Y17423D01*
X64798Y17541D01*
X64770Y17655D01*
X64725Y17765D01*
X64664Y17865D01*
X64587Y17955D01*
X64497Y18032D01*
X64397Y18093D01*
X64287Y18138D01*
X64173Y18166D01*
X64055Y18173D01*
X61555D01*
Y26173D01*
X64055D01*
X64173Y26180D01*
X64287Y26208D01*
X64397Y26253D01*
X64497Y26314D01*
X64587Y26391D01*
X64664Y26481D01*
X64725Y26581D01*
X64770Y26691D01*
X64798Y26805D01*
X64807Y26923D01*
X64798Y27041D01*
X64770Y27155D01*
X64725Y27265D01*
X64664Y27365D01*
X64587Y27455D01*
X64497Y27532D01*
X64397Y27593D01*
X64287Y27638D01*
X64173Y27666D01*
X64055Y27673D01*
X61555D01*
Y30500D01*
G37*
G36*
X56805D02*X61555D01*
Y27673D01*
X59055D01*
X58937Y27666D01*
X58823Y27638D01*
X58713Y27593D01*
X58613Y27532D01*
X58523Y27455D01*
X58446Y27365D01*
X58385Y27265D01*
X58340Y27155D01*
X58312Y27041D01*
X58303Y26923D01*
X58312Y26805D01*
X58340Y26691D01*
X58385Y26581D01*
X58446Y26481D01*
X58523Y26391D01*
X58613Y26314D01*
X58713Y26253D01*
X58823Y26208D01*
X58937Y26180D01*
X59055Y26173D01*
X61555D01*
Y18173D01*
X59055D01*
X58937Y18166D01*
X58823Y18138D01*
X58713Y18093D01*
X58613Y18032D01*
X58523Y17955D01*
X58446Y17865D01*
X58385Y17765D01*
X58340Y17655D01*
X58312Y17541D01*
X58303Y17423D01*
X58312Y17305D01*
X58340Y17191D01*
X58385Y17081D01*
X58446Y16981D01*
X58523Y16891D01*
X58613Y16814D01*
X58713Y16753D01*
X58823Y16708D01*
X58937Y16680D01*
X59055Y16673D01*
X61555D01*
Y12500D01*
X56805D01*
Y18921D01*
X56923Y18930D01*
X57037Y18958D01*
X57147Y19003D01*
X57247Y19064D01*
X57337Y19141D01*
X57414Y19231D01*
X57475Y19331D01*
X57520Y19441D01*
X57548Y19555D01*
X57555Y19673D01*
Y24673D01*
X57548Y24791D01*
X57520Y24905D01*
X57475Y25015D01*
X57414Y25115D01*
X57337Y25205D01*
X57247Y25282D01*
X57147Y25343D01*
X57037Y25388D01*
X56923Y25416D01*
X56805Y25425D01*
Y30500D01*
G37*
G36*
X51000Y12500D02*Y30500D01*
X56805D01*
Y25425D01*
X56687Y25416D01*
X56573Y25388D01*
X56463Y25343D01*
X56363Y25282D01*
X56273Y25205D01*
X56196Y25115D01*
X56135Y25015D01*
X56090Y24905D01*
X56062Y24791D01*
X56055Y24673D01*
Y19673D01*
X56062Y19555D01*
X56090Y19441D01*
X56135Y19331D01*
X56196Y19231D01*
X56273Y19141D01*
X56363Y19064D01*
X56463Y19003D01*
X56573Y18958D01*
X56687Y18930D01*
X56805Y18921D01*
Y12500D01*
X51000D01*
G37*
G36*
X148000Y92000D02*Y40000D01*
X135000D01*
Y92000D01*
X148000D01*
G37*
G54D12*X20500Y86500D02*Y72500D01*
X23500Y69500D01*
X33500Y86500D02*X39500D01*
X41500Y88500D01*
G54D13*X45886Y69721D02*X49279D01*
X45886Y72279D02*X49721D01*
X51500Y70500D01*
X45886Y74838D02*X49662D01*
X50000D02*X48500D01*
X53000Y71838D02*X50000Y74838D01*
G54D14*X38500Y18500D02*Y11000D01*
X40000Y9500D01*
X72000D01*
X75500Y13000D01*
Y22008D01*
X75335Y22173D01*
G54D13*X47000Y22400D02*X44100D01*
X43500Y23000D01*
X35000Y20500D02*Y10500D01*
X39000Y6500D01*
X49279Y69721D02*X50000Y69000D01*
Y62500D01*
X51500Y70500D02*Y61500D01*
X53000Y60500D02*Y71838D01*
X54750Y59750D02*Y68250D01*
X50000Y62500D02*X47500Y60000D01*
X39500D01*
X48500Y58500D02*X40000D01*
X41000D02*X39000D01*
X40500Y60000D02*X38000D01*
X40000Y55000D02*Y58500D01*
X44276Y55776D02*X45500Y57000D01*
X49500D01*
X50575Y51848D02*Y55575D01*
X53724Y51848D02*Y56224D01*
X51500Y61500D02*X48500Y58500D01*
X49500Y57000D02*X53000Y60500D01*
X50575Y55575D02*X54750Y59750D01*
X53724Y56224D02*X56500Y59000D01*
Y63000D01*
X58000Y64500D01*
X57250Y63750D01*
X44276Y45152D02*X53724D01*
X53652D02*X56848D01*
X58000Y44000D01*
Y42000D01*
X56500Y41000D02*X58500Y39000D01*
X36000Y41000D02*X54500D01*
X53500D02*X56500D01*
X23787Y42000D02*X23673Y41886D01*
X32500Y52000D02*Y42000D01*
X31000Y53000D02*Y44500D01*
X23787Y42000D02*X23673Y41886D01*
X31000Y46500D02*Y41000D01*
X23787Y42000D02*X31000D01*
X34000Y40500D02*X32500Y42000D01*
X33500Y41000D01*
X39000Y58500D02*X32500Y52000D01*
X38000Y60000D02*X31000Y53000D01*
X46500Y48500D02*X37000D01*
X44276Y51848D02*Y55776D01*
X31000Y41000D02*X32500Y39500D01*
X38700Y22500D02*X38800Y22400D01*
X34000Y24000D02*X35500Y22500D01*
X38700D01*
X43500Y23000D02*Y28000D01*
Y26500D02*Y30500D01*
G54D14*X47000Y26300D02*Y30500D01*
X50000Y33500D01*
G54D13*X43500Y29000D02*Y32500D01*
X44500Y33500D01*
X47425Y51848D02*Y49425D01*
X46500Y48500D01*
X44276Y51848D02*X35348D01*
X34000Y50500D01*
Y43000D01*
X36000Y41000D01*
X34000Y38000D02*Y24000D01*
Y37000D02*Y40500D01*
G54D15*X39000Y34500D02*Y26500D01*
G54D13*X32500Y39500D02*Y23000D01*
X35000Y20500D01*
G54D12*X41500Y88500D02*Y110500D01*
X45000Y114000D01*
X70500Y117500D02*X57000D01*
G54D14*X77500D02*X70595D01*
X70500Y117405D01*
X104000Y113000D02*Y118500D01*
X99000Y113000D02*Y118500D01*
X94000Y113000D02*X89500Y117500D01*
X74500D01*
X80000Y84500D02*Y117500D01*
X99000Y108000D02*Y103000D01*
X94000Y108000D02*Y103000D01*
X104000Y108000D02*Y103000D01*
G54D13*X105000Y99000D02*X104000Y100000D01*
Y105000D01*
X69114Y74838D02*Y82071D01*
Y72279D02*X81779D01*
X63721Y69721D02*X78279D01*
X79500Y68500D01*
X65000Y69721D02*X60721D01*
X69500Y67162D02*X75338D01*
X76500Y66000D01*
X68721Y72279D02*X64779D01*
G54D14*X62500Y82457D02*X77957D01*
X80000Y84500D01*
G54D13*X69114Y82071D02*X69500Y82457D01*
Y72279D02*X59279D01*
X58779D02*X62000D01*
X54750Y68250D02*X58779Y72279D01*
X60721Y69721D02*X59000Y68000D01*
X63000Y64500D02*X58000D01*
X81779Y72279D02*X83000Y73500D01*
X79500Y68500D02*X86500D01*
X88000Y70000D01*
X69114Y67162D02*X65662D01*
X63000Y64500D01*
G54D14*X72000Y52543D02*X82043D01*
X63000Y45457D02*X72000D01*
G54D13*X62957Y52500D02*X63000Y52543D01*
X59500Y40500D02*X90500D01*
X58500Y39000D02*X95000D01*
G54D14*X50000Y33500D02*X84500D01*
X82043Y52543D02*X83000Y53500D01*
G54D13*X76500Y66000D02*Y61000D01*
X77250Y60250D01*
X57500Y52500D02*X62957D01*
X58000Y42000D02*X59500Y40500D01*
G54D14*X80000Y88500D02*X98000D01*
X101500Y85000D01*
Y60000D01*
G54D13*X88000Y70000D02*Y85000D01*
X105000Y49000D02*Y99000D01*
G54D14*X101500Y68500D02*X93000D01*
G54D13*Y58500D02*X79000D01*
X76500Y61000D01*
X95652Y45652D02*X101500Y51500D01*
Y60000D01*
X97000Y41000D02*X105000Y49000D01*
X90500Y40500D02*X96750Y46750D01*
X95000Y39000D02*X98250Y42250D01*
G54D14*X84500Y33500D02*X89000Y29000D01*
X89114Y22173D02*Y28886D01*
X86500Y31500D01*
G54D13*X109501Y27250D02*Y23500D01*
X113500Y19500D01*
Y14549D01*
X113401Y14450D01*
G54D14*X105599D02*Y20401D01*
X105500Y20500D01*
G54D13*X39000Y6500D02*X110500D01*
X113500Y9500D01*
Y14500D01*
X111000Y68000D02*X130000D01*
X108000Y65000D02*Y70000D01*
X109906Y71906D01*
X130000D01*
G54D16*X109500Y61500D02*X112031Y64031D01*
X130000D01*
Y60094D02*X120000D01*
G54D17*X133500Y17000D03*
G54D18*X83000Y53500D03*
G54D19*X118000Y46000D03*
G54D11*G36*
X57555Y26173D02*Y18173D01*
X65555D01*
Y26173D01*
X57555D01*
G37*
G54D20*X75335Y22173D03*
X89114D03*
G54D17*X133000Y108000D03*
G54D19*X118000Y86000D03*
G54D17*X17000Y17000D03*
Y108000D03*
G54D11*G36*
X19673Y73445D02*Y65445D01*
X27673D01*
Y73445D01*
X19673D01*
G37*
G54D20*X23673Y55665D03*
Y41886D03*
G54D18*X93000Y58500D03*
X83000Y63500D03*
Y73500D03*
X93000Y68500D03*
Y78500D03*
G54D21*X63543Y82893D02*Y82107D01*
X67745Y117405D02*X73255D01*
X67745Y105595D02*X73255D01*
X56457Y82893D02*Y82107D01*
G54D22*X20500Y87100D02*Y85900D01*
X33400Y87100D02*Y85900D01*
G54D21*X41457Y93393D02*Y92607D01*
X48543Y93393D02*Y92607D01*
G54D23*X56906Y117984D02*Y113890D01*
X51000Y117984D02*Y106174D01*
G54D24*Y104440D02*Y102550D01*
G54D11*G36*
X52885Y112005D02*X55725Y109165D01*
X54305Y107745D01*
X51465Y110585D01*
X52885Y112005D01*
G37*
G36*
X46275Y109165D02*X49115Y112005D01*
X50535Y110585D01*
X47695Y107745D01*
X46275Y109165D01*
G37*
G54D23*X45094Y117984D02*Y113890D01*
G54D25*X94000Y108000D03*
X99000D03*
X104000D03*
X94000Y113000D03*
X99000D03*
X104000D03*
G54D26*X47425Y52783D02*Y50913D01*
X44276Y52783D02*Y50913D01*
Y46087D02*Y44217D01*
X47425Y46087D02*Y44217D01*
X50575Y46087D02*Y44217D01*
X53724Y52783D02*Y50913D01*
X50575Y52783D02*Y50913D01*
G54D21*X62607Y52543D02*X63393D01*
X71607D02*X72393D01*
G54D26*X53724Y46087D02*Y44217D01*
G54D21*X62607Y45457D02*X63393D01*
X71607D02*X72393D01*
G54D27*X43583Y74838D02*X48189D01*
X43583Y72279D02*X48189D01*
X43583Y69721D02*X48189D01*
X43583Y67162D02*X48189D01*
X66811D02*X71417D01*
X66811Y69721D02*X71417D01*
X66811Y72279D02*X71417D01*
X66811Y74838D02*X71417D01*
G54D28*X46200Y18500D02*X47800D01*
X46200Y22400D02*X47800D01*
X46200Y26300D02*X47800D01*
X38000D02*X39600D01*
X38000Y22400D02*X39600D01*
X38000Y18500D02*X39600D01*
G54D29*X105599Y14450D02*X105600D01*
X113400D02*X113401D01*
G54D30*X109500Y27250D02*X109501D01*
G54D31*X128130Y60094D02*X131870D01*
X128130Y64031D02*X131870D01*
X128130Y67969D02*X131870D01*
X128130Y71906D02*X131870D01*
G54D32*X144075Y54976D02*X146437D01*
X144075Y77024D02*X146437D01*
G54D15*X104000Y118500D03*
X99000Y103000D03*
X94000D03*
X99000Y118500D03*
X66500Y98500D03*
Y94500D03*
X88000Y85000D03*
X58500Y106500D03*
Y102500D03*
Y98500D03*
X62500D03*
Y94500D03*
X58500D03*
X54500D03*
Y90500D03*
X54000Y18500D03*
Y22500D03*
Y26500D03*
X59000Y68000D03*
X40000Y55000D03*
X57500Y52500D03*
X39000Y34500D03*
X44500Y33500D03*
X37000Y48500D03*
X39000Y30500D03*
X105500Y20500D03*
X111000Y68000D03*
X108000Y65000D03*
X101500Y60000D03*
X109500Y61500D03*
X120000Y60094D03*
X123500D03*
G54D33*G54D34*G54D33*G54D34*G54D33*G54D34*G54D35*G54D15*G54D36*G54D37*G54D35*G54D38*G54D36*G54D35*G54D37*G54D15*M02*
