G04 start of page 10 for group -4015 idx -4015 *
G04 Title: (unknown), toppaste *
G04 Creator: pcb 20140316 *
G04 CreationDate: Thu 20 Aug 2020 02:37:03 AM GMT UTC *
G04 For: railfan *
G04 Format: Gerber/RS-274X *
G04 PCB-Dimensions (mil): 4100.00 250.00 *
G04 PCB-Coordinate-Origin: lower left *
%MOIN*%
%FSLAX25Y25*%
%LNTOPPASTE*%
%ADD28C,0.0001*%
G54D28*G36*
X5354Y10926D02*Y8090D01*
X8190D01*
Y10926D01*
X5354D01*
G37*
G36*
X9174D02*Y8090D01*
X12008D01*
Y10926D01*
X9174D01*
G37*
G36*
X12992D02*Y8090D01*
X15826D01*
Y10926D01*
X12992D01*
G37*
G36*
X16810D02*Y8090D01*
X19646D01*
Y10926D01*
X16810D01*
G37*
G36*
Y16910D02*Y14074D01*
X19646D01*
Y16910D01*
X16810D01*
G37*
G36*
X12992D02*Y14074D01*
X15826D01*
Y16910D01*
X12992D01*
G37*
G36*
X9174D02*Y14074D01*
X12008D01*
Y16910D01*
X9174D01*
G37*
G36*
X5354D02*Y14074D01*
X8190D01*
Y16910D01*
X5354D01*
G37*
G36*
X40354Y10926D02*Y8090D01*
X43190D01*
Y10926D01*
X40354D01*
G37*
G36*
X44174D02*Y8090D01*
X47008D01*
Y10926D01*
X44174D01*
G37*
G36*
X47992D02*Y8090D01*
X50826D01*
Y10926D01*
X47992D01*
G37*
G36*
X51810D02*Y8090D01*
X54646D01*
Y10926D01*
X51810D01*
G37*
G36*
Y16910D02*Y14074D01*
X54646D01*
Y16910D01*
X51810D01*
G37*
G36*
X47992D02*Y14074D01*
X50826D01*
Y16910D01*
X47992D01*
G37*
G36*
X44174D02*Y14074D01*
X47008D01*
Y16910D01*
X44174D01*
G37*
G36*
X40354D02*Y14074D01*
X43190D01*
Y16910D01*
X40354D01*
G37*
G36*
X75354Y10926D02*Y8090D01*
X78190D01*
Y10926D01*
X75354D01*
G37*
G36*
X79174D02*Y8090D01*
X82008D01*
Y10926D01*
X79174D01*
G37*
G36*
X82992D02*Y8090D01*
X85826D01*
Y10926D01*
X82992D01*
G37*
G36*
X86810D02*Y8090D01*
X89646D01*
Y10926D01*
X86810D01*
G37*
G36*
Y16910D02*Y14074D01*
X89646D01*
Y16910D01*
X86810D01*
G37*
G36*
X82992D02*Y14074D01*
X85826D01*
Y16910D01*
X82992D01*
G37*
G36*
X79174D02*Y14074D01*
X82008D01*
Y16910D01*
X79174D01*
G37*
G36*
X75354D02*Y14074D01*
X78190D01*
Y16910D01*
X75354D01*
G37*
G36*
X110354Y10926D02*Y8090D01*
X113190D01*
Y10926D01*
X110354D01*
G37*
G36*
X114173D02*Y8090D01*
X117008D01*
Y10926D01*
X114173D01*
G37*
G36*
X117992D02*Y8090D01*
X120827D01*
Y10926D01*
X117992D01*
G37*
G36*
X121810D02*Y8090D01*
X124646D01*
Y10926D01*
X121810D01*
G37*
G36*
Y16910D02*Y14074D01*
X124646D01*
Y16910D01*
X121810D01*
G37*
G36*
X117992D02*Y14074D01*
X120827D01*
Y16910D01*
X117992D01*
G37*
G36*
X114173D02*Y14074D01*
X117008D01*
Y16910D01*
X114173D01*
G37*
G36*
X110354D02*Y14074D01*
X113190D01*
Y16910D01*
X110354D01*
G37*
G36*
X145354Y10926D02*Y8090D01*
X148190D01*
Y10926D01*
X145354D01*
G37*
G36*
X149174D02*Y8090D01*
X152008D01*
Y10926D01*
X149174D01*
G37*
G36*
X152992D02*Y8090D01*
X155826D01*
Y10926D01*
X152992D01*
G37*
G36*
X156810D02*Y8090D01*
X159646D01*
Y10926D01*
X156810D01*
G37*
G36*
Y16910D02*Y14074D01*
X159646D01*
Y16910D01*
X156810D01*
G37*
G36*
X152992D02*Y14074D01*
X155826D01*
Y16910D01*
X152992D01*
G37*
G36*
X149174D02*Y14074D01*
X152008D01*
Y16910D01*
X149174D01*
G37*
G36*
X145354D02*Y14074D01*
X148190D01*
Y16910D01*
X145354D01*
G37*
G36*
X180354Y10926D02*Y8090D01*
X183190D01*
Y10926D01*
X180354D01*
G37*
G36*
X184174D02*Y8090D01*
X187008D01*
Y10926D01*
X184174D01*
G37*
G36*
X187992D02*Y8090D01*
X190826D01*
Y10926D01*
X187992D01*
G37*
G36*
X191810D02*Y8090D01*
X194646D01*
Y10926D01*
X191810D01*
G37*
G36*
Y16910D02*Y14074D01*
X194646D01*
Y16910D01*
X191810D01*
G37*
G36*
X187992D02*Y14074D01*
X190826D01*
Y16910D01*
X187992D01*
G37*
G36*
X184174D02*Y14074D01*
X187008D01*
Y16910D01*
X184174D01*
G37*
G36*
X180354D02*Y14074D01*
X183190D01*
Y16910D01*
X180354D01*
G37*
G36*
X215354Y10926D02*Y8090D01*
X218190D01*
Y10926D01*
X215354D01*
G37*
G36*
X219174D02*Y8090D01*
X222008D01*
Y10926D01*
X219174D01*
G37*
G36*
X222992D02*Y8090D01*
X225826D01*
Y10926D01*
X222992D01*
G37*
G36*
X226810D02*Y8090D01*
X229646D01*
Y10926D01*
X226810D01*
G37*
G36*
Y16910D02*Y14074D01*
X229646D01*
Y16910D01*
X226810D01*
G37*
G36*
X222992D02*Y14074D01*
X225826D01*
Y16910D01*
X222992D01*
G37*
G36*
X219174D02*Y14074D01*
X222008D01*
Y16910D01*
X219174D01*
G37*
G36*
X215354D02*Y14074D01*
X218190D01*
Y16910D01*
X215354D01*
G37*
G36*
X250354Y10926D02*Y8090D01*
X253190D01*
Y10926D01*
X250354D01*
G37*
G36*
X254174D02*Y8090D01*
X257008D01*
Y10926D01*
X254174D01*
G37*
G36*
X257992D02*Y8090D01*
X260826D01*
Y10926D01*
X257992D01*
G37*
G36*
X261810D02*Y8090D01*
X264646D01*
Y10926D01*
X261810D01*
G37*
G36*
Y16910D02*Y14074D01*
X264646D01*
Y16910D01*
X261810D01*
G37*
G36*
X257992D02*Y14074D01*
X260826D01*
Y16910D01*
X257992D01*
G37*
G36*
X254174D02*Y14074D01*
X257008D01*
Y16910D01*
X254174D01*
G37*
G36*
X250354D02*Y14074D01*
X253190D01*
Y16910D01*
X250354D01*
G37*
G36*
X285354Y10926D02*Y8090D01*
X288190D01*
Y10926D01*
X285354D01*
G37*
G36*
X289174D02*Y8090D01*
X292008D01*
Y10926D01*
X289174D01*
G37*
G36*
X292992D02*Y8090D01*
X295826D01*
Y10926D01*
X292992D01*
G37*
G36*
X296810D02*Y8090D01*
X299646D01*
Y10926D01*
X296810D01*
G37*
G36*
Y16910D02*Y14074D01*
X299646D01*
Y16910D01*
X296810D01*
G37*
G36*
X292992D02*Y14074D01*
X295826D01*
Y16910D01*
X292992D01*
G37*
G36*
X289174D02*Y14074D01*
X292008D01*
Y16910D01*
X289174D01*
G37*
G36*
X285354D02*Y14074D01*
X288190D01*
Y16910D01*
X285354D01*
G37*
G36*
X320354Y10926D02*Y8090D01*
X323190D01*
Y10926D01*
X320354D01*
G37*
G36*
X324174D02*Y8090D01*
X327008D01*
Y10926D01*
X324174D01*
G37*
G36*
X327992D02*Y8090D01*
X330826D01*
Y10926D01*
X327992D01*
G37*
G36*
X331810D02*Y8090D01*
X334646D01*
Y10926D01*
X331810D01*
G37*
G36*
Y16910D02*Y14074D01*
X334646D01*
Y16910D01*
X331810D01*
G37*
G36*
X327992D02*Y14074D01*
X330826D01*
Y16910D01*
X327992D01*
G37*
G36*
X324174D02*Y14074D01*
X327008D01*
Y16910D01*
X324174D01*
G37*
G36*
X320354D02*Y14074D01*
X323190D01*
Y16910D01*
X320354D01*
G37*
G36*
X355354Y10926D02*Y8090D01*
X358190D01*
Y10926D01*
X355354D01*
G37*
G36*
X359174D02*Y8090D01*
X362008D01*
Y10926D01*
X359174D01*
G37*
G36*
X362992D02*Y8090D01*
X365826D01*
Y10926D01*
X362992D01*
G37*
G36*
X366810D02*Y8090D01*
X369646D01*
Y10926D01*
X366810D01*
G37*
G36*
Y16910D02*Y14074D01*
X369646D01*
Y16910D01*
X366810D01*
G37*
G36*
X362992D02*Y14074D01*
X365826D01*
Y16910D01*
X362992D01*
G37*
G36*
X359174D02*Y14074D01*
X362008D01*
Y16910D01*
X359174D01*
G37*
G36*
X355354D02*Y14074D01*
X358190D01*
Y16910D01*
X355354D01*
G37*
G36*
X390354Y10926D02*Y8090D01*
X393190D01*
Y10926D01*
X390354D01*
G37*
G36*
X394174D02*Y8090D01*
X397008D01*
Y10926D01*
X394174D01*
G37*
G36*
X397992D02*Y8090D01*
X400826D01*
Y10926D01*
X397992D01*
G37*
G36*
X401810D02*Y8090D01*
X404646D01*
Y10926D01*
X401810D01*
G37*
G36*
Y16910D02*Y14074D01*
X404646D01*
Y16910D01*
X401810D01*
G37*
G36*
X397992D02*Y14074D01*
X400826D01*
Y16910D01*
X397992D01*
G37*
G36*
X394174D02*Y14074D01*
X397008D01*
Y16910D01*
X394174D01*
G37*
G36*
X390354D02*Y14074D01*
X393190D01*
Y16910D01*
X390354D01*
G37*
M02*
