G04 start of page 6 for group -4063 idx -4063 *
G04 Title: (unknown), componentmask *
G04 Creator: pcb 4.0.2 *
G04 CreationDate: Mon Jan 22 00:31:19 2024 UTC *
G04 For: railfan *
G04 Format: Gerber/RS-274X *
G04 PCB-Dimensions (mil): 800.00 250.00 *
G04 PCB-Coordinate-Origin: lower left *
%MOIN*%
%FSLAX25Y25*%
%LNTOPMASK*%
%ADD26C,0.0001*%
G54D26*G36*
X31748Y8316D02*Y2598D01*
X38252D01*
Y8316D01*
X31748D01*
G37*
G36*
Y15402D02*Y9684D01*
X38252D01*
Y15402D01*
X31748D01*
G37*
G36*
X43748Y22902D02*Y17184D01*
X50252D01*
Y22902D01*
X43748D01*
G37*
G36*
Y15816D02*Y10098D01*
X50252D01*
Y15816D01*
X43748D01*
G37*
G36*
X57649Y8075D02*Y5113D01*
X64351D01*
Y8075D01*
X57649D01*
G37*
G36*
Y12012D02*Y9050D01*
X64351D01*
Y12012D01*
X57649D01*
G37*
G36*
Y15950D02*Y12988D01*
X64351D01*
Y15950D01*
X57649D01*
G37*
G36*
Y19887D02*Y16925D01*
X64351D01*
Y19887D01*
X57649D01*
G37*
G36*
X72413Y4138D02*Y-300D01*
X80099D01*
Y4138D01*
X72413D01*
G37*
G36*
Y25300D02*Y20862D01*
X80099D01*
Y25300D01*
X72413D01*
G37*
G36*
X-98Y16718D02*Y13282D01*
X5054D01*
Y16718D01*
X-98D01*
G37*
G36*
Y21718D02*Y18282D01*
X5054D01*
Y21718D01*
X-98D01*
G37*
G36*
Y6718D02*Y3283D01*
X5054D01*
Y6718D01*
X-98D01*
G37*
G36*
Y11718D02*Y8282D01*
X5054D01*
Y11718D01*
X-98D01*
G37*
G36*
X22248Y8316D02*Y2598D01*
X28752D01*
Y8316D01*
X22248D01*
G37*
G36*
Y15402D02*Y9684D01*
X28752D01*
Y15402D01*
X22248D01*
G37*
M02*
