G04 start of page 12 for group -3984 idx -3984 *
G04 Title: (unknown), fab *
G04 Creator: pcb 4.0.2 *
G04 CreationDate: Mon Jan 22 00:31:19 2024 UTC *
G04 For: railfan *
G04 Format: Gerber/RS-274X *
G04 PCB-Dimensions (mil): 800.00 250.00 *
G04 PCB-Coordinate-Origin: lower left *
%MOIN*%
%FSLAX25Y25*%
%LNFAB*%
%ADD35C,0.0100*%
%ADD34C,0.0075*%
%ADD33C,0.0060*%
%ADD32R,0.0080X0.0080*%
G54D32*X67500Y20600D02*Y17400D01*
X65900Y19000D02*X69100D01*
X67500Y7600D02*Y4400D01*
X65900Y6000D02*X69100D01*
X15000Y67850D02*Y64650D01*
X13400Y66250D02*X16600D01*
G54D33*X135000Y68500D02*X136500Y65500D01*
X138000Y68500D01*
X136500Y65500D02*Y62500D01*
X139800Y65800D02*X142050D01*
X139800Y62500D02*X142800D01*
X139800Y68500D02*Y62500D01*
Y68500D02*X142800D01*
X147600D02*X148350Y67750D01*
X145350Y68500D02*X147600D01*
X144600Y67750D02*X145350Y68500D01*
X144600Y67750D02*Y66250D01*
X145350Y65500D01*
X147600D01*
X148350Y64750D01*
Y63250D01*
X147600Y62500D02*X148350Y63250D01*
X145350Y62500D02*X147600D01*
X144600Y63250D02*X145350Y62500D01*
X98000Y67750D02*X98750Y68500D01*
X101000D01*
X101750Y67750D01*
Y66250D01*
X98000Y62500D02*X101750Y66250D01*
X98000Y62500D02*X101750D01*
X45000Y63250D02*X45750Y62500D01*
X45000Y67750D02*Y63250D01*
Y67750D02*X45750Y68500D01*
X47250D01*
X48000Y67750D01*
Y63250D01*
X47250Y62500D02*X48000Y63250D01*
X45750Y62500D02*X47250D01*
X45000Y64000D02*X48000Y67000D01*
X49800Y62500D02*X50550D01*
X52350Y63250D02*X53100Y62500D01*
X52350Y67750D02*Y63250D01*
Y67750D02*X53100Y68500D01*
X54600D01*
X55350Y67750D01*
Y63250D01*
X54600Y62500D02*X55350Y63250D01*
X53100Y62500D02*X54600D01*
X52350Y64000D02*X55350Y67000D01*
X57150Y67750D02*X57900Y68500D01*
X60150D01*
X60900Y67750D01*
Y66250D01*
X57150Y62500D02*X60900Y66250D01*
X57150Y62500D02*X60900D01*
X62700Y63250D02*X63450Y62500D01*
X62700Y67750D02*Y63250D01*
Y67750D02*X63450Y68500D01*
X64950D01*
X65700Y67750D01*
Y63250D01*
X64950Y62500D02*X65700Y63250D01*
X63450Y62500D02*X64950D01*
X62700Y64000D02*X65700Y67000D01*
X41500Y13500D02*Y11900D01*
Y13500D02*X42887Y14300D01*
X41500Y13500D02*X40113Y14300D01*
X41500Y9500D02*Y7900D01*
Y9500D02*X42887Y10300D01*
X41500Y9500D02*X40113Y10300D01*
X19900Y15300D02*Y13700D01*
Y15300D02*X21287Y16100D01*
X19900Y15300D02*X18513Y16100D01*
X9800Y9700D02*Y8100D01*
Y9700D02*X11187Y10500D01*
X9800Y9700D02*X8413Y10500D01*
X16200Y15300D02*Y13700D01*
Y15300D02*X17587Y16100D01*
X16200Y15300D02*X14813Y16100D01*
X15000Y81250D02*Y79650D01*
Y81250D02*X16387Y82050D01*
X15000Y81250D02*X13613Y82050D01*
X135000Y83500D02*X136500Y80500D01*
X138000Y83500D01*
X136500Y80500D02*Y77500D01*
X139800Y80800D02*X142050D01*
X139800Y77500D02*X142800D01*
X139800Y83500D02*Y77500D01*
Y83500D02*X142800D01*
X147600D02*X148350Y82750D01*
X145350Y83500D02*X147600D01*
X144600Y82750D02*X145350Y83500D01*
X144600Y82750D02*Y81250D01*
X145350Y80500D01*
X147600D01*
X148350Y79750D01*
Y78250D01*
X147600Y77500D02*X148350Y78250D01*
X145350Y77500D02*X147600D01*
X144600Y78250D02*X145350Y77500D01*
X98000Y83500D02*X101000D01*
X98000D02*Y80500D01*
X98750Y81250D01*
X100250D01*
X101000Y80500D01*
Y78250D01*
X100250Y77500D02*X101000Y78250D01*
X98750Y77500D02*X100250D01*
X98000Y78250D02*X98750Y77500D01*
X45000Y78250D02*X45750Y77500D01*
X45000Y82750D02*Y78250D01*
Y82750D02*X45750Y83500D01*
X47250D01*
X48000Y82750D01*
Y78250D01*
X47250Y77500D02*X48000Y78250D01*
X45750Y77500D02*X47250D01*
X45000Y79000D02*X48000Y82000D01*
X49800Y77500D02*X50550D01*
X52350Y78250D02*X53100Y77500D01*
X52350Y82750D02*Y78250D01*
Y82750D02*X53100Y83500D01*
X54600D01*
X55350Y82750D01*
Y78250D01*
X54600Y77500D02*X55350Y78250D01*
X53100Y77500D02*X54600D01*
X52350Y79000D02*X55350Y82000D01*
X57150Y82300D02*X58350Y83500D01*
Y77500D01*
X57150D02*X59400D01*
X61200Y79750D02*X64200Y83500D01*
X61200Y79750D02*X64950D01*
X64200Y83500D02*Y77500D01*
X3000Y98500D02*X3750Y97750D01*
X750Y98500D02*X3000D01*
X0Y97750D02*X750Y98500D01*
X0Y97750D02*Y96250D01*
X750Y95500D01*
X3000D01*
X3750Y94750D01*
Y93250D01*
X3000Y92500D02*X3750Y93250D01*
X750Y92500D02*X3000D01*
X0Y93250D02*X750Y92500D01*
X5550Y95500D02*Y93250D01*
X6300Y92500D01*
X8550Y95500D02*Y91000D01*
X7800Y90250D02*X8550Y91000D01*
X6300Y90250D02*X7800D01*
X5550Y91000D02*X6300Y90250D01*
Y92500D02*X7800D01*
X8550Y93250D01*
X11100Y94750D02*Y92500D01*
Y94750D02*X11850Y95500D01*
X12600D01*
X13350Y94750D01*
Y92500D01*
Y94750D02*X14100Y95500D01*
X14850D01*
X15600Y94750D01*
Y92500D01*
X10350Y95500D02*X11100Y94750D01*
X17400Y98500D02*Y92500D01*
Y93250D02*X18150Y92500D01*
X19650D01*
X20400Y93250D01*
Y94750D02*Y93250D01*
X19650Y95500D02*X20400Y94750D01*
X18150Y95500D02*X19650D01*
X17400Y94750D02*X18150Y95500D01*
X22200Y94750D02*Y93250D01*
Y94750D02*X22950Y95500D01*
X24450D01*
X25200Y94750D01*
Y93250D01*
X24450Y92500D02*X25200Y93250D01*
X22950Y92500D02*X24450D01*
X22200Y93250D02*X22950Y92500D01*
X27000Y98500D02*Y93250D01*
X27750Y92500D01*
X0Y89250D02*X29250D01*
X41750Y98500D02*Y92500D01*
X43700Y98500D02*X44750Y97450D01*
Y93550D01*
X43700Y92500D02*X44750Y93550D01*
X41000Y92500D02*X43700D01*
X41000Y98500D02*X43700D01*
G54D34*X46550Y97000D02*Y96850D01*
G54D33*Y94750D02*Y92500D01*
X50300Y95500D02*X51050Y94750D01*
X48800Y95500D02*X50300D01*
X48050Y94750D02*X48800Y95500D01*
X48050Y94750D02*Y93250D01*
X48800Y92500D01*
X51050Y95500D02*Y93250D01*
X51800Y92500D01*
X48800D02*X50300D01*
X51050Y93250D01*
X54350Y94750D02*Y92500D01*
Y94750D02*X55100Y95500D01*
X55850D01*
X56600Y94750D01*
Y92500D01*
Y94750D02*X57350Y95500D01*
X58100D01*
X58850Y94750D01*
Y92500D01*
X53600Y95500D02*X54350Y94750D01*
X60650Y92500D02*X61400D01*
X65900Y93250D02*X66650Y92500D01*
X65900Y97750D02*X66650Y98500D01*
X65900Y97750D02*Y93250D01*
X68450Y98500D02*X69950D01*
X69200D02*Y92500D01*
X68450D02*X69950D01*
X72500Y94750D02*Y92500D01*
Y94750D02*X73250Y95500D01*
X74000D01*
X74750Y94750D01*
Y92500D01*
X71750Y95500D02*X72500Y94750D01*
X77300Y95500D02*X79550D01*
X76550Y94750D02*X77300Y95500D01*
X76550Y94750D02*Y93250D01*
X77300Y92500D01*
X79550D01*
X81350Y98500D02*Y92500D01*
Y94750D02*X82100Y95500D01*
X83600D01*
X84350Y94750D01*
Y92500D01*
X86150Y98500D02*X86900Y97750D01*
Y93250D01*
X86150Y92500D02*X86900Y93250D01*
X41000Y89250D02*X88700D01*
X96050Y92500D02*X98000D01*
X95000Y93550D02*X96050Y92500D01*
X95000Y97450D02*Y93550D01*
Y97450D02*X96050Y98500D01*
X98000D01*
X99800Y94750D02*Y93250D01*
Y94750D02*X100550Y95500D01*
X102050D01*
X102800Y94750D01*
Y93250D01*
X102050Y92500D02*X102800Y93250D01*
X100550Y92500D02*X102050D01*
X99800Y93250D02*X100550Y92500D01*
X104600Y95500D02*Y93250D01*
X105350Y92500D01*
X106850D01*
X107600Y93250D01*
Y95500D02*Y93250D01*
X110150Y94750D02*Y92500D01*
Y94750D02*X110900Y95500D01*
X111650D01*
X112400Y94750D01*
Y92500D01*
X109400Y95500D02*X110150Y94750D01*
X114950Y98500D02*Y93250D01*
X115700Y92500D01*
X114200Y96250D02*X115700D01*
X95000Y89250D02*X117200D01*
X130750Y98500D02*Y92500D01*
X130000Y98500D02*X133000D01*
X133750Y97750D01*
Y96250D01*
X133000Y95500D02*X133750Y96250D01*
X130750Y95500D02*X133000D01*
X135550Y98500D02*Y93250D01*
X136300Y92500D01*
X140050Y95500D02*X140800Y94750D01*
X138550Y95500D02*X140050D01*
X137800Y94750D02*X138550Y95500D01*
X137800Y94750D02*Y93250D01*
X138550Y92500D01*
X140800Y95500D02*Y93250D01*
X141550Y92500D01*
X138550D02*X140050D01*
X140800Y93250D01*
X144100Y98500D02*Y93250D01*
X144850Y92500D01*
X143350Y96250D02*X144850D01*
X147100Y92500D02*X149350D01*
X146350Y93250D02*X147100Y92500D01*
X146350Y94750D02*Y93250D01*
Y94750D02*X147100Y95500D01*
X148600D01*
X149350Y94750D01*
X146350Y94000D02*X149350D01*
Y94750D02*Y94000D01*
X154150Y98500D02*Y92500D01*
X153400D02*X154150Y93250D01*
X151900Y92500D02*X153400D01*
X151150Y93250D02*X151900Y92500D01*
X151150Y94750D02*Y93250D01*
Y94750D02*X151900Y95500D01*
X153400D01*
X154150Y94750D01*
X157450Y95500D02*Y94750D01*
Y93250D02*Y92500D01*
X155950Y97750D02*Y97000D01*
Y97750D02*X156700Y98500D01*
X158200D01*
X158950Y97750D01*
Y97000D01*
X157450Y95500D02*X158950Y97000D01*
X130000Y89250D02*X160750D01*
X0Y113500D02*X3000D01*
X1500D02*Y107500D01*
X4800Y113500D02*Y107500D01*
Y109750D02*X5550Y110500D01*
X7050D01*
X7800Y109750D01*
Y107500D01*
X10350D02*X12600D01*
X9600Y108250D02*X10350Y107500D01*
X9600Y109750D02*Y108250D01*
Y109750D02*X10350Y110500D01*
X11850D01*
X12600Y109750D01*
X9600Y109000D02*X12600D01*
Y109750D02*Y109000D01*
X15150Y109750D02*Y107500D01*
Y109750D02*X15900Y110500D01*
X17400D01*
X14400D02*X15150Y109750D01*
X19950Y107500D02*X22200D01*
X19200Y108250D02*X19950Y107500D01*
X19200Y109750D02*Y108250D01*
Y109750D02*X19950Y110500D01*
X21450D01*
X22200Y109750D01*
X19200Y109000D02*X22200D01*
Y109750D02*Y109000D01*
X28950Y110500D02*X29700Y109750D01*
X27450Y110500D02*X28950D01*
X26700Y109750D02*X27450Y110500D01*
X26700Y109750D02*Y108250D01*
X27450Y107500D01*
X29700Y110500D02*Y108250D01*
X30450Y107500D01*
X27450D02*X28950D01*
X29700Y108250D01*
X33000Y109750D02*Y107500D01*
Y109750D02*X33750Y110500D01*
X35250D01*
X32250D02*X33000Y109750D01*
X37800Y107500D02*X40050D01*
X37050Y108250D02*X37800Y107500D01*
X37050Y109750D02*Y108250D01*
Y109750D02*X37800Y110500D01*
X39300D01*
X40050Y109750D01*
X37050Y109000D02*X40050D01*
Y109750D02*Y109000D01*
X44550Y112750D02*X45300Y113500D01*
X47550D01*
X48300Y112750D01*
Y111250D01*
X44550Y107500D02*X48300Y111250D01*
X44550Y107500D02*X48300D01*
X55800Y113500D02*Y107500D01*
X55050D02*X55800Y108250D01*
X53550Y107500D02*X55050D01*
X52800Y108250D02*X53550Y107500D01*
X52800Y109750D02*Y108250D01*
Y109750D02*X53550Y110500D01*
X55050D01*
X55800Y109750D01*
G54D34*X57600Y112000D02*Y111850D01*
G54D33*Y109750D02*Y107500D01*
X59850Y112750D02*Y107500D01*
Y112750D02*X60600Y113500D01*
X61350D01*
X59100Y110500D02*X60600D01*
X63600Y112750D02*Y107500D01*
Y112750D02*X64350Y113500D01*
X65100D01*
X62850Y110500D02*X64350D01*
X67350Y107500D02*X69600D01*
X66600Y108250D02*X67350Y107500D01*
X66600Y109750D02*Y108250D01*
Y109750D02*X67350Y110500D01*
X68850D01*
X69600Y109750D01*
X66600Y109000D02*X69600D01*
Y109750D02*Y109000D01*
X72150Y109750D02*Y107500D01*
Y109750D02*X72900Y110500D01*
X74400D01*
X71400D02*X72150Y109750D01*
X76950Y107500D02*X79200D01*
X76200Y108250D02*X76950Y107500D01*
X76200Y109750D02*Y108250D01*
Y109750D02*X76950Y110500D01*
X78450D01*
X79200Y109750D01*
X76200Y109000D02*X79200D01*
Y109750D02*Y109000D01*
X81750Y109750D02*Y107500D01*
Y109750D02*X82500Y110500D01*
X83250D01*
X84000Y109750D01*
Y107500D01*
X81000Y110500D02*X81750Y109750D01*
X86550Y113500D02*Y108250D01*
X87300Y107500D01*
X85800Y111250D02*X87300D01*
X94500Y113500D02*Y107500D01*
X93750D02*X94500Y108250D01*
X92250Y107500D02*X93750D01*
X91500Y108250D02*X92250Y107500D01*
X91500Y109750D02*Y108250D01*
Y109750D02*X92250Y110500D01*
X93750D01*
X94500Y109750D01*
X97050D02*Y107500D01*
Y109750D02*X97800Y110500D01*
X99300D01*
X96300D02*X97050Y109750D01*
G54D34*X101100Y112000D02*Y111850D01*
G54D33*Y109750D02*Y107500D01*
X102600Y113500D02*Y108250D01*
X103350Y107500D01*
X104850Y113500D02*Y108250D01*
X105600Y107500D01*
X110550D02*X112800D01*
X113550Y108250D01*
X112800Y109000D02*X113550Y108250D01*
X110550Y109000D02*X112800D01*
X109800Y109750D02*X110550Y109000D01*
X109800Y109750D02*X110550Y110500D01*
X112800D01*
X113550Y109750D01*
X109800Y108250D02*X110550Y107500D01*
G54D34*X115350Y112000D02*Y111850D01*
G54D33*Y109750D02*Y107500D01*
X116850Y110500D02*X119850D01*
X116850Y107500D02*X119850Y110500D01*
X116850Y107500D02*X119850D01*
X122400D02*X124650D01*
X121650Y108250D02*X122400Y107500D01*
X121650Y109750D02*Y108250D01*
Y109750D02*X122400Y110500D01*
X123900D01*
X124650Y109750D01*
X121650Y109000D02*X124650D01*
Y109750D02*Y109000D01*
X127200Y107500D02*X129450D01*
X130200Y108250D01*
X129450Y109000D02*X130200Y108250D01*
X127200Y109000D02*X129450D01*
X126450Y109750D02*X127200Y109000D01*
X126450Y109750D02*X127200Y110500D01*
X129450D01*
X130200Y109750D01*
X126450Y108250D02*X127200Y107500D01*
X134700Y110500D02*Y108250D01*
X135450Y107500D01*
X136950D01*
X137700Y108250D01*
Y110500D02*Y108250D01*
X140250Y107500D02*X142500D01*
X143250Y108250D01*
X142500Y109000D02*X143250Y108250D01*
X140250Y109000D02*X142500D01*
X139500Y109750D02*X140250Y109000D01*
X139500Y109750D02*X140250Y110500D01*
X142500D01*
X143250Y109750D01*
X139500Y108250D02*X140250Y107500D01*
X145800D02*X148050D01*
X145050Y108250D02*X145800Y107500D01*
X145050Y109750D02*Y108250D01*
Y109750D02*X145800Y110500D01*
X147300D01*
X148050Y109750D01*
X145050Y109000D02*X148050D01*
Y109750D02*Y109000D01*
X152850Y113500D02*Y107500D01*
X152100D02*X152850Y108250D01*
X150600Y107500D02*X152100D01*
X149850Y108250D02*X150600Y107500D01*
X149850Y109750D02*Y108250D01*
Y109750D02*X150600Y110500D01*
X152100D01*
X152850Y109750D01*
G54D34*X157350Y112000D02*Y111850D01*
G54D33*Y109750D02*Y107500D01*
X159600Y109750D02*Y107500D01*
Y109750D02*X160350Y110500D01*
X161100D01*
X161850Y109750D01*
Y107500D01*
X158850Y110500D02*X159600Y109750D01*
X167100Y113500D02*Y108250D01*
X167850Y107500D01*
X166350Y111250D02*X167850D01*
X169350Y113500D02*Y107500D01*
Y109750D02*X170100Y110500D01*
X171600D01*
X172350Y109750D01*
Y107500D01*
G54D34*X174150Y112000D02*Y111850D01*
G54D33*Y109750D02*Y107500D01*
X176400D02*X178650D01*
X179400Y108250D01*
X178650Y109000D02*X179400Y108250D01*
X176400Y109000D02*X178650D01*
X175650Y109750D02*X176400Y109000D01*
X175650Y109750D02*X176400Y110500D01*
X178650D01*
X179400Y109750D01*
X175650Y108250D02*X176400Y107500D01*
X183900Y113500D02*Y108250D01*
X184650Y107500D01*
X188400Y110500D02*X189150Y109750D01*
X186900Y110500D02*X188400D01*
X186150Y109750D02*X186900Y110500D01*
X186150Y109750D02*Y108250D01*
X186900Y107500D01*
X189150Y110500D02*Y108250D01*
X189900Y107500D01*
X186900D02*X188400D01*
X189150Y108250D01*
X191700Y110500D02*Y108250D01*
X192450Y107500D01*
X194700Y110500D02*Y106000D01*
X193950Y105250D02*X194700Y106000D01*
X192450Y105250D02*X193950D01*
X191700Y106000D02*X192450Y105250D01*
Y107500D02*X193950D01*
X194700Y108250D01*
X196500Y109750D02*Y108250D01*
Y109750D02*X197250Y110500D01*
X198750D01*
X199500Y109750D01*
Y108250D01*
X198750Y107500D02*X199500Y108250D01*
X197250Y107500D02*X198750D01*
X196500Y108250D02*X197250Y107500D01*
X201300Y110500D02*Y108250D01*
X202050Y107500D01*
X203550D01*
X204300Y108250D01*
Y110500D02*Y108250D01*
X206850Y113500D02*Y108250D01*
X207600Y107500D01*
X206100Y111250D02*X207600D01*
X209100Y106000D02*X210600Y107500D01*
X215850D02*X218850Y113500D01*
X215100D02*X218850D01*
X223350D02*Y107500D01*
Y109750D02*X224100Y110500D01*
X225600D01*
X226350Y109750D01*
Y107500D01*
X228150Y109750D02*Y108250D01*
Y109750D02*X228900Y110500D01*
X230400D01*
X231150Y109750D01*
Y108250D01*
X230400Y107500D02*X231150Y108250D01*
X228900Y107500D02*X230400D01*
X228150Y108250D02*X228900Y107500D01*
X232950Y113500D02*Y108250D01*
X233700Y107500D01*
X235950D02*X238200D01*
X235200Y108250D02*X235950Y107500D01*
X235200Y109750D02*Y108250D01*
Y109750D02*X235950Y110500D01*
X237450D01*
X238200Y109750D01*
X235200Y109000D02*X238200D01*
Y109750D02*Y109000D01*
X240750Y107500D02*X243000D01*
X243750Y108250D01*
X243000Y109000D02*X243750Y108250D01*
X240750Y109000D02*X243000D01*
X240000Y109750D02*X240750Y109000D01*
X240000Y109750D02*X240750Y110500D01*
X243000D01*
X243750Y109750D01*
X240000Y108250D02*X240750Y107500D01*
X249000Y113500D02*Y108250D01*
X249750Y107500D01*
X248250Y111250D02*X249750D01*
X251250Y109750D02*Y108250D01*
Y109750D02*X252000Y110500D01*
X253500D01*
X254250Y109750D01*
Y108250D01*
X253500Y107500D02*X254250Y108250D01*
X252000Y107500D02*X253500D01*
X251250Y108250D02*X252000Y107500D01*
X256800Y113500D02*Y108250D01*
X257550Y107500D01*
X256050Y111250D02*X257550D01*
X261300Y110500D02*X262050Y109750D01*
X259800Y110500D02*X261300D01*
X259050Y109750D02*X259800Y110500D01*
X259050Y109750D02*Y108250D01*
X259800Y107500D01*
X262050Y110500D02*Y108250D01*
X262800Y107500D01*
X259800D02*X261300D01*
X262050Y108250D01*
X264600Y113500D02*Y108250D01*
X265350Y107500D01*
G54D35*X0Y0D02*X80000D01*
Y25000D01*
X0D01*
Y0D01*
G54D33*Y-9500D02*X3000D01*
X3750Y-8750D01*
Y-6950D02*Y-8750D01*
X3000Y-6200D02*X3750Y-6950D01*
X750Y-6200D02*X3000D01*
X750Y-3500D02*Y-9500D01*
X0Y-3500D02*X3000D01*
X3750Y-4250D01*
Y-5450D01*
X3000Y-6200D02*X3750Y-5450D01*
X5550Y-7250D02*Y-8750D01*
Y-7250D02*X6300Y-6500D01*
X7800D01*
X8550Y-7250D01*
Y-8750D01*
X7800Y-9500D02*X8550Y-8750D01*
X6300Y-9500D02*X7800D01*
X5550Y-8750D02*X6300Y-9500D01*
X12600Y-6500D02*X13350Y-7250D01*
X11100Y-6500D02*X12600D01*
X10350Y-7250D02*X11100Y-6500D01*
X10350Y-7250D02*Y-8750D01*
X11100Y-9500D01*
X13350Y-6500D02*Y-8750D01*
X14100Y-9500D01*
X11100D02*X12600D01*
X13350Y-8750D01*
X16650Y-7250D02*Y-9500D01*
Y-7250D02*X17400Y-6500D01*
X18900D01*
X15900D02*X16650Y-7250D01*
X23700Y-3500D02*Y-9500D01*
X22950D02*X23700Y-8750D01*
X21450Y-9500D02*X22950D01*
X20700Y-8750D02*X21450Y-9500D01*
X20700Y-7250D02*Y-8750D01*
Y-7250D02*X21450Y-6500D01*
X22950D01*
X23700Y-7250D01*
X28200D02*Y-8750D01*
Y-7250D02*X28950Y-6500D01*
X30450D01*
X31200Y-7250D01*
Y-8750D01*
X30450Y-9500D02*X31200Y-8750D01*
X28950Y-9500D02*X30450D01*
X28200Y-8750D02*X28950Y-9500D01*
X33000Y-6500D02*Y-8750D01*
X33750Y-9500D01*
X35250D01*
X36000Y-8750D01*
Y-6500D02*Y-8750D01*
X38550Y-3500D02*Y-8750D01*
X39300Y-9500D01*
X37800Y-5750D02*X39300D01*
X40800Y-3500D02*Y-8750D01*
X41550Y-9500D01*
G54D34*X43050Y-5000D02*Y-5150D01*
G54D33*Y-7250D02*Y-9500D01*
X45300Y-7250D02*Y-9500D01*
Y-7250D02*X46050Y-6500D01*
X46800D01*
X47550Y-7250D01*
Y-9500D01*
X44550Y-6500D02*X45300Y-7250D01*
X50100Y-9500D02*X52350D01*
X49350Y-8750D02*X50100Y-9500D01*
X49350Y-7250D02*Y-8750D01*
Y-7250D02*X50100Y-6500D01*
X51600D01*
X52350Y-7250D01*
X49350Y-8000D02*X52350D01*
Y-7250D02*Y-8000D01*
G54D34*X56850Y-5000D02*Y-5150D01*
G54D33*Y-7250D02*Y-9500D01*
X59100D02*X61350D01*
X62100Y-8750D01*
X61350Y-8000D02*X62100Y-8750D01*
X59100Y-8000D02*X61350D01*
X58350Y-7250D02*X59100Y-8000D01*
X58350Y-7250D02*X59100Y-6500D01*
X61350D01*
X62100Y-7250D01*
X58350Y-8750D02*X59100Y-9500D01*
X67350Y-3500D02*Y-8750D01*
X68100Y-9500D01*
X66600Y-5750D02*X68100D01*
X69600Y-3500D02*Y-9500D01*
Y-7250D02*X70350Y-6500D01*
X71850D01*
X72600Y-7250D01*
Y-9500D01*
X75150D02*X77400D01*
X74400Y-8750D02*X75150Y-9500D01*
X74400Y-7250D02*Y-8750D01*
Y-7250D02*X75150Y-6500D01*
X76650D01*
X77400Y-7250D01*
X74400Y-8000D02*X77400D01*
Y-7250D02*Y-8000D01*
X82650Y-6500D02*X84900D01*
X81900Y-7250D02*X82650Y-6500D01*
X81900Y-7250D02*Y-8750D01*
X82650Y-9500D01*
X84900D01*
X87450D02*X89700D01*
X86700Y-8750D02*X87450Y-9500D01*
X86700Y-7250D02*Y-8750D01*
Y-7250D02*X87450Y-6500D01*
X88950D01*
X89700Y-7250D01*
X86700Y-8000D02*X89700D01*
Y-7250D02*Y-8000D01*
X92250Y-7250D02*Y-9500D01*
Y-7250D02*X93000Y-6500D01*
X93750D01*
X94500Y-7250D01*
Y-9500D01*
X91500Y-6500D02*X92250Y-7250D01*
X97050Y-3500D02*Y-8750D01*
X97800Y-9500D01*
X96300Y-5750D02*X97800D01*
X100050Y-9500D02*X102300D01*
X99300Y-8750D02*X100050Y-9500D01*
X99300Y-7250D02*Y-8750D01*
Y-7250D02*X100050Y-6500D01*
X101550D01*
X102300Y-7250D01*
X99300Y-8000D02*X102300D01*
Y-7250D02*Y-8000D01*
X104850Y-7250D02*Y-9500D01*
Y-7250D02*X105600Y-6500D01*
X107100D01*
X104100D02*X104850Y-7250D01*
X108900Y-3500D02*Y-8750D01*
X109650Y-9500D01*
G54D34*X111150Y-5000D02*Y-5150D01*
G54D33*Y-7250D02*Y-9500D01*
X113400Y-7250D02*Y-9500D01*
Y-7250D02*X114150Y-6500D01*
X114900D01*
X115650Y-7250D01*
Y-9500D01*
X112650Y-6500D02*X113400Y-7250D01*
X118200Y-9500D02*X120450D01*
X117450Y-8750D02*X118200Y-9500D01*
X117450Y-7250D02*Y-8750D01*
Y-7250D02*X118200Y-6500D01*
X119700D01*
X120450Y-7250D01*
X117450Y-8000D02*X120450D01*
Y-7250D02*Y-8000D01*
X124950Y-7250D02*Y-8750D01*
Y-7250D02*X125700Y-6500D01*
X127200D01*
X127950Y-7250D01*
Y-8750D01*
X127200Y-9500D02*X127950Y-8750D01*
X125700Y-9500D02*X127200D01*
X124950Y-8750D02*X125700Y-9500D01*
X130500Y-4250D02*Y-9500D01*
Y-4250D02*X131250Y-3500D01*
X132000D01*
X129750Y-6500D02*X131250D01*
X136950Y-3500D02*Y-8750D01*
X137700Y-9500D01*
X136200Y-5750D02*X137700D01*
X139200Y-3500D02*Y-9500D01*
Y-7250D02*X139950Y-6500D01*
X141450D01*
X142200Y-7250D01*
Y-9500D01*
G54D34*X144000Y-5000D02*Y-5150D01*
G54D33*Y-7250D02*Y-9500D01*
X146250D02*X148500D01*
X149250Y-8750D01*
X148500Y-8000D02*X149250Y-8750D01*
X146250Y-8000D02*X148500D01*
X145500Y-7250D02*X146250Y-8000D01*
X145500Y-7250D02*X146250Y-6500D01*
X148500D01*
X149250Y-7250D01*
X145500Y-8750D02*X146250Y-9500D01*
X154500Y-7250D02*Y-11750D01*
X153750Y-6500D02*X154500Y-7250D01*
X155250Y-6500D01*
X156750D01*
X157500Y-7250D01*
Y-8750D01*
X156750Y-9500D02*X157500Y-8750D01*
X155250Y-9500D02*X156750D01*
X154500Y-8750D02*X155250Y-9500D01*
X161550Y-6500D02*X162300Y-7250D01*
X160050Y-6500D02*X161550D01*
X159300Y-7250D02*X160050Y-6500D01*
X159300Y-7250D02*Y-8750D01*
X160050Y-9500D01*
X162300Y-6500D02*Y-8750D01*
X163050Y-9500D01*
X160050D02*X161550D01*
X162300Y-8750D01*
X165600Y-3500D02*Y-8750D01*
X166350Y-9500D01*
X164850Y-5750D02*X166350D01*
X167850Y-3500D02*Y-9500D01*
Y-7250D02*X168600Y-6500D01*
X170100D01*
X170850Y-7250D01*
Y-9500D01*
X200750Y53500D02*Y47500D01*
X202700Y53500D02*X203750Y52450D01*
Y48550D01*
X202700Y47500D02*X203750Y48550D01*
X200000Y47500D02*X202700D01*
X200000Y53500D02*X202700D01*
X207800Y50500D02*X208550Y49750D01*
X206300Y50500D02*X207800D01*
X205550Y49750D02*X206300Y50500D01*
X205550Y49750D02*Y48250D01*
X206300Y47500D01*
X208550Y50500D02*Y48250D01*
X209300Y47500D01*
X206300D02*X207800D01*
X208550Y48250D01*
X211850Y53500D02*Y48250D01*
X212600Y47500D01*
X211100Y51250D02*X212600D01*
X214850Y47500D02*X217100D01*
X214100Y48250D02*X214850Y47500D01*
X214100Y49750D02*Y48250D01*
Y49750D02*X214850Y50500D01*
X216350D01*
X217100Y49750D01*
X214100Y49000D02*X217100D01*
Y49750D02*Y49000D01*
X218900Y51250D02*X219650D01*
X218900Y49750D02*X219650D01*
X224150Y53500D02*Y47500D01*
Y53500D02*X226400Y50500D01*
X228650Y53500D01*
Y47500D01*
X230450Y49750D02*Y48250D01*
Y49750D02*X231200Y50500D01*
X232700D01*
X233450Y49750D01*
Y48250D01*
X232700Y47500D02*X233450Y48250D01*
X231200Y47500D02*X232700D01*
X230450Y48250D02*X231200Y47500D01*
X236000Y49750D02*Y47500D01*
Y49750D02*X236750Y50500D01*
X237500D01*
X238250Y49750D01*
Y47500D01*
X235250Y50500D02*X236000Y49750D01*
X243800Y53500D02*X245000D01*
Y48250D01*
X244250Y47500D02*X245000Y48250D01*
X243500Y47500D02*X244250D01*
X242750Y48250D02*X243500Y47500D01*
X242750Y49000D02*Y48250D01*
X249050Y50500D02*X249800Y49750D01*
X247550Y50500D02*X249050D01*
X246800Y49750D02*X247550Y50500D01*
X246800Y49750D02*Y48250D01*
X247550Y47500D01*
X249800Y50500D02*Y48250D01*
X250550Y47500D01*
X247550D02*X249050D01*
X249800Y48250D01*
X253100Y49750D02*Y47500D01*
Y49750D02*X253850Y50500D01*
X254600D01*
X255350Y49750D01*
Y47500D01*
X252350Y50500D02*X253100Y49750D01*
X259850Y52750D02*X260600Y53500D01*
X262850D01*
X263600Y52750D01*
Y51250D01*
X259850Y47500D02*X263600Y51250D01*
X259850Y47500D02*X263600D01*
X265400Y52750D02*X266150Y53500D01*
X268400D01*
X269150Y52750D01*
Y51250D01*
X265400Y47500D02*X269150Y51250D01*
X265400Y47500D02*X269150D01*
X273650Y48250D02*X274400Y47500D01*
X273650Y52750D02*Y48250D01*
Y52750D02*X274400Y53500D01*
X275900D01*
X276650Y52750D01*
Y48250D01*
X275900Y47500D02*X276650Y48250D01*
X274400Y47500D02*X275900D01*
X273650Y49000D02*X276650Y52000D01*
X278450Y48250D02*X279200Y47500D01*
X278450Y52750D02*Y48250D01*
Y52750D02*X279200Y53500D01*
X280700D01*
X281450Y52750D01*
Y48250D01*
X280700Y47500D02*X281450Y48250D01*
X279200Y47500D02*X280700D01*
X278450Y49000D02*X281450Y52000D01*
X283250Y51250D02*X284000D01*
X283250Y49750D02*X284000D01*
X285800Y52750D02*X286550Y53500D01*
X288050D01*
X288800Y52750D01*
X288050Y47500D02*X288800Y48250D01*
X286550Y47500D02*X288050D01*
X285800Y48250D02*X286550Y47500D01*
Y50800D02*X288050D01*
X288800Y52750D02*Y51550D01*
Y50050D02*Y48250D01*
Y50050D02*X288050Y50800D01*
X288800Y51550D02*X288050Y50800D01*
X290600Y52300D02*X291800Y53500D01*
Y47500D01*
X290600D02*X292850D01*
X294650Y51250D02*X295400D01*
X294650Y49750D02*X295400D01*
X297200Y52300D02*X298400Y53500D01*
Y47500D01*
X297200D02*X299450D01*
X302000D02*X304250Y50500D01*
Y52750D02*Y50500D01*
X303500Y53500D02*X304250Y52750D01*
X302000Y53500D02*X303500D01*
X301250Y52750D02*X302000Y53500D01*
X301250Y52750D02*Y51250D01*
X302000Y50500D01*
X304250D01*
X308750Y52750D02*X309500Y53500D01*
X311750D01*
X312500Y52750D01*
Y51250D01*
X308750Y47500D02*X312500Y51250D01*
X308750Y47500D02*X312500D01*
X314300Y48250D02*X315050Y47500D01*
X314300Y52750D02*Y48250D01*
Y52750D02*X315050Y53500D01*
X316550D01*
X317300Y52750D01*
Y48250D01*
X316550Y47500D02*X317300Y48250D01*
X315050Y47500D02*X316550D01*
X314300Y49000D02*X317300Y52000D01*
X319100Y52750D02*X319850Y53500D01*
X322100D01*
X322850Y52750D01*
Y51250D01*
X319100Y47500D02*X322850Y51250D01*
X319100Y47500D02*X322850D01*
X324650Y49750D02*X327650Y53500D01*
X324650Y49750D02*X328400D01*
X327650Y53500D02*Y47500D01*
X332900Y53500D02*Y48250D01*
X333650Y47500D01*
X335150D01*
X335900Y48250D01*
Y53500D02*Y48250D01*
X337700Y53500D02*X340700D01*
X339200D02*Y47500D01*
X343550D02*X345500D01*
X342500Y48550D02*X343550Y47500D01*
X342500Y52450D02*Y48550D01*
Y52450D02*X343550Y53500D01*
X345500D01*
X200000Y67000D02*Y62500D01*
Y67000D02*X201050Y68500D01*
X202700D01*
X203750Y67000D01*
Y62500D01*
X200000Y65500D02*X203750D01*
X205550D02*Y63250D01*
X206300Y62500D01*
X207800D01*
X208550Y63250D01*
Y65500D02*Y63250D01*
X211100Y68500D02*Y63250D01*
X211850Y62500D01*
X210350Y66250D02*X211850D01*
X213350Y68500D02*Y62500D01*
Y64750D02*X214100Y65500D01*
X215600D01*
X216350Y64750D01*
Y62500D01*
X218150Y64750D02*Y63250D01*
Y64750D02*X218900Y65500D01*
X220400D01*
X221150Y64750D01*
Y63250D01*
X220400Y62500D02*X221150Y63250D01*
X218900Y62500D02*X220400D01*
X218150Y63250D02*X218900Y62500D01*
X223700Y64750D02*Y62500D01*
Y64750D02*X224450Y65500D01*
X225950D01*
X222950D02*X223700Y64750D01*
X227750Y66250D02*X228500D01*
X227750Y64750D02*X228500D01*
X233000Y68500D02*Y62500D01*
Y68500D02*X235250Y65500D01*
X237500Y68500D01*
Y62500D01*
G54D34*X239300Y67000D02*Y66850D01*
G54D33*Y64750D02*Y62500D01*
X241550Y65500D02*X243800D01*
X240800Y64750D02*X241550Y65500D01*
X240800Y64750D02*Y63250D01*
X241550Y62500D01*
X243800D01*
X245600Y68500D02*Y62500D01*
Y64750D02*X246350Y65500D01*
X247850D01*
X248600Y64750D01*
Y62500D01*
X252650Y65500D02*X253400Y64750D01*
X251150Y65500D02*X252650D01*
X250400Y64750D02*X251150Y65500D01*
X250400Y64750D02*Y63250D01*
X251150Y62500D01*
X253400Y65500D02*Y63250D01*
X254150Y62500D01*
X251150D02*X252650D01*
X253400Y63250D01*
X256700Y62500D02*X258950D01*
X255950Y63250D02*X256700Y62500D01*
X255950Y64750D02*Y63250D01*
Y64750D02*X256700Y65500D01*
X258200D01*
X258950Y64750D01*
X255950Y64000D02*X258950D01*
Y64750D02*Y64000D01*
X260750Y68500D02*Y63250D01*
X261500Y62500D01*
X266450Y68500D02*Y62500D01*
X265700Y68500D02*X268700D01*
X269450Y67750D01*
Y66250D01*
X268700Y65500D02*X269450Y66250D01*
X266450Y65500D02*X268700D01*
X272000Y62500D02*X274250D01*
X271250Y63250D02*X272000Y62500D01*
X271250Y64750D02*Y63250D01*
Y64750D02*X272000Y65500D01*
X273500D01*
X274250Y64750D01*
X271250Y64000D02*X274250D01*
Y64750D02*Y64000D01*
X276800Y68500D02*Y63250D01*
X277550Y62500D01*
X276050Y66250D02*X277550D01*
X279800Y62500D02*X282050D01*
X279050Y63250D02*X279800Y62500D01*
X279050Y64750D02*Y63250D01*
Y64750D02*X279800Y65500D01*
X281300D01*
X282050Y64750D01*
X279050Y64000D02*X282050D01*
Y64750D02*Y64000D01*
X284600Y64750D02*Y62500D01*
Y64750D02*X285350Y65500D01*
X286850D01*
X283850D02*X284600Y64750D01*
X289400Y62500D02*X291650D01*
X292400Y63250D01*
X291650Y64000D02*X292400Y63250D01*
X289400Y64000D02*X291650D01*
X288650Y64750D02*X289400Y64000D01*
X288650Y64750D02*X289400Y65500D01*
X291650D01*
X292400Y64750D01*
X288650Y63250D02*X289400Y62500D01*
X294950D02*X297200D01*
X294200Y63250D02*X294950Y62500D01*
X294200Y64750D02*Y63250D01*
Y64750D02*X294950Y65500D01*
X296450D01*
X297200Y64750D01*
X294200Y64000D02*X297200D01*
Y64750D02*Y64000D01*
X299750Y64750D02*Y62500D01*
Y64750D02*X300500Y65500D01*
X301250D01*
X302000Y64750D01*
Y62500D01*
X299000Y65500D02*X299750Y64750D01*
X200000Y83500D02*X203000D01*
X201500D02*Y77500D01*
G54D34*X204800Y82000D02*Y81850D01*
G54D33*Y79750D02*Y77500D01*
X207050Y83500D02*Y78250D01*
X207800Y77500D01*
X206300Y81250D02*X207800D01*
X209300Y83500D02*Y78250D01*
X210050Y77500D01*
X212300D02*X214550D01*
X211550Y78250D02*X212300Y77500D01*
X211550Y79750D02*Y78250D01*
Y79750D02*X212300Y80500D01*
X213800D01*
X214550Y79750D01*
X211550Y79000D02*X214550D01*
Y79750D02*Y79000D01*
X216350Y81250D02*X217100D01*
X216350Y79750D02*X217100D01*
X221600Y78250D02*X222350Y77500D01*
X221600Y82750D02*X222350Y83500D01*
X221600Y82750D02*Y78250D01*
X224150Y80500D02*Y78250D01*
X224900Y77500D01*
X226400D01*
X227150Y78250D01*
Y80500D02*Y78250D01*
X229700Y79750D02*Y77500D01*
Y79750D02*X230450Y80500D01*
X231200D01*
X231950Y79750D01*
Y77500D01*
X228950Y80500D02*X229700Y79750D01*
X233750Y83500D02*Y77500D01*
Y79750D02*X236000Y77500D01*
X233750Y79750D02*X235250Y81250D01*
X238550Y79750D02*Y77500D01*
Y79750D02*X239300Y80500D01*
X240050D01*
X240800Y79750D01*
Y77500D01*
X237800Y80500D02*X238550Y79750D01*
X242600D02*Y78250D01*
Y79750D02*X243350Y80500D01*
X244850D01*
X245600Y79750D01*
Y78250D01*
X244850Y77500D02*X245600Y78250D01*
X243350Y77500D02*X244850D01*
X242600Y78250D02*X243350Y77500D01*
X247400Y80500D02*Y78250D01*
X248150Y77500D01*
X248900D01*
X249650Y78250D01*
Y80500D02*Y78250D01*
X250400Y77500D01*
X251150D01*
X251900Y78250D01*
Y80500D02*Y78250D01*
X254450Y79750D02*Y77500D01*
Y79750D02*X255200Y80500D01*
X255950D01*
X256700Y79750D01*
Y77500D01*
X253700Y80500D02*X254450Y79750D01*
X258500Y83500D02*X259250Y82750D01*
Y78250D01*
X258500Y77500D02*X259250Y78250D01*
X263750Y80500D02*X266750D01*
X271250Y83500D02*Y77500D01*
Y83500D02*X274250D01*
X271250Y80800D02*X273500D01*
X278300Y80500D02*X279050Y79750D01*
X276800Y80500D02*X278300D01*
X276050Y79750D02*X276800Y80500D01*
X276050Y79750D02*Y78250D01*
X276800Y77500D01*
X279050Y80500D02*Y78250D01*
X279800Y77500D01*
X276800D02*X278300D01*
X279050Y78250D01*
X281600Y83500D02*Y77500D01*
Y78250D02*X282350Y77500D01*
X283850D01*
X284600Y78250D01*
Y79750D02*Y78250D01*
X283850Y80500D02*X284600Y79750D01*
X282350Y80500D02*X283850D01*
X281600Y79750D02*X282350Y80500D01*
X287150Y79750D02*Y77500D01*
Y79750D02*X287900Y80500D01*
X289400D01*
X286400D02*X287150Y79750D01*
G54D34*X291200Y82000D02*Y81850D01*
G54D33*Y79750D02*Y77500D01*
X293450Y80500D02*X295700D01*
X292700Y79750D02*X293450Y80500D01*
X292700Y79750D02*Y78250D01*
X293450Y77500D01*
X295700D01*
X299750Y80500D02*X300500Y79750D01*
X298250Y80500D02*X299750D01*
X297500Y79750D02*X298250Y80500D01*
X297500Y79750D02*Y78250D01*
X298250Y77500D01*
X300500Y80500D02*Y78250D01*
X301250Y77500D01*
X298250D02*X299750D01*
X300500Y78250D01*
X303800Y83500D02*Y78250D01*
X304550Y77500D01*
X303050Y81250D02*X304550D01*
G54D34*X306050Y82000D02*Y81850D01*
G54D33*Y79750D02*Y77500D01*
X307550Y79750D02*Y78250D01*
Y79750D02*X308300Y80500D01*
X309800D01*
X310550Y79750D01*
Y78250D01*
X309800Y77500D02*X310550Y78250D01*
X308300Y77500D02*X309800D01*
X307550Y78250D02*X308300Y77500D01*
X313100Y79750D02*Y77500D01*
Y79750D02*X313850Y80500D01*
X314600D01*
X315350Y79750D01*
Y77500D01*
X312350Y80500D02*X313100Y79750D01*
X320600Y83500D02*Y77500D01*
X322550Y83500D02*X323600Y82450D01*
Y78550D01*
X322550Y77500D02*X323600Y78550D01*
X319850Y77500D02*X322550D01*
X319850Y83500D02*X322550D01*
X326150Y79750D02*Y77500D01*
Y79750D02*X326900Y80500D01*
X328400D01*
X325400D02*X326150Y79750D01*
X332450Y80500D02*X333200Y79750D01*
X330950Y80500D02*X332450D01*
X330200Y79750D02*X330950Y80500D01*
X330200Y79750D02*Y78250D01*
X330950Y77500D01*
X333200Y80500D02*Y78250D01*
X333950Y77500D01*
X330950D02*X332450D01*
X333200Y78250D01*
X335750Y80500D02*Y78250D01*
X336500Y77500D01*
X337250D01*
X338000Y78250D01*
Y80500D02*Y78250D01*
X338750Y77500D01*
X339500D01*
X340250Y78250D01*
Y80500D02*Y78250D01*
G54D34*X342050Y82000D02*Y81850D01*
G54D33*Y79750D02*Y77500D01*
X344300Y79750D02*Y77500D01*
Y79750D02*X345050Y80500D01*
X345800D01*
X346550Y79750D01*
Y77500D01*
X343550Y80500D02*X344300Y79750D01*
X350600Y80500D02*X351350Y79750D01*
X349100Y80500D02*X350600D01*
X348350Y79750D02*X349100Y80500D01*
X348350Y79750D02*Y78250D01*
X349100Y77500D01*
X350600D01*
X351350Y78250D01*
X348350Y76000D02*X349100Y75250D01*
X350600D01*
X351350Y76000D01*
Y80500D02*Y76000D01*
M02*
