G04 start of page 3 for group 1 idx 1 *
G04 Title: (unknown), bottom *
G04 Creator: pcb 20140316 *
G04 CreationDate: Thu 20 Aug 2020 02:40:25 AM GMT UTC *
G04 For: railfan *
G04 Format: Gerber/RS-274X *
G04 PCB-Dimensions (mil): 2500.00 4300.00 *
G04 PCB-Coordinate-Origin: lower left *
%MOIN*%
%FSLAX25Y25*%
%LNBOTTOM*%
%ADD44C,0.0390*%
%ADD43C,0.0140*%
%ADD42C,0.0120*%
%ADD41C,0.0300*%
%ADD40C,0.0240*%
%ADD39C,0.0310*%
%ADD38R,0.0300X0.0300*%
%ADD37C,0.0600*%
%ADD36R,0.0284X0.0284*%
%ADD35C,0.0250*%
%ADD34C,0.0200*%
%ADD33C,0.0100*%
%ADD32C,0.0080*%
%ADD31C,0.0001*%
G54D31*G36*
X152000Y383000D02*Y371000D01*
X139900D01*
Y374803D01*
X140060Y374940D01*
X140285Y375203D01*
X140466Y375498D01*
X140599Y375818D01*
X140680Y376155D01*
X140700Y376500D01*
X140680Y376845D01*
X140599Y377182D01*
X140466Y377502D01*
X140285Y377797D01*
X140060Y378060D01*
X139797Y378285D01*
X139502Y378466D01*
X139182Y378599D01*
X139000Y378642D01*
Y383000D01*
X152000D01*
G37*
G36*
X140000D02*X238000D01*
Y362000D01*
X215621D01*
X216519Y362898D01*
X216564Y362936D01*
X216717Y363115D01*
X216717Y363116D01*
X216841Y363317D01*
X216931Y363535D01*
X216986Y363765D01*
X217005Y364000D01*
X217000Y364059D01*
Y372441D01*
X217005Y372500D01*
X216986Y372735D01*
X216931Y372965D01*
X216841Y373183D01*
X216717Y373384D01*
X216564Y373564D01*
X216519Y373602D01*
X215102Y375019D01*
X215064Y375064D01*
X214884Y375217D01*
X214683Y375341D01*
X214465Y375431D01*
X214235Y375486D01*
X214000Y375505D01*
X213941Y375500D01*
X212059D01*
X212000Y375505D01*
X211765Y375486D01*
X211535Y375431D01*
X211317Y375341D01*
X211116Y375217D01*
X211115Y375217D01*
X210936Y375064D01*
X210898Y375019D01*
X209579Y373701D01*
X209500Y373707D01*
X209155Y373680D01*
X208818Y373599D01*
X208498Y373466D01*
X208203Y373285D01*
X207940Y373060D01*
X207715Y372797D01*
X207534Y372502D01*
X207401Y372182D01*
X207320Y371845D01*
X207293Y371500D01*
X207320Y371155D01*
X207401Y370818D01*
X207534Y370498D01*
X207715Y370203D01*
X207940Y369940D01*
X208203Y369715D01*
X208498Y369534D01*
X208818Y369401D01*
X209155Y369320D01*
X209500Y369293D01*
X209845Y369320D01*
X210182Y369401D01*
X210502Y369534D01*
X210797Y369715D01*
X211060Y369940D01*
X211250Y370162D01*
X211440Y369940D01*
X211600Y369803D01*
Y366080D01*
X211420Y365900D01*
X140580D01*
X140000Y366480D01*
Y374888D01*
X140060Y374940D01*
X140285Y375203D01*
X140466Y375498D01*
X140599Y375818D01*
X140680Y376155D01*
X140700Y376500D01*
X140680Y376845D01*
X140599Y377182D01*
X140466Y377502D01*
X140285Y377797D01*
X140060Y378060D01*
X140000Y378112D01*
Y383000D01*
G37*
G36*
Y348000D02*X238000D01*
Y327000D01*
X215621D01*
X216519Y327898D01*
X216564Y327936D01*
X216717Y328115D01*
X216717Y328116D01*
X216841Y328317D01*
X216931Y328535D01*
X216986Y328765D01*
X217005Y329000D01*
X217000Y329059D01*
Y337441D01*
X217005Y337500D01*
X216986Y337735D01*
X216931Y337965D01*
X216841Y338183D01*
X216717Y338384D01*
X216564Y338564D01*
X216519Y338602D01*
X215102Y340019D01*
X215064Y340064D01*
X214884Y340217D01*
X214683Y340341D01*
X214465Y340431D01*
X214235Y340486D01*
X214000Y340505D01*
X213941Y340500D01*
X212059D01*
X212000Y340505D01*
X211765Y340486D01*
X211535Y340431D01*
X211317Y340341D01*
X211116Y340217D01*
X211115Y340217D01*
X210936Y340064D01*
X210898Y340019D01*
X209579Y338701D01*
X209500Y338707D01*
X209155Y338680D01*
X208818Y338599D01*
X208498Y338466D01*
X208203Y338285D01*
X207940Y338060D01*
X207715Y337797D01*
X207534Y337502D01*
X207401Y337182D01*
X207320Y336845D01*
X207293Y336500D01*
X207320Y336155D01*
X207401Y335818D01*
X207534Y335498D01*
X207715Y335203D01*
X207940Y334940D01*
X208203Y334715D01*
X208498Y334534D01*
X208818Y334401D01*
X209155Y334320D01*
X209500Y334293D01*
X209845Y334320D01*
X210182Y334401D01*
X210502Y334534D01*
X210797Y334715D01*
X211060Y334940D01*
X211250Y335162D01*
X211440Y334940D01*
X211600Y334803D01*
Y331080D01*
X211420Y330900D01*
X140580D01*
X140000Y331480D01*
Y339888D01*
X140060Y339940D01*
X140285Y340203D01*
X140466Y340498D01*
X140599Y340818D01*
X140680Y341155D01*
X140700Y341500D01*
X140680Y341845D01*
X140599Y342182D01*
X140466Y342502D01*
X140285Y342797D01*
X140060Y343060D01*
X140000Y343112D01*
Y348000D01*
G37*
G36*
Y313000D02*X238000D01*
Y292000D01*
X215621D01*
X216519Y292898D01*
X216564Y292936D01*
X216717Y293115D01*
X216717Y293116D01*
X216841Y293317D01*
X216931Y293535D01*
X216986Y293765D01*
X217005Y294000D01*
X217000Y294059D01*
Y302441D01*
X217005Y302500D01*
X216986Y302735D01*
X216931Y302965D01*
X216841Y303183D01*
X216717Y303384D01*
X216564Y303564D01*
X216519Y303602D01*
X215102Y305019D01*
X215064Y305064D01*
X214884Y305217D01*
X214683Y305341D01*
X214465Y305431D01*
X214235Y305486D01*
X214000Y305505D01*
X213941Y305500D01*
X212059D01*
X212000Y305505D01*
X211765Y305486D01*
X211535Y305431D01*
X211317Y305341D01*
X211116Y305217D01*
X211115Y305217D01*
X210936Y305064D01*
X210898Y305019D01*
X209579Y303701D01*
X209500Y303707D01*
X209155Y303680D01*
X208818Y303599D01*
X208498Y303466D01*
X208203Y303285D01*
X207940Y303060D01*
X207715Y302797D01*
X207534Y302502D01*
X207401Y302182D01*
X207320Y301845D01*
X207293Y301500D01*
X207320Y301155D01*
X207401Y300818D01*
X207534Y300498D01*
X207715Y300203D01*
X207940Y299940D01*
X208203Y299715D01*
X208498Y299534D01*
X208818Y299401D01*
X209155Y299320D01*
X209500Y299293D01*
X209845Y299320D01*
X210182Y299401D01*
X210502Y299534D01*
X210797Y299715D01*
X211060Y299940D01*
X211250Y300162D01*
X211440Y299940D01*
X211600Y299803D01*
Y296080D01*
X211420Y295900D01*
X140580D01*
X140000Y296480D01*
Y304888D01*
X140060Y304940D01*
X140285Y305203D01*
X140466Y305498D01*
X140599Y305818D01*
X140680Y306155D01*
X140700Y306500D01*
X140680Y306845D01*
X140599Y307182D01*
X140466Y307502D01*
X140285Y307797D01*
X140060Y308060D01*
X140000Y308112D01*
Y313000D01*
G37*
G36*
Y278000D02*X238000D01*
Y257000D01*
X215621D01*
X216519Y257898D01*
X216564Y257936D01*
X216717Y258115D01*
X216717Y258116D01*
X216841Y258317D01*
X216931Y258535D01*
X216986Y258765D01*
X217005Y259000D01*
X217000Y259059D01*
Y267441D01*
X217005Y267500D01*
X216986Y267735D01*
X216931Y267965D01*
X216841Y268183D01*
X216717Y268384D01*
X216564Y268564D01*
X216519Y268602D01*
X215102Y270019D01*
X215064Y270064D01*
X214884Y270217D01*
X214683Y270341D01*
X214465Y270431D01*
X214235Y270486D01*
X214000Y270505D01*
X213941Y270500D01*
X212059D01*
X212000Y270505D01*
X211765Y270486D01*
X211535Y270431D01*
X211317Y270341D01*
X211116Y270217D01*
X211115Y270217D01*
X210936Y270064D01*
X210898Y270019D01*
X209579Y268701D01*
X209500Y268707D01*
X209155Y268680D01*
X208818Y268599D01*
X208498Y268466D01*
X208203Y268285D01*
X207940Y268060D01*
X207715Y267797D01*
X207534Y267502D01*
X207401Y267182D01*
X207320Y266845D01*
X207293Y266500D01*
X207320Y266155D01*
X207401Y265818D01*
X207534Y265498D01*
X207715Y265203D01*
X207940Y264940D01*
X208203Y264715D01*
X208498Y264534D01*
X208818Y264401D01*
X209155Y264320D01*
X209500Y264293D01*
X209845Y264320D01*
X210182Y264401D01*
X210502Y264534D01*
X210797Y264715D01*
X211060Y264940D01*
X211250Y265162D01*
X211440Y264940D01*
X211600Y264803D01*
Y261080D01*
X211420Y260900D01*
X140580D01*
X140000Y261480D01*
Y269888D01*
X140060Y269940D01*
X140285Y270203D01*
X140466Y270498D01*
X140599Y270818D01*
X140680Y271155D01*
X140700Y271500D01*
X140680Y271845D01*
X140599Y272182D01*
X140466Y272502D01*
X140285Y272797D01*
X140060Y273060D01*
X140000Y273112D01*
Y278000D01*
G37*
G36*
Y243000D02*X238000D01*
Y222000D01*
X215621D01*
X216519Y222898D01*
X216564Y222936D01*
X216717Y223115D01*
X216717Y223116D01*
X216841Y223317D01*
X216931Y223535D01*
X216986Y223765D01*
X217005Y224000D01*
X217000Y224059D01*
Y232441D01*
X217005Y232500D01*
X216986Y232735D01*
X216931Y232965D01*
X216841Y233183D01*
X216717Y233384D01*
X216564Y233564D01*
X216519Y233602D01*
X215102Y235019D01*
X215064Y235064D01*
X214884Y235217D01*
X214683Y235341D01*
X214465Y235431D01*
X214235Y235486D01*
X214000Y235505D01*
X213941Y235500D01*
X212059D01*
X212000Y235505D01*
X211765Y235486D01*
X211535Y235431D01*
X211317Y235341D01*
X211116Y235217D01*
X211115Y235217D01*
X210936Y235064D01*
X210898Y235019D01*
X209579Y233701D01*
X209500Y233707D01*
X209155Y233680D01*
X208818Y233599D01*
X208498Y233466D01*
X208203Y233285D01*
X207940Y233060D01*
X207715Y232797D01*
X207534Y232502D01*
X207401Y232182D01*
X207320Y231845D01*
X207293Y231500D01*
X207320Y231155D01*
X207401Y230818D01*
X207534Y230498D01*
X207715Y230203D01*
X207940Y229940D01*
X208203Y229715D01*
X208498Y229534D01*
X208818Y229401D01*
X209155Y229320D01*
X209500Y229293D01*
X209845Y229320D01*
X210182Y229401D01*
X210502Y229534D01*
X210797Y229715D01*
X211060Y229940D01*
X211250Y230162D01*
X211440Y229940D01*
X211600Y229803D01*
Y226080D01*
X211420Y225900D01*
X140580D01*
X140000Y226480D01*
Y234888D01*
X140060Y234940D01*
X140285Y235203D01*
X140466Y235498D01*
X140599Y235818D01*
X140680Y236155D01*
X140700Y236500D01*
X140680Y236845D01*
X140599Y237182D01*
X140466Y237502D01*
X140285Y237797D01*
X140060Y238060D01*
X140000Y238112D01*
Y243000D01*
G37*
G36*
Y208000D02*X238000D01*
Y187000D01*
X215621D01*
X216519Y187898D01*
X216564Y187936D01*
X216717Y188115D01*
X216717Y188116D01*
X216841Y188317D01*
X216931Y188535D01*
X216986Y188765D01*
X217005Y189000D01*
X217000Y189059D01*
Y197441D01*
X217005Y197500D01*
X216986Y197735D01*
X216931Y197965D01*
X216841Y198183D01*
X216717Y198384D01*
X216564Y198564D01*
X216519Y198602D01*
X215102Y200019D01*
X215064Y200064D01*
X214884Y200217D01*
X214683Y200341D01*
X214465Y200431D01*
X214235Y200486D01*
X214000Y200505D01*
X213941Y200500D01*
X212059D01*
X212000Y200505D01*
X211765Y200486D01*
X211535Y200431D01*
X211317Y200341D01*
X211116Y200217D01*
X211115Y200217D01*
X210936Y200064D01*
X210898Y200019D01*
X209579Y198701D01*
X209500Y198707D01*
X209155Y198680D01*
X208818Y198599D01*
X208498Y198466D01*
X208203Y198285D01*
X207940Y198060D01*
X207715Y197797D01*
X207534Y197502D01*
X207401Y197182D01*
X207320Y196845D01*
X207293Y196500D01*
X207320Y196155D01*
X207401Y195818D01*
X207534Y195498D01*
X207715Y195203D01*
X207940Y194940D01*
X208203Y194715D01*
X208498Y194534D01*
X208818Y194401D01*
X209155Y194320D01*
X209500Y194293D01*
X209845Y194320D01*
X210182Y194401D01*
X210502Y194534D01*
X210797Y194715D01*
X211060Y194940D01*
X211250Y195162D01*
X211440Y194940D01*
X211600Y194803D01*
Y191080D01*
X211420Y190900D01*
X140580D01*
X140000Y191480D01*
Y199888D01*
X140060Y199940D01*
X140285Y200203D01*
X140466Y200498D01*
X140599Y200818D01*
X140680Y201155D01*
X140700Y201500D01*
X140680Y201845D01*
X140599Y202182D01*
X140466Y202502D01*
X140285Y202797D01*
X140060Y203060D01*
X140000Y203112D01*
Y208000D01*
G37*
G36*
Y173000D02*X238000D01*
Y152000D01*
X215621D01*
X216519Y152898D01*
X216564Y152936D01*
X216717Y153115D01*
X216717Y153116D01*
X216841Y153317D01*
X216931Y153535D01*
X216986Y153765D01*
X217005Y154000D01*
X217000Y154059D01*
Y162441D01*
X217005Y162500D01*
X216986Y162735D01*
X216931Y162965D01*
X216841Y163183D01*
X216717Y163384D01*
X216564Y163564D01*
X216519Y163602D01*
X215102Y165019D01*
X215064Y165064D01*
X214884Y165217D01*
X214683Y165341D01*
X214465Y165431D01*
X214235Y165486D01*
X214000Y165505D01*
X213941Y165500D01*
X212059D01*
X212000Y165505D01*
X211765Y165486D01*
X211535Y165431D01*
X211317Y165341D01*
X211116Y165217D01*
X211115Y165217D01*
X210936Y165064D01*
X210898Y165019D01*
X209579Y163701D01*
X209500Y163707D01*
X209155Y163680D01*
X208818Y163599D01*
X208498Y163466D01*
X208203Y163285D01*
X207940Y163060D01*
X207715Y162797D01*
X207534Y162502D01*
X207401Y162182D01*
X207320Y161845D01*
X207293Y161500D01*
X207320Y161155D01*
X207401Y160818D01*
X207534Y160498D01*
X207715Y160203D01*
X207940Y159940D01*
X208203Y159715D01*
X208498Y159534D01*
X208818Y159401D01*
X209155Y159320D01*
X209500Y159293D01*
X209845Y159320D01*
X210182Y159401D01*
X210502Y159534D01*
X210797Y159715D01*
X211060Y159940D01*
X211250Y160162D01*
X211440Y159940D01*
X211600Y159803D01*
Y156080D01*
X211420Y155900D01*
X140580D01*
X140000Y156480D01*
Y164888D01*
X140060Y164940D01*
X140285Y165203D01*
X140466Y165498D01*
X140599Y165818D01*
X140680Y166155D01*
X140700Y166500D01*
X140680Y166845D01*
X140599Y167182D01*
X140466Y167502D01*
X140285Y167797D01*
X140060Y168060D01*
X140000Y168112D01*
Y173000D01*
G37*
G36*
Y138000D02*X238000D01*
Y117000D01*
X215621D01*
X216519Y117898D01*
X216564Y117936D01*
X216717Y118115D01*
X216717Y118116D01*
X216841Y118317D01*
X216931Y118535D01*
X216986Y118765D01*
X217005Y119000D01*
X217000Y119059D01*
Y127441D01*
X217005Y127500D01*
X216986Y127735D01*
X216931Y127965D01*
X216841Y128183D01*
X216717Y128384D01*
X216564Y128564D01*
X216519Y128602D01*
X215102Y130019D01*
X215064Y130064D01*
X214884Y130217D01*
X214683Y130341D01*
X214465Y130431D01*
X214235Y130486D01*
X214000Y130505D01*
X213941Y130500D01*
X212059D01*
X212000Y130505D01*
X211765Y130486D01*
X211535Y130431D01*
X211317Y130341D01*
X211116Y130217D01*
X211115Y130217D01*
X210936Y130064D01*
X210898Y130019D01*
X209579Y128701D01*
X209500Y128707D01*
X209155Y128680D01*
X208818Y128599D01*
X208498Y128466D01*
X208203Y128285D01*
X207940Y128060D01*
X207715Y127797D01*
X207534Y127502D01*
X207401Y127182D01*
X207320Y126845D01*
X207293Y126500D01*
X207320Y126155D01*
X207401Y125818D01*
X207534Y125498D01*
X207715Y125203D01*
X207940Y124940D01*
X208203Y124715D01*
X208498Y124534D01*
X208818Y124401D01*
X209155Y124320D01*
X209500Y124293D01*
X209845Y124320D01*
X210182Y124401D01*
X210502Y124534D01*
X210797Y124715D01*
X211060Y124940D01*
X211250Y125162D01*
X211440Y124940D01*
X211600Y124803D01*
Y121080D01*
X211420Y120900D01*
X140580D01*
X140000Y121480D01*
Y129888D01*
X140060Y129940D01*
X140285Y130203D01*
X140466Y130498D01*
X140599Y130818D01*
X140680Y131155D01*
X140700Y131500D01*
X140680Y131845D01*
X140599Y132182D01*
X140466Y132502D01*
X140285Y132797D01*
X140060Y133060D01*
X140000Y133112D01*
Y138000D01*
G37*
G36*
Y103000D02*X238000D01*
Y82000D01*
X215621D01*
X216519Y82898D01*
X216564Y82936D01*
X216717Y83115D01*
X216717Y83116D01*
X216841Y83317D01*
X216931Y83535D01*
X216986Y83765D01*
X217005Y84000D01*
X217000Y84059D01*
Y92441D01*
X217005Y92500D01*
X216986Y92735D01*
X216931Y92965D01*
X216841Y93183D01*
X216717Y93384D01*
X216564Y93564D01*
X216519Y93602D01*
X215102Y95019D01*
X215064Y95064D01*
X214884Y95217D01*
X214683Y95341D01*
X214465Y95431D01*
X214235Y95486D01*
X214000Y95505D01*
X213941Y95500D01*
X212059D01*
X212000Y95505D01*
X211765Y95486D01*
X211535Y95431D01*
X211317Y95341D01*
X211116Y95217D01*
X211115Y95217D01*
X210936Y95064D01*
X210898Y95019D01*
X209579Y93701D01*
X209500Y93707D01*
X209155Y93680D01*
X208818Y93599D01*
X208498Y93466D01*
X208203Y93285D01*
X207940Y93060D01*
X207715Y92797D01*
X207534Y92502D01*
X207401Y92182D01*
X207320Y91845D01*
X207293Y91500D01*
X207320Y91155D01*
X207401Y90818D01*
X207534Y90498D01*
X207715Y90203D01*
X207940Y89940D01*
X208203Y89715D01*
X208498Y89534D01*
X208818Y89401D01*
X209155Y89320D01*
X209500Y89293D01*
X209845Y89320D01*
X210182Y89401D01*
X210502Y89534D01*
X210797Y89715D01*
X211060Y89940D01*
X211250Y90162D01*
X211440Y89940D01*
X211600Y89803D01*
Y86080D01*
X211420Y85900D01*
X140580D01*
X140000Y86480D01*
Y94888D01*
X140060Y94940D01*
X140285Y95203D01*
X140466Y95498D01*
X140599Y95818D01*
X140680Y96155D01*
X140700Y96500D01*
X140680Y96845D01*
X140599Y97182D01*
X140466Y97502D01*
X140285Y97797D01*
X140060Y98060D01*
X140000Y98112D01*
Y103000D01*
G37*
G36*
Y68000D02*X238000D01*
Y47000D01*
X215621D01*
X216519Y47898D01*
X216564Y47936D01*
X216717Y48115D01*
X216717Y48116D01*
X216841Y48317D01*
X216931Y48535D01*
X216986Y48765D01*
X217005Y49000D01*
X217000Y49059D01*
Y57441D01*
X217005Y57500D01*
X216986Y57735D01*
X216931Y57965D01*
X216841Y58183D01*
X216717Y58384D01*
X216564Y58564D01*
X216519Y58602D01*
X215102Y60019D01*
X215064Y60064D01*
X214884Y60217D01*
X214683Y60341D01*
X214465Y60431D01*
X214235Y60486D01*
X214000Y60505D01*
X213941Y60500D01*
X212059D01*
X212000Y60505D01*
X211765Y60486D01*
X211535Y60431D01*
X211317Y60341D01*
X211116Y60217D01*
X211115Y60217D01*
X210936Y60064D01*
X210898Y60019D01*
X209579Y58701D01*
X209500Y58707D01*
X209155Y58680D01*
X208818Y58599D01*
X208498Y58466D01*
X208203Y58285D01*
X207940Y58060D01*
X207715Y57797D01*
X207534Y57502D01*
X207401Y57182D01*
X207320Y56845D01*
X207293Y56500D01*
X207320Y56155D01*
X207401Y55818D01*
X207534Y55498D01*
X207715Y55203D01*
X207940Y54940D01*
X208203Y54715D01*
X208498Y54534D01*
X208818Y54401D01*
X209155Y54320D01*
X209500Y54293D01*
X209845Y54320D01*
X210182Y54401D01*
X210502Y54534D01*
X210797Y54715D01*
X211060Y54940D01*
X211250Y55162D01*
X211440Y54940D01*
X211600Y54803D01*
Y51080D01*
X211420Y50900D01*
X140580D01*
X140000Y51480D01*
Y59888D01*
X140060Y59940D01*
X140285Y60203D01*
X140466Y60498D01*
X140599Y60818D01*
X140680Y61155D01*
X140700Y61500D01*
X140680Y61845D01*
X140599Y62182D01*
X140466Y62502D01*
X140285Y62797D01*
X140060Y63060D01*
X140000Y63112D01*
Y68000D01*
G37*
G36*
Y33000D02*X238000D01*
Y12000D01*
X215621D01*
X216519Y12898D01*
X216564Y12936D01*
X216717Y13115D01*
X216717Y13116D01*
X216841Y13317D01*
X216931Y13535D01*
X216986Y13765D01*
X217005Y14000D01*
X217000Y14059D01*
Y22441D01*
X217005Y22500D01*
X216986Y22735D01*
X216931Y22965D01*
X216841Y23183D01*
X216717Y23384D01*
X216564Y23564D01*
X216519Y23602D01*
X215102Y25019D01*
X215064Y25064D01*
X214884Y25217D01*
X214683Y25341D01*
X214465Y25431D01*
X214235Y25486D01*
X214000Y25505D01*
X213941Y25500D01*
X212059D01*
X212000Y25505D01*
X211765Y25486D01*
X211535Y25431D01*
X211317Y25341D01*
X211116Y25217D01*
X211115Y25217D01*
X210936Y25064D01*
X210898Y25019D01*
X209579Y23701D01*
X209500Y23707D01*
X209155Y23680D01*
X208818Y23599D01*
X208498Y23466D01*
X208203Y23285D01*
X207940Y23060D01*
X207715Y22797D01*
X207534Y22502D01*
X207401Y22182D01*
X207320Y21845D01*
X207293Y21500D01*
X207320Y21155D01*
X207401Y20818D01*
X207534Y20498D01*
X207715Y20203D01*
X207940Y19940D01*
X208203Y19715D01*
X208498Y19534D01*
X208818Y19401D01*
X209155Y19320D01*
X209500Y19293D01*
X209845Y19320D01*
X210182Y19401D01*
X210502Y19534D01*
X210797Y19715D01*
X211060Y19940D01*
X211250Y20162D01*
X211440Y19940D01*
X211600Y19803D01*
Y16080D01*
X211420Y15900D01*
X140580D01*
X140000Y16480D01*
Y24888D01*
X140060Y24940D01*
X140285Y25203D01*
X140466Y25498D01*
X140599Y25818D01*
X140680Y26155D01*
X140700Y26500D01*
X140680Y26845D01*
X140599Y27182D01*
X140466Y27502D01*
X140285Y27797D01*
X140060Y28060D01*
X140000Y28112D01*
Y33000D01*
G37*
G36*
X129000Y327000D02*Y330379D01*
X129121Y330500D01*
X133000D01*
Y327000D01*
X129000D01*
G37*
G36*
X152000Y348000D02*Y336000D01*
X139900D01*
Y339803D01*
X140060Y339940D01*
X140285Y340203D01*
X140466Y340498D01*
X140599Y340818D01*
X140680Y341155D01*
X140700Y341500D01*
X140680Y341845D01*
X140599Y342182D01*
X140466Y342502D01*
X140285Y342797D01*
X140060Y343060D01*
X139797Y343285D01*
X139502Y343466D01*
X139182Y343599D01*
X139000Y343642D01*
Y348000D01*
X152000D01*
G37*
G36*
X98000D02*X152000D01*
Y344000D01*
X124507D01*
X124273Y344273D01*
X123974Y344529D01*
X123638Y344734D01*
X123275Y344885D01*
X122892Y344977D01*
X122500Y345008D01*
X122108Y344977D01*
X121725Y344885D01*
X121399Y344750D01*
X119088D01*
X119000Y344757D01*
X118647Y344729D01*
X118303Y344646D01*
X117975Y344511D01*
X117673Y344326D01*
X117673Y344326D01*
X117404Y344096D01*
X117347Y344029D01*
X117318Y344000D01*
X115323D01*
X115179Y344123D01*
X114911Y344288D01*
X114620Y344408D01*
X114314Y344481D01*
X114000Y344506D01*
X113686Y344481D01*
X113380Y344408D01*
X113089Y344288D01*
X112821Y344123D01*
X112677Y344000D01*
X103066D01*
X102843Y344137D01*
X102414Y344314D01*
X101963Y344423D01*
X101500Y344459D01*
X101037Y344423D01*
X100586Y344314D01*
X100157Y344137D01*
X99934Y344000D01*
X98000D01*
Y348000D01*
G37*
G36*
X129000Y292000D02*Y295379D01*
X129121Y295500D01*
X133000D01*
Y292000D01*
X129000D01*
G37*
G36*
X152000Y313000D02*Y301000D01*
X139900D01*
Y304803D01*
X140060Y304940D01*
X140285Y305203D01*
X140466Y305498D01*
X140599Y305818D01*
X140680Y306155D01*
X140700Y306500D01*
X140680Y306845D01*
X140599Y307182D01*
X140466Y307502D01*
X140285Y307797D01*
X140060Y308060D01*
X139797Y308285D01*
X139502Y308466D01*
X139182Y308599D01*
X139000Y308642D01*
Y313000D01*
X152000D01*
G37*
G36*
X98000D02*X152000D01*
Y309000D01*
X124507D01*
X124273Y309273D01*
X123974Y309529D01*
X123638Y309734D01*
X123275Y309885D01*
X122892Y309977D01*
X122500Y310008D01*
X122108Y309977D01*
X121725Y309885D01*
X121399Y309750D01*
X119088D01*
X119000Y309757D01*
X118647Y309729D01*
X118303Y309646D01*
X117975Y309511D01*
X117673Y309326D01*
X117673Y309326D01*
X117404Y309096D01*
X117347Y309029D01*
X117318Y309000D01*
X115323D01*
X115179Y309123D01*
X114911Y309288D01*
X114620Y309408D01*
X114314Y309481D01*
X114000Y309506D01*
X113686Y309481D01*
X113380Y309408D01*
X113089Y309288D01*
X112821Y309123D01*
X112677Y309000D01*
X103066D01*
X102843Y309137D01*
X102414Y309314D01*
X101963Y309423D01*
X101500Y309459D01*
X101037Y309423D01*
X100586Y309314D01*
X100157Y309137D01*
X99934Y309000D01*
X98000D01*
Y313000D01*
G37*
G36*
X152000Y278000D02*Y266000D01*
X139900D01*
Y269803D01*
X140060Y269940D01*
X140285Y270203D01*
X140466Y270498D01*
X140599Y270818D01*
X140680Y271155D01*
X140700Y271500D01*
X140680Y271845D01*
X140599Y272182D01*
X140466Y272502D01*
X140285Y272797D01*
X140060Y273060D01*
X139797Y273285D01*
X139502Y273466D01*
X139182Y273599D01*
X139000Y273642D01*
Y278000D01*
X152000D01*
G37*
G36*
X98000D02*X152000D01*
Y274000D01*
X124507D01*
X124273Y274273D01*
X123974Y274529D01*
X123638Y274734D01*
X123275Y274885D01*
X122892Y274977D01*
X122500Y275008D01*
X122108Y274977D01*
X121725Y274885D01*
X121399Y274750D01*
X119088D01*
X119000Y274757D01*
X118647Y274729D01*
X118303Y274646D01*
X117975Y274511D01*
X117673Y274326D01*
X117673Y274326D01*
X117404Y274096D01*
X117347Y274029D01*
X117318Y274000D01*
X115323D01*
X115179Y274123D01*
X114911Y274288D01*
X114620Y274408D01*
X114314Y274481D01*
X114000Y274506D01*
X113686Y274481D01*
X113380Y274408D01*
X113089Y274288D01*
X112821Y274123D01*
X112677Y274000D01*
X103066D01*
X102843Y274137D01*
X102414Y274314D01*
X101963Y274423D01*
X101500Y274459D01*
X101037Y274423D01*
X100586Y274314D01*
X100157Y274137D01*
X99934Y274000D01*
X98000D01*
Y278000D01*
G37*
G36*
Y173000D02*X152000D01*
Y169000D01*
X124507D01*
X124273Y169273D01*
X123974Y169529D01*
X123638Y169734D01*
X123275Y169885D01*
X122892Y169977D01*
X122500Y170008D01*
X122108Y169977D01*
X121725Y169885D01*
X121399Y169750D01*
X119088D01*
X119000Y169757D01*
X118647Y169729D01*
X118303Y169646D01*
X117975Y169511D01*
X117673Y169326D01*
X117673Y169326D01*
X117404Y169096D01*
X117347Y169029D01*
X117318Y169000D01*
X115323D01*
X115179Y169123D01*
X114911Y169288D01*
X114620Y169408D01*
X114314Y169481D01*
X114000Y169506D01*
X113686Y169481D01*
X113380Y169408D01*
X113089Y169288D01*
X112821Y169123D01*
X112677Y169000D01*
X103066D01*
X102843Y169137D01*
X102414Y169314D01*
X101963Y169423D01*
X101500Y169459D01*
X101037Y169423D01*
X100586Y169314D01*
X100157Y169137D01*
X99934Y169000D01*
X98000D01*
Y173000D01*
G37*
G36*
Y138000D02*X152000D01*
Y134000D01*
X124507D01*
X124273Y134273D01*
X123974Y134529D01*
X123638Y134734D01*
X123275Y134885D01*
X122892Y134977D01*
X122500Y135008D01*
X122108Y134977D01*
X121725Y134885D01*
X121399Y134750D01*
X119088D01*
X119000Y134757D01*
X118647Y134729D01*
X118303Y134646D01*
X117975Y134511D01*
X117673Y134326D01*
X117673Y134326D01*
X117404Y134096D01*
X117347Y134029D01*
X117318Y134000D01*
X115323D01*
X115179Y134123D01*
X114911Y134288D01*
X114620Y134408D01*
X114314Y134481D01*
X114000Y134506D01*
X113686Y134481D01*
X113380Y134408D01*
X113089Y134288D01*
X112821Y134123D01*
X112677Y134000D01*
X103066D01*
X102843Y134137D01*
X102414Y134314D01*
X101963Y134423D01*
X101500Y134459D01*
X101037Y134423D01*
X100586Y134314D01*
X100157Y134137D01*
X99934Y134000D01*
X98000D01*
Y138000D01*
G37*
G36*
Y103000D02*X152000D01*
Y99000D01*
X124507D01*
X124273Y99273D01*
X123974Y99529D01*
X123638Y99734D01*
X123275Y99885D01*
X122892Y99977D01*
X122500Y100008D01*
X122108Y99977D01*
X121725Y99885D01*
X121399Y99750D01*
X119088D01*
X119000Y99757D01*
X118647Y99729D01*
X118303Y99646D01*
X117975Y99511D01*
X117673Y99326D01*
X117673Y99326D01*
X117404Y99096D01*
X117347Y99029D01*
X117318Y99000D01*
X115323D01*
X115179Y99123D01*
X114911Y99288D01*
X114620Y99408D01*
X114314Y99481D01*
X114000Y99506D01*
X113686Y99481D01*
X113380Y99408D01*
X113089Y99288D01*
X112821Y99123D01*
X112677Y99000D01*
X103066D01*
X102843Y99137D01*
X102414Y99314D01*
X101963Y99423D01*
X101500Y99459D01*
X101037Y99423D01*
X100586Y99314D01*
X100157Y99137D01*
X99934Y99000D01*
X98000D01*
Y103000D01*
G37*
G36*
Y68000D02*X152000D01*
Y64000D01*
X124507D01*
X124273Y64273D01*
X123974Y64529D01*
X123638Y64734D01*
X123275Y64885D01*
X122892Y64977D01*
X122500Y65008D01*
X122108Y64977D01*
X121725Y64885D01*
X121399Y64750D01*
X119088D01*
X119000Y64757D01*
X118647Y64729D01*
X118303Y64646D01*
X117975Y64511D01*
X117673Y64326D01*
X117673Y64326D01*
X117404Y64096D01*
X117347Y64029D01*
X117318Y64000D01*
X115323D01*
X115179Y64123D01*
X114911Y64288D01*
X114620Y64408D01*
X114314Y64481D01*
X114000Y64506D01*
X113686Y64481D01*
X113380Y64408D01*
X113089Y64288D01*
X112821Y64123D01*
X112677Y64000D01*
X103066D01*
X102843Y64137D01*
X102414Y64314D01*
X101963Y64423D01*
X101500Y64459D01*
X101037Y64423D01*
X100586Y64314D01*
X100157Y64137D01*
X99934Y64000D01*
X98000D01*
Y68000D01*
G37*
G36*
Y33000D02*X152000D01*
Y29000D01*
X124507D01*
X124273Y29273D01*
X123974Y29529D01*
X123638Y29734D01*
X123275Y29885D01*
X122892Y29977D01*
X122500Y30008D01*
X122108Y29977D01*
X121725Y29885D01*
X121399Y29750D01*
X119088D01*
X119000Y29757D01*
X118647Y29729D01*
X118303Y29646D01*
X117975Y29511D01*
X117673Y29326D01*
X117673Y29326D01*
X117404Y29096D01*
X117347Y29029D01*
X117318Y29000D01*
X115323D01*
X115179Y29123D01*
X114911Y29288D01*
X114620Y29408D01*
X114314Y29481D01*
X114000Y29506D01*
X113686Y29481D01*
X113380Y29408D01*
X113089Y29288D01*
X112821Y29123D01*
X112677Y29000D01*
X103066D01*
X102843Y29137D01*
X102414Y29314D01*
X101963Y29423D01*
X101500Y29459D01*
X101037Y29423D01*
X100586Y29314D01*
X100157Y29137D01*
X99934Y29000D01*
X98000D01*
Y33000D01*
G37*
G36*
X31000Y407000D02*X35493D01*
X35471Y406974D01*
X35266Y406638D01*
X35115Y406275D01*
X35023Y405892D01*
X34992Y405500D01*
X35023Y405108D01*
X35115Y404725D01*
X35266Y404362D01*
X35471Y404026D01*
X35727Y403727D01*
X36026Y403471D01*
X36362Y403266D01*
X36725Y403115D01*
X37108Y403023D01*
X37500Y402992D01*
X37892Y403023D01*
X37977Y403043D01*
X38000Y403020D01*
Y402500D01*
X31000D01*
Y407000D01*
G37*
G36*
Y408000D02*Y418000D01*
X36000D01*
Y416507D01*
X35727Y416273D01*
X35471Y415974D01*
X35266Y415638D01*
X35115Y415275D01*
X35023Y414892D01*
X34992Y414500D01*
X35023Y414108D01*
X35115Y413725D01*
X35266Y413362D01*
X35471Y413026D01*
X35727Y412727D01*
X36000Y412493D01*
Y411507D01*
X35727Y411273D01*
X35471Y410974D01*
X35266Y410638D01*
X35115Y410275D01*
X35023Y409892D01*
X34992Y409500D01*
X35023Y409108D01*
X35115Y408725D01*
X35266Y408362D01*
X35471Y408026D01*
X35493Y408000D01*
X31000D01*
G37*
G36*
Y401500D02*X39520D01*
X42000Y399020D01*
Y397000D01*
X31000D01*
Y401500D01*
G37*
G36*
X47000Y409000D02*X65003D01*
X65009Y406743D01*
X65046Y406590D01*
X65083Y406500D01*
X65046Y406410D01*
X65009Y406257D01*
X65000Y406100D01*
X65008Y403359D01*
X64988Y403100D01*
X65037Y402472D01*
X65184Y401860D01*
X65425Y401278D01*
X65754Y400742D01*
X66046Y400400D01*
X47000D01*
Y409000D01*
G37*
G36*
X51000Y406000D02*Y412250D01*
X58412D01*
X58500Y412243D01*
X58853Y412271D01*
X58853Y412271D01*
X59197Y412354D01*
X59525Y412489D01*
X59827Y412674D01*
X60096Y412904D01*
X60153Y412971D01*
X60932Y413750D01*
X62500D01*
X62853Y413771D01*
X63197Y413854D01*
X63525Y413989D01*
X63827Y414174D01*
X64096Y414404D01*
X64326Y414673D01*
X64511Y414975D01*
X64646Y415303D01*
X64729Y415647D01*
X64757Y416000D01*
X64729Y416353D01*
X64646Y416697D01*
X64511Y417025D01*
X64326Y417327D01*
X64096Y417596D01*
X63827Y417826D01*
X63543Y418000D01*
X69000D01*
Y413912D01*
X68372Y413863D01*
X67760Y413716D01*
X67178Y413475D01*
X66642Y413146D01*
X66163Y412737D01*
X65754Y412258D01*
X65425Y411722D01*
X65184Y411140D01*
X65037Y410528D01*
X64988Y409900D01*
X65000Y409737D01*
X65009Y406743D01*
X65046Y406590D01*
X65083Y406500D01*
X65046Y406410D01*
X65009Y406257D01*
X65000Y406100D01*
X65000Y406000D01*
X51000D01*
G37*
G36*
X53500Y412250D02*Y405500D01*
X47000D01*
Y412250D01*
X53500D01*
G37*
G36*
X73500Y418000D02*Y413000D01*
X71529D01*
X71358Y413146D01*
X70822Y413475D01*
X70240Y413716D01*
X69628Y413863D01*
X69000Y413912D01*
X68372Y413863D01*
X67760Y413716D01*
X67178Y413475D01*
X66642Y413146D01*
X66471Y413000D01*
X65500D01*
Y418000D01*
X73500D01*
G37*
G36*
X79500Y414500D02*Y407467D01*
X79498Y407466D01*
X79203Y407285D01*
X78940Y407060D01*
X78888Y407000D01*
X78612D01*
X78560Y407060D01*
X78297Y407285D01*
X78002Y407466D01*
X77682Y407599D01*
X77345Y407680D01*
X77000Y407707D01*
X76655Y407680D01*
X76318Y407599D01*
X75998Y407466D01*
X75703Y407285D01*
X75440Y407060D01*
X75388Y407000D01*
X73000D01*
X72992Y409758D01*
X73000Y409900D01*
X72991Y410057D01*
Y410057D01*
X72991Y410057D01*
X72963Y410528D01*
X72816Y411140D01*
X72575Y411722D01*
X72246Y412258D01*
X71837Y412737D01*
X71358Y413146D01*
X70822Y413475D01*
X70240Y413716D01*
X69628Y413863D01*
X69000Y413912D01*
X68372Y413863D01*
X67760Y413716D01*
X67178Y413475D01*
X66642Y413146D01*
X66163Y412737D01*
X65754Y412258D01*
X65425Y411722D01*
X65184Y411140D01*
X65037Y410528D01*
X64988Y409900D01*
X65000Y409737D01*
X65009Y407000D01*
X63000D01*
Y413806D01*
X63197Y413854D01*
X63525Y413989D01*
X63827Y414174D01*
X64096Y414404D01*
X64178Y414500D01*
X79500D01*
G37*
G36*
X73500Y407000D02*X64500D01*
Y414500D01*
X73500D01*
Y407000D01*
G37*
G36*
X71000Y418000D02*X101500D01*
Y414459D01*
X101037Y414423D01*
X100586Y414314D01*
X100157Y414137D01*
X99761Y413894D01*
X99408Y413592D01*
X99106Y413239D01*
X98863Y412843D01*
X98686Y412414D01*
X98577Y411963D01*
X98541Y411500D01*
X98577Y411037D01*
X98686Y410586D01*
X98863Y410157D01*
X99106Y409761D01*
X99329Y409500D01*
X72992D01*
X72992Y409758D01*
X73000Y409900D01*
X72991Y410057D01*
Y410057D01*
X72991Y410057D01*
X72963Y410528D01*
X72816Y411140D01*
X72575Y411722D01*
X72246Y412258D01*
X71837Y412737D01*
X71358Y413146D01*
X71000Y413366D01*
Y418000D01*
G37*
G36*
X31000Y373000D02*Y383000D01*
X36000D01*
Y381507D01*
X35727Y381273D01*
X35471Y380974D01*
X35266Y380638D01*
X35115Y380275D01*
X35023Y379892D01*
X34992Y379500D01*
X35023Y379108D01*
X35115Y378725D01*
X35266Y378362D01*
X35471Y378026D01*
X35727Y377727D01*
X36000Y377493D01*
Y376507D01*
X35727Y376273D01*
X35471Y375974D01*
X35266Y375638D01*
X35115Y375275D01*
X35023Y374892D01*
X34992Y374500D01*
X35023Y374108D01*
X35115Y373725D01*
X35266Y373362D01*
X35471Y373026D01*
X35493Y373000D01*
X31000D01*
G37*
G36*
X98000Y383000D02*X152000D01*
Y379000D01*
X124507D01*
X124273Y379273D01*
X123974Y379529D01*
X123638Y379734D01*
X123275Y379885D01*
X122892Y379977D01*
X122500Y380008D01*
X122108Y379977D01*
X121725Y379885D01*
X121399Y379750D01*
X119088D01*
X119000Y379757D01*
X118647Y379729D01*
X118303Y379646D01*
X117975Y379511D01*
X117673Y379326D01*
X117673Y379326D01*
X117404Y379096D01*
X117347Y379029D01*
X117318Y379000D01*
X115323D01*
X115179Y379123D01*
X114911Y379288D01*
X114620Y379408D01*
X114314Y379481D01*
X114000Y379506D01*
X113686Y379481D01*
X113380Y379408D01*
X113089Y379288D01*
X112821Y379123D01*
X112677Y379000D01*
X103066D01*
X102843Y379137D01*
X102414Y379314D01*
X101963Y379423D01*
X101500Y379459D01*
X101037Y379423D01*
X100586Y379314D01*
X100157Y379137D01*
X99934Y379000D01*
X98000D01*
Y383000D01*
G37*
G36*
X73500D02*Y378000D01*
X71529D01*
X71358Y378146D01*
X70822Y378475D01*
X70240Y378716D01*
X69628Y378863D01*
X69000Y378912D01*
X68372Y378863D01*
X67760Y378716D01*
X67178Y378475D01*
X66642Y378146D01*
X66471Y378000D01*
X65500D01*
Y383000D01*
X73500D01*
G37*
G36*
X71000D02*X101500D01*
Y379459D01*
X101037Y379423D01*
X100586Y379314D01*
X100157Y379137D01*
X99761Y378894D01*
X99408Y378592D01*
X99106Y378239D01*
X98863Y377843D01*
X98686Y377414D01*
X98577Y376963D01*
X98541Y376500D01*
X98577Y376037D01*
X98686Y375586D01*
X98863Y375157D01*
X99106Y374761D01*
X99329Y374500D01*
X72992D01*
X72992Y374758D01*
X73000Y374900D01*
X72991Y375057D01*
Y375057D01*
X72991Y375057D01*
X72963Y375528D01*
X72816Y376140D01*
X72575Y376722D01*
X72246Y377258D01*
X71837Y377737D01*
X71358Y378146D01*
X71000Y378366D01*
Y383000D01*
G37*
G36*
X79500Y379500D02*Y372467D01*
X79498Y372466D01*
X79203Y372285D01*
X78940Y372060D01*
X78888Y372000D01*
X78612D01*
X78560Y372060D01*
X78297Y372285D01*
X78002Y372466D01*
X77682Y372599D01*
X77345Y372680D01*
X77000Y372707D01*
X76655Y372680D01*
X76318Y372599D01*
X75998Y372466D01*
X75703Y372285D01*
X75440Y372060D01*
X75388Y372000D01*
X73000D01*
X72992Y374758D01*
X73000Y374900D01*
X72991Y375057D01*
Y375057D01*
X72991Y375057D01*
X72963Y375528D01*
X72816Y376140D01*
X72575Y376722D01*
X72246Y377258D01*
X71837Y377737D01*
X71358Y378146D01*
X70822Y378475D01*
X70240Y378716D01*
X69628Y378863D01*
X69000Y378912D01*
X68372Y378863D01*
X67760Y378716D01*
X67178Y378475D01*
X66642Y378146D01*
X66163Y377737D01*
X65754Y377258D01*
X65425Y376722D01*
X65184Y376140D01*
X65037Y375528D01*
X64988Y374900D01*
X65000Y374737D01*
X65009Y372000D01*
X63000D01*
Y378806D01*
X63197Y378854D01*
X63525Y378989D01*
X63827Y379174D01*
X64096Y379404D01*
X64178Y379500D01*
X79500D01*
G37*
G36*
X73500Y372000D02*X64500D01*
Y379500D01*
X73500D01*
Y372000D01*
G37*
G36*
X129000Y397000D02*Y400379D01*
X129121Y400500D01*
X133000D01*
Y397000D01*
X129000D01*
G37*
G36*
X152000Y418000D02*Y406000D01*
X139900D01*
Y409803D01*
X140060Y409940D01*
X140285Y410203D01*
X140466Y410498D01*
X140599Y410818D01*
X140680Y411155D01*
X140700Y411500D01*
X140680Y411845D01*
X140599Y412182D01*
X140466Y412502D01*
X140285Y412797D01*
X140060Y413060D01*
X139797Y413285D01*
X139502Y413466D01*
X139182Y413599D01*
X139000Y413642D01*
Y418000D01*
X152000D01*
G37*
G36*
X140000D02*X238000D01*
Y397000D01*
X215621D01*
X216519Y397898D01*
X216564Y397936D01*
X216717Y398115D01*
X216717Y398116D01*
X216841Y398317D01*
X216931Y398535D01*
X216986Y398765D01*
X217005Y399000D01*
X217000Y399059D01*
Y407441D01*
X217005Y407500D01*
X216986Y407735D01*
X216931Y407965D01*
X216841Y408183D01*
X216717Y408384D01*
X216564Y408564D01*
X216519Y408602D01*
X215102Y410019D01*
X215064Y410064D01*
X214884Y410217D01*
X214683Y410341D01*
X214465Y410431D01*
X214235Y410486D01*
X214000Y410505D01*
X213941Y410500D01*
X212059D01*
X212000Y410505D01*
X211765Y410486D01*
X211535Y410431D01*
X211317Y410341D01*
X211116Y410217D01*
X211115Y410217D01*
X210936Y410064D01*
X210898Y410019D01*
X209579Y408701D01*
X209500Y408707D01*
X209155Y408680D01*
X208818Y408599D01*
X208498Y408466D01*
X208203Y408285D01*
X207940Y408060D01*
X207715Y407797D01*
X207534Y407502D01*
X207401Y407182D01*
X207320Y406845D01*
X207293Y406500D01*
X207320Y406155D01*
X207401Y405818D01*
X207534Y405498D01*
X207715Y405203D01*
X207940Y404940D01*
X208203Y404715D01*
X208498Y404534D01*
X208818Y404401D01*
X209155Y404320D01*
X209500Y404293D01*
X209845Y404320D01*
X210182Y404401D01*
X210502Y404534D01*
X210797Y404715D01*
X211060Y404940D01*
X211250Y405162D01*
X211440Y404940D01*
X211600Y404803D01*
Y401080D01*
X211420Y400900D01*
X140580D01*
X140000Y401480D01*
Y409888D01*
X140060Y409940D01*
X140285Y410203D01*
X140466Y410498D01*
X140599Y410818D01*
X140680Y411155D01*
X140700Y411500D01*
X140680Y411845D01*
X140599Y412182D01*
X140466Y412502D01*
X140285Y412797D01*
X140060Y413060D01*
X140000Y413112D01*
Y418000D01*
G37*
G36*
X98000D02*X152000D01*
Y414000D01*
X124507D01*
X124273Y414273D01*
X123974Y414529D01*
X123638Y414734D01*
X123275Y414885D01*
X122892Y414977D01*
X122500Y415008D01*
X122108Y414977D01*
X121725Y414885D01*
X121399Y414750D01*
X119088D01*
X119000Y414757D01*
X118647Y414729D01*
X118303Y414646D01*
X117975Y414511D01*
X117673Y414326D01*
X117673Y414326D01*
X117404Y414096D01*
X117347Y414029D01*
X117318Y414000D01*
X115323D01*
X115179Y414123D01*
X114911Y414288D01*
X114620Y414408D01*
X114314Y414481D01*
X114000Y414506D01*
X113686Y414481D01*
X113380Y414408D01*
X113089Y414288D01*
X112821Y414123D01*
X112677Y414000D01*
X103066D01*
X102843Y414137D01*
X102414Y414314D01*
X101963Y414423D01*
X101500Y414459D01*
X101037Y414423D01*
X100586Y414314D01*
X100157Y414137D01*
X99934Y414000D01*
X98000D01*
Y418000D01*
G37*
G36*
X31000Y372000D02*X35493D01*
X35471Y371974D01*
X35266Y371638D01*
X35115Y371275D01*
X35023Y370892D01*
X34992Y370500D01*
X35023Y370108D01*
X35115Y369725D01*
X35266Y369362D01*
X35471Y369026D01*
X35727Y368727D01*
X36026Y368471D01*
X36362Y368266D01*
X36725Y368115D01*
X37108Y368023D01*
X37500Y367992D01*
X37892Y368023D01*
X37977Y368043D01*
X38000Y368020D01*
Y367500D01*
X31000D01*
Y372000D01*
G37*
G36*
X47000Y374000D02*X65003D01*
X65009Y371743D01*
X65046Y371590D01*
X65083Y371500D01*
X65046Y371410D01*
X65009Y371257D01*
X65000Y371100D01*
X65008Y368359D01*
X64988Y368100D01*
X65037Y367472D01*
X65184Y366860D01*
X65425Y366278D01*
X65754Y365742D01*
X66046Y365400D01*
X47000D01*
Y374000D01*
G37*
G36*
X51000Y371000D02*Y377250D01*
X58412D01*
X58500Y377243D01*
X58853Y377271D01*
X58853Y377271D01*
X59197Y377354D01*
X59525Y377489D01*
X59827Y377674D01*
X60096Y377904D01*
X60153Y377971D01*
X60932Y378750D01*
X62500D01*
X62853Y378771D01*
X63197Y378854D01*
X63525Y378989D01*
X63827Y379174D01*
X64096Y379404D01*
X64326Y379673D01*
X64511Y379975D01*
X64646Y380303D01*
X64729Y380647D01*
X64757Y381000D01*
X64729Y381353D01*
X64646Y381697D01*
X64511Y382025D01*
X64326Y382327D01*
X64096Y382596D01*
X63827Y382826D01*
X63543Y383000D01*
X69000D01*
Y378912D01*
X68372Y378863D01*
X67760Y378716D01*
X67178Y378475D01*
X66642Y378146D01*
X66163Y377737D01*
X65754Y377258D01*
X65425Y376722D01*
X65184Y376140D01*
X65037Y375528D01*
X64988Y374900D01*
X65000Y374737D01*
X65009Y371743D01*
X65046Y371590D01*
X65083Y371500D01*
X65046Y371410D01*
X65009Y371257D01*
X65000Y371100D01*
X65000Y371000D01*
X51000D01*
G37*
G36*
X53500Y377250D02*Y370500D01*
X47000D01*
Y377250D01*
X53500D01*
G37*
G36*
X31000Y366500D02*X39520D01*
X42000Y364020D01*
Y362000D01*
X31000D01*
Y366500D01*
G37*
G36*
X129000Y362000D02*Y365379D01*
X129121Y365500D01*
X133000D01*
Y362000D01*
X129000D01*
G37*
G36*
X47000Y339000D02*X65003D01*
X65009Y336743D01*
X65046Y336590D01*
X65083Y336500D01*
X65046Y336410D01*
X65009Y336257D01*
X65000Y336100D01*
X65008Y333359D01*
X64988Y333100D01*
X65037Y332472D01*
X65184Y331860D01*
X65425Y331278D01*
X65754Y330742D01*
X66046Y330400D01*
X47000D01*
Y339000D01*
G37*
G36*
X51000Y336000D02*Y342250D01*
X58412D01*
X58500Y342243D01*
X58853Y342271D01*
X58853Y342271D01*
X59197Y342354D01*
X59525Y342489D01*
X59827Y342674D01*
X60096Y342904D01*
X60153Y342971D01*
X60932Y343750D01*
X62500D01*
X62853Y343771D01*
X63197Y343854D01*
X63525Y343989D01*
X63827Y344174D01*
X64096Y344404D01*
X64326Y344673D01*
X64511Y344975D01*
X64646Y345303D01*
X64729Y345647D01*
X64757Y346000D01*
X64729Y346353D01*
X64646Y346697D01*
X64511Y347025D01*
X64326Y347327D01*
X64096Y347596D01*
X63827Y347826D01*
X63543Y348000D01*
X69000D01*
Y343912D01*
X68372Y343863D01*
X67760Y343716D01*
X67178Y343475D01*
X66642Y343146D01*
X66163Y342737D01*
X65754Y342258D01*
X65425Y341722D01*
X65184Y341140D01*
X65037Y340528D01*
X64988Y339900D01*
X65000Y339737D01*
X65009Y336743D01*
X65046Y336590D01*
X65083Y336500D01*
X65046Y336410D01*
X65009Y336257D01*
X65000Y336100D01*
X65000Y336000D01*
X51000D01*
G37*
G36*
X73500Y348000D02*Y343000D01*
X71529D01*
X71358Y343146D01*
X70822Y343475D01*
X70240Y343716D01*
X69628Y343863D01*
X69000Y343912D01*
X68372Y343863D01*
X67760Y343716D01*
X67178Y343475D01*
X66642Y343146D01*
X66471Y343000D01*
X65500D01*
Y348000D01*
X73500D01*
G37*
G36*
X53500Y342250D02*Y335500D01*
X47000D01*
Y342250D01*
X53500D01*
G37*
G36*
X71000Y348000D02*X101500D01*
Y344459D01*
X101037Y344423D01*
X100586Y344314D01*
X100157Y344137D01*
X99761Y343894D01*
X99408Y343592D01*
X99106Y343239D01*
X98863Y342843D01*
X98686Y342414D01*
X98577Y341963D01*
X98541Y341500D01*
X98577Y341037D01*
X98686Y340586D01*
X98863Y340157D01*
X99106Y339761D01*
X99329Y339500D01*
X72992D01*
X72992Y339758D01*
X73000Y339900D01*
X72991Y340057D01*
Y340057D01*
X72991Y340057D01*
X72963Y340528D01*
X72816Y341140D01*
X72575Y341722D01*
X72246Y342258D01*
X71837Y342737D01*
X71358Y343146D01*
X71000Y343366D01*
Y348000D01*
G37*
G36*
X79500Y344500D02*Y337467D01*
X79498Y337466D01*
X79203Y337285D01*
X78940Y337060D01*
X78888Y337000D01*
X78612D01*
X78560Y337060D01*
X78297Y337285D01*
X78002Y337466D01*
X77682Y337599D01*
X77345Y337680D01*
X77000Y337707D01*
X76655Y337680D01*
X76318Y337599D01*
X75998Y337466D01*
X75703Y337285D01*
X75440Y337060D01*
X75388Y337000D01*
X73000D01*
X72992Y339758D01*
X73000Y339900D01*
X72991Y340057D01*
Y340057D01*
X72991Y340057D01*
X72963Y340528D01*
X72816Y341140D01*
X72575Y341722D01*
X72246Y342258D01*
X71837Y342737D01*
X71358Y343146D01*
X70822Y343475D01*
X70240Y343716D01*
X69628Y343863D01*
X69000Y343912D01*
X68372Y343863D01*
X67760Y343716D01*
X67178Y343475D01*
X66642Y343146D01*
X66163Y342737D01*
X65754Y342258D01*
X65425Y341722D01*
X65184Y341140D01*
X65037Y340528D01*
X64988Y339900D01*
X65000Y339737D01*
X65009Y337000D01*
X63000D01*
Y343806D01*
X63197Y343854D01*
X63525Y343989D01*
X63827Y344174D01*
X64096Y344404D01*
X64178Y344500D01*
X79500D01*
G37*
G36*
X73500Y337000D02*X64500D01*
Y344500D01*
X73500D01*
Y337000D01*
G37*
G36*
X31000D02*X35493D01*
X35471Y336974D01*
X35266Y336638D01*
X35115Y336275D01*
X35023Y335892D01*
X34992Y335500D01*
X35023Y335108D01*
X35115Y334725D01*
X35266Y334362D01*
X35471Y334026D01*
X35727Y333727D01*
X36026Y333471D01*
X36362Y333266D01*
X36725Y333115D01*
X37108Y333023D01*
X37500Y332992D01*
X37892Y333023D01*
X37977Y333043D01*
X38000Y333020D01*
Y332500D01*
X31000D01*
Y337000D01*
G37*
G36*
Y338000D02*Y348000D01*
X36000D01*
Y346507D01*
X35727Y346273D01*
X35471Y345974D01*
X35266Y345638D01*
X35115Y345275D01*
X35023Y344892D01*
X34992Y344500D01*
X35023Y344108D01*
X35115Y343725D01*
X35266Y343362D01*
X35471Y343026D01*
X35727Y342727D01*
X36000Y342493D01*
Y341507D01*
X35727Y341273D01*
X35471Y340974D01*
X35266Y340638D01*
X35115Y340275D01*
X35023Y339892D01*
X34992Y339500D01*
X35023Y339108D01*
X35115Y338725D01*
X35266Y338362D01*
X35471Y338026D01*
X35493Y338000D01*
X31000D01*
G37*
G36*
Y331500D02*X39520D01*
X42000Y329020D01*
Y327000D01*
X31000D01*
Y331500D01*
G37*
G36*
X73500Y302000D02*X64500D01*
Y309500D01*
X73500D01*
Y302000D01*
G37*
G36*
X47000Y304000D02*X65003D01*
X65009Y301743D01*
X65046Y301590D01*
X65083Y301500D01*
X65046Y301410D01*
X65009Y301257D01*
X65000Y301100D01*
X65008Y298359D01*
X64988Y298100D01*
X65037Y297472D01*
X65184Y296860D01*
X65425Y296278D01*
X65754Y295742D01*
X66046Y295400D01*
X47000D01*
Y304000D01*
G37*
G36*
X51000Y301000D02*Y307250D01*
X58412D01*
X58500Y307243D01*
X58853Y307271D01*
X58853Y307271D01*
X59197Y307354D01*
X59525Y307489D01*
X59827Y307674D01*
X60096Y307904D01*
X60153Y307971D01*
X60932Y308750D01*
X62500D01*
X62853Y308771D01*
X63197Y308854D01*
X63525Y308989D01*
X63827Y309174D01*
X64096Y309404D01*
X64326Y309673D01*
X64511Y309975D01*
X64646Y310303D01*
X64729Y310647D01*
X64757Y311000D01*
X64729Y311353D01*
X64646Y311697D01*
X64511Y312025D01*
X64326Y312327D01*
X64096Y312596D01*
X63827Y312826D01*
X63543Y313000D01*
X69000D01*
Y308912D01*
X68372Y308863D01*
X67760Y308716D01*
X67178Y308475D01*
X66642Y308146D01*
X66163Y307737D01*
X65754Y307258D01*
X65425Y306722D01*
X65184Y306140D01*
X65037Y305528D01*
X64988Y304900D01*
X65000Y304737D01*
X65009Y301743D01*
X65046Y301590D01*
X65083Y301500D01*
X65046Y301410D01*
X65009Y301257D01*
X65000Y301100D01*
X65000Y301000D01*
X51000D01*
G37*
G36*
X73500Y313000D02*Y308000D01*
X71529D01*
X71358Y308146D01*
X70822Y308475D01*
X70240Y308716D01*
X69628Y308863D01*
X69000Y308912D01*
X68372Y308863D01*
X67760Y308716D01*
X67178Y308475D01*
X66642Y308146D01*
X66471Y308000D01*
X65500D01*
Y313000D01*
X73500D01*
G37*
G36*
X53500Y307250D02*Y300500D01*
X47000D01*
Y307250D01*
X53500D01*
G37*
G36*
X71000Y313000D02*X101500D01*
Y309459D01*
X101037Y309423D01*
X100586Y309314D01*
X100157Y309137D01*
X99761Y308894D01*
X99408Y308592D01*
X99106Y308239D01*
X98863Y307843D01*
X98686Y307414D01*
X98577Y306963D01*
X98541Y306500D01*
X98577Y306037D01*
X98686Y305586D01*
X98863Y305157D01*
X99106Y304761D01*
X99329Y304500D01*
X72992D01*
X72992Y304758D01*
X73000Y304900D01*
X72991Y305057D01*
Y305057D01*
X72991Y305057D01*
X72963Y305528D01*
X72816Y306140D01*
X72575Y306722D01*
X72246Y307258D01*
X71837Y307737D01*
X71358Y308146D01*
X71000Y308366D01*
Y313000D01*
G37*
G36*
X79500Y309500D02*Y302467D01*
X79498Y302466D01*
X79203Y302285D01*
X78940Y302060D01*
X78888Y302000D01*
X78612D01*
X78560Y302060D01*
X78297Y302285D01*
X78002Y302466D01*
X77682Y302599D01*
X77345Y302680D01*
X77000Y302707D01*
X76655Y302680D01*
X76318Y302599D01*
X75998Y302466D01*
X75703Y302285D01*
X75440Y302060D01*
X75388Y302000D01*
X73000D01*
X72992Y304758D01*
X73000Y304900D01*
X72991Y305057D01*
Y305057D01*
X72991Y305057D01*
X72963Y305528D01*
X72816Y306140D01*
X72575Y306722D01*
X72246Y307258D01*
X71837Y307737D01*
X71358Y308146D01*
X70822Y308475D01*
X70240Y308716D01*
X69628Y308863D01*
X69000Y308912D01*
X68372Y308863D01*
X67760Y308716D01*
X67178Y308475D01*
X66642Y308146D01*
X66163Y307737D01*
X65754Y307258D01*
X65425Y306722D01*
X65184Y306140D01*
X65037Y305528D01*
X64988Y304900D01*
X65000Y304737D01*
X65009Y302000D01*
X63000D01*
Y308806D01*
X63197Y308854D01*
X63525Y308989D01*
X63827Y309174D01*
X64096Y309404D01*
X64178Y309500D01*
X79500D01*
G37*
G36*
X51000Y266000D02*Y272250D01*
X58412D01*
X58500Y272243D01*
X58853Y272271D01*
X58853Y272271D01*
X59197Y272354D01*
X59525Y272489D01*
X59827Y272674D01*
X60096Y272904D01*
X60153Y272971D01*
X60932Y273750D01*
X62500D01*
X62853Y273771D01*
X63197Y273854D01*
X63525Y273989D01*
X63827Y274174D01*
X64096Y274404D01*
X64326Y274673D01*
X64511Y274975D01*
X64646Y275303D01*
X64729Y275647D01*
X64757Y276000D01*
X64729Y276353D01*
X64646Y276697D01*
X64511Y277025D01*
X64326Y277327D01*
X64096Y277596D01*
X63827Y277826D01*
X63543Y278000D01*
X69000D01*
Y273912D01*
X68372Y273863D01*
X67760Y273716D01*
X67178Y273475D01*
X66642Y273146D01*
X66163Y272737D01*
X65754Y272258D01*
X65425Y271722D01*
X65184Y271140D01*
X65037Y270528D01*
X64988Y269900D01*
X65000Y269737D01*
X65009Y266743D01*
X65046Y266590D01*
X65083Y266500D01*
X65046Y266410D01*
X65009Y266257D01*
X65000Y266100D01*
X65000Y266000D01*
X51000D01*
G37*
G36*
X73500Y278000D02*Y273000D01*
X71529D01*
X71358Y273146D01*
X70822Y273475D01*
X70240Y273716D01*
X69628Y273863D01*
X69000Y273912D01*
X68372Y273863D01*
X67760Y273716D01*
X67178Y273475D01*
X66642Y273146D01*
X66471Y273000D01*
X65500D01*
Y278000D01*
X73500D01*
G37*
G36*
X53500Y272250D02*Y265500D01*
X47000D01*
Y272250D01*
X53500D01*
G37*
G36*
X71000Y278000D02*X101500D01*
Y274459D01*
X101037Y274423D01*
X100586Y274314D01*
X100157Y274137D01*
X99761Y273894D01*
X99408Y273592D01*
X99106Y273239D01*
X98863Y272843D01*
X98686Y272414D01*
X98577Y271963D01*
X98541Y271500D01*
X98577Y271037D01*
X98686Y270586D01*
X98863Y270157D01*
X99106Y269761D01*
X99329Y269500D01*
X72992D01*
X72992Y269758D01*
X73000Y269900D01*
X72991Y270057D01*
Y270057D01*
X72991Y270057D01*
X72963Y270528D01*
X72816Y271140D01*
X72575Y271722D01*
X72246Y272258D01*
X71837Y272737D01*
X71358Y273146D01*
X71000Y273366D01*
Y278000D01*
G37*
G36*
X79500Y274500D02*Y267467D01*
X79498Y267466D01*
X79203Y267285D01*
X78940Y267060D01*
X78888Y267000D01*
X78612D01*
X78560Y267060D01*
X78297Y267285D01*
X78002Y267466D01*
X77682Y267599D01*
X77345Y267680D01*
X77000Y267707D01*
X76655Y267680D01*
X76318Y267599D01*
X75998Y267466D01*
X75703Y267285D01*
X75440Y267060D01*
X75388Y267000D01*
X73000D01*
X72992Y269758D01*
X73000Y269900D01*
X72991Y270057D01*
Y270057D01*
X72991Y270057D01*
X72963Y270528D01*
X72816Y271140D01*
X72575Y271722D01*
X72246Y272258D01*
X71837Y272737D01*
X71358Y273146D01*
X70822Y273475D01*
X70240Y273716D01*
X69628Y273863D01*
X69000Y273912D01*
X68372Y273863D01*
X67760Y273716D01*
X67178Y273475D01*
X66642Y273146D01*
X66163Y272737D01*
X65754Y272258D01*
X65425Y271722D01*
X65184Y271140D01*
X65037Y270528D01*
X64988Y269900D01*
X65000Y269737D01*
X65009Y267000D01*
X63000D01*
Y273806D01*
X63197Y273854D01*
X63525Y273989D01*
X63827Y274174D01*
X64096Y274404D01*
X64178Y274500D01*
X79500D01*
G37*
G36*
X73500Y267000D02*X64500D01*
Y274500D01*
X73500D01*
Y267000D01*
G37*
G36*
X31000Y302000D02*X35493D01*
X35471Y301974D01*
X35266Y301638D01*
X35115Y301275D01*
X35023Y300892D01*
X34992Y300500D01*
X35023Y300108D01*
X35115Y299725D01*
X35266Y299362D01*
X35471Y299026D01*
X35727Y298727D01*
X36026Y298471D01*
X36362Y298266D01*
X36725Y298115D01*
X37108Y298023D01*
X37500Y297992D01*
X37892Y298023D01*
X37977Y298043D01*
X38000Y298020D01*
Y297500D01*
X31000D01*
Y302000D01*
G37*
G36*
Y303000D02*Y313000D01*
X36000D01*
Y311507D01*
X35727Y311273D01*
X35471Y310974D01*
X35266Y310638D01*
X35115Y310275D01*
X35023Y309892D01*
X34992Y309500D01*
X35023Y309108D01*
X35115Y308725D01*
X35266Y308362D01*
X35471Y308026D01*
X35727Y307727D01*
X36000Y307493D01*
Y306507D01*
X35727Y306273D01*
X35471Y305974D01*
X35266Y305638D01*
X35115Y305275D01*
X35023Y304892D01*
X34992Y304500D01*
X35023Y304108D01*
X35115Y303725D01*
X35266Y303362D01*
X35471Y303026D01*
X35493Y303000D01*
X31000D01*
G37*
G36*
Y296500D02*X39520D01*
X42000Y294020D01*
Y292000D01*
X31000D01*
Y296500D01*
G37*
G36*
Y267000D02*X35493D01*
X35471Y266974D01*
X35266Y266638D01*
X35115Y266275D01*
X35023Y265892D01*
X34992Y265500D01*
X35023Y265108D01*
X35115Y264725D01*
X35266Y264362D01*
X35471Y264026D01*
X35727Y263727D01*
X36026Y263471D01*
X36362Y263266D01*
X36725Y263115D01*
X37108Y263023D01*
X37500Y262992D01*
X37892Y263023D01*
X37977Y263043D01*
X38000Y263020D01*
Y262500D01*
X31000D01*
Y267000D01*
G37*
G36*
Y268000D02*Y278000D01*
X36000D01*
Y276507D01*
X35727Y276273D01*
X35471Y275974D01*
X35266Y275638D01*
X35115Y275275D01*
X35023Y274892D01*
X34992Y274500D01*
X35023Y274108D01*
X35115Y273725D01*
X35266Y273362D01*
X35471Y273026D01*
X35727Y272727D01*
X36000Y272493D01*
Y271507D01*
X35727Y271273D01*
X35471Y270974D01*
X35266Y270638D01*
X35115Y270275D01*
X35023Y269892D01*
X34992Y269500D01*
X35023Y269108D01*
X35115Y268725D01*
X35266Y268362D01*
X35471Y268026D01*
X35493Y268000D01*
X31000D01*
G37*
G36*
Y261500D02*X39520D01*
X42000Y259020D01*
Y257000D01*
X31000D01*
Y261500D01*
G37*
G36*
X47000Y269000D02*X65003D01*
X65009Y266743D01*
X65046Y266590D01*
X65083Y266500D01*
X65046Y266410D01*
X65009Y266257D01*
X65000Y266100D01*
X65008Y263359D01*
X64988Y263100D01*
X65037Y262472D01*
X65184Y261860D01*
X65425Y261278D01*
X65754Y260742D01*
X66046Y260400D01*
X47000D01*
Y269000D01*
G37*
G36*
X129000Y257000D02*Y260379D01*
X129121Y260500D01*
X133000D01*
Y257000D01*
X129000D01*
G37*
G36*
Y222000D02*Y225379D01*
X129121Y225500D01*
X133000D01*
Y222000D01*
X129000D01*
G37*
G36*
Y187000D02*Y190379D01*
X129121Y190500D01*
X133000D01*
Y187000D01*
X129000D01*
G37*
G36*
Y117000D02*Y120379D01*
X129121Y120500D01*
X133000D01*
Y117000D01*
X129000D01*
G37*
G36*
Y82000D02*Y85379D01*
X129121Y85500D01*
X133000D01*
Y82000D01*
X129000D01*
G37*
G36*
X51000Y231000D02*Y237250D01*
X58412D01*
X58500Y237243D01*
X58853Y237271D01*
X58853Y237271D01*
X59197Y237354D01*
X59525Y237489D01*
X59827Y237674D01*
X60096Y237904D01*
X60153Y237971D01*
X60932Y238750D01*
X62500D01*
X62853Y238771D01*
X63197Y238854D01*
X63525Y238989D01*
X63827Y239174D01*
X64096Y239404D01*
X64326Y239673D01*
X64511Y239975D01*
X64646Y240303D01*
X64729Y240647D01*
X64757Y241000D01*
X64729Y241353D01*
X64646Y241697D01*
X64511Y242025D01*
X64326Y242327D01*
X64096Y242596D01*
X63827Y242826D01*
X63543Y243000D01*
X69000D01*
Y238912D01*
X68372Y238863D01*
X67760Y238716D01*
X67178Y238475D01*
X66642Y238146D01*
X66163Y237737D01*
X65754Y237258D01*
X65425Y236722D01*
X65184Y236140D01*
X65037Y235528D01*
X64988Y234900D01*
X65000Y234737D01*
X65009Y231743D01*
X65046Y231590D01*
X65083Y231500D01*
X65046Y231410D01*
X65009Y231257D01*
X65000Y231100D01*
X65000Y231000D01*
X51000D01*
G37*
G36*
X71000Y243000D02*X101500D01*
Y239459D01*
X101037Y239423D01*
X100586Y239314D01*
X100157Y239137D01*
X99761Y238894D01*
X99408Y238592D01*
X99106Y238239D01*
X98863Y237843D01*
X98686Y237414D01*
X98577Y236963D01*
X98541Y236500D01*
X98577Y236037D01*
X98686Y235586D01*
X98863Y235157D01*
X99106Y234761D01*
X99329Y234500D01*
X72992D01*
X72992Y234758D01*
X73000Y234900D01*
X72991Y235057D01*
Y235057D01*
X72991Y235057D01*
X72963Y235528D01*
X72816Y236140D01*
X72575Y236722D01*
X72246Y237258D01*
X71837Y237737D01*
X71358Y238146D01*
X71000Y238366D01*
Y243000D01*
G37*
G36*
X79500Y239500D02*Y232467D01*
X79498Y232466D01*
X79203Y232285D01*
X78940Y232060D01*
X78888Y232000D01*
X78612D01*
X78560Y232060D01*
X78297Y232285D01*
X78002Y232466D01*
X77682Y232599D01*
X77345Y232680D01*
X77000Y232707D01*
X76655Y232680D01*
X76318Y232599D01*
X75998Y232466D01*
X75703Y232285D01*
X75440Y232060D01*
X75388Y232000D01*
X73000D01*
X72992Y234758D01*
X73000Y234900D01*
X72991Y235057D01*
Y235057D01*
X72991Y235057D01*
X72963Y235528D01*
X72816Y236140D01*
X72575Y236722D01*
X72246Y237258D01*
X71837Y237737D01*
X71358Y238146D01*
X70822Y238475D01*
X70240Y238716D01*
X69628Y238863D01*
X69000Y238912D01*
X68372Y238863D01*
X67760Y238716D01*
X67178Y238475D01*
X66642Y238146D01*
X66163Y237737D01*
X65754Y237258D01*
X65425Y236722D01*
X65184Y236140D01*
X65037Y235528D01*
X64988Y234900D01*
X65000Y234737D01*
X65009Y232000D01*
X63000D01*
Y238806D01*
X63197Y238854D01*
X63525Y238989D01*
X63827Y239174D01*
X64096Y239404D01*
X64178Y239500D01*
X79500D01*
G37*
G36*
X152000Y243000D02*Y231000D01*
X139900D01*
Y234803D01*
X140060Y234940D01*
X140285Y235203D01*
X140466Y235498D01*
X140599Y235818D01*
X140680Y236155D01*
X140700Y236500D01*
X140680Y236845D01*
X140599Y237182D01*
X140466Y237502D01*
X140285Y237797D01*
X140060Y238060D01*
X139797Y238285D01*
X139502Y238466D01*
X139182Y238599D01*
X139000Y238642D01*
Y243000D01*
X152000D01*
G37*
G36*
Y208000D02*Y196000D01*
X139900D01*
Y199803D01*
X140060Y199940D01*
X140285Y200203D01*
X140466Y200498D01*
X140599Y200818D01*
X140680Y201155D01*
X140700Y201500D01*
X140680Y201845D01*
X140599Y202182D01*
X140466Y202502D01*
X140285Y202797D01*
X140060Y203060D01*
X139797Y203285D01*
X139502Y203466D01*
X139182Y203599D01*
X139000Y203642D01*
Y208000D01*
X152000D01*
G37*
G36*
Y173000D02*Y161000D01*
X139900D01*
Y164803D01*
X140060Y164940D01*
X140285Y165203D01*
X140466Y165498D01*
X140599Y165818D01*
X140680Y166155D01*
X140700Y166500D01*
X140680Y166845D01*
X140599Y167182D01*
X140466Y167502D01*
X140285Y167797D01*
X140060Y168060D01*
X139797Y168285D01*
X139502Y168466D01*
X139182Y168599D01*
X139000Y168642D01*
Y173000D01*
X152000D01*
G37*
G36*
X98000Y243000D02*X152000D01*
Y239000D01*
X124507D01*
X124273Y239273D01*
X123974Y239529D01*
X123638Y239734D01*
X123275Y239885D01*
X122892Y239977D01*
X122500Y240008D01*
X122108Y239977D01*
X121725Y239885D01*
X121399Y239750D01*
X119088D01*
X119000Y239757D01*
X118647Y239729D01*
X118303Y239646D01*
X117975Y239511D01*
X117673Y239326D01*
X117673Y239326D01*
X117404Y239096D01*
X117347Y239029D01*
X117318Y239000D01*
X115323D01*
X115179Y239123D01*
X114911Y239288D01*
X114620Y239408D01*
X114314Y239481D01*
X114000Y239506D01*
X113686Y239481D01*
X113380Y239408D01*
X113089Y239288D01*
X112821Y239123D01*
X112677Y239000D01*
X103066D01*
X102843Y239137D01*
X102414Y239314D01*
X101963Y239423D01*
X101500Y239459D01*
X101037Y239423D01*
X100586Y239314D01*
X100157Y239137D01*
X99934Y239000D01*
X98000D01*
Y243000D01*
G37*
G36*
Y208000D02*X152000D01*
Y204000D01*
X124507D01*
X124273Y204273D01*
X123974Y204529D01*
X123638Y204734D01*
X123275Y204885D01*
X122892Y204977D01*
X122500Y205008D01*
X122108Y204977D01*
X121725Y204885D01*
X121399Y204750D01*
X119088D01*
X119000Y204757D01*
X118647Y204729D01*
X118303Y204646D01*
X117975Y204511D01*
X117673Y204326D01*
X117673Y204326D01*
X117404Y204096D01*
X117347Y204029D01*
X117318Y204000D01*
X115323D01*
X115179Y204123D01*
X114911Y204288D01*
X114620Y204408D01*
X114314Y204481D01*
X114000Y204506D01*
X113686Y204481D01*
X113380Y204408D01*
X113089Y204288D01*
X112821Y204123D01*
X112677Y204000D01*
X103066D01*
X102843Y204137D01*
X102414Y204314D01*
X101963Y204423D01*
X101500Y204459D01*
X101037Y204423D01*
X100586Y204314D01*
X100157Y204137D01*
X99934Y204000D01*
X98000D01*
Y208000D01*
G37*
G36*
X31000Y232000D02*X35493D01*
X35471Y231974D01*
X35266Y231638D01*
X35115Y231275D01*
X35023Y230892D01*
X34992Y230500D01*
X35023Y230108D01*
X35115Y229725D01*
X35266Y229362D01*
X35471Y229026D01*
X35727Y228727D01*
X36026Y228471D01*
X36362Y228266D01*
X36725Y228115D01*
X37108Y228023D01*
X37500Y227992D01*
X37892Y228023D01*
X37977Y228043D01*
X38000Y228020D01*
Y227500D01*
X31000D01*
Y232000D01*
G37*
G36*
Y233000D02*Y243000D01*
X36000D01*
Y241507D01*
X35727Y241273D01*
X35471Y240974D01*
X35266Y240638D01*
X35115Y240275D01*
X35023Y239892D01*
X34992Y239500D01*
X35023Y239108D01*
X35115Y238725D01*
X35266Y238362D01*
X35471Y238026D01*
X35727Y237727D01*
X36000Y237493D01*
Y236507D01*
X35727Y236273D01*
X35471Y235974D01*
X35266Y235638D01*
X35115Y235275D01*
X35023Y234892D01*
X34992Y234500D01*
X35023Y234108D01*
X35115Y233725D01*
X35266Y233362D01*
X35471Y233026D01*
X35493Y233000D01*
X31000D01*
G37*
G36*
Y226500D02*X39520D01*
X42000Y224020D01*
Y222000D01*
X31000D01*
Y226500D01*
G37*
G36*
Y162000D02*X35493D01*
X35471Y161974D01*
X35266Y161638D01*
X35115Y161275D01*
X35023Y160892D01*
X34992Y160500D01*
X35023Y160108D01*
X35115Y159725D01*
X35266Y159362D01*
X35471Y159026D01*
X35727Y158727D01*
X36026Y158471D01*
X36362Y158266D01*
X36725Y158115D01*
X37108Y158023D01*
X37500Y157992D01*
X37892Y158023D01*
X37977Y158043D01*
X38000Y158020D01*
Y157500D01*
X31000D01*
Y162000D01*
G37*
G36*
Y163000D02*Y173000D01*
X36000D01*
Y171507D01*
X35727Y171273D01*
X35471Y170974D01*
X35266Y170638D01*
X35115Y170275D01*
X35023Y169892D01*
X34992Y169500D01*
X35023Y169108D01*
X35115Y168725D01*
X35266Y168362D01*
X35471Y168026D01*
X35727Y167727D01*
X36000Y167493D01*
Y166507D01*
X35727Y166273D01*
X35471Y165974D01*
X35266Y165638D01*
X35115Y165275D01*
X35023Y164892D01*
X34992Y164500D01*
X35023Y164108D01*
X35115Y163725D01*
X35266Y163362D01*
X35471Y163026D01*
X35493Y163000D01*
X31000D01*
G37*
G36*
Y156500D02*X39520D01*
X42000Y154020D01*
Y152000D01*
X31000D01*
Y156500D01*
G37*
G36*
X47000Y234000D02*X65003D01*
X65009Y231743D01*
X65046Y231590D01*
X65083Y231500D01*
X65046Y231410D01*
X65009Y231257D01*
X65000Y231100D01*
X65008Y228359D01*
X64988Y228100D01*
X65037Y227472D01*
X65184Y226860D01*
X65425Y226278D01*
X65754Y225742D01*
X66046Y225400D01*
X47000D01*
Y234000D01*
G37*
G36*
X73500Y243000D02*Y238000D01*
X71529D01*
X71358Y238146D01*
X70822Y238475D01*
X70240Y238716D01*
X69628Y238863D01*
X69000Y238912D01*
X68372Y238863D01*
X67760Y238716D01*
X67178Y238475D01*
X66642Y238146D01*
X66471Y238000D01*
X65500D01*
Y243000D01*
X73500D01*
G37*
G36*
X53500Y237250D02*Y230500D01*
X47000D01*
Y237250D01*
X53500D01*
G37*
G36*
X73500Y232000D02*X64500D01*
Y239500D01*
X73500D01*
Y232000D01*
G37*
G36*
X31000Y197000D02*X35493D01*
X35471Y196974D01*
X35266Y196638D01*
X35115Y196275D01*
X35023Y195892D01*
X34992Y195500D01*
X35023Y195108D01*
X35115Y194725D01*
X35266Y194362D01*
X35471Y194026D01*
X35727Y193727D01*
X36026Y193471D01*
X36362Y193266D01*
X36725Y193115D01*
X37108Y193023D01*
X37500Y192992D01*
X37892Y193023D01*
X37977Y193043D01*
X38000Y193020D01*
Y192500D01*
X31000D01*
Y197000D01*
G37*
G36*
Y198000D02*Y208000D01*
X36000D01*
Y206507D01*
X35727Y206273D01*
X35471Y205974D01*
X35266Y205638D01*
X35115Y205275D01*
X35023Y204892D01*
X34992Y204500D01*
X35023Y204108D01*
X35115Y203725D01*
X35266Y203362D01*
X35471Y203026D01*
X35727Y202727D01*
X36000Y202493D01*
Y201507D01*
X35727Y201273D01*
X35471Y200974D01*
X35266Y200638D01*
X35115Y200275D01*
X35023Y199892D01*
X34992Y199500D01*
X35023Y199108D01*
X35115Y198725D01*
X35266Y198362D01*
X35471Y198026D01*
X35493Y198000D01*
X31000D01*
G37*
G36*
Y191500D02*X39520D01*
X42000Y189020D01*
Y187000D01*
X31000D01*
Y191500D01*
G37*
G36*
X47000Y199000D02*X65003D01*
X65009Y196743D01*
X65046Y196590D01*
X65083Y196500D01*
X65046Y196410D01*
X65009Y196257D01*
X65000Y196100D01*
X65008Y193359D01*
X64988Y193100D01*
X65037Y192472D01*
X65184Y191860D01*
X65425Y191278D01*
X65754Y190742D01*
X66046Y190400D01*
X47000D01*
Y199000D01*
G37*
G36*
X73500Y197000D02*X64500D01*
Y204500D01*
X73500D01*
Y197000D01*
G37*
G36*
X47000Y164000D02*X65003D01*
X65009Y161743D01*
X65046Y161590D01*
X65083Y161500D01*
X65046Y161410D01*
X65009Y161257D01*
X65000Y161100D01*
X65008Y158359D01*
X64988Y158100D01*
X65037Y157472D01*
X65184Y156860D01*
X65425Y156278D01*
X65754Y155742D01*
X66046Y155400D01*
X47000D01*
Y164000D01*
G37*
G36*
X51000Y161000D02*Y167250D01*
X58412D01*
X58500Y167243D01*
X58853Y167271D01*
X58853Y167271D01*
X59197Y167354D01*
X59525Y167489D01*
X59827Y167674D01*
X60096Y167904D01*
X60153Y167971D01*
X60932Y168750D01*
X62500D01*
X62853Y168771D01*
X63197Y168854D01*
X63525Y168989D01*
X63827Y169174D01*
X64096Y169404D01*
X64326Y169673D01*
X64511Y169975D01*
X64646Y170303D01*
X64729Y170647D01*
X64757Y171000D01*
X64729Y171353D01*
X64646Y171697D01*
X64511Y172025D01*
X64326Y172327D01*
X64096Y172596D01*
X63827Y172826D01*
X63543Y173000D01*
X69000D01*
Y168912D01*
X68372Y168863D01*
X67760Y168716D01*
X67178Y168475D01*
X66642Y168146D01*
X66163Y167737D01*
X65754Y167258D01*
X65425Y166722D01*
X65184Y166140D01*
X65037Y165528D01*
X64988Y164900D01*
X65000Y164737D01*
X65009Y161743D01*
X65046Y161590D01*
X65083Y161500D01*
X65046Y161410D01*
X65009Y161257D01*
X65000Y161100D01*
X65000Y161000D01*
X51000D01*
G37*
G36*
Y196000D02*Y202250D01*
X58412D01*
X58500Y202243D01*
X58853Y202271D01*
X58853Y202271D01*
X59197Y202354D01*
X59525Y202489D01*
X59827Y202674D01*
X60096Y202904D01*
X60153Y202971D01*
X60932Y203750D01*
X62500D01*
X62853Y203771D01*
X63197Y203854D01*
X63525Y203989D01*
X63827Y204174D01*
X64096Y204404D01*
X64326Y204673D01*
X64511Y204975D01*
X64646Y205303D01*
X64729Y205647D01*
X64757Y206000D01*
X64729Y206353D01*
X64646Y206697D01*
X64511Y207025D01*
X64326Y207327D01*
X64096Y207596D01*
X63827Y207826D01*
X63543Y208000D01*
X69000D01*
Y203912D01*
X68372Y203863D01*
X67760Y203716D01*
X67178Y203475D01*
X66642Y203146D01*
X66163Y202737D01*
X65754Y202258D01*
X65425Y201722D01*
X65184Y201140D01*
X65037Y200528D01*
X64988Y199900D01*
X65000Y199737D01*
X65009Y196743D01*
X65046Y196590D01*
X65083Y196500D01*
X65046Y196410D01*
X65009Y196257D01*
X65000Y196100D01*
X65000Y196000D01*
X51000D01*
G37*
G36*
X73500Y208000D02*Y203000D01*
X71529D01*
X71358Y203146D01*
X70822Y203475D01*
X70240Y203716D01*
X69628Y203863D01*
X69000Y203912D01*
X68372Y203863D01*
X67760Y203716D01*
X67178Y203475D01*
X66642Y203146D01*
X66471Y203000D01*
X65500D01*
Y208000D01*
X73500D01*
G37*
G36*
X53500Y202250D02*Y195500D01*
X47000D01*
Y202250D01*
X53500D01*
G37*
G36*
X71000Y208000D02*X101500D01*
Y204459D01*
X101037Y204423D01*
X100586Y204314D01*
X100157Y204137D01*
X99761Y203894D01*
X99408Y203592D01*
X99106Y203239D01*
X98863Y202843D01*
X98686Y202414D01*
X98577Y201963D01*
X98541Y201500D01*
X98577Y201037D01*
X98686Y200586D01*
X98863Y200157D01*
X99106Y199761D01*
X99329Y199500D01*
X72992D01*
X72992Y199758D01*
X73000Y199900D01*
X72991Y200057D01*
Y200057D01*
X72991Y200057D01*
X72963Y200528D01*
X72816Y201140D01*
X72575Y201722D01*
X72246Y202258D01*
X71837Y202737D01*
X71358Y203146D01*
X71000Y203366D01*
Y208000D01*
G37*
G36*
X79500Y204500D02*Y197467D01*
X79498Y197466D01*
X79203Y197285D01*
X78940Y197060D01*
X78888Y197000D01*
X78612D01*
X78560Y197060D01*
X78297Y197285D01*
X78002Y197466D01*
X77682Y197599D01*
X77345Y197680D01*
X77000Y197707D01*
X76655Y197680D01*
X76318Y197599D01*
X75998Y197466D01*
X75703Y197285D01*
X75440Y197060D01*
X75388Y197000D01*
X73000D01*
X72992Y199758D01*
X73000Y199900D01*
X72991Y200057D01*
Y200057D01*
X72991Y200057D01*
X72963Y200528D01*
X72816Y201140D01*
X72575Y201722D01*
X72246Y202258D01*
X71837Y202737D01*
X71358Y203146D01*
X70822Y203475D01*
X70240Y203716D01*
X69628Y203863D01*
X69000Y203912D01*
X68372Y203863D01*
X67760Y203716D01*
X67178Y203475D01*
X66642Y203146D01*
X66163Y202737D01*
X65754Y202258D01*
X65425Y201722D01*
X65184Y201140D01*
X65037Y200528D01*
X64988Y199900D01*
X65000Y199737D01*
X65009Y197000D01*
X63000D01*
Y203806D01*
X63197Y203854D01*
X63525Y203989D01*
X63827Y204174D01*
X64096Y204404D01*
X64178Y204500D01*
X79500D01*
G37*
G36*
X129000Y152000D02*Y155379D01*
X129121Y155500D01*
X133000D01*
Y152000D01*
X129000D01*
G37*
G36*
X71000Y173000D02*X101500D01*
Y169459D01*
X101037Y169423D01*
X100586Y169314D01*
X100157Y169137D01*
X99761Y168894D01*
X99408Y168592D01*
X99106Y168239D01*
X98863Y167843D01*
X98686Y167414D01*
X98577Y166963D01*
X98541Y166500D01*
X98577Y166037D01*
X98686Y165586D01*
X98863Y165157D01*
X99106Y164761D01*
X99329Y164500D01*
X72992D01*
X72992Y164758D01*
X73000Y164900D01*
X72991Y165057D01*
Y165057D01*
X72991Y165057D01*
X72963Y165528D01*
X72816Y166140D01*
X72575Y166722D01*
X72246Y167258D01*
X71837Y167737D01*
X71358Y168146D01*
X71000Y168366D01*
Y173000D01*
G37*
G36*
X73500D02*Y168000D01*
X71529D01*
X71358Y168146D01*
X70822Y168475D01*
X70240Y168716D01*
X69628Y168863D01*
X69000Y168912D01*
X68372Y168863D01*
X67760Y168716D01*
X67178Y168475D01*
X66642Y168146D01*
X66471Y168000D01*
X65500D01*
Y173000D01*
X73500D01*
G37*
G36*
X53500Y167250D02*Y160500D01*
X47000D01*
Y167250D01*
X53500D01*
G37*
G36*
X79500Y169500D02*Y162467D01*
X79498Y162466D01*
X79203Y162285D01*
X78940Y162060D01*
X78888Y162000D01*
X78612D01*
X78560Y162060D01*
X78297Y162285D01*
X78002Y162466D01*
X77682Y162599D01*
X77345Y162680D01*
X77000Y162707D01*
X76655Y162680D01*
X76318Y162599D01*
X75998Y162466D01*
X75703Y162285D01*
X75440Y162060D01*
X75388Y162000D01*
X73000D01*
X72992Y164758D01*
X73000Y164900D01*
X72991Y165057D01*
Y165057D01*
X72991Y165057D01*
X72963Y165528D01*
X72816Y166140D01*
X72575Y166722D01*
X72246Y167258D01*
X71837Y167737D01*
X71358Y168146D01*
X70822Y168475D01*
X70240Y168716D01*
X69628Y168863D01*
X69000Y168912D01*
X68372Y168863D01*
X67760Y168716D01*
X67178Y168475D01*
X66642Y168146D01*
X66163Y167737D01*
X65754Y167258D01*
X65425Y166722D01*
X65184Y166140D01*
X65037Y165528D01*
X64988Y164900D01*
X65000Y164737D01*
X65009Y162000D01*
X63000D01*
Y168806D01*
X63197Y168854D01*
X63525Y168989D01*
X63827Y169174D01*
X64096Y169404D01*
X64178Y169500D01*
X79500D01*
G37*
G36*
X73500Y162000D02*X64500D01*
Y169500D01*
X73500D01*
Y162000D01*
G37*
G36*
X51000Y126000D02*Y132250D01*
X58412D01*
X58500Y132243D01*
X58853Y132271D01*
X58853Y132271D01*
X59197Y132354D01*
X59525Y132489D01*
X59827Y132674D01*
X60096Y132904D01*
X60153Y132971D01*
X60932Y133750D01*
X62500D01*
X62853Y133771D01*
X63197Y133854D01*
X63525Y133989D01*
X63827Y134174D01*
X64096Y134404D01*
X64326Y134673D01*
X64511Y134975D01*
X64646Y135303D01*
X64729Y135647D01*
X64757Y136000D01*
X64729Y136353D01*
X64646Y136697D01*
X64511Y137025D01*
X64326Y137327D01*
X64096Y137596D01*
X63827Y137826D01*
X63543Y138000D01*
X69000D01*
Y133912D01*
X68372Y133863D01*
X67760Y133716D01*
X67178Y133475D01*
X66642Y133146D01*
X66163Y132737D01*
X65754Y132258D01*
X65425Y131722D01*
X65184Y131140D01*
X65037Y130528D01*
X64988Y129900D01*
X65000Y129737D01*
X65009Y126743D01*
X65046Y126590D01*
X65083Y126500D01*
X65046Y126410D01*
X65009Y126257D01*
X65000Y126100D01*
X65000Y126000D01*
X51000D01*
G37*
G36*
X152000Y138000D02*Y126000D01*
X139900D01*
Y129803D01*
X140060Y129940D01*
X140285Y130203D01*
X140466Y130498D01*
X140599Y130818D01*
X140680Y131155D01*
X140700Y131500D01*
X140680Y131845D01*
X140599Y132182D01*
X140466Y132502D01*
X140285Y132797D01*
X140060Y133060D01*
X139797Y133285D01*
X139502Y133466D01*
X139182Y133599D01*
X139000Y133642D01*
Y138000D01*
X152000D01*
G37*
G36*
Y103000D02*Y91000D01*
X139900D01*
Y94803D01*
X140060Y94940D01*
X140285Y95203D01*
X140466Y95498D01*
X140599Y95818D01*
X140680Y96155D01*
X140700Y96500D01*
X140680Y96845D01*
X140599Y97182D01*
X140466Y97502D01*
X140285Y97797D01*
X140060Y98060D01*
X139797Y98285D01*
X139502Y98466D01*
X139182Y98599D01*
X139000Y98642D01*
Y103000D01*
X152000D01*
G37*
G36*
X73500Y138000D02*Y133000D01*
X71529D01*
X71358Y133146D01*
X70822Y133475D01*
X70240Y133716D01*
X69628Y133863D01*
X69000Y133912D01*
X68372Y133863D01*
X67760Y133716D01*
X67178Y133475D01*
X66642Y133146D01*
X66471Y133000D01*
X65500D01*
Y138000D01*
X73500D01*
G37*
G36*
X71000D02*X101500D01*
Y134459D01*
X101037Y134423D01*
X100586Y134314D01*
X100157Y134137D01*
X99761Y133894D01*
X99408Y133592D01*
X99106Y133239D01*
X98863Y132843D01*
X98686Y132414D01*
X98577Y131963D01*
X98541Y131500D01*
X98577Y131037D01*
X98686Y130586D01*
X98863Y130157D01*
X99106Y129761D01*
X99329Y129500D01*
X72992D01*
X72992Y129758D01*
X73000Y129900D01*
X72991Y130057D01*
Y130057D01*
X72991Y130057D01*
X72963Y130528D01*
X72816Y131140D01*
X72575Y131722D01*
X72246Y132258D01*
X71837Y132737D01*
X71358Y133146D01*
X71000Y133366D01*
Y138000D01*
G37*
G36*
X79500Y134500D02*Y127467D01*
X79498Y127466D01*
X79203Y127285D01*
X78940Y127060D01*
X78888Y127000D01*
X78612D01*
X78560Y127060D01*
X78297Y127285D01*
X78002Y127466D01*
X77682Y127599D01*
X77345Y127680D01*
X77000Y127707D01*
X76655Y127680D01*
X76318Y127599D01*
X75998Y127466D01*
X75703Y127285D01*
X75440Y127060D01*
X75388Y127000D01*
X73000D01*
X72992Y129758D01*
X73000Y129900D01*
X72991Y130057D01*
Y130057D01*
X72991Y130057D01*
X72963Y130528D01*
X72816Y131140D01*
X72575Y131722D01*
X72246Y132258D01*
X71837Y132737D01*
X71358Y133146D01*
X70822Y133475D01*
X70240Y133716D01*
X69628Y133863D01*
X69000Y133912D01*
X68372Y133863D01*
X67760Y133716D01*
X67178Y133475D01*
X66642Y133146D01*
X66163Y132737D01*
X65754Y132258D01*
X65425Y131722D01*
X65184Y131140D01*
X65037Y130528D01*
X64988Y129900D01*
X65000Y129737D01*
X65009Y127000D01*
X63000D01*
Y133806D01*
X63197Y133854D01*
X63525Y133989D01*
X63827Y134174D01*
X64096Y134404D01*
X64178Y134500D01*
X79500D01*
G37*
G36*
X73500Y127000D02*X64500D01*
Y134500D01*
X73500D01*
Y127000D01*
G37*
G36*
X51000Y91000D02*Y97250D01*
X58412D01*
X58500Y97243D01*
X58853Y97271D01*
X58853Y97271D01*
X59197Y97354D01*
X59525Y97489D01*
X59827Y97674D01*
X60096Y97904D01*
X60153Y97971D01*
X60932Y98750D01*
X62500D01*
X62853Y98771D01*
X63197Y98854D01*
X63525Y98989D01*
X63827Y99174D01*
X64096Y99404D01*
X64326Y99673D01*
X64511Y99975D01*
X64646Y100303D01*
X64729Y100647D01*
X64757Y101000D01*
X64729Y101353D01*
X64646Y101697D01*
X64511Y102025D01*
X64326Y102327D01*
X64096Y102596D01*
X63827Y102826D01*
X63543Y103000D01*
X69000D01*
Y98912D01*
X68372Y98863D01*
X67760Y98716D01*
X67178Y98475D01*
X66642Y98146D01*
X66163Y97737D01*
X65754Y97258D01*
X65425Y96722D01*
X65184Y96140D01*
X65037Y95528D01*
X64988Y94900D01*
X65000Y94737D01*
X65009Y91743D01*
X65046Y91590D01*
X65083Y91500D01*
X65046Y91410D01*
X65009Y91257D01*
X65000Y91100D01*
X65000Y91000D01*
X51000D01*
G37*
G36*
X73500Y103000D02*Y98000D01*
X71529D01*
X71358Y98146D01*
X70822Y98475D01*
X70240Y98716D01*
X69628Y98863D01*
X69000Y98912D01*
X68372Y98863D01*
X67760Y98716D01*
X67178Y98475D01*
X66642Y98146D01*
X66471Y98000D01*
X65500D01*
Y103000D01*
X73500D01*
G37*
G36*
X71000D02*X101500D01*
Y99459D01*
X101037Y99423D01*
X100586Y99314D01*
X100157Y99137D01*
X99761Y98894D01*
X99408Y98592D01*
X99106Y98239D01*
X98863Y97843D01*
X98686Y97414D01*
X98577Y96963D01*
X98541Y96500D01*
X98577Y96037D01*
X98686Y95586D01*
X98863Y95157D01*
X99106Y94761D01*
X99329Y94500D01*
X72992D01*
X72992Y94758D01*
X73000Y94900D01*
X72991Y95057D01*
Y95057D01*
X72991Y95057D01*
X72963Y95528D01*
X72816Y96140D01*
X72575Y96722D01*
X72246Y97258D01*
X71837Y97737D01*
X71358Y98146D01*
X71000Y98366D01*
Y103000D01*
G37*
G36*
X31000Y127000D02*X35493D01*
X35471Y126974D01*
X35266Y126638D01*
X35115Y126275D01*
X35023Y125892D01*
X34992Y125500D01*
X35023Y125108D01*
X35115Y124725D01*
X35266Y124362D01*
X35471Y124026D01*
X35727Y123727D01*
X36026Y123471D01*
X36362Y123266D01*
X36725Y123115D01*
X37108Y123023D01*
X37500Y122992D01*
X37892Y123023D01*
X37977Y123043D01*
X38000Y123020D01*
Y122500D01*
X31000D01*
Y127000D01*
G37*
G36*
Y121500D02*X39520D01*
X42000Y119020D01*
Y117000D01*
X31000D01*
Y121500D01*
G37*
G36*
X47000Y129000D02*X65003D01*
X65009Y126743D01*
X65046Y126590D01*
X65083Y126500D01*
X65046Y126410D01*
X65009Y126257D01*
X65000Y126100D01*
X65008Y123359D01*
X64988Y123100D01*
X65037Y122472D01*
X65184Y121860D01*
X65425Y121278D01*
X65754Y120742D01*
X66046Y120400D01*
X47000D01*
Y129000D01*
G37*
G36*
X53500Y132250D02*Y125500D01*
X47000D01*
Y132250D01*
X53500D01*
G37*
G36*
X47000Y94000D02*X65003D01*
X65009Y91743D01*
X65046Y91590D01*
X65083Y91500D01*
X65046Y91410D01*
X65009Y91257D01*
X65000Y91100D01*
X65008Y88359D01*
X64988Y88100D01*
X65037Y87472D01*
X65184Y86860D01*
X65425Y86278D01*
X65754Y85742D01*
X66046Y85400D01*
X47000D01*
Y94000D01*
G37*
G36*
X53500Y97250D02*Y90500D01*
X47000D01*
Y97250D01*
X53500D01*
G37*
G36*
X31000Y128000D02*Y138000D01*
X36000D01*
Y136507D01*
X35727Y136273D01*
X35471Y135974D01*
X35266Y135638D01*
X35115Y135275D01*
X35023Y134892D01*
X34992Y134500D01*
X35023Y134108D01*
X35115Y133725D01*
X35266Y133362D01*
X35471Y133026D01*
X35727Y132727D01*
X36000Y132493D01*
Y131507D01*
X35727Y131273D01*
X35471Y130974D01*
X35266Y130638D01*
X35115Y130275D01*
X35023Y129892D01*
X34992Y129500D01*
X35023Y129108D01*
X35115Y128725D01*
X35266Y128362D01*
X35471Y128026D01*
X35493Y128000D01*
X31000D01*
G37*
G36*
Y93000D02*Y103000D01*
X36000D01*
Y101507D01*
X35727Y101273D01*
X35471Y100974D01*
X35266Y100638D01*
X35115Y100275D01*
X35023Y99892D01*
X34992Y99500D01*
X35023Y99108D01*
X35115Y98725D01*
X35266Y98362D01*
X35471Y98026D01*
X35727Y97727D01*
X36000Y97493D01*
Y96507D01*
X35727Y96273D01*
X35471Y95974D01*
X35266Y95638D01*
X35115Y95275D01*
X35023Y94892D01*
X34992Y94500D01*
X35023Y94108D01*
X35115Y93725D01*
X35266Y93362D01*
X35471Y93026D01*
X35493Y93000D01*
X31000D01*
G37*
G36*
Y92000D02*X35493D01*
X35471Y91974D01*
X35266Y91638D01*
X35115Y91275D01*
X35023Y90892D01*
X34992Y90500D01*
X35023Y90108D01*
X35115Y89725D01*
X35266Y89362D01*
X35471Y89026D01*
X35727Y88727D01*
X36026Y88471D01*
X36362Y88266D01*
X36725Y88115D01*
X37108Y88023D01*
X37500Y87992D01*
X37892Y88023D01*
X37977Y88043D01*
X38000Y88020D01*
Y87500D01*
X31000D01*
Y92000D01*
G37*
G36*
Y86500D02*X39520D01*
X42000Y84020D01*
Y82000D01*
X31000D01*
Y86500D01*
G37*
G36*
Y57000D02*X35493D01*
X35471Y56974D01*
X35266Y56638D01*
X35115Y56275D01*
X35023Y55892D01*
X34992Y55500D01*
X35023Y55108D01*
X35115Y54725D01*
X35266Y54362D01*
X35471Y54026D01*
X35727Y53727D01*
X36026Y53471D01*
X36362Y53266D01*
X36725Y53115D01*
X37108Y53023D01*
X37500Y52992D01*
X37892Y53023D01*
X37977Y53043D01*
X38000Y53020D01*
Y52500D01*
X31000D01*
Y57000D01*
G37*
G36*
Y58000D02*Y68000D01*
X36000D01*
Y66507D01*
X35727Y66273D01*
X35471Y65974D01*
X35266Y65638D01*
X35115Y65275D01*
X35023Y64892D01*
X34992Y64500D01*
X35023Y64108D01*
X35115Y63725D01*
X35266Y63362D01*
X35471Y63026D01*
X35727Y62727D01*
X36000Y62493D01*
Y61507D01*
X35727Y61273D01*
X35471Y60974D01*
X35266Y60638D01*
X35115Y60275D01*
X35023Y59892D01*
X34992Y59500D01*
X35023Y59108D01*
X35115Y58725D01*
X35266Y58362D01*
X35471Y58026D01*
X35493Y58000D01*
X31000D01*
G37*
G36*
Y51500D02*X39520D01*
X42000Y49020D01*
Y47000D01*
X31000D01*
Y51500D01*
G37*
G36*
X47000Y59000D02*X65003D01*
X65009Y56743D01*
X65046Y56590D01*
X65083Y56500D01*
X65046Y56410D01*
X65009Y56257D01*
X65000Y56100D01*
X65008Y53359D01*
X64988Y53100D01*
X65037Y52472D01*
X65184Y51860D01*
X65425Y51278D01*
X65754Y50742D01*
X66046Y50400D01*
X47000D01*
Y59000D01*
G37*
G36*
X53500Y62250D02*Y55500D01*
X47000D01*
Y62250D01*
X53500D01*
G37*
G36*
X31000Y22000D02*X35493D01*
X35471Y21974D01*
X35266Y21638D01*
X35115Y21275D01*
X35023Y20892D01*
X34992Y20500D01*
X35023Y20108D01*
X35115Y19725D01*
X35266Y19362D01*
X35471Y19026D01*
X35727Y18727D01*
X36026Y18471D01*
X36362Y18266D01*
X36725Y18115D01*
X37108Y18023D01*
X37500Y17992D01*
X37892Y18023D01*
X37977Y18043D01*
X38000Y18020D01*
Y17500D01*
X31000D01*
Y22000D01*
G37*
G36*
Y23000D02*Y33000D01*
X36000D01*
Y31507D01*
X35727Y31273D01*
X35471Y30974D01*
X35266Y30638D01*
X35115Y30275D01*
X35023Y29892D01*
X34992Y29500D01*
X35023Y29108D01*
X35115Y28725D01*
X35266Y28362D01*
X35471Y28026D01*
X35727Y27727D01*
X36000Y27493D01*
Y26507D01*
X35727Y26273D01*
X35471Y25974D01*
X35266Y25638D01*
X35115Y25275D01*
X35023Y24892D01*
X34992Y24500D01*
X35023Y24108D01*
X35115Y23725D01*
X35266Y23362D01*
X35471Y23026D01*
X35493Y23000D01*
X31000D01*
G37*
G36*
Y16500D02*X39520D01*
X42000Y14020D01*
Y12000D01*
X31000D01*
Y16500D01*
G37*
G36*
X47000Y24000D02*X65003D01*
X65009Y21743D01*
X65046Y21590D01*
X65083Y21500D01*
X65046Y21410D01*
X65009Y21257D01*
X65000Y21100D01*
X65008Y18359D01*
X64988Y18100D01*
X65037Y17472D01*
X65184Y16860D01*
X65425Y16278D01*
X65754Y15742D01*
X66046Y15400D01*
X47000D01*
Y24000D01*
G37*
G36*
X53500Y27250D02*Y20500D01*
X47000D01*
Y27250D01*
X53500D01*
G37*
G36*
X79500Y99500D02*Y92467D01*
X79498Y92466D01*
X79203Y92285D01*
X78940Y92060D01*
X78888Y92000D01*
X78612D01*
X78560Y92060D01*
X78297Y92285D01*
X78002Y92466D01*
X77682Y92599D01*
X77345Y92680D01*
X77000Y92707D01*
X76655Y92680D01*
X76318Y92599D01*
X75998Y92466D01*
X75703Y92285D01*
X75440Y92060D01*
X75388Y92000D01*
X73000D01*
X72992Y94758D01*
X73000Y94900D01*
X72991Y95057D01*
Y95057D01*
X72991Y95057D01*
X72963Y95528D01*
X72816Y96140D01*
X72575Y96722D01*
X72246Y97258D01*
X71837Y97737D01*
X71358Y98146D01*
X70822Y98475D01*
X70240Y98716D01*
X69628Y98863D01*
X69000Y98912D01*
X68372Y98863D01*
X67760Y98716D01*
X67178Y98475D01*
X66642Y98146D01*
X66163Y97737D01*
X65754Y97258D01*
X65425Y96722D01*
X65184Y96140D01*
X65037Y95528D01*
X64988Y94900D01*
X65000Y94737D01*
X65009Y92000D01*
X63000D01*
Y98806D01*
X63197Y98854D01*
X63525Y98989D01*
X63827Y99174D01*
X64096Y99404D01*
X64178Y99500D01*
X79500D01*
G37*
G36*
X73500Y92000D02*X64500D01*
Y99500D01*
X73500D01*
Y92000D01*
G37*
G36*
X129000Y47000D02*Y50379D01*
X129121Y50500D01*
X133000D01*
Y47000D01*
X129000D01*
G37*
G36*
X152000Y68000D02*Y56000D01*
X139900D01*
Y59803D01*
X140060Y59940D01*
X140285Y60203D01*
X140466Y60498D01*
X140599Y60818D01*
X140680Y61155D01*
X140700Y61500D01*
X140680Y61845D01*
X140599Y62182D01*
X140466Y62502D01*
X140285Y62797D01*
X140060Y63060D01*
X139797Y63285D01*
X139502Y63466D01*
X139182Y63599D01*
X139000Y63642D01*
Y68000D01*
X152000D01*
G37*
G36*
X51000Y56000D02*Y62250D01*
X58412D01*
X58500Y62243D01*
X58853Y62271D01*
X58853Y62271D01*
X59197Y62354D01*
X59525Y62489D01*
X59827Y62674D01*
X60096Y62904D01*
X60153Y62971D01*
X60932Y63750D01*
X62500D01*
X62853Y63771D01*
X63197Y63854D01*
X63525Y63989D01*
X63827Y64174D01*
X64096Y64404D01*
X64326Y64673D01*
X64511Y64975D01*
X64646Y65303D01*
X64729Y65647D01*
X64757Y66000D01*
X64729Y66353D01*
X64646Y66697D01*
X64511Y67025D01*
X64326Y67327D01*
X64096Y67596D01*
X63827Y67826D01*
X63543Y68000D01*
X69000D01*
Y63912D01*
X68372Y63863D01*
X67760Y63716D01*
X67178Y63475D01*
X66642Y63146D01*
X66163Y62737D01*
X65754Y62258D01*
X65425Y61722D01*
X65184Y61140D01*
X65037Y60528D01*
X64988Y59900D01*
X65000Y59737D01*
X65009Y56743D01*
X65046Y56590D01*
X65083Y56500D01*
X65046Y56410D01*
X65009Y56257D01*
X65000Y56100D01*
X65000Y56000D01*
X51000D01*
G37*
G36*
X73500Y68000D02*Y63000D01*
X71529D01*
X71358Y63146D01*
X70822Y63475D01*
X70240Y63716D01*
X69628Y63863D01*
X69000Y63912D01*
X68372Y63863D01*
X67760Y63716D01*
X67178Y63475D01*
X66642Y63146D01*
X66471Y63000D01*
X65500D01*
Y68000D01*
X73500D01*
G37*
G36*
X71000D02*X101500D01*
Y64459D01*
X101037Y64423D01*
X100586Y64314D01*
X100157Y64137D01*
X99761Y63894D01*
X99408Y63592D01*
X99106Y63239D01*
X98863Y62843D01*
X98686Y62414D01*
X98577Y61963D01*
X98541Y61500D01*
X98577Y61037D01*
X98686Y60586D01*
X98863Y60157D01*
X99106Y59761D01*
X99329Y59500D01*
X72992D01*
X72992Y59758D01*
X73000Y59900D01*
X72991Y60057D01*
Y60057D01*
X72991Y60057D01*
X72963Y60528D01*
X72816Y61140D01*
X72575Y61722D01*
X72246Y62258D01*
X71837Y62737D01*
X71358Y63146D01*
X71000Y63366D01*
Y68000D01*
G37*
G36*
X79500Y64500D02*Y57467D01*
X79498Y57466D01*
X79203Y57285D01*
X78940Y57060D01*
X78888Y57000D01*
X78612D01*
X78560Y57060D01*
X78297Y57285D01*
X78002Y57466D01*
X77682Y57599D01*
X77345Y57680D01*
X77000Y57707D01*
X76655Y57680D01*
X76318Y57599D01*
X75998Y57466D01*
X75703Y57285D01*
X75440Y57060D01*
X75388Y57000D01*
X73000D01*
X72992Y59758D01*
X73000Y59900D01*
X72991Y60057D01*
Y60057D01*
X72991Y60057D01*
X72963Y60528D01*
X72816Y61140D01*
X72575Y61722D01*
X72246Y62258D01*
X71837Y62737D01*
X71358Y63146D01*
X70822Y63475D01*
X70240Y63716D01*
X69628Y63863D01*
X69000Y63912D01*
X68372Y63863D01*
X67760Y63716D01*
X67178Y63475D01*
X66642Y63146D01*
X66163Y62737D01*
X65754Y62258D01*
X65425Y61722D01*
X65184Y61140D01*
X65037Y60528D01*
X64988Y59900D01*
X65000Y59737D01*
X65009Y57000D01*
X63000D01*
Y63806D01*
X63197Y63854D01*
X63525Y63989D01*
X63827Y64174D01*
X64096Y64404D01*
X64178Y64500D01*
X79500D01*
G37*
G36*
X73500Y57000D02*X64500D01*
Y64500D01*
X73500D01*
Y57000D01*
G37*
G36*
X129000Y12000D02*Y15379D01*
X129121Y15500D01*
X133000D01*
Y12000D01*
X129000D01*
G37*
G36*
X51000Y21000D02*Y27250D01*
X58412D01*
X58500Y27243D01*
X58853Y27271D01*
X58853Y27271D01*
X59197Y27354D01*
X59525Y27489D01*
X59827Y27674D01*
X60096Y27904D01*
X60153Y27971D01*
X60932Y28750D01*
X62500D01*
X62853Y28771D01*
X63197Y28854D01*
X63525Y28989D01*
X63827Y29174D01*
X64096Y29404D01*
X64326Y29673D01*
X64511Y29975D01*
X64646Y30303D01*
X64729Y30647D01*
X64757Y31000D01*
X64729Y31353D01*
X64646Y31697D01*
X64511Y32025D01*
X64326Y32327D01*
X64096Y32596D01*
X63827Y32826D01*
X63543Y33000D01*
X69000D01*
Y28912D01*
X68372Y28863D01*
X67760Y28716D01*
X67178Y28475D01*
X66642Y28146D01*
X66163Y27737D01*
X65754Y27258D01*
X65425Y26722D01*
X65184Y26140D01*
X65037Y25528D01*
X64988Y24900D01*
X65000Y24737D01*
X65009Y21743D01*
X65046Y21590D01*
X65083Y21500D01*
X65046Y21410D01*
X65009Y21257D01*
X65000Y21100D01*
X65000Y21000D01*
X51000D01*
G37*
G36*
X73500Y33000D02*Y28000D01*
X71529D01*
X71358Y28146D01*
X70822Y28475D01*
X70240Y28716D01*
X69628Y28863D01*
X69000Y28912D01*
X68372Y28863D01*
X67760Y28716D01*
X67178Y28475D01*
X66642Y28146D01*
X66471Y28000D01*
X65500D01*
Y33000D01*
X73500D01*
G37*
G36*
X71000D02*X101500D01*
Y29459D01*
X101037Y29423D01*
X100586Y29314D01*
X100157Y29137D01*
X99761Y28894D01*
X99408Y28592D01*
X99106Y28239D01*
X98863Y27843D01*
X98686Y27414D01*
X98577Y26963D01*
X98541Y26500D01*
X98577Y26037D01*
X98686Y25586D01*
X98863Y25157D01*
X99106Y24761D01*
X99329Y24500D01*
X72992D01*
X72992Y24758D01*
X73000Y24900D01*
X72991Y25057D01*
Y25057D01*
X72991Y25057D01*
X72963Y25528D01*
X72816Y26140D01*
X72575Y26722D01*
X72246Y27258D01*
X71837Y27737D01*
X71358Y28146D01*
X71000Y28366D01*
Y33000D01*
G37*
G36*
X79500Y29500D02*Y22467D01*
X79498Y22466D01*
X79203Y22285D01*
X78940Y22060D01*
X78888Y22000D01*
X78612D01*
X78560Y22060D01*
X78297Y22285D01*
X78002Y22466D01*
X77682Y22599D01*
X77345Y22680D01*
X77000Y22707D01*
X76655Y22680D01*
X76318Y22599D01*
X75998Y22466D01*
X75703Y22285D01*
X75440Y22060D01*
X75388Y22000D01*
X73000D01*
X72992Y24758D01*
X73000Y24900D01*
X72991Y25057D01*
Y25057D01*
X72991Y25057D01*
X72963Y25528D01*
X72816Y26140D01*
X72575Y26722D01*
X72246Y27258D01*
X71837Y27737D01*
X71358Y28146D01*
X70822Y28475D01*
X70240Y28716D01*
X69628Y28863D01*
X69000Y28912D01*
X68372Y28863D01*
X67760Y28716D01*
X67178Y28475D01*
X66642Y28146D01*
X66163Y27737D01*
X65754Y27258D01*
X65425Y26722D01*
X65184Y26140D01*
X65037Y25528D01*
X64988Y24900D01*
X65000Y24737D01*
X65009Y22000D01*
X63000D01*
Y28806D01*
X63197Y28854D01*
X63525Y28989D01*
X63827Y29174D01*
X64096Y29404D01*
X64178Y29500D01*
X79500D01*
G37*
G36*
X73500Y22000D02*X64500D01*
Y29500D01*
X73500D01*
Y22000D01*
G37*
G36*
X152000Y33000D02*Y21000D01*
X139900D01*
Y24803D01*
X140060Y24940D01*
X140285Y25203D01*
X140466Y25498D01*
X140599Y25818D01*
X140680Y26155D01*
X140700Y26500D01*
X140680Y26845D01*
X140599Y27182D01*
X140466Y27502D01*
X140285Y27797D01*
X140060Y28060D01*
X139797Y28285D01*
X139502Y28466D01*
X139182Y28599D01*
X139000Y28642D01*
Y33000D01*
X152000D01*
G37*
G54D32*X116500Y335000D02*X117500Y334000D01*
Y331000D01*
G54D33*X127500D01*
X131000Y334500D01*
Y337000D01*
G54D32*X138500Y341500D02*Y331000D01*
X140000Y329500D01*
G54D34*X127000Y336500D02*Y346500D01*
G54D35*X122500Y342500D02*X119000D01*
X116500Y340000D01*
G54D32*X114000Y342500D02*X111500Y340000D01*
G54D33*X115500Y327500D02*X199500D01*
G54D32*X140000Y329500D02*X212000D01*
G54D33*X115500Y292500D02*X199500D01*
G54D32*X138500Y306500D02*Y296000D01*
X140000Y294500D01*
X212000D01*
X110000Y329000D02*X111500Y330500D01*
Y335000D01*
X107500Y330500D02*X109000Y332000D01*
G54D33*X114000D02*Y329000D01*
X115500Y327500D01*
G54D32*X106500Y335000D02*X105000Y336500D01*
G54D34*X106500Y340000D02*Y347000D01*
G54D32*X110000Y329000D02*X89500D01*
X87000Y331500D01*
X107500Y330500D02*X90500D01*
X87000Y331500D02*X84000D01*
X105000Y301500D02*X83000D01*
Y299000D02*X87000D01*
X90500Y330500D02*X87000Y334000D01*
X105000Y336500D02*X83000D01*
X85500Y327500D02*X39500D01*
X44000Y329000D02*X81500D01*
X37500Y335500D02*X44000Y329000D01*
G54D35*X37500Y339500D02*X47000D01*
X37500Y344500D02*X58500D01*
X60000Y346000D01*
X62500D01*
G54D32*X76500Y332500D02*X74000Y335000D01*
X69000D01*
X77000Y335500D02*X79500Y333000D01*
X81500Y329000D02*X84000Y331500D01*
X83000Y336500D02*X82000Y335500D01*
X80500D01*
X79500Y333000D02*X82000D01*
X83000Y334000D01*
X87000D01*
X106500Y300000D02*X105000Y301500D01*
X110000Y294000D02*X111500Y295500D01*
Y300000D01*
X107500Y295500D02*X109000Y297000D01*
G54D34*X106500Y305000D02*Y312000D01*
G54D32*X116500Y300000D02*X117500Y299000D01*
Y296000D01*
G54D33*X127500D01*
X114000Y297000D02*Y294000D01*
X115500Y292500D01*
X127500Y296000D02*X131000Y299500D01*
Y302000D01*
G54D34*X127000Y301500D02*Y311500D01*
G54D35*X122500Y307500D02*X119000D01*
X116500Y305000D01*
G54D32*X114000Y307500D02*X111500Y305000D01*
X110000Y294000D02*X89500D01*
X87000Y296500D01*
X84000D01*
X107500Y295500D02*X90500D01*
X87000Y299000D01*
X106500Y265000D02*X105000Y266500D01*
X110000Y259000D02*X111500Y260500D01*
Y265000D01*
X107500Y260500D02*X109000Y262000D01*
G54D34*X106500Y270000D02*Y277000D01*
G54D32*X116500Y265000D02*X117500Y264000D01*
Y261000D01*
G54D33*X114000Y262000D02*Y259000D01*
X115500Y257500D01*
X117500Y261000D02*X127500D01*
X131000Y264500D01*
Y267000D01*
G54D34*X127000Y266500D02*Y276500D01*
G54D33*X199500Y327500D02*X214000D01*
G54D32*X212000Y329500D02*X213000Y330500D01*
Y336500D01*
G54D33*X214000Y327500D02*X215500Y329000D01*
Y337500D01*
X214000Y339000D01*
X212000D01*
X209500Y336500D01*
X199500Y292500D02*X214000D01*
G54D32*X212000Y294500D02*X213000Y295500D01*
Y301500D01*
G54D33*X214000Y292500D02*X215500Y294000D01*
Y302500D01*
X214000Y304000D01*
X212000D01*
X209500Y301500D01*
G54D32*X212000Y259500D02*X213000Y260500D01*
Y266500D01*
G54D33*X215500Y259000D02*Y267500D01*
X214000Y269000D01*
X212000D01*
X209500Y266500D01*
G54D32*X213000Y225500D02*Y231500D01*
X85500Y397500D02*X39500D01*
X44000Y399000D02*X81500D01*
X87000Y401500D02*X84000D01*
X37500Y405500D02*X44000Y399000D01*
G54D35*X37500Y409500D02*X47000D01*
X37500Y414500D02*X58500D01*
X60000Y416000D01*
X62500D01*
G54D32*X76500Y402500D02*X74000Y405000D01*
X69000D01*
X77000Y405500D02*X79500Y403000D01*
X106500Y405000D02*X105000Y406500D01*
X110000Y399000D02*X111500Y400500D01*
Y405000D01*
X107500Y400500D02*X109000Y402000D01*
G54D34*X106500Y410000D02*Y417000D01*
G54D33*X114000Y402000D02*Y399000D01*
G54D32*X110000D02*X89500D01*
X107500Y400500D02*X90500D01*
X89500Y399000D02*X87000Y401500D01*
X90500Y400500D02*X87000Y404000D01*
X105000Y406500D02*X83000D01*
Y404000D02*X87000D01*
X81500Y399000D02*X84000Y401500D01*
X83000Y406500D02*X82000Y405500D01*
X80500D01*
X79500Y403000D02*X82000D01*
X83000Y404000D01*
X116500Y405000D02*X117500Y404000D01*
Y401000D01*
G54D33*X127500D01*
G54D34*X127000Y406500D02*Y416500D01*
G54D35*X122500Y412500D02*X119000D01*
G54D33*X127500Y401000D02*X131000Y404500D01*
Y407000D01*
G54D32*X138500Y411500D02*Y401000D01*
X140000Y399500D01*
G54D35*X119000Y412500D02*X116500Y410000D01*
G54D32*X114000Y412500D02*X111500Y410000D01*
G54D33*X114000Y399000D02*X115500Y397500D01*
X199500D01*
G54D32*X138500Y376500D02*Y366000D01*
G54D35*X122500Y377500D02*X119000D01*
X116500Y375000D01*
G54D32*X140000Y399500D02*X212000D01*
G54D33*X199500Y397500D02*X214000D01*
G54D32*X212000Y399500D02*X213000Y400500D01*
Y406500D01*
G54D33*X214000Y397500D02*X215500Y399000D01*
X214000Y409000D02*X212000D01*
X215500Y372500D02*X214000Y374000D01*
X212000D01*
X209500Y371500D01*
X215500Y399000D02*Y407500D01*
X214000Y409000D01*
X212000D02*X209500Y406500D01*
X115500Y362500D02*X199500D01*
G54D32*X138500Y366000D02*X140000Y364500D01*
X212000D01*
G54D33*X199500Y362500D02*X214000D01*
G54D32*X212000Y364500D02*X213000Y365500D01*
Y371500D01*
G54D33*X215500Y364000D02*Y372500D01*
X214000Y362500D02*X215500Y364000D01*
G54D32*X106500Y370000D02*X105000Y371500D01*
G54D34*X106500Y375000D02*Y382000D01*
G54D32*X110000Y364000D02*X111500Y365500D01*
X107500D02*X109000Y367000D01*
X114000Y377500D02*X111500Y375000D01*
Y365500D02*Y370000D01*
X116500D02*X117500Y369000D01*
Y366000D01*
G54D33*X114000Y367000D02*Y364000D01*
X115500Y362500D01*
X117500Y366000D02*X127500D01*
X131000Y369500D01*
Y372000D01*
G54D34*X127000Y371500D02*Y381500D01*
G54D32*X85500Y362500D02*X39500D01*
X44000Y364000D02*X81500D01*
X37500Y370500D02*X44000Y364000D01*
G54D35*X37500Y374500D02*X47000D01*
X37500Y379500D02*X58500D01*
X60000Y381000D01*
X62500D01*
G54D32*X110000Y364000D02*X89500D01*
X107500Y365500D02*X90500D01*
X89500Y364000D02*X87000Y366500D01*
X90500Y365500D02*X87000Y369000D01*
Y366500D02*X84000D01*
X105000Y371500D02*X83000D01*
Y369000D02*X87000D01*
X81500Y364000D02*X84000Y366500D01*
X76500Y367500D02*X74000Y370000D01*
X69000D01*
X83000Y371500D02*X82000Y370500D01*
X80500D01*
X77000D02*X79500Y368000D01*
X82000D01*
X83000Y369000D01*
X85500Y292500D02*X39500D01*
X44000Y294000D02*X81500D01*
X37500Y300500D02*X44000Y294000D01*
G54D35*X37500Y304500D02*X47000D01*
X37500Y309500D02*X58500D01*
X60000Y311000D01*
X62500D01*
G54D32*X81500Y294000D02*X84000Y296500D01*
X83000Y301500D02*X82000Y300500D01*
X80500D01*
X79500Y298000D02*X82000D01*
X83000Y299000D01*
X76500Y297500D02*X74000Y300000D01*
X69000D01*
X77000Y300500D02*X79500Y298000D01*
X85500Y257500D02*X39500D01*
X44000Y259000D02*X81500D01*
X37500Y265500D02*X44000Y259000D01*
G54D35*X37500Y269500D02*X47000D01*
X37500Y274500D02*X58500D01*
X60000Y276000D01*
X62500D01*
G54D32*X81500Y259000D02*X84000Y261500D01*
X83000Y266500D02*X82000Y265500D01*
X80500D01*
X79500Y263000D02*X82000D01*
X83000Y264000D01*
X76500Y262500D02*X74000Y265000D01*
X69000D01*
X77000Y265500D02*X79500Y263000D01*
X85500Y222500D02*X39500D01*
X44000Y224000D02*X81500D01*
X37500Y230500D02*X44000Y224000D01*
G54D35*X37500Y234500D02*X47000D01*
X37500Y239500D02*X58500D01*
X60000Y241000D01*
X62500D01*
G54D32*X81500Y224000D02*X84000Y226500D01*
X83000Y231500D02*X82000Y230500D01*
X80500D01*
X79500Y228000D02*X82000D01*
X83000Y229000D01*
X76500Y227500D02*X74000Y230000D01*
X69000D01*
X77000Y230500D02*X79500Y228000D01*
G54D33*X115500Y257500D02*X199500D01*
X214000D01*
X215500Y259000D01*
G54D32*X110000D02*X89500D01*
X138500Y271500D02*Y261000D01*
Y236500D02*Y226000D01*
X140000Y224500D01*
X138500Y261000D02*X140000Y259500D01*
X212000D01*
G54D35*X122500Y272500D02*X119000D01*
X116500Y270000D01*
G54D32*X114000Y272500D02*X111500Y270000D01*
X89500Y259000D02*X87000Y261500D01*
X84000D01*
X107500Y260500D02*X90500D01*
X87000Y264000D01*
X105000Y266500D02*X83000D01*
Y264000D02*X87000D01*
X107500Y225500D02*X90500D01*
X87000Y229000D01*
X105000Y231500D02*X83000D01*
Y229000D02*X87000D01*
X106500Y230000D02*X105000Y231500D01*
X110000Y224000D02*X111500Y225500D01*
Y230000D01*
X107500Y225500D02*X109000Y227000D01*
G54D34*X106500Y235000D02*Y242000D01*
G54D32*X114000Y237500D02*X111500Y235000D01*
X116500Y230000D02*X117500Y229000D01*
Y226000D01*
G54D33*X114000Y227000D02*Y224000D01*
X115500Y222500D01*
G54D32*X110000Y224000D02*X89500D01*
X87000Y226500D01*
X84000D01*
G54D33*X117500Y226000D02*X127500D01*
X131000Y229500D01*
Y232000D01*
G54D34*X127000Y231500D02*Y241500D01*
G54D35*X122500Y237500D02*X119000D01*
X116500Y235000D01*
G54D32*X106500Y195000D02*X105000Y196500D01*
X110000Y189000D02*X111500Y190500D01*
Y195000D01*
X107500Y190500D02*X109000Y192000D01*
G54D34*X106500Y200000D02*Y207000D01*
G54D32*X116500Y195000D02*X117500Y194000D01*
Y191000D01*
G54D33*X127500D01*
X131000Y194500D01*
Y197000D01*
G54D34*X127000Y196500D02*Y206500D01*
G54D33*X114000Y192000D02*Y189000D01*
X115500Y187500D01*
G54D32*X85500D02*X39500D01*
X44000Y189000D02*X81500D01*
X37500Y195500D02*X44000Y189000D01*
G54D35*X37500Y199500D02*X47000D01*
X37500Y204500D02*X58500D01*
X60000Y206000D01*
X62500D01*
G54D32*X81500Y189000D02*X84000Y191500D01*
X83000Y196500D02*X82000Y195500D01*
X80500D01*
X79500Y193000D02*X82000D01*
X83000Y194000D01*
X76500Y192500D02*X74000Y195000D01*
X69000D01*
X77000Y195500D02*X79500Y193000D01*
X83000Y194000D02*X87000D01*
G54D33*X115500Y222500D02*X199500D01*
G54D32*X140000Y224500D02*X212000D01*
G54D33*X199500Y222500D02*X214000D01*
G54D32*X212000Y224500D02*X213000Y225500D01*
G54D33*X115500Y187500D02*X199500D01*
G54D32*X138500Y201500D02*Y191000D01*
X140000Y189500D01*
G54D35*X122500Y202500D02*X119000D01*
X116500Y200000D01*
G54D32*X114000Y202500D02*X111500Y200000D01*
X110000Y189000D02*X89500D01*
X87000Y191500D01*
X84000D01*
X107500Y190500D02*X90500D01*
X87000Y194000D01*
X105000Y196500D02*X83000D01*
G54D33*X214000Y222500D02*X215500Y224000D01*
Y232500D01*
X214000Y234000D01*
X212000D01*
X209500Y231500D01*
X199500Y187500D02*X214000D01*
X215500Y189000D01*
G54D32*X212000Y189500D02*X213000Y190500D01*
Y196500D01*
G54D33*X215500Y189000D02*Y197500D01*
X214000Y199000D01*
X212000D01*
X209500Y196500D01*
G54D32*X140000Y189500D02*X212000D01*
X213000Y155500D02*Y161500D01*
G54D33*X214000Y152500D02*X215500Y154000D01*
Y162500D01*
X214000Y164000D01*
X212000D01*
X209500Y161500D01*
G54D32*X106500Y160000D02*X105000Y161500D01*
X107500Y155500D02*X109000Y157000D01*
G54D34*X106500Y165000D02*Y172000D01*
G54D32*X110000Y154000D02*X111500Y155500D01*
Y160000D01*
X116500D02*X117500Y159000D01*
Y156000D01*
G54D33*X114000Y157000D02*Y154000D01*
X117500Y156000D02*X127500D01*
X131000Y159500D01*
Y162000D01*
G54D34*X127000Y161500D02*Y171500D01*
G54D35*X122500Y167500D02*X119000D01*
X116500Y165000D01*
G54D32*X114000Y167500D02*X111500Y165000D01*
G54D33*X114000Y154000D02*X115500Y152500D01*
G54D32*X110000Y154000D02*X89500D01*
X107500Y155500D02*X90500D01*
X89500Y154000D02*X87000Y156500D01*
X90500Y155500D02*X87000Y159000D01*
X105000Y161500D02*X83000D01*
Y159000D02*X87000D01*
X106500Y125000D02*X105000Y126500D01*
X107500Y120500D02*X109000Y122000D01*
G54D34*X106500Y130000D02*Y137000D01*
G54D32*X110000Y119000D02*X111500Y120500D01*
Y125000D01*
X116500D02*X117500Y124000D01*
Y121000D01*
G54D33*X114000Y122000D02*Y119000D01*
X115500Y117500D01*
X117500Y121000D02*X127500D01*
X131000Y124500D01*
Y127000D01*
G54D34*X127000Y126500D02*Y136500D01*
G54D33*X115500Y152500D02*X199500D01*
G54D32*X140000Y154500D02*X212000D01*
G54D33*X199500Y152500D02*X214000D01*
G54D32*X212000Y154500D02*X213000Y155500D01*
X138500Y166500D02*Y156000D01*
X140000Y154500D01*
G54D33*X115500Y117500D02*X199500D01*
G54D32*X138500Y131500D02*Y121000D01*
X140000Y119500D01*
G54D35*X122500Y132500D02*X119000D01*
X116500Y130000D01*
G54D32*X114000Y132500D02*X111500Y130000D01*
X110000Y119000D02*X89500D01*
X107500Y120500D02*X90500D01*
X105000Y126500D02*X83000D01*
X89500Y119000D02*X87000Y121500D01*
X84000D01*
X90500Y120500D02*X87000Y124000D01*
X83000D02*X87000D01*
G54D33*X199500Y117500D02*X214000D01*
X215500Y119000D01*
G54D32*X212000Y119500D02*X213000Y120500D01*
Y126500D01*
G54D33*X215500Y119000D02*Y127500D01*
X214000Y129000D01*
X212000D01*
X209500Y126500D01*
G54D32*X213000Y85500D02*Y91500D01*
G54D33*X214000Y82500D02*X215500Y84000D01*
Y92500D01*
X214000Y94000D01*
G54D32*X85500Y152500D02*X39500D01*
X44000Y154000D02*X81500D01*
X87000Y156500D02*X84000D01*
X37500Y160500D02*X44000Y154000D01*
G54D35*X37500Y164500D02*X47000D01*
X37500Y169500D02*X58500D01*
X60000Y171000D01*
X62500D01*
G54D32*X76500Y157500D02*X74000Y160000D01*
X69000D01*
X77000Y160500D02*X79500Y158000D01*
X81500Y154000D02*X84000Y156500D01*
X83000Y161500D02*X82000Y160500D01*
X80500D01*
X79500Y158000D02*X82000D01*
X83000Y159000D01*
G54D35*X58500Y134500D02*X60000Y136000D01*
X62500D01*
G54D32*X81500Y119000D02*X84000Y121500D01*
X83000Y126500D02*X82000Y125500D01*
X80500D01*
X79500Y123000D02*X82000D01*
X83000Y124000D01*
X76500Y122500D02*X74000Y125000D01*
X69000D01*
X77000Y125500D02*X79500Y123000D01*
X85500Y117500D02*X39500D01*
X44000Y119000D02*X81500D01*
X37500Y125500D02*X44000Y119000D01*
G54D35*X37500Y129500D02*X47000D01*
X37500Y134500D02*X58500D01*
G54D32*X106500Y90000D02*X105000Y91500D01*
X110000Y84000D02*X111500Y85500D01*
Y90000D01*
X107500Y85500D02*X109000Y87000D01*
G54D34*X106500Y95000D02*Y102000D01*
G54D32*X116500Y90000D02*X117500Y89000D01*
Y86000D01*
G54D33*X114000Y87000D02*Y84000D01*
X115500Y82500D01*
X117500Y86000D02*X127500D01*
X131000Y89500D01*
Y92000D01*
G54D34*X127000Y91500D02*Y101500D01*
G54D32*X85500Y82500D02*X39500D01*
X44000Y84000D02*X81500D01*
X37500Y90500D02*X44000Y84000D01*
G54D35*X37500Y94500D02*X47000D01*
X37500Y99500D02*X58500D01*
X60000Y101000D01*
X62500D01*
G54D32*X81500Y84000D02*X84000Y86500D01*
X83000Y91500D02*X82000Y90500D01*
X80500D01*
X79500Y88000D02*X82000D01*
X83000Y89000D01*
X76500Y87500D02*X74000Y90000D01*
X69000D01*
X77000Y90500D02*X79500Y88000D01*
X106500Y55000D02*X105000Y56500D01*
X110000Y49000D02*X111500Y50500D01*
Y55000D01*
X107500Y50500D02*X109000Y52000D01*
G54D34*X106500Y60000D02*Y67000D01*
G54D32*X116500Y55000D02*X117500Y54000D01*
Y51000D01*
G54D33*X114000Y52000D02*Y49000D01*
X115500Y47500D01*
X117500Y51000D02*X127500D01*
X131000Y54500D01*
Y57000D01*
G54D34*X127000Y56500D02*Y66500D01*
G54D32*X140000Y119500D02*X212000D01*
G54D33*X115500Y82500D02*X199500D01*
G54D32*X140000Y84500D02*X212000D01*
G54D33*X199500Y82500D02*X214000D01*
G54D32*X212000Y84500D02*X213000Y85500D01*
G54D33*X212000Y94000D02*X209500Y91500D01*
G54D32*X138500Y96500D02*Y86000D01*
G54D35*X122500Y97500D02*X119000D01*
X116500Y95000D01*
G54D32*X114000Y97500D02*X111500Y95000D01*
X138500Y86000D02*X140000Y84500D01*
X110000Y84000D02*X89500D01*
X87000Y86500D01*
X84000D01*
X107500Y85500D02*X90500D01*
X87000Y89000D01*
X105000Y91500D02*X83000D01*
Y89000D02*X87000D01*
G54D33*X115500Y47500D02*X199500D01*
G54D32*X140000Y49500D02*X212000D01*
G54D33*X199500Y47500D02*X214000D01*
G54D32*X212000Y49500D02*X213000Y50500D01*
G54D33*X214000Y47500D02*X215500Y49000D01*
G54D32*X138500Y61500D02*Y51000D01*
X140000Y49500D01*
G54D35*X122500Y62500D02*X119000D01*
X116500Y60000D01*
G54D32*X114000Y62500D02*X111500Y60000D01*
X110000Y49000D02*X89500D01*
X87000Y51500D01*
X107500Y50500D02*X90500D01*
X87000Y51500D02*X84000D01*
X83000Y54000D02*X87000D01*
X90500Y50500D02*X87000Y54000D01*
X105000Y56500D02*X83000D01*
G54D33*X214000Y94000D02*X212000D01*
X215500Y57500D02*X214000Y59000D01*
X212000D01*
G54D32*X213000Y50500D02*Y56500D01*
G54D33*X215500Y49000D02*Y57500D01*
X212000Y59000D02*X209500Y56500D01*
X115500Y12500D02*X199500D01*
G54D32*X140000Y14500D02*X212000D01*
G54D33*X199500Y12500D02*X214000D01*
G54D32*X212000Y14500D02*X213000Y15500D01*
X138500Y26500D02*Y16000D01*
X140000Y14500D01*
G54D33*X214000Y12500D02*X215500Y14000D01*
Y22500D01*
G54D32*X213000Y15500D02*Y21500D01*
G54D33*X215500Y22500D02*X214000Y24000D01*
X212000D01*
X209500Y21500D01*
G54D32*X83000Y19000D02*X87000D01*
X85500Y47500D02*X39500D01*
X44000Y49000D02*X81500D01*
X37500Y55500D02*X44000Y49000D01*
G54D35*X37500Y59500D02*X47000D01*
X37500Y64500D02*X58500D01*
X60000Y66000D01*
X62500D01*
G54D32*X81500Y49000D02*X84000Y51500D01*
X83000Y56500D02*X82000Y55500D01*
X80500D01*
X79500Y53000D02*X82000D01*
X83000Y54000D01*
X76500Y52500D02*X74000Y55000D01*
X69000D01*
X77000Y55500D02*X79500Y53000D01*
X106500Y20000D02*X105000Y21500D01*
X110000Y14000D02*X111500Y15500D01*
Y20000D01*
X107500Y15500D02*X109000Y17000D01*
G54D34*X106500Y25000D02*Y32000D01*
G54D32*X114000Y27500D02*X111500Y25000D01*
X116500Y20000D02*X117500Y19000D01*
Y16000D01*
G54D33*X114000Y17000D02*Y14000D01*
X115500Y12500D01*
X117500Y16000D02*X127500D01*
X131000Y19500D01*
Y22000D01*
G54D34*X127000Y21500D02*Y31500D01*
G54D35*X122500Y27500D02*X119000D01*
X116500Y25000D01*
G54D32*X85500Y12500D02*X39500D01*
X44000Y14000D02*X81500D01*
X37500Y20500D02*X44000Y14000D01*
G54D35*X37500Y24500D02*X47000D01*
X37500Y29500D02*X58500D01*
X60000Y31000D01*
X62500D01*
G54D32*X81500Y14000D02*X84000Y16500D01*
X83000Y21500D02*X82000Y20500D01*
X80500D01*
X79500Y18000D02*X82000D01*
X83000Y19000D01*
X76500Y17500D02*X74000Y20000D01*
X69000D01*
X77000Y20500D02*X79500Y18000D01*
X110000Y14000D02*X89500D01*
X87000Y16500D01*
X84000D01*
X107500Y15500D02*X90500D01*
X87000Y19000D01*
X105000Y21500D02*X83000D01*
G54D36*X31419Y330000D02*X33337D01*
X31419Y335000D02*X33337D01*
X31419Y345000D02*X33337D01*
X31419Y340000D02*X33337D01*
G54D37*X69000Y339900D03*
G54D38*X67500Y338400D02*X70500D01*
G54D37*X69000Y333100D03*
G54D38*X67500Y334600D02*X70500D01*
G54D36*X31419Y295000D02*X33337D01*
X31419Y300000D02*X33337D01*
X31419Y310000D02*X33337D01*
X31419Y305000D02*X33337D01*
G54D37*X69000Y304900D03*
G54D38*X67500Y303400D02*X70500D01*
G54D37*X69000Y298100D03*
G54D38*X67500Y299600D02*X70500D01*
G54D39*X116500Y335000D03*
Y340000D03*
X111500Y335000D03*
X116500Y300000D03*
Y305000D03*
X111500Y300000D03*
Y305000D03*
X106500Y300000D03*
Y305000D03*
G54D36*X31419Y260000D02*X33337D01*
X31419Y265000D02*X33337D01*
X31419Y275000D02*X33337D01*
X31419Y270000D02*X33337D01*
G54D37*X69000Y269900D03*
G54D38*X67500Y268400D02*X70500D01*
G54D37*X69000Y263100D03*
G54D38*X67500Y264600D02*X70500D01*
G54D36*X31419Y225000D02*X33337D01*
X31419Y230000D02*X33337D01*
X31419Y240000D02*X33337D01*
X31419Y235000D02*X33337D01*
G54D37*X69000Y234900D03*
G54D38*X67500Y233400D02*X70500D01*
G54D37*X69000Y228100D03*
G54D38*X67500Y229600D02*X70500D01*
G54D36*X31419Y405000D02*X33337D01*
X31419Y400000D02*X33337D01*
X31419Y415000D02*X33337D01*
X31419Y410000D02*X33337D01*
G54D37*X69000Y409900D03*
G54D38*X67500Y408400D02*X70500D01*
G54D37*X69000Y403100D03*
G54D38*X67500Y404600D02*X70500D01*
G54D36*X31419Y365000D02*X33337D01*
X31419Y370000D02*X33337D01*
X31419Y380000D02*X33337D01*
X31419Y375000D02*X33337D01*
G54D37*X69000Y374900D03*
G54D38*X67500Y373400D02*X70500D01*
G54D37*X69000Y368100D03*
G54D38*X67500Y369600D02*X70500D01*
G54D39*X116500Y405000D03*
Y410000D03*
X111500Y405000D03*
Y410000D03*
X106500Y405000D03*
Y410000D03*
X116500Y370000D03*
Y375000D03*
X111500Y370000D03*
Y375000D03*
X106500Y370000D03*
Y375000D03*
X111500Y340000D03*
X106500D03*
Y335000D03*
X116500Y265000D03*
Y270000D03*
X111500D03*
Y265000D03*
X106500D03*
Y270000D03*
X116500Y230000D03*
Y235000D03*
X111500Y230000D03*
Y235000D03*
X106500Y230000D03*
Y235000D03*
X116500Y195000D03*
Y200000D03*
X111500Y195000D03*
Y200000D03*
X106500Y195000D03*
Y200000D03*
X116500Y160000D03*
Y20000D03*
Y25000D03*
X111500D03*
X106500D03*
X111500Y20000D03*
X106500D03*
X116500Y55000D03*
Y60000D03*
X111500Y55000D03*
Y60000D03*
X106500Y55000D03*
Y60000D03*
G54D36*X31419Y190000D02*X33337D01*
X31419Y195000D02*X33337D01*
X31419Y205000D02*X33337D01*
X31419Y200000D02*X33337D01*
G54D37*X69000Y199900D03*
G54D38*X67500Y198400D02*X70500D01*
G54D37*X69000Y193100D03*
G54D38*X67500Y194600D02*X70500D01*
G54D36*X31419Y155000D02*X33337D01*
X31419Y160000D02*X33337D01*
X31419Y170000D02*X33337D01*
X31419Y165000D02*X33337D01*
G54D37*X69000Y164900D03*
G54D38*X67500Y163400D02*X70500D01*
G54D37*X69000Y158100D03*
G54D38*X67500Y159600D02*X70500D01*
G54D36*X31419Y120000D02*X33337D01*
X31419Y125000D02*X33337D01*
X31419Y135000D02*X33337D01*
X31419Y130000D02*X33337D01*
G54D37*X69000Y129900D03*
G54D38*X67500Y128400D02*X70500D01*
G54D37*X69000Y123100D03*
G54D38*X67500Y124600D02*X70500D01*
G54D39*X116500Y165000D03*
X111500Y160000D03*
Y165000D03*
X106500Y160000D03*
Y165000D03*
X116500Y125000D03*
Y130000D03*
X111500Y125000D03*
Y130000D03*
X106500Y125000D03*
Y130000D03*
X116500Y90000D03*
Y95000D03*
X111500Y90000D03*
Y95000D03*
X106500D03*
Y90000D03*
G54D36*X31419Y85000D02*X33337D01*
X31419Y90000D02*X33337D01*
X31419Y100000D02*X33337D01*
X31419Y95000D02*X33337D01*
G54D37*X69000Y94900D03*
G54D38*X67500Y93400D02*X70500D01*
G54D37*X69000Y88100D03*
G54D38*X67500Y89600D02*X70500D01*
G54D36*X31419Y50000D02*X33337D01*
X31419Y55000D02*X33337D01*
X31419Y65000D02*X33337D01*
X31419Y60000D02*X33337D01*
G54D37*X69000Y59900D03*
G54D38*X67500Y58400D02*X70500D01*
G54D37*X69000Y53100D03*
G54D38*X67500Y54600D02*X70500D01*
G54D36*X31419Y15000D02*X33337D01*
X31419Y20000D02*X33337D01*
X31419Y30000D02*X33337D01*
X31419Y25000D02*X33337D01*
G54D37*X69000Y24900D03*
G54D38*X67500Y23400D02*X70500D01*
G54D37*X69000Y18100D03*
G54D38*X67500Y19600D02*X70500D01*
G54D40*X225500Y226594D03*
X228500D03*
X213000Y231500D03*
X209500D03*
X225500Y296594D03*
X213000Y301500D03*
X209500D03*
X228500Y296594D03*
X225500Y261594D03*
X228500D03*
X213000Y266500D03*
X209500D03*
X225500Y191594D03*
X228500D03*
X213000Y196500D03*
X209500D03*
X225500Y156594D03*
X228500D03*
X213000Y161500D03*
X209500D03*
X228500Y121594D03*
X225500D03*
Y86594D03*
X228500D03*
X213000Y126500D03*
X209500D03*
X213000Y91500D03*
X209500D03*
X225500Y51594D03*
Y16594D03*
X228500D03*
Y51594D03*
X213000Y56500D03*
Y21500D03*
X209500D03*
Y56500D03*
G54D41*X141500Y93000D03*
G54D40*X114000Y97500D03*
G54D41*X117500Y51000D03*
G54D40*X114000Y27500D03*
G54D41*X131000Y48500D03*
X109000Y52000D03*
X114000D03*
X127000Y56500D03*
X122500Y62500D03*
G54D40*X114000D03*
G54D41*X131000Y57000D03*
X145500Y58000D03*
X149500D03*
X141500D03*
G54D40*X138500Y61500D03*
G54D41*X131000Y398500D03*
Y407000D03*
X145500Y408000D03*
X149500D03*
G54D40*X138500Y411500D03*
G54D41*X141500Y408000D03*
G54D40*X225500Y401594D03*
X228500D03*
X213000Y406500D03*
X209500D03*
X225500Y366594D03*
X228500D03*
X213000Y371500D03*
X209500D03*
G54D41*X109000Y402000D03*
X114000D03*
X117500Y401000D03*
X127000Y406500D03*
X122500Y412500D03*
G54D40*X114000D03*
G54D41*X109000Y367000D03*
X114000D03*
X117500Y366000D03*
X131000Y363500D03*
Y372000D03*
X145500Y373000D03*
X149500D03*
G54D40*X138500Y376500D03*
G54D41*X141500Y373000D03*
X127000Y371500D03*
X122500Y377500D03*
G54D40*X114000D03*
G54D41*X109000Y332000D03*
X114000D03*
X117500Y331000D03*
X131000Y328500D03*
Y337000D03*
X127000Y336500D03*
X122500Y342500D03*
G54D40*X114000D03*
G54D41*X145500Y338000D03*
X149500D03*
G54D40*X225500Y331594D03*
X228500D03*
X213000Y336500D03*
X209500D03*
X138500Y341500D03*
G54D41*X141500Y338000D03*
G54D40*X80500Y90500D03*
X84000Y51500D03*
X76500Y52500D03*
X77000Y55500D03*
X80500D03*
X76500Y192500D03*
X77000Y195500D03*
X80500D03*
X84000Y191500D03*
Y226500D03*
X76500Y227500D03*
X77000Y230500D03*
X80500D03*
X85500Y82500D03*
X84000Y86500D03*
X76500Y87500D03*
X77000Y90500D03*
X85500Y47500D03*
G54D41*X109000Y227000D03*
X114000D03*
G54D40*Y237500D03*
G54D41*X117500Y226000D03*
X131000Y223500D03*
Y232000D03*
X145500Y233000D03*
X149500D03*
G54D40*X138500Y236500D03*
G54D41*X141500Y233000D03*
X127000Y231500D03*
X122500Y237500D03*
G54D40*X85500Y222500D03*
Y187500D03*
G54D41*X109000Y192000D03*
Y157000D03*
X114000Y192000D03*
G54D40*Y202500D03*
G54D41*Y157000D03*
X117500Y191000D03*
Y156000D03*
X131000Y188500D03*
Y153500D03*
Y162000D03*
X127000Y161500D03*
X122500Y167500D03*
X131000Y197000D03*
X127000Y196500D03*
X122500Y202500D03*
X145500Y198000D03*
X149500D03*
G54D40*X138500Y201500D03*
G54D41*X141500Y198000D03*
X145500Y163000D03*
X149500D03*
G54D40*X138500Y166500D03*
X80500Y265500D03*
X85500Y257500D03*
X84000Y261500D03*
X76500Y262500D03*
X77000Y265500D03*
X85500Y292500D03*
X84000Y296500D03*
X76500Y297500D03*
X77000Y300500D03*
X80500D03*
G54D41*X109000Y297000D03*
X114000D03*
G54D40*Y307500D03*
G54D41*X117500Y296000D03*
X131000Y293500D03*
Y302000D03*
X127000Y301500D03*
X122500Y307500D03*
X145500Y303000D03*
X149500D03*
G54D40*X138500Y306500D03*
G54D41*X141500Y303000D03*
X109000Y262000D03*
X114000D03*
X117500Y261000D03*
X131000Y258500D03*
Y267000D03*
X127000Y266500D03*
X122500Y272500D03*
G54D40*X114000D03*
G54D41*X145500Y268000D03*
X149500D03*
G54D40*X138500Y271500D03*
X80500Y335500D03*
X85500Y327500D03*
X84000Y331500D03*
X76500Y332500D03*
X77000Y335500D03*
X84000Y366500D03*
X76500Y367500D03*
X77000Y370500D03*
X80500D03*
X64000Y402000D03*
X76500Y402500D03*
X77000Y405500D03*
X85500Y397500D03*
X84000Y401500D03*
X80500Y405500D03*
G54D41*X37500Y414500D03*
Y405500D03*
Y409500D03*
G54D40*X48500Y407500D03*
X60000Y416000D03*
X62500D03*
X64000Y332000D03*
X60000Y346000D03*
X62500D03*
G54D41*X37500Y379500D03*
G54D40*X60000Y381000D03*
X62500D03*
G54D41*X37500Y370500D03*
G54D40*X48500Y372500D03*
X64000Y367000D03*
G54D41*X37500Y374500D03*
Y344500D03*
Y335500D03*
Y339500D03*
G54D40*X48500Y337500D03*
G54D41*X37500Y309500D03*
Y300500D03*
Y304500D03*
G54D40*X48500Y302500D03*
X64000Y297000D03*
X60000Y311000D03*
X62500D03*
X60000Y276000D03*
X62500D03*
X64000Y262000D03*
Y227000D03*
X60000Y241000D03*
X62500D03*
G54D41*X37500Y274500D03*
Y265500D03*
G54D40*X48500Y267500D03*
G54D41*X37500Y269500D03*
Y239500D03*
Y230500D03*
Y234500D03*
G54D40*X48500Y232500D03*
Y197500D03*
X85500Y362500D03*
Y152500D03*
X84000Y156500D03*
X76500Y157500D03*
X77000Y160500D03*
X80500D03*
X76500Y17500D03*
X77000Y20500D03*
X80500D03*
X64000Y192000D03*
X60000Y171000D03*
X62500D03*
X60000Y206000D03*
X62500D03*
X64000Y157000D03*
Y122000D03*
X60000Y136000D03*
X62500D03*
X64000Y87000D03*
Y52000D03*
X62500Y66000D03*
X64000Y17000D03*
X62500Y31000D03*
X60000Y101000D03*
Y66000D03*
Y31000D03*
X62500Y101000D03*
G54D41*X37500Y204500D03*
Y195500D03*
Y199500D03*
Y169500D03*
Y164500D03*
Y134500D03*
Y125500D03*
Y129500D03*
G54D40*X48500Y127500D03*
G54D41*X37500Y160500D03*
Y99500D03*
G54D40*X48500Y162500D03*
Y57500D03*
G54D41*X37500Y90500D03*
G54D40*X48500Y92500D03*
G54D41*X37500Y94500D03*
Y64500D03*
Y55500D03*
Y59500D03*
Y29500D03*
Y20500D03*
Y24500D03*
G54D40*X48500Y22500D03*
G54D41*X141500Y268000D03*
Y163000D03*
X145500Y23000D03*
X149500D03*
G54D40*X138500Y26500D03*
G54D41*X141500Y23000D03*
G54D40*X85500Y117500D03*
X84000Y121500D03*
X76500Y122500D03*
X77000Y125500D03*
X80500D03*
X85500Y12500D03*
X84000Y16500D03*
X114000Y167500D03*
G54D41*X109000Y87000D03*
X114000D03*
X117500Y86000D03*
X109000Y122000D03*
X114000D03*
X117500Y121000D03*
X131000Y118500D03*
Y127000D03*
X127000Y126500D03*
X122500Y132500D03*
G54D40*X114000D03*
G54D41*X109000Y17000D03*
X114000D03*
X117500Y16000D03*
X131000Y13500D03*
Y22000D03*
X127000Y21500D03*
X122500Y27500D03*
X145500Y128000D03*
G54D40*X138500Y131500D03*
G54D41*X141500Y128000D03*
X149500D03*
X131000Y83500D03*
Y92000D03*
X127000Y91500D03*
X122500Y97500D03*
X145500Y93000D03*
X149500D03*
G54D40*X138500Y96500D03*
G54D39*G54D42*G54D43*G54D42*G54D43*G54D42*G54D43*G54D42*G54D43*G54D42*G54D43*G54D42*G54D43*G54D42*G54D43*G54D42*G54D43*G54D42*G54D43*G54D42*G54D43*G54D42*G54D43*G54D42*G54D43*G54D39*G54D42*G54D39*G54D42*G54D39*G54D42*G54D39*G54D42*G54D39*G54D42*G54D43*G54D42*G54D43*G54D42*G54D43*G54D42*G54D43*G54D42*G54D43*G54D42*G54D43*G54D42*G54D39*G54D42*G54D39*G54D42*G54D39*G54D42*G54D43*G54D42*G54D43*G54D42*G54D43*G54D42*G54D43*G54D42*G54D39*G54D42*G54D39*G54D42*G54D39*G54D42*G54D39*G54D42*G54D39*G54D42*G54D43*G54D42*G54D43*G54D42*G54D43*G54D42*G54D43*G54D42*G54D43*G54D42*G54D43*G54D42*G54D43*G54D42*G54D43*G54D42*G54D43*G54D42*G54D43*G54D42*G54D43*G54D42*G54D43*G54D42*G54D43*G54D42*G54D43*G54D42*G54D43*G54D42*G54D43*G54D42*G54D44*M02*
