G04 start of page 2 for group 0 idx 0 *
G04 Title: (unknown), top *
G04 Creator: pcb 20140316 *
G04 CreationDate: Thu 20 Aug 2020 02:40:25 AM GMT UTC *
G04 For: railfan *
G04 Format: Gerber/RS-274X *
G04 PCB-Dimensions (mil): 2500.00 4300.00 *
G04 PCB-Coordinate-Origin: lower left *
%MOIN*%
%FSLAX25Y25*%
%LNTOP*%
%ADD30C,0.0390*%
%ADD29C,0.0140*%
%ADD28C,0.0120*%
%ADD27C,0.0310*%
%ADD26C,0.0300*%
%ADD25C,0.0240*%
%ADD24R,0.0384X0.0384*%
%ADD23R,0.0236X0.0236*%
%ADD22R,0.0945X0.0945*%
%ADD21R,0.0378X0.0378*%
%ADD20R,0.0550X0.0550*%
%ADD19R,0.0240X0.0240*%
%ADD18R,0.0200X0.0200*%
%ADD17R,0.0512X0.0512*%
%ADD16R,0.0284X0.0284*%
%ADD15C,0.0180*%
%ADD14C,0.0100*%
%ADD13C,0.0250*%
%ADD12C,0.0080*%
%ADD11C,0.0001*%
G54D11*G36*
X240000Y385000D02*Y360000D01*
X232500D01*
Y385000D01*
X240000D01*
G37*
G36*
Y350000D02*Y325000D01*
X232500D01*
Y350000D01*
X240000D01*
G37*
G36*
Y315000D02*Y290000D01*
X232500D01*
Y315000D01*
X240000D01*
G37*
G36*
Y280000D02*Y255000D01*
X232500D01*
Y280000D01*
X240000D01*
G37*
G36*
Y245000D02*Y220000D01*
X232500D01*
Y245000D01*
X240000D01*
G37*
G36*
Y210000D02*Y185000D01*
X232500D01*
Y210000D01*
X240000D01*
G37*
G36*
Y175000D02*Y150000D01*
X232500D01*
Y175000D01*
X240000D01*
G37*
G36*
Y140000D02*Y115000D01*
X232500D01*
Y140000D01*
X240000D01*
G37*
G36*
Y105000D02*Y80000D01*
X232500D01*
Y105000D01*
X240000D01*
G37*
G36*
Y70000D02*Y45000D01*
X232500D01*
Y70000D01*
X240000D01*
G37*
G36*
Y35000D02*Y10000D01*
X232500D01*
Y35000D01*
X240000D01*
G37*
G36*
X142000Y310500D02*X162000D01*
Y306000D01*
X142000D01*
Y310500D01*
G37*
G36*
X163000Y313000D02*X178000D01*
Y297500D01*
X163000D01*
Y313000D01*
G37*
G36*
X142000Y305000D02*X166000D01*
Y301000D01*
X142000D01*
Y305000D01*
G37*
G36*
X153000Y302000D02*X164500D01*
Y300000D01*
X154000D01*
X153000Y301000D01*
Y302000D01*
G37*
G36*
X162000Y298500D02*Y294500D01*
X147500D01*
Y298500D01*
X162000D01*
G37*
G36*
Y306000D02*X140642D01*
X140680Y306155D01*
X140700Y306500D01*
X140680Y306845D01*
X140599Y307182D01*
X140466Y307502D01*
X140285Y307797D01*
X140060Y308060D01*
X139900Y308197D01*
Y308445D01*
X139904Y308500D01*
X139887Y308720D01*
X139836Y308934D01*
X139751Y309138D01*
X139636Y309325D01*
X139636Y309326D01*
X139493Y309493D01*
X139451Y309529D01*
X138529Y310451D01*
X138493Y310493D01*
X138325Y310636D01*
X138138Y310751D01*
X137934Y310836D01*
X137720Y310887D01*
X137500Y310904D01*
X137445Y310900D01*
X128055D01*
X128000Y310904D01*
X127780Y310887D01*
X127566Y310836D01*
X127362Y310751D01*
X127175Y310636D01*
X127174Y310636D01*
X127007Y310493D01*
X126971Y310451D01*
X126149Y309629D01*
X126107Y309593D01*
X126017Y309488D01*
X125665Y309486D01*
X125435Y309431D01*
X125217Y309341D01*
X125016Y309217D01*
X124836Y309064D01*
X124683Y308884D01*
X124559Y308683D01*
X124469Y308465D01*
X124414Y308235D01*
X124400Y308000D01*
X124407Y306000D01*
X121000D01*
Y313000D01*
X162000D01*
Y306000D01*
G37*
G36*
X141000Y305000D02*X144500D01*
Y294000D01*
X141000D01*
Y305000D01*
G37*
G36*
X142000D02*Y300500D01*
X133530D01*
X133500Y300549D01*
Y305000D01*
X136888D01*
X136940Y304940D01*
X137203Y304715D01*
X137498Y304534D01*
X137818Y304401D01*
X138155Y304320D01*
X138500Y304293D01*
X138845Y304320D01*
X139182Y304401D01*
X139502Y304534D01*
X139797Y304715D01*
X140060Y304940D01*
X140112Y305000D01*
X142000D01*
G37*
G36*
X141000Y270000D02*X144500D01*
Y259000D01*
X141000D01*
Y270000D01*
G37*
G36*
X142000D02*Y265500D01*
X133530D01*
X133500Y265549D01*
Y270000D01*
X136888D01*
X136940Y269940D01*
X137203Y269715D01*
X137498Y269534D01*
X137818Y269401D01*
X138155Y269320D01*
X138500Y269293D01*
X138845Y269320D01*
X139182Y269401D01*
X139502Y269534D01*
X139797Y269715D01*
X140060Y269940D01*
X140112Y270000D01*
X142000D01*
G37*
G36*
X162000Y271000D02*X140642D01*
X140680Y271155D01*
X140700Y271500D01*
X140680Y271845D01*
X140599Y272182D01*
X140466Y272502D01*
X140285Y272797D01*
X140060Y273060D01*
X139900Y273197D01*
Y273445D01*
X139904Y273500D01*
X139887Y273720D01*
X139836Y273934D01*
X139751Y274138D01*
X139636Y274325D01*
X139636Y274326D01*
X139493Y274493D01*
X139451Y274529D01*
X138529Y275451D01*
X138493Y275493D01*
X138325Y275636D01*
X138138Y275751D01*
X137934Y275836D01*
X137720Y275887D01*
X137500Y275904D01*
X137445Y275900D01*
X128055D01*
X128000Y275904D01*
X127780Y275887D01*
X127566Y275836D01*
X127362Y275751D01*
X127175Y275636D01*
X127174Y275636D01*
X127007Y275493D01*
X126971Y275451D01*
X126149Y274629D01*
X126107Y274593D01*
X126017Y274488D01*
X125665Y274486D01*
X125435Y274431D01*
X125217Y274341D01*
X125016Y274217D01*
X124836Y274064D01*
X124683Y273884D01*
X124559Y273683D01*
X124469Y273465D01*
X124414Y273235D01*
X124400Y273000D01*
X124407Y271000D01*
X121000D01*
Y278000D01*
X162000D01*
Y271000D01*
G37*
G36*
X142000Y275500D02*X162000D01*
Y271000D01*
X142000D01*
Y275500D01*
G37*
G36*
Y270000D02*X166000D01*
Y266000D01*
X142000D01*
Y270000D01*
G37*
G36*
X153000Y267000D02*X164500D01*
Y265000D01*
X154000D01*
X153000Y266000D01*
Y267000D01*
G37*
G36*
X162000Y263500D02*Y259500D01*
X147500D01*
Y263500D01*
X162000D01*
G37*
G36*
X163000Y278000D02*X178000D01*
Y262500D01*
X163000D01*
Y278000D01*
G37*
G36*
X162000Y236000D02*X140642D01*
X140680Y236155D01*
X140700Y236500D01*
X140680Y236845D01*
X140599Y237182D01*
X140466Y237502D01*
X140285Y237797D01*
X140060Y238060D01*
X139900Y238197D01*
Y238445D01*
X139904Y238500D01*
X139887Y238720D01*
X139836Y238934D01*
X139751Y239138D01*
X139636Y239325D01*
X139636Y239326D01*
X139493Y239493D01*
X139451Y239529D01*
X138529Y240451D01*
X138493Y240493D01*
X138325Y240636D01*
X138138Y240751D01*
X137934Y240836D01*
X137720Y240887D01*
X137500Y240904D01*
X137445Y240900D01*
X128055D01*
X128000Y240904D01*
X127780Y240887D01*
X127566Y240836D01*
X127362Y240751D01*
X127175Y240636D01*
X127174Y240636D01*
X127007Y240493D01*
X126971Y240451D01*
X126149Y239629D01*
X126107Y239593D01*
X126017Y239488D01*
X125665Y239486D01*
X125435Y239431D01*
X125217Y239341D01*
X125016Y239217D01*
X124836Y239064D01*
X124683Y238884D01*
X124559Y238683D01*
X124469Y238465D01*
X124414Y238235D01*
X124400Y238000D01*
X124407Y236000D01*
X121000D01*
Y243000D01*
X162000D01*
Y236000D01*
G37*
G36*
X113000Y348000D02*X124000D01*
Y341000D01*
X119904D01*
Y341000D01*
X119887Y341220D01*
X119836Y341434D01*
X119751Y341638D01*
X119636Y341825D01*
X119636Y341826D01*
X119493Y341993D01*
X119451Y342029D01*
X118029Y343451D01*
X117993Y343493D01*
X117825Y343636D01*
X117638Y343751D01*
X117434Y343836D01*
X117220Y343887D01*
X117000Y343904D01*
X116945Y343900D01*
X115434D01*
X115419Y343919D01*
X115179Y344123D01*
X114911Y344288D01*
X114620Y344408D01*
X114314Y344481D01*
X114000Y344506D01*
X113686Y344481D01*
X113380Y344408D01*
X113089Y344288D01*
X113000Y344233D01*
Y348000D01*
G37*
G36*
Y313000D02*X124000D01*
Y306000D01*
X119904D01*
Y306000D01*
X119887Y306220D01*
X119836Y306434D01*
X119751Y306638D01*
X119636Y306825D01*
X119636Y306826D01*
X119493Y306993D01*
X119451Y307029D01*
X118029Y308451D01*
X117993Y308493D01*
X117825Y308636D01*
X117638Y308751D01*
X117434Y308836D01*
X117220Y308887D01*
X117000Y308904D01*
X116945Y308900D01*
X115434D01*
X115419Y308919D01*
X115179Y309123D01*
X114911Y309288D01*
X114620Y309408D01*
X114314Y309481D01*
X114000Y309506D01*
X113686Y309481D01*
X113380Y309408D01*
X113089Y309288D01*
X113000Y309233D01*
Y313000D01*
G37*
G36*
Y278000D02*X124000D01*
Y271000D01*
X119904D01*
Y271000D01*
X119887Y271220D01*
X119836Y271434D01*
X119751Y271638D01*
X119636Y271825D01*
X119636Y271826D01*
X119493Y271993D01*
X119451Y272029D01*
X118029Y273451D01*
X117993Y273493D01*
X117825Y273636D01*
X117638Y273751D01*
X117434Y273836D01*
X117220Y273887D01*
X117000Y273904D01*
X116945Y273900D01*
X115434D01*
X115419Y273919D01*
X115179Y274123D01*
X114911Y274288D01*
X114620Y274408D01*
X114314Y274481D01*
X114000Y274506D01*
X113686Y274481D01*
X113380Y274408D01*
X113089Y274288D01*
X113000Y274233D01*
Y278000D01*
G37*
G36*
Y243000D02*X124000D01*
Y236000D01*
X119904D01*
Y236000D01*
X119887Y236220D01*
X119836Y236434D01*
X119751Y236638D01*
X119636Y236825D01*
X119636Y236826D01*
X119493Y236993D01*
X119451Y237029D01*
X118029Y238451D01*
X117993Y238493D01*
X117825Y238636D01*
X117638Y238751D01*
X117434Y238836D01*
X117220Y238887D01*
X117000Y238904D01*
X116945Y238900D01*
X115434D01*
X115419Y238919D01*
X115179Y239123D01*
X114911Y239288D01*
X114620Y239408D01*
X114314Y239481D01*
X114000Y239506D01*
X113686Y239481D01*
X113380Y239408D01*
X113089Y239288D01*
X113000Y239233D01*
Y243000D01*
G37*
G36*
Y208000D02*X124000D01*
Y201000D01*
X119904D01*
Y201000D01*
X119887Y201220D01*
X119836Y201434D01*
X119751Y201638D01*
X119636Y201825D01*
X119636Y201826D01*
X119493Y201993D01*
X119451Y202029D01*
X118029Y203451D01*
X117993Y203493D01*
X117825Y203636D01*
X117638Y203751D01*
X117434Y203836D01*
X117220Y203887D01*
X117000Y203904D01*
X116945Y203900D01*
X115434D01*
X115419Y203919D01*
X115179Y204123D01*
X114911Y204288D01*
X114620Y204408D01*
X114314Y204481D01*
X114000Y204506D01*
X113686Y204481D01*
X113380Y204408D01*
X113089Y204288D01*
X113000Y204233D01*
Y208000D01*
G37*
G36*
Y173000D02*X124000D01*
Y166000D01*
X119904D01*
Y166000D01*
X119887Y166220D01*
X119836Y166434D01*
X119751Y166638D01*
X119636Y166825D01*
X119636Y166826D01*
X119493Y166993D01*
X119451Y167029D01*
X118029Y168451D01*
X117993Y168493D01*
X117825Y168636D01*
X117638Y168751D01*
X117434Y168836D01*
X117220Y168887D01*
X117000Y168904D01*
X116945Y168900D01*
X115434D01*
X115419Y168919D01*
X115179Y169123D01*
X114911Y169288D01*
X114620Y169408D01*
X114314Y169481D01*
X114000Y169506D01*
X113686Y169481D01*
X113380Y169408D01*
X113089Y169288D01*
X113000Y169233D01*
Y173000D01*
G37*
G36*
Y138000D02*X124000D01*
Y131000D01*
X119904D01*
Y131000D01*
X119887Y131220D01*
X119836Y131434D01*
X119751Y131638D01*
X119636Y131825D01*
X119636Y131826D01*
X119493Y131993D01*
X119451Y132029D01*
X118029Y133451D01*
X117993Y133493D01*
X117825Y133636D01*
X117638Y133751D01*
X117434Y133836D01*
X117220Y133887D01*
X117000Y133904D01*
X116945Y133900D01*
X115434D01*
X115419Y133919D01*
X115179Y134123D01*
X114911Y134288D01*
X114620Y134408D01*
X114314Y134481D01*
X114000Y134506D01*
X113686Y134481D01*
X113380Y134408D01*
X113089Y134288D01*
X113000Y134233D01*
Y138000D01*
G37*
G36*
Y103000D02*X124000D01*
Y96000D01*
X119904D01*
Y96000D01*
X119887Y96220D01*
X119836Y96434D01*
X119751Y96638D01*
X119636Y96825D01*
X119636Y96826D01*
X119493Y96993D01*
X119451Y97029D01*
X118029Y98451D01*
X117993Y98493D01*
X117825Y98636D01*
X117638Y98751D01*
X117434Y98836D01*
X117220Y98887D01*
X117000Y98904D01*
X116945Y98900D01*
X115434D01*
X115419Y98919D01*
X115179Y99123D01*
X114911Y99288D01*
X114620Y99408D01*
X114314Y99481D01*
X114000Y99506D01*
X113686Y99481D01*
X113380Y99408D01*
X113089Y99288D01*
X113000Y99233D01*
Y103000D01*
G37*
G36*
Y68000D02*X124000D01*
Y61000D01*
X119904D01*
Y61000D01*
X119887Y61220D01*
X119836Y61434D01*
X119751Y61638D01*
X119636Y61825D01*
X119636Y61826D01*
X119493Y61993D01*
X119451Y62029D01*
X118029Y63451D01*
X117993Y63493D01*
X117825Y63636D01*
X117638Y63751D01*
X117434Y63836D01*
X117220Y63887D01*
X117000Y63904D01*
X116945Y63900D01*
X115434D01*
X115419Y63919D01*
X115179Y64123D01*
X114911Y64288D01*
X114620Y64408D01*
X114314Y64481D01*
X114000Y64506D01*
X113686Y64481D01*
X113380Y64408D01*
X113089Y64288D01*
X113000Y64233D01*
Y68000D01*
G37*
G36*
X142000Y240500D02*X162000D01*
Y236000D01*
X142000D01*
Y240500D01*
G37*
G36*
X141000Y235000D02*X144500D01*
Y224000D01*
X141000D01*
Y235000D01*
G37*
G36*
X142000D02*Y230500D01*
X133530D01*
X133500Y230549D01*
Y235000D01*
X136888D01*
X136940Y234940D01*
X137203Y234715D01*
X137498Y234534D01*
X137818Y234401D01*
X138155Y234320D01*
X138500Y234293D01*
X138845Y234320D01*
X139182Y234401D01*
X139502Y234534D01*
X139797Y234715D01*
X140060Y234940D01*
X140112Y235000D01*
X142000D01*
G37*
G36*
X166000D01*
Y231000D01*
X142000D01*
Y235000D01*
G37*
G36*
X162000Y228500D02*Y224500D01*
X147500D01*
Y228500D01*
X162000D01*
G37*
G36*
X163000Y243000D02*X178000D01*
Y227500D01*
X163000D01*
Y243000D01*
G37*
G36*
X153000Y232000D02*X164500D01*
Y230000D01*
X154000D01*
X153000Y231000D01*
Y232000D01*
G37*
G36*
X162000Y201000D02*X140642D01*
X140680Y201155D01*
X140700Y201500D01*
X140680Y201845D01*
X140599Y202182D01*
X140466Y202502D01*
X140285Y202797D01*
X140060Y203060D01*
X139900Y203197D01*
Y203445D01*
X139904Y203500D01*
X139887Y203720D01*
X139836Y203934D01*
X139751Y204138D01*
X139636Y204325D01*
X139636Y204326D01*
X139493Y204493D01*
X139451Y204529D01*
X138529Y205451D01*
X138493Y205493D01*
X138325Y205636D01*
X138138Y205751D01*
X137934Y205836D01*
X137720Y205887D01*
X137500Y205904D01*
X137445Y205900D01*
X128055D01*
X128000Y205904D01*
X127780Y205887D01*
X127566Y205836D01*
X127362Y205751D01*
X127175Y205636D01*
X127174Y205636D01*
X127007Y205493D01*
X126971Y205451D01*
X126149Y204629D01*
X126107Y204593D01*
X126017Y204488D01*
X125665Y204486D01*
X125435Y204431D01*
X125217Y204341D01*
X125016Y204217D01*
X124836Y204064D01*
X124683Y203884D01*
X124559Y203683D01*
X124469Y203465D01*
X124414Y203235D01*
X124400Y203000D01*
X124407Y201000D01*
X121000D01*
Y208000D01*
X162000D01*
Y201000D01*
G37*
G36*
X142000Y205500D02*X162000D01*
Y201000D01*
X142000D01*
Y205500D01*
G37*
G36*
X141000Y200000D02*X144500D01*
Y189000D01*
X141000D01*
Y200000D01*
G37*
G36*
X142000D02*Y195500D01*
X133530D01*
X133500Y195549D01*
Y200000D01*
X136888D01*
X136940Y199940D01*
X137203Y199715D01*
X137498Y199534D01*
X137818Y199401D01*
X138155Y199320D01*
X138500Y199293D01*
X138845Y199320D01*
X139182Y199401D01*
X139502Y199534D01*
X139797Y199715D01*
X140060Y199940D01*
X140112Y200000D01*
X142000D01*
G37*
G36*
X166000D01*
Y196000D01*
X142000D01*
Y200000D01*
G37*
G36*
X162000Y193500D02*Y189500D01*
X147500D01*
Y193500D01*
X162000D01*
G37*
G36*
X163000Y208000D02*X178000D01*
Y192500D01*
X163000D01*
Y208000D01*
G37*
G36*
X153000Y197000D02*X164500D01*
Y195000D01*
X154000D01*
X153000Y196000D01*
Y197000D01*
G37*
G36*
X162000Y166000D02*X140642D01*
X140680Y166155D01*
X140700Y166500D01*
X140680Y166845D01*
X140599Y167182D01*
X140466Y167502D01*
X140285Y167797D01*
X140060Y168060D01*
X139900Y168197D01*
Y168445D01*
X139904Y168500D01*
X139887Y168720D01*
X139836Y168934D01*
X139751Y169138D01*
X139636Y169325D01*
X139636Y169326D01*
X139493Y169493D01*
X139451Y169529D01*
X138529Y170451D01*
X138493Y170493D01*
X138325Y170636D01*
X138138Y170751D01*
X137934Y170836D01*
X137720Y170887D01*
X137500Y170904D01*
X137445Y170900D01*
X128055D01*
X128000Y170904D01*
X127780Y170887D01*
X127566Y170836D01*
X127362Y170751D01*
X127175Y170636D01*
X127174Y170636D01*
X127007Y170493D01*
X126971Y170451D01*
X126149Y169629D01*
X126107Y169593D01*
X126017Y169488D01*
X125665Y169486D01*
X125435Y169431D01*
X125217Y169341D01*
X125016Y169217D01*
X124836Y169064D01*
X124683Y168884D01*
X124559Y168683D01*
X124469Y168465D01*
X124414Y168235D01*
X124400Y168000D01*
X124407Y166000D01*
X121000D01*
Y173000D01*
X162000D01*
Y166000D01*
G37*
G36*
X142000Y170500D02*X162000D01*
Y166000D01*
X142000D01*
Y170500D01*
G37*
G36*
X141000Y165000D02*X144500D01*
Y154000D01*
X141000D01*
Y165000D01*
G37*
G36*
X142000D02*Y160500D01*
X133530D01*
X133500Y160549D01*
Y165000D01*
X136888D01*
X136940Y164940D01*
X137203Y164715D01*
X137498Y164534D01*
X137818Y164401D01*
X138155Y164320D01*
X138500Y164293D01*
X138845Y164320D01*
X139182Y164401D01*
X139502Y164534D01*
X139797Y164715D01*
X140060Y164940D01*
X140112Y165000D01*
X142000D01*
G37*
G36*
X166000D01*
Y161000D01*
X142000D01*
Y165000D01*
G37*
G36*
X162000Y158500D02*Y154500D01*
X147500D01*
Y158500D01*
X162000D01*
G37*
G36*
X163000Y173000D02*X178000D01*
Y157500D01*
X163000D01*
Y173000D01*
G37*
G36*
X153000Y162000D02*X164500D01*
Y160000D01*
X154000D01*
X153000Y161000D01*
Y162000D01*
G37*
G36*
X162000Y131000D02*X140642D01*
X140680Y131155D01*
X140700Y131500D01*
X140680Y131845D01*
X140599Y132182D01*
X140466Y132502D01*
X140285Y132797D01*
X140060Y133060D01*
X139900Y133197D01*
Y133445D01*
X139904Y133500D01*
X139887Y133720D01*
X139836Y133934D01*
X139751Y134138D01*
X139636Y134325D01*
X139636Y134326D01*
X139493Y134493D01*
X139451Y134529D01*
X138529Y135451D01*
X138493Y135493D01*
X138325Y135636D01*
X138138Y135751D01*
X137934Y135836D01*
X137720Y135887D01*
X137500Y135904D01*
X137445Y135900D01*
X128055D01*
X128000Y135904D01*
X127780Y135887D01*
X127566Y135836D01*
X127362Y135751D01*
X127175Y135636D01*
X127174Y135636D01*
X127007Y135493D01*
X126971Y135451D01*
X126149Y134629D01*
X126107Y134593D01*
X126017Y134488D01*
X125665Y134486D01*
X125435Y134431D01*
X125217Y134341D01*
X125016Y134217D01*
X124836Y134064D01*
X124683Y133884D01*
X124559Y133683D01*
X124469Y133465D01*
X124414Y133235D01*
X124400Y133000D01*
X124407Y131000D01*
X121000D01*
Y138000D01*
X162000D01*
Y131000D01*
G37*
G36*
X31000Y227500D02*Y232000D01*
X39000D01*
Y227500D01*
X31000D01*
G37*
G36*
Y233000D02*Y237500D01*
X35000D01*
Y233000D01*
X31000D01*
G37*
G36*
X39000Y236000D02*Y233000D01*
X31000D01*
Y236000D01*
X39000D01*
G37*
G36*
X31000Y243000D02*X37500D01*
Y238500D01*
X31000D01*
Y243000D01*
G37*
G36*
X45000D02*Y237000D01*
X36000D01*
Y243000D01*
X45000D01*
G37*
G36*
X31000Y222000D02*Y226500D01*
X45000D01*
Y222000D01*
X31000D01*
G37*
G36*
X47000Y243000D02*X52500D01*
Y224000D01*
X47000D01*
Y243000D01*
G37*
G36*
X56000D02*X62000D01*
Y233500D01*
X56000D01*
Y243000D01*
G37*
G36*
X65900Y241000D02*X65906Y238906D01*
X65928Y238814D01*
X65964Y238727D01*
X66013Y238646D01*
X66074Y238574D01*
X66146Y238513D01*
X66227Y238464D01*
X66314Y238428D01*
X66406Y238406D01*
X66500Y238400D01*
X73116Y238404D01*
X74920Y236600D01*
X66406Y236594D01*
X66314Y236572D01*
X66227Y236536D01*
X66146Y236487D01*
X66074Y236426D01*
X66013Y236354D01*
X65964Y236273D01*
X65928Y236186D01*
X65906Y236094D01*
X65900Y236000D01*
X65906Y233906D01*
X65928Y233814D01*
X65964Y233727D01*
X66013Y233646D01*
X66074Y233574D01*
X66146Y233513D01*
X66168Y233500D01*
X56000D01*
Y243000D01*
X96500D01*
Y233500D01*
X95832D01*
X95854Y233513D01*
X95926Y233574D01*
X95987Y233646D01*
X96036Y233727D01*
X96072Y233814D01*
X96094Y233906D01*
X96100Y234000D01*
X96094Y236094D01*
X96072Y236186D01*
X96036Y236273D01*
X95987Y236354D01*
X95926Y236426D01*
X95854Y236487D01*
X95773Y236536D01*
X95686Y236572D01*
X95594Y236594D01*
X95500Y236600D01*
X86906Y236594D01*
X86814Y236572D01*
X86727Y236536D01*
X86646Y236487D01*
X86574Y236426D01*
X86513Y236354D01*
X86464Y236273D01*
X86428Y236186D01*
X86406Y236094D01*
X86400Y236000D01*
X86402Y235382D01*
X84520Y233500D01*
X81808D01*
X81751Y233638D01*
X81636Y233825D01*
X81493Y233993D01*
X81451Y234029D01*
X75598Y239882D01*
X75594Y241094D01*
X75572Y241186D01*
X75536Y241273D01*
X75487Y241354D01*
X75426Y241426D01*
X75354Y241487D01*
X75273Y241536D01*
X75186Y241572D01*
X75094Y241594D01*
X75000Y241600D01*
X66406Y241594D01*
X66314Y241572D01*
X66227Y241536D01*
X66146Y241487D01*
X66074Y241426D01*
X66013Y241354D01*
X65964Y241273D01*
X65928Y241186D01*
X65906Y241094D01*
X65900Y241000D01*
G37*
G36*
X96500Y237000D02*Y231000D01*
X96095D01*
X96094Y231094D01*
X96072Y231186D01*
X96036Y231273D01*
X95987Y231354D01*
X95926Y231426D01*
X95854Y231487D01*
X95773Y231536D01*
X95686Y231572D01*
X95594Y231594D01*
X95500Y231600D01*
X88000Y231595D01*
Y233020D01*
X88381Y233401D01*
X95594Y233406D01*
X95686Y233428D01*
X95773Y233464D01*
X95854Y233513D01*
X95926Y233574D01*
X95987Y233646D01*
X96036Y233727D01*
X96072Y233814D01*
X96094Y233906D01*
X96100Y234000D01*
X96094Y236094D01*
X96072Y236186D01*
X96036Y236273D01*
X95987Y236354D01*
X95926Y236426D01*
X95854Y236487D01*
X95773Y236536D01*
X95686Y236572D01*
X95594Y236594D01*
X95500Y236600D01*
X88000Y236595D01*
Y237000D01*
X96500D01*
G37*
G36*
X101495Y243000D02*X116500D01*
Y238900D01*
X115434D01*
X115419Y238919D01*
X115179Y239123D01*
X114911Y239288D01*
X114620Y239408D01*
X114314Y239481D01*
X114000Y239506D01*
X113686Y239481D01*
X113380Y239408D01*
X113089Y239288D01*
X112821Y239123D01*
X112581Y238919D01*
X112377Y238679D01*
X112212Y238411D01*
X112092Y238120D01*
X112019Y237814D01*
X111994Y237500D01*
X112019Y237186D01*
X112092Y236880D01*
X112212Y236589D01*
X112377Y236321D01*
X112581Y236081D01*
X112821Y235877D01*
X113089Y235712D01*
X113380Y235592D01*
X113686Y235519D01*
X114000Y235494D01*
X114314Y235519D01*
X114620Y235592D01*
X114911Y235712D01*
X115179Y235877D01*
X115419Y236081D01*
X115434Y236100D01*
X116420D01*
X116500Y236020D01*
Y230000D01*
X104041D01*
X103894Y230239D01*
X103592Y230592D01*
X103239Y230894D01*
X102843Y231137D01*
X102414Y231314D01*
X101963Y231423D01*
X101500Y231459D01*
X101495Y231459D01*
Y233541D01*
X101500Y233541D01*
X101963Y233577D01*
X102414Y233686D01*
X102843Y233863D01*
X103239Y234106D01*
X103592Y234408D01*
X103894Y234761D01*
X104137Y235157D01*
X104314Y235586D01*
X104423Y236037D01*
X104450Y236500D01*
X104423Y236963D01*
X104314Y237414D01*
X104137Y237843D01*
X103894Y238239D01*
X103592Y238592D01*
X103239Y238894D01*
X102843Y239137D01*
X102414Y239314D01*
X101963Y239423D01*
X101500Y239459D01*
X101495Y239459D01*
Y243000D01*
G37*
G36*
X93000D02*X101495D01*
Y239459D01*
X101037Y239423D01*
X100586Y239314D01*
X100157Y239137D01*
X99761Y238894D01*
X99408Y238592D01*
X99106Y238239D01*
X98863Y237843D01*
X98686Y237414D01*
X98577Y236963D01*
X98541Y236500D01*
X98577Y236037D01*
X98686Y235586D01*
X98863Y235157D01*
X99106Y234761D01*
X99408Y234408D01*
X99761Y234106D01*
X100157Y233863D01*
X100586Y233686D01*
X101037Y233577D01*
X101495Y233541D01*
Y231459D01*
X101037Y231423D01*
X100586Y231314D01*
X100157Y231137D01*
X99761Y230894D01*
X99408Y230592D01*
X99106Y230239D01*
X98959Y230000D01*
X96097D01*
X96094Y231094D01*
X96072Y231186D01*
X96036Y231273D01*
X95987Y231354D01*
X95926Y231426D01*
X95854Y231487D01*
X95773Y231536D01*
X95686Y231572D01*
X95594Y231594D01*
X95500Y231600D01*
X93000Y231598D01*
Y233404D01*
X95594Y233406D01*
X95686Y233428D01*
X95773Y233464D01*
X95854Y233513D01*
X95926Y233574D01*
X95987Y233646D01*
X96036Y233727D01*
X96072Y233814D01*
X96094Y233906D01*
X96100Y234000D01*
X96094Y236094D01*
X96072Y236186D01*
X96036Y236273D01*
X95987Y236354D01*
X95926Y236426D01*
X95854Y236487D01*
X95773Y236536D01*
X95686Y236572D01*
X95594Y236594D01*
X95500Y236600D01*
X93000Y236598D01*
Y243000D01*
G37*
G36*
X65900Y206000D02*X65906Y203906D01*
X65928Y203814D01*
X65964Y203727D01*
X66013Y203646D01*
X66074Y203574D01*
X66146Y203513D01*
X66227Y203464D01*
X66314Y203428D01*
X66406Y203406D01*
X66500Y203400D01*
X73116Y203404D01*
X74920Y201600D01*
X66406Y201594D01*
X66314Y201572D01*
X66227Y201536D01*
X66146Y201487D01*
X66074Y201426D01*
X66013Y201354D01*
X65964Y201273D01*
X65928Y201186D01*
X65906Y201094D01*
X65900Y201000D01*
X65906Y198906D01*
X65928Y198814D01*
X65964Y198727D01*
X66013Y198646D01*
X66074Y198574D01*
X66146Y198513D01*
X66168Y198500D01*
X56000D01*
Y208000D01*
X96500D01*
Y198500D01*
X95832D01*
X95854Y198513D01*
X95926Y198574D01*
X95987Y198646D01*
X96036Y198727D01*
X96072Y198814D01*
X96094Y198906D01*
X96100Y199000D01*
X96094Y201094D01*
X96072Y201186D01*
X96036Y201273D01*
X95987Y201354D01*
X95926Y201426D01*
X95854Y201487D01*
X95773Y201536D01*
X95686Y201572D01*
X95594Y201594D01*
X95500Y201600D01*
X86906Y201594D01*
X86814Y201572D01*
X86727Y201536D01*
X86646Y201487D01*
X86574Y201426D01*
X86513Y201354D01*
X86464Y201273D01*
X86428Y201186D01*
X86406Y201094D01*
X86400Y201000D01*
X86402Y200382D01*
X84520Y198500D01*
X81808D01*
X81751Y198638D01*
X81636Y198825D01*
X81493Y198993D01*
X81451Y199029D01*
X75598Y204882D01*
X75594Y206094D01*
X75572Y206186D01*
X75536Y206273D01*
X75487Y206354D01*
X75426Y206426D01*
X75354Y206487D01*
X75273Y206536D01*
X75186Y206572D01*
X75094Y206594D01*
X75000Y206600D01*
X66406Y206594D01*
X66314Y206572D01*
X66227Y206536D01*
X66146Y206487D01*
X66074Y206426D01*
X66013Y206354D01*
X65964Y206273D01*
X65928Y206186D01*
X65906Y206094D01*
X65900Y206000D01*
G37*
G36*
Y171000D02*X65906Y168906D01*
X65928Y168814D01*
X65964Y168727D01*
X66013Y168646D01*
X66074Y168574D01*
X66146Y168513D01*
X66227Y168464D01*
X66314Y168428D01*
X66406Y168406D01*
X66500Y168400D01*
X73116Y168404D01*
X74920Y166600D01*
X66406Y166594D01*
X66314Y166572D01*
X66227Y166536D01*
X66146Y166487D01*
X66074Y166426D01*
X66013Y166354D01*
X65964Y166273D01*
X65928Y166186D01*
X65906Y166094D01*
X65900Y166000D01*
X65906Y163906D01*
X65928Y163814D01*
X65964Y163727D01*
X66013Y163646D01*
X66074Y163574D01*
X66146Y163513D01*
X66168Y163500D01*
X56000D01*
Y173000D01*
X96500D01*
Y163500D01*
X95832D01*
X95854Y163513D01*
X95926Y163574D01*
X95987Y163646D01*
X96036Y163727D01*
X96072Y163814D01*
X96094Y163906D01*
X96100Y164000D01*
X96094Y166094D01*
X96072Y166186D01*
X96036Y166273D01*
X95987Y166354D01*
X95926Y166426D01*
X95854Y166487D01*
X95773Y166536D01*
X95686Y166572D01*
X95594Y166594D01*
X95500Y166600D01*
X86906Y166594D01*
X86814Y166572D01*
X86727Y166536D01*
X86646Y166487D01*
X86574Y166426D01*
X86513Y166354D01*
X86464Y166273D01*
X86428Y166186D01*
X86406Y166094D01*
X86400Y166000D01*
X86402Y165382D01*
X84520Y163500D01*
X81808D01*
X81751Y163638D01*
X81636Y163825D01*
X81493Y163993D01*
X81451Y164029D01*
X75598Y169882D01*
X75594Y171094D01*
X75572Y171186D01*
X75536Y171273D01*
X75487Y171354D01*
X75426Y171426D01*
X75354Y171487D01*
X75273Y171536D01*
X75186Y171572D01*
X75094Y171594D01*
X75000Y171600D01*
X66406Y171594D01*
X66314Y171572D01*
X66227Y171536D01*
X66146Y171487D01*
X66074Y171426D01*
X66013Y171354D01*
X65964Y171273D01*
X65928Y171186D01*
X65906Y171094D01*
X65900Y171000D01*
G37*
G36*
X96500Y167000D02*Y161000D01*
X96095D01*
X96094Y161094D01*
X96072Y161186D01*
X96036Y161273D01*
X95987Y161354D01*
X95926Y161426D01*
X95854Y161487D01*
X95773Y161536D01*
X95686Y161572D01*
X95594Y161594D01*
X95500Y161600D01*
X88000Y161595D01*
Y163020D01*
X88381Y163401D01*
X95594Y163406D01*
X95686Y163428D01*
X95773Y163464D01*
X95854Y163513D01*
X95926Y163574D01*
X95987Y163646D01*
X96036Y163727D01*
X96072Y163814D01*
X96094Y163906D01*
X96100Y164000D01*
X96094Y166094D01*
X96072Y166186D01*
X96036Y166273D01*
X95987Y166354D01*
X95926Y166426D01*
X95854Y166487D01*
X95773Y166536D01*
X95686Y166572D01*
X95594Y166594D01*
X95500Y166600D01*
X88000Y166595D01*
Y167000D01*
X96500D01*
G37*
G36*
Y202000D02*Y196000D01*
X96095D01*
X96094Y196094D01*
X96072Y196186D01*
X96036Y196273D01*
X95987Y196354D01*
X95926Y196426D01*
X95854Y196487D01*
X95773Y196536D01*
X95686Y196572D01*
X95594Y196594D01*
X95500Y196600D01*
X88000Y196595D01*
Y198020D01*
X88381Y198401D01*
X95594Y198406D01*
X95686Y198428D01*
X95773Y198464D01*
X95854Y198513D01*
X95926Y198574D01*
X95987Y198646D01*
X96036Y198727D01*
X96072Y198814D01*
X96094Y198906D01*
X96100Y199000D01*
X96094Y201094D01*
X96072Y201186D01*
X96036Y201273D01*
X95987Y201354D01*
X95926Y201426D01*
X95854Y201487D01*
X95773Y201536D01*
X95686Y201572D01*
X95594Y201594D01*
X95500Y201600D01*
X88000Y201595D01*
Y202000D01*
X96500D01*
G37*
G36*
X101495Y208000D02*X116500D01*
Y203900D01*
X115434D01*
X115419Y203919D01*
X115179Y204123D01*
X114911Y204288D01*
X114620Y204408D01*
X114314Y204481D01*
X114000Y204506D01*
X113686Y204481D01*
X113380Y204408D01*
X113089Y204288D01*
X112821Y204123D01*
X112581Y203919D01*
X112377Y203679D01*
X112212Y203411D01*
X112092Y203120D01*
X112019Y202814D01*
X111994Y202500D01*
X112019Y202186D01*
X112092Y201880D01*
X112212Y201589D01*
X112377Y201321D01*
X112581Y201081D01*
X112821Y200877D01*
X113089Y200712D01*
X113380Y200592D01*
X113686Y200519D01*
X114000Y200494D01*
X114314Y200519D01*
X114620Y200592D01*
X114911Y200712D01*
X115179Y200877D01*
X115419Y201081D01*
X115434Y201100D01*
X116420D01*
X116500Y201020D01*
Y195000D01*
X104041D01*
X103894Y195239D01*
X103592Y195592D01*
X103239Y195894D01*
X102843Y196137D01*
X102414Y196314D01*
X101963Y196423D01*
X101500Y196459D01*
X101495Y196459D01*
Y198541D01*
X101500Y198541D01*
X101963Y198577D01*
X102414Y198686D01*
X102843Y198863D01*
X103239Y199106D01*
X103592Y199408D01*
X103894Y199761D01*
X104137Y200157D01*
X104314Y200586D01*
X104423Y201037D01*
X104450Y201500D01*
X104423Y201963D01*
X104314Y202414D01*
X104137Y202843D01*
X103894Y203239D01*
X103592Y203592D01*
X103239Y203894D01*
X102843Y204137D01*
X102414Y204314D01*
X101963Y204423D01*
X101500Y204459D01*
X101495Y204459D01*
Y208000D01*
G37*
G36*
X93000D02*X101495D01*
Y204459D01*
X101037Y204423D01*
X100586Y204314D01*
X100157Y204137D01*
X99761Y203894D01*
X99408Y203592D01*
X99106Y203239D01*
X98863Y202843D01*
X98686Y202414D01*
X98577Y201963D01*
X98541Y201500D01*
X98577Y201037D01*
X98686Y200586D01*
X98863Y200157D01*
X99106Y199761D01*
X99408Y199408D01*
X99761Y199106D01*
X100157Y198863D01*
X100586Y198686D01*
X101037Y198577D01*
X101495Y198541D01*
Y196459D01*
X101037Y196423D01*
X100586Y196314D01*
X100157Y196137D01*
X99761Y195894D01*
X99408Y195592D01*
X99106Y195239D01*
X98959Y195000D01*
X96097D01*
X96094Y196094D01*
X96072Y196186D01*
X96036Y196273D01*
X95987Y196354D01*
X95926Y196426D01*
X95854Y196487D01*
X95773Y196536D01*
X95686Y196572D01*
X95594Y196594D01*
X95500Y196600D01*
X93000Y196598D01*
Y198404D01*
X95594Y198406D01*
X95686Y198428D01*
X95773Y198464D01*
X95854Y198513D01*
X95926Y198574D01*
X95987Y198646D01*
X96036Y198727D01*
X96072Y198814D01*
X96094Y198906D01*
X96100Y199000D01*
X96094Y201094D01*
X96072Y201186D01*
X96036Y201273D01*
X95987Y201354D01*
X95926Y201426D01*
X95854Y201487D01*
X95773Y201536D01*
X95686Y201572D01*
X95594Y201594D01*
X95500Y201600D01*
X93000Y201598D01*
Y208000D01*
G37*
G36*
X101495Y173000D02*X116500D01*
Y168900D01*
X115434D01*
X115419Y168919D01*
X115179Y169123D01*
X114911Y169288D01*
X114620Y169408D01*
X114314Y169481D01*
X114000Y169506D01*
X113686Y169481D01*
X113380Y169408D01*
X113089Y169288D01*
X112821Y169123D01*
X112581Y168919D01*
X112377Y168679D01*
X112212Y168411D01*
X112092Y168120D01*
X112019Y167814D01*
X111994Y167500D01*
X112019Y167186D01*
X112092Y166880D01*
X112212Y166589D01*
X112377Y166321D01*
X112581Y166081D01*
X112821Y165877D01*
X113089Y165712D01*
X113380Y165592D01*
X113686Y165519D01*
X114000Y165494D01*
X114314Y165519D01*
X114620Y165592D01*
X114911Y165712D01*
X115179Y165877D01*
X115419Y166081D01*
X115434Y166100D01*
X116420D01*
X116500Y166020D01*
Y160000D01*
X104041D01*
X103894Y160239D01*
X103592Y160592D01*
X103239Y160894D01*
X102843Y161137D01*
X102414Y161314D01*
X101963Y161423D01*
X101500Y161459D01*
X101495Y161459D01*
Y163541D01*
X101500Y163541D01*
X101963Y163577D01*
X102414Y163686D01*
X102843Y163863D01*
X103239Y164106D01*
X103592Y164408D01*
X103894Y164761D01*
X104137Y165157D01*
X104314Y165586D01*
X104423Y166037D01*
X104450Y166500D01*
X104423Y166963D01*
X104314Y167414D01*
X104137Y167843D01*
X103894Y168239D01*
X103592Y168592D01*
X103239Y168894D01*
X102843Y169137D01*
X102414Y169314D01*
X101963Y169423D01*
X101500Y169459D01*
X101495Y169459D01*
Y173000D01*
G37*
G36*
X93000D02*X101495D01*
Y169459D01*
X101037Y169423D01*
X100586Y169314D01*
X100157Y169137D01*
X99761Y168894D01*
X99408Y168592D01*
X99106Y168239D01*
X98863Y167843D01*
X98686Y167414D01*
X98577Y166963D01*
X98541Y166500D01*
X98577Y166037D01*
X98686Y165586D01*
X98863Y165157D01*
X99106Y164761D01*
X99408Y164408D01*
X99761Y164106D01*
X100157Y163863D01*
X100586Y163686D01*
X101037Y163577D01*
X101495Y163541D01*
Y161459D01*
X101037Y161423D01*
X100586Y161314D01*
X100157Y161137D01*
X99761Y160894D01*
X99408Y160592D01*
X99106Y160239D01*
X98959Y160000D01*
X96097D01*
X96094Y161094D01*
X96072Y161186D01*
X96036Y161273D01*
X95987Y161354D01*
X95926Y161426D01*
X95854Y161487D01*
X95773Y161536D01*
X95686Y161572D01*
X95594Y161594D01*
X95500Y161600D01*
X93000Y161598D01*
Y163404D01*
X95594Y163406D01*
X95686Y163428D01*
X95773Y163464D01*
X95854Y163513D01*
X95926Y163574D01*
X95987Y163646D01*
X96036Y163727D01*
X96072Y163814D01*
X96094Y163906D01*
X96100Y164000D01*
X96094Y166094D01*
X96072Y166186D01*
X96036Y166273D01*
X95987Y166354D01*
X95926Y166426D01*
X95854Y166487D01*
X95773Y166536D01*
X95686Y166572D01*
X95594Y166594D01*
X95500Y166600D01*
X93000Y166598D01*
Y173000D01*
G37*
G36*
X31000Y192500D02*Y197000D01*
X39000D01*
Y192500D01*
X31000D01*
G37*
G36*
Y187000D02*Y191500D01*
X45000D01*
Y187000D01*
X31000D01*
G37*
G36*
Y198000D02*Y202500D01*
X35000D01*
Y198000D01*
X31000D01*
G37*
G36*
X39000Y201000D02*Y198000D01*
X31000D01*
Y201000D01*
X39000D01*
G37*
G36*
X31000Y208000D02*X37500D01*
Y203500D01*
X31000D01*
Y208000D01*
G37*
G36*
X45000D02*Y202000D01*
X36000D01*
Y208000D01*
X45000D01*
G37*
G36*
X47000D02*X52500D01*
Y189000D01*
X47000D01*
Y208000D01*
G37*
G36*
Y173000D02*X52500D01*
Y154000D01*
X47000D01*
Y173000D01*
G37*
G36*
X56000Y208000D02*X62000D01*
Y198500D01*
X56000D01*
Y208000D01*
G37*
G36*
X31000Y163000D02*Y167500D01*
X35000D01*
Y163000D01*
X31000D01*
G37*
G36*
X39000Y166000D02*Y163000D01*
X31000D01*
Y166000D01*
X39000D01*
G37*
G36*
X31000Y173000D02*X37500D01*
Y168500D01*
X31000D01*
Y173000D01*
G37*
G36*
X45000D02*Y167000D01*
X36000D01*
Y173000D01*
X45000D01*
G37*
G36*
X56000D02*X62000D01*
Y163500D01*
X56000D01*
Y173000D01*
G37*
G36*
X31000Y157500D02*Y162000D01*
X39000D01*
Y157500D01*
X31000D01*
G37*
G36*
Y152000D02*Y156500D01*
X45000D01*
Y152000D01*
X31000D01*
G37*
G36*
Y122500D02*Y127000D01*
X39000D01*
Y122500D01*
X31000D01*
G37*
G36*
Y117000D02*Y121500D01*
X45000D01*
Y117000D01*
X31000D01*
G37*
G36*
Y128000D02*Y132500D01*
X35000D01*
Y128000D01*
X31000D01*
G37*
G36*
X39000Y131000D02*Y128000D01*
X31000D01*
Y131000D01*
X39000D01*
G37*
G36*
X31000Y138000D02*X37500D01*
Y133500D01*
X31000D01*
Y138000D01*
G37*
G36*
X45000D02*Y132000D01*
X36000D01*
Y138000D01*
X45000D01*
G37*
G36*
X47000D02*X52500D01*
Y119000D01*
X47000D01*
Y138000D01*
G37*
G36*
X56000D02*X62000D01*
Y128500D01*
X56000D01*
Y138000D01*
G37*
G36*
X65900Y136000D02*X65906Y133906D01*
X65928Y133814D01*
X65964Y133727D01*
X66013Y133646D01*
X66074Y133574D01*
X66146Y133513D01*
X66227Y133464D01*
X66314Y133428D01*
X66406Y133406D01*
X66500Y133400D01*
X73116Y133404D01*
X74920Y131600D01*
X66406Y131594D01*
X66314Y131572D01*
X66227Y131536D01*
X66146Y131487D01*
X66074Y131426D01*
X66013Y131354D01*
X65964Y131273D01*
X65928Y131186D01*
X65906Y131094D01*
X65900Y131000D01*
X65906Y128906D01*
X65928Y128814D01*
X65964Y128727D01*
X66013Y128646D01*
X66074Y128574D01*
X66146Y128513D01*
X66168Y128500D01*
X56000D01*
Y138000D01*
X96500D01*
Y128500D01*
X95832D01*
X95854Y128513D01*
X95926Y128574D01*
X95987Y128646D01*
X96036Y128727D01*
X96072Y128814D01*
X96094Y128906D01*
X96100Y129000D01*
X96094Y131094D01*
X96072Y131186D01*
X96036Y131273D01*
X95987Y131354D01*
X95926Y131426D01*
X95854Y131487D01*
X95773Y131536D01*
X95686Y131572D01*
X95594Y131594D01*
X95500Y131600D01*
X86906Y131594D01*
X86814Y131572D01*
X86727Y131536D01*
X86646Y131487D01*
X86574Y131426D01*
X86513Y131354D01*
X86464Y131273D01*
X86428Y131186D01*
X86406Y131094D01*
X86400Y131000D01*
X86402Y130382D01*
X84520Y128500D01*
X81808D01*
X81751Y128638D01*
X81636Y128825D01*
X81493Y128993D01*
X81451Y129029D01*
X75598Y134882D01*
X75594Y136094D01*
X75572Y136186D01*
X75536Y136273D01*
X75487Y136354D01*
X75426Y136426D01*
X75354Y136487D01*
X75273Y136536D01*
X75186Y136572D01*
X75094Y136594D01*
X75000Y136600D01*
X66406Y136594D01*
X66314Y136572D01*
X66227Y136536D01*
X66146Y136487D01*
X66074Y136426D01*
X66013Y136354D01*
X65964Y136273D01*
X65928Y136186D01*
X65906Y136094D01*
X65900Y136000D01*
G37*
G36*
X96500Y132000D02*Y126000D01*
X96095D01*
X96094Y126094D01*
X96072Y126186D01*
X96036Y126273D01*
X95987Y126354D01*
X95926Y126426D01*
X95854Y126487D01*
X95773Y126536D01*
X95686Y126572D01*
X95594Y126594D01*
X95500Y126600D01*
X88000Y126595D01*
Y128020D01*
X88381Y128401D01*
X95594Y128406D01*
X95686Y128428D01*
X95773Y128464D01*
X95854Y128513D01*
X95926Y128574D01*
X95987Y128646D01*
X96036Y128727D01*
X96072Y128814D01*
X96094Y128906D01*
X96100Y129000D01*
X96094Y131094D01*
X96072Y131186D01*
X96036Y131273D01*
X95987Y131354D01*
X95926Y131426D01*
X95854Y131487D01*
X95773Y131536D01*
X95686Y131572D01*
X95594Y131594D01*
X95500Y131600D01*
X88000Y131595D01*
Y132000D01*
X96500D01*
G37*
G36*
X101495Y138000D02*X116500D01*
Y133900D01*
X115434D01*
X115419Y133919D01*
X115179Y134123D01*
X114911Y134288D01*
X114620Y134408D01*
X114314Y134481D01*
X114000Y134506D01*
X113686Y134481D01*
X113380Y134408D01*
X113089Y134288D01*
X112821Y134123D01*
X112581Y133919D01*
X112377Y133679D01*
X112212Y133411D01*
X112092Y133120D01*
X112019Y132814D01*
X111994Y132500D01*
X112019Y132186D01*
X112092Y131880D01*
X112212Y131589D01*
X112377Y131321D01*
X112581Y131081D01*
X112821Y130877D01*
X113089Y130712D01*
X113380Y130592D01*
X113686Y130519D01*
X114000Y130494D01*
X114314Y130519D01*
X114620Y130592D01*
X114911Y130712D01*
X115179Y130877D01*
X115419Y131081D01*
X115434Y131100D01*
X116420D01*
X116500Y131020D01*
Y125000D01*
X104041D01*
X103894Y125239D01*
X103592Y125592D01*
X103239Y125894D01*
X102843Y126137D01*
X102414Y126314D01*
X101963Y126423D01*
X101500Y126459D01*
X101495Y126459D01*
Y128541D01*
X101500Y128541D01*
X101963Y128577D01*
X102414Y128686D01*
X102843Y128863D01*
X103239Y129106D01*
X103592Y129408D01*
X103894Y129761D01*
X104137Y130157D01*
X104314Y130586D01*
X104423Y131037D01*
X104450Y131500D01*
X104423Y131963D01*
X104314Y132414D01*
X104137Y132843D01*
X103894Y133239D01*
X103592Y133592D01*
X103239Y133894D01*
X102843Y134137D01*
X102414Y134314D01*
X101963Y134423D01*
X101500Y134459D01*
X101495Y134459D01*
Y138000D01*
G37*
G36*
X93000D02*X101495D01*
Y134459D01*
X101037Y134423D01*
X100586Y134314D01*
X100157Y134137D01*
X99761Y133894D01*
X99408Y133592D01*
X99106Y133239D01*
X98863Y132843D01*
X98686Y132414D01*
X98577Y131963D01*
X98541Y131500D01*
X98577Y131037D01*
X98686Y130586D01*
X98863Y130157D01*
X99106Y129761D01*
X99408Y129408D01*
X99761Y129106D01*
X100157Y128863D01*
X100586Y128686D01*
X101037Y128577D01*
X101495Y128541D01*
Y126459D01*
X101037Y126423D01*
X100586Y126314D01*
X100157Y126137D01*
X99761Y125894D01*
X99408Y125592D01*
X99106Y125239D01*
X98959Y125000D01*
X96097D01*
X96094Y126094D01*
X96072Y126186D01*
X96036Y126273D01*
X95987Y126354D01*
X95926Y126426D01*
X95854Y126487D01*
X95773Y126536D01*
X95686Y126572D01*
X95594Y126594D01*
X95500Y126600D01*
X93000Y126598D01*
Y128404D01*
X95594Y128406D01*
X95686Y128428D01*
X95773Y128464D01*
X95854Y128513D01*
X95926Y128574D01*
X95987Y128646D01*
X96036Y128727D01*
X96072Y128814D01*
X96094Y128906D01*
X96100Y129000D01*
X96094Y131094D01*
X96072Y131186D01*
X96036Y131273D01*
X95987Y131354D01*
X95926Y131426D01*
X95854Y131487D01*
X95773Y131536D01*
X95686Y131572D01*
X95594Y131594D01*
X95500Y131600D01*
X93000Y131598D01*
Y138000D01*
G37*
G36*
X31000Y87500D02*Y92000D01*
X39000D01*
Y87500D01*
X31000D01*
G37*
G36*
Y93000D02*Y97500D01*
X35000D01*
Y93000D01*
X31000D01*
G37*
G36*
X39000Y96000D02*Y93000D01*
X31000D01*
Y96000D01*
X39000D01*
G37*
G36*
X31000Y103000D02*X37500D01*
Y98500D01*
X31000D01*
Y103000D01*
G37*
G36*
X45000D02*Y97000D01*
X36000D01*
Y103000D01*
X45000D01*
G37*
G36*
X31000Y82000D02*Y86500D01*
X45000D01*
Y82000D01*
X31000D01*
G37*
G36*
X47000Y103000D02*X52500D01*
Y84000D01*
X47000D01*
Y103000D01*
G37*
G36*
X56000D02*X62000D01*
Y93500D01*
X56000D01*
Y103000D01*
G37*
G36*
X65900Y101000D02*X65906Y98906D01*
X65928Y98814D01*
X65964Y98727D01*
X66013Y98646D01*
X66074Y98574D01*
X66146Y98513D01*
X66227Y98464D01*
X66314Y98428D01*
X66406Y98406D01*
X66500Y98400D01*
X73116Y98404D01*
X74920Y96600D01*
X66406Y96594D01*
X66314Y96572D01*
X66227Y96536D01*
X66146Y96487D01*
X66074Y96426D01*
X66013Y96354D01*
X65964Y96273D01*
X65928Y96186D01*
X65906Y96094D01*
X65900Y96000D01*
X65906Y93906D01*
X65928Y93814D01*
X65964Y93727D01*
X66013Y93646D01*
X66074Y93574D01*
X66146Y93513D01*
X66168Y93500D01*
X56000D01*
Y103000D01*
X96500D01*
Y93500D01*
X95832D01*
X95854Y93513D01*
X95926Y93574D01*
X95987Y93646D01*
X96036Y93727D01*
X96072Y93814D01*
X96094Y93906D01*
X96100Y94000D01*
X96094Y96094D01*
X96072Y96186D01*
X96036Y96273D01*
X95987Y96354D01*
X95926Y96426D01*
X95854Y96487D01*
X95773Y96536D01*
X95686Y96572D01*
X95594Y96594D01*
X95500Y96600D01*
X86906Y96594D01*
X86814Y96572D01*
X86727Y96536D01*
X86646Y96487D01*
X86574Y96426D01*
X86513Y96354D01*
X86464Y96273D01*
X86428Y96186D01*
X86406Y96094D01*
X86400Y96000D01*
X86402Y95382D01*
X84520Y93500D01*
X81808D01*
X81751Y93638D01*
X81636Y93825D01*
X81493Y93993D01*
X81451Y94029D01*
X75598Y99882D01*
X75594Y101094D01*
X75572Y101186D01*
X75536Y101273D01*
X75487Y101354D01*
X75426Y101426D01*
X75354Y101487D01*
X75273Y101536D01*
X75186Y101572D01*
X75094Y101594D01*
X75000Y101600D01*
X66406Y101594D01*
X66314Y101572D01*
X66227Y101536D01*
X66146Y101487D01*
X66074Y101426D01*
X66013Y101354D01*
X65964Y101273D01*
X65928Y101186D01*
X65906Y101094D01*
X65900Y101000D01*
G37*
G36*
X96500Y97000D02*Y91000D01*
X96095D01*
X96094Y91094D01*
X96072Y91186D01*
X96036Y91273D01*
X95987Y91354D01*
X95926Y91426D01*
X95854Y91487D01*
X95773Y91536D01*
X95686Y91572D01*
X95594Y91594D01*
X95500Y91600D01*
X88000Y91595D01*
Y93020D01*
X88381Y93401D01*
X95594Y93406D01*
X95686Y93428D01*
X95773Y93464D01*
X95854Y93513D01*
X95926Y93574D01*
X95987Y93646D01*
X96036Y93727D01*
X96072Y93814D01*
X96094Y93906D01*
X96100Y94000D01*
X96094Y96094D01*
X96072Y96186D01*
X96036Y96273D01*
X95987Y96354D01*
X95926Y96426D01*
X95854Y96487D01*
X95773Y96536D01*
X95686Y96572D01*
X95594Y96594D01*
X95500Y96600D01*
X88000Y96595D01*
Y97000D01*
X96500D01*
G37*
G36*
X101495Y103000D02*X116500D01*
Y98900D01*
X115434D01*
X115419Y98919D01*
X115179Y99123D01*
X114911Y99288D01*
X114620Y99408D01*
X114314Y99481D01*
X114000Y99506D01*
X113686Y99481D01*
X113380Y99408D01*
X113089Y99288D01*
X112821Y99123D01*
X112581Y98919D01*
X112377Y98679D01*
X112212Y98411D01*
X112092Y98120D01*
X112019Y97814D01*
X111994Y97500D01*
X112019Y97186D01*
X112092Y96880D01*
X112212Y96589D01*
X112377Y96321D01*
X112581Y96081D01*
X112821Y95877D01*
X113089Y95712D01*
X113380Y95592D01*
X113686Y95519D01*
X114000Y95494D01*
X114314Y95519D01*
X114620Y95592D01*
X114911Y95712D01*
X115179Y95877D01*
X115419Y96081D01*
X115434Y96100D01*
X116420D01*
X116500Y96020D01*
Y90000D01*
X104041D01*
X103894Y90239D01*
X103592Y90592D01*
X103239Y90894D01*
X102843Y91137D01*
X102414Y91314D01*
X101963Y91423D01*
X101500Y91459D01*
X101495Y91459D01*
Y93541D01*
X101500Y93541D01*
X101963Y93577D01*
X102414Y93686D01*
X102843Y93863D01*
X103239Y94106D01*
X103592Y94408D01*
X103894Y94761D01*
X104137Y95157D01*
X104314Y95586D01*
X104423Y96037D01*
X104450Y96500D01*
X104423Y96963D01*
X104314Y97414D01*
X104137Y97843D01*
X103894Y98239D01*
X103592Y98592D01*
X103239Y98894D01*
X102843Y99137D01*
X102414Y99314D01*
X101963Y99423D01*
X101500Y99459D01*
X101495Y99459D01*
Y103000D01*
G37*
G36*
X93000D02*X101495D01*
Y99459D01*
X101037Y99423D01*
X100586Y99314D01*
X100157Y99137D01*
X99761Y98894D01*
X99408Y98592D01*
X99106Y98239D01*
X98863Y97843D01*
X98686Y97414D01*
X98577Y96963D01*
X98541Y96500D01*
X98577Y96037D01*
X98686Y95586D01*
X98863Y95157D01*
X99106Y94761D01*
X99408Y94408D01*
X99761Y94106D01*
X100157Y93863D01*
X100586Y93686D01*
X101037Y93577D01*
X101495Y93541D01*
Y91459D01*
X101037Y91423D01*
X100586Y91314D01*
X100157Y91137D01*
X99761Y90894D01*
X99408Y90592D01*
X99106Y90239D01*
X98959Y90000D01*
X96097D01*
X96094Y91094D01*
X96072Y91186D01*
X96036Y91273D01*
X95987Y91354D01*
X95926Y91426D01*
X95854Y91487D01*
X95773Y91536D01*
X95686Y91572D01*
X95594Y91594D01*
X95500Y91600D01*
X93000Y91598D01*
Y93404D01*
X95594Y93406D01*
X95686Y93428D01*
X95773Y93464D01*
X95854Y93513D01*
X95926Y93574D01*
X95987Y93646D01*
X96036Y93727D01*
X96072Y93814D01*
X96094Y93906D01*
X96100Y94000D01*
X96094Y96094D01*
X96072Y96186D01*
X96036Y96273D01*
X95987Y96354D01*
X95926Y96426D01*
X95854Y96487D01*
X95773Y96536D01*
X95686Y96572D01*
X95594Y96594D01*
X95500Y96600D01*
X93000Y96598D01*
Y103000D01*
G37*
G36*
X65900Y66000D02*X65906Y63906D01*
X65928Y63814D01*
X65964Y63727D01*
X66013Y63646D01*
X66074Y63574D01*
X66146Y63513D01*
X66227Y63464D01*
X66314Y63428D01*
X66406Y63406D01*
X66500Y63400D01*
X73116Y63404D01*
X74920Y61600D01*
X66406Y61594D01*
X66314Y61572D01*
X66227Y61536D01*
X66146Y61487D01*
X66074Y61426D01*
X66013Y61354D01*
X65964Y61273D01*
X65928Y61186D01*
X65906Y61094D01*
X65900Y61000D01*
X65906Y58906D01*
X65928Y58814D01*
X65964Y58727D01*
X66013Y58646D01*
X66074Y58574D01*
X66146Y58513D01*
X66168Y58500D01*
X56000D01*
Y68000D01*
X96500D01*
Y58500D01*
X95832D01*
X95854Y58513D01*
X95926Y58574D01*
X95987Y58646D01*
X96036Y58727D01*
X96072Y58814D01*
X96094Y58906D01*
X96100Y59000D01*
X96094Y61094D01*
X96072Y61186D01*
X96036Y61273D01*
X95987Y61354D01*
X95926Y61426D01*
X95854Y61487D01*
X95773Y61536D01*
X95686Y61572D01*
X95594Y61594D01*
X95500Y61600D01*
X86906Y61594D01*
X86814Y61572D01*
X86727Y61536D01*
X86646Y61487D01*
X86574Y61426D01*
X86513Y61354D01*
X86464Y61273D01*
X86428Y61186D01*
X86406Y61094D01*
X86400Y61000D01*
X86402Y60382D01*
X84520Y58500D01*
X81808D01*
X81751Y58638D01*
X81636Y58825D01*
X81493Y58993D01*
X81451Y59029D01*
X75598Y64882D01*
X75594Y66094D01*
X75572Y66186D01*
X75536Y66273D01*
X75487Y66354D01*
X75426Y66426D01*
X75354Y66487D01*
X75273Y66536D01*
X75186Y66572D01*
X75094Y66594D01*
X75000Y66600D01*
X66406Y66594D01*
X66314Y66572D01*
X66227Y66536D01*
X66146Y66487D01*
X66074Y66426D01*
X66013Y66354D01*
X65964Y66273D01*
X65928Y66186D01*
X65906Y66094D01*
X65900Y66000D01*
G37*
G36*
Y31000D02*X65906Y28906D01*
X65928Y28814D01*
X65964Y28727D01*
X66013Y28646D01*
X66074Y28574D01*
X66146Y28513D01*
X66227Y28464D01*
X66314Y28428D01*
X66406Y28406D01*
X66500Y28400D01*
X73116Y28404D01*
X74920Y26600D01*
X66406Y26594D01*
X66314Y26572D01*
X66227Y26536D01*
X66146Y26487D01*
X66074Y26426D01*
X66013Y26354D01*
X65964Y26273D01*
X65928Y26186D01*
X65906Y26094D01*
X65900Y26000D01*
X65906Y23906D01*
X65928Y23814D01*
X65964Y23727D01*
X66013Y23646D01*
X66074Y23574D01*
X66146Y23513D01*
X66168Y23500D01*
X56000D01*
Y33000D01*
X96500D01*
Y23500D01*
X95832D01*
X95854Y23513D01*
X95926Y23574D01*
X95987Y23646D01*
X96036Y23727D01*
X96072Y23814D01*
X96094Y23906D01*
X96100Y24000D01*
X96094Y26094D01*
X96072Y26186D01*
X96036Y26273D01*
X95987Y26354D01*
X95926Y26426D01*
X95854Y26487D01*
X95773Y26536D01*
X95686Y26572D01*
X95594Y26594D01*
X95500Y26600D01*
X86906Y26594D01*
X86814Y26572D01*
X86727Y26536D01*
X86646Y26487D01*
X86574Y26426D01*
X86513Y26354D01*
X86464Y26273D01*
X86428Y26186D01*
X86406Y26094D01*
X86400Y26000D01*
X86402Y25382D01*
X84520Y23500D01*
X81808D01*
X81751Y23638D01*
X81636Y23825D01*
X81493Y23993D01*
X81451Y24029D01*
X75598Y29882D01*
X75594Y31094D01*
X75572Y31186D01*
X75536Y31273D01*
X75487Y31354D01*
X75426Y31426D01*
X75354Y31487D01*
X75273Y31536D01*
X75186Y31572D01*
X75094Y31594D01*
X75000Y31600D01*
X66406Y31594D01*
X66314Y31572D01*
X66227Y31536D01*
X66146Y31487D01*
X66074Y31426D01*
X66013Y31354D01*
X65964Y31273D01*
X65928Y31186D01*
X65906Y31094D01*
X65900Y31000D01*
G37*
G36*
X96500Y27000D02*Y21000D01*
X96095D01*
X96094Y21094D01*
X96072Y21186D01*
X96036Y21273D01*
X95987Y21354D01*
X95926Y21426D01*
X95854Y21487D01*
X95773Y21536D01*
X95686Y21572D01*
X95594Y21594D01*
X95500Y21600D01*
X88000Y21595D01*
Y23020D01*
X88381Y23401D01*
X95594Y23406D01*
X95686Y23428D01*
X95773Y23464D01*
X95854Y23513D01*
X95926Y23574D01*
X95987Y23646D01*
X96036Y23727D01*
X96072Y23814D01*
X96094Y23906D01*
X96100Y24000D01*
X96094Y26094D01*
X96072Y26186D01*
X96036Y26273D01*
X95987Y26354D01*
X95926Y26426D01*
X95854Y26487D01*
X95773Y26536D01*
X95686Y26572D01*
X95594Y26594D01*
X95500Y26600D01*
X88000Y26595D01*
Y27000D01*
X96500D01*
G37*
G36*
Y62000D02*Y56000D01*
X96095D01*
X96094Y56094D01*
X96072Y56186D01*
X96036Y56273D01*
X95987Y56354D01*
X95926Y56426D01*
X95854Y56487D01*
X95773Y56536D01*
X95686Y56572D01*
X95594Y56594D01*
X95500Y56600D01*
X88000Y56595D01*
Y58020D01*
X88381Y58401D01*
X95594Y58406D01*
X95686Y58428D01*
X95773Y58464D01*
X95854Y58513D01*
X95926Y58574D01*
X95987Y58646D01*
X96036Y58727D01*
X96072Y58814D01*
X96094Y58906D01*
X96100Y59000D01*
X96094Y61094D01*
X96072Y61186D01*
X96036Y61273D01*
X95987Y61354D01*
X95926Y61426D01*
X95854Y61487D01*
X95773Y61536D01*
X95686Y61572D01*
X95594Y61594D01*
X95500Y61600D01*
X88000Y61595D01*
Y62000D01*
X96500D01*
G37*
G36*
X101495Y68000D02*X116500D01*
Y63900D01*
X115434D01*
X115419Y63919D01*
X115179Y64123D01*
X114911Y64288D01*
X114620Y64408D01*
X114314Y64481D01*
X114000Y64506D01*
X113686Y64481D01*
X113380Y64408D01*
X113089Y64288D01*
X112821Y64123D01*
X112581Y63919D01*
X112377Y63679D01*
X112212Y63411D01*
X112092Y63120D01*
X112019Y62814D01*
X111994Y62500D01*
X112019Y62186D01*
X112092Y61880D01*
X112212Y61589D01*
X112377Y61321D01*
X112581Y61081D01*
X112821Y60877D01*
X113089Y60712D01*
X113380Y60592D01*
X113686Y60519D01*
X114000Y60494D01*
X114314Y60519D01*
X114620Y60592D01*
X114911Y60712D01*
X115179Y60877D01*
X115419Y61081D01*
X115434Y61100D01*
X116420D01*
X116500Y61020D01*
Y55000D01*
X104041D01*
X103894Y55239D01*
X103592Y55592D01*
X103239Y55894D01*
X102843Y56137D01*
X102414Y56314D01*
X101963Y56423D01*
X101500Y56459D01*
X101495Y56459D01*
Y58541D01*
X101500Y58541D01*
X101963Y58577D01*
X102414Y58686D01*
X102843Y58863D01*
X103239Y59106D01*
X103592Y59408D01*
X103894Y59761D01*
X104137Y60157D01*
X104314Y60586D01*
X104423Y61037D01*
X104450Y61500D01*
X104423Y61963D01*
X104314Y62414D01*
X104137Y62843D01*
X103894Y63239D01*
X103592Y63592D01*
X103239Y63894D01*
X102843Y64137D01*
X102414Y64314D01*
X101963Y64423D01*
X101500Y64459D01*
X101495Y64459D01*
Y68000D01*
G37*
G36*
X93000D02*X101495D01*
Y64459D01*
X101037Y64423D01*
X100586Y64314D01*
X100157Y64137D01*
X99761Y63894D01*
X99408Y63592D01*
X99106Y63239D01*
X98863Y62843D01*
X98686Y62414D01*
X98577Y61963D01*
X98541Y61500D01*
X98577Y61037D01*
X98686Y60586D01*
X98863Y60157D01*
X99106Y59761D01*
X99408Y59408D01*
X99761Y59106D01*
X100157Y58863D01*
X100586Y58686D01*
X101037Y58577D01*
X101495Y58541D01*
Y56459D01*
X101037Y56423D01*
X100586Y56314D01*
X100157Y56137D01*
X99761Y55894D01*
X99408Y55592D01*
X99106Y55239D01*
X98959Y55000D01*
X96097D01*
X96094Y56094D01*
X96072Y56186D01*
X96036Y56273D01*
X95987Y56354D01*
X95926Y56426D01*
X95854Y56487D01*
X95773Y56536D01*
X95686Y56572D01*
X95594Y56594D01*
X95500Y56600D01*
X93000Y56598D01*
Y58404D01*
X95594Y58406D01*
X95686Y58428D01*
X95773Y58464D01*
X95854Y58513D01*
X95926Y58574D01*
X95987Y58646D01*
X96036Y58727D01*
X96072Y58814D01*
X96094Y58906D01*
X96100Y59000D01*
X96094Y61094D01*
X96072Y61186D01*
X96036Y61273D01*
X95987Y61354D01*
X95926Y61426D01*
X95854Y61487D01*
X95773Y61536D01*
X95686Y61572D01*
X95594Y61594D01*
X95500Y61600D01*
X93000Y61598D01*
Y68000D01*
G37*
G36*
X101495Y33000D02*X116500D01*
Y28900D01*
X115434D01*
X115419Y28919D01*
X115179Y29123D01*
X114911Y29288D01*
X114620Y29408D01*
X114314Y29481D01*
X114000Y29506D01*
X113686Y29481D01*
X113380Y29408D01*
X113089Y29288D01*
X112821Y29123D01*
X112581Y28919D01*
X112377Y28679D01*
X112212Y28411D01*
X112092Y28120D01*
X112019Y27814D01*
X111994Y27500D01*
X112019Y27186D01*
X112092Y26880D01*
X112212Y26589D01*
X112377Y26321D01*
X112581Y26081D01*
X112821Y25877D01*
X113089Y25712D01*
X113380Y25592D01*
X113686Y25519D01*
X114000Y25494D01*
X114314Y25519D01*
X114620Y25592D01*
X114911Y25712D01*
X115179Y25877D01*
X115419Y26081D01*
X115434Y26100D01*
X116420D01*
X116500Y26020D01*
Y20000D01*
X104041D01*
X103894Y20239D01*
X103592Y20592D01*
X103239Y20894D01*
X102843Y21137D01*
X102414Y21314D01*
X101963Y21423D01*
X101500Y21459D01*
X101495Y21459D01*
Y23541D01*
X101500Y23541D01*
X101963Y23577D01*
X102414Y23686D01*
X102843Y23863D01*
X103239Y24106D01*
X103592Y24408D01*
X103894Y24761D01*
X104137Y25157D01*
X104314Y25586D01*
X104423Y26037D01*
X104450Y26500D01*
X104423Y26963D01*
X104314Y27414D01*
X104137Y27843D01*
X103894Y28239D01*
X103592Y28592D01*
X103239Y28894D01*
X102843Y29137D01*
X102414Y29314D01*
X101963Y29423D01*
X101500Y29459D01*
X101495Y29459D01*
Y33000D01*
G37*
G36*
X93000D02*X101495D01*
Y29459D01*
X101037Y29423D01*
X100586Y29314D01*
X100157Y29137D01*
X99761Y28894D01*
X99408Y28592D01*
X99106Y28239D01*
X98863Y27843D01*
X98686Y27414D01*
X98577Y26963D01*
X98541Y26500D01*
X98577Y26037D01*
X98686Y25586D01*
X98863Y25157D01*
X99106Y24761D01*
X99408Y24408D01*
X99761Y24106D01*
X100157Y23863D01*
X100586Y23686D01*
X101037Y23577D01*
X101495Y23541D01*
Y21459D01*
X101037Y21423D01*
X100586Y21314D01*
X100157Y21137D01*
X99761Y20894D01*
X99408Y20592D01*
X99106Y20239D01*
X98959Y20000D01*
X96097D01*
X96094Y21094D01*
X96072Y21186D01*
X96036Y21273D01*
X95987Y21354D01*
X95926Y21426D01*
X95854Y21487D01*
X95773Y21536D01*
X95686Y21572D01*
X95594Y21594D01*
X95500Y21600D01*
X93000Y21598D01*
Y23404D01*
X95594Y23406D01*
X95686Y23428D01*
X95773Y23464D01*
X95854Y23513D01*
X95926Y23574D01*
X95987Y23646D01*
X96036Y23727D01*
X96072Y23814D01*
X96094Y23906D01*
X96100Y24000D01*
X96094Y26094D01*
X96072Y26186D01*
X96036Y26273D01*
X95987Y26354D01*
X95926Y26426D01*
X95854Y26487D01*
X95773Y26536D01*
X95686Y26572D01*
X95594Y26594D01*
X95500Y26600D01*
X93000Y26598D01*
Y33000D01*
G37*
G36*
X31000Y52500D02*Y57000D01*
X39000D01*
Y52500D01*
X31000D01*
G37*
G36*
Y47000D02*Y51500D01*
X45000D01*
Y47000D01*
X31000D01*
G37*
G36*
Y58000D02*Y62500D01*
X35000D01*
Y58000D01*
X31000D01*
G37*
G36*
X39000Y61000D02*Y58000D01*
X31000D01*
Y61000D01*
X39000D01*
G37*
G36*
X31000Y68000D02*X37500D01*
Y63500D01*
X31000D01*
Y68000D01*
G37*
G36*
X45000D02*Y62000D01*
X36000D01*
Y68000D01*
X45000D01*
G37*
G36*
X47000D02*X52500D01*
Y49000D01*
X47000D01*
Y68000D01*
G37*
G36*
Y33000D02*X52500D01*
Y14000D01*
X47000D01*
Y33000D01*
G37*
G36*
X56000Y68000D02*X62000D01*
Y58500D01*
X56000D01*
Y68000D01*
G37*
G36*
X31000Y17500D02*Y22000D01*
X39000D01*
Y17500D01*
X31000D01*
G37*
G36*
Y12000D02*Y16500D01*
X45000D01*
Y12000D01*
X31000D01*
G37*
G36*
Y23000D02*Y27500D01*
X35000D01*
Y23000D01*
X31000D01*
G37*
G36*
X39000Y26000D02*Y23000D01*
X31000D01*
Y26000D01*
X39000D01*
G37*
G36*
X31000Y33000D02*X37500D01*
Y28500D01*
X31000D01*
Y33000D01*
G37*
G36*
X45000D02*Y27000D01*
X36000D01*
Y33000D01*
X45000D01*
G37*
G36*
X56000D02*X62000D01*
Y23500D01*
X56000D01*
Y33000D01*
G37*
G36*
X142000Y135500D02*X162000D01*
Y131000D01*
X142000D01*
Y135500D01*
G37*
G36*
X141000Y130000D02*X144500D01*
Y119000D01*
X141000D01*
Y130000D01*
G37*
G36*
X142000D02*Y125500D01*
X133530D01*
X133500Y125549D01*
Y130000D01*
X136888D01*
X136940Y129940D01*
X137203Y129715D01*
X137498Y129534D01*
X137818Y129401D01*
X138155Y129320D01*
X138500Y129293D01*
X138845Y129320D01*
X139182Y129401D01*
X139502Y129534D01*
X139797Y129715D01*
X140060Y129940D01*
X140112Y130000D01*
X142000D01*
G37*
G36*
X166000D01*
Y126000D01*
X142000D01*
Y130000D01*
G37*
G36*
X162000Y123500D02*Y119500D01*
X147500D01*
Y123500D01*
X162000D01*
G37*
G36*
X163000Y138000D02*X178000D01*
Y122500D01*
X163000D01*
Y138000D01*
G37*
G36*
X153000Y127000D02*X164500D01*
Y125000D01*
X154000D01*
X153000Y126000D01*
Y127000D01*
G37*
G36*
X162000Y96000D02*X140642D01*
X140680Y96155D01*
X140700Y96500D01*
X140680Y96845D01*
X140599Y97182D01*
X140466Y97502D01*
X140285Y97797D01*
X140060Y98060D01*
X139900Y98197D01*
Y98445D01*
X139904Y98500D01*
X139887Y98720D01*
X139836Y98934D01*
X139751Y99138D01*
X139636Y99325D01*
X139636Y99326D01*
X139493Y99493D01*
X139451Y99529D01*
X138529Y100451D01*
X138493Y100493D01*
X138325Y100636D01*
X138138Y100751D01*
X137934Y100836D01*
X137720Y100887D01*
X137500Y100904D01*
X137445Y100900D01*
X128055D01*
X128000Y100904D01*
X127780Y100887D01*
X127566Y100836D01*
X127362Y100751D01*
X127175Y100636D01*
X127174Y100636D01*
X127007Y100493D01*
X126971Y100451D01*
X126149Y99629D01*
X126107Y99593D01*
X126017Y99488D01*
X125665Y99486D01*
X125435Y99431D01*
X125217Y99341D01*
X125016Y99217D01*
X124836Y99064D01*
X124683Y98884D01*
X124559Y98683D01*
X124469Y98465D01*
X124414Y98235D01*
X124400Y98000D01*
X124407Y96000D01*
X121000D01*
Y103000D01*
X162000D01*
Y96000D01*
G37*
G36*
X142000Y100500D02*X162000D01*
Y96000D01*
X142000D01*
Y100500D01*
G37*
G36*
X141000Y95000D02*X144500D01*
Y84000D01*
X141000D01*
Y95000D01*
G37*
G36*
X142000D02*Y90500D01*
X133530D01*
X133500Y90549D01*
Y95000D01*
X136888D01*
X136940Y94940D01*
X137203Y94715D01*
X137498Y94534D01*
X137818Y94401D01*
X138155Y94320D01*
X138500Y94293D01*
X138845Y94320D01*
X139182Y94401D01*
X139502Y94534D01*
X139797Y94715D01*
X140060Y94940D01*
X140112Y95000D01*
X142000D01*
G37*
G36*
X166000D01*
Y91000D01*
X142000D01*
Y95000D01*
G37*
G36*
X162000Y88500D02*Y84500D01*
X147500D01*
Y88500D01*
X162000D01*
G37*
G36*
X163000Y103000D02*X178000D01*
Y87500D01*
X163000D01*
Y103000D01*
G37*
G36*
X153000Y92000D02*X164500D01*
Y90000D01*
X154000D01*
X153000Y91000D01*
Y92000D01*
G37*
G36*
X162000Y61000D02*X140642D01*
X140680Y61155D01*
X140700Y61500D01*
X140680Y61845D01*
X140599Y62182D01*
X140466Y62502D01*
X140285Y62797D01*
X140060Y63060D01*
X139900Y63197D01*
Y63445D01*
X139904Y63500D01*
X139887Y63720D01*
X139836Y63934D01*
X139751Y64138D01*
X139636Y64325D01*
X139636Y64326D01*
X139493Y64493D01*
X139451Y64529D01*
X138529Y65451D01*
X138493Y65493D01*
X138325Y65636D01*
X138138Y65751D01*
X137934Y65836D01*
X137720Y65887D01*
X137500Y65904D01*
X137445Y65900D01*
X128055D01*
X128000Y65904D01*
X127780Y65887D01*
X127566Y65836D01*
X127362Y65751D01*
X127175Y65636D01*
X127174Y65636D01*
X127007Y65493D01*
X126971Y65451D01*
X126149Y64629D01*
X126107Y64593D01*
X126017Y64488D01*
X125665Y64486D01*
X125435Y64431D01*
X125217Y64341D01*
X125016Y64217D01*
X124836Y64064D01*
X124683Y63884D01*
X124559Y63683D01*
X124469Y63465D01*
X124414Y63235D01*
X124400Y63000D01*
X124407Y61000D01*
X121000D01*
Y68000D01*
X162000D01*
Y61000D01*
G37*
G36*
X142000Y65500D02*X162000D01*
Y61000D01*
X142000D01*
Y65500D01*
G37*
G36*
X141000Y60000D02*X144500D01*
Y49000D01*
X141000D01*
Y60000D01*
G37*
G36*
X142000D02*Y55500D01*
X133530D01*
X133500Y55549D01*
Y60000D01*
X136888D01*
X136940Y59940D01*
X137203Y59715D01*
X137498Y59534D01*
X137818Y59401D01*
X138155Y59320D01*
X138500Y59293D01*
X138845Y59320D01*
X139182Y59401D01*
X139502Y59534D01*
X139797Y59715D01*
X140060Y59940D01*
X140112Y60000D01*
X142000D01*
G37*
G36*
X166000D01*
Y56000D01*
X142000D01*
Y60000D01*
G37*
G36*
X162000Y53500D02*Y49500D01*
X147500D01*
Y53500D01*
X162000D01*
G37*
G36*
X163000Y68000D02*X178000D01*
Y52500D01*
X163000D01*
Y68000D01*
G37*
G36*
X153000Y57000D02*X164500D01*
Y55000D01*
X154000D01*
X153000Y56000D01*
Y57000D01*
G37*
G36*
X142000Y30500D02*X162000D01*
Y26000D01*
X142000D01*
Y30500D01*
G37*
G36*
X141000Y25000D02*X144500D01*
Y14000D01*
X141000D01*
Y25000D01*
G37*
G36*
X142000D02*Y20500D01*
X133530D01*
X133500Y20549D01*
Y25000D01*
X136888D01*
X136940Y24940D01*
X137203Y24715D01*
X137498Y24534D01*
X137818Y24401D01*
X138155Y24320D01*
X138500Y24293D01*
X138845Y24320D01*
X139182Y24401D01*
X139502Y24534D01*
X139797Y24715D01*
X140060Y24940D01*
X140112Y25000D01*
X142000D01*
G37*
G36*
X166000D01*
Y21000D01*
X142000D01*
Y25000D01*
G37*
G36*
X162000Y18500D02*Y14500D01*
X147500D01*
Y18500D01*
X162000D01*
G37*
G36*
X163000Y33000D02*X178000D01*
Y17500D01*
X163000D01*
Y33000D01*
G37*
G36*
X153000Y22000D02*X164500D01*
Y20000D01*
X154000D01*
X153000Y21000D01*
Y22000D01*
G37*
G36*
X162000Y26000D02*X140642D01*
X140680Y26155D01*
X140700Y26500D01*
X140680Y26845D01*
X140599Y27182D01*
X140466Y27502D01*
X140285Y27797D01*
X140060Y28060D01*
X139900Y28197D01*
Y28445D01*
X139904Y28500D01*
X139887Y28720D01*
X139836Y28934D01*
X139751Y29138D01*
X139636Y29325D01*
X139636Y29326D01*
X139493Y29493D01*
X139451Y29529D01*
X138529Y30451D01*
X138493Y30493D01*
X138325Y30636D01*
X138138Y30751D01*
X137934Y30836D01*
X137720Y30887D01*
X137500Y30904D01*
X137445Y30900D01*
X128055D01*
X128000Y30904D01*
X127780Y30887D01*
X127566Y30836D01*
X127362Y30751D01*
X127175Y30636D01*
X127174Y30636D01*
X127007Y30493D01*
X126971Y30451D01*
X126149Y29629D01*
X126107Y29593D01*
X126017Y29488D01*
X125665Y29486D01*
X125435Y29431D01*
X125217Y29341D01*
X125016Y29217D01*
X124836Y29064D01*
X124683Y28884D01*
X124559Y28683D01*
X124469Y28465D01*
X124414Y28235D01*
X124400Y28000D01*
X124407Y26000D01*
X121000D01*
Y33000D01*
X162000D01*
Y26000D01*
G37*
G36*
X113000Y33000D02*X124000D01*
Y26000D01*
X119904D01*
Y26000D01*
X119887Y26220D01*
X119836Y26434D01*
X119751Y26638D01*
X119636Y26825D01*
X119636Y26826D01*
X119493Y26993D01*
X119451Y27029D01*
X118029Y28451D01*
X117993Y28493D01*
X117825Y28636D01*
X117638Y28751D01*
X117434Y28836D01*
X117220Y28887D01*
X117000Y28904D01*
X116945Y28900D01*
X115434D01*
X115419Y28919D01*
X115179Y29123D01*
X114911Y29288D01*
X114620Y29408D01*
X114314Y29481D01*
X114000Y29506D01*
X113686Y29481D01*
X113380Y29408D01*
X113089Y29288D01*
X113000Y29233D01*
Y33000D01*
G37*
G36*
X31000Y418000D02*X37500D01*
Y413500D01*
X31000D01*
Y418000D01*
G37*
G36*
X45000D02*Y412000D01*
X36000D01*
Y418000D01*
X45000D01*
G37*
G36*
X47000D02*X52500D01*
Y399000D01*
X47000D01*
Y418000D01*
G37*
G36*
X31000Y402500D02*Y407000D01*
X39000D01*
Y402500D01*
X31000D01*
G37*
G36*
Y397000D02*Y401500D01*
X45000D01*
Y397000D01*
X31000D01*
G37*
G36*
Y408000D02*Y412500D01*
X35000D01*
Y408000D01*
X31000D01*
G37*
G36*
X39000Y411000D02*Y408000D01*
X31000D01*
Y411000D01*
X39000D01*
G37*
G36*
X56000Y418000D02*X62000D01*
Y408500D01*
X56000D01*
Y418000D01*
G37*
G36*
X65900Y416000D02*X65906Y413906D01*
X65928Y413814D01*
X65964Y413727D01*
X66013Y413646D01*
X66074Y413574D01*
X66146Y413513D01*
X66227Y413464D01*
X66314Y413428D01*
X66406Y413406D01*
X66500Y413400D01*
X73116Y413404D01*
X74920Y411600D01*
X66406Y411594D01*
X66314Y411572D01*
X66227Y411536D01*
X66146Y411487D01*
X66074Y411426D01*
X66013Y411354D01*
X65964Y411273D01*
X65928Y411186D01*
X65906Y411094D01*
X65900Y411000D01*
X65906Y408906D01*
X65928Y408814D01*
X65964Y408727D01*
X66013Y408646D01*
X66074Y408574D01*
X66146Y408513D01*
X66168Y408500D01*
X56000D01*
Y418000D01*
X96500D01*
Y408500D01*
X95832D01*
X95854Y408513D01*
X95926Y408574D01*
X95987Y408646D01*
X96036Y408727D01*
X96072Y408814D01*
X96094Y408906D01*
X96100Y409000D01*
X96094Y411094D01*
X96072Y411186D01*
X96036Y411273D01*
X95987Y411354D01*
X95926Y411426D01*
X95854Y411487D01*
X95773Y411536D01*
X95686Y411572D01*
X95594Y411594D01*
X95500Y411600D01*
X86906Y411594D01*
X86814Y411572D01*
X86727Y411536D01*
X86646Y411487D01*
X86574Y411426D01*
X86513Y411354D01*
X86464Y411273D01*
X86428Y411186D01*
X86406Y411094D01*
X86400Y411000D01*
X86402Y410382D01*
X84520Y408500D01*
X81808D01*
X81751Y408638D01*
X81636Y408825D01*
X81493Y408993D01*
X81451Y409029D01*
X75598Y414882D01*
X75594Y416094D01*
X75572Y416186D01*
X75536Y416273D01*
X75487Y416354D01*
X75426Y416426D01*
X75354Y416487D01*
X75273Y416536D01*
X75186Y416572D01*
X75094Y416594D01*
X75000Y416600D01*
X66406Y416594D01*
X66314Y416572D01*
X66227Y416536D01*
X66146Y416487D01*
X66074Y416426D01*
X66013Y416354D01*
X65964Y416273D01*
X65928Y416186D01*
X65906Y416094D01*
X65900Y416000D01*
G37*
G36*
X96500Y412000D02*Y406000D01*
X96095D01*
X96094Y406094D01*
X96072Y406186D01*
X96036Y406273D01*
X95987Y406354D01*
X95926Y406426D01*
X95854Y406487D01*
X95773Y406536D01*
X95686Y406572D01*
X95594Y406594D01*
X95500Y406600D01*
X88000Y406595D01*
Y408020D01*
X88381Y408401D01*
X95594Y408406D01*
X95686Y408428D01*
X95773Y408464D01*
X95854Y408513D01*
X95926Y408574D01*
X95987Y408646D01*
X96036Y408727D01*
X96072Y408814D01*
X96094Y408906D01*
X96100Y409000D01*
X96094Y411094D01*
X96072Y411186D01*
X96036Y411273D01*
X95987Y411354D01*
X95926Y411426D01*
X95854Y411487D01*
X95773Y411536D01*
X95686Y411572D01*
X95594Y411594D01*
X95500Y411600D01*
X88000Y411595D01*
Y412000D01*
X96500D01*
G37*
G36*
X101495Y418000D02*X116500D01*
Y413900D01*
X115434D01*
X115419Y413919D01*
X115179Y414123D01*
X114911Y414288D01*
X114620Y414408D01*
X114314Y414481D01*
X114000Y414506D01*
X113686Y414481D01*
X113380Y414408D01*
X113089Y414288D01*
X112821Y414123D01*
X112581Y413919D01*
X112377Y413679D01*
X112212Y413411D01*
X112092Y413120D01*
X112019Y412814D01*
X111994Y412500D01*
X112019Y412186D01*
X112092Y411880D01*
X112212Y411589D01*
X112377Y411321D01*
X112581Y411081D01*
X112821Y410877D01*
X113089Y410712D01*
X113380Y410592D01*
X113686Y410519D01*
X114000Y410494D01*
X114314Y410519D01*
X114620Y410592D01*
X114911Y410712D01*
X115179Y410877D01*
X115419Y411081D01*
X115434Y411100D01*
X116420D01*
X116500Y411020D01*
Y405000D01*
X104041D01*
X103894Y405239D01*
X103592Y405592D01*
X103239Y405894D01*
X102843Y406137D01*
X102414Y406314D01*
X101963Y406423D01*
X101500Y406459D01*
X101495Y406459D01*
Y408541D01*
X101500Y408541D01*
X101963Y408577D01*
X102414Y408686D01*
X102843Y408863D01*
X103239Y409106D01*
X103592Y409408D01*
X103894Y409761D01*
X104137Y410157D01*
X104314Y410586D01*
X104423Y411037D01*
X104450Y411500D01*
X104423Y411963D01*
X104314Y412414D01*
X104137Y412843D01*
X103894Y413239D01*
X103592Y413592D01*
X103239Y413894D01*
X102843Y414137D01*
X102414Y414314D01*
X101963Y414423D01*
X101500Y414459D01*
X101495Y414459D01*
Y418000D01*
G37*
G36*
X93000D02*X101495D01*
Y414459D01*
X101037Y414423D01*
X100586Y414314D01*
X100157Y414137D01*
X99761Y413894D01*
X99408Y413592D01*
X99106Y413239D01*
X98863Y412843D01*
X98686Y412414D01*
X98577Y411963D01*
X98541Y411500D01*
X98577Y411037D01*
X98686Y410586D01*
X98863Y410157D01*
X99106Y409761D01*
X99408Y409408D01*
X99761Y409106D01*
X100157Y408863D01*
X100586Y408686D01*
X101037Y408577D01*
X101495Y408541D01*
Y406459D01*
X101037Y406423D01*
X100586Y406314D01*
X100157Y406137D01*
X99761Y405894D01*
X99408Y405592D01*
X99106Y405239D01*
X98959Y405000D01*
X96097D01*
X96094Y406094D01*
X96072Y406186D01*
X96036Y406273D01*
X95987Y406354D01*
X95926Y406426D01*
X95854Y406487D01*
X95773Y406536D01*
X95686Y406572D01*
X95594Y406594D01*
X95500Y406600D01*
X93000Y406598D01*
Y408404D01*
X95594Y408406D01*
X95686Y408428D01*
X95773Y408464D01*
X95854Y408513D01*
X95926Y408574D01*
X95987Y408646D01*
X96036Y408727D01*
X96072Y408814D01*
X96094Y408906D01*
X96100Y409000D01*
X96094Y411094D01*
X96072Y411186D01*
X96036Y411273D01*
X95987Y411354D01*
X95926Y411426D01*
X95854Y411487D01*
X95773Y411536D01*
X95686Y411572D01*
X95594Y411594D01*
X95500Y411600D01*
X93000Y411598D01*
Y418000D01*
G37*
G36*
X65900Y381000D02*X65906Y378906D01*
X65928Y378814D01*
X65964Y378727D01*
X66013Y378646D01*
X66074Y378574D01*
X66146Y378513D01*
X66227Y378464D01*
X66314Y378428D01*
X66406Y378406D01*
X66500Y378400D01*
X73116Y378404D01*
X74920Y376600D01*
X66406Y376594D01*
X66314Y376572D01*
X66227Y376536D01*
X66146Y376487D01*
X66074Y376426D01*
X66013Y376354D01*
X65964Y376273D01*
X65928Y376186D01*
X65906Y376094D01*
X65900Y376000D01*
X65906Y373906D01*
X65928Y373814D01*
X65964Y373727D01*
X66013Y373646D01*
X66074Y373574D01*
X66146Y373513D01*
X66168Y373500D01*
X56000D01*
Y383000D01*
X96500D01*
Y373500D01*
X95832D01*
X95854Y373513D01*
X95926Y373574D01*
X95987Y373646D01*
X96036Y373727D01*
X96072Y373814D01*
X96094Y373906D01*
X96100Y374000D01*
X96094Y376094D01*
X96072Y376186D01*
X96036Y376273D01*
X95987Y376354D01*
X95926Y376426D01*
X95854Y376487D01*
X95773Y376536D01*
X95686Y376572D01*
X95594Y376594D01*
X95500Y376600D01*
X86906Y376594D01*
X86814Y376572D01*
X86727Y376536D01*
X86646Y376487D01*
X86574Y376426D01*
X86513Y376354D01*
X86464Y376273D01*
X86428Y376186D01*
X86406Y376094D01*
X86400Y376000D01*
X86402Y375382D01*
X84520Y373500D01*
X81808D01*
X81751Y373638D01*
X81636Y373825D01*
X81493Y373993D01*
X81451Y374029D01*
X75598Y379882D01*
X75594Y381094D01*
X75572Y381186D01*
X75536Y381273D01*
X75487Y381354D01*
X75426Y381426D01*
X75354Y381487D01*
X75273Y381536D01*
X75186Y381572D01*
X75094Y381594D01*
X75000Y381600D01*
X66406Y381594D01*
X66314Y381572D01*
X66227Y381536D01*
X66146Y381487D01*
X66074Y381426D01*
X66013Y381354D01*
X65964Y381273D01*
X65928Y381186D01*
X65906Y381094D01*
X65900Y381000D01*
G37*
G36*
Y346000D02*X65906Y343906D01*
X65928Y343814D01*
X65964Y343727D01*
X66013Y343646D01*
X66074Y343574D01*
X66146Y343513D01*
X66227Y343464D01*
X66314Y343428D01*
X66406Y343406D01*
X66500Y343400D01*
X73116Y343404D01*
X74920Y341600D01*
X66406Y341594D01*
X66314Y341572D01*
X66227Y341536D01*
X66146Y341487D01*
X66074Y341426D01*
X66013Y341354D01*
X65964Y341273D01*
X65928Y341186D01*
X65906Y341094D01*
X65900Y341000D01*
X65906Y338906D01*
X65928Y338814D01*
X65964Y338727D01*
X66013Y338646D01*
X66074Y338574D01*
X66146Y338513D01*
X66168Y338500D01*
X56000D01*
Y348000D01*
X96500D01*
Y338500D01*
X95832D01*
X95854Y338513D01*
X95926Y338574D01*
X95987Y338646D01*
X96036Y338727D01*
X96072Y338814D01*
X96094Y338906D01*
X96100Y339000D01*
X96094Y341094D01*
X96072Y341186D01*
X96036Y341273D01*
X95987Y341354D01*
X95926Y341426D01*
X95854Y341487D01*
X95773Y341536D01*
X95686Y341572D01*
X95594Y341594D01*
X95500Y341600D01*
X86906Y341594D01*
X86814Y341572D01*
X86727Y341536D01*
X86646Y341487D01*
X86574Y341426D01*
X86513Y341354D01*
X86464Y341273D01*
X86428Y341186D01*
X86406Y341094D01*
X86400Y341000D01*
X86402Y340382D01*
X84520Y338500D01*
X81808D01*
X81751Y338638D01*
X81636Y338825D01*
X81493Y338993D01*
X81451Y339029D01*
X75598Y344882D01*
X75594Y346094D01*
X75572Y346186D01*
X75536Y346273D01*
X75487Y346354D01*
X75426Y346426D01*
X75354Y346487D01*
X75273Y346536D01*
X75186Y346572D01*
X75094Y346594D01*
X75000Y346600D01*
X66406Y346594D01*
X66314Y346572D01*
X66227Y346536D01*
X66146Y346487D01*
X66074Y346426D01*
X66013Y346354D01*
X65964Y346273D01*
X65928Y346186D01*
X65906Y346094D01*
X65900Y346000D01*
G37*
G36*
X96500Y342000D02*Y336000D01*
X96095D01*
X96094Y336094D01*
X96072Y336186D01*
X96036Y336273D01*
X95987Y336354D01*
X95926Y336426D01*
X95854Y336487D01*
X95773Y336536D01*
X95686Y336572D01*
X95594Y336594D01*
X95500Y336600D01*
X88000Y336595D01*
Y338020D01*
X88381Y338401D01*
X95594Y338406D01*
X95686Y338428D01*
X95773Y338464D01*
X95854Y338513D01*
X95926Y338574D01*
X95987Y338646D01*
X96036Y338727D01*
X96072Y338814D01*
X96094Y338906D01*
X96100Y339000D01*
X96094Y341094D01*
X96072Y341186D01*
X96036Y341273D01*
X95987Y341354D01*
X95926Y341426D01*
X95854Y341487D01*
X95773Y341536D01*
X95686Y341572D01*
X95594Y341594D01*
X95500Y341600D01*
X88000Y341595D01*
Y342000D01*
X96500D01*
G37*
G36*
X65900Y311000D02*X65906Y308906D01*
X65928Y308814D01*
X65964Y308727D01*
X66013Y308646D01*
X66074Y308574D01*
X66146Y308513D01*
X66227Y308464D01*
X66314Y308428D01*
X66406Y308406D01*
X66500Y308400D01*
X73116Y308404D01*
X74920Y306600D01*
X66406Y306594D01*
X66314Y306572D01*
X66227Y306536D01*
X66146Y306487D01*
X66074Y306426D01*
X66013Y306354D01*
X65964Y306273D01*
X65928Y306186D01*
X65906Y306094D01*
X65900Y306000D01*
X65906Y303906D01*
X65928Y303814D01*
X65964Y303727D01*
X66013Y303646D01*
X66074Y303574D01*
X66146Y303513D01*
X66168Y303500D01*
X56000D01*
Y313000D01*
X96500D01*
Y303500D01*
X95832D01*
X95854Y303513D01*
X95926Y303574D01*
X95987Y303646D01*
X96036Y303727D01*
X96072Y303814D01*
X96094Y303906D01*
X96100Y304000D01*
X96094Y306094D01*
X96072Y306186D01*
X96036Y306273D01*
X95987Y306354D01*
X95926Y306426D01*
X95854Y306487D01*
X95773Y306536D01*
X95686Y306572D01*
X95594Y306594D01*
X95500Y306600D01*
X86906Y306594D01*
X86814Y306572D01*
X86727Y306536D01*
X86646Y306487D01*
X86574Y306426D01*
X86513Y306354D01*
X86464Y306273D01*
X86428Y306186D01*
X86406Y306094D01*
X86400Y306000D01*
X86402Y305382D01*
X84520Y303500D01*
X81808D01*
X81751Y303638D01*
X81636Y303825D01*
X81493Y303993D01*
X81451Y304029D01*
X75598Y309882D01*
X75594Y311094D01*
X75572Y311186D01*
X75536Y311273D01*
X75487Y311354D01*
X75426Y311426D01*
X75354Y311487D01*
X75273Y311536D01*
X75186Y311572D01*
X75094Y311594D01*
X75000Y311600D01*
X66406Y311594D01*
X66314Y311572D01*
X66227Y311536D01*
X66146Y311487D01*
X66074Y311426D01*
X66013Y311354D01*
X65964Y311273D01*
X65928Y311186D01*
X65906Y311094D01*
X65900Y311000D01*
G37*
G36*
X96500Y307000D02*Y301000D01*
X96095D01*
X96094Y301094D01*
X96072Y301186D01*
X96036Y301273D01*
X95987Y301354D01*
X95926Y301426D01*
X95854Y301487D01*
X95773Y301536D01*
X95686Y301572D01*
X95594Y301594D01*
X95500Y301600D01*
X88000Y301595D01*
Y303020D01*
X88381Y303401D01*
X95594Y303406D01*
X95686Y303428D01*
X95773Y303464D01*
X95854Y303513D01*
X95926Y303574D01*
X95987Y303646D01*
X96036Y303727D01*
X96072Y303814D01*
X96094Y303906D01*
X96100Y304000D01*
X96094Y306094D01*
X96072Y306186D01*
X96036Y306273D01*
X95987Y306354D01*
X95926Y306426D01*
X95854Y306487D01*
X95773Y306536D01*
X95686Y306572D01*
X95594Y306594D01*
X95500Y306600D01*
X88000Y306595D01*
Y307000D01*
X96500D01*
G37*
G36*
Y377000D02*Y371000D01*
X96095D01*
X96094Y371094D01*
X96072Y371186D01*
X96036Y371273D01*
X95987Y371354D01*
X95926Y371426D01*
X95854Y371487D01*
X95773Y371536D01*
X95686Y371572D01*
X95594Y371594D01*
X95500Y371600D01*
X88000Y371595D01*
Y373020D01*
X88381Y373401D01*
X95594Y373406D01*
X95686Y373428D01*
X95773Y373464D01*
X95854Y373513D01*
X95926Y373574D01*
X95987Y373646D01*
X96036Y373727D01*
X96072Y373814D01*
X96094Y373906D01*
X96100Y374000D01*
X96094Y376094D01*
X96072Y376186D01*
X96036Y376273D01*
X95987Y376354D01*
X95926Y376426D01*
X95854Y376487D01*
X95773Y376536D01*
X95686Y376572D01*
X95594Y376594D01*
X95500Y376600D01*
X88000Y376595D01*
Y377000D01*
X96500D01*
G37*
G36*
X101495Y383000D02*X116500D01*
Y378900D01*
X115434D01*
X115419Y378919D01*
X115179Y379123D01*
X114911Y379288D01*
X114620Y379408D01*
X114314Y379481D01*
X114000Y379506D01*
X113686Y379481D01*
X113380Y379408D01*
X113089Y379288D01*
X112821Y379123D01*
X112581Y378919D01*
X112377Y378679D01*
X112212Y378411D01*
X112092Y378120D01*
X112019Y377814D01*
X111994Y377500D01*
X112019Y377186D01*
X112092Y376880D01*
X112212Y376589D01*
X112377Y376321D01*
X112581Y376081D01*
X112821Y375877D01*
X113089Y375712D01*
X113380Y375592D01*
X113686Y375519D01*
X114000Y375494D01*
X114314Y375519D01*
X114620Y375592D01*
X114911Y375712D01*
X115179Y375877D01*
X115419Y376081D01*
X115434Y376100D01*
X116420D01*
X116500Y376020D01*
Y370000D01*
X104041D01*
X103894Y370239D01*
X103592Y370592D01*
X103239Y370894D01*
X102843Y371137D01*
X102414Y371314D01*
X101963Y371423D01*
X101500Y371459D01*
X101495Y371459D01*
Y373541D01*
X101500Y373541D01*
X101963Y373577D01*
X102414Y373686D01*
X102843Y373863D01*
X103239Y374106D01*
X103592Y374408D01*
X103894Y374761D01*
X104137Y375157D01*
X104314Y375586D01*
X104423Y376037D01*
X104450Y376500D01*
X104423Y376963D01*
X104314Y377414D01*
X104137Y377843D01*
X103894Y378239D01*
X103592Y378592D01*
X103239Y378894D01*
X102843Y379137D01*
X102414Y379314D01*
X101963Y379423D01*
X101500Y379459D01*
X101495Y379459D01*
Y383000D01*
G37*
G36*
X93000D02*X101495D01*
Y379459D01*
X101037Y379423D01*
X100586Y379314D01*
X100157Y379137D01*
X99761Y378894D01*
X99408Y378592D01*
X99106Y378239D01*
X98863Y377843D01*
X98686Y377414D01*
X98577Y376963D01*
X98541Y376500D01*
X98577Y376037D01*
X98686Y375586D01*
X98863Y375157D01*
X99106Y374761D01*
X99408Y374408D01*
X99761Y374106D01*
X100157Y373863D01*
X100586Y373686D01*
X101037Y373577D01*
X101495Y373541D01*
Y371459D01*
X101037Y371423D01*
X100586Y371314D01*
X100157Y371137D01*
X99761Y370894D01*
X99408Y370592D01*
X99106Y370239D01*
X98959Y370000D01*
X96097D01*
X96094Y371094D01*
X96072Y371186D01*
X96036Y371273D01*
X95987Y371354D01*
X95926Y371426D01*
X95854Y371487D01*
X95773Y371536D01*
X95686Y371572D01*
X95594Y371594D01*
X95500Y371600D01*
X93000Y371598D01*
Y373404D01*
X95594Y373406D01*
X95686Y373428D01*
X95773Y373464D01*
X95854Y373513D01*
X95926Y373574D01*
X95987Y373646D01*
X96036Y373727D01*
X96072Y373814D01*
X96094Y373906D01*
X96100Y374000D01*
X96094Y376094D01*
X96072Y376186D01*
X96036Y376273D01*
X95987Y376354D01*
X95926Y376426D01*
X95854Y376487D01*
X95773Y376536D01*
X95686Y376572D01*
X95594Y376594D01*
X95500Y376600D01*
X93000Y376598D01*
Y383000D01*
G37*
G36*
X101495Y348000D02*X116500D01*
Y343900D01*
X115434D01*
X115419Y343919D01*
X115179Y344123D01*
X114911Y344288D01*
X114620Y344408D01*
X114314Y344481D01*
X114000Y344506D01*
X113686Y344481D01*
X113380Y344408D01*
X113089Y344288D01*
X112821Y344123D01*
X112581Y343919D01*
X112377Y343679D01*
X112212Y343411D01*
X112092Y343120D01*
X112019Y342814D01*
X111994Y342500D01*
X112019Y342186D01*
X112092Y341880D01*
X112212Y341589D01*
X112377Y341321D01*
X112581Y341081D01*
X112821Y340877D01*
X113089Y340712D01*
X113380Y340592D01*
X113686Y340519D01*
X114000Y340494D01*
X114314Y340519D01*
X114620Y340592D01*
X114911Y340712D01*
X115179Y340877D01*
X115419Y341081D01*
X115434Y341100D01*
X116420D01*
X116500Y341020D01*
Y335000D01*
X104041D01*
X103894Y335239D01*
X103592Y335592D01*
X103239Y335894D01*
X102843Y336137D01*
X102414Y336314D01*
X101963Y336423D01*
X101500Y336459D01*
X101495Y336459D01*
Y338541D01*
X101500Y338541D01*
X101963Y338577D01*
X102414Y338686D01*
X102843Y338863D01*
X103239Y339106D01*
X103592Y339408D01*
X103894Y339761D01*
X104137Y340157D01*
X104314Y340586D01*
X104423Y341037D01*
X104450Y341500D01*
X104423Y341963D01*
X104314Y342414D01*
X104137Y342843D01*
X103894Y343239D01*
X103592Y343592D01*
X103239Y343894D01*
X102843Y344137D01*
X102414Y344314D01*
X101963Y344423D01*
X101500Y344459D01*
X101495Y344459D01*
Y348000D01*
G37*
G36*
X93000D02*X101495D01*
Y344459D01*
X101037Y344423D01*
X100586Y344314D01*
X100157Y344137D01*
X99761Y343894D01*
X99408Y343592D01*
X99106Y343239D01*
X98863Y342843D01*
X98686Y342414D01*
X98577Y341963D01*
X98541Y341500D01*
X98577Y341037D01*
X98686Y340586D01*
X98863Y340157D01*
X99106Y339761D01*
X99408Y339408D01*
X99761Y339106D01*
X100157Y338863D01*
X100586Y338686D01*
X101037Y338577D01*
X101495Y338541D01*
Y336459D01*
X101037Y336423D01*
X100586Y336314D01*
X100157Y336137D01*
X99761Y335894D01*
X99408Y335592D01*
X99106Y335239D01*
X98959Y335000D01*
X96097D01*
X96094Y336094D01*
X96072Y336186D01*
X96036Y336273D01*
X95987Y336354D01*
X95926Y336426D01*
X95854Y336487D01*
X95773Y336536D01*
X95686Y336572D01*
X95594Y336594D01*
X95500Y336600D01*
X93000Y336598D01*
Y338404D01*
X95594Y338406D01*
X95686Y338428D01*
X95773Y338464D01*
X95854Y338513D01*
X95926Y338574D01*
X95987Y338646D01*
X96036Y338727D01*
X96072Y338814D01*
X96094Y338906D01*
X96100Y339000D01*
X96094Y341094D01*
X96072Y341186D01*
X96036Y341273D01*
X95987Y341354D01*
X95926Y341426D01*
X95854Y341487D01*
X95773Y341536D01*
X95686Y341572D01*
X95594Y341594D01*
X95500Y341600D01*
X93000Y341598D01*
Y348000D01*
G37*
G36*
X101495Y313000D02*X116500D01*
Y308900D01*
X115434D01*
X115419Y308919D01*
X115179Y309123D01*
X114911Y309288D01*
X114620Y309408D01*
X114314Y309481D01*
X114000Y309506D01*
X113686Y309481D01*
X113380Y309408D01*
X113089Y309288D01*
X112821Y309123D01*
X112581Y308919D01*
X112377Y308679D01*
X112212Y308411D01*
X112092Y308120D01*
X112019Y307814D01*
X111994Y307500D01*
X112019Y307186D01*
X112092Y306880D01*
X112212Y306589D01*
X112377Y306321D01*
X112581Y306081D01*
X112821Y305877D01*
X113089Y305712D01*
X113380Y305592D01*
X113686Y305519D01*
X114000Y305494D01*
X114314Y305519D01*
X114620Y305592D01*
X114911Y305712D01*
X115179Y305877D01*
X115419Y306081D01*
X115434Y306100D01*
X116420D01*
X116500Y306020D01*
Y300000D01*
X104041D01*
X103894Y300239D01*
X103592Y300592D01*
X103239Y300894D01*
X102843Y301137D01*
X102414Y301314D01*
X101963Y301423D01*
X101500Y301459D01*
X101495Y301459D01*
Y303541D01*
X101500Y303541D01*
X101963Y303577D01*
X102414Y303686D01*
X102843Y303863D01*
X103239Y304106D01*
X103592Y304408D01*
X103894Y304761D01*
X104137Y305157D01*
X104314Y305586D01*
X104423Y306037D01*
X104450Y306500D01*
X104423Y306963D01*
X104314Y307414D01*
X104137Y307843D01*
X103894Y308239D01*
X103592Y308592D01*
X103239Y308894D01*
X102843Y309137D01*
X102414Y309314D01*
X101963Y309423D01*
X101500Y309459D01*
X101495Y309459D01*
Y313000D01*
G37*
G36*
X93000D02*X101495D01*
Y309459D01*
X101037Y309423D01*
X100586Y309314D01*
X100157Y309137D01*
X99761Y308894D01*
X99408Y308592D01*
X99106Y308239D01*
X98863Y307843D01*
X98686Y307414D01*
X98577Y306963D01*
X98541Y306500D01*
X98577Y306037D01*
X98686Y305586D01*
X98863Y305157D01*
X99106Y304761D01*
X99408Y304408D01*
X99761Y304106D01*
X100157Y303863D01*
X100586Y303686D01*
X101037Y303577D01*
X101495Y303541D01*
Y301459D01*
X101037Y301423D01*
X100586Y301314D01*
X100157Y301137D01*
X99761Y300894D01*
X99408Y300592D01*
X99106Y300239D01*
X98959Y300000D01*
X96097D01*
X96094Y301094D01*
X96072Y301186D01*
X96036Y301273D01*
X95987Y301354D01*
X95926Y301426D01*
X95854Y301487D01*
X95773Y301536D01*
X95686Y301572D01*
X95594Y301594D01*
X95500Y301600D01*
X93000Y301598D01*
Y303404D01*
X95594Y303406D01*
X95686Y303428D01*
X95773Y303464D01*
X95854Y303513D01*
X95926Y303574D01*
X95987Y303646D01*
X96036Y303727D01*
X96072Y303814D01*
X96094Y303906D01*
X96100Y304000D01*
X96094Y306094D01*
X96072Y306186D01*
X96036Y306273D01*
X95987Y306354D01*
X95926Y306426D01*
X95854Y306487D01*
X95773Y306536D01*
X95686Y306572D01*
X95594Y306594D01*
X95500Y306600D01*
X93000Y306598D01*
Y313000D01*
G37*
G36*
X31000Y367500D02*Y372000D01*
X39000D01*
Y367500D01*
X31000D01*
G37*
G36*
Y362000D02*Y366500D01*
X45000D01*
Y362000D01*
X31000D01*
G37*
G36*
Y373000D02*Y377500D01*
X35000D01*
Y373000D01*
X31000D01*
G37*
G36*
X39000Y376000D02*Y373000D01*
X31000D01*
Y376000D01*
X39000D01*
G37*
G36*
X47000Y383000D02*X52500D01*
Y364000D01*
X47000D01*
Y383000D01*
G37*
G36*
X31000D02*X37500D01*
Y378500D01*
X31000D01*
Y383000D01*
G37*
G36*
X45000D02*Y377000D01*
X36000D01*
Y383000D01*
X45000D01*
G37*
G36*
X56000D02*X62000D01*
Y373500D01*
X56000D01*
Y383000D01*
G37*
G36*
X142000Y415500D02*X162000D01*
Y411000D01*
X142000D01*
Y415500D01*
G37*
G36*
X141000Y410000D02*X144500D01*
Y399000D01*
X141000D01*
Y410000D01*
G37*
G36*
X142000D02*Y405500D01*
X133530D01*
X133500Y405549D01*
Y410000D01*
X136888D01*
X136940Y409940D01*
X137203Y409715D01*
X137498Y409534D01*
X137818Y409401D01*
X138155Y409320D01*
X138500Y409293D01*
X138845Y409320D01*
X139182Y409401D01*
X139502Y409534D01*
X139797Y409715D01*
X140060Y409940D01*
X140112Y410000D01*
X142000D01*
G37*
G36*
X166000D01*
Y406000D01*
X142000D01*
Y410000D01*
G37*
G36*
X162000Y403500D02*Y399500D01*
X147500D01*
Y403500D01*
X162000D01*
G37*
G36*
X163000Y418000D02*X178000D01*
Y402500D01*
X163000D01*
Y418000D01*
G37*
G36*
X153000Y407000D02*X164500D01*
Y405000D01*
X154000D01*
X153000Y406000D01*
Y407000D01*
G37*
G36*
X162000Y411000D02*X140642D01*
X140680Y411155D01*
X140700Y411500D01*
X140680Y411845D01*
X140599Y412182D01*
X140466Y412502D01*
X140285Y412797D01*
X140060Y413060D01*
X139900Y413197D01*
Y413445D01*
X139904Y413500D01*
X139887Y413720D01*
X139836Y413934D01*
X139751Y414138D01*
X139636Y414325D01*
X139636Y414326D01*
X139493Y414493D01*
X139451Y414529D01*
X138529Y415451D01*
X138493Y415493D01*
X138325Y415636D01*
X138138Y415751D01*
X137934Y415836D01*
X137720Y415887D01*
X137500Y415904D01*
X137445Y415900D01*
X128055D01*
X128000Y415904D01*
X127780Y415887D01*
X127566Y415836D01*
X127362Y415751D01*
X127175Y415636D01*
X127174Y415636D01*
X127007Y415493D01*
X126971Y415451D01*
X126149Y414629D01*
X126107Y414593D01*
X126017Y414488D01*
X125665Y414486D01*
X125435Y414431D01*
X125217Y414341D01*
X125016Y414217D01*
X124836Y414064D01*
X124683Y413884D01*
X124559Y413683D01*
X124469Y413465D01*
X124414Y413235D01*
X124400Y413000D01*
X124407Y411000D01*
X121000D01*
Y418000D01*
X162000D01*
Y411000D01*
G37*
G36*
X113000Y418000D02*X124000D01*
Y411000D01*
X119904D01*
Y411000D01*
X119887Y411220D01*
X119836Y411434D01*
X119751Y411638D01*
X119636Y411825D01*
X119636Y411826D01*
X119493Y411993D01*
X119451Y412029D01*
X118029Y413451D01*
X117993Y413493D01*
X117825Y413636D01*
X117638Y413751D01*
X117434Y413836D01*
X117220Y413887D01*
X117000Y413904D01*
X116945Y413900D01*
X115434D01*
X115419Y413919D01*
X115179Y414123D01*
X114911Y414288D01*
X114620Y414408D01*
X114314Y414481D01*
X114000Y414506D01*
X113686Y414481D01*
X113380Y414408D01*
X113089Y414288D01*
X113000Y414233D01*
Y418000D01*
G37*
G36*
X240000Y420000D02*Y395000D01*
X232500D01*
Y420000D01*
X240000D01*
G37*
G36*
X142000Y380500D02*X162000D01*
Y376000D01*
X142000D01*
Y380500D01*
G37*
G36*
X141000Y375000D02*X144500D01*
Y364000D01*
X141000D01*
Y375000D01*
G37*
G36*
X142000D02*Y370500D01*
X133530D01*
X133500Y370549D01*
Y375000D01*
X136888D01*
X136940Y374940D01*
X137203Y374715D01*
X137498Y374534D01*
X137818Y374401D01*
X138155Y374320D01*
X138500Y374293D01*
X138845Y374320D01*
X139182Y374401D01*
X139502Y374534D01*
X139797Y374715D01*
X140060Y374940D01*
X140112Y375000D01*
X142000D01*
G37*
G36*
X166000D01*
Y371000D01*
X142000D01*
Y375000D01*
G37*
G36*
X162000Y368500D02*Y364500D01*
X147500D01*
Y368500D01*
X162000D01*
G37*
G36*
X163000Y383000D02*X178000D01*
Y367500D01*
X163000D01*
Y383000D01*
G37*
G36*
X153000Y372000D02*X164500D01*
Y370000D01*
X154000D01*
X153000Y371000D01*
Y372000D01*
G37*
G36*
X162000Y376000D02*X140642D01*
X140680Y376155D01*
X140700Y376500D01*
X140680Y376845D01*
X140599Y377182D01*
X140466Y377502D01*
X140285Y377797D01*
X140060Y378060D01*
X139900Y378197D01*
Y378445D01*
X139904Y378500D01*
X139887Y378720D01*
X139836Y378934D01*
X139751Y379138D01*
X139636Y379325D01*
X139636Y379326D01*
X139493Y379493D01*
X139451Y379529D01*
X138529Y380451D01*
X138493Y380493D01*
X138325Y380636D01*
X138138Y380751D01*
X137934Y380836D01*
X137720Y380887D01*
X137500Y380904D01*
X137445Y380900D01*
X128055D01*
X128000Y380904D01*
X127780Y380887D01*
X127566Y380836D01*
X127362Y380751D01*
X127175Y380636D01*
X127174Y380636D01*
X127007Y380493D01*
X126971Y380451D01*
X126149Y379629D01*
X126107Y379593D01*
X126017Y379488D01*
X125665Y379486D01*
X125435Y379431D01*
X125217Y379341D01*
X125016Y379217D01*
X124836Y379064D01*
X124683Y378884D01*
X124559Y378683D01*
X124469Y378465D01*
X124414Y378235D01*
X124400Y378000D01*
X124407Y376000D01*
X121000D01*
Y383000D01*
X162000D01*
Y376000D01*
G37*
G36*
X113000Y383000D02*X124000D01*
Y376000D01*
X119904D01*
Y376000D01*
X119887Y376220D01*
X119836Y376434D01*
X119751Y376638D01*
X119636Y376825D01*
X119636Y376826D01*
X119493Y376993D01*
X119451Y377029D01*
X118029Y378451D01*
X117993Y378493D01*
X117825Y378636D01*
X117638Y378751D01*
X117434Y378836D01*
X117220Y378887D01*
X117000Y378904D01*
X116945Y378900D01*
X115434D01*
X115419Y378919D01*
X115179Y379123D01*
X114911Y379288D01*
X114620Y379408D01*
X114314Y379481D01*
X114000Y379506D01*
X113686Y379481D01*
X113380Y379408D01*
X113089Y379288D01*
X113000Y379233D01*
Y383000D01*
G37*
G36*
X142000Y345500D02*X162000D01*
Y341000D01*
X142000D01*
Y345500D01*
G37*
G36*
X141000Y340000D02*X144500D01*
Y329000D01*
X141000D01*
Y340000D01*
G37*
G36*
X142000D02*Y335500D01*
X133530D01*
X133500Y335549D01*
Y340000D01*
X136888D01*
X136940Y339940D01*
X137203Y339715D01*
X137498Y339534D01*
X137818Y339401D01*
X138155Y339320D01*
X138500Y339293D01*
X138845Y339320D01*
X139182Y339401D01*
X139502Y339534D01*
X139797Y339715D01*
X140060Y339940D01*
X140112Y340000D01*
X142000D01*
G37*
G36*
X166000D01*
Y336000D01*
X142000D01*
Y340000D01*
G37*
G36*
X162000Y333500D02*Y329500D01*
X147500D01*
Y333500D01*
X162000D01*
G37*
G36*
X163000Y348000D02*X178000D01*
Y332500D01*
X163000D01*
Y348000D01*
G37*
G36*
X153000Y337000D02*X164500D01*
Y335000D01*
X154000D01*
X153000Y336000D01*
Y337000D01*
G37*
G36*
X162000Y341000D02*X140642D01*
X140680Y341155D01*
X140700Y341500D01*
X140680Y341845D01*
X140599Y342182D01*
X140466Y342502D01*
X140285Y342797D01*
X140060Y343060D01*
X139900Y343197D01*
Y343445D01*
X139904Y343500D01*
X139887Y343720D01*
X139836Y343934D01*
X139751Y344138D01*
X139636Y344325D01*
X139636Y344326D01*
X139493Y344493D01*
X139451Y344529D01*
X138529Y345451D01*
X138493Y345493D01*
X138325Y345636D01*
X138138Y345751D01*
X137934Y345836D01*
X137720Y345887D01*
X137500Y345904D01*
X137445Y345900D01*
X128055D01*
X128000Y345904D01*
X127780Y345887D01*
X127566Y345836D01*
X127362Y345751D01*
X127175Y345636D01*
X127174Y345636D01*
X127007Y345493D01*
X126971Y345451D01*
X126149Y344629D01*
X126107Y344593D01*
X126017Y344488D01*
X125665Y344486D01*
X125435Y344431D01*
X125217Y344341D01*
X125016Y344217D01*
X124836Y344064D01*
X124683Y343884D01*
X124559Y343683D01*
X124469Y343465D01*
X124414Y343235D01*
X124400Y343000D01*
X124407Y341000D01*
X121000D01*
Y348000D01*
X162000D01*
Y341000D01*
G37*
G36*
X31000Y332500D02*Y337000D01*
X39000D01*
Y332500D01*
X31000D01*
G37*
G36*
Y327000D02*Y331500D01*
X45000D01*
Y327000D01*
X31000D01*
G37*
G36*
Y338000D02*Y342500D01*
X35000D01*
Y338000D01*
X31000D01*
G37*
G36*
X39000Y341000D02*Y338000D01*
X31000D01*
Y341000D01*
X39000D01*
G37*
G36*
X31000Y348000D02*X37500D01*
Y343500D01*
X31000D01*
Y348000D01*
G37*
G36*
X45000D02*Y342000D01*
X36000D01*
Y348000D01*
X45000D01*
G37*
G36*
X47000D02*X52500D01*
Y329000D01*
X47000D01*
Y348000D01*
G37*
G36*
Y313000D02*X52500D01*
Y294000D01*
X47000D01*
Y313000D01*
G37*
G36*
X56000Y348000D02*X62000D01*
Y338500D01*
X56000D01*
Y348000D01*
G37*
G36*
X31000Y303000D02*Y307500D01*
X35000D01*
Y303000D01*
X31000D01*
G37*
G36*
X39000Y306000D02*Y303000D01*
X31000D01*
Y306000D01*
X39000D01*
G37*
G36*
X31000Y313000D02*X37500D01*
Y308500D01*
X31000D01*
Y313000D01*
G37*
G36*
X45000D02*Y307000D01*
X36000D01*
Y313000D01*
X45000D01*
G37*
G36*
X56000D02*X62000D01*
Y303500D01*
X56000D01*
Y313000D01*
G37*
G36*
X31000Y297500D02*Y302000D01*
X39000D01*
Y297500D01*
X31000D01*
G37*
G36*
Y292000D02*Y296500D01*
X45000D01*
Y292000D01*
X31000D01*
G37*
G36*
Y262500D02*Y267000D01*
X39000D01*
Y262500D01*
X31000D01*
G37*
G36*
Y257000D02*Y261500D01*
X45000D01*
Y257000D01*
X31000D01*
G37*
G36*
Y268000D02*Y272500D01*
X35000D01*
Y268000D01*
X31000D01*
G37*
G36*
X39000Y271000D02*Y268000D01*
X31000D01*
Y271000D01*
X39000D01*
G37*
G36*
X31000Y278000D02*X37500D01*
Y273500D01*
X31000D01*
Y278000D01*
G37*
G36*
X45000D02*Y272000D01*
X36000D01*
Y278000D01*
X45000D01*
G37*
G36*
X47000D02*X52500D01*
Y259000D01*
X47000D01*
Y278000D01*
G37*
G36*
X56000D02*X62000D01*
Y268500D01*
X56000D01*
Y278000D01*
G37*
G36*
X65900Y276000D02*X65906Y273906D01*
X65928Y273814D01*
X65964Y273727D01*
X66013Y273646D01*
X66074Y273574D01*
X66146Y273513D01*
X66227Y273464D01*
X66314Y273428D01*
X66406Y273406D01*
X66500Y273400D01*
X73116Y273404D01*
X74920Y271600D01*
X66406Y271594D01*
X66314Y271572D01*
X66227Y271536D01*
X66146Y271487D01*
X66074Y271426D01*
X66013Y271354D01*
X65964Y271273D01*
X65928Y271186D01*
X65906Y271094D01*
X65900Y271000D01*
X65906Y268906D01*
X65928Y268814D01*
X65964Y268727D01*
X66013Y268646D01*
X66074Y268574D01*
X66146Y268513D01*
X66168Y268500D01*
X56000D01*
Y278000D01*
X96500D01*
Y268500D01*
X95832D01*
X95854Y268513D01*
X95926Y268574D01*
X95987Y268646D01*
X96036Y268727D01*
X96072Y268814D01*
X96094Y268906D01*
X96100Y269000D01*
X96094Y271094D01*
X96072Y271186D01*
X96036Y271273D01*
X95987Y271354D01*
X95926Y271426D01*
X95854Y271487D01*
X95773Y271536D01*
X95686Y271572D01*
X95594Y271594D01*
X95500Y271600D01*
X86906Y271594D01*
X86814Y271572D01*
X86727Y271536D01*
X86646Y271487D01*
X86574Y271426D01*
X86513Y271354D01*
X86464Y271273D01*
X86428Y271186D01*
X86406Y271094D01*
X86400Y271000D01*
X86402Y270382D01*
X84520Y268500D01*
X81808D01*
X81751Y268638D01*
X81636Y268825D01*
X81493Y268993D01*
X81451Y269029D01*
X75598Y274882D01*
X75594Y276094D01*
X75572Y276186D01*
X75536Y276273D01*
X75487Y276354D01*
X75426Y276426D01*
X75354Y276487D01*
X75273Y276536D01*
X75186Y276572D01*
X75094Y276594D01*
X75000Y276600D01*
X66406Y276594D01*
X66314Y276572D01*
X66227Y276536D01*
X66146Y276487D01*
X66074Y276426D01*
X66013Y276354D01*
X65964Y276273D01*
X65928Y276186D01*
X65906Y276094D01*
X65900Y276000D01*
G37*
G36*
X96500Y272000D02*Y266000D01*
X96095D01*
X96094Y266094D01*
X96072Y266186D01*
X96036Y266273D01*
X95987Y266354D01*
X95926Y266426D01*
X95854Y266487D01*
X95773Y266536D01*
X95686Y266572D01*
X95594Y266594D01*
X95500Y266600D01*
X88000Y266595D01*
Y268020D01*
X88381Y268401D01*
X95594Y268406D01*
X95686Y268428D01*
X95773Y268464D01*
X95854Y268513D01*
X95926Y268574D01*
X95987Y268646D01*
X96036Y268727D01*
X96072Y268814D01*
X96094Y268906D01*
X96100Y269000D01*
X96094Y271094D01*
X96072Y271186D01*
X96036Y271273D01*
X95987Y271354D01*
X95926Y271426D01*
X95854Y271487D01*
X95773Y271536D01*
X95686Y271572D01*
X95594Y271594D01*
X95500Y271600D01*
X88000Y271595D01*
Y272000D01*
X96500D01*
G37*
G36*
X101495Y278000D02*X116500D01*
Y273900D01*
X115434D01*
X115419Y273919D01*
X115179Y274123D01*
X114911Y274288D01*
X114620Y274408D01*
X114314Y274481D01*
X114000Y274506D01*
X113686Y274481D01*
X113380Y274408D01*
X113089Y274288D01*
X112821Y274123D01*
X112581Y273919D01*
X112377Y273679D01*
X112212Y273411D01*
X112092Y273120D01*
X112019Y272814D01*
X111994Y272500D01*
X112019Y272186D01*
X112092Y271880D01*
X112212Y271589D01*
X112377Y271321D01*
X112581Y271081D01*
X112821Y270877D01*
X113089Y270712D01*
X113380Y270592D01*
X113686Y270519D01*
X114000Y270494D01*
X114314Y270519D01*
X114620Y270592D01*
X114911Y270712D01*
X115179Y270877D01*
X115419Y271081D01*
X115434Y271100D01*
X116420D01*
X116500Y271020D01*
Y265000D01*
X104041D01*
X103894Y265239D01*
X103592Y265592D01*
X103239Y265894D01*
X102843Y266137D01*
X102414Y266314D01*
X101963Y266423D01*
X101500Y266459D01*
X101495Y266459D01*
Y268541D01*
X101500Y268541D01*
X101963Y268577D01*
X102414Y268686D01*
X102843Y268863D01*
X103239Y269106D01*
X103592Y269408D01*
X103894Y269761D01*
X104137Y270157D01*
X104314Y270586D01*
X104423Y271037D01*
X104450Y271500D01*
X104423Y271963D01*
X104314Y272414D01*
X104137Y272843D01*
X103894Y273239D01*
X103592Y273592D01*
X103239Y273894D01*
X102843Y274137D01*
X102414Y274314D01*
X101963Y274423D01*
X101500Y274459D01*
X101495Y274459D01*
Y278000D01*
G37*
G36*
X93000D02*X101495D01*
Y274459D01*
X101037Y274423D01*
X100586Y274314D01*
X100157Y274137D01*
X99761Y273894D01*
X99408Y273592D01*
X99106Y273239D01*
X98863Y272843D01*
X98686Y272414D01*
X98577Y271963D01*
X98541Y271500D01*
X98577Y271037D01*
X98686Y270586D01*
X98863Y270157D01*
X99106Y269761D01*
X99408Y269408D01*
X99761Y269106D01*
X100157Y268863D01*
X100586Y268686D01*
X101037Y268577D01*
X101495Y268541D01*
Y266459D01*
X101037Y266423D01*
X100586Y266314D01*
X100157Y266137D01*
X99761Y265894D01*
X99408Y265592D01*
X99106Y265239D01*
X98959Y265000D01*
X96097D01*
X96094Y266094D01*
X96072Y266186D01*
X96036Y266273D01*
X95987Y266354D01*
X95926Y266426D01*
X95854Y266487D01*
X95773Y266536D01*
X95686Y266572D01*
X95594Y266594D01*
X95500Y266600D01*
X93000Y266598D01*
Y268404D01*
X95594Y268406D01*
X95686Y268428D01*
X95773Y268464D01*
X95854Y268513D01*
X95926Y268574D01*
X95987Y268646D01*
X96036Y268727D01*
X96072Y268814D01*
X96094Y268906D01*
X96100Y269000D01*
X96094Y271094D01*
X96072Y271186D01*
X96036Y271273D01*
X95987Y271354D01*
X95926Y271426D01*
X95854Y271487D01*
X95773Y271536D01*
X95686Y271572D01*
X95594Y271594D01*
X95500Y271600D01*
X93000Y271598D01*
Y278000D01*
G37*
G54D12*X100000Y329000D02*X115500D01*
G54D13*X183000Y330500D02*X148500D01*
G54D14*X131000Y328500D02*Y332800D01*
Y337000D02*Y341000D01*
G54D12*X134900Y332800D02*Y329100D01*
X136500Y327500D01*
X127100Y341000D02*Y343600D01*
G54D14*X127000Y336500D02*Y332800D01*
G54D12*X136500Y327500D02*X229000D01*
X127100Y343600D02*X128000Y344500D01*
X137500D01*
X138500Y343500D01*
Y341500D01*
X189543Y343500D02*X202457D01*
X182457D02*X175500D01*
X209500Y336500D02*Y343500D01*
G54D13*X221000Y335531D02*X216531D01*
X221000Y331594D02*X228500D01*
G54D12*X229000Y327500D02*X231000Y329500D01*
X215969Y339469D02*X221000D01*
X231000Y329500D02*Y341500D01*
X229094Y343406D01*
X221000D01*
G54D13*X216531Y335531D02*X214000Y333000D01*
X196000D01*
G54D12*X213000Y336500D02*X215969Y339469D01*
G54D14*X131000Y293500D02*Y297800D01*
G54D12*X134900D02*Y294100D01*
X136500Y292500D01*
G54D13*X183000Y295500D02*X148500D01*
G54D14*X127000Y301500D02*Y297800D01*
G54D12*X136500Y292500D02*X229000D01*
X127100Y308600D02*X128000Y309500D01*
X137500D01*
X138500Y308500D01*
Y306500D01*
X189543Y308500D02*X202457D01*
X182457D02*X175500D01*
X209500Y301500D02*Y308500D01*
G54D13*X221000Y300531D02*X216531D01*
X221000Y296594D02*X228500D01*
G54D12*X229000Y292500D02*X231000Y294500D01*
X215969Y304469D02*X221000D01*
X231000Y294500D02*Y306500D01*
X229094Y308406D01*
X221000D01*
G54D13*X216531Y300531D02*X214000Y298000D01*
X196000D01*
G54D12*X213000Y301500D02*X215969Y304469D01*
X115500Y294000D02*X117500Y296000D01*
X118500Y299500D02*X120500Y297500D01*
Y295000D01*
X118000Y292500D01*
G54D14*X131000Y302000D02*Y306000D01*
G54D12*X127100D02*Y308600D01*
X118500Y299500D02*Y306000D01*
X117000Y307500D01*
X114000D01*
X109000Y297000D02*X114000D01*
X100000Y294000D02*X115500D01*
X118000Y292500D02*X97000D01*
X94500Y295000D01*
X100000Y294000D02*X94000Y300000D01*
X84000Y301000D02*X88000Y305000D01*
X85500Y292500D02*Y294500D01*
X86000Y295000D01*
X90000D01*
X84000Y296500D02*Y301000D01*
X70750Y305000D02*X76000D01*
X74000Y300000D02*X70750D01*
Y310000D02*X73500D01*
X76500Y297500D02*X74000Y300000D01*
X73500Y310000D02*X80500Y303000D01*
Y300500D01*
X76000Y305000D02*X77000Y304000D01*
Y300500D01*
X109000Y262000D02*X114000D01*
X100000Y259000D02*X115500D01*
X117500Y261000D01*
X118000Y257500D02*X97000D01*
X118500Y264500D02*Y271000D01*
X117000Y272500D01*
X114000D01*
X109000Y402000D02*X114000D01*
X100000Y399000D02*X115500D01*
X117500Y401000D01*
X118500Y404500D02*X120500Y402500D01*
Y400000D01*
X118000Y397500D02*X97000D01*
X120500Y400000D02*X118000Y397500D01*
G54D14*X131000Y407000D02*Y411000D01*
G54D12*X128000Y414500D02*X137500D01*
X138500Y413500D01*
Y411500D01*
G54D14*X127000Y406500D02*Y402800D01*
G54D12*X127100Y411000D02*Y413600D01*
X128000Y414500D01*
X118500Y404500D02*Y411000D01*
X117000Y412500D01*
X114000D01*
G54D14*X42500Y397500D02*X55500D01*
X57500Y399500D01*
Y404000D01*
G54D15*X69500Y400000D02*X66000D01*
X64000Y402000D01*
G54D12*X97000Y397500D02*X94500Y400000D01*
X100000Y399000D02*X94000Y405000D01*
X86000Y400000D02*X90000D01*
X85500Y397500D02*Y399500D01*
X84000Y401500D02*Y406000D01*
X88000Y410000D01*
X70750D02*X76000D01*
X74000Y405000D02*X70750D01*
Y415000D02*X73500D01*
X76500Y402500D02*X74000Y405000D01*
X73500Y415000D02*X80500Y408000D01*
Y405500D01*
X76000Y410000D02*X77000Y409000D01*
Y405500D01*
X85500Y399500D02*X86000Y400000D01*
X85500Y362500D02*Y364500D01*
X86000Y365000D01*
X118500Y369500D02*Y376000D01*
X118000Y362500D02*X97000D01*
X118500Y376000D02*X117000Y377500D01*
X114000D01*
X97000Y362500D02*X94500Y365000D01*
X100000Y364000D02*X94000Y370000D01*
X86000Y365000D02*X90000D01*
X84000Y366500D02*Y371000D01*
X88000Y375000D01*
G54D14*X131000Y398500D02*Y402800D01*
G54D12*X134900D02*Y399100D01*
X136500Y397500D01*
G54D13*X183000Y400500D02*X148500D01*
G54D12*X189543Y413500D02*X202457D01*
X182457D02*X175500D01*
G54D13*X221000Y405531D02*X216531D01*
G54D12*X213000Y406500D02*X215969Y409469D01*
X221000D01*
X209500Y406500D02*Y413500D01*
G54D13*X216531Y405531D02*X214000Y403000D01*
X196000D01*
X221000Y401594D02*X228500D01*
G54D12*X229000Y397500D02*X231000Y399500D01*
Y411500D01*
X229094Y413406D01*
X221000D01*
X136500Y397500D02*X229000D01*
X109000Y367000D02*X114000D01*
X115500Y364000D02*X117500Y366000D01*
X118500Y369500D02*X120500Y367500D01*
Y365000D01*
X118000Y362500D01*
X100000Y364000D02*X115500D01*
G54D13*X183000Y365500D02*X148500D01*
G54D14*X131000Y363500D02*Y367800D01*
Y372000D02*Y376000D01*
G54D12*X134900Y367800D02*Y364100D01*
X136500Y362500D01*
X127100Y376000D02*Y378600D01*
G54D14*X127000Y371500D02*Y367800D01*
G54D12*X136500Y362500D02*X229000D01*
X127100Y378600D02*X128000Y379500D01*
X137500D01*
X138500Y378500D01*
Y376500D01*
X189543Y378500D02*X202457D01*
X182457D02*X175500D01*
X209500Y371500D02*Y378500D01*
G54D13*X221000Y370531D02*X216531D01*
X221000Y366594D02*X228500D01*
G54D12*X229000Y362500D02*X231000Y364500D01*
X215969Y374469D02*X221000D01*
X231000Y364500D02*Y376500D01*
X229094Y378406D01*
X221000D01*
G54D13*X216531Y370531D02*X214000Y368000D01*
X196000D01*
G54D12*X213000Y371500D02*X215969Y374469D01*
G54D14*X42500Y362500D02*X55500D01*
X57500Y364500D01*
G54D15*X69500Y365000D02*X66000D01*
X64000Y367000D01*
G54D14*X57500Y364500D02*Y369000D01*
G54D12*X70750Y375000D02*X76000D01*
X76500Y367500D02*X74000Y370000D01*
X70750D01*
Y380000D02*X73500D01*
X77000Y374000D02*Y370500D01*
X73500Y380000D02*X80500Y373000D01*
X76000Y375000D02*X77000Y374000D01*
X80500Y373000D02*Y370500D01*
X109000Y332000D02*X114000D01*
X115500Y329000D02*X117500Y331000D01*
X118500Y334500D02*X120500Y332500D01*
Y330000D01*
X118000Y327500D01*
X97000D01*
X118500Y334500D02*Y341000D01*
X117000Y342500D01*
X114000D01*
X97000Y327500D02*X94500Y330000D01*
X100000Y329000D02*X94000Y335000D01*
X85500Y327500D02*Y329500D01*
X86000Y330000D01*
X90000D01*
X84000Y331500D02*Y336000D01*
X88000Y340000D01*
G54D14*X42500Y327500D02*X55500D01*
X57500Y329500D01*
Y334000D01*
G54D12*X76500Y332500D02*X74000Y335000D01*
G54D15*X69500Y330000D02*X66000D01*
X64000Y332000D01*
G54D12*X70750Y340000D02*X76000D01*
X74000Y335000D02*X70750D01*
X77000Y339000D02*Y335500D01*
X70750Y345000D02*X73500D01*
X80500Y338000D01*
X76000Y340000D02*X77000Y339000D01*
X80500Y338000D02*Y335500D01*
X118500Y264500D02*X120500Y262500D01*
Y260000D02*X118000Y257500D01*
G54D14*X131000Y258500D02*Y262800D01*
X127000Y266500D02*Y262800D01*
G54D12*X134900D02*Y259100D01*
X136500Y257500D01*
G54D14*X131000Y267000D02*Y271000D01*
G54D12*X127100D02*Y273600D01*
X128000Y274500D01*
X137500D01*
X138500Y273500D01*
Y271500D01*
X120500Y262500D02*Y260000D01*
G54D13*X183000Y260500D02*X148500D01*
G54D12*X136500Y257500D02*X229000D01*
X231000Y259500D01*
X189543Y273500D02*X202457D01*
X182457D02*X175500D01*
G54D13*X221000Y265531D02*X216531D01*
X221000Y261594D02*X228500D01*
G54D12*X231000Y259500D02*Y271500D01*
X229094Y273406D01*
X221000D01*
X215969Y269469D02*X221000D01*
G54D13*X216531Y265531D02*X214000Y263000D01*
G54D12*X213000Y266500D02*X215969Y269469D01*
X209500Y266500D02*Y273500D01*
G54D13*X214000Y263000D02*X196000D01*
X183000Y225500D02*X148500D01*
G54D12*X136500Y222500D02*X229000D01*
X231000Y224500D01*
X189543Y238500D02*X202457D01*
X182457D02*X175500D01*
G54D13*X214000Y228000D02*X196000D01*
G54D12*X209500Y231500D02*Y238500D01*
X118500Y229500D02*Y236000D01*
G54D13*X221000Y230531D02*X216531D01*
X214000Y228000D01*
X221000Y226594D02*X228500D01*
G54D12*X231000Y224500D02*Y236500D01*
X215969Y234469D02*X221000D01*
X231000Y236500D02*X229094Y238406D01*
X221000D01*
X213000Y231500D02*X215969Y234469D01*
G54D14*X42500Y292500D02*X55500D01*
X57500Y294500D01*
Y299000D01*
G54D15*X69500Y295000D02*X66000D01*
X64000Y297000D01*
G54D14*X55500Y257500D02*X57500Y259500D01*
Y264000D01*
G54D15*X66000Y260000D02*X64000Y262000D01*
G54D12*X97000Y257500D02*X94500Y260000D01*
X100000Y259000D02*X94000Y265000D01*
X85500Y257500D02*Y259500D01*
X86000Y260000D01*
X90000D01*
X84000Y261500D02*Y266000D01*
X88000Y270000D01*
X70750D02*X76000D01*
X74000Y265000D02*X70750D01*
Y275000D02*X73500D01*
X76500Y262500D02*X74000Y265000D01*
X73500Y275000D02*X80500Y268000D01*
Y265500D01*
X76000Y270000D02*X77000Y269000D01*
Y265500D01*
G54D14*X42500Y257500D02*X55500D01*
X57500Y224500D02*Y229000D01*
G54D15*X69500Y260000D02*X66000D01*
X69500Y225000D02*X66000D01*
X64000Y227000D01*
G54D12*X115500Y224000D02*X117500Y226000D01*
X118500Y229500D02*X120500Y227500D01*
Y225000D01*
X118000Y222500D01*
X118500Y236000D02*X117000Y237500D01*
X114000D01*
G54D14*X131000Y223500D02*Y227800D01*
Y232000D02*Y236000D01*
X127000Y231500D02*Y227800D01*
G54D12*X127100Y236000D02*Y238600D01*
X134900Y227800D02*Y224100D01*
X136500Y222500D01*
X127100Y238600D02*X128000Y239500D01*
X137500D01*
X138500Y238500D01*
Y236500D01*
X109000Y227000D02*X114000D01*
X100000Y224000D02*X115500D01*
X118000Y222500D02*X97000D01*
X94500Y225000D01*
X100000Y224000D02*X94000Y230000D01*
X85500Y222500D02*Y224500D01*
X86000Y225000D01*
X90000D01*
X84000Y226500D02*Y231000D01*
X88000Y235000D01*
X70750D02*X76000D01*
X74000Y230000D02*X70750D01*
Y240000D02*X73500D01*
X76500Y227500D02*X74000Y230000D01*
X73500Y240000D02*X80500Y233000D01*
Y230500D01*
X76000Y235000D02*X77000Y234000D01*
Y230500D01*
X109000Y192000D02*X114000D01*
X100000Y189000D02*X115500D01*
X118000Y187500D02*X97000D01*
X115500Y189000D02*X117500Y191000D01*
X118500Y194500D02*X120500Y192500D01*
Y190000D01*
X118000Y187500D01*
G54D14*X131000Y188500D02*Y192800D01*
Y197000D02*Y201000D01*
X127000Y196500D02*Y192800D01*
G54D12*X127100Y201000D02*Y203600D01*
X134900Y192800D02*Y189100D01*
X136500Y187500D01*
X118500Y194500D02*Y201000D01*
X117000Y202500D01*
X114000D01*
G54D14*X42500Y222500D02*X55500D01*
X57500Y224500D01*
G54D12*X97000Y187500D02*X94500Y190000D01*
X85500Y187500D02*Y189500D01*
X86000Y190000D01*
X90000D01*
X84000Y191500D02*Y196000D01*
X88000Y200000D01*
X100000Y189000D02*X94000Y195000D01*
G54D15*X69500Y190000D02*X66000D01*
X64000Y192000D01*
G54D12*X74000Y195000D02*X70750D01*
Y200000D02*X76000D01*
X70750Y205000D02*X73500D01*
X76500Y192500D02*X74000Y195000D01*
X73500Y205000D02*X80500Y198000D01*
Y195500D01*
X76000Y200000D02*X77000Y199000D01*
Y195500D01*
G54D14*X42500Y187500D02*X55500D01*
X57500Y189500D01*
Y194000D01*
X42500Y152500D02*X55500D01*
X57500Y154500D01*
Y159000D01*
G54D15*X69500Y155000D02*X66000D01*
X64000Y157000D01*
G54D12*X70750Y170000D02*X73500D01*
X97000Y152500D02*X94500Y155000D01*
X100000Y154000D02*X94000Y160000D01*
X85500Y152500D02*Y154500D01*
X86000Y155000D01*
X90000D01*
X84000Y156500D02*Y161000D01*
X88000Y165000D01*
X70750D02*X76000D01*
X76500Y157500D02*X74000Y160000D01*
X70750D01*
X73500Y170000D02*X80500Y163000D01*
Y160500D01*
X76000Y165000D02*X77000Y164000D01*
Y160500D01*
X127100Y203600D02*X128000Y204500D01*
X137500D01*
X138500Y203500D01*
Y201500D01*
X189543Y203500D02*X202457D01*
X182457D02*X175500D01*
G54D13*X183000Y190500D02*X148500D01*
X221000Y195531D02*X216531D01*
X214000Y193000D02*X196000D01*
G54D12*X136500Y187500D02*X229000D01*
X231000Y189500D02*Y201500D01*
X229094Y203406D01*
X221000D01*
X213000Y196500D02*X215969Y199469D01*
X221000D01*
X209500Y196500D02*Y203500D01*
X229000Y187500D02*X231000Y189500D01*
G54D13*X216531Y195531D02*X214000Y193000D01*
X221000Y191594D02*X228500D01*
X214000Y158000D02*X196000D01*
X221000Y156594D02*X228500D01*
G54D12*X229000Y152500D02*X231000Y154500D01*
Y166500D01*
X229094Y168406D01*
G54D13*X221000Y160531D02*X216531D01*
X214000Y158000D01*
G54D12*X229094Y168406D02*X221000D01*
X213000Y161500D02*X215969Y164469D01*
X221000D01*
X209500Y161500D02*Y168500D01*
G54D13*X183000Y155500D02*X148500D01*
G54D12*X189543Y168500D02*X202457D01*
X182457D02*X175500D01*
X136500Y152500D02*X229000D01*
X115500Y154000D02*X117500Y156000D01*
X120500Y155000D02*X118000Y152500D01*
X118500Y159500D02*X120500Y157500D01*
X118500Y159500D02*Y166000D01*
X117000Y167500D01*
X114000D01*
X120500Y157500D02*Y155000D01*
G54D14*X131000Y153500D02*Y157800D01*
X127000Y161500D02*Y157800D01*
G54D12*X134900D02*Y154100D01*
X136500Y152500D01*
G54D14*X131000Y162000D02*Y166000D01*
G54D12*X127100D02*Y168600D01*
X128000Y169500D01*
X137500D01*
X138500Y168500D01*
Y166500D01*
X109000Y157000D02*X114000D01*
X100000Y154000D02*X115500D01*
X118000Y152500D02*X97000D01*
X115500Y119000D02*X117500Y121000D01*
X118500Y124500D02*X120500Y122500D01*
Y120000D01*
X118000Y117500D01*
X118500Y124500D02*Y131000D01*
X117000Y132500D01*
X114000D01*
G54D14*X131000Y118500D02*Y122800D01*
Y127000D02*Y131000D01*
X127000Y126500D02*Y122800D01*
G54D12*X127100Y131000D02*Y133600D01*
X134900Y122800D02*Y119100D01*
X136500Y117500D01*
X127100Y133600D02*X128000Y134500D01*
X137500D01*
X138500Y133500D01*
Y131500D01*
X109000Y122000D02*X114000D01*
X100000Y119000D02*X115500D01*
X118000Y117500D02*X97000D01*
X94500Y120000D01*
X100000Y119000D02*X94000Y125000D01*
X85500Y117500D02*Y119500D01*
X86000Y120000D01*
X90000D01*
X84000Y121500D02*Y126000D01*
X88000Y130000D01*
G54D14*X42500Y117500D02*X55500D01*
X42500Y82500D02*X55500D01*
X57500Y84500D01*
Y89000D01*
G54D15*X69500Y85000D02*X66000D01*
X64000Y87000D01*
G54D12*X70750Y135000D02*X73500D01*
X80500Y128000D01*
X76000Y130000D02*X77000Y129000D01*
X80500Y128000D02*Y125500D01*
G54D14*X55500Y117500D02*X57500Y119500D01*
Y124000D01*
G54D15*X69500Y120000D02*X66000D01*
X64000Y122000D01*
G54D12*X70750Y130000D02*X76000D01*
X76500Y122500D02*X74000Y125000D01*
X70750D01*
X77000Y129000D02*Y125500D01*
X70750Y95000D02*X76000D01*
X74000Y90000D02*X70750D01*
Y100000D02*X73500D01*
X76500Y87500D02*X74000Y90000D01*
X73500Y100000D02*X80500Y93000D01*
Y90500D01*
X76000Y95000D02*X77000Y94000D01*
Y90500D01*
G54D14*X42500Y47500D02*X55500D01*
X57500Y49500D01*
G54D15*X69500Y50000D02*X66000D01*
X64000Y52000D01*
G54D14*X57500Y49500D02*Y54000D01*
G54D12*X70750Y60000D02*X76000D01*
X76500Y52500D02*X74000Y55000D01*
X70750D01*
Y65000D02*X73500D01*
X77000Y59000D02*Y55500D01*
X73500Y65000D02*X80500Y58000D01*
X76000Y60000D02*X77000Y59000D01*
X80500Y58000D02*Y55500D01*
G54D14*X42500Y12500D02*X55500D01*
X57500Y14500D01*
Y19000D01*
G54D12*X76500Y17500D02*X74000Y20000D01*
G54D15*X69500Y15000D02*X66000D01*
X64000Y17000D01*
G54D12*X70750Y25000D02*X76000D01*
X74000Y20000D02*X70750D01*
X77000Y24000D02*Y20500D01*
X70750Y30000D02*X73500D01*
X80500Y23000D01*
X76000Y25000D02*X77000Y24000D01*
X80500Y23000D02*Y20500D01*
G54D13*X183000Y120500D02*X148500D01*
G54D12*X136500Y117500D02*X229000D01*
X231000Y119500D01*
X182457Y133500D02*X175500D01*
G54D13*X183000Y85500D02*X148500D01*
G54D12*X182457Y98500D02*X175500D01*
G54D13*X183000Y50500D02*X148500D01*
G54D12*X182457Y63500D02*X175500D01*
X136500Y82500D02*X229000D01*
X231000Y61500D02*X229094Y63406D01*
X221000D01*
X213000Y56500D02*X215969Y59469D01*
X221000D01*
X209500Y56500D02*Y63500D01*
X189543Y133500D02*X202457D01*
X189543Y98500D02*X202457D01*
G54D13*X221000Y125531D02*X216531D01*
X214000Y123000D01*
X196000D01*
X221000Y121594D02*X228500D01*
G54D12*X231000Y119500D02*Y131500D01*
X229094Y133406D01*
X221000D01*
X213000Y126500D02*X215969Y129469D01*
X221000D01*
X209500Y126500D02*Y133500D01*
G54D13*X221000Y90531D02*X216531D01*
X214000Y88000D01*
X196000D01*
X221000Y86594D02*X228500D01*
G54D12*X229000Y82500D02*X231000Y84500D01*
G54D13*X221000Y55531D02*X216531D01*
X214000Y53000D01*
X221000Y51594D02*X228500D01*
G54D12*X231000Y84500D02*Y96500D01*
X229094Y98406D01*
X221000D01*
X213000Y91500D02*X215969Y94469D01*
X221000D01*
X209500Y91500D02*Y98500D01*
X229000Y47500D02*X231000Y49500D01*
Y61500D01*
X189543Y63500D02*X202457D01*
G54D13*X214000Y53000D02*X196000D01*
G54D12*X136500Y47500D02*X229000D01*
G54D13*X183000Y15500D02*X148500D01*
G54D12*X182457Y28500D02*X175500D01*
X136500Y12500D02*X229000D01*
X209500Y21500D02*Y28500D01*
G54D13*X221000Y16594D02*X228500D01*
G54D12*X229000Y12500D02*X231000Y14500D01*
Y26500D01*
X229094Y28406D01*
X189543Y28500D02*X202457D01*
G54D13*X214000Y18000D02*X196000D01*
X221000Y20531D02*X216531D01*
X214000Y18000D01*
G54D12*X229094Y28406D02*X221000D01*
X213000Y21500D02*X215969Y24469D01*
X221000D01*
G54D14*X131000Y83500D02*Y87800D01*
X127000Y91500D02*Y87800D01*
G54D12*X134900D02*Y84100D01*
X136500Y82500D01*
G54D14*X131000Y92000D02*Y96000D01*
G54D12*X127100D02*Y98600D01*
X128000Y99500D01*
X137500D01*
X138500Y98500D01*
Y96500D01*
X127100Y61000D02*Y63600D01*
X128000Y64500D01*
X137500D01*
X138500Y63500D01*
Y61500D01*
X115500Y84000D02*X117500Y86000D01*
X118500Y89500D02*X120500Y87500D01*
Y85000D01*
X118000Y82500D01*
X118500Y89500D02*Y96000D01*
X117000Y97500D01*
X114000D01*
X109000Y87000D02*X114000D01*
X100000Y84000D02*X115500D01*
X118000Y82500D02*X97000D01*
X85500D02*Y84500D01*
X86000Y85000D01*
X90000D01*
X97000Y82500D02*X94500Y85000D01*
X100000Y84000D02*X94000Y90000D01*
X84000Y86500D02*Y91000D01*
X88000Y95000D01*
X109000Y52000D02*X114000D01*
X100000Y49000D02*X115500D01*
X117500Y51000D01*
X118000Y47500D02*X97000D01*
X118500Y54500D02*X120500Y52500D01*
X118500Y54500D02*Y61000D01*
X117000Y62500D01*
X114000D01*
X120500Y52500D02*Y50000D01*
X118000Y47500D01*
X97000D02*X94500Y50000D01*
X100000Y49000D02*X94000Y55000D01*
X85500Y47500D02*Y49500D01*
X86000Y50000D01*
X90000D01*
X84000Y51500D02*Y56000D01*
X88000Y60000D01*
G54D14*X131000Y48500D02*Y52800D01*
G54D12*X134900D02*Y49100D01*
X136500Y47500D01*
G54D14*X131000Y57000D02*Y61000D01*
Y13500D02*Y17800D01*
Y22000D02*Y26000D01*
X127000Y56500D02*Y52800D01*
Y21500D02*Y17800D01*
G54D12*X127100Y26000D02*Y28600D01*
X128000Y29500D01*
X137500D01*
X138500Y28500D01*
Y26500D01*
X134900Y17800D02*Y14100D01*
X136500Y12500D01*
X109000Y17000D02*X114000D01*
X115500Y14000D02*X117500Y16000D01*
X120500Y17500D02*Y15000D01*
X118000Y12500D01*
X100000Y14000D02*X115500D01*
X118500Y19500D02*X120500Y17500D01*
X118500Y19500D02*Y26000D01*
X117000Y27500D01*
X114000D01*
X118000Y12500D02*X97000D01*
X94500Y15000D01*
X100000Y14000D02*X94000Y20000D01*
X85500Y12500D02*Y14500D01*
X86000Y15000D01*
X90000D01*
X84000Y16500D02*Y21000D01*
X88000Y25000D01*
G54D16*X31419Y330000D02*X33337D01*
X31419Y335000D02*X33337D01*
G54D17*X42457Y332393D02*Y331607D01*
Y343393D02*Y342607D01*
G54D16*X31419Y340000D02*X33337D01*
X31419Y345000D02*X33337D01*
G54D17*X58607Y333957D02*X59393D01*
X58607Y341043D02*X59393D01*
X49543Y332393D02*Y331607D01*
Y343393D02*Y342607D01*
G54D18*X67500Y345000D02*X74000D01*
X67500Y340000D02*X74000D01*
X67500Y335000D02*X74000D01*
X67500Y330000D02*X74000D01*
G54D16*X31419Y295000D02*X33337D01*
X31419Y300000D02*X33337D01*
G54D17*X42457Y297393D02*Y296607D01*
Y308393D02*Y307607D01*
G54D16*X31419Y305000D02*X33337D01*
X31419Y310000D02*X33337D01*
G54D17*X58607Y298957D02*X59393D01*
X58607Y306043D02*X59393D01*
X49543Y297393D02*Y296607D01*
Y308393D02*Y307607D01*
G54D18*X67500Y310000D02*X74000D01*
X67500Y305000D02*X74000D01*
X67500Y300000D02*X74000D01*
X67500Y295000D02*X74000D01*
G54D19*X127100Y333600D02*Y332000D01*
X131000Y333600D02*Y332000D01*
X134900Y333600D02*Y332000D01*
Y341800D02*Y340200D01*
X131000Y341800D02*Y340200D01*
X127100Y341800D02*Y340200D01*
X134900Y306800D02*Y305200D01*
Y298600D02*Y297000D01*
X131000Y306800D02*Y305200D01*
X127100Y306800D02*Y305200D01*
Y298600D02*Y297000D01*
X131000Y298600D02*Y297000D01*
G54D18*X88000Y295000D02*X94500D01*
X88000Y300000D02*X94500D01*
X88000Y305000D02*X94500D01*
X88000Y310000D02*X94500D01*
G54D16*X31419Y260000D02*X33337D01*
X31419Y265000D02*X33337D01*
G54D17*X42457Y262393D02*Y261607D01*
Y273393D02*Y272607D01*
G54D16*X31419Y270000D02*X33337D01*
X31419Y275000D02*X33337D01*
G54D17*X58607Y263957D02*X59393D01*
X58607Y271043D02*X59393D01*
X49543Y262393D02*Y261607D01*
Y273393D02*Y272607D01*
G54D18*X67500Y275000D02*X74000D01*
X67500Y270000D02*X74000D01*
X67500Y265000D02*X74000D01*
X67500Y260000D02*X74000D01*
G54D16*X31419Y225000D02*X33337D01*
X31419Y230000D02*X33337D01*
G54D17*X42457Y227393D02*Y226607D01*
Y238393D02*Y237607D01*
G54D16*X31419Y235000D02*X33337D01*
X31419Y240000D02*X33337D01*
G54D17*X58607Y228957D02*X59393D01*
X58607Y236043D02*X59393D01*
X49543Y227393D02*Y226607D01*
Y238393D02*Y237607D01*
G54D18*X67500Y240000D02*X74000D01*
X67500Y235000D02*X74000D01*
X67500Y230000D02*X74000D01*
X67500Y225000D02*X74000D01*
G54D16*X31419Y400000D02*X33337D01*
X31419Y405000D02*X33337D01*
X31419Y410000D02*X33337D01*
X31419Y415000D02*X33337D01*
G54D17*X42457Y413393D02*Y412607D01*
X49543Y413393D02*Y412607D01*
X42457Y402393D02*Y401607D01*
X49543Y402393D02*Y401607D01*
X58607Y403957D02*X59393D01*
X58607Y411043D02*X59393D01*
G54D18*X67500Y415000D02*X74000D01*
X67500Y410000D02*X74000D01*
X67500Y405000D02*X74000D01*
X67500Y400000D02*X74000D01*
G54D16*X31419Y365000D02*X33337D01*
X31419Y370000D02*X33337D01*
G54D17*X42457Y367393D02*Y366607D01*
Y378393D02*Y377607D01*
G54D16*X31419Y375000D02*X33337D01*
X31419Y380000D02*X33337D01*
G54D17*X58607Y368957D02*X59393D01*
X58607Y376043D02*X59393D01*
X49543Y367393D02*Y366607D01*
Y378393D02*Y377607D01*
G54D18*X67500Y380000D02*X74000D01*
X67500Y375000D02*X74000D01*
X67500Y370000D02*X74000D01*
X67500Y365000D02*X74000D01*
G54D20*X196000Y404000D02*Y402000D01*
X183000Y404000D02*Y402000D01*
G54D17*X182457Y413893D02*Y413107D01*
X189543Y413893D02*Y413107D01*
G54D20*X196000Y369000D02*Y367000D01*
X183000Y369000D02*Y367000D01*
G54D17*X189543Y378893D02*Y378107D01*
X182457Y378893D02*Y378107D01*
G54D20*X196000Y334000D02*Y332000D01*
Y299000D02*Y297000D01*
G54D17*X202457Y308893D02*Y308107D01*
X209543Y308893D02*Y308107D01*
G54D20*X183000Y334000D02*Y332000D01*
G54D17*X182457Y343893D02*Y343107D01*
X189543Y343893D02*Y343107D01*
G54D20*X183000Y299000D02*Y297000D01*
G54D17*X182457Y308893D02*Y308107D01*
X189543Y308893D02*Y308107D01*
G54D21*X156016Y413406D02*X160110D01*
X156016Y407500D02*X167826D01*
G54D22*X169560D02*X171450D01*
G54D11*G36*
X161995Y409385D02*X164835Y412225D01*
X166255Y410805D01*
X163415Y407965D01*
X161995Y409385D01*
G37*
G36*
X163415Y407035D02*X166255Y404195D01*
X164835Y402775D01*
X161995Y405615D01*
X163415Y407035D01*
G37*
G54D21*X156016Y401594D02*X160110D01*
G54D17*X149043Y402393D02*Y401607D01*
X141957Y402393D02*Y401607D01*
X149043Y297393D02*Y296607D01*
X141957Y297393D02*Y296607D01*
G54D23*X219130Y401594D02*X222870D01*
X219130Y405531D02*X222870D01*
X219130Y409469D02*X222870D01*
X219130Y413406D02*X222870D01*
G54D24*X234632Y396919D02*X237880D01*
X234632Y418081D02*X237880D01*
G54D17*X202457Y413893D02*Y413107D01*
X209543Y413893D02*Y413107D01*
G54D23*X219130Y366594D02*X222870D01*
X219130Y370531D02*X222870D01*
G54D24*X234632Y361919D02*X237880D01*
G54D23*X219130Y374469D02*X222870D01*
G54D17*X202457Y378893D02*Y378107D01*
X209543Y378893D02*Y378107D01*
G54D23*X219130Y378406D02*X222870D01*
G54D24*X234632Y383081D02*X237880D01*
X234632Y348081D02*X237880D01*
G54D18*X88000Y415000D02*X94500D01*
G54D19*X134900Y411800D02*Y410200D01*
X131000Y411800D02*Y410200D01*
X127100Y411800D02*Y410200D01*
Y403600D02*Y402000D01*
G54D18*X88000Y400000D02*X94500D01*
X88000Y405000D02*X94500D01*
G54D19*X131000Y403600D02*Y402000D01*
X134900Y403600D02*Y402000D01*
G54D18*X88000Y410000D02*X94500D01*
X88000Y380000D02*X94500D01*
G54D19*X134900Y376800D02*Y375200D01*
X131000Y376800D02*Y375200D01*
X127100Y376800D02*Y375200D01*
Y368600D02*Y367000D01*
G54D18*X88000Y365000D02*X94500D01*
X88000Y370000D02*X94500D01*
G54D19*X131000Y368600D02*Y367000D01*
X134900Y368600D02*Y367000D01*
G54D18*X88000Y375000D02*X94500D01*
X88000Y330000D02*X94500D01*
X88000Y335000D02*X94500D01*
X88000Y340000D02*X94500D01*
X88000Y345000D02*X94500D01*
G54D21*X156016Y378406D02*X160110D01*
X156016Y372500D02*X167826D01*
X156016Y366594D02*X160110D01*
G54D17*X149043Y367393D02*Y366607D01*
X141957Y367393D02*Y366607D01*
G54D22*X169560Y372500D02*X171450D01*
G54D11*G36*
X161995Y374385D02*X164835Y377225D01*
X166255Y375805D01*
X163415Y372965D01*
X161995Y374385D01*
G37*
G36*
X163415Y372035D02*X166255Y369195D01*
X164835Y367775D01*
X161995Y370615D01*
X163415Y372035D01*
G37*
G54D23*X219130Y331594D02*X222870D01*
X219130Y335531D02*X222870D01*
X219130Y339469D02*X222870D01*
X219130Y343406D02*X222870D01*
G54D17*X202457Y343893D02*Y343107D01*
X209543Y343893D02*Y343107D01*
G54D24*X234632Y326919D02*X237880D01*
X234632Y313081D02*X237880D01*
G54D23*X219130Y296594D02*X222870D01*
X219130Y300531D02*X222870D01*
X219130Y304469D02*X222870D01*
X219130Y308406D02*X222870D01*
G54D24*X234632Y291919D02*X237880D01*
G54D21*X156016Y343406D02*X160110D01*
X156016Y337500D02*X167826D01*
G54D22*X169560D02*X171450D01*
G54D11*G36*
X161995Y339385D02*X164835Y342225D01*
X166255Y340805D01*
X163415Y337965D01*
X161995Y339385D01*
G37*
G36*
X163415Y337035D02*X166255Y334195D01*
X164835Y332775D01*
X161995Y335615D01*
X163415Y337035D01*
G37*
G54D21*X156016Y331594D02*X160110D01*
G54D17*X149043Y332393D02*Y331607D01*
X141957Y332393D02*Y331607D01*
G54D21*X156016Y308406D02*X160110D01*
X156016Y302500D02*X167826D01*
G54D22*X169560D02*X171450D01*
G54D11*G36*
X161995Y304385D02*X164835Y307225D01*
X166255Y305805D01*
X163415Y302965D01*
X161995Y304385D01*
G37*
G36*
X163415Y302035D02*X166255Y299195D01*
X164835Y297775D01*
X161995Y300615D01*
X163415Y302035D01*
G37*
G54D21*X156016Y296594D02*X160110D01*
G54D20*X196000Y264000D02*Y262000D01*
G54D17*X202457Y273893D02*Y273107D01*
X209543Y273893D02*Y273107D01*
G54D20*X183000Y264000D02*Y262000D01*
G54D17*X182457Y273893D02*Y273107D01*
X189543Y273893D02*Y273107D01*
X182457Y238893D02*Y238107D01*
X189543Y238893D02*Y238107D01*
G54D23*X219130Y261594D02*X222870D01*
X219130Y265531D02*X222870D01*
X219130Y269469D02*X222870D01*
X219130Y273406D02*X222870D01*
G54D24*X234632Y256919D02*X237880D01*
X234632Y278081D02*X237880D01*
G54D21*X156016Y273406D02*X160110D01*
X156016Y267500D02*X167826D01*
G54D22*X169560D02*X171450D01*
G54D11*G36*
X161995Y269385D02*X164835Y272225D01*
X166255Y270805D01*
X163415Y267965D01*
X161995Y269385D01*
G37*
G36*
X163415Y267035D02*X166255Y264195D01*
X164835Y262775D01*
X161995Y265615D01*
X163415Y267035D01*
G37*
G54D21*X156016Y261594D02*X160110D01*
G54D17*X149043Y262393D02*Y261607D01*
X141957Y262393D02*Y261607D01*
G54D20*X196000Y229000D02*Y227000D01*
G54D23*X219130Y226594D02*X222870D01*
X219130Y230531D02*X222870D01*
X219130Y234469D02*X222870D01*
X219130Y238406D02*X222870D01*
G54D17*X202457Y238893D02*Y238107D01*
X209543Y238893D02*Y238107D01*
G54D24*X234632Y221919D02*X237880D01*
X234632Y243081D02*X237880D01*
X234632Y208081D02*X237880D01*
G54D20*X183000Y229000D02*Y227000D01*
G54D17*X182457Y203893D02*Y203107D01*
X189543Y203893D02*Y203107D01*
G54D19*X127100Y263600D02*Y262000D01*
X131000Y263600D02*Y262000D01*
X134900Y263600D02*Y262000D01*
Y271800D02*Y270200D01*
X131000Y271800D02*Y270200D01*
X127100Y271800D02*Y270200D01*
G54D18*X88000Y260000D02*X94500D01*
X88000Y265000D02*X94500D01*
X88000Y270000D02*X94500D01*
X88000Y275000D02*X94500D01*
X88000Y225000D02*X94500D01*
X88000Y230000D02*X94500D01*
X88000Y235000D02*X94500D01*
X88000Y240000D02*X94500D01*
G54D19*X134900Y236800D02*Y235200D01*
Y228600D02*Y227000D01*
X131000Y236800D02*Y235200D01*
Y228600D02*Y227000D01*
X127100Y236800D02*Y235200D01*
Y228600D02*Y227000D01*
X134900Y201800D02*Y200200D01*
Y193600D02*Y192000D01*
X131000Y201800D02*Y200200D01*
X127100Y201800D02*Y200200D01*
Y193600D02*Y192000D01*
X131000Y193600D02*Y192000D01*
G54D18*X88000Y190000D02*X94500D01*
X88000Y195000D02*X94500D01*
X88000Y200000D02*X94500D01*
X88000Y205000D02*X94500D01*
G54D21*X156016Y238406D02*X160110D01*
X156016Y232500D02*X167826D01*
G54D22*X169560D02*X171450D01*
G54D11*G36*
X161995Y234385D02*X164835Y237225D01*
X166255Y235805D01*
X163415Y232965D01*
X161995Y234385D01*
G37*
G36*
X163415Y232035D02*X166255Y229195D01*
X164835Y227775D01*
X161995Y230615D01*
X163415Y232035D01*
G37*
G54D21*X156016Y226594D02*X160110D01*
G54D17*X149043Y227393D02*Y226607D01*
X141957Y227393D02*Y226607D01*
G54D23*X219130Y191594D02*X222870D01*
G54D24*X234632Y186919D02*X237880D01*
G54D23*X219130Y195531D02*X222870D01*
X219130Y199469D02*X222870D01*
X219130Y203406D02*X222870D01*
G54D17*X202457Y203893D02*Y203107D01*
X209543Y203893D02*Y203107D01*
G54D23*X219130Y160531D02*X222870D01*
X219130Y164469D02*X222870D01*
X219130Y168406D02*X222870D01*
G54D24*X234632Y173081D02*X237880D01*
G54D17*X202457Y168893D02*Y168107D01*
X209543Y168893D02*Y168107D01*
G54D21*X156016Y203406D02*X160110D01*
X156016Y197500D02*X167826D01*
G54D22*X169560D02*X171450D01*
G54D11*G36*
X161995Y199385D02*X164835Y202225D01*
X166255Y200805D01*
X163415Y197965D01*
X161995Y199385D01*
G37*
G36*
X163415Y197035D02*X166255Y194195D01*
X164835Y192775D01*
X161995Y195615D01*
X163415Y197035D01*
G37*
G54D21*X156016Y191594D02*X160110D01*
G54D17*X149043Y192393D02*Y191607D01*
X141957Y192393D02*Y191607D01*
G54D20*X196000Y194000D02*Y192000D01*
X183000Y194000D02*Y192000D01*
G54D17*X182457Y168893D02*Y168107D01*
X189543Y168893D02*Y168107D01*
G54D20*X196000Y159000D02*Y157000D01*
X183000Y159000D02*Y157000D01*
X196000Y124000D02*Y122000D01*
X183000Y124000D02*Y122000D01*
G54D17*X189543Y133893D02*Y133107D01*
X182457Y133893D02*Y133107D01*
G54D21*X156016Y168406D02*X160110D01*
X156016Y162500D02*X167826D01*
G54D22*X169560D02*X171450D01*
G54D11*G36*
X161995Y164385D02*X164835Y167225D01*
X166255Y165805D01*
X163415Y162965D01*
X161995Y164385D01*
G37*
G36*
X163415Y162035D02*X166255Y159195D01*
X164835Y157775D01*
X161995Y160615D01*
X163415Y162035D01*
G37*
G54D21*X156016Y156594D02*X160110D01*
G54D17*X149043Y157393D02*Y156607D01*
X141957Y157393D02*Y156607D01*
G54D23*X219130Y156594D02*X222870D01*
G54D24*X234632Y151919D02*X237880D01*
G54D23*X219130Y121594D02*X222870D01*
X219130Y125531D02*X222870D01*
G54D24*X234632Y116919D02*X237880D01*
G54D23*X219130Y129469D02*X222870D01*
X219130Y133406D02*X222870D01*
G54D24*X234632Y138081D02*X237880D01*
G54D17*X202457Y133893D02*Y133107D01*
X209543Y133893D02*Y133107D01*
G54D21*X156016Y133406D02*X160110D01*
X156016Y127500D02*X167826D01*
G54D22*X169560D02*X171450D01*
G54D11*G36*
X161995Y129385D02*X164835Y132225D01*
X166255Y130805D01*
X163415Y127965D01*
X161995Y129385D01*
G37*
G36*
X163415Y127035D02*X166255Y124195D01*
X164835Y122775D01*
X161995Y125615D01*
X163415Y127035D01*
G37*
G54D21*X156016Y121594D02*X160110D01*
G54D17*X149043Y122393D02*Y121607D01*
X141957Y122393D02*Y121607D01*
G54D21*X156016Y98406D02*X160110D01*
X156016Y92500D02*X167826D01*
G54D22*X169560D02*X171450D01*
G54D11*G36*
X161995Y94385D02*X164835Y97225D01*
X166255Y95805D01*
X163415Y92965D01*
X161995Y94385D01*
G37*
G36*
X163415Y92035D02*X166255Y89195D01*
X164835Y87775D01*
X161995Y90615D01*
X163415Y92035D01*
G37*
G54D21*X156016Y86594D02*X160110D01*
G54D20*X196000Y89000D02*Y87000D01*
Y54000D02*Y52000D01*
G54D17*X189543Y63893D02*Y63107D01*
X202457Y63893D02*Y63107D01*
X209543Y63893D02*Y63107D01*
G54D20*X183000Y89000D02*Y87000D01*
Y54000D02*Y52000D01*
G54D17*X182457Y63893D02*Y63107D01*
G54D20*X183000Y19000D02*Y17000D01*
G54D17*X182457Y28893D02*Y28107D01*
Y98893D02*Y98107D01*
X189543Y98893D02*Y98107D01*
G54D20*X196000Y19000D02*Y17000D01*
G54D23*X219130Y16594D02*X222870D01*
X219130Y20531D02*X222870D01*
G54D24*X234632Y11919D02*X237880D01*
G54D23*X219130Y24469D02*X222870D01*
G54D17*X189543Y28893D02*Y28107D01*
X202457Y28893D02*Y28107D01*
X209543Y28893D02*Y28107D01*
G54D23*X219130Y28406D02*X222870D01*
G54D24*X234632Y33081D02*X237880D01*
G54D21*X156016Y51594D02*X160110D01*
G54D17*X149043Y52393D02*Y51607D01*
X141957Y52393D02*Y51607D01*
G54D21*X156016Y28406D02*X160110D01*
X156016Y22500D02*X167826D01*
G54D22*X169560D02*X171450D01*
G54D11*G36*
X161995Y24385D02*X164835Y27225D01*
X166255Y25805D01*
X163415Y22965D01*
X161995Y24385D01*
G37*
G36*
X163415Y22035D02*X166255Y19195D01*
X164835Y17775D01*
X161995Y20615D01*
X163415Y22035D01*
G37*
G54D21*X156016Y16594D02*X160110D01*
G54D17*X149043Y17393D02*Y16607D01*
X141957Y17393D02*Y16607D01*
G54D23*X219130Y86594D02*X222870D01*
G54D24*X234632Y81919D02*X237880D01*
G54D23*X219130Y90531D02*X222870D01*
X219130Y94469D02*X222870D01*
X219130Y98406D02*X222870D01*
G54D24*X234632Y103081D02*X237880D01*
G54D17*X202457Y98893D02*Y98107D01*
X209543Y98893D02*Y98107D01*
G54D23*X219130Y51594D02*X222870D01*
X219130Y55531D02*X222870D01*
X219130Y59469D02*X222870D01*
X219130Y63406D02*X222870D01*
G54D24*X234632Y46919D02*X237880D01*
X234632Y68081D02*X237880D01*
G54D17*X149043Y87393D02*Y86607D01*
X141957Y87393D02*Y86607D01*
G54D19*X127100Y61800D02*Y60200D01*
Y53600D02*Y52000D01*
Y18600D02*Y17000D01*
X131000Y18600D02*Y17000D01*
X134900Y18600D02*Y17000D01*
Y26800D02*Y25200D01*
X131000Y26800D02*Y25200D01*
X127100Y26800D02*Y25200D01*
G54D18*X88000Y15000D02*X94500D01*
X88000Y20000D02*X94500D01*
X88000Y25000D02*X94500D01*
X88000Y30000D02*X94500D01*
G54D19*X134900Y61800D02*Y60200D01*
Y53600D02*Y52000D01*
X131000Y61800D02*Y60200D01*
Y53600D02*Y52000D01*
G54D21*X156016Y63406D02*X160110D01*
X156016Y57500D02*X167826D01*
G54D22*X169560D02*X171450D01*
G54D11*G36*
X161995Y59385D02*X164835Y62225D01*
X166255Y60805D01*
X163415Y57965D01*
X161995Y59385D01*
G37*
G36*
X163415Y57035D02*X166255Y54195D01*
X164835Y52775D01*
X161995Y55615D01*
X163415Y57035D01*
G37*
G54D18*X88000Y50000D02*X94500D01*
X88000Y55000D02*X94500D01*
X88000Y60000D02*X94500D01*
X88000Y65000D02*X94500D01*
G54D16*X31419Y190000D02*X33337D01*
X31419Y195000D02*X33337D01*
G54D17*X42457Y192393D02*Y191607D01*
Y203393D02*Y202607D01*
G54D16*X31419Y200000D02*X33337D01*
X31419Y205000D02*X33337D01*
G54D17*X58607Y193957D02*X59393D01*
X58607Y201043D02*X59393D01*
X49543Y192393D02*Y191607D01*
Y203393D02*Y202607D01*
G54D18*X67500Y205000D02*X74000D01*
X67500Y200000D02*X74000D01*
X67500Y195000D02*X74000D01*
X67500Y190000D02*X74000D01*
G54D16*X31419Y155000D02*X33337D01*
X31419Y160000D02*X33337D01*
G54D17*X42457Y157393D02*Y156607D01*
Y168393D02*Y167607D01*
G54D16*X31419Y165000D02*X33337D01*
X31419Y170000D02*X33337D01*
G54D17*X58607Y158957D02*X59393D01*
X58607Y166043D02*X59393D01*
X49543Y157393D02*Y156607D01*
Y168393D02*Y167607D01*
G54D18*X67500Y170000D02*X74000D01*
X67500Y165000D02*X74000D01*
X67500Y160000D02*X74000D01*
X67500Y155000D02*X74000D01*
G54D16*X31419Y120000D02*X33337D01*
X31419Y125000D02*X33337D01*
G54D17*X42457Y122393D02*Y121607D01*
Y133393D02*Y132607D01*
G54D16*X31419Y130000D02*X33337D01*
X31419Y135000D02*X33337D01*
G54D17*X58607Y123957D02*X59393D01*
X58607Y131043D02*X59393D01*
X49543Y122393D02*Y121607D01*
Y133393D02*Y132607D01*
G54D18*X67500Y135000D02*X74000D01*
X67500Y130000D02*X74000D01*
X67500Y125000D02*X74000D01*
X67500Y120000D02*X74000D01*
G54D19*X134900Y166800D02*Y165200D01*
X131000Y166800D02*Y165200D01*
X127100Y166800D02*Y165200D01*
Y158600D02*Y157000D01*
G54D18*X88000Y155000D02*X94500D01*
X88000Y160000D02*X94500D01*
G54D19*X131000Y158600D02*Y157000D01*
X134900Y158600D02*Y157000D01*
G54D18*X88000Y165000D02*X94500D01*
X88000Y170000D02*X94500D01*
X88000Y135000D02*X94500D01*
G54D19*X134900Y131800D02*Y130200D01*
X131000Y131800D02*Y130200D01*
X127100Y131800D02*Y130200D01*
Y123600D02*Y122000D01*
G54D18*X88000Y120000D02*X94500D01*
X88000Y125000D02*X94500D01*
G54D19*X131000Y123600D02*Y122000D01*
X134900Y123600D02*Y122000D01*
G54D18*X88000Y130000D02*X94500D01*
G54D19*X127100Y88600D02*Y87000D01*
X131000Y88600D02*Y87000D01*
X134900Y88600D02*Y87000D01*
Y96800D02*Y95200D01*
X131000Y96800D02*Y95200D01*
X127100Y96800D02*Y95200D01*
G54D18*X88000Y85000D02*X94500D01*
X88000Y90000D02*X94500D01*
X88000Y95000D02*X94500D01*
X88000Y100000D02*X94500D01*
G54D16*X31419Y85000D02*X33337D01*
X31419Y90000D02*X33337D01*
G54D17*X42457Y87393D02*Y86607D01*
Y98393D02*Y97607D01*
G54D16*X31419Y95000D02*X33337D01*
X31419Y100000D02*X33337D01*
G54D17*X58607Y88957D02*X59393D01*
X58607Y96043D02*X59393D01*
X49543Y87393D02*Y86607D01*
Y98393D02*Y97607D01*
G54D18*X67500Y100000D02*X74000D01*
X67500Y95000D02*X74000D01*
X67500Y90000D02*X74000D01*
X67500Y85000D02*X74000D01*
G54D16*X31419Y50000D02*X33337D01*
X31419Y55000D02*X33337D01*
G54D17*X42457Y52393D02*Y51607D01*
Y63393D02*Y62607D01*
G54D16*X31419Y60000D02*X33337D01*
X31419Y65000D02*X33337D01*
G54D17*X58607Y53957D02*X59393D01*
X58607Y61043D02*X59393D01*
X49543Y52393D02*Y51607D01*
Y63393D02*Y62607D01*
G54D18*X67500Y65000D02*X74000D01*
X67500Y60000D02*X74000D01*
X67500Y55000D02*X74000D01*
X67500Y50000D02*X74000D01*
G54D16*X31419Y15000D02*X33337D01*
X31419Y20000D02*X33337D01*
G54D17*X42457Y17393D02*Y16607D01*
Y28393D02*Y27607D01*
G54D16*X31419Y25000D02*X33337D01*
X31419Y30000D02*X33337D01*
G54D17*X58607Y18957D02*X59393D01*
X58607Y26043D02*X59393D01*
X49543Y17393D02*Y16607D01*
Y28393D02*Y27607D01*
G54D18*X67500Y30000D02*X74000D01*
X67500Y25000D02*X74000D01*
X67500Y20000D02*X74000D01*
X67500Y15000D02*X74000D01*
G54D25*X225500Y226594D03*
X228500D03*
X213000Y231500D03*
X209500D03*
X225500Y296594D03*
X213000Y301500D03*
X209500D03*
X228500Y296594D03*
X225500Y261594D03*
X228500D03*
X213000Y266500D03*
X209500D03*
X225500Y191594D03*
X228500D03*
X213000Y196500D03*
X209500D03*
X225500Y156594D03*
X228500D03*
X213000Y161500D03*
X209500D03*
X228500Y121594D03*
X225500D03*
Y86594D03*
X228500D03*
X213000Y126500D03*
X209500D03*
X213000Y91500D03*
X209500D03*
X225500Y51594D03*
Y16594D03*
X228500D03*
Y51594D03*
X213000Y56500D03*
Y21500D03*
X209500D03*
Y56500D03*
G54D26*X141500Y93000D03*
G54D25*X114000Y97500D03*
G54D26*X117500Y51000D03*
G54D25*X114000Y27500D03*
G54D26*X131000Y48500D03*
X109000Y52000D03*
X114000D03*
X127000Y56500D03*
X122500Y62500D03*
G54D25*X114000D03*
G54D26*X131000Y57000D03*
X145500Y58000D03*
X149500D03*
X141500D03*
G54D25*X138500Y61500D03*
G54D26*X131000Y398500D03*
Y407000D03*
X145500Y408000D03*
X149500D03*
G54D25*X138500Y411500D03*
G54D26*X141500Y408000D03*
G54D25*X225500Y401594D03*
X228500D03*
X213000Y406500D03*
X209500D03*
X225500Y366594D03*
X228500D03*
X213000Y371500D03*
X209500D03*
G54D26*X109000Y402000D03*
X114000D03*
X117500Y401000D03*
X127000Y406500D03*
X122500Y412500D03*
G54D25*X114000D03*
G54D26*X109000Y367000D03*
X114000D03*
X117500Y366000D03*
X131000Y363500D03*
Y372000D03*
X145500Y373000D03*
X149500D03*
G54D25*X138500Y376500D03*
G54D26*X141500Y373000D03*
X127000Y371500D03*
X122500Y377500D03*
G54D25*X114000D03*
G54D26*X109000Y332000D03*
X114000D03*
X117500Y331000D03*
X131000Y328500D03*
Y337000D03*
X127000Y336500D03*
X122500Y342500D03*
G54D25*X114000D03*
G54D26*X145500Y338000D03*
X149500D03*
G54D25*X225500Y331594D03*
X228500D03*
X213000Y336500D03*
X209500D03*
X138500Y341500D03*
G54D26*X141500Y338000D03*
G54D25*X80500Y90500D03*
X84000Y51500D03*
X76500Y52500D03*
X77000Y55500D03*
X80500D03*
X76500Y192500D03*
X77000Y195500D03*
X80500D03*
X84000Y191500D03*
Y226500D03*
X76500Y227500D03*
X77000Y230500D03*
X80500D03*
X85500Y82500D03*
X84000Y86500D03*
X76500Y87500D03*
X77000Y90500D03*
X85500Y47500D03*
G54D26*X109000Y227000D03*
X114000D03*
G54D25*Y237500D03*
G54D26*X117500Y226000D03*
X131000Y223500D03*
Y232000D03*
X145500Y233000D03*
X149500D03*
G54D25*X138500Y236500D03*
G54D26*X141500Y233000D03*
X127000Y231500D03*
X122500Y237500D03*
G54D25*X85500Y222500D03*
Y187500D03*
G54D26*X109000Y192000D03*
Y157000D03*
X114000Y192000D03*
G54D25*Y202500D03*
G54D26*Y157000D03*
X117500Y191000D03*
Y156000D03*
X131000Y188500D03*
Y153500D03*
Y162000D03*
X127000Y161500D03*
X122500Y167500D03*
X131000Y197000D03*
X127000Y196500D03*
X122500Y202500D03*
X145500Y198000D03*
X149500D03*
G54D25*X138500Y201500D03*
G54D26*X141500Y198000D03*
X145500Y163000D03*
X149500D03*
G54D25*X138500Y166500D03*
X80500Y265500D03*
X85500Y257500D03*
X84000Y261500D03*
X76500Y262500D03*
X77000Y265500D03*
X85500Y292500D03*
X84000Y296500D03*
X76500Y297500D03*
X77000Y300500D03*
X80500D03*
G54D26*X109000Y297000D03*
X114000D03*
G54D25*Y307500D03*
G54D26*X117500Y296000D03*
X131000Y293500D03*
Y302000D03*
X127000Y301500D03*
X122500Y307500D03*
X145500Y303000D03*
X149500D03*
G54D25*X138500Y306500D03*
G54D26*X141500Y303000D03*
X109000Y262000D03*
X114000D03*
X117500Y261000D03*
X131000Y258500D03*
Y267000D03*
X127000Y266500D03*
X122500Y272500D03*
G54D25*X114000D03*
G54D26*X145500Y268000D03*
X149500D03*
G54D25*X138500Y271500D03*
X80500Y335500D03*
X85500Y327500D03*
X84000Y331500D03*
X76500Y332500D03*
X77000Y335500D03*
X84000Y366500D03*
X76500Y367500D03*
X77000Y370500D03*
X80500D03*
X64000Y402000D03*
X76500Y402500D03*
X77000Y405500D03*
X85500Y397500D03*
X84000Y401500D03*
X80500Y405500D03*
G54D26*X37500Y414500D03*
Y405500D03*
Y409500D03*
G54D25*X48500Y407500D03*
X60000Y416000D03*
X62500D03*
X64000Y332000D03*
X60000Y346000D03*
X62500D03*
G54D26*X37500Y379500D03*
G54D25*X60000Y381000D03*
X62500D03*
G54D26*X37500Y370500D03*
G54D25*X48500Y372500D03*
X64000Y367000D03*
G54D26*X37500Y374500D03*
Y344500D03*
Y335500D03*
Y339500D03*
G54D25*X48500Y337500D03*
G54D26*X37500Y309500D03*
Y300500D03*
Y304500D03*
G54D25*X48500Y302500D03*
X64000Y297000D03*
X60000Y311000D03*
X62500D03*
X60000Y276000D03*
X62500D03*
X64000Y262000D03*
Y227000D03*
X60000Y241000D03*
X62500D03*
G54D26*X37500Y274500D03*
Y265500D03*
G54D25*X48500Y267500D03*
G54D26*X37500Y269500D03*
Y239500D03*
Y230500D03*
Y234500D03*
G54D25*X48500Y232500D03*
Y197500D03*
X85500Y362500D03*
Y152500D03*
X84000Y156500D03*
X76500Y157500D03*
X77000Y160500D03*
X80500D03*
X76500Y17500D03*
X77000Y20500D03*
X80500D03*
X64000Y192000D03*
X60000Y171000D03*
X62500D03*
X60000Y206000D03*
X62500D03*
X64000Y157000D03*
Y122000D03*
X60000Y136000D03*
X62500D03*
X64000Y87000D03*
Y52000D03*
X62500Y66000D03*
X64000Y17000D03*
X62500Y31000D03*
X60000Y101000D03*
Y66000D03*
Y31000D03*
X62500Y101000D03*
G54D26*X37500Y204500D03*
Y195500D03*
Y199500D03*
Y169500D03*
Y164500D03*
Y134500D03*
Y125500D03*
Y129500D03*
G54D25*X48500Y127500D03*
G54D26*X37500Y160500D03*
Y99500D03*
G54D25*X48500Y162500D03*
Y57500D03*
G54D26*X37500Y90500D03*
G54D25*X48500Y92500D03*
G54D26*X37500Y94500D03*
Y64500D03*
Y55500D03*
Y59500D03*
Y29500D03*
Y20500D03*
Y24500D03*
G54D25*X48500Y22500D03*
G54D26*X141500Y268000D03*
Y163000D03*
X145500Y23000D03*
X149500D03*
G54D25*X138500Y26500D03*
G54D26*X141500Y23000D03*
G54D25*X85500Y117500D03*
X84000Y121500D03*
X76500Y122500D03*
X77000Y125500D03*
X80500D03*
X85500Y12500D03*
X84000Y16500D03*
X114000Y167500D03*
G54D26*X109000Y87000D03*
X114000D03*
X117500Y86000D03*
X109000Y122000D03*
X114000D03*
X117500Y121000D03*
X131000Y118500D03*
Y127000D03*
X127000Y126500D03*
X122500Y132500D03*
G54D25*X114000D03*
G54D26*X109000Y17000D03*
X114000D03*
X117500Y16000D03*
X131000Y13500D03*
Y22000D03*
X127000Y21500D03*
X122500Y27500D03*
X145500Y128000D03*
G54D25*X138500Y131500D03*
G54D26*X141500Y128000D03*
X149500D03*
X131000Y83500D03*
Y92000D03*
X127000Y91500D03*
X122500Y97500D03*
X145500Y93000D03*
X149500D03*
G54D25*X138500Y96500D03*
G54D27*G54D28*G54D29*G54D28*G54D29*G54D28*G54D29*G54D28*G54D29*G54D28*G54D29*G54D28*G54D29*G54D28*G54D29*G54D28*G54D29*G54D28*G54D29*G54D28*G54D29*G54D28*G54D29*G54D28*G54D29*G54D27*G54D28*G54D27*G54D28*G54D27*G54D28*G54D27*G54D28*G54D27*G54D28*G54D29*G54D28*G54D29*G54D28*G54D29*G54D28*G54D29*G54D28*G54D29*G54D28*G54D29*G54D28*G54D27*G54D28*G54D27*G54D28*G54D27*G54D28*G54D29*G54D28*G54D29*G54D28*G54D29*G54D28*G54D29*G54D28*G54D27*G54D28*G54D27*G54D28*G54D27*G54D28*G54D27*G54D28*G54D27*G54D28*G54D29*G54D28*G54D29*G54D28*G54D29*G54D28*G54D29*G54D28*G54D29*G54D28*G54D29*G54D28*G54D29*G54D28*G54D29*G54D28*G54D29*G54D28*G54D29*G54D28*G54D29*G54D28*G54D29*G54D28*G54D29*G54D28*G54D29*G54D28*G54D29*G54D28*G54D29*G54D28*G54D30*M02*
