M48
INCH
T49C0.014
T48C0.012
%
T48
X004850Y040750
X004850Y037250
X004850Y033750
X004850Y030250
X004850Y026750
X004850Y023250
X004850Y019750
X004850Y016250
X004850Y012750
X004850Y009250
X004850Y005750
X004850Y002250
X006000Y041600
X006000Y038100
X006000Y034600
X006000Y031100
X006000Y027600
X006000Y024100
X006000Y020600
X006000Y017100
X006000Y013600
X006000Y010100
X006000Y006600
X006000Y003100
X006250Y041600
X006250Y038100
X006250Y034600
X006250Y031100
X006250Y027600
X006250Y024100
X006250Y020600
X006250Y017100
X006250Y013600
X006250Y010100
X006250Y006600
X006250Y003100
X006400Y040200
X006400Y036700
X006400Y033200
X006400Y029700
X006400Y026200
X006400Y022700
X006400Y019200
X006400Y015700
X006400Y012200
X006400Y008700
X006400Y005200
X006400Y001700
X007650Y040250
X007650Y036750
X007650Y033250
X007650Y029750
X007650Y026250
X007650Y022750
X007650Y019250
X007650Y015750
X007650Y012250
X007650Y008750
X007650Y005250
X007650Y001750
X007700Y040550
X007700Y037050
X007700Y033550
X007700Y030050
X007700Y026550
X007700Y023050
X007700Y019550
X007700Y016050
X007700Y012550
X007700Y009050
X007700Y005550
X007700Y002050
X008050Y040550
X008050Y037050
X008050Y033550
X008050Y030050
X008050Y026550
X008050Y023050
X008050Y019550
X008050Y016050
X008050Y012550
X008050Y009050
X008050Y005550
X008050Y002050
X008400Y040150
X008400Y036650
X008400Y033150
X008400Y029650
X008400Y026150
X008400Y022650
X008400Y019150
X008400Y015650
X008400Y012150
X008400Y008650
X008400Y005150
X008400Y001650
X008550Y039750
X008550Y036250
X008550Y032750
X008550Y029250
X008550Y025750
X008550Y022250
X008550Y018750
X008550Y015250
X008550Y011750
X008550Y008250
X008550Y004750
X008550Y001250
X011400Y041250
X011400Y037750
X011400Y034250
X011400Y030750
X011400Y027250
X011400Y023750
X011400Y020250
X011400Y016750
X011400Y013250
X011400Y009750
X011400Y006250
X011400Y002750
X013850Y041150
X013850Y037650
X013850Y034150
X013850Y030650
X013850Y027150
X013850Y023650
X013850Y020150
X013850Y016650
X013850Y013150
X013850Y009650
X013850Y006150
X013850Y002650
X020950Y040650
X020950Y037150
X020950Y033650
X020950Y030150
X020950Y026650
X020950Y023150
X020950Y019650
X020950Y016150
X020950Y012650
X020950Y009150
X020950Y005650
X020950Y002150
X021300Y040650
X021300Y037150
X021300Y033650
X021300Y030150
X021300Y026650
X021300Y023150
X021300Y019650
X021300Y016150
X021300Y012650
X021300Y009150
X021300Y005650
X021300Y002150
X022550Y040159
X022550Y036659
X022550Y033159
X022550Y029659
X022550Y026159
X022550Y022659
X022550Y019159
X022550Y015659
X022550Y012159
X022550Y008659
X022550Y005159
X022550Y001659
X022850Y040159
X022850Y036659
X022850Y033159
X022850Y029659
X022850Y026159
X022850Y022659
X022850Y019159
X022850Y015659
X022850Y012159
X022850Y008659
X022850Y005159
X022850Y001659
T49
X003750Y041450
X003750Y040950
X003750Y040550
X003750Y037950
X003750Y037450
X003750Y037050
X003750Y034450
X003750Y033950
X003750Y033550
X003750Y030950
X003750Y030450
X003750Y030050
X003750Y027450
X003750Y026950
X003750Y026550
X003750Y023950
X003750Y023450
X003750Y023050
X003750Y020450
X003750Y019950
X003750Y019550
X003750Y016950
X003750Y016450
X003750Y016050
X003750Y013450
X003750Y012950
X003750Y012550
X003750Y009950
X003750Y009450
X003750Y009050
X003750Y006450
X003750Y005950
X003750Y005550
X003750Y002950
X003750Y002450
X003750Y002050
X010900Y040200
X010900Y036700
X010900Y033200
X010900Y029700
X010900Y026200
X010900Y022700
X010900Y019200
X010900Y015700
X010900Y012200
X010900Y008700
X010900Y005200
X010900Y001700
X011400Y040200
X011400Y036700
X011400Y033200
X011400Y029700
X011400Y026200
X011400Y022700
X011400Y019200
X011400Y015700
X011400Y012200
X011400Y008700
X011400Y005200
X011400Y001700
X011750Y040100
X011750Y036600
X011750Y033100
X011750Y029600
X011750Y026100
X011750Y022600
X011750Y019100
X011750Y015600
X011750Y012100
X011750Y008600
X011750Y005100
X011750Y001600
X012250Y041250
X012250Y037750
X012250Y034250
X012250Y030750
X012250Y027250
X012250Y023750
X012250Y020250
X012250Y016750
X012250Y013250
X012250Y009750
X012250Y006250
X012250Y002750
X012700Y040650
X012700Y037150
X012700Y033650
X012700Y030150
X012700Y026650
X012700Y023150
X012700Y019650
X012700Y016150
X012700Y012650
X012700Y009150
X012700Y005650
X012700Y002150
X013100Y040700
X013100Y039850
X013100Y037200
X013100Y036350
X013100Y033700
X013100Y032850
X013100Y030200
X013100Y029350
X013100Y026700
X013100Y025850
X013100Y023200
X013100Y022350
X013100Y019700
X013100Y018850
X013100Y016200
X013100Y015350
X013100Y012700
X013100Y011850
X013100Y009200
X013100Y008350
X013100Y005700
X013100Y004850
X013100Y002200
X013100Y001350
X014150Y040800
X014150Y037300
X014150Y033800
X014150Y030300
X014150Y026800
X014150Y023300
X014150Y019800
X014150Y016300
X014150Y012800
X014150Y009300
X014150Y005800
X014150Y002300
X014550Y040800
X014550Y037300
X014550Y033800
X014550Y030300
X014550Y026800
X014550Y023300
X014550Y019800
X014550Y016300
X014550Y012800
X014550Y009300
X014550Y005800
X014550Y002300
X014950Y040800
X014950Y037300
X014950Y033800
X014950Y030300
X014950Y026800
X014950Y023300
X014950Y019800
X014950Y016300
X014950Y012800
X014950Y009300
X014950Y005800
X014950Y002300
M30
