G04 start of page 4 for group 2 idx 2 *
G04 Title: (unknown), outline *
G04 Creator: pcb 20140316 *
G04 CreationDate: Thu 20 Aug 2020 02:40:25 AM GMT UTC *
G04 For: railfan *
G04 Format: Gerber/RS-274X *
G04 PCB-Dimensions (mil): 2500.00 4300.00 *
G04 PCB-Coordinate-Origin: lower left *
%MOIN*%
%FSLAX25Y25*%
%LNOUTLINE*%
%ADD47C,0.0093*%
%ADD46C,0.0074*%
%ADD45C,0.0100*%
G54D45*X240000Y350000D02*Y325000D01*
Y315000D02*Y290000D01*
Y280000D02*Y255000D01*
Y245000D02*Y220000D01*
Y210000D02*Y185000D01*
Y175000D02*Y150000D01*
X200000Y315000D02*X240000D01*
Y290000D02*X200000D01*
Y280000D02*X240000D01*
Y255000D02*X200000D01*
X240000Y220000D02*X200000D01*
Y210000D02*X240000D01*
X30000Y255000D02*Y280000D01*
Y220000D02*Y245000D01*
Y185000D02*Y210000D01*
Y150000D02*Y175000D01*
Y290000D02*X70000D01*
Y280000D02*X30000D01*
Y255000D02*X70000D01*
Y245000D02*X30000D01*
Y220000D02*X70000D01*
Y210000D02*X30000D01*
Y185000D02*X70000D01*
Y175000D02*X30000D01*
X180000Y245000D02*X90000D01*
X200000D02*X240000D01*
X90000Y255000D02*X180000D01*
X90000Y220000D02*X180000D01*
Y210000D02*X90000D01*
Y185000D02*X180000D01*
Y175000D02*X90000D01*
Y150000D02*X180000D01*
Y140000D02*X90000D01*
Y115000D02*X180000D01*
Y105000D02*X90000D01*
Y80000D02*X180000D01*
Y70000D02*X90000D01*
Y45000D02*X180000D01*
Y35000D02*X90000D01*
X200000D02*X240000D01*
X30000Y10000D02*X240000D01*
X30000Y115000D02*Y140000D01*
Y80000D02*Y105000D01*
Y45000D02*Y70000D01*
Y10000D02*Y35000D01*
Y150000D02*X70000D01*
Y140000D02*X30000D01*
Y115000D02*X70000D01*
Y105000D02*X30000D01*
Y80000D02*X70000D01*
Y70000D02*X30000D01*
Y45000D02*X70000D01*
Y35000D02*X30000D01*
X240000Y185000D02*X200000D01*
Y175000D02*X240000D01*
Y140000D02*Y115000D01*
Y105000D02*Y80000D01*
Y70000D02*Y45000D01*
Y35000D02*Y10000D01*
Y150000D02*X200000D01*
Y140000D02*X240000D01*
Y115000D02*X200000D01*
Y105000D02*X240000D01*
Y80000D02*X200000D01*
Y70000D02*X240000D01*
Y45000D02*X200000D01*
X30000Y395000D02*Y420000D01*
Y360000D02*Y385000D01*
Y395000D02*X70000D01*
Y385000D02*X30000D01*
Y325000D02*Y350000D01*
Y290000D02*Y315000D01*
Y360000D02*X70000D01*
X30000Y325000D02*X70000D01*
Y315000D02*X30000D01*
X240000Y420000D02*Y395000D01*
Y385000D02*Y360000D01*
X30000Y420000D02*X240000D01*
X90000Y395000D02*X180000D01*
Y385000D02*X90000D01*
X240000Y395000D02*X200000D01*
Y385000D02*X240000D01*
X70000Y350000D02*X30000D01*
X90000Y360000D02*X180000D01*
Y350000D02*X90000D01*
X240000Y360000D02*X200000D01*
Y350000D02*X240000D01*
X90000Y325000D02*X180000D01*
X240000D02*X200000D01*
X180000Y315000D02*X90000D01*
Y290000D02*X180000D01*
Y280000D02*X90000D01*
X85000Y215000D02*G75*G02X90000Y220000I5000J0D01*G01*
X85000Y215000D02*G75*G03X90000Y210000I5000J0D01*G01*
X75000Y180000D02*G75*G03X70000Y185000I-5000J0D01*G01*
X75000Y180000D02*G75*G02X70000Y175000I-5000J0D01*G01*
X85000Y180000D02*G75*G02X90000Y185000I5000J0D01*G01*
X85000Y180000D02*G75*G03X90000Y175000I5000J0D01*G01*
X75000Y215000D02*G75*G03X70000Y220000I-5000J0D01*G01*
X75000Y215000D02*G75*G02X70000Y210000I-5000J0D01*G01*
X75000Y145000D02*G75*G03X70000Y150000I-5000J0D01*G01*
X185000Y250000D02*G75*G03X180000Y255000I-5000J0D01*G01*
X185000Y250000D02*G75*G02X180000Y245000I-5000J0D01*G01*
X185000Y215000D02*G75*G03X180000Y220000I-5000J0D01*G01*
X185000Y215000D02*G75*G02X180000Y210000I-5000J0D01*G01*
X195000Y215000D02*G75*G02X200000Y220000I5000J0D01*G01*
X195000Y215000D02*G75*G03X200000Y210000I5000J0D01*G01*
X195000Y180000D02*G75*G02X200000Y185000I5000J0D01*G01*
X195000Y180000D02*G75*G03X200000Y175000I5000J0D01*G01*
X185000Y180000D02*G75*G03X180000Y185000I-5000J0D01*G01*
X185000Y180000D02*G75*G02X180000Y175000I-5000J0D01*G01*
X185000Y145000D02*G75*G03X180000Y150000I-5000J0D01*G01*
X75000Y145000D02*G75*G02X70000Y140000I-5000J0D01*G01*
X75000Y110000D02*G75*G03X70000Y115000I-5000J0D01*G01*
X75000Y110000D02*G75*G02X70000Y105000I-5000J0D01*G01*
X85000Y145000D02*G75*G02X90000Y150000I5000J0D01*G01*
X85000Y145000D02*G75*G03X90000Y140000I5000J0D01*G01*
X85000Y110000D02*G75*G02X90000Y115000I5000J0D01*G01*
X85000Y110000D02*G75*G03X90000Y105000I5000J0D01*G01*
X85000Y75000D02*G75*G02X90000Y80000I5000J0D01*G01*
X85000Y75000D02*G75*G03X90000Y70000I5000J0D01*G01*
X75000Y75000D02*G75*G03X70000Y80000I-5000J0D01*G01*
X75000Y75000D02*G75*G02X70000Y70000I-5000J0D01*G01*
X75000Y40000D02*G75*G03X70000Y45000I-5000J0D01*G01*
X75000Y40000D02*G75*G02X70000Y35000I-5000J0D01*G01*
X85000Y40000D02*G75*G02X90000Y45000I5000J0D01*G01*
X85000Y40000D02*G75*G03X90000Y35000I5000J0D01*G01*
X185000Y145000D02*G75*G02X180000Y140000I-5000J0D01*G01*
X185000Y110000D02*G75*G03X180000Y115000I-5000J0D01*G01*
X185000Y110000D02*G75*G02X180000Y105000I-5000J0D01*G01*
X195000Y145000D02*G75*G02X200000Y150000I5000J0D01*G01*
X195000Y145000D02*G75*G03X200000Y140000I5000J0D01*G01*
X195000Y110000D02*G75*G02X200000Y115000I5000J0D01*G01*
X195000Y110000D02*G75*G03X200000Y105000I5000J0D01*G01*
X195000Y75000D02*G75*G02X200000Y80000I5000J0D01*G01*
X195000Y75000D02*G75*G03X200000Y70000I5000J0D01*G01*
X185000Y75000D02*G75*G03X180000Y80000I-5000J0D01*G01*
X185000Y75000D02*G75*G02X180000Y70000I-5000J0D01*G01*
X185000Y40000D02*G75*G03X180000Y45000I-5000J0D01*G01*
X185000Y40000D02*G75*G02X180000Y35000I-5000J0D01*G01*
X195000Y40000D02*G75*G02X200000Y45000I5000J0D01*G01*
X195000Y40000D02*G75*G03X200000Y35000I5000J0D01*G01*
X75000Y390000D02*G75*G03X70000Y395000I-5000J0D01*G01*
X75000Y390000D02*G75*G02X70000Y385000I-5000J0D01*G01*
X85000Y390000D02*G75*G02X90000Y395000I5000J0D01*G01*
X85000Y390000D02*G75*G03X90000Y385000I5000J0D01*G01*
X75000Y355000D02*G75*G03X70000Y360000I-5000J0D01*G01*
X75000Y355000D02*G75*G02X70000Y350000I-5000J0D01*G01*
X85000Y355000D02*G75*G02X90000Y360000I5000J0D01*G01*
X185000Y390000D02*G75*G03X180000Y395000I-5000J0D01*G01*
X185000Y390000D02*G75*G02X180000Y385000I-5000J0D01*G01*
X195000Y390000D02*G75*G02X200000Y395000I5000J0D01*G01*
X195000Y390000D02*G75*G03X200000Y385000I5000J0D01*G01*
X185000Y355000D02*G75*G03X180000Y360000I-5000J0D01*G01*
X185000Y355000D02*G75*G02X180000Y350000I-5000J0D01*G01*
X195000Y355000D02*G75*G02X200000Y360000I5000J0D01*G01*
X195000Y355000D02*G75*G03X200000Y350000I5000J0D01*G01*
X195000Y320000D02*G75*G02X200000Y325000I5000J0D01*G01*
X85000Y355000D02*G75*G03X90000Y350000I5000J0D01*G01*
X85000Y285000D02*G75*G02X90000Y290000I5000J0D01*G01*
X85000Y285000D02*G75*G03X90000Y280000I5000J0D01*G01*
X85000Y250000D02*G75*G02X90000Y255000I5000J0D01*G01*
X85000Y250000D02*G75*G03X90000Y245000I5000J0D01*G01*
X75000Y320000D02*G75*G03X70000Y325000I-5000J0D01*G01*
X75000Y320000D02*G75*G02X70000Y315000I-5000J0D01*G01*
X85000Y320000D02*G75*G02X90000Y325000I5000J0D01*G01*
X85000Y320000D02*G75*G03X90000Y315000I5000J0D01*G01*
X75000Y285000D02*G75*G03X70000Y290000I-5000J0D01*G01*
X75000Y285000D02*G75*G02X70000Y280000I-5000J0D01*G01*
X75000Y250000D02*G75*G03X70000Y255000I-5000J0D01*G01*
X75000Y250000D02*G75*G02X70000Y245000I-5000J0D01*G01*
X185000Y320000D02*G75*G03X180000Y325000I-5000J0D01*G01*
X185000Y320000D02*G75*G02X180000Y315000I-5000J0D01*G01*
X185000Y285000D02*G75*G03X180000Y290000I-5000J0D01*G01*
X185000Y285000D02*G75*G02X180000Y280000I-5000J0D01*G01*
X195000Y320000D02*G75*G03X200000Y315000I5000J0D01*G01*
X195000Y285000D02*G75*G02X200000Y290000I5000J0D01*G01*
X195000Y285000D02*G75*G03X200000Y280000I5000J0D01*G01*
X195000Y250000D02*G75*G02X200000Y255000I5000J0D01*G01*
X195000Y250000D02*G75*G03X200000Y245000I5000J0D01*G01*
G54D46*X1860Y44000D02*X9300D01*
X1860D02*X5580Y46790D01*
X1860Y49580D01*
X9300D01*
Y55532D02*Y52742D01*
X8370Y51812D02*X9300Y52742D01*
X6510Y51812D02*X8370D01*
X6510D02*X5580Y52742D01*
Y54602D02*Y52742D01*
Y54602D02*X6510Y55532D01*
X7440D02*Y51812D01*
X6510Y55532D02*X7440D01*
X1860Y58694D02*X8370D01*
X9300Y59624D01*
X4650D02*Y57764D01*
X5580Y64274D02*X6510Y65204D01*
X5580Y64274D02*Y62414D01*
X6510Y61484D02*X5580Y62414D01*
X6510Y61484D02*X8370D01*
X9300Y62414D01*
X5580Y65204D02*X8370D01*
X9300Y66134D01*
Y64274D02*Y62414D01*
Y64274D02*X8370Y65204D01*
X1860Y68366D02*X8370D01*
X9300Y69296D01*
X6510Y75434D02*X12090D01*
X5580Y74504D02*X6510Y75434D01*
X5580Y76364D01*
Y78224D02*Y76364D01*
Y78224D02*X6510Y79154D01*
X8370D01*
X9300Y78224D02*X8370Y79154D01*
X9300Y78224D02*Y76364D01*
X8370Y75434D02*X9300Y76364D01*
X5580Y84176D02*X6510Y85106D01*
X5580Y84176D02*Y82316D01*
X6510Y81386D02*X5580Y82316D01*
X6510Y81386D02*X8370D01*
X9300Y82316D01*
X5580Y85106D02*X8370D01*
X9300Y86036D01*
Y84176D02*Y82316D01*
Y84176D02*X8370Y85106D01*
X1860Y91988D02*X9300D01*
Y91058D02*X8370Y91988D01*
X9300Y91058D02*Y89198D01*
X8370Y88268D02*X9300Y89198D01*
X6510Y88268D02*X8370D01*
X6510D02*X5580Y89198D01*
Y91058D02*Y89198D01*
Y91058D02*X6510Y91988D01*
X9300Y97940D02*Y95150D01*
Y97940D02*X8370Y98870D01*
X7440Y97940D02*X8370Y98870D01*
X7440Y97940D02*Y95150D01*
X6510Y94220D02*X7440Y95150D01*
X6510Y94220D02*X5580Y95150D01*
Y97940D02*Y95150D01*
Y97940D02*X6510Y98870D01*
X8370Y94220D02*X9300Y95150D01*
X6510Y104450D02*X8370D01*
X6510D02*X5580Y105380D01*
Y107240D02*Y105380D01*
Y107240D02*X6510Y108170D01*
X8370D01*
X9300Y107240D02*X8370Y108170D01*
X9300Y107240D02*Y105380D01*
X8370Y104450D02*X9300Y105380D01*
X6510Y111332D02*X9300D01*
X6510D02*X5580Y112262D01*
Y113192D02*Y112262D01*
Y113192D02*X6510Y114122D01*
X9300D01*
X5580Y110402D02*X6510Y111332D01*
X1860Y120632D02*X8370D01*
X9300Y121562D01*
X4650D02*Y119702D01*
X1860Y123422D02*X9300D01*
X6510D02*X5580Y124352D01*
Y126212D02*Y124352D01*
Y126212D02*X6510Y127142D01*
X9300D01*
G54D47*X3720Y129374D02*X3906D01*
G54D46*X6510D02*X9300D01*
Y134954D02*Y132164D01*
Y134954D02*X8370Y135884D01*
X7440Y134954D02*X8370Y135884D01*
X7440Y134954D02*Y132164D01*
X6510Y131234D02*X7440Y132164D01*
X6510Y131234D02*X5580Y132164D01*
Y134954D02*Y132164D01*
Y134954D02*X6510Y135884D01*
X8370Y131234D02*X9300Y132164D01*
Y145184D02*Y142394D01*
Y145184D02*X8370Y146114D01*
X7440Y145184D02*X8370Y146114D01*
X7440Y145184D02*Y142394D01*
X6510Y141464D02*X7440Y142394D01*
X6510Y141464D02*X5580Y142394D01*
Y145184D02*Y142394D01*
Y145184D02*X6510Y146114D01*
X8370Y141464D02*X9300Y142394D01*
G54D47*X3720Y148346D02*X3906D01*
G54D46*X6510D02*X9300D01*
X1860Y153926D02*X9300D01*
Y152996D02*X8370Y153926D01*
X9300Y152996D02*Y151136D01*
X8370Y150206D02*X9300Y151136D01*
X6510Y150206D02*X8370D01*
X6510D02*X5580Y151136D01*
Y152996D02*Y151136D01*
Y152996D02*X6510Y153926D01*
X9300Y159878D02*Y157088D01*
X8370Y156158D02*X9300Y157088D01*
X6510Y156158D02*X8370D01*
X6510D02*X5580Y157088D01*
Y158948D02*Y157088D01*
Y158948D02*X6510Y159878D01*
X7440D02*Y156158D01*
X6510Y159878D02*X7440D01*
X9300Y169178D02*Y166388D01*
Y169178D02*X8370Y170108D01*
X7440Y169178D02*X8370Y170108D01*
X7440Y169178D02*Y166388D01*
X6510Y165458D02*X7440Y166388D01*
X6510Y165458D02*X5580Y166388D01*
Y169178D02*Y166388D01*
Y169178D02*X6510Y170108D01*
X8370Y165458D02*X9300Y166388D01*
X1860Y172340D02*X9300D01*
X6510D02*X5580Y173270D01*
Y175130D02*Y173270D01*
Y175130D02*X6510Y176060D01*
X9300D01*
X6510Y178292D02*X8370D01*
X6510D02*X5580Y179222D01*
Y181082D02*Y179222D01*
Y181082D02*X6510Y182012D01*
X8370D01*
X9300Y181082D02*X8370Y182012D01*
X9300Y181082D02*Y179222D01*
X8370Y178292D02*X9300Y179222D01*
X5580Y184244D02*X8370D01*
X9300Y185174D01*
Y187034D02*Y185174D01*
Y187034D02*X8370Y187964D01*
X5580D02*X8370D01*
X1860Y190196D02*X8370D01*
X9300Y191126D01*
X1860Y196706D02*X9300D01*
Y195776D02*X8370Y196706D01*
X9300Y195776D02*Y193916D01*
X8370Y192986D02*X9300Y193916D01*
X6510Y192986D02*X8370D01*
X6510D02*X5580Y193916D01*
Y195776D02*Y193916D01*
Y195776D02*X6510Y196706D01*
X1860Y202286D02*X9300D01*
X8370D02*X9300Y203216D01*
Y205076D02*Y203216D01*
Y205076D02*X8370Y206006D01*
X6510D02*X8370D01*
X5580Y205076D02*X6510Y206006D01*
X5580Y205076D02*Y203216D01*
X6510Y202286D02*X5580Y203216D01*
X9300Y211958D02*Y209168D01*
X8370Y208238D02*X9300Y209168D01*
X6510Y208238D02*X8370D01*
X6510D02*X5580Y209168D01*
Y211028D02*Y209168D01*
Y211028D02*X6510Y211958D01*
X7440D02*Y208238D01*
X6510Y211958D02*X7440D01*
X5580Y221258D02*Y218468D01*
X6510Y217538D02*X5580Y218468D01*
X6510Y217538D02*X8370D01*
X9300Y218468D01*
Y221258D02*Y218468D01*
X6510Y223490D02*X8370D01*
X6510D02*X5580Y224420D01*
Y226280D02*Y224420D01*
Y226280D02*X6510Y227210D01*
X8370D01*
X9300Y226280D02*X8370Y227210D01*
X9300Y226280D02*Y224420D01*
X8370Y223490D02*X9300Y224420D01*
G54D47*X3720Y229442D02*X3906D01*
G54D46*X6510D02*X9300D01*
X6510Y232232D02*X9300D01*
X6510D02*X5580Y233162D01*
Y234092D02*Y233162D01*
Y234092D02*X6510Y235022D01*
X9300D01*
X5580Y231302D02*X6510Y232232D01*
X5580Y240974D02*Y238184D01*
X6510Y237254D02*X5580Y238184D01*
X6510Y237254D02*X8370D01*
X9300Y238184D01*
Y240974D02*Y238184D01*
G54D47*X3720Y243206D02*X3906D01*
G54D46*X6510D02*X9300D01*
X1860Y248786D02*X9300D01*
Y247856D02*X8370Y248786D01*
X9300Y247856D02*Y245996D01*
X8370Y245066D02*X9300Y245996D01*
X6510Y245066D02*X8370D01*
X6510D02*X5580Y245996D01*
Y247856D02*Y245996D01*
Y247856D02*X6510Y248786D01*
X9300Y254738D02*Y251948D01*
X8370Y251018D02*X9300Y251948D01*
X6510Y251018D02*X8370D01*
X6510D02*X5580Y251948D01*
Y253808D02*Y251948D01*
Y253808D02*X6510Y254738D01*
X7440D02*Y251018D01*
X6510Y254738D02*X7440D01*
X6510Y257900D02*X9300D01*
X6510D02*X5580Y258830D01*
Y259760D02*Y258830D01*
Y259760D02*X6510Y260690D01*
X9300D01*
X5580Y256970D02*X6510Y257900D01*
X1860Y263852D02*X8370D01*
X9300Y264782D01*
X4650D02*Y262922D01*
X5580Y269990D02*X8370D01*
X9300Y270920D01*
Y271850D02*Y270920D01*
Y271850D02*X8370Y272780D01*
X5580D02*X8370D01*
X9300Y273710D01*
Y274640D02*Y273710D01*
Y274640D02*X8370Y275570D01*
X5580D02*X8370D01*
G54D47*X3720Y277802D02*X3906D01*
G54D46*X6510D02*X9300D01*
X1860Y280592D02*X8370D01*
X9300Y281522D01*
X4650D02*Y279662D01*
X1860Y283382D02*X9300D01*
X6510D02*X5580Y284312D01*
Y286172D02*Y284312D01*
Y286172D02*X6510Y287102D01*
X9300D01*
X1860Y292682D02*X9300D01*
X8370D02*X9300Y293612D01*
Y295472D02*Y293612D01*
Y295472D02*X8370Y296402D01*
X6510D02*X8370D01*
X5580Y295472D02*X6510Y296402D01*
X5580Y295472D02*Y293612D01*
X6510Y292682D02*X5580Y293612D01*
X6510Y298634D02*X8370D01*
X6510D02*X5580Y299564D01*
Y301424D02*Y299564D01*
Y301424D02*X6510Y302354D01*
X8370D01*
X9300Y301424D02*X8370Y302354D01*
X9300Y301424D02*Y299564D01*
X8370Y298634D02*X9300Y299564D01*
X5580Y307376D02*X6510Y308306D01*
X5580Y307376D02*Y305516D01*
X6510Y304586D02*X5580Y305516D01*
X6510Y304586D02*X8370D01*
X9300Y305516D01*
X5580Y308306D02*X8370D01*
X9300Y309236D01*
Y307376D02*Y305516D01*
Y307376D02*X8370Y308306D01*
X6510Y312398D02*X9300D01*
X6510D02*X5580Y313328D01*
Y315188D02*Y313328D01*
Y311468D02*X6510Y312398D01*
X1860Y321140D02*X9300D01*
Y320210D02*X8370Y321140D01*
X9300Y320210D02*Y318350D01*
X8370Y317420D02*X9300Y318350D01*
X6510Y317420D02*X8370D01*
X6510D02*X5580Y318350D01*
Y320210D02*Y318350D01*
Y320210D02*X6510Y321140D01*
X9300Y330440D02*Y327650D01*
X8370Y326720D02*X9300Y327650D01*
X6510Y326720D02*X8370D01*
X6510D02*X5580Y327650D01*
Y329510D02*Y327650D01*
Y329510D02*X6510Y330440D01*
X7440D02*Y326720D01*
X6510Y330440D02*X7440D01*
X1860Y336392D02*X9300D01*
Y335462D02*X8370Y336392D01*
X9300Y335462D02*Y333602D01*
X8370Y332672D02*X9300Y333602D01*
X6510Y332672D02*X8370D01*
X6510D02*X5580Y333602D01*
Y335462D02*Y333602D01*
Y335462D02*X6510Y336392D01*
X5580Y341414D02*X6510Y342344D01*
X5580Y341414D02*Y339554D01*
X6510Y338624D02*X5580Y339554D01*
X6510Y338624D02*X8370D01*
X9300Y339554D01*
Y341414D02*Y339554D01*
Y341414D02*X8370Y342344D01*
X11160Y338624D02*X12090Y339554D01*
Y341414D02*Y339554D01*
Y341414D02*X11160Y342344D01*
X5580D02*X11160D01*
X9300Y348296D02*Y345506D01*
X8370Y344576D02*X9300Y345506D01*
X6510Y344576D02*X8370D01*
X6510D02*X5580Y345506D01*
Y347366D02*Y345506D01*
Y347366D02*X6510Y348296D01*
X7440D02*Y344576D01*
X6510Y348296D02*X7440D01*
X8370Y353876D02*X9300Y354806D01*
X2790Y353876D02*X1860Y354806D01*
X2790Y353876D02*X8370D01*
X5580Y357038D02*X3720Y358898D01*
X5580Y357038D02*X7440Y358898D01*
X1860Y364850D02*Y361130D01*
X5580D01*
X4650Y362060D01*
Y363920D02*Y362060D01*
Y363920D02*X5580Y364850D01*
X8370D01*
X9300Y363920D02*X8370Y364850D01*
X9300Y363920D02*Y362060D01*
X8370Y361130D02*X9300Y362060D01*
X6510Y368012D02*X9300D01*
X6510D02*X5580Y368942D01*
Y369872D02*Y368942D01*
Y369872D02*X6510Y370802D01*
X9300D01*
X6510D02*X5580Y371732D01*
Y372662D02*Y371732D01*
Y372662D02*X6510Y373592D01*
X9300D01*
X5580Y367082D02*X6510Y368012D01*
G54D47*X3720Y375824D02*X3906D01*
G54D46*X6510D02*X9300D01*
X1860Y377684D02*X8370D01*
X9300Y378614D01*
X1860Y380474D02*X2790Y381404D01*
X8370D01*
X9300Y380474D02*X8370Y381404D01*
X9300Y384566D02*Y383636D01*
X15860Y134930D02*X23300D01*
X15860Y137720D02*Y134000D01*
Y137720D02*X16790Y138650D01*
X18650D01*
X19580Y137720D02*X18650Y138650D01*
X19580Y137720D02*Y134930D01*
X15860Y140882D02*X22370D01*
X23300Y141812D01*
Y147392D02*Y144602D01*
X22370Y143672D02*X23300Y144602D01*
X20510Y143672D02*X22370D01*
X20510D02*X19580Y144602D01*
Y146462D02*Y144602D01*
Y146462D02*X20510Y147392D01*
X21440D02*Y143672D01*
X20510Y147392D02*X21440D01*
X19580Y152414D02*X20510Y153344D01*
X19580Y152414D02*Y150554D01*
X20510Y149624D02*X19580Y150554D01*
X20510Y149624D02*X22370D01*
X23300Y150554D01*
X19580Y153344D02*X22370D01*
X23300Y154274D01*
Y152414D02*Y150554D01*
Y152414D02*X22370Y153344D01*
X23300Y160226D02*Y157436D01*
Y160226D02*X22370Y161156D01*
X21440Y160226D02*X22370Y161156D01*
X21440Y160226D02*Y157436D01*
X20510Y156506D02*X21440Y157436D01*
X20510Y156506D02*X19580Y157436D01*
Y160226D02*Y157436D01*
Y160226D02*X20510Y161156D01*
X22370Y156506D02*X23300Y157436D01*
Y167108D02*Y164318D01*
X22370Y163388D02*X23300Y164318D01*
X20510Y163388D02*X22370D01*
X20510D02*X19580Y164318D01*
Y166178D02*Y164318D01*
Y166178D02*X20510Y167108D01*
X21440D02*Y163388D01*
X20510Y167108D02*X21440D01*
X15860Y176408D02*X23300D01*
Y175478D02*X22370Y176408D01*
X23300Y175478D02*Y173618D01*
X22370Y172688D02*X23300Y173618D01*
X20510Y172688D02*X22370D01*
X20510D02*X19580Y173618D01*
Y175478D02*Y173618D01*
Y175478D02*X20510Y176408D01*
Y178640D02*X22370D01*
X20510D02*X19580Y179570D01*
Y181430D02*Y179570D01*
Y181430D02*X20510Y182360D01*
X22370D01*
X23300Y181430D02*X22370Y182360D01*
X23300Y181430D02*Y179570D01*
X22370Y178640D02*X23300Y179570D01*
X15860Y187940D02*X23300D01*
X15860D02*X23300Y192590D01*
X15860D02*X23300D01*
X16790Y194822D02*X22370D01*
X16790D02*X15860Y195752D01*
Y197612D02*Y195752D01*
Y197612D02*X16790Y198542D01*
X22370D01*
X23300Y197612D02*X22370Y198542D01*
X23300Y197612D02*Y195752D01*
X22370Y194822D02*X23300Y195752D01*
X15860Y204494D02*Y200774D01*
Y202634D02*X23300D01*
X20510Y211004D02*X26090D01*
X19580Y210074D02*X20510Y211004D01*
X19580Y211934D01*
Y213794D02*Y211934D01*
Y213794D02*X20510Y214724D01*
X22370D01*
X23300Y213794D02*X22370Y214724D01*
X23300Y213794D02*Y211934D01*
X22370Y211004D02*X23300Y211934D01*
X19580Y216956D02*X22370D01*
X23300Y217886D01*
Y219746D02*Y217886D01*
Y219746D02*X22370Y220676D01*
X19580D02*X22370D01*
X15860Y222908D02*X22370D01*
X23300Y223838D01*
X15860Y225698D02*X22370D01*
X23300Y226628D01*
X15860Y231836D02*X23300D01*
X22370D02*X23300Y232766D01*
Y234626D02*Y232766D01*
Y234626D02*X22370Y235556D01*
X20510D02*X22370D01*
X19580Y234626D02*X20510Y235556D01*
X19580Y234626D02*Y232766D01*
X20510Y231836D02*X19580Y232766D01*
Y240578D02*X20510Y241508D01*
X19580Y240578D02*Y238718D01*
X20510Y237788D02*X19580Y238718D01*
X20510Y237788D02*X22370D01*
X23300Y238718D01*
X19580Y241508D02*X22370D01*
X23300Y242438D01*
Y240578D02*Y238718D01*
Y240578D02*X22370Y241508D01*
X19580Y248390D02*Y245600D01*
X20510Y244670D02*X19580Y245600D01*
X20510Y244670D02*X22370D01*
X23300Y245600D01*
Y248390D02*Y245600D01*
X15860Y250622D02*X23300D01*
X20510D02*X23300Y253412D01*
X20510Y250622D02*X18650Y252482D01*
X20510Y259922D02*X23300D01*
X20510D02*X19580Y260852D01*
Y261782D02*Y260852D01*
Y261782D02*X20510Y262712D01*
X23300D01*
X20510D02*X19580Y263642D01*
Y264572D02*Y263642D01*
Y264572D02*X20510Y265502D01*
X23300D01*
X19580Y258992D02*X20510Y259922D01*
X23300Y271454D02*Y268664D01*
X22370Y267734D02*X23300Y268664D01*
X20510Y267734D02*X22370D01*
X20510D02*X19580Y268664D01*
Y270524D02*Y268664D01*
Y270524D02*X20510Y271454D01*
X21440D02*Y267734D01*
X20510Y271454D02*X21440D01*
X15860Y274616D02*X22370D01*
X23300Y275546D01*
X18650D02*Y273686D01*
X19580Y280196D02*X20510Y281126D01*
X19580Y280196D02*Y278336D01*
X20510Y277406D02*X19580Y278336D01*
X20510Y277406D02*X22370D01*
X23300Y278336D01*
X19580Y281126D02*X22370D01*
X23300Y282056D01*
Y280196D02*Y278336D01*
Y280196D02*X22370Y281126D01*
X15860Y284288D02*X22370D01*
X23300Y285218D01*
X22370Y287078D02*X23300D01*
X15860D02*X20510D01*
M02*
