G04 start of page 9 for group -4079 idx -4079 *
G04 Title: (unknown), topsilk *
G04 Creator: pcb 20140316 *
G04 CreationDate: Thu 20 Aug 2020 02:40:25 AM GMT UTC *
G04 For: railfan *
G04 Format: Gerber/RS-274X *
G04 PCB-Dimensions (mil): 2500.00 4300.00 *
G04 PCB-Coordinate-Origin: lower left *
%MOIN*%
%FSLAX25Y25*%
%LNTOPSILK*%
%ADD68C,0.0100*%
%ADD67C,0.0080*%
G54D67*X213000Y273500D02*X216000D01*
X214500Y275000D02*Y272000D01*
X213000Y238500D02*X216000D01*
X214500Y240000D02*Y237000D01*
X213000Y203500D02*X216000D01*
X214500Y205000D02*Y202000D01*
X213000Y168500D02*X216000D01*
X214500Y170000D02*Y167000D01*
X213000Y133500D02*X216000D01*
X214500Y135000D02*Y132000D01*
X213000Y98500D02*X216000D01*
X214500Y100000D02*Y97000D01*
X213000Y63500D02*X216000D01*
X214500Y65000D02*Y62000D01*
X213000Y28500D02*X216000D01*
X214500Y30000D02*Y27000D01*
X213000Y343500D02*X216000D01*
X214500Y345000D02*Y342000D01*
X213000Y308500D02*X216000D01*
X213000Y413500D02*X216000D01*
X214500Y415000D02*Y412000D01*
X213000Y378500D02*X216000D01*
X214500Y380000D02*Y377000D01*
Y310000D02*Y307000D01*
G54D68*X37837Y397732D02*G75*G03X37837Y397732I-500J0D01*G01*
X56245Y407893D02*Y407107D01*
X61755Y407893D02*Y407107D01*
X45607Y404755D02*X46393D01*
X45607Y399245D02*X46393D01*
X45607Y415755D02*X46393D01*
X45607Y410245D02*X46393D01*
X65500Y417000D02*Y398000D01*
X96500D01*
Y417000D01*
X65500D02*X78500D01*
X96500D02*X83500D01*
X78500D02*G75*G03X83500Y417000I2500J0D01*G01*
X37837Y362732D02*G75*G03X37837Y362732I-500J0D01*G01*
X56245Y372893D02*Y372107D01*
X61755Y372893D02*Y372107D01*
X45607Y369755D02*X46393D01*
X45607Y364245D02*X46393D01*
X45607Y380755D02*X46393D01*
X45607Y375245D02*X46393D01*
X65500Y382000D02*Y363000D01*
X96500D01*
Y382000D01*
X65500D02*X78500D01*
X96500D02*X83500D01*
X78500D02*G75*G03X83500Y382000I2500J0D01*G01*
X179000Y328200D02*X200000D01*
X179000Y337800D02*X200000D01*
X179000Y328200D02*Y337800D01*
X200000Y328200D02*Y337800D01*
X187000Y328200D02*Y337800D01*
X159520Y346750D02*X170150D01*
X159520Y328250D02*X170150D01*
Y346750D02*Y343500D01*
Y331500D02*Y328250D01*
X159520Y346750D02*Y346571D01*
Y328429D02*Y328250D01*
X185607Y346255D02*X186393D01*
X185607Y340745D02*X186393D01*
X205607Y346255D02*X206393D01*
X205607Y340745D02*X206393D01*
X145107Y329245D02*X145893D01*
X145107Y334755D02*X145893D01*
X179000Y293200D02*X200000D01*
X179000Y302800D02*X200000D01*
X179000Y293200D02*Y302800D01*
X200000Y293200D02*Y302800D01*
X187000Y293200D02*Y302800D01*
X159520Y311750D02*X170150D01*
X159520Y293250D02*X170150D01*
Y311750D02*Y308500D01*
Y296500D02*Y293250D01*
X159520Y311750D02*Y311571D01*
Y293429D02*Y293250D01*
X145107Y294245D02*X145893D01*
X145107Y299755D02*X145893D01*
X185607Y311255D02*X186393D01*
X185607Y305745D02*X186393D01*
X205607Y311255D02*X206393D01*
X205607Y305745D02*X206393D01*
X37837Y327732D02*G75*G03X37837Y327732I-500J0D01*G01*
X56245Y337893D02*Y337107D01*
X61755Y337893D02*Y337107D01*
X45607Y334755D02*X46393D01*
X45607Y329245D02*X46393D01*
X45607Y345755D02*X46393D01*
X45607Y340245D02*X46393D01*
X136900Y343900D02*Y330000D01*
X125100Y343900D02*X136900D01*
X125100D02*Y330000D01*
X136900D01*
X65500Y347000D02*Y328000D01*
X96500D01*
Y347000D01*
X65500D02*X78500D01*
X96500D02*X83500D01*
X78500D02*G75*G03X83500Y347000I2500J0D01*G01*
X179000Y398200D02*X200000D01*
X179000Y407800D02*X200000D01*
X179000Y398200D02*Y407800D01*
X200000Y398200D02*Y407800D01*
X187000Y398200D02*Y407800D01*
X185607Y416255D02*X186393D01*
X185607Y410745D02*X186393D01*
X205607Y416255D02*X206393D01*
X205607Y410745D02*X206393D01*
X159520Y416750D02*X170150D01*
X159520Y398250D02*X170150D01*
Y416750D02*Y413500D01*
Y401500D02*Y398250D01*
X159520Y416750D02*Y416571D01*
Y398429D02*Y398250D01*
Y381750D02*X170150D01*
X159520Y363250D02*X170150D01*
Y381750D02*Y378500D01*
Y366500D02*Y363250D01*
X159520Y381750D02*Y381571D01*
Y363429D02*Y363250D01*
X145107Y399245D02*X145893D01*
X145107Y404755D02*X145893D01*
X145107Y364245D02*X145893D01*
X145107Y369755D02*X145893D01*
X179000Y363200D02*X200000D01*
X179000Y372800D02*X200000D01*
X179000Y363200D02*Y372800D01*
X200000Y363200D02*Y372800D01*
X187000Y363200D02*Y372800D01*
X185607Y381255D02*X186393D01*
X185607Y375745D02*X186393D01*
X205607Y381255D02*X206393D01*
X205607Y375745D02*X206393D01*
X136900Y413900D02*Y400000D01*
X125100Y413900D02*X136900D01*
X125100D02*Y400000D01*
X136900D01*
Y378900D02*Y365000D01*
X125100Y378900D02*X136900D01*
X125100D02*Y365000D01*
X136900D01*
X37837Y292732D02*G75*G03X37837Y292732I-500J0D01*G01*
Y257732D02*G75*G03X37837Y257732I-500J0D01*G01*
Y222732D02*G75*G03X37837Y222732I-500J0D01*G01*
X56245Y302893D02*Y302107D01*
X61755Y302893D02*Y302107D01*
X45607Y299755D02*X46393D01*
X45607Y294245D02*X46393D01*
X45607Y310755D02*X46393D01*
X45607Y305245D02*X46393D01*
X56245Y267893D02*Y267107D01*
X61755Y267893D02*Y267107D01*
X45607Y264755D02*X46393D01*
X45607Y259245D02*X46393D01*
X45607Y275755D02*X46393D01*
X45607Y270245D02*X46393D01*
X65500Y277000D02*Y258000D01*
X96500D01*
Y277000D01*
X65500D02*X78500D01*
X96500D02*X83500D01*
X78500D02*G75*G03X83500Y277000I2500J0D01*G01*
X45607Y240755D02*X46393D01*
X45607Y235245D02*X46393D01*
X136900Y308900D02*Y295000D01*
X125100Y308900D02*X136900D01*
X125100D02*Y295000D01*
X136900D01*
X65500Y312000D02*Y293000D01*
X96500D01*
Y312000D01*
X65500D02*X78500D01*
X96500D02*X83500D01*
X78500D02*G75*G03X83500Y312000I2500J0D01*G01*
X136900Y273900D02*Y260000D01*
X125100Y273900D02*X136900D01*
X125100D02*Y260000D01*
X136900D01*
Y238900D02*Y225000D01*
X125100Y238900D02*X136900D01*
X125100D02*Y225000D01*
X136900D01*
Y203900D02*Y190000D01*
X125100Y203900D02*X136900D01*
X125100D02*Y190000D01*
X136900D01*
X45607Y159755D02*X46393D01*
X45607Y154245D02*X46393D01*
X65500Y172000D02*Y153000D01*
X96500D01*
Y172000D01*
X65500D02*X78500D01*
X96500D02*X83500D01*
X78500D02*G75*G03X83500Y172000I2500J0D01*G01*
X45607Y170755D02*X46393D01*
X45607Y165245D02*X46393D01*
X56245Y127893D02*Y127107D01*
X61755Y127893D02*Y127107D01*
X45607Y124755D02*X46393D01*
X45607Y119245D02*X46393D01*
X45607Y135755D02*X46393D01*
X45607Y130245D02*X46393D01*
X65500Y137000D02*Y118000D01*
X96500D01*
Y137000D01*
X65500D02*X78500D01*
X96500D02*X83500D01*
X78500D02*G75*G03X83500Y137000I2500J0D01*G01*
X37837Y187732D02*G75*G03X37837Y187732I-500J0D01*G01*
Y152732D02*G75*G03X37837Y152732I-500J0D01*G01*
Y117732D02*G75*G03X37837Y117732I-500J0D01*G01*
Y82732D02*G75*G03X37837Y82732I-500J0D01*G01*
X56245Y92893D02*Y92107D01*
X61755Y92893D02*Y92107D01*
X65500Y102000D02*Y83000D01*
X96500D01*
Y102000D01*
X65500D02*X78500D01*
X96500D02*X83500D01*
X78500D02*G75*G03X83500Y102000I2500J0D01*G01*
X45607Y89755D02*X46393D01*
X45607Y84245D02*X46393D01*
X45607Y100755D02*X46393D01*
X45607Y95245D02*X46393D01*
X179000Y258200D02*X200000D01*
X179000Y267800D02*X200000D01*
X179000Y258200D02*Y267800D01*
X200000Y258200D02*Y267800D01*
X187000Y258200D02*Y267800D01*
X159520Y276750D02*X170150D01*
X159520Y258250D02*X170150D01*
Y276750D02*Y273500D01*
Y261500D02*Y258250D01*
X159520Y276750D02*Y276571D01*
Y258429D02*Y258250D01*
X185607Y276255D02*X186393D01*
X185607Y270745D02*X186393D01*
X205607Y276255D02*X206393D01*
X205607Y270745D02*X206393D01*
X145107Y259245D02*X145893D01*
X145107Y264755D02*X145893D01*
X179000Y223200D02*X200000D01*
X179000Y232800D02*X200000D01*
X179000Y223200D02*Y232800D01*
X200000Y223200D02*Y232800D01*
X187000Y223200D02*Y232800D01*
X159520Y241750D02*X170150D01*
X159520Y223250D02*X170150D01*
Y241750D02*Y238500D01*
Y226500D02*Y223250D01*
X159520Y241750D02*Y241571D01*
Y223429D02*Y223250D01*
X145107Y224245D02*X145893D01*
X145107Y229755D02*X145893D01*
X185607Y241255D02*X186393D01*
X185607Y235745D02*X186393D01*
X205607Y241255D02*X206393D01*
X205607Y235745D02*X206393D01*
X56245Y232893D02*Y232107D01*
X61755Y232893D02*Y232107D01*
X45607Y229755D02*X46393D01*
X45607Y224245D02*X46393D01*
X45607Y205755D02*X46393D01*
X45607Y200245D02*X46393D01*
X65500Y242000D02*Y223000D01*
X96500D01*
Y242000D01*
X65500D02*X78500D01*
X96500D02*X83500D01*
X78500D02*G75*G03X83500Y242000I2500J0D01*G01*
X65500Y207000D02*Y188000D01*
X96500D01*
Y207000D01*
X65500D02*X78500D01*
X96500D02*X83500D01*
X78500D02*G75*G03X83500Y207000I2500J0D01*G01*
X56245Y197893D02*Y197107D01*
X61755Y197893D02*Y197107D01*
X45607Y194755D02*X46393D01*
X45607Y189245D02*X46393D01*
X56245Y162893D02*Y162107D01*
X61755Y162893D02*Y162107D01*
X179000Y188200D02*X200000D01*
X179000Y197800D02*X200000D01*
X179000Y188200D02*Y197800D01*
X200000Y188200D02*Y197800D01*
X187000Y188200D02*Y197800D01*
X159520Y206750D02*X170150D01*
X159520Y188250D02*X170150D01*
Y206750D02*Y203500D01*
Y191500D02*Y188250D01*
X159520Y206750D02*Y206571D01*
Y188429D02*Y188250D01*
X185607Y206255D02*X186393D01*
X185607Y200745D02*X186393D01*
X205607Y206255D02*X206393D01*
X205607Y200745D02*X206393D01*
X145107Y189245D02*X145893D01*
X145107Y194755D02*X145893D01*
X179000Y153200D02*X200000D01*
X179000Y162800D02*X200000D01*
X179000Y153200D02*Y162800D01*
X200000Y153200D02*Y162800D01*
X187000Y153200D02*Y162800D01*
X159520Y171750D02*X170150D01*
X159520Y153250D02*X170150D01*
Y171750D02*Y168500D01*
Y156500D02*Y153250D01*
X159520Y171750D02*Y171571D01*
Y153429D02*Y153250D01*
X145107Y154245D02*X145893D01*
X145107Y159755D02*X145893D01*
X185607Y171255D02*X186393D01*
X185607Y165745D02*X186393D01*
X205607Y171255D02*X206393D01*
X205607Y165745D02*X206393D01*
X136900Y168900D02*Y155000D01*
X125100Y168900D02*X136900D01*
X125100D02*Y155000D01*
X136900D01*
X179000Y118200D02*X200000D01*
X179000Y127800D02*X200000D01*
X179000Y118200D02*Y127800D01*
X200000Y118200D02*Y127800D01*
X187000Y118200D02*Y127800D01*
X159520Y136750D02*X170150D01*
X159520Y118250D02*X170150D01*
Y136750D02*Y133500D01*
Y121500D02*Y118250D01*
X159520Y136750D02*Y136571D01*
Y118429D02*Y118250D01*
X185607Y136255D02*X186393D01*
X185607Y130745D02*X186393D01*
X205607Y136255D02*X206393D01*
X205607Y130745D02*X206393D01*
X145107Y119245D02*X145893D01*
X145107Y124755D02*X145893D01*
X179000Y83200D02*X200000D01*
X179000Y92800D02*X200000D01*
X179000Y83200D02*Y92800D01*
X200000Y83200D02*Y92800D01*
X187000Y83200D02*Y92800D01*
X159520Y101750D02*X170150D01*
X159520Y83250D02*X170150D01*
Y101750D02*Y98500D01*
Y86500D02*Y83250D01*
X159520Y101750D02*Y101571D01*
Y83429D02*Y83250D01*
X145107Y84245D02*X145893D01*
X145107Y89755D02*X145893D01*
X185607Y101255D02*X186393D01*
X185607Y95745D02*X186393D01*
X205607Y101255D02*X206393D01*
X205607Y95745D02*X206393D01*
X136900Y133900D02*Y120000D01*
X125100Y133900D02*X136900D01*
X125100D02*Y120000D01*
X136900D01*
Y98900D02*Y85000D01*
X125100Y98900D02*X136900D01*
X125100D02*Y85000D01*
X136900D01*
X37837Y47732D02*G75*G03X37837Y47732I-500J0D01*G01*
X45607Y54755D02*X46393D01*
X45607Y49245D02*X46393D01*
X45607Y65755D02*X46393D01*
X45607Y60245D02*X46393D01*
X37837Y12732D02*G75*G03X37837Y12732I-500J0D01*G01*
X45607Y19755D02*X46393D01*
X45607Y14245D02*X46393D01*
X45607Y30755D02*X46393D01*
X45607Y25245D02*X46393D01*
X136900Y63900D02*Y50000D01*
X125100Y63900D02*X136900D01*
X125100D02*Y50000D01*
X136900D01*
X56245Y57893D02*Y57107D01*
X61755Y57893D02*Y57107D01*
X65500Y67000D02*Y48000D01*
X96500D01*
Y67000D01*
X65500D02*X78500D01*
X96500D02*X83500D01*
X78500D02*G75*G03X83500Y67000I2500J0D01*G01*
X56245Y22893D02*Y22107D01*
X61755Y22893D02*Y22107D01*
X136900Y28900D02*Y15000D01*
X125100Y28900D02*X136900D01*
X125100D02*Y15000D01*
X136900D01*
X65500Y32000D02*Y13000D01*
X96500D01*
Y32000D01*
X65500D02*X78500D01*
X96500D02*X83500D01*
X78500D02*G75*G03X83500Y32000I2500J0D01*G01*
X179000Y48200D02*X200000D01*
X179000Y57800D02*X200000D01*
X179000Y48200D02*Y57800D01*
X200000Y48200D02*Y57800D01*
X187000Y48200D02*Y57800D01*
X159520Y66750D02*X170150D01*
X159520Y48250D02*X170150D01*
Y66750D02*Y63500D01*
Y51500D02*Y48250D01*
X159520Y66750D02*Y66571D01*
Y48429D02*Y48250D01*
X185607Y66255D02*X186393D01*
X185607Y60745D02*X186393D01*
X205607Y66255D02*X206393D01*
X205607Y60745D02*X206393D01*
X145107Y49245D02*X145893D01*
X145107Y54755D02*X145893D01*
X179000Y13200D02*X200000D01*
X179000Y22800D02*X200000D01*
X179000Y13200D02*Y22800D01*
X200000Y13200D02*Y22800D01*
X187000Y13200D02*Y22800D01*
X159520Y31750D02*X170150D01*
X159520Y13250D02*X170150D01*
Y31750D02*Y28500D01*
Y16500D02*Y13250D01*
X159520Y31750D02*Y31571D01*
Y13429D02*Y13250D01*
X145107Y14245D02*X145893D01*
X145107Y19755D02*X145893D01*
X185607Y31255D02*X186393D01*
X185607Y25745D02*X186393D01*
X205607Y31255D02*X206393D01*
X205607Y25745D02*X206393D01*
G54D67*X54060Y362000D02*X55100D01*
X53500Y362560D02*X54060Y362000D01*
X53500Y364640D02*Y362560D01*
Y364640D02*X54060Y365200D01*
X55100D01*
X56060Y364800D02*X56460Y365200D01*
X57260D01*
X57660Y364800D01*
X57260Y362000D02*X57660Y362400D01*
X56460Y362000D02*X57260D01*
X56060Y362400D02*X56460Y362000D01*
Y363760D02*X57260D01*
X57660Y364800D02*Y364160D01*
Y363360D02*Y362400D01*
Y363360D02*X57260Y363760D01*
X57660Y364160D02*X57260Y363760D01*
X49900Y339100D02*X51500D01*
X51900Y338700D01*
Y337900D01*
X51500Y337500D02*X51900Y337900D01*
X50300Y337500D02*X51500D01*
X50300Y339100D02*Y335900D01*
X50940Y337500D02*X51900Y335900D01*
X52860Y338700D02*X53260Y339100D01*
X54460D01*
X54860Y338700D01*
Y337900D01*
X52860Y335900D02*X54860Y337900D01*
X52860Y335900D02*X54860D01*
X54060Y344500D02*X55100D01*
X53500Y345060D02*X54060Y344500D01*
X53500Y347140D02*Y345060D01*
Y347140D02*X54060Y347700D01*
X55100D01*
X56060Y347300D02*X56460Y347700D01*
X57660D01*
X58060Y347300D01*
Y346500D01*
X56060Y344500D02*X58060Y346500D01*
X56060Y344500D02*X58060D01*
X54060Y327000D02*X55100D01*
X53500Y327560D02*X54060Y327000D01*
X53500Y329640D02*Y327560D01*
Y329640D02*X54060Y330200D01*
X55100D01*
X56060Y329800D02*X56460Y330200D01*
X57260D01*
X57660Y329800D01*
X57260Y327000D02*X57660Y327400D01*
X56460Y327000D02*X57260D01*
X56060Y327400D02*X56460Y327000D01*
Y328760D02*X57260D01*
X57660Y329800D02*Y329160D01*
Y328360D02*Y327400D01*
Y328360D02*X57260Y328760D01*
X57660Y329160D02*X57260Y328760D01*
X49900Y269100D02*X51500D01*
X51900Y268700D01*
Y267900D01*
X51500Y267500D02*X51900Y267900D01*
X50300Y267500D02*X51500D01*
X50300Y269100D02*Y265900D01*
X50940Y267500D02*X51900Y265900D01*
X52860Y268700D02*X53260Y269100D01*
X54460D01*
X54860Y268700D01*
Y267900D01*
X52860Y265900D02*X54860Y267900D01*
X52860Y265900D02*X54860D01*
X54060Y257000D02*X55100D01*
X53500Y257560D02*X54060Y257000D01*
X53500Y259640D02*Y257560D01*
Y259640D02*X54060Y260200D01*
X55100D01*
X56060Y259800D02*X56460Y260200D01*
X57260D01*
X57660Y259800D01*
X57260Y257000D02*X57660Y257400D01*
X56460Y257000D02*X57260D01*
X56060Y257400D02*X56460Y257000D01*
Y258760D02*X57260D01*
X57660Y259800D02*Y259160D01*
Y258360D02*Y257400D01*
Y258360D02*X57260Y258760D01*
X57660Y259160D02*X57260Y258760D01*
X54060Y274500D02*X55100D01*
X53500Y275060D02*X54060Y274500D01*
X53500Y277140D02*Y275060D01*
Y277140D02*X54060Y277700D01*
X55100D01*
X56060Y277300D02*X56460Y277700D01*
X57660D01*
X58060Y277300D01*
Y276500D01*
X56060Y274500D02*X58060Y276500D01*
X56060Y274500D02*X58060D01*
X49900Y304100D02*X51500D01*
X51900Y303700D01*
Y302900D01*
X51500Y302500D02*X51900Y302900D01*
X50300Y302500D02*X51500D01*
X50300Y304100D02*Y300900D01*
X50940Y302500D02*X51900Y300900D01*
X52860Y303700D02*X53260Y304100D01*
X54460D01*
X54860Y303700D01*
Y302900D01*
X52860Y300900D02*X54860Y302900D01*
X52860Y300900D02*X54860D01*
X54060Y309500D02*X55100D01*
X53500Y310060D02*X54060Y309500D01*
X53500Y312140D02*Y310060D01*
Y312140D02*X54060Y312700D01*
X55100D01*
X56060Y312300D02*X56460Y312700D01*
X57660D01*
X58060Y312300D01*
Y311500D01*
X56060Y309500D02*X58060Y311500D01*
X56060Y309500D02*X58060D01*
X119500Y365300D02*Y362500D01*
X119900Y362100D01*
X120700D01*
X121100Y362500D01*
Y365300D02*Y362500D01*
X122060Y363300D02*X123660Y365300D01*
X122060Y363300D02*X124060D01*
X123660Y365300D02*Y362100D01*
X98500Y365230D02*Y362535D01*
X98885Y362150D01*
X99655D01*
X100040Y362535D01*
Y365230D02*Y362535D01*
X100964Y364845D02*X101349Y365230D01*
X102504D01*
X102889Y364845D01*
Y364075D01*
X100964Y362150D02*X102889Y364075D01*
X100964Y362150D02*X102889D01*
X119500Y330300D02*Y327500D01*
X119900Y327100D01*
X120700D01*
X121100Y327500D01*
Y330300D02*Y327500D01*
X122060Y328300D02*X123660Y330300D01*
X122060Y328300D02*X124060D01*
X123660Y330300D02*Y327100D01*
X54060Y292000D02*X55100D01*
X53500Y292560D02*X54060Y292000D01*
X53500Y294640D02*Y292560D01*
Y294640D02*X54060Y295200D01*
X55100D01*
X56060Y294800D02*X56460Y295200D01*
X57260D01*
X57660Y294800D01*
X57260Y292000D02*X57660Y292400D01*
X56460Y292000D02*X57260D01*
X56060Y292400D02*X56460Y292000D01*
Y293760D02*X57260D01*
X57660Y294800D02*Y294160D01*
Y293360D02*Y292400D01*
Y293360D02*X57260Y293760D01*
X57660Y294160D02*X57260Y293760D01*
X119500Y295300D02*Y292500D01*
X119900Y292100D01*
X120700D01*
X121100Y292500D01*
Y295300D02*Y292500D01*
X122060Y293300D02*X123660Y295300D01*
X122060Y293300D02*X124060D01*
X123660Y295300D02*Y292100D01*
X98500Y295230D02*Y292535D01*
X98885Y292150D01*
X99655D01*
X100040Y292535D01*
Y295230D02*Y292535D01*
X100964Y294845D02*X101349Y295230D01*
X102504D01*
X102889Y294845D01*
Y294075D01*
X100964Y292150D02*X102889Y294075D01*
X100964Y292150D02*X102889D01*
X98500Y330230D02*Y327535D01*
X98885Y327150D01*
X99655D01*
X100040Y327535D01*
Y330230D02*Y327535D01*
X100964Y329845D02*X101349Y330230D01*
X102504D01*
X102889Y329845D01*
Y329075D01*
X100964Y327150D02*X102889Y329075D01*
X100964Y327150D02*X102889D01*
X119500Y260300D02*Y257500D01*
X119900Y257100D01*
X120700D01*
X121100Y257500D01*
Y260300D02*Y257500D01*
X122060Y258300D02*X123660Y260300D01*
X122060Y258300D02*X124060D01*
X123660Y260300D02*Y257100D01*
X98500Y260230D02*Y257535D01*
X98885Y257150D01*
X99655D01*
X100040Y257535D01*
Y260230D02*Y257535D01*
X100964Y259845D02*X101349Y260230D01*
X102504D01*
X102889Y259845D01*
Y259075D01*
X100964Y257150D02*X102889Y259075D01*
X100964Y257150D02*X102889D01*
X119500Y225300D02*Y222500D01*
X119900Y222100D01*
X120700D01*
X121100Y222500D01*
Y225300D02*Y222500D01*
X122060Y223300D02*X123660Y225300D01*
X122060Y223300D02*X124060D01*
X123660Y225300D02*Y222100D01*
X98500Y225230D02*Y222535D01*
X98885Y222150D01*
X99655D01*
X100040Y222535D01*
Y225230D02*Y222535D01*
X100964Y224845D02*X101349Y225230D01*
X102504D01*
X102889Y224845D01*
Y224075D01*
X100964Y222150D02*X102889Y224075D01*
X100964Y222150D02*X102889D01*
X49900Y234100D02*X51500D01*
X51900Y233700D01*
Y232900D01*
X51500Y232500D02*X51900Y232900D01*
X50300Y232500D02*X51500D01*
X50300Y234100D02*Y230900D01*
X50940Y232500D02*X51900Y230900D01*
X52860Y233700D02*X53260Y234100D01*
X54460D01*
X54860Y233700D01*
Y232900D01*
X52860Y230900D02*X54860Y232900D01*
X52860Y230900D02*X54860D01*
X54060Y222000D02*X55100D01*
X53500Y222560D02*X54060Y222000D01*
X53500Y224640D02*Y222560D01*
Y224640D02*X54060Y225200D01*
X55100D01*
X56060Y224800D02*X56460Y225200D01*
X57260D01*
X57660Y224800D01*
X57260Y222000D02*X57660Y222400D01*
X56460Y222000D02*X57260D01*
X56060Y222400D02*X56460Y222000D01*
Y223760D02*X57260D01*
X57660Y224800D02*Y224160D01*
Y223360D02*Y222400D01*
Y223360D02*X57260Y223760D01*
X57660Y224160D02*X57260Y223760D01*
X54060Y239500D02*X55100D01*
X53500Y240060D02*X54060Y239500D01*
X53500Y242140D02*Y240060D01*
Y242140D02*X54060Y242700D01*
X55100D01*
X56060Y242300D02*X56460Y242700D01*
X57660D01*
X58060Y242300D01*
Y241500D01*
X56060Y239500D02*X58060Y241500D01*
X56060Y239500D02*X58060D01*
X54060Y204500D02*X55100D01*
X53500Y205060D02*X54060Y204500D01*
X53500Y207140D02*Y205060D01*
Y207140D02*X54060Y207700D01*
X55100D01*
X56060Y207300D02*X56460Y207700D01*
X57660D01*
X58060Y207300D01*
Y206500D01*
X56060Y204500D02*X58060Y206500D01*
X56060Y204500D02*X58060D01*
X201900Y402200D02*Y399000D01*
X202940Y402200D02*X203500Y401640D01*
Y399560D01*
X202940Y399000D02*X203500Y399560D01*
X201500Y399000D02*X202940D01*
X201500Y402200D02*X202940D01*
X204460Y401560D02*X205100Y402200D01*
Y399000D01*
X204460D02*X205660D01*
X228500Y406500D02*Y405700D01*
Y406500D02*X232000D01*
X232500Y406000D02*X232000Y406500D01*
X232500Y406000D02*Y405500D01*
X232000Y405000D02*X232500Y405500D01*
X231500Y405000D02*X232000D01*
X229000Y407700D02*X228500Y408200D01*
Y409700D02*Y408200D01*
Y409700D02*X229000Y410200D01*
X230000D01*
X232500Y407700D02*X230000Y410200D01*
X232500D02*Y407700D01*
X202750Y409350D02*Y406150D01*
X203790Y409350D02*X204350Y408790D01*
Y406710D01*
X203790Y406150D02*X204350Y406710D01*
X202350Y406150D02*X203790D01*
X202350Y409350D02*X203790D01*
X205310Y408950D02*X205710Y409350D01*
X206910D01*
X207310Y408950D01*
Y408150D01*
X205310Y406150D02*X207310Y408150D01*
X205310Y406150D02*X207310D01*
X172000Y417200D02*Y414400D01*
X172400Y414000D01*
X173200D01*
X173600Y414400D01*
Y417200D02*Y414400D01*
X174560Y416560D02*X175200Y417200D01*
Y414000D01*
X174560D02*X175760D01*
X193436Y414850D02*X195036D01*
X195436Y414450D01*
Y413650D01*
X195036Y413250D02*X195436Y413650D01*
X193836Y413250D02*X195036D01*
X193836Y414850D02*Y411650D01*
X194476Y413250D02*X195436Y411650D01*
X196396Y414210D02*X197036Y414850D01*
Y411650D01*
X196396D02*X197596D01*
X193436Y379850D02*X195036D01*
X195436Y379450D01*
Y378650D01*
X195036Y378250D02*X195436Y378650D01*
X193836Y378250D02*X195036D01*
X193836Y379850D02*Y376650D01*
X194476Y378250D02*X195436Y376650D01*
X196396Y379210D02*X197036Y379850D01*
Y376650D01*
X196396D02*X197596D01*
X49900Y409100D02*X51500D01*
X51900Y408700D01*
Y407900D01*
X51500Y407500D02*X51900Y407900D01*
X50300Y407500D02*X51500D01*
X50300Y409100D02*Y405900D01*
X50940Y407500D02*X51900Y405900D01*
X52860Y408700D02*X53260Y409100D01*
X54460D01*
X54860Y408700D01*
Y407900D01*
X52860Y405900D02*X54860Y407900D01*
X52860Y405900D02*X54860D01*
X54060Y397000D02*X55100D01*
X53500Y397560D02*X54060Y397000D01*
X53500Y399640D02*Y397560D01*
Y399640D02*X54060Y400200D01*
X55100D01*
X56060Y399800D02*X56460Y400200D01*
X57260D01*
X57660Y399800D01*
X57260Y397000D02*X57660Y397400D01*
X56460Y397000D02*X57260D01*
X56060Y397400D02*X56460Y397000D01*
Y398760D02*X57260D01*
X57660Y399800D02*Y399160D01*
Y398360D02*Y397400D01*
Y398360D02*X57260Y398760D01*
X57660Y399160D02*X57260Y398760D01*
X54060Y414500D02*X55100D01*
X53500Y415060D02*X54060Y414500D01*
X53500Y417140D02*Y415060D01*
Y417140D02*X54060Y417700D01*
X55100D01*
X56060Y417300D02*X56460Y417700D01*
X57660D01*
X58060Y417300D01*
Y416500D01*
X56060Y414500D02*X58060Y416500D01*
X56060Y414500D02*X58060D01*
X119500Y400300D02*Y397500D01*
X119900Y397100D01*
X120700D01*
X121100Y397500D01*
Y400300D02*Y397500D01*
X122060Y398300D02*X123660Y400300D01*
X122060Y398300D02*X124060D01*
X123660Y400300D02*Y397100D01*
X98500Y400230D02*Y397535D01*
X98885Y397150D01*
X99655D01*
X100040Y397535D01*
Y400230D02*Y397535D01*
X100964Y399845D02*X101349Y400230D01*
X102504D01*
X102889Y399845D01*
Y399075D01*
X100964Y397150D02*X102889Y399075D01*
X100964Y397150D02*X102889D01*
X49900Y374100D02*X51500D01*
X51900Y373700D01*
Y372900D01*
X51500Y372500D02*X51900Y372900D01*
X50300Y372500D02*X51500D01*
X50300Y374100D02*Y370900D01*
X50940Y372500D02*X51900Y370900D01*
X52860Y373700D02*X53260Y374100D01*
X54460D01*
X54860Y373700D01*
Y372900D01*
X52860Y370900D02*X54860Y372900D01*
X52860Y370900D02*X54860D01*
X54060Y379500D02*X55100D01*
X53500Y380060D02*X54060Y379500D01*
X53500Y382140D02*Y380060D01*
Y382140D02*X54060Y382700D01*
X55100D01*
X56060Y382300D02*X56460Y382700D01*
X57660D01*
X58060Y382300D01*
Y381500D01*
X56060Y379500D02*X58060Y381500D01*
X56060Y379500D02*X58060D01*
X144497Y410906D02*X145537D01*
X143937Y411466D02*X144497Y410906D01*
X143937Y413546D02*Y411466D01*
Y413546D02*X144497Y414106D01*
X145537D01*
X146497Y413466D02*X147137Y414106D01*
Y410906D01*
X146497D02*X147697D01*
X144497Y375906D02*X145537D01*
X143937Y376466D02*X144497Y375906D01*
X143937Y378546D02*Y376466D01*
Y378546D02*X144497Y379106D01*
X145537D01*
X146497Y378466D02*X147137Y379106D01*
Y375906D01*
X146497D02*X147697D01*
X144497Y340906D02*X145537D01*
X143937Y341466D02*X144497Y340906D01*
X143937Y343546D02*Y341466D01*
Y343546D02*X144497Y344106D01*
X145537D01*
X146497Y343466D02*X147137Y344106D01*
Y340906D01*
X146497D02*X147697D01*
X144497Y305906D02*X145537D01*
X143937Y306466D02*X144497Y305906D01*
X143937Y308546D02*Y306466D01*
Y308546D02*X144497Y309106D01*
X145537D01*
X146497Y308466D02*X147137Y309106D01*
Y305906D01*
X146497D02*X147697D01*
X144497Y270906D02*X145537D01*
X143937Y271466D02*X144497Y270906D01*
X143937Y273546D02*Y271466D01*
Y273546D02*X144497Y274106D01*
X145537D01*
X146497Y273466D02*X147137Y274106D01*
Y270906D01*
X146497D02*X147697D01*
X228500Y371500D02*Y370700D01*
Y371500D02*X232000D01*
X232500Y371000D02*X232000Y371500D01*
X232500Y371000D02*Y370500D01*
X232000Y370000D02*X232500Y370500D01*
X231500Y370000D02*X232000D01*
X229000Y372700D02*X228500Y373200D01*
Y374700D02*Y373200D01*
Y374700D02*X229000Y375200D01*
X230000D01*
X232500Y372700D02*X230000Y375200D01*
X232500D02*Y372700D01*
X228500Y336500D02*Y335700D01*
Y336500D02*X232000D01*
X232500Y336000D02*X232000Y336500D01*
X232500Y336000D02*Y335500D01*
X232000Y335000D02*X232500Y335500D01*
X231500Y335000D02*X232000D01*
X229000Y337700D02*X228500Y338200D01*
Y339700D02*Y338200D01*
Y339700D02*X229000Y340200D01*
X230000D01*
X232500Y337700D02*X230000Y340200D01*
X232500D02*Y337700D01*
X172000Y382200D02*Y379400D01*
X172400Y379000D01*
X173200D01*
X173600Y379400D01*
Y382200D02*Y379400D01*
X174560Y381560D02*X175200Y382200D01*
Y379000D01*
X174560D02*X175760D01*
X172000Y347200D02*Y344400D01*
X172400Y344000D01*
X173200D01*
X173600Y344400D01*
Y347200D02*Y344400D01*
X174560Y346560D02*X175200Y347200D01*
Y344000D01*
X174560D02*X175760D01*
X172000Y312200D02*Y309400D01*
X172400Y309000D01*
X173200D01*
X173600Y309400D01*
Y312200D02*Y309400D01*
X174560Y311560D02*X175200Y312200D01*
Y309000D01*
X174560D02*X175760D01*
X172000Y277200D02*Y274400D01*
X172400Y274000D01*
X173200D01*
X173600Y274400D01*
Y277200D02*Y274400D01*
X174560Y276560D02*X175200Y277200D01*
Y274000D01*
X174560D02*X175760D01*
X201900Y367200D02*Y364000D01*
X202940Y367200D02*X203500Y366640D01*
Y364560D01*
X202940Y364000D02*X203500Y364560D01*
X201500Y364000D02*X202940D01*
X201500Y367200D02*X202940D01*
X204460Y366560D02*X205100Y367200D01*
Y364000D01*
X204460D02*X205660D01*
X202750Y374350D02*Y371150D01*
X203790Y374350D02*X204350Y373790D01*
Y371710D01*
X203790Y371150D02*X204350Y371710D01*
X202350Y371150D02*X203790D01*
X202350Y374350D02*X203790D01*
X205310Y373950D02*X205710Y374350D01*
X206910D01*
X207310Y373950D01*
Y373150D01*
X205310Y371150D02*X207310Y373150D01*
X205310Y371150D02*X207310D01*
X201900Y332200D02*Y329000D01*
X202940Y332200D02*X203500Y331640D01*
Y329560D01*
X202940Y329000D02*X203500Y329560D01*
X201500Y329000D02*X202940D01*
X201500Y332200D02*X202940D01*
X204460Y331560D02*X205100Y332200D01*
Y329000D01*
X204460D02*X205660D01*
X193436Y344850D02*X195036D01*
X195436Y344450D01*
Y343650D01*
X195036Y343250D02*X195436Y343650D01*
X193836Y343250D02*X195036D01*
X193836Y344850D02*Y341650D01*
X194476Y343250D02*X195436Y341650D01*
X196396Y344210D02*X197036Y344850D01*
Y341650D01*
X196396D02*X197596D01*
X202750Y339350D02*Y336150D01*
X203790Y339350D02*X204350Y338790D01*
Y336710D01*
X203790Y336150D02*X204350Y336710D01*
X202350Y336150D02*X203790D01*
X202350Y339350D02*X203790D01*
X205310Y338950D02*X205710Y339350D01*
X206910D01*
X207310Y338950D01*
Y338150D01*
X205310Y336150D02*X207310Y338150D01*
X205310Y336150D02*X207310D01*
X201900Y297200D02*Y294000D01*
X202940Y297200D02*X203500Y296640D01*
Y294560D01*
X202940Y294000D02*X203500Y294560D01*
X201500Y294000D02*X202940D01*
X201500Y297200D02*X202940D01*
X204460Y296560D02*X205100Y297200D01*
Y294000D01*
X204460D02*X205660D01*
X193436Y309850D02*X195036D01*
X195436Y309450D01*
Y308650D01*
X195036Y308250D02*X195436Y308650D01*
X193836Y308250D02*X195036D01*
X193836Y309850D02*Y306650D01*
X194476Y308250D02*X195436Y306650D01*
X196396Y309210D02*X197036Y309850D01*
Y306650D01*
X196396D02*X197596D01*
X202750Y304350D02*Y301150D01*
X203790Y304350D02*X204350Y303790D01*
Y301710D01*
X203790Y301150D02*X204350Y301710D01*
X202350Y301150D02*X203790D01*
X202350Y304350D02*X203790D01*
X205310Y303950D02*X205710Y304350D01*
X206910D01*
X207310Y303950D01*
Y303150D01*
X205310Y301150D02*X207310Y303150D01*
X205310Y301150D02*X207310D01*
X228500Y301500D02*Y300700D01*
Y301500D02*X232000D01*
X232500Y301000D02*X232000Y301500D01*
X232500Y301000D02*Y300500D01*
X232000Y300000D02*X232500Y300500D01*
X231500Y300000D02*X232000D01*
X229000Y302700D02*X228500Y303200D01*
Y304700D02*Y303200D01*
Y304700D02*X229000Y305200D01*
X230000D01*
X232500Y302700D02*X230000Y305200D01*
X232500D02*Y302700D01*
X228500Y266500D02*Y265700D01*
Y266500D02*X232000D01*
X232500Y266000D02*X232000Y266500D01*
X232500Y266000D02*Y265500D01*
X232000Y265000D02*X232500Y265500D01*
X231500Y265000D02*X232000D01*
X229000Y267700D02*X228500Y268200D01*
Y269700D02*Y268200D01*
Y269700D02*X229000Y270200D01*
X230000D01*
X232500Y267700D02*X230000Y270200D01*
X232500D02*Y267700D01*
X201900Y262200D02*Y259000D01*
X202940Y262200D02*X203500Y261640D01*
Y259560D01*
X202940Y259000D02*X203500Y259560D01*
X201500Y259000D02*X202940D01*
X201500Y262200D02*X202940D01*
X204460Y261560D02*X205100Y262200D01*
Y259000D01*
X204460D02*X205660D01*
X193436Y274850D02*X195036D01*
X195436Y274450D01*
Y273650D01*
X195036Y273250D02*X195436Y273650D01*
X193836Y273250D02*X195036D01*
X193836Y274850D02*Y271650D01*
X194476Y273250D02*X195436Y271650D01*
X196396Y274210D02*X197036Y274850D01*
Y271650D01*
X196396D02*X197596D01*
X202750Y269350D02*Y266150D01*
X203790Y269350D02*X204350Y268790D01*
Y266710D01*
X203790Y266150D02*X204350Y266710D01*
X202350Y266150D02*X203790D01*
X202350Y269350D02*X203790D01*
X205310Y268950D02*X205710Y269350D01*
X206910D01*
X207310Y268950D01*
Y268150D01*
X205310Y266150D02*X207310Y268150D01*
X205310Y266150D02*X207310D01*
X228500Y231500D02*Y230700D01*
Y231500D02*X232000D01*
X232500Y231000D02*X232000Y231500D01*
X232500Y231000D02*Y230500D01*
X232000Y230000D02*X232500Y230500D01*
X231500Y230000D02*X232000D01*
X229000Y232700D02*X228500Y233200D01*
Y234700D02*Y233200D01*
Y234700D02*X229000Y235200D01*
X230000D01*
X232500Y232700D02*X230000Y235200D01*
X232500D02*Y232700D01*
X172000Y242200D02*Y239400D01*
X172400Y239000D01*
X173200D01*
X173600Y239400D01*
Y242200D02*Y239400D01*
X174560Y241560D02*X175200Y242200D01*
Y239000D01*
X174560D02*X175760D01*
X172000Y207200D02*Y204400D01*
X172400Y204000D01*
X173200D01*
X173600Y204400D01*
Y207200D02*Y204400D01*
X174560Y206560D02*X175200Y207200D01*
Y204000D01*
X174560D02*X175760D01*
X172000Y172200D02*Y169400D01*
X172400Y169000D01*
X173200D01*
X173600Y169400D01*
Y172200D02*Y169400D01*
X174560Y171560D02*X175200Y172200D01*
Y169000D01*
X174560D02*X175760D01*
X201900Y227200D02*Y224000D01*
X202940Y227200D02*X203500Y226640D01*
Y224560D01*
X202940Y224000D02*X203500Y224560D01*
X201500Y224000D02*X202940D01*
X201500Y227200D02*X202940D01*
X204460Y226560D02*X205100Y227200D01*
Y224000D01*
X204460D02*X205660D01*
X193436Y239850D02*X195036D01*
X195436Y239450D01*
Y238650D01*
X195036Y238250D02*X195436Y238650D01*
X193836Y238250D02*X195036D01*
X193836Y239850D02*Y236650D01*
X194476Y238250D02*X195436Y236650D01*
X196396Y239210D02*X197036Y239850D01*
Y236650D01*
X196396D02*X197596D01*
X202750Y234350D02*Y231150D01*
X203790Y234350D02*X204350Y233790D01*
Y231710D01*
X203790Y231150D02*X204350Y231710D01*
X202350Y231150D02*X203790D01*
X202350Y234350D02*X203790D01*
X205310Y233950D02*X205710Y234350D01*
X206910D01*
X207310Y233950D01*
Y233150D01*
X205310Y231150D02*X207310Y233150D01*
X205310Y231150D02*X207310D01*
X201900Y192200D02*Y189000D01*
X202940Y192200D02*X203500Y191640D01*
Y189560D01*
X202940Y189000D02*X203500Y189560D01*
X201500Y189000D02*X202940D01*
X201500Y192200D02*X202940D01*
X204460Y191560D02*X205100Y192200D01*
Y189000D01*
X204460D02*X205660D01*
X193436Y204850D02*X195036D01*
X195436Y204450D01*
Y203650D01*
X195036Y203250D02*X195436Y203650D01*
X193836Y203250D02*X195036D01*
X193836Y204850D02*Y201650D01*
X194476Y203250D02*X195436Y201650D01*
X196396Y204210D02*X197036Y204850D01*
Y201650D01*
X196396D02*X197596D01*
X202750Y199350D02*Y196150D01*
X203790Y199350D02*X204350Y198790D01*
Y196710D01*
X203790Y196150D02*X204350Y196710D01*
X202350Y196150D02*X203790D01*
X202350Y199350D02*X203790D01*
X205310Y198950D02*X205710Y199350D01*
X206910D01*
X207310Y198950D01*
Y198150D01*
X205310Y196150D02*X207310Y198150D01*
X205310Y196150D02*X207310D01*
X228500Y196500D02*Y195700D01*
Y196500D02*X232000D01*
X232500Y196000D02*X232000Y196500D01*
X232500Y196000D02*Y195500D01*
X232000Y195000D02*X232500Y195500D01*
X231500Y195000D02*X232000D01*
X229000Y197700D02*X228500Y198200D01*
Y199700D02*Y198200D01*
Y199700D02*X229000Y200200D01*
X230000D01*
X232500Y197700D02*X230000Y200200D01*
X232500D02*Y197700D01*
X172000Y137200D02*Y134400D01*
X172400Y134000D01*
X173200D01*
X173600Y134400D01*
Y137200D02*Y134400D01*
X174560Y136560D02*X175200Y137200D01*
Y134000D01*
X174560D02*X175760D01*
X172000Y102200D02*Y99400D01*
X172400Y99000D01*
X173200D01*
X173600Y99400D01*
Y102200D02*Y99400D01*
X174560Y101560D02*X175200Y102200D01*
Y99000D01*
X174560D02*X175760D01*
X172000Y67200D02*Y64400D01*
X172400Y64000D01*
X173200D01*
X173600Y64400D01*
Y67200D02*Y64400D01*
X174560Y66560D02*X175200Y67200D01*
Y64000D01*
X174560D02*X175760D01*
X172000Y32200D02*Y29400D01*
X172400Y29000D01*
X173200D01*
X173600Y29400D01*
Y32200D02*Y29400D01*
X174560Y31560D02*X175200Y32200D01*
Y29000D01*
X174560D02*X175760D01*
X49900Y199100D02*X51500D01*
X51900Y198700D01*
Y197900D01*
X51500Y197500D02*X51900Y197900D01*
X50300Y197500D02*X51500D01*
X50300Y199100D02*Y195900D01*
X50940Y197500D02*X51900Y195900D01*
X52860Y198700D02*X53260Y199100D01*
X54460D01*
X54860Y198700D01*
Y197900D01*
X52860Y195900D02*X54860Y197900D01*
X52860Y195900D02*X54860D01*
X54060Y187000D02*X55100D01*
X53500Y187560D02*X54060Y187000D01*
X53500Y189640D02*Y187560D01*
Y189640D02*X54060Y190200D01*
X55100D01*
X56060Y189800D02*X56460Y190200D01*
X57260D01*
X57660Y189800D01*
X57260Y187000D02*X57660Y187400D01*
X56460Y187000D02*X57260D01*
X56060Y187400D02*X56460Y187000D01*
Y188760D02*X57260D01*
X57660Y189800D02*Y189160D01*
Y188360D02*Y187400D01*
Y188360D02*X57260Y188760D01*
X57660Y189160D02*X57260Y188760D01*
X49900Y164100D02*X51500D01*
X51900Y163700D01*
Y162900D01*
X51500Y162500D02*X51900Y162900D01*
X50300Y162500D02*X51500D01*
X50300Y164100D02*Y160900D01*
X50940Y162500D02*X51900Y160900D01*
X52860Y163700D02*X53260Y164100D01*
X54460D01*
X54860Y163700D01*
Y162900D01*
X52860Y160900D02*X54860Y162900D01*
X52860Y160900D02*X54860D01*
X54060Y169500D02*X55100D01*
X53500Y170060D02*X54060Y169500D01*
X53500Y172140D02*Y170060D01*
Y172140D02*X54060Y172700D01*
X55100D01*
X56060Y172300D02*X56460Y172700D01*
X57660D01*
X58060Y172300D01*
Y171500D01*
X56060Y169500D02*X58060Y171500D01*
X56060Y169500D02*X58060D01*
X144497Y235906D02*X145537D01*
X143937Y236466D02*X144497Y235906D01*
X143937Y238546D02*Y236466D01*
Y238546D02*X144497Y239106D01*
X145537D01*
X146497Y238466D02*X147137Y239106D01*
Y235906D01*
X146497D02*X147697D01*
X144497Y200906D02*X145537D01*
X143937Y201466D02*X144497Y200906D01*
X143937Y203546D02*Y201466D01*
Y203546D02*X144497Y204106D01*
X145537D01*
X146497Y203466D02*X147137Y204106D01*
Y200906D01*
X146497D02*X147697D01*
X144497Y165906D02*X145537D01*
X143937Y166466D02*X144497Y165906D01*
X143937Y168546D02*Y166466D01*
Y168546D02*X144497Y169106D01*
X145537D01*
X146497Y168466D02*X147137Y169106D01*
Y165906D01*
X146497D02*X147697D01*
X119500Y190300D02*Y187500D01*
X119900Y187100D01*
X120700D01*
X121100Y187500D01*
Y190300D02*Y187500D01*
X122060Y188300D02*X123660Y190300D01*
X122060Y188300D02*X124060D01*
X123660Y190300D02*Y187100D01*
X98500Y190230D02*Y187535D01*
X98885Y187150D01*
X99655D01*
X100040Y187535D01*
Y190230D02*Y187535D01*
X100964Y189845D02*X101349Y190230D01*
X102504D01*
X102889Y189845D01*
Y189075D01*
X100964Y187150D02*X102889Y189075D01*
X100964Y187150D02*X102889D01*
X119500Y155300D02*Y152500D01*
X119900Y152100D01*
X120700D01*
X121100Y152500D01*
Y155300D02*Y152500D01*
X122060Y153300D02*X123660Y155300D01*
X122060Y153300D02*X124060D01*
X123660Y155300D02*Y152100D01*
X98500Y155230D02*Y152535D01*
X98885Y152150D01*
X99655D01*
X100040Y152535D01*
Y155230D02*Y152535D01*
X100964Y154845D02*X101349Y155230D01*
X102504D01*
X102889Y154845D01*
Y154075D01*
X100964Y152150D02*X102889Y154075D01*
X100964Y152150D02*X102889D01*
X201900Y157200D02*Y154000D01*
X202940Y157200D02*X203500Y156640D01*
Y154560D01*
X202940Y154000D02*X203500Y154560D01*
X201500Y154000D02*X202940D01*
X201500Y157200D02*X202940D01*
X204460Y156560D02*X205100Y157200D01*
Y154000D01*
X204460D02*X205660D01*
X202750Y164350D02*Y161150D01*
X203790Y164350D02*X204350Y163790D01*
Y161710D01*
X203790Y161150D02*X204350Y161710D01*
X202350Y161150D02*X203790D01*
X202350Y164350D02*X203790D01*
X205310Y163950D02*X205710Y164350D01*
X206910D01*
X207310Y163950D01*
Y163150D01*
X205310Y161150D02*X207310Y163150D01*
X205310Y161150D02*X207310D01*
X201900Y122200D02*Y119000D01*
X202940Y122200D02*X203500Y121640D01*
Y119560D01*
X202940Y119000D02*X203500Y119560D01*
X201500Y119000D02*X202940D01*
X201500Y122200D02*X202940D01*
X204460Y121560D02*X205100Y122200D01*
Y119000D01*
X204460D02*X205660D01*
X202750Y129350D02*Y126150D01*
X203790Y129350D02*X204350Y128790D01*
Y126710D01*
X203790Y126150D02*X204350Y126710D01*
X202350Y126150D02*X203790D01*
X202350Y129350D02*X203790D01*
X205310Y128950D02*X205710Y129350D01*
X206910D01*
X207310Y128950D01*
Y128150D01*
X205310Y126150D02*X207310Y128150D01*
X205310Y126150D02*X207310D01*
X228500Y161500D02*Y160700D01*
Y161500D02*X232000D01*
X232500Y161000D02*X232000Y161500D01*
X232500Y161000D02*Y160500D01*
X232000Y160000D02*X232500Y160500D01*
X231500Y160000D02*X232000D01*
X229000Y162700D02*X228500Y163200D01*
Y164700D02*Y163200D01*
Y164700D02*X229000Y165200D01*
X230000D01*
X232500Y162700D02*X230000Y165200D01*
X232500D02*Y162700D01*
X228500Y126500D02*Y125700D01*
Y126500D02*X232000D01*
X232500Y126000D02*X232000Y126500D01*
X232500Y126000D02*Y125500D01*
X232000Y125000D02*X232500Y125500D01*
X231500Y125000D02*X232000D01*
X229000Y127700D02*X228500Y128200D01*
Y129700D02*Y128200D01*
Y129700D02*X229000Y130200D01*
X230000D01*
X232500Y127700D02*X230000Y130200D01*
X232500D02*Y127700D01*
X228500Y91500D02*Y90700D01*
Y91500D02*X232000D01*
X232500Y91000D02*X232000Y91500D01*
X232500Y91000D02*Y90500D01*
X232000Y90000D02*X232500Y90500D01*
X231500Y90000D02*X232000D01*
X229000Y92700D02*X228500Y93200D01*
Y94700D02*Y93200D01*
Y94700D02*X229000Y95200D01*
X230000D01*
X232500Y92700D02*X230000Y95200D01*
X232500D02*Y92700D01*
X193436Y169850D02*X195036D01*
X195436Y169450D01*
Y168650D01*
X195036Y168250D02*X195436Y168650D01*
X193836Y168250D02*X195036D01*
X193836Y169850D02*Y166650D01*
X194476Y168250D02*X195436Y166650D01*
X196396Y169210D02*X197036Y169850D01*
Y166650D01*
X196396D02*X197596D01*
X193436Y134850D02*X195036D01*
X195436Y134450D01*
Y133650D01*
X195036Y133250D02*X195436Y133650D01*
X193836Y133250D02*X195036D01*
X193836Y134850D02*Y131650D01*
X194476Y133250D02*X195436Y131650D01*
X196396Y134210D02*X197036Y134850D01*
Y131650D01*
X196396D02*X197596D01*
X193436Y99850D02*X195036D01*
X195436Y99450D01*
Y98650D01*
X195036Y98250D02*X195436Y98650D01*
X193836Y98250D02*X195036D01*
X193836Y99850D02*Y96650D01*
X194476Y98250D02*X195436Y96650D01*
X196396Y99210D02*X197036Y99850D01*
Y96650D01*
X196396D02*X197596D01*
X201900Y87200D02*Y84000D01*
X202940Y87200D02*X203500Y86640D01*
Y84560D01*
X202940Y84000D02*X203500Y84560D01*
X201500Y84000D02*X202940D01*
X201500Y87200D02*X202940D01*
X204460Y86560D02*X205100Y87200D01*
Y84000D01*
X204460D02*X205660D01*
X202750Y94350D02*Y91150D01*
X203790Y94350D02*X204350Y93790D01*
Y91710D01*
X203790Y91150D02*X204350Y91710D01*
X202350Y91150D02*X203790D01*
X202350Y94350D02*X203790D01*
X205310Y93950D02*X205710Y94350D01*
X206910D01*
X207310Y93950D01*
Y93150D01*
X205310Y91150D02*X207310Y93150D01*
X205310Y91150D02*X207310D01*
X201900Y52200D02*Y49000D01*
X202940Y52200D02*X203500Y51640D01*
Y49560D01*
X202940Y49000D02*X203500Y49560D01*
X201500Y49000D02*X202940D01*
X201500Y52200D02*X202940D01*
X204460Y51560D02*X205100Y52200D01*
Y49000D01*
X204460D02*X205660D01*
X202750Y59350D02*Y56150D01*
X203790Y59350D02*X204350Y58790D01*
Y56710D01*
X203790Y56150D02*X204350Y56710D01*
X202350Y56150D02*X203790D01*
X202350Y59350D02*X203790D01*
X205310Y58950D02*X205710Y59350D01*
X206910D01*
X207310Y58950D01*
Y58150D01*
X205310Y56150D02*X207310Y58150D01*
X205310Y56150D02*X207310D01*
X201900Y17200D02*Y14000D01*
X202940Y17200D02*X203500Y16640D01*
Y14560D01*
X202940Y14000D02*X203500Y14560D01*
X201500Y14000D02*X202940D01*
X201500Y17200D02*X202940D01*
X204460Y16560D02*X205100Y17200D01*
Y14000D01*
X204460D02*X205660D01*
X202750Y24350D02*Y21150D01*
X203790Y24350D02*X204350Y23790D01*
Y21710D01*
X203790Y21150D02*X204350Y21710D01*
X202350Y21150D02*X203790D01*
X202350Y24350D02*X203790D01*
X205310Y23950D02*X205710Y24350D01*
X206910D01*
X207310Y23950D01*
Y23150D01*
X205310Y21150D02*X207310Y23150D01*
X205310Y21150D02*X207310D01*
X228500Y56500D02*Y55700D01*
Y56500D02*X232000D01*
X232500Y56000D02*X232000Y56500D01*
X232500Y56000D02*Y55500D01*
X232000Y55000D02*X232500Y55500D01*
X231500Y55000D02*X232000D01*
X229000Y57700D02*X228500Y58200D01*
Y59700D02*Y58200D01*
Y59700D02*X229000Y60200D01*
X230000D01*
X232500Y57700D02*X230000Y60200D01*
X232500D02*Y57700D01*
X228500Y21500D02*Y20700D01*
Y21500D02*X232000D01*
X232500Y21000D02*X232000Y21500D01*
X232500Y21000D02*Y20500D01*
X232000Y20000D02*X232500Y20500D01*
X231500Y20000D02*X232000D01*
X229000Y22700D02*X228500Y23200D01*
Y24700D02*Y23200D01*
Y24700D02*X229000Y25200D01*
X230000D01*
X232500Y22700D02*X230000Y25200D01*
X232500D02*Y22700D01*
X193436Y64850D02*X195036D01*
X195436Y64450D01*
Y63650D01*
X195036Y63250D02*X195436Y63650D01*
X193836Y63250D02*X195036D01*
X193836Y64850D02*Y61650D01*
X194476Y63250D02*X195436Y61650D01*
X196396Y64210D02*X197036Y64850D01*
Y61650D01*
X196396D02*X197596D01*
X193436Y29850D02*X195036D01*
X195436Y29450D01*
Y28650D01*
X195036Y28250D02*X195436Y28650D01*
X193836Y28250D02*X195036D01*
X193836Y29850D02*Y26650D01*
X194476Y28250D02*X195436Y26650D01*
X196396Y29210D02*X197036Y29850D01*
Y26650D01*
X196396D02*X197596D01*
X54060Y152000D02*X55100D01*
X53500Y152560D02*X54060Y152000D01*
X53500Y154640D02*Y152560D01*
Y154640D02*X54060Y155200D01*
X55100D01*
X56060Y154800D02*X56460Y155200D01*
X57260D01*
X57660Y154800D01*
X57260Y152000D02*X57660Y152400D01*
X56460Y152000D02*X57260D01*
X56060Y152400D02*X56460Y152000D01*
Y153760D02*X57260D01*
X57660Y154800D02*Y154160D01*
Y153360D02*Y152400D01*
Y153360D02*X57260Y153760D01*
X57660Y154160D02*X57260Y153760D01*
X54060Y134500D02*X55100D01*
X53500Y135060D02*X54060Y134500D01*
X53500Y137140D02*Y135060D01*
Y137140D02*X54060Y137700D01*
X55100D01*
X56060Y137300D02*X56460Y137700D01*
X57660D01*
X58060Y137300D01*
Y136500D01*
X56060Y134500D02*X58060Y136500D01*
X56060Y134500D02*X58060D01*
X49900Y129100D02*X51500D01*
X51900Y128700D01*
Y127900D01*
X51500Y127500D02*X51900Y127900D01*
X50300Y127500D02*X51500D01*
X50300Y129100D02*Y125900D01*
X50940Y127500D02*X51900Y125900D01*
X52860Y128700D02*X53260Y129100D01*
X54460D01*
X54860Y128700D01*
Y127900D01*
X52860Y125900D02*X54860Y127900D01*
X52860Y125900D02*X54860D01*
X54060Y117000D02*X55100D01*
X53500Y117560D02*X54060Y117000D01*
X53500Y119640D02*Y117560D01*
Y119640D02*X54060Y120200D01*
X55100D01*
X56060Y119800D02*X56460Y120200D01*
X57260D01*
X57660Y119800D01*
X57260Y117000D02*X57660Y117400D01*
X56460Y117000D02*X57260D01*
X56060Y117400D02*X56460Y117000D01*
Y118760D02*X57260D01*
X57660Y119800D02*Y119160D01*
Y118360D02*Y117400D01*
Y118360D02*X57260Y118760D01*
X57660Y119160D02*X57260Y118760D01*
X49900Y94100D02*X51500D01*
X51900Y93700D01*
Y92900D01*
X51500Y92500D02*X51900Y92900D01*
X50300Y92500D02*X51500D01*
X50300Y94100D02*Y90900D01*
X50940Y92500D02*X51900Y90900D01*
X52860Y93700D02*X53260Y94100D01*
X54460D01*
X54860Y93700D01*
Y92900D01*
X52860Y90900D02*X54860Y92900D01*
X52860Y90900D02*X54860D01*
X54060Y99500D02*X55100D01*
X53500Y100060D02*X54060Y99500D01*
X53500Y102140D02*Y100060D01*
Y102140D02*X54060Y102700D01*
X55100D01*
X56060Y102300D02*X56460Y102700D01*
X57660D01*
X58060Y102300D01*
Y101500D01*
X56060Y99500D02*X58060Y101500D01*
X56060Y99500D02*X58060D01*
X54060Y82000D02*X55100D01*
X53500Y82560D02*X54060Y82000D01*
X53500Y84640D02*Y82560D01*
Y84640D02*X54060Y85200D01*
X55100D01*
X56060Y84800D02*X56460Y85200D01*
X57260D01*
X57660Y84800D01*
X57260Y82000D02*X57660Y82400D01*
X56460Y82000D02*X57260D01*
X56060Y82400D02*X56460Y82000D01*
Y83760D02*X57260D01*
X57660Y84800D02*Y84160D01*
Y83360D02*Y82400D01*
Y83360D02*X57260Y83760D01*
X57660Y84160D02*X57260Y83760D01*
X54060Y64500D02*X55100D01*
X53500Y65060D02*X54060Y64500D01*
X53500Y67140D02*Y65060D01*
Y67140D02*X54060Y67700D01*
X55100D01*
X56060Y67300D02*X56460Y67700D01*
X57660D01*
X58060Y67300D01*
Y66500D01*
X56060Y64500D02*X58060Y66500D01*
X56060Y64500D02*X58060D01*
X49900Y59100D02*X51500D01*
X51900Y58700D01*
Y57900D01*
X51500Y57500D02*X51900Y57900D01*
X50300Y57500D02*X51500D01*
X50300Y59100D02*Y55900D01*
X50940Y57500D02*X51900Y55900D01*
X52860Y58700D02*X53260Y59100D01*
X54460D01*
X54860Y58700D01*
Y57900D01*
X52860Y55900D02*X54860Y57900D01*
X52860Y55900D02*X54860D01*
X54060Y47000D02*X55100D01*
X53500Y47560D02*X54060Y47000D01*
X53500Y49640D02*Y47560D01*
Y49640D02*X54060Y50200D01*
X55100D01*
X56060Y49800D02*X56460Y50200D01*
X57260D01*
X57660Y49800D01*
X57260Y47000D02*X57660Y47400D01*
X56460Y47000D02*X57260D01*
X56060Y47400D02*X56460Y47000D01*
Y48760D02*X57260D01*
X57660Y49800D02*Y49160D01*
Y48360D02*Y47400D01*
Y48360D02*X57260Y48760D01*
X57660Y49160D02*X57260Y48760D01*
X49900Y24100D02*X51500D01*
X51900Y23700D01*
Y22900D01*
X51500Y22500D02*X51900Y22900D01*
X50300Y22500D02*X51500D01*
X50300Y24100D02*Y20900D01*
X50940Y22500D02*X51900Y20900D01*
X52860Y23700D02*X53260Y24100D01*
X54460D01*
X54860Y23700D01*
Y22900D01*
X52860Y20900D02*X54860Y22900D01*
X52860Y20900D02*X54860D01*
X54060Y12000D02*X55100D01*
X53500Y12560D02*X54060Y12000D01*
X53500Y14640D02*Y12560D01*
Y14640D02*X54060Y15200D01*
X55100D01*
X56060Y14800D02*X56460Y15200D01*
X57260D01*
X57660Y14800D01*
X57260Y12000D02*X57660Y12400D01*
X56460Y12000D02*X57260D01*
X56060Y12400D02*X56460Y12000D01*
Y13760D02*X57260D01*
X57660Y14800D02*Y14160D01*
Y13360D02*Y12400D01*
Y13360D02*X57260Y13760D01*
X57660Y14160D02*X57260Y13760D01*
X54060Y29500D02*X55100D01*
X53500Y30060D02*X54060Y29500D01*
X53500Y32140D02*Y30060D01*
Y32140D02*X54060Y32700D01*
X55100D01*
X56060Y32300D02*X56460Y32700D01*
X57660D01*
X58060Y32300D01*
Y31500D01*
X56060Y29500D02*X58060Y31500D01*
X56060Y29500D02*X58060D01*
X119500Y120300D02*Y117500D01*
X119900Y117100D01*
X120700D01*
X121100Y117500D01*
Y120300D02*Y117500D01*
X122060Y118300D02*X123660Y120300D01*
X122060Y118300D02*X124060D01*
X123660Y120300D02*Y117100D01*
X119500Y85300D02*Y82500D01*
X119900Y82100D01*
X120700D01*
X121100Y82500D01*
Y85300D02*Y82500D01*
X122060Y83300D02*X123660Y85300D01*
X122060Y83300D02*X124060D01*
X123660Y85300D02*Y82100D01*
X144497Y130906D02*X145537D01*
X143937Y131466D02*X144497Y130906D01*
X143937Y133546D02*Y131466D01*
Y133546D02*X144497Y134106D01*
X145537D01*
X146497Y133466D02*X147137Y134106D01*
Y130906D01*
X146497D02*X147697D01*
X144497Y95906D02*X145537D01*
X143937Y96466D02*X144497Y95906D01*
X143937Y98546D02*Y96466D01*
Y98546D02*X144497Y99106D01*
X145537D01*
X146497Y98466D02*X147137Y99106D01*
Y95906D01*
X146497D02*X147697D01*
X144497Y60906D02*X145537D01*
X143937Y61466D02*X144497Y60906D01*
X143937Y63546D02*Y61466D01*
Y63546D02*X144497Y64106D01*
X145537D01*
X146497Y63466D02*X147137Y64106D01*
Y60906D01*
X146497D02*X147697D01*
X98500Y120230D02*Y117535D01*
X98885Y117150D01*
X99655D01*
X100040Y117535D01*
Y120230D02*Y117535D01*
X100964Y119845D02*X101349Y120230D01*
X102504D01*
X102889Y119845D01*
Y119075D01*
X100964Y117150D02*X102889Y119075D01*
X100964Y117150D02*X102889D01*
X98500Y85230D02*Y82535D01*
X98885Y82150D01*
X99655D01*
X100040Y82535D01*
Y85230D02*Y82535D01*
X100964Y84845D02*X101349Y85230D01*
X102504D01*
X102889Y84845D01*
Y84075D01*
X100964Y82150D02*X102889Y84075D01*
X100964Y82150D02*X102889D01*
X98500Y50230D02*Y47535D01*
X98885Y47150D01*
X99655D01*
X100040Y47535D01*
Y50230D02*Y47535D01*
X100964Y49845D02*X101349Y50230D01*
X102504D01*
X102889Y49845D01*
Y49075D01*
X100964Y47150D02*X102889Y49075D01*
X100964Y47150D02*X102889D01*
X119500Y50300D02*Y47500D01*
X119900Y47100D01*
X120700D01*
X121100Y47500D01*
Y50300D02*Y47500D01*
X122060Y48300D02*X123660Y50300D01*
X122060Y48300D02*X124060D01*
X123660Y50300D02*Y47100D01*
X119500Y15300D02*Y12500D01*
X119900Y12100D01*
X120700D01*
X121100Y12500D01*
Y15300D02*Y12500D01*
X122060Y13300D02*X123660Y15300D01*
X122060Y13300D02*X124060D01*
X123660Y15300D02*Y12100D01*
X144497Y25906D02*X145537D01*
X143937Y26466D02*X144497Y25906D01*
X143937Y28546D02*Y26466D01*
Y28546D02*X144497Y29106D01*
X145537D01*
X146497Y28466D02*X147137Y29106D01*
Y25906D01*
X146497D02*X147697D01*
X98500Y15230D02*Y12535D01*
X98885Y12150D01*
X99655D01*
X100040Y12535D01*
Y15230D02*Y12535D01*
X100964Y14845D02*X101349Y15230D01*
X102504D01*
X102889Y14845D01*
Y14075D01*
X100964Y12150D02*X102889Y14075D01*
X100964Y12150D02*X102889D01*
M02*
